<svg version="1.1" xmlns="http://www.w3.org/2000/svg" xmlns:xlink="http://www.w3.org/1999/xlink" width="437.71016" height="96.99943" viewBox="0,0,437.71016,96.99943"><g transform="translate(-21.16774,-156.57981)"><g data-paper-data="{&quot;isPaintingLayer&quot;:true}" fill-rule="nonzero" stroke-linejoin="miter" stroke-miterlimit="10" stroke-dasharray="" stroke-dashoffset="0" style="mix-blend-mode: normal"><path d="M42.29455,182.35615c1.00603,-2.41449 2.35659,-8.15335 4.36732,-10.48157c2.10167,-2.43351 4.06417,-5.03102 6.51001,-7.11832c0.58162,-0.49636 1.49191,-0.34826 2.21443,-0.59849c5.03137,-1.74253 9.4359,-4.21352 15.13624,-4.21352c6.10975,0 13.69701,1.38827 19.81674,0.90577c26.5972,-2.09704 53.35607,-0.82296 80.03571,-0.75c10.12933,0.0277 20.76801,0.61118 30.75,0.75c5.15537,0.0717 10.4112,1.38275 15.51086,1.5c10.4968,0.24134 21.2308,-0.81309 31.73914,-0.75c1.16979,0.00702 2.34745,-0.56333 3.49385,-0.33046c1.51098,0.30694 2.77874,1.38627 4.26972,1.77904c2.13211,0.56167 7.45834,-0.77918 9.33018,-1.05796c9.09686,-1.35485 18.98721,-1.29639 28.00871,-1.29639c4.30259,0 8.66438,1.62126 12.94317,1.65577c13.22246,0.10664 26.44628,0.11647 39.66865,0c4.38738,-0.03865 8.76256,-1.65577 13.18326,-1.65577c4.53445,0 9.06922,0.05096 13.60246,0.15577c6.61164,0.15286 12.67449,2.90894 19.28571,3c9.13342,0.12579 18.52495,-1.73792 27.43977,0.06745c-0.30822,-0.44621 -0.49095,-1.09534 -0.06493,-1.94737c0.89443,-1.78886 2.68328,-0.89443 2.68328,-0.89443l1.82858,0.91429c2.07672,1.03836 4.09923,2.08173 6.11004,3.24707c2.87655,2.83479 5.92683,5.73573 8.09041,9.19378c1.04267,1.22223 1.65492,2.74888 2.08609,4.39721c0.72723,2.23705 1.1085,4.98014 1.5938,7.7427c0.16516,0.57391 0.35612,1.12749 0.58453,1.65219c1.65954,3.81232 3.88243,7.29992 6.04522,10.80823c0.50988,0.24588 1.06155,0.45246 1.65924,0.61516c0,0 0.80708,0.23059 1.22615,0.91586c0.15782,0.11217 0.24815,0.20249 0.24815,0.20249c4.24872,4.28403 5.18442,11.02918 6.62131,16.77678l0.30477,1.21905c0,0 0.48507,1.94028 -1.45522,2.42535c-1.13959,0.2849 -1.77719,-0.26685 -2.10936,-0.77074c0.13797,0.39501 0.24989,0.78727 0.15291,1.17879c-1.69211,6.83097 -5.52426,13.03152 -10.87733,17.59989c-4.07128,3.47448 -17.71045,5.38064 -23.45312,5.40625c-14.65762,0.06535 -29.31635,-0.15401 -43.97331,0c-6.76505,0.07109 -13.9408,1.67029 -20.70055,2.16365c-32.356,2.36147 -64.8841,0.12436 -97.32614,0.08635c-13.24849,-0.01552 -26.02454,-3.11912 -39.34162,-2.25c-3.82516,0.24964 -7.48282,2.40577 -11.55591,2.40577c-21.00867,0 -42.08186,1.99926 -63.00159,4.15118c-5.54282,0.57017 -12.01843,0.04867 -17.07417,0.19305c-11.12027,0.31757 -22.33994,1.04686 -33.49098,1.5c-4.93246,0.20043 -8.84992,1.08348 -13.96474,0.572c-3.80877,-0.38088 -7.5596,-2.07088 -11.39861,-2.072c-9.83929,-0.00288 -15.93697,0.2239 -25.00998,-2.50876c-3.5019,-1.05472 -9.02693,-1.196 -11.8655,-3.64749c-2.36917,-2.04611 -4.59452,-4.27145 -6.64062,-6.64062c-5.47015,-6.33385 -5.47015,-24.82239 0,-31.15625c1.99423,-2.3091 4.69284,-3.99038 6.48456,-6.45992c1.15452,-1.59127 1.58734,-4.85306 2.48419,-6.58696c1.7343,-3.35297 5.1738,-8.74596 8.09958,-10.48661z" fill-opacity="0.30196" fill="#0b5200" stroke="none" stroke-width="0.5" stroke-linecap="butt"/><text transform="translate(59.15774,195.78001) scale(0.35448,0.35448)" font-size="40" xml:space="preserve" fill="#a60000" fill-rule="nonzero" stroke="none" stroke-width="1" stroke-linecap="butt" stroke-linejoin="miter" stroke-miterlimit="10" stroke-dasharray="" stroke-dashoffset="0" font-family="Sans Serif" font-weight="normal" text-anchor="start" style="mix-blend-mode: normal"><tspan x="0" dy="0">1         2        3        4         5         6        7        8          9</tspan></text><path d="M22.67686,220.57072c-1.94028,-0.48507 -1.45522,-2.42535 -1.45522,-2.42535l0.30476,-1.21905c1.4369,-5.7476 2.37259,-12.49275 6.62132,-16.77678c0,0 0.09032,-0.09032 0.24814,-0.20249c0.41906,-0.68527 1.22615,-0.91587 1.22615,-0.91587c8.74856,-2.38146 7.63656,-14.16454 9.94091,-20.99375c1.84233,-5.45994 6.14601,-9.50081 10.11838,-13.41551c2.0108,-1.16534 4.03332,-2.20871 6.11004,-3.24707l1.82858,-0.91429c0,0 1.78885,-0.89443 2.68328,0.89443c0.89442,1.78886 -0.89442,2.68329 -0.89442,2.68329l-1.71146,0.85572c-2.05509,0.3587 -3.89456,1.34481 -5.31376,2.7537c-0.0915,0.05078 -0.18292,0.10179 -0.27428,0.15304c-3.34802,3.41132 -7.22752,6.86017 -8.77688,11.575c-2.81112,8.55447 -1.81015,19.96702 -12.15811,23.3602c-0.11014,0.15403 -0.19814,0.24203 -0.19814,0.24203c-3.64253,3.6065 -4.34351,10.01586 -5.56917,14.9185l-0.30476,1.21904c0,0 -0.48507,1.94029 -2.42535,1.45522z" fill="#525200" stroke="none" stroke-width="0.5" stroke-linecap="butt"/><path d="M454.94344,219.42026l-0.30477,-1.21905c-1.22566,-4.90264 -1.92663,-11.31199 -5.56917,-14.9185c0,0 -0.08799,-0.088 -0.19813,-0.24203c-10.34796,-3.39318 -9.34699,-14.80572 -12.15812,-23.3602c-1.54936,-4.71482 -5.42887,-8.16368 -8.77688,-11.575c-1.79892,-1.00913 -3.62638,-1.92591 -5.47092,-2.84818l-1.82858,-0.91429c0,0 -1.78885,-0.89443 -0.89442,-2.68328c0.89443,-1.78886 2.68328,-0.89442 2.68328,-0.89442l1.82858,0.91429c2.07672,1.03836 4.09924,2.08173 6.11004,3.24706c3.97237,3.9147 8.27605,7.95557 10.11838,13.4155c2.30435,6.82921 1.19235,18.61229 9.94091,20.99375c0,0 0.80709,0.23059 1.22615,0.91586c0.15782,0.11217 0.24814,0.20249 0.24814,0.20249c4.24872,4.28403 5.18442,11.02918 6.62132,16.77678l0.30476,1.21905c0,0 0.48507,1.94028 -1.45522,2.42535c-1.94029,0.48507 -2.42535,-1.45521 -2.42535,-1.45521z" data-paper-data="{&quot;index&quot;:null}" fill="#525200" stroke="none" stroke-width="0.5" stroke-linecap="butt"/><path d="" fill-opacity="0.8" fill="#007d06" stroke="none" stroke-width="0.5" stroke-linecap="butt"/><path d="M68.52704,157.69784c0.89442,1.78886 -0.89443,2.68328 -0.89443,2.68328c-1.21905,0.60952 -2.4381,1.21905 -3.65714,1.82858l-0.08974,0.23488c0,0 -0.98363,0.98362 -2.13056,0.48989c-0.88134,0.35913 -1.7836,0.66898 -2.69613,0.93323c0,0 -1.92305,0.54944 -2.47249,-1.37361c-0.54944,-1.92305 1.37361,-2.47249 1.37361,-2.47249c0.95945,-0.26976 1.90562,-0.60355 2.81728,-1.00977c0.26611,-0.46294 0.76368,-0.89575 1.69407,-0.89575c0.13092,0 0.25328,0.00857 0.36762,0.02459c0.36498,-0.39022 0.88448,-0.63412 1.46095,-0.63412c0.0434,0 0.08647,0.00138 0.12918,0.00411c0.17386,-0.08693 0.34772,-0.17387 0.52159,-0.2608c0.36593,-0.4039 0.89463,-0.65759 1.48257,-0.65759c0.04751,0 0.09462,0.00165 0.1413,0.00491c0.59834,-0.07423 1.42864,0.0533 1.95231,1.10066z" fill="#525200" stroke="none" stroke-width="0.5" stroke-linecap="butt"/><path d="M66.22241,158.38345l355.30346,4.2" fill="none" stroke="#525200" stroke-width="3.5" stroke-linecap="round"/></g></g></svg>