<svg version="1.1" xmlns="http://www.w3.org/2000/svg" xmlns:xlink="http://www.w3.org/1999/xlink" width="40.32908" height="37.50564" viewBox="0,0,40.32908,37.50564"><g transform="translate(-220.66141,-165.05336)"><g data-paper-data="{&quot;isPaintingLayer&quot;:true}" fill-rule="nonzero" stroke="none" stroke-width="0.5" stroke-linecap="butt" stroke-linejoin="miter" stroke-miterlimit="10" stroke-dasharray="" stroke-dashoffset="0" style="mix-blend-mode: normal"><g><g><path d="M241.77785,181.40515c0,0 0,0.0006 -0.00003,0.00175c-0.00609,0.35146 -0.09124,0.70349 -0.22135,1.03731c1.34935,-0.38282 2.45779,-0.89652 2.70629,-1.63658c1.90087,-5.6609 5.48343,-8.77273 10.06784,-12.61058c0.84301,-0.70573 3.53952,-3.46878 4.84752,-3.11206c1.28139,0.34947 2.3006,1.97089 1.56525,3.13049c-1.99451,3.14522 -6.77791,4.76709 -9.14745,7.79618c-1.12972,1.44417 -4.03787,7.42825 -4.2241,7.58787c-4.1629,3.56821 -10.35519,3.31964 -14.90375,6.74442c-3.3277,2.50555 -4.20585,9.04815 -8.02428,11.23011c-0.3479,0.58948 -0.98958,0.98493 -1.72363,0.98493c-1.0232,0 -1.86694,-0.76836 -1.9857,-1.75957c-0.13911,-0.42597 -0.08957,-0.93605 0.2357,-1.58659c0.8692,-1.73841 3.92342,-5.12419 5.41428,-6.30068c0.50646,-0.39968 1.23498,-2.99403 1.69706,-3.64101c1.63313,-2.28662 5.3313,-5.03094 8.08313,-5.7249c0.84213,-0.21237 2.36716,-0.4214 3.87216,-0.73551c0.3862,-0.65806 0.96899,-1.27231 1.24106,-1.9164v-0.0661c0,0 0,-0.13865 0.10325,-0.20944c0.34006,-1.00382 0.34419,-2.07722 0.61042,-3.12247c0.5006,-0.7565 1.35434,-1.52636 1.73579,-2.31836l0.33899,-0.13819c0,0 0.25,0 0.25,0.25c0,0.1912 -0.14623,0.23617 -0.21502,0.24675c-0.42799,0.74931 -1.17121,1.44571 -1.65251,2.16208c-0.26938,1.09958 -0.26065,2.2363 -0.67093,3.29251c0,0.14732 0,0.33493 0,0.41405zM241.18847,181.99467c0.00598,-0.02013 0.01171,-0.04029 0.01718,-0.0605c-0.0124,0.01675 -0.02486,0.03353 -0.03738,0.05034c0.0069,0.00309 0.01364,0.00647 0.0202,0.01015z" fill="#6c5d28"/><path d="M224.10477,196.77054c-0.25,0 -0.25,-0.25 -0.25,-0.25v-0.34615c0.00429,-0.51304 0.20198,-0.87443 0.35898,-1.34829c0,0 0.07906,-0.23717 0.31623,-0.15811c0.23717,0.07906 0.15812,0.31623 0.15812,0.31623c-0.14012,0.41806 -0.33804,0.74245 -0.33333,1.19018v0.34615c0,0 0,0.25 -0.25,0.25z" fill="#968238"/><path d="M223.46645,198.88962c-0.17677,-0.17677 0,-0.35356 0,-0.35356l0.06856,-0.05041c0.14263,-0.28526 0.21193,-0.36977 0.20437,-0.69589c0,0 0,-0.25 0.25,-0.25c0.25,0 0.25,0.25 0.25,0.25c-0.00671,0.40466 -0.08207,0.56931 -0.25716,0.91949l-0.16222,0.18036c0,0 -0.17678,0.17677 -0.35356,0z" fill="#968238"/><path d="M227.39693,194.49761c0.17677,0.17677 0,0.35355 0,0.35355l-0.08415,0.07728c-0.36649,0.54646 -0.84147,1.07347 -1.30047,1.5381c0,0 -0.17678,0.17677 -0.35355,0c-0.17677,-0.17677 0,-0.35356 0,-0.35356c0.43988,-0.4336 0.89386,-0.94219 1.238,-1.46189l0.14662,-0.15348c0,0 0.17678,-0.17677 0.35356,0z" fill="#968238"/><path d="M230.124,191.44361c0,0.18556 -0.13773,0.23339 -0.20873,0.24572c-0.05461,0.10921 -0.10921,0.21841 -0.16381,0.32762c0,0 -0.11181,0.22361 -0.33541,0.11181c-0.2236,-0.11181 -0.11181,-0.33541 -0.11181,-0.33541c0.07692,-0.15384 0.15385,-0.3077 0.23077,-0.46154l0.33899,-0.13819c0,0 0.25,0 0.25,0.25z" fill="#968238"/><path d="M232.29708,186.61669c-0.25,0 -0.25,-0.25 -0.25,-0.25l0.01283,-0.30983c0.06749,-0.19596 0.10474,-0.406 0.10255,-0.61325c0,0 0,-0.25 0.25,-0.25c0.25,0 0.25,0.25 0.25,0.25c-0.00218,0.26064 -0.04776,0.52344 -0.12822,0.77137l0.01283,0.15171c0,0 0,0.25 -0.25,0.25z" fill="#968238"/><path d="M230.31631,189.13592c0,-0.13807 0.11193,-0.25 0.25,-0.25c0.13807,0 0.25,0.11193 0.25,0.25c0,0.13807 -0.11193,0.25 -0.25,0.25c-0.13807,0 -0.25,-0.11193 -0.25,-0.25z" fill="#968238"/></g><path d="M235.66246,187.28977c0,0.25 -0.25,0.25 -0.25,0.25l-0.00358,-0.0264c-0.28004,0.13932 -0.52795,0.32105 -0.80769,0.46154c0,0 -0.2236,0.1118 -0.33541,-0.1118c-0.11181,-0.2236 0.1118,-0.33541 0.1118,-0.33541c0.28004,-0.13932 0.52795,-0.32105 0.80769,-0.46154l0.22719,-0.02639c0,0 0.25,0 0.25,0.25z" fill="#968238"/><path d="M241.16246,185.44361c0,-0.13807 0.11193,-0.25 0.25,-0.25c0.13807,0 0.25,0.11193 0.25,0.25c0,0.13807 -0.11193,0.25 -0.25,0.25c-0.13807,0 -0.25,-0.11193 -0.25,-0.25z" fill="#968238"/><path d="M236.20092,184.52054c0,-0.25 0.25,-0.25 0.25,-0.25l0.05475,0.00747c0.57623,-0.14397 1.14635,-0.22883 1.69855,-0.45113c0,0 0.23212,-0.09285 0.32497,0.13927c0.09285,0.23212 -0.13927,0.32497 -0.13927,0.32497c-0.57592,0.22902 -1.16384,0.32207 -1.76298,0.47195l-0.17602,0.00746c0,0 -0.25,0 -0.25,-0.25z" fill="#968238"/><path d="M246.29323,180.16669c0.2,0.15 0.05,0.35 0.05,0.35l-0.04615,0.06154c-0.15623,0.20529 -0.29908,0.42968 -0.37822,0.67521c0,0 -0.07905,0.23717 -0.31622,0.15812c-0.23717,-0.07906 -0.15812,-0.31623 -0.15812,-0.31623c0.10081,-0.29458 0.26723,-0.5669 0.45255,-0.81709l0.04615,-0.06154c0,0 0.15,-0.2 0.35,-0.05z" fill="#968238"/><path d="M249.13965,176.68154c0.2236,0.11181 0.11181,0.33541 0.11181,0.33541l-0.13618,0.26514c-0.26578,0.26578 -0.33318,0.47074 -0.66793,0.65436c0,0 -0.2236,0.1118 -0.33541,-0.11181c-0.11181,-0.2236 0.1118,-0.33541 0.1118,-0.33541c0.22851,-0.09448 0.3013,-0.31488 0.48592,-0.49949l0.09458,-0.19639c0,0 0.11181,-0.22361 0.33541,-0.11181z" fill="#968238"/><path d="M251.45092,172.73207c0.25,0 0.25,0.25 0.25,0.25l-0.13819,0.45438c-0.07692,0.03846 -0.15384,0.07692 -0.23077,0.11538c0,0 -0.22361,0.11181 -0.33541,-0.1118c-0.11181,-0.2236 0.11181,-0.33541 0.11181,-0.33541c0.07692,-0.03846 0.15384,-0.07693 0.23077,-0.11539l-0.1382,-0.00716c0,0 0,-0.25 0.25,-0.25z" fill="#968238"/><path d="M256.52785,168.96284c-0.25,0 -0.25,-0.25 -0.25,-0.25l0.02639,-0.00358c-0.03846,-0.07692 -0.07692,-0.15384 -0.11538,-0.23077c0,0 -0.1118,-0.22361 0.11181,-0.33541c0.2236,-0.11181 0.33541,0.11181 0.33541,0.11181c0.03846,0.07692 0.07693,0.15385 0.11539,0.23077l0.02639,0.22718c0,0 0,0.25 -0.25,0.25z" fill="#968238"/><path d="M254.23877,172.18686c-0.00395,0.05057 -0.03319,0.23752 -0.24938,0.23752c-0.25,0 -0.25,-0.25 -0.25,-0.25l0.11132,-0.3234c0.14779,-0.09352 0.30522,-0.20567 0.37661,-0.36533c0,0 0.11181,-0.22361 0.33541,-0.11181c0.2236,0.11181 0.1118,0.33541 0.1118,0.33541c-0.10115,0.18981 -0.26214,0.34562 -0.43576,0.4776z" fill="#968238"/><path d="M257.31631,169.98207c0,-0.13807 0.11193,-0.25 0.25,-0.25c0.13807,0 0.25,0.11193 0.25,0.25c0,0.13807 -0.11193,0.25 -0.25,0.25c-0.13807,0 -0.25,-0.11193 -0.25,-0.25z" fill="#968238"/><path d="M258.81631,167.21284c0,-0.13807 0.11193,-0.25 0.25,-0.25c0.13807,0 0.25,0.11193 0.25,0.25c0,0.13807 -0.11193,0.25 -0.25,0.25c-0.13807,0 -0.25,-0.11193 -0.25,-0.25z" fill="#968238"/><path d="M257.11193,166.63234c-0.11181,-0.2236 0.11181,-0.33541 0.11181,-0.33541c0.14907,-0.07453 0.31247,-0.15624 0.46154,-0.23077c0,0 0.22361,-0.1118 0.33541,0.11181c0.11181,0.2236 -0.1118,0.33541 -0.1118,0.33541c-0.14907,0.07453 -0.29814,0.14908 -0.44722,0.22361l-0.01432,0.00716c0,0 -0.22361,0.1118 -0.33541,-0.11181z" fill="#968238"/><path d="M253.73938,170.09746c0,-0.13807 0.11193,-0.25 0.25,-0.25c0.13807,0 0.25,0.11193 0.25,0.25c0,0.13807 -0.11193,0.25 -0.25,0.25c-0.13807,0 -0.25,-0.11193 -0.25,-0.25z" fill="#968238"/><path d="M246.35477,182.21284c0,-0.13807 0.11193,-0.25 0.25,-0.25c0.13807,0 0.25,0.11193 0.25,0.25c0,0.13807 -0.11193,0.25 -0.25,0.25c-0.13807,0 -0.25,-0.11193 -0.25,-0.25z" fill="#968238"/><path d="M248.16616,176.03607c0.17677,0.17677 0,0.35356 0,0.35356l-0.08415,0.07728c-0.07692,0.11539 -0.15384,0.23077 -0.23077,0.34616c0,0 -0.13867,0.20801 -0.34669,0.06933c-0.20801,-0.13868 -0.06934,-0.34669 -0.06934,-0.34669c0.07692,-0.11539 0.15385,-0.23077 0.23077,-0.34616l0.14662,-0.15348c0,0 0.17678,-0.17677 0.35356,0z" fill="#968238"/><path d="M249.58554,173.44361c0,-0.13807 0.11193,-0.25 0.25,-0.25c0.13807,0 0.25,0.11193 0.25,0.25c0,0.13807 -0.11193,0.25 -0.25,0.25c-0.13807,0 -0.25,-0.11193 -0.25,-0.25z" fill="#968238"/><path d="M243.02144,183.7919c-0.07906,-0.23717 0.15812,-0.31623 0.15812,-0.31623l0.21796,-0.07265c0.39001,-0.12795 0.65908,-0.31019 1.01852,-0.4907c0,0 0.2236,-0.1118 0.33541,0.1118c0.11181,0.2236 -0.11181,0.33541 -0.11181,0.33541c-0.38308,0.19058 -0.66821,0.37731 -1.08401,0.51783l-0.21796,0.07266c0,0 -0.23717,0.07906 -0.31623,-0.15811z" fill="#968238"/><path d="M241.17811,181.5277c0.2236,0.11181 0.1118,0.33541 0.1118,0.33541l-0.11539,0.23077c0,0 -0.11181,0.22361 -0.33541,0.11181c-0.2236,-0.11181 -0.1118,-0.33541 -0.1118,-0.33541l0.11539,-0.23077c0,0 0.11181,-0.22361 0.33541,-0.11181z" fill="#968238"/><path d="M241.39323,180.36669c0,-0.13807 0.11193,-0.25 0.25,-0.25c0.13807,0 0.25,0.11193 0.25,0.25c0,0.13807 -0.11193,0.25 -0.25,0.25c-0.13807,0 -0.25,-0.11193 -0.25,-0.25z" fill="#968238"/><path d="M242.89323,176.21284c0,-0.13807 0.11193,-0.25 0.25,-0.25c0.13807,0 0.25,0.11193 0.25,0.25c0,0.13807 -0.11193,0.25 -0.25,0.25c-0.13807,0 -0.25,-0.11193 -0.25,-0.25z" fill="#968238"/></g></g></g></svg>