<svg version="1.1" xmlns="http://www.w3.org/2000/svg" xmlns:xlink="http://www.w3.org/1999/xlink" width="13.62326" height="19.61806" viewBox="0,0,13.62326,19.61806"><g transform="translate(-235.89053,-172.89757)"><g data-paper-data="{&quot;isPaintingLayer&quot;:true}" fill-opacity="0.30196" fill="#a60000" fill-rule="nonzero" stroke="none" stroke-width="0.5" stroke-linecap="butt" stroke-linejoin="miter" stroke-miterlimit="10" stroke-dasharray="" stroke-dashoffset="0" style="mix-blend-mode: normal"><path d="M237.4792,188.77477c-0.77661,-1.38061 0.60378,-4.00253 1.61282,-4.99788c0.46984,-0.46347 1.3338,-0.36679 1.86488,-0.69502c0.871,-0.53831 1.60965,-1.47767 2.78309,-1.18431c2.06917,0.51729 2.54253,1.69345 3.72623,3.15308c0.34914,0.43052 0.97958,0.93261 1.13644,1.46803c0.3839,1.31046 -0.8568,2.71622 -2.24177,2.17062c-1.04448,-0.41146 -1.91033,-2.06012 -3.1727,-1.93512c-0.73322,0.0726 -1.71206,1.75517 -2.81989,2.05418c-0.06289,0.078 -0.13276,0.15013 -0.20869,0.21543c-0.30094,0.34988 -0.74688,0.57145 -1.24458,0.57145c-0.53401,0 -1.00845,-0.25508 -1.3081,-0.65005c-0.04891,-0.05052 -0.09197,-0.10685 -0.12773,-0.17042z"/><path d="M238.37676,191.28492c0,-0.6797 0.55101,-1.23071 1.23071,-1.23071c0.6797,0 1.23071,0.55101 1.23071,1.23071c0,0.6797 -0.55101,1.23071 -1.23071,1.23071c-0.6797,0 -1.23071,-0.55101 -1.23071,-1.23071z"/><path d="M244.2064,190.23431c0,-0.6797 0.55101,-1.23071 1.23071,-1.23071c0.6797,0 1.23071,0.55101 1.23071,1.23071c0,0.6797 -0.55101,1.23071 -1.23071,1.23071c-0.6797,0 -1.23071,-0.55101 -1.23071,-1.23071z"/><path d="M240.06409,180.84091c-0.28172,0.84517 -1.71678,0.68651 -1.7568,-0.03369c-0.03302,-0.05087 -0.05995,-0.10605 -0.07976,-0.16453c-0.23406,-0.15296 -0.45032,-0.35838 -0.60961,-0.6017c-0.01035,-0.0034 -0.02075,-0.00684 -0.0312,-0.01032c-0.10188,-0.03396 -0.2593,-0.22629 -0.41168,-0.48593c-0.05375,-0.02118 -0.10767,-0.04671 -0.16155,-0.07683c-0.4437,-0.24807 -1.204,-1.74434 -0.59152,-2.09434c0.21409,-0.36274 0.60895,-0.60608 1.06065,-0.60608c0.45992,0 0.86092,0.25228 1.07216,0.62601c0.14042,0.13239 0.24825,0.29214 0.29952,0.49722c0.02801,0.11204 0.04025,0.22551 0.03848,0.33798c0.00439,0.03929 0.00664,0.07922 0.00664,0.11968c0,0.00492 -0.00003,0.00983 -0.0001,0.01474c0.17935,0.26475 0.32862,0.54373 0.41941,0.80368c0.1568,0.16067 0.27376,0.32781 0.3214,0.47172c0.05564,0.16808 0.09015,0.31803 0.10637,0.4509c0.23844,0.22502 0.39983,0.50476 0.31759,0.75149z"/><path d="M240.66377,178.47741c-0.03668,-0.03789 -0.06897,-0.08014 -0.0958,-0.12782c-0.43054,-0.76539 -0.43655,-2.34198 0.5126,-2.65836c1.39146,-0.46382 1.96174,1.64814 1.77231,2.41809c0.02198,0.08531 0.03367,0.17474 0.03367,0.2669c0,0.14087 -0.02731,0.27537 -0.07692,0.39848c0.01015,0.1312 0.02134,0.25442 0.04415,0.34566v0.35018c0,0.22437 -0.08187,0.42962 -0.21738,0.5875c-0.00142,0.00255 -0.00284,0.00509 -0.00426,0.00761c-0.00256,0.35668 -0.07444,0.65972 -0.21958,0.74266l-0.63639,0.36365c-0.32941,-0.18824 -0.52641,-0.21974 -0.63416,-0.3599c-0.03779,-0.04917 -0.06461,-0.1117 -0.0823,-0.19905c-0.01434,-0.05745 -0.02196,-0.11757 -0.02196,-0.17947c-0.00964,-0.14958 -0.02024,-0.49082 0.01855,-0.84566c-0.00498,-0.03841 -0.00756,-0.07757 -0.00756,-0.11733c0,-0.04482 0.00327,-0.08887 0.00958,-0.13193c-0.03585,-0.09735 -0.06612,-0.19673 -0.08981,-0.2962c-0.10886,-0.12498 -0.19308,-0.29193 -0.23943,-0.50546c-0.02301,-0.01862 -0.04484,-0.0384 -0.06531,-0.05954z"/><path d="M244.96747,175.45299c0.71032,0 2.00327,1.79819 1.06065,2.33684c-0.05028,0.08519 -0.11053,0.16379 -0.17914,0.23421c-0.01741,0.09955 -0.04794,0.19736 -0.08923,0.29191c-0.01498,0.1005 -0.04398,0.19642 -0.08494,0.28571c-0.00352,0.05658 -0.01133,0.11296 -0.02368,0.16854c-0.02579,0.11606 -0.08118,0.30668 -0.16364,0.50286c-0.0321,0.11652 -0.08697,0.2236 -0.15953,0.31615c-0.00092,0.0015 -0.00184,0.003 -0.00276,0.00449c-0.09606,0.57738 -0.26203,1.07961 -0.42171,1.17085c-0.12845,0.21764 -0.36536,0.36365 -0.63639,0.36365c-0.40782,0 -0.73843,-0.3306 -0.73843,-0.73842c0,-0.14313 0.04072,-0.27675 0.11121,-0.38991c-0.00952,-0.23995 0.02385,-0.49214 0.08765,-0.73902c-0.02259,-0.06424 -0.02847,-0.13226 -0.01247,-0.20425c-0.00021,-0.0079 -0.00031,-0.01582 -0.00031,-0.02377c0,-0.05798 0.00547,-0.11468 0.01591,-0.16961c-0.03898,-0.12197 -0.06062,-0.26977 -0.06062,-0.4461c-0.0208,-0.08314 -0.03185,-0.17014 -0.03185,-0.25973c0,-0.07757 0.00828,-0.1532 0.024,-0.22606c0.01684,-0.17306 0.03809,-0.39332 0.0685,-0.58548c-0.17491,-0.83 0.2296,-1.89285 1.23675,-1.89285z"/><path d="M236.30077,173.70682c0.41024,0 0.41024,0.41024 0.41024,0.41024l-0.02105,0.00159c0.10054,0.30399 0.1754,0.61689 0.2333,0.93179c0,0 0.07338,0.40362 -0.33024,0.477c-0.40362,0.07339 -0.47701,-0.33024 -0.47701,-0.33024c-0.04972,-0.27698 -0.11472,-0.55237 -0.20443,-0.8191l-0.02105,-0.26105c0,0 0,-0.41024 0.41024,-0.41024z"/><path d="M240.90071,173.29694c0.41024,0 0.41024,0.41024 0.41024,0.41024c0,0.1605 0,0.40854 0,0.56904c0,0 0,0.41024 -0.41024,0.41024c-0.41024,0 -0.41024,-0.41024 -0.41024,-0.41024c0,-0.1605 0,-0.321 0,-0.48149v-0.08755c0,0 0,-0.41024 0.41024,-0.41024z"/><path d="M245.35983,172.92404c0.38918,0.12973 0.25946,0.51891 0.25946,0.51891l-0.10185,0.29952c-0.05836,0.13132 -0.11673,0.26263 -0.17509,0.39395c0,0 -0.16661,0.37488 -0.54149,0.20827c-0.37488,-0.16661 -0.20827,-0.54149 -0.20827,-0.54149c0.05836,-0.13132 0.11673,-0.26263 0.17509,-0.39395l0.07324,-0.22575c0,0 0.12973,-0.38918 0.51891,-0.25946z"/><path d="M248.63672,174.20377c0.36693,0.18346 0.18346,0.55039 0.18346,0.55039l-0.00046,-0.09592c0,0.17509 0,0.35018 0,0.52527c0,0 0,0.41024 -0.41024,0.41024c-0.41024,0 -0.41024,-0.41024 -0.41024,-0.41024c0,-0.17509 0,-0.35018 0,-0.52527l0.08708,-0.27101c0,0 0.18346,-0.36693 0.55039,-0.18346z"/><path d="M248.50691,176.36117c0.69344,0.15391 1.56603,2.18955 0.52908,2.51114c-0.06754,0.07227 -0.14339,0.13595 -0.22563,0.18983c-0.03856,0.09341 -0.08957,0.18227 -0.15036,0.26563c-0.0364,0.09487 -0.08549,0.18223 -0.14483,0.26052c-0.0157,0.05447 -0.03553,0.10782 -0.05963,0.1594c-0.05033,0.10771 -0.14571,0.28181 -0.26871,0.45545c-0.05658,0.1068 -0.13335,0.19944 -0.22424,0.27407c-0.00122,0.00126 -0.00244,0.00253 -0.00367,0.00379c-0.21889,0.54284 -0.48974,0.99719 -0.66539,1.05166c-0.17256,0.18464 -0.43549,0.27584 -0.70007,0.21711c-0.39813,-0.08837 -0.64925,-0.48276 -0.56088,-0.88089c0.03101,-0.13973 0.09973,-0.26135 0.19306,-0.35654c0.0427,-0.23632 0.12993,-0.47528 0.2457,-0.70247c-0.00814,-0.06761 0.00087,-0.13529 0.03208,-0.2021c0.00151,-0.00776 0.00313,-0.01552 0.00485,-0.02327c0.01257,-0.0566 0.03019,-0.11077 0.05229,-0.16213c-0.01162,-0.12753 -0.00072,-0.27649 0.03749,-0.44863c-0.00229,-0.08567 0.00578,-0.173 0.02519,-0.26046c0.01681,-0.07573 0.04127,-0.14777 0.07241,-0.21549c0.05394,-0.16531 0.12241,-0.37572 0.19374,-0.55672c0.0091,-0.84818 0.6343,-1.79812 1.61752,-1.57988z"/></g></g></svg>