<svg version="1.1" xmlns="http://www.w3.org/2000/svg" xmlns:xlink="http://www.w3.org/1999/xlink" width="14.25462" height="5.31151" viewBox="0,0,14.25462,5.31151"><g transform="translate(-234.03091,-197.79865)"><g data-paper-data="{&quot;isPaintingLayer&quot;:true}" fill="#3ca435" fill-rule="nonzero" stroke="none" stroke-width="0.5" stroke-linecap="butt" stroke-linejoin="miter" stroke-miterlimit="10" stroke-dasharray="" stroke-dashoffset="0" style="mix-blend-mode: normal"><path d="M247.86627,201.93862c-0.67082,0.33541 -1.00623,-0.33541 -1.00623,-0.33541l-0.29073,-0.59832c-0.82288,-2.76442 -6.4943,-1.34739 -8.40317,-0.87354c-1.08512,0.26936 -2.53931,-0.04586 -2.6598,1.06831c0,0 -0.1819,0.72761 -0.90951,0.5457c-0.72761,-0.1819 -0.5457,-0.90951 -0.5457,-0.90951c0.67628,-2.10127 1.85204,-1.68143 3.75121,-2.15972c3.00695,-0.75727 8.82928,-1.96092 10.19,1.85441l0.20935,0.40185c0,0 0.3354,0.67082 -0.33542,1.00623z"/><path d="M236.50862,198.81481c2.43902,-1.0253 5.55171,-1.25716 8.00808,-0.77479c0.86146,0.16917 3.19782,1.22195 3.25143,2.30087c0.04471,0.89998 -0.6889,1.78031 -1.42854,2.29498c-0.22447,0.15619 -2.73506,0.13343 -3.30948,0.13196c-3.35093,-0.00858 -5.56329,1.06593 -8.78637,-0.54922c0.0504,-0.94496 -0.39865,-2.06471 0.1512,-2.83487c0.27249,-0.38168 1.10587,-0.53167 2.11369,-0.56894z"/></g></g></svg>