<svg version="1.1" xmlns="http://www.w3.org/2000/svg" xmlns:xlink="http://www.w3.org/1999/xlink" width="29.05586" height="23.27955" viewBox="0,0,29.05586,23.27955"><g transform="translate(-222.39595,-177.32647)"><g data-paper-data="{&quot;isPaintingLayer&quot;:true}" fill-rule="nonzero" stroke-width="0.5" stroke-linecap="butt" stroke-linejoin="miter" stroke-miterlimit="10" stroke-dasharray="" stroke-dashoffset="0" style="mix-blend-mode: normal"><path d="M238.13254,195.32334c-0.1849,0.04783 -0.37897,0.07273 -0.57898,0.0715c-1.24262,-0.00768 -2.24374,-1.02123 -2.23606,-2.26385c0.00233,-0.3779 0.09769,-0.73346 0.26424,-1.04511c1.59801,-3.14728 4.94283,-11.67617 6.69062,-13.79462c1.25371,-1.51958 3.85666,-1.26372 4.27097,0.90685c0.60349,3.16172 -4.08125,9.63062 -5.67078,12.3311c-0.65573,1.11404 -0.90464,2.73621 -2.05898,3.51009c-0.20979,0.14064 -0.44079,0.23389 -0.68103,0.28404z" data-paper-data="{&quot;index&quot;:null}" fill="#895000" stroke="none"/><path d="M251.14932,200.35449l-28.50183,-0.17601l0.05095,-8.25054l28.50183,0.17601z" data-paper-data="{&quot;index&quot;:null}" fill="#5d5d5d" stroke="#969696"/></g></g></svg>