<svg version="1.1" xmlns="http://www.w3.org/2000/svg" xmlns:xlink="http://www.w3.org/1999/xlink" width="34.07269" height="38.46361" viewBox="0,0,34.07269,38.46361"><g transform="translate(-218.15349,-167.66545)"><g data-paper-data="{&quot;isPaintingLayer&quot;:true}" fill-rule="nonzero" stroke="none" stroke-width="0.5" stroke-linecap="butt" stroke-linejoin="miter" stroke-miterlimit="10" stroke-dasharray="" stroke-dashoffset="0" style="mix-blend-mode: normal"><path d="M243.56803,167.66822c10.65173,0.41322 12.77599,15.73403 -1.05304,15.73403c-0.32141,0.21713 -0.67607,0.38877 -1.05475,0.50569c-0.21607,0.25538 -0.44174,0.50488 -0.66971,0.74867c-4.37233,4.67558 -8.7649,9.1562 -12.46469,14.3959c-1.80686,1.16164 -3.56147,3.37635 -4.41718,5.47002c-0.12365,0.04617 -0.24881,0.11338 -0.37486,0.20441c-0.01274,0.00691 -0.0254,0.01396 -0.03797,0.02114c-0.63688,0.14153 -1.86813,0.67498 -2.77073,1.38098c-1.21138,-0.1943 -2.19906,-1.05806 -2.57161,-2.19982c0.03758,-0.03878 0.07249,-0.07751 0.10444,-0.11595c0.66508,-0.80019 0.93535,-1.50292 0.9406,-2.2658c0.83764,-0.71597 1.51349,-1.6507 1.6296,-2.61728c1.67381,-1.36215 3.15325,-3.25706 3.47461,-4.54249c0.1147,-0.4588 0.16976,-0.86141 0.17401,-1.21002c3.01118,-4.19542 6.46652,-8.33391 10.1744,-11.57408c0.3589,-0.31363 0.83365,-0.86193 1.38153,-1.47641c-1.53032,-5.05413 3.19178,-12.62748 7.53536,-12.45898z" fill="#885c36"/><path d="M223.96104,204.16644c0.02889,0.01074 0.05779,0.02147 0.08668,0.03221c-0.04866,0.10817 -0.09505,0.21619 -0.13907,0.32388c-0.06067,0.02265 -0.12171,0.05037 -0.18303,0.08348c-1.64298,-0.93487 -3.0187,-1.94366 -4.21244,-3.34557c0.12063,-0.11755 0.23629,-0.23964 0.34555,-0.36561c1.16302,1.3776 2.4965,2.34717 4.10231,3.27161z" fill="#4c331e"/><path d="M229.24347,198.42038c-0.20801,0.13868 -0.34669,-0.06934 -0.34669,-0.06934l-0.07044,-0.10586c-0.10897,-0.17464 -0.22601,-0.34445 -0.3496,-0.50907c-1.15491,-1.39495 -2.39291,-2.84502 -4.1587,-3.41076c0.04149,-0.17226 0.07445,-0.33644 0.09935,-0.49265c1.89495,0.58874 3.20609,2.10965 4.45153,3.59326c0.13448,0.17946 0.26242,0.36413 0.38141,0.55422l0.06247,0.09351c0,0 0.13868,0.20801 -0.06934,0.34669z" fill="#4c331e"/><path d="M227.86672,199.18173l-0.07282,-0.10973c-0.94411,-1.58214 -2.2636,-2.91956 -3.86665,-3.74909c0.08144,-0.15488 0.15281,-0.30598 0.21306,-0.45202c1.693,0.87353 3.07885,2.27956 4.08234,3.94387l0.0601,0.08963c0,0 0.04341,0.06511 0.04522,0.14676c-0.11331,0.0728 -0.22642,0.14974 -0.33912,0.23053c-0.07715,-0.03247 -0.12213,-0.09994 -0.12213,-0.09994z" fill="#b97b48"/><path d="M227.00189,200.05988l0.01321,0.02304c-0.13314,0.12379 -0.26473,0.25211 -0.3944,0.38442c-0.03964,-0.06537 -0.07978,-0.13045 -0.1203,-0.19526c0,0 -0.055,-0.08799 -0.03743,-0.18603c-0.69563,-1.42959 -1.96817,-2.67976 -3.26777,-3.61799c0.10158,-0.13682 0.19801,-0.27308 0.2887,-0.40808c1.42173,1.02665 2.81294,2.41734 3.518,3.99991z" fill="#b97b48"/><path d="M222.3399,197.50045c0.11357,-0.12408 0.22407,-0.24918 0.33104,-0.37477c1.34804,1.1152 2.70872,2.13346 3.74528,3.5553c-0.1162,0.12429 -0.23064,0.25166 -0.34301,0.38171c-1.02778,-1.43501 -2.38452,-2.44689 -3.73331,-3.56223z" fill="#b97b48"/><path d="M221.50094,198.34488c0.11981,-0.11112 0.23779,-0.22434 0.35355,-0.33918c1.11669,1.2636 2.90927,2.11741 3.9427,3.38691c-0.10282,0.12692 -0.20358,0.25593 -0.30204,0.38669c-0.92573,-1.28831 -2.84568,-2.20901 -3.99422,-3.43442z" fill="#b97b48"/><path d="M221.05753,198.73918c1.33375,1.18758 2.73527,2.37764 4.04713,3.58577c-0.09452,0.13909 -0.18622,0.27954 -0.27484,0.42098c-1.3084,-1.20588 -2.70746,-2.39448 -4.04147,-3.57801c0.0169,-0.07895 0.03023,-0.15822 0.03978,-0.2377c0.07691,-0.06259 0.15341,-0.1263 0.2294,-0.19103z" fill="#b97b48"/><path d="M224.41706,203.45333c-0.0853,0.15775 -0.16635,0.31595 -0.24278,0.47408c-1.16306,-1.29326 -2.82768,-2.08898 -4.10015,-3.29714c0.10324,-0.13548 0.1986,-0.27462 0.2845,-0.41668c1.24075,1.20711 2.92029,1.96596 4.05842,3.23973z" fill="#b97b48"/><path d="M240.52409,179.15679c-4.99937,-4.05079 3.47545,-12.81642 6.76892,-10.62078c1.51976,0.12407 2.79909,1.09768 3.3623,2.44515c5.28027,6.16032 -4.84726,12.45701 -10.13122,8.17563z" fill="#754f2f"/></g></g></svg>