<svg version="1.1" xmlns="http://www.w3.org/2000/svg" xmlns:xlink="http://www.w3.org/1999/xlink" width="51.44812" height="37.37402" viewBox="0,0,51.44812,37.37402"><g transform="translate(-216.93339,-163.80841)"><g data-paper-data="{&quot;isPaintingLayer&quot;:true}" fill-rule="nonzero" stroke="none" stroke-width="0.5" stroke-linecap="butt" stroke-linejoin="miter" stroke-miterlimit="10" stroke-dasharray="" stroke-dashoffset="0" style="mix-blend-mode: normal"><g fill="#9b974b"><path d="M255.30554,168.29384c1.09144,1.21271 -0.12127,2.30415 -0.12127,2.30415l-1.4358,1.28813c-2.01417,1.40992 -3.76085,3.12333 -5.77884,4.53834c-6.32947,4.59846 -12.82007,8.9827 -18.78874,14.05401c-3.33323,2.8321 -6.047,6.22384 -9.63005,8.78987c0,0 -1.32764,0.94831 -2.27595,-0.37932c-0.94831,-1.32763 0.37932,-2.27595 0.37932,-2.27595c3.50554,-2.49683 6.15004,-5.84605 9.40689,-8.61535c6.03949,-5.13538 12.61177,-9.56879 19.0132,-14.22945c1.97395,-1.37926 3.67431,-3.05791 5.64333,-4.43622l1.28376,-1.15947c0,0 1.21271,-1.09144 2.30415,0.12127z"/><path d="M256.61954,169.8798c1.09144,1.21271 -0.12127,2.30415 -0.12127,2.30415l-1.4358,1.28813c-2.01417,1.40992 -3.76085,3.12333 -5.77884,4.53834c-6.32947,4.59846 -12.82007,8.9827 -18.78874,14.05401c-3.33323,2.8321 -6.04701,6.22384 -9.63005,8.78987c0,0 -1.32764,0.94831 -2.27595,-0.37932c-0.94831,-1.32763 0.37932,-2.27595 0.37932,-2.27595c3.50554,-2.49683 6.15004,-5.84605 9.40689,-8.61535c6.03949,-5.13538 12.61178,-9.56879 19.01321,-14.22945c1.97395,-1.37926 3.67431,-3.05791 5.64333,-4.43622l1.28376,-1.15947c0,0 1.21271,-1.09144 2.30415,0.12127z"/></g><path d="M241.66973,164.91593c0.00699,-0.01974 0.01435,-0.03964 0.02206,-0.05971c0.58569,-1.52278 2.10847,-0.9371 2.10847,-0.9371c0.05384,0.0207 0.1076,0.04154 0.16129,0.0625c0.18512,0.03913 0.35866,0.10964 0.51479,0.20571c6.56622,2.68388 12.08692,7.22153 18.37981,10.52462c1.14279,0.59984 5.00603,2.12163 5.44912,3.46367c0.34138,1.03397 -0.54281,2.13741 -1.08736,3.08034c-0.34787,0.60238 -2.2139,1.85279 -2.75888,2.36989c-0.01598,0.01516 -0.03195,0.03032 -0.04792,0.04547c-0.17444,0.37442 -0.48683,0.67163 -0.87182,0.82629c-1.54813,1.46329 -3.09319,2.89007 -4.78534,4.22711c-1.17102,0.54185 -5.0431,2.93847 -6.17415,2.45327c-1.02049,-0.43777 -1.6141,-1.95775 -2.06427,-3.49689c-0.15796,-0.22547 -0.26658,-0.51699 -0.2472,-0.88766c-0.23466,-0.87244 -0.43961,-1.68236 -0.66986,-2.2234c-1.49395,-3.51042 -3.22152,-6.83568 -4.86545,-10.26808c-1.01058,-2.11001 -1.62538,-4.23204 -2.8949,-6.21642l-0.55912,-1.39089c0,0 -0.41071,-1.09523 0.39074,-1.77874zM265.17731,179.09108c-0.00588,0.02007 -0.01214,0.04 -0.01875,0.05974c0.04644,-0.01406 0.06131,-0.03202 0.01875,-0.05974z" fill="#454545"/></g></g></svg>