<svg version="1.1" xmlns="http://www.w3.org/2000/svg" xmlns:xlink="http://www.w3.org/1999/xlink" width="48.37026" height="38.13708" viewBox="0,0,48.37026,38.13708"><g transform="translate(-217.89732,-158.34975)"><g data-paper-data="{&quot;isPaintingLayer&quot;:true}" fill-rule="nonzero" stroke="none" stroke-width="0.5" stroke-linecap="butt" stroke-linejoin="miter" stroke-miterlimit="10" stroke-dasharray="" stroke-dashoffset="0" style="mix-blend-mode: normal"><path d="M220.72931,174.36272c-5.84759,-3.12258 0.57195,-13.61771 4.25324,-15.45835c6.67785,-3.33893 13.54724,9.39008 8.79695,11.76523c-1.79384,0.89692 -6.21119,-4.04635 -6.72905,-2.49279l0,0.9671c0,0.8157 -0.28685,1.56441 -0.76518,2.15074c-1.07296,2.30415 -2.98591,4.44047 -5.55597,3.06807z" fill="#6d6916"/><path d="M255.01976,159.38829c7.33199,-2.61857 12.10943,10.04966 7.29473,12.80092c-1.7758,1.01474 -10.25757,-2.38766 -12.19126,-3.75814c-4.36725,-3.09524 1.12725,-7.90464 4.4266,-8.72948z" fill="#6d6916"/><path d="M266.2294,190.32844c-0.06317,0.56886 -0.25712,1.06109 -0.54638,1.49174c-1.1542,0.15486 -2.42266,0.35401 -3.67762,0.62944c-0.62817,-0.25217 -1.32479,-0.40903 -2.03147,-0.44508c-2.83153,-2.38794 -12.6526,-6.40232 -16.04086,-4.65378c-1.579,0.01776 -3.15757,0.0276 -4.73485,0.02935c-3.99063,0.79938 -8.24575,1.12413 -11.87284,2.87551c-1.33596,0.64509 -4.31167,3.49033 -5.87843,2.59504c-3.53314,-2.01894 -3.20931,-5.39722 -3.17527,-9.1049l-0.37437,-0.65516c0.09705,-0.16983 0.19622,-0.3312 0.29747,-0.48449c-0.00092,-0.03261 -0.00139,-0.06533 -0.00139,-0.09815c0,-0.36929 0.05879,-0.72485 0.16753,-1.05783c-0.23928,-1.04896 -0.3362,-2.09638 -0.3362,-2.87232c0,-3.98186 1.6867,-7.07931 4.24656,-9.45583c1.44583,-1.85355 3.38485,-3.48578 5.26244,-4.46004c1.03378,-0.97992 2.14779,-1.75211 3.34104,-2.23441c3.78607,-1.53028 7.22311,-2.07594 10.39764,-1.83921c2.00587,-0.29556 3.98437,-0.33643 5.66535,-0.16998c9.87656,0.97797 18.13949,8.03516 17.6366,17.98123c0.3087,0.86769 0.48767,1.78264 0.48767,2.7539c0,0.39169 -0.03571,0.76513 -0.10323,1.11629c0.11072,0.3388 0.17046,0.72004 0.17046,1.14859c0,0.22313 -0.01544,0.43437 -0.04498,0.634c0.88574,2.14074 1.32015,4.69979 1.14512,6.27609z" fill="#817c1a"/><path d="M254.69607,190.0676l0.00817,0.00466l0.00443,0.01772c0.03647,0.06812 0.06058,0.14386 0.0693,0.22421c0.71864,-0.06377 1.93202,0.38377 2.68048,0.83503c0.01166,-0.00066 0.02341,-0.00098 0.03523,-0.00098c0.34189,0 0.61905,0.27716 0.61905,0.61905c0,0.05664 -0.00761,0.11149 -0.02185,0.16361c-0.25251,1.01004 0.36693,3.79154 -0.2324,4.39087c-0.08959,0.08959 -2.71772,-3.1405 -3.46875,-4.79714l-0.0119,0.07381l-0.02619,0.0611l-0.00115,0.00457l-0.00108,0.00061l-0.04049,0.09447l-0.07641,0.30563l-0.00812,0.01522l-0.00183,0.00734l-0.01584,0.11616l-0.01555,0.03888l-0.03363,0.13452l-0.03085,0.13885l-0.00771,0.01543l-0.00431,0.01725l-0.00604,0.00345l-0.01517,0.03033l-0.04315,0.15103l-0.00689,0.01194l-0.00106,0.01376l-0.02948,0.08843l-0.02393,0.03759l-0.00966,0.04349l-0.02948,0.05896l-0.10115,0.118l-0.00546,0.00858l-0.00935,0.0343l-0.02864,0.00781l-0.06304,0.07354l-0.25948,0.01442l-0.25073,0.06838l-0.08306,-0.04984l-0.02963,0.00165l-0.02159,-0.03238l-0.1393,-0.08358l-0.0304,-0.0304l-0.00682,-0.00136l-0.00955,-0.015l-0.0122,-0.0122l-0.07318,-0.12196l-0.07637,-0.12001l-0.00545,-0.01636l-0.00915,-0.01525l0.00183,-0.0067l-0.03805,-0.11413l-0.06434,-0.15015l-0.09708,-0.16989l-0.17349,-0.28914l-0.00706,-0.02322l-0.0158,-0.01843l-0.08844,-0.17687l-0.00966,-0.04349l-0.02393,-0.03759l-0.05896,-0.17687l-0.00186,-0.0242l-0.01142,-0.02142l-0.00059,-0.00236l-0.04097,-0.0478l-0.01142,-0.02283l-0.00604,-0.00345l-0.00431,-0.01725l-0.00771,-0.01543l-0.00796,-0.03582l-0.01075,-0.01792l0.00373,-0.01367l-0.0086,-0.03871l-0.0146,-0.0292l-0.02661,-0.04434l-0.0411,-0.02349l-0.01597,-0.06389l-0.02041,-0.01749l-0.00149,-0.02674l-0.00766,-0.01277l-0.02546,-0.0297l-0.04089,-0.08179l-0.00604,-0.00345l-0.00431,-0.01725l-0.00771,-0.01543l-0.02169,-0.09762l-0.02813,-0.04219l-0.02781,-0.07786l-0.04439,-0.06976l-0.02948,-0.08844l-0.00477,-0.062l-0.00085,-0.0024l0.00058,-0.00117l-0.00432,-0.0562l-0.02626,-0.03939l0.01725,-0.07765l-0.0061,-0.07931l0.03157,-0.03528l0.02649,-0.11922l0.02948,-0.05896l0.20763,-0.24224l0.02441,-0.00136l0.01213,-0.02123l0.16719,-0.0418l0.05967,-0.0358l0.00337,-0.00102l0.00561,-0.00982l0.14916,-0.03729l0.14709,-0.04476l0.00986,0.00553l0.00341,-0.00085h0.26531l0.05982,0.01496l0.06158,-0.00293l0.14739,0.02948l0.05176,0.02452l0.05675,0.00774l0.0367,0.01468h0.55879l0.0744,0.0186l0.04269,0.00711l0.07867,0.00605l0.04357,0.01452c0.04617,-0.01099 0.09435,-0.01681 0.1439,-0.01681c0.2272,0 0.42582,0.1224 0.5335,0.30486zM253.24876,190.98185l-0.01668,0.00129l0.0088,0.0165l0.00183,0.00305l0.00531,-0.01121z" data-paper-data="{&quot;index&quot;:null}" fill="#9b974b"/><path d="M254.2536,190.81697c-0.37143,0.49524 -0.86666,0.12381 -0.86666,0.12381l-0.30715,-0.23634c-0.30501,-0.17474 -0.57869,-0.32657 -0.85816,-0.44919c0.02908,0.1864 0.00058,0.45856 -0.33742,0.62756c-0.55369,0.27685 -0.83054,-0.27685 -0.83054,-0.27685l-0.15688,-0.32445c-0.03098,-0.04646 -0.06195,-0.09293 -0.09293,-0.13939c-0.01617,0.11368 -0.03698,0.22629 -0.06214,0.33713l-0.31998,0.56894c0,0 -0.00258,0.00412 -0.00764,0.01141c-0.01788,0.17732 -0.10998,0.38904 -0.4193,0.49214c-0.58728,0.19576 -0.78304,-0.39152 -0.78304,-0.39152l-0.07907,-0.29827c-0.02091,-0.33766 -0.06994,-0.60303 -0.15207,-0.85265c-0.08598,0.12933 -0.23706,0.26786 -0.48783,0.25992c-0.04905,0.05886 -0.11589,0.11454 -0.20563,0.16349c-0.54346,0.29643 -0.83989,-0.24703 -0.83989,-0.24703l-0.32757,-0.61181c-0.00846,-0.02216 -0.01683,-0.04436 -0.02512,-0.06659l0.00012,0.18648c0,0 0,0.0344 -0.00811,0.08699l0.0405,0.07602c0,0 0.27685,0.55369 -0.27685,0.83054c-0.55369,0.27685 -0.83054,-0.27685 -0.83054,-0.27685l-0.18021,-0.37433c-0.13012,-0.3913 -0.23049,-0.71666 -0.38495,-1.02248c-0.00643,0.12745 -0.0141,0.25483 -0.02312,0.38209l-0.04944,0.59378c0,0 -0.00338,0.04053 -0.01879,0.09994l0.01975,0.04466c0,0 0.24385,0.56899 -0.32514,0.81285c-0.56899,0.24385 -0.81285,-0.32514 -0.81285,-0.32514l-0.1693,-0.40391c-0.07962,-0.25876 -0.15929,-0.51749 -0.23915,-0.77616c-0.16881,0.64563 -0.31316,1.29667 -0.41452,1.95894l-0.15635,-0.01322c-0.08649,0.13046 -0.23821,0.24489 -0.50437,0.24489c-0.32608,0 -0.48039,-0.17176 -0.55343,-0.33433l-0.07022,-0.00594c0,0 -0.10543,-0.26359 0.005,-0.50516l0.00024,-0.1365c-0.02738,-0.60432 -0.02266,-1.18511 -0.078,-1.76883l-0.36592,0.39068c0,0 -0.07913,0.05539 -0.19675,0.09115c0.01607,0.05481 0.0318,0.1097 0.04723,0.16461l0.06524,0.42025c0,0 0.08755,0.61282 -0.52528,0.70037c-0.0848,0.01211 -0.15954,0.01082 -0.22538,-0.00041c-0.0333,0.00433 -0.06876,0.00663 -0.10653,0.00663c-0.41197,0 -0.54977,-0.27416 -0.59587,-0.45758c-0.24756,-0.41425 -0.3427,-0.5966 -0.62042,-0.72244c0.39254,0.65438 0.42801,1.42338 -0.70879,1.68841c-0.44903,0.10468 -0.95104,-0.68585 -1.31661,-1.29687c-0.00961,0.33011 -0.07493,0.69334 -0.16958,1.04803l0.10662,0.01422l-0.08328,0.62457c-0.03624,0.30736 -0.29765,0.54579 -0.61476,0.54579c-0.19156,0 -0.3628,-0.08701 -0.47636,-0.22367l-0.4949,-0.58758l0.00202,-0.0017l-0.00801,-0.00553c-0.15525,-0.19621 -0.31092,-0.3923 -0.46887,-0.58649c-0.70942,1.46388 -3.16484,2.57361 -3.30002,0.44273l-0.00207,0.00931l-0.00771,0.01543l-0.00431,0.01725l-0.00604,0.00345l-0.04089,0.08179l-0.02546,0.0297l-0.00766,0.01277l-0.00149,0.02674l-0.02041,0.01749l-0.01597,0.06389l-0.0411,0.02349l-0.0266,0.04434l-0.0146,0.0292l-0.0086,0.03871l0.00373,0.01368l-0.01075,0.01792l-0.00796,0.03582l-0.00771,0.01543l-0.00431,0.01725l-0.00604,0.00345l-0.01142,0.02283l-0.04097,0.0478l-0.00059,0.00236l-0.01142,0.02142l-0.00186,0.0242l-0.05896,0.17687l-0.02392,0.03759l-0.00967,0.0435l-0.08844,0.17687l-0.0158,0.01843l-0.00707,0.02322l-0.17349,0.28914l-0.09708,0.1699l-0.06435,0.15014l-0.03804,0.11413l0.00183,0.00671l-0.00915,0.01525l-0.00545,0.01636l-0.07637,0.12l-0.07318,0.12197l-0.0122,0.0122l-0.00955,0.015l-0.00682,0.00136l-0.0304,0.0304l-0.1393,0.08358l-0.02159,0.03238l-0.02964,-0.00165l-0.08306,0.04984l-0.25072,-0.06838l-0.25948,-0.01442l-0.06304,-0.07354l-0.02864,-0.00781l-0.00936,-0.03431l-0.00546,-0.00857l-0.10115,-0.118l-0.02948,-0.05896l-0.00967,-0.0435l-0.02392,-0.03759l-0.02948,-0.08844l-0.00106,-0.01375l-0.00689,-0.01194l-0.04315,-0.15103l-0.01516,-0.03033l-0.00604,-0.00345l-0.00431,-0.01725l-0.00771,-0.01543l-0.03086,-0.13885l-0.03363,-0.13452l-0.01555,-0.03887l-0.01584,-0.11617l-0.00183,-0.00734l-0.00812,-0.01522l-0.07641,-0.30562l-0.04049,-0.09447l-0.00108,-0.00062l-0.00114,-0.00457l-0.02619,-0.0611l-0.01191,-0.07381c-0.75102,1.65664 -3.37916,4.88673 -3.46875,4.79714c-0.37603,-0.37603 -0.27229,-1.6111 -0.20515,-2.72869l-0.14014,0.22428c0,0 -0.25481,0.40769 -0.6746,0.27995l-0.58345,0.35311c0,0 -0.61905,0 -0.61905,-0.61905c0,-0.1243 0.02496,-0.22364 0.06485,-0.30304l-0.80246,0.71998c0,0 -0.56356,0.25616 -0.81972,-0.3074c-0.07636,-0.168 -0.07988,-0.30868 -0.0472,-0.4234c-0.02409,0.00285 -0.04861,0.00431 -0.07347,0.00431c-0.34189,0 -0.61905,-0.27716 -0.61905,-0.61905c0,-0.34189 0.27716,-0.61905 0.61905,-0.61905c0.29617,0 0.54377,0.20799 0.60469,0.48588c0.01117,-0.13143 0.08806,-0.58363 0.61715,-0.58363c0.61905,0 0.61905,0.61905 0.61905,0.61905c0,0.19612 0,0.39223 0,0.58835c0.02877,-0.0284 0.05974,-0.05234 0.09151,-0.07253c0.04769,-0.2513 0.06477,-0.50931 0.04068,-0.76157c0,0 -0.04748,-0.61722 0.56974,-0.6647c0.29544,-0.02273 0.46034,0.10684 0.55198,0.24812c0.0701,-0.16292 0.12632,-0.33107 0.16301,-0.50319c0,0 0.1392,-0.60319 0.74239,-0.46399c0.0162,0.00374 0.03187,0.00781 0.04702,0.0122c0.0678,-0.02551 0.14126,-0.03947 0.21797,-0.03947c0.01182,0 0.02357,0.00033 0.03523,0.00099c0.74846,-0.45126 1.96185,-0.8988 2.68048,-0.83503c0.00873,-0.08035 0.03283,-0.15609 0.0693,-0.22421l0.00443,-0.01772l0.00816,-0.00466c0.10768,-0.18246 0.3063,-0.30486 0.5335,-0.30486c0.04954,0 0.09772,0.00582 0.1439,0.01681l0.04357,-0.01452l0.07866,-0.00605l0.04269,-0.00711l0.07441,-0.0186h0.5588l0.0367,-0.01468l0.05675,-0.00774l0.05176,-0.02452l0.14739,-0.02948l0.06159,0.00293l0.05982,-0.01495h0.26531l0.00341,0.00085l0.00986,-0.00553l0.07237,0.02203c0.10105,-0.26868 0.39832,-0.36777 0.39832,-0.36777c0.44739,-0.14753 2.07788,-0.67757 2.92516,-0.58652c0.28371,-0.18169 0.53993,-0.05509 0.67196,0.04135l0.29414,-0.11765l0.00047,0.00118c0.63365,-0.23064 1.06937,-0.23226 1.35672,-0.0831c0.0332,-0.10016 0.10176,-0.20284 0.22583,-0.29827c0.24167,-0.1859 0.45586,-0.16121 0.61103,-0.08828c0.09168,-0.09481 0.23076,-0.16672 0.44175,-0.16672c0.16763,0 0.28986,0.04539 0.379,0.11159c0.23192,-0.24731 0.59929,-0.15547 0.59929,-0.15547c0.18956,0.05208 0.3552,0.10373 0.50256,0.15845c-0.02192,-0.18489 0.01929,-0.43938 0.34116,-0.60031c0.55369,-0.27685 0.83054,0.27685 0.83054,0.27685c0.06315,0.12758 0.12189,0.25733 0.17688,0.38878l0.06953,0.03609c0.01629,-0.21178 0.03258,-0.42357 0.04887,-0.63535c0,0 0.04748,-0.61722 0.6647,-0.56974c0.25316,0.01947 0.3945,0.1348 0.47315,0.26406c0.01366,-0.00343 0.02772,-0.0066 0.04219,-0.0095c0.35038,-0.07008 0.53897,0.10254 0.6358,0.26103c0.09961,-0.15629 0.30186,-0.35142 0.66433,-0.25419c0.03135,-0.01464 0.06555,-0.0279 0.10283,-0.03956c0.2466,-0.07706 0.42245,-0.01904 0.54364,0.07473c0.0904,-0.11104 0.23632,-0.20065 0.47185,-0.20065c0.14777,0 0.26027,0.03528 0.34592,0.08899c0.38575,-0.18513 0.7007,0.16481 0.7007,0.16481c0.03112,0.03535 0.06125,0.07054 0.09045,0.10562c0.00289,-0.02219 0.00581,-0.04438 0.00876,-0.06656c0,0 0.08182,-0.61362 0.69543,-0.5318c0.31639,0.04219 0.44789,0.22575 0.50105,0.39369c0.09376,-0.01696 0.17565,-0.01592 0.24708,-0.00224c0.09819,-0.06547 0.21614,-0.10364 0.34301,-0.10364c0.25217,0 0.46912,0.15077 0.56562,0.36709c0.23478,0.0689 0.41166,0.2732 0.44033,0.52259c0.51122,-0.2562 0.80224,0.25308 0.80224,0.25308c0.00722,0.01271 0.01438,0.02538 0.02149,0.03799c0.06682,-0.09513 0.17476,-0.17936 0.34618,-0.22834c0.33787,-0.09653 0.53874,0.05351 0.64929,0.20131c0.43728,-0.17817 0.72008,0.24603 0.72008,0.24603c0.00417,0.00626 0.00835,0.01252 0.01252,0.01878c0.88825,0.13604 1.54836,0.44376 2.34106,0.89566l0.43574,0.32083c0,0 0.49524,0.37143 0.12381,0.86666zM222.69066,193.60364c0,-0.13202 0,-0.26404 0,-0.39605c-0.01854,0.07926 -0.05231,0.15265 -0.09805,0.21694zM230.59871,191.15472l0.00531,0.01121l0.00183,-0.00305l0.0088,-0.0165l-0.01668,-0.00128z" fill="#9b974b"/><path d="M261.55873,192.51948c0.34189,0 0.61905,0.27716 0.61905,0.61905c0,0.17439 -0.07211,0.33193 -0.18814,0.44445c0.03772,0.15699 0.01783,0.35372 -0.1789,0.55045c-0.40901,0.40901 -0.81803,0.05367 -0.86993,0.00528c-0.49686,0.30087 -0.82577,-0.19249 -0.82577,-0.19249l-0.02155,-0.03261c-0.15817,0.17502 -0.3973,0.20918 -0.3973,0.20918l-1.00363,0.039c-0.46129,-0.65522 -0.91876,-1.31329 -1.36337,-1.97994c0,0 -0.34338,-0.51508 0.17169,-0.85846c0.51508,-0.34338 0.85846,0.17169 0.85846,0.17169c0.03339,0.0501 0.06653,0.10042 0.09938,0.15096c0.04009,-0.04746 0.09144,-0.09356 0.15649,-0.13693c0.51508,-0.34338 0.85846,0.17169 0.85846,0.17169c0.09683,0.1514 0.18363,0.31075 0.25925,0.47566c0.01059,-0.00667 0.02155,-0.01325 0.03288,-0.01972c0.32452,-0.18544 0.56507,-0.06298 0.70474,0.06318c0.48062,-0.23574 0.77738,0.23907 0.77738,0.23907c0.02616,0.04186 0.05232,0.08371 0.07848,0.12557c0.07174,-0.02907 0.15016,-0.04507 0.23233,-0.04507z" fill="#9b974b"/><path d="M265.54859,192.30952c0,0.61905 -0.61905,0.61905 -0.61905,0.61905h-0.49527c-1.53315,0 -3.05951,0.13248 -4.54098,-0.2834c-4.7008,-2.01463 -9.47366,-4.66929 -14.65072,-4.66929c-5.01489,-0.01297 -10.34413,1.11139 -15.23196,2.09287c-4.44165,0.84235 -7.54197,5.74525 -11.38876,0.63113c0,0 -0.37143,-0.49524 0.12381,-0.86666c0.49524,-0.37143 0.86666,0.12381 0.86666,0.12381c3.21453,4.29734 6.32117,-0.3048 10.15547,-1.10232c4.97596,-0.99087 10.36847,-2.10518 15.47477,-2.11692c5.34959,0 10.22037,2.66436 15.06547,4.74083c1.31309,0.38386 2.76102,0.21187 4.12624,0.21187h0.49527c0,0 0.61905,0 0.61905,0.61905z" fill="#635f14"/><path d="M239.08624,182.36153c2.09501,0 4.00728,-0.10334 6.05208,-0.36667l0.16964,-0.00478c0,0 0.36655,0 0.53553,0.28206c0.23956,-0.11253 0.47029,-0.22979 0.68998,-0.34954c0.0783,-0.15289 0.23304,-0.30396 0.53885,-0.30396c0.61905,0 0.61905,0.61905 0.61905,0.61905l-0.31191,0.63034c-2.76633,1.57604 -6.91743,2.64767 -9.61814,0.40239c0,0 -0.47556,-0.3963 -0.07926,-0.87187c0.3963,-0.47556 0.87187,-0.07926 0.87187,-0.07926c0.05934,0.04958 0.11964,0.0971 0.18085,0.14261c0.1674,-0.10037 0.35147,-0.10037 0.35147,-0.10037z" fill="#631414"/><path d="M232.9264,173.41583c0,0.61905 -0.61905,0.61905 -0.61905,0.61905h-0.65003c-1.47232,-0.00378 -3.34612,0.02347 -4.7516,0.44049c0,0 -0.59523,0.17006 -0.76529,-0.42516c-0.17006,-0.59523 0.42516,-0.76529 0.42516,-0.76529c1.54328,-0.42786 3.48323,-0.48452 5.09173,-0.48813h0.65003c0,0 0.61905,0 0.61905,0.61905z" fill="#130e04"/><path d="M259.65849,174.28013c-0.1214,0.60702 -0.72843,0.48562 -0.72843,0.48562l-0.3429,-0.08084c-1.82147,0 -3.50097,-0.93166 -5.30876,-0.39526c0,0 -0.59523,0.17006 -0.76529,-0.42516c-0.17006,-0.59523 0.42516,-0.76529 0.42516,-0.76529c2.00635,-0.55624 3.67538,0.34763 5.64889,0.34763l0.58571,0.10488c0,0 0.60702,0.1214 0.48562,0.72843z" fill="#130e04"/></g></g></svg>