<svg version="1.1" xmlns="http://www.w3.org/2000/svg" xmlns:xlink="http://www.w3.org/1999/xlink" width="55.19305" height="11.82355" viewBox="0,0,55.19305,11.82355"><g transform="translate(-119.62741,-175.68537)"><g data-paper-data="{&quot;isPaintingLayer&quot;:true}" fill-rule="nonzero" stroke-linecap="butt" stroke-linejoin="miter" stroke-miterlimit="10" stroke-dasharray="" stroke-dashoffset="0" style="mix-blend-mode: normal"><path d="M123.49681,186.47892c-0.35016,0.28171 -0.79482,0.44134 -1.34733,0.44134c-0.61778,0 -1.1774,-0.44383 -1.63283,-0.88462c3.29202,-1.63658 5.55429,-5.03405 5.55429,-8.9599c0,-0.38367 -0.02161,-0.7623 -0.06367,-1.13472c0.39569,-0.04678 0.79193,-0.09865 1.18446,-0.15589c0.71871,0.0922 1.43255,0.16962 2.12313,0.16658c4.95048,-0.02176 9.90074,-0.11757 14.85124,-0.101c0.22601,0.00075 0.47648,0.09699 0.70301,0.101c2.17523,0.03844 4.34223,0.08499 6.50971,0.12384c0.11805,1.51797 0.35782,2.93374 0.48844,3.73865c0.31032,1.91226 0.73262,4.58889 1.42647,7.25165c-7.10699,-0.09499 -14.18271,-0.25298 -21.41935,-0.24658l-0.00001,0c-2.09248,0.00185 -6.36077,1.01233 -8.37755,-0.34034z" fill="#b85000" stroke="none" stroke-width="0.5"/><path d="M174.31962,176.26788l-0.0183,10.74019l-54.17305,-0.0923l0.00119,-0.69792c2.61236,-1.16146 4.63462,-3.40976 5.49263,-6.17078c0.37372,-1.04911 0.5772,-2.17899 0.5772,-3.3564c0,-0.08582 -0.00108,-0.17139 -0.00323,-0.2567c0.00025,-0.00988 0.00048,-0.01978 0.0007,-0.02967c0.02426,-0.0724 0.04771,-0.14517 0.07035,-0.2183z" fill-opacity="0.53333" fill="#00a67e" stroke="#827700" stroke-width="1"/></g></g></svg>