<svg version="1.1" xmlns="http://www.w3.org/2000/svg" xmlns:xlink="http://www.w3.org/1999/xlink" width="19.00073" height="24.0343" viewBox="0,0,19.00073,24.0343"><g transform="translate(-236.44445,-158.08889)"><g data-paper-data="{&quot;isPaintingLayer&quot;:true}" fill-rule="nonzero" stroke="none" stroke-linecap="butt" stroke-linejoin="miter" stroke-miterlimit="10" stroke-dasharray="" stroke-dashoffset="0" style="mix-blend-mode: normal"><path d="M248.88889,163.25556c0,2.85347 -2.78578,5.16667 -6.22222,5.16667c-3.43644,0 -6.22222,-2.3132 -6.22222,-5.16667c0,-2.85347 2.78578,-5.16667 6.22222,-5.16667c3.43644,0 6.22222,2.3132 6.22222,5.16667z" fill="#5a3e05" stroke-width="0"/><path d="M246.71136,165.55662c0.07945,-0.26023 0.16492,-0.43259 0.31148,-0.60207c-0.00465,-0.06187 -0.00463,-0.12809 0.00082,-0.19897c0.0767,-0.99705 1.07375,-0.92036 1.07375,-0.92036c1.04918,0.08533 5.73026,1.29328 5.72853,3.13143c0.50985,0.68672 0.99562,1.32347 1.45558,2.10707l0.00081,0.00365l0.00093,-0.00051l0.12917,0.23681c0.02084,0.0365 0.03275,0.07875 0.03275,0.12378c0,0.13807 -0.11193,0.25 -0.25,0.25c-0.01949,0 -0.03846,-0.00223 -0.05667,-0.00645l-0.22549,-0.04747c-0.03872,0.01013 -0.06821,0.01013 -0.06821,0.01013l-0.06829,-0.0012c-0.04637,-0.00466 -0.09215,-0.00993 -0.13738,-0.01584c-0.07049,0.10464 -0.21038,0.10464 -0.21038,0.10464l-0.03438,-0.00031c-0.49729,-0.02552 -0.87026,-0.06276 -1.30102,-0.32145c0,0 -0.1319,-0.08117 -0.12418,-0.21955c-0.10735,-0.05975 -0.24633,-0.15666 -0.35493,-0.29957c-0.28723,-0.1582 -0.575,-0.27292 -0.86424,-0.36016c-0.65738,0.02174 -1.37119,-0.11264 -1.98463,-0.35374c-0.47164,-0.06997 -0.95202,-0.16092 -1.4447,-0.33471c-0.63513,-0.22403 -1.65827,-0.27013 -1.79376,-0.92985c-0.07433,-0.36194 -0.00408,-0.76402 0.16137,-1.13361z" fill="#d9d20d" stroke-width="0.5"/><path d="M250.95146,165.48084c0.14051,0.22245 0.18478,0.52374 0.09524,0.71341c-0.01485,0.07305 -0.06622,0.19941 -0.24396,0.19941c-0.04842,0 -0.08746,-0.00938 -0.11894,-0.0245c-0.07939,-0.01142 -0.17131,-0.04157 -0.27658,-0.0947c-0.23069,-0.11642 -0.36854,-0.46404 -0.50839,-0.79269c-0.57565,-0.39925 -1.17561,-0.65291 -1.67572,-1.13197l-0.20409,-0.11338c-0.07909,-0.04198 -0.13295,-0.12518 -0.13295,-0.22096c0,-0.05643 0.0187,-0.10849 0.05023,-0.15033c-0.03923,-0.04525 -0.06558,-0.11221 -0.04468,-0.20974c0.05238,-0.24445 0.29683,-0.19207 0.29683,-0.19207c1.42503,0.30616 2.29679,0.73522 2.71247,1.95015z" fill="#d90d0d" stroke-width="0.5"/><path d="M245.32383,162.12519l0.2234,0.21497c-0.28188,1.04627 -1.41548,0.13623 -0.78748,-0.28952c0.04259,-0.04994 0.10449,-0.08291 0.17415,-0.08735c0.03379,-0.01257 0.07029,-0.02421 0.10962,-0.03481c0,0 0.23706,-0.03387 0.2803,0.1967z" fill="#000000" stroke-width="0.5"/><path d="M238.19662,166.35629c2.01747,0.00192 3.65925,0.16005 5.56351,0.80809c0.44305,-0.00254 1.62882,-0.09397 1.67337,0.53945c0.03014,0.42853 -1.05892,0.9853 -1.27767,1.36938c-0.60669,1.0652 -0.91075,2.45049 -1.29592,3.61147c-0.78651,2.40113 -0.79923,5.18725 -0.79348,7.70231c-0.32356,1.59859 -3.04241,2.25418 -4.41719,1.27728c-0.62134,-0.44152 -0.47184,-1.84355 -0.47184,-2.47265c0,-2.31707 0,-4.63415 0,-6.95122c0,-1.9296 0.5936,-3.89366 0.58537,-5.70732c0,0 0,-0.25 0.25,-0.25c0.0895,0 0.14697,0.03204 0.18385,0.07319z" fill="#5a3e05" stroke-width="0.5"/><path d="M246.55091,166.89711c0.07119,0 0.13544,0.02976 0.18097,0.07752c0.01566,0.00643 0.03184,0.01472 0.04851,0.02514c0.212,0.1325 0.0795,0.3445 0.0795,0.3445c-0.03543,0.05663 -0.07257,0.11305 -0.11128,0.16928c0.14785,0.21909 0.19643,0.58765 0.18161,1.03216l0,0.08847c0,0.02038 -0.00244,0.04018 -0.00704,0.05915c-0.07546,1.23217 -0.57748,2.95154 -0.81709,3.74637c-0.39011,0.86061 -2.48144,2.30931 -3.3583,1.07463c-0.53159,-0.74851 0.19939,-2.16583 0.51495,-2.87058c0.0545,-0.07683 0.11134,-0.15309 0.1702,-0.22882c-0.00599,-0.02144 -0.00919,-0.04404 -0.00919,-0.06739c0,-0.03809 0.00852,-0.07419 0.02375,-0.1065l0.1271,-0.28598l0.01371,0.00609c0.42164,-0.72176 0.84242,-1.37141 1.43624,-1.96417c0.17835,-0.14863 0.34152,-0.27129 0.49055,-0.37015c0.1588,-0.34418 0.44593,-0.58634 0.87932,-0.67472c0.04283,-0.03442 0.09725,-0.05501 0.15647,-0.05501zM243.65924,172.2c-0.00874,0.00305 -0.01771,0.00564 -0.02686,0.00772c0.00029,0.00491 0.00043,0.00985 0.00043,0.01483c0,0.0088 -0.00045,0.01749 -0.00134,0.02605c0.00949,-0.01679 0.01873,-0.03297 0.02777,-0.04859zM245.13529,168.60585c0.07693,-0.07721 0.15312,-0.15432 0.22814,-0.2314c0.00004,-0.00327 0.0001,-0.00653 0.00015,-0.00979c-0.00061,0.00051 -0.00123,0.00102 -0.00184,0.00153c-0.07863,0.07878 -0.15395,0.15866 -0.22645,0.23965z" fill="#d90d0d" stroke-width="0.5"/></g></g></svg>