<svg version="1.1" xmlns="http://www.w3.org/2000/svg" xmlns:xlink="http://www.w3.org/1999/xlink" width="34.92532" height="32.52519" viewBox="0,0,34.92532,32.52519"><g transform="translate(-220.20445,-161.90268)"><g data-paper-data="{&quot;isPaintingLayer&quot;:true}" fill-rule="nonzero" stroke-linecap="butt" stroke-linejoin="miter" stroke-miterlimit="10" stroke-dasharray="" stroke-dashoffset="0" style="mix-blend-mode: normal"><path d="M245.11563,186.82055c-8.26048,7.10878 -18.29173,8.99648 -22.40544,4.21631c-4.11371,-4.78017 -0.75208,-14.41807 7.50839,-21.52685c8.26047,-7.10878 18.29174,-8.99648 22.40545,-4.21631c4.11371,4.78017 0.75208,14.41807 -7.50839,21.52685z" fill="#51240e" stroke="#000000" stroke-width="1.5"/><path d="M235.06276,176.86144c-1,0 -1,-1 -1,-1l0.14251,0.11383c-1.07441,-1.79551 -2.4991,-3.25651 -3.74885,-4.92284c0,0 -0.6,-0.8 0.2,-1.4c0.8,-0.6 1.4,0.2 1.4,0.2c1.29154,1.72206 2.74775,3.23828 3.86384,5.09385l0.14251,0.91516c0,0 0,1 -1,1z" fill="#351809" stroke="none" stroke-width="0.5"/><path d="M232.02847,184.60293c-0.92848,0.37139 -1.29987,-0.55709 -1.29987,-0.55709l-0.36804,-0.9287c-0.56977,-0.94576 -1.19775,-1.76124 -1.88836,-2.62434c0,0 -0.6247,-0.78087 0.15617,-1.40556c0.78087,-0.6247 1.40556,0.15617 1.40556,0.15617c0.7833,0.97931 1.47433,1.9082 2.11832,2.98501l0.4333,1.07464c0,0 0.37139,0.92848 -0.55709,1.29987z" fill="#351809" stroke="none" stroke-width="0.5"/><path d="M232.28177,191.06635c-0.78087,0.6247 -1.40556,-0.15617 -1.40556,-0.15617l-0.76559,-0.95944c-0.5801,-0.58589 -1.08641,-1.25091 -1.5147,-1.95543c0,0 -0.5145,-0.85749 0.343,-1.37199c0.85749,-0.5145 1.37199,0.343 1.37199,0.343c0.35497,0.60133 0.79346,1.15958 1.28997,1.65058l0.83708,1.0439c0,0 0.6247,0.78087 -0.15617,1.40556z" fill="#351809" stroke="none" stroke-width="0.5"/><path d="M240.31798,184.36855c-0.89443,0.44721 -1.34164,-0.44721 -1.34164,-0.44721l-0.36373,-0.73405c-0.35326,-0.59035 -0.73096,-1.1677 -1.14451,-1.7175c0,0 -0.6,-0.8 0.2,-1.4c0.8,-0.6 1.4,0.2 1.4,0.2c0.45323,0.6059 0.86949,1.2401 1.2595,1.88851l0.4376,0.86862c0,0 0.44721,0.89443 -0.44721,1.34164z" fill="#351809" stroke="none" stroke-width="0.5"/><path d="M242.591,173.60478c-0.94868,0.31623 -1.26491,-0.63246 -1.26491,-0.63246l0.04124,-0.21012c-2.08442,-2.08442 -3.77709,-3.96399 -4.8369,-6.76667c0,0 -0.35112,-0.93633 0.58521,-1.28745c0.93633,-0.35112 1.28745,0.58521 1.28745,0.58521c0.94021,2.53101 2.50152,4.17776 4.37846,6.0547l0.44191,0.99188c0,0 0.31623,0.94868 -0.63246,1.26491z" fill="#351809" stroke="none" stroke-width="0.5"/><path d="M248.73201,173.75086c-0.89443,0.44721 -1.34164,-0.44721 -1.34164,-0.44721l-0.55723,-1.12349c-0.63757,-0.84229 -1.2734,-1.68034 -1.93356,-2.50538c0,0 -0.6247,-0.78087 0.15617,-1.40556c0.78087,-0.6247 1.40556,0.15617 1.40556,0.15617c0.71084,0.88872 1.3938,1.79052 2.07312,2.7033l0.64478,1.28052c0,0 0.44721,0.89443 -0.44721,1.34164z" fill="#351809" stroke="none" stroke-width="0.5"/><path d="M244.99501,182.0188c-0.94868,0.31623 -1.26491,-0.63246 -1.26491,-0.63246l0.04124,-0.21012c-0.26711,-0.26711 -0.53422,-0.53422 -0.80134,-0.80134c0,0 -0.70711,-0.70711 0,-1.41421c0.70711,-0.70711 1.41421,0 1.41421,0c0.26711,0.26711 0.53422,0.53422 0.80134,0.80134l0.44191,0.99188c0,0 0.31623,0.94868 -0.63246,1.26491z" fill="#351809" stroke="none" stroke-width="0.5"/></g></g></svg>