<svg version="1.1" xmlns="http://www.w3.org/2000/svg" xmlns:xlink="http://www.w3.org/1999/xlink" width="41.07174" height="31.73175" viewBox="0,0,41.07174,31.73175"><g transform="translate(-221.8342,-169.13817)"><g data-paper-data="{&quot;isPaintingLayer&quot;:true}" fill-rule="nonzero" stroke-linecap="butt" stroke-linejoin="miter" stroke-miterlimit="10" stroke-dasharray="" stroke-dashoffset="0" style="mix-blend-mode: normal"><g><path d="M240.31439,188.32067c0.40439,0 0.73403,0.32005 0.74944,0.72068l0.01567,0.35223c0.11719,-0.13933 0.23912,-0.27575 0.36569,-0.40741c0.46559,-0.66654 0.94936,-1.25462 1.42238,-1.73062l0.77088,-0.77088c0.13572,-0.13572 0.32322,-0.21967 0.53033,-0.21967c0.41421,0 0.75,0.33579 0.75,0.75c0,0.1576 -0.04861,0.30384 -0.13165,0.42456l-0.82636,1.23954l-0.23427,-0.15618c-1.45798,1.54102 -2.52201,3.70252 -3.23953,5.90948c0.15746,1.64909 0.0681,3.34437 0.05382,5.03679l-0.06977,0.10338l0.04097,0.01366l-0.25149,0.75447c-0.09425,0.30647 -0.3796,0.52924 -0.71698,0.52924c-0.2994,0 -0.55783,-0.17544 -0.67809,-0.42912l-0.50665,-1.0133l0.38092,-0.19046c-0.08286,-0.26867 -0.14597,-0.54649 -0.19081,-0.8317c-0.26928,-0.21918 -0.26928,-0.59805 -0.26928,-0.59805l0.12596,-0.67298c0.02138,-0.02912 0.04155,-0.0597 0.06056,-0.09165c0.01672,-0.65118 0.10672,-1.32402 0.25527,-2.00139c-0.06525,-1.07053 -0.27694,-2.28763 -0.29977,-3.21706c-1.03666,-2.17415 -3.131,-4.17373 -3.22553,-6.35096c0,0 0,-0.75 0.75,-0.75c0.75,0 0.75,0.75 0.75,0.75c-0.06997,0.908 0.94823,2.32629 1.8097,3.57458c0.13518,-0.13193 0.32,-0.21323 0.52381,-0.21323c0.20944,0 0.39882,0.08584 0.53489,0.22427c0.00631,-0.40877 0.33964,-0.73819 0.74991,-0.73819z" fill="#613900" stroke="none" stroke-width="0.5"/><path d="M222.5842,189.67404v-19.78587h39.57174v19.78587z" fill="#613900" stroke="#925500" stroke-width="1.5"/></g></g></g></svg>