<svg version="1.1" xmlns="http://www.w3.org/2000/svg" xmlns:xlink="http://www.w3.org/1999/xlink" width="30.70535" height="34.05346" viewBox="0,0,30.70535,34.05346"><g transform="translate(-224.79445,-163.62117)"><g data-paper-data="{&quot;isPaintingLayer&quot;:true}" fill-rule="nonzero" stroke-linecap="butt" stroke-linejoin="miter" stroke-miterlimit="10" stroke-dasharray="" stroke-dashoffset="0" style="mix-blend-mode: normal"><g fill="#b8b44f"><path d="M232.64679,191.07673c0.97707,2.05802 0.10079,4.51843 -1.95723,5.4955c-2.05802,0.97707 -4.51843,0.10079 -5.4955,-1.95723c-0.97707,-2.05802 -0.10079,-4.51843 1.95723,-5.4955c2.05802,-0.97707 4.51843,-0.10079 5.4955,1.95723z" stroke="#925500" stroke-width="0"/><path d="M231.93846,190.16767c1.99565,-0.94746 4.36951,-0.12301 5.30216,1.84146c0.93265,1.96447 0.07092,4.32505 -1.92473,5.27251c-1.99565,0.94746 -4.36951,0.12301 -5.30216,-1.84146c-0.93265,-1.96447 -0.07092,-4.32505 1.92473,-5.27251z" stroke="none" stroke-width="0"/><path d="M235.47842,185.92506c-0.4673,0.89382 -1.02862,4.3906 -2.2089,4.91766c-2.22553,0.99383 -3.01425,0.67845 -4.12141,-1.46785c-0.61765,-1.19735 1.48745,-4.61498 1.78424,-5.47662c0.46989,-1.36421 1.65646,-2.59263 2.2815,-3.97261c0.03218,-0.07106 0.06373,-0.14231 0.09467,-0.21375c1.01049,0.91038 2.27094,2.1498 3.6112,3.37018c-0.47595,0.97416 -0.96109,1.92446 -1.4413,2.84299z" stroke="none" stroke-width="0.5"/></g><g fill="#b8b44f"><path d="M250.89771,166.50784c0.68453,2.17291 -0.52203,4.4893 -2.69494,5.17383c-2.17291,0.68453 -4.4893,-0.52203 -5.17383,-2.69494c-0.68453,-2.17291 0.52203,-4.4893 2.69494,-5.17383c2.17291,-0.68453 4.4893,0.52203 5.17383,2.69494z" stroke="#925500" stroke-width="0"/><path d="M250.32123,165.50994c2.10706,-0.66378 4.34486,0.47953 4.99827,2.55366c0.65341,2.07413 -0.525,4.29365 -2.63206,4.95744c-2.10706,0.66378 -4.34486,-0.47953 -4.99827,-2.55366c-0.65341,-2.07413 0.525,-4.29365 2.63206,-4.95744z" stroke="none" stroke-width="0"/><path d="M250.93088,169.88938c0.61262,1.94465 -0.92831,3.58345 -1.45908,5.26599c-0.75518,2.3939 -1.88625,4.78052 -3.18942,7.0801c-1.18586,-1.38584 -2.39481,-2.80456 -3.67459,-4.11088c0.43253,-0.97971 0.8998,-1.95084 1.48636,-2.87839c0.85354,-1.34972 0.93302,-4.15 1.96806,-5.26895c0.19338,-0.83347 0.80989,-1.54596 1.68505,-1.82166c0.8833,-0.27826 1.80573,-0.04091 2.44259,0.54296c0.30582,0.20823 0.54184,0.55849 0.74104,1.19082z" stroke="none" stroke-width="0.5"/></g><path d="M238.76226,183.60094c0,0.5 -0.5,0.5 -0.5,0.5l-0.5877,-0.00062c-0.41348,-0.04564 -1.8132,-0.27259 -2.04362,-0.70466c-0.25829,-0.48431 0.06921,-1.3158 -0.40232,-1.59674c-0.56893,-0.33897 -1.64714,0.59016 -2.15251,-0.15568c-0.00365,0.02621 -0.0064,0.05325 -0.00817,0.0812l0.06137,0.305c0,0 0.07071,0.49497 -0.42426,0.56569c-0.49497,0.07071 -0.56569,-0.42426 -0.56569,-0.42426l-0.0637,-0.57046c0.23579,-1.47948 0.50705,-1.84381 0.4964,-3.43981c0,0 0,-0.5 0.5,-0.5c0.5,0 0.5,0.5 0.5,0.5c-0.00453,0.53134 0.23162,1.06522 0.27304,1.59749c0.13627,-0.10611 0.27631,-0.2073 0.4194,-0.30336l0.41856,-0.35876c0.08773,-0.07612 0.20224,-0.12219 0.32751,-0.12219c0.27614,0 0.5,0.22386 0.5,0.5c0,0.10506 -0.03241,0.20256 -0.08777,0.28304l-0.3714,0.55711l-0.14214,-0.09476l-0.01102,0.00944l-0.03358,-0.03917l-0.00962,-0.00641c-0.00212,0.00375 -0.00425,0.0075 -0.00638,0.01125l0.0261,0.05326c-0.03139,0.02082 -0.06264,0.04189 -0.09374,0.06321c-0.11495,0.19375 -0.23515,0.37516 -0.34932,0.52157c0.63293,0.07486 1.59293,0.39472 1.73152,0.52578c0.39036,0.36916 0.39963,1.03741 0.35309,1.57266c-0.03523,0.40517 0.80284,0.13636 1.20807,0.1708l0.53789,-0.00062c0,0 0.5,0 0.5,0.5z" fill="#b8b44f" stroke="none" stroke-width="0.5"/><path d="M244.32792,179.47405c0.27614,0 0.5,0.22386 0.5,0.5c0,0.12802 -0.04811,0.2448 -0.12725,0.33325c0.42343,-0.10085 0.91212,-0.00427 1.24883,0.332c0.48287,0.48223 0.84409,1.76514 0.99261,2.41545l0.01191,0.23353c0,0 0,0.5 -0.5,0.5c-0.5,0 -0.5,-0.5 -0.5,-0.5l0.01191,-0.0166c-0.05091,-0.23721 -0.65917,-2.09123 -0.85972,-2.04844c-0.33495,0.07147 -0.66576,0.19197 -0.99772,0.2954l0.05874,0.32306l-0.67815,0.1233c-0.03205,0.00645 -0.0652,0.00983 -0.09915,0.00983c-0.27614,0 -0.5,-0.22386 -0.5,-0.5c0,-0.13807 0.05596,-0.26307 0.14645,-0.35355l0.3752,-0.3752l0.00557,0.00557c0.47879,-0.39303 -0.7795,-1.28886 -1.75314,-1.90345h-0.06653l-0.13875,0.24974l-0.55406,-0.30781c-0.15818,-0.08396 -0.26591,-0.25036 -0.26591,-0.44193c0,-0.27614 0.22386,-0.5 0.5,-0.5l0.60453,0c0.34872,-0.03905 0.69548,-0.09912 1.03791,-0.17569c0,0 0.48809,-0.10847 0.59656,0.37963c0.05268,0.23707 -0.03537,0.38458 -0.13987,0.4736c0.29571,0.282 0.55985,0.67048 0.7492,1.08247c0.0893,-0.08324 0.20912,-0.13416 0.34083,-0.13416zM244.26336,180.50177c0.01373,-0.0097 0.0277,-0.01911 0.04188,-0.02823c-0.01584,-0.00071 -0.03149,-0.00215 -0.04691,-0.0043c0.00175,0.01087 0.00343,0.02171 0.00503,0.03252z" fill="#b8b44f" stroke="none" stroke-width="0.5"/><path d="M242.47674,186.21464c-0.3,0.4 -0.7,0.1 -0.7,0.1l-0.32383,-0.25542c-0.16675,-0.1876 -0.33351,-0.3752 -0.50026,-0.56279c0,0 -0.33218,-0.3737 0.04152,-0.70589c0.3737,-0.33218 0.70589,0.04152 0.70589,0.04152c0.16675,0.1876 0.33351,0.3752 0.50026,0.56279l0.17643,0.11978c0,0 0.4,0.3 0.1,0.7z" fill="#b8b44f" stroke="none" stroke-width="0.5"/><path d="M243.14006,186.03971c0,-0.27614 0.22386,-0.5 0.5,-0.5c0.27614,0 0.5,0.22386 0.5,0.5c0,0.27614 -0.22386,0.5 -0.5,0.5c-0.27614,0 -0.5,-0.22386 -0.5,-0.5z" fill="#b8b44f" stroke="none" stroke-width="0.5"/><path d="M238.66694,177.3736c0.47434,-0.15811 0.63246,0.31623 0.63246,0.31623l0.07628,0.23725c0.04169,0.1876 0.08338,0.3752 0.12507,0.56279c0,0 0.10847,0.48809 -0.37963,0.59656c-0.48809,0.10847 -0.59656,-0.37963 -0.59656,-0.37963c-0.04169,-0.1876 -0.08338,-0.3752 -0.12507,-0.56279l-0.04878,-0.13795c0,0 -0.15811,-0.47434 0.31623,-0.63246z" fill="#b8b44f" stroke="none" stroke-width="0.5"/><path d="M235.51108,175.97196c0,-0.27614 0.22386,-0.5 0.5,-0.5c0.27614,0 0.5,0.22386 0.5,0.5c0,0.27614 -0.22386,0.5 -0.5,0.5c-0.27614,0 -0.5,-0.22386 -0.5,-0.5z" fill="#b8b44f" stroke="none" stroke-width="0.5"/><path d="M228.56997,181.66243c0,-0.27614 0.22386,-0.5 0.5,-0.5c0.27614,0 0.5,0.22386 0.5,0.5c0,0.27614 -0.22386,0.5 -0.5,0.5c-0.27614,0 -0.5,-0.22386 -0.5,-0.5z" fill="#b8b44f" stroke="none" stroke-width="0.5"/></g></g></svg>