<svg version="1.1" xmlns="http://www.w3.org/2000/svg" xmlns:xlink="http://www.w3.org/1999/xlink" width="26.4928" height="26.97601" viewBox="0,0,26.4928,26.97601"><g transform="translate(-226.71764,-169.0636)"><g data-paper-data="{&quot;isPaintingLayer&quot;:true}" fill="#572600" fill-rule="nonzero" stroke="none" stroke-width="0.5" stroke-linecap="butt" stroke-linejoin="miter" stroke-miterlimit="10" stroke-dasharray="" stroke-dashoffset="0" style="mix-blend-mode: normal"><path d="M252.5305,170.28049c0.07922,0.04118 0.1584,0.08745 0.23749,0.13904c0.48709,0.31773 0.45592,3.18137 0.4302,3.87371c-0.12299,3.3109 -0.94112,6.43453 -1.9124,9.59036c-0.53357,1.42405 -0.97691,3.31276 -1.88432,4.57481c-3.26537,4.5416 -10.16529,7.12359 -15.63272,7.34845c-1.62643,0.06689 -6.33108,0.95851 -7.02627,-1.26143c-0.12568,-0.40134 0.23998,-1.22503 0.76297,-2.14189c-0.00038,-0.01264 -0.00057,-0.02533 -0.00057,-0.03807c0,-0.49631 0.28925,-0.92507 0.70837,-1.12688c0.67852,-1.06728 1.38146,-2.07841 1.61607,-2.54776c0.88559,-1.68698 2.29876,-2.75384 3.48365,-4.2547c5.0641,-6.41452 10.17877,-11.11308 17.32347,-15.19612c0,0 1.0853,-0.62017 1.70548,0.46513c0.11971,0.20949 0.17587,0.40164 0.18857,0.57536z"/></g></g></svg>