<svg version="1.1" xmlns="http://www.w3.org/2000/svg" xmlns:xlink="http://www.w3.org/1999/xlink" width="48.10897" height="50.80466" viewBox="0,0,48.10897,50.80466"><g transform="translate(-213.36991,-158.90313)"><g data-paper-data="{&quot;isPaintingLayer&quot;:true}" fill-rule="nonzero" stroke="none" stroke-width="0.5" stroke-linecap="butt" stroke-linejoin="miter" stroke-miterlimit="10" stroke-dasharray="" stroke-dashoffset="0" style="mix-blend-mode: normal"><path d="M261.18537,159.94829c0.97042,1.74677 -0.77634,2.71719 -0.77634,2.71719l-1.86443,1.00721c-4.29096,1.56035 -8.91284,3.56984 -13.48024,4.2961c-0.11264,0.05742 -0.18615,0.08415 -0.18615,0.08415c-2.48582,0.90229 -5.96104,1.15916 -8.03844,2.85088c-3.74498,3.0497 -7.41323,6.80612 -9.17353,11.39936c-1.04394,2.724 -0.47064,5.99957 -0.57205,8.82837c-0.07708,2.15002 -0.41116,3.87483 -0.04039,5.99919c0.8004,3.19124 1.77292,6.2184 1.79397,9.51782l0.14802,0.72275c0,0 0.3285,1.97105 -1.64254,2.29955c-1.97104,0.32851 -2.29954,-1.64254 -2.29954,-1.64254l-0.2024,-1.37976c0.02404,-2.98414 -0.99016,-5.81506 -1.71023,-8.70403c-0.39937,-2.48198 -0.12872,-4.48328 -0.0404,-6.96636c0.11965,-3.36374 -0.3674,-6.84938 0.82963,-10.09433c1.91365,-5.18758 6.1335,-9.79604 10.45,-13.13005c2.10626,-1.62685 4.82125,-2.16543 7.38375,-2.89899c0.5432,-0.60061 1.38929,-0.67111 1.38929,-0.67111c4.68099,-0.35434 9.61436,-2.6628 14.0255,-4.26685l1.28935,-0.74489c0,0 1.74676,-0.97043 2.71719,0.77634z" fill="#524800"/><path d="M227.80646,207.49826c-0.04002,-0.24678 0.20676,-0.2868 0.20676,-0.2868l0.02972,-0.00482c2.44009,-0.32448 4.90863,-3.11439 6.80552,-4.47327c2.60263,-2.42811 4.98275,-4.67442 7.40271,-7.21318c2.42682,-2.51889 4.24271,-5.2134 6.20081,-8.15041c1.79909,-2.59084 3.7763,-6.5192 6.28306,-8.0444c0.72797,-0.40733 0.79401,-1.33573 1.32792,-1.95575c1.82863,-2.12357 2.17251,-4.32447 3.31459,-6.8445c0.08218,-2.97663 1.30669,-5.75154 1.30669,-8.66188c0,0 0,-0.25 0.25,-0.25c0.25,0 0.25,0.25 0.25,0.25c0,2.94436 -1.18007,5.76979 -1.32007,8.7768c-1.31116,2.8878 -1.94195,7.31519 -4.87498,9.11593c-2.41813,1.37198 -4.40887,5.42567 -6.12383,7.89509c-1.97317,2.95991 -3.83533,5.65518 -6.25228,8.21412c-2.4318,2.55083 -4.8249,4.81741 -7.44781,7.25501c-2.05085,1.47545 -4.43416,4.10072 -7.04228,4.57999l-0.02972,0.00482c0,0 -0.24678,0.04002 -0.2868,-0.20676z" fill="#525252"/><g><path d="M249.03198,187.35499c-0.91072,1.19188 -2.1026,0.28117 -2.1026,0.28117l-0.99323,-0.76172c-5.79718,-3.95909 -10.72421,-9.18592 -16.50609,-13.2282c-4.52683,-3.16484 -9.83725,-5.43556 -14.71619,-8.02113c0,0 -1.32539,-0.70238 -0.62301,-2.02777c0.70238,-1.32539 2.02777,-0.62301 2.02777,-0.62301c4.99628,2.64775 10.41059,4.98429 15.04719,8.22505c5.76878,4.0321 10.67364,9.26407 16.45923,13.19561l1.12576,0.85739c0,0 1.19188,0.91072 0.28116,2.1026z" fill="#433b00"/><path d="M222.90715,163.34983c0.23619,0.11625 0.18655,0.49241 0.27346,0.7409c0.13956,0.399 -1.96615,6.57677 -3.17472,6.84649c-2.52504,0.56353 -3.77299,-3.77408 -5.42579,-5.18321c-0.14045,-0.02774 -0.27927,-0.07621 -0.41228,-0.14669c-0.73199,-0.38791 -1.01092,-1.29578 -0.62301,-2.02777c0.34167,-0.64474 1.08673,-0.93798 1.75969,-0.73366c2.00986,-0.89814 5.80193,-0.38232 7.60264,0.50394z" fill="#424135"/><path d="M245.44699,186.92266c0.00252,0.0082 0.00502,0.01641 0.0075,0.02462c0.00656,-0.2486 0.00958,-0.4982 0.01079,-0.74877c0,0 0.0012,-0.25 0.2512,-0.2488c0.25,0.0012 0.2488,0.2512 0.2488,0.2512c-0.00132,0.27437 -0.00501,0.54751 -0.01308,0.81943c0.0394,-0.03312 0.09601,-0.05578 0.17723,-0.05016c0.24941,0.01726 0.23214,0.26666 0.23214,0.26666c-0.01437,0.20751 -0.02788,0.41368 -0.04163,0.6189c0.00228,0.04721 0.00473,0.0944 0.0074,0.14159c0.00925,-0.06999 0.01863,-0.14003 0.0281,-0.21015c0,0 0.03348,-0.24775 0.28123,-0.21427c0.24775,0.03348 0.21427,0.28123 0.21427,0.28123c-0.00275,0.02037 -0.00549,0.04072 -0.00823,0.06108c0.0393,-0.03208 0.09528,-0.05376 0.17493,-0.04825c0.18479,0.01279 0.22319,0.15302 0.23068,0.22482c0.00715,-0.00028 0.01452,-0.00034 0.02211,-0.00016c0.24993,0.00591 0.24401,0.25585 0.24401,0.25585c-0.01712,0.72311 -0.14344,1.38199 -0.25271,2.09411l-0.07958,0.415c0,0 -0.04711,0.24553 -0.29263,0.19841c-0.24552,-0.04711 -0.19841,-0.29263 -0.19841,-0.29263l0.07792,-0.4059c0.0073,-0.04742 0.01469,-0.09457 0.02211,-0.1415c-0.01392,-0.00045 -0.02861,-0.00191 -0.04412,-0.0045c-0.07573,-0.01265 -0.12431,-0.04467 -0.15528,-0.08297l-0.0366,0.21991c0,0 -0.0412,0.24658 -0.28778,0.20538c-0.14865,-0.02484 -0.19271,-0.12431 -0.20427,-0.19941c-0.01649,0.09815 -0.03408,0.19645 -0.0529,0.29496l-0.00226,0.01185c0,0 -0.04693,0.24556 -0.29248,0.19863c-0.24556,-0.04693 -0.19863,-0.29248 -0.19863,-0.29248l0.00226,-0.01185c0.05622,-0.29415 0.10119,-0.58643 0.13835,-0.87807c-0.07956,0.35805 -0.17926,0.71387 -0.30405,1.06748c-0.00579,0.06034 -0.02974,0.10555 -0.02974,0.10555l-0.0075,-0.00211c-0.00479,0.01304 -0.00962,0.02607 -0.01448,0.0391l-0.11854,-0.07655l-0.34982,-0.09849c0.30051,-0.80209 0.45923,-1.61706 0.54253,-2.44392c-0.01955,-0.00786 -0.03678,-0.01828 -0.05189,-0.03007c-0.04109,0.36929 -0.09701,0.7371 -0.17748,1.10458l0.03065,0.06223c0,0 0.04416,0.24607 -0.20191,0.29023c-0.07216,0.01295 -0.12697,0.00094 -0.16838,-0.02251c-0.0028,0.06762 -0.03077,0.12038 -0.03077,0.12038l-0.48846,-0.08971c0.00533,-0.2199 0.01865,-0.43927 0.03442,-0.65852c-0.22692,-0.0104 -0.23173,-0.24453 -0.23173,-0.24453l-0.0017,-0.09079c-0.01074,0.0652 -0.02152,0.13035 -0.03233,0.19543c0.02986,0.09965 -0.02169,0.19692 -0.02169,0.19692l-0.50274,-0.09173c0.0459,-0.27469 0.09163,-0.55063 0.13599,-0.8274c-0.03982,0.01144 -0.08706,0.01216 -0.14149,-0.00789c-0.00799,0.05193 -0.02769,0.08911 -0.02769,0.08911l-0.0402,0.00019c-0.00053,0.00972 -0.00105,0.01943 -0.00157,0.02915l-0.04393,-0.02893l-0.44768,0.00219c0.00011,0.02387 0.00036,0.04765 0.00078,0.07134c0.21819,0.11733 0.10184,0.33689 0.10184,0.33689l-0.08228,0.01534c0.00138,0.01419 0.00284,0.02834 0.00437,0.04243l-0.04375,-0.03509l-0.4538,0.08461c-0.0287,-0.31118 -0.02571,-0.63984 -0.00368,-0.97661c-0.04129,0.00093 -0.08338,-0.00838 -0.12246,-0.02909c-0.04059,-0.02151 -0.07283,-0.05262 -0.09539,-0.08905c-0.06061,0.01804 -0.12807,0.01324 -0.18837,-0.01872c-0.09937,-0.05266 -0.14865,-0.16281 -0.12857,-0.26779l0.00554,-0.03315c-0.04603,0.04934 -0.11995,0.08867 -0.23473,0.0603c-0.15958,-0.03945 -0.18829,-0.15789 -0.18924,-0.23439c-0.04165,0.00745 -0.09093,0.00302 -0.14831,-0.02206c-0.12143,-0.05309 -0.15035,-0.14241 -0.15071,-0.21463c-0.04342,0.04108 -0.10903,0.07026 -0.20716,0.05387c-0.01214,-0.00203 -0.02358,-0.00455 -0.03437,-0.00752c-0.02037,0.11968 -0.04067,0.23964 -0.06079,0.35996l-0.04005,0.30985c-0.00326,0.03086 -0.01236,0.06163 -0.02778,0.09073c-0.06465,0.122 -0.21596,0.16849 -0.33796,0.10383c-0.09184,-0.04867 -0.14088,-0.14644 -0.13195,-0.24385l0.02521,-0.36421c0,0 0.00473,-0.06837 0.04503,-0.13104c0.2227,-1.31958 0.46373,-2.59936 0.57343,-3.93327c0,0 0.02058,-0.24915 0.26973,-0.22857c0.24915,0.02058 0.22857,0.26973 0.22857,0.26973c-0.00628,0.07561 -0.01296,0.15105 -0.02003,0.22634c0.04385,-0.06239 0.12883,-0.13412 0.27501,-0.08771c0.23827,0.07566 0.16261,0.31393 0.16261,0.31393c-0.25694,0.80484 -0.49722,1.78423 -0.57989,2.64948c0.20857,-0.88725 0.46072,-1.76048 0.63229,-2.65832c0,0 0.04693,-0.24556 0.29248,-0.19863c0.09502,0.01816 0.14625,0.06607 0.17335,0.11797c0.14931,0.05896 0.14509,0.23728 0.14509,0.23728c-0.00956,0.39655 -0.03954,0.77852 -0.08896,1.15466c0.02977,-0.00771 0.06458,-0.01026 0.10524,-0.00535c0.04814,0.00581 0.08581,0.01983 0.11527,0.03865c0.02537,-0.16863 0.04601,-0.33778 0.05998,-0.50762c0,0 0.02058,-0.24915 0.26973,-0.22857c0.24915,0.02058 0.22857,0.26973 0.22857,0.26973c-0.01134,0.13677 -0.02681,0.27306 -0.04546,0.40896c0.02386,0.02539 0.0391,0.05454 0.04878,0.08271c0.00384,-0.02328 0.0077,-0.04656 0.01158,-0.06981c0,0 0.0412,-0.24658 0.28778,-0.20538c0.24658,0.0412 0.20538,0.28779 0.20538,0.28779c-0.00972,0.05815 -0.01928,0.11639 -0.02868,0.1747c0.02283,-0.01663 0.05117,-0.03097 0.08625,-0.04174c0.12695,-0.039 0.20718,0.01015 0.2545,0.0648c0.03833,-0.02454 0.0897,-0.03943 0.15852,-0.03374c0.24915,0.02058 0.22857,0.26973 0.22857,0.26973c-0.02794,0.3364 -0.06326,0.6736 -0.104,1.0109c0.03922,-0.0227 0.09096,-0.03529 0.15909,-0.02684c0.01928,0.00239 0.03687,0.00609 0.05292,0.01088c0.00246,-0.10104 0.00264,-0.20197 -0.0006,-0.30271c0,0 -0.00795,-0.24987 0.24192,-0.25783c0.24987,-0.00796 0.25783,0.24192 0.25783,0.24192c0.00411,0.1303 0.00205,0.26134 -0.00339,0.39276c0.02129,-0.00389 0.04496,-0.00546 0.07124,-0.00412c0.24968,0.01267 0.23701,0.26235 0.23701,0.26235c-0.00088,0.01739 -0.00177,0.03477 -0.00266,0.05215c0.01493,0.02718 0.02124,0.04771 0.02124,0.04771zM242.96682,188.10255c0.01587,-0.26557 0.03568,-0.53171 0.05923,-0.79787c-0.03104,0.27081 -0.0532,0.53876 -0.05923,0.79787z" fill="#134220"/><path d="M246.11361,180.84562c0.00296,-0.01702 0.0077,-0.03499 0.01452,-0.05393c0.08465,-0.23523 0.31988,-0.15058 0.31988,-0.15058l0.24644,0.08868c0.01236,0.00422 0.02455,0.00948 0.03646,0.01579c0.122,0.06465 0.16849,0.21596 0.10383,0.33796c-0.03318,0.06261 -0.08919,0.10533 -0.15234,0.12335l-0.41067,0.11781l-0.00124,-0.00431l-0.01403,0.00818c-0.06451,0.01001 -0.12892,0.01941 -0.19327,0.0283c-0.00035,0.01746 -0.00253,0.035 -0.00664,0.05234c0.07486,-0.00137 0.13584,0.03095 0.13584,0.03095l-0.00033,0.0225l0.01242,0.00237c0.02584,0.00432 0.05143,0.01281 0.07586,0.02575c0.07912,0.04193 0.12648,0.12031 0.13237,0.2035l0.04453,0.03508c0.19764,0.01136 0.3952,0.02026 0.59269,0.02468l0.21094,0.08192c0,0 0.1229,0.06513 0.13678,0.18991c0.20194,-0.01253 0.40397,-0.02822 0.60643,-0.0483c0.02975,-0.00977 0.05135,-0.01219 0.05135,-0.01219l0.32709,-0.03651l0.48726,-0.07673c0.05235,-0.00882 0.10791,-0.00111 0.15845,0.02567c0.122,0.06465 0.16849,0.21596 0.10383,0.33796c-0.02917,0.05504 -0.07598,0.09471 -0.12978,0.11574c0.10348,-0.00628 0.20696,-0.0125 0.31044,-0.01864l0.02248,0.01128l0.00121,-0.00936l0.31329,0.04049c0.03086,0.00326 0.06163,0.01236 0.09073,0.02778c0.122,0.06465 0.16849,0.21596 0.10383,0.33796c-0.03646,0.06881 -0.1005,0.1136 -0.17128,0.12797l-0.172,0.0362c0.12953,0.01319 0.25898,0.02733 0.38836,0.04223l0.248,0.0286c0.03199,0.00294 0.06394,0.01213 0.0941,0.02811c0.122,0.06465 0.16849,0.21596 0.10383,0.33796c-0.02879,0.05432 -0.07475,0.09367 -0.12766,0.1149l-0.26766,0.10963l-0.3867,0.17386c0,0 -0.22802,0.10249 -0.33052,-0.12553c-0.04608,-0.10252 -0.02535,-0.17967 0.01143,-0.23353c-0.04517,-0.0042 -0.09035,-0.00827 -0.13553,-0.01219l-0.26357,0.11847l-0.00132,-0.00293l-0.00973,0.00758c-0.18436,0.06257 -0.36899,0.12134 -0.55397,0.17736c0.15755,-0.00368 0.31508,-0.00844 0.47259,-0.01479l0.01288,0.00673l0.00041,-0.00621l0.27505,0.01803c0.03597,0.00155 0.07217,0.01094 0.1061,0.02892c0.10315,0.05466 0.15232,0.17126 0.12598,0.27973l0.1883,0.00446c0.03926,0.00011 0.07908,0.00949 0.11618,0.02915c0.08052,0.04267 0.12815,0.1231 0.13264,0.20793c0.3441,0.00681 0.68817,0.01617 1.03316,0.01222l0.01135,0.00573l0.00042,-0.00504l0.28024,0.02315c0.03462,0.00207 0.06935,0.01141 0.10199,0.02871c0.11513,0.06101 0.16301,0.19919 0.11371,0.31709c0.107,0.06988 0.14496,0.21111 0.08394,0.32624c-0.01115,0.02104 -0.02487,0.03983 -0.04058,0.0562l0.17989,-0.00956c0.04508,-0.00318 0.09157,0.00581 0.13444,0.02853c0.122,0.06465 0.16849,0.21596 0.10383,0.33796c-0.03003,0.05667 -0.07877,0.09705 -0.13458,0.11756l-0.42378,0.15798l-0.00167,-0.00448c-0.00408,0.00307 -0.00816,0.00613 -0.01224,0.0092l-0.45458,0.11136c0,0 -0.02769,0.00675 -0.06665,0.00635l0.07484,0.24223c-0.40862,0.12368 -0.82408,0.14061 -1.24814,0.18345c0,0 -0.24873,0.02513 -0.27386,-0.2236c-0.00511,-0.05062 0.00111,-0.09198 0.01428,-0.12575c-0.06465,-0.01634 -0.13793,-0.05974 -0.16621,-0.1691c-0.0923,0.03677 -0.18262,0.07689 -0.27035,0.12117c0,0 -0.22365,0.11171 -0.33537,-0.11194c-0.03516,-0.0704 -0.0371,-0.12971 -0.02324,-0.17793c-0.117,0.01221 -0.23419,0.02303 -0.35171,0.03153c0,0 -0.24936,0.01781 -0.26717,-0.23156c-0.0069,-0.09671 0.02637,-0.15859 0.0697,-0.19811c-0.01963,0.0043 -0.03925,0.00865 -0.05887,0.01307c0,0 -0.2439,0.05488 -0.29878,-0.18902c-0.05488,-0.2439 0.18902,-0.29878 0.18902,-0.29878c0.0897,-0.02016 0.17938,-0.03904 0.2691,-0.05685c-0.098,0.00676 -0.19614,0.01491 -0.29456,0.0249c0,0 -0.17235,0.01741 -0.24461,-0.12023c-0.15594,0.00451 -0.31204,0.01317 -0.46956,0.03483c0,0 -0.2478,0.03314 -0.28093,-0.21466c-0.00695,-0.05197 -0.00154,-0.09449 0.01134,-0.12925c-0.01221,-0.00738 -0.02418,-0.0161 -0.03544,-0.0264c-0.04292,0.01114 -0.08587,0.02231 -0.12886,0.03349c0,0 -0.24194,0.06297 -0.30491,-0.17897c-0.06297,-0.24194 0.17897,-0.30491 0.17897,-0.30491c0.14572,-0.03793 0.29104,-0.07548 0.436,-0.11316c-0.02229,0.00216 -0.04459,0.00433 -0.0669,0.00649c0.04656,-0.00844 0.09311,-0.01692 0.13966,-0.02543c0.03552,-0.00926 0.07102,-0.01853 0.1065,-0.02782c-0.45169,0.03225 -0.90534,0.0699 -1.35259,0.06038c0,0 -0.24993,-0.00592 -0.24401,-0.25585c0.00009,-0.00393 0.00024,-0.0078 0.00046,-0.0116c-0.0448,-0.0315 -0.08308,-0.08421 -0.09432,-0.17193c-0.03175,-0.24797 0.21622,-0.27973 0.21622,-0.27973c0.09488,-0.01215 0.18975,-0.02363 0.28463,-0.03459c-0.02272,-0.02471 -0.04189,-0.05621 -0.05101,-0.09593c-0.0203,0.00245 -0.04063,0.00474 -0.06101,0.00685c0,0 -0.04881,0.00493 -0.10537,-0.0112c-0.32098,0.13569 -0.54918,0.11862 -0.90853,0.15561c0,0 -0.24873,0.02513 -0.27386,-0.22361c-0.02513,-0.24874 0.2236,-0.27386 0.2236,-0.27386c0.07118,-0.00707 0.137,-0.01032 0.19951,-0.01284c-0.03899,-0.02941 -0.07242,-0.07639 -0.08805,-0.15066c-0.00568,-0.02697 -0.00775,-0.05159 -0.00696,-0.07406c-0.01132,-0.00048 -0.02264,-0.00095 -0.03397,-0.0014c-0.21707,0.02621 -0.43425,0.04991 -0.65167,0.06548c0,0 -0.24937,0.01781 -0.26717,-0.23156c-0.00583,-0.08158 0.01695,-0.13839 0.05023,-0.17789c-0.07522,0.00645 -0.1501,0.01106 -0.22438,0.01253c0,0 -0.24995,0.00495 -0.2549,-0.245c-0.00155,-0.07852 0.02205,-0.13286 0.05515,-0.17047c-0.00036,-0.00785 -0.00045,-0.01596 -0.00025,-0.02435c0.00101,-0.04259 0.00911,-0.07775 0.02184,-0.10678c-0.18916,0.02194 -0.379,0.04102 -0.57007,0.05624c0,0 -0.24921,0.01983 -0.26905,-0.22938c-0.00663,-0.08324 0.01677,-0.14089 0.05087,-0.18076c-0.06405,-0.02559 -0.12992,-0.08172 -0.14222,-0.20346c-0.02513,-0.24874 0.2236,-0.27387 0.2236,-0.27387c0.04378,-0.00441 0.08754,-0.00851 0.13128,-0.01236c-0.03974,-0.03497 -0.07124,-0.08932 -0.07573,-0.17372c-0.01327,-0.24965 0.23638,-0.26292 0.23638,-0.26292c0.95747,-0.05088 1.92565,-0.12324 2.8846,-0.10087l-0.0899,0.4047l0.07806,0.09516c-0.03291,-0.00079 -0.06582,-0.00147 -0.09875,-0.00203l-0.01718,0.07732c0,0 -0.19292,0.08357 -0.30156,-0.07949c-0.08052,0.00024 -0.16109,0.00104 -0.2417,0.00233c0.01208,0.03375 0.01692,0.07002 0.01374,0.10626c0.01025,0.00381 0.02037,0.00834 0.03031,0.0136c0.122,0.06465 0.16849,0.21596 0.10383,0.33796c-0.03395,0.06406 -0.09178,0.1073 -0.15673,0.12456l-0.09024,0.02426c0.33495,-0.03312 0.66739,-0.06589 1.00147,-0.11603zM244.30748,181.11648c0.13349,0.00292 0.26698,0.00558 0.40048,0.00772c0.01406,-0.03344 0.03501,-0.05917 0.05827,-0.07894c-0.15323,0.02422 -0.30605,0.04814 -0.45875,0.07122zM247.72118,183.2137l-0.30825,0.07686c-0.00002,-0.00001 -0.00003,-0.00001 -0.00005,-0.00002l0.0283,0.0769c0.14748,-0.04016 0.29466,-0.08126 0.44158,-0.12385c-0.03603,-0.02288 -0.06977,-0.05761 -0.08821,-0.11029c-0.0321,0.05096 -0.07337,0.08041 -0.07337,0.08041zM248.69483,184.92232c0.00027,-0.00476 0.00065,-0.0096 0.00115,-0.01453c-0.11182,0.01668 -0.22331,0.03429 -0.33459,0.05325c0.11127,-0.01189 0.22237,-0.0251 0.33344,-0.03872zM243.33253,182.0303c0.01575,0.00719 0.03173,0.01213 0.04745,0.01538c-0.02416,0.00803 -0.04826,0.01602 -0.0723,0.02398c0.00824,-0.01314 0.01652,-0.02626 0.02485,-0.03936z" fill="#134220"/></g></g></g></svg>