<svg version="1.1" xmlns="http://www.w3.org/2000/svg" xmlns:xlink="http://www.w3.org/1999/xlink" width="88.87228" height="95.25304" viewBox="0,0,88.87228,95.25304"><g transform="translate(-184.7775,-105.01911)"><g data-paper-data="{&quot;isPaintingLayer&quot;:true}" fill-rule="nonzero" stroke-linejoin="miter" stroke-miterlimit="10" stroke-dasharray="" stroke-dashoffset="0" style="mix-blend-mode: normal"><g><g><path d="M233.13988,128.48388c0.91575,6.97796 -0.99347,12.98266 -4.26437,13.41191c-3.27091,0.42925 -6.66487,-4.87948 -7.58063,-11.85742c-0.91575,-6.97796 0.99347,-12.98266 4.26438,-13.41193c3.27091,-0.42925 6.66485,4.8795 7.58063,11.85742z" fill="#8c6738" stroke="none" stroke-width="0" stroke-linecap="butt"/><path d="M217.04924,106.84896c8.18565,0.54925 14.33743,8.2073 13.74042,17.10473c-0.59701,8.89745 -7.71676,15.66497 -15.90238,15.11571c-8.18565,-0.54925 -14.33743,-8.20731 -13.74042,-17.10473c0.59702,-8.89744 7.71676,-15.66496 15.90239,-15.1157z" fill="#8c6738" stroke="none" stroke-width="0" stroke-linecap="butt"/><path d="M216.85726,107.75127c4.01355,-2.31429 8.87846,-2.66245 10.86611,-0.77764c1.98763,1.88479 0.34535,5.28885 -3.66821,7.60313c-4.01355,2.31429 -8.87846,2.66244 -10.8661,0.77765c-1.98764,-1.88479 -0.34534,-5.28886 3.6682,-7.60313z" fill="#8c6738" stroke="none" stroke-width="0" stroke-linecap="butt"/><path d="M229.91335,113.52952c0.00809,4.63294 -2.11276,9.02509 -4.73705,9.81006c-2.62432,0.78496 -4.75831,-2.33445 -4.76641,-6.96739c-0.0081,-4.63295 2.11274,-9.02507 4.73707,-9.81005c2.62431,-0.78496 4.75833,2.33442 4.76641,6.96739z" data-paper-data="{&quot;index&quot;:null}" fill="#8c6738" stroke="none" stroke-width="0" stroke-linecap="butt"/><path d="M231.15852,114.55434l-2.31755,-0.20457l0.09359,-1.76059l2.04718,0.21097l0.3722,1.76729" fill="#b39675" stroke="#b39675" stroke-width="0.5" stroke-linecap="round"/><path d="M225.50059,105.25986c0.39954,0.02683 0.52827,0.29036 0.56904,0.47911c4.21697,2.089 2.78084,6.78004 2.51403,10.75667c0,0 -0.04222,0.62906 -0.67128,0.58686c-0.62906,-0.04221 -0.58685,-0.67128 -0.58685,-0.67128c0.21377,-3.18583 1.57432,-7.33563 -1.32019,-9.25664c-0.00504,0.07531 -0.00919,0.13688 -0.01191,0.17736c0,0 -0.04222,0.62907 -0.67127,0.58686c-0.62906,-0.04221 -0.58685,-0.67128 -0.58685,-0.67128c0.01566,-0.23348 0.03133,-0.46694 0.04698,-0.7004l0.04699,-0.70041c0,0 0.04222,-0.62906 0.67128,-0.58685z" fill="#864e00" stroke="none" stroke-width="0.5" stroke-linecap="butt"/><path d="M225.43843,105.02117c0.62906,0.04221 0.58686,0.67127 0.58686,0.67127c-0.03133,0.46693 -0.094,1.4008 -0.12533,1.86773c0,0 -0.04222,0.62906 -0.67128,0.58686c-0.62906,-0.04221 -0.58686,-0.67128 -0.58686,-0.67128c0.03133,-0.46693 0.06267,-0.93387 0.094,-1.4008l0.03132,-0.46694c0,0 0.04223,-0.62907 0.67128,-0.58686z" fill="#871400" stroke="none" stroke-width="0.5" stroke-linecap="butt"/><path d="M214.90166,112.88393c-0.23206,-0.1975 -0.2096,-0.53226 -0.2096,-0.53226l0.02584,-0.17606c0.97954,-2.38366 3.2609,-0.06758 0.87398,0.91705c0,0 -0.44726,0.13844 -0.69024,-0.2087z" fill="#000000" stroke="none" stroke-width="0.5" stroke-linecap="butt"/><path d="M208.00411,120.09026c0.24358,0.58153 -0.33797,0.82511 -0.33797,0.82511l-0.13233,0.05277c-0.49113,0.25132 -1.00464,0.41349 -1.52169,0.57891c0.23357,0.08839 0.47311,0.17437 0.7207,0.25842l0.30769,0.19412c0,0 0.50001,0.38407 0.11594,0.88407c-0.38406,0.49999 -0.88407,0.11593 -0.88407,0.11593l0.05467,-0.00022c-1.65441,-0.56277 -3.00043,-1.22103 -4.53458,-2.07248c0,0 -0.55121,-0.30605 -0.24516,-0.85726c0.30605,-0.55122 0.85726,-0.24516 0.85726,-0.24516c0.66475,0.36924 1.28538,0.69784 1.91193,0.99688c0.86675,-0.37616 1.82252,-0.52716 2.62983,-0.96891l0.23266,-0.1001c0,0 0.58154,-0.24357 0.82511,0.33796z" fill="#7c4800" stroke="none" stroke-width="0.5" stroke-linecap="butt"/><path d="M201.15692,118.46099c0.07595,-0.05981 0.50138,-0.36105 0.87774,0.06942c0.41497,0.47467 -0.05969,0.88964 -0.05969,0.88964l-0.34232,0.19917c-0.82874,-0.02905 -0.1436,1.50385 0.05936,1.98358c0,0 0.24358,0.58154 -0.33795,0.82511c-0.58153,0.24358 -0.8251,-0.33796 -0.8251,-0.33796c-0.5888,-1.41788 -0.94577,-2.98998 0.628,-3.62896z" fill="#8c6738" stroke="none" stroke-width="0.5" stroke-linecap="butt"/><path d="M209.45574,117.98211c-0.13074,0.61679 -0.74751,0.48603 -0.74751,0.48603l-0.21754,-0.05259c-1.89551,-0.12811 -3.71642,-0.12111 -5.60635,0.10691c-5.78289,-0.08088 -0.28197,6.23381 3.17106,6.44774c0,0 0.62906,0.04222 0.58685,0.67127c-0.04221,0.62906 -0.67127,0.58686 -0.67127,0.58686c-5.02,-0.35847 -10.73995,-9.03438 -3.1558,-8.96495c1.93756,-0.23841 3.81649,-0.23551 5.75992,-0.106l0.39459,0.07718c0,0 0.61679,0.13075 0.48603,0.74751z" fill="#7c4800" stroke="none" stroke-width="0.5" stroke-linecap="butt"/><path d="M219.14532,130.5134c6.31013,3.11651 10.24123,8.04075 8.78036,10.99864c-1.46086,2.95787 -7.76049,2.82928 -14.07062,-0.28723c-6.31012,-3.11651 -10.24123,-8.04075 -8.78036,-10.99863c1.46086,-2.95787 7.7605,-2.82928 14.07062,0.28722z" fill="#8c6738" stroke="none" stroke-width="0" stroke-linecap="butt"/><path d="M223.84431,122.00341c-0.04221,0.62906 -0.67127,0.58685 -0.67127,0.58685l-0.18413,-0.01235c-4.24875,-0.2851 -5.42716,-1.59231 -7.40103,-5.03174c0,0 -0.31384,-0.54685 0.233,-0.86066c0.54684,-0.31382 0.86065,0.23302 0.86065,0.23302c1.78694,3.1137 2.51615,4.14119 6.39178,4.40125l0.18413,0.01235c0,0 0.62906,0.04222 0.58685,0.67127z" fill="#864e00" stroke="none" stroke-width="0.5" stroke-linecap="butt"/><path d="M226.35151,129.18694c7.83836,3.87129 12.43594,10.56637 10.269,14.95386c-2.16695,4.38752 -10.27784,4.80598 -18.1162,0.93469c-7.83836,-3.87129 -12.43594,-10.56637 -10.269,-14.95386c2.16695,-4.38752 10.27784,-4.80598 18.1162,-0.93469z" fill="#8c6738" stroke="none" stroke-width="0" stroke-linecap="butt"/></g><path d="M206.94615,112.67233c-1.82524,1.37521 -4.257,1.97949 -6.23646,3.11318c-2.52701,0.86393 -6.6665,3.00534 -9.33282,2.32193c-0.06558,0.00252 -0.1312,0.00441 -0.1969,0.00572c0,0 -0.47478,0.0078 -0.48258,-0.46698c-0.00779,-0.47479 0.46699,-0.48259 0.46699,-0.48259c3.41661,-0.04215 6.72519,-1.92042 9.72846,-3.30819c1.30287,-0.75206 4.42961,-2.34932 4.91631,-3.80303l0.02936,-0.24777c0,0 0.0456,-0.29911 0.30277,-0.38341c0.03744,-0.05728 0.09405,-0.11233 0.17708,-0.16023c0.41126,-0.23739 0.64863,0.17384 0.64863,0.17384c0.32783,0.57502 0.50513,1.19346 0.83885,1.76983l0.15825,0.27414c0,0 0.23741,0.41128 -0.17385,0.64866c-0.10651,0.06148 -0.20137,0.07946 -0.28347,0.07233c-0.13641,0.13519 -0.32089,0.29195 -0.56059,0.47253z" fill="#8c8172" stroke="none" stroke-width="0.5" stroke-linecap="butt"/><path d="M217.45171,123.06591c-1.71492,2.50324 -4.51942,4.29301 -6.53066,6.55758c-2.81448,2.15687 -7.11747,6.60391 -10.76221,6.87244c-0.08145,0.03091 -0.16325,0.06111 -0.24536,0.09056c0,0 -0.59418,0.21077 -0.80499,-0.38343c-0.21078,-0.59418 0.38343,-0.80499 0.38343,-0.80499c4.28185,-1.49921 7.65057,-5.26339 10.84268,-8.28106c1.32131,-1.49792 4.5801,-4.83151 4.57727,-6.86694l-0.06795,-0.32423c0,0 -0.06926,-0.39574 0.21872,-0.61069c0.02288,-0.08794 0.07082,-0.18116 0.15501,-0.27661c0.41704,-0.47282 0.8899,-0.05575 0.8899,-0.05575c0.65594,0.5849 1.14087,1.28811 1.80482,1.87221l0.31519,0.27805c0,0 0.47283,0.41709 0.05575,0.88988c-0.10802,0.12247 -0.2198,0.18522 -0.32612,0.21102c-0.11443,0.22791 -0.28023,0.50322 -0.50546,0.83197z" fill="#8c8172" stroke="none" stroke-width="0.5" stroke-linecap="butt"/><path d="M211.97888,122.44954c-2.46382,1.77106 -5.70978,2.50072 -8.37114,3.94658c-3.38013,1.07149 -8.93875,3.79061 -12.45769,2.80395c-0.08712,0.00138 -0.17429,0.00196 -0.26154,0.00173c0,0 -0.63045,-0.0038 -0.62666,-0.63429c0.00381,-0.63047 0.63427,-0.62668 0.63427,-0.62668c4.5365,0.04588 8.98432,-2.34871 13.01224,-4.10132c1.75187,-0.95947 5.94996,-2.98651 6.63931,-4.90161l0.04634,-0.328c0,0 0.06942,-0.39572 0.41332,-0.49995c0.0514,-0.07491 0.12816,-0.14628 0.23982,-0.20741c0.55298,-0.30285 0.85583,0.25013 0.85583,0.25013c0.41799,0.77307 0.63495,1.59926 1.06075,2.3743l0.2019,0.36865c0,0 0.30285,0.55298 -0.25013,0.85583c-0.14324,0.07845 -0.26969,0.09948 -0.37843,0.08757c-0.1851,0.1754 -0.43465,0.37795 -0.75822,0.61054z" fill="#8c8172" stroke="none" stroke-width="0.5" stroke-linecap="butt"/><path d="M233.13988,128.48388c0.91575,6.97796 -0.99347,12.98266 -4.26437,13.41191c-3.27091,0.42925 -6.66487,-4.87948 -7.58063,-11.85742c-0.91575,-6.97796 0.99347,-12.98266 4.26438,-13.41193c3.27091,-0.42925 6.66485,4.8795 7.58063,11.85742z" fill="#8c6738" stroke="none" stroke-width="0" stroke-linecap="butt"/><path d="M217.04924,106.84896c8.18565,0.54925 14.33743,8.2073 13.74042,17.10473c-0.59701,8.89745 -7.71676,15.66497 -15.90238,15.11571c-8.18565,-0.54925 -14.33743,-8.20731 -13.74042,-17.10473c0.59702,-8.89744 7.71676,-15.66496 15.90239,-15.1157z" fill="#8c6738" stroke="none" stroke-width="0" stroke-linecap="butt"/><path d="M216.85726,107.75127c4.01355,-2.31429 8.87846,-2.66245 10.86611,-0.77764c1.98763,1.88479 0.34535,5.28885 -3.66821,7.60313c-4.01355,2.31429 -8.87846,2.66244 -10.8661,0.77765c-1.98764,-1.88479 -0.34534,-5.28886 3.6682,-7.60313z" fill="#8c6738" stroke="none" stroke-width="0" stroke-linecap="butt"/><path d="M229.91335,113.52952c0.00809,4.63294 -2.11276,9.02509 -4.73705,9.81006c-2.62432,0.78496 -4.75831,-2.33445 -4.76641,-6.96739c-0.0081,-4.63295 2.11274,-9.02507 4.73707,-9.81005c2.62431,-0.78496 4.75833,2.33442 4.76641,6.96739z" data-paper-data="{&quot;index&quot;:null}" fill="#8c6738" stroke="none" stroke-width="0" stroke-linecap="butt"/><path d="M231.15852,114.55434l-2.31755,-0.20457l0.09359,-1.76059l2.04718,0.21097l0.3722,1.76729" fill="#b39675" stroke="#b39675" stroke-width="0.5" stroke-linecap="round"/><path d="M225.50059,105.25986c0.39954,0.02683 0.52827,0.29036 0.56904,0.47911c4.21697,2.089 2.78084,6.78004 2.51403,10.75667c0,0 -0.04222,0.62906 -0.67128,0.58686c-0.62906,-0.04221 -0.58685,-0.67128 -0.58685,-0.67128c0.21377,-3.18583 1.57432,-7.33563 -1.32019,-9.25664c-0.00504,0.07531 -0.00919,0.13688 -0.01191,0.17736c0,0 -0.04222,0.62907 -0.67127,0.58686c-0.62906,-0.04221 -0.58685,-0.67128 -0.58685,-0.67128c0.01566,-0.23348 0.03133,-0.46694 0.04698,-0.7004l0.04699,-0.70041c0,0 0.04222,-0.62906 0.67128,-0.58685z" fill="#864e00" stroke="none" stroke-width="0.5" stroke-linecap="butt"/><path d="M225.43843,105.02117c0.62906,0.04221 0.58686,0.67127 0.58686,0.67127c-0.03133,0.46693 -0.094,1.4008 -0.12533,1.86773c0,0 -0.04222,0.62906 -0.67128,0.58686c-0.62906,-0.04221 -0.58686,-0.67128 -0.58686,-0.67128c0.03133,-0.46693 0.06267,-0.93387 0.094,-1.4008l0.03132,-0.46694c0,0 0.04223,-0.62907 0.67128,-0.58686z" fill="#871400" stroke="none" stroke-width="0.5" stroke-linecap="butt"/><path d="M214.90166,112.88393c-0.23206,-0.1975 -0.2096,-0.53226 -0.2096,-0.53226l0.02584,-0.17606c0.97954,-2.38366 3.2609,-0.06758 0.87398,0.91705c0,0 -0.44726,0.13844 -0.69024,-0.2087z" fill="#000000" stroke="none" stroke-width="0.5" stroke-linecap="butt"/><path d="M201.15692,118.46099c0.07595,-0.05981 0.50138,-0.36105 0.87774,0.06942c0.41497,0.47467 -0.05969,0.88964 -0.05969,0.88964l-0.34232,0.19917c-0.82874,-0.02905 -0.1436,1.50385 0.05936,1.98358c0,0 0.24358,0.58154 -0.33795,0.82511c-0.58153,0.24358 -0.8251,-0.33796 -0.8251,-0.33796c-0.5888,-1.41788 -0.94577,-2.98998 0.628,-3.62896z" fill="#8c6738" stroke="none" stroke-width="0.5" stroke-linecap="butt"/><path d="M219.14532,130.5134c6.31013,3.11651 10.24123,8.04075 8.78036,10.99864c-1.46086,2.95787 -7.76049,2.82928 -14.07062,-0.28723c-6.31012,-3.11651 -10.24123,-8.04075 -8.78036,-10.99863c1.46086,-2.95787 7.7605,-2.82928 14.07062,0.28722z" fill="#8c6738" stroke="none" stroke-width="0" stroke-linecap="butt"/><path d="M223.84431,122.00341c-0.04221,0.62906 -0.67127,0.58685 -0.67127,0.58685l-0.18413,-0.01235c-4.24875,-0.2851 -5.42716,-1.59231 -7.40103,-5.03174c0,0 -0.31384,-0.54685 0.233,-0.86066c0.54684,-0.31382 0.86065,0.23302 0.86065,0.23302c1.78694,3.1137 2.51615,4.14119 6.39178,4.40125l0.18413,0.01235c0,0 0.62906,0.04222 0.58685,0.67127z" fill="#864e00" stroke="none" stroke-width="0.5" stroke-linecap="butt"/><path d="M226.35151,129.18694c7.83836,3.87129 12.43594,10.56637 10.269,14.95386c-2.16695,4.38752 -10.27784,4.80598 -18.1162,0.93469c-7.83836,-3.87129 -12.43594,-10.56637 -10.269,-14.95386c2.16695,-4.38752 10.27784,-4.80598 18.1162,-0.93469z" fill="#8c6738" stroke="none" stroke-width="0" stroke-linecap="butt"/><g data-paper-data="{&quot;index&quot;:null}" stroke="none" stroke-width="0.5" stroke-linecap="butt"><path d="M223.32629,121.36803c0.42338,0.46717 -0.04378,0.89055 -0.04378,0.89055l-0.01124,-0.12284c-0.29754,1.08441 -0.63023,2.18838 -0.74743,3.30678c-0.47567,4.39248 -0.3592,8.83507 -0.75622,13.10006c0,0 -0.06787,0.62679 -0.6947,0.55893c-0.62683,-0.06786 -0.55895,-0.69468 -0.55895,-0.69468c0.53958,-4.13198 0.29,-8.79484 0.7562,-13.10007c0.13208,-1.18736 0.46898,-2.35271 0.78506,-3.50467l0.38051,-0.47787c0,0 0.46717,-0.42338 0.89055,0.04378z" fill="#7a6a5e"/><path d="M221.24319,136.75486c0.16977,0.60717 -0.43743,0.77696 -0.43743,0.77696c-0.21332,0.05963 -0.91901,0.25695 -1.13234,0.31661c0,0 -0.18449,0.0516 -0.37851,-0.00381c-0.91974,0.30014 -2.01408,0.6634 -2.41402,1.45984c0,0 -0.3093,0.54939 -0.8587,0.24008c-0.54941,-0.30931 -0.24008,-0.85868 -0.24008,-0.85868c0.78277,-1.30385 2.28846,-1.72144 3.66594,-2.22335l0.39069,-0.11115c0,0 0.21873,-0.06115 0.43034,0.02121l0.19716,-0.0551c0,0 0.60721,-0.16978 0.77698,0.43741z" fill="#7a0c00"/><path d="M221.57517,137.00013c0.36807,-0.51188 0.87996,-0.1438 0.87996,-0.1438l0.28155,0.20285c1.13489,0.87479 1.66196,1.68249 2.04761,3.05822c0,0 0.16976,0.6072 -0.43744,0.77696c-0.60717,0.16977 -0.77698,-0.43741 -0.77698,-0.43741c-0.31345,-1.12431 -0.66835,-1.68496 -1.60099,-2.39749l-0.24995,-0.17934c0,0 -0.51187,-0.3681 -0.1438,-0.87999z" fill="#7a0c00"/><path d="M221.29815,132.01534c0.16977,0.60717 -0.43743,0.77696 -0.43743,0.77696l-0.14773,0.0413c-1.04187,0.29131 -2.09544,0.55337 -3.03824,1.09537c0,0 -0.54792,0.31197 -0.85987,-0.23591c-0.31195,-0.54788 0.23593,-0.85987 0.23593,-0.85987c1.04168,-0.58837 2.17603,-0.89335 3.32269,-1.21394l0.1477,-0.0413c0,0 0.60721,-0.16978 0.77698,0.43741z" fill="#7a0c00"/><path d="M221.86251,132.14254c0.36807,-0.51188 0.87996,-0.1438 0.87996,-0.1438l0.26576,0.1911c1.01638,0.73087 1.97872,1.31199 2.78,2.09397c0.06403,0.86259 0.14647,1.70793 0.25018,2.51765c-0.04133,-0.05847 -0.06144,-0.10282 -0.06144,-0.10282c-0.78836,-1.74968 -2.21593,-2.41437 -3.70491,-3.48504l-0.26576,-0.19111c0,0 -0.51187,-0.36806 -0.14381,-0.87996z" fill="#7a0c00"/><path d="M221.74669,127.49563c-0.04796,0.62864 -0.67661,0.5807 -0.67661,0.5807l-0.47317,-0.04822c-1.19853,0.14095 -2.24495,0.57153 -3.34411,1.04304c0,0 -0.39632,0.17001 -0.67402,-0.09898c0.18456,-0.37534 0.37214,-0.78596 0.55908,-1.22191c1.0762,-0.45023 2.12797,-0.82868 3.30811,-0.97404l0.72004,0.04281c0,0 0.62866,0.04795 0.58071,0.67659z" fill="#7a0c00"/><path d="M221.97043,127.59572c0.30931,-0.54941 0.85873,-0.24012 0.85873,-0.24012l0.50396,0.28372c0.87975,0.49662 1.57293,1.00495 2.26899,1.58555c0.00248,0.55691 0.01032,1.12135 0.02427,1.68835c-0.96736,-0.86677 -1.72655,-1.50975 -2.91189,-2.17512l-0.50397,-0.2837c0,0 -0.54941,-0.30929 -0.24009,-0.85871z" fill="#7a0c00"/><path d="M222.11555,125.04003c-0.25829,0.57514 -0.83342,0.31685 -0.83342,0.31685l-0.32577,-0.14781c-0.77035,-0.28765 -1.5488,-0.41889 -2.33423,-0.45259c0.25269,-0.36988 0.50782,-0.7734 0.75997,-1.20028c0.67458,0.07535 1.34541,0.2232 2.01394,0.47106l0.4027,0.17934c0,0 0.57514,0.25828 0.31685,0.83342z" fill="#7a0c00"/><path d="M222.36079,124.34844c0.19556,-0.59937 0.79495,-0.40381 0.79495,-0.40381l0.13895,0.04652c0.47511,0.12408 0.91149,0.27888 1.33405,0.45026c0.14465,0.53495 0.29924,1.06067 0.46296,1.56937c-0.67524,-0.30872 -1.33546,-0.59587 -2.11561,-0.79959l-0.21149,-0.06783c0,0 -0.59939,-0.19557 -0.40383,-0.79494z" fill="#7a0c00"/><path d="M222.57013,121.81407c-0.1197,0.61903 -0.73872,0.49931 -0.73872,0.49931l-0.22443,-0.0434c-0.4926,-0.09532 -0.93432,-0.17998 -1.40502,-0.20423c0.20334,-0.39633 0.40029,-0.80138 0.58749,-1.20871c0.34588,0.0421 0.69098,0.1042 1.0569,0.1749l0.22447,0.04342c0,0 0.619,0.11968 0.49931,0.73872z" fill="#7a0c00"/><path d="M221.06104,134.20485c0.16977,0.60717 -0.43744,0.77696 -0.43744,0.77696l-0.24398,0.06629c-1.41032,0.27874 -2.18123,0.92354 -3.29641,1.77914c0,0 -0.50071,0.38314 -0.88384,-0.11755c-0.38312,-0.50072 0.11756,-0.88386 0.11756,-0.88386c1.26655,-0.96627 2.21282,-1.6951 3.8173,-2.01456l0.14986,-0.04383c0,0 0.6072,-0.16976 0.77697,0.43744z" fill="#7a6500"/><path d="M221.71903,134.31814c0.22851,-0.58761 0.81611,-0.35913 0.81611,-0.35913l0.31905,0.13084c1.12025,0.65375 2.24045,1.98743 3.05573,3.01932c0,0 0.39025,0.4952 -0.10493,0.88544c-0.49521,0.39026 -0.88544,-0.10493 -0.88544,-0.10493c-0.7011,-0.89213 -1.7069,-2.17975 -2.68397,-2.70101l-0.15742,-0.0544c0,0 -0.58763,-0.2285 -0.35913,-0.81611z" fill="#7a6500"/><path d="M221.35712,129.49877c-0.03096,0.62973 -0.66068,0.59878 -0.66068,0.59878l-0.11309,-0.00744c-1.07997,0.01332 -2.2069,0.54639 -3.27493,0.7747c0,0 -0.61663,0.13159 -0.74817,-0.48504c-0.13156,-0.61661 0.48505,-0.74816 0.48505,-0.74816c1.16961,-0.24909 2.31497,-0.7559 3.50319,-0.80198l0.20984,0.00845c0,0 0.62973,0.03096 0.59876,0.66067z" fill="#7a6500"/><path d="M222.14054,129.65517c0.26625,-0.57148 0.83776,-0.30524 0.83776,-0.30524l0.38079,0.17962c1.08382,0.40466 1.79383,0.96051 2.68754,1.67998c0,0 0.49105,0.39541 0.09564,0.88648c-0.39541,0.49107 -0.88648,0.09567 -0.88648,0.09567c-0.79697,-0.64188 -1.37504,-1.12407 -2.33638,-1.4803l-0.47361,-0.21844c0,0 -0.57149,-0.26628 -0.30524,-0.83777z" fill="#7a6500"/><path d="M222.33515,126.43216c0.30931,-0.54941 0.85871,-0.24009 0.85871,-0.24009l0.08251,0.10094c0.65383,0.08048 1.30736,0.13679 1.96337,0.16558c0.15026,0.44268 0.30752,0.87012 0.47124,1.27689c-0.86604,-0.01975 -1.72675,-0.0854 -2.58824,-0.19091l-0.54746,-0.25374c0,0 -0.54941,-0.30929 -0.24009,-0.85871z" fill="#7a6500"/><path d="M221.65172,125.74191c0.03402,0.62957 -0.59556,0.66356 -0.59556,0.66356l-0.33485,0.00308c-0.66025,0.18462 -1.3082,0.36491 -1.98088,0.49883c0,0 -0.61843,0.12271 -0.74111,-0.49573c-0.12268,-0.61844 0.49573,-0.74111 0.49573,-0.74111c0.64114,-0.12672 1.25753,-0.30043 1.88676,-0.47638l0.60637,-0.04781c0,0 0.62956,-0.034 0.66357,0.59556z" fill="#7a6500"/><path d="M222.6777,122.69373c0.16681,-0.60799 0.77487,-0.44117 0.77487,-0.44117l0.22092,0.06441c0.15496,0.02499 0.30703,0.04846 0.45703,0.07214c0.09588,0.44241 0.19893,0.88511 0.30875,1.32405c-0.31443,-0.05581 -0.63348,-0.09767 -0.96641,-0.1513l-0.35397,-0.09331c0,0 -0.60802,-0.16683 -0.4412,-0.77483z" fill="#7a6500"/><path d="M222.27701,123.29653c-0.03096,0.62973 -0.66067,0.59875 -0.66067,0.59875l-0.39227,-0.02315c-0.42994,-0.06987 -0.864,-0.12021 -1.29908,-0.14091c0,0 -0.32311,-0.01587 -0.49506,-0.25631c0.18921,-0.32295 0.37654,-0.65875 0.55976,-1.00296c0.4805,0.02442 0.95992,0.07935 1.435,0.15529l0.25357,0.00861c0,0 0.62973,0.03096 0.59877,0.66067z" fill="#7a6500"/><path d="M220.85273,137.64817c0.22935,0.58727 -0.35792,0.81663 -0.35792,0.81663l-0.44995,0.17487c-0.56983,0.25549 -1.14182,0.5064 -1.71773,0.74786c0,0 -0.58143,0.24376 -0.82522,-0.33767c-0.24375,-0.58145 0.33766,-0.82526 0.33766,-0.82526c0.56643,-0.23742 1.12893,-0.48421 1.68933,-0.73552l0.50716,-0.19886c0,0 0.58728,-0.22934 0.81661,0.35796z" fill="#246800"/><path d="M222.29183,137.93291c0.58935,-0.22403 0.81338,0.36528 0.81338,0.36528l0.2185,0.58208c0.06882,0.24615 0.13765,0.4923 0.20646,0.73846c0,0 0.16978,0.60721 -0.43741,0.77697c-0.60717,0.16977 -0.77697,-0.43744 -0.77697,-0.43744c-0.06882,-0.24615 -0.13767,-0.49232 -0.20648,-0.73847l-0.18277,-0.4735c0,0 -0.22405,-0.58935 0.36527,-0.81338z" fill="#246800"/><path d="M222.23065,135.256c0.39541,-0.49107 0.88649,-0.09566 0.88649,-0.09566l0.39887,0.32709c0.52736,0.54475 0.91914,1.09892 1.29469,1.75668c0,0 0.31197,0.54789 -0.23592,0.85987c-0.54788,0.31195 -0.85986,-0.23594 -0.85986,-0.23594c-0.32192,-0.56704 -0.64554,-1.03478 -1.10242,-1.50104l-0.28619,-0.22452c0,0 -0.49107,-0.39541 -0.09566,-0.88649z" fill="#246800"/><path d="M220.91284,135.57332c0.16977,0.60717 -0.43742,0.77698 -0.43742,0.77698l-0.05736,0.00841c-0.66725,0.30219 -1.2985,0.58129 -2.00455,0.78042c0,0 -0.6072,0.16976 -0.77697,-0.43744c-0.16977,-0.60717 0.43744,-0.77696 0.43744,-0.77696c0.64478,-0.1785 1.21504,-0.4389 1.82386,-0.71465l0.23806,-0.07418c0,0 0.6072,-0.16975 0.77696,0.43744z" fill="#246800"/><path d="M221.11658,133.07464c0.16977,0.60717 -0.43742,0.77698 -0.43742,0.77698l-0.23527,0.0592c-0.74835,0.09837 -1.49554,0.20409 -2.24295,0.30946c0,0 -0.62432,0.08803 -0.71235,-0.53628c-0.08803,-0.62431 0.53627,-0.71235 0.53627,-0.71235c0.75131,-0.10594 1.50235,-0.21214 2.25461,-0.31106l0.06012,-0.02337c0,0 0.60721,-0.16975 0.77697,0.43744z" fill="#246800"/><path d="M222.04914,131.35335c0.1197,-0.61903 0.7387,-0.49932 0.7387,-0.49932l0.41406,0.11304c0.91572,0.51586 1.77168,1.12253 2.68718,1.6373c0,0 0.5494,0.30931 0.24009,0.85873c-0.30931,0.54941 -0.85871,0.24009 -0.85871,0.24009c-0.91512,-0.51586 -1.77121,-1.12197 -2.68716,-1.6373l-0.03484,0.02622c0,0 -0.619,-0.11968 -0.49931,-0.73872z" fill="#246800"/><path d="M221.31238,130.73742c0.16977,0.60717 -0.43742,0.77694 -0.43742,0.77694l-0.34246,0.09383c-0.70135,0.13867 -1.37231,0.22461 -2.06197,0.4192c0,0 -0.6072,0.16976 -0.77697,-0.43744c-0.16977,-0.60717 0.43744,-0.77696 0.43744,-0.77696c0.72333,-0.20058 1.42305,-0.29572 2.15611,-0.44167l0.24831,-0.07137c0,0 0.6072,-0.16975 0.77696,0.43744z" fill="#246800"/><path d="M222.20233,128.80484c0.30931,-0.54941 0.85872,-0.24009 0.85872,-0.24009l0.36811,0.21084c0.37748,0.26533 0.76089,0.52254 1.15057,0.76965c0,0 0.53236,0.33774 0.19461,0.87012c-0.33775,0.53238 -0.87012,0.19464 -0.87012,0.19464c-0.40627,-0.25786 -0.80612,-0.52606 -1.19991,-0.80259l-0.26185,-0.14383c0,0 -0.54938,-0.30928 -0.24007,-0.85869z" fill="#246800"/><path d="M221.47483,128.09104c0.16977,0.60717 -0.43744,0.77697 -0.43744,0.77697l-0.14555,0.03878c-0.67701,0.13221 -1.23029,0.35129 -1.86512,0.62381c0,0 -0.57942,0.24853 -0.82796,-0.33089c-0.24852,-0.57942 0.33089,-0.82795 0.33089,-0.82795c0.71293,-0.30552 1.35615,-0.54886 2.11681,-0.70186l0.05139,-0.0163c0,0 0.6072,-0.16976 0.77697,0.43744z" fill="#246800"/><path d="M222.30812,125.00653c0.30931,-0.54941 0.8587,-0.2401 0.8587,-0.2401l0.24779,0.1439c0.56173,0.40691 0.9485,0.57767 1.56365,0.74037c0.13283,0.43024 0.27212,0.84993 0.4174,1.2546c-0.21172,0.0955 -0.43953,0.03982 -0.43953,0.03982c-0.91961,-0.22852 -1.51333,-0.46485 -2.27768,-1.01104l-0.1302,-0.06889c0,0 -0.54941,-0.30929 -0.2401,-0.8587z" fill="#246800"/><path d="M222.45048,123.42737c0.30931,-0.54941 0.85871,-0.24009 0.85871,-0.24009l0.11636,0.08517c0.4084,0.11763 0.69124,0.27262 0.98746,0.33489c0.10488,0.4239 0.21609,0.8446 0.33322,1.25837c-0.55934,0.01065 -0.946,-0.17552 -1.66795,-0.38106l-0.38765,-0.19858c0,0 -0.54941,-0.30931 -0.2401,-0.8587z" fill="#246800"/><path d="M222.87254,122.03815c-0.05424,0.62812 -0.68241,0.5739 -0.68241,0.5739l-0.29287,-0.04139c-0.25533,0.03602 -0.51066,0.07202 -0.766,0.10801c0,0 -0.62432,0.08804 -0.71235,-0.53627c-0.08803,-0.62431 0.53626,-0.71237 0.53626,-0.71237c0.25533,-0.03602 0.51066,-0.07199 0.76601,-0.10801l0.57745,0.03373c0,0 0.62812,0.05423 0.57391,0.68238z" fill="#246800"/><path d="M222.44901,127.27892c0.21477,-0.59278 0.80755,-0.37799 0.80755,-0.37799l0.44542,0.16238c0.6164,0.26284 1.23622,0.46075 1.87727,0.65486c0,0 0.06937,0.02099 0.15392,0.07229c0.09188,0.22646 0.18576,0.44637 0.28155,0.65878c-0.00421,0.01798 -0.00914,0.03633 -0.01481,0.0551c-0.18276,0.6034 -0.78617,0.42067 -0.78617,0.42067c-0.68437,-0.20734 -1.34664,-0.42187 -2.00523,-0.70128l-0.38147,-0.13725c0,0 -0.59278,-0.21477 -0.37799,-0.80755z" fill="#693d00"/><path d="M222.63268,121.98683c0.03096,-0.62973 0.66067,-0.59876 0.66067,-0.59876l0.25021,0.01864c0.1321,0.02601 0.26508,0.04831 0.39864,0.06698c0.08392,0.43079 0.17502,0.86456 0.27293,1.29756c-0.3056,-0.02711 -0.61,-0.06925 -0.91094,-0.12653l-0.07272,0.00276c0,0 -0.62973,-0.03096 -0.59878,-0.66069z" fill="#693d00"/></g><g data-paper-data="{&quot;index&quot;:null}" stroke="none" stroke-width="0.5" stroke-linecap="butt"><path d="M216.73631,119.58317c0.13416,0.61604 -0.48184,0.75019 -0.48184,0.75019l0.05148,-0.11209c-0.7985,0.79179 -1.63721,1.58294 -2.29633,2.49406c-2.60194,3.57072 -4.71548,7.4801 -7.1857,10.97949c0,0 -0.37129,0.50954 -0.88085,0.13825c-0.50954,-0.37129 -0.13825,-0.88085 -0.13825,-0.88085c2.5275,-3.31302 4.63545,-7.47967 7.18569,-10.9795c0.70638,-0.96349 1.57935,-1.80578 2.42757,-2.64686l0.56804,-0.22459c0,0 0.61604,-0.13416 0.75021,0.48187z" fill="#7a6a5e"/><path d="M207.26045,131.88368c-0.15549,0.61099 -0.76649,0.45549 -0.76649,0.45549c-0.21467,-0.05463 -0.92478,-0.23535 -1.13945,-0.28998c0,0 -0.18565,-0.04725 -0.32624,-0.19201c-0.94694,-0.19831 -2.0767,-0.42889 -2.82044,0.06219c0,0 -0.54199,0.3221 -0.86407,-0.2199c-0.32209,-0.542 0.2199,-0.86407 0.2199,-0.86407c1.32857,-0.74011 2.84199,-0.35157 4.28632,-0.10003l0.39411,0.09839c0,0 0.2201,0.05602 0.36249,0.23292l0.1984,0.05048c0,0 0.611,0.1555 0.4555,0.76651z" fill="#7a0c00"/><path d="M207.42595,132.26177c0.57426,-0.26027 0.83453,0.31399 0.83453,0.31399l0.14296,0.31619c0.5478,1.32406 0.60209,2.28698 0.25063,3.67186c0,0 -0.15552,0.61102 -0.76652,0.45551c-0.61101,-0.1555 -0.45549,-0.7665 -0.45549,-0.7665c0.2887,-1.13091 0.26052,-1.79383 -0.19281,-2.87646l-0.12729,-0.28007c0,0 -0.26025,-0.57427 0.31398,-0.83453z" fill="#7a0c00"/><path d="M209.67063,127.80235c-0.15549,0.61099 -0.7665,0.45549 -0.7665,0.45549l-0.14863,-0.03783c-1.0484,-0.26684 -2.09243,-0.56482 -3.17991,-0.56494c0,0 -0.63048,-0.00265 -0.62779,-0.63313c0.00266,-0.63048 0.63315,-0.62782 0.63315,-0.62782c1.19632,0.00922 2.33172,0.31028 3.48557,0.6039l0.14862,0.03782c0,0 0.61102,0.1555 0.45552,0.76651z" fill="#7a0c00"/><path d="M210.09647,128.19395c0.57426,-0.26027 0.8345,0.31398 0.8345,0.31398l0.13512,0.29814c0.51677,1.14025 1.06137,2.12375 1.36618,3.20106c-0.37448,0.77971 -0.72441,1.55359 -1.03809,2.30726c-0.00667,-0.07129 -0.002,-0.11977 -0.002,-0.11977c0.18876,-1.90978 -0.7175,-3.19761 -1.47459,-4.86801l-0.1351,-0.29813c0,0 -0.26024,-0.57426 0.31401,-0.83452z" fill="#7a0c00"/><path d="M212.31246,124.1078c-0.35493,0.52108 -0.876,0.16613 -0.876,0.16613l-0.38617,-0.27766c-1.10924,-0.47527 -2.23104,-0.62361 -3.41892,-0.76276c0,0 -0.42835,-0.0502 -0.53497,-0.42182c0.34711,-0.23337 0.71438,-0.49583 1.09375,-0.78061c1.15741,0.14615 2.25783,0.34237 3.35336,0.80466l0.60286,0.39603c0,0 0.52108,0.35494 0.16615,0.87601z" fill="#7a0c00"/><path d="M212.45653,124.30611c0.542,-0.32209 0.86411,0.21993 0.86411,0.21993l0.29544,0.4972c0.51509,0.86907 0.86262,1.65526 1.17663,2.50554c-0.27545,0.48403 -0.55004,0.97725 -0.82058,1.47574c-0.40653,-1.23362 -0.74415,-2.16946 -1.44005,-3.33711l-0.29547,-0.49719c0,0 -0.32211,-0.54201 0.21991,-0.86409z" fill="#7a0c00"/><path d="M213.85631,122.16289c-0.51061,0.36986 -0.88044,-0.14076 -0.88044,-0.14076l-0.20871,-0.29049c-0.52444,-0.63336 -1.13385,-1.1352 -1.79794,-1.55592c0.40343,-0.1947 0.82574,-0.41732 1.25715,-0.66169c0.54723,0.4016 1.05506,0.86413 1.51106,1.41225l0.25969,0.35619c0,0 0.36984,0.51059 -0.14077,0.88044z" fill="#7a0c00"/><path d="M214.41366,121.68562c0.46831,-0.4221 0.89043,0.04618 0.89043,0.04618l0.09729,0.1096c0.35002,0.34439 0.65116,0.69612 0.93204,1.05532c-0.14126,0.53587 -0.2693,1.06865 -0.38096,1.59127c-0.43147,-0.60421 -0.86072,-1.18226 -1.43546,-1.74776l-0.14953,-0.16422c0,0 -0.42212,-0.46832 0.04618,-0.89043z" fill="#7a0c00"/><path d="M215.85846,119.59291c-0.41234,0.47695 -0.8893,0.06461 -0.8893,0.06461l-0.17295,-0.14951c-0.37953,-0.32819 -0.72021,-0.62176 -1.11621,-0.87742c0.37384,-0.24222 0.74649,-0.49517 1.11183,-0.75497c0.27885,0.20891 0.54708,0.43477 0.82906,0.67848l0.17296,0.14955c0,0 0.47693,0.41231 0.06462,0.88927z" fill="#7a0c00"/><path d="M208.37365,129.58223c-0.15549,0.61099 -0.76651,0.45552 -0.76651,0.45552l-0.24457,-0.06417c-1.36159,-0.46138 -2.35126,-0.28667 -3.74454,-0.10086c0,0 -0.62505,0.08258 -0.70759,-0.54248c-0.08254,-0.62507 0.54249,-0.7076 0.54249,-0.7076c1.57963,-0.20634 2.76328,-0.36646 4.31344,0.15641l0.15177,0.0367c0,0 0.61102,0.15551 0.45551,0.7665z" fill="#7a6500"/><path d="M208.88763,130.00845c0.49102,-0.39551 0.8865,0.09549 0.8865,0.09549l0.21134,0.27247c0.64528,1.12516 0.95155,2.83972 1.14393,4.14068c0,0 0.09146,0.6238 -0.53234,0.71526c-0.6238,0.09146 -0.71528,-0.53236 -0.71528,-0.53236c-0.16306,-1.12287 -0.39314,-2.74046 -0.98033,-3.67938l-0.10933,-0.12563c0,0 -0.39553,-0.49099 0.0955,-0.8865z" fill="#7a6500"/><path d="M210.97622,125.65013c-0.34074,0.53044 -0.8712,0.18973 -0.8712,0.18973l-0.09431,-0.06282c-0.94288,-0.5268 -2.18554,-0.62643 -3.22521,-0.96091c0,0 -0.60014,-0.19332 -0.40682,-0.7934c0.19333,-0.6001 0.79344,-0.4068 0.79344,-0.4068c1.13811,0.3671 2.38364,0.49868 3.43671,1.05104l0.1777,0.11192c0,0 0.53047,0.34076 0.18971,0.87123z" fill="#7a6500"/><path d="M211.57741,126.17624c0.51567,-0.36271 0.87842,0.15298 0.87842,0.15298l0.24056,0.34554c0.73786,0.89105 1.0763,1.72684 1.49238,2.79604c0,0 0.22859,0.58758 -0.35899,0.81619c-0.58759,0.22861 -0.81619,-0.35898 -0.81619,-0.35898c-0.37094,-0.9537 -0.63169,-1.65987 -1.2875,-2.4479l-0.30169,-0.42547c0,0 -0.3627,-0.51568 0.15301,-0.87841z" fill="#7a6500"/><path d="M213.35274,123.47921c0.542,-0.32209 0.8641,0.21989 0.8641,0.21989l0.02119,0.12863c0.52668,0.3957 1.06516,0.7703 1.61949,1.12227c-0.0904,0.45864 -0.16713,0.9076 -0.22799,1.34184c-0.74092,-0.44883 -1.45434,-0.93482 -2.1486,-1.45569l-0.34812,-0.49286c0,0 -0.32212,-0.54199 0.2199,-0.86407z" fill="#7a6500"/><path d="M213.10434,122.54017c-0.28434,0.56273 -0.84705,0.27836 -0.84705,0.27836l-0.29181,-0.16426c-0.66441,-0.16909 -1.31595,-0.33575 -1.96588,-0.55498c0,0 -0.5973,-0.20191 -0.39537,-0.7992c0.20191,-0.59727 0.79918,-0.39535 0.79918,-0.39535c0.61898,0.20973 1.23992,0.36641 1.87308,0.52754l0.5495,0.26082c0,0 0.56272,0.28436 0.27837,0.84706z" fill="#7a6500"/><path d="M215.51322,120.40912c0.4477,-0.44393 0.89165,0.00381 0.89165,0.00381l0.15939,0.16594c0.12188,0.09893 0.242,0.19509 0.36027,0.29039c-0.13741,0.4313 -0.26878,0.86648 -0.39237,1.30174c-0.24477,-0.20509 -0.50048,-0.40045 -0.76236,-0.6129l-0.26036,-0.25735c0,0 -0.44393,-0.4477 0.00378,-0.89163z" fill="#7a6500"/><path d="M214.86538,120.73194c-0.34074,0.53044 -0.87125,0.18974 -0.87125,0.18974l-0.32851,-0.2156c-0.33787,-0.27491 -0.68908,-0.53491 -1.05593,-0.76974c0,0 -0.2722,-0.17482 -0.3014,-0.46898c0.32499,-0.18569 0.65479,-0.38336 0.98523,-0.59045c0.40441,0.26067 0.79257,0.5473 1.16656,0.84998l0.21553,0.13385c0,0 0.53047,0.34075 0.18976,0.87121z" fill="#7a6500"/><path d="M206.47664,132.46344c-0.09393,0.62346 -0.71734,0.5295 -0.71734,0.5295l-0.47724,-0.07268c-0.62135,-0.06257 -1.24226,-0.1302 -1.86189,-0.20792c0,0 -0.62557,-0.07849 -0.54704,-0.70408c0.07853,-0.62559 0.70408,-0.54708 0.70408,-0.54708c0.60937,0.07654 1.22005,0.14297 1.83115,0.20446l0.53879,0.08041c0,0 0.62344,0.09392 0.5295,0.71738z" fill="#246800"/><path d="M207.58226,133.42763c0.62257,0.09954 0.52304,0.72212 0.52304,0.72212l-0.10072,0.61353c-0.06304,0.24769 -0.12609,0.49541 -0.18912,0.7431c0,0 -0.1555,0.611 -0.7665,0.45549c-0.61101,-0.1555 -0.45551,-0.76651 -0.45551,-0.76651c0.06304,-0.24769 0.12609,-0.49541 0.18912,-0.7431l0.07757,-0.50159c0,0 0.09955,-0.62257 0.72212,-0.52304z" fill="#246800"/><path d="M208.86362,131.07654c0.58759,-0.22861 0.81617,0.35896 0.81617,0.35896l0.18274,0.48237c0.18563,0.73512 0.24902,1.41083 0.24667,2.16825c0,0 -0.00266,0.63048 -0.63313,0.62779c-0.63048,-0.00266 -0.62778,-0.63316 -0.62778,-0.63316c0.00359,-0.65206 -0.04381,-1.21881 -0.20746,-1.8508l-0.13615,-0.33728c0,0 -0.22861,-0.58758 0.35899,-0.81618z" fill="#246800"/><path d="M207.56303,130.69468c-0.15549,0.61099 -0.76651,0.45552 -0.76651,0.45552l-0.05392,-0.02129c-0.72907,-0.07062 -1.41544,-0.14337 -2.12677,-0.3227c0,0 -0.61103,-0.15551 -0.45551,-0.7665c0.15549,-0.61099 0.76651,-0.45551 0.76651,-0.45551c0.64796,0.16666 1.27208,0.22521 1.93734,0.28962l0.24335,0.05437c0,0 0.61102,0.15551 0.45551,0.7665z" fill="#246800"/><path d="M208.98518,128.63015c-0.15549,0.61099 -0.76651,0.45551 -0.76651,0.45551l-0.23345,-0.06597c-0.69783,-0.28775 -1.39822,-0.56857 -2.09868,-0.84978c0,0 -0.58509,-0.23488 -0.3502,-0.81998c0.23488,-0.58509 0.82,-0.3502 0.82,-0.3502c0.70409,0.28269 1.40812,0.56501 2.10956,0.85423l0.06378,0.00971c0,0 0.611,0.1555 0.45549,0.76649z" fill="#246800"/><path d="M210.65167,127.60282c0.41234,-0.47695 0.88929,-0.0646 0.88929,-0.0646l0.30261,0.30437c0.53668,0.90367 0.97631,1.8563 1.51335,2.7589c0,0 0.32209,0.542 -0.21992,0.86408c-0.542,0.32209 -0.86409,-0.21991 -0.86409,-0.21991c-0.5362,-0.90335 -0.97619,-1.85556 -1.51335,-2.7589l-0.04326,0.00536c0,0 -0.47694,-0.41234 -0.0646,-0.88929z" fill="#246800"/><path d="M210.32,126.70164c-0.15549,0.61099 -0.76649,0.45549 -0.76649,0.45549l-0.34366,-0.08937c-0.67712,-0.22938 -1.30162,-0.48937 -1.99648,-0.66443c0,0 -0.611,-0.1555 -0.45549,-0.7665c0.15549,-0.61099 0.7665,-0.45549 0.7665,-0.45549c0.72705,0.18665 1.38105,0.45305 2.08928,0.69187l0.25083,0.06191c0,0 0.61102,0.15552 0.45551,0.76651z" fill="#246800"/><path d="M212.05485,125.46988c0.542,-0.32209 0.8641,0.21989 0.8641,0.21989l0.21401,0.36627c0.19499,0.41819 0.39915,0.83227 0.61379,1.24074c0,0 0.29315,0.55817 -0.26504,0.85134c-0.55818,0.29316 -0.85134,-0.26504 -0.85134,-0.26504c-0.22366,-0.42608 -0.43661,-0.85788 -0.64013,-1.29389l-0.1553,-0.25523c0,0 -0.32212,-0.54199 0.2199,-0.86407z" fill="#246800"/><path d="M211.78001,124.48846c-0.15549,0.61099 -0.76651,0.45551 -0.76651,0.45551l-0.14552,-0.03892c-0.65279,-0.22287 -1.24164,-0.30876 -1.92784,-0.38895c0,0 -0.62619,-0.07336 -0.55282,-0.69957c0.07336,-0.62619 0.69958,-0.55282 0.69958,-0.55282c0.77034,0.09053 1.44925,0.2002 2.18492,0.44675l0.0527,0.01148c0,0 0.611,0.1555 0.45549,0.76649z" fill="#246800"/><path d="M214.03993,122.22987c0.542,-0.32209 0.86409,0.21991 0.86409,0.21991l0.14306,0.24824c0.28416,0.63276 0.53429,0.9736 0.98647,1.42129c-0.09932,0.43921 -0.18776,0.87247 -0.26355,1.29567c-0.23114,-0.02274 -0.4009,-0.1846 -0.4009,-0.1846c-0.6833,-0.6565 -1.08019,-1.15733 -1.47055,-2.01186l-0.07852,-0.12463c0,0 -0.32212,-0.54199 0.2199,-0.86407z" fill="#246800"/><path d="M214.95055,120.93186c0.542,-0.32209 0.86408,0.21992 0.86408,0.21992l0.05838,0.13181c0.29538,0.30556 0.46336,0.58091 0.68908,0.78258c-0.12042,0.41977 -0.23369,0.83988 -0.3384,1.25696c-0.4902,-0.26957 -0.7326,-0.62372 -1.25599,-1.1618l-0.23707,-0.36536c0,0 -0.32208,-0.542 0.21991,-0.86409z" fill="#246800"/><path d="M216.00892,119.93795c-0.36014,0.5175 -0.87764,0.15737 -0.87764,0.15737l-0.23326,-0.1819c-0.23932,-0.09606 -0.47859,-0.19213 -0.7179,-0.2882c0,0 -0.5851,-0.2349 -0.35019,-0.81997c0.23488,-0.58509 0.81999,-0.35023 0.81999,-0.35023c0.23932,0.09606 0.47859,0.19213 0.7179,0.2882l0.48377,0.3171c0,0 0.5175,0.36013 0.15736,0.87763z" fill="#246800"/><path d="M213.02936,124.27003c0.48169,-0.40681 0.88851,0.07485 0.88851,0.07485l0.30516,0.3628c0.40333,0.53514 0.842,1.01565 1.30097,1.50349c0,0 0.04965,0.05277 0.09741,0.13939c-0.03322,0.24212 -0.06148,0.47956 -0.08434,0.71143c-0.01261,0.01346 -0.02604,0.02694 -0.04032,0.04037c-0.45922,0.43199 -0.89121,-0.02722 -0.89121,-0.02722c-0.48995,-0.52087 -0.95708,-1.03702 -1.38875,-1.60751l-0.26229,-0.30913c0,0 -0.40682,-0.48167 0.07484,-0.88848z" fill="#693d00"/><path d="M215.82658,119.77386c0.34074,-0.53044 0.8712,-0.18973 0.8712,-0.18973l0.20761,0.14088c0.10156,0.08841 0.20569,0.17404 0.31219,0.2568c-0.14198,0.41527 -0.27924,0.83676 -0.41021,1.2609c-0.25142,-0.17583 -0.4943,-0.36412 -0.72663,-0.56378l-0.06443,-0.03385c0,0 -0.53047,-0.34076 -0.18972,-0.87123z" fill="#693d00"/></g><g stroke="none" stroke-width="0.5" stroke-linecap="butt"><path d="M208.36977,114.96083c-0.00526,0.63046 -0.63573,0.62519 -0.63573,0.62519l0.07498,-0.09793c-0.9537,0.59579 -1.94649,1.18209 -2.79063,1.92504c-3.32655,2.90758 -6.25167,6.25335 -9.434,9.1205c0,0 -0.47468,0.41491 -0.88964,-0.05981c-0.41493,-0.47469 0.05976,-0.88961 0.05976,-0.88961c3.19702,-2.67269 6.1735,-6.27066 9.43401,-9.12049c0.90179,-0.78358 1.93932,-1.41219 2.95241,-2.04507l0.60362,-0.09352c0,0 0.63045,0.00527 0.6252,0.63571z" fill="#7a6a5e"/><path d="M196.41032,124.86365c-0.28666,0.56155 -0.84821,0.27489 -0.84821,0.27489c-0.1973,-0.10071 -0.8499,-0.43384 -1.0472,-0.53458c0,0 -0.17062,-0.08711 -0.27574,-0.25933c-0.87969,-0.40263 -1.93065,-0.87711 -2.76447,-0.5625c0,0 -0.59976,0.19437 -0.79414,-0.40541c-0.19439,-0.59976 0.40539,-0.79414 0.40539,-0.79414c1.45924,-0.42827 2.84943,0.28506 4.20246,0.84951l0.36263,0.18303c0,0 0.20231,0.10328 0.30209,0.30725l0.18231,0.09308c0,0 0.56155,0.28666 0.27489,0.84821z" fill="#7a0c00"/><path d="M196.4882,125.26897c0.61757,-0.12694 0.74452,0.4906 0.74452,0.4906l0.06957,0.33995c0.2417,1.41239 0.0819,2.36349 -0.56686,3.63649c0,0 -0.28665,0.56155 -0.8482,0.2749c-0.56156,-0.28665 -0.27491,-0.8482 -0.27491,-0.8482c0.53141,-1.03919 0.65045,-1.69194 0.4475,-2.84797l-0.06226,-0.30128c0,0 -0.12695,-0.61754 0.49062,-0.7445z" fill="#7a0c00"/><path d="M199.66269,121.41572c-0.28666,0.56155 -0.84819,0.27488 -0.84819,0.27488l-0.13658,-0.06971c-0.96355,-0.49186 -1.91592,-1.01319 -2.97648,-1.25358c0,0 -0.6143,-0.1419 -0.47241,-0.75621c0.14192,-0.6143 0.7562,-0.4724 0.7562,-0.4724c1.16473,0.27331 2.20555,0.81776 3.26599,1.35911l0.13661,0.06972c0,0 0.56153,0.28664 0.27488,0.8482z" fill="#7a0c00"/><path d="M199.99149,121.89174c0.61757,-0.12694 0.74452,0.49059 0.74452,0.49059l0.06591,0.32064c0.25205,1.22626 0.56593,2.30574 0.62515,3.42378c-0.53751,0.6777 -1.04975,1.35512 -1.52226,2.02085c0.00922,-0.07099 0.02452,-0.11725 0.02452,-0.11725c0.60607,-1.82088 0.00675,-3.27711 -0.36258,-5.07349l-0.0659,-0.32063c0,0 -0.12695,-0.61756 0.49061,-0.74451z" fill="#7a0c00"/><path d="M203.05552,118.3962c-0.46129,0.42976 -0.89106,-0.03151 -0.89106,-0.03151l-0.31528,-0.35616c-0.97682,-0.70862 -2.03812,-1.10114 -3.16592,-1.49932c0,0 -0.40666,-0.14358 -0.42856,-0.52958c0.39009,-0.15091 0.80629,-0.32573 1.2392,-0.51964c1.09651,0.39827 2.12639,0.83277 3.09268,1.52567l0.50047,0.51945c0,0 0.42977,0.46128 -0.03154,0.89107z" fill="#7a0c00"/><path d="M203.15223,118.62144c0.59976,-0.19439 0.79415,0.40538 0.79415,0.40538l0.17829,0.5502c0.31038,0.96142 0.4756,1.80496 0.59397,2.70361c-0.3756,0.41121 -0.75237,0.83156 -1.12637,1.25796c-0.12393,-1.29296 -0.24643,-2.28024 -0.66712,-3.57282l-0.17829,-0.5502c0,0 -0.19438,-0.59977 0.40538,-0.79414z" fill="#7a0c00"/><path d="M204.99095,116.84048c-0.57972,0.24787 -0.8276,-0.33184 -0.8276,-0.33184l-0.13937,-0.32946c-0.37153,-0.73358 -0.85499,-1.35764 -1.40971,-1.91469c0.4365,-0.10074 0.89753,-0.22458 1.37226,-0.36758c0.44498,0.5126 0.83807,1.0759 1.16169,1.71122l0.17455,0.40478c0,0 0.24789,0.57969 -0.33182,0.82759z" fill="#7a0c00"/><path d="M205.63996,116.49814c0.54999,-0.3082 0.85823,0.24179 0.85823,0.24179l0.07067,0.1284c0.26527,0.41322 0.48126,0.82277 0.67583,1.23518c-0.25615,0.49143 -0.49873,0.98275 -0.72313,1.46778c-0.28733,-0.68459 -0.57822,-1.34322 -1.01381,-2.02172l-0.10956,-0.19317c0,0 -0.30822,-0.55001 0.24179,-0.85824z" fill="#7a0c00"/><path d="M207.51145,114.77638c-0.50753,0.37405 -0.8816,-0.13348 -0.8816,-0.13348l-0.13562,-0.18402c-0.29766,-0.40392 -0.56505,-0.76551 -0.89474,-1.10237c0.41813,-0.15363 0.83743,-0.31799 1.25117,-0.49065c0.22582,0.26536 0.43749,0.54491 0.65864,0.8449l0.13565,0.18403c0,0 0.37407,0.50754 -0.13347,0.88157z" fill="#7a0c00"/><path d="M198.0045,122.86506c-0.28666,0.56155 -0.8482,0.27487 -0.8482,0.27487l-0.22434,-0.11658c-1.22597,-0.7508 -2.22984,-0.7991 -3.6297,-0.92571c0,0 -0.62783,-0.0576 -0.57024,-0.68542c0.05761,-0.62784 0.68544,-0.57026 0.68544,-0.57026c1.58621,0.1478 2.77593,0.25317 4.17226,1.1056l0.1399,0.06932c0,0 0.56155,0.28665 0.2749,0.8482z" fill="#7a6500"/><path d="M198.41159,123.39429c0.56626,-0.27722 0.84352,0.28902 0.84352,0.28902l0.1459,0.31243c0.3807,1.23996 0.30062,2.97978 0.20079,4.29108c0,0 -0.04862,0.6286 -0.67721,0.57998c-0.6286,-0.04862 -0.57998,-0.67724 -0.57998,-0.67724c0.08906,-1.13117 0.22207,-2.75963 -0.14313,-3.80509l-0.07887,-0.14668c0,0 -0.27725,-0.56627 0.289,-0.8435z" fill="#7a6500"/><path d="M201.41157,119.60515c-0.44952,0.4421 -0.89162,-0.00745 -0.89162,-0.00745l-0.07812,-0.08211c-0.80316,-0.72208 -1.99311,-1.09382 -2.9332,-1.64975c0,0 -0.54257,-0.32113 -0.22145,-0.86369c0.32112,-0.54256 0.86372,-0.22145 0.86372,-0.22145c1.02887,0.60948 2.21454,1.01302 3.11952,1.7844l0.14857,0.14842c0,0 0.44207,0.44951 -0.00744,0.89159z" fill="#7a6500"/><path d="M201.88163,120.2511c0.5831,-0.2398 0.8229,0.34328 0.8229,0.34328l0.15827,0.39016c0.52274,1.03207 0.66814,1.92197 0.8377,3.05668c0,0 0.09314,0.62359 -0.53042,0.71671c-0.62356,0.09312 -0.71671,-0.53044 -0.71671,-0.53044c-0.15107,-1.01213 -0.24932,-1.7584 -0.71482,-2.67186l-0.20023,-0.48163c0,0 -0.23982,-0.58311 0.34327,-0.8229z" fill="#7a6500"/><path d="M204.20899,118.01298c0.59976,-0.19439 0.79414,0.40539 0.79414,0.40539l-0.00774,0.13014c0.42622,0.50226 0.86865,0.98661 1.33152,1.45234c-0.18949,0.42735 -0.36354,0.84826 -0.51884,1.25827c-0.62349,-0.60144 -1.21186,-1.23306 -1.77386,-1.89444l-0.23063,-0.55759c0,0 -0.19439,-0.59976 0.40541,-0.79413z" fill="#7a6500"/><path d="M204.17423,117.04227c-0.40163,0.48598 -0.88765,0.08435 -0.88765,0.08435l-0.2483,-0.22469c-0.61064,-0.31172 -1.20926,-0.61825 -1.79469,-0.97563c0,0 -0.53791,-0.32887 -0.20905,-0.86679c0.32887,-0.53792 0.86681,-0.20901 0.86681,-0.20901c0.55735,0.34131 1.12831,0.63128 1.71023,0.92834l0.47829,0.37579c0,0 0.486,0.40164 0.08435,0.88765z" fill="#7a6500"/><path d="M206.99441,115.49613c0.53471,-0.33403 0.86874,0.2007 0.86874,0.2007l0.11879,0.1971c0.097,0.12338 0.19293,0.24368 0.28722,0.36276c-0.22929,0.39029 -0.45357,0.7857 -0.67027,1.18289c-0.19341,-0.25411 -0.39964,-0.50115 -0.60811,-0.76622l-0.19703,-0.30849c0,0 -0.33403,-0.53473 0.20069,-0.86877z" fill="#7a6500"/><path d="M206.29125,115.66784c-0.44952,0.4421 -0.89161,-0.00745 -0.89161,-0.00745l-0.27278,-0.28284c-0.26876,-0.34277 -0.55386,-0.67397 -0.85978,-0.98403c0,0 -0.2268,-0.23063 -0.1903,-0.52398c0.358,-0.10928 0.7233,-0.22922 1.09133,-0.35818c0.33678,0.3436 0.65207,0.70888 0.94996,1.08671l0.18063,0.17816c0,0 0.44207,0.44951 -0.00746,0.89161z" fill="#7a6500"/><path d="M195.51779,125.25594c-0.22936,0.58728 -0.81666,0.35793 -0.81666,0.35793l-0.44938,-0.17633c-0.59217,-0.19829 -1.18279,-0.40144 -1.76991,-0.61416c0,0 -0.59277,-0.21479 -0.37798,-0.80756c0.21479,-0.59277 0.80756,-0.37797 0.80756,-0.37797c0.57741,0.20927 1.15829,0.40901 1.74071,0.60398l0.50772,0.19746c0,0 0.58728,0.22939 0.35793,0.81665z" fill="#246800"/><path d="M196.38304,126.44058c0.5852,0.23463 0.35055,0.81983 0.35055,0.81983l-0.23379,0.57611c-0.1162,0.22765 -0.23242,0.45532 -0.34865,0.68296c0,0 -0.28664,0.56152 -0.8482,0.27487c-0.56156,-0.28665 -0.2749,-0.8482 -0.2749,-0.8482c0.1162,-0.22765 0.23244,-0.45533 0.34864,-0.68294l0.18649,-0.47207c0,0 0.23466,-0.58518 0.81984,-0.35056z" fill="#246800"/><path d="M198.1522,124.43068c0.62356,-0.09312 0.71671,0.53044 0.71671,0.53044l0.07162,0.51081c0.01862,0.75794 -0.06886,1.43098 -0.23848,2.16917c0,0 -0.14189,0.61431 -0.7562,0.47242c-0.6143,-0.14192 -0.47241,-0.75621 -0.47241,-0.75621c0.14755,-0.63515 0.22658,-1.19841 0.20661,-1.85088l-0.05827,-0.35905c0,0 -0.09312,-0.62356 0.53044,-0.71668z" fill="#246800"/><path d="M196.96814,123.77093c-0.28666,0.56155 -0.84821,0.27489 -0.84821,0.27489l-0.04788,-0.03267c-0.69546,-0.22995 -1.34881,-0.45256 -2.00292,-0.78462c0,0 -0.56153,-0.28665 -0.27487,-0.8482c0.28666,-0.56155 0.8482,-0.27487 0.8482,-0.27487c0.59511,0.30573 1.19089,0.50069 1.82546,0.71051l0.22533,0.10679c0,0 0.56155,0.28666 0.27489,0.84821z" fill="#246800"/><path d="M198.81131,122.07161c-0.28666,0.56155 -0.8482,0.27491 -0.8482,0.27491l-0.21315,-0.1159c-0.61698,-0.43481 -1.23805,-0.86345 -1.85905,-1.29249c0,0 -0.51874,-0.35837 -0.16038,-0.8771c0.35836,-0.51874 0.8771,-0.16039 0.8771,-0.16039c0.62425,0.43126 1.24853,0.86217 1.86875,1.29922l0.06006,0.02355c0,0 0.56155,0.28665 0.27489,0.84821z" fill="#246800"/><path d="M200.66357,121.43788c0.50753,-0.37405 0.88158,0.13347 0.88158,0.13347l0.22788,0.36372c0.32377,0.9999 0.542,2.0261 0.86637,3.02506c0,0 0.19437,0.5998 -0.40539,0.79417c-0.59976,0.19439 -0.79413,-0.40541 -0.79413,-0.40541c-0.32335,-0.9995 -0.54208,-2.02538 -0.86637,-3.02506l-0.04337,-0.00436c0,0 -0.37405,-0.50753 0.13346,-0.88157z" fill="#246800"/><path d="M200.53922,120.48566c-0.28666,0.56155 -0.8482,0.2749 -0.8482,0.2749l-0.31541,-0.16308c-0.6097,-0.37333 -1.16134,-0.76487 -1.80034,-1.08913c0,0 -0.56156,-0.28666 -0.2749,-0.84821c0.28666,-0.56155 0.84821,-0.27489 0.84821,-0.27489c0.66784,0.3427 1.24683,0.747 1.8848,1.13641l0.23095,0.1158c0,0 0.56155,0.28665 0.27489,0.84821z" fill="#246800"/><path d="M202.50336,119.66768c0.59976,-0.19439 0.79415,0.40538 0.79415,0.40538l0.12781,0.4045c0.09774,0.45094 0.20538,0.89989 0.32447,1.34565c0,0 0.16259,0.60918 -0.44658,0.77173c-0.60917,0.16256 -0.77174,-0.44658 -0.77174,-0.44658c-0.12397,-0.46497 -0.23624,-0.93313 -0.33844,-1.40335l-0.0951,-0.28321c0,0 -0.19437,-0.59979 0.40539,-0.79417z" fill="#246800"/><path d="M202.45213,118.64979c-0.28666,0.56155 -0.8482,0.2749 -0.8482,0.2749l-0.1333,-0.07011c-0.58743,-0.3616 -1.14277,-0.57549 -1.79428,-0.80528c0,0 -0.5945,-0.20991 -0.38457,-0.80441c0.20993,-0.59449 0.80441,-0.38459 0.80441,-0.38459c0.73132,0.25849 1.36918,0.51547 2.03221,0.91849l0.04885,0.02285c0,0 0.56154,0.28664 0.27488,0.84819z" fill="#246800"/><path d="M205.15526,116.94635c0.59976,-0.19439 0.79414,0.40538 0.79414,0.40538l0.08464,0.27373c0.13732,0.67993 0.306,1.06761 0.64806,1.60412c-0.19391,0.40639 -0.37587,0.80942 -0.5433,1.20547c-0.22042,-0.07325 -0.35022,-0.26863 -0.35022,-0.26863c-0.52138,-0.79125 -0.79775,-1.36738 -0.98966,-2.28701l-0.04906,-0.13888c0,0 -0.19437,-0.59978 0.40539,-0.79417z" fill="#246800"/><path d="M206.33013,115.88164c0.59976,-0.19439 0.79415,0.40538 0.79415,0.40538l0.02782,0.14147c0.22057,0.3633 0.32356,0.66894 0.49916,0.91547c-0.21015,0.38279 -0.41348,0.76749 -0.60778,1.15115c-0.41853,-0.37123 -0.57669,-0.77014 -0.96827,-1.41059l-0.15049,-0.40874c0,0 -0.19438,-0.59975 0.40538,-0.79414z" fill="#246800"/><path d="M207.58196,115.14614c-0.46559,0.42514 -0.89073,-0.04046 -0.89073,-0.04046l-0.18727,-0.22894c-0.21217,-0.14658 -0.42432,-0.29314 -0.63649,-0.43968c0,0 -0.51874,-0.35836 -0.16039,-0.8771c0.35836,-0.51874 0.87709,-0.16038 0.87709,-0.16038c0.21217,0.14658 0.42431,0.29313 0.63648,0.43971l0.40174,0.41613c0,0 0.42514,0.46559 -0.04046,0.89072z" fill="#246800"/><path d="M203.71888,118.71282c0.55965,-0.29034 0.84998,0.26931 0.84998,0.26931l0.2175,0.42127c0.27515,0.611 0.59679,1.17659 0.93663,1.75377c0,0 0.03675,0.06245 0.06419,0.15747c-0.08591,0.2288 -0.1659,0.45412 -0.23943,0.67522c-0.01527,0.01035 -0.03134,0.02052 -0.04825,0.03048c-0.54332,0.31987 -0.86317,-0.22349 -0.86317,-0.22349c-0.36273,-0.61625 -0.70433,-1.22282 -0.99925,-1.87464l-0.18752,-0.35943c0,0 -0.29033,-0.55964 0.26932,-0.84998z" fill="#693d00"/><path d="M207.44038,114.9458c0.44952,-0.4421 0.89161,0.00745 0.89161,0.00745l0.17135,0.18328c0.07952,0.10864 0.16217,0.21519 0.24772,0.31943c-0.23021,0.37364 -0.45722,0.75437 -0.67867,1.1391c-0.20635,-0.22705 -0.40163,-0.46433 -0.5841,-0.71039l-0.05534,-0.04724c0,0 -0.44207,-0.44952 0.00745,-0.89162z" fill="#693d00"/></g><path d="M204.96038,111.18666c0.09177,-0.39323 0.36162,-0.66572 0.36162,-0.66572l0.55036,-0.55512c1.6511,-1.56414 3.22664,-2.34524 5.45888,-2.76619c6.65814,-4.33188 10.99553,5.11792 15.74671,8.23695c1.50177,0.98589 4.5128,0.83291 5.3682,2.5994c1.77252,3.66046 -2.26969,4.25834 -4.73573,4.57259c-8.09156,-0.6172 -18.18392,-1.86618 -22.89826,-9.93341c0,0 -0.49383,-0.85448 0.14822,-1.48845zM217.06473,113.20542c0.46258,-0.93661 0.07833,-2.07088 -0.8583,-2.53347c-0.93661,-0.46258 -2.07088,-0.07833 -2.53347,0.85831c-0.46258,0.93661 -0.07832,2.07087 0.85831,2.53346c0.93661,0.46258 2.07087,0.07832 2.53346,-0.8583z" fill="#553f22" stroke="none" stroke-width="0.5" stroke-linecap="butt"/><path d="M214.4029,111.23704c0.08128,0.62522 -0.54394,0.70647 -0.54394,0.70647l-0.23936,0.02523c0.59157,0.88327 0.94492,1.80378 2.09378,2.37119c0,0 0.01819,0.00899 0.0464,0.02696c0.02243,-0.02697 0.04498,-0.05361 0.06762,-0.07993c1.65077,-3.35342 0.11213,-3.48347 -1.45612,-3.19403c0.01398,0.04326 0.02476,0.09114 0.03162,0.14411zM217.49801,110.64276l0.35225,0.36993c0.33705,0.53113 0.64508,1.06355 0.95036,1.60389l0.49674,0.49186c0.19591,0.18514 0.25757,0.48314 0.13198,0.73743c-0.10348,0.20952 -0.30779,0.33611 -0.52537,0.35013l-0.67551,0.0553c-0.522,0.00742 -0.96451,0.31143 -1.32395,0.70236l-0.00734,0.01486c0,0 -0.07222,0.14623 -0.21758,0.25322c-0.05269,0.0684 -0.10317,0.13787 -0.15138,0.20752c0,0 -0.36834,0.5117 -0.88004,0.14338c-0.02059,-0.01482 -0.03973,-0.02986 -0.05755,-0.0451c-0.2266,0.04619 -0.43564,-0.05705 -0.43564,-0.05705c-1.85747,-0.91739 -1.76201,-2.51692 -3.27706,-3.59623c-0.13262,-0.0655 -0.60138,-0.29702 -0.60138,-0.29702c-0.3122,-0.15419 -0.44029,-0.53228 -0.2861,-0.84448c0.15419,-0.3122 0.53229,-0.44029 0.84449,-0.2861l0.40631,0.20067c1.75777,-0.19656 3.72698,-0.63129 4.8233,-0.19977c0.24921,0.0127 0.4335,0.19516 0.4335,0.19516z" fill="#b9b9b9" stroke="none" stroke-width="0.5" stroke-linecap="butt"/><path d="M216.28072,107.85197c-0.21199,-0.1047 -1.05991,-0.52348 -1.27191,-0.62818c0,0 -0.5653,-0.2792 -0.28611,-0.84449c0.27919,-0.56529 0.84449,-0.28609 0.84449,-0.28609c0.20065,0.0991 0.40133,0.19821 0.60198,0.29731c0.26865,-0.13101 0.56263,0.01418 0.56263,0.01418c3.77021,1.86207 6.54526,5.9073 9.94628,8.38368c1.5979,2.58799 5.48781,0.72974 6.32444,4.48418l-0.0502,0.72731c0,0 -0.04927,0.62856 -0.67783,0.57928c-0.62856,-0.04927 -0.57926,-0.67781 -0.57926,-0.67781l0.0493,-0.542c-0.55844,-2.61575 -4.57562,-1.59286 -5.98106,-3.70293c-3.11334,-2.21355 -5.64037,-5.8588 -8.94933,-7.77715c-0.26032,0.10757 -0.53342,-0.02733 -0.53342,-0.02733z" fill="#b9b9b9" stroke="none" stroke-width="0.5" stroke-linecap="butt"/><path d="M205.36862,108.50259c0.89412,-0.49458 2.13815,-0.49662 2.78879,0.20184c-0.46107,0.3514 -0.87907,0.89287 -1.23252,1.52013c-0.45414,0.21087 -0.88046,0.51176 -1.22528,0.89756c-0.32543,0.04578 -0.63591,0.17576 -0.89773,0.37852c-0.1656,-0.19234 -0.30963,-0.50018 -0.42017,-0.95396c-0.15113,-0.62025 0.01891,-1.14644 0.36314,-1.54612c0.00412,-0.01456 0.00832,-0.02922 0.01263,-0.04391c0,0 0.1465,-0.48455 0.61113,-0.45402zM205.87198,109.8973c0.00042,0.0118 0.00099,0.02339 0.00176,0.03482c0.01005,-0.00524 0.02029,-0.01062 0.0308,-0.01612l-0.01322,-0.02824c-0.00651,0.00322 -0.01298,0.00639 -0.01935,0.00957z" fill="#7a3535" stroke="none" stroke-width="0.5" stroke-linecap="butt"/><path d="M204.46198,124.64534c-1.50959,0.26446 -2.85191,-1.15201 -2.99509,-2.01928c-1.50837,-0.62427 -2.42787,-1.69373 -0.96463,-3.41784c1.04975,-1.23691 6.53729,-2.19563 7.59456,-0.62644c0.78954,1.17186 -5.85229,3.70236 -2.26573,4.48094l0.05455,-0.00025c0.09897,-0.00256 0.20001,0.01822 0.29496,0.06511c0.01832,0.00905 0.036,0.01886 0.05301,0.02939c0.13933,0.05014 0.18326,0.09393 0.14978,0.12922c0.15664,0.18585 0.19782,0.45403 0.08331,0.68588c-0.15419,0.3122 -0.53228,0.44029 -0.84448,0.2861c-0.3122,-0.15419 -0.4403,-0.53228 -0.2861,-0.84449c0.0059,-0.01194 0.01212,-0.02363 0.01867,-0.03502c-0.24628,-0.00735 -0.52497,-0.02489 -0.82318,-0.05415c0.35039,0.56943 0.51933,1.21768 -0.06961,1.32085z" fill="#8c6738" stroke="none" stroke-width="0.5" stroke-linecap="butt"/><path d="M209.45574,117.98211c-0.13074,0.61679 -0.74751,0.48603 -0.74751,0.48603l-0.21754,-0.05259c-1.89551,-0.12811 -3.71642,-0.12111 -5.60635,0.10691c-5.78289,-0.08088 -0.28197,6.23381 3.17106,6.44774c0,0 0.62906,0.04222 0.58685,0.67127c-0.04221,0.62906 -0.67127,0.58686 -0.67127,0.58686c-5.02,-0.35847 -10.73995,-9.03438 -3.1558,-8.96495c1.93756,-0.23841 3.81649,-0.23551 5.75992,-0.106l0.39459,0.07718c0,0 0.61679,0.13075 0.48603,0.74751z" fill="#7c4800" stroke="none" stroke-width="0.5" stroke-linecap="butt"/><path d="M208.00411,120.09026c0.24358,0.58153 -0.33797,0.82511 -0.33797,0.82511l-0.13233,0.05277c-0.49113,0.25132 -1.00464,0.41349 -1.52169,0.57891c0.23357,0.08839 0.47311,0.17437 0.7207,0.25842l0.30769,0.19412c0,0 0.50001,0.38407 0.11594,0.88407c-0.38406,0.49999 -0.88407,0.11593 -0.88407,0.11593l0.05467,-0.00022c-1.65441,-0.56277 -3.00043,-1.22103 -4.53458,-2.07248c0,0 -0.55121,-0.30605 -0.24516,-0.85726c0.30605,-0.55122 0.85726,-0.24516 0.85726,-0.24516c0.66475,0.36924 1.28538,0.69784 1.91193,0.99688c0.86675,-0.37616 1.82252,-0.52716 2.62983,-0.96891l0.23266,-0.1001c0,0 0.58154,-0.24357 0.82511,0.33796z" fill="#7c4800" stroke="none" stroke-width="0.5" stroke-linecap="butt"/><path d="M213.78177,120.91351c-1.71259,2.50481 -4.51542,4.2972 -6.52456,6.56363c-2.81246,2.15947 -7.11136,6.6105 -10.75585,6.88237c-0.08144,0.03099 -0.16319,0.06125 -0.24529,0.0908c0,0 -0.59401,0.21131 -0.80534,-0.38267c-0.21131,-0.59401 0.38267,-0.80534 0.38267,-0.80534c4.28046,-1.50317 7.6457,-5.2705 10.83499,-8.2911c1.31991,-1.49917 4.57564,-4.83577 4.57093,-6.87117l-0.06825,-0.32415c0,0 -0.06962,-0.39568 0.21816,-0.61091c0.02281,-0.08798 0.07064,-0.1812 0.15474,-0.27674c0.41662,-0.47321 0.88982,-0.05657 0.88982,-0.05657c0.65648,0.5843 1.14206,1.28703 1.80655,1.87052l0.31548,0.27775c0,0 0.4732,0.41662 0.05659,0.88982c-0.10792,0.12259 -0.21962,0.18544 -0.32594,0.21133c-0.11424,0.22801 -0.27978,0.50348 -0.50469,0.83243z" fill="#8c8172" stroke="none" stroke-width="0.5" stroke-linecap="butt"/><path d="M220.74985,123.52118c-0.98365,2.87045 -3.20796,5.34455 -4.54096,8.0642c-2.13582,2.83048 -5.09405,8.26564 -8.53452,9.49831c-0.07024,0.05156 -0.141,0.1025 -0.21224,0.15285c0,0 -0.51629,0.36189 -0.87817,-0.15439c-0.3619,-0.51629 0.15438,-0.87817 0.15438,-0.87817c3.72554,-2.58885 5.96595,-7.11632 8.23566,-10.87721c0.873,-1.79652 3.12256,-5.87968 2.57593,-7.84034l-0.15211,-0.29427c0,0 -0.17246,-0.36285 0.04761,-0.64692c-0.00145,-0.09084 0.01982,-0.19345 0.07546,-0.30797c0.27555,-0.56709 0.84262,-0.29152 0.84262,-0.29152c0.78837,0.38836 1.4436,0.93642 2.23944,1.3219l0.37804,0.1837c0,0 0.56709,0.27555 0.29151,0.84263c-0.07138,0.14687 -0.16231,0.23722 -0.25789,0.29046c-0.04939,0.25019 -0.13561,0.55982 -0.26479,0.93678z" fill="#8c8172" stroke="none" stroke-width="0.5" stroke-linecap="butt"/><path d="M206.95873,115.23556c-1.82524,1.37521 -4.257,1.9795 -6.23647,3.11318c-2.52701,0.86393 -6.66649,3.00534 -9.3328,2.32193c-0.06556,0.00249 -0.13122,0.00444 -0.19691,0.00575c0,0 -0.47479,0.0078 -0.48259,-0.46698c-0.00779,-0.47479 0.46699,-0.48259 0.46699,-0.48259c3.41661,-0.04215 6.72518,-1.92042 9.72846,-3.30819c1.30288,-0.75208 4.42961,-2.34934 4.9163,-3.803l0.02935,-0.24777c0,0 0.04559,-0.29913 0.30276,-0.38344c0.03744,-0.05728 0.09406,-0.1123 0.17708,-0.16023c0.41126,-0.23739 0.64865,0.17385 0.64865,0.17385c0.32782,0.57504 0.50514,1.19347 0.83885,1.76984l0.15825,0.27414c0,0 0.23742,0.41127 -0.17384,0.64865c-0.10654,0.06147 -0.20138,0.07946 -0.28347,0.07233c-0.13641,0.13519 -0.32088,0.29196 -0.5606,0.47257z" fill="#8c8172" stroke="none" stroke-width="0.5" stroke-linecap="butt"/></g><g stroke="none" stroke-width="0.5" stroke-linecap="butt"><path d="M243.6087,187.5159c-3.43752,-3.47838 -1.20056,-10.64897 -0.25137,-14.52915c0,0 0.27974,-1.14044 1.42019,-0.8607c0.10633,0.02606 0.20029,0.05963 0.2833,0.09906c0.11536,-0.11373 0.2363,-0.22532 0.36299,-0.3347l1.52955,-0.26628c0,0 0.52846,-0.07564 0.92375,0.23138c2.60799,-0.92558 5.55082,-1.37324 8.25755,-1.12902c0.43992,0.33256 0.90613,0.64073 1.3978,0.92148c1.58087,0.90272 3.27211,1.43478 4.9732,1.62365c1.7518,1.63055 2.79207,4.09623 2.59901,7.59257c-0.29873,3.40565 0.47046,4.91863 2.51618,7.57106c0.10297,0.13352 1.19351,1.66364 1.79487,2.72207c0.00139,-0.00439 0.00279,-0.00881 0.00424,-0.01324c0.96981,1.84733 2.39683,3.47895 4.22983,4.70741c-0.42298,1.60348 -0.92451,3.53008 -2.45244,4.27394c-0.71874,0.34993 -3.02501,-0.02461 -3.76866,-0.11226c-5.03446,-1.74507 -10.57035,-4.48584 -15.19518,-8.14207c-3.01827,-1.17784 -6.76916,-2.47746 -8.62483,-4.3552z" fill="#7c5c32"/><path d="M255.49035,176.73876c-0.1721,-0.00951 -0.29087,-0.06673 -0.37281,-0.14286c-0.07407,0.00293 -0.14816,0.00582 -0.22222,0.00872c-4.23148,0.3344 -6.57422,5.36911 -5.30659,8.97961c0,0 0.19197,0.55485 -0.36286,0.74684c-0.55486,0.19198 -0.74684,-0.36286 -0.74684,-0.36286c-1.52482,-4.46251 1.35856,-9.95521 6.33347,-10.53489c0.23193,-0.00933 0.46386,-0.01864 0.69579,-0.02796l0.60071,0.77957c0,0 -0.0324,0.58624 -0.61862,0.55385z" fill="#ffffff"/><path d="M255.46108,177.93961c-0.02017,-0.15676 -0.01823,-0.52949 0.42472,-0.65044c0.56641,-0.15465 0.72105,0.41173 0.72105,0.41173l0.02563,0.41153c-1.03251,3.6647 -2.58429,6.79118 -6.21502,8.36276c0,0 -0.53882,0.2332 -0.77203,-0.30562c-0.23321,-0.53883 0.30562,-0.77204 0.30562,-0.77204c3.23637,-1.40046 4.58112,-4.19848 5.51004,-7.45792z" fill="#ffffff"/><path d="M254.73472,182.29969c-0.92346,2.91919 -4.10977,0.05466 -5.16863,-1.21622c0,0 -0.43617,-0.52509 0.00377,-0.99868c-0.03978,-0.18085 -0.0152,-0.37646 0.08385,-0.54993c0.18983,-0.33243 0.5888,-0.4707 0.9367,-0.34376c1.132,-0.73557 4.96286,0.52103 4.14431,3.10855z" fill="#ffffff"/><path d="M268.65496,190.03162c0.56279,0.1631 0.41383,0.71113 0.41383,0.71113l-0.0563,0.15391c-0.15224,3.53244 -2.35769,5.4443 -5.00679,7.50349c0,0 -0.45026,0.34877 -0.8193,-0.10431c-0.36904,-0.45308 0.08124,-0.80187 0.08124,-0.80187c2.38537,-1.84053 4.46008,-3.51551 4.58143,-6.67799l0.09412,-0.39944c0,0 0.14896,-0.54802 0.71173,-0.38493z" fill="#ffffff"/></g><g stroke="none" stroke-linecap="butt"><path d="M253.71489,156.70976c3.54127,12.9295 -1.53493,25.58753 -11.33803,28.27251c-9.80309,2.68498 -20.62085,-5.61986 -24.16212,-18.54934c-3.54127,-12.9295 1.53494,-25.5875 11.33804,-28.27248c9.80309,-2.68498 20.62084,5.61983 24.16211,18.54931z" fill="#946d3b" stroke-width="0"/><path d="M240.56466,148.86991c10.88634,1.61873 19.19574,9.62793 18.55959,17.88895c-0.63616,8.26102 -9.97695,13.64565 -20.86329,12.02689c-10.88634,-1.61873 -19.1957,-9.62794 -18.55955,-17.88896c0.63616,-8.26102 9.97695,-13.64563 20.86326,-12.02688z" fill="#946d3b" stroke-width="0"/><path d="M238.12297,184.96733c0.24453,0.88527 -0.51997,1.57079 -0.51997,1.57079l-1.25417,0.97676c-10.06262,3.72261 -18.43603,4.68718 -26.37498,-3.66645c-3.67852,-5.22697 -3.92302,-15.66993 -11.55783,-17.60335c-3.9804,-1.00799 -7.03507,2.34371 -10.0881,4.60639l0.36065,0.47658l-1.25444,0.94934c-0.1643,0.13041 -0.35706,0.23049 -0.57215,0.2894c-0.85275,0.23356 -1.73342,-0.2684 -1.96698,-1.12116c-0.05891,-0.21509 -0.07104,-0.43197 -0.04253,-0.63976l0.17765,-1.56311l0.01337,0.00152l-0.00811,-0.04272c3.25794,-19.33401 17.90388,-24.91614 32.15962,-11.22428c4.41657,5.64522 9.32579,27.35105 19.04407,25.17696c0,0 1.57603,-0.28137 1.85739,1.29463c0.03414,0.19133 0.04094,0.36356 0.02648,0.5185z" fill="#8c6738" stroke-width="0.5"/><path d="M188.7766,160.6944c0.29842,0.1971 0.49234,0.3998 0.60548,0.60028l0.01139,0.00992l0.01847,0.02638l0.02626,0.00678l0.08837,0.15716l0.00459,0.00658l0.01259,0.01092l0.06128,0.08763l0.0792,0.07183l0.05275,0.07891l0.01416,0.03958l0.02805,0.03129l0.09894,0.1873l0.03829,0.05056l0.03253,0.03628l0.00872,0.00225l0.01127,0.02006l0.0149,0.0166l0.08591,0.16262l0.03734,0.06642l0.04707,0.04982l0.01696,0.03018l0.04239,0.03686l0.01848,0.02638l0.02626,0.00678l0.08818,0.15677l0.04552,0.04355l0.01674,0.02655l0.026,0.01758l0.04482,0.04998l0.04992,0.09452l0.06969,0.08111l0.04626,0.09227l0.02504,0.0375l0.01706,0.04764l0.03298,0.03834l0.13721,0.27366l0.01739,0.0778l0.03909,0.0695l0.0425,0.15515l0.03307,0.06597l0.01582,0.07086l0.02413,0.04292l0.06474,0.08558l0.05945,0.13948l0.01793,0.03188l0.00584,0.00616l0.04561,0.08109l0.00406,0.00607l0.00683,0.00762l0.00656,0.01245l0.01821,0.02722l0.00805,0.02246l0.05308,0.10049l0.03377,0.06007l0.00584,0.00617l0.07827,0.13913l0.07576,0.08449l0.01586,0.03005l0.02645,0.02131l0.09756,0.12891l0.00945,0.02214l0.01781,0.01617l0.0017,0.00259l0.00007,0.00002l0.00037,0.00062l0.01896,0.02837l0.00683,0.00762l0.00659,0.01245l0.01818,0.02722l0.00804,0.02243l0.05309,0.10052l0.02052,0.03651l0.01488,0.01661l0.02429,0.04603l0.03925,0.0341l0.06128,0.0876l0.0792,0.07183l0.05276,0.07894l0.01057,0.02954l0.02158,0.0228l0.04561,0.08106l0.03566,0.05335l0.0434,0.12114l0.06309,0.11216l0.06344,0.23161l0.06068,0.10787l0.0059,0.02153l0.03319,0.06289l0.09018,0.16031l0.00589,0.02153l0.01071,0.02035l-0.00281,0.00851l0.11308,0.41285l0.00263,0.11723l0.03085,0.13808l-0.02686,0.04039l0.00259,0.11674l-0.24068,0.24121l-0.18184,0.2734l-0.03754,-0.00203l-0.01539,0.0227l-0.06778,0.14345l-0.03786,0.01266l-0.03664,0.05412l-0.07996,0.0717l-0.06203,0.09169l-0.04998,0.04482l-0.04585,0.02421l-0.02826,0.02956l-0.00119,0l-0.01433,0.0158l-0.15785,0.10549l-0.02957,0.01059l-0.02281,0.02158l-0.02735,0.01539l-0.0018,0.007l-0.02005,0.01127l-0.01661,0.0149l-0.09788,0.05171l-0.01,0.00898l-0.16261,0.0859l-0.07798,0.04387l-0.01484,0.01635l-0.08149,0.05445l-0.00001,0.0001l-0.00067,0.00035l-0.02837,0.01896l-0.00763,0.00683l-0.01244,0.00659l-0.02725,0.01819l-0.02243,0.00804l-0.10052,0.05309l-0.06007,0.03378l-0.00616,0.00584l-0.06053,0.03404l-0.0856,0.06477l-0.05066,0.02158l-0.04,0.03781l-0.08109,0.04561l-0.05334,0.03566l-0.02957,0.01059l-0.02281,0.02158l-0.10787,0.06068l-0.01883,0.00516l-0.01481,0.01272l-0.11979,0.06007l-0.19915,0.11201l-0.04713,0.01291l-0.01009,0.00532l-0.02192,0.01463l-0.01702,0.02113l-0.10235,0.07743l-0.07516,0.0674l-0.07792,0.04119l-0.02463,0.02328l-0.04736,0.06998l-0.02601,0.02333l-0.00023,0.03214l-0.05249,0.04959l-0.03082,0.06528l-0.05915,0.01979l-0.08535,0.08071l-0.02397,0.08557l-0.05823,0.10216l0.00064,0.00899l-0.01545,0.01702l-0.01102,0.01939l-0.0664,0.06945l0.0009,0.01274l-0.0691,0.07619l-0.04394,0.093l-0.01676,0.00559l-0.03074,0.05393l-0.03285,0.03436l-0.01167,0.02464l-0.00452,0.00154l-0.01404,0.05009l-0.03152,0.05534l-0.0236,0.08428l-0.04783,0.08392l-0.01827,0.05915l0.01288,0.05984l-0.05764,0.08517l-0.03035,0.09828l-0.0547,0.02743l-0.08851,0.13078l-0.09995,0.08962l-0.04602,0.02432l-0.03409,0.03921l-0.04145,0.02898l-0.02836,0.0419l-0.04998,0.04479l-0.07796,0.04121l-0.06404,0.06057l-0.10787,0.06068l-0.03147,0.00862l-0.02542,0.02044l-0.16578,0.07654l-0.05425,0.01031l-0.04054,0.02143l-0.06404,0.06057l-0.10787,0.06068l-0.05334,0.01461l-0.12173,0.09214l-0.02215,0.00941l-0.01616,0.01784l-0.07891,0.05275l-0.12114,0.0434l-0.11216,0.06309l-0.08684,0.02379l-0.10787,0.06068l-0.02153,0.0059l-0.02034,0.01071l-0.00161,-0.00053l-0.09334,0.05252l-0.02152,0.00589l-0.02035,0.01071l-0.00033,-0.0001l-0.0002,0.00025l-0.02296,0.00115l-0.02153,0.00589l-0.18389,0.0041l-0.06863,0.00336l-0.02389,0.01411l-0.03937,-0.01103l-0.05179,0.00253l-0.02188,-0.00437l-0.023,0.00052l-0.00635,-0.00636l-0.01461,-0.0029l-0.10009,-0.04727l-0.0395,-0.00788l-0.03295,-0.01558l-0.03632,-0.01017l-0.02887,0.00622l-0.09743,-0.0659l-0.01324,0.00283l-0.07852,-0.05313l-0.08575,-0.04049l-0.00431,-0.01282l-0.10635,-0.05025l-0.01266,-0.03786l-0.05415,-0.03662l-0.14436,-0.16101l-0.00868,-0.00224l-0.01127,-0.02006l-0.01491,-0.01663l-0.05491,-0.10398l-0.00574,-0.00387l-0.08164,-0.09105l-0.05557,-0.01429l-0.05042,-0.08966l-0.07434,-0.07107l-0.00007,-0.06123l-0.07739,-0.13762l-0.01,-0.03651l-0.00678,-0.00588l-0.00112,-0.02297l-0.00589,-0.0215l-0.00241,-0.1071l-0.00127,-0.00112l-0.00112,-0.02297l-0.00589,-0.0215l-0.00412,-0.18388l-0.00554,-0.11355l-0.00451,-0.0234l0.0018,-0.03269l-0.0007,-0.01406l0.002,-0.01004l0.00188,-0.03411l0,-0.00073l0.00004,-0.00007l0.00015,-0.0031l0.01699,-0.05505l-0.00281,-0.05752l0.01744,-0.0877l-0.00052,-0.023l0.00635,-0.00638l0.00724,-0.03648l-0.00052,-0.023l0.00632,-0.00637l0.0029,-0.01461l0.03938,-0.08336l-0.00145,-0.06421l0.03582,-0.03587l0.01331,-0.04754l-0.00098,-0.04392l-0.01586,-0.05791l-0.00074,-0.03239l-0.0079,-0.04096l0.00326,-0.05986l-0.0074,-0.02702l-0.00678,-0.00588l-0.00112,-0.02297l-0.00589,-0.0215l-0.00413,-0.18388l-0.00207,-0.04285l-0.00894,-0.03264l-0.00275,-0.12374l0.03023,-0.1336l0.00245,-0.03238l-0.00411,-0.18422l0.01947,-0.08601l-0.00429,-0.08803l0.00905,-0.04551l-0.0008,-0.03586l0.03219,-0.14224l0.01433,-0.14515l0.10349,-0.28951l0.0016,-0.00798l0.00524,-0.01103l0.00451,-0.01262l0.0001,-0.01961l0.03278,-0.12746l-0.0003,-0.01333l0.03023,-0.1336l0.00245,-0.03238l-0.00136,-0.06048l0.00892,-0.03943l0.00031,-0.0043l0.00204,-0.00614l0.00817,-0.0361l-0.00429,-0.08803l0.02878,-0.14483l-0.00539,-0.11056l0.00434,-0.02187l-0.00053,-0.023l0.00635,-0.00638l0.01598,-0.08043l0.02161,-0.04572l0.00384,-0.05045l0.02318,-0.06988l0.00051,-0.07474l0.04645,-0.18058l0.012,-0.1054l0.0119,-0.03181l-0.00166,-0.03394l0.04587,-0.23067l0.01451,-0.12753l0.02934,-0.07842l0.00635,-0.0835l0.0315,-0.0948l0.0078,-0.10266l0.03411,-0.10273l0.03068,-0.04834l0.0121,-0.06091l0.05498,-0.11635l0.01157,-0.04138l0.00091,-0.0122l0.01592,-0.04795l0.00628,-0.0224l0.00278,-0.00488l0.04325,-0.1302l0.01217,-0.0192l0.00299,-0.02253l0.05512,-0.13959l0.03354,-0.04686l0.01552,-0.05547l0.02075,-0.03636l-0.00014,-0.00256l0.02619,-0.13166l0.02161,-0.04573l0.00381,-0.05043l0.02811,-0.08465l0.03379,-0.1206l0.00709,-0.0357l0.01341,-0.02837l0.00087,-0.03138l0.04723,-0.16854l0.02704,-0.04743l0.00882,-0.05385l0.02916,-0.06757l0.00486,-0.04276l0.0035,-0.00939l-0.00107,-0.00996l0.03136,-0.22647l0.03585,-0.0891l0.01257,-0.0952l0.02862,-0.07247l0.01208,-0.06087l0.02794,-0.05908l-0.00841,-0.03906l0.03785,-0.05595l0.00181,-0.03353l0.03155,-0.10216l0.00809,-0.1066l0.03079,-0.09268l-0.00259,-0.01197l0.05319,-0.07864l0.00065,-0.00211l0.00119,-0.0006l0.01146,-0.01695l0.02227,-0.07214l0.0496,-0.17711l0.01106,-0.0194l0.00677,-0.02197l0.00806,-0.00404l0.04772,-0.08372l0.02359,-0.08428l0.02075,-0.03636l-0.00014,-0.00256l0.02619,-0.13167l0.04728,-0.10009l0.03406,-0.17117l0.04546,-0.0962l0.00457,-0.0148l-0.0028,-0.05752l0.02619,-0.13167l0.0216,-0.04575l0.00382,-0.05041l0.01842,-0.0554l0.00536,-0.027l0.00208,-0.03799l0.0063,-0.02038l-0.00061,-0.00102l0.01103,-0.03937l-0.00253,-0.05179l0.01308,-0.06583l0.04727,-0.10009l0.00788,-0.0395l0.01559,-0.03292l0.01896,-0.06774l0.03153,-0.05531l0.02359,-0.08428l0.08409,-0.14752l0.08893,-0.09301l0.07213,-0.10657l0.0422,-0.03782c-0.01646,-0.62167 0.30318,-0.94134 1.51715,-0.13949zM190.68911,167.26856l-0.00451,-0.01646l-0.01308,0.03309z" fill="#ededed" stroke-width="0.5"/><path d="M201.1709,150.39075c0.77203,-0.21146 0.97264,0.52099 0.97264,0.52099l0.20062,0.73247c1.31886,4.81526 1.09912,10.35052 -1.84315,14.74176c0,0 -0.44373,0.64467 -1.10659,0.23768c-0.66286,-0.40699 -0.21912,-1.05162 -0.21912,-1.05162c2.79348,-3.90859 2.8052,-9.19512 1.62478,-13.50492l-0.20062,-0.73247c0,0 -0.20061,-0.73244 0.57143,-0.9439z" fill="#ededed" stroke-width="0.5"/><path d="M221.91109,167.19587c0.6891,0.3981 0.29904,1.09181 0.29904,1.09181l-0.24321,0.42774c-1.94643,2.90875 -8.81158,8.34031 -13.24176,7.88029c-0.09301,0.04887 -0.18602,0.09777 -0.27903,0.14664l0.00211,0.00771l-0.87678,0.24014c-0.42144,0.11543 -0.85775,-0.13666 -0.97453,-0.56304c-0.11678,-0.42637 0.13018,-0.86561 0.55162,-0.98103l0.71608,-0.19613c0.24185,-0.13028 0.4837,-0.26059 0.72555,-0.39087c0,0 0.00597,-0.00319 0.01707,-0.00835c3.2725,-2.6879 9.2839,-2.89766 12.04535,-7.03564l0.17935,-0.32371c0,0 0.39007,-0.69367 1.07918,-0.29558z" fill="#1c1b11" stroke-width="0.5"/><path d="M244.86907,142.39637c0.42637,-0.11678 0.86671,0.13421 0.98349,0.56058c0.11678,0.42637 -0.13421,0.86671 -0.56058,0.98348c-0.23446,0.06421 -0.47311,0.01724 -0.65986,-0.10891c-0.10282,0.16445 -0.26533,0.29218 -0.46714,0.34745c-0.28531,0.07815 -0.57685,-0.00837 -0.77354,-0.20191c-0.10327,0.15494 -0.26076,0.27479 -0.45445,0.32784c-0.26123,0.07155 -0.52766,0.00505 -0.72174,-0.15522c-0.06805,0.27114 -0.27639,0.49871 -0.56526,0.57783c-0.18572,0.05087 -0.37411,0.03198 -0.53723,-0.0408c-0.10327,0.14574 -0.25572,0.25797 -0.44144,0.30884c-0.1784,0.04886 -0.35923,0.03336 -0.51782,-0.03246c-0.09404,0.09212 -0.21221,0.16226 -0.34821,0.19951c-0.19116,0.05236 -0.38513,0.03079 -0.55148,-0.04734c-0.09863,0.10825 -0.22812,0.19073 -0.3798,0.23227c-0.21231,0.05815 -0.42805,0.02512 -0.60561,-0.07532c-0.0933,0.08989 -0.20978,0.15839 -0.34354,0.19502c-0.21573,0.05909 -0.43509,0.02402 -0.61424,-0.08031c-0.06691,0.0431 -0.14145,0.07685 -0.22226,0.09899c-0.22451,0.06149 -0.45287,0.02103 -0.63584,-0.09332c-0.09846,0.10754 -0.22748,0.18953 -0.37852,0.23089c-0.28954,0.07931 -0.58553,-0.01097 -0.78224,-0.21063c-0.10071,0.11862 -0.23696,0.20922 -0.39838,0.25343c-0.21907,0.06 -0.44186,0.02292 -0.62252,-0.08516c-0.10321,0.14426 -0.25485,0.25531 -0.43927,0.30582c-0.27163,0.0744 -0.54895,-0.00047 -0.74466,-0.17488c-0.05912,0.03456 -0.12367,0.06202 -0.19285,0.08097c-0.26602,0.07286 -0.53748,0.00257 -0.73239,-0.16415c-0.08864,0.07819 -0.19605,0.13789 -0.31775,0.17122c-0.29099,0.0797 -0.58853,-0.01186 -0.78522,-0.21365c-0.03363,0.01443 -0.06862,0.02669 -0.10493,0.03664c-0.25211,0.06905 -0.50907,0.00953 -0.70118,-0.1388c-0.1033,0.14731 -0.25659,0.26084 -0.4437,0.31208c-0.28738,0.07871 -0.58112,-0.00966 -0.77782,-0.20616c-0.08305,0.0668 -0.18083,0.11806 -0.29018,0.14801c-0.41974,0.11496 -0.85295,-0.12641 -0.97777,-0.5407c-0.01114,0.00358 -0.02238,0.00693 -0.03374,0.01004c-0.38583,0.10567 -0.7831,-0.0898 -0.9417,-0.44388c-0.07197,0.04946 -0.15326,0.08792 -0.24223,0.11229c-0.37376,0.10237 -0.75822,-0.07783 -0.9261,-0.41104c-0.07811,0.05844 -0.16825,0.10348 -0.26806,0.13082c-0.30847,0.08449 -0.62422,-0.02351 -0.81949,-0.25115c-0.03298,0.0334 -0.06899,0.06409 -0.10786,0.0915c-0.20374,0.36528 -0.39647,0.34393 -0.54687,0.14185c-0.296,-0.0318 -0.55892,-0.22823 -0.66581,-0.51924c-0.08855,0.078 -0.19582,0.13752 -0.31731,0.1708c-0.27676,0.0758 -0.55933,-0.00334 -0.75554,-0.1848c-0.09961,0.1128 -0.23214,0.19886 -0.38811,0.24158c-0.42637,0.11678 -0.86671,-0.13421 -0.98349,-0.56058c-0.11678,-0.42637 0.13421,-0.86671 0.56058,-0.98349c0.27676,-0.0758 0.55933,0.00333 0.75554,0.1848c0.09961,-0.1128 0.23214,-0.19886 0.38811,-0.24158c0.40408,-0.11067 0.82068,0.10896 0.96254,0.49517c0.05223,-0.04601 0.11094,-0.0856 0.1753,-0.11716c0.06972,-0.27054 0.2447,-0.37197 0.56307,-0.05429c0.15432,0.04202 0.29371,0.1297 0.39841,0.25178c0.09559,-0.09692 0.21723,-0.17071 0.35796,-0.20925c0.37376,-0.10237 0.75819,0.07784 0.92607,0.41104c0.07811,-0.05844 0.16829,-0.10349 0.26807,-0.13082c0.38583,-0.10567 0.78309,0.0898 0.94169,0.44388c0.07197,-0.04946 0.15326,-0.08792 0.24223,-0.11229c0.41974,-0.11496 0.85296,0.12641 0.97778,0.5407c0.01114,-0.00358 0.02238,-0.00693 0.03374,-0.01004c0.28738,-0.07871 0.58112,0.00965 0.77782,0.20615c0.08305,-0.0668 0.18084,-0.11801 0.29019,-0.14796c0.25211,-0.06905 0.50907,-0.00952 0.70114,0.13881c0.1033,-0.14731 0.25662,-0.26084 0.4437,-0.31209c0.29099,-0.0797 0.5885,0.01187 0.78522,0.21365c0.03363,-0.01443 0.06865,-0.0267 0.10493,-0.03664c0.26602,-0.07286 0.53747,-0.00257 0.73239,0.16415c0.08864,-0.07819 0.19605,-0.13789 0.31775,-0.17122c0.27163,-0.0744 0.54895,0.00044 0.74465,0.17484c0.05912,-0.03456 0.12367,-0.06199 0.19286,-0.08094c0.21907,-0.06 0.44183,-0.02291 0.62248,0.08517c0.10321,-0.14426 0.25485,-0.25531 0.43927,-0.30583c0.28954,-0.07931 0.5855,0.01097 0.7822,0.2106c0.10071,-0.11862 0.237,-0.20919 0.39842,-0.2534c0.22451,-0.06149 0.45287,-0.02103 0.63584,0.09332c0.09846,-0.10754 0.22748,-0.18953 0.37852,-0.23089c0.21573,-0.05909 0.43509,-0.02402 0.61424,0.08031c0.06691,-0.0431 0.14146,-0.07686 0.22227,-0.09899c0.21231,-0.05815 0.42804,-0.02514 0.60561,0.07532c0.0933,-0.08989 0.20979,-0.15835 0.34355,-0.19498c0.19116,-0.05236 0.38513,-0.03078 0.55148,0.04735c0.09863,-0.10825 0.22812,-0.19073 0.3798,-0.23227c0.1784,-0.04886 0.35924,-0.03332 0.51782,0.03246c0.09404,-0.09212 0.21221,-0.16229 0.34821,-0.19954c0.18572,-0.05087 0.37409,-0.03195 0.53721,0.04083c0.10327,-0.14574 0.25573,-0.25801 0.44146,-0.30888c0.26123,-0.07155 0.52766,-0.00505 0.72175,0.15525c0.06805,-0.27114 0.27638,-0.49873 0.56525,-0.57785c0.28531,-0.07815 0.57682,0.00837 0.7735,0.20189c0.10327,-0.15494 0.26077,-0.27475 0.4545,-0.32781c0.23446,-0.06421 0.47306,-0.01723 0.65983,0.10893c0.10282,-0.16445 0.26536,-0.29219 0.46717,-0.34746z" fill="#6a7e00" stroke-width="0.5"/><path d="M251.92455,150.69134c-2.75332,1.92583 -6.33533,0.0834 -6.97868,-2.96246c-0.53215,-0.42249 -0.60955,-1.48966 0.23633,-3.52223c0.03502,-0.46195 0.15045,-0.87026 0.39263,-1.11294c0.04607,-0.16912 0.14692,-0.3203 0.2878,-0.42758c0.08948,-0.22615 0.28051,-0.4089 0.53315,-0.4781c0.16432,-0.045 0.33073,-0.03537 0.47988,0.01783c0.62905,0.03496 1.15301,0.11282 1.58396,0.22528c0.36008,-0.08408 0.74172,0.12269 1.08914,0.47746c0.24475,0.17886 0.40858,0.38371 0.50383,0.60611c2.18654,1.24321 4.67185,5.21826 1.87197,7.17662z" fill="#7d794a" stroke-width="0.5"/><path d="M247.61223,143.67663c-0.11678,-0.42637 0.13421,-0.86671 0.56058,-0.98349c0.02069,-0.00566 0.04138,-0.01047 0.06209,-0.01441c2.32971,-2.2776 4.40013,10.81572 -0.29392,1.45297c-0.1554,-0.10328 -0.27561,-0.26098 -0.32877,-0.45507z" fill="#7d794a" stroke-width="0.5"/><path d="M249.17898,149.52531l0.06313,-0.22537l0.0243,-0.04264l0.00726,-0.04853l0.09173,-0.22083l0.00334,-0.00453l0.00093,-0.00556l0.05321,-0.1233l0.0912,-0.11936l0.07715,-0.12885l0.11944,-0.11969l0.03036,-0.01824l0.02076,-0.02869l0.22975,-0.19339l0.04049,-0.01979l0.03029,-0.0334l0.16542,-0.11054l0.02141,-0.00766l0.0162,-0.01599l0.20588,-0.12162l0.10248,-0.03042l0.09317,-0.05242l0.09354,-0.02562l0.0951,-0.0393l0.21684,-0.10013l0.06573,-0.01246l0.05831,-0.0328l0.02459,-0.00673c0.09986,-0.188 0.27402,-0.336 0.49556,-0.39667c0.33305,-0.09122 0.67461,0.04194 0.86383,0.30782l0.0015,-0.00019l0.15291,0.12314l0.15968,0.11426l0.00234,0.01618l0.00642,0.00515l0.06815,0.09006l0.05942,0.13949l0.07433,0.13212l0.08864,0.32364l0.00219,0.09854l0.02603,0.09505l0.00249,0.11103l0.02984,0.16714l-0.00633,0.09286l0.01763,0.09138l-0.00274,0.05038l0.04143,0.27369l-0.00783,0.08222l0.01567,0.08109l-0.00713,0.13092l0.0238,0.20664l-0.00491,0.03737l0.00995,0.03635l0.00387,0.1729l-0.00691,0.03061l0.00594,0.03081l-0.01442,0.26492l-0.01161,0.0376l0.00368,0.03916l-0.03108,0.20421l-0.01398,0.03347l0.00018,0.03627l-0.0513,0.20975l-0.03979,0.07557l-0.01753,0.08361l-0.09728,0.2006l-0.0347,0.04152l-0.01804,0.05102l-0.10831,0.16369l-0.06025,0.1057l-0.01662,0.01737l-0.00784,0.02276l-0.13772,0.21168l-0.07734,0.07191l-0.0592,0.08748l-0.06983,0.06261l-0.07509,0.03965l-0.02063,0.01919l-0.00087,-0.00006l-0.04538,0.0429l-0.07537,0.04239l-0.02698,0.00739l-0.0033,0.00346l-0.01813,0.02678l-0.00127,0.01463l-0.01894,0.01521l-0.0338,0.04995l-0.06983,0.06261l-0.04014,0.02119l-0.01415,0.01479l-0.01387,0.00001l-0.03762,0.01986l-0.09314,0.07495l-0.23165,0.10693l-0.06573,0.01246l-0.05831,0.0328l-0.95071,0.26039l-0.0322,0.00072l-0.0202,0.01812l-0.17979,-0.01363l-0.04223,0.00094l-0.00794,0.0047l-0.01492,-0.00418l-0.11516,0.00256l-0.01922,-0.01913l-0.0321,-0.00242l-0.07176,-0.02383l-0.06731,-0.04275l-0.07677,-0.0215l-0.05153,-0.02937l-0.0497,-0.04754l-0.00737,-0.00207l-0.05153,-0.02937l-0.0046,-0.00438l-0.0155,-0.00788l-0.01206,-0.01047l-0.01823,-0.00098l-0.02232,-0.02599c-0.8138,-0.02891 -1.8119,-0.80875 -2.97894,-2.88388c-0.03948,-0.07022 1.17208,0.07729 2.35417,-0.06027l0.06038,-0.19249z" fill="#7d794a" stroke-width="0.5"/><path d="M247.61894,147.33971c-0.15664,-0.57193 0.18002,-1.16258 0.75195,-1.31922c0.57193,-0.15664 1.16257,0.18002 1.31921,0.75195c0.15664,0.57193 -0.18002,1.16257 -0.75194,1.31921c-0.57193,0.15664 -1.16258,-0.18002 -1.31922,-0.75194z" fill="#1c1b11" stroke-width="0.5"/><path d="M250.95504,146.02969c-0.39531,-0.53291 -0.50689,-1.11984 -0.24931,-1.31096c0.25762,-0.19113 0.78694,0.08601 1.18225,0.61892c0.39531,0.53291 0.50696,1.11982 0.24933,1.31092c-0.25762,0.19113 -0.78697,-0.086 -1.18227,-0.61888z" fill="#1c1b11" stroke-width="0.5"/><path d="M250.93163,150.45403c-0.13549,-0.0015 -0.13403,-0.13698 -0.13403,-0.13698l0.00168,-0.07435c-0.03208,-0.32343 -0.10835,-0.66978 -0.19472,-0.98377c0,0 -0.03582,-0.13068 0.09489,-0.16648c0.13073,-0.03581 0.16652,0.09489 0.16652,0.09489c0.08986,0.32931 0.16718,0.68882 0.20293,1.0277l-0.0003,0.10498c0,0 -0.0015,0.13549 -0.13698,0.13403z" fill="#1c1b11" stroke-width="0.5"/><path d="M251.79448,150.13052l-0.05375,-0.09018c-0.14192,-0.3098 -0.25855,-0.65857 -0.34906,-0.98768c0,0 -0.03579,-0.13069 0.09489,-0.16648c0.13073,-0.03581 0.16648,0.09489 0.16648,0.09489c0.08569,0.31418 0.19655,0.65106 0.33374,0.94569l0.03936,0.06312c0,0 0.07032,0.11586 -0.04551,0.18619c-0.11581,0.07033 -0.18616,-0.04552 -0.18616,-0.04552z" data-paper-data="{&quot;index&quot;:null}" fill="#1c1b11" stroke-width="0.5"/><path d="M249.90376,153.06678l-0.04394,-0.05437c-0.10933,-0.19082 -0.1904,-0.4096 -0.2478,-0.61793c0,0 -0.02266,-0.08273 0.10807,-0.11854c0.13073,-0.03581 0.15335,0.04694 0.15335,0.04694c0.05412,0.19891 0.13064,0.41043 0.23678,0.5917l0.03242,0.03789c0,0 0.05771,0.06974 -0.06176,0.1269c-0.11942,0.05715 -0.17713,-0.01256 -0.17713,-0.01256z" data-paper-data="{&quot;index&quot;:null}" fill="#1c1b11" stroke-width="0.5"/><path d="M250.37876,153.10838l-0.04394,-0.05436c-0.10933,-0.19082 -0.1904,-0.4096 -0.24779,-0.61793c0,0 -0.02266,-0.08273 0.10806,-0.11854c0.13073,-0.03581 0.15335,0.04694 0.15335,0.04694c0.05412,0.19891 0.13064,0.41043 0.23678,0.5917l0.03242,0.03789c0,0 0.05771,0.06971 -0.06176,0.12687c-0.11942,0.05715 -0.17713,-0.01256 -0.17713,-0.01256z" data-paper-data="{&quot;index&quot;:null}" fill="#1c1b11" stroke-width="0.5"/><path d="M250.91178,153.04824l-0.04394,-0.05437c-0.10933,-0.19082 -0.1904,-0.4096 -0.24779,-0.61793c0,0 -0.02266,-0.08273 0.10806,-0.11854c0.13073,-0.03581 0.15335,0.04694 0.15335,0.04694c0.05412,0.19891 0.13064,0.41043 0.23679,0.5917l0.03245,0.03788c0,0 0.05768,0.06975 -0.06175,0.1269c-0.11942,0.05715 -0.17713,-0.01256 -0.17713,-0.01256z" data-paper-data="{&quot;index&quot;:null}" fill="#1c1b11" stroke-width="0.5"/><path d="M251.35182,152.96208l-0.04394,-0.05436c-0.10933,-0.19082 -0.1904,-0.4096 -0.2478,-0.61793c0,0 -0.02266,-0.08273 0.10807,-0.11854c0.13073,-0.03581 0.15335,0.04694 0.15335,0.04694c0.05412,0.19891 0.13064,0.41043 0.23678,0.5917l0.03242,0.03789c0,0 0.05771,0.06974 -0.06175,0.1269c-0.11942,0.05715 -0.17713,-0.01256 -0.17713,-0.01256z" data-paper-data="{&quot;index&quot;:null}" fill="#1c1b11" stroke-width="0.5"/><path d="M251.72928,152.77285l-0.04394,-0.05437c-0.10933,-0.19082 -0.1904,-0.4096 -0.24779,-0.61793c0,0 -0.02266,-0.08273 0.10806,-0.11854c0.13073,-0.03581 0.15335,0.04694 0.15335,0.04694c0.05412,0.19891 0.13064,0.41043 0.23679,0.5917l0.03242,0.03789c0,0 0.0577,0.06971 -0.06176,0.12687c-0.11942,0.05715 -0.17713,-0.01256 -0.17713,-0.01256z" data-paper-data="{&quot;index&quot;:null}" fill="#1c1b11" stroke-width="0.5"/><path d="M252.1763,152.52419l-0.04106,-0.04386c-0.09974,-0.15581 -0.17031,-0.33639 -0.21801,-0.50917c0,0 -0.01881,-0.06865 0.11192,-0.10446c0.13073,-0.03581 0.14949,0.03286 0.14949,0.03286c0.04484,0.16503 0.11126,0.33968 0.20827,0.48757l0.03042,0.03048c0,0 0.05397,0.05619 -0.06653,0.10945c-0.12049,0.05325 -0.17448,-0.00287 -0.17448,-0.00287z" data-paper-data="{&quot;index&quot;:null}" fill="#1c1b11" stroke-width="0.5"/><path d="M252.52066,152.21409l-0.03914,-0.03682c-0.09335,-0.13248 -0.15694,-0.28757 -0.19816,-0.43669c0,0 -0.01622,-0.05923 0.11447,-0.09502c0.13073,-0.03581 0.14691,0.02343 0.14691,0.02343c0.03865,0.14246 0.09835,0.29254 0.18926,0.41818l0.02907,0.02554c0,0 0.05149,0.04715 -0.06971,0.09784c-0.12119,0.05069 -0.17272,0.00355 -0.17272,0.00355z" data-paper-data="{&quot;index&quot;:null}" fill="#1c1b11" stroke-width="0.5"/><path d="M252.7598,151.95866l-0.03498,-0.02163c-0.07951,-0.08194 -0.12802,-0.18182 -0.15514,-0.27963c0,0 -0.01065,-0.03887 0.12007,-0.07468c0.13073,-0.03581 0.14134,0.00308 0.14134,0.00308c0.02524,0.09348 0.07036,0.19034 0.14807,0.26781l0.02611,0.01483c0,0 0.04615,0.02753 -0.07661,0.07264c-0.12273,0.0451 -0.16888,0.01757 -0.16888,0.01757z" data-paper-data="{&quot;index&quot;:null}" fill="#1c1b11" stroke-width="0.5"/><path d="M252.81226,168.22222c-1.45221,0.43904 -2.94792,0.49193 -4.44836,0.23793c0,0 -0.39942,-0.06768 -0.33174,-0.4671c0.06771,-0.39942 0.4671,-0.33173 0.4671,-0.33173c1.32927,0.22555 2.651,0.19117 3.93978,-0.17399c-0.11795,-0.30167 -0.20142,-0.61709 -0.24293,-0.93305c-1.54106,0.33109 -3.01714,0.40286 -4.578,0.03089c0,0 -0.39396,-0.09444 -0.29952,-0.4884c0.09444,-0.39393 0.4884,-0.29953 0.4884,-0.29953c1.48837,0.35869 2.90296,0.27587 4.38193,-0.06772c0.04301,-0.34755 0.14835,-0.68088 0.32686,-0.98075c-1.66325,0.31443 -3.43735,0.28544 -4.93015,-0.5317c0,0 -0.35521,-0.19475 -0.16044,-0.55001c0.19477,-0.35525 0.54996,-0.16046 0.54996,-0.16046c1.56733,0.86089 3.52037,0.71778 5.20919,0.26073l0.10758,-0.03813c0,0 0.0936,-0.03221 0.20414,-0.01853c-0.10046,-0.28969 -0.19687,-0.57757 -0.28227,-0.87012c-0.44344,-0.28997 -0.90907,-0.79695 -1.21927,-1.54931c-0.44571,-0.18759 -0.9379,-0.26603 -1.54975,-0.15336c0,0 -0.39866,0.07204 -0.47072,-0.32658c-0.07204,-0.39866 0.32661,-0.47073 0.32661,-0.47073c0.77223,-0.13728 1.38999,-0.03687 1.95429,0.20034c0.20138,-0.03088 0.31915,0.09069 0.37768,0.18176c0.20238,0.10923 0.40059,0.23414 0.59972,0.36956l0.09432,-0.00617l0.00487,0.07438c0.05281,0.03669 0.10576,0.07412 0.15891,0.11208c0.78864,0.09268 1.4636,0.63261 2.09582,1.2825c0.33194,-0.07338 0.68077,-0.09898 1.06272,-0.09202c0.14411,-0.09142 0.30167,-0.16094 0.46691,-0.19738c0.45211,-0.09966 0.89127,-0.08387 1.30149,0.02c0.21844,0.97415 0.51673,1.99135 0.87347,2.97011c-0.0412,0.78241 -0.04581,1.62869 -0.01063,2.48679c-0.09723,0.05674 -0.1936,0.11531 -0.28933,0.17499c-2.29716,0.44546 -4.97369,1.21814 -6.59513,2.08481c-0.82434,0.23175 -1.64437,0.40798 -2.50364,0.58938c0,0 -0.39644,0.08329 -0.47977,-0.31318c-0.08331,-0.39643 0.31318,-0.47977 0.31318,-0.47977c1.0664,-0.2231 2.06477,-0.4387 3.09305,-0.76918c-0.0124,-0.2112 0.00771,-0.45716 0.05275,-0.71745c-0.02003,-0.02964 -0.03976,-0.05959 -0.05912,-0.08991z" data-paper-data="{&quot;index&quot;:null}" fill="#ffffff" stroke-width="0.5"/></g><path d="M234.41795,153.5366c-0.02499,-0.42945 0.05996,-0.83989 0.23046,-1.2039c-0.00023,-0.00383 -0.00046,-0.00766 -0.00069,-0.0115c-0.1141,-1.96054 1.40151,-2.47062 2.05683,-2.59924c4.22924,-2.30029 6.6895,-5.95305 7.43924,-10.81747c0.48141,-2.72455 -0.06578,-4.55721 -0.46949,-7.28027c-0.1821,-1.22821 -0.82302,-2.49724 -0.4879,-3.69278c0.48007,-1.71256 1.10154,-4.00603 2.7968,-4.54399c1.67327,-0.53097 3.48853,0.9808 4.81753,2.12776c2.47288,2.13414 1.80155,6.73902 1.65736,9.51808c-0.31956,6.15896 -0.6255,12.456 -5.20325,17.19648c-1.9379,2.00679 -5.02036,3.29589 -7.29317,4.91082c0,0 -2.03944,1.44592 -3.48537,-0.59351c-0.19846,-0.27992 -0.33126,-0.54866 -0.41268,-0.80402c-0.91152,-0.32998 -1.58581,-1.17736 -1.6457,-2.20647z" data-paper-data="{&quot;index&quot;:null}" fill="#7c5c32" stroke="none" stroke-width="0.5" stroke-linecap="butt"/></g></g></svg>