<svg version="1.1" xmlns="http://www.w3.org/2000/svg" xmlns:xlink="http://www.w3.org/1999/xlink" width="55.27669" height="11.84952" viewBox="0,0,55.27669,11.84952"><g transform="translate(-119.62199,-175.68111)"><g data-paper-data="{&quot;isPaintingLayer&quot;:true}" fill-rule="nonzero" stroke-linecap="butt" stroke-linejoin="miter" stroke-miterlimit="10" stroke-dasharray="" stroke-dashoffset="0" style="mix-blend-mode: normal"><path d="M172.6463,175.85071c1.10457,0 2,0.89543 2,2c0,0.2197 -0.03543,0.43111 -0.10087,0.62886c0.37519,1.67719 0.39122,3.83033 0.10697,5.49264c0.11271,0.1826 0.19688,0.38469 0.24628,0.60005c-0.07286,0.42119 -0.11505,0.84658 -0.12675,1.27356c-0.3141,0.69322 -1.01206,1.17544 -1.82265,1.17544c-0.15166,0 -0.29938,-0.01689 -0.44138,-0.04887c-0.61622,0.25096 -1.25388,0.43114 -1.90801,0.55598c-0.06736,0.00064 -0.13476,0.00141 -0.2022,0.00226c-0.7392,-0.18185 -1.51072,-0.28151 -2.30433,-0.28872c-0.64983,-0.13272 -1.3226,-0.20241 -2.01165,-0.20241c-0.67455,0 -1.3335,0.06679 -1.97061,0.19412c-0.08405,-0.0188 -0.16781,-0.0386 -0.25126,-0.05946h-2.92882c-0.05743,0.01436 -0.11742,0.02848 -0.17978,0.04244c-0.68921,-0.05341 -1.3715,-0.0898 -2.04208,-0.09435c-8.94445,-0.06069 -17.76321,-0.311 -26.8348,-0.30298c-2.09248,0.00185 -6.36078,1.01233 -8.37756,-0.34034c-0.35016,0.28171 -0.79482,0.44134 -1.34733,0.44134c-0.67185,0 -1.27492,-0.52492 -1.75,-1c-1.14179,-1.14179 -0.21156,-3.22348 -0.25,-4.83776c-0.01217,-0.51129 -1.01065,-4.10296 -0.2286,-4.54985l0.41572,-0.23755c1.69479,0.00211 4.35076,-0.1448 6.85512,-0.50998c0.7187,0.09219 1.43255,0.16961 2.12313,0.16658c4.95048,-0.02176 9.90074,-0.11757 14.85124,-0.101c0.22601,0.00075 0.47648,0.09699 0.70301,0.101c4.95665,0.08759 9.87057,0.21732 14.84483,0.20198c3.85415,-0.01189 7.57825,0.13052 11.49811,0.101c0.08822,-0.00066 0.17798,-0.01177 0.2689,-0.02957c0.32814,-0.23565 0.73054,-0.3744 1.16535,-0.3744z" fill="#b85000" stroke="none" stroke-width="0.5"/><path d="M174.31962,176.26788l-0.0183,10.74019l-54.17306,-0.0923l0.0181,-10.62156c0.86085,0.00713 2.00526,-0.0271 3.26615,-0.11307z" fill-opacity="0.42745" fill="#00a67f" stroke="#827700" stroke-width="1"/></g></g></svg>