<svg version="1.1" xmlns="http://www.w3.org/2000/svg" xmlns:xlink="http://www.w3.org/1999/xlink" width="64.21375" height="71.10095" viewBox="0,0,64.21375,71.10095"><g transform="translate(-213.68236,-144.00763)"><g data-paper-data="{&quot;isPaintingLayer&quot;:true}" fill-rule="nonzero" stroke="none" stroke-linecap="butt" stroke-linejoin="miter" stroke-miterlimit="10" stroke-dasharray="" stroke-dashoffset="0" style="mix-blend-mode: normal"><path d="M253.41948,161.2581c0,7.61213 -6.54865,13.78297 -14.62683,13.78297c-8.07817,0 -14.62683,-6.17085 -14.62683,-13.78297c0,-7.61213 6.54865,-13.78297 14.62683,-13.78297c8.07817,0 14.62683,6.17085 14.62683,13.78297z" fill="#ff8800" stroke-width="0"/><path d="M227.66032,152.40553c-0.27348,0.59825 -0.55792,1.18062 -0.83308,1.74472c0,0 -0.1118,0.22361 -0.33541,0.1118c-0.22361,-0.1118 -0.1118,-0.33541 -0.1118,-0.33541c0.22367,-0.43839 0.44907,-0.88859 0.66757,-1.34931c-0.03866,-0.02057 -0.07568,-0.05614 -0.105,-0.1148c-0.1118,-0.22361 0.1118,-0.33541 0.1118,-0.33541l0.25955,-0.12536c0.80315,-1.78287 1.45553,-3.71002 1.48455,-5.71077c0.25567,-0.52883 0.24061,-1.62147 0.62874,-1.99303c0.6109,-0.58481 1.54993,0.09119 2.01533,0.54838c1.30949,1.2864 2.01392,2.68155 3.71143,3.53031c0.45165,0.22583 0.77264,0.38604 1.1334,0.74422l0.36693,0.19341c0.08186,0.04107 0.13805,0.12577 0.13805,0.22359c0,0.11246 -0.07426,0.20758 -0.17641,0.23899l-0.46887,0.15629l-0.02265,-0.06795c-1.22318,0.43823 -2.60215,0.34592 -3.88101,0.65095c-1.65522,0.39479 -2.82425,1.84891 -4.58311,1.88936z" fill="#ff8800" stroke-width="0.5"/><path d="M245.4647,150.45303c-1.27885,-0.30503 -2.65783,-0.21272 -3.88101,-0.65094l-0.02264,0.06794l-0.46888,-0.15629c-0.10216,-0.03142 -0.17641,-0.12654 -0.17641,-0.239c0,-0.09783 0.05618,-0.18252 0.13804,-0.22359l0.36694,-0.19342c0.36076,-0.35818 0.68176,-0.51839 1.13341,-0.74421c1.69751,-0.84876 2.40193,-2.24392 3.71142,-3.53031c0.4654,-0.45719 1.40444,-1.13319 2.01533,-0.54838c0.38813,0.37156 0.37306,1.4642 0.62874,1.99303c0.02902,2.00075 0.6814,3.9279 1.48454,5.71077l0.25955,0.12535c0,0 0.22361,0.11181 0.11181,0.33541c-0.02933,0.05866 -0.06635,0.09422 -0.10501,0.1148c0.21851,0.46072 0.44391,0.91092 0.66757,1.3493c0,0 0.1118,0.22361 -0.1118,0.33541c-0.2236,0.11181 -0.33541,-0.1118 -0.33541,-0.1118c-0.27516,-0.5641 -0.55961,-1.14648 -0.83308,-1.74472c-1.75886,-0.04045 -2.92789,-1.49457 -4.58311,-1.88936z" data-paper-data="{&quot;index&quot;:null}" fill="#ff8800" stroke-width="0.5"/><path d="M255.85728,185.82367c0,12.99758 -7.76603,23.53419 -17.34592,23.53419c-9.57989,0 -17.34592,-10.53662 -17.34592,-23.53419c0,-12.99758 7.76603,-23.53419 17.34592,-23.53419c9.57989,0 17.34592,10.53662 17.34592,23.53419z" fill="#ff8800" stroke-width="0"/><path d="M252.87779,192.16821c0,10.1495 -7.80801,18.3773 -17.43968,18.3773c-9.63167,0 -17.43968,-8.2278 -17.43968,-18.3773c0,-10.1495 7.80801,-18.3773 17.43968,-18.3773c9.63167,0 17.43968,8.2278 17.43968,18.3773z" fill="#ff8800" stroke-width="0"/><path d="M222.34363,178.80048c-3.82993,5.66163 -7.6301,9.78087 -8.48792,9.20058c-0.85782,-0.58029 1.55154,-5.64037 5.38147,-11.302c3.82993,-5.66163 7.6301,-9.78087 8.48792,-9.20058c0.85782,0.58029 -1.55154,5.64037 -5.38147,11.302z" fill="#ff8800" stroke-width="0"/><path d="M248.8803,172.01919c0.85782,-0.58029 4.65799,3.53895 8.48792,9.20058c3.82993,5.66163 6.23929,10.72171 5.38147,11.302c-0.85782,0.58029 -4.658,-3.53895 -8.48792,-9.20058c-3.82993,-5.66163 -6.23929,-10.72171 -5.38147,-11.30201z" data-paper-data="{&quot;index&quot;:null}" fill="#ff8800" stroke-width="0"/><path d="M235.22971,204.0447c0,5.28188 -2.98048,9.5637 -6.65708,9.5637c-3.67661,0 -6.65708,-4.28181 -6.65708,-9.5637c0,-5.28188 2.98048,-9.5637 6.65708,-9.5637c3.67661,0 6.65708,4.28181 6.65708,9.5637z" fill="#ff8800" stroke-width="0"/><path d="M256.54425,203.98156c0,5.28189 -2.98048,9.5637 -6.65709,9.5637c-3.6766,0 -6.65708,-4.28181 -6.65708,-9.5637c0,-5.28188 2.98048,-9.56369 6.65708,-9.56369c3.6766,0 6.65709,4.28181 6.65709,9.56369z" fill="#ff8800" stroke-width="0"/><path d="M224.07206,211.35812c3.9873,0 7.21965,0.83957 7.21965,1.87523c0,1.03566 -3.23235,1.87523 -7.21965,1.87523c-3.9873,0 -7.21965,-0.83957 -7.21965,-1.87523c0,-1.03566 3.23235,-1.87523 7.21965,-1.87523z" fill="#ff8800" stroke-width="0"/><path d="M254.2002,211.29498c3.9873,0 7.21965,0.83957 7.21965,1.87523c0,1.03567 -3.23235,1.87524 -7.21965,1.87524c-3.9873,0 -7.21965,-0.83958 -7.21965,-1.87524c0,-1.03566 3.23235,-1.87523 7.21965,-1.87523z" fill="#ff8800" stroke-width="0"/><path d="M276.81399,179.38943c-2.28591,-0.01074 -3.76103,1.60527 -5.71582,2.55878c-0.68066,0.33201 -1.78125,0.13334 -2.39061,0.53802c-1.77315,1.17755 -4.75046,3.77875 -5.73229,5.7424c-0.97508,1.30831 -2.1542,2.33115 -3.27465,3.45455c-0.46441,0.72289 -0.93943,1.44545 -1.42909,2.13787c-0.33122,1.1489 -0.40053,2.44594 -1.49646,3.2478c-1.42255,1.04083 -3.30508,0.56779 -4.84808,1.21307c0,0 -0.51649,0.2066 -0.83777,-0.18088c-0.97736,-0.00623 -1.98815,-0.07796 -3.00372,-0.07796c0,0 -0.25,0 -0.25,-0.25c0,-0.25 0.25,-0.25 0.25,-0.25c0.93817,0 1.88411,0.07084 2.80349,0.08779c-0.04443,-0.51154 0.48091,-0.72168 0.48091,-0.72168c1.3851,-0.53525 3.29601,-0.19512 4.5281,-1.03721c1.22525,-0.83742 0.99225,-3.23631 1.92548,-4.37269c1.18452,-1.44238 2.73354,-2.52721 3.87582,-4.03925c0.99732,-1.99464 4.37326,-5.12537 6.26921,-6.2591c0.41073,-0.24561 0.91155,-0.28029 1.40236,-0.3311c1.27175,-0.83034 2.27785,-1.32218 3.41568,-1.5952c1.27839,-0.73685 2.54637,-1.33541 4.26919,-1.35332c0.28012,0.0681 0.56024,0.1362 0.84036,0.2043l-0.41136,1.09136l0.04756,0.36385c-0.0561,-0.01452 -0.11219,-0.02903 -0.16829,-0.04355l-0.02486,0.06594c0,0 -0.30424,0 -0.52517,-0.19377z" fill="#ff8800" stroke-width="0.5"/><path d="M237.6676,197.35637c0,-0.41421 0.33579,-0.75 0.75,-0.75c0.41421,0 0.75,0.33579 0.75,0.75c0,0.41421 -0.33579,0.75 -0.75,0.75c-0.41421,0 -0.75,-0.33579 -0.75,-0.75z" fill="#422300" stroke-width="0.5"/><path d="M239.72465,165.07984c-0.72761,0.1819 -0.90951,-0.54571 -0.90951,-0.54571l-0.18752,-0.75009c-0.09205,-0.37865 -0.14944,-0.76648 -0.18051,-1.15633c-0.25312,0.02085 -0.51137,0.03565 -0.77959,0.03672c0,0 -0.75,0 -0.75,-0.75c0,-0.75 0.75,-0.75 0.75,-0.75c0.99253,0.00457 1.83549,-0.181 2.81285,-0.18752h0.37505c0,0 0.75,0 0.75,0.75c0,0.75 -0.75,0.75 -0.75,0.75h-0.37505c-0.18498,-0.00158 -0.36597,0.0042 -0.5447,0.0146c0.02279,0.31368 0.06873,0.62566 0.14716,0.92873l0.18752,0.75009c0,0 0.1819,0.72761 -0.54571,0.90951z" fill="#422300" stroke-width="0.5"/><path d="M243.66835,155.35111c0,-0.41421 0.33579,-0.75 0.75,-0.75c0.41421,0 0.75,0.33579 0.75,0.75c0,0.41421 -0.33579,0.75 -0.75,0.75c-0.41421,0 -0.75,-0.33579 -0.75,-0.75z" fill="#422300" stroke-width="0.5"/><path d="M233.16704,155.53864c0,-0.41421 0.33579,-0.75 0.75,-0.75c0.41421,0 0.75,0.33579 0.75,0.75c0,0.41421 -0.33579,0.75 -0.75,0.75c-0.41421,0 -0.75,-0.33579 -0.75,-0.75z" fill="#422300" stroke-width="0.5"/></g></g></svg>