<svg version="1.1" xmlns="http://www.w3.org/2000/svg" xmlns:xlink="http://www.w3.org/1999/xlink" width="231.29678" height="112.30744" viewBox="0,0,231.29678,112.30744"><g transform="translate(-93.18978,-90.92992)"><g data-paper-data="{&quot;isPaintingLayer&quot;:true}" fill-rule="nonzero" stroke="none" stroke-linecap="butt" stroke-linejoin="miter" stroke-miterlimit="10" stroke-dasharray="" stroke-dashoffset="0" style="mix-blend-mode: normal"><path d="M275.87516,167.39553c-3.45209,18.77321 -23.50554,30.81894 -44.79057,26.90497c-21.2851,-3.91398 -35.74156,-22.30553 -32.28947,-41.07874c3.45209,-18.77321 23.50553,-30.81894 44.79056,-26.90497c21.2851,3.91398 35.74157,22.30552 32.28948,41.07873z" fill="#080318" stroke-width="0"/><path d="M267.12009,153.54633c0.03762,18.0125 -36.54579,32.69111 -81.71151,32.78555c-45.16572,0.09444 -81.81024,-14.43099 -81.84787,-32.44349c-0.03763,-18.0125 36.54578,-32.69111 81.7115,-32.78555c45.16565,-0.09445 81.81026,14.43099 81.84794,32.4435z" fill="#080318" stroke-width="0"/><path d="M317.92984,160.28032c-2.0907,11.36968 -18.68267,17.84726 -37.05923,14.46811c-18.37656,-3.37915 -31.57884,-15.3354 -29.48815,-26.70508c2.09069,-11.36962 18.68266,-17.84726 37.05923,-14.46811c18.37657,3.37915 31.57884,15.33546 29.48815,26.70508z" fill="#080318" stroke-width="0"/><path d="M194.27523,185.88212c1.59578,0.29344 1.30234,1.88922 1.30234,1.88922l-0.39993,2.10781c-0.84901,1.86673 -1.11806,3.4559 -1.48737,5.46429c0,0 -0.29344,1.59578 -1.88922,1.30234c-0.5928,-0.109 -0.92489,-0.39773 -1.10813,-0.71756c-0.74504,-0.25756 -1.21064,-1.02743 -1.06372,-1.82647c0.12118,-0.659 0.62457,-1.15116 1.23931,-1.28987c0.27441,-1.32575 0.61011,-2.57899 1.21321,-3.90515l0.30429,-1.72227c0,0 0.29344,-1.59578 1.88922,-1.30234z" fill="#171103" stroke-width="0.5"/><path d="M232.89414,201.41623c-0.97615,1.29603 -2.2722,0.32001 -2.2722,0.32001l-1.51267,-1.84857c-0.51092,-10.34054 -11.26956,-22.04476 -15.82086,-31.34872c-1.13876,-2.44295 -3.65216,-18.17418 -5.8669,-18.94544c-5.55688,-1.93518 -14.46608,6.38518 -19.99849,5.76743c0,0 -1.59579,-0.29344 -1.30235,-1.88922c0.29344,-1.59578 1.88922,-1.30235 1.88922,-1.30235c4.76406,1.70097 14.70306,-8.26711 20.68999,-5.55857c4.80103,2.17207 5.40422,16.03304 7.51585,20.52766c4.90337,10.02913 15.31049,21.39319 16.13214,32.54448l0.22626,-0.5389c0,0 1.2961,0.97616 0.32001,2.2722z" fill="#171103" stroke-width="0.5"/><path d="M198.48441,200.49873c-1.49053,0.64106 -2.13158,-0.84953 -2.13158,-0.84953l-0.67505,-1.57122c-5.98778,-12.10659 -11.62883,-25.095 -16.39558,-37.78887c-5.57486,-16.52475 -6.80478,-16.61261 -18.28374,-3.767c0,0 -1.1293,1.16499 -2.29427,0.03563c-1.16497,-1.12937 -0.03568,-2.29435 -0.03568,-2.29435c2.07523,-2.03619 12.20468,-13.67911 15.26681,-12.76767c4.02245,1.19724 7.26169,14.31591 8.40417,17.70538c4.70657,12.5858 10.29018,25.54392 16.28265,37.51267l0.71175,1.65339c0,0 0.64104,1.49059 -0.84954,2.13157z" fill="#171103" stroke-width="0.5"/><path d="M157.07555,198.6222c-1.33589,0.92085 -2.25675,-0.41498 -2.25675,-0.41498l-0.54538,-0.8467c-3.56298,-8.38954 -6.29395,-17.97922 -7.58788,-26.98525c-0.49968,-2.52564 -5.00607,-25.1197 -7.36621,-24.57982c-2.87748,0.65816 -7.27978,5.68807 -10.0622,7.62075c0,0 -1.33589,0.92085 -2.25682,-0.41499c-0.92093,-1.33584 0.415,-2.25682 0.415,-2.25682c2.5176,-1.72019 8.64799,-8.37592 11.65209,-8.18421c7.50308,0.47874 9.67829,21.69454 10.81681,27.26845c1.19609,8.68548 3.85479,18.19765 7.37033,26.24985l0.23608,0.28691c0,0 0.92091,1.3359 -0.415,2.25682z" fill="#171103" stroke-width="0.5"/><path d="M264.0932,203.20135c-1.59578,-0.29344 -1.30234,-1.88922 -1.30234,-1.88922l0.43047,-0.37512c-3.28074,-6.11545 -7.3613,-13.99953 -8.76299,-20.74729c-3.05761,-9.27208 -9.92049,-41.64522 -19.07752,-24.97168c0,0 -0.78303,1.42109 -2.20413,0.63813c-1.42109,-0.78303 -0.63812,-2.20413 -0.63812,-2.20413c12.03245,-21.77193 21.39672,14.53336 25.05731,25.70945c1.25565,6.46962 5.33943,14.19229 8.48415,20.04009l-0.09775,2.49741c0,0 -0.29344,1.59579 -1.88922,1.30235z" fill="#171103" stroke-width="0.5"/><path d="M130.87193,190.21717c-1.2961,-0.97616 -0.31994,-2.27219 -0.31994,-2.27219l0.35512,-0.18678c0.44018,-2.3938 0.88037,-4.7876 1.32055,-7.1814c0,0 0.29343,-1.59578 1.88921,-1.30234c1.59578,0.29344 1.30235,1.88922 1.30235,1.88922c-0.44018,2.3938 -0.88036,4.7876 -1.32054,7.1814l-0.95455,1.55214c0,0 -0.97609,1.2961 -2.2722,0.32001z" fill="#171103" stroke-width="0.5"/><path d="M150.45173,190.03216c-1.59578,-0.29344 -1.30234,-1.88922 -1.30234,-1.88922l0.20682,-0.85705c0.55392,-1.218 1.1079,-2.43599 1.66182,-3.65399c0,0 0.67169,-1.477 2.14869,-0.80531c1.47693,0.67168 0.80524,2.14867 0.80524,2.14867c-0.55392,1.218 -1.10784,2.43601 -1.66182,3.654l0.03082,0.10049c0,0 -0.29344,1.59579 -1.88922,1.30235z" fill="#171103" stroke-width="0.5"/><path d="M177.38884,191.4362c-1.42109,-0.78303 -0.63806,-2.20412 -0.63806,-2.20412l0.56815,-0.85865c0.23476,-1.27669 0.46953,-2.55337 0.70428,-3.83006c0,0 0.29344,-1.59579 1.88922,-1.30235c1.59578,0.29344 1.30235,1.88922 1.30235,1.88922c-0.23476,1.27669 -0.46953,2.55338 -0.70429,3.83007l-0.91753,1.83782c0,0 -0.78303,1.42109 -2.20412,0.63806z" fill="#171103" stroke-width="0.5"/><path d="M232.75955,202.69248c-1.59578,-0.29344 -1.30235,-1.88922 -1.30235,-1.88922c0.23476,-1.27669 0.55756,-3.03211 0.79232,-4.3088c0,0 0.29344,-1.59578 1.88922,-1.30234c1.59578,0.29344 1.30234,1.88922 1.30234,1.88922c-0.23476,1.27669 -0.46953,2.55338 -0.70428,3.83007l-0.08803,0.47873c0,0 -0.29344,1.59579 -1.88922,1.30235z" fill="#171103" stroke-width="0.5"/><path d="M290.81626,149.85017c0.16206,-0.88132 1.0079,-1.4644 1.88922,-1.30235c0.88132,0.16206 1.4644,1.0079 1.30235,1.88922c-0.16206,0.88132 -1.0079,1.4644 -1.88922,1.30234c-0.88132,-0.16206 -1.4644,-1.0079 -1.30235,-1.88922z" fill="#170303" stroke-width="0.5"/><path d="M294.64632,150.55445c0.16206,-0.88132 1.0079,-1.4644 1.88922,-1.30235c0.88132,0.16206 1.4644,1.0079 1.30235,1.88922c-0.16206,0.88132 -1.0079,1.4644 -1.88922,1.30235c-0.88132,-0.16206 -1.4644,-1.0079 -1.30235,-1.88922z" fill="#170303" stroke-width="0.5"/><path d="M297.06782,158.91887c0.16206,-0.88132 1.0079,-1.4644 1.88922,-1.30234c0.88132,0.16206 1.4644,1.00789 1.30234,1.88921c-0.16206,0.88132 -1.0079,1.4644 -1.88922,1.30235c-0.88132,-0.16206 -1.4644,-1.0079 -1.30234,-1.88922z" fill="#170303" stroke-width="0.5"/><path d="M301.51414,156.27183c0.16206,-0.88132 1.0079,-1.4644 1.88922,-1.30234c0.88132,0.16206 1.4644,1.0079 1.30234,1.88922c-0.16206,0.88132 -1.0079,1.4644 -1.88922,1.30234c-0.88132,-0.16206 -1.4644,-1.0079 -1.30234,-1.88922z" fill="#170303" stroke-width="0.5"/><path d="M299.56052,153.43785c0.16206,-0.88132 1.0079,-1.4644 1.88922,-1.30235c0.88132,0.16206 1.4644,1.0079 1.30235,1.88922c-0.16206,0.88132 -1.0079,1.4644 -1.88922,1.30234c-0.88132,-0.16206 -1.4644,-1.0079 -1.30235,-1.88922z" fill="#170303" stroke-width="0.5"/><path d="M303.26399,152.1391c0.16206,-0.88132 1.0079,-1.4644 1.88922,-1.30234c0.88132,0.16206 1.4644,1.0079 1.30234,1.88922c-0.16206,0.88132 -1.00789,1.4644 -1.88921,1.30234c-0.88132,-0.16206 -1.4644,-1.0079 -1.30235,-1.88922z" fill="#170303" stroke-width="0.5"/><path d="M305.38282,159.45796c0.16206,-0.88132 1.0079,-1.4644 1.88922,-1.30234c0.88132,0.16206 1.4644,1.00789 1.30235,1.88921c-0.16206,0.88132 -1.0079,1.4644 -1.88922,1.30235c-0.88132,-0.16206 -1.4644,-1.0079 -1.30235,-1.88922z" fill="#170303" stroke-width="0.5"/><path d="M320.6976,172.17299c-0.29344,1.59578 -1.88922,1.30235 -1.88922,1.30235l-0.95753,-0.17607c-4.6847,-0.86144 -7.8688,-1.98344 -11.31911,-5.32816c0,0 -1.16499,-1.1293 -0.03569,-2.29429c1.1293,-1.16499 2.29435,-0.03568 2.29435,-0.03568c2.99,2.89851 5.5646,3.71588 9.64731,4.46662l0.95754,0.17607c0,0 1.59578,0.29344 1.30234,1.88922z" fill="#170c03" stroke-width="0.5"/><path d="M324.45054,167.91368c-0.29344,1.59578 -1.88922,1.30235 -1.88922,1.30235l-2.15461,-1.13086c-0.53889,-1.75655 -2.38435,-1.78852 -4.00732,-2.52625c0,0 -1.47692,-0.67174 -0.80524,-2.14867c0.67169,-1.477 2.14868,-0.80525 2.14868,-0.80525c2.68975,1.22405 4.2866,1.44312 5.64499,4.19813l-0.23963,-0.77866c0,0 1.59578,0.29344 1.30235,1.88922z" fill="#170c03" stroke-width="0.5"/><path d="M105.11023,152.12625c-0.42208,2.29537 1.5726,5.31118 -0.03663,7.00149c-0.06028,0.06335 -5.17829,0.32238 -8.58515,0.53603l-0.75494,0.52042c-0.34188,0.23567 -0.77366,0.34091 -1.21435,0.25987c-0.88132,-0.16206 -1.4644,-1.0079 -1.30234,-1.88922c0.06166,-0.33531 0.22228,-0.62747 0.4462,-0.85184l1.20618,-1.24429l0.01428,0.01385l0.01752,-0.04574c4.9479,-4.43558 6.78903,-11.29359 13.45131,-14.27956c0,0 1.49052,-0.64107 2.13157,0.84953c0.64106,1.49053 -0.84954,2.13158 -0.84954,2.13158c-2.09135,0.84554 -3.69212,2.21096 -5.06815,3.80874c0.25016,0.27637 0.40333,0.63626 0.41925,1.02127l0.1245,1.96919l-0.07585,0.0048z" fill="#03010b" stroke-width="0.5"/><path d="M266.11295,122.70304l-2.33017,-0.07509c-0.82788,-0.52194 -1.60642,-1.0683 -2.35822,-1.6357c0.51284,1.97224 1.01066,3.9486 1.49592,5.92808c0.28718,0.38993 0.57429,0.77993 0.86109,1.17016c0.12454,-0.14912 0.28883,-0.29253 0.50269,-0.42414c0.69734,-0.42913 1.26919,-0.3312 1.68032,-0.10547l-0.00503,-0.01636c0,0 -0.50037,-1.6262 1.08912,-2.16502c-0.02478,-0.96117 -0.05885,-1.9193 -0.10184,-2.87528c-0.42337,0.19882 -0.83388,0.19882 -0.83388,0.19882zM256.76311,117.11019c0,0 -1.32246,-1.14613 -0.17633,-2.46858c1.14613,-1.32246 2.46858,-0.17633 2.46858,-0.17633c1.89017,1.63815 3.72553,3.33209 5.74166,4.81285l1.21567,-0.06937c-0.94793,-1.69084 -1.97232,-3.34094 -2.92734,-4.96447c0,0 -0.88729,-1.50838 0.6211,-2.39567c1.50838,-0.88729 2.39567,0.6211 2.39567,0.6211c0.03079,0.05235 0.06163,0.10471 0.0925,0.15708c-0.25358,-2.39813 -0.55628,-4.80207 -0.90256,-7.22603c0,0 -0.24749,-1.73241 1.48492,-1.9799c1.73241,-0.24749 1.9799,1.48492 1.9799,1.48492c0.00432,0.03021 0.00862,0.06042 0.01293,0.09062c0.48682,0.43996 0.59093,1.0993 0.59093,1.0993c0.56664,3.58872 1.03659,7.16263 1.41173,10.7497c0.04073,-0.0113 0.08277,-0.0218 0.12615,-0.03144c1.70833,-0.37963 2.08796,1.3287 2.08796,1.3287c0.00783,0.03703 0.01549,0.07398 0.02299,0.11086c-0.08891,-2.48095 -0.15694,-4.96664 -0.4322,-7.43785c0,0 -0.19326,-1.7393 1.54604,-1.93255c1.7393,-0.19326 1.93255,1.54604 1.93255,1.54604c0.03073,0.27721 0.05878,0.55466 0.0845,0.83233c1.82585,-6.22647 3.65671,-12.45394 5.2272,-18.73956l0.06265,-0.2506c0,0 0.42444,-1.69775 2.12219,-1.27331c1.69775,0.42444 1.27331,2.12219 1.27331,2.12219l-0.06265,0.2506c-1.17693,4.70504 -2.49826,9.37753 -3.85383,14.04146c2.76045,-4.12621 5.81131,-7.90844 7.96397,-12.46629l0.26915,-0.56841c0,0 0.74894,-1.58164 2.33058,-0.8327c1.58164,0.74894 0.8327,2.33058 0.8327,2.33058l-0.26915,0.56841c-1.16363,2.45145 -2.56822,4.68571 -4.04868,6.86702c0.8401,0.46564 0.8401,1.53855 0.8401,1.53855c0,1.4967 -0.05469,2.8881 -0.17387,4.23713c0.63083,-0.94266 1.23415,-1.88435 1.82924,-2.77713c0,0 0.97073,-1.45609 2.42681,-0.48536c1.23418,0.82279 0.72487,1.99427 0.54097,2.33223c3.38732,-3.02858 6.76912,-6.07126 10.18311,-9.09338l1.12206,-0.99309c0,0 1.31045,-1.15983 2.47029,0.15062c1.15983,1.31045 -0.15062,2.47029 -0.15062,2.47029l-1.12206,0.99309c-6.46153,5.71785 -12.81045,11.50656 -19.29603,17.13803l-0.27494,0.91646c4.81285,-1.87885 9.51945,-4.0178 14.08995,-6.50765l2.31734,-1.61435c0,0 1.43683,-0.99901 2.43584,0.43781c0.99901,1.43683 -0.43781,2.43584 -0.43781,2.43584l-2.47567,1.7182c-3.0203,1.64935 -6.0969,3.15127 -9.22287,4.52922c0.51149,-0.16425 1.02302,-0.33026 1.53433,-0.49873l0.11038,-0.03634c0,0 0.76731,-0.25263 1.43092,0.10674c1.01197,-0.40875 2.02885,-0.80471 3.05228,-1.18345l0.71401,-0.73006c0,0 1.34212,-1.12304 2.46516,0.21908c1.12304,1.34212 -0.21908,2.46516 -0.21908,2.46516l-1.74626,1.3286c-3.81237,1.40839 -7.66806,3.38086 -11.57642,5.25226c4.68005,-0.62457 9.34768,-1.74094 13.511,-3.02886l0.60471,-0.18606c0,0 1.67261,-0.51465 2.18726,1.15796c0.51465,1.67261 -1.15796,2.18726 -1.15796,2.18726l-0.60471,0.18606c-1.60757,0.49217 -3.27819,0.95808 -4.98972,1.38275c0.14527,0.37549 0.14527,0.70851 0.14527,0.70851l-1.32556,2.00159c-6.94064,1.73307 -13.68997,4.80462 -20.9024,3.03841c0,0 -1.69775,-0.42444 -1.27331,-2.12219c0.02514,-0.10056 0.05475,-0.19367 0.0882,-0.27986c-0.72006,0.135 -1.44212,0.24249 -2.16626,0.31873c0,0 -0.49024,0.04902 -0.9765,-0.16508c-0.66783,0.43242 -1.32492,0.88802 -1.97011,1.36954c0.51124,1.13827 0.93494,2.28542 1.27376,3.50767l0.37017,-0.16022l1.11071,2.56618c0.10226,0.22231 0.15928,0.46973 0.15928,0.73047c0,0.9665 -0.7835,1.75 -1.75,1.75c-0.51916,0 -0.98553,-0.22607 -1.30601,-0.58514l-2.33613,-2.5957l0.02912,-0.02621l-0.1104,-0.07096c-0.64431,-0.96387 -1.29985,-1.92004 -1.96366,-2.8705l0.1777,0.74635c0.0369,0.14147 0.05655,0.28992 0.05655,0.44295c0,0.9665 -0.7835,1.75 -1.75,1.75c-0.74197,0 -1.37609,-0.46176 -1.63068,-1.11357l-0.71659,-1.71752l0.06314,-0.02634l-0.1141,-0.11193c-0.62181,-2.67379 -1.25257,-5.3461 -1.90303,-8.01354c-0.76067,-1.03398 -1.52122,-2.06793 -2.27767,-3.10455c0,0 -1.03157,-1.41363 0.38206,-2.44521c0.15239,-0.1112 0.30033,-0.19399 0.44303,-0.25319c-0.26195,-1.01699 -0.52792,-2.03291 -0.79853,-3.04756c0,0 -0.25123,-0.94213 0.3246,-1.60743c-0.32874,-0.28471 -0.65977,-0.57258 -0.99519,-0.86327zM285.27533,107.21765c-0.84114,1.211 -1.6751,2.43613 -2.47343,3.70366c-0.69793,1.10811 -1.34612,2.2711 -1.96494,3.4604c0.139,0.09574 0.25292,0.19824 0.34565,0.30476c0.18804,0.06392 0.38524,0.169 0.58913,0.32758c0.36287,0.28223 0.55628,0.58565 0.64422,0.87964c0.61995,-0.39027 1.20397,-0.83899 1.75781,-1.33188c0.64186,-2.52291 0.98042,-4.78268 1.10157,-7.34417zM279.29371,131.6415c-0.33783,0.10778 -0.67609,0.21102 -1.01479,0.30931c2.88848,0.5054 5.77517,0.12975 8.6386,-0.56257c-2.57826,0.25328 -5.14175,0.35274 -7.62381,0.25326z" fill="#580000" stroke-width="0.5"/></g></g></svg>