<svg version="1.1" xmlns="http://www.w3.org/2000/svg" xmlns:xlink="http://www.w3.org/1999/xlink" width="53.56614" height="38.84432" viewBox="0,0,53.56614,38.84432"><g transform="translate(-149.66529,-121.58938)"><g data-paper-data="{&quot;isPaintingLayer&quot;:true}" fill-rule="nonzero" stroke="none" stroke-width="0.5" stroke-linecap="butt" stroke-linejoin="miter" stroke-miterlimit="10" stroke-dasharray="" stroke-dashoffset="0" style="mix-blend-mode: normal"><path d="M152.24657,146.69927c-0.13394,-0.17143 -0.40229,-0.607 -0.13183,-1.08229c-0.09488,-0.22628 -0.09487,-0.4343 -0.09487,-0.4343l0.2,-0.06488c-1.01143,-1.34857 -3.35879,-3.30771 -1.60701,-5.14101c0.69599,-0.72838 1.99568,-0.27925 2.98941,-0.44488c6.10978,0.00911 12.07755,-1.9592 17.68879,-3.93111c2.25741,-0.79331 4.48809,-0.2865 6.16066,-2.22188c0.08981,-0.25738 0.2604,-0.42798 0.2604,-0.42798l0.57199,-0.55777c1.47963,-1.96769 2.12573,-4.54142 3.55232,-6.43549c2.62516,-3.4854 6.57686,-3.29431 10.16863,-4.26261c0.01582,-0.03766 0.03311,-0.07285 0.05167,-0.10571c0.83776,0.22768 1.71923,0.34919 2.62909,0.34919c0.16986,0 0.33874,-0.00423 0.50653,-0.0126c3.93786,2.16111 4.97708,7.45056 2.31796,11.40357c-1.38611,2.06058 -4.58876,2.88309 -4.48743,5.73006c-0.28111,1.54326 -1.2255,3.96036 -2.62815,4.93968c-0.95481,0.66664 -2.60153,0.8046 -3.53494,1.54327c-4.99198,3.95055 -10.24938,9.05203 -16.84332,10.15835c-2.46179,0.35168 -5.04543,1.57195 -7.54911,1.33811c-0.3583,-0.03346 -0.7083,-0.07634 -1.04983,-0.12859c0.29909,-0.32581 0.48469,-0.67075 0.48469,-1.00307c0,-2.97583 -2.60443,-1.62698 -4.02286,-0.00598c-0.14775,-0.06651 -0.29283,-0.1357 -0.43521,-0.20756c0.13516,-0.15784 0.21498,-0.27072 0.22154,-0.31663c0.3263,-2.28407 -1.10944,-2.19098 -2.52343,-1.29857c-0.25398,-0.24433 -0.49219,-0.50312 -0.71428,-0.77626c0.17788,-0.20643 0.34188,-0.41018 0.48633,-0.60556c0.36227,-0.26249 0.60259,-0.68297 0.61985,-1.16034c0.00877,-0.04988 0.01234,-0.09634 0.01034,-0.139c-0.00306,-0.06537 -0.01459,-0.12685 -0.03337,-0.18499c-0.12669,-0.70014 -0.73932,-1.23116 -1.47598,-1.23116c-0.30077,0 -0.58087,0.08853 -0.81566,0.24094c-0.12118,0.00673 -0.25398,0.03598 -0.39524,0.0849c-0.34872,-1.07858 -0.5445,-2.28195 -0.57768,-3.60788z" fill="#66cfff"/><path d="M197.38554,127.11488c0.78087,-0.6247 1.40556,0.15618 1.40556,0.15618c0.74469,0.94269 4.87232,3.73839 4.40331,5.06537c-0.4638,1.31222 -5.0962,2.23895 -6.21214,1.24637c-1.25077,-1.1125 -0.85576,-2.10272 -0.63692,-3.3204v-1.03688v0c0,-0.46088 0.31179,-0.84894 0.73594,-0.96476c-0.11951,-0.28209 -0.19561,-0.74598 0.30425,-1.14587z" fill="#dbff66"/><path d="M150.76137,157.85767c-0.7071,-0.70711 0,-1.41421 0,-1.41421l0.00026,0.11409c0.07093,-0.17006 0.14559,-0.33137 0.22391,-0.48501c0.98857,-0.26701 2.92796,-2.02205 3.92876,-3.37574c0.03831,-0.02776 0.07526,-0.05728 0.11072,-0.08846c0.18926,0.04184 0.38759,0.15583 0.56786,0.39619c0.19945,0.26593 0.2442,0.50976 0.21506,0.7168c-0.833,0.36316 -1.76143,1.11063 -2.38972,1.8925c-0.42062,0.26572 -0.69998,0.73477 -0.69998,1.26907c0,0.01321 0.00017,0.02638 0.00051,0.0395c-0.01967,0.0885 -0.0368,0.1732 -0.05148,0.25422c-0.01667,0.04052 -0.03291,0.08175 -0.0487,0.1237l-0.44299,0.55734c0,0 -0.70711,0.70711 -1.41422,0z" fill="#dbff66"/><path d="M157.41817,160.32058l-0.47105,0.08241c-0.08558,-0.52264 -0.14907,-0.90653 -0.36044,-1.37538c-0.13674,0.02806 -0.29721,0.02654 -0.48492,-0.02039c-0.82726,-0.20681 -0.77274,-0.94269 -0.73874,-1.15497c0.10832,-0.12779 0.19562,-0.27396 0.25658,-0.43317c1.07183,-0.86702 2.02276,-1.87854 2.0461,-2.04188c0.0279,-0.1953 0.04292,-0.37323 0.04617,-0.53476c0.09384,0.03038 0.19244,0.07775 0.29527,0.14631c0.18535,0.12356 0.30188,0.26089 0.37106,0.39972c-0.22788,0.21153 -0.44063,0.43696 -0.62794,0.66523c-0.43676,0.26221 -0.72902,0.74046 -0.72902,1.28696c0,0.01321 0.00017,0.02638 0.00051,0.0395c-0.10783,0.48522 0.01115,0.79392 0.27274,0.96316c-0.03388,0.09632 -0.11454,0.28448 -0.26921,0.44188c0.22325,0.48746 0.30682,0.9057 0.39639,1.42638c0.02206,0.05498 0.02206,0.10453 0.02206,0.10453l-0.00408,0.00071c0.00023,0.00132 0.00045,0.00265 0.00068,0.00396z" fill="#bfde59"/><path d="M158.53894,159.67993l0.0034,0.08687c0,0 0,0.25 -0.25,0.25c-0.25,0 -0.25,-0.25 -0.25,-0.25l0.0034,-0.00467c-0.101,-0.61679 -0.23233,-0.99272 -0.62737,-1.35328c0.02634,0.01128 0.05368,0.02154 0.08195,0.03081c0.21823,0.20282 0.49696,0.34142 0.80612,0.38575c0.10519,0.24619 0.17634,0.52431 0.23249,0.85453z" fill="#bfde59"/><path d="M155.93309,158.25619c0,0.04835 -0.00935,0.08736 -0.02444,0.11882c0.20755,0.02657 0.20755,0.24739 0.20755,0.24739c-0.00046,0.03954 0.00072,0.07834 0.00324,0.11652l0.16916,0.0022c0.36029,-0.04486 0.67389,-0.17652 0.89615,-0.46187c0,0 0.00404,-0.00484 0.01159,-0.01235c0.08175,0.07665 0.18449,0.13361 0.30397,0.17276c0.03469,0.03224 0.0709,0.06285 0.10852,0.09172c-0.01791,0.04148 -0.03998,0.06796 -0.03998,0.06796c-0.33549,0.38473 -0.7058,0.55796 -1.20955,0.63675l-0.14797,0.00141c0.06394,0.25471 0.12903,0.5058 0.08456,0.79928l-0.11454,0.25381c0,0 -0.11181,0.22361 -0.33541,0.1118c-0.2236,-0.11181 -0.11181,-0.33541 -0.11181,-0.33541l0.06857,-0.1124c0.08655,-0.45945 -0.1823,-0.86153 -0.18651,-1.33219c0,0 0,-0.05987 0.02929,-0.12101c-0.83558,0.26513 -1.00973,0.09991 -0.90945,-0.21025c0.40575,-0.14924 0.72916,-0.46882 0.88354,-0.87205c0.10778,-0.08719 0.21434,-0.17583 0.31885,-0.26493c0.11063,0.14701 -0.01751,0.30078 -0.01751,0.30078c-0.10986,0.13164 -0.30576,0.27784 -0.48006,0.40101c0.05921,0.03388 0.10324,0.09129 0.11933,0.15949l0.12289,-0.00924c0,0 0.25,0 0.25,0.25z" fill="#bfde59"/><path d="M150.77414,156.12768c0.00178,-0.00675 0.00386,-0.01379 0.0063,-0.02099c0.11519,-0.00466 0.25112,-0.04027 0.40285,-0.10189c0.08062,0.07389 0.08062,0.19145 0.08062,0.19145l-0.07322,0.22255c-0.1352,0.1352 -0.3632,0.42162 -0.58244,0.5853c0.18607,0.11774 0.32456,0.29667 0.4102,0.5051c0.01387,-0.03654 0.02958,-0.07312 0.04755,-0.10982l-0.08336,-0.05002l0.13497,-0.22495c0.04318,-0.07489 0.12407,-0.12531 0.21673,-0.12531c0.11246,0 0.20758,0.07426 0.23899,0.17641l0.08525,0.25574c0.07649,-0.26866 0.21913,-0.45382 0.5107,-0.40182c0.02368,-0.012 0.05182,-0.02135 0.08526,-0.02692c0.2466,-0.0411 0.2877,0.2055 0.2877,0.2055c0.02287,0.13736 0.0454,0.27463 0.06548,0.41207c-0.02526,0.32108 0.00201,0.56186 0.07185,0.73459c0.0017,0.05026 0.00258,0.10059 0.00254,0.15102l-0.01114,0.01905l0.0086,0.00143l-0.0451,0.2706c-0.0179,0.1205 -0.12179,0.21295 -0.24727,0.21295c-0.12548,0 -0.22937,-0.09245 -0.24727,-0.21295l-0.0451,-0.2706l0.06667,-0.01111c-0.0178,-0.04756 -0.03507,-0.09652 -0.05126,-0.14613c-0.05101,0.19923 -0.11143,0.38598 -0.16762,0.50486l-0.04057,0.24342c-0.0179,0.1205 -0.12179,0.21295 -0.24727,0.21295c-0.0998,0 -0.18594,-0.05848 -0.22603,-0.14304l-0.13491,-0.26981l0.09317,-0.04659c-0.04364,-0.09819 -0.07417,-0.19604 -0.09651,-0.29613c-0.04806,0.15873 -0.09901,0.29356 -0.13508,0.36806l-0.08562,0.25686c-0.03142,0.10216 -0.12653,0.17641 -0.23899,0.17641c-0.12115,0 -0.22217,-0.08618 -0.24511,-0.20057l-0.09048,-0.40718l0.15226,-0.03384c-0.0697,-0.63697 0.02796,-1.28753 -0.51779,-1.37994l-0.01643,-0.01254l-0.00236,0.00708l-0.26919,-0.08973c-0.10216,-0.03142 -0.17641,-0.12653 -0.17641,-0.23899c0,-0.12548 0.09245,-0.22937 0.21295,-0.24727l0.17636,-0.02939c0.25523,-0.1851 0.48583,-0.38651 0.71954,-0.61588z" fill="#dbff66"/><path d="M156.74227,158.4914c0.17678,-0.17678 0.35355,0 0.35355,0l0.02658,0.04472c0.11366,0.05691 0.22487,0.1176 0.33525,0.17953c-0.34299,-0.29349 -0.64439,-0.58959 -0.82155,-1.11283c0,0 -0.07906,-0.23717 0.15811,-0.31623c0.23717,-0.07906 0.31623,0.15811 0.31623,0.15811c0.23884,0.73036 0.79982,0.9456 1.31289,1.45867l0.07322,0.26833c0,0 0,0.25 -0.25,0.25c-0.00191,0 -0.00381,-0.00001 -0.00569,-0.00004c-0.11194,0.22251 -0.335,0.11098 -0.335,0.11098c-0.34311,-0.1718 -0.66385,-0.37796 -1.00708,-0.54931l-0.15653,-0.13838c0,0 -0.17678,-0.17678 0,-0.35355z" fill="#bfde59"/><path d="M152.70637,150.09431c0.48674,-0.52145 1.14593,-1.30377 1.83151,-1.10679c1.36785,0.39301 1.92288,3.0367 3.18902,3.85052c1.17935,0.75803 7.81001,-0.99112 6.71067,3.40624c-0.34541,1.38163 -2.7344,0.9081 -3.68736,0.6306c-2.43567,-0.70927 -7.67901,-3.14814 -7.84305,-6.10085z" fill="#66cfff"/><path d="M178.4993,139.09719c0.76062,1.23132 0.3409,2.86498 -1.42614,4.3906c-2.1915,1.89209 -5.01656,1.83459 -7.56709,1.1255c-5.22651,-1.45305 -9.80907,-3.21697 -12.27502,-7.75108l-0.29593,0.17756l-0.86593,-1.44322c-0.1196,-0.1917 -0.1887,-0.41815 -0.1887,-0.66074c0,-0.69036 0.55964,-1.25 1.25,-1.25c0.11941,0 0.23491,0.01674 0.34427,0.04801l2.11717,0.55473l-0.00189,0.00722l0.0318,0.00101c3.12038,0.9865 6.27825,1.84044 9.47768,2.41543c2.19579,0.08876 4.38544,0.17447 6.53881,0.65042c0.13507,0.03121 0.26609,0.06517 0.39303,0.10174c0.4188,0.01297 0.83834,0.0196 1.25862,0.0196c0,0 1.25,0 1.25,1.25c0,0.13516 -0.01461,0.2557 -0.04068,0.36321z" fill="#59b4de"/><path d="M192.69348,126.60906c0,-0.69036 0.55964,-1.25 1.25,-1.25c0.69036,0 1.25,0.55964 1.25,1.25c0,0.69036 -0.55964,1.25 -1.25,1.25c-0.69036,0 -1.25,-0.55964 -1.25,-1.25z" fill="#de5c59"/></g></g></svg>