<svg version="1.1" xmlns="http://www.w3.org/2000/svg" xmlns:xlink="http://www.w3.org/1999/xlink" width="40.16764" height="48.70058" viewBox="0,0,40.16764,48.70058"><g transform="translate(-226.29194,-151.68135)"><g data-paper-data="{&quot;isPaintingLayer&quot;:true}" fill-rule="nonzero" stroke="none" stroke-width="0.5" stroke-linecap="butt" stroke-linejoin="miter" stroke-miterlimit="10" stroke-dasharray="" stroke-dashoffset="0" style="mix-blend-mode: normal"><path d="M258.73593,165.25542c0.11228,1.01766 0.37541,2.13829 0.70414,3.22919c-0.06943,1.61791 0.23166,3.62106 0.59879,5.2574c-1.1912,1.92305 -3.30317,3.70225 -5.60974,4.6994c-1.03838,-1.22264 -2.23691,-2.10128 -2.86916,-2.13298c-1.72225,-0.08634 -3.01488,2.3667 -2.96284,4.34496c-0.03205,0.04591 -0.06185,0.09023 -0.08923,0.13286c-2.66089,4.14328 -6.24742,8.1686 -9.95547,11.76292c-0.34421,0.05537 -0.73439,0.16893 -1.17138,0.34972c-1.22434,0.50654 -2.8816,2.24807 -3.98334,4.10367c-0.93907,0.25672 -1.76448,1.06244 -2.34976,1.99609c-0.75385,0.11716 -1.40931,0.48764 -2.10322,1.26296c-0.03333,0.03725 -0.06652,0.07746 -0.09937,0.12033c-1.18408,-0.20094 -2.18343,-1.05115 -2.55342,-2.2209c0.56588,-0.99644 0.91284,-2.29265 0.95937,-2.94341c0.00526,-0.01349 0.01037,-0.02705 0.01534,-0.04066c0.07154,-0.13805 0.11966,-0.27172 0.14718,-0.4008c1.9454,-1.15373 3.87861,-3.21438 4.76248,-5.17217c4.63995,-4.42874 8.42736,-9.43136 12.41058,-14.44257c0.20769,-0.26128 0.42138,-0.52113 0.64228,-0.77233c0.06008,-0.39174 0.1778,-0.76776 0.34541,-1.11755c-1.65832,-11.17657 8.3632,-13.31975 13.16135,-8.01612z" data-paper-data="{&quot;index&quot;:null}" fill="#885c36"/><path d="M231.59664,198.24981c-0.10857,0.12656 -0.21237,0.25889 -0.31094,0.39547c-1.56193,-0.97505 -2.76171,-2.18782 -3.92759,-3.6758c0.02375,-0.06552 0.04221,-0.12996 0.05571,-0.1933c0.10007,-0.05935 0.20011,-0.12109 0.29996,-0.1851c0.01486,0.027 0.02972,0.05402 0.04458,0.08102c1.15011,1.45274 2.30489,2.62948 3.83827,3.57772z" data-paper-data="{&quot;index&quot;:null}" fill="#4c331e"/><path d="M232.66692,188.60354c0.10665,-0.22612 0.33276,-0.11947 0.33276,-0.11947l0.10166,0.04807c0.2055,0.0898 0.40695,0.18926 0.6042,0.29594c1.65034,1.01421 3.3472,2.08793 4.20769,3.87595c-0.15087,0.04755 -0.30843,0.10425 -0.47274,0.17057c-0.81877,-1.66363 -2.43484,-2.6754 -3.98419,-3.61307c-0.18097,-0.09809 -0.36612,-0.18894 -0.55486,-0.2711l-0.11506,-0.05414c0,0 -0.22612,-0.10665 -0.11947,-0.33276z" data-paper-data="{&quot;index&quot;:null}" fill="#4c331e"/><path d="M232.11587,190.07711c0,0 -0.07335,-0.03459 -0.11679,-0.10614c0.06338,-0.12333 0.12288,-0.24651 0.17826,-0.36928c0.08103,-0.0102 0.15181,0.02319 0.15181,0.02319l0.09748,0.04629c1.79357,0.74836 3.38777,1.91284 4.50032,3.4593c-0.13562,0.08103 -0.2746,0.17381 -0.41585,0.2771c-1.05582,-1.46394 -2.57243,-2.57285 -4.276,-3.27453l-0.11923,-0.05593z" data-paper-data="{&quot;index&quot;:null}" fill="#b97b48"/><path d="M231.37415,191.06145c1.66891,0.46516 3.24873,1.63718 4.47293,2.89284c-0.12023,0.10952 -0.24086,0.22491 -0.36129,0.34547c-1.11881,-1.14783 -2.54221,-2.2231 -4.05841,-2.70138c-0.0944,0.03177 -0.18951,-0.00972 -0.18951,-0.00972c-0.07005,-0.03057 -0.14032,-0.06072 -0.2108,-0.09034c0.11184,-0.14768 0.21946,-0.29668 0.32237,-0.44655l0.02473,0.00968z" data-paper-data="{&quot;index&quot;:null}" fill="#b97b48"/><path d="M234.5901,195.29732c-1.30122,-1.17049 -2.50127,-2.36402 -4.07158,-3.17006c0.11215,-0.13024 0.22135,-0.26214 0.32724,-0.39532c1.55857,0.81665 2.76551,2.01315 4.06649,3.18292c-0.10853,0.12425 -0.21606,0.25191 -0.32212,0.38246z" data-paper-data="{&quot;index&quot;:null}" fill="#b97b48"/><path d="M233.87796,196.25114c-1.38071,-0.95625 -2.57322,-2.72028 -3.98345,-3.4469c0.11489,-0.11658 0.22771,-0.23519 0.33817,-0.35552c1.40742,0.83592 2.51508,2.48377 3.9289,3.40291c-0.09661,0.13136 -0.19129,0.26468 -0.28362,0.3995z" data-paper-data="{&quot;index&quot;:null}" fill="#b97b48"/><path d="M233.55299,196.74761c-0.05288,0.08467 -0.10467,0.16968 -0.15529,0.25495c-0.07722,0.02111 -0.15367,0.04594 -0.22929,0.07424c-1.3665,-1.14586 -2.74757,-2.35532 -4.13242,-3.47257c0.1269,-0.10842 0.25238,-0.21974 0.37608,-0.33365c1.38759,1.12034 2.77045,2.33202 4.14093,3.47703z" data-paper-data="{&quot;index&quot;:null}" fill="#b97b48"/><path d="M228.39684,194.11636c1.42702,0.93885 2.42416,2.48883 3.8003,3.53898c-0.12792,0.10582 -0.25155,0.22057 -0.37042,0.34257c-1.38183,-1.08137 -2.41325,-2.61118 -3.8632,-3.57183c0.1452,-0.09881 0.28979,-0.2022 0.43331,-0.30973z" data-paper-data="{&quot;index&quot;:null}" fill="#b97b48"/><path d="M252.00382,176.78122c-0.26442,-0.15614 -0.55123,-0.3046 -0.84357,-0.44716c-0.17416,0.03129 -0.34273,0.08825 -0.50462,0.16734c-0.75104,-0.55494 -1.50663,-1.10353 -2.2877,-1.62248c-0.01532,-0.00708 -0.03067,-0.01424 -0.04603,-0.02148l-0.12946,-0.08997c0,0 -0.00828,-0.00613 -0.02022,-0.01759c-0.48103,-0.3147 -0.97228,-0.61755 -1.47854,-0.90321c-2.54055,-1.4365 -4.65552,-3.46459 -7.44676,-4.37771c-0.70773,-0.32656 -0.47346,-1.72733 -0.3603,-2.51004c0.34689,-2.39951 0.97414,-4.5823 1.73005,-6.89154c0.96907,-2.95911 1.94897,-5.49128 5.01531,-6.82941c2.01518,-1.36538 4.9,-1.5418 7.26418,-1.55662c0,0 0.22279,-0.0012 0.24886,0.20899c0.15901,0.03158 0.18542,0.20955 0.18542,0.20955l-0.00501,0.01704c0.23319,0.56363 0.4946,1.1164 0.84603,1.61691c1.46777,2.5224 3.23824,4.95018 4.25285,7.77308c0.04242,0.11819 0.08394,0.23752 0.12457,0.35791c0.18939,0.011 0.21949,0.21385 0.21949,0.21385l0.03379,0.22776c0.40795,2.74945 0.77877,5.48378 1.39883,8.18455c1.02674,2.46936 1.58378,5.11882 1.97637,7.76472c0,0 0.01156,0.07795 -0.02205,0.15282c0.16228,0.59234 0.32106,1.17915 0.47009,1.75737c0.71393,2.76997 3.23334,5.48773 3.66037,8.29115l0.03382,-0.01399l0.11883,0.28725c0.00878,0.01997 0.01506,0.04144 0.01842,0.06406c0.02026,0.13657 -0.07403,0.26372 -0.2106,0.28399c-0.0872,0.01294 -0.17055,-0.02081 -0.22469,-0.08246l-0.17235,-0.19055c-1.60697,-1.26238 -3.15267,-2.54066 -4.79717,-3.75824c-2.08645,-1.3573 -3.62041,-3.30157 -5.44067,-4.89749c-0.00517,-0.00957 -0.01036,-0.01913 -0.01558,-0.02867c-0.03232,-0.0215 -0.05136,-0.04253 -0.05136,-0.04253c-0.85186,-0.98312 -2.07923,-2.28949 -3.30426,-3.28269c-0.11413,0.05665 -0.23635,-0.01455 -0.23635,-0.01455z" data-paper-data="{&quot;index&quot;:null}" fill="#929292"/></g></g></svg>