<svg version="1.1" xmlns="http://www.w3.org/2000/svg" xmlns:xlink="http://www.w3.org/1999/xlink" width="85.41109" height="86.39494" viewBox="0,0,85.41109,86.39494"><g transform="translate(-193.60079,-127.81757)"><g data-paper-data="{&quot;isPaintingLayer&quot;:true}" fill-rule="nonzero" stroke="none" stroke-width="0.5" stroke-linecap="butt" stroke-linejoin="miter" stroke-miterlimit="10" stroke-dasharray="" stroke-dashoffset="0" style="mix-blend-mode: normal"><path d="M215.85393,172.50955c5.27997,-1.70666 11.77417,2.34879 14.86548,6.35224c0.64102,0.67676 1.10572,1.29266 1.67099,2.01496c0.16677,0.04928 0.33329,0.10155 0.49941,0.15814l0.17017,0.05797c0,0 0.56717,0.19321 0.37396,0.76038c-0.02366,0.06944 -0.05292,0.12749 -0.08606,0.17588c-0.00679,0.09665 -0.02987,0.16443 -0.02987,0.16443l-0.05797,0.17016c-1.61266,4.73401 -4.0739,9.15773 -5.63184,13.7311c-3.00032,4.65763 -9.75724,7.60877 -14.78614,9.24946c-1.9302,0.68799 -9.05198,-0.66267 -9.95027,0.07016c-1.43178,1.16804 3.06429,3.82077 -0.5862,5.51344c-2.34909,-0.34545 -8.87895,-8.15246 -8.70125,-10.5851c0,0 0.03186,-0.38125 0.3493,-0.50901c0.07268,-0.1248 0.16915,-0.19883 0.16915,-0.19883l0.51422,-0.39456c0.33298,-0.25548 0.66614,-0.51066 0.99959,-0.76551c3.96272,-3.92279 9.01878,-7.20038 10.91082,-12.75451c2.86226,-4.46885 7.04456,-7.37083 8.85078,-12.61652c0.00949,-0.04607 0.02269,-0.08749 0.03882,-0.1247c0.0441,-0.34803 0.41692,-0.4696 0.41692,-0.4696z" fill="#888b44"/><g><path d="M253.78288,133.38219c-0.03234,-0.01032 -0.06611,-0.03024 -0.09988,-0.064c-0.16459,-0.16459 0,-0.32919 0,-0.32919l0.27421,-0.17779c0.56801,0.0108 0.95303,0.13643 1.10715,0.53748l0.10761,-0.02152l0.05387,0.26932c0.00358,0.01621 0.00547,0.03307 0.00547,0.05036c0,0.12856 -0.10422,0.23277 -0.23278,0.23277c-0.0391,0 -0.07595,-0.00964 -0.10829,-0.02667l-0.19394,-0.09697c-0.28468,-0.05449 -0.52606,-0.10104 -0.78838,-0.22977c0,0 -0.09602,-0.04801 -0.12504,-0.14402z" fill="#e2e3a2"/><path d="M249.4021,146.23676c-1.51363,0.42847 -5.81485,0.89026 -7.06467,-0.03842c-1.51121,-1.12291 -1.06827,-6.36284 -0.99856,-8.00258c0.02146,-0.50478 -0.24655,-1.97078 0.21563,-2.23488l0.41774,-0.23871c0.08635,-0.42934 0.21599,-0.83023 0.39013,-1.18509c0.3514,-0.71611 0.98492,-1.2738 1.31195,-2.00137c0.73676,-1.63909 1.71383,-3.34137 3.44061,-4.18752c1.70804,-0.83697 4.09479,-0.50459 5.89099,-0.21062c0,0 0.08441,0.01406 0.20364,0.05746l0.15625,0.01623c3.82718,1.65824 7.14938,6.09166 6.39767,10.37975c-0.0786,0.44839 -0.20585,0.92249 -0.38313,1.38854c-0.20417,0.03021 -0.41281,0.0183 -0.62649,0.01316c-0.62713,-0.37902 -1.26151,-0.77298 -1.82964,-1.18543c-0.01781,-0.01963 -0.03224,-0.03045 -0.03224,-0.03045c-0.14343,-0.10755 -0.2723,-0.21242 -0.40907,-0.30539c-0.0079,-0.00633 -0.01577,-0.01266 -0.02363,-0.019c0,0 -0.02044,-0.01636 -0.05311,-0.03124c-0.10248,-0.06439 -0.21137,-0.12154 -0.3354,-0.16788c-0.15911,-0.13766 -0.34178,-0.24771 -0.53717,-0.32904c-0.01981,-0.03571 -0.04165,-0.05755 -0.04165,-0.05755l-0.17375,-0.11846c-0.50352,-0.09873 -1.00328,-0.20384 -1.50389,-0.2971c-0.03752,-0.04432 -0.08185,-0.06649 -0.08185,-0.06649l-0.12726,-0.06273c-0.21195,-0.0847 -0.70565,-0.34618 -1.13116,-0.42959c-0.07629,-0.03821 -0.15031,-0.07501 -0.22387,-0.1097c-0.02093,-0.04119 -0.04659,-0.06686 -0.04659,-0.06686l-0.13295,-0.10634c-0.44871,-0.17789 -0.86708,-0.31209 -1.31535,-0.49326c0,0 -0.21613,-0.08645 -0.30258,0.12968c-0.06429,0.16071 0.03874,0.24971 0.09579,0.28479c0.00738,0.04145 0.02175,0.07018 0.02175,0.07018c0.10555,0.1927 0.2778,0.37187 0.4768,0.53279c0.10265,0.24087 0.21602,0.45856 0.35388,0.68861l0.07428,0.03987c0.36514,0.98196 1.14629,1.84795 2.08106,2.3235l0.08785,0.15111c0.03976,0.07135 0.11598,0.11961 0.20346,0.11961c0.02744,0 0.05377,-0.00475 0.07822,-0.01346c0.33914,0.59801 0.87966,1.34538 1.4823,1.95403c0.02487,0.06262 0.04792,0.12019 0.06867,0.17203c0.07272,0.18049 0.14954,0.35923 0.23048,0.53603c0.01031,0.06378 0.0183,0.12789 0.0245,0.19235c-0.70353,0.18096 -1.46241,0.2796 -2.23771,0.32936c-0.7843,1.16048 -3.25359,2.37274 -4.09196,2.61006z" fill="#888b44"/><path d="M253.64708,137.91349c-0.00061,0.00102 -0.00121,0.00205 -0.0018,0.00308c-0.00405,-0.00203 -0.00811,-0.00405 -0.01216,-0.00608c0.00465,0.001 0.0093,0.002 0.01395,0.003z" fill="#888b44"/><path d="M251.80622,136.88041c0,-0.12856 0.10422,-0.23278 0.23278,-0.23278c0.12856,0 0.23277,0.10422 0.23277,0.23278c0,0.12856 -0.10421,0.23278 -0.23277,0.23278c-0.12856,0 -0.23278,-0.10422 -0.23278,-0.23278z" fill="#c0c649"/><path d="M253.01196,137.15445c0,-0.12856 0.10422,-0.23278 0.23278,-0.23278c0.12856,0 0.23277,0.10422 0.23277,0.23278c0,0.12856 -0.10421,0.23278 -0.23277,0.23278c-0.12856,0 -0.23278,-0.10422 -0.23278,-0.23278z" fill="#c0c649"/><path d="M253.56002,137.26406c0,-0.12856 0.10422,-0.23278 0.23278,-0.23278c0.10761,0 0.19816,0.07302 0.22482,0.17222c0.04159,-0.03884 0.09744,-0.0626 0.15883,-0.0626c0.12856,0 0.23277,0.10421 0.23277,0.23277c0,0.12856 -0.10421,0.23278 -0.23277,0.23278c-0.10761,0 -0.19816,-0.07302 -0.22482,-0.17221c-0.04159,0.03884 -0.09744,0.0626 -0.15883,0.0626c-0.12856,0 -0.23278,-0.10422 -0.23278,-0.23277z" fill="#c0c649"/><path d="M254.38211,137.59289c0,-0.12856 0.10422,-0.23277 0.23277,-0.23277c0.11295,0 0.20712,0.08046 0.22831,0.18718c0.03043,-0.0146 0.06452,-0.02277 0.10053,-0.02277c0.12856,0 0.23277,0.10422 0.23277,0.23278c0,0.12856 -0.10422,0.23277 -0.23277,0.23277c-0.11295,0 -0.20712,-0.08046 -0.22831,-0.18718c-0.03043,0.0146 -0.06453,0.02276 -0.10053,0.02276c-0.12856,0 -0.23277,-0.10422 -0.23277,-0.23277z" fill="#c0c649"/><path d="M255.53304,138.03135c0,-0.12856 0.10422,-0.23278 0.23278,-0.23278c0.12856,0 0.23277,0.10422 0.23277,0.23278c0,0.12856 -0.10422,0.23277 -0.23277,0.23277c-0.12856,0 -0.23278,-0.10421 -0.23278,-0.23277z" fill="#c0c649"/><path d="M256.19071,138.36018c0,-0.12856 0.10422,-0.23277 0.23277,-0.23277c0.12856,0 0.23278,0.10422 0.23278,0.23277c0,0.12856 -0.10422,0.23278 -0.23278,0.23278c-0.12856,0 -0.23277,-0.10422 -0.23277,-0.23278z" fill="#c0c649"/><path d="M256.68397,138.90824c0,-0.12856 0.10422,-0.23277 0.23277,-0.23277c0.12856,0 0.23278,0.10421 0.23278,0.23277c0,0.12856 -0.10422,0.23278 -0.23278,0.23278c-0.12856,0 -0.23277,-0.10422 -0.23277,-0.23278z" fill="#c0c649"/><path d="M257.45125,139.34669c0,-0.12856 0.10422,-0.23278 0.23278,-0.23278c0.12856,0 0.23278,0.10422 0.23278,0.23278c0,0.12856 -0.10422,0.23277 -0.23278,0.23277c-0.12856,0 -0.23278,-0.10422 -0.23278,-0.23277z" fill="#c0c649"/><path d="M257.99931,139.62072c0,-0.12856 0.10422,-0.23277 0.23278,-0.23277c0.12856,0 0.23277,0.10421 0.23277,0.23277c0,0.12856 -0.10421,0.23278 -0.23277,0.23278c-0.12856,0 -0.23278,-0.10422 -0.23278,-0.23278z" fill="#c0c649"/><path d="M258.54738,140.00437c0,-0.12856 0.10421,-0.23278 0.23277,-0.23278c0.12856,0 0.23278,0.10422 0.23278,0.23278c0,0.12856 -0.10422,0.23277 -0.23278,0.23277c-0.12856,0 -0.23277,-0.10422 -0.23277,-0.23277z" fill="#c0c649"/><path d="M252.00599,138.33543c-0.13967,0.18622 -0.32588,0.04655 -0.32588,0.04655l-0.21922,-0.16442c0,0 -0.18622,-0.13966 -0.04656,-0.32588c0.13967,-0.18622 0.32588,-0.04656 0.32588,-0.04656l0.21922,0.16442c0,0 0.18622,0.13966 0.04656,0.32588z" fill="#c0c649"/><path d="M251.75142,138.68902c0,-0.12856 0.10422,-0.23277 0.23278,-0.23277c0.12856,0 0.23277,0.10422 0.23277,0.23277c0,0.12856 -0.10422,0.23278 -0.23277,0.23278c-0.12856,0 -0.23278,-0.10422 -0.23278,-0.23278z" fill="#c0c649"/><path d="M252.29948,139.18228c0,-0.12856 0.10422,-0.23278 0.23277,-0.23278c0.12856,0 0.23277,0.10422 0.23277,0.23278c0,0.12856 -0.10422,0.23277 -0.23277,0.23277c-0.12856,0 -0.23277,-0.10422 -0.23277,-0.23277z" fill="#c0c649"/><path d="M252.90235,139.78514c0,-0.10765 0.07308,-0.19824 0.17234,-0.22485c0.01074,-0.04008 0.03191,-0.07588 0.06043,-0.10434c0.04211,-0.04202 0.10023,-0.068 0.16442,-0.068c0.12856,0 0.23278,0.10421 0.23278,0.23277c0,0.10765 -0.07308,0.19824 -0.17234,0.22485c-0.02661,0.09926 -0.1172,0.17234 -0.22486,0.17234c-0.12856,0 -0.23277,-0.10421 -0.23277,-0.23277z" fill="#c0c649"/><path d="M253.50521,140.22359c0,-0.12856 0.10422,-0.23277 0.23278,-0.23277c0.12856,0 0.23278,0.10422 0.23278,0.23277c0,0.12856 -0.10422,0.23278 -0.23278,0.23278c-0.12856,0 -0.23278,-0.10422 -0.23278,-0.23278z" fill="#c0c649"/><path d="M254.05327,140.77165c0,-0.12856 0.10422,-0.23278 0.23278,-0.23278c0.12856,0 0.23277,0.10422 0.23277,0.23278c0,0.12856 -0.10421,0.23277 -0.23277,0.23277c-0.12856,0 -0.23278,-0.10421 -0.23278,-0.23277z" fill="#c0c649"/><path d="M254.43692,141.2649c0,-0.12856 0.10421,-0.23277 0.23277,-0.23277c0.12856,0 0.23278,0.10422 0.23278,0.23277c0,0.12856 -0.10422,0.23277 -0.23278,0.23277c-0.12856,0 -0.23277,-0.10422 -0.23277,-0.23277z" fill="#c0c649"/><path d="M254.87536,141.70336c0,-0.12856 0.10422,-0.23278 0.23278,-0.23278c0.12856,0 0.23277,0.10422 0.23277,0.23278c0,0.12856 -0.10422,0.23277 -0.23277,0.23277c-0.12856,0 -0.23278,-0.10421 -0.23278,-0.23277z" fill="#c0c649"/><path d="M255.25901,142.19661c0,-0.12856 0.10422,-0.23278 0.23278,-0.23278c0.12856,0 0.23278,0.10422 0.23278,0.23278c0,0.12856 -0.10422,0.23277 -0.23278,0.23277c-0.12856,0 -0.23278,-0.10421 -0.23278,-0.23277z" fill="#c0c649"/><path d="M255.53304,142.74467c0,-0.12856 0.10422,-0.23278 0.23278,-0.23278c0.12856,0 0.23277,0.10422 0.23277,0.23278c0,0.12856 -0.10422,0.23278 -0.23277,0.23278c-0.12856,0 -0.23278,-0.10422 -0.23278,-0.23278z" fill="#c0c649"/><path d="M252.29948,137.04484c0,-0.12856 0.10422,-0.23278 0.23277,-0.23278c0.12856,0 0.23277,0.10422 0.23277,0.23278c0,0.12856 -0.10422,0.23278 -0.23277,0.23278c-0.12856,0 -0.23277,-0.10422 -0.23277,-0.23278z" fill="#c0c649"/><path d="M249.06592,135.61988c0,-0.12856 0.10422,-0.23278 0.23278,-0.23278c0.01525,0 0.03017,0.00147 0.0446,0.00427c0.12545,-0.04024 0.2296,0.06391 0.2296,0.06391l0.04912,0.06601c0.24235,0.12225 0.38627,0.26223 0.65403,0.30878c0,0 0.02764,0.00553 0.06176,0.02235c0.05663,-0.02687 0.11182,-0.02687 0.11182,-0.02687c0.47308,0.00899 0.83746,0.25423 1.25503,0.46302l0.00551,-0.02457c0,0 0.23278,0 0.23278,0.23278c0,0.23278 -0.23278,0.23277 -0.23278,0.23277l-0.21371,-0.02457c-0.32352,-0.16176 -0.65786,-0.41221 -1.02041,-0.41418c0.16479,0.23714 0.3581,0.45227 0.54537,0.68171c0.12298,0.00967 0.18447,0.13265 0.18447,0.13265l0.16233,0.32465c0.01703,0.03234 0.02667,0.0692 0.02667,0.10829c0,0.12856 -0.10422,0.23278 -0.23278,0.23278c-0.07712,0 -0.14549,-0.03751 -0.18785,-0.09528l-0.16279,-0.21706c-0.32915,-0.43887 -0.69949,-0.79623 -0.94555,-1.27997c-0.14757,-0.06897 -0.27646,-0.15397 -0.45209,-0.24087l-0.09534,-0.08587c-0.00653,0.00055 -0.01313,0.00083 -0.01979,0.00083c-0.12856,0 -0.23278,-0.10422 -0.23278,-0.23278z" fill="#9a0000"/><path d="M251.97064,136.716c0,-0.12856 0.10421,-0.23277 0.23277,-0.23277c0.12856,0 0.23278,0.10422 0.23278,0.23277c0,0.12856 -0.10422,0.23277 -0.23278,0.23277c-0.12856,0 -0.23277,-0.10422 -0.23277,-0.23277z" fill="#9a0000"/><path d="M252.68312,136.82561c0,-0.12856 0.10421,-0.23278 0.23277,-0.23278c0.12856,0 0.23278,0.10422 0.23278,0.23278c0,0.12856 -0.10422,0.23277 -0.23278,0.23277c-0.12856,0 -0.23277,-0.10421 -0.23277,-0.23277z" fill="#9a0000"/><path d="M253.99847,137.09964c0,-0.12856 0.10422,-0.23277 0.23278,-0.23277c0.12856,0 0.23277,0.10422 0.23277,0.23277c0,0.12856 -0.10422,0.23277 -0.23277,0.23277c-0.12856,0 -0.23278,-0.10422 -0.23278,-0.23277z" fill="#9a0000"/><path d="M254.54653,137.42848c0,-0.12856 0.10422,-0.23277 0.23277,-0.23277c0.12856,0 0.23277,0.10422 0.23277,0.23277c0,0.12856 -0.10422,0.23278 -0.23277,0.23278c-0.12856,0 -0.23277,-0.10422 -0.23277,-0.23278z" fill="#9a0000"/><path d="M252.24467,139.56592c0,-0.12856 0.10422,-0.23278 0.23277,-0.23278c0.12856,0 0.23277,0.10422 0.23277,0.23278c0,0.12856 -0.10422,0.23278 -0.23277,0.23278c-0.12856,0 -0.23277,-0.10422 -0.23277,-0.23278z" fill="#9a0000"/><path d="M252.68312,139.89475c0,-0.12856 0.10421,-0.23277 0.23277,-0.23277c0.12856,0 0.23278,0.10422 0.23278,0.23277c0,0.12856 -0.10422,0.23278 -0.23278,0.23278c-0.12856,0 -0.23277,-0.10422 -0.23277,-0.23278z" fill="#9a0000"/><path d="M253.23118,140.22359c0,-0.12856 0.10421,-0.23277 0.23277,-0.23277c0.12856,0 0.23278,0.10422 0.23278,0.23277c0,0.12856 -0.10422,0.23278 -0.23278,0.23278c-0.12856,0 -0.23277,-0.10422 -0.23277,-0.23278z" fill="#9a0000"/><path d="M256.04943,141.95859l-0.01845,0.02153l-0.13155,-0.11275c-0.02247,-0.01904 -0.03764,-0.04645 -0.04066,-0.07741c-0.182,-0.11268 -0.3579,-0.19372 -0.49405,-0.34385c-0.01761,0.04189 -0.05904,0.0713 -0.10734,0.0713c-0.05126,0 -0.09478,-0.03314 -0.1103,-0.07916l-0.00468,-0.01288c-0.06555,0.01385 -0.13133,0.0374 -0.19665,0.07203l-0.00586,0.00469l0.01095,0.0219l-0.01305,0.00653c0.10509,0.02246 0.1839,0.11584 0.1839,0.22763c0,0.12856 -0.10422,0.23278 -0.23278,0.23278c-0.12856,0 -0.23277,-0.10422 -0.23277,-0.23278c0,-0.0703 0.03117,-0.13334 0.08044,-0.17602c-0.03982,-0.01848 -0.06743,-0.05883 -0.06743,-0.10562c0,-0.03716 0.01741,-0.07024 0.04452,-0.09155l0.08818,-0.07054c-0.08155,-0.0835 -0.18416,-0.14987 -0.29411,-0.17628l-0.064,0.0512c-0.02003,0.0163 -0.04559,0.02608 -0.07343,0.02608c-0.06428,0 -0.11639,-0.05211 -0.11639,-0.11639c0,-0.03716 0.01741,-0.07024 0.04452,-0.09155l0.06033,-0.04827c-0.02104,-0.11955 -0.0695,-0.22596 -0.16925,-0.25339h-0.00301l-0.00253,0.0177l-0.06457,-0.00922c0.04352,0.04229 0.07056,0.10146 0.07056,0.16695c0,0.12856 -0.10421,0.23278 -0.23277,0.23278c-0.12856,0 -0.23278,-0.10422 -0.23278,-0.23278c0,-0.10509 0.06964,-0.1939 0.16528,-0.22283c-0.04114,-0.01794 -0.0699,-0.05898 -0.0699,-0.10673c0,-0.00143 0.00003,-0.00284 0.00008,-0.00426c-0.03355,-0.01114 -0.07557,-0.03905 -0.07557,-0.10899c0,-0.11639 0.11638,-0.11639 0.11638,-0.11639c1.23397,0 1.94494,-0.01097 2.94803,0.71054c0.59224,0.70926 0.66649,1.68176 1.276,2.38264c0.08236,0.073 0.16271,0.14935 0.24024,0.23066l0.0043,-0.00861l0.11099,0.05549c0.03936,0.01866 0.0666,0.05877 0.0666,0.10523c0,0.06428 -0.05211,0.11639 -0.11639,0.11639c-0.01382,0 -0.02708,-0.00241 -0.03938,-0.00683l-0.11067,-0.03689l0.00326,-0.00977l-0.02208,0.00159c-0.03073,-0.02394 -0.0604,-0.04837 -0.08907,-0.07325c-0.17766,-0.03454 -0.44288,-0.21401 -0.54928,-0.29547c-0.56371,-0.43156 -0.88117,-0.76818 -1.25176,-1.29644c-0.10118,-0.06794 -0.19504,-0.14367 -0.28207,-0.23877zM256.35186,141.80499c-0.00844,-0.01019 -0.01686,-0.02023 -0.02525,-0.0301l0.00149,0.00744c0.00419,0.00563 0.00834,0.01128 0.01246,0.01695c0.00375,0.00188 0.00752,0.00378 0.0113,0.0057z" fill="#9a0000"/><path d="M254.82056,143.18312c0,-0.12856 0.10421,-0.23278 0.23277,-0.23278c0.01566,0 0.03096,0.00155 0.04576,0.0045c-0.00295,-0.01479 -0.0045,-0.0301 -0.0045,-0.04576c0,-0.06894 0.02996,-0.13086 0.07757,-0.17349c-0.01325,-0.02764 -0.02121,-0.0583 -0.02256,-0.09067c-0.01345,0.00242 -0.02731,0.00368 -0.04146,0.00368c-0.00927,0 -0.01842,-0.00054 -0.0274,-0.00159c-0.00898,0.00106 -0.01814,0.00159 -0.02741,0.00159c-0.12856,0 -0.23277,-0.10422 -0.23277,-0.23278c0,-0.03963 0.00991,-0.07694 0.02737,-0.10961c-0.01746,-0.03267 -0.02737,-0.06998 -0.02737,-0.10961c0,-0.12856 0.10421,-0.23278 0.23277,-0.23278c0.12856,0 0.23278,0.10422 0.23278,0.23278c0,0.02086 -0.00274,0.04107 -0.00789,0.0603c0.03679,0.03937 0.06009,0.09151 0.06249,0.14906c0.01346,-0.00242 0.02731,-0.00368 0.04146,-0.00368c0.12856,0 0.23278,0.10422 0.23278,0.23278c0,0.04192 -0.01109,0.08126 -0.03049,0.11524c0.07227,0.0314 0.12549,0.0984 0.13753,0.17887c0.06725,0.04081 0.11219,0.11473 0.11219,0.19915c0,0.12856 -0.10422,0.23277 -0.23278,0.23277c-0.02445,0 -0.04801,-0.00376 -0.07015,-0.01075c-0.03965,0.07176 -0.11609,0.12037 -0.20389,0.12037c-0.06894,0 -0.13086,-0.02997 -0.17349,-0.07758c-0.03044,0.0146 -0.06453,0.02277 -0.10054,0.02277c-0.12856,0 -0.23277,-0.10422 -0.23277,-0.23277z" fill="#9a0000"/><path d="M258.61572,139.33314c0.12856,0 0.23278,0.10422 0.23278,0.23278c0,0.12856 -0.10422,0.23278 -0.23278,0.23278c-0.10104,0 -0.18703,-0.06437 -0.21922,-0.15433c-0.0322,0.08996 -0.11819,0.15433 -0.21922,0.15433c-0.12856,0 -0.23278,-0.10422 -0.23278,-0.23278c0,-0.12856 0.10422,-0.23278 0.23278,-0.23278c0.10104,0 0.18703,0.06437 0.21922,0.15433c0.0322,-0.08996 0.11818,-0.15433 0.21922,-0.15433z" fill="#9a0000"/><path d="M259.16379,139.55237c0.12856,0 0.23277,0.10422 0.23277,0.23278c0,0.11297 -0.08047,0.20714 -0.18721,0.22832c-0.04118,0.03686 -0.09556,0.05926 -0.15517,0.05926c-0.12856,0 -0.23277,-0.10422 -0.23277,-0.23278c0,-0.00927 0.00054,-0.01842 0.0016,-0.0274c-0.00106,-0.00898 -0.0016,-0.01814 -0.0016,-0.0274c0,-0.12856 0.10422,-0.23278 0.23277,-0.23278c0.01888,0 0.03723,0.00225 0.0548,0.00649c0.01758,-0.00424 0.03593,-0.00649 0.05481,-0.00649z" fill="#9a0000"/><path d="M254.27697,133.23946c-0.23993,0.00262 -0.50217,-0.0175 -0.59379,-0.0175h-0.27403v0c-0.12856,0 -0.23277,-0.10422 -0.23277,-0.23278c0,-0.09293 0.05445,-0.17313 0.13318,-0.21045l0.07544,-0.03771c0.03805,-0.04642 0.08446,-0.06964 0.08446,-0.06964c0.14165,-0.07009 0.54586,-0.1806 0.89271,-0.19905c0.06557,-0.04474 0.1431,-0.04475 0.1431,-0.04475l0.14126,0.01665c0.4229,0.18921 0.52855,0.37437 0.45697,0.50941c0.01171,0.02778 0.01818,0.05831 0.01818,0.09036c0,0.09293 -0.05445,0.17312 -0.13318,0.21045l-0.21471,0.10736l-0.06967,-0.13934c-0.14022,0.02764 -0.28714,0.03205 -0.42715,0.017z" fill="#99926f"/><path d="M254.99754,132.8675c-0.47803,-0.56551 -1.28423,-0.0958 -1.85917,0.18927c0.26664,0.04019 0.53325,0.08204 0.8,0.13174c0.4578,0.06556 0.86616,-0.01112 1.28247,-0.08591c-0.07099,-0.04747 -0.12249,-0.12309 -0.2233,-0.2351zM252.90198,132.91225c0.69194,-0.31936 1.65646,-0.92327 2.2745,-0.19364c0.08885,0.1149 0.23232,0.21752 0.37757,0.21752h0.06054c0,0 0.09571,0 0.11354,0.0868c0.2288,-0.0266 0.46627,-0.0365 0.72094,-0.00825l0.07784,0.00865c0,0 0.11568,0.01285 0.10282,0.12852c-0.01286,0.11568 -0.12853,0.10282 -0.12853,0.10282l-0.07784,-0.00865c-0.93243,-0.10378 -1.62346,0.30031 -2.52291,0.17213c-0.73994,-0.13965 -1.47628,-0.21597 -2.21796,-0.36396c0,0 -0.11413,-0.02283 -0.0913,-0.13696c0.02283,-0.11413 0.13695,-0.0913 0.13695,-0.0913c0.3685,0.07388 0.73638,0.13014 1.10409,0.18506c0.00145,-0.06725 0.06974,-0.09877 0.06974,-0.09877z" fill="#9a0000"/></g><g><path d="M257.0005,153.33146c0.16467,0.088 0.22682,0.29282 0.13882,0.45749c-0.03665,0.06857 -0.09355,0.11936 -0.15938,0.14894c0.04593,0.15708 0.09336,0.31626 0.14247,0.47765c1.2953,4.26877 0.49777,8.80943 1.75454,12.97635c0.23677,4.44974 0.02692,8.53075 -0.76173,12.89636c-0.74171,2.95984 -2.26644,5.72304 -3.50614,8.50754c-0.46275,1.03939 -1.39162,2.83494 -0.86838,3.92688c-0.91473,1.62693 1.39208,4.39912 1.4803,6.2049c0.1192,2.44008 -2.03692,3.68262 -3.56158,5.03124c-4.19102,-0.03295 -7.17488,1.58141 -11.07089,-1.53726c-2.59794,-1.5795 -8.32922,-4.06563 -9.33907,-7.01006c-2.49685,-3.65211 -5.46241,-5.35592 -9.27608,-7.39396c-4.49912,-2.4248 -7.21282,-4.53102 -8.22965,-9.80033c-0.04447,-0.89277 0.00057,-1.88874 0.11652,-2.93348c-0.00108,-0.00056 -0.00216,-0.00113 -0.00323,-0.0017c-0.16467,-0.088 -0.22682,-0.29282 -0.13882,-0.45749c0.04743,-0.08874 0.12877,-0.14772 0.21949,-0.16945c0.00312,-0.02312 0.00628,-0.04627 0.00947,-0.06942c-0.06753,0.00886 -0.13837,-0.00255 -0.20302,-0.0371c-0.16467,-0.088 -0.22682,-0.29282 -0.13882,-0.45749c0.0845,-0.15813 0.27674,-0.22171 0.43769,-0.1486c0.02667,-0.16652 0.05486,-0.33364 0.08447,-0.50118c-0.03708,-0.0056 -0.07386,-0.01752 -0.10883,-0.03621c-0.16467,-0.088 -0.22682,-0.29282 -0.13882,-0.45749c0.07327,-0.1371 0.22752,-0.20314 0.37215,-0.17061c0.02318,-0.11712 0.047,-0.23431 0.07146,-0.3515c-0.06985,0.01082 -0.14368,-0.0001 -0.21082,-0.03598c-0.16467,-0.088 -0.22682,-0.29282 -0.13882,-0.45749c0.088,-0.16467 0.29282,-0.22682 0.45749,-0.13882c0.00919,0.00491 0.01806,0.01019 0.0266,0.01579c0.03636,-0.15991 0.07382,-0.3196 0.11232,-0.47891c-0.08671,0.03104 -0.18572,0.02672 -0.27335,-0.02011c-0.16467,-0.088 -0.22682,-0.29282 -0.13882,-0.45749c0.088,-0.16467 0.29282,-0.22682 0.45749,-0.13882c0.03516,0.01879 0.06565,0.04291 0.091,0.07083c0.02046,-0.0793 0.04116,-0.15845 0.06211,-0.23743c-0.01766,-0.00593 -0.03506,-0.01341 -0.05205,-0.02248c-0.16467,-0.088 -0.22682,-0.29282 -0.13882,-0.45749c0.07289,-0.1364 0.22597,-0.20247 0.36996,-0.1711c0.0582,-0.20419 0.11792,-0.40682 0.17897,-0.60747c-0.06026,-0.09885 -0.06813,-0.2261 -0.00962,-0.33559c0.03698,-0.0692 0.09459,-0.12029 0.16118,-0.14975c0.02439,-0.07615 0.04899,-0.15196 0.07375,-0.2274c-0.0637,0.00594 -0.12981,-0.00609 -0.19045,-0.0385c-0.16467,-0.088 -0.22681,-0.29282 -0.13881,-0.45749c0.088,-0.16467 0.29282,-0.22682 0.45749,-0.13882c0.02593,0.01386 0.04932,0.03061 0.06997,0.04964c0.06055,-0.17325 0.12197,-0.34412 0.18418,-0.51234c-0.03425,-0.00606 -0.06812,-0.01755 -0.10046,-0.03483c-0.16467,-0.088 -0.22682,-0.29282 -0.13882,-0.45749c0.088,-0.16467 0.29282,-0.22682 0.45749,-0.13882c0.00663,0.00355 0.0131,0.00728 0.0194,0.0112c0.02062,-0.05188 0.0413,-0.10346 0.06205,-0.1547c-0.00125,-0.00064 -0.00248,-0.00129 -0.00372,-0.00195c-0.16467,-0.088 -0.22682,-0.29282 -0.13882,-0.45749c0.07872,-0.1473 0.25092,-0.21258 0.40423,-0.16172c0.05697,-0.12985 0.11431,-0.25707 0.17194,-0.38144c-0.0039,-0.0019 -0.00777,-0.00387 -0.01163,-0.00593c-0.16467,-0.088 -0.22682,-0.29282 -0.13882,-0.45749c0.06313,-0.11813 0.18639,-0.1835 0.31181,-0.17853c0.01743,-0.07043 0.03584,-0.14137 0.0552,-0.21282c-0.04546,-0.09399 -0.0469,-0.20767 0.00608,-0.30679c0.00959,-0.01794 0.02056,-0.03467 0.03272,-0.05012c-0.14128,-0.09587 -0.19025,-0.28491 -0.10798,-0.43886c0.07388,-0.13826 0.23014,-0.20425 0.37582,-0.16977c0.03705,-0.1029 0.07563,-0.20651 0.11566,-0.31075c-0.03824,-0.00538 -0.0762,-0.01745 -0.11223,-0.0367c-0.16467,-0.088 -0.22682,-0.29282 -0.13882,-0.45749c0.07559,-0.14145 0.23739,-0.20726 0.38589,-0.16721c-0.08608,-0.10264 -0.10612,-0.25132 -0.03912,-0.3767c0.06544,-0.12244 0.19545,-0.1882 0.32553,-0.1777c-0.05328,-0.09683 -0.05806,-0.21784 -0.00208,-0.32259c0.0671,-0.12556 0.20213,-0.19152 0.33549,-0.17675c0.1011,-0.20651 0.20594,-0.41395 0.31399,-0.62183c-0.10626,-0.10227 -0.13647,-0.26635 -0.06353,-0.40284c0.07279,-0.1362 0.2255,-0.20227 0.3693,-0.17124c0.0612,-0.11229 0.1232,-0.22457 0.18591,-0.33678c-0.00459,-0.06173 0.0077,-0.12547 0.03904,-0.18411c0.03404,-0.0637 0.08557,-0.11206 0.14549,-0.14232c0.11644,-0.20371 0.23498,-0.40693 0.35513,-0.60922c-0.16243,-0.08887 -0.22331,-0.29221 -0.13584,-0.45588c0.088,-0.16467 0.29282,-0.22682 0.45749,-0.13882c0.00953,0.0051 0.01873,0.01058 0.02757,0.01644c0.05563,-0.09066 0.1115,-0.18105 0.16755,-0.27111c-0.13432,-0.09768 -0.17948,-0.28191 -0.09898,-0.43255c0.088,-0.16467 0.29282,-0.22682 0.45749,-0.13882c0.00055,0.00029 0.00109,0.00059 0.00164,0.00088c0.09267,-0.14479 0.18558,-0.28846 0.27853,-0.43086c-0.16135,-0.08928 -0.2216,-0.2919 -0.1344,-0.45508c0.088,-0.16467 0.29282,-0.22682 0.45749,-0.13882c0.01733,0.00926 0.03353,0.01982 0.04853,0.03148c0.04609,-0.06894 0.09213,-0.13749 0.13808,-0.20564c-0.03739,-0.09028 -0.03554,-0.19598 0.01411,-0.28888c0.06184,-0.11572 0.18138,-0.18081 0.30412,-0.17874c0.20537,-0.29904 0.40794,-0.58884 0.60542,-0.86734c-0.02217,-0.00645 -0.04402,-0.01528 -0.06519,-0.0266c-0.16467,-0.088 -0.22682,-0.29282 -0.13882,-0.45749c0.088,-0.16467 0.29282,-0.22682 0.45749,-0.13882c0.04854,0.02595 0.08818,0.06204 0.11768,0.10426c0.11169,-0.15467 0.22114,-0.30497 0.32788,-0.4505c-0.09165,-0.10281 -0.11445,-0.25583 -0.04576,-0.38438c0.08468,-0.15845 0.27751,-0.22197 0.43867,-0.14815c0.0819,-0.11188 0.16359,-0.22501 0.24515,-0.33926c-0.01081,-0.00441 -0.02148,-0.00941 -0.032,-0.01503c-0.16467,-0.088 -0.22682,-0.29282 -0.13882,-0.45749c0.088,-0.16467 0.29282,-0.22682 0.45749,-0.13882c0.02015,0.01077 0.03878,0.02329 0.05578,0.03727c-0.08309,-0.10247 -0.10168,-0.24877 -0.0356,-0.37242c0.08647,-0.1618 0.28573,-0.22462 0.44886,-0.14327c0.17969,-0.26495 0.35965,-0.53337 0.54057,-0.80376c-0.06409,0.00623 -0.13066,-0.00576 -0.19171,-0.03839c-0.16467,-0.088 -0.22681,-0.29282 -0.13881,-0.45749c0.088,-0.16467 0.29282,-0.22681 0.45749,-0.13881c0.00814,0.00435 0.01602,0.00898 0.02365,0.01388c-0.03454,-0.08875 -0.03156,-0.19149 0.01685,-0.28207c0.088,-0.16467 0.29282,-0.22682 0.45749,-0.13882c0.01832,0.00978 0.03535,0.02101 0.05106,0.03347c0.08956,-0.13271 0.17956,-0.26546 0.27006,-0.3981c-0.10968,-0.10196 -0.14167,-0.26856 -0.06777,-0.40685c0.08622,-0.16133 0.28457,-0.22426 0.44744,-0.14398c0.03172,-0.04549 0.06351,-0.09095 0.09538,-0.13636c-0.00254,-0.00128 -0.00508,-0.0026 -0.0076,-0.00395c-0.16467,-0.088 -0.22682,-0.29282 -0.13882,-0.45749c0.088,-0.16467 0.29282,-0.22682 0.45749,-0.13882c0.0288,0.01539 0.05445,0.03435 0.07672,0.05604c0.06819,-0.09414 0.13676,-0.18795 0.20575,-0.28136c-0.04307,-0.09297 -0.04351,-0.20433 0.00851,-0.30166c0.06955,-0.13013 0.21205,-0.19625 0.35003,-0.17482c0.14874,-0.19382 0.29955,-0.3854 0.45274,-0.57417c-0.02931,-0.08564 -0.02437,-0.18277 0.02166,-0.2689c0.06918,-0.12944 0.21053,-0.19553 0.34783,-0.17514c0.10726,-0.12557 0.21572,-0.24962 0.32546,-0.37193c-0.16329,-0.08854 -0.22465,-0.29244 -0.13698,-0.45649c0.088,-0.16467 0.29282,-0.22682 0.45749,-0.13882c0.05291,0.02828 0.09524,0.06861 0.12539,0.1158c0.05143,-0.05328 0.10316,-0.10616 0.15517,-0.1586c-0.09017,-0.10279 -0.11225,-0.25465 -0.04399,-0.38237c0.088,-0.16467 0.29282,-0.22682 0.45749,-0.13882c0.02704,0.01445 0.05131,0.03205 0.07261,0.0521c0.00907,-0.00836 0.01816,-0.01672 0.02725,-0.02505c-0.02205,-0.08047 -0.01453,-0.16921 0.0279,-0.24861c0.08305,-0.15541 0.27017,-0.21951 0.42937,-0.15224c0.04663,-0.03901 0.0935,-0.07763 0.14061,-0.11589c-0.01174,-0.00467 -0.02335,-0.01005 -0.03475,-0.01614c-0.16467,-0.088 -0.22682,-0.29282 -0.13882,-0.45749c0.088,-0.16467 0.29282,-0.22682 0.45749,-0.13882c0.10083,0.05389 0.16322,0.15157 0.17624,0.25701c0.16634,-0.12196 0.33571,-0.23915 0.50833,-0.35116c-0.02846,-0.08508 -0.02319,-0.18125 0.02243,-0.26663c0.088,-0.16467 0.29282,-0.22682 0.45749,-0.13882c0.03245,0.01734 0.06092,0.03922 0.08505,0.06444c0.15733,-0.08794 0.31729,-0.17159 0.48002,-0.25067c0.05555,-0.03678 0.11147,-0.07348 0.16773,-0.11008c-0.02686,-0.084 -0.02102,-0.17837 0.02384,-0.2623c0.088,-0.16467 0.29282,-0.22682 0.45749,-0.13882c0.02632,0.01406 0.05002,0.0311 0.0709,0.0505c0.0428,-0.02657 0.08575,-0.05311 0.12885,-0.07963c-0.00573,-0.06339 0.00637,-0.1291 0.0386,-0.18942c0.088,-0.16467 0.29282,-0.22681 0.45749,-0.13881c0.00795,0.00425 0.01566,0.00877 0.02312,0.01354c0.11318,-0.06768 0.22714,-0.13531 0.34177,-0.20297c-0.0144,-0.07368 -0.00446,-0.1526 0.03368,-0.22397c0.088,-0.16467 0.29282,-0.22682 0.45749,-0.13882c0.02155,0.01152 0.04133,0.02502 0.05926,0.04019c0.24954,-0.14549 0.50125,-0.29154 0.75396,-0.43881c-0.01439,-0.07368 -0.00445,-0.15258 0.03369,-0.22395c0.088,-0.16467 0.29282,-0.22682 0.45749,-0.13882c0.02163,0.01156 0.04148,0.02513 0.05946,0.04036c0.203,-0.11961 0.40609,-0.24027 0.60864,-0.36235c-0.06874,-0.1007 -0.08049,-0.23525 -0.01905,-0.35022c0.088,-0.16467 0.29282,-0.22681 0.45749,-0.13881c0.06052,0.03234 0.10719,0.08046 0.13765,0.13655c0.13234,-0.08234 0.26419,-0.16541 0.39539,-0.24932c-0.03142,-0.08695 -0.02726,-0.18637 0.01975,-0.27433c0.088,-0.16467 0.29282,-0.22681 0.45749,-0.13881c0.02739,0.01463 0.05193,0.03249 0.07343,0.05286c0.13155,-0.08817 0.26216,-0.17736 0.39165,-0.26765c-0.02695,-0.08408 -0.02114,-0.17855 0.02376,-0.26257c0.088,-0.16467 0.29282,-0.22682 0.45749,-0.13882c0.01456,0.00778 0.02832,0.01647 0.04124,0.02597c0.22322,-0.16551 0.44212,-0.33492 0.65569,-0.50878c-0.02909,-0.00654 -0.05778,-0.01707 -0.08535,-0.0318c-0.16467,-0.088 -0.22682,-0.29282 -0.13882,-0.45749c0.088,-0.16467 0.29282,-0.22682 0.45749,-0.13882c0.10853,0.058 0.17253,0.16676 0.17835,0.28132c0.23689,-0.20674 0.46586,-0.41984 0.68533,-0.64012c-0.03174,-0.00635 -0.06309,-0.0174 -0.09311,-0.03345c-0.16467,-0.088 -0.22682,-0.29282 -0.13882,-0.45749c0.088,-0.16467 0.29282,-0.22682 0.45749,-0.13882c0.08724,0.04662 0.14571,0.12604 0.16832,0.21489c0.22846,-0.25298 0.44422,-0.51533 0.64519,-0.78817c-0.10048,0.06764 -0.2341,0.07889 -0.34838,0.01782c-0.16467,-0.088 -0.22682,-0.29282 -0.13882,-0.45749c0.088,-0.16467 0.29282,-0.22682 0.45749,-0.13882c0.14193,0.07585 0.20771,0.2385 0.1668,0.38741c0.08718,-0.1248 0.17127,-0.25176 0.25208,-0.38101c0.33205,-0.01952 0.66565,-0.07192 0.98304,-0.17147l0.24956,-0.07573c0,0 0.3235,-0.09815 0.42166,0.22534c0.00509,0.01676 0.00904,0.03292 0.01196,0.04849c0.14921,-0.07462 0.31181,0.01228 0.31181,0.01228c3.16447,1.6911 5.68284,4.42184 8.62883,6.27493c3.32862,3.54995 3.56669,6.24056 4.72351,10.39554c0.06784,-0.00912 0.13908,0.00223 0.20406,0.03696zM224.7289,151.24953c-0.006,-0.00336 -0.01185,-0.00688 -0.01757,-0.01055c0.00311,0.00797 0.00591,0.01606 0.0084,0.02425c0.00305,-0.00457 0.00612,-0.00913 0.00917,-0.0137z" fill="#888b44"/><path d="M231.82201,195.64425c-0.24544,0.23247 -0.47791,-0.01297 -0.47791,-0.01297l-0.26257,-0.29454c-0.85444,-1.59422 -1.93366,-3.00331 -2.70147,-4.64915c-0.7918,-2.59113 -1.7535,-5.4826 -2.25994,-8.15763c0,0 -0.06183,-0.33236 0.27053,-0.39419c0.33236,-0.06184 0.39419,0.27052 0.39419,0.27052c0.47998,2.63188 1.45925,5.49032 2.22667,8.03963c0.75319,1.61449 1.82563,3.00357 2.66595,4.57144l0.15753,0.14899c0,0 0.23246,0.24544 -0.01298,0.47791z" fill="#6f7238"/><path d="M251.86364,203.36757c-0.10558,-0.05642 -0.15381,-0.13026 -0.17203,-0.2021c-0.89168,-0.48223 -1.67203,-0.94819 -2.43954,-1.64306c0,0 -0.25061,-0.2269 -0.02372,-0.4775c0.22689,-0.25061 0.4775,-0.02372 0.4775,-0.02372c0.78916,0.71447 1.58417,1.16371 2.52198,1.66488l0.0933,0.54268c0,0 -0.15933,0.29815 -0.45749,0.13882z" fill="#6f7238"/><path d="M254.05713,189.42592c-0.27456,-0.14673 -0.16117,-0.41118 -0.14151,-0.45211c-0.0643,-0.65939 -0.1286,-1.31879 -0.19291,-1.97818c-0.26677,-2.78666 -3.0383,-5.54322 -5.2685,-7.14792c-1.9519,-2.28061 -3.69829,-3.935 -6.3508,-5.35252c0,0 -0.29816,-0.15933 -0.13882,-0.45749c0.15933,-0.29816 0.45749,-0.13882 0.45749,-0.13882c2.69168,1.43845 4.5282,3.12582 6.49274,5.45387c2.37387,1.77041 5.18105,4.56564 5.48082,7.57726c0.06761,0.69325 0.1352,1.3865 0.20281,2.07976l-0.08383,0.27733c0,0 -0.15933,0.29816 -0.45749,0.13882z" fill="#6f7238"/><path d="M257.85528,157.72261c0.07693,-0.05133 0.18853,-0.08106 0.33251,-0.00412c0.29816,0.15933 0.13882,0.45749 0.13882,0.45749l-0.42595,0.25375c-3.06304,-0.81607 -5.30509,-1.93852 -8.22891,-3.51282c-2.15519,-1.95122 -4.93675,-2.45126 -6.69101,-4.92756c0,0 -0.19543,-0.27585 0.08043,-0.47127c0.27586,-0.19542 0.47128,0.08043 0.47128,0.08043c1.69351,2.39054 4.43752,2.87245 6.52845,4.7655c2.79418,1.48117 4.8932,2.6342 7.79439,3.35861z" fill="#6f7238"/><path d="M257.15442,160.38282c0.19542,0.27586 -0.08043,0.47127 -0.08043,0.47127l-0.38084,0.18694c-2.52348,-0.07253 -4.8767,-1.90854 -7.07308,-3.08229c-2.47619,-1.32338 -6.41806,-2.96139 -8.09618,-5.24327c0,0 -0.19543,-0.27586 0.08043,-0.47128c0.27586,-0.19542 0.47127,0.08043 0.47127,0.08043c1.45251,2.16543 5.59441,3.8253 7.86316,5.03781c2.0834,1.11337 4.38233,2.94127 6.77274,3.00272l-0.02835,-0.06277c0,0 0.27585,-0.19543 0.47127,0.08043z" fill="#6f7238"/><path d="M254.31654,164.51845c0.07674,-0.06238 0.19779,-0.11094 0.35985,-0.02433c0.29816,0.15933 0.13882,0.45749 0.13882,0.45749l-0.38088,0.26186c-2.75782,-0.30539 -4.50313,-1.50539 -6.96087,-2.81634c-2.87658,-1.54906 -5.34681,-3.73352 -8.2401,-5.27971c0,0 -0.29815,-0.15933 -0.13882,-0.45749c0.15933,-0.29816 0.45749,-0.13882 0.45749,-0.13882c2.89144,1.5452 5.35678,3.75238 8.2401,5.2797c2.32614,1.24533 3.97654,2.38933 6.52441,2.71763z" fill="#6f7238"/><path d="M252.15728,168.53939c0.07494,-0.06958 0.20282,-0.13564 0.37936,-0.04129c0.29816,0.15933 0.13882,0.45749 0.13882,0.45749l-0.35285,0.26379c-2.36998,-0.07456 -4.44139,-0.14652 -6.59812,-1.29518c-2.56579,-1.37121 -7.70192,-3.41403 -8.29861,-6.55004c0,0 -0.06184,-0.33236 0.27052,-0.39419c0.33236,-0.06184 0.39419,0.27052 0.39419,0.27052c0.51281,2.82972 5.64122,4.84218 7.95258,6.07741c1.99081,1.06781 3.93052,1.16137 6.11411,1.2115z" fill="#6f7238"/><path d="M249.21185,176.35911c-0.29816,-0.15933 -0.13882,-0.45749 -0.13882,-0.45749l0.09307,-0.15275c1.22664,-1.34985 2.90179,-2.61903 4.7072,-3.04476c0.75759,-0.17864 2.31465,-0.14897 2.65786,-0.92136c0,0 0.15933,-0.29816 0.45749,-0.13882c0.29816,0.15933 0.13882,0.45749 0.13882,0.45749c-1.05007,1.78077 -5.67265,2.11865 -7.46016,4.10123l0.00202,0.01764c0,0 -0.15933,0.29816 -0.45749,0.13882z" fill="#6f7238"/><path d="M228.4514,161.10284c-0.29816,-0.15933 -0.13882,-0.45749 -0.13882,-0.45749l0.04552,-0.08519c1.15312,-2.08919 2.85625,-4.70972 4.40732,-6.55304c1.85341,-0.93318 3.34186,-5.48828 4.30895,-7.29793c0,0 0.15933,-0.29816 0.45749,-0.13882c0.29816,0.15933 0.13882,0.45749 0.13882,0.45749c-1.063,1.98912 -2.48625,6.38028 -4.4763,7.50187c-1.42857,1.79194 -3.21703,4.34462 -4.23998,6.34911l-0.04552,0.08519c0,0 -0.15933,0.29815 -0.45749,0.13882z" fill="#6f7238"/><path d="M218.54088,179.62595c-0.23247,-0.24544 0.01298,-0.47791 0.01298,-0.47791l0.20363,-0.19149c2.47963,-2.73748 3.67393,-5.66658 5.38047,-8.85993c1.4174,-2.6523 2.10421,-5.57701 3.50691,-8.2018c0,0 0.15933,-0.29815 0.45749,-0.13882c0.29816,0.15933 0.13882,0.45749 0.13882,0.45749c-1.40118,2.62196 -2.08981,5.55004 -3.50692,8.2018c-1.72994,3.23715 -2.96278,6.21829 -5.47555,8.99504l-0.23991,0.2286c0,0 -0.24544,0.23247 -0.47791,-0.01297z" fill="#6f7238"/><path d="M242.99185,144.76601c-0.23247,-0.24544 0.01297,-0.47791 0.01297,-0.47791l0.30563,-0.27307c1.30523,-0.69955 4.37096,-1.08495 5.18485,-2.05441c0,0 0.22689,-0.25061 0.4775,-0.02372c0.25061,0.22689 0.02372,0.4775 0.02372,0.4775c-1.08059,1.13717 -3.8557,1.38673 -5.36667,2.19655l-0.16009,0.16804c0,0 -0.24544,0.23247 -0.47791,-0.01297z" fill="#6f7238"/></g><g fill="#979b4c"><g><path d="M263.47832,153.10075c-0.02677,0.02783 -0.05926,0.05004 -0.09548,0.0648l0.13932,-0.02143c-0.01618,-0.0128 -0.0309,-0.02735 -0.04385,-0.04336zM263.26635,153.18567c-0.14383,-0.00618 -0.25737,-0.1208 -0.26516,-0.26158c-0.04747,0.03197 -0.1052,0.04959 -0.16677,0.04694c-0.15312,-0.00658 -0.2719,-0.13605 -0.26532,-0.28917l0.01683,-0.39141l0.16979,0.0073c0.02199,-0.0973 0.0544,-0.18464 0.09429,-0.26124c-0.03911,-0.01365 -0.07955,-0.03936 -0.11925,-0.08262c-0.18761,-0.20447 0.01685,-0.39208 0.01685,-0.39208c0.01695,-0.01552 0.03362,-0.03094 0.05002,-0.04629c-0.64755,-0.34836 -1.35758,-0.2191 -2.05776,-0.60004c0,0 -0.07173,-0.03981 -0.11556,-0.11514c-1.90534,-1.37502 -4.22848,-1.31355 -6.5122,-1.41174c-2.59412,-0.11155 -5.05619,0.19925 -7.67023,0.08686c0,0 -0.27725,-0.01192 -0.26532,-0.28917c0.01192,-0.27725 0.28916,-0.26532 0.28916,-0.26532c2.61417,0.1124 5.07389,-0.19849 7.67023,-0.08687c2.47946,0.10661 4.84064,0.11245 6.91871,1.5941l0.13372,0.07175c0,0 0.02996,0.01662 0.06299,0.04872c0.65367,0.27175 1.30551,0.18738 1.93365,0.55567c0.45519,-0.57061 0.49283,-1.09571 0.21496,-1.96811l-0.04477,-0.15606c0,0 -0.07637,-0.26679 0.19042,-0.34316c0.26679,-0.07636 0.34315,0.19042 0.34315,0.19042l0.04045,0.14171c0.09944,0.31827 0.16268,0.60426 0.18684,0.86826c0.69964,-0.20756 1.39322,-0.37233 2.09229,-0.59326l0.17013,-0.07812c0,0 0.25331,-0.11333 0.36663,0.13998c0.11333,0.25331 -0.13998,0.36663 -0.13998,0.36663l-0.2297,0.10076c-0.35563,0.11216 -0.71044,0.21004 -1.06536,0.30654c0.10494,0.13814 0.20017,0.27481 0.28566,0.40952c0.4873,-0.2633 1.07577,-0.35602 1.62428,-0.33624c0,0 0.27725,0.01192 0.26533,0.28917c-0.01192,0.27725 -0.28917,0.26533 -0.28917,0.26533c-0.42791,-0.02213 -0.94026,0.0454 -1.33319,0.26086c0.0721,0.15065 0.1309,0.29785 0.17635,0.44083c0.50183,-0.09306 1.02497,-0.13458 1.52371,-0.11405l0.29309,0.03825c0,0 0.27503,0.03697 0.23806,0.31201c-0.03697,0.27503 -0.312,0.23806 -0.312,0.23806l-0.243,-0.03381c-0.45256,-0.02038 -0.93195,0.01733 -1.38982,0.10237c0.01048,0.13592 0.00638,0.26617 -0.01234,0.38992c0.59328,0.04102 1.17216,0.11712 1.76108,0.24301l0.27073,0.01069c0,0 0.27725,0.01192 0.26533,0.28917c-0.01192,0.27725 -0.28917,0.26532 -0.28917,0.26532l-0.31639,-0.01455c-0.63537,-0.13265 -1.25415,-0.21271 -1.89595,-0.25037c-0.21201,0.32307 -0.57614,0.56464 -1.09456,0.69625c0.01043,0.04555 0.00893,0.08042 0.00893,0.08042c-0.04048,0.94145 -0.04785,1.91837 -0.60157,2.72114l-0.00102,0.0021c0.06667,0.25845 -0.19322,0.33285 -0.19322,0.33285l-0.21615,0.05896c-3.10076,1.34676 -4.95458,1.54674 -8.47316,1.12343c-2.33408,-0.28171 -6.97127,0.60099 -8.90536,-0.72133c0,0 -0.22407,-0.1637 -0.06036,-0.38778c0.1637,-0.22407 0.38777,-0.06037 0.38777,-0.06037c1.50876,1.23286 6.67014,0.38166 8.64424,0.61845c3.41263,0.41059 5.19695,0.28657 8.18022,-1.079l0.1072,-0.03175c0.0097,-0.059 0.03313,-0.10123 0.03313,-0.10123l0.04171,-0.07213c0.48591,-0.68499 0.46755,-1.5828 0.50061,-2.39194c-0.22246,0.02092 -0.46501,0.0264 -0.72777,0.0151l-0.16184,0.03544c0,0 -0.27323,0.04851 -0.32173,-0.22472c-0.03819,-0.21509 0.12302,-0.29092 0.19334,-0.31345c-0.00224,-0.00004 -0.00449,-0.0001 -0.00674,-0.0002zM263.79405,152.01848c-0.01279,0.02064 -0.02563,0.04162 -0.03853,0.06296c0.00063,0.00387 0.00125,0.00777 0.00185,0.0117c0.01257,-0.02523 0.02477,-0.05011 0.03668,-0.07467z"/><path d="M246.96625,148.93979c0,0 0.26184,-0.0919 0.35374,0.16994c0.0919,0.26184 -0.16995,0.35373 -0.16995,0.35373c-0.27501,0.08879 -0.33397,0.16489 -0.45614,0.38889c0.09943,2.09848 0.00948,4.23344 -0.07392,6.30931c-0.00539,0.12552 -0.01079,0.25105 -0.01619,0.37657c0.09497,0.05892 0.20686,0.0923 0.34339,0.08889l0.15597,0.0067c0,0 0.27725,0.01192 0.26532,0.28917c-0.01192,0.27725 -0.28917,0.26533 -0.28917,0.26533l-0.15596,-0.00671c-0.13234,-0.01106 -0.24894,-0.03425 -0.353,-0.06826c-0.19135,0.13944 -0.3594,-0.04372 -0.3594,-0.04372l-0.17228,-0.30798c0.0001,-0.00229 0.00019,-0.00457 0.00029,-0.00686c-0.0366,-0.04202 -0.07143,-0.08657 -0.1051,-0.13344c-0.7225,-0.25445 -1.25158,-0.9908 -1.69149,-1.59223c-0.78379,-1.21941 -0.64185,-3.37585 0.06381,-4.65285c0.37051,-0.67049 1.32268,-0.62279 1.6753,-1.29306c0,0 0.11805,-0.21273 0.33226,-0.1293c0.0148,-0.00296 0.03063,-0.00506 0.04757,-0.00622c0.16131,-0.01094 0.235,0.07848 0.26843,0.15503c0.09159,-0.06036 0.19997,-0.11241 0.33649,-0.16294z"/></g><path d="M246.23183,149.44394c3.4332,-1.74147 18.48088,-0.62705 18.23513,5.08838c-0.22041,5.12611 -14.80237,3.63023 -17.85355,2.75375c-1.50191,-0.43144 -3.10653,-2.71839 -1.52813,-4.01297c-0.23953,-0.43195 -0.36675,-0.93327 -0.34398,-1.46288c0.03879,-0.90224 0.50424,-1.68528 1.19332,-2.16288c0.08891,-0.07897 0.1872,-0.14762 0.29722,-0.20342z"/><path d="M247.78717,151.34825c0.11333,0.25331 -0.13998,0.36663 -0.13998,0.36663l-0.33767,0.11897c-1.00437,-0.04319 -2.32701,-0.19265 -3.18347,-0.74936c0,0 -0.2316,-0.15286 -0.07875,-0.38446c0.15286,-0.2316 0.38447,-0.07874 0.38447,-0.07874c0.75707,0.50943 2.00625,0.61957 2.90159,0.65807l0.08716,-0.07109c0,0 0.25331,-0.11333 0.36663,0.13998z"/><path d="M249.43616,149.93679c0.07416,0.03411 0.15514,0.10633 0.14858,0.25886c-0.01192,0.27725 -0.28917,0.26533 -0.28917,0.26533l-0.28394,-0.14706c-0.22297,-0.41279 -0.50632,-0.78057 -0.90175,-1.03721c0,0 -0.23161,-0.15287 -0.07874,-0.38447c0.15286,-0.2316 0.38446,-0.07875 0.38446,-0.07875c0.43549,0.29131 0.76006,0.67504 1.02056,1.12329z"/><path d="M252.36792,152.08607c-0.01192,0.27725 -0.28917,0.26532 -0.28917,0.26532l-0.1865,-0.00971c-0.61011,-0.09506 -1.22201,-0.10293 -1.83868,-0.12945c0,0 -0.27725,-0.01192 -0.26533,-0.28917c0.01192,-0.27725 0.28917,-0.26532 0.28917,-0.26532c0.63762,0.02741 1.26866,0.03831 1.89977,0.13546l0.1254,0.0037c0,0 0.27725,0.01192 0.26533,0.28917z"/><path d="M259.06952,152.47838c-0.01192,0.27725 -0.28917,0.26533 -0.28917,0.26533l-0.25993,-0.01118c-1.52428,-0.06554 -3.04924,-0.07903 -4.57693,-0.14471c0,0 -0.27725,-0.01192 -0.26532,-0.28917c0.01192,-0.27725 0.28917,-0.26533 0.28917,-0.26533c1.52772,0.06568 3.05257,0.07918 4.57692,0.14472l0.25993,0.01118c0,0 0.27725,0.01192 0.26532,0.28917z"/><path d="M264.72695,152.92996c-0.01192,0.27725 -0.28917,0.26532 -0.28917,0.26532l-0.05199,-0.00224c-1.12927,-0.05037 -2.40273,-0.10285 -3.48672,-0.41861c0,0 -0.26608,-0.0788 -0.18728,-0.34488c0.07881,-0.26608 0.34488,-0.18727 0.34488,-0.18727c1.02889,0.31063 2.27731,0.35193 3.35295,0.39627l0.05198,0.00223c0,0 0.27725,0.01192 0.26532,0.28917z"/><path d="M255.75978,155.5666c-0.01342,0.27718 -0.29059,0.26377 -0.29059,0.26377l-0.34326,-0.01686c-0.44226,-0.05941 -0.80055,-0.09851 -1.20401,-0.27786c0,0 -0.25299,-0.11403 -0.13895,-0.36702c0.11403,-0.25299 0.36703,-0.13896 0.36703,-0.13896c0.34302,0.15727 0.64536,0.17986 1.02636,0.23112l0.31966,0.01522c0,0 0.27718,0.01341 0.26376,0.29058z"/><path d="M261.60957,156.38952c-0.01192,0.27725 -0.28916,0.26532 -0.28916,0.26532l-0.28365,-0.02288c-0.36077,-0.12014 -0.66655,-0.22769 -0.98532,-0.43583c0,0 -0.23161,-0.15287 -0.07875,-0.38446c0.15286,-0.2316 0.38446,-0.07875 0.38446,-0.07875c0.27579,0.18444 0.53932,0.26748 0.85485,0.37243l0.13224,-0.005c0,0 0.27725,0.01192 0.26532,0.28917z"/><path d="M248.06935,156.24404c-0.11333,-0.25331 0.13998,-0.36663 0.13998,-0.36663l0.15129,-0.06319c0.40178,-0.10194 0.80476,-0.19617 1.20318,-0.3103c0,0 0.26679,-0.07637 0.34316,0.19043c0.07636,0.26679 -0.19042,0.34315 -0.19042,0.34315c-0.40389,0.11553 -0.81218,0.21135 -1.21942,0.31468l-0.06113,0.03184c0,0 -0.25331,0.11333 -0.36663,-0.13998z"/></g><path d="M243.64447,187.28294c-0.73256,-5.50037 4.42134,-11.16242 8.91407,-13.48601c0.78071,-0.50932 1.46993,-0.85609 2.28185,-1.28273c0.07838,-0.15524 0.15964,-0.30969 0.2451,-0.46298l0.08753,-0.15702c0,0 0.29175,-0.52334 0.8151,-0.2316c0.06408,0.03572 0.11594,0.0749 0.15761,0.11619c0.09387,0.024 0.15641,0.05886 0.15641,0.05886l0.15701,0.08752c4.36825,2.43514 8.27912,5.64949 12.49915,8.002c4.04436,3.78663 5.73649,10.96311 6.44915,16.20467c0.33085,2.02227 -2.27456,8.78657 -1.71462,9.80167c0.89247,1.61796 4.30816,-2.32975 5.31905,1.56503c-0.76095,2.24912 -9.61202,7.27376 -11.9734,6.66287c0,0 -0.36935,-0.09969 -0.43815,-0.43489c-0.10976,-0.09388 -0.16529,-0.20205 -0.16529,-0.20205l-0.29599,-0.57661c-0.19165,-0.37337 -0.38298,-0.74689 -0.57392,-1.12062c-3.14891,-4.60172 -5.46706,-10.16341 -10.59208,-13.02041c-3.88339,-3.61697 -5.98866,-8.25171 -10.82561,-10.969c-0.04362,-0.0176 -0.082,-0.03801 -0.11572,-0.06055c-0.3345,-0.10578 -0.38725,-0.49434 -0.38725,-0.49434z" fill="#888b44"/></g></g></svg>