<svg version="1.1" xmlns="http://www.w3.org/2000/svg" xmlns:xlink="http://www.w3.org/1999/xlink" width="17.67943" height="28.88824" viewBox="0,0,17.67943,28.88824"><g transform="translate(-231.16028,-165.55588)"><g data-paper-data="{&quot;isPaintingLayer&quot;:true}" fill-rule="nonzero" stroke="none" stroke-width="0.5" stroke-linecap="butt" stroke-linejoin="miter" stroke-miterlimit="10" stroke-dasharray="" stroke-dashoffset="0" style="mix-blend-mode: normal"><path d="M247.28715,186.84202c-0.27996,0.88014 -0.72643,1.78527 -1.37817,2.73735c-1.24116,1.81312 -3.66564,4.70896 -6.40781,4.4626c-1.97798,1.20833 -3.53239,-0.6915 -3.53239,-0.6915c-1.36573,-1.67013 -3.2953,-2.9922 -4.13427,-4.97983c-2.82751,-6.69878 3.91462,-14.10911 7.7144,-19.02991l1.36902,-2.34689c0.47992,-0.85795 1.39738,-1.43796 2.45031,-1.43796c1.44439,0 2.63386,1.09146 2.78863,2.49461l0.41362,3.30898l-0.24001,0.03c1.62528,4.39383 3.08012,9.65606 2.28562,12.84842c-0.15828,0.63597 -0.65042,1.59674 -1.32896,2.60413z" fill="#2b281b"/><path d="M245.33679,187.35477c-0.38159,-0.12265 -0.25894,-0.50423 -0.25894,-0.50423l0.22681,-0.70472c0.73722,-3.02676 -0.45544,-5.9873 -0.45511,-9.00741c0.10352,-2.9505 1.01567,-7.64102 -1.34649,-9.95726c0,0 -0.28342,-0.28342 0,-0.56683c0.28342,-0.28342 0.56683,0 0.56683,0c2.54464,2.58513 1.66405,7.2936 1.58118,10.53644c0.00036,3.10943 1.16911,6.07298 0.42546,9.21141l-0.23552,0.73368c0,0 -0.12265,0.38159 -0.50423,0.25894z" fill="#403b23"/><path d="M235.55653,187.04748c-0.28342,-0.28342 0,-0.56683 0,-0.56683l0.11229,-0.05245c0.54908,-1.5723 1.45566,-2.73786 1.91353,-4.46224c0.46182,-0.47744 1.02871,-1.10518 1.63068,-1.81123c-0.02718,-0.11916 -0.02908,-0.32054 0.21181,-0.44098c0.07518,-0.03759 0.14249,-0.05153 0.2019,-0.05009c1.48364,-1.78205 3.07944,-3.92577 3.80124,-5.41688c0,0 0.17925,-0.3585 0.53775,-0.17925c0.3585,0.17925 0.17925,0.53775 0.17925,0.53775c-0.79209,1.54637 -2.46161,3.86182 -3.98858,5.69435c1.03111,2.26175 1.62862,5.08601 4.01845,6.10594l0.22156,0.56762c0,0 0,0.40081 -0.40081,0.40081c-0.34124,0 -0.39196,-0.29053 -0.3995,-0.37689c-2.28224,-1.36025 -2.95035,-3.69582 -4.00971,-6.0284c-0.47502,0.54455 -0.92187,1.02257 -1.30646,1.39221c-0.38725,1.67114 -1.37343,2.79393 -1.85062,4.32077l-0.30595,0.36579c0,0 -0.28342,0.28342 -0.56683,0z" fill="#403b23"/><path d="M236.59055,182.05264c-0.25,0 -0.25,-0.25 -0.25,-0.25v-0.13043c0.03372,-1.02568 -1.15786,-1.92292 -1.17391,-3c0,0 0,-0.25 0.25,-0.25c0.25,0 0.25,0.25 0.25,0.25c-0.0206,1.02842 1.06124,1.85621 1.1661,2.87447c0.64461,-1.44534 1.09822,-2.97395 1.7855,-4.37223c0,0 0.17925,-0.3585 0.53775,-0.17925c0.3585,0.17925 0.17925,0.53775 0.17925,0.53775c-0.80621,1.5785 -1.28578,3.39981 -2.09119,5.01886l-0.20912,0.41824c0,0 -0.17925,0.3585 -0.53775,0.17925c-0.3585,-0.17925 -0.17925,-0.53775 -0.17925,-0.53775l0.20912,-0.41824c0.02353,-0.04678 0.04677,-0.09369 0.06976,-0.14072c-0.00207,0.00004 -0.00415,0.00005 -0.00625,0.00005z" fill="#403b23"/><path d="M239.6041,176.70891c-0.40081,0 -0.40081,-0.40081 -0.40081,-0.40081l0.22156,-0.56762c0.70731,-0.16913 0.40579,-2.71764 0.40579,-3.40565c0,0 0,-0.40081 0.40081,-0.40081c0.40081,0 0.40081,0.40081 0.40081,0.40081c0,1.27787 0.35103,3.24499 -0.74078,4.04973l0.11342,-0.07647c0,0 0,0.40081 -0.40081,0.40081z" fill="#403b23"/><path d="M235.02534,188.18308c-0.25,0 -0.25,-0.25 -0.25,-0.25l0.04199,0.00824c-0.46323,-0.7255 -1.53136,-2.21136 -1.6072,-3.00824c0,0 0,-0.25 0.25,-0.25c0.25,0 0.25,0.25 0.25,0.25c-0.06679,0.23152 1.27305,2.37669 1.52323,2.73089l0.04199,0.26911c0,0 0,0.25 -0.25,0.25z" fill="#403b23"/><path d="M239.19925,192.35699c-0.25,0 -0.25,-0.25 -0.25,-0.25l0.02639,-0.24224c0.24391,-0.48199 0.90253,-0.97052 0.88665,-1.45341c0,0 0,-0.25 0.25,-0.25c0.25,0 0.25,0.25 0.25,0.25c-0.01424,0.67761 -0.64106,1.07146 -0.93944,1.67702l0.02639,0.01863c0,0 0,0.25 -0.25,0.25z" fill="#403b23"/><path d="M247.93838,178.94395c0.25,0 0.25,0.25 0.25,0.25l-0.02639,0.14907c0.34888,0.69777 0.54231,1.42068 0.54813,2.19876c0,1.2919 -0.2285,5.50962 -1.47212,6.13143c0.09125,1.12205 -3.23401,4.45949 -4.10996,4.89746c-1.98088,1.98088 -4.3774,2.26183 -6.81409,1.04348c-1.2979,-1.28439 -3.00907,-2.57027 -3.86004,-4.13449c0,0 -0.1118,-0.22361 0.1118,-0.33541c0.22361,-0.1118 0.33541,0.1118 0.33541,0.1118c0.61138,1.43253 2.57538,2.80975 3.70518,3.95247c2.25265,1.12633 4.40681,0.7791 6.22938,-1.04348c0.99242,-0.49621 3.90039,-3.51344 3.97699,-4.75471c1.18995,-0.59497 1.39745,-4.59842 1.39745,-5.86857c0.00641,-0.69779 -0.18345,-1.35135 -0.49535,-1.97515l-0.02639,-0.37267c0,0 0,-0.25 0.25,-0.25z" fill="#403b23"/></g></g></svg>