<svg version="1.1" xmlns="http://www.w3.org/2000/svg" xmlns:xlink="http://www.w3.org/1999/xlink" width="16.19028" height="21.00369" viewBox="0,0,16.19028,21.00369"><g transform="translate(-235.05959,-162.10983)"><g data-paper-data="{&quot;isPaintingLayer&quot;:true}" fill-rule="nonzero" stroke-linejoin="miter" stroke-miterlimit="10" stroke-dasharray="" stroke-dashoffset="0" style="mix-blend-mode: normal"><path d="" fill="#864e00" stroke="none" stroke-width="0.5" stroke-linecap="butt"/><path d="" fill="#7c4800" stroke="none" stroke-width="0.5" stroke-linecap="butt"/><path d="" fill="#7c4800" stroke="none" stroke-width="0.5" stroke-linecap="butt"/><g><path d="M244.23747,179.12686c-2.32004,1.55084 -4.79011,1.92643 -5.51706,0.83891c-0.72695,-1.08752 0.56449,-3.22632 2.88453,-4.77716c2.32004,-1.55084 4.79011,-1.92643 5.51707,-0.83891c0.72695,1.08752 -0.5645,3.22632 -2.88453,4.77716z" fill="#8c6738" stroke="none" stroke-width="0" stroke-linecap="butt"/><path d="M249.10387,169.60734c1.24205,3.00665 -0.40039,6.53845 -3.66848,7.8885c-3.2681,1.35005 -6.92429,0.00711 -8.16633,-2.99953c-1.24205,-3.00665 0.40039,-6.53845 3.66848,-7.8885c3.2681,-1.35005 6.92429,-0.00711 8.16633,2.99953z" fill="#8c6738" stroke="none" stroke-width="0" stroke-linecap="butt"/><path d="M248.74937,169.69752c1.52753,1.02055 2.50554,2.68902 2.18446,3.72663c-0.32108,1.03761 -1.81968,1.05145 -3.34721,0.0309c-1.52753,-1.02055 -2.50554,-2.68902 -2.18446,-3.72663c0.32108,-1.03761 1.81969,-1.05145 3.34721,-0.0309z" fill="#8c6738" stroke="none" stroke-width="0" stroke-linecap="butt"/><path d="M248.98758,175.3539c-1.64571,0.81638 -3.57963,0.83358 -4.31951,0.03841c-0.73988,-0.79518 -0.00556,-2.10161 1.64015,-2.91799c1.64571,-0.81638 3.57962,-0.83358 4.31951,-0.0384c0.73988,0.79518 0.00557,2.10161 -1.64015,2.91799z" data-paper-data="{&quot;index&quot;:null}" fill="#8c6738" stroke="none" stroke-width="0" stroke-linecap="butt"/><path d="M248.84187,175.97654l-0.33421,-0.85987l0.64237,-0.27587l0.28446,0.76487l-0.56296,0.44265" fill="#b39675" stroke="#b39675" stroke-width="0.5" stroke-linecap="round"/><path d="M251.15282,172.33298c0.06062,0.14676 -0.01047,0.2388 -0.07042,0.28644c-0.00223,1.86605 -1.92219,2.17917 -3.38283,2.78257c0,0 -0.23106,0.09545 -0.32651,-0.13561c-0.09545,-0.23106 0.13561,-0.32651 0.13561,-0.32651c1.17018,-0.4834 2.88444,-0.72836 3.05916,-2.09474c-0.02766,0.01143 -0.05028,0.02077 -0.06515,0.02691c0,0 -0.23106,0.09545 -0.32651,-0.13561c-0.09545,-0.23106 0.13561,-0.32651 0.13561,-0.32651c0.08576,-0.03543 0.17151,-0.07085 0.25726,-0.10628l0.25726,-0.10628c0,0 0.23106,-0.09545 0.32651,0.13561z" fill="#864e00" stroke="none" stroke-width="0.5" stroke-linecap="butt"/><path d="M251.22676,172.26896c0.09545,0.23106 -0.13561,0.32651 -0.13561,0.32651c-0.17151,0.07085 -0.51453,0.21255 -0.68603,0.2834c0,0 -0.23106,0.09545 -0.32651,-0.13561c-0.09545,-0.23106 0.13561,-0.32651 0.13561,-0.32651c0.17151,-0.07085 0.34302,-0.1417 0.51453,-0.21255l0.17151,-0.07085c0,0 0.23106,-0.09545 0.32651,0.13561z" fill="#871400" stroke="none" stroke-width="0.5" stroke-linecap="butt"/><path d="M246.58119,169.9035c0.02947,-0.11718 0.15243,-0.16798 0.15243,-0.16798l0.06713,-0.02173c1.01945,-0.0703 0.59661,1.14747 -0.17257,0.47175c0,0 -0.12775,-0.1347 -0.047,-0.28204z" fill="#000000" stroke="none" stroke-width="0.5" stroke-linecap="butt"/><path d="M242.80801,168.71661c-0.16398,0.18871 -0.35269,0.02473 -0.35269,0.02473l-0.042,-0.03778c-0.17559,-0.13048 -0.32341,-0.28457 -0.47301,-0.43935c0.00959,0.09856 0.02108,0.19882 0.03467,0.3016l-0.01499,0.14348c0,0 -0.04875,0.2452 -0.29395,0.19645c-0.2452,-0.04875 -0.19645,-0.29395 -0.19645,-0.29395l0.00968,0.0194c-0.09042,-0.687 -0.09274,-1.28113 -0.05941,-1.97607c0,0 0.01202,-0.24971 0.26173,-0.23769c0.24971,0.01202 0.23769,0.26173 0.23769,0.26173c-0.01455,0.30117 -0.0224,0.57952 -0.0187,0.85478c0.28593,0.2421 0.50744,0.55539 0.80625,0.76484l0.07644,0.06514c0,0 0.18871,0.16398 0.02473,0.35269z" fill="#7c4800" stroke="none" stroke-width="0.5" stroke-linecap="butt"/><path d="M242.18496,165.99617c0.0346,0.0165 0.2164,0.11486 0.12944,0.32425c-0.09589,0.23088 -0.32677,0.13499 -0.32677,0.13499l-0.13092,-0.08673c-0.13519,-0.29974 -0.55987,0.21301 -0.69479,0.3694c0,0 -0.16398,0.18871 -0.35269,0.02473c-0.18871,-0.16398 -0.02473,-0.35269 -0.02473,-0.35269c0.4007,-0.4583 0.89695,-0.86126 1.40046,-0.41394z" fill="#8c6738" stroke="none" stroke-width="0.5" stroke-linecap="butt"/><path d="M243.81241,168.86253c-0.24224,0.06182 -0.30405,-0.18042 -0.30405,-0.18042l-0.0195,-0.08657c-0.28729,-0.6964 -0.60951,-1.34255 -1.02243,-1.97443c-0.98667,-2.07017 -2.26579,0.99435 -1.73553,2.25956c0,0 0.09545,0.23106 -0.13561,0.32651c-0.23106,0.09545 -0.32651,-0.13561 -0.32651,-0.13561c-0.75402,-1.84768 1.32612,-5.40468 2.63314,-2.69613c0.42498,0.64699 0.75387,1.31551 1.04907,2.02919l0.04185,0.15384c0,0 0.06182,0.24224 -0.18042,0.30405z" fill="#7c4800" stroke="none" stroke-width="0.5" stroke-linecap="butt"/><path d="M241.05861,174.5078c0,2.79064 -1.06043,5.0529 -2.36855,5.0529c-1.30811,0 -2.36855,-2.26226 -2.36855,-5.0529c0,-2.79064 1.06043,-5.0529 2.36855,-5.0529c1.30811,0 2.36855,2.26226 2.36855,5.0529z" fill="#8c6738" stroke="none" stroke-width="0" stroke-linecap="butt"/><path d="M244.90923,174.68414c-0.23106,0.09545 -0.32651,-0.13561 -0.32651,-0.13561l-0.02794,-0.06763c-0.64468,-1.5606 -0.38685,-2.20909 0.48936,-3.51478c0,0 0.13931,-0.2076 0.3469,-0.06829c0.20759,0.13931 0.06828,0.3469 0.06828,0.3469c-0.79323,1.18204 -1.03049,1.62171 -0.44242,3.04526l0.02794,0.06763c0,0 0.09545,0.23106 -0.13561,0.32651z" fill="#864e00" stroke="none" stroke-width="0.5" stroke-linecap="butt"/><path d="M242.79554,176.83687c0,3.4665 -1.57298,6.27665 -3.51334,6.27665c-1.94037,0 -3.51334,-2.81015 -3.51334,-6.27665c0,-3.4665 1.57298,-6.27665 3.51334,-6.27665c1.94037,0 3.51334,2.81015 3.51334,6.27665z" fill="#8c6738" stroke="none" stroke-width="0" stroke-linecap="butt"/></g><path d="M245.25951,167.03796c-0.80942,-0.40744 -1.45125,-1.16589 -2.20188,-1.67058c-0.75087,-0.74672 -2.23905,-1.8424 -2.46426,-2.91035c-0.01241,-0.02287 -0.02461,-0.04587 -0.03661,-0.069c0,0 -0.08614,-0.16743 0.08129,-0.25357c0.16743,-0.08614 0.25357,0.08129 0.25357,0.08129c0.61491,1.20729 1.86364,2.05377 2.88437,2.87783c0.49615,0.33115 1.61304,1.16232 2.21533,1.0801l0.09324,-0.03307c0,0 0.11435,-0.03631 0.18948,0.04032c0.02694,0.00325 0.05645,0.01371 0.08806,0.03482c0.15661,0.10453 0.05209,0.26113 0.05209,0.26113c-0.14687,0.21752 -0.33561,0.38915 -0.48193,0.609l-0.06968,0.1044c0,0 -0.10453,0.15662 -0.26114,0.05209c-0.04056,-0.02707 -0.06361,-0.05764 -0.07549,-0.08808c-0.07202,-0.02476 -0.16014,-0.06282 -0.26643,-0.11633z" fill="#8c8172" stroke="none" stroke-width="0.5" stroke-linecap="butt"/><path d="M243.409,172.59797c-1.19109,-0.17015 -2.31984,-0.85296 -3.47811,-1.17037c-1.26102,-0.62189 -3.59762,-1.37086 -4.33307,-2.61951c-0.02529,-0.02353 -0.05039,-0.04731 -0.07528,-0.07133c0,0 -0.17927,-0.17424 -0.00503,-0.35352c0.17424,-0.17927 0.35352,-0.00503 0.35352,-0.00503c1.28486,1.25906 3.21464,1.79577 4.848,2.40077c0.76456,0.20674 2.52195,0.77998 3.2451,0.42157l0.10334,-0.08109c0,0 0.12853,-0.09411 0.25552,-0.02947c0.03528,-0.00731 0.07684,-0.00663 0.12556,0.00654c0.24133,0.06525 0.17608,0.30659 0.17608,0.30659c-0.09277,0.33591 -0.25763,0.63179 -0.34871,0.9704l-0.04351,0.16088c0,0 -0.06526,0.24134 -0.30659,0.17608c-0.06251,-0.0169 -0.10444,-0.04562 -0.13228,-0.07889c-0.10112,-0.00067 -0.22812,-0.01127 -0.38454,-0.03362z" fill="#8c8172" stroke="none" stroke-width="0.5" stroke-linecap="butt"/><path d="M242.66716,170.54401c-1.06228,-0.56497 -1.89165,-1.59087 -2.873,-2.28317c-0.97446,-1.01358 -2.91722,-2.51236 -3.18433,-3.93668c-0.01579,-0.03073 -0.0313,-0.06162 -0.04654,-0.09268c0,0 -0.10935,-0.22481 0.11547,-0.33417c0.22482,-0.10935 0.33417,0.11546 0.33417,0.11546c0.78025,1.6209 2.41259,2.78174 3.74295,3.90603c0.64873,0.45436 2.10654,1.59096 2.90845,1.49977l0.12475,-0.04112c0,0 0.15288,-0.0448 0.25032,0.05916c0.03566,0.00512 0.07451,0.01988 0.11585,0.04884c0.20477,0.14342 0.06135,0.34819 0.06135,0.34819c-0.20145,0.28435 -0.45709,0.50656 -0.65787,0.79403l-0.09561,0.13651c0,0 -0.14342,0.20477 -0.34819,0.06135c-0.05304,-0.03715 -0.08272,-0.07842 -0.09758,-0.11917c-0.09486,-0.03501 -0.21069,-0.08816 -0.3502,-0.16236z" fill="#8c8172" stroke="none" stroke-width="0.5" stroke-linecap="butt"/><path d="M244.23747,179.12686c-2.32004,1.55084 -4.79011,1.92643 -5.51706,0.83891c-0.72695,-1.08752 0.56449,-3.22632 2.88453,-4.77716c2.32004,-1.55084 4.79011,-1.92643 5.51707,-0.83891c0.72695,1.08752 -0.5645,3.22632 -2.88453,4.77716z" fill="#8c6738" stroke="none" stroke-width="0" stroke-linecap="butt"/><path d="M249.10387,169.60734c1.24205,3.00665 -0.40039,6.53845 -3.66848,7.8885c-3.2681,1.35005 -6.92429,0.00711 -8.16633,-2.99953c-1.24205,-3.00665 0.40039,-6.53845 3.66848,-7.8885c3.2681,-1.35005 6.92429,-0.00711 8.16633,2.99953z" fill="#8c6738" stroke="none" stroke-width="0" stroke-linecap="butt"/><path d="M248.74937,169.69752c1.52753,1.02055 2.50554,2.68902 2.18446,3.72663c-0.32108,1.03761 -1.81968,1.05145 -3.34721,0.0309c-1.52753,-1.02055 -2.50554,-2.68902 -2.18446,-3.72663c0.32108,-1.03761 1.81969,-1.05145 3.34721,-0.0309z" fill="#8c6738" stroke="none" stroke-width="0" stroke-linecap="butt"/><path d="M248.98758,175.3539c-1.64571,0.81638 -3.57963,0.83358 -4.31951,0.03841c-0.73988,-0.79518 -0.00556,-2.10161 1.64015,-2.91799c1.64571,-0.81638 3.57962,-0.83358 4.31951,-0.0384c0.73988,0.79518 0.00557,2.10161 -1.64015,2.91799z" data-paper-data="{&quot;index&quot;:null}" fill="#8c6738" stroke="none" stroke-width="0" stroke-linecap="butt"/><path d="M248.84187,175.97654l-0.33421,-0.85987l0.64237,-0.27587l0.28446,0.76487l-0.56296,0.44265" fill="#b39675" stroke="#b39675" stroke-width="0.5" stroke-linecap="round"/><path d="M251.15282,172.33298c0.06062,0.14676 -0.01047,0.2388 -0.07042,0.28644c-0.00223,1.86605 -1.92219,2.17917 -3.38283,2.78257c0,0 -0.23106,0.09545 -0.32651,-0.13561c-0.09545,-0.23106 0.13561,-0.32651 0.13561,-0.32651c1.17018,-0.4834 2.88444,-0.72836 3.05916,-2.09474c-0.02766,0.01143 -0.05028,0.02077 -0.06515,0.02691c0,0 -0.23106,0.09545 -0.32651,-0.13561c-0.09545,-0.23106 0.13561,-0.32651 0.13561,-0.32651c0.08576,-0.03543 0.17151,-0.07085 0.25726,-0.10628l0.25726,-0.10628c0,0 0.23106,-0.09545 0.32651,0.13561z" fill="#864e00" stroke="none" stroke-width="0.5" stroke-linecap="butt"/><path d="M251.22676,172.26896c0.09545,0.23106 -0.13561,0.32651 -0.13561,0.32651c-0.17151,0.07085 -0.51453,0.21255 -0.68603,0.2834c0,0 -0.23106,0.09545 -0.32651,-0.13561c-0.09545,-0.23106 0.13561,-0.32651 0.13561,-0.32651c0.17151,-0.07085 0.34302,-0.1417 0.51453,-0.21255l0.17151,-0.07085c0,0 0.23106,-0.09545 0.32651,0.13561z" fill="#871400" stroke="none" stroke-width="0.5" stroke-linecap="butt"/><path d="M246.58119,169.9035c0.02947,-0.11718 0.15243,-0.16798 0.15243,-0.16798l0.06713,-0.02173c1.01945,-0.0703 0.59661,1.14747 -0.17257,0.47175c0,0 -0.12775,-0.1347 -0.047,-0.28204z" fill="#000000" stroke="none" stroke-width="0.5" stroke-linecap="butt"/><path d="M242.18496,165.99617c0.0346,0.0165 0.2164,0.11486 0.12944,0.32425c-0.09589,0.23088 -0.32677,0.13499 -0.32677,0.13499l-0.13092,-0.08673c-0.13519,-0.29974 -0.55987,0.21301 -0.69479,0.3694c0,0 -0.16398,0.18871 -0.35269,0.02473c-0.18871,-0.16398 -0.02473,-0.35269 -0.02473,-0.35269c0.4007,-0.4583 0.89695,-0.86126 1.40046,-0.41394z" fill="#8c6738" stroke="none" stroke-width="0.5" stroke-linecap="butt"/><path d="M241.05861,174.5078c0,2.79064 -1.06043,5.0529 -2.36855,5.0529c-1.30811,0 -2.36855,-2.26226 -2.36855,-5.0529c0,-2.79064 1.06043,-5.0529 2.36855,-5.0529c1.30811,0 2.36855,2.26226 2.36855,5.0529z" fill="#8c6738" stroke="none" stroke-width="0" stroke-linecap="butt"/><path d="M244.90923,174.68414c-0.23106,0.09545 -0.32651,-0.13561 -0.32651,-0.13561l-0.02794,-0.06763c-0.64468,-1.5606 -0.38685,-2.20909 0.48936,-3.51478c0,0 0.13931,-0.2076 0.3469,-0.06829c0.20759,0.13931 0.06828,0.3469 0.06828,0.3469c-0.79323,1.18204 -1.03049,1.62171 -0.44242,3.04526l0.02794,0.06763c0,0 0.09545,0.23106 -0.13561,0.32651z" fill="#864e00" stroke="none" stroke-width="0.5" stroke-linecap="butt"/><path d="M242.79554,176.83687c0,3.4665 -1.57298,6.27665 -3.51334,6.27665c-1.94037,0 -3.51334,-2.81015 -3.51334,-6.27665c0,-3.4665 1.57298,-6.27665 3.51334,-6.27665c1.94037,0 3.51334,2.81015 3.51334,6.27665z" fill="#8c6738" stroke="none" stroke-width="0" stroke-linecap="butt"/><g data-paper-data="{&quot;index&quot;:null}" stroke="none" stroke-width="0.5" stroke-linecap="butt"><path d="M245.04416,174.3884c-0.09175,0.23255 -0.3243,0.14081 -0.3243,0.14081l0.0417,-0.02557c-0.43778,0.08463 -0.88869,0.1602 -1.30689,0.31491c-1.64516,0.60216 -3.20416,1.42365 -4.79019,2.03139c0,0 -0.23476,0.08593 -0.3207,-0.14884c-0.08594,-0.23477 0.14883,-0.3207 0.14883,-0.3207c1.56377,-0.5337 3.17771,-1.44119 4.79019,-2.0314c0.44533,-0.16153 0.9188,-0.24638 1.38385,-0.33628l0.23671,0.05137c0,0 0.23255,0.09175 0.14081,0.3243z" fill="#7a6a5e"/><path d="M239.20798,176.34959c-0.18606,0.16697 -0.35304,-0.01909 -0.35304,-0.01909c-0.05866,-0.06537 -0.25272,-0.28161 -0.31139,-0.34698c0,0 -0.05074,-0.05653 -0.06511,-0.13524c-0.2682,-0.27429 -0.58951,-0.59957 -0.94289,-0.60191c0,0 -0.24963,-0.0135 -0.23613,-0.26313c0.0135,-0.24964 0.26313,-0.23613 0.26313,-0.23613c0.601,0.04935 1.01385,0.51134 1.43416,0.91294l0.10812,0.11938c0,0 0.06015,0.06703 0.06802,0.15672l0.05421,0.06042c0,0 0.16698,0.18607 -0.01908,0.35304z" fill="#7a0c00"/><path d="M239.17907,176.51068c0.24662,0.04098 0.20564,0.2876 0.20564,0.2876l-0.02268,0.13572c-0.11173,0.55709 -0.30634,0.8863 -0.72773,1.26497c0,0 -0.18607,0.16697 -0.35304,-0.01909c-0.16697,-0.18606 0.01908,-0.35304 0.01908,-0.35304c0.34468,-0.30886 0.48169,-0.53348 0.57125,-0.99017l0.01987,-0.12035c0,0 0.04099,-0.24662 0.28761,-0.20564z" fill="#7a0c00"/><path d="M240.90265,175.53691c-0.18606,0.16697 -0.35304,-0.01909 -0.35304,-0.01909l-0.04062,-0.04527c-0.28651,-0.31926 -0.56468,-0.64782 -0.92292,-0.88784c0,0 -0.20712,-0.14002 -0.06711,-0.34713c0.14001,-0.20711 0.34713,-0.0671 0.34713,-0.0671c0.39209,0.26703 0.6997,0.61677 1.01502,0.96814l0.04062,0.04526c0,0 0.16698,0.18607 -0.01908,0.35304z" fill="#7a0c00"/><path d="M240.95652,175.75989c0.24662,0.04098 0.20564,0.2876 0.20564,0.2876l-0.02128,0.12804c-0.08138,0.48968 -0.119,0.93386 -0.25632,1.35604c-0.29543,0.17423 -0.58149,0.35197 -0.85116,0.53102c0.01353,-0.02496 0.02577,-0.0399 0.02577,-0.0399c0.48363,-0.58751 0.46927,-1.21176 0.58847,-1.92913l0.02128,-0.12804c0,0 0.04098,-0.24661 0.2876,-0.20564z" fill="#7a0c00"/><path d="M242.58828,174.90276c-0.23192,0.09333 -0.32526,-0.13859 -0.32526,-0.13859l-0.06594,-0.17669c-0.26056,-0.40136 -0.59739,-0.69778 -0.95802,-1.00577c0,0 -0.13003,-0.11105 -0.08316,-0.25701c0.16585,-0.00029 0.34477,-0.0057 0.53259,-0.01579c0.34904,0.30356 0.66827,0.61104 0.92717,1.00509l0.11121,0.26351c0,0 0.09334,0.23193 -0.13858,0.32526z" fill="#7a0c00"/><path d="M242.59198,174.99988c0.24964,0.0135 0.23615,0.26314 0.23615,0.26314l-0.01238,0.22899c-0.02209,0.39998 -0.08109,0.73568 -0.16529,1.08509c-0.19756,0.09867 -0.39686,0.20057 -0.59599,0.30509c0.1383,-0.49612 0.23359,-0.87893 0.26201,-1.41718l0.01237,-0.22899c0,0 0.01349,-0.24964 0.26313,-0.23614z" fill="#7a0c00"/><path d="M243.52608,174.60272c-0.24983,0.00916 -0.25899,-0.24067 -0.25899,-0.24067l-0.00465,-0.14177c-0.033,-0.32439 -0.12303,-0.62419 -0.24896,-0.90935c0.17587,0.02489 0.36413,0.04474 0.56017,0.05943c0.09166,0.25306 0.15689,0.51752 0.18616,0.79872l0.00695,0.17466c0,0 0.00916,0.24983 -0.24067,0.25899z" fill="#7a0c00"/><path d="M243.81502,174.56847c0.24743,-0.03572 0.28315,0.21172 0.28315,0.21172l0.00786,0.05757c0.03931,0.1907 0.0609,0.37303 0.07417,0.55335c-0.16479,0.14536 -0.32455,0.29263 -0.47666,0.44016c-0.00881,-0.29427 -0.02265,-0.57942 -0.08721,-0.89255l-0.01302,-0.0871c0,0 -0.03572,-0.24744 0.21171,-0.28316z" fill="#7a0c00"/><path d="M244.75281,174.19789c-0.2411,0.06614 -0.30723,-0.17496 -0.30723,-0.17496l-0.02398,-0.08741c-0.05261,-0.19187 -0.10007,-0.36378 -0.1741,-0.53538c0.17661,0.0027 0.3552,0.0016 0.53289,-0.00337c0.04576,0.13036 0.08428,0.26396 0.1234,0.40647l0.02398,0.08743c0,0 0.06614,0.24109 -0.17496,0.30723z" fill="#7a0c00"/><path d="M240.08259,175.83707c-0.18606,0.16697 -0.35304,-0.01909 -0.35304,-0.01909l-0.06641,-0.0751c-0.34674,-0.45246 -0.71135,-0.61332 -1.21135,-0.85956c0,0 -0.22414,-0.11074 -0.1134,-0.33487c0.11075,-0.22413 0.33488,-0.1134 0.33488,-0.1134c0.56593,0.28062 0.9912,0.48907 1.38651,1.00341l0.0419,0.04558c0,0 0.16697,0.18607 -0.01909,0.35304z" fill="#7a6500"/><path d="M240.15785,176.0909c0.24903,-0.02194 0.27098,0.22709 0.27098,0.22709l0.0095,0.1364c-0.03572,0.51307 -0.31318,1.14551 -0.53689,1.61655c0,0 -0.10753,0.22569 -0.33322,0.11817c-0.2257,-0.10753 -0.11817,-0.33322 -0.11817,-0.33322c0.19407,-0.40591 0.47524,-0.98959 0.489,-1.42849l-0.0083,-0.06552c0,0 -0.02194,-0.24904 0.22709,-0.27098z" fill="#7a6500"/><path d="M241.80771,175.11599c-0.22932,0.09957 -0.32889,-0.12975 -0.32889,-0.12975l-0.01721,-0.04151c-0.19437,-0.38162 -0.58177,-0.68867 -0.85047,-1.02829c0,0 -0.15506,-0.19612 0.04107,-0.35116c0.19612,-0.15504 0.35116,0.04108 0.35116,0.04108c0.29393,0.37209 0.67523,0.6903 0.90025,1.10465l0.03384,0.07609c0,0 0.09957,0.22932 -0.12975,0.32888z" fill="#7a6500"/><path d="M241.88967,175.42198c0.24993,-0.00569 0.25562,0.24425 0.25562,0.24425l0.003,0.16692c0.04644,0.45638 -0.02651,0.80641 -0.12537,1.25048c0,0 -0.05435,0.24401 -0.29837,0.18966c-0.24402,-0.05435 -0.18967,-0.29837 -0.18967,-0.29837c0.08826,-0.39605 0.15819,-0.68624 0.11604,-1.09057l-0.0055,-0.20674c0,0 -0.00568,-0.24993 0.24425,-0.25562z" fill="#7a6500"/><path d="M243.0697,174.92524c0.24964,0.0135 0.23614,0.26313 0.23614,0.26313l-0.0214,0.04706c0.08619,0.24659 0.18093,0.48882 0.28588,0.7271c-0.131,0.13115 -0.25535,0.26212 -0.37122,0.39175c-0.14505,-0.31137 -0.27284,-0.6289 -0.3866,-0.95371l-0.00592,-0.23919c0,0 0.01349,-0.24964 0.26313,-0.23614z" fill="#7a6500"/><path d="M243.1951,174.56106c-0.21785,0.12264 -0.34049,-0.09522 -0.34049,-0.09522l-0.05989,-0.11851c-0.18157,-0.20232 -0.35944,-0.40102 -0.52517,-0.61666c0,0 -0.15222,-0.19832 0.04611,-0.35053c0.19833,-0.15221 0.35053,0.04611 0.35053,0.04611c0.15763,0.20569 0.32762,0.39433 0.50066,0.58714l0.12347,0.20719c0,0 0.12263,0.21785 -0.09522,0.34049z" fill="#7a6500"/><path d="M244.45896,174.39059c0.24545,-0.04745 0.2929,0.19802 0.2929,0.19802l0.01589,0.08985c0.01833,0.05948 0.03668,0.11767 0.0546,0.17516c-0.14045,0.11177 -0.27975,0.22614 -0.41652,0.34226c-0.03537,-0.12159 -0.07651,-0.24237 -0.1159,-0.37015l-0.02898,-0.14223c0,0 -0.04745,-0.24546 0.198,-0.29291z" fill="#7a6500"/><path d="M244.17429,174.35398c-0.22932,0.09957 -0.32888,-0.12975 -0.32888,-0.12975l-0.06065,-0.14353c-0.05065,-0.16512 -0.10897,-0.32828 -0.17801,-0.4866c0,0 -0.05109,-0.11766 0.0042,-0.22101c0.14804,0.01056 0.30032,0.0182 0.45487,0.0229c0.07569,0.17512 0.14034,0.35521 0.19676,0.53745l0.04146,0.09166c0,0 0.09957,0.22932 -0.12975,0.32889z" fill="#7a6500"/><path d="M238.82182,176.36763c-0.16852,0.18466 -0.35318,0.01614 -0.35318,0.01614l-0.14118,-0.12926c-0.19089,-0.15773 -0.38053,-0.31703 -0.5675,-0.47938c0,0 -0.18876,-0.16391 -0.02485,-0.35268c0.16392,-0.18876 0.35269,-0.02486 0.35269,-0.02486c0.18387,0.15969 0.37038,0.31634 0.55813,0.47145l0.15975,0.14539c0,0 0.18466,0.16852 0.01613,0.35318z" fill="#246800"/><path d="M238.97328,176.92926c0.18313,0.17019 0.01296,0.35332 0.01296,0.35332l-0.16858,0.17989c-0.07543,0.06769 -0.15086,0.13538 -0.22629,0.20307c0,0 -0.18607,0.16698 -0.35304,-0.01908c-0.16697,-0.18606 0.01909,-0.35304 0.01909,-0.35304c0.07543,-0.06769 0.15086,-0.13539 0.22629,-0.20308l0.13625,-0.14812c0,0 0.17019,-0.18314 0.35332,-0.01296z" fill="#246800"/><path d="M239.91425,176.43747c0.24402,0.05435 0.18967,0.29837 0.18967,0.29837l-0.04625,0.19924c-0.10107,0.28314 -0.2293,0.51974 -0.39721,0.76875c0,0 -0.14001,0.20712 -0.34713,0.06711c-0.20711,-0.14001 -0.0671,-0.34713 -0.0671,-0.34713c0.14507,-0.21402 0.25454,-0.4112 0.34008,-0.65551l0.02957,-0.14117c0,0 0.05435,-0.24402 0.29837,-0.18967z" fill="#246800"/><path d="M239.57004,176.02467c-0.18606,0.16697 -0.35304,-0.01908 -0.35304,-0.01908l-0.01306,-0.01892c-0.2246,-0.18416 -0.43467,-0.35958 -0.62944,-0.57563c0,0 -0.16697,-0.18607 0.01909,-0.35304c0.18606,-0.16697 0.35304,0.01909 0.35304,0.01909c0.17668,0.19789 0.36939,0.35491 0.57433,0.52294l0.06817,0.07161c0,0 0.16697,0.18607 -0.01909,0.35304z" fill="#246800"/><path d="M240.49416,175.65836c-0.18606,0.16697 -0.35304,-0.01908 -0.35304,-0.01908l-0.06236,-0.07325c-0.16638,-0.24879 -0.33516,-0.49587 -0.50386,-0.74309c0,0 -0.14092,-0.2065 0.06558,-0.34742c0.2065,-0.14092 0.34742,0.06558 0.34742,0.06558c0.16959,0.24851 0.33922,0.49687 0.50648,0.74695l0.01887,0.01727c0,0 0.16697,0.18607 -0.01909,0.35304z" fill="#246800"/><path d="M241.26987,175.68767c0.2411,-0.06614 0.30723,0.17495 0.30723,0.17495l0.03252,0.16706c-0.02261,0.41614 -0.088,0.82698 -0.11026,1.24285c0,0 -0.0135,0.24964 -0.26314,0.23614c-0.24964,-0.0135 -0.23614,-0.26313 -0.23614,-0.26313c0.02271,-0.41593 0.08788,-0.82672 0.11026,-1.24285l-0.01544,-0.00778c0,0 -0.06614,-0.24109 0.17496,-0.30723z" fill="#246800"/><path d="M241.35948,175.31758c-0.18606,0.16697 -0.35303,-0.01909 -0.35303,-0.01909l-0.09349,-0.10528c-0.17245,-0.225 -0.32082,-0.44845 -0.5111,-0.65947c0,0 -0.16697,-0.18607 0.01909,-0.35304c0.18606,-0.16697 0.35304,0.01909 0.35304,0.01909c0.19832,0.22194 0.35501,0.45401 0.53562,0.689l0.06897,0.07575c0,0 0.16697,0.18607 -0.01909,0.35304z" fill="#246800"/><path d="M242.20283,175.29464c0.24964,0.0135 0.23614,0.26314 0.23614,0.26314l-0.01032,0.16789c-0.02805,0.18079 -0.05217,0.36227 -0.0716,0.5442c0,0 -0.0266,0.24857 -0.27518,0.22197c-0.24858,-0.0266 -0.22198,-0.27517 -0.22198,-0.27517c0.02034,-0.18972 0.04548,-0.37897 0.07465,-0.56753l0.00516,-0.11835c0,0 0.01349,-0.24963 0.26313,-0.23613z" fill="#246800"/><path d="M242.32886,174.91066c-0.18606,0.16697 -0.35304,-0.01909 -0.35304,-0.01909l-0.03934,-0.04494c-0.16588,-0.21748 -0.34092,-0.37572 -0.54928,-0.55356c0,0 -0.1901,-0.16236 -0.02774,-0.35246c0.16236,-0.1901 0.35246,-0.02774 0.35246,-0.02774c0.23381,0.19982 0.43326,0.38577 0.62122,0.62934l0.01482,0.01541c0,0 0.16697,0.18607 -0.01909,0.35304z" fill="#246800"/><path d="M243.5718,174.6653c0.24964,0.0135 0.23614,0.26313 0.23614,0.26313l-0.00765,0.11336c-0.04603,0.27116 -0.03883,0.43865 0.01134,0.68592c-0.12964,0.12277 -0.25439,0.24598 -0.37275,0.36869c-0.07113,-0.0585 -0.09134,-0.14927 -0.09134,-0.14927c-0.08023,-0.36707 -0.10046,-0.61965 -0.04049,-0.9873l0.00163,-0.05839c0,0 0.01349,-0.24964 0.26313,-0.23614z" fill="#246800"/><path d="M244.15823,174.43863c0.24964,0.0135 0.23614,0.26313 0.23614,0.26313l-0.00985,0.05632c0.02989,0.16585 0.02445,0.29362 0.05432,0.40987c-0.13229,0.11172 -0.26233,0.22513 -0.38887,0.33943c-0.102,-0.19699 -0.10371,-0.36714 -0.1574,-0.65991l0.00253,-0.17269c0,0 0.0135,-0.24964 0.26313,-0.23614z" fill="#246800"/><path d="M244.72624,174.34475c-0.23284,0.09101 -0.32386,-0.14184 -0.32386,-0.14184l-0.03671,-0.11139c-0.05764,-0.08445 -0.11527,-0.16891 -0.1729,-0.25337c0,0 -0.14092,-0.2065 0.06558,-0.34742c0.2065,-0.14092 0.34743,0.06557 0.34743,0.06557c0.05764,0.08445 0.11526,0.16891 0.1729,0.25337l0.0894,0.21122c0,0 0.09101,0.23284 -0.14183,0.32386z" fill="#246800"/><path d="M242.78865,175.1144c0.24846,-0.02773 0.27618,0.22073 0.27618,0.22073l0.02048,0.18687c0.01479,0.2653 0.05326,0.52041 0.09681,0.78241c0,0 0.00472,0.02835 0.00133,0.06742c-0.06438,0.07243 -0.12608,0.14442 -0.18478,0.21577c-0.00713,0.00166 -0.01452,0.00313 -0.02219,0.00441c-0.24662,0.04098 -0.2876,-0.20564 -0.2876,-0.20564c-0.04646,-0.27972 -0.08647,-0.55284 -0.10278,-0.83605l-0.01819,-0.15972c0,0 -0.02773,-0.24846 0.22073,-0.27618z" fill="#693d00"/><path d="M244.70237,174.25046c0.22932,-0.09957 0.32888,0.12975 0.32888,0.12975l0.03731,0.09223c0.01395,0.05153 0.02937,0.10273 0.04618,0.15349c-0.13842,0.10548 -0.27664,0.21403 -0.41339,0.32487c-0.04402,-0.11341 -0.08249,-0.22903 -0.11497,-0.34608l-0.01375,-0.02537c0,0 -0.09957,-0.22932 0.12975,-0.32889z" fill="#693d00"/></g><g data-paper-data="{&quot;index&quot;:null}" stroke="none" stroke-width="0.5" stroke-linecap="butt"><path d="M244.52159,171.73209c-0.19546,0.15587 -0.35132,-0.03958 -0.35132,-0.03958l0.04889,-0.00138c-0.42171,-0.14486 -0.85026,-0.30412 -1.28992,-0.37847c-1.72636,-0.29807 -3.48736,-0.36304 -5.16523,-0.6268c0,0 -0.24635,-0.04253 -0.20382,-0.28889c0.04253,-0.24635 0.28889,-0.20382 0.28889,-0.20382c1.62167,0.31685 3.47316,0.33466 5.16523,0.6268c0.46658,0.08196 0.91932,0.24442 1.36729,0.3983l0.17959,0.16252c0,0 0.15587,0.19546 -0.03959,0.35133z" fill="#7a6a5e"/><path d="M238.48457,170.52303c-0.24453,0.052 -0.29653,-0.19253 -0.29653,-0.19253c-0.01827,-0.08591 -0.07871,-0.37011 -0.09698,-0.45602c0,0 -0.0158,-0.0743 0.01098,-0.1497c-0.09577,-0.37148 -0.21217,-0.81363 -0.51735,-0.99182c0,0 -0.20968,-0.13613 -0.07354,-0.34581c0.13614,-0.20968 0.34581,-0.07354 0.34581,-0.07354c0.49641,0.34238 0.62402,0.94867 0.7882,1.50633l0.03422,0.15739c0,0 0.01873,0.08809 -0.01916,0.16977l0.01689,0.0794c0,0 0.052,0.24453 -0.19253,0.29653z" fill="#7a0c00"/><path d="M238.37921,170.64826c0.19337,0.15846 0.0349,0.35183 0.0349,0.35183l-0.08731,0.10635c-0.37455,0.42725 -0.70736,0.61563 -1.26143,0.73385c0,0 -0.24454,0.052 -0.29654,-0.19253c-0.052,-0.24453 0.19253,-0.29653 0.19253,-0.29653c0.45276,-0.09594 0.6835,-0.22236 0.9888,-0.57363l0.07722,-0.09443c0,0 0.15847,-0.19336 0.35183,-0.03491z" fill="#7a0c00"/><path d="M240.35879,170.66327c-0.24453,0.052 -0.29653,-0.19253 -0.29653,-0.19253l-0.01265,-0.05948c-0.08922,-0.41959 -0.1666,-0.84309 -0.35751,-1.22974c0,0 -0.10976,-0.22462 0.11486,-0.33437c0.22462,-0.10976 0.33438,0.11486 0.33438,0.11486c0.20679,0.42694 0.29912,0.88347 0.39733,1.34525l0.01265,0.05948c0,0 0.052,0.24454 -0.19253,0.29654z" fill="#7a0c00"/><path d="M240.29434,170.88343c0.19337,0.15846 0.0349,0.35182 0.0349,0.35182l-0.08227,0.10039c-0.31465,0.38394 -0.56868,0.75026 -0.89817,1.04779c-0.34296,0.00377 -0.67954,0.01525 -1.00257,0.03606c0.02417,-0.01489 0.04223,-0.02174 0.04223,-0.02174c0.71212,-0.26823 1.01085,-0.81656 1.47178,-1.37903l0.08227,-0.10038c0,0 0.15847,-0.19336 0.35183,-0.0349z" fill="#7a0c00"/><path d="M242.13618,170.95378c-0.24758,-0.03469 -0.21288,-0.28227 -0.21288,-0.28227l0.03091,-0.18605c-0.0258,-0.47782 -0.17004,-0.90269 -0.32915,-1.34945c0,0 -0.05737,-0.1611 0.05603,-0.26426c0.14392,0.08243 0.30172,0.16692 0.46958,0.25179c0.15127,0.43715 0.27473,0.86283 0.30274,1.33349l-0.03494,0.28387c0,0 -0.03469,0.24758 -0.28227,0.21289z" fill="#7a0c00"/><path d="M242.09097,171.03982c0.20968,0.13614 0.07354,0.34583 0.07354,0.34583l-0.12489,0.19234c-0.21853,0.33573 -0.43702,0.59733 -0.68418,0.85827c-0.22045,-0.01294 -0.44402,-0.02396 -0.66875,-0.03261c0.3672,-0.36114 0.64063,-0.6455 0.93357,-1.09794l0.12488,-0.19235c0,0 0.13614,-0.20969 0.34582,-0.07354z" fill="#7a0c00"/><path d="M243.09873,171.16115c-0.22115,-0.11659 -0.10455,-0.33774 -0.10455,-0.33774l0.06663,-0.12521c0.13309,-0.29766 0.2045,-0.60244 0.23747,-0.91242c0.14006,0.10924 0.29336,0.22029 0.45599,0.33076c-0.04669,0.26507 -0.12196,0.52684 -0.23676,0.7852l-0.08104,0.15487c0,0 -0.11659,0.22114 -0.33774,0.10455z" fill="#7a0c00"/><path d="M243.36628,171.2755c0.2323,0.09238 0.13993,0.32468 0.13993,0.32468l-0.02188,0.05383c-0.06098,0.18491 -0.13315,0.35374 -0.21154,0.51667c-0.21532,0.04387 -0.42722,0.0919 -0.63263,0.14397c0.13905,-0.25949 0.26919,-0.5136 0.36932,-0.81723l0.03213,-0.082c0,0 0.09238,-0.23231 0.32468,-0.13993z" fill="#7a0c00"/><path d="M244.36398,171.4217c-0.24197,-0.06285 -0.17912,-0.30482 -0.17912,-0.30482l0.02278,-0.08774c0.05004,-0.19256 0.09459,-0.36523 0.11595,-0.55091c0.15176,0.09038 0.30712,0.17845 0.46364,0.26272c-0.02531,0.13582 -0.05851,0.27084 -0.09564,0.41388l-0.0228,0.08775c0,0 -0.06284,0.24196 -0.30481,0.17912z" fill="#7a0c00"/><path d="M239.49826,170.51469c-0.24453,0.052 -0.29654,-0.19253 -0.29654,-0.19253l-0.02013,-0.09822c-0.07505,-0.56509 -0.31094,-0.88627 -0.62165,-1.34899c0,0 -0.13911,-0.20772 0.06862,-0.34682c0.20773,-0.1391 0.34683,0.06862 0.34683,0.06862c0.35073,0.52537 0.61549,0.91807 0.70179,1.561l0.0136,0.0604c0,0 0.052,0.24454 -0.19253,0.29654z" fill="#7a6500"/><path d="M239.43698,170.77226c0.22683,0.10512 0.12171,0.33194 0.12171,0.33194l-0.05976,0.12298c-0.28672,0.42698 -0.84251,0.83693 -1.27125,1.13376c0,0 -0.20572,0.14205 -0.34777,-0.06367c-0.14205,-0.20572 0.06367,-0.34778 0.06367,-0.34778c0.37058,-0.25514 0.90527,-0.62097 1.13598,-0.9946l0.02547,-0.06093c0,0 0.10511,-0.22683 0.33194,-0.12171z" fill="#7a6500"/><path d="M241.35321,170.74953c-0.24842,-0.028 -0.22043,-0.27642 -0.22043,-0.27642l0.00577,-0.04456c0.02173,-0.42772 -0.16105,-0.88701 -0.22469,-1.31537c0,0 -0.03665,-0.24731 0.21064,-0.28395c0.2473,-0.03664 0.28395,0.21066 0.28395,0.21066c0.06933,0.46909 0.24125,0.93501 0.22978,1.40639l-0.00859,0.08283c0,0 -0.028,0.24843 -0.27643,0.22043z" fill="#7a6500"/><path d="M241.27173,171.05565c0.2195,0.11965 0.09985,0.33916 0.09985,0.33916l-0.08061,0.1462c-0.18723,0.41879 -0.42495,0.68587 -0.73202,1.02154c0,0 -0.16876,0.18444 -0.35321,0.01568c-0.18445,-0.16876 -0.01569,-0.35321 -0.01569,-0.35321c0.27393,-0.29934 0.47921,-0.51604 0.64422,-0.88757l0.09829,-0.18197c0,0 0.11965,-0.2195 0.33916,-0.09984z" fill="#7a6500"/><path d="M242.54232,171.21325c0.20968,0.13614 0.07355,0.34582 0.07355,0.34582l-0.04201,0.03012c-0.0482,0.25673 -0.08683,0.51395 -0.11463,0.77283c-0.17893,0.04839 -0.35202,0.09995 -0.51709,0.15456c0.02947,-0.34223 0.07698,-0.6812 0.14026,-1.01949l0.1141,-0.21031c0,0 0.13613,-0.20969 0.34581,-0.07354z" fill="#7a6500"/><path d="M242.83256,170.96005c-0.24999,-0.00228 -0.2477,-0.25227 -0.2477,-0.25227l0.00716,-0.13259c-0.05655,-0.2659 -0.1117,-0.52681 -0.14788,-0.79637c0,0 -0.0331,-0.24781 0.21471,-0.2809c0.2478,-0.03309 0.28089,0.21471 0.28089,0.21471c0.03412,0.25689 0.08745,0.50516 0.14134,0.75856l0.00376,0.24116c0,0 -0.00229,0.24999 -0.25227,0.2477z" fill="#7a6500"/><path d="M244.01318,171.44228c0.23644,0.08122 0.15521,0.31767 0.15521,0.31767l-0.03101,0.08581c-0.01377,0.0607 -0.02686,0.12029 -0.03998,0.17907c-0.17747,0.02688 -0.35525,0.05659 -0.5317,0.08908c0.02994,-0.12303 0.05449,-0.24825 0.08404,-0.37866l0.04578,-0.13775c0,0 0.08122,-0.23644 0.31766,-0.15522z" fill="#7a6500"/><path d="M243.78465,171.26864c-0.24842,-0.028 -0.22044,-0.27643 -0.22044,-0.27643l0.01897,-0.15465c0.03841,-0.16839 0.06918,-0.33891 0.08825,-0.51057c0,0 0.01436,-0.12747 0.11381,-0.1895c0.12308,0.08294 0.25127,0.16548 0.38292,0.2466c-0.02167,0.18955 -0.05541,0.37788 -0.09735,0.56399l-0.00974,0.10013c0,0 -0.028,0.24843 -0.27642,0.22044z" fill="#7a6500"/><path d="M238.14082,170.34617c-0.23815,0.07608 -0.31421,-0.16206 -0.31421,-0.16206l-0.05796,-0.18243c-0.08686,-0.23189 -0.17184,-0.46452 -0.25301,-0.69846c0,0 -0.08194,-0.23619 0.15426,-0.31812c0.2362,-0.08193 0.31813,0.15426 0.31813,0.15426c0.07979,0.23009 0.1634,0.45886 0.24884,0.68692l0.06602,0.20567c0,0 0.07608,0.23814 -0.16207,0.31422z" fill="#246800"/><path d="M237.99216,170.90855c0.07393,0.23882 -0.16489,0.31275 -0.16489,0.31275l-0.23581,0.07192c-0.09913,0.02108 -0.19827,0.04216 -0.2974,0.06324c0,0 -0.24453,0.052 -0.29653,-0.19253c-0.052,-0.24453 0.19253,-0.29654 0.19253,-0.29654c0.09913,-0.02108 0.19827,-0.04216 0.2974,-0.06324l0.19195,-0.0605c0,0 0.23882,-0.07393 0.31275,0.16489z" fill="#246800"/><path d="M239.05303,170.95127c0.18445,0.16876 0.01569,0.3532 0.01569,0.3532l-0.13941,0.14967c-0.22876,0.19508 -0.45786,0.33626 -0.72755,0.46842c0,0 -0.22462,0.10976 -0.33437,-0.11486c-0.10976,-0.22462 0.11487,-0.33437 0.11487,-0.33437c0.23245,-0.11322 0.42563,-0.22959 0.62158,-0.39874l0.096,-0.10763c0,0 0.16876,-0.18445 0.35321,-0.01569z" fill="#246800"/><path d="M238.96042,170.42183c-0.24453,0.052 -0.29654,-0.19253 -0.29654,-0.19253l-0.0019,-0.02291c-0.10291,-0.2716 -0.19757,-0.5284 -0.25871,-0.81278c0,0 -0.052,-0.24454 0.19253,-0.29654c0.24453,-0.052 0.29654,0.19253 0.29654,0.19253c0.05452,0.25963 0.1433,0.4918 0.23721,0.73963l0.0234,0.09606c0,0 0.052,0.24454 -0.19253,0.29654z" fill="#246800"/><path d="M239.94413,170.56493c-0.24453,0.052 -0.29654,-0.19253 -0.29654,-0.19253l-0.01754,-0.09458c-0.02023,-0.29862 -0.04337,-0.59694 -0.06639,-0.89535c0,0 -0.01923,-0.24926 0.23003,-0.26849c0.24926,-0.01923 0.26849,0.23004 0.26849,0.23004c0.02313,0.29996 0.04638,0.59983 0.06672,0.9l0.00775,0.02438c0,0 0.052,0.24453 -0.19253,0.29653z" fill="#246800"/><path d="M240.60199,170.97702c0.24197,0.06285 0.17912,0.30482 0.17912,0.30482l-0.05508,0.16103c-0.22704,0.34948 -0.48853,0.67305 -0.71513,1.02247c0,0 -0.13614,0.20968 -0.34582,0.07354c-0.20968,-0.13614 -0.07354,-0.34582 -0.07354,-0.34582c0.22701,-0.34925 0.48829,-0.67288 0.71513,-1.02247l-0.0095,-0.01444c0,0 0.06285,-0.24197 0.30482,-0.17912z" fill="#246800"/><path d="M240.86415,170.70086c-0.24453,0.052 -0.29653,-0.19253 -0.29653,-0.19253l-0.02857,-0.13787c-0.03734,-0.28101 -0.05457,-0.54869 -0.11434,-0.82647c0,0 -0.052,-0.24453 0.19253,-0.29653c0.24453,-0.052 0.29653,0.19253 0.29653,0.19253c0.0613,0.29126 0.08143,0.57055 0.12088,0.86428l0.02203,0.10005c0,0 0.052,0.24454 -0.19253,0.29654z" fill="#246800"/><path d="M241.60669,171.10136c0.20968,0.13614 0.07355,0.34582 0.07355,0.34582l-0.09264,0.1404c-0.11444,0.14275 -0.22581,0.28805 -0.33334,0.43608c0,0 -0.14697,0.20223 -0.34921,0.05526c-0.20224,-0.14697 -0.05526,-0.34921 -0.05526,-0.34921c0.11221,-0.15433 0.22833,-0.30586 0.34761,-0.45478l0.06347,-0.10003c0,0 0.13613,-0.20969 0.34581,-0.07354z" fill="#246800"/><path d="M241.90735,170.83132c-0.24453,0.052 -0.29654,-0.19253 -0.29654,-0.19253l-0.01171,-0.05857c-0.03539,-0.27122 -0.10825,-0.49565 -0.20023,-0.75369c0,0 -0.08387,-0.23551 0.15165,-0.31938c0.23551,-0.08387 0.31938,0.15165 0.31938,0.15165c0.10308,0.28977 0.1833,0.5504 0.22482,0.85524l0.00517,0.02075c0,0 0.052,0.24453 -0.19253,0.29653z" fill="#246800"/><path d="M243.10716,171.23819c0.20968,0.13614 0.07354,0.34582 0.07354,0.34582l-0.06314,0.09445c-0.17507,0.21213 -0.25232,0.36091 -0.33209,0.60028c-0.17359,0.04181 -0.34315,0.08644 -0.50692,0.13381c-0.0325,-0.08617 -0.00477,-0.17494 -0.00477,-0.17494c0.11342,-0.35821 0.22179,-0.58725 0.45705,-0.87608l0.03052,-0.0498c0,0 0.13613,-0.20969 0.34581,-0.07354z" fill="#246800"/><path d="M243.72853,171.33402c0.20968,0.13614 0.07354,0.34582 0.07354,0.34582l-0.03661,0.0439c-0.05677,0.15867 -0.12517,0.26674 -0.15723,0.3824c-0.17038,0.0309 -0.33963,0.06439 -0.5063,0.1004c0.00977,-0.22161 0.09311,-0.36998 0.19251,-0.65054l0.08827,-0.14844c0,0 0.13614,-0.20968 0.34582,-0.07354z" fill="#246800"/><path d="M244.26773,171.53578c-0.24722,-0.03717 -0.21005,-0.28439 -0.21005,-0.28439l0.02371,-0.11487c-0.00787,-0.10195 -0.01573,-0.20389 -0.02359,-0.30584c0,0 -0.01923,-0.24926 0.23003,-0.26848c0.24926,-0.01923 0.2685,0.23003 0.2685,0.23003c0.00787,0.10195 0.01573,0.20389 0.02359,0.30584l-0.02779,0.22767c0,0 -0.03717,0.24722 -0.28439,0.21005z" fill="#246800"/><path d="M242.20438,171.23714c0.22921,0.09982 0.1294,0.32903 0.1294,0.32903l-0.0754,0.1722c-0.11943,0.23736 -0.21324,0.47769 -0.30609,0.72653c0,0 -0.01004,0.02692 -0.03245,0.05911c-0.09191,0.0307 -0.18129,0.06235 -0.26774,0.09494c-0.007,-0.00212 -0.01415,-0.00453 -0.02143,-0.00725c-0.23422,-0.08741 -0.14681,-0.32163 -0.14681,-0.32163c0.09915,-0.26565 0.20063,-0.52236 0.32766,-0.776l0.06385,-0.14753c0,0 0.09981,-0.22921 0.32902,-0.1294z" fill="#693d00"/><path d="M244.29405,171.44214c0.24842,0.028 0.22043,0.27642 0.22043,0.27642l-0.01363,0.09855c-0.0136,0.05163 -0.02576,0.10369 -0.03648,0.15608c-0.17257,0.02244 -0.34652,0.04765 -0.52031,0.07556c0.01837,-0.12026 0.04266,-0.23967 0.07285,-0.35733l0.00072,-0.02885c0,0 0.028,-0.24843 0.27643,-0.22043z" fill="#693d00"/></g><g stroke="none" stroke-width="0.5" stroke-linecap="butt"><path d="M244.69586,167.94593c-0.22507,0.10883 -0.3339,-0.11624 -0.3339,-0.11624l0.04798,0.00946c-0.37928,-0.23445 -0.76205,-0.48446 -1.17441,-0.65412c-1.61783,-0.67213 -3.32096,-1.1246 -4.89909,-1.75256c0,0 -0.23086,-0.09591 -0.13495,-0.32679c0.09591,-0.23087 0.32678,-0.13496 0.32678,-0.13496c1.51158,0.66732 3.31339,1.09377 4.89909,1.75256c0.43693,0.18302 0.84259,0.44151 1.24549,0.69056l0.13924,0.19818c0,0 0.10883,0.22507 -0.11623,0.3339z" fill="#7a6a5e"/><path d="M239.07519,165.43288c-0.24998,-0.00331 -0.24667,-0.25329 -0.24667,-0.25329c0.00116,-0.08783 0.00501,-0.37834 0.00618,-0.46617c0,0 0.00101,-0.07595 0.04378,-0.14357c-0.01132,-0.38345 -0.02717,-0.84041 -0.28543,-1.08161c0,0 -0.17442,-0.1791 0.00469,-0.35352c0.1791,-0.17442 0.35352,0.00468 0.35352,0.00468c0.40849,0.44359 0.39899,1.0631 0.43589,1.64325l-0.0014,0.16106c0,0 -0.00119,0.09006 -0.05619,0.16135l-0.00108,0.08116c0,0 -0.00331,0.24998 -0.25329,0.24667z" fill="#7a0c00"/><path d="M238.94476,165.53174c0.15357,0.19727 -0.04369,0.35084 -0.04369,0.35084l-0.10865,0.08443c-0.4597,0.33393 -0.8259,0.44412 -1.3924,0.437c0,0 -0.24998,-0.00331 -0.24667,-0.25329c0.00331,-0.24998 0.25329,-0.24667 0.25329,-0.24667c0.46277,0.00646 0.71574,-0.06584 1.0911,-0.34098l0.09618,-0.07504c0,0 0.19726,-0.15357 0.35084,0.0437z" fill="#7a0c00"/><path d="M240.8721,165.98376c-0.24998,-0.00331 -0.24666,-0.25329 -0.24666,-0.25329l0.0008,-0.0608c0.00568,-0.42893 0.0238,-0.85906 -0.07696,-1.27833c0,0 -0.05742,-0.24332 0.1859,-0.30074c0.24332,-0.05741 0.30073,0.1859 0.30073,0.1859c0.10735,0.46208 0.09654,0.92772 0.09028,1.39979l-0.0008,0.06081c0,0 -0.00331,0.24997 -0.25329,0.24666z" fill="#7a0c00"/><path d="M240.7606,166.18424c0.15357,0.19727 -0.04369,0.35084 -0.04369,0.35084l-0.10242,0.07973c-0.39171,0.30493 -0.72038,0.60607 -1.10747,0.82344c-0.33532,-0.0721 -0.66611,-0.13527 -0.98576,-0.18636c0.02686,-0.00919 0.04599,-0.01187 0.04599,-0.01187c0.75379,-0.10425 1.16628,-0.57303 1.74009,-1.01976l0.10242,-0.07973c0,0 0.19727,-0.15357 0.35084,0.0437z" fill="#7a0c00"/><path d="M242.54137,166.6598c-0.23379,-0.08854 -0.14526,-0.32233 -0.14526,-0.32233l0.07126,-0.17463c0.08041,-0.47171 0.03361,-0.91795 -0.02286,-1.38883c0,0 -0.02036,-0.16979 0.11303,-0.24535c0.12215,0.11219 0.25738,0.22946 0.40234,0.34932c0.05094,0.45977 0.0773,0.90221 0.00063,1.36742l-0.0968,0.26914c0,0 -0.08854,0.23379 -0.32234,0.14525z" fill="#7a0c00"/><path d="M242.47827,166.73373c0.17442,0.1791 -0.00468,0.35352 -0.00468,0.35352l-0.1643,0.16c-0.28731,0.27916 -0.5582,0.48602 -0.85691,0.6859c-0.21215,-0.06133 -0.42775,-0.12147 -0.64502,-0.17957c0.43792,-0.27109 0.76741,-0.488 1.15309,-0.86453l0.1643,-0.16c0,0 0.1791,-0.17442 0.35352,0.00468z" fill="#7a0c00"/><path d="M243.43431,167.07472c-0.18992,-0.16258 -0.02734,-0.3525 -0.02734,-0.3525l0.09266,-0.1074c0.19557,-0.2609 0.33255,-0.54236 0.43319,-0.83739c0.11246,0.1375 0.23744,0.27966 0.37164,0.42333c-0.10411,0.24821 -0.23535,0.48687 -0.4044,0.71348l-0.11326,0.13313c0,0 -0.16257,0.18992 -0.35249,0.02735z" fill="#7a0c00"/><path d="M243.66998,167.24535c0.20615,0.14142 0.06474,0.34758 0.06474,0.34758l-0.03324,0.04767c-0.10033,0.16687 -0.20801,0.31557 -0.32047,0.45716c-0.21969,-0.00478 -0.43697,-0.00475 -0.64881,0.00064c0.19294,-0.22236 0.37602,-0.44143 0.54076,-0.71543l0.04944,-0.07287c0,0 0.14142,-0.20616 0.34758,-0.06474z" fill="#7a0c00"/><path d="M244.61073,167.60839c-0.2221,-0.11476 -0.10735,-0.33687 -0.10735,-0.33687l0.04161,-0.08053c0.09134,-0.17675 0.17294,-0.33531 0.23481,-0.51167c0.12804,0.12168 0.2601,0.24189 0.39413,0.35867c-0.05469,0.12688 -0.11691,0.25122 -0.18473,0.38252l-0.04161,0.08054c0,0 -0.11476,0.22211 -0.33686,0.10735z" fill="#7a0c00"/><path d="M240.06566,165.64872c-0.24998,-0.00331 -0.24666,-0.25329 -0.24666,-0.25329l0.00206,-0.10023c0.05166,-0.5677 -0.10744,-0.93308 -0.30823,-1.453c0,0 -0.08976,-0.23333 0.14356,-0.32309c0.23333,-0.08976 0.3231,0.14356 0.3231,0.14356c0.22598,0.58989 0.39742,1.03137 0.33954,1.67748l-0.00008,0.06191c0,0 -0.00331,0.24998 -0.25329,0.24667z" fill="#7a6500"/><path d="M239.94899,165.88638c0.19799,0.15264 0.04536,0.35064 0.04536,0.35064l-0.08546,0.10673c-0.37399,0.35307 -1.0066,0.6301 -1.49033,0.82486c0,0 -0.23202,0.09309 -0.32511,-0.13893c-0.09309,-0.23202 0.13894,-0.32511 0.13894,-0.32511c0.4178,-0.16696 1.02011,-0.40561 1.32767,-0.71902l0.0383,-0.0538c0,0 0.15264,-0.198 0.35063,-0.04536z" fill="#7a6500"/><path d="M241.82289,166.28761c-0.23611,-0.08219 -0.15391,-0.3183 -0.15391,-0.3183l0.01547,-0.04219c0.11569,-0.41234 0.03891,-0.90067 0.07149,-1.33251c0,0 0.0189,-0.24929 0.26818,-0.23039c0.24928,0.0189 0.23039,0.26819 0.23039,0.26819c-0.03602,0.47281 0.0287,0.9652 -0.08664,1.42239l-0.02668,0.07888c0,0 -0.08219,0.2361 -0.31829,0.15391z" fill="#7a6500"/><path d="M241.67578,166.56815c0.18764,0.1652 0.02245,0.35284 0.02245,0.35284l-0.11092,0.12478c-0.27514,0.36707 -0.56599,0.57502 -0.93963,0.83455c0,0 -0.20535,0.14261 -0.34795,-0.06273c-0.1426,-0.20534 0.06274,-0.34795 0.06274,-0.34795c0.33331,-0.23143 0.58138,-0.3974 0.8244,-0.72329l0.13607,-0.15576c0,0 0.1652,-0.18765 0.35284,-0.02245z" fill="#7a6500"/><path d="M242.88015,167.0026c0.17442,0.1791 -0.00468,0.35352 -0.00468,0.35352l-0.04763,0.0201c-0.10373,0.23973 -0.19824,0.48207 -0.28254,0.72841c-0.18521,0.00767 -0.36541,0.0197 -0.53845,0.03648c0.10435,-0.32727 0.22559,-0.64736 0.36205,-0.9633l0.15774,-0.1799c0,0 0.1791,-0.17442 0.35352,0.00469z" fill="#7a6500"/><path d="M243.21916,166.81979c-0.2433,-0.05746 -0.18585,-0.30077 -0.18585,-0.30077l0.03628,-0.12773c0.0036,-0.27183 0.00747,-0.53848 0.03173,-0.80937c0,0 0.02247,-0.24899 0.27146,-0.22652c0.24899,0.02247 0.22651,0.27147 0.22651,0.27147c-0.02348,0.25808 -0.02632,0.51199 -0.02975,0.77104l-0.04962,0.23603c0,0 -0.05746,0.24331 -0.30077,0.18585z" fill="#7a6500"/><path d="M244.26405,167.55095c0.21265,0.13145 0.08119,0.3441 0.08119,0.3441l-0.04922,0.07684c-0.02683,0.05615 -0.05276,0.11138 -0.07854,0.16581c-0.17902,-0.01299 -0.35898,-0.02329 -0.53824,-0.03059c0.05638,-0.11338 0.108,-0.23008 0.16563,-0.35074l0.07508,-0.12422c0,0 0.13146,-0.21265 0.34411,-0.0812z" fill="#7a6500"/><path d="M244.07953,167.33111c-0.23611,-0.08219 -0.15391,-0.3183 -0.15391,-0.3183l0.05266,-0.14664c0.07467,-0.15574 0.14236,-0.31526 0.19888,-0.47846c0,0 0.04217,-0.12113 0.15287,-0.15966c0.10171,0.10809 0.2085,0.2169 0.31897,0.3251c-0.06302,0.18007 -0.13753,0.3563 -0.21955,0.52855l-0.03162,0.0955c0,0 -0.08219,0.2361 -0.3183,0.15391z" fill="#7a6500"/><path d="M238.779,165.18445c-0.24907,0.02158 -0.27065,-0.22749 -0.27065,-0.22749l-0.01622,-0.19073c-0.03348,-0.24535 -0.06496,-0.491 -0.09243,-0.73709c0,0 -0.02772,-0.24846 0.22074,-0.27618c0.24846,-0.02772 0.27618,0.22074 0.27618,0.22074c0.02699,0.24203 0.05797,0.48362 0.09092,0.72492l0.01895,0.21518c0,0 0.02157,0.24907 -0.22749,0.27065z" fill="#246800"/><path d="M238.50976,165.70008c0.01934,0.24925 -0.22992,0.26859 -0.22992,0.26859l-0.24587,0.01804c-0.10134,-0.00134 -0.20269,-0.00268 -0.30403,-0.00403c0,0 -0.24997,-0.00331 -0.24666,-0.25329c0.00331,-0.24998 0.25329,-0.24667 0.25329,-0.24667c0.10134,0.00134 0.20269,0.00269 0.30402,0.00403l0.20058,-0.01659c0,0 0.24925,-0.01933 0.26859,0.22992z" fill="#246800"/><path d="M239.53498,165.97614c0.1426,0.20534 -0.06274,0.34795 -0.06274,0.34795l-0.16903,0.11516c-0.2662,0.13971 -0.52084,0.22679 -0.81307,0.2961c0,0 -0.24332,0.05742 -0.30074,-0.1859c-0.05741,-0.24332 0.1859,-0.30074 0.1859,-0.30074c0.25172,-0.05907 0.46585,-0.12987 0.69431,-0.25154l0.11742,-0.08376c0,0 0.20534,-0.1426 0.34794,0.06274z" fill="#246800"/><path d="M239.56163,165.43933c-0.24998,-0.00331 -0.24667,-0.25329 -0.24667,-0.25329l0.00321,-0.02276c-0.04036,-0.28763 -0.07594,-0.559 -0.07274,-0.84986c0,0 0.00331,-0.24997 0.25329,-0.24666c0.24998,0.00331 0.24666,0.25329 0.24666,0.25329c-0.0042,0.26526 0.0311,0.51131 0.06793,0.77376l0.0016,0.09886c0,0 -0.00331,0.24998 -0.25329,0.24667z" fill="#246800"/><path d="M240.48942,165.79624c-0.24998,-0.00331 -0.24667,-0.25329 -0.24667,-0.25329l0.00378,-0.09613c0.04625,-0.2957 0.08959,-0.59177 0.13308,-0.88789c0,0 0.03632,-0.24735 0.28367,-0.21103c0.24735,0.03632 0.21103,0.28367 0.21103,0.28367c-0.04371,0.29766 -0.08729,0.59527 -0.13377,0.89252l0.00217,0.02549c0,0 -0.00331,0.24998 -0.25329,0.24667z" fill="#246800"/><path d="M241.03997,166.34349c0.2221,0.11476 0.10735,0.33686 0.10735,0.33686l-0.0893,0.14488c-0.29864,0.29068 -0.62516,0.54846 -0.92336,0.83919c0,0 -0.17911,0.17442 -0.35353,-0.00468c-0.17442,-0.1791 0.00469,-0.35352 0.00469,-0.35352c0.29857,-0.29046 0.62489,-0.54836 0.92336,-0.83919l-0.00607,-0.01619c0,0 0.11476,-0.2221 0.33686,-0.10735z" fill="#246800"/><path d="M241.35667,166.13208c-0.24998,-0.00331 -0.24667,-0.25329 -0.24667,-0.25329l0.0026,-0.14077c0.02567,-0.28232 0.06801,-0.54719 0.07109,-0.83131c0,0 0.00331,-0.24998 0.25329,-0.24667c0.24998,0.00331 0.24667,0.25329 0.24667,0.25329c-0.00457,0.29761 -0.04664,0.57445 -0.07307,0.86964l-0.00062,0.10244c0,0 -0.00331,0.24998 -0.25329,0.24667z" fill="#246800"/><path d="M241.99237,166.68675c0.17442,0.1791 -0.00468,0.35352 -0.00468,0.35352l-0.12137,0.11647c-0.14316,0.11393 -0.28387,0.23103 -0.42144,0.35164c0,0 -0.18803,0.16477 -0.35279,-0.02326c-0.16476,-0.18803 0.02326,-0.35279 0.02326,-0.35279c0.14354,-0.12572 0.29027,-0.24784 0.4395,-0.36674l0.08399,-0.08354c0,0 0.17911,-0.17442 0.35353,0.00468z" fill="#246800"/><path d="M242.34526,166.4898c-0.24998,-0.00331 -0.24667,-0.25329 -0.24667,-0.25329l0.00152,-0.0597c0.02541,-0.27234 0.00394,-0.50733 -0.02876,-0.77931c0,0 -0.02976,-0.24822 0.21846,-0.27797c0.24822,-0.02975 0.27798,0.21846 0.27798,0.21846c0.03651,0.30539 0.05715,0.57729 0.03029,0.88378l0.00045,0.02138c0,0 -0.00331,0.24997 -0.25329,0.24666z" fill="#246800"/><path d="M243.42552,167.15173c0.17442,0.1791 -0.00468,0.35352 -0.00468,0.35352l-0.08246,0.07816c-0.21762,0.16821 -0.32583,0.29625 -0.45651,0.51207c-0.17853,0.00242 -0.35377,0.00849 -0.52397,0.01851c-0.01266,-0.09123 0.03401,-0.17168 0.03401,-0.17168c0.18976,-0.3243 0.34606,-0.52372 0.63932,-0.75343l0.04076,-0.04183c0,0 0.17911,-0.17442 0.35353,0.00468z" fill="#246800"/><path d="M244.01035,167.38247c0.17442,0.1791 -0.00468,0.35352 -0.00468,0.35352l-0.04541,0.03473c-0.09043,0.14221 -0.18101,0.23249 -0.23783,0.33821c-0.17299,-0.0075 -0.34547,-0.01224 -0.51598,-0.01395c0.05849,-0.21398 0.17254,-0.34026 0.33148,-0.59193l0.11889,-0.12527c0,0 0.1791,-0.17442 0.35352,0.00468z" fill="#246800"/><path d="M244.49165,167.69838c-0.2329,-0.09088 -0.14202,-0.32378 -0.14202,-0.32378l0.04851,-0.10678c0.01486,-0.10117 0.02971,-0.20233 0.04456,-0.30349c0,0 0.03632,-0.24735 0.28367,-0.21103c0.24735,0.03632 0.21103,0.28367 0.21103,0.28367c-0.01486,0.10117 -0.02971,0.20232 -0.04457,0.30349l-0.0774,0.2159c0,0 -0.09088,0.2329 -0.32378,0.14202z" fill="#246800"/><path d="M242.54528,166.95123c0.20149,0.14799 0.0535,0.34948 0.0535,0.34948l-0.11158,0.1513c-0.16891,0.20511 -0.31352,0.41877 -0.45905,0.64094c0,0 -0.01575,0.02403 -0.04471,0.05047c-0.09643,0.00963 -0.19058,0.02076 -0.2821,0.03344c-0.00636,-0.00361 -0.0128,-0.00754 -0.01931,-0.0118c-0.20912,-0.137 -0.07211,-0.34612 -0.07211,-0.34612c0.1554,-0.23717 0.31107,-0.46512 0.49102,-0.68443l0.09486,-0.12978c0,0 0.14799,-0.20149 0.34948,-0.0535z" fill="#693d00"/><path d="M244.53801,167.61287c0.23611,0.08219 0.15391,0.3183 0.15391,0.3183l-0.03507,0.0931c-0.02466,0.04735 -0.04803,0.09544 -0.07007,0.14416c-0.17326,-0.01624 -0.34848,-0.03009 -0.52415,-0.04127c0.04449,-0.11323 0.09456,-0.22432 0.15,-0.3324l0.00708,-0.02797c0,0 0.08219,-0.2361 0.3183,-0.15391z" fill="#693d00"/></g><path d="" fill="#864e00" stroke="none" stroke-width="0.5" stroke-linecap="butt"/><path d="" fill="#7c4800" stroke="none" stroke-width="0.5" stroke-linecap="butt"/><path d="" fill="#7c4800" stroke="none" stroke-width="0.5" stroke-linecap="butt"/><path d="M245.43902,166.0711c0.15592,-0.03642 0.30018,0.01167 0.30018,0.01167l0.294,0.0982c0.84601,0.31236 1.40036,0.73535 1.94198,1.45505c2.7092,1.6065 0.11116,4.80785 -0.16347,7.04469c-0.08681,0.70703 0.49628,1.75067 0.01845,2.36496c-0.99015,1.27292 -1.91248,-0.05921 -2.45722,-0.88077c-1.20137,-2.98513 -2.52945,-6.79253 -0.48914,-9.88513c0,0 0.21708,-0.32561 0.55521,-0.20866zM246.84671,170.72898c0.41422,0 0.75,-0.33578 0.75,-0.75c0,-0.41422 -0.33578,-0.75 -0.75,-0.75c-0.41422,0 -0.75,0.33578 -0.75,0.75c0,0.41422 0.33578,0.75 0.75,0.75z" fill="#553f22" stroke="none" stroke-width="0.5" stroke-linecap="butt"/><path d="M247.07913,169.437c-0.20801,0.13868 -0.34668,-0.06934 -0.34668,-0.06934l-0.051,-0.08067c-0.21015,0.36541 -0.47537,0.65267 -0.47537,1.16075c0,0 0,0.00804 -0.00144,0.02123c0.01353,0.00324 0.02696,0.00658 0.04029,0.01001c1.48209,-0.00194 1.25815,-0.5718 0.87988,-1.07853c-0.01293,0.01257 -0.02806,0.02481 -0.04568,0.03655zM247.83388,170.43304l-0.06967,0.19019c-0.12965,0.21309 -0.26485,0.41609 -0.40335,0.6195l-0.08765,0.26297c-0.03142,0.10216 -0.12654,0.17641 -0.239,0.17641c-0.09266,0 -0.17354,-0.05041 -0.21673,-0.1253l-0.13827,-0.23045c-0.09429,-0.18428 -0.28008,-0.28822 -0.48218,-0.34737h-0.00657c0,0 -0.06467,0 -0.12823,-0.03289c-0.03357,-0.00672 -0.06713,-0.01247 -0.10036,-0.01738c0,0 -0.2466,-0.0411 -0.2055,-0.2877c0.00165,-0.00992 0.00364,-0.01937 0.00593,-0.02838c-0.05621,-0.07245 -0.05621,-0.1649 -0.05621,-0.1649c0,-0.82146 0.58544,-1.06839 0.70313,-1.79654c0,-0.05865 0,-0.26596 0,-0.26596c0,-0.13807 0.11193,-0.25 0.25,-0.25c0.13807,0 0.25,0.11193 0.25,0.25v0.17969c0.37853,0.59042 0.87886,1.21419 0.91795,1.67973c0.03924,0.09083 0.00673,0.18839 0.00673,0.18839z" fill="#b9b9b9" stroke="none" stroke-width="0.5" stroke-linecap="butt"/><path d="M248.61233,169.51023c0,-0.09375 0,-0.46875 0,-0.5625c0,0 0,-0.25 0.25,-0.25c0.25,0 0.25,0.25 0.25,0.25c0,0.08874 0,0.17749 0,0.26623c0.09375,0.07251 0.09375,0.20252 0.09375,0.20252c0,1.66737 -0.95091,3.36428 -1.23414,5.00825c-0.63952,1.02252 0.70417,2.07919 -0.48373,3.03588l-0.26739,0.10986c0,0 -0.23212,0.09285 -0.32497,-0.13927c-0.09285,-0.23212 0.13927,-0.32496 0.13927,-0.32496l0.20135,-0.07764c0.83191,-0.65784 -0.23713,-1.90644 0.26627,-2.77662c0.2403,-1.49555 1.09256,-3.03405 1.19356,-4.54731c-0.08395,-0.07366 -0.08395,-0.19444 -0.08395,-0.19444z" fill="#b9b9b9" stroke="none" stroke-width="0.5" stroke-linecap="butt"/><path d="M246.46496,165.74494c0.33283,0.23104 0.552,0.67297 0.41793,1.02693c-0.20589,-0.10222 -0.47179,-0.15575 -0.75686,-0.17127c-0.15471,-0.12443 -0.33654,-0.22317 -0.53425,-0.27802c-0.07342,-0.10766 -0.17415,-0.19522 -0.29221,-0.2527c0.0393,-0.09265 0.12346,-0.19791 0.26538,-0.31689c0.19398,-0.16264 0.41091,-0.19458 0.61345,-0.14238c0.0059,-0.00109 0.01185,-0.00217 0.01783,-0.00322c0,0 0.19799,-0.033 0.26872,0.13755zM246.05749,166.16879c-0.00412,0.00222 -0.00814,0.00446 -0.01207,0.00674c0.00363,0.00265 0.00734,0.00535 0.01114,0.00812l0.00772,-0.00966c-0.00229,-0.00175 -0.00455,-0.00349 -0.0068,-0.0052z" fill="#7a3535" stroke="none" stroke-width="0.5" stroke-linecap="butt"/><path d="M240.5666,168.25712c-0.35909,-0.49026 -0.0912,-1.21621 0.192,-1.4194c-0.04291,-0.64588 0.17585,-1.16057 1.04575,-0.94309c0.62408,0.15602 1.92849,1.93864 1.55625,2.59006c-0.27799,0.48647 -2.34389,-1.43054 -1.99093,-0.01871l0.00967,0.01935c0.01829,0.03474 0.02864,0.07431 0.02864,0.1163c0,0.0081 -0.00038,0.01611 -0.00114,0.02401c0.00664,0.05834 -0.00121,0.08165 -0.01964,0.07594c-0.03857,0.08832 -0.12668,0.15005 -0.22922,0.15005c-0.13807,0 -0.25,-0.11193 -0.25,-0.25c0,-0.13807 0.11193,-0.25 0.25,-0.25c0.00528,0 0.01053,0.00016 0.01573,0.00049c-0.04063,-0.08885 -0.08333,-0.19101 -0.12529,-0.30217c-0.14092,0.22456 -0.34173,0.39845 -0.48182,0.20718z" fill="#8c6738" stroke="none" stroke-width="0.5" stroke-linecap="butt"/><path d="M243.81241,168.86253c-0.24224,0.06182 -0.30405,-0.18042 -0.30405,-0.18042l-0.0195,-0.08657c-0.28729,-0.6964 -0.60951,-1.34255 -1.02243,-1.97443c-0.98667,-2.07017 -2.26579,0.99435 -1.73553,2.25956c0,0 0.09545,0.23106 -0.13561,0.32651c-0.23106,0.09545 -0.32651,-0.13561 -0.32651,-0.13561c-0.75402,-1.84768 1.32612,-5.40468 2.63314,-2.69613c0.42498,0.64699 0.75387,1.31551 1.04907,2.02919l0.04185,0.15384c0,0 0.06182,0.24224 -0.18042,0.30405z" fill="#7c4800" stroke="none" stroke-width="0.5" stroke-linecap="butt"/><path d="M242.80801,168.71661c-0.16398,0.18871 -0.35269,0.02473 -0.35269,0.02473l-0.042,-0.03778c-0.17559,-0.13048 -0.32341,-0.28457 -0.47301,-0.43935c0.00959,0.09856 0.02108,0.19882 0.03467,0.3016l-0.01499,0.14348c0,0 -0.04875,0.2452 -0.29395,0.19645c-0.2452,-0.04875 -0.19645,-0.29395 -0.19645,-0.29395l0.00968,0.0194c-0.09042,-0.687 -0.09274,-1.28113 -0.05941,-1.97607c0,0 0.01202,-0.24971 0.26173,-0.23769c0.24971,0.01202 0.23769,0.26173 0.23769,0.26173c-0.01455,0.30117 -0.0224,0.57952 -0.0187,0.85478c0.28593,0.2421 0.50744,0.55539 0.80625,0.76484l0.07644,0.06514c0,0 0.18871,0.16398 0.02473,0.35269z" fill="#7c4800" stroke="none" stroke-width="0.5" stroke-linecap="butt"/><path d="M243.52983,170.91527c-1.19124,-0.16905 -2.32063,-0.8508 -3.47919,-1.16714c-1.26159,-0.62072 -3.59889,-1.36753 -4.33549,-2.6155c-0.02532,-0.02351 -0.05043,-0.04726 -0.07535,-0.07126c0,0 -0.17943,-0.17408 -0.00536,-0.35351c0.17408,-0.17943 0.35351,-0.00536 0.35351,-0.00536c1.28602,1.25787 3.21631,1.79279 4.85022,2.39628c0.76476,0.20602 2.52268,0.77764 3.24549,0.41857l0.10326,-0.08118c0,0 0.12845,-0.09423 0.2555,-0.02971c0.03528,-0.00734 0.07682,-0.0067 0.12556,0.00642c0.24139,0.06503 0.17636,0.30642 0.17636,0.30642c-0.09246,0.33599 -0.25704,0.63202 -0.34781,0.97072l-0.04335,0.16093c0,0 -0.06503,0.24139 -0.30642,0.17636c-0.06253,-0.01684 -0.10449,-0.04552 -0.13236,-0.07877c-0.10112,-0.00058 -0.22813,-0.01106 -0.38457,-0.03326z" fill="#8c8172" stroke="none" stroke-width="0.5" stroke-linecap="butt"/><path d="M243.82626,173.85048c-1.19324,0.15431 -2.46341,-0.20206 -3.66438,-0.19843c-1.38134,-0.26233 -3.83311,-0.3597 -4.87547,-1.36643c-0.03066,-0.01592 -0.0612,-0.03213 -0.09161,-0.04862c0,0 -0.21932,-0.12001 -0.09931,-0.33932c0.12001,-0.21932 0.33932,-0.09931 0.33932,-0.09931c1.57457,0.86995 3.5776,0.87149 5.31323,1.01805c0.792,-0.00508 2.63867,0.07773 3.23975,-0.46088l0.07791,-0.10575c0,0 0.09872,-0.12503 0.23836,-0.09667c0.03204,-0.01647 0.07226,-0.02692 0.12274,-0.02725c0.25,-0.00161 0.2516,0.24839 0.2516,0.24839c0.00036,0.34848 -0.07944,0.67766 -0.07674,1.02829l0.00107,0.16666c0,0 0.00161,0.25 -0.24839,0.2516c-0.06475,0.00041 -0.11284,-0.01605 -0.14855,-0.04068c-0.09762,0.02637 -0.22284,0.05009 -0.37954,0.07035z" fill="#8c8172" stroke="none" stroke-width="0.5" stroke-linecap="butt"/><path d="M244.35042,167.49251c-0.80942,-0.40744 -1.45125,-1.16589 -2.20188,-1.67058c-0.75087,-0.74672 -2.23905,-1.8424 -2.46426,-2.91034c-0.0124,-0.02287 -0.02462,-0.04587 -0.03662,-0.069c0,0 -0.08614,-0.16743 0.08129,-0.25357c0.16743,-0.08614 0.25357,0.08129 0.25357,0.08129c0.61491,1.20729 1.86364,2.05377 2.88437,2.87783c0.49616,0.33115 1.61305,1.16232 2.21532,1.0801l0.09324,-0.03307c0,0 0.11435,-0.03632 0.18948,0.04031c0.02694,0.00325 0.05644,0.01372 0.08806,0.03482c0.15661,0.10453 0.05209,0.26114 0.05209,0.26114c-0.14688,0.21752 -0.33561,0.38915 -0.48193,0.609l-0.06968,0.1044c0,0 -0.10453,0.15662 -0.26114,0.05209c-0.04056,-0.02708 -0.06361,-0.05764 -0.07549,-0.08808c-0.07202,-0.02476 -0.16014,-0.06282 -0.26644,-0.11633z" fill="#8c8172" stroke="none" stroke-width="0.5" stroke-linecap="butt"/></g></g></svg>