<svg version="1.1" xmlns="http://www.w3.org/2000/svg" xmlns:xlink="http://www.w3.org/1999/xlink" width="115.80952" height="83.35235" viewBox="0,0,115.80952,83.35235"><g transform="translate(-174.64886,-138.68341)"><g data-paper-data="{&quot;isPaintingLayer&quot;:true}" fill-rule="nonzero" stroke="none" stroke-linecap="butt" stroke-linejoin="miter" stroke-miterlimit="10" stroke-dasharray="" stroke-dashoffset="0" style="mix-blend-mode: normal"><g fill="#8a5454" stroke-width="0"><path d="M209.45461,184.43479c2.00345,5.56959 2.0495,10.65229 0.10285,11.35252c-1.94665,0.70023 -5.14885,-3.24716 -7.1523,-8.81675c-2.00345,-5.56959 -2.04949,-10.65229 -0.10283,-11.35252c1.94665,-0.70023 5.14884,3.24716 7.15229,8.81676z"/><path d="M211.34053,201.23312c0,4.72703 -1.30438,8.55905 -2.91342,8.55905c-1.60905,0 -2.91343,-3.83202 -2.91343,-8.55905c0,-4.72703 1.30438,-8.55903 2.91343,-8.55903c1.60905,0 2.91342,3.832 2.91342,8.55903z"/><path d="M212.26075,210.71025c-0.29172,0.30252 -1.26394,-0.16168 -2.1715,-1.03683c-0.90757,-0.87516 -1.40681,-1.82986 -1.11509,-2.13238c0.29172,-0.30252 1.26394,0.16169 2.1715,1.03685c0.90757,0.87516 1.40681,1.82985 1.11509,2.13236z"/><path d="M210.98282,211.47679c-0.29051,0.30127 -1.25869,-0.16102 -2.16249,-1.03255c-0.90381,-0.87153 -1.40099,-1.82227 -1.11048,-2.12354c0.29051,-0.30127 1.25869,0.16102 2.1625,1.03255c0.90381,0.87153 1.40098,1.82227 1.11047,2.12354z"/></g><g fill="#8a5454" stroke-width="0"><path d="M251.881,180.90127c2.00345,5.56959 2.04949,10.65229 0.10285,11.35252c-1.94665,0.70023 -5.14885,-3.24716 -7.1523,-8.81675c-2.00345,-5.56959 -2.04949,-10.65229 -0.10283,-11.35252c1.94665,-0.70023 5.14884,3.24716 7.15229,8.81676z"/><path d="M253.76692,197.6996c0,4.72703 -1.30438,8.55905 -2.91343,8.55905c-1.60905,0 -2.91343,-3.83202 -2.91343,-8.55905c0,-4.72703 1.30438,-8.55903 2.91343,-8.55903c1.60904,0 2.91343,3.832 2.91343,8.55903z"/><path d="M254.68714,207.17673c-0.29172,0.30252 -1.26394,-0.16168 -2.17151,-1.03683c-0.90756,-0.87516 -1.4068,-1.82986 -1.11509,-2.13238c0.29171,-0.30252 1.26394,0.16169 2.1715,1.03685c0.90756,0.87516 1.40681,1.82985 1.11509,2.13236z"/><path d="M253.40921,207.94327c-0.29051,0.30127 -1.25869,-0.16102 -2.16249,-1.03255c-0.90381,-0.87153 -1.40099,-1.82227 -1.11048,-2.12354c0.29051,-0.30127 1.25869,0.16102 2.1625,1.03255c0.9038,0.87153 1.40098,1.82227 1.11048,2.12354z"/></g><g stroke-width="0"><path d="M248.11958,193.51338c2.00345,5.56959 2.04949,10.65229 0.10284,11.35253c-1.94665,0.70023 -5.14885,-3.24716 -7.1523,-8.81675c-2.00345,-5.56959 -2.04949,-10.65229 -0.10283,-11.35253c1.94665,-0.70023 5.14885,3.24716 7.1523,8.81676z" fill="#c27676"/><path d="M250.0055,210.31171c0,4.72703 -1.30438,8.55904 -2.91343,8.55904c-1.60905,0 -2.91343,-3.83201 -2.91343,-8.55904c0,-4.72703 1.30438,-8.55904 2.91343,-8.55904c1.60905,0 2.91343,3.83201 2.91343,8.55904z" fill="#c27676"/><path d="M250.92572,219.78884c-0.29172,0.30252 -1.26394,-0.16168 -2.1715,-1.03683c-0.90757,-0.87516 -1.40681,-1.82986 -1.11509,-2.13238c0.29172,-0.30252 1.26394,0.16169 2.1715,1.03684c0.90757,0.87516 1.40681,1.82985 1.11509,2.13237z" fill="#8a7454"/><path d="M249.64778,220.55537c-0.29051,0.30127 -1.25869,-0.16101 -2.1625,-1.03254c-0.90381,-0.87153 -1.40099,-1.82227 -1.11048,-2.12354c0.29051,-0.30127 1.25869,0.16101 2.1625,1.03254c0.90381,0.87153 1.40099,1.82227 1.11048,2.12354z" fill="#ad916a"/></g><g fill="#c27676" stroke-width="0"><path d="M258.71263,155.09104c1.06525,5.12726 -14.32759,12.6612 -34.38088,16.82752c-20.05329,4.16632 -37.17327,3.38733 -38.23852,-1.73994c-1.06525,-5.12726 14.3276,-12.6612 34.38089,-16.82752c20.05329,-4.16632 37.17326,-3.38733 38.23851,1.73994z"/><path d="M265.34141,164.67827c2.01045,4.83546 -11.69099,15.12965 -30.60302,22.99274c-18.91203,7.86309 -35.87305,10.31745 -37.8835,5.48198c-2.01045,-4.83546 11.691,-15.12965 30.60303,-22.99274c18.91203,-7.86309 35.87305,-10.31745 37.8835,-5.48198z"/><path d="M262.20741,169.05544c-3.63897,12.1341 -24.76225,23.74379 -47.18017,25.93099c-22.41793,2.1872 -37.64129,-5.87633 -34.00232,-18.01043c3.63897,-12.1341 24.76225,-23.74379 47.18018,-25.93099c22.41793,-2.1872 37.64129,5.87633 34.00232,18.01042z"/></g><g><path d="M290.20422,158.33798c0,9.44995 -9.73246,17.11065 -21.73806,17.11065c-12.0056,0 -21.73805,-7.6607 -21.73805,-17.11065c0,-9.44995 9.73245,-17.11065 21.73805,-17.11065c12.0056,0 21.73806,7.6607 21.73806,17.11065z" fill="#bb7272" stroke-width="0"/><path d="M288.41341,169.97808c-2.40478,4.23894 -6.49148,6.46281 -9.12789,4.96715c-2.63641,-1.49565 -2.82419,-6.14446 -0.41941,-10.38341c2.40478,-4.23894 6.49149,-6.46281 9.1279,-4.96715c2.63641,1.49565 2.82419,6.14447 0.4194,10.38341z" fill="#8f5757" stroke-width="0"/><path d="M282.78249,172.11275c-0.7559,-0.37795 -0.37795,-1.13384 -0.37795,-1.13384l0.313,-0.62275c0.82364,-1.91367 1.93923,-3.4148 1.93504,-5.56589c0,0 0,-0.84511 0.84512,-0.84511c0.84512,0 0.84512,0.84511 0.84512,0.84511c-0.00421,2.43312 -1.15268,4.07706 -2.07171,6.23171l-0.35478,0.71283c0,0 -0.37795,0.75589 -1.13385,0.37795z" fill="#000000" stroke-width="0.5"/><path d="M285.06037,172.88648c-0.52794,-0.65992 0.13198,-1.18787 0.13198,-1.18787l0.48685,-0.38285c1.79122,-1.79122 2.50286,-3.6002 3.11665,-6.06268c0,0 0.20497,-0.81989 1.02485,-0.61491c0.81988,0.20497 0.61491,1.02486 0.61491,1.02486c-0.68883,2.74767 -1.55242,4.83909 -3.56124,6.84791l-0.62613,0.50752c0,0 -0.65992,0.52794 -1.18787,-0.13198z" fill="#000000" stroke-width="0.5"/><path d="M270.7399,153.77387c0.40812,-0.40812 0.81623,-0.25879 1.034,-0.12308c0.12675,-0.07255 0.23338,-0.09922 0.23338,-0.09922c0.71328,-0.14831 4.48173,0.34389 4.32938,1.7976c-0.33788,3.22404 -4.49928,0.61356 -5.41484,-0.20027l-0.18192,-0.17986c0,0 -0.59759,-0.59759 0,-1.19518z" fill="#d0a472" stroke-width="0.5"/><path d="M273.32054,154.76024c0,-0.23337 0.18919,-0.42255 0.42256,-0.42255c0.0953,0 0.18323,0.03155 0.25393,0.08478c0.07745,-0.09616 0.19616,-0.15768 0.32924,-0.15768c0.12797,0 0.24265,0.05688 0.32014,0.14674c0.21371,0.01425 0.38393,0.18739 0.39358,0.40233c0.02587,0.03789 0.04574,0.08022 0.05823,0.12561c0.05517,0.07139 0.088,0.16093 0.088,0.25815c0,0.01228 -0.00053,0.02444 -0.00155,0.03645c0.00103,0.01201 0.00155,0.02417 0.00155,0.03645c0,0.15407 -0.08245,0.28888 -0.20565,0.36271c-0.07074,0.11802 -0.19743,0.19865 -0.34343,0.20521c-0.06778,0.04627 -0.14971,0.07333 -0.23797,0.07333c-0.19243,0 -0.35481,-0.12863 -0.40587,-0.30459c-0.03339,0.00849 -0.06838,0.01299 -0.10442,0.01299c-0.22378,0 -0.40693,-0.17395 -0.4216,-0.39401c-0.08986,-0.07749 -0.14675,-0.19216 -0.14675,-0.32013c0,-0.02486 0.00215,-0.04922 0.00626,-0.0729c-0.00412,-0.02368 -0.00626,-0.04805 -0.00626,-0.0729z" fill-opacity="0.6549" fill="#174a00" stroke-width="0.5"/><path d="M273.46633,155.12473c0,-0.03781 0.00497,-0.07447 0.01429,-0.10935c-0.00932,-0.03488 -0.01429,-0.07153 -0.01429,-0.10934c0,-0.02486 0.00215,-0.04922 0.00627,-0.0729c-0.00412,-0.02368 -0.00627,-0.04805 -0.00627,-0.0729c0,-0.19447 0.13136,-0.35825 0.3102,-0.40745c0.07139,-0.05517 0.16095,-0.088 0.25816,-0.088c0.13468,0 0.25465,0.06302 0.33203,0.16117c0.01101,0.00306 0.02183,0.00655 0.03245,0.01046c0.04544,-0.01671 0.09456,-0.02582 0.1458,-0.02582c0.11306,0 0.21576,0.0444 0.29158,0.11673c0.05392,0.05143 0.09428,0.11698 0.11511,0.19072c0.17743,0.05012 0.30746,0.21322 0.30746,0.4067c0,0.03781 -0.00497,0.07447 -0.01429,0.10934c0.00932,0.03488 0.01429,0.07154 0.01429,0.10935c0,0.18828 -0.12314,0.34779 -0.29327,0.40241c-0.01918,0.21561 -0.20029,0.38463 -0.42088,0.38463c-0.20078,0 -0.36885,-0.14002 -0.41188,-0.32774c-0.05235,0.02325 -0.11032,0.03615 -0.17129,0.03615c-0.23337,0 -0.42256,-0.18919 -0.42256,-0.42256c0,-0.01692 0.00099,-0.03361 0.00293,-0.05c-0.04779,-0.06847 -0.07582,-0.15175 -0.07582,-0.24158z" fill="#174a00" stroke-width="0.5"/><path d="M270.7319,153.07509l0.00318,-0.00557l0.0121,-0.00303c0.05665,-0.03033 0.12102,-0.04813 0.1894,-0.04969l0.03536,-0.00884h0.05202l0.05047,-0.01262h2.36928l0.0659,0.01647l0.06772,0.00522l0.0126,0.0042l0.04774,0.01193l0.05671,0.00436l0.00319,-0.00212l0.01185,0.00263h0.01177l0.08085,0.02022l0.00225,-0.0015l0.01184,0.00262h0.01178l0.09419,0.02356l0.09478,0.02106l0.01053,0.00526l0.01178,0.00294l0.00131,0.00231l0.02674,0.0089h0.03193l0.00394,-0.00263l0.01185,0.00263h0.01177l0.0942,0.02355l0.09478,0.02106l0.01053,0.00527l0.01177,0.00294l0.00132,0.00231l0.02776,0.00924l0.02565,0.01632l0.02105,0.00469h0.01177l0.09419,0.02354l0.09478,0.02107l0.01054,0.00527l0.01178,0.00294l0.00235,0.00412l0.01803,0.00901l0.02027,0.01737l0.02514,0.00899l0.03434,0.02289l0.09196,0.023l0.00709,0.01243l0.01601,0.00572l0.01695,0.0113l0.01035,0.00346l0.02567,0.01633l0.02969,0.00659l0.03884,0.01943h0.00697l0.0942,0.02354l0.09478,0.02106l0.00853,0.00427l0.07684,0.01708l0.01054,0.00526l0.01177,0.00294l0.00236,0.00412l0.01802,0.00902l0.02028,0.01737l0.02515,0.00898l0.06403,0.04269l0.02364,0.026l0.02993,0.01905l0.05315,0.01898l0.04215,0.0281l0.23261,0.1163l0.02027,0.01738l0.02515,0.00897l0.06403,0.0427l0.02831,0.03114l0.03609,0.02165l0.17555,0.17556l0.08845,0.07076l0.01442,0.01892l0.0204,0.01225l0.04269,0.04268l0.00485,0.00807l0.00786,0.00519l0.22858,0.24938l0.07889,0.07888l0.03495,0.05824l0.0442,0.05158l0.00957,0.01916l0.0049,0.00733l0.03445,0.03446l0.02166,0.03608l0.03114,0.02831l0.04269,0.06403l0.00898,0.02515l0.01737,0.02027l0.06404,0.12807l0.00389,0.0175l0.01051,0.01454l0.03616,0.09041l0.00115,0.00231l0.00412,0.00235l0.00294,0.01178l0.00527,0.01053l0.02107,0.09478l0.02354,0.0942v0.01178l0.00263,0.01184l-0.00263,0.00395v0.27125l-0.01647,0.0659l-0.00522,0.06773l-0.01621,0.04864l-0.01741,0.06964l-0.02191,0.04106l-0.01009,0.04543l-0.00527,0.01053l-0.00929,0.03715l-0.00521,0.06773l-0.02134,0.06404l-0.01632,0.02566l-0.0066,0.02969l-0.02926,0.05853l-0.01184,0.03555l-0.03031,0.04761l-0.01898,0.05315l-0.00209,0.00313l-0.0036,0.01438l-0.00113,0.00212l0.00203,0.00744l-0.05399,0.09l-0.04939,0.0926l-0.00743,0.00209l-0.00123,0.00205l-0.00279,0.0028l-0.00344,0.01546l-0.02135,0.04269l-0.01738,0.02027l-0.00898,0.02515l-0.0281,0.04215l-0.03092,0.06185l-0.02246,0.0262l-0.00116,0.02104l-0.05603,0.04803l-0.00573,0.01145l-0.04421,0.05158l-0.03494,0.05824l-0.08538,0.08539l-0.05824,0.03494l-0.05157,0.04421l-0.04724,0.02362l-0.02926,0.01755l-0.05158,0.04421l-0.04269,0.02134l-0.0238,0.00529l-0.01043,0.00626l-0.00227,-0.00061l-0.01884,0.01199l-0.01036,0.00345l-0.01695,0.0113l-0.07732,0.02761l-0.0742,0.03515l-0.07694,0.01539l-0.02172,0.01382l-0.06403,0.02134l-0.01652,0.00128l-0.01462,0.00779l-0.08537,0.02134h-0.05203l-0.05046,0.01262h-0.08085l-0.06302,0.021l-0.06773,0.00521l-0.06589,0.01647h-1.0886l-0.05046,-0.01261h-0.05203l-0.06901,-0.01725l-0.07693,-0.01282h-0.0931l-0.05046,-0.01262h-0.05203l-0.03491,-0.00873h-0.03336l-0.0659,-0.01647l-0.06332,-0.00487h-0.0202l-0.07764,-0.01941l-0.0793,-0.01082l-0.08009,-0.03204l-0.05756,-0.0144l-0.05831,-0.03109l-0.02965,0.00205l-0.04753,-0.04321l-0.05668,-0.03023l-0.00804,-0.02862l-0.00061,-0.00055l-0.04272,-0.01709l-0.00082,0.00022l-0.00275,-0.00166l-0.04213,-0.01685l-0.06895,-0.04979l-0.02005,-0.01203l-0.0077,-0.00154l-0.06536,-0.03096l-0.06918,-0.02106l-0.06695,-0.04017l-0.02003,-0.00668l-0.06274,-0.03992l-0.0676,-0.03099l-0.03906,-0.03124l-0.05536,-0.02953l-0.06811,-0.02432l-0.04215,-0.02809l-0.06185,-0.03093l-0.02028,-0.01738l-0.02515,-0.00898l-0.01695,-0.0113l-0.01036,-0.00345l-0.08191,-0.05213l-0.08326,-0.04995l-0.00832,-0.00833l-0.01024,-0.00651l-0.00049,-0.00246l-0.02054,-0.01027l-0.02619,-0.02246l-0.02105,-0.00117l-0.05451,-0.06359l-0.04943,-0.04237l-0.02267,-0.0136l-0.04034,-0.04035l-0.02582,-0.01643l-0.08325,-0.04996l-0.00833,-0.00832l-0.01024,-0.00652l-0.00093,-0.00466l-0.10858,-0.10857l-0.0186,-0.03099l-0.00238,-0.00159l-0.00808,-0.00889l-0.01107,-0.00466l-0.08538,-0.06403l-0.01918,-0.02361l-0.00453,-0.00271l-0.00167,-0.00009l-0.00161,-0.00188l-0.01828,-0.01097l-0.04269,-0.04269l-0.03496,-0.05824l-0.0442,-0.05157l-0.03195,-0.06387l-0.00429,-0.00121l-0.04939,-0.0926l-0.02449,-0.04081l-0.03703,-0.03173l-0.0018,-0.03227l-0.04476,-0.07033l-0.00906,-0.02718l-0.02419,-0.04032l-0.05213,-0.0819l-0.00047,-0.00142l-0.00417,-0.00417l-0.03202,-0.05336l-0.03202,-0.03203l-0.01361,-0.02267l-0.00151,-0.00177l-0.00227,-0.00455l-0.00426,-0.0071l-0.03114,-0.02831l-0.0427,-0.06403l-0.00347,-0.0097l-0.00728,-0.00728l-0.03727,-0.06213l-0.00591,-0.00591l-0.03201,-0.05336l-0.03202,-0.03202l-0.00123,-0.00206l-0.00743,-0.00209l-0.04939,-0.09261l-0.05399,-0.08999l0.00203,-0.00745l-0.00113,-0.00212l-0.02134,-0.08539v-0.04269l-0.0101,-0.04038l-0.0006,-0.0012l-0.0024,-0.01082l-0.00825,-0.03298v-0.00411l-0.01041,-0.04686l-0.02356,-0.0942v-0.01178l-0.00263,-0.01185l0.00263,-0.00395v-0.01512l-0.02134,-0.08538v-0.01178l-0.00264,-0.01184l0.00264,-0.00395v-0.45714l-0.00264,-0.00394l0.00264,-0.01185v-0.01177l0.02354,-0.0942l0.02106,-0.09478l0.00527,-0.01053l0.00294,-0.01177l0.00411,-0.00236l0.0071,-0.01419v-0.00697l0.02135,-0.08537v-0.02135l0.05282,-0.21128l0.08022,-0.04584c0.01968,-0.12747 0.09634,-0.23613 0.20313,-0.29916zM271.15547,154.44247l0.02134,0.08539v0.00921l0.00873,0.01637l0.02135,0.08539v0.04268l0.00007,0.0003l0.01685,0.01684l0.0136,0.02267l0.00151,0.00177l0.00227,0.00455l0.00937,0.01562l0.03679,0.03679l0.05885,0.09811l0.01391,0.02086l0.0131,0.0131l0.03202,0.05336l0.03202,0.03203l0.0136,0.02267l0.00152,0.00177l0.00227,0.00455l0.00426,0.0071l0.03114,0.02831l0.04269,0.06404l0.01898,0.05315l0.0303,0.04762l0.00187,0.00559l0.03925,0.04578l0.01059,0.02119l0.00429,0.0012l0.01794,0.03363l0.02893,0.0248l0.00182,0.03288l0.05379,0.10085l0.00148,0.00593l0.03055,0.03565l0.02796,0.05592l0.03035,0.02277l0.04964,0.03308l0.00646,0.00035l0.07114,0.083l0.02443,0.02688l0.07137,0.07138l0.02582,0.01642l0.08326,0.04995l0.00832,0.00833l0.01024,0.00652l0.00093,0.00466l0.03085,0.03086l0.01515,0.00084l0.04803,0.05603l0.01145,0.00572l0.05158,0.04421l0.05824,0.03494l0.01531,0.01532l0.04836,0.01727l0.04213,0.0281l0.06186,0.03092l0.02027,0.01738l0.02514,0.00898l0.00313,0.00208l0.01438,0.00359l0.07953,0.04243l0.08195,0.03755l0.02305,0.01844l0.00763,0.00406l0.00074,0.00263l0.03028,0.02422l0.01798,0.01145l0.04452,0.01354l0.04397,0.02638l0.03496,0.00699l0.01536,0.00728l0.01382,-0.00377l0.08161,0.04897l0.08602,0.04075l0.00453,0.01358l0.01457,0.00875l0.0027,0.0027l0.02619,0.01048l0.01454,0.0105l0.01751,0.00389l0.08039,0.04019l0.00646,-0.00045l0.079,0.07181l0.01557,0.00212l0.03117,0.01246h0.004l0.0659,0.01648l0.06331,0.00487h0.02021l0.05046,0.01261h0.05202l0.03492,0.00873h0.07604l0.03427,0.00856l0.0352,-0.00281l0.12807,0.02135l0.0158,0.00686h0.01722l0.03491,0.00873h0.96801l0.06302,-0.02101l0.06772,-0.00521l0.0659,-0.01647h0.0974l0.01918,-0.00479l0.02014,-0.00672l0.01583,-0.00792l0.0551,-0.01224l0.051,-0.02416l0.03562,-0.00713l0.03678,-0.01314l0.04761,-0.0303l0.02718,-0.00906l0.01531,-0.00919l0.05157,-0.0442l0.01632,-0.00817l0.00816,-0.01632l0.02245,-0.02619l0.00117,-0.02105l0.05604,-0.04803l0.00572,-0.01145l0.01738,-0.02027l0.00898,-0.02514l0.02553,-0.03831l0.00185,-0.00553l-0.00125,-0.00458l0.00625,-0.0104l0.00372,-0.01117l0.05212,-0.08191l0.04314,-0.07189l0.01508,-0.02828l0.02432,-0.06811l0.0113,-0.01695l0.00344,-0.01035l0.01633,-0.02566l0.0066,-0.02969l0.02661,-0.05322l0.00929,-0.03715l0.0052,-0.06772l0.02135,-0.06404l0.01547,-0.0243l0.00505,-0.02022l0.00241,-0.01082l0.0006,-0.0012l0.01009,-0.04038l0.0078,-0.01462l0.00092,-0.01211v-0.1416l-0.02728,-0.06821l-0.04441,-0.08882l-0.00489,-0.00733l-0.03445,-0.03445l-0.02165,-0.03609l-0.03114,-0.02831l-0.04269,-0.06403l-0.00542,-0.01515l-0.04851,-0.04852l-0.00485,-0.00807l-0.00785,-0.00519l-0.22859,-0.24937l-0.01965,-0.01965l-0.08845,-0.07076l-0.01443,-0.01893l-0.02041,-0.01224l-0.16251,-0.16252l-0.00734,-0.0049l-0.23261,-0.1163l-0.02028,-0.01738l-0.02514,-0.00898l-0.01695,-0.0113l-0.01035,-0.00345l-0.08191,-0.05212l-0.08326,-0.04996l-0.00573,-0.00573l-0.04477,-0.01119h-0.05202l-0.08538,-0.02135l-0.04107,-0.0219l-0.04542,-0.0101l-0.05851,-0.02926l-0.03555,-0.01185l-0.04762,-0.0303l-0.05315,-0.01898l-0.0061,-0.00407l-0.05521,-0.01227l-0.01053,-0.00527l-0.01178,-0.00294l-0.00235,-0.00413l-0.01803,-0.00902l-0.02027,-0.01738l-0.02515,-0.00898l-0.02155,-0.01436l-0.00901,-0.00225l-0.09478,-0.02107l-0.00853,-0.00427l-0.07685,-0.01707l-0.01053,-0.00526l-0.01177,-0.00295l-0.00132,-0.0023l-0.02673,-0.00892h-0.03193l-0.00395,0.00263l-0.01184,-0.00263h-0.01178l-0.09419,-0.02354l-0.09478,-0.02106l-0.01053,-0.00528l-0.01178,-0.00294l-0.00131,-0.0023l-0.02776,-0.00925l-0.01653,-0.01052l-0.04195,-0.01049h-0.04269l-0.0659,-0.01647l-0.06772,-0.0052l-0.0126,-0.0042l-0.04775,-0.01194l-0.06331,-0.00487h-2.15904v0.00435l-0.02355,0.09418l-0.02106,0.09478l-0.00527,0.01054l-0.00294,0.01178l-0.00412,0.00234l-0.00709,0.01419z" fill="#000000" stroke-width="0.5"/><path d="M268.07515,149.41847l-0.45301,0.38915c0,0 -0.14798,0.12332 -0.32738,0.10352c-1.04401,1.76897 -2.75086,3.37232 -3.91958,4.53613c-0.36422,0.26125 -0.70745,0.54085 -1.07079,0.79931l0.01957,0.02922c0,0 0.2344,0.35159 -0.11719,0.58598c-0.35159,0.2344 -0.58598,-0.1172 -0.58598,-0.1172l-0.01567,-0.0236c-0.11633,0.02665 -0.26776,0.01255 -0.4021,-0.15537c-0.17967,-0.22459 -0.08418,-0.41861 -0.00486,-0.51962c-0.26308,-0.46972 -0.56693,-0.90893 -0.85345,-1.36945c-0.94063,-2.19856 -2.86784,-3.86655 -4.5229,-5.54958c-0.40347,-0.41028 -2.37195,-1.17288 -2.0522,-2.04193c0.1282,-0.34842 1.40699,-0.5364 1.75577,-0.6236c3.70619,-0.92654 7.76581,-0.50975 11.57122,-0.50081c0.01405,-0.00985 0.02917,-0.01944 0.04541,-0.02872c0.36689,-0.20965 0.57653,0.15723 0.57653,0.15723c0.29733,0.53696 0.45054,1.08009 0.48904,1.62269c0.48555,0.85394 0.30432,1.84592 -0.1324,2.70663zM262.82892,153.80244c0.29843,-0.29983 0.6635,-0.65131 1.05599,-1.04245c-0.05748,0.03406 -0.13198,0.05613 -0.22857,0.05613c-0.42256,0 -0.42255,-0.42255 -0.42255,-0.42255v-0.27691c0,-1.35371 -0.10354,-2.70396 -0.11043,-4.05138c-1.16942,-0.14439 -2.34432,-0.29279 -3.54811,-0.40136c0,0 -0.42082,-0.03825 -0.38256,-0.45908c0.03825,-0.42083 0.45908,-0.38257 0.45908,-0.38257c2.62234,0.24015 5.10325,0.66673 7.69302,0.82398c0.04062,-0.22258 0.06095,-0.44466 0.05798,-0.6653c-0.0192,-0.06183 -0.03145,-0.14125 -0.01116,-0.22365c-0.02802,-0.32188 -0.10837,-0.64001 -0.25062,-0.95145c-3.74512,-0.00598 -7.76192,-0.43669 -11.41065,0.47549c-0.11716,0.02929 -0.6684,0.26376 -0.97318,0.2414c0.53361,0.37687 1.96557,1.4326 2.13233,1.5994c1.59227,1.59257 3.29724,3.05034 4.20412,5.1628c0.26092,0.41506 0.53377,0.81318 0.77677,1.23375c0.32383,-0.23302 0.63135,-0.48359 0.95855,-0.71626zM263.96864,148.1684c0.00829,1.3122 0.11026,2.63001 0.11026,3.94825v0.27691c0,0 0,0.12756 -0.07009,0.24251c1.15587,-1.16022 2.50872,-2.64474 3.0965,-4.15959c-1.05671,-0.07053 -2.09676,-0.18353 -3.13668,-0.30808z" fill="#8b5454" stroke-width="0.5"/><path d="M267.1587,148.41095c-0.58778,1.51485 -2.04173,3.13465 -3.1976,4.29487c0.07009,-0.11495 0.06788,-0.24407 0.06788,-0.24407l-0.00482,-0.28072c0,-1.31824 -0.09578,-2.7696 -0.10407,-4.08179c1.03992,0.12455 2.18191,0.24119 3.23861,0.31172z" data-paper-data="{&quot;noHover&quot;:false,&quot;origItem&quot;:[&quot;Path&quot;,{&quot;applyMatrix&quot;:true,&quot;segments&quot;:[[[527.93729,296.3368],[2.07984,0.2491],[0.01658,2.6244]],[[528.15781,304.2333],[0,-2.63648],[0,0]],[528.15781,304.78712],[[528.01764,305.27214],[0.14017,-0.2299],[2.31174,-2.32044]],[[534.21065,296.95296],[-1.17557,3.02969],[-2.11341,-0.14106]]],&quot;closed&quot;:true}]}" fill="#a96565" stroke-width="0.5"/><path d="M261.88527,154.60189c-0.243,-0.42058 -0.53039,-0.81736 -0.79131,-1.23243c-0.90688,-2.11246 -2.68857,-3.69096 -4.28084,-5.28352c-0.16676,-0.1668 -1.59587,-1.22802 -2.12948,-1.60489c0.30478,0.02236 0.86079,-0.21959 0.97795,-0.24889c3.64873,-0.91218 7.80318,-0.48121 11.54829,-0.47524c0.14225,0.31144 0.22834,0.63886 0.25636,0.96073c-0.02029,0.0824 -0.00693,0.16398 0.01227,0.22581c0.00297,0.22064 -0.17177,0.51111 -0.21239,0.73369c-2.58976,-0.15725 -4.95833,-0.53724 -7.58068,-0.77739c0,0 -0.40846,-0.0449 -0.44671,0.37592c-0.03825,0.42083 0.29221,0.31625 0.29221,0.31625c1.20379,0.10858 2.48274,0.26918 3.65216,0.41357c0.00689,1.34742 0.11249,2.81507 0.11249,4.16878l-0.00385,0.28077c0,0 -0.11623,0.29984 0.30633,0.29984c0.09658,0 0.29076,0.0972 0.34824,0.06314c-0.3925,0.39114 -0.78282,0.76095 -1.08125,1.06078c-0.3272,0.23268 -0.65598,0.49005 -0.97981,0.72307z" data-paper-data="{&quot;noHover&quot;:false,&quot;origItem&quot;:[&quot;Path&quot;,{&quot;applyMatrix&quot;:true,&quot;segments&quot;:[[[525.65783,307.60487],[-0.6544,0.46535],[0.59685,-0.59966]],[[527.76982,305.51997],[-0.785,0.78228],[-0.11495,0.06812]],[[527.31269,305.63223],[0.19316,0],[-0.84512,0]],[526.46758,304.78712],[[526.46758,304.2333],[0,0],[0,-2.70742]],[[526.24672,296.13054],[0.01377,2.69485],[-2.33885,-0.28878]],[[519.15049,295.32782],[2.40758,0.21715],[0,0]],[[518.38536,294.40966],[-0.07651,0.84165],[0.07651,-0.84165]],[[519.30352,293.64452],[0,0],[5.24469,0.48031]],[[534.68955,295.29248],[-5.17952,-0.31451],[0.08123,-0.44515]],[[534.80552,293.96189],[0.00594,0.44128],[-0.03839,-0.12366]],[[534.7832,293.51458],[-0.04057,0.16481],[-0.05604,-0.64376]],[[534.28195,291.61169],[0.28451,0.62288],[-7.49024,-0.01195]],[[511.46065,292.56267],[7.29746,-1.82437],[-0.23432,0.05858]],[[509.51429,293.04547],[0.60955,0.04472],[1.06722,0.75374]],[[513.77896,296.24428],[-0.33353,-0.3336],[3.18455,3.18514]],[[522.1872,306.56989],[-1.81375,-4.22493],[0.52183,0.83012]],[[523.74073,309.03739],[-0.486,-0.84115],[0.64767,-0.46605]]],&quot;closed&quot;:true}]}" fill="#a96565" stroke-width="0.5"/><path d="M284.47354,146.91894c-0.37795,0.18897 -0.56693,-0.18897 -0.56693,-0.18897l0.10293,0.04716c-0.29717,-0.16999 -0.58972,-0.34857 -0.87467,-0.53832c-2.52722,-1.68481 -4.84362,-2.82932 -7.79244,-3.67184c0,0 -0.4063,-0.11608 -0.29021,-0.52238c0.07047,-0.24664 0.24788,-0.30078 0.37643,-0.30525c0.04215,-0.06267 0.08625,-0.09942 0.08625,-0.09942c1.59846,-1.28509 8.56134,-4.62831 9.17925,-1.93678c0.5626,1.9852 0.27449,4.2697 0.27449,6.31484l-0.27452,0.42471c0.031,0.12383 0.0412,0.34537 -0.22058,0.47626zM279.68875,143.29299c0.01268,-0.01918 0.02162,-0.02991 0.02162,-0.02991l0.31292,-0.37457c0.50914,-0.75884 1.25502,-1.48841 2.00016,-1.99474c0,0 0.35159,-0.2344 0.58598,0.11719c0.2344,0.35159 -0.11719,0.58599 -0.11719,0.58599c-0.30779,0.20035 -0.61653,0.45322 -0.90386,0.73377c0.06362,0.07579 0.08967,0.15396 0.08967,0.15396c0.1211,0.36645 0.2236,0.74171 0.27946,1.12359l0.06585,0.5267c0,0 0.02537,0.20299 -0.10044,0.34416c0.55827,0.32847 1.116,0.68 1.68075,1.05649c0.17073,0.11396 0.34447,0.22349 0.52044,0.3293c0.01443,-1.92866 0.28641,-4.09601 -0.24912,-5.95395c-0.27154,-1.27158 -5.67928,0.95287 -7.4434,2.10231c1.15006,0.36698 2.22085,0.78977 3.25716,1.27971zM281.11986,143.72045c-0.0325,-0.23423 -0.08815,-0.4652 -0.15573,-0.69245c-0.09435,0.12127 -0.18269,0.24383 -0.26367,0.36615l-0.23449,0.28203c0.23252,0.11936 0.46384,0.24233 0.69448,0.36907z" fill="#8b5454" stroke-width="0.5"/><path d="M281.2081,144.11505c-0.23064,-0.12674 -0.58802,-0.288 -0.82054,-0.40735l0.26045,-0.37982c0.08098,-0.12232 0.24581,-0.25962 0.34016,-0.3809c0.06757,0.22725 0.17167,0.58269 0.20417,0.81692z" data-paper-data="{&quot;noHover&quot;:false,&quot;origItem&quot;:[&quot;Path&quot;,{&quot;applyMatrix&quot;:true,&quot;segments&quot;:[[[562.23972,287.44089],[0,0],[-0.065,-0.46846]],[[561.92827,286.05599],[0.13515,0.45449],[-0.1887,0.24255]],[[561.40092,286.78829],[0.16196,-0.24465],[0,0]],[[560.93195,287.35235],[0,0],[0.46504,0.23871]],[[562.3209,288.09049],[-0.46128,-0.25348],[0,0]]],&quot;closed&quot;:true}]}" fill="#a96565" stroke-width="0.5"/><path d="M276.34836,141.99863c1.76412,-1.14945 7.3216,-3.41136 7.59314,-2.13978c0.53553,1.85793 0.26198,4.13147 0.24755,6.06014c-0.17597,-0.10581 -0.35071,-0.21415 -0.52144,-0.3281c-0.56475,-0.3765 -1.12987,-0.72047 -1.68815,-1.04895c0.12581,-0.14116 -0.02072,-0.46144 -0.02072,-0.46144l-0.07512,-0.51327c-0.05586,-0.38188 -0.16799,-0.70302 -0.28909,-1.06947c0,0 -0.02375,-0.06778 -0.08737,-0.14357c0.28733,-0.28055 0.60186,-0.5187 0.90966,-0.71904c0,0 0.35893,-0.22246 0.12453,-0.57405c-0.2344,-0.35159 -0.57597,-0.10589 -0.57597,-0.10589c-0.74514,0.50633 -1.362,1.1286 -1.87114,1.88744l-0.322,0.36291c0,0 -0.13225,0.12632 -0.14493,0.1455c-1.03631,-0.48994 -2.12892,-0.98543 -3.27897,-1.35242z" data-paper-data="{&quot;noHover&quot;:false,&quot;origItem&quot;:[&quot;Path&quot;,{&quot;applyMatrix&quot;:true,&quot;segments&quot;:[[[559.37749,286.58598],[-2.07261,-0.97988],[0.02536,-0.03836]],[559.42073,286.52617],[[560.04657,285.77703],[0,0],[1.01829,-1.51767]],[[564.04689,281.78755],[-1.49028,1.01266],[0,0]],[[565.21885,282.02194],[-0.46879,-0.70318],[0.46879,0.70318]],[[564.98446,283.19391],[0,0],[-0.61559,0.4007]],[[563.17674,284.66144],[0.57465,-0.5611],[0.12723,0.15159]],[[563.35608,284.96936],[0,0],[0.24219,0.7329]],[[563.915,287.21654],[-0.11172,-0.76375],[0,0]],[564.0467,288.26994],[[563.84583,288.95825],[0.25162,-0.28232],[1.11655,0.65694]],[[567.20732,291.07124],[-1.12949,-0.75299],[0.34146,0.22791]],[[568.24819,291.72983],[-0.35194,-0.21161],[0.02885,-3.85733]],[[567.74996,279.82194],[1.07105,3.71586],[-0.54308,-2.54315]],[[552.86317,284.02656],[3.52824,-2.29889],[2.30011,0.73396]]],&quot;closed&quot;:true}]}" fill="#a96565" stroke-width="0.5"/></g><g stroke-width="0"><path d="M201.27986,192.98501c2.00345,5.56959 2.04949,10.65229 0.10284,11.35253c-1.94665,0.70023 -5.14885,-3.24716 -7.1523,-8.81675c-2.00345,-5.56959 -2.04949,-10.65229 -0.10283,-11.35253c1.94665,-0.70023 5.14884,3.24716 7.15229,8.81676z" fill="#c27676"/><path d="M203.16578,209.78334c0,4.72703 -1.30438,8.55905 -2.91343,8.55905c-1.60905,0 -2.91342,-3.83202 -2.91342,-8.55905c0,-4.72703 1.30438,-8.55904 2.91342,-8.55904c1.60905,0 2.91343,3.83201 2.91343,8.55904z" fill="#c27676"/><path d="M204.086,219.26047c-0.29172,0.30252 -1.26394,-0.16168 -2.17151,-1.03683c-0.90757,-0.87516 -1.4068,-1.82986 -1.11509,-2.13238c0.29172,-0.30252 1.26393,0.16169 2.1715,1.03685c0.90757,0.87516 1.40681,1.82985 1.1151,2.13236z" fill="#8a7454"/><path d="M202.80807,220.02701c-0.29051,0.30127 -1.25869,-0.16102 -2.1625,-1.03255c-0.90381,-0.87153 -1.40099,-1.82227 -1.11048,-2.12354c0.29051,-0.30127 1.25869,0.16102 2.1625,1.03255c0.90381,0.87153 1.40099,1.82227 1.11048,2.12354z" fill="#ad916a"/></g><path d="M175.1484,171.47559c-0.00329,0.04717 -0.03016,0.23966 -0.24954,0.23966c-0.25,0 -0.25,-0.25 -0.25,-0.25l0.13759,-0.36245c1.37458,-0.6355 1.72189,-1.13988 3.45198,-1.13988c1.22189,0.00862 2.09131,1.00365 2.18702,2.00974c1.41232,0.74025 2.7242,2.27964 3.30865,3.11094c0,0 0.13867,0.20801 -0.06934,0.34669c-0.20801,0.13868 -0.34669,-0.06934 -0.34669,-0.06934c-1.00591,-1.57121 -1.51152,-2.00629 -2.99407,-2.58621c-0.15586,0.41251 -0.48262,0.7762 -1.01586,1.00872c-0.95196,0.41511 -2.22051,-0.86436 -1.82912,-1.62949c0.73077,-0.6884 1.58253,-0.72275 2.42594,-0.4139c-0.10449,-0.69091 -0.71135,-1.28531 -1.66654,-1.27714c-1.64988,0 -1.86259,0.3434 -3.09003,1.01268zM179.78463,172.57176c-0.03519,-0.01286 -0.07086,-0.02583 -0.10703,-0.03894c-0.49314,-0.17877 -1.38681,-0.54566 -1.79295,-0.08649c-0.17722,0.36525 0.876,1.10915 1.23216,0.8752c0.3211,-0.21093 0.54034,-0.47194 0.66782,-0.74976z" fill="#c27676" stroke-width="0.5"/><path d="M281.06431,175.43782c-0.33541,0.67082 -1.00623,0.33541 -1.00623,0.33541l-0.8026,-0.44433c-2.32931,-2.4217 -1.09575,-5.5337 -1.13119,-8.43021c0,0 0,-0.75 0.75,-0.75c0.75,0 0.75,0.75 0.75,0.75c-0.0211,2.24814 -1.23325,5.55368 0.69185,7.36955l0.41276,0.16335c0,0 0.67082,0.33541 0.33541,1.00623z" fill="#580000" stroke-width="0.5"/><path d="M284.03959,210.79417c-0.75,0 -0.75,-0.75 -0.75,-0.75c0,-0.5 0,-1.32305 0,-1.82305c0,0 0,-0.75 0.75,-0.75c0.75,0 0.75,0.75 0.75,0.75c0,0.5 0,1 0,1.5v0.32305c0,0 0,0.75 -0.75,0.75z" fill="#580000" stroke-width="0.5"/><path d="M284.03959,217.17484c-0.75,0 -0.75,-0.75 -0.75,-0.75v-0.91152c0,0 0,-0.75 0.75,-0.75c0.75,0 0.75,0.75 0.75,0.75v0.91152c0,0 0,0.75 -0.75,0.75z" fill="#580000" stroke-width="0.5"/><path d="M283.27038,220.98246c0,0.75 -0.75,0.75 -0.75,0.75l-0.12854,-0.01335c-0.10266,0.03061 -0.22146,0.04246 -0.34794,0.01019c-0.26852,0.08951 -0.53704,0.17901 -0.80555,0.26852c0,0 -0.71151,0.23717 -0.94868,-0.47434c-0.23717,-0.71151 0.47434,-0.94868 0.47434,-0.94868c0.30384,-0.10128 0.60768,-0.20256 0.91152,-0.30384l0.20632,-0.0094l0.33394,-0.3253c0.18176,-0.37075 0.36353,-0.7415 0.54529,-1.11224c0,0 0.33541,-0.67082 1.00623,-0.33541c0.67082,0.33541 0.33541,1.00623 0.33541,1.00623c-0.22336,0.4395 -0.44671,0.87899 -0.67007,1.31849l-0.16228,0.16552c0,0.00121 0.00001,0.00242 0.00001,0.00363z" fill="#580000" stroke-width="0.5"/><path d="M287.828,220.98246c0,0.75 -0.75,0.75 -0.75,0.75c-0.30384,0 -0.91152,0 -1.21537,0c0,0 -0.75,0 -0.75,-0.75c0,-0.75 0.75,-0.75 0.75,-0.75c0.30384,0 0.60768,0 0.91152,0h0.30384c0,0 0.75,0 0.75,0.75z" fill="#580000" stroke-width="0.5"/><path d="M221.8992,174.67082l0.02124,0.00425c-0.02074,-0.10224 -0.01944,-0.22212 0.01559,-0.36224c0.00691,-0.02766 0.01462,-0.054 0.02304,-0.07909c-0.20721,-0.02008 -0.41343,-0.04764 -0.61832,-0.08304c0.16255,0.17386 0.32722,0.34404 0.49325,0.5117c0.0408,0.00354 0.0652,0.00842 0.0652,0.00842zM224.48668,176.46009h-0.03632c0.98512,0.70092 1.99241,1.26989 3.04497,1.77601c-0.12672,-0.18243 -0.21898,-0.466 0.01311,-0.81468c0.41557,-0.62434 1.03991,-0.20877 1.03991,-0.20877l0.76,0.50586c0.94251,0.62735 1.69414,1.15313 2.4186,1.77267l0.08022,-0.12243l1.24461,0.8155c0.20976,0.13297 0.349,0.36718 0.349,0.63391c0,0.41421 -0.33579,0.75 -0.75,0.75c-0.04687,0 -0.09274,-0.0043 -0.13724,-0.01253l-1.46565,-0.24428l0.00367,-0.02201l-0.07515,0.00648c-1.68614,-0.62853 -3.24301,-1.24227 -4.72125,-1.99947c0.54544,1.31952 0.98976,2.65566 1.22259,4.00776c0.6132,0.51375 1.20782,1.02 1.78371,1.53995c0.72219,0.25847 1.45384,0.50354 2.19371,0.7385c-0.54539,-0.45336 -1.00543,-1.02569 -1.56557,-1.58582l-0.46412,-0.46412c0,0 -0.53033,-0.53033 0,-1.06066c0.53033,-0.53033 1.06066,0 1.06066,0l0.46412,0.46412c0.77335,0.77335 1.42312,1.45644 2.03488,2.20776l0.08644,-0.08644l1.06066,1.06066c0.13572,0.13572 0.21967,0.32322 0.21967,0.53033c0,0.41421 -0.33579,0.75 -0.75,0.75c-0.01042,0 -0.02079,-0.00021 -0.0311,-0.00063l-1.37607,-0.04933l0.00096,-0.02673l-0.09628,0.01719c-0.1717,-0.05079 -0.34303,-0.10211 -0.51396,-0.15398c0.16371,0.18815 0.32556,0.38058 0.48554,0.57794c0.68194,0.84125 3.14432,3.20719 2.79984,4.40473c-0.15117,0.52553 -1.04855,0.33521 -1.59199,0.39611c-2.07458,0.23246 -3.46668,-1.05237 -5.15725,-2.06971c-4.11613,-2.47696 -7.46816,-6.61815 -10.84978,-9.99977c0,0 -0.12355,-0.12355 -0.19175,-0.31101c-0.13293,0.11986 -0.30898,0.19282 -0.50206,0.19282c-0.16787,0 -0.32287,-0.05516 -0.44785,-0.14833l-1.19988,-0.87263l0.06134,-0.08434c-0.44046,-0.24842 -0.86678,-0.51965 -1.27021,-0.82221l-0.01537,-0.01152c0,0 -0.6,-0.45 -0.15,-1.05c0.45,-0.6 1.05,-0.15 1.05,-0.15l0.01537,0.01152c0.10501,0.07876 0.21017,0.16038 0.31381,0.24514c-0.50303,-0.97066 -0.81168,-1.94007 -1.18685,-3.06559c0,0 -0.23717,-0.71151 0.47434,-0.94868c0.71151,-0.23717 0.94868,0.47434 0.94868,0.47434c0.43163,1.2949 0.75618,2.31293 1.40855,3.42121c0.30784,0.00626 0.53716,0.23557 0.53716,0.23557c0.42918,0.42918 0.86872,0.83805 1.31806,1.22814c-0.21053,-0.27122 -0.43221,-0.54395 -0.67033,-0.81633l-0.52734,-0.60322c0,0 -0.49363,-0.56465 0.07103,-1.05828c0.02167,-0.01894 0.04323,-0.03633 0.06466,-0.05224c-0.36268,-0.56704 -0.72895,-1.13526 -1.1066,-1.70165c0,0 -0.41603,-0.62404 0.20801,-1.04006c0.62404,-0.41603 1.04006,0.20801 1.04006,0.20801c0.95031,1.42566 1.83343,2.8555 2.76487,4.25206c0.38391,-0.14909 0.73733,0.14542 0.73733,0.14542l0.36412,0.30343c-0.23555,-0.7466 -0.45325,-1.50299 -0.65741,-2.26859c0,0 -0.07308,-0.27404 0.03916,-0.53002c-0.60973,-0.60528 -1.20347,-1.23746 -1.73754,-1.9478c0,0 -0.15178,-0.20237 -0.16151,-0.4602c-0.13566,-0.0773 -0.26995,-0.15946 -0.40276,-0.24661c-1.02948,0.06128 -2.05939,0.09529 -3.08951,0.09529c0,0 -0.47345,0 -0.66802,-0.37617c-1.85239,0.8048 -3.68474,1.66145 -5.48192,2.55517c0.08435,0.29441 0.16592,0.59129 0.24739,0.88898c0.03358,-0.22702 0.16543,-0.54398 0.63118,-0.61051c0.74246,-0.10607 0.84853,0.6364 0.84853,0.6364c0.02055,0.14868 0.04443,0.29713 0.07157,0.44512c0.23981,0.22177 0.23981,0.57247 0.23981,0.57247l-0.04526,0.28286c0.02693,0.09893 0.05531,0.19747 0.08514,0.29555c0.04303,0.12168 0.08277,0.24451 0.11951,0.36832c0.08335,0.24148 0.17552,0.47961 0.27621,0.71339l0.00693,0.0163l0.03354,-0.01332l0.5473,1.37827c0.03814,0.08992 0.05924,0.18881 0.05924,0.29264c0,0.24612 -0.11856,0.46456 -0.30168,0.60131c1.47631,1.76624 2.88362,3.5842 4.33935,5.36577c-0.5328,-1.81558 -1.23122,-3.57514 -1.71918,-5.40789l-0.01445,-0.05431c0,0 -0.19279,-0.7248 0.53201,-0.91759c0.7248,-0.19279 0.91759,0.53201 0.91759,0.53201l0.01445,0.05431c0.38467,1.4476 2.58808,6.1053 2.15484,7.99482l0.64725,0.68265c0.12811,0.13455 0.20675,0.31664 0.20675,0.51709c0,0.41421 -0.33579,0.75 -0.75,0.75c-0.20289,0 -0.38696,-0.08056 -0.52198,-0.21144l-0.56669,-0.54789l0.02337,-0.02417l-0.01937,-0.02043c-0.04863,-0.03853 -0.09449,-0.08101 -0.13708,-0.12815c-0.00486,-0.00538 -0.01082,-0.01732 -0.01778,-0.03517l-0.3368,-0.35522l0.01267,-0.01201l-0.02494,-0.00124c-1.53356,-1.78145 -2.97502,-3.63197 -4.44825,-5.45867c-0.12946,0.10636 -0.29517,0.17022 -0.4758,0.17022c-0.28443,0 -0.53189,-0.15834 -0.65903,-0.39167l-0.71457,-1.25529c-0.90991,-1.17789 -1.46149,-2.53361 -1.90633,-3.94091l-0.42036,-0.40595c0,0 -0.52438,-0.52438 -0.00885,-1.05171c-0.09623,-0.34243 -0.19127,-0.68535 -0.2886,-1.02701c-1.77057,0.9076 -3.50247,1.84821 -5.18078,2.80725c0,0 -0.65118,0.3721 -1.02329,-0.27908c-0.3721,-0.65118 0.27908,-1.02329 0.27908,-1.02329c5.24833,-2.99905 11.01574,-5.8191 16.85542,-8.02811c-2.61821,-0.31351 -5.24294,-0.57483 -7.85381,-1.22755c0,0 -0.72761,-0.1819 -0.54571,-0.90951c0.1819,-0.72761 0.90951,-0.54571 0.90951,-0.54571c3.50555,0.87639 7.03458,1.0483 10.54283,1.58734c1.26965,-0.43034 2.53905,-0.82837 3.80362,-1.18968c2.6954,-0.76888 5.53545,-1.15442 8.15119,-2.04259l0.86483,-0.18427c0,0 0.73375,-0.15527 0.88902,0.57849c0.15527,0.73375 -0.57849,0.88902 -0.57849,0.88902l-0.7809,0.16397c-2.62518,0.87082 -5.438,1.26622 -8.13357,2.03767c-0.38387,0.10968 -0.76819,0.2228 -1.15282,0.33922c0.17949,0.04339 0.35889,0.08858 0.5382,0.13571l0.44925,0.11809c0,0 0.19069,0.05013 0.35083,0.19675c0.68024,0.06752 1.36088,0.14081 2.04325,0.20489c0.00471,-0.05866 0.01651,-0.12145 0.03686,-0.1886c0.00566,-0.0196 0.0121,-0.03886 0.01927,-0.05776c0.14653,-0.40158 0.45024,-0.48316 0.67264,-0.48322c0.00953,-0.00036 0.01911,-0.00054 0.02873,-0.00054c0.08911,0 0.17458,0.01554 0.25387,0.04406c0.90433,0.30111 1.82477,0.53207 2.75086,0.74393c1.00616,-0.16671 2.01117,-0.32966 3.01491,-0.48196l0.96871,-0.00218c0,0 0.75,0 0.75,0.75c0,0.75 -0.75,0.75 -0.75,0.75l-0.47844,-0.00122c0.00848,0.04989 0.01308,0.10402 0.01308,0.16275c0,0.75 -0.75,0.75 -0.75,0.75l-0.99336,-0.00448c-0.14953,-0.03272 -0.29907,-0.06517 -0.44858,-0.09751c-0.14999,0.28254 -0.47799,0.37671 -0.47799,0.37671l-1.16047,0.32542c-0.74002,0.00165 -1.46939,0.01433 -2.18773,0.01158l-0.04811,0.02887c-1.55563,0.92481 -3.31974,1.63557 -5.10019,1.91121c0.23891,0.05205 0.48431,0.09872 0.73192,0.14504c0.32043,-0.40421 0.84781,-0.19326 0.84781,-0.19326c0.79742,0.31912 1.59989,0.62704 2.41272,0.90459l0.01569,0.01274l0.00232,-0.0058l1.37649,0.5506c0.28484,0.10636 0.48768,0.38091 0.48768,0.70285c0,0.41421 -0.33579,0.75 -0.75,0.75c-0.07308,0 -0.14371,-0.01045 -0.21049,-0.02994l-1.43244,-0.38349l0.04497,-0.16798l-0.05738,-0.02295c-0.89713,-0.10743 -1.75529,-0.28955 -2.65901,-0.50794c-0.08576,0.31978 -0.37762,0.55522 -0.72446,0.55522zM227.67141,188.47923c1.17746,0.85359 2.55651,1.5074 3.79444,2.272c0.35001,0.21618 0.77767,0.21978 1.20151,0.24109c-0.7149,-0.64501 -1.35123,-1.77869 -1.76157,-2.28489c-0.76571,-0.94458 -1.57467,-1.76735 -2.42787,-2.55041c-0.28066,-0.10156 -0.55993,-0.20527 -0.83774,-0.31132c-0.01061,0.19932 -0.02713,0.39897 -0.04991,0.59894l0.28174,0.04025l-0.21057,1.47401c-0.01859,0.14686 -0.07966,0.28048 -0.17049,0.38816c0.06,0.04439 0.12016,0.08845 0.18046,0.13217zM222.96748,184.05613c-0.0921,0 -0.18032,-0.0166 -0.26183,-0.04697c0.67663,0.69913 1.36364,1.3872 2.06691,2.04592c-0.40064,-0.64241 -0.77071,-1.29584 -1.11401,-1.95977c-0.09886,-0.05011 -0.19746,-0.10067 -0.2958,-0.15167c-0.11477,0.07131 -0.25021,0.11249 -0.39527,0.11249zM226.07318,185.31194c-0.0101,-0.03645 -0.02007,-0.07296 -0.02992,-0.10951c-0.01751,-0.00745 -0.03501,-0.0149 -0.05251,-0.02237c0.02732,0.04402 0.05479,0.08798 0.08242,0.13188zM224.68894,179.50307c-0.05353,-0.01004 -0.10368,-0.02595 -0.14947,-0.04478c0.16425,0.4416 0.33952,0.87737 0.53702,1.30416c-0.11039,-0.4242 -0.23652,-0.84492 -0.38755,-1.25938zM222.66364,170.68711c0,0 -0.75,0 -0.75,-0.75c0,-0.0035 0.00002,-0.00698 0.00005,-0.01045c-0.58268,0.20067 -1.16531,0.40815 -1.74743,0.62201c0.92513,0.13219 1.8336,0.20293 2.74146,0.23614c-0.05348,-0.03186 -0.10688,-0.06443 -0.16019,-0.09772c-0.02796,-0.00005 -0.05593,-0.00004 -0.08389,0.00002zM217.50855,171.56984c0.02626,-0.00115 0.05251,-0.00232 0.07877,-0.00351c-0.01035,-0.00342 -0.02284,-0.00779 -0.03703,-0.0132c-0.01391,0.00557 -0.02782,0.01114 -0.04173,0.01672z" fill="#580000" stroke-width="0.5"/></g></g></svg>