<svg version="1.1" xmlns="http://www.w3.org/2000/svg" xmlns:xlink="http://www.w3.org/1999/xlink" width="25.02294" height="41.15041" viewBox="0,0,25.02294,41.15041"><g transform="translate(-227.19695,-159.35935)"><g data-paper-data="{&quot;isPaintingLayer&quot;:true}" fill-rule="nonzero" stroke="none" stroke-width="0.5" stroke-linecap="butt" stroke-linejoin="miter" stroke-miterlimit="10" stroke-dasharray="" stroke-dashoffset="0" style="mix-blend-mode: normal"><path d="M236.71118,199.84766c-1.77237,0.01226 -5.10591,0.49815 -6.53861,-0.58247c-0.67337,-0.50789 -0.47537,-2.51828 -0.62392,-3.27147c0,0 -0.02608,-0.13492 0.00485,-0.30626c-0.01845,-0.08862 -0.01845,-0.14886 -0.01845,-0.14886v-0.46999c0,-4.78404 0.32593,-9.7741 -0.36137,-14.51617c-0.00793,-4.07537 0.19755,-8.41063 1.25098,-12.50607c-0.01696,-0.17962 0.04777,-0.34023 0.12255,-0.46126c0.08173,-0.29797 0.16811,-0.59457 0.2594,-0.88958c0,-1.87434 0,-3.74867 0,-5.62301c0,0 0,-0.86244 1,-0.86244c0.04484,0 0.08766,0.00173 0.12857,0.00505c1.45741,-0.56907 2.98699,-0.74257 4.5375,-0.71155c0.22074,-0.07681 0.42017,-0.07681 0.42017,-0.07681c3.46958,0 11.14398,-0.7821 12.40775,2.98218c0.18226,0.54288 0.19661,1.22005 0.16288,1.90735c0.30149,1.41969 0.23671,2.97489 0.23671,4.2761c0,3.38667 -1.00757,6.72353 -0.73001,10.11202c0.31775,3.87913 1.45661,7.43764 1.45661,11.35095c-0.00279,0.84028 0.0296,1.6818 0.06778,2.52465c-0.23993,2.1877 -0.38715,4.39819 -0.40708,6.59759c-2.90598,2.55384 -9.86918,0.64581 -13.37629,0.67006zM248.66459,198.07876c0.10765,-0.0529 0.19137,-0.10966 0.24621,-0.17048c-0.08121,0.05793 -0.16325,0.11481 -0.24621,0.17048z" fill="#307024"/><path d="M250.58504,163.89246c0,0.21561 -0.25,0.21561 -0.25,0.21561l-0.31136,-0.00471c-0.29793,0.11433 -0.63413,0.15859 -0.96021,0.16137c0,0 -0.25,0 -0.25,-0.21561c0,-0.21561 0.25,-0.21561 0.25,-0.21561c0.29139,0.00306 0.59006,-0.04979 0.85631,-0.15196l0.41526,-0.00471c0,0 0.25,0 0.25,0.21561z" fill="#1a3d13"/><path d="M251.12999,166.24242c0,0.21561 -0.25,0.21561 -0.25,0.21561c-0.46942,0 -0.98379,0 -1.45321,0c0,0 -0.25,0 -0.25,-0.21561c0,-0.21561 0.25,-0.21561 0.25,-0.21561c0.46942,0 0.93884,0 1.40826,0h0.04495c0,0 0.25,0 0.25,0.21561z" fill="#1a3d13"/><path d="M251.2567,168.25724c-0.15636,0.16823 -0.35143,0.03337 -0.35143,0.03337l-0.07024,-0.10928c-0.34105,0 -0.61806,-0.00727 -0.90243,-0.03445l-0.00071,0.03387l-0.49935,-0.00785c-0.13623,-0.00184 -0.24601,-0.09765 -0.24601,-0.21559c0,-0.05954 0.02799,-0.11345 0.07323,-0.15246l0.35356,-0.30492l0.28877,0.24904l0.03892,0.00061l-0.00068,0.03238l0.02654,0.02289l-0.02753,0.02374l-0.00672,0.31828c-0.22603,-0.0216 -0.45671,-0.05578 -0.72791,-0.10887l0.40861,-0.53807c0,0 0.17678,-0.15245 0.35355,0c0.12613,0.10878 0.07227,0.21756 0.03106,0.27096c0.2637,-0.04863 0.52498,-0.02078 0.83712,-0.02078l0.38297,0.20405c0,0 0.19506,0.13485 0.03869,0.30309z" fill="#1a3d13"/><path d="M250.37699,169.59261c0.11181,0.19284 -0.11181,0.28927 -0.11181,0.28927l-0.41766,0.17365c-0.32188,0.00398 -0.64379,0.00577 -0.9657,0.00577c0,0 -0.25,0 -0.25,-0.21561c0,-0.21561 0.25,-0.21561 0.25,-0.21561c0.28361,0 0.56725,0.0011 0.85082,0.00576l0.30894,-0.13967c0,0 0.22361,-0.09642 0.33541,0.09643z" fill="#1a3d13"/><path d="M251.12999,171.41234c0,0.21561 -0.25,0.21561 -0.25,0.21561c-0.33334,0 -1.11988,0 -1.45321,0c0,0 -0.25,0 -0.25,-0.21561c0,-0.21561 0.25,-0.21561 0.25,-0.21561c0.33334,0 0.66666,0 1,0h0.45322c0,0 0.25,0 0.25,0.21561z" fill="#1a3d13"/><path d="M249.42678,173.50791c0,0 -0.25,0 -0.25,-0.21561c0,-0.21561 0.25,-0.21561 0.25,-0.21561c0.06055,0 0.12111,0 0.18166,0c0.10611,0 0.21223,0 0.31834,0c0.15168,0 0.52998,0 0.68166,0h0.27156c0,0 0.25,0 0.25,0.21561c0,0.21561 -0.25,0.21561 -0.25,0.21561c-0.18822,0 -0.46301,0 -0.72661,0c-0.12036,0 -0.35891,0 -0.54495,0c-0.07156,0 -0.13536,0 -0.18166,0z" fill="#1a3d13"/><path d="M248.70017,175.38789c0,0 -0.25,0 -0.25,-0.21561c0,-0.21561 0.25,-0.21561 0.25,-0.21561c0.2422,0 0.48441,0 0.72661,0c0.09113,0 0.18227,0 0.27339,0h0.45321c0,0 0.25,0 0.25,0.21561c0,0.21561 -0.25,0.21561 -0.25,0.21561c-0.0463,0 -0.11009,0 -0.18165,0c-0.14512,0 -0.34171,0 -0.54496,0c-0.2636,0 -0.53839,0 -0.72661,0z" fill="#1a3d13"/><path d="M250.04008,176.26892c0,0.21561 -0.25,0.21561 -0.25,0.21561c-0.30275,0 -0.78716,0 -1.08991,0c0,0 -0.25,0 -0.25,-0.21561c0,-0.21561 0.25,-0.21561 0.25,-0.21561c0.30275,0 0.60551,0 0.90826,0h0.18165c0,0 0.25,0 0.25,0.21561z" fill="#1a3d13"/><path d="M249.85843,177.52224c0,0.21561 -0.25,0.21561 -0.25,0.21561c-0.28777,0 -0.98379,0 -1.27156,0c0,0 -0.25,0 -0.25,-0.21561c0,-0.21561 0.25,-0.21561 0.25,-0.21561c0.16202,0 0.32404,0 0.48606,0c0.02973,-0.09043 0.12617,-0.15666 0.24054,-0.15666c0.11437,0 0.21081,0.06624 0.24054,0.15666h0.30442c0,0 0.25,0 0.25,0.21561z" fill="#1a3d13"/><path d="M248.81348,178.93221c0,-0.11908 0.11193,-0.21561 0.25,-0.21561c0.13807,0 0.25,0.09653 0.25,0.21561c0,0.11908 -0.11193,0.21561 -0.25,0.21561c-0.13807,0 -0.25,-0.09653 -0.25,-0.21561z" fill="#1a3d13"/><path d="M250.94834,179.55887c0,0.21561 -0.25,0.21561 -0.25,0.21561c-0.5,0 -1.49817,0 -1.99817,0c0,0 -0.25,0 -0.25,-0.21561c0,-0.21561 0.25,-0.21561 0.25,-0.21561c0.5,0 1,0 1.5,0h0.49817c0,0 0.25,0 0.25,0.21561z" fill="#1a3d13"/><path d="M249.85843,178.30556c0,0.21561 -0.25,0.21561 -0.25,0.21561c-0.30275,0 -0.78716,0 -1.08991,0c0,0 -0.25,0 -0.25,-0.21561c0,-0.21561 0.25,-0.21561 0.25,-0.21561c0.30275,0 0.6055,0 0.90825,0h0.18166c0,0 0.25,0 0.25,0.21561z" fill="#1a3d13"/><path d="M250.04008,180.96885c0,0.21561 -0.25,0.21561 -0.25,0.21561c-0.16666,0 -0.55994,0 -0.72661,0c0,0 -0.25,0 -0.25,-0.21561c0,-0.21561 0.25,-0.21561 0.25,-0.21561c0.16666,0 0.33334,0 0.5,0h0.22661c0,0 0.25,0 0.25,0.21561z" fill="#1a3d13"/><path d="M250.76669,181.90883c0,0.21561 -0.25,0.21561 -0.25,0.21561c-0.30275,0 -0.96881,0 -1.27156,0c0,0 -0.25,0 -0.25,-0.21561c0,-0.21561 0.25,-0.21561 0.25,-0.21561c0.30275,0 0.6055,0 0.90825,0h0.3633c0,0 0.25,0 0.25,0.21561z" fill="#1a3d13"/><path d="M250.76669,182.69215c0,0.21561 -0.25,0.21561 -0.25,0.21561c-0.30275,0 -0.78716,0 -1.08991,0c0,0 -0.25,0 -0.25,-0.21561c0,-0.21561 0.25,-0.21561 0.25,-0.21561c0.30275,0 0.60551,0 0.90826,0h0.18165c0,0 0.25,0 0.25,0.21561z" fill="#1a3d13"/><path d="M251.49329,183.47547c0,0.21561 -0.25,0.21561 -0.25,0.21561c-0.48441,0 -1.15045,0 -1.63486,0c0,0 -0.25,0 -0.25,-0.21561c0,-0.21561 0.25,-0.21561 0.25,-0.21561c0.48441,0 0.9688,0 1.45321,0h0.18165c0,0 0.25,0 0.25,0.21561z" fill="#1a3d13"/><path d="M250.94834,184.41546c0,0.21561 -0.25,0.21561 -0.25,0.21561l-0.16811,-0.00032c-0.28618,0.01201 -0.57136,0.06666 -0.84274,0.14592c0,0 -0.23718,0.06818 -0.31623,-0.13637c-0.07906,-0.20455 0.15812,-0.27273 0.15812,-0.27273c0.31443,-0.08913 0.64337,-0.15059 0.97377,-0.16742l0.19519,-0.00032c0,0 0.25,0 0.25,0.21561z" fill="#1a3d13"/><path d="M251.49329,185.19878c0,0.21561 -0.25,0.21561 -0.25,0.21561c-0.42386,0 -1.02936,0 -1.45321,0c0,0 -0.25,0 -0.25,-0.21561c0,-0.21561 0.25,-0.21561 0.25,-0.21561c0.42386,0 0.8477,0 1.27156,0h0.18165c0,0 0.25,0 0.25,0.21561z" fill="#1a3d13"/><path d="M250.76669,186.13876c0,0.21561 -0.25,0.21561 -0.25,0.21561c-0.30275,0 -0.78716,0 -1.08991,0c0,0 -0.25,0 -0.25,-0.21561c0,-0.21561 0.25,-0.21561 0.25,-0.21561c0.30275,0 0.60551,0 0.90826,0h0.18165c0,0 0.25,0 0.25,0.21561z" fill="#1a3d13"/><path d="M250.94834,187.23541c0,0.21561 -0.25,0.21561 -0.25,0.21561l-0.26167,-0.01862c-0.31524,0.11742 -0.66653,0.17236 -1.00989,0.17529c0,0 -0.25,0 -0.25,-0.21561c0,-0.21561 0.25,-0.21561 0.25,-0.21561c0.2741,0.00288 0.55775,-0.03897 0.80663,-0.13805l0.46493,-0.01862c0,0 0.25,0 0.25,0.21561z" fill="#1a3d13"/><path d="M251.12999,188.01873c0,0.21561 -0.25,0.21561 -0.25,0.21561c-0.28777,0 -0.80214,0 -1.08991,0c0,0 -0.25,0 -0.25,-0.21561c0,-0.21561 0.25,-0.21561 0.25,-0.21561c0.28777,0 0.57553,0 0.8633,0h0.22661c0,0 0.25,0 0.25,0.21561z" fill="#1a3d13"/><path d="M252.2199,188.80205c0,0.21561 -0.25,0.21561 -0.25,0.21561l-0.08002,-0.01862c-0.76253,0.28403 -1.63878,0.17528 -2.4631,0.17528c0,0 -0.25,0 -0.25,-0.21561c0,-0.21561 0.25,-0.21561 0.25,-0.21561c0.72886,0 1.59404,0.12701 2.25984,-0.13804l0.28328,-0.01862c0,0 0.25,0 0.25,0.21561z" fill="#1a3d13"/><path d="M251.8566,189.58537c0,0.21561 -0.25,0.21561 -0.25,0.21561c-0.33334,0 -0.93822,0 -1.27156,0c0,0 -0.25,0 -0.25,-0.21561c0,-0.21561 0.25,-0.21561 0.25,-0.21561c0.33334,0 0.66666,0 1,0h0.27156c0,0 0.25,0 0.25,0.21561z" fill="#1a3d13"/><path d="M251.60172,190.67781c-0.17677,0.15245 -0.35356,0 -0.35356,0l-0.11668,-0.11627c-0.2422,-0.10444 -0.48441,-0.20888 -0.72661,-0.31333c0,0 -0.2236,-0.09643 -0.1118,-0.28927c0.11181,-0.19284 0.33541,-0.09643 0.33541,-0.09643c0.2422,0.10444 0.48441,0.20888 0.72661,0.31333l0.24662,0.19705c0,0 0.17677,0.15246 0,0.30492z" fill="#1a3d13"/><path d="M251.8566,192.24866c0,0.21561 -0.25,0.21561 -0.25,0.21561h-0.22661c-0.52353,0 -0.82534,0.02316 -1.28724,-0.15871c-0.06369,-0.01128 -0.10679,-0.04471 -0.13498,-0.07822c-0.03089,-0.03009 -0.05863,-0.07199 -0.05928,-0.1257l-0.04802,-0.16566c-0.04359,-0.26139 -0.05431,-0.45985 0.00718,-0.59086c-0.06592,-0.0253 -0.13591,-0.07902 -0.13591,-0.19311c0,-0.21561 0.25,-0.21561 0.25,-0.21561c0.16666,0 0.33334,0 0.5,0h0.40826c0.13807,0 0.25,0.09653 0.25,0.21561c0,0.08607 -0.05848,0.16037 -0.14305,0.19494l-0.44236,0.19076l-0.05154,-0.08889c-0.17526,0.09597 -0.2646,0.19251 -0.15751,0.38258l0.03201,0.11043c0.34582,0.13153 0.58929,0.09122 1.01244,0.09122h0.22661c0,0 0.25,0 0.25,0.21561z" fill="#1a3d13"/><path d="M251.8566,193.18865c0,0.21561 -0.25,0.21561 -0.25,0.21561c-0.28777,0 -0.80214,0 -1.08991,0c0,0 -0.25,0 -0.25,-0.21561c0,-0.21561 0.25,-0.21561 0.25,-0.21561c0.28777,0 0.57554,0 0.8633,0h0.22661c0,0 0.25,0 0.25,0.21561z" fill="#1a3d13"/><path d="M251.42007,194.43775c-0.17677,0.15245 -0.35355,0 -0.35355,0l-0.00488,-0.09351c-0.30275,0 -0.60551,0 -0.90826,0c0,0 -0.25,0 -0.25,-0.21561c0,-0.21561 0.25,-0.21561 0.25,-0.21561c0.30275,0 0.60551,0 0.90826,0l0.35843,0.21981c0,0 0.17677,0.15246 0,0.30493z" fill="#1a3d13"/><path d="M251.49329,195.38195c0,0.21561 -0.25,0.21561 -0.25,0.21561c-0.16666,0 -0.74159,0 -0.90825,0c0,0 -0.25,0 -0.25,-0.21561c0,-0.21561 0.25,-0.21561 0.25,-0.21561c0.16666,0 0.33334,0 0.5,0h0.40825c0,0 0.25,0 0.25,0.21561z" fill="#1a3d13"/><path d="M252.03825,196.47859c0,0.21561 -0.25,0.21561 -0.25,0.21561c-0.28777,0 -0.98379,0 -1.27156,0c0,0 -0.25,0 -0.25,-0.21561c0,-0.21561 0.25,-0.21561 0.25,-0.21561c0.28777,0 0.57554,0 0.8633,0h0.40825c0,0 0.25,0 0.25,0.21561z" fill="#1a3d13"/><path d="M251.84377,197.50706c0.07906,0.20455 -0.15811,0.27273 -0.15811,0.27273l-0.07061,0.02029c-0.46828,0.13195 -0.81508,0.14583 -1.27026,0.14727c-0.00323,0.0001 -0.00648,0.00016 -0.00974,0.00016c-0.0027,0 -0.0054,-0.00004 -0.00809,-0.00011c-0.05605,0.00014 -0.11376,0.00011 -0.17356,0.00011c0,0 -0.25,0 -0.25,-0.21561c0,-0.21561 0.25,-0.21561 0.25,-0.21561c0.05803,0 0.11362,0.00021 0.16729,0.00035c0.00475,-0.00023 0.00954,-0.00035 0.01436,-0.00035c0.00531,0 0.01059,0.00014 0.01582,0.00042c0.39803,0.00087 0.69316,-0.00423 1.10607,-0.12572l0.07061,-0.0203c0,0 0.23717,-0.06818 0.31623,0.13637z" fill="#1a3d13"/><path d="M251.83801,198.43364c0.09459,0.19958 -0.13682,0.28117 -0.13682,0.28117l-0.00779,0.00274c-0.49913,0.17352 -0.96103,0.20776 -1.47939,0.32018c0,0 -0.24254,0.05229 -0.30317,-0.15688c-0.06063,-0.20918 0.18191,-0.26147 0.18191,-0.26147c0.18434,-0.03953 0.36228,-0.06804 0.53737,-0.097c-0.00009,-0.00238 -0.00014,-0.00476 -0.00014,-0.00716c0,-0.11908 0.11193,-0.21561 0.25,-0.21561c0.10383,0 0.19288,0.05459 0.23066,0.13231c0.13044,-0.02989 0.26112,-0.06609 0.39357,-0.11353l0.00779,-0.00275c0,0 0.23142,-0.08158 0.32601,0.118z" fill="#1a3d13"/><path d="M228.3635,186.86313l0.41526,0.00471c0.26625,0.10217 0.56491,0.15502 0.8563,0.15195c0,0 0.25,0 0.25,0.21561c0,0.21561 -0.25,0.21561 -0.25,0.21561c-0.32608,-0.00278 -0.66227,-0.04705 -0.96021,-0.16137l-0.31135,0.0047c0,0 -0.25,0 -0.25,-0.21561c0,-0.21561 0.25,-0.21561 0.25,-0.21561z" data-paper-data="{&quot;index&quot;:null}" fill="#1a3d13"/><path d="M228.39168,189.08938h0.04495c0.46942,0 0.93884,0 1.40826,0c0,0 0.25,0 0.25,0.21561c0,0.21561 -0.25,0.21561 -0.25,0.21561c-0.46942,0 -0.98379,0 -1.45321,0c0,0 -0.25,0 -0.25,-0.21561c0,-0.21561 0.25,-0.21561 0.25,-0.21561z" data-paper-data="{&quot;index&quot;:null}" fill="#1a3d13"/><path d="M227.56746,191.14045l0.38297,-0.20405c0.31214,0 0.57342,-0.02785 0.83712,0.02078c-0.04121,-0.0534 -0.09507,-0.16218 0.03106,-0.27096c0.17677,-0.15245 0.35355,0 0.35355,0l0.40861,0.53807c-0.2712,0.05308 -0.50188,0.08726 -0.72791,0.10887l-0.00673,-0.31828l-0.02752,-0.02374l0.02654,-0.02289l-0.00068,-0.03237l0.03893,-0.00061l0.28877,-0.24905l0.35356,0.30492c0.04524,0.03902 0.07322,0.09292 0.07322,0.15246c0,0.11793 -0.10978,0.21374 -0.24601,0.21558l-0.49935,0.00785l-0.00071,-0.03387c-0.28437,0.02718 -0.56138,0.03445 -0.90243,0.03445l-0.07024,0.10929c0,0 -0.19506,0.13486 -0.35142,-0.03338c-0.15636,-0.16823 0.03869,-0.30309 0.03869,-0.30309z" data-paper-data="{&quot;index&quot;:null}" fill="#1a3d13"/><path d="M228.28537,192.68247l0.30894,0.13967c0.28357,-0.00466 0.5672,-0.00577 0.85081,-0.00577c0,0 0.25,0 0.25,0.21561c0,0.21561 -0.25,0.21561 -0.25,0.21561c-0.3219,0 -0.64382,-0.00179 -0.96569,-0.00577l-0.41766,-0.17366c0,0 -0.22361,-0.09643 -0.11181,-0.28927c0.11181,-0.19284 0.33541,-0.09643 0.33541,-0.09643z" data-paper-data="{&quot;index&quot;:null}" fill="#1a3d13"/><path d="M228.05831,194.44892h0.45322c0.33334,0 0.66666,0 1,0c0,0 0.25,0 0.25,0.21561c0,0.21561 -0.25,0.21561 -0.25,0.21561c-0.33334,0 -1.11988,0 -1.45321,0c0,0 -0.25,0 -0.25,-0.21561c0,-0.21561 0.25,-0.21561 0.25,-0.21561z" data-paper-data="{&quot;index&quot;:null}" fill="#1a3d13"/><path d="M229.55912,196.66125c-0.18604,0 -0.42459,0 -0.54495,0c-0.2636,0 -0.5384,0 -0.72661,0c0,0 -0.25,0 -0.25,-0.21561c0,-0.21561 0.25,-0.21561 0.25,-0.21561h0.27156c0.15168,0 0.52997,0 0.68165,0c0.10611,0 0.21223,0 0.31835,0c0.06055,0 0.1211,0 0.18165,0c0,0 0.25,0 0.25,0.21561c0,0.21561 -0.25,0.21561 -0.25,0.21561c-0.0463,0 -0.11009,0 -0.18165,0z" data-paper-data="{&quot;index&quot;:null}" fill="#1a3d13"/><path d="M229.99008,162.6981c-0.20325,0 -0.39984,0 -0.54496,0c-0.07156,0 -0.13535,0 -0.18165,0c0,0 -0.25,0 -0.25,-0.21561c0,-0.21561 0.25,-0.21561 0.25,-0.21561h0.45321c0.09113,0 0.18227,0 0.2734,0c0.2422,0 0.4844,0 0.7266,0c0,0 0.25,0 0.25,0.21561c0,0.21561 -0.25,0.21561 -0.25,0.21561c-0.18822,0 -0.463,0 -0.7266,0z" data-paper-data="{&quot;index&quot;:null}" fill="#1a3d13"/><path d="M229.62678,163.36352h0.18165c0.30275,0 0.60551,0 0.90826,0c0,0 0.25,0 0.25,0.21561c0,0.21561 -0.25,0.21561 -0.25,0.21561c-0.30275,0 -0.78716,0 -1.08991,0c0,0 -0.25,0 -0.25,-0.21561c0,-0.21561 0.25,-0.21561 0.25,-0.21561z" data-paper-data="{&quot;index&quot;:null}" fill="#1a3d13"/><path d="M229.80843,164.61683h0.30442c0.02973,-0.09043 0.12616,-0.15666 0.24054,-0.15666c0.11437,0 0.21081,0.06624 0.24054,0.15666c0.16202,0 0.32404,0 0.48606,0c0,0 0.25,0 0.25,0.21561c0,0.21561 -0.25,0.21561 -0.25,0.21561c-0.28777,0 -0.98379,0 -1.27156,0c0,0 -0.25,0 -0.25,-0.21561c0,-0.21561 0.25,-0.21561 0.25,-0.21561z" data-paper-data="{&quot;index&quot;:null}" fill="#1a3d13"/><path d="M230.35338,166.45803c-0.13807,0 -0.25,-0.09653 -0.25,-0.21561c0,-0.11908 0.11193,-0.21561 0.25,-0.21561c0.13807,0 0.25,0.09653 0.25,0.21561c0,0.11908 -0.11193,0.21561 -0.25,0.21561z" data-paper-data="{&quot;index&quot;:null}" fill="#1a3d13"/><path d="M228.71852,166.65347h0.49817c0.5,0 1,0 1.5,0c0,0 0.25,0 0.25,0.21561c0,0.21561 -0.25,0.21561 -0.25,0.21561c-0.5,0 -1.49817,0 -1.99817,0c0,0 -0.25,0 -0.25,-0.21561c0,-0.21561 0.25,-0.21561 0.25,-0.21561z" data-paper-data="{&quot;index&quot;:null}" fill="#1a3d13"/><path d="M229.80843,165.40016h0.18166c0.30275,0 0.6055,0 0.90825,0c0,0 0.25,0 0.25,0.21561c0,0.21561 -0.25,0.21561 -0.25,0.21561c-0.30275,0 -0.78716,0 -1.08991,0c0,0 -0.25,0 -0.25,-0.21561c0,-0.21561 0.25,-0.21561 0.25,-0.21561z" data-paper-data="{&quot;index&quot;:null}" fill="#1a3d13"/><path d="M229.62678,168.06344h0.2266c0.16666,0 0.33334,0 0.5,0c0,0 0.25,0 0.25,0.21561c0,0.21561 -0.25,0.21561 -0.25,0.21561c-0.16666,0 -0.55994,0 -0.7266,0c0,0 -0.25,0 -0.25,-0.21561c0,-0.21561 0.25,-0.21561 0.25,-0.21561z" data-paper-data="{&quot;index&quot;:null}" fill="#1a3d13"/><path d="M228.90017,169.00343h0.3633c0.30275,0 0.6055,0 0.90825,0c0,0 0.25,0 0.25,0.21561c0,0.21561 -0.25,0.21561 -0.25,0.21561c-0.30275,0 -0.96881,0 -1.27156,0c0,0 -0.25,0 -0.25,-0.21561c0,-0.21561 0.25,-0.21561 0.25,-0.21561z" data-paper-data="{&quot;index&quot;:null}" fill="#1a3d13"/><path d="M228.90017,169.78674h0.18165c0.30275,0 0.60551,0 0.90826,0c0,0 0.25,0 0.25,0.21561c0,0.21561 -0.25,0.21561 -0.25,0.21561c-0.30275,0 -0.78716,0 -1.08991,0c0,0 -0.25,0 -0.25,-0.21561c0,-0.21561 0.25,-0.21561 0.25,-0.21561z" data-paper-data="{&quot;index&quot;:null}" fill="#1a3d13"/><path d="M228.17357,170.57007h0.18165c0.48441,0 0.96881,0 1.45321,0c0,0 0.25,0 0.25,0.21561c0,0.21561 -0.25,0.21561 -0.25,0.21561c-0.48441,0 -1.15045,0 -1.63486,0c0,0 -0.25,0 -0.25,-0.21561c0,-0.21561 0.25,-0.21561 0.25,-0.21561z" data-paper-data="{&quot;index&quot;:null}" fill="#1a3d13"/><path d="M228.71852,171.51005l0.19519,0.00032c0.3304,0.01683 0.65935,0.07828 0.97377,0.16741c0,0 0.23717,0.06818 0.15812,0.27273c-0.07906,0.20455 -0.31623,0.13637 -0.31623,0.13637c-0.27138,-0.07926 -0.55656,-0.13391 -0.84274,-0.14592l-0.16811,0.00032c0,0 -0.25,0 -0.25,-0.21561c0,-0.21561 0.25,-0.21561 0.25,-0.21561z" data-paper-data="{&quot;index&quot;:null}" fill="#1a3d13"/><path d="M228.17357,172.29338h0.18165c0.42386,0 0.84771,0 1.27156,0c0,0 0.25,0 0.25,0.21561c0,0.21561 -0.25,0.21561 -0.25,0.21561c-0.42386,0 -1.02936,0 -1.45321,0c0,0 -0.25,0 -0.25,-0.21561c0,-0.21561 0.25,-0.21561 0.25,-0.21561z" data-paper-data="{&quot;index&quot;:null}" fill="#1a3d13"/><path d="M228.90017,173.23335h0.18165c0.30275,0 0.60551,0 0.90826,0c0,0 0.25,0 0.25,0.21561c0,0.21561 -0.25,0.21561 -0.25,0.21561c-0.30275,0 -0.78716,0 -1.08991,0c0,0 -0.25,0 -0.25,-0.21561c0,-0.21561 0.25,-0.21561 0.25,-0.21561z" data-paper-data="{&quot;index&quot;:null}" fill="#1a3d13"/><path d="M228.71852,174.33l0.46493,0.01862c0.24888,0.09908 0.53253,0.14093 0.80663,0.13805c0,0 0.25,0 0.25,0.21561c0,0.21561 -0.25,0.21561 -0.25,0.21561c-0.34336,-0.00293 -0.69466,-0.05787 -1.00989,-0.17529l-0.26167,0.01862c0,0 -0.25,0 -0.25,-0.21561c0,-0.21561 0.25,-0.21561 0.25,-0.21561z" data-paper-data="{&quot;index&quot;:null}" fill="#1a3d13"/><path d="M228.53687,175.11333h0.22661c0.28777,0 0.57553,0 0.8633,0c0,0 0.25,0 0.25,0.21561c0,0.21561 -0.25,0.21561 -0.25,0.21561c-0.28777,0 -0.80214,0 -1.08991,0c0,0 -0.25,0 -0.25,-0.21561c0,-0.21561 0.25,-0.21561 0.25,-0.21561z" data-paper-data="{&quot;index&quot;:null}" fill="#1a3d13"/><path d="M227.44696,175.89665l0.28328,0.01862c0.6658,0.26505 1.53098,0.13804 2.25984,0.13804c0,0 0.25,0 0.25,0.21561c0,0.21561 -0.25,0.21561 -0.25,0.21561c-0.82432,0 -1.70057,0.10875 -2.4631,-0.17528l-0.08002,0.01862c0,0 -0.25,0 -0.25,-0.21561c0,-0.21561 0.25,-0.21561 0.25,-0.21561z" data-paper-data="{&quot;index&quot;:null}" fill="#1a3d13"/><path d="M227.81026,176.67996h0.27156c0.33334,0 0.66666,0 1,0c0,0 0.25,0 0.25,0.21561c0,0.21561 -0.25,0.21561 -0.25,0.21561c-0.33334,0 -0.93822,0 -1.27156,0c0,0 -0.25,0 -0.25,-0.21561c0,-0.21561 0.25,-0.21561 0.25,-0.21561z" data-paper-data="{&quot;index&quot;:null}" fill="#1a3d13"/><path d="M227.81514,177.68311l0.24662,-0.19705c0.2422,-0.10444 0.48441,-0.20888 0.72661,-0.31333c0,0 0.2236,-0.09642 0.33541,0.09643c0.11181,0.19284 -0.1118,0.28927 -0.1118,0.28927c-0.2422,0.10444 -0.48441,0.20888 -0.72661,0.31333l-0.11668,0.11627c0,0 -0.17678,0.15245 -0.35356,0c-0.17677,-0.15245 0,-0.30492 0,-0.30492z" data-paper-data="{&quot;index&quot;:null}" fill="#1a3d13"/><path d="M227.81026,179.34326h0.22661c0.42315,0 0.66662,0.04031 1.01244,-0.09122l0.03201,-0.11044c0.10709,-0.19007 0.01776,-0.28661 -0.15751,-0.38258l-0.05154,0.0889l-0.44236,-0.19076c-0.08456,-0.03458 -0.14305,-0.10887 -0.14305,-0.19494c0,-0.11908 0.11193,-0.21561 0.25,-0.21561h0.40826c0.16666,0 0.33334,0 0.5,0c0,0 0.25,0 0.25,0.21561c0,0.11408 -0.06999,0.16781 -0.13591,0.1931c0.06149,0.13102 0.05076,0.32948 0.00718,0.59087l-0.04801,0.16565c-0.00065,0.0537 -0.0284,0.09561 -0.05928,0.1257c-0.02819,0.03351 -0.07129,0.06694 -0.13498,0.07822c-0.4619,0.18186 -0.76372,0.15872 -1.28724,0.15872h-0.22661c0,0 -0.25,0 -0.25,-0.21561c0,-0.21561 0.25,-0.21561 0.25,-0.21561z" data-paper-data="{&quot;index&quot;:null}" fill="#1a3d13"/><path d="M228.18185,180.28325h0.2266c0.28777,0 0.57554,0 0.8633,0c0,0 0.25,0 0.25,0.21561c0,0.21561 -0.25,0.21561 -0.25,0.21561c-0.28777,0 -0.80214,0 -1.08991,0c0,0 -0.25,0 -0.25,-0.21561c0,-0.21561 0.25,-0.21561 0.25,-0.21561z" data-paper-data="{&quot;index&quot;:null}" fill="#1a3d13"/><path d="M228.36838,181.44304l0.35843,-0.21981c0.30275,0 0.60551,0 0.90826,0c0,0 0.25,0 0.25,0.21561c0,0.21561 -0.25,0.21561 -0.25,0.21561c-0.30275,0 -0.60551,0 -0.90826,0l-0.00487,0.09351c0,0 -0.17678,0.15245 -0.35355,0c-0.17677,-0.15245 0,-0.30493 0,-0.30493z" data-paper-data="{&quot;index&quot;:null}" fill="#1a3d13"/><path d="M228.54515,182.47654h0.40825c0.16666,0 0.33334,0 0.5,0c0,0 0.25,0 0.25,0.21561c0,0.21561 -0.25,0.21561 -0.25,0.21561c-0.16666,0 -0.74159,0 -0.90825,0c0,0 -0.25,0 -0.25,-0.21561c0,-0.21561 0.25,-0.21561 0.25,-0.21561z" data-paper-data="{&quot;index&quot;:null}" fill="#1a3d13"/><path d="M228.0002,183.57319h0.40825c0.28777,0 0.57554,0 0.8633,0c0,0 0.25,0 0.25,0.21561c0,0.21561 -0.25,0.21561 -0.25,0.21561c-0.28777,0 -0.98379,0 -1.27156,0c0,0 -0.25,0 -0.25,-0.21561c0,-0.21561 0.25,-0.21561 0.25,-0.21561z" data-paper-data="{&quot;index&quot;:null}" fill="#1a3d13"/><path d="M228.26091,184.6809l0.07061,0.0203c0.4129,0.12148 0.70803,0.12659 1.10607,0.12572c0.00523,-0.00028 0.01051,-0.00042 0.01583,-0.00042c0.00482,0 0.0096,0.00012 0.01436,0.00035c0.05367,-0.00015 0.10927,-0.00035 0.1673,-0.00035c0,0 0.25,0 0.25,0.21561c0,0.21561 -0.25,0.21561 -0.25,0.21561c-0.05981,0 -0.11752,0.00003 -0.17357,-0.00011c-0.00269,0.00008 -0.00538,0.00011 -0.00809,0.00011c-0.00326,0 -0.00651,-0.00005 -0.00974,-0.00016c-0.45518,-0.00144 -0.80199,-0.01533 -1.27027,-0.14727l-0.07061,-0.02029c0,0 -0.23717,-0.06818 -0.15812,-0.27273c0.07906,-0.20455 0.31623,-0.13636 0.31623,-0.13636z" data-paper-data="{&quot;index&quot;:null}" fill="#1a3d13"/><path d="M228.27644,185.62585l0.00778,0.00275c0.13245,0.04743 0.26313,0.08364 0.39357,0.11353c0.03778,-0.07771 0.12682,-0.13231 0.23065,-0.13231c0.13807,0 0.25,0.09653 0.25,0.21561c0,0.0024 -0.00005,0.00478 -0.00014,0.00716c0.17509,0.02896 0.35304,0.05746 0.53737,0.097c0,0 0.24254,0.05229 0.18191,0.26147c-0.06063,0.20918 -0.30317,0.15688 -0.30317,0.15688c-0.51836,-0.11242 -0.98025,-0.14665 -1.47939,-0.32018l-0.00778,-0.00274c0,0 -0.23142,-0.08158 -0.13683,-0.28117c0.09459,-0.19958 0.32601,-0.118 0.32601,-0.118z" data-paper-data="{&quot;index&quot;:null}" fill="#1a3d13"/></g></g></svg>