<svg version="1.1" xmlns="http://www.w3.org/2000/svg" xmlns:xlink="http://www.w3.org/1999/xlink" width="40.77643" height="42.03349" viewBox="0,0,40.77643,42.03349"><g transform="translate(-220.02073,-159.20578)"><g data-paper-data="{&quot;isPaintingLayer&quot;:true}" fill-rule="nonzero" stroke-linecap="butt" stroke-linejoin="miter" stroke-miterlimit="10" stroke-dasharray="" stroke-dashoffset="0" style="mix-blend-mode: normal"><g stroke="none" stroke-width="0.5"><path d="M230.21911,196.27075c-0.19105,0.30761 -0.66836,0.85085 -1.52542,0.50803c-1.1606,-0.46424 -0.69636,-1.62483 -0.69636,-1.62483l0.18955,-0.34202l0.135,-1.35001c0.05599,-0.63854 0.5921,-1.13937 1.24517,-1.13937c0.41416,0 0.78127,0.20142 1.00873,0.51164l0.76291,1.01722c0.05325,0.03961 0.33062,0.24536 0.58412,0.50876c0.0268,-0.16733 0.06646,-0.31757 0.11683,-0.42112c0.00672,-0.01382 0.0135,-0.02762 0.02031,-0.04139l-0.00804,-0.00241l0.40106,-1.33686c0.14552,-0.52907 0.63005,-0.91771 1.20535,-0.91771c0.42991,0 0.80913,0.21703 1.03407,0.5475l0.50155,0.7165c0.03808,-0.15986 0.08084,-0.31893 0.12766,-0.47722l-0.22233,-0.04235l0.46358,-2.43378c0.10062,-0.58947 0.61397,-1.03818 1.23213,-1.03818c0.17616,0 0.34381,0.03644 0.49582,0.10219l0.26669,-0.57783c0.19249,-0.44241 0.6335,-0.75175 1.14675,-0.75175c0.53655,0 0.99415,0.33806 1.17141,0.8128c0.04459,0.11149 0.10348,0.25871 0.17199,0.42998c0.6145,-0.81473 1.20449,-1.5796 1.67216,-2.26755l0.78444,-1.43815c0.20835,-0.40033 0.62701,-0.67373 1.10953,-0.67373c0.69036,0 1.25,0.55964 1.25,1.25c0,0.07812 -0.00717,0.15457 -0.02088,0.22873l-0.26888,1.61328l-0.0315,-0.00525c-0.00379,0.06727 -0.0097,0.13457 -0.01795,0.20191c-0.00831,0.06782 -0.01854,0.13619 -0.0306,0.20507c0.06251,0.14881 0.09706,0.31226 0.09706,0.48378c0,0.11436 -0.01536,0.22513 -0.04412,0.33036l-0.18968,0.75871c0.19568,0.10892 0.35906,0.26887 0.47215,0.46186l1.84875,-0.87572c0.16815,-0.08417 0.35792,-0.13153 0.55875,-0.13153c0.66091,0 1.20202,0.51292 1.24698,1.16242l0.83199,-0.55466c0.20119,-0.1384 0.44493,-0.21942 0.7076,-0.21942c0.69036,0 1.25,0.55964 1.25,1.25c0,0.20995 -0.05176,0.4078 -0.14321,0.58151l-0.80701,1.61402l-0.40523,-0.20261c-0.11852,0.2294 -0.24991,0.449 -0.3963,0.65494c0.42189,0.62462 0.43412,2.01385 -0.03353,2.90274l0.53065,0.35376c0.34463,0.22257 0.57276,0.61005 0.57276,1.05082c0,0.67194 -0.53018,1.22004 -1.19503,1.24881l-2.48943,0.12447l-1.60625,-0.70355c0,0 -1.07886,-0.63131 -0.44755,-1.71017c0.63131,-1.07886 1.71017,-0.44755 1.71017,-0.44755l0.21879,0.3644l0.34685,-0.01734c0.1273,-0.37598 0.25617,-0.75133 0.41901,-1.11284c0.05058,-0.11229 0.38764,-0.26935 0.26506,-0.25739c-0.57057,0.05564 -1.11593,0.26319 -1.67389,0.39478l0.38782,-1.81035c-0.22048,0.04917 -0.44305,0.08579 -0.67635,0.11028l0.0538,0.26902l-1.33845,0.26769c-0.08709,0.01921 -0.17759,0.02934 -0.27046,0.02934c-0.64114,0 -1.16954,-0.4827 -1.24162,-1.10451l-0.87477,0.87477c-0.22621,0.22621 -0.53871,0.36612 -0.88388,0.36612c-0.1848,0 -0.36023,-0.0401 -0.51807,-0.11208c-0.29847,0.40106 -0.57384,0.77759 -0.8065,1.12039l-0.07041,0.03333l0.02566,0.02199l-0.81297,0.94846c-0.20035,0.2366 -0.48709,0.39771 -0.81153,0.43461c-0.00965,0.02121 -0.01934,0.04242 -0.02907,0.06362l0.14279,0.06426l-1.01425,2.25388c-0.18987,0.44839 -0.63398,0.76296 -1.15157,0.76296c-0.69036,0 -1.25,-0.55964 -1.25,-1.25c0,-0.14845 0.02588,-0.29086 0.07337,-0.42297l0.53628,-1.60883l0.03548,0.01183l-0.00109,-0.02311c-0.08752,-0.0486 -0.1686,-0.1074 -0.24162,-0.1748l-1.10814,-1.0158c-0.13902,1.02095 -0.80346,2.13968 -1.63461,2.28066c-0.559,0.09482 -1.63769,-0.87371 -2.44004,-1.66743z" fill="#802c2c"/><path d="M232.74421,193.96274l0.36688,-0.02755c-0.24882,-0.08656 -0.46187,-0.24955 -0.61103,-0.46085c-0.06651,0.20422 -0.13484,0.40714 -0.20506,0.60904c0.24023,-0.10456 0.44921,-0.12064 0.44921,-0.12064zM234.60956,193.82268c0.29884,0.09845 1.04244,0.18315 0.97343,-0.08737c-0.16868,0.08483 -0.3592,0.1326 -0.56089,0.1326c-0.24222,0 -0.46836,-0.0689 -0.65987,-0.18816c-0.07767,0.07056 -0.16427,0.13149 -0.25789,0.18087zM237.26914,196.21137c-0.75589,0.46033 -1.7685,0.0742 -2.65275,0.11131l-1.68043,0.1327c0,0 -0.95333,0.07333 -1.25657,-0.74206c-0.37713,0.92549 -0.79792,1.84404 -1.26704,2.78228c0,0 -0.55902,1.11803 -1.67705,0.55902c-1.11803,-0.55902 -0.55902,-1.67705 -0.55902,-1.67705c1.19074,-2.38149 2.04318,-4.59217 2.65082,-7.20554l0.38082,-1.63207c0.11943,-0.56586 0.62164,-0.99057 1.22304,-0.99057c0.58597,0 1.07777,0.4032 1.2131,0.9473l0.00072,0.00264c0.16823,-0.08426 0.35811,-0.13169 0.55907,-0.13169c0.499,0 0.92971,0.2924 1.13014,0.7152l0.18671,0.37343c0.14174,-0.50952 0.33775,-1.00649 0.55918,-1.47607l0.0087,-0.01134l-0.0025,-0.00125l1.0789,-2.1578c0.20043,-0.42281 0.63114,-0.7152 1.13014,-0.7152c0.3474,0 0.6617,0.14172 0.88824,0.37049c0.0791,-0.35396 0.21628,-0.7997 0.49467,-1.26375l0.79347,-0.97537c0,0 0.80023,-0.96028 1.76051,-0.16005c0.18267,0.15223 0.30164,0.31025 0.37453,0.46635l0.77636,-1.31981c0.21445,-0.37994 0.62193,-0.63646 1.08932,-0.63646c0.55153,0 1.01963,0.35719 1.18559,0.85286l0.52232,1.44651c0.04955,-0.00597 0.09999,-0.00905 0.15115,-0.00905c0.57015,0 1.05114,0.38171 1.20136,0.90353l0.15879,0.50699c0.9457,-0.59355 1.6051,0.25089 2.4439,2.22786c0.7845,1.84898 -0.32376,4.09882 0.26625,5.84196c0.44097,1.30281 1.61501,1.00097 1.28048,2.85372c-0.96213,5.32868 -4.50882,1.13859 -5.66755,-1.03189l-0.25007,-0.50014c-0.03357,0.02991 -0.06839,0.05919 -0.10448,0.08783c-0.72732,0.57702 -1.83506,-0.28345 -2.75259,-0.42518l-0.20907,-0.25246c-0.62121,2.26209 -2.34895,3.10807 -4.9797,1.47213c-0.08276,0.27601 -0.21012,0.51491 -0.44945,0.66067zM237.59386,192.51254l1.1354,0.71095c1.72988,1.47225 1.75936,0.74376 1.72527,-1.15109c0,0 0,-1.25 1.25,-1.25c0.1898,0 0.35078,0.02882 0.48732,0.07771c0.8379,-0.38726 1.454,0.40487 1.454,0.40487l0.4658,0.66556c-0.1295,-0.47246 -0.28425,-1.20934 -0.35983,-1.56225c0,0 -0.24515,-1.22573 0.98058,-1.47087c0.2589,-0.05178 0.47406,-0.03794 0.65239,0.01612c0.00813,-0.07768 0.01945,-0.15619 0.03421,-0.23578c-0.62359,-0.03359 -1.1257,-0.52422 -1.17731,-1.14286l-0.15893,-1.66875l-0.79867,1.14096c-0.22494,0.33047 -0.60416,0.5475 -1.03407,0.5475c-0.51843,0 -0.96314,-0.3156 -1.15249,-0.76516c-0.71154,1.33804 -1.51962,2.63214 -2.39079,1.48701l-0.37994,0.75988c-0.31805,0.67191 -0.70832,1.3061 -1.14393,1.91216l0.18419,0.10835l-0.72509,1.23265c0.49884,-0.1001 0.95188,0.18305 0.95188,0.18305zM247.59572,192.74077l0.26597,0.53195c-0.08821,-1.0359 0.15273,-2.12087 0.09593,-3.16828c-0.00165,-0.0305 -0.0041,-0.06204 -0.00724,-0.09451c-0.00579,0.00789 -0.01159,0.01566 -0.01741,0.02331l-0.25963,1.42797c-0.05299,0.32588 -0.23199,0.60948 -0.48537,0.79915c0.27183,0.20857 0.40775,0.4804 0.40775,0.4804z" fill="#800f0f"/><path d="M242.25003,194.36818c0.09676,0 0.19095,0.01099 0.2814,0.0318l-0.20539,-0.75442c-0.12602,0.26537 -0.25523,0.51795 -0.3929,0.76314c0.1012,-0.02644 0.2074,-0.04052 0.31689,-0.04052zM242.25003,196.86818c-0.46269,0 -0.86666,-0.25139 -1.08279,-0.62503l-0.58498,0.90173c-0.04714,0.07517 -0.10206,0.14497 -0.16363,0.20826c-0.14227,0.53559 -0.29164,1.07955 -0.44033,1.64081l-0.44704,0.90056c0,0 -0.59417,1.09975 -1.69393,0.50558c-1.09975,-0.59417 -0.50558,-1.69393 -0.50558,-1.69393l0.00405,-0.00621c-0.16366,0.07866 -0.34709,0.12273 -0.54081,0.12273c-0.61507,0 -1.12638,-0.44423 -1.23059,-1.02935c-0.21884,0.18837 -0.50365,0.30224 -0.81505,0.30224c-0.35786,0 -0.68061,-0.15038 -0.90847,-0.39141l-0.0499,0.21625c-0.09587,0.45952 -0.44406,0.82643 -0.89309,0.94924c-0.12295,0.31539 -0.39463,0.63656 -0.9836,0.71509c-1.23903,0.1652 -1.40424,-1.07383 -1.40424,-1.07383c-0.09271,-0.77631 -0.18542,-1.55261 -0.27813,-2.32892l0.15919,-0.24367l-0.10063,-0.03354l0.40001,-1.20004c0.15709,-0.51078 0.63267,-0.88206 1.19497,-0.88206c0.14132,0 0.27716,0.02345 0.40385,0.06668c0.27765,-1.13165 1.07008,-2.08428 2.33811,-1.66975c0.16381,0.05355 0.29816,0.1414 0.41061,0.25474c0.22907,-0.26031 0.56471,-0.42456 0.93872,-0.42456c0.44311,0 0.83236,0.23056 1.05435,0.57825c0.28718,-0.74528 0.58435,-1.58724 1.25494,-1.52439c0.18755,0.01758 0.35681,0.0732 0.51223,0.15767c-0.15386,-0.46159 -0.30773,-0.92318 -0.46159,-1.38478c0,0 -0.39528,-1.18585 0.79057,-1.58114c1.18585,-0.39528 1.58114,0.79057 1.58114,0.79057c0.04136,0.12407 0.08271,0.24814 0.12407,0.37221c0.22092,0.05037 0.40444,0.16072 0.52896,0.25421l0.29777,-0.43563c0,0 0.75,-1 1.75,-0.25c0.03283,0.02462 0.06376,0.04951 0.09291,0.07462c0.05155,0.03698 0.09833,0.07747 0.14071,0.11997c0.11416,0.09223 0.19827,0.19447 0.25928,0.30052c0.12376,-0.04103 0.25609,-0.06323 0.39361,-0.06323c0.45473,0 0.85274,0.24281 1.07147,0.60585l1.31353,2.10164l-0.40236,0.25147c0.439,0.79383 0.76328,1.63512 0.89578,2.51514c0.11261,0.03279 0.23133,0.08436 0.35585,0.15906c1.07187,0.64312 0.42875,1.71499 0.42875,1.71499c-0.52898,0.64444 -1.05797,1.28888 -1.58695,1.93332l-2.31005,-0.95907c0,0 -0.47129,-0.28278 -0.60135,-0.78582c-0.23785,-0.02912 -0.45505,-0.12504 -0.63227,-0.26844c-0.17287,0.09032 -0.36949,0.14139 -0.57803,0.14139z" fill="#80400f"/><path d="M236.09049,199.02758c0,-0.26301 0.08123,-0.50704 0.21996,-0.70839c-0.04942,-0.0143 -0.09758,-0.03157 -0.14428,-0.05161l-0.01692,0.022l-0.11324,-0.08711c-0.00228,-0.00131 -0.00456,-0.00263 -0.00684,-0.00396l-0.03076,0.25467c-0.56403,0.23094 -1.09956,0.69595 -1.66916,0.88111l-0.19895,0.44764c-0.18858,0.45128 -0.63418,0.7684 -1.15385,0.7684c-0.69036,0 -1.25,-0.55964 -1.25,-1.25c0,-0.10043 0.01184,-0.19809 0.03421,-0.29166l0.36955,-1.69992c-0.41833,-0.69459 0.15155,-1.39111 0.15155,-1.39111l1.22076,-1.49205c0.22912,-0.2845 0.58034,-0.46654 0.97407,-0.46654c0.5616,0 1.0367,0.37036 1.19438,0.88015c0.22317,-0.20764 0.52239,-0.33465 0.85126,-0.33465c0.09368,0 0.18496,0.01031 0.27275,0.02985c0.0878,-0.01954 0.17907,-0.02985 0.27275,-0.02985c0.14414,0 0.28257,0.0244 0.41141,0.06928l0.24761,-0.36016l0.2306,0.15854c0.11264,-0.35368 0.2811,-0.63262 0.61722,-0.68702c0.38083,-0.06164 0.71412,0.10158 1.02933,0.35031c0.25033,-0.26811 0.67173,-0.50976 1.31214,-0.26961c0.43745,0.16404 0.65008,0.43027 0.74485,0.69939c0.11757,0.09306 0.20616,0.2047 0.27281,0.31762c0.05936,-0.02842 0.12383,-0.05449 0.19379,-0.07782c0.04697,-0.01566 0.09269,-0.02883 0.13721,-0.0397c0.16879,-0.09778 0.38648,-0.16082 0.66721,-0.16082c0.6647,0 0.97594,0.35346 1.12168,0.68447c0.09204,-0.12592 0.22096,-0.24754 0.39784,-0.3581c1.06,-0.6625 1.7225,0.3975 1.7225,0.3975c0.22729,0.36367 0.45459,0.72734 0.68188,1.09101l0.19,0.93525c0,0 0,0.94546 -0.82227,1.19186c-0.05135,0.6432 -0.58958,1.14915 -1.24599,1.14915c-0.37384,0 -0.70935,-0.16411 -0.93842,-0.42422l-0.7579,-0.85263c-0.11086,0.0322 -0.22808,0.04947 -0.34933,0.04947c-0.18802,0 -0.36635,-0.04151 -0.52631,-0.11587c0.00227,0.03079 0.00343,0.06189 0.00343,0.09326c0,0.69036 -0.55964,1.25 -1.25,1.25c-0.59165,0 -1.0873,-0.41106 -1.21693,-0.96316c-0.04816,0.00563 -0.09715,0.00853 -0.14683,0.00853c-0.19147,0 -0.37288,-0.04305 -0.53509,-0.12c-0.06255,0.44551 -0.35995,0.81568 -0.763,0.9813c-0.18693,0.45489 -0.63439,0.77521 -1.15667,0.77521c-0.69036,0 -1.25,-0.55964 -1.25,-1.25zM241.62397,197.14735l-0.07989,0.00879c0.03206,0.01037 0.06356,0.022 0.09443,0.03484z" fill="#efdd1d"/></g><path d="M220.02074,199.98222v-40.77643h40.77643v40.77643h-6.2683c0.16002,-0.83916 0.24378,-1.70537 0.24378,-2.59114c0,-7.59392 -6.15608,-13.75 -13.75,-13.75c-7.59392,0 -13.75,6.15608 -13.75,13.75c0,0.88577 0.08375,1.75198 0.24378,2.59114z" fill="#565449" stroke="#000000" stroke-width="0"/><path d="M230.65973,200.40632c-1.24236,0.13804 -1.38039,-1.10432 -1.38039,-1.10432l-0.14402,-1.36542c0.01322,-3.13919 1.13939,-6.01418 0.4389,-9.13879c0,0 -0.27116,-1.22023 0.94907,-1.49139c1.22024,-0.27116 1.4914,0.94907 1.4914,0.94907c0.74693,3.38774 -0.39607,6.3226 -0.37936,9.68111l0.12873,1.08935c0,0 0.13804,1.24236 -1.10432,1.38039z" fill="#807d6d" stroke="none" stroke-width="0.5"/><path d="M234.74935,200.14121c-1.25,0 -1.25,-1.25 -1.25,-1.25v-0.81826c0,-4.19366 0.27275,-8.35763 0.27275,-12.54659c0,0 0,-1.25 1.25,-1.25c1.25,0 1.25,1.25 1.25,1.25c0,4.18945 -0.27275,8.35281 -0.27275,12.54659v0.81826c0,0 0,1.25 -1.25,1.25z" fill="#807d6d" stroke="none" stroke-width="0.5"/><path d="M239.65889,200.27759c-1.07874,0 -1.22653,-0.93094 -1.24678,-1.18604c-1.28886,-4.24114 -0.68164,-9.98524 -0.6851,-14.38344c0,0 0,-1.25 1.25,-1.25c1.25,0 1.25,1.25 1.25,1.25c-0.00343,4.08557 -0.73329,9.92569 0.61774,13.78782l0.06414,0.53166c0,0 0,1.25 -1.25,1.25z" fill="#807d6d" stroke="none" stroke-width="0.5"/><path d="M243.61379,200.27759c-1.25,0 -1.25,-1.25 -1.25,-1.25v-0.5455c0.00459,-4.67434 -0.40913,-9.36054 -0.40913,-14.04673c0,0 0,-1.25 1.25,-1.25c1.25,0 1.25,1.25 1.25,1.25c0,4.68734 0.40491,9.37075 0.40913,14.04673v0.5455c0,0 0,1.25 -1.25,1.25z" fill="#807d6d" stroke="none" stroke-width="0.5"/><path d="M247.45993,199.70781c-1.22573,-0.24515 -0.98058,-1.47087 -0.98058,-1.47087l0.11723,-0.32357c-0.34678,-3.84966 -0.29495,-7.73227 -0.68081,-11.58075c0,0 -0.12438,-1.2438 1.11942,-1.36818c1.2438,-0.12438 1.36818,1.11942 1.36818,1.11942c0.38469,3.85654 0.32891,7.74669 0.68295,11.60317l-0.15552,1.0402c0,0 -0.24515,1.22573 -1.47088,0.98058z" fill="#807d6d" stroke="none" stroke-width="0.5"/><path d="M251.65998,200.14121c-1.25,0 -1.25,-1.25 -1.25,-1.25c0,-3.13665 0,-6.40967 0,-9.54632c0,0 0,-1.25 1.25,-1.25c1.25,0 1.25,1.25 1.25,1.25c0,3.13665 0,6.27329 0,9.40994v0.13638c0,0 0,1.25 -1.25,1.25z" fill="#807d6d" stroke="none" stroke-width="0.5"/><path d="M227.11229,199.73208c-1.25,0 -1.25,-1.25 -1.25,-1.25l0.0062,-0.39713c0.52863,-5.20573 2.50531,-11.61496 7.3683,-14.35906c9.8751,-4.3503 26.87018,3.23495 22.2268,15.66495c-2.3188,2.49053 -4.61017,1.83632 -7.73441,1.56357c-6.37027,-0.55614 -13.28369,-0.55985 -19.66227,-0.54045c0,0 -1.25,0 -1.25,-1.25c0,-1.25 1.25,-1.25 1.25,-1.25c0.11106,0.0003 0.22218,0.00068 0.33336,0.00115c-0.01594,0.14122 -0.03065,0.28082 -0.0442,0.4186l0.0062,0.14837c0,0 0,1.25 -1.25,1.25zM228.40028,197.91511c5.89599,0.0248 11.9612,0.28662 17.8613,0.54564c1.69854,0.07457 5.93735,1.17683 7.04982,-0.34193c3.47592,-9.9725 -11.42961,-15.54075 -18.95877,-12.15576c-3.92702,2.13448 -5.4792,7.76023 -5.95235,11.95204z" fill="#807d6d" stroke="none" stroke-width="0.5"/></g></g></svg>