<svg version="1.1" xmlns="http://www.w3.org/2000/svg" xmlns:xlink="http://www.w3.org/1999/xlink" width="89.14421" height="109.0593" viewBox="0,0,89.14421,109.0593"><g transform="translate(-185.10652,-104.44107)"><g data-paper-data="{&quot;isPaintingLayer&quot;:true}" fill-rule="nonzero" stroke-linejoin="miter" stroke-miterlimit="10" stroke-dasharray="" stroke-dashoffset="0" style="mix-blend-mode: normal"><g><g><path d="M250.22302,147.18337c-7.02972,0.33701 -12.85646,-2.06104 -13.01443,-5.3562c-0.15797,-3.29517 5.41264,-6.23964 12.44234,-6.57666c7.02972,-0.33701 12.85646,2.06104 13.01445,5.35621c0.15797,3.29517 -5.41266,6.23963 -12.44234,6.57666z" fill="#8c6738" stroke="none" stroke-width="0" stroke-linecap="butt"/><path d="M273.11153,132.93225c-1.22262,8.11245 -9.36204,13.61154 -18.17989,12.28261c-8.81787,-1.32894 -14.97501,-8.98268 -13.75238,-17.09509c1.22262,-8.11244 9.36204,-13.61154 18.17989,-12.28261c8.81787,1.32895 14.97501,8.98268 13.75238,17.09509z" fill="#8c6738" stroke="none" stroke-width="0" stroke-linecap="butt"/><path d="M272.22814,132.66649c1.97532,4.19077 1.92098,9.06782 -0.12136,10.89322c-2.04233,1.82538 -5.29931,-0.09211 -7.27462,-4.28289c-1.97532,-4.19077 -1.92097,-9.06782 0.12136,-10.89322c2.04233,-1.82539 5.29933,0.09212 7.27463,4.28288z" fill="#8c6738" stroke="none" stroke-width="0" stroke-linecap="butt"/><path d="M265.39257,145.20143c-4.61782,-0.37411 -8.82005,-2.85004 -9.38586,-5.53015c-0.56581,-2.68012 2.71901,-4.54952 7.33683,-4.17542c4.61783,0.3741 8.82002,2.85003 9.38585,5.53016c0.5658,2.68012 -2.71899,4.54955 -7.33683,4.17542z" data-paper-data="{&quot;index&quot;:null}" fill="#8c6738" stroke="none" stroke-width="0" stroke-linecap="butt"/><path d="M264.26852,146.35782l0.39505,-2.29277l1.74688,0.23851l-0.37913,2.0228l-1.79197,0.22515" fill="#b39675" stroke="#b39675" stroke-width="0.5" stroke-linecap="round"/><path d="M273.99806,141.48589c-0.0597,0.39596 -0.33295,0.50252 -0.52442,0.52758c-2.42974,4.03027 -6.98633,2.21207 -10.92739,1.61814c0,0 -0.62344,-0.09397 -0.52948,-0.7174c0.09396,-0.62343 0.7174,-0.52947 0.7174,-0.52947c3.15734,0.47584 7.18076,2.17407 9.33399,-0.5521c-0.07463,-0.01123 -0.13566,-0.02046 -0.17578,-0.0265c0,0 -0.62344,-0.09397 -0.52949,-0.71739c0.09396,-0.62343 0.7174,-0.52947 0.7174,-0.52947c0.2314,0.03487 0.46276,0.06974 0.69414,0.1046l0.69415,0.1046c0,0 0.62343,0.09396 0.52947,0.7174z" fill="#864e00" stroke="none" stroke-width="0.5" stroke-linecap="butt"/><path d="M274.24106,141.44362c-0.09396,0.62343 -0.71739,0.52949 -0.71739,0.52949c-0.46276,-0.06974 -1.38828,-0.20924 -1.85103,-0.27897c0,0 -0.62344,-0.09397 -0.52948,-0.7174c0.09396,-0.62343 0.7174,-0.52948 0.7174,-0.52948c0.46276,0.06974 0.92552,0.13949 1.38828,0.20924l0.46276,0.06973c0,0 0.62344,0.09397 0.52948,0.7174z" fill="#871400" stroke="none" stroke-width="0.5" stroke-linecap="butt"/><path d="M267.27429,130.29416c0.21597,-0.21497 0.54774,-0.16498 0.54774,-0.16498l0.17333,0.04027c2.29473,1.17283 -0.20164,3.25536 -0.98602,0.79535c0,0 -0.10107,-0.45715 0.26493,-0.67067z" fill="#000000" stroke="none" stroke-width="0.5" stroke-linecap="butt"/><path d="M260.6615,122.82566c-0.59964,0.19478 -0.79442,-0.40488 -0.79442,-0.40488l-0.04168,-0.13624c-0.20995,-0.51019 -0.32921,-1.03532 -0.45141,-1.56426c-0.10735,0.22548 -0.21281,0.45711 -0.31699,0.69692l-0.21884,0.29063c0,0 -0.424,0.46662 -0.89062,0.04262c-0.46661,-0.424 -0.04261,-0.89061 -0.04261,-0.89061l-0.00429,0.0545c0.69732,-1.60234 1.46438,-2.88948 2.43948,-4.34817c0,0 0.35048,-0.52408 0.87456,-0.17361c0.52409,0.35047 0.17361,0.87456 0.17361,0.87456c-0.42282,0.63202 -0.80149,1.22343 -1.1512,1.82317c0.30338,0.89483 0.37502,1.8598 0.74867,2.7008l0.08057,0.24013c0,0 0.19477,0.59965 -0.40488,0.79442z" fill="#7c4800" stroke="none" stroke-width="0.5" stroke-linecap="butt"/><path d="M262.85005,116.13621c0.05334,0.08062 0.31846,0.52946 -0.14158,0.86903c-0.50728,0.3744 -0.88169,-0.13287 -0.88169,-0.13287l-0.17026,-0.35759c0.09732,-0.82352 -1.48688,-0.26716 -1.98172,-0.10447c0,0 -0.59964,0.19479 -0.79442,-0.40486c-0.19478,-0.59964 0.40487,-0.79441 0.40487,-0.79441c1.46161,-0.46984 3.05781,-0.6959 3.56479,0.92521z" fill="#8c6738" stroke="none" stroke-width="0.5" stroke-linecap="butt"/><path d="M262.64272,124.44625c-0.6039,-0.18117 -0.4227,-0.78506 -0.4227,-0.78506l0.07035,-0.21246c0.28403,-1.87848 0.42727,-3.69376 0.35593,-5.59606c0.55764,-5.75651 -6.18931,-0.79524 -6.68736,2.62838c0,0 -0.09396,0.62343 -0.71739,0.52948c-0.62343,-0.09396 -0.52949,-0.71739 -0.52949,-0.71739c0.77135,-4.97332 9.88954,-9.95809 9.19472,-2.40552c0.07776,1.95062 -0.08012,3.82291 -0.3695,5.74903l-0.10946,0.38688c0,0 -0.18118,0.6039 -0.78506,0.4227z" fill="#7c4800" stroke="none" stroke-width="0.5" stroke-linecap="butt"/><path d="M249.35484,133.06909c-3.62642,6.03154 -8.85816,9.54304 -11.68546,7.84315c-2.82728,-1.69988 -2.17946,-7.96743 1.44696,-13.99897c3.62641,-6.03153 8.85815,-9.54303 11.68544,-7.84314c2.82728,1.69988 2.17947,7.96743 -1.44694,13.99896z" fill="#8c6738" stroke="none" stroke-width="0" stroke-linecap="butt"/><path d="M257.4482,138.45406c-0.62343,-0.09396 -0.52948,-0.71739 -0.52948,-0.71739l0.02749,-0.18249c0.63461,-4.21075 2.03457,-5.27731 5.62511,-6.96073c0,0 0.57087,-0.26766 0.83851,0.30319c0.26764,0.57086 -0.30322,0.83849 -0.30322,0.83849c-3.25049,1.524 -4.33464,2.16597 -4.91352,6.00694l-0.0275,0.18248c0,0 -0.09396,0.62343 -0.71739,0.52948z" fill="#864e00" stroke="none" stroke-width="0.5" stroke-linecap="butt"/><path d="M250.08233,140.36013c-4.50469,7.4923 -11.55621,11.52193 -15.75,9.00045c-4.19381,-2.52149 -3.94177,-10.63926 0.56292,-18.13156c4.50469,-7.4923 11.55621,-11.52193 15.75,-9.00045c4.19381,2.52149 3.94177,10.63926 -0.56292,18.13156z" fill="#8c6738" stroke="none" stroke-width="0" stroke-linecap="butt"/></g><path d="M268.14142,122.38323c-1.21996,-1.93246 -1.62158,-4.40578 -2.58812,-6.47201c-0.65253,-2.58967 -2.44517,-6.89169 -1.54414,-9.49255c0.0029,-0.06556 0.00642,-0.13112 0.01054,-0.1967c0,0 0.03139,-0.47381 0.5052,-0.44242c0.47382,0.0314 0.44243,0.50521 0.44243,0.50521c-0.23983,3.40844 1.35911,6.86069 2.49441,9.9682c0.64203,1.36047 1.97591,4.60831 3.38451,5.21327l0.2445,0.0497c0,0 0.29433,0.07012 0.35713,0.33337c0.054,0.04204 0.10419,0.10299 0.14508,0.18969c0.20265,0.42944 -0.22676,0.63208 -0.22676,0.63208c-0.60011,0.27928 -1.23106,0.40496 -1.833,0.69l-0.28626,0.1351c0,0 -0.42946,0.20268 -0.63211,-0.22676c-0.05249,-0.11122 -0.06258,-0.20724 -0.0487,-0.28847c-0.12348,-0.1471 -0.26448,-0.34388 -0.42468,-0.59766z" fill="#8c8172" stroke="none" stroke-width="0.5" stroke-linecap="butt"/><path d="M256.91665,131.9956c-2.35325,-1.91557 -3.90556,-4.85816 -5.99651,-7.04935c-1.91735,-2.9828 -5.99427,-7.63797 -5.96123,-11.29244c-0.02408,-0.08372 -0.04743,-0.16773 -0.07001,-0.252c0,0 -0.16104,-0.60954 0.44852,-0.77062c0.60954,-0.16104 0.77062,0.44852 0.77062,0.44852c1.14089,4.39093 4.61435,8.05868 7.35842,11.48883c1.38382,1.44037 4.43723,4.96305 6.46596,5.12813l0.32873,-0.04097c0,0 0.4001,-0.03638 0.59057,0.26836c0.08575,0.03005 0.1747,0.08553 0.26288,0.1773c0.4368,0.45463 -0.01785,0.89146 -0.01785,0.89146c-0.63702,0.60546 -1.37783,1.03072 -2.01471,1.64423l-0.30311,0.29118c0,0 -0.45467,0.43681 -0.89145,-0.01785c-0.11314,-0.11775 -0.16646,-0.23432 -0.1834,-0.34241c-0.21769,-0.13285 -0.47839,-0.32079 -0.78744,-0.57237z" fill="#8c8172" stroke="none" stroke-width="0.5" stroke-linecap="butt"/><path d="M257.98238,126.59227c-1.56178,-2.60152 -2.02119,-5.89661 -3.24259,-8.66817c-0.78901,-3.457 -3.04033,-9.22097 -1.76675,-12.64653c0.00581,-0.08694 0.01243,-0.17385 0.01985,-0.26079c0,0 0.05579,-0.62799 0.68382,-0.57221c0.62801,0.05581 0.57223,0.6838 0.57223,0.6838c-0.41995,4.51725 1.59958,9.14745 3.01395,13.30621c0.81169,1.82504 2.48551,6.17604 4.33722,7.02102l0.32306,0.07324c0,0 0.38865,0.10183 0.46416,0.45315c0.07042,0.0574 0.13521,0.13979 0.18692,0.25612c0.2562,0.57607 -0.31987,0.83228 -0.31987,0.83228c-0.80491,0.3528 -1.64619,0.50086 -2.45371,0.86128l-0.38405,0.1708c0,0 -0.57607,0.2562 -0.83228,-0.31987c-0.06637,-0.14922 -0.07689,-0.27698 -0.05605,-0.38437c-0.15953,-0.19894 -0.34081,-0.46434 -0.54592,-0.806z" fill="#8c8172" stroke="none" stroke-width="0.5" stroke-linecap="butt"/><path d="M250.22302,147.18337c-7.02972,0.33701 -12.85646,-2.06104 -13.01443,-5.3562c-0.15797,-3.29517 5.41264,-6.23964 12.44234,-6.57666c7.02972,-0.33701 12.85646,2.06104 13.01445,5.35621c0.15797,3.29517 -5.41266,6.23963 -12.44234,6.57666z" fill="#8c6738" stroke="none" stroke-width="0" stroke-linecap="butt"/><path d="M273.11153,132.93225c-1.22262,8.11245 -9.36204,13.61154 -18.17989,12.28261c-8.81787,-1.32894 -14.97501,-8.98268 -13.75238,-17.09509c1.22262,-8.11244 9.36204,-13.61154 18.17989,-12.28261c8.81787,1.32895 14.97501,8.98268 13.75238,17.09509z" fill="#8c6738" stroke="none" stroke-width="0" stroke-linecap="butt"/><path d="M272.22814,132.66649c1.97532,4.19077 1.92098,9.06782 -0.12136,10.89322c-2.04233,1.82538 -5.29931,-0.09211 -7.27462,-4.28289c-1.97532,-4.19077 -1.92097,-9.06782 0.12136,-10.89322c2.04233,-1.82539 5.29933,0.09212 7.27463,4.28288z" fill="#8c6738" stroke="none" stroke-width="0" stroke-linecap="butt"/><path d="M265.39257,145.20143c-4.61782,-0.37411 -8.82005,-2.85004 -9.38586,-5.53015c-0.56581,-2.68012 2.71901,-4.54952 7.33683,-4.17542c4.61783,0.3741 8.82002,2.85003 9.38585,5.53016c0.5658,2.68012 -2.71899,4.54955 -7.33683,4.17542z" data-paper-data="{&quot;index&quot;:null}" fill="#8c6738" stroke="none" stroke-width="0" stroke-linecap="butt"/><path d="M264.26852,146.35782l0.39505,-2.29277l1.74688,0.23851l-0.37913,2.0228l-1.79197,0.22515" fill="#b39675" stroke="#b39675" stroke-width="0.5" stroke-linecap="round"/><path d="M273.99806,141.48589c-0.0597,0.39596 -0.33295,0.50252 -0.52442,0.52758c-2.42974,4.03027 -6.98633,2.21207 -10.92739,1.61814c0,0 -0.62344,-0.09397 -0.52948,-0.7174c0.09396,-0.62343 0.7174,-0.52947 0.7174,-0.52947c3.15734,0.47584 7.18076,2.17407 9.33399,-0.5521c-0.07463,-0.01123 -0.13566,-0.02046 -0.17578,-0.0265c0,0 -0.62344,-0.09397 -0.52949,-0.71739c0.09396,-0.62343 0.7174,-0.52947 0.7174,-0.52947c0.2314,0.03487 0.46276,0.06974 0.69414,0.1046l0.69415,0.1046c0,0 0.62343,0.09396 0.52947,0.7174z" fill="#864e00" stroke="none" stroke-width="0.5" stroke-linecap="butt"/><path d="M274.24106,141.44362c-0.09396,0.62343 -0.71739,0.52949 -0.71739,0.52949c-0.46276,-0.06974 -1.38828,-0.20924 -1.85103,-0.27897c0,0 -0.62344,-0.09397 -0.52948,-0.7174c0.09396,-0.62343 0.7174,-0.52948 0.7174,-0.52948c0.46276,0.06974 0.92552,0.13949 1.38828,0.20924l0.46276,0.06973c0,0 0.62344,0.09397 0.52948,0.7174z" fill="#871400" stroke="none" stroke-width="0.5" stroke-linecap="butt"/><path d="M267.27429,130.29416c0.21597,-0.21497 0.54774,-0.16498 0.54774,-0.16498l0.17333,0.04027c2.29473,1.17283 -0.20164,3.25536 -0.98602,0.79535c0,0 -0.10107,-0.45715 0.26493,-0.67067z" fill="#000000" stroke="none" stroke-width="0.5" stroke-linecap="butt"/><path d="M262.85005,116.13621c0.05334,0.08062 0.31846,0.52946 -0.14158,0.86903c-0.50728,0.3744 -0.88169,-0.13287 -0.88169,-0.13287l-0.17026,-0.35759c0.09732,-0.82352 -1.48688,-0.26716 -1.98172,-0.10447c0,0 -0.59964,0.19479 -0.79442,-0.40486c-0.19478,-0.59964 0.40487,-0.79441 0.40487,-0.79441c1.46161,-0.46984 3.05781,-0.6959 3.56479,0.92521z" fill="#8c6738" stroke="none" stroke-width="0.5" stroke-linecap="butt"/><path d="M249.35484,133.06909c-3.62642,6.03154 -8.85816,9.54304 -11.68546,7.84315c-2.82728,-1.69988 -2.17946,-7.96743 1.44696,-13.99897c3.62641,-6.03153 8.85815,-9.54303 11.68544,-7.84314c2.82728,1.69988 2.17947,7.96743 -1.44694,13.99896z" fill="#8c6738" stroke="none" stroke-width="0" stroke-linecap="butt"/><path d="M257.4482,138.45406c-0.62343,-0.09396 -0.52948,-0.71739 -0.52948,-0.71739l0.02749,-0.18249c0.63461,-4.21075 2.03457,-5.27731 5.62511,-6.96073c0,0 0.57087,-0.26766 0.83851,0.30319c0.26764,0.57086 -0.30322,0.83849 -0.30322,0.83849c-3.25049,1.524 -4.33464,2.16597 -4.91352,6.00694l-0.0275,0.18248c0,0 -0.09396,0.62343 -0.71739,0.52948z" fill="#864e00" stroke="none" stroke-width="0.5" stroke-linecap="butt"/><path d="M250.08233,140.36013c-4.50469,7.4923 -11.55621,11.52193 -15.75,9.00045c-4.19381,-2.52149 -3.94177,-10.63926 0.56292,-18.13156c4.50469,-7.4923 11.55621,-11.52193 15.75,-9.00045c4.19381,2.52149 3.94177,10.63926 -0.56292,18.13156z" fill="#8c6738" stroke="none" stroke-width="0" stroke-linecap="butt"/><g data-paper-data="{&quot;index&quot;:null}" stroke="none" stroke-width="0.5" stroke-linecap="butt"><path d="M258.12415,137.99021c-0.5005,0.3834 -0.88391,-0.11709 -0.88391,-0.11709l0.12335,-0.00107c-1.05617,-0.38598 -2.12894,-0.8086 -3.23386,-1.01766c-4.33827,-0.83639 -8.77532,-1.08679 -12.99303,-1.83428c0,0 -0.61906,-0.11934 -0.49971,-0.73844c0.11934,-0.61909 0.73842,-0.49974 0.73842,-0.49974c4.07338,0.87859 8.74095,1.0145 12.99304,1.83426c1.17242,0.22958 2.30601,0.66146 3.42797,1.07149l0.44485,0.41863c0,0 0.3834,0.5005 -0.11709,0.88391z" fill="#7a6a5e"/><path d="M242.96159,134.64495c-0.61911,0.1191 -0.73823,-0.50004 -0.73823,-0.50004c-0.04183,-0.21751 -0.18026,-0.93707 -0.22212,-1.15459c0,0 -0.03621,-0.18813 0.03502,-0.37691c-0.22324,-0.94137 -0.49499,-2.06194 -1.25573,-2.52621c0,0 -0.522,-0.35357 -0.16843,-0.87557c0.35358,-0.52202 0.87557,-0.16843 0.87557,-0.16843c1.23483,0.88766 1.5268,2.42267 1.91336,3.83685l0.07855,0.39852c0,0 0.0429,0.22303 -0.05664,0.42713l0.03865,0.20104c0,0 0.11911,0.61915 -0.50001,0.73825z" fill="#7a0c00"/><path d="M242.68978,134.95556c0.47978,0.40904 0.07072,0.88882 0.07072,0.88882l-0.22539,0.26386c-0.96542,1.05886 -1.81385,1.5175 -3.2167,1.78836c0,0 -0.61914,0.11909 -0.73823,-0.50004c-0.1191,-0.61911 0.50001,-0.73825 0.50001,-0.73825c1.14634,-0.21964 1.73435,-0.52707 2.52139,-1.39776l0.19934,-0.2343c0,0 0.40907,-0.47976 0.88885,-0.07071z" fill="#7a0c00"/><path d="M247.68043,135.09068c-0.61911,0.1191 -0.73823,-0.50004 -0.73823,-0.50004l-0.02897,-0.15064c-0.20437,-1.06235 -0.37864,-2.13395 -0.84101,-3.11824c0,0 -0.2657,-0.57178 0.30604,-0.83748c0.57174,-0.26569 0.83747,0.30606 0.83747,0.30606c0.50044,1.08666 0.7108,2.24231 0.93571,3.4115l0.02898,0.15061c0,0 0.11911,0.61915 -0.50001,0.73825z" fill="#7a0c00"/><path d="M247.5071,135.64263c0.47978,0.40904 0.07073,0.88883 0.07073,0.88883l-0.21238,0.24909c-0.81222,0.95262 -1.47075,1.86375 -2.31616,2.59779c-0.86493,-0.00734 -1.71419,0.00508 -2.52971,0.04164c0.06168,-0.03637 0.10755,-0.05275 0.10755,-0.05275c1.80875,-0.64134 2.58894,-2.00922 3.77878,-3.4048l0.21238,-0.24909c0,0 0.40903,-0.47976 0.88883,-0.07073z" fill="#7a0c00"/><path d="M252.14773,135.91053c-0.62254,-0.09965 -0.5229,-0.72221 -0.5229,-0.72221l0.08709,-0.46758c-0.04161,-1.20607 -0.3844,-2.28444 -0.76362,-3.41875c0,0 -0.13673,-0.40899 0.15424,-0.66356c0.35883,0.21489 0.75258,0.43571 1.17163,0.65797c0.35992,1.10968 0.65032,2.18907 0.69783,3.37719l-0.10206,0.71405c0,0 -0.09964,0.62257 -0.72219,0.52291z" fill="#7a0c00"/><path d="M252.02952,136.12525c0.52202,0.35358 0.16846,0.87562 0.16846,0.87562l-0.32432,0.47884c-0.5675,0.83579 -1.13128,1.48467 -1.76731,2.13046c-0.55522,-0.04347 -1.11838,-0.08221 -1.6846,-0.11508c0.94361,-0.89256 1.64702,-1.59612 2.40791,-2.72254l0.32431,-0.47885c0,0 0.35356,-0.52203 0.87558,-0.16844z" fill="#7a0c00"/><path d="M254.56454,136.48069c-0.55187,-0.30485 -0.24702,-0.85672 -0.24702,-0.85672l0.17418,-0.31246c0.35022,-0.74399 0.54522,-1.50897 0.6436,-2.28894c0.34777,0.28234 0.72887,0.56988 1.13349,0.85639c-0.13074,0.66606 -0.33342,1.32241 -0.63558,1.96822l-0.21195,0.38653c0,0 -0.30485,0.55188 -0.85672,0.24702z" fill="#7a0c00"/><path d="M255.23355,136.78215c0.5812,0.24433 0.33686,0.82555 0.33686,0.82555l-0.05783,0.13464c-0.16285,0.46325 -0.35312,0.88539 -0.55877,1.29237c-0.54506,0.10002 -1.08173,0.21072 -1.60221,0.33192c0.36337,-0.64747 0.704,-1.28176 0.97138,-2.04244l0.08504,-0.20518c0,0 0.24434,-0.58122 0.82554,-0.33688z" fill="#7a0c00"/><path d="M257.742,137.19984c-0.60704,-0.17035 -0.43667,-0.7774 -0.43667,-0.7774l0.06176,-0.22008c0.13562,-0.48306 0.25644,-0.91629 0.31943,-1.38339c0.37821,0.23534 0.76564,0.46504 1.15613,0.6852c-0.07049,0.34122 -0.16085,0.68003 -0.2615,1.03887l-0.06179,0.22012c0,0 -0.17034,0.60702 -0.7774,0.43667z" fill="#7a0c00"/><path d="M245.51794,134.67377c-0.61911,0.1191 -0.73823,-0.50004 -0.73823,-0.50004l-0.04594,-0.24862c-0.16145,-1.42851 -0.74046,-2.24998 -1.50116,-3.43194c0,0 -0.34053,-0.53062 0.19006,-0.87114c0.53062,-0.34051 0.87115,0.19007 0.87115,0.19007c0.8585,1.34194 1.50678,2.34511 1.6928,3.97047l0.03132,0.15297c0,0 0.11909,0.61914 -0.50004,0.73823z" fill="#7a6500"/><path d="M245.35076,135.32018c0.56675,0.2762 0.29058,0.84295 0.29058,0.84295l-0.15671,0.30717c-0.74393,1.0625 -2.16548,2.06887 -3.2611,2.79625c0,0 -0.5257,0.34806 -0.87377,-0.17762c-0.34808,-0.52571 0.17762,-0.87377 0.17762,-0.87377c0.94693,-0.62512 2.31312,-1.52127 2.91321,-2.45201l0.0672,-0.15239c0,0 0.2762,-0.56678 0.84295,-0.29058z" fill="#7a6500"/><path d="M250.18356,135.35705c-0.62503,-0.0828 -0.54224,-0.70781 -0.54224,-0.70781l0.01674,-0.11209c0.07581,-1.07739 -0.36248,-2.24445 -0.5019,-3.32767c0,0 -0.08028,-0.62538 0.5451,-0.70561c0.62536,-0.08025 0.7056,0.54512 0.7056,0.54512c0.15176,1.18617 0.56236,2.36943 0.51026,3.5574l-0.02573,0.20843c0,0 -0.0828,0.62503 -0.70781,0.54221z" fill="#7a6500"/><path d="M249.96307,136.1249c0.54757,0.31249 0.23509,0.86009 0.23509,0.86009l-0.21042,0.36467c-0.49269,1.04674 -1.10521,1.70848 -1.89595,2.5398c0,0 -0.43456,0.45677 -0.89135,0.02219c-0.45678,-0.43457 -0.02221,-0.89135 -0.02221,-0.89135c0.70543,-0.74131 1.23366,-1.27763 1.66798,-2.2063l0.25677,-0.45398c0,0 0.31251,-0.54757 0.86009,-0.23509z" fill="#7a6500"/><path d="M253.15903,136.58471c0.52202,0.35358 0.16844,0.87558 0.16844,0.87558l-0.10741,0.0739c-0.13415,0.64496 -0.24417,1.29163 -0.32698,1.94302c-0.45356,0.11323 -0.89253,0.2347 -1.31141,0.36431c0.09112,-0.86147 0.22755,-1.71383 0.40377,-2.56368l0.29803,-0.52467c0,0 0.35356,-0.52203 0.87558,-0.16844z" fill="#7a6500"/><path d="M253.90332,135.96055c-0.63023,-0.01803 -0.61217,-0.64826 -0.61217,-0.64826l0.02456,-0.33397c-0.12952,-0.67322 -0.25575,-1.33384 -0.33373,-2.01527c0,0 -0.07128,-0.62645 0.55517,-0.6977c0.62645,-0.07125 0.6977,0.55517 0.6977,0.55517c0.0734,0.6494 0.19567,1.27802 0.31911,1.91963l-0.00238,0.60825c0,0 -0.01805,0.63022 -0.64827,0.61218z" fill="#7a6500"/><path d="M256.85647,137.23448c0.59216,0.2164 0.37574,0.80861 0.37574,0.80861l-0.08241,0.21485c-0.03768,0.15237 -0.07363,0.30199 -0.1096,0.44953c-0.44881,0.05906 -0.89851,0.12523 -1.34501,0.19848c0.08155,-0.30875 0.1496,-0.62327 0.23051,-0.95063l0.1222,-0.34507c0,0 0.21641,-0.59219 0.80858,-0.37578z" fill="#7a6500"/><path d="M256.28878,136.78543c-0.62503,-0.0828 -0.54221,-0.70781 -0.54221,-0.70781l0.05543,-0.38902c0.1051,-0.42271 0.19107,-0.85114 0.24759,-1.28303c0,0 0.04247,-0.3207 0.29628,-0.47223c0.30625,0.2152 0.62544,0.4296 0.95337,0.64059c-0.06397,0.47684 -0.15827,0.9501 -0.27314,1.4173l-0.0295,0.25199c0,0 -0.0828,0.62503 -0.70781,0.54224z" fill="#7a6500"/><path d="M242.10353,134.18212c-0.60419,0.18013 -0.78432,-0.42406 -0.78432,-0.42406l-0.13716,-0.46284c-0.20761,-0.58897 -0.41048,-1.1797 -0.60361,-1.77357c0,0 -0.19497,-0.59956 0.40459,-0.79455c0.59958,-0.19495 0.7946,0.40458 0.7946,0.40458c0.18988,0.58408 0.38944,1.16503 0.59367,1.74425l0.15635,0.52183c0,0 0.18011,0.60419 -0.4241,0.7843z" fill="#246800"/><path d="M241.70105,135.59283c0.17464,0.60582 -0.43113,0.78048 -0.43113,0.78048l-0.59812,0.16974c-0.25099,0.04828 -0.50198,0.09657 -0.75297,0.14484c0,0 -0.61915,0.11912 -0.73825,-0.50001c-0.1191,-0.61911 0.50004,-0.73823 0.50004,-0.73823c0.25099,-0.04828 0.502,-0.09659 0.75299,-0.14487l0.48696,-0.14309c0,0 0.60583,-0.17466 0.78048,0.43113z" fill="#246800"/><path d="M244.37389,135.75268c0.45678,0.43457 0.02221,0.89136 0.02221,0.89136l-0.35888,0.37053c-0.58639,0.48062 -1.171,0.82536 -1.85749,1.14537c0,0 -0.57176,0.26572 -0.83748,-0.30604c-0.26569,-0.57174 0.30607,-0.83747 0.30607,-0.83747c0.59167,-0.27405 1.0845,-0.55798 1.58686,-0.97484l0.24737,-0.26669c0,0 0.43457,-0.45678 0.89136,-0.02221z" fill="#246800"/><path d="M244.16636,134.41318c-0.61911,0.1191 -0.73825,-0.50001 -0.73825,-0.50001l-0.00365,-0.05786c-0.24612,-0.6899 -0.4722,-1.34202 -0.61241,-2.06209c0,0 -0.11909,-0.61914 0.50004,-0.73823c0.61911,-0.1191 0.73823,0.50004 0.73823,0.50004c0.1247,0.65731 0.33717,1.2471 0.56176,1.87659l0.05429,0.24337c0,0 0.11909,0.61914 -0.50004,0.73823z" fill="#246800"/><path d="M246.63972,134.82235c-0.61911,0.1191 -0.73825,-0.50001 -0.73825,-0.50001l-0.03959,-0.23935c-0.0363,-0.75392 -0.08002,-1.50728 -0.12338,-2.26083c0,0 -0.03623,-0.62945 0.59321,-0.66568c0.62945,-0.03623 0.66568,0.59321 0.66568,0.59321c0.0436,0.75749 0.08749,1.51473 0.12402,2.27258l0.01834,0.06184c0,0 0.11908,0.61915 -0.50004,0.73824z" fill="#246800"/><path d="M248.27821,135.89372c0.60704,0.17035 0.43668,0.77737 0.43668,0.77737l-0.14681,0.40333c-0.58964,0.87005 -1.26486,1.67304 -1.85339,2.54295c0,0 -0.35358,0.52202 -0.8756,0.16843c-0.52202,-0.35358 -0.16844,-0.87558 -0.16844,-0.87558c0.58959,-0.86945 1.26426,-1.67262 1.85339,-2.54294l-0.02326,-0.03688c0,0 0.17034,-0.60702 0.7774,-0.43667z" fill="#246800"/><path d="M248.95281,135.21029c-0.61911,0.1191 -0.73821,-0.50002 -0.73821,-0.50002l-0.06526,-0.34903c-0.08034,-0.7104 -0.11064,-1.38616 -0.24768,-2.08952c0,0 -0.11909,-0.61914 0.50004,-0.73823c0.61911,-0.1191 0.73823,0.50004 0.73823,0.50004c0.14023,0.73741 0.17732,1.4426 0.26231,2.1852l0.05064,0.25334c0,0 0.11909,0.61914 -0.50004,0.73823z" fill="#246800"/><path d="M250.8054,136.25662c0.52202,0.35358 0.16843,0.8756 0.16843,0.8756l-0.24048,0.34946c-0.29556,0.3543 -0.58353,0.7152 -0.86194,1.08316c0,0 -0.38051,0.50269 -0.88321,0.12217c-0.5027,-0.38052 -0.1222,-0.8832 -0.1222,-0.8832c0.29049,-0.38361 0.59077,-0.75998 0.89884,-1.12962l0.16495,-0.24909c0,0 0.35354,-0.522 0.87557,-0.16842z" fill="#246800"/><path d="M251.57677,135.59048c-0.61911,0.1191 -0.73823,-0.50004 -0.73823,-0.50004l-0.02664,-0.14825c-0.07591,-0.68561 -0.2486,-1.25508 -0.46783,-1.91022c0,0 -0.19989,-0.59795 0.39806,-0.79784c0.59795,-0.19988 0.79784,0.39806 0.79784,0.39806c0.24567,0.73571 0.43512,1.3968 0.52485,2.16749l0.012,0.05256c0,0 0.11909,0.61914 -0.50004,0.73823z" fill="#246800"/><path d="M254.58203,136.67538c0.52202,0.35358 0.16844,0.87558 0.16844,0.87558l-0.16384,0.23507c-0.45186,0.52625 -0.65396,0.89762 -0.86684,1.49725c-0.43974,0.09689 -0.86948,0.20108 -1.28476,0.31248c-0.07771,-0.21888 -0.00343,-0.44132 -0.00343,-0.44132c0.3036,-0.89762 0.5881,-1.46982 1.19548,-2.18652l0.0794,-0.12408c0,0 0.35356,-0.52203 0.87558,-0.16844z" fill="#246800"/><path d="M256.14407,136.94752c0.52202,0.35358 0.16844,0.87558 0.16844,0.87558l-0.09448,0.10893c-0.15092,0.3973 -0.32871,0.66639 -0.41521,0.95646c-0.43111,0.06955 -0.85954,0.14569 -1.28157,0.22829c0.03552,-0.55831 0.25296,-0.92829 0.51735,-1.63083l0.22988,-0.36995c0,0 0.35358,-0.52202 0.87558,-0.16844z" fill="#246800"/><path d="M257.49374,137.48274c-0.62151,-0.10587 -0.51565,-0.72742 -0.51565,-0.72742l0.06541,-0.28846c-0.01483,-0.25743 -0.02964,-0.51486 -0.04445,-0.77229c0,0 -0.03624,-0.62945 0.59321,-0.66568c0.62945,-0.03623 0.66571,0.5932 0.66571,0.5932c0.01483,0.25743 0.02962,0.51486 0.04445,0.77231l-0.08125,0.57269c0,0 -0.10587,0.62151 -0.7274,0.51566z" fill="#246800"/><path d="M252.30577,136.62833c0.57304,0.26294 0.31008,0.83598 0.31008,0.83598l-0.19857,0.4305c-0.31279,0.59262 -0.56115,1.19399 -0.80749,1.81686c0,0 -0.02664,0.0674 -0.08474,0.14744c-0.23327,0.07288 -0.46017,0.14831 -0.67976,0.22624c-0.01758,-0.00568 -0.03545,-0.01211 -0.05369,-0.0193c-0.58627,-0.23191 -0.35438,-0.8182 -0.35438,-0.8182c0.26308,-0.66494 0.53152,-1.30725 0.8643,-1.94055l0.16825,-0.36885c0,0 0.26294,-0.57304 0.83598,-0.31008z" fill="#693d00"/><path d="M257.56467,137.24793c0.62503,0.0828 0.54221,0.70781 0.54221,0.70781l-0.03921,0.24782c-0.03682,0.12951 -0.07001,0.2602 -0.09964,0.39176c-0.43625,0.0481 -0.87605,0.1031 -1.31565,0.16496c0.05223,-0.30232 0.11934,-0.60221 0.20124,-0.8974l0.00325,-0.0727c0,0 0.0828,-0.62503 0.70783,-0.54224z" fill="#693d00"/></g><g data-paper-data="{&quot;index&quot;:null}" stroke="none" stroke-width="0.5" stroke-linecap="butt"><path d="M260.44654,131.56994c-0.625,0.08289 -0.70789,-0.54208 -0.70789,-0.54208l0.10746,0.06055c-0.72322,-0.8611 -1.44249,-1.76221 -2.29614,-2.49424c-3.34391,-2.88762 -7.06562,-5.31645 -10.34932,-8.06692c0,0 -0.47717,-0.41205 -0.06512,-0.88926c0.41205,-0.47717 0.88926,-0.06512 0.88926,-0.06512c3.09323,2.79217 7.0718,5.23666 10.34932,8.06691c0.90194,0.78346 1.66934,1.72292 2.43759,2.63764l0.17696,0.58463c0,0 0.08289,0.62501 -0.54212,0.7079z" fill="#7a6a5e"/><path d="M248.96962,121.11169c-0.59609,-0.20536 -0.39071,-0.80145 -0.39071,-0.80145c0.07215,-0.20943 0.31084,-0.90222 0.38299,-1.11165c0,0 0.0624,-0.18112 0.21826,-0.30928c0.27575,-0.92735 0.59874,-2.03424 0.17069,-2.81596c0,0 -0.27629,-0.5667 0.29043,-0.84299c0.56672,-0.27628 0.84299,0.29043 0.84299,0.29043c0.62799,1.38509 0.11593,2.86131 -0.25389,4.27996l-0.13057,0.38465c0,0 -0.07398,0.21473 -0.26203,0.34204l-0.06667,0.19356c0,0 -0.20538,0.59609 -0.80147,0.39071z" fill="#7a0c00"/><path d="M248.57917,121.24544c0.21202,0.59377 -0.38177,0.80578 -0.38177,0.80578l-0.32691,0.11639c-1.36474,0.43671 -2.32886,0.41138 -3.68002,-0.05312c0,0 -0.59611,-0.20539 -0.39073,-0.80148c0.20537,-0.5961 0.80146,-0.39071 0.80146,-0.39071c1.10325,0.381 1.76623,0.40761 2.88255,0.04513l0.28962,-0.10375c0,0 0.59378,-0.21199 0.80578,0.38174z" fill="#7a0c00"/><path d="M252.83822,123.85033c-0.59609,-0.20536 -0.39071,-0.80146 -0.39071,-0.80146l0.04996,-0.145c0.35241,-1.02282 0.7355,-2.0387 0.82532,-3.12247c0,0 0.05466,-0.62811 0.68276,-0.57342c0.62811,0.05466 0.57345,0.68278 0.57345,0.68278c-0.10787,1.19148 -0.50157,2.29818 -0.88937,3.42387l-0.04995,0.14499c0,0 -0.20538,0.59611 -0.80147,0.39074z" fill="#7a0c00"/><path d="M252.41283,124.24241c0.21202,0.59377 -0.38175,0.80576 -0.38175,0.80576l-0.30827,0.11006c-1.17899,0.42095 -2.20407,0.88257 -3.30285,1.09746c-0.74616,-0.43752 -1.48854,-0.8501 -2.21376,-1.22488c0.07159,-0.00077 0.11953,0.00789 0.11953,0.00789c1.8877,0.34565 3.2459,-0.45128 4.97306,-1.068l0.30826,-0.11005c0,0 0.59377,-0.21198 0.80578,0.38177z" fill="#7a0c00"/><path d="M256.30226,126.78792c-0.49003,-0.39671 -0.0933,-0.88672 -0.0933,-0.88672l0.30857,-0.36195c0.56515,-1.06626 0.80553,-2.17199 1.04219,-3.34435c0,0 0.08536,-0.42275 0.4645,-0.49835c0.20394,0.36518 0.43521,0.75285 0.68772,1.15442c-0.24113,1.14141 -0.52746,2.22189 -1.07854,3.27555l-0.44441,0.56814c0,0 -0.39671,0.49003 -0.88673,0.09332z" fill="#7a0c00"/><path d="M256.09273,126.91513c0.27628,0.56672 -0.29046,0.84302 -0.29046,0.84302l-0.51988,0.25342c-0.9086,0.44164 -1.72078,0.72313 -2.59407,0.96593c-0.45966,-0.31444 -0.92854,-0.62878 -1.40302,-0.93951c1.26295,-0.30338 2.22345,-0.56265 3.44453,-1.15986l0.51987,-0.25345c0,0 0.56673,-0.2763 0.843,0.29044z" fill="#7a0c00"/><path d="M258.11318,128.48695c-0.32648,-0.53938 0.21292,-0.86583 0.21292,-0.86583l0.30671,-0.18403c0.67446,-0.4704 1.22486,-1.03634 1.69893,-1.66347c0.16076,0.41812 0.34778,0.85735 0.55574,1.30745c-0.44537,0.51224 -0.94821,0.98019 -1.53208,1.38942l-0.3764,0.22942c0,0 -0.53936,0.32645 -0.86583,-0.21292z" fill="#7a0c00"/><path d="M258.54285,129.08177c0.38203,0.50154 -0.11948,0.88359 -0.11948,0.88359l-0.11724,0.08792c-0.37208,0.32042 -0.74746,0.59152 -1.12861,0.84181c-0.52239,-0.18499 -1.0428,-0.35654 -1.55442,-0.51093c0.63774,-0.38016 1.24924,-0.76026 1.86021,-1.28639l0.176,-0.13547c0,0 0.50155,-0.38205 0.88359,0.11948z" fill="#7a0c00"/><path d="M260.50925,130.69427c-0.44131,-0.45028 0.00897,-0.89159 0.00897,-0.89159l0.16327,-0.16003c0.35838,-0.35116 0.67906,-0.66647 0.96651,-1.04003c0.21055,0.39255 0.4319,0.7848 0.66068,1.17032c-0.2312,0.26067 -0.47842,0.50935 -0.74455,0.77026l-0.16331,0.16003c0,0 -0.45024,0.44129 -0.89157,-0.00896z" fill="#7a0c00"/><path d="M251.1714,122.41094c-0.59609,-0.20536 -0.39074,-0.80147 -0.39074,-0.80147l0.08412,-0.23845c0.57212,-1.31889 0.47965,-2.31961 0.40941,-3.72346c0,0 -0.03074,-0.62973 0.599,-0.66042c0.62975,-0.03069 0.66044,0.59901 0.66044,0.59901c0.07533,1.59127 0.13726,2.78409 -0.5117,4.28583l-0.0491,0.14822c0,0 -0.20539,0.59611 -0.80146,0.39073z" fill="#7a6500"/><path d="M250.70423,122.88801c0.35365,0.52197 -0.16829,0.8756 -0.16829,0.8756l-0.28898,0.18815c-1.17455,0.55026 -2.90853,0.71406 -4.22093,0.79846c0,0 -0.62922,0.03969 -0.66891,-0.58953c-0.03969,-0.62923 0.58955,-0.66893 0.58955,-0.66893c1.1325,-0.06988 2.76356,-0.16574 3.74771,-0.67347l0.13422,-0.09859c0,0 0.52194,-0.35368 0.8756,0.1683z" fill="#7a6500"/><path d="M254.87541,125.329c-0.50053,-0.38334 -0.11721,-0.88388 -0.11721,-0.88388l0.07039,-0.08881c0.60279,-0.89622 0.80457,-2.12642 1.22368,-3.13495c0,0 0.24216,-0.58214 0.82426,-0.33999c0.58211,0.24217 0.33997,0.82429 0.33997,0.82429c-0.45973,1.10395 -0.69362,2.33438 -1.33096,3.3383l-0.1262,0.16786c0,0 -0.38336,0.50055 -0.88391,0.1172z" fill="#7a6500"/><path d="M254.3015,125.88475c0.31893,0.54384 -0.22492,0.8628 -0.22492,0.8628l-0.36421,0.21123c-0.94888,0.66184 -1.80975,0.93018 -2.90962,1.25665c0,0 -0.60443,0.17934 -0.78379,-0.4251c-0.17936,-0.60444 0.42508,-0.7838 0.42508,-0.7838c0.98105,-0.29101 1.70633,-0.49261 2.54577,-1.08119l0.44891,-0.26557c0,0 0.54384,-0.31893 0.86279,0.22495z" fill="#7a6500"/><path d="M256.84288,127.8765c0.27628,0.56672 -0.29042,0.84301 -0.29042,0.84301l-0.12994,0.01051c-0.4378,0.49224 -0.85554,0.99799 -1.25204,1.52139c-0.44962,-0.12793 -0.89072,-0.24143 -1.31845,-0.3379c0.50842,-0.70138 1.05159,-1.37227 1.62796,-2.0212l0.5199,-0.30628c0,0 0.56671,-0.27631 0.84299,0.29043z" fill="#7a6500"/><path d="M257.79922,127.70642c-0.53736,-0.32979 -0.20754,-0.86712 -0.20754,-0.86712l0.18778,-0.27727c0.22332,-0.64819 0.44316,-1.28377 0.71526,-1.9134c0,0 0.25049,-0.57861 0.82908,-0.3281c0.57858,0.25049 0.32808,0.82907 0.32808,0.82907c-0.26008,0.59957 -0.46744,1.20546 -0.68026,1.82318l-0.30526,0.52612c0,0 -0.32982,0.53734 -0.86713,0.20754z" fill="#7a6500"/><path d="M259.7243,130.28288c0.40548,0.48279 -0.07735,0.8883 -0.07735,0.8883l-0.17853,0.14516c-0.10865,0.11331 -0.21438,0.22508 -0.31912,0.33508c-0.4185,-0.17252 -0.84136,-0.33934 -1.26493,-0.49842c0.22459,-0.22701 0.44037,-0.46574 0.6737,-0.70921l0.27795,-0.23824c0,0 0.48279,-0.40549 0.88828,0.07731z" fill="#7a6500"/><path d="M259.45601,129.61061c-0.50053,-0.38334 -0.11722,-0.88392 -0.11722,-0.88392l0.24197,-0.30961c0.30184,-0.31404 0.58992,-0.6426 0.85422,-0.98884c0,0 0.19668,-0.25685 0.49224,-0.26168c0.15824,0.3392 0.32804,0.68418 0.50717,1.03058c-0.29315,0.38153 -0.61081,0.74472 -0.94331,1.09247l-0.15117,0.20376c0,0 -0.38336,0.50055 -0.8839,0.11724z" fill="#7a6500"/><path d="M248.45649,120.28272c-0.61359,-0.14503 -0.46852,-0.75858 -0.46852,-0.75858l0.1118,-0.46962c0.11361,-0.61407 0.23223,-1.22729 0.3608,-1.8384c0,0 0.12983,-0.61696 0.74681,-0.4871c0.61698,0.12986 0.48713,0.74682 0.48713,0.74682c-0.12655,0.60098 -0.24312,1.20409 -0.35481,1.80804l-0.12458,0.53032c0,0 -0.14502,0.61357 -0.75861,0.46852z" fill="#246800"/><path d="M247.40439,121.30504c-0.15056,0.61224 -0.76281,0.46169 -0.76281,0.46169l-0.60313,-0.15099c-0.24165,-0.08326 -0.48331,-0.16653 -0.72497,-0.24978c0,0 -0.59609,-0.20536 -0.39071,-0.80145c0.20537,-0.5961 0.80147,-0.39074 0.80147,-0.39074c0.24165,0.08326 0.48331,0.16653 0.72497,0.24978l0.49348,0.11868c0,0 0.61224,0.15056 0.46169,0.76281z" fill="#246800"/><path d="M249.64176,122.77597c0.17936,0.60444 -0.42507,0.78377 -0.42507,0.78377l-0.49581,0.14233c-0.74793,0.12436 -1.42656,0.13179 -2.1812,0.06697c0,0 -0.62811,-0.05466 -0.57342,-0.68276c0.05466,-0.62811 0.68279,-0.57341 0.68279,-0.57341c0.64954,0.05737 1.21827,0.05688 1.8616,-0.05408l0.34736,-0.10787c0,0 0.60443,-0.17936 0.78379,0.42509z" fill="#246800"/><path d="M250.12961,121.51132c-0.59609,-0.20536 -0.39074,-0.80147 -0.39074,-0.80147l0.02566,-0.05198c0.13052,-0.72076 0.25964,-1.3988 0.49704,-2.0929c0,0 0.20538,-0.59611 0.80146,-0.39073c0.59609,0.20536 0.39074,0.80147 0.39074,0.80147c-0.21955,0.632 -0.32938,1.24917 -0.44845,1.90685l-0.07426,0.23803c0,0 -0.20539,0.59611 -0.80146,0.39073z" fill="#246800"/><path d="M252.06979,123.09893c-0.59609,-0.20536 -0.39074,-0.80147 -0.39074,-0.80147l0.085,-0.22722c0.34433,-0.67171 0.68197,-1.34655 1.02001,-2.02143c0,0 0.28234,-0.56372 0.84607,-0.28137c0.56372,0.28234 0.28137,0.84609 0.28137,0.84609c-0.3398,0.67837 -0.67924,1.35671 -1.02534,2.03191l-0.01493,0.06276c0,0 -0.20537,0.5961 -0.80145,0.39071z" fill="#246800"/><path d="M252.95614,124.84448c0.44131,0.45028 -0.00898,0.89159 -0.00898,0.89159l-0.3283,0.27647c-0.94486,0.46031 -1.93051,0.81985 -2.87433,1.28061c0,0 -0.56672,0.27628 -0.843,-0.29045c-0.27628,-0.56672 0.29044,-0.843 0.29044,-0.843c0.94451,-0.45986 1.92977,-0.8198 2.87433,-1.28061l-0.00177,-0.04356c0,0 0.45028,-0.4413 0.89159,0.00898z" fill="#246800"/><path d="M253.88162,124.58828c-0.59609,-0.20536 -0.39071,-0.80145 -0.39071,-0.80145l0.11741,-0.33511c0.28446,-0.65589 0.59507,-1.25682 0.82686,-1.93487c0,0 0.20538,-0.59609 0.80146,-0.39071c0.59609,0.20536 0.39071,0.80146 0.39071,0.80146c-0.24599,0.70917 -0.56543,1.33897 -0.86186,2.02508l-0.08239,0.24486c0,0 -0.20539,0.59611 -0.80147,0.39072z" fill="#246800"/><path d="M254.96607,126.41883c0.27628,0.56672 -0.29042,0.84301 -0.29042,0.84301l-0.38268,0.18307c-0.43285,0.15982 -0.86237,0.32914 -1.28715,0.50935c0,0 -0.58045,0.2461 -0.82657,-0.33436c-0.24612,-0.58046 0.33436,-0.82657 0.33436,-0.82657c0.44307,-0.18775 0.89097,-0.36436 1.34229,-0.53122l0.26717,-0.13371c0,0 0.56671,-0.27631 0.84299,0.29043z" fill="#246800"/><path d="M255.96681,126.22588c-0.59609,-0.20536 -0.39073,-0.80148 -0.39073,-0.80148l0.0508,-0.14181c0.27596,-0.63218 0.41013,-1.21194 0.54665,-1.88918c0,0 0.12476,-0.618 0.74279,-0.49323c0.618,0.12476 0.49322,0.7428 0.49322,0.7428c-0.15376,0.76025 -0.31906,1.4278 -0.62546,2.14062l-0.01579,0.05157c0,0 -0.20538,0.59609 -0.80145,0.39071z" fill="#246800"/><path d="M258.03129,128.66441c0.27628,0.56672 -0.29044,0.843 -0.29044,0.843l-0.2592,0.1221c-0.65405,0.23099 -1.01435,0.45215 -1.49782,0.86586c-0.42952,-0.13521 -0.854,-0.25909 -1.26951,-0.36953c0.04173,-0.22847 0.21703,-0.3843 0.21703,-0.3843c0.71063,-0.62682 1.24249,-0.98103 2.12631,-1.29958l0.13068,-0.06797c0,0 0.56671,-0.27631 0.84299,0.29043z" fill="#246800"/><path d="M259.24975,129.679c0.27628,0.56672 -0.29045,0.843 -0.29045,0.843l-0.13618,0.04731c-0.32889,0.26917 -0.61715,0.41386 -0.83675,0.62218c-0.4084,-0.15463 -0.81774,-0.30218 -1.22476,-0.44094c0.30909,-0.46629 0.68202,-0.67866 1.26145,-1.15588l0.38368,-0.20612c0,0 0.56672,-0.27627 0.843,0.29045z" fill="#246800"/><path d="M260.15297,130.81575c-0.48603,-0.4016 -0.08444,-0.88763 -0.08444,-0.88763l0.20052,-0.21746c0.11547,-0.23058 0.23095,-0.46111 0.34644,-0.69168c0,0 0.28236,-0.56373 0.84607,-0.28136c0.56372,0.28234 0.28139,0.84609 0.28139,0.84609c-0.11547,0.23058 -0.23095,0.46111 -0.34644,0.69168l-0.35593,0.45596c0,0 -0.4016,0.48603 -0.88762,0.08443z" fill="#246800"/><path d="M256.08144,127.48899c0.36569,0.5136 -0.14789,0.8793 -0.14789,0.8793l-0.38674,0.27419c-0.56658,0.35781 -1.08165,0.75535 -1.60569,1.17252c0,0 -0.05669,0.04513 -0.14695,0.08559c-0.23856,-0.05308 -0.47285,-0.10083 -0.70205,-0.14274c-0.01237,-0.01368 -0.0247,-0.02818 -0.0369,-0.04352c-0.39264,-0.49329 0.10064,-0.88593 0.10064,-0.88593c0.55951,-0.44532 1.11244,-0.86828 1.71659,-1.25141l0.32971,-0.23589c0,0 0.51359,-0.3657 0.87928,0.14788z" fill="#693d00"/><path d="M260.33154,130.64757c0.50053,0.38334 0.11721,0.88388 0.11721,0.88388l-0.15753,0.19528c-0.09649,0.09392 -0.19041,0.19063 -0.28168,0.28994c-0.40214,-0.17576 -0.81087,-0.34731 -1.22276,-0.51282c0.19598,-0.23606 0.40365,-0.46258 0.6218,-0.67765l0.03905,-0.06142c0,0 0.38336,-0.50055 0.88391,-0.11721z" fill="#693d00"/></g><g stroke="none" stroke-width="0.5" stroke-linecap="butt"><path d="M265.74328,123.6132c-0.62787,-0.05724 -0.57062,-0.68514 -0.57062,-0.68514l0.09141,0.0828c-0.51508,-0.9996 -1.0175,-2.03736 -1.68828,-2.93992c-2.62326,-3.55506 -5.71633,-6.74621 -8.3112,-10.15421c0,0 -0.37434,-0.50729 0.13299,-0.88167c0.5073,-0.37435 0.88165,0.13294 0.88165,0.13294c2.39986,3.40659 5.74003,6.66974 8.31119,10.15422c0.70652,0.96335 1.2474,2.04921 1.79456,3.11104l0.04341,0.60928c0,0 -0.05725,0.62787 -0.68512,0.57063z" fill="#7a6a5e"/><path d="M256.86076,110.87763c-0.53599,-0.332 -0.20399,-0.86799 -0.20399,-0.86799c0.11665,-0.18832 0.50247,-0.81121 0.61914,-0.99953c0,0 0.10089,-0.16285 0.2812,-0.25341c0.47382,-0.84348 1.03338,-1.85172 0.78862,-2.70864c0,0 -0.14424,-0.61376 0.46954,-0.75799c0.61375,-0.14425 0.75799,0.46952 0.75799,0.46952c0.30644,1.48959 -0.51913,2.8162 -1.19328,4.11806l-0.21233,0.3463c0,0 -0.11961,0.1931 -0.33112,0.27571l-0.1078,0.17401c0,0 -0.332,0.53599 -0.86799,0.20399z" fill="#7a0c00"/><path d="M256.4504,110.9218c0.07557,0.62593 -0.55034,0.70151 -0.55034,0.70151l-0.34454,0.04129c-1.42751,0.12436 -2.36218,-0.11335 -3.57733,-0.8649c0,0 -0.536,-0.33199 -0.20399,-0.86798c0.33199,-0.536 0.86799,-0.204 0.86799,-0.204c0.99181,0.61533 1.63252,0.7878 2.80134,0.68091l0.30539,-0.0372c0,0 0.62591,-0.07558 0.7015,0.55037z" fill="#7a0c00"/><path d="M260.02865,114.40333c-0.53599,-0.332 -0.20398,-0.86797 -0.20398,-0.86797l0.08074,-0.13037c0.56966,-0.91969 1.16778,-1.8258 1.49484,-2.86292c0,0 0.19209,-0.60051 0.79261,-0.40842c0.6005,0.19211 0.40841,0.79259 0.40841,0.79259c-0.36846,1.13821 -0.99691,2.13058 -1.62389,3.14275l-0.08075,0.13039c0,0 -0.33199,0.53597 -0.86798,0.20397z" fill="#7a0c00"/><path d="M259.52713,114.69174c0.07557,0.62593 -0.55033,0.70152 -0.55033,0.70152l-0.32498,0.03923c-1.24287,0.15004 -2.34456,0.37379 -3.46368,0.34058c-0.63105,-0.59158 -1.26391,-1.15796 -1.8884,-1.68377c0.06999,0.01505 0.11482,0.0341 0.11482,0.0341c1.76468,0.75422 3.26538,0.27706 5.08611,0.05718l0.32498,-0.03923c0,0 0.62593,-0.07557 0.7015,0.55036z" fill="#7a0c00"/><path d="M262.758,118.03369c-0.39024,-0.49517 0.1049,-0.88543 0.1049,-0.88543l0.38095,-0.28483c0.78678,-0.91504 1.26551,-1.94033 1.75537,-3.03145c0,0 0.17664,-0.39343 0.56313,-0.38341c0.11822,0.40121 0.2581,0.8304 0.41565,1.27784c-0.48736,1.05992 -1.00534,2.05045 -1.77559,2.95629l-0.55896,0.45591c0,0 -0.49516,0.39025 -0.88543,-0.10494z" fill="#7a0c00"/><path d="M262.52555,118.11148c0.14425,0.61375 -0.46951,0.758 -0.46951,0.758l-0.56303,0.1323c-0.98374,0.23001 -1.83805,0.32508 -2.7434,0.36892c-0.37883,-0.40824 -0.76666,-0.8184 -1.16075,-1.2263c1.29878,-0.01685 2.29279,-0.05749 3.61567,-0.37012l0.56303,-0.1323c0,0 0.61376,-0.14425 0.758,0.46951z" fill="#7a0c00"/><path d="M264.14877,120.09085c-0.19921,-0.59819 0.39898,-0.7974 0.39898,-0.7974l0.33983,-0.11171c0.76173,-0.30975 1.42354,-0.74008 2.02445,-1.24696c0.06439,0.44332 0.14978,0.91299 0.25313,1.3979c-0.54756,0.40118 -1.14136,0.74646 -1.80122,1.01657l-0.4178,0.14057c0,0 -0.59817,0.19922 -0.7974,-0.39895z" fill="#7a0c00"/><path d="M264.4364,120.76588c0.26178,0.57355 -0.31176,0.83536 -0.31176,0.83536l-0.13379,0.05984c-0.4337,0.23028 -0.85966,0.41175 -1.28672,0.57163c-0.46862,-0.29582 -0.93827,-0.5781 -1.40313,-0.84174c0.70595,-0.22987 1.38634,-0.46545 2.09846,-0.84358l0.20155,-0.09325c0,0 0.57356,-0.2618 0.83536,0.31176z" fill="#7a0c00"/><path d="M265.99791,122.77303c-0.3309,-0.53666 0.20575,-0.86759 0.20575,-0.86759l0.19458,-0.11998c0.4271,-0.26332 0.80952,-0.49998 1.17242,-0.80076c0.11862,0.42938 0.24783,0.86081 0.38577,1.28738c-0.28308,0.20316 -0.57914,0.39105 -0.89635,0.58669l-0.19459,0.12001c0,0 -0.53667,0.33093 -0.86756,-0.20573z" fill="#7a0c00"/><path d="M258.72103,112.63124c-0.53599,-0.332 -0.20397,-0.86798 -0.20397,-0.86798l0.13469,-0.21396c0.84937,-1.15986 0.98031,-2.15632 1.22197,-3.54096c0,0 0.1092,-0.62094 0.73013,-0.51175c0.62095,0.10921 0.51178,0.73014 0.51178,0.73014c-0.27814,1.56862 -0.4813,2.74559 -1.44601,4.06684l-0.08062,0.1337c0,0 -0.33199,0.536 -0.86798,0.20399z" fill="#7a6500"/><path d="M258.16002,112.99329c0.22956,0.58719 -0.35762,0.8168 -0.35762,0.8168l-0.3234,0.11963c-1.26713,0.27712 -2.99442,0.05379 -4.29302,-0.15387c0,0 -0.62245,-0.10031 -0.52214,-0.72274c0.10031,-0.62245 0.72277,-0.52213 0.72277,-0.52213c1.11997,0.18207 2.7319,0.44896 3.80393,0.17125l0.15269,-0.0665c0,0 0.58721,-0.22959 0.81679,0.3576z" fill="#7a6500"/><path d="M261.68878,116.29561c-0.40351,-0.48446 0.08098,-0.88796 0.08098,-0.88796l0.08827,-0.07108c0.78587,-0.74086 1.25451,-1.89609 1.8861,-2.78711c0,0 0.36479,-0.51423 0.87902,-0.14945c0.51422,0.36478 0.14944,0.87905 0.14944,0.87905c-0.69227,0.97509 -1.19224,2.12343 -2.03565,2.96169l-0.16016,0.13582c0,0 -0.48444,0.40349 -0.88794,-0.08096z" fill="#7a6500"/><path d="M261.00626,116.71078c0.19089,0.60089 -0.40999,0.79177 -0.40999,0.79177l-0.40188,0.12555c-1.07167,0.43582 -1.97053,0.50732 -3.11536,0.58271c0,0 -0.62915,0.04138 -0.67052,-0.58774c-0.04137,-0.62911 0.58775,-0.67051 0.58775,-0.67051c1.02115,-0.06706 1.77298,-0.10342 2.72172,-0.49198l0.4965,-0.15982c0,0 0.6009,-0.1909 0.79178,0.40999z" fill="#7a6500"/><path d="M263.04476,119.21484c0.14425,0.61375 -0.46952,0.75799 -0.46952,0.75799l-0.12906,-0.01845c-0.53571,0.38334 -1.0549,0.78431 -1.55723,1.20718c-0.41027,-0.22409 -0.81538,-0.43227 -1.21118,-0.62087c0.65082,-0.57175 1.32882,-1.10601 2.03431,-1.61154l0.57471,-0.18385c0,0 0.61375,-0.14425 0.75798,0.46954z" fill="#7a6500"/><path d="M264.01504,119.26027c-0.45119,-0.44035 -0.01084,-0.89158 -0.01084,-0.89158l0.2444,-0.22892c0.36103,-0.58284 0.7159,-1.15414 1.12035,-1.7081c0,0 0.37213,-0.50895 0.88108,-0.13683c0.50896,0.37212 0.13679,0.88109 0.13679,0.88109c-0.38612,0.52729 -0.72221,1.07239 -1.06625,1.62782l-0.41397,0.44566c0,0 -0.44036,0.45121 -0.89158,0.01084z" fill="#7a6500"/><path d="M265.32327,122.19838c0.28878,0.56045 -0.27168,0.84922 -0.27168,0.84922l-0.20623,0.10213c-0.13096,0.08649 -0.25876,0.17217 -0.38522,0.25631c-0.37004,-0.2607 -0.74561,-0.51683 -1.12357,-0.76556c0.2692,-0.17179 0.53241,-0.35693 0.81377,-0.54283l0.32369,-0.17092c0,0 0.56047,-0.28878 0.84926,0.27167z" fill="#7a6500"/><path d="M265.21014,121.48345c-0.40351,-0.48446 0.08097,-0.88795 0.08097,-0.88795l0.30437,-0.24852c0.36377,-0.23957 0.71736,-0.49638 1.0516,-0.77568c0,0 0.24855,-0.207 0.53789,-0.14643c0.07938,0.36579 0.16878,0.73974 0.26694,1.11716c-0.37021,0.30729 -0.76026,0.59137 -1.16137,0.85707l-0.19245,0.16532c0,0 -0.48444,0.40349 -0.88796,-0.08098z" fill="#7a6500"/><path d="M256.54343,109.95578c-0.56636,-0.27702 -0.28934,-0.8434 -0.28934,-0.8434l0.2128,-0.4333c0.24646,-0.57379 0.49764,-1.14564 0.75807,-1.71321c0,0 0.26296,-0.57303 0.83599,-0.31007c0.57303,0.26296 0.31007,0.83599 0.31007,0.83599c-0.25619,0.55818 -0.50316,1.1206 -0.74551,1.68495l-0.23867,0.48971c0,0 -0.27705,0.56636 -0.84339,0.28935z" fill="#246800"/><path d="M255.29146,110.72036c-0.2821,0.56385 -0.84596,0.28173 -0.84596,0.28173l-0.55486,-0.28051c-0.21729,-0.13459 -0.4346,-0.26919 -0.65187,-0.4038c0,0 -0.53596,-0.33199 -0.20397,-0.86798c0.33199,-0.536 0.86798,-0.20399 0.86798,-0.20399c0.21729,0.13459 0.4346,0.26921 0.65186,0.40379l0.45508,0.22479c0,0 0.56383,0.28213 0.28173,0.84597z" fill="#246800"/><path d="M257.14857,112.64928c0.04137,0.62911 -0.58775,0.67051 -0.58775,0.67051l-0.51498,0.02924c-0.75689,-0.04397 -1.42042,-0.18666 -2.1421,-0.41661c0,0 -0.60051,-0.19208 -0.40843,-0.7926c0.19211,-0.6005 0.79261,-0.40842 0.79261,-0.40842c0.62082,0.19944 1.17563,0.32467 1.82752,0.35858l0.36263,-0.02845c0,0 0.62911,-0.04137 0.67049,0.58775z" fill="#246800"/><path d="M257.90375,111.52369c-0.53599,-0.332 -0.20399,-0.86799 -0.20399,-0.86799l0.03651,-0.04502c0.28654,-0.67412 0.56228,-1.30688 0.94717,-1.93137c0,0 0.33199,-0.53597 0.86798,-0.20397c0.53599,0.332 0.20397,0.86798 0.20397,0.86798c-0.35378,0.56787 -0.59722,1.14553 -0.85868,1.76063l-0.12502,0.21575c0,0 -0.332,0.53599 -0.86799,0.20399z" fill="#246800"/><path d="M259.44522,113.50075c-0.53599,-0.332 -0.204,-0.86799 -0.204,-0.86799l0.13309,-0.20287c0.48422,-0.57901 0.96264,-1.1626 1.44144,-1.7461c0,0 0.39993,-0.48741 0.88734,-0.08748c0.48742,0.39993 0.08749,0.88734 0.08749,0.88734c-0.48128,0.58655 -0.96223,1.17315 -1.44895,1.75521l-0.02843,0.05791c0,0 -0.332,0.53599 -0.86799,0.20399z" fill="#246800"/><path d="M259.924,115.39898c0.3309,0.53666 -0.20573,0.86756 -0.20573,0.86756l-0.38128,0.19709c-1.02319,0.24018 -2.0639,0.37302 -3.08622,0.61388c0,0 -0.61379,0.14423 -0.75802,-0.46952c-0.14425,-0.61375 0.46954,-0.75798 0.46954,-0.75798c1.02276,-0.2398 2.06319,-0.37316 3.08622,-0.61388l0.00792,-0.04287c0,0 0.53666,-0.3309 0.86756,0.20573z" fill="#246800"/><path d="M260.88323,115.3536c-0.53599,-0.332 -0.20399,-0.86798 -0.20399,-0.86798l0.18854,-0.30088c0.42235,-0.57682 0.85806,-1.09429 1.23392,-1.70436c0,0 0.33201,-0.536 0.868,-0.204c0.53599,0.332 0.20399,0.86799 0.20399,0.86799c-0.39662,0.6373 -0.8473,1.18097 -1.28802,1.78463l-0.13446,0.22061c0,0 -0.332,0.53599 -0.86799,0.20399z" fill="#246800"/><path d="M261.5364,117.37852c0.14425,0.61375 -0.46951,0.758 -0.46951,0.758l-0.41367,0.09401c-0.45747,0.0602 -0.91376,0.13045 -1.36783,0.21236c0,0 -0.62052,0.11178 -0.73227,-0.50872c-0.11176,-0.6205 0.50872,-0.73228 0.50872,-0.73228c0.47361,-0.08519 0.94944,-0.15846 1.42649,-0.22152l0.29008,-0.07142c0,0 0.61378,-0.14422 0.75802,0.46952z" fill="#246800"/><path d="M262.55505,117.41142c-0.53599,-0.332 -0.20399,-0.86798 -0.20399,-0.86798l0.08086,-0.12706c0.40882,-0.5556 0.66779,-1.0914 0.95055,-1.72173c0,0 0.25824,-0.57516 0.83339,-0.3169c0.57515,0.25826 0.31692,0.8334 0.31692,0.8334c-0.31794,0.7075 -0.62666,1.32199 -1.083,1.94952l-0.02681,0.0468c0,0 -0.33198,0.53598 -0.86797,0.20398z" fill="#246800"/><path d="M264.0297,120.24587c0.14425,0.61375 -0.46951,0.758 -0.46951,0.758l-0.27978,0.06178c-0.68894,0.08076 -1.08921,0.21688 -1.65211,0.51352c-0.38901,-0.22677 -0.77566,-0.44136 -1.15654,-0.64089c0.09119,-0.21363 0.2966,-0.32686 0.2966,-0.32686c0.83156,-0.45433 1.42853,-0.68223 2.36086,-0.79763l0.14245,-0.03744c0,0 0.61377,-0.14423 0.75802,0.46952z" fill="#246800"/><path d="M264.99387,121.50456c0.14425,0.61375 -0.46951,0.758 -0.46951,0.758l-0.14328,0.01606c-0.38025,0.18985 -0.69335,0.26728 -0.95353,0.42194c-0.36415,-0.24101 -0.73077,-0.47539 -1.09709,-0.70067c0.40448,-0.38648 0.81509,-0.51119 1.48565,-0.84861l0.41976,-0.11626c0,0 0.61375,-0.14424 0.758,0.46951z" fill="#246800"/><path d="M265.6236,122.81279c-0.38528,-0.49908 0.1138,-0.88435 0.1138,-0.88435l0.24361,-0.16775c0.16358,-0.19935 0.32714,-0.39869 0.49069,-0.59805c0,0 0.39993,-0.48741 0.88734,-0.08749c0.48742,0.39993 0.08748,0.88734 0.08748,0.88734c-0.16358,0.19935 -0.32713,0.39868 -0.49072,0.59804l-0.44785,0.36605c0,0 -0.49908,0.38528 -0.88435,-0.1138z" fill="#246800"/><path d="M262.38774,118.66866c0.24318,0.5817 -0.33851,0.82487 -0.33851,0.82487l-0.43778,0.18201c-0.63161,0.22381 -1.22181,0.4977 -1.82505,0.78876c0,0 -0.06527,0.03147 -0.16222,0.05098c-0.22094,-0.10449 -0.43889,-0.20279 -0.65317,-0.29431c-0.00905,-0.01607 -0.01787,-0.03293 -0.0264,-0.0506c-0.27396,-0.56785 0.29393,-0.84179 0.29393,-0.84179c0.64407,-0.31066 1.27675,-0.60106 1.95068,-0.8412l0.37367,-0.15722c0,0 0.58168,-0.24318 0.82487,0.33852z" fill="#693d00"/><path d="M265.83493,122.68823c0.40351,0.48446 -0.08098,0.88796 -0.08098,0.88796l-0.19679,0.15564c-0.11483,0.07029 -0.22783,0.14386 -0.33878,0.22052c-0.35338,-0.26025 -0.71408,-0.51789 -1.07923,-0.77032c0.2433,-0.18692 0.49588,-0.36196 0.75616,-0.52351l0.05165,-0.05126c0,0 0.48445,-0.40348 0.88796,0.08098z" fill="#693d00"/></g><path d="M269.78584,120.52678c0.38432,0.1239 0.63362,0.4153 0.63362,0.4153l0.50783,0.59428c1.42261,1.7745 2.07108,3.40911 2.30646,5.66846c3.76788,6.99279 -6.0075,10.53587 -9.50783,15.01357c-1.10641,1.41532 -1.20233,4.42871 -3.03337,5.13547c-3.7942,1.46452 -4.05659,-2.61323 -4.16635,-5.09678c1.28258,-8.01307 3.35983,-17.96801 11.78845,-22.00081c0,0 0.89231,-0.42166 1.47115,0.2705zM266.77546,132.42334c0.89526,0.53827 2.05736,0.24889 2.59563,-0.64638c0.53827,-0.89526 0.24889,-2.05736 -0.64639,-2.59564c-0.89526,-0.53827 -2.05735,-0.24888 -2.59563,0.6464c-0.53827,0.89526 -0.24888,2.05735 0.64639,2.59563z" fill="#553f22" stroke="none" stroke-width="0.5" stroke-linecap="butt"/><path d="M268.95671,129.93295c-0.6298,0.02943 -0.65919,-0.60037 -0.65919,-0.60037l-0.0054,-0.24063c-0.92906,0.51669 -1.87558,0.7929 -2.53583,1.89104c0,0 -0.01045,0.01739 -0.0307,0.04401c0.02503,0.02458 0.04972,0.04925 0.07408,0.07399c3.20582,1.92177 3.46235,0.39911 3.30326,-1.18768c-0.04427,0.01036 -0.09288,0.01715 -0.14623,0.01963zM269.29364,133.06654l-0.39773,0.32053c-0.55712,0.29209 -1.11314,0.55515 -1.67682,0.81481l-0.53116,0.45447c-0.20067,0.17997 -0.50274,0.21685 -0.7458,0.0707c-0.20027,-0.12041 -0.30958,-0.33447 -0.3056,-0.55246l0.00062,-0.67777c0.03567,-0.52083 -0.23081,-0.98691 -0.59075,-1.37738l-0.0142,-0.00854c0,0 -0.13977,-0.08404 -0.23441,-0.23773c-0.06382,-0.05815 -0.12889,-0.11419 -0.19433,-0.16798c0,0 -0.47957,-0.40929 -0.0703,-0.88887c0.01647,-0.01929 0.03304,-0.03714 0.04969,-0.05363c-0.02735,-0.22963 0.09279,-0.42945 0.09279,-0.42945c1.06748,-1.77546 2.6537,-1.54838 3.8543,-2.96924c0.07621,-0.12676 0.34561,-0.57483 0.34561,-0.57483c0.17942,-0.29842 0.56679,-0.39488 0.86521,-0.21546c0.29842,0.17942 0.39488,0.56679 0.21546,0.86521l-0.2335,0.38837c0.05089,1.76799 0.32169,3.76635 -0.19878,4.82334c-0.03322,0.24732 -0.23026,0.41592 -0.23026,0.41592z" fill="#b9b9b9" stroke="none" stroke-width="0.5" stroke-linecap="butt"/><path d="M272.17533,132.08361c0.12183,-0.20263 0.60913,-1.01312 0.73096,-1.21576c0,0 0.32488,-0.54034 0.86521,-0.21547c0.54034,0.32487 0.21546,0.86522 0.21546,0.86522c-0.11531,0.19179 -0.23064,0.38361 -0.34596,0.57541c0.1084,0.27854 -0.06055,0.55954 -0.06055,0.55954c-2.16673,3.60376 -6.42709,6.03566 -9.17559,9.2208c-2.71098,1.37897 -1.17994,5.40891 -4.9906,5.93298l-0.72069,-0.11003c0,0 -0.62235,-0.10096 -0.52139,-0.72331c0.10095,-0.62236 0.72328,-0.52137 0.72328,-0.52137l0.53608,0.09384c2.6529,-0.34076 1.96488,-4.42862 4.18369,-5.65521c2.46283,-2.92013 6.30411,-5.13785 8.48888,-8.27728c-0.08573,-0.2683 0.07124,-0.52935 0.07124,-0.52935z" fill="#b9b9b9" stroke="none" stroke-width="0.5" stroke-linecap="butt"/><path d="M272.42709,121.15503c0.41914,0.93187 0.31855,2.17183 -0.4312,2.76264c-0.31217,-0.48849 -0.81731,-0.94972 -1.41328,-1.35371c-0.17269,-0.46999 -0.43738,-0.91967 -0.79342,-1.29515c-0.01878,-0.3281 -0.12271,-0.64824 -0.30318,-0.9259c0.20534,-0.14917 0.52402,-0.26731 0.98537,-0.34005c0.63061,-0.09945 1.14097,0.11341 1.5109,0.48944c0.01417,0.00531 0.02843,0.0107 0.04272,0.01621c0,0 0.47081,0.18597 0.40206,0.6465zM270.99561,121.54162c-0.01179,-0.00055 -0.02339,-0.00094 -0.03485,-0.00112c0.00439,0.01045 0.00891,0.0211 0.01352,0.03203l0.02924,-0.01084c-0.00267,-0.00675 -0.0053,-0.01347 -0.00794,-0.02007z" fill="#7a3535" stroke="none" stroke-width="0.5" stroke-linecap="butt"/><path d="M256.41414,118.91986c-0.13903,-1.52626 1.38334,-2.74716 2.25947,-2.81831c0.74657,-1.45173 1.88823,-2.27987 3.48576,-0.6794c1.1461,1.1482 1.64888,6.69613 -0.00217,7.62035c-1.233,0.69018 -3.20698,-6.13776 -4.27877,-2.62764l-0.00425,0.05439c-0.00562,0.09885 -0.03465,0.19783 -0.08922,0.28859c-0.01053,0.01751 -0.02177,0.03432 -0.03367,0.05041c-0.06147,0.13472 -0.10872,0.17489 -0.14113,0.13862c-0.19814,0.14077 -0.46879,0.15969 -0.69041,0.02645c-0.29842,-0.17942 -0.39488,-0.56679 -0.21546,-0.86521c0.17942,-0.29842 0.56678,-0.39489 0.86521,-0.21546c0.01142,0.00686 0.02256,0.01403 0.03336,0.0215c0.02764,-0.24483 0.06811,-0.52112 0.12187,-0.81591c-0.59639,0.30222 -1.25637,0.41712 -1.3106,-0.17833z" fill="#8c6738" stroke="none" stroke-width="0.5" stroke-linecap="butt"/><path d="M262.64272,124.44625c-0.6039,-0.18117 -0.4227,-0.78506 -0.4227,-0.78506l0.07035,-0.21246c0.28403,-1.87848 0.42727,-3.69376 0.35593,-5.59606c0.55764,-5.75651 -6.18931,-0.79524 -6.68736,2.62838c0,0 -0.09396,0.62343 -0.71739,0.52948c-0.62343,-0.09396 -0.52949,-0.71739 -0.52949,-0.71739c0.77135,-4.97332 9.88954,-9.95809 9.19472,-2.40552c0.07776,1.95062 -0.08012,3.82291 -0.3695,5.74903l-0.10946,0.38688c0,0 -0.18118,0.6039 -0.78506,0.4227z" fill="#7c4800" stroke="none" stroke-width="0.5" stroke-linecap="butt"/><path d="M260.6615,122.82566c-0.59964,0.19478 -0.79442,-0.40488 -0.79442,-0.40488l-0.04168,-0.13624c-0.20995,-0.51019 -0.32921,-1.03532 -0.45141,-1.56426c-0.10735,0.22548 -0.21281,0.45711 -0.31699,0.69692l-0.21884,0.29063c0,0 -0.424,0.46662 -0.89062,0.04262c-0.46661,-0.424 -0.04261,-0.89061 -0.04261,-0.89061l-0.00429,0.0545c0.69732,-1.60234 1.46438,-2.88948 2.43948,-4.34817c0,0 0.35048,-0.52408 0.87456,-0.17361c0.52409,0.35047 0.17361,0.87456 0.17361,0.87456c-0.42282,0.63202 -0.80149,1.22343 -1.1512,1.82317c0.30338,0.89483 0.37502,1.8598 0.74867,2.7008l0.08057,0.24013c0,0 0.19477,0.59965 -0.40488,0.79442z" fill="#7c4800" stroke="none" stroke-width="0.5" stroke-linecap="butt"/><path d="M259.36446,128.51572c-2.355,-1.91338 -3.91007,-4.85451 -6.00304,-7.04376c-1.92011,-2.98101 -6.00135,-7.63243 -5.97166,-11.28693c-0.02417,-0.08371 -0.04758,-0.16768 -0.07025,-0.25194c0,0 -0.16159,-0.60942 0.4478,-0.77103c0.60942,-0.16159 0.77103,0.4478 0.77103,0.4478c1.14495,4.38987 4.62183,8.05441 7.36905,11.48201c1.38518,1.43908 4.44184,4.95895 6.47069,5.12216l0.32867,-0.04127c0,0 0.40007,-0.03674 0.59083,0.26781c0.0858,0.02999 0.17475,0.08535 0.26303,0.17704c0.43722,0.45424 -0.01702,0.89146 -0.01702,0.89146c-0.63646,0.60605 -1.37686,1.032 -2.01317,1.64609l-0.30282,0.29149c0,0 -0.45424,0.43722 -0.89145,-0.01701c-0.11327,-0.11766 -0.16669,-0.23417 -0.18372,-0.34226c-0.21781,-0.13266 -0.47869,-0.32035 -0.78796,-0.57163z" fill="#8c8172" stroke="none" stroke-width="0.5" stroke-linecap="butt"/><path d="M256.19086,135.24494c-2.77952,-1.21708 -5.0617,-3.6379 -7.66213,-5.19071c-2.64465,-2.36203 -7.81725,-5.75853 -8.76192,-9.28895c-0.04559,-0.07426 -0.09052,-0.14897 -0.13482,-0.22412c0,0 -0.31807,-0.54439 0.2263,-0.86244c0.54438,-0.31808 0.86245,0.22629 0.86245,0.22629c2.2727,3.9264 6.59993,6.53265 10.16077,9.10486c1.71838,1.01822 5.60207,3.59693 7.60113,3.21391l0.30581,-0.12732c0,0 0.37585,-0.14194 0.64079,0.10081c0.09065,0.00604 0.19116,0.03572 0.30069,0.1006c0.54243,0.32139 0.22101,0.8638 0.22101,0.8638c-0.45207,0.75365 -1.05231,1.36143 -1.50212,2.12276l-0.21426,0.3616c0,0 -0.32139,0.54243 -0.86381,0.22101c-0.14048,-0.08325 -0.22302,-0.18133 -0.2682,-0.28097c-0.24526,-0.06986 -0.54673,-0.18132 -0.91175,-0.34116z" fill="#8c8172" stroke="none" stroke-width="0.5" stroke-linecap="butt"/><path d="M265.58589,122.18431c-1.21996,-1.93246 -1.62158,-4.40578 -2.58812,-6.47202c-0.65253,-2.58967 -2.44517,-6.89169 -1.54415,-9.49253c0.00292,-0.06555 0.00639,-0.13113 0.01052,-0.19672c0,0 0.0314,-0.47382 0.50521,-0.44243c0.47382,0.0314 0.44243,0.50521 0.44243,0.50521c-0.23983,3.40844 1.35911,6.86068 2.49441,9.9682c0.64204,1.36048 1.97593,4.60832 3.38448,5.21326l0.2445,0.04969c0,0 0.29435,0.07011 0.35715,0.33336c0.054,0.04204 0.10416,0.103 0.14508,0.1897c0.20265,0.42944 -0.22676,0.6321 -0.22676,0.6321c-0.60012,0.27927 -1.23107,0.40496 -1.83301,0.68999l-0.28626,0.1351c0,0 -0.42945,0.20268 -0.6321,-0.22676c-0.05247,-0.11124 -0.06258,-0.20725 -0.0487,-0.28847c-0.12348,-0.1471 -0.2645,-0.34388 -0.42471,-0.59767z" fill="#8c8172" stroke="none" stroke-width="0.5" stroke-linecap="butt"/></g><g stroke="none" stroke-width="0.5" stroke-linecap="butt"><path d="M229.35937,189.97077c-1.54015,-4.64151 3.64277,-10.0783 6.21314,-13.13607c0,0 0.75616,-0.89838 1.65454,-0.14223c0.08377,0.07049 0.15313,0.14221 0.21007,0.21435c0.15382,-0.05084 0.31168,-0.09727 0.47372,-0.13918l1.48917,0.4391c0,0 0.50726,0.16637 0.72556,0.61677c2.7481,0.32598 5.58457,1.22876 7.90281,2.64717c0.247,0.49308 0.52837,0.97592 0.84471,1.44549c1.01713,1.50979 2.29747,2.73622 3.73872,3.65936c0.84783,2.23801 0.68774,4.90935 -1.03471,7.9581c-1.77699,2.92062 -1.75791,4.61779 -1.09943,7.90212c0.03314,0.16533 0.33269,2.02027 0.40274,3.23559c0.00319,-0.00332 0.00641,-0.00666 0.00967,-0.00999c0.05075,2.0858 0.60696,4.18085 1.70578,6.09438c-1.08976,1.25 -2.3931,2.75485 -4.09245,2.74459c-0.79938,-0.00481 -2.70087,-1.36257 -3.32867,-1.77068c-3.73983,-3.79535 -7.48794,-8.70551 -10.01364,-14.0326c-2.18378,-2.3934 -4.97035,-5.22063 -5.80176,-7.72625z" fill="#7c5c32"/><path d="M244.78649,185.57486c-0.15006,-0.08479 -0.23119,-0.18872 -0.2709,-0.29328c-0.0677,-0.0302 -0.1354,-0.06043 -0.20307,-0.09065c-3.9415,-1.57538 -8.27275,1.89982 -8.73635,5.69819c0,0 -0.07379,0.58248 -0.65625,0.50871c-0.58248,-0.07379 -0.5087,-0.65624 -0.5087,-0.65624c0.6106,-4.67614 5.62946,-8.32232 10.3461,-6.63738c0.21205,0.09441 0.42408,0.18885 0.63612,0.28327l0.19304,0.96505c0,0 -0.28883,0.51118 -0.79999,0.22236z" fill="#ffffff"/><path d="M244.22811,186.63839c0.05138,-0.14946 0.2183,-0.48275 0.66898,-0.39488c0.57629,0.11236 0.46392,0.68863 0.46392,0.68863l-0.15939,0.38028c-2.54958,2.82768 -5.32615,4.94275 -9.27736,4.74266c0,0 -0.58637,-0.02972 -0.55665,-0.6161c0.02972,-0.58638 0.6161,-0.55665 0.6161,-0.55665c3.52185,0.17873 5.96727,-1.73364 8.2444,-4.24393z" fill="#ffffff"/><path d="M241.64482,190.22511c-2.12146,2.20769 -3.70843,-1.77221 -4.09446,-3.38072c0,0 -0.15832,-0.664 0.44593,-0.89359c0.04448,-0.17975 0.1532,-0.34422 0.31887,-0.45583c0.31748,-0.21389 0.73641,-0.16103 0.99204,0.10693c1.34075,-0.15777 4.21807,2.66633 2.33764,4.62319z" fill="#ffffff"/><path d="M250.69728,203.32505c0.43224,0.39561 0.05585,0.82088 0.05585,0.82088l-0.11867,0.11302c-1.70185,3.0992 -4.52615,3.83575 -7.81346,4.50779c0,0 -0.55819,0.11312 -0.68824,-0.45658c-0.13005,-0.5697 0.42817,-0.68283 0.42817,-0.68283c2.95399,-0.59289 5.55612,-1.17503 7.06634,-3.95626l0.26138,-0.31637c0,0 0.37639,-0.42526 0.80861,-0.02967z" fill="#ffffff"/></g><g stroke="none" stroke-linecap="butt"><path d="M255.47181,167.6853c0,13.40569 -8.23966,24.27315 -18.40381,24.27315c-10.16414,0 -18.40381,-10.86747 -18.40381,-24.27315c0,-13.40569 8.23966,-24.27312 18.40381,-24.27312c10.16414,0 18.40381,10.86744 18.40381,24.27312z" fill="#946d3b" stroke-width="0"/><path d="M244.85969,156.65015c10.07203,4.43699 15.97054,14.35671 13.17474,22.15624c-2.79581,7.79953 -13.22721,10.52541 -23.29924,6.08839c-10.07203,-4.43699 -15.97051,-14.35671 -13.1747,-22.15624c2.79581,-7.79953 13.22721,-10.52538 23.29921,-6.08839z" fill="#946d3b" stroke-width="0"/><path d="M232.96916,190.82032c0.00199,0.91842 -0.91644,1.37764 -0.91644,1.37764l-1.46764,0.61076c-10.68855,0.93222 -19.01933,-0.34942 -24.46956,-10.50348c-2.16709,-6.01302 0.35573,-16.14962 -6.49714,-20.03119c-3.57274,-2.02365 -7.40429,0.40206 -10.94659,1.77787l0.22195,0.55492l-1.46066,0.58425c-0.19291,0.08238 -0.40526,0.12798 -0.62827,0.12798c-0.88416,0 -1.60094,-0.71677 -1.60094,-1.60094c0,-0.22301 0.04559,-0.43539 0.12798,-0.62827l0.58425,-1.46066l0.01249,0.00499l0.00346,-0.04335c8.24952,-17.78661 23.8498,-19.30155 33.98228,-2.33023c2.76843,6.61138 1.76942,28.84302 11.7168,29.31335c0,0 1.59437,0.14495 1.44942,1.73929c-0.01761,0.19355 -0.05655,0.36146 -0.11143,0.50708z" fill="#8c6738" stroke-width="0.5"/><path d="M191.78764,154.37417c0.23575,0.26893 0.36924,0.51566 0.4254,0.7389l0.00836,0.01258l0.01085,0.03032l0.02353,0.01348l0.04371,0.17492l0.00269,0.00756l0.00925,0.01386l0.03596,0.1007l0.05741,0.0902l0.03003,0.09004l0.0032,0.04191l0.01879,0.03759l0.04595,0.20678l0.02357,0.05888l0.0218,0.04358l0.00781,0.00448l0.00557,0.02232l0.00999,0.01995l0.0399,0.17953l0.01847,0.07393l0.03224,0.06048l0.00839,0.03359l0.03115,0.04675l0.01085,0.03032l0.02353,0.01348l0.04364,0.1745l0.0324,0.05402l0.00913,0.03003l0.02043,0.02382l0.03003,0.06004l0.02318,0.10435l0.04579,0.09663l0.02024,0.10121l0.01425,0.04278l0.00387,0.05046l0.02168,0.04569l0.06004,0.30018l-0.00378,0.07963l0.01934,0.07736v0.16086l0.01447,0.07236l-0.00346,0.07252l0.01194,0.04777l0.03983,0.09964l0.02049,0.15023l0.00887,0.03548l0.004,0.00749l0.02257,0.09026l0.00231,0.00692l0.00458,0.00916l0.00304,0.01374l0.01037,0.03106l0.00183,0.02379l0.02465,0.11094l0.01671,0.06686l0.004,0.00749l0.03874,0.15487l0.05075,0.1015l0.00736,0.03317l0.01988,0.02754l0.06004,0.1501l0.00327,0.02385l0.0129,0.0203l0.00096,0.00295l0.00006,0.00003l0.00019,0.0007l0.01079,0.03237l0.00458,0.00916l0.00307,0.01374l0.01034,0.03106l0.00183,0.02376l0.02465,0.11098l0.01015,0.04063l0.00996,0.01995l0.01127,0.05081l0.02885,0.04326l0.03596,0.10067l0.05741,0.0902l0.03003,0.09007l0.0024,0.03128l0.01479,0.0277l0.02257,0.09023l0.0203,0.06087l0.00986,0.1283l0.03122,0.12484v0.24014l0.03003,0.12007v0.02232l0.0154,0.06942l0.04463,0.17844v0.02232l0.00496,0.02245l-0.00496,0.00746v0.42806l-0.02843,0.11376l-0.00672,0.14133l-0.03657,0.03186l-0.02834,0.11328l-0.29585,0.16906l-0.2476,0.21565l-0.03567,-0.01188l-0.02084,0.01783l-0.10326,0.12045l-0.03986,0.00221l-0.04963,0.04252l-0.09606,0.04803l-0.08405,0.07204l-0.06004,0.03003l-0.05062,0.01124l-0.03506,0.02104l-0.00115,-0.00032l-0.01799,0.01146l-0.18011,0.06004l-0.03131,0.0024l-0.0277,0.01479l-0.03045,0.00762l-0.00359,0.00628l-0.02232,0.00557l-0.01995,0.00999l-0.10806,0.02401l-0.01201,0.00602l-0.17953,0.0399l-0.0868,0.02171l-0.01863,0.01185l-0.09298,0.03099l-0.00003,0.0001l-0.00074,0.00016l-0.03237,0.01079l-0.00916,0.00458l-0.01374,0.00307l-0.03109,0.01034l-0.02376,0.00183l-0.11098,0.02465l-0.06686,0.01671l-0.00749,0.004l-0.06737,0.01684l-0.09967,0.03986l-0.05456,0.00743l-0.04857,0.0259l-0.09026,0.02257l-0.06087,0.0203l-0.03131,0.0024l-0.0277,0.01479l-0.12007,0.03003h-0.01953l-0.01764,0.00836l-0.1314,0.02629l-0.22167,0.05542h-0.04886l-0.01114,0.00247l-0.02501,0.00832l-0.022,0.01588l-0.11917,0.04764l-0.09029,0.04515l-0.08603,0.01915l-0.02991,0.01595l-0.06417,0.05498l-0.03125,0.01563l-0.00871,0.03093l-0.06372,0.03397l-0.04697,0.05482l-0.06228,0.00346l-0.10364,0.0553l-0.04572,0.0762l-0.08315,0.08315l-0.00176,0.00884l-0.0194,0.01233l-0.01575,0.01579l-0.08238,0.04944l-0.0025,0.01252l-0.08677,0.05523l-0.06695,0.07809l-0.01764,0.00096l-0.0439,0.0439l-0.04076,0.02446l-0.01777,0.02068l-0.00477,0.00029l-0.02677,0.0446l-0.04502,0.04505l-0.04502,0.07505l-0.0683,0.0683l-0.03324,0.05222l-0.00339,0.06112l-0.07809,0.06692l-0.05523,0.08677l-0.06,0.01201l-0.11991,0.10275l-0.12007,0.06004l-0.05081,0.0113l-0.04323,0.02882l-0.04764,0.017l-0.03842,0.03292l-0.06004,0.03l-0.08607,0.01915l-0.07777,0.0415l-0.12007,0.03003h-0.03263l-0.02991,0.013l-0.18011,0.03003l-0.05504,-0.00439l-0.04476,0.00996l-0.07777,0.0415l-0.12007,0.03003h-0.0553l-0.14175,0.05671l-0.02385,0.00323l-0.0203,0.01294l-0.09004,0.03003l-0.1283,0.00986l-0.12484,0.03122h-0.09004l-0.12007,0.03003h-0.02232l-0.02245,0.00496l-0.00141,-0.00093l-0.1039,0.026h-0.02232l-0.02245,0.00496l-0.00029,-0.00019l-0.00026,0.00019l-0.02245,-0.00496h-0.02232l-0.17844,-0.04463l-0.06708,-0.01489l-0.02677,0.0073l-0.03506,-0.02104l-0.05062,-0.01124l-0.01995,-0.00999l-0.02232,-0.00557l-0.00445,-0.00781l-0.01332,-0.00666l-0.08405,-0.07204l-0.03602,-0.01803l-0.02766,-0.02373l-0.03234,-0.0194l-0.02949,-0.00163l-0.07656,-0.0893l-0.01351,-0.00077l-0.0617,-0.07198l-0.07201,-0.0617l-0.00077,-0.01351l-0.0893,-0.07656l-0.00221,-0.03986l-0.04255,-0.04963l-0.0967,-0.19342l-0.00778,-0.00445l-0.00557,-0.02232l-0.00999,-0.01998l-0.02549,-0.11479l-0.00451,-0.00525l-0.05469,-0.10938l-0.04982,-0.02846l-0.02494,-0.0998l-0.05293,-0.08818l0.01611,-0.05907l-0.03829,-0.15318v-0.03785l-0.00499,-0.00746l0.00499,-0.02245v-0.02229l0.02597,-0.10393l-0.00093,-0.00141l0.00499,-0.02245v-0.02229l0.0446,-0.17844l0.02465,-0.11098l0.00183,-0.02376l0.01037,-0.03106l0.00304,-0.01374l0.00458,-0.00916l0.01082,-0.0324l0.00019,-0.0007l0.00006,-0.00006l0.00096,-0.00295l0.03093,-0.0486l0.01249,-0.05622l0.03999,-0.07998l0.00557,-0.02232l0.00781,-0.00448l0.01662,-0.03327l0.00557,-0.02232l0.00778,-0.00448l0.00666,-0.01332l0.06,-0.06999l0.01556,-0.06231l0.04403,-0.02513l0.02539,-0.04233l0.01066,-0.04262v-0.06004l0.00784,-0.03144l0.0032,-0.04159l0.01896,-0.05687v-0.02802l-0.00499,-0.00746l0.00499,-0.02245v-0.02229l0.0446,-0.17844l0.00932,-0.04188v-0.03384l0.03003,-0.12007l0.06445,-0.12087l0.01092,-0.03058l0.0447,-0.17876l0.0415,-0.07781l0.01912,-0.08603l0.02075,-0.0415l0.00871,-0.0348l0.06862,-0.12868l0.05216,-0.13621l0.17629,-0.25189l0.00365,-0.00727l0.00797,-0.00925l0.00768,-0.01098l0.00528,-0.01889l0.06529,-0.11427l0.00323,-0.01294l0.06445,-0.12087l0.01092,-0.03058l0.01466,-0.05869l0.01902,-0.03567l0.00144,-0.00407l0.00359,-0.00538l0.01742,-0.03266l0.01912,-0.08603l0.06602,-0.13208l0.02401,-0.10806l0.00996,-0.01995l0.00557,-0.02232l0.00781,-0.00448l0.03666,-0.07335l0.03292,-0.03839l0.01703,-0.04764l0.04082,-0.06128l0.02024,-0.07195l0.0925,-0.16189l0.03942,-0.09849l0.01988,-0.02754l0.00736,-0.03317l0.10518,-0.21036l0.04768,-0.11917l0.04902,-0.06788l0.02818,-0.07886l0.05542,-0.08312l0.03464,-0.09695l0.06004,-0.09007l0.04236,-0.03852l0.02776,-0.05555l0.08376,-0.09769l0.02209,-0.03685l0.0041,-0.01153l0.02802,-0.04204l0.01197,-0.01995l0.00397,-0.00397l0.07611,-0.11415l0.01681,-0.0153l0.00884,-0.02094l0.09004,-0.12007l0.04473,-0.03634l0.02962,-0.0494l0.02962,-0.02959l0.00054,-0.0025l0.06004,-0.12007l0.03292,-0.03839l0.017,-0.04764l0.04947,-0.07422l0.06445,-0.10739l0.01627,-0.03256l0.02043,-0.02382l0.00913,-0.03003l0.09007,-0.15007l0.03861,-0.03861l0.02273,-0.0496l0.04598,-0.05747l0.01598,-0.03996l0.00586,-0.00813l0.0016,-0.00989l0.09007,-0.21014l0.05811,-0.07646l0.03727,-0.0885l0.04675,-0.06234l0.02773,-0.05552l0.04255,-0.0496l0.00221,-0.0399l0.05129,-0.04396l0.0106,-0.03186l0.05741,-0.0902l0.03596,-0.10067l0.05418,-0.08126l0.00067,-0.01223l0.07207,-0.0618l0.00118,-0.00186l0.00131,-0.00026l0.01553,-0.01332l0.04054,-0.06369l0.09462,-0.15772l0.01579,-0.01579l0.01233,-0.0194l0.00884,-0.00176l0.06814,-0.06814l0.04502,-0.07505l0.02962,-0.02959l0.00054,-0.0025l0.06004,-0.12007l0.07204,-0.08405l0.07806,-0.15609l0.06926,-0.08078l0.00832,-0.01306l0.01249,-0.05622l0.06004,-0.12007l0.03292,-0.03842l0.017,-0.04761l0.0324,-0.04857l0.0123,-0.02462l0.01204,-0.03609l0.01146,-0.01799l-0.00032,-0.00115l0.02104,-0.03506l0.01124,-0.05062l0.03,-0.06004l0.07204,-0.08405l0.01803,-0.03602l0.02373,-0.02763l0.03618,-0.06032l0.04502,-0.04502l0.04502,-0.07505l0.12007,-0.12007l0.11034,-0.06621l0.09772,-0.08373l0.05069,-0.02533c0.14834,-0.60394 0.54108,-0.82781 1.50011,0.26624zM191.89557,161.22002v-0.01707l-0.02136,0.02846z" fill="#ededed" stroke-width="0.5"/><path d="M206.46351,147.71063c0.80047,0 0.80047,0.75942 0.80047,0.75942v0.75945c0,4.99261 -1.67413,10.2732 -5.67189,13.73122c0,0 -0.59827,0.50455 -1.13007,-0.06308c-0.5318,-0.56763 0.06647,-1.07215 0.06647,-1.07215c3.72675,-3.03182 5.13455,-8.12747 5.13455,-12.596v-0.75945c0,0 0,-0.75942 0.80047,-0.75942z" fill="#ededed" stroke-width="0.5"/><path d="M222.0277,169.39757c0.55946,0.56599 0,1.13202 0,1.13202l-0.34756,0.3483c-2.64567,2.29126 -10.70177,5.71636 -14.85306,4.1024c-0.10262,0.02257 -0.20524,0.04515 -0.30786,0.06772v0.008h-0.90907c-0.43696,0 -0.79118,-0.35839 -0.79118,-0.80047c0,-0.44208 0.35422,-0.80047 0.79118,-0.80047h0.74245c0.26768,-0.06176 0.53535,-0.12356 0.80303,-0.18532c0,0 0.0066,-0.0015 0.01867,-0.00355c3.86629,-1.72795 9.71957,-0.34228 13.47603,-3.6038l0.25849,-0.26483c0,0 0.55946,-0.56599 1.11893,0z" fill="#1c1b11" stroke-width="0.5"/><path d="M250.72126,151.54362c0.44208,0 0.80047,0.35839 0.80047,0.80047c0,0.44208 -0.35839,0.80047 -0.80047,0.80047c-0.24309,0 -0.46085,-0.10835 -0.60765,-0.27936c-0.14261,0.13144 -0.33309,0.21171 -0.54233,0.21171c-0.29582,0 -0.55415,-0.16045 -0.69272,-0.39908c-0.14053,0.12215 -0.32409,0.19615 -0.52491,0.19615c-0.27085,0 -0.51025,-0.13451 -0.6551,-0.34036c-0.13726,0.24353 -0.39831,0.40798 -0.69782,0.40798c-0.19256,0 -0.36927,-0.06798 -0.50737,-0.18126c-0.1381,0.11328 -0.31478,0.18126 -0.50734,0.18126c-0.18497,0 -0.35528,-0.06272 -0.49085,-0.1681c-0.11504,0.06401 -0.24754,0.10044 -0.38855,0.10044c-0.1982,0 -0.37958,-0.07204 -0.51938,-0.19134c-0.12372,0.07835 -0.2704,0.12369 -0.42767,0.12369c-0.22013,0 -0.41948,-0.08885 -0.5642,-0.23262c-0.11373,0.06205 -0.24417,0.09734 -0.38285,0.09734c-0.22368,0 -0.42598,-0.09177 -0.57121,-0.23972c-0.07592,0.02389 -0.15673,0.03676 -0.24052,0.03676c-0.23278,0 -0.44234,-0.09935 -0.5886,-0.25797c-0.12337,0.07771 -0.26947,0.1227 -0.42607,0.1227c-0.30021,0 -0.56183,-0.16525 -0.69881,-0.40978c-0.12846,0.0878 -0.28381,0.13919 -0.45118,0.13919c-0.22714,0 -0.43222,-0.09462 -0.57791,-0.24658c-0.13765,0.11187 -0.31324,0.17892 -0.50445,0.17892c-0.28164,0 -0.52933,-0.14546 -0.67201,-0.36537c-0.06615,0.01771 -0.13566,0.02715 -0.20739,0.02715c-0.27581,0 -0.51906,-0.13951 -0.66301,-0.35179c-0.10614,0.052 -0.22551,0.0812 -0.35169,0.0812c-0.30171,0 -0.56449,-0.16691 -0.70089,-0.41349c-0.03625,0.00503 -0.07323,0.00762 -0.11088,0.00762c-0.2614,0 -0.4935,-0.12529 -0.63961,-0.3191c-0.13854,0.11479 -0.31638,0.18379 -0.51038,0.18379c-0.29797,0 -0.55793,-0.16282 -0.69573,-0.4043c-0.09775,0.04249 -0.20559,0.06609 -0.31897,0.06609c-0.4352,0 -0.78926,-0.34724 -0.80021,-0.77978c-0.01169,0.00051 -0.02341,0.00077 -0.03519,0.00077c-0.40004,0 -0.73156,-0.29348 -0.79099,-0.67688c-0.08248,0.02869 -0.17104,0.04431 -0.26329,0.04431c-0.38752,0 -0.71072,-0.27536 -0.78462,-0.64108c-0.09077,0.03573 -0.18961,0.05536 -0.2931,0.05536c-0.31983,0 -0.59584,-0.18757 -0.72404,-0.4587c-0.04063,0.0235 -0.08347,0.04358 -0.1282,0.05975c-0.293,0.29848 -0.47324,0.22698 -0.56491,-0.00765c-0.27709,-0.10886 -0.47878,-0.36777 -0.505,-0.67668c-0.10601,0.05184 -0.22519,0.08091 -0.35115,0.08091c-0.28695,0 -0.53859,-0.15097 -0.67989,-0.37782c-0.12587,0.08248 -0.27642,0.13048 -0.43814,0.13048c-0.44208,0 -0.80047,-0.35839 -0.80047,-0.80047c0,-0.44208 0.35839,-0.80047 0.80047,-0.80047c0.28695,0 0.53859,0.15097 0.67989,0.37782c0.12587,-0.08248 0.27642,-0.13048 0.43814,-0.13048c0.41896,0 0.76275,0.32188 0.79755,0.73185c0.06253,-0.03058 0.12961,-0.05325 0.20002,-0.06669c0.13871,-0.24251 0.33428,-0.29412 0.55741,0.09638c0.13774,0.0813 0.24901,0.20268 0.31775,0.34808c0.1178,-0.06823 0.25461,-0.10726 0.40052,-0.10726c0.38752,0 0.71069,0.27536 0.78459,0.64108c0.09077,-0.03573 0.18965,-0.05536 0.2931,-0.05536c0.40004,0 0.73156,0.29348 0.79099,0.67688c0.08248,-0.02869 0.17104,-0.04431 0.26329,-0.04431c0.4352,0 0.78926,0.34724 0.80021,0.77978c0.01169,-0.00051 0.02341,-0.00077 0.03519,-0.00077c0.29797,0 0.55793,0.16282 0.69573,0.4043c0.09775,-0.04249 0.20559,-0.06605 0.31897,-0.06605c0.2614,0 0.4935,0.12529 0.63957,0.3191c0.13854,-0.11479 0.31641,-0.18379 0.51038,-0.18379c0.30171,0 0.56446,0.16691 0.70089,0.41349c0.03625,-0.00503 0.07326,-0.00762 0.11088,-0.00762c0.27581,0 0.51906,0.13951 0.66301,0.35179c0.10614,-0.052 0.22551,-0.0812 0.35169,-0.0812c0.28164,0 0.52933,0.14543 0.67201,0.36533c0.06615,-0.01771 0.13566,-0.02712 0.20739,-0.02712c0.22714,0 0.43219,0.09462 0.57787,0.24658c0.13765,-0.11187 0.31324,-0.17892 0.50445,-0.17892c0.30021,0 0.5618,0.16525 0.69878,0.40974c0.12846,-0.0878 0.28385,-0.13915 0.45121,-0.13915c0.23278,0 0.44234,0.09935 0.5886,0.25797c0.12337,-0.07771 0.26947,-0.1227 0.42607,-0.1227c0.22368,0 0.42598,0.09177 0.57121,0.23972c0.07592,-0.02389 0.15673,-0.03676 0.24052,-0.03676c0.22013,0 0.41948,0.08882 0.5642,0.23262c0.11373,-0.06205 0.24417,-0.0973 0.38285,-0.0973c0.1982,0 0.37958,0.07204 0.51938,0.19134c0.12372,-0.07835 0.2704,-0.12369 0.42767,-0.12369c0.18497,0 0.35528,0.06276 0.49085,0.1681c0.11504,-0.06401 0.24754,-0.10047 0.38855,-0.10047c0.19256,0 0.36924,0.06801 0.50734,0.18129c0.1381,-0.11328 0.31481,-0.18129 0.50737,-0.18129c0.27085,0 0.51025,0.13451 0.6551,0.34039c0.13726,-0.24353 0.39831,-0.40801 0.69782,-0.40801c0.29582,0 0.55412,0.16045 0.69269,0.39905c0.14053,-0.12215 0.32409,-0.19611 0.52495,-0.19611c0.24309,0 0.46081,0.10835 0.60762,0.27936c0.14261,-0.13144 0.33312,-0.21171 0.54236,-0.21171z" fill="#6a7e00" stroke-width="0.5"/><path d="M255.3349,161.40772c-3.16425,1.1301 -6.13232,-1.59312 -5.94821,-4.70073c-0.40164,-0.54806 -0.19439,-1.59777 1.15837,-3.33468c0.1558,-0.43629 0.375,-0.7996 0.67268,-0.96969c0.08911,-0.15094 0.22631,-0.27011 0.39053,-0.33636c0.14604,-0.19448 0.37856,-0.32028 0.6405,-0.32028c0.17037,0 0.32832,0.05325 0.45812,0.14396c0.59747,0.19989 1.08226,0.41339 1.46819,0.6357c0.3695,0.01402 0.68296,0.31426 0.92432,0.74821c0.18881,0.23716 0.29271,0.47801 0.32582,0.71767c1.78046,1.77665 3.12743,6.26702 -0.09032,7.4162z" fill="#7d794a" stroke-width="0.5"/><path d="M253.02878,153.50303c0,-0.44208 0.35839,-0.80047 0.80047,-0.80047c0.02145,0 0.04268,0.00083 0.06369,0.0025c2.84861,-1.58128 1.38673,11.59388 -0.6673,1.32372c-0.1226,-0.14066 -0.19688,-0.32451 -0.19688,-0.52575z" fill="#7d794a" stroke-width="0.5"/><path d="M252.99488,159.55784l0.12042,-0.20069l0.03471,-0.03471l0.01982,-0.04489l0.14681,-0.18875l0.00442,-0.00349l0.00237,-0.00512l0.08389,-0.10486l0.11949,-0.09103l0.10845,-0.1039l0.14681,-0.08389l0.0341,-0.00957l0.0276,-0.02219l0.27267,-0.12583l0.04428,-0.00839l0.03804,-0.02421l0.18875,-0.06292l0.02267,-0.00173l0.01985,-0.01114l0.23069,-0.06292l0.10688,-0.00227l0.10371,-0.02594h0.09698l0.10211,-0.01278l0.23559,-0.03929l0.06669,0.00535l0.0649,-0.01623h0.02549c0.14597,-0.15494 0.35304,-0.25167 0.58274,-0.25167c0.34532,0 0.63957,0.21866 0.75183,0.52507l0.0015,0.00022l0.11495,0.15916l0.12382,0.15238l-0.00202,0.01623l0.00483,0.00666l0.04194,0.10486l0.02046,0.15023l0.03679,0.14706v0.33556l-0.02392,0.09561v0.09855l-0.02693,0.10774l-0.01537,0.16909l-0.03064,0.08789l-0.00714,0.09279l-0.01595,0.04787l-0.03234,0.27491l-0.02927,0.07723l-0.00631,0.08235l-0.04146,0.12439l-0.03163,0.20559l-0.0146,0.03474v0.03769l-0.04194,0.16778l-0.01476,0.0277l-0.0024,0.03128l-0.08389,0.2517l-0.02113,0.0332l-0.00679,0.03874l-0.08392,0.18875l-0.02232,0.02859l-0.00941,0.03503l-0.10489,0.18875l-0.05834,0.06237l-0.039,0.07601l-0.14681,0.16778l-0.04444,0.03087l-0.03087,0.04444l-0.1477,0.12926l-0.08603,0.08603l-0.02062,0.01236l-0.01358,0.01988l-0.18875,0.16778l-0.09359,0.04892l-0.08021,0.06874l-0.08389,0.04194l-0.0829,0.01841l-0.02497,0.01306l-0.00083,-0.00029l-0.0551,0.02939l-0.08389,0.02097h-0.02798l-0.0041,0.00247l-0.02456,0.02104l-0.00509,0.01377l-0.02229,0.00967l-0.04579,0.03925l-0.08389,0.04194l-0.04431,0.00983l-0.01755,0.01053l-0.01338,-0.00365l-0.04153,0.00922l-0.10963,0.04768l-0.25167,0.04194l-0.06669,-0.00535l-0.0649,0.01623h-0.98573l-0.03125,-0.00781l-0.02427,0.01214l-0.1698,-0.06064l-0.04098,-0.01025l-0.0089,0.00243l-0.01329,-0.00797l-0.11175,-0.02795l-0.01348,-0.02353l-0.03032,-0.01082l-0.06292,-0.04194l-0.05363,-0.05901l-0.06836,-0.04102l-0.04194,-0.04194l-0.03538,-0.05898l-0.00656,-0.00394l-0.04194,-0.04194l-0.00327,-0.00544l-0.01287,-0.01169l-0.00887,-0.01329l-0.01732,-0.00576l-0.01466,-0.03096c-0.77725,-0.24286 -1.53389,-1.25866 -2.11131,-3.56836c-0.01953,-0.07816 1.11002,0.38416 2.28646,0.56375l0.10909,-0.1697z" fill="#7d794a" stroke-width="0.5"/><path d="M252.06761,157.03777c0,-0.59299 0.48073,-1.07372 1.07372,-1.07372c0.59299,0 1.07372,0.48073 1.07372,1.07372c0,0.59299 -0.48073,1.07372 -1.07372,1.07372c-0.59299,0 -1.07372,-0.48073 -1.07372,-1.07372z" fill="#1c1b11" stroke-width="0.5"/><path d="M255.63126,156.65556c-0.24049,-0.61841 -0.19307,-1.21396 0.10585,-1.33025c0.29896,-0.11629 0.73627,0.29083 0.97676,0.90924c0.24049,0.61841 0.19314,1.21396 -0.10582,1.33022c-0.29896,0.11629 -0.7363,-0.29083 -0.97679,-0.9092z" fill="#1c1b11" stroke-width="0.5"/><path d="M254.43994,160.91655c-0.13028,-0.03724 -0.09308,-0.16752 -0.09308,-0.16752l0.02126,-0.07127c0.0545,-0.32041 0.07243,-0.6746 0.07207,-1.00026c0,0 -0.00003,-0.1355 0.1355,-0.1355c0.13554,0 0.13554,0.1355 0.13554,0.1355c-0.00032,0.34135 -0.02072,0.70851 -0.07576,1.0448l-0.02802,0.10118c0,0 -0.03724,0.13028 -0.16752,0.09308z" fill="#1c1b11" stroke-width="0.5"/><path d="M255.3576,160.83247l-0.02802,-0.10118c-0.05504,-0.33629 -0.0754,-0.70348 -0.07576,-1.0448c0,0 0,-0.1355 0.1355,-0.1355c0.13554,0 0.1355,0.1355 0.1355,0.1355c-0.00035,0.32566 0.01758,0.67985 0.07207,1.00026l0.02129,0.07127c0,0 0.03721,0.13032 -0.09308,0.16755c-0.13028,0.03724 -0.16752,-0.09308 -0.16752,-0.09308z" data-paper-data="{&quot;index&quot;:null}" fill="#1c1b11" stroke-width="0.5"/><path d="M252.75839,163.16497l-0.02802,-0.06404c-0.05504,-0.21292 -0.07544,-0.44535 -0.07576,-0.66144c0,0 0,-0.08578 0.13554,-0.08578c0.13554,0 0.1355,0.08578 0.1355,0.08578c-0.00035,0.20614 0.01758,0.43036 0.07207,0.63323l0.02126,0.04511c0,0 0.03724,0.08251 -0.09308,0.10608c-0.13028,0.02357 -0.16752,-0.05891 -0.16752,-0.05891z" data-paper-data="{&quot;index&quot;:null}" fill="#1c1b11" stroke-width="0.5"/><path d="M253.20553,163.33057l-0.02802,-0.06404c-0.05504,-0.21292 -0.07544,-0.44535 -0.07576,-0.66144c0,0 0,-0.08578 0.13554,-0.08578c0.13554,0 0.1355,0.08578 0.1355,0.08578c-0.00035,0.20614 0.01758,0.43036 0.07207,0.63323l0.02126,0.04511c0,0 0.03724,0.08248 -0.09308,0.10605c-0.13028,0.02357 -0.16752,-0.05891 -0.16752,-0.05891z" data-paper-data="{&quot;index&quot;:null}" fill="#1c1b11" stroke-width="0.5"/><path d="M253.7355,163.41337l-0.02802,-0.06404c-0.05504,-0.21292 -0.07544,-0.44535 -0.07576,-0.66144c0,0 0,-0.08578 0.13554,-0.08578c0.13554,0 0.1355,0.08578 0.1355,0.08578c-0.00035,0.20614 0.01758,0.43036 0.07207,0.63323l0.02129,0.04511c0,0 0.03721,0.08251 -0.09308,0.10608c-0.13028,0.02357 -0.16752,-0.05891 -0.16752,-0.05891z" data-paper-data="{&quot;index&quot;:null}" fill="#1c1b11" stroke-width="0.5"/><path d="M254.18267,163.44651l-0.02802,-0.06404c-0.05504,-0.21292 -0.07544,-0.44535 -0.07576,-0.66144c0,0 0,-0.08578 0.13554,-0.08578c0.13554,0 0.1355,0.08578 0.1355,0.08578c-0.00035,0.20614 0.01758,0.43036 0.07207,0.63323l0.02126,0.04511c0,0 0.03724,0.08251 -0.09308,0.10608c-0.13028,0.02357 -0.16752,-0.05891 -0.16752,-0.05891z" data-paper-data="{&quot;index&quot;:null}" fill="#1c1b11" stroke-width="0.5"/><path d="M254.59671,163.36371l-0.02802,-0.06404c-0.05504,-0.21292 -0.07544,-0.44535 -0.07576,-0.66144c0,0 0,-0.08578 0.13554,-0.08578c0.13554,0 0.1355,0.08578 0.1355,0.08578c-0.00035,0.20614 0.01758,0.43036 0.07207,0.63323l0.02126,0.04511c0,0 0.03724,0.08248 -0.09308,0.10605c-0.13028,0.02357 -0.16752,-0.05891 -0.16752,-0.05891z" data-paper-data="{&quot;index&quot;:null}" fill="#1c1b11" stroke-width="0.5"/><path d="M255.09354,163.24197l-0.02802,-0.05315c-0.05504,-0.17662 -0.0754,-0.36943 -0.07576,-0.54867c0,0 0,-0.07118 0.13554,-0.07118c0.13554,0 0.1355,0.07118 0.1355,0.07118c-0.00035,0.17101 0.01758,0.35701 0.07207,0.52527l0.02129,0.03743c0,0 0.03721,0.06846 -0.09308,0.08799c-0.13028,0.01953 -0.16752,-0.04886 -0.16752,-0.04886z" data-paper-data="{&quot;index&quot;:null}" fill="#1c1b11" stroke-width="0.5"/><path d="M255.50758,163.03385l-0.02802,-0.04585c-0.05504,-0.15244 -0.0754,-0.31881 -0.07576,-0.47352c0,0 0,-0.06141 0.1355,-0.06141c0.13554,0 0.1355,0.06141 0.1355,0.06141c-0.00035,0.14761 0.01758,0.30812 0.07207,0.45332l0.02129,0.03231c0,0 0.03721,0.05907 -0.09308,0.07595c-0.13028,0.01687 -0.16752,-0.0422 -0.16752,-0.0422z" data-paper-data="{&quot;index&quot;:null}" fill="#1c1b11" stroke-width="0.5"/><path d="M255.8057,162.85067l-0.02802,-0.0301c-0.05504,-0.10003 -0.07544,-0.20918 -0.07576,-0.31068c0,0 0,-0.04031 0.13554,-0.04031c0.13554,0 0.1355,0.04031 0.1355,0.04031c-0.00035,0.09682 0.01758,0.20217 0.07207,0.29742l0.02126,0.0212c0,0 0.03724,0.03874 -0.09308,0.04982c-0.13028,0.01108 -0.16752,-0.02766 -0.16752,-0.02766z" data-paper-data="{&quot;index&quot;:null}" fill="#1c1b11" stroke-width="0.5"/><path d="M251.56009,178.55037c-1.5166,0.03983 -2.97316,-0.30427 -4.3532,-0.94561c0,0 -0.36735,-0.17079 -0.19656,-0.53814c0.17082,-0.36735 0.53814,-0.19656 0.53814,-0.19656c1.22247,0.56868 2.50633,0.88468 3.8458,0.87293c-0.03407,-0.32211 -0.03125,-0.64838 0.01217,-0.96408c-1.57378,-0.08776 -3.01639,-0.40846 -4.42354,-1.17954c0,0 -0.35502,-0.19515 -0.15987,-0.55018c0.19515,-0.35499 0.55018,-0.15987 0.55018,-0.15987c1.34075,0.73912 2.72697,1.03292 4.24417,1.09222c0.13329,-0.32384 0.32294,-0.61751 0.57432,-0.85957c-1.68723,-0.13611 -3.39065,-0.63272 -4.61457,-1.81517c0,0 -0.29115,-0.28167 -0.00945,-0.57285c0.2817,-0.29118 0.57281,-0.00948 0.57281,-0.00948c1.28424,1.24434 3.20571,1.62223 4.95528,1.62754l0.11383,-0.00836c0,0 0.09878,-0.00634 0.20178,0.03605c-0.02036,-0.30594 -0.0373,-0.60906 -0.04239,-0.91378c-0.35109,-0.39681 -0.66625,-1.00878 -0.76669,-1.81636c-0.38032,-0.29867 -0.83431,-0.50433 -1.45419,-0.55729c0,0 -0.40353,-0.03583 -0.36773,-0.43933c0.03583,-0.40353 0.43936,-0.36773 0.43936,-0.36773c0.78106,0.07159 1.35036,0.33162 1.83195,0.70947c0.20239,0.02341 0.28385,0.17178 0.31625,0.27507c0.16634,0.15881 0.32451,0.33165 0.48079,0.51486l0.0926,0.01896l-0.01495,0.07303c0.04124,0.04934 0.08242,0.09942 0.12366,0.15007c0.73614,0.29771 1.2445,0.99677 1.68258,1.79058c0.33953,0.01691 0.68273,0.08437 1.04928,0.19198c0.16314,-0.05011 0.33347,-0.07553 0.50247,-0.06702c0.46238,0.02331 0.88176,0.15455 1.24998,0.36309c-0.04665,0.99725 -0.02766,2.05711 0.05786,3.09534c-0.24642,0.74373 -0.47442,1.55873 -0.66717,2.39564c-0.10877,0.02904 -0.21718,0.06007 -0.32528,0.09234c-2.33323,-0.17719 -5.1188,-0.13899 -6.91159,0.26857c-0.85628,0.00576 -1.69373,-0.04089 -2.5704,-0.09292c0,0 -0.40436,-0.0244 -0.38,-0.42879c0.02437,-0.40436 0.42879,-0.38 0.42879,-0.38c1.08745,0.06653 2.10731,0.12231 3.18637,0.07521c0.04383,-0.20697 0.1282,-0.43888 0.2404,-0.67803c-0.01149,-0.03388 -0.02261,-0.06798 -0.03327,-0.10233z" data-paper-data="{&quot;index&quot;:null}" fill="#ffffff" stroke-width="0.5"/></g><path d="M235.16501,152.2752c0.42473,-0.06825 0.84165,-0.02519 1.22103,0.10766c0.00379,-0.00062 0.00757,-0.00124 0.01137,-0.00185c1.93899,-0.31157 2.59956,1.14475 2.79373,1.78373c2.71577,3.97522 6.59838,6.05389 11.51365,6.30838c2.75925,0.20371 4.52726,-0.52582 7.1956,-1.20256c1.20353,-0.30524 2.40132,-1.07109 3.6246,-0.85846c1.7523,0.3046 4.09682,0.6912 4.80328,2.32345c0.69729,1.61107 -0.62336,3.56976 -1.6302,5.00783c-1.8734,2.67582 -6.52255,2.47313 -9.30196,2.61042c-6.15973,0.30427 -12.45546,0.63603 -17.63414,-3.43941c-2.19229,-1.72526 -3.7862,-4.66172 -5.62247,-6.75975c0,0 -1.64455,-1.88293 0.23837,-3.5275c0.25844,-0.22572 0.51239,-0.38499 0.75822,-0.49179c0.23621,-0.94019 1.01114,-1.69664 2.02893,-1.86019z" data-paper-data="{&quot;index&quot;:null}" fill="#7c5c32" stroke="none" stroke-width="0.5" stroke-linecap="butt"/></g></g></svg>