<svg version="1.1" xmlns="http://www.w3.org/2000/svg" xmlns:xlink="http://www.w3.org/1999/xlink" width="39.625" height="39.875" viewBox="0,0,39.625,39.875"><g transform="translate(-219.96828,-161.0641)"><g data-paper-data="{&quot;isPaintingLayer&quot;:true}" fill-rule="nonzero" stroke-linecap="butt" stroke-linejoin="miter" stroke-miterlimit="10" stroke-dasharray="" stroke-dashoffset="0" style="mix-blend-mode: normal"><g><path d="M219.96829,200.93283v-39.86873h39.625v39.86873z" fill="#a77337" stroke="#000000" stroke-width="0"/><path d="M224.38288,177.23492c-0.67082,-0.33541 -0.33541,-1.00623 -0.33541,-1.00623l0.04582,0.08541c0.00646,-4.25338 -2.06438,-9.18314 -0.04582,-13.33541c0,0 0.33541,-0.67082 1.00623,-0.33541c0.67082,0.33541 0.33541,1.00623 0.33541,1.00623c-1.93263,3.7234 0.19885,8.81559 0.20418,12.66459l-0.20418,0.58541c0,0 -0.33541,0.67082 -1.00623,0.33541z" fill="#ffd998" stroke="none" stroke-width="0.5"/><path d="M225.63288,194.73492c-0.67082,-0.33541 -0.33541,-1.00623 -0.33541,-1.00623l0.05603,-0.03788c0.2554,-1.44694 1.06463,-2.69864 1.38051,-4.15443c0.42075,-1.93905 0.10928,-4.23992 0.10928,-6.22228c0,0 0,-0.75 0.75,-0.75c0.75,0 0.75,0.75 0.75,0.75c0,2.09945 0.29526,4.47131 -0.14072,6.52773c-0.3022,1.42542 -1.15393,2.69116 -1.36949,4.09557l-0.19397,0.46211c0,0 -0.33541,0.67082 -1.00623,0.33541z" fill="#ffd998" stroke="none" stroke-width="0.5"/><path d="M222.25788,197.60992c-0.67082,-0.33541 -0.33541,-1.00623 -0.33541,-1.00623l0.10646,-0.21003c1.19218,-2.77921 0.01448,-4.22864 -0.18375,-7.02639c-0.15135,-2.13605 0.32369,-3.90919 0.63332,-5.92646c0,0 0.1233,-0.7398 0.8631,-0.6165c0.73979,0.1233 0.61649,0.86309 0.61649,0.86309c-0.3396,1.92396 -0.74248,3.53233 -0.61668,5.57353c0.1873,3.03912 1.3846,4.64449 0.06625,7.72361l-0.14354,0.28997c0,0 -0.33541,0.67082 -1.00623,0.33541z" fill="#ffd998" stroke="none" stroke-width="0.5"/><path d="M233.59329,179.4391c-0.75,0 -0.75,-0.75 -0.75,-0.75v-0.5c0.00629,-3.99976 -0.09504,-7.79025 -1.22115,-11.66895c0,0 -0.20604,-0.72115 0.51511,-0.92719c0.72115,-0.20604 0.92718,0.5151 0.92718,0.5151c1.13412,4.02464 1.27161,7.93461 1.27886,12.08104v0.5c0,0 0,0.75 -0.75,0.75z" fill="#ffd998" stroke="none" stroke-width="0.5"/><path d="M239.59329,186.9391c-0.75,0 -0.75,-0.75 -0.75,-0.75l0.0102,-0.62329c0.08787,-0.51824 0.2127,-1.0322 0.38068,-1.53027c0.22638,-2.58653 0.86013,-5.54937 0.61359,-8.1396c-0.19174,-2.01458 -0.76477,-4.00349 -0.87855,-6.04448c-0.09794,-1.75683 0.1807,-3.5498 -0.11572,-5.28906c0,0 -0.1233,-0.73979 0.6165,-0.86309c0.73979,-0.1233 0.86309,0.6165 0.86309,0.6165c1.06778,6.53177 0.98252,13.48614 0.36932,20.02685c-0.15815,0.47975 -0.2879,0.9712 -0.36932,1.46974l0.01021,0.3767c0,0 0,0.75 -0.75,0.75z" fill="#ffd998" stroke="none" stroke-width="0.5"/><path d="M250.13177,187.30128c-0.23717,-0.71151 0.47434,-0.94869 0.47434,-0.94869l-0.09934,0.34934c0.69435,-1.98692 -0.43778,-4.78223 -0.66045,-6.82048c-0.31824,-2.91312 -0.02429,-6.02025 -0.61346,-8.92026c0,0 -0.14709,-0.73544 0.58834,-0.88252c0.73543,-0.14709 0.88253,0.58835 0.88253,0.58835c0.58549,2.96921 0.29982,6.10404 0.63654,9.07974c0.26835,2.37152 1.33767,5.10294 0.58954,7.42953l-0.84934,0.59934c0,0 -0.71152,0.23717 -0.94869,-0.47434z" fill="#ffd998" stroke="none" stroke-width="0.5"/><path d="M245.71829,179.5641c-0.75,0 -0.75,-0.75 -0.75,-0.75v-0.25c0.014,-3.76972 1.13782,-7.43179 1.125,-11.125c0,0 0,-0.75 0.75,-0.75c0.75,0 0.75,0.75 0.75,0.75c-0.01135,3.72752 -1.13694,7.32952 -1.125,11.125v0.25c0,0 0,0.75 -0.75,0.75z" fill="#ffd998" stroke="none" stroke-width="0.5"/><path d="M256.81296,179.59443c-0.41948,-0.41948 -0.17536,-0.83897 -0.05498,-0.99599c0.54978,-4.2602 -0.57745,-9.70551 -2.46051,-13.44893c0,0 -0.33541,-0.67082 0.33541,-1.00623c0.67082,-0.33541 1.00623,0.33541 1.00623,0.33541c2.04455,4.11163 3.22127,9.95272 2.57164,14.56648l-0.33713,0.54926c0,0 -0.53033,0.53033 -1.06066,0z" fill="#ffd998" stroke="none" stroke-width="0.5"/><path d="M235.59329,200.9391c-0.75,0 -0.75,-0.75 -0.75,-0.75l0.00256,-0.68814c-0.13415,-0.85691 -0.74292,-1.48389 -0.87108,-2.33852c-0.31744,-2.11678 1.07441,-4.11393 1.37873,-6.09663c0,0 0.1233,-0.7398 0.8631,-0.6165c0.73979,0.1233 0.61649,0.86309 0.61649,0.86309c-0.3197,1.81122 -1.62353,3.74165 -1.37127,5.65337c0.10566,0.80067 0.73142,1.55907 0.87892,2.41147l0.00256,0.81186c0,0 0,0.75 -0.75,0.75z" fill="#ffd998" stroke="none" stroke-width="0.5"/><path d="M228.96829,200.6891c-0.75,0 -0.75,-0.75 -0.75,-0.75v-0.125c0,-1.53852 0.02275,-2.92739 0.39739,-4.4319c0,0 0.1819,-0.72761 0.90951,-0.5457c0.72761,0.1819 0.5457,0.90951 0.5457,0.90951c-0.34741,1.38374 -0.3526,2.65094 -0.3526,4.06809v0.125c0,0 0,0.75 -0.75,0.75z" fill="#ffd998" stroke="none" stroke-width="0.5"/><path d="M246.71829,200.6891c-0.75,0 -0.75,-0.75 -0.75,-0.75v-0.25c0,-1.58005 -0.01879,-3.07816 -0.24247,-4.64393c0,0 -0.10606,-0.74247 0.6364,-0.84853c0.74246,-0.10607 0.84852,0.63639 0.84852,0.63639c0.23373,1.6361 0.25754,3.20613 0.25754,4.85607v0.25c0,0 0,0.75 -0.75,0.75z" fill="#ffd998" stroke="none" stroke-width="0.5"/><path d="M255.21829,199.0641c-0.75,0 -0.75,-0.75 -0.75,-0.75v-0.5c0.00256,-1.11291 -0.11976,-2.05978 -0.56436,-3.07956c0,0 -0.29544,-0.68936 0.39392,-0.9848c0.68936,-0.29544 0.9848,0.39392 0.9848,0.39392c0.51503,1.2191 0.68295,2.34776 0.68564,3.67044v0.5c0,0 0,0.75 -0.75,0.75z" fill="#ffd998" stroke="none" stroke-width="0.5"/></g></g></g></svg>