<svg version="1.1" xmlns="http://www.w3.org/2000/svg" xmlns:xlink="http://www.w3.org/1999/xlink" width="55.09592" height="43.85474" viewBox="0,0,55.09592,43.85474"><g transform="translate(-212.52005,-156.61463)"><g data-paper-data="{&quot;isPaintingLayer&quot;:true}" fill-rule="nonzero" stroke-linecap="butt" stroke-linejoin="miter" stroke-miterlimit="10" stroke-dasharray="" stroke-dashoffset="0" style="mix-blend-mode: normal"><path d="M230.23773,174.71756c-0.94868,-0.31623 -0.63246,-1.26491 -0.63246,-1.26491l0.05857,-0.14393c0.63326,-3.45996 0.79626,-7.16973 1.11305,-10.69358c0,0 0.09054,-0.99589 1.08643,-0.90536c0.99589,0.09054 0.90536,1.08643 0.90536,1.08643c-0.32946,3.58742 -0.49996,7.34467 -1.13709,10.87027l-0.12894,0.41861c0,0 -0.31623,0.94868 -1.26491,0.63246z" fill="#443b00" stroke="none" stroke-width="0.5"/><path d="M212.52006,161.79692v-5.18229h55.09592v5.18229z" fill="#655700" stroke="#000000" stroke-width="0"/><path d="M218.15836,200.42229c-1.24933,0.04101 -1.29033,-1.20832 -1.29033,-1.20832l-0.04496,-1.36982c-0.09388,-2.96748 -0.12582,-6.08131 -0.52078,-9.02309c-1.19371,-9.02609 -1.04387,-18.20938 -1.43185,-27.30211c0,0 -0.05226,-1.24892 1.19665,-1.30118c1.24891,-0.05226 1.30117,1.19665 1.30117,1.19665c0.36909,9.01129 0.21069,18.13447 1.41213,27.07639c0.40055,3.02661 0.43783,6.21845 0.54135,9.2713l0.04496,1.36982c0,0 0.041,1.24933 -1.20833,1.29034z" fill="#655700" stroke="none" stroke-width="0.5"/><path d="M263.4164,200.46132c-1.2443,0.11928 -1.36357,-1.12502 -1.36357,-1.12502l-0.14928,-1.56775c-0.05247,-3.49429 0.3475,-6.98368 0.32801,-10.4917c0.27285,-3.25897 0.82778,-6.49572 0.9623,-9.76711c0.23903,-5.81279 -0.67009,-11.52633 -0.18041,-17.32233c0,0 0.10523,-1.24556 1.3508,-1.14033c1.24556,0.10523 1.14033,1.35079 1.14033,1.35079c-0.4857,5.74892 0.42213,11.4285 0.18781,17.19797c-0.13305,3.27597 -0.68445,6.51622 -0.96273,9.77836c0.02486,3.42899 -0.38395,6.84204 -0.32995,10.25572l0.14172,1.4678c0,0 0.11928,1.2443 -1.12502,1.36357z" fill="#655700" stroke="none" stroke-width="0.5"/><g stroke="none" stroke-width="0.5"><path d="M252.32276,165.82115c0,0 0.23718,-0.71151 0.94869,-0.47434c0.32823,0.10941 0.45457,0.31976 0.49544,0.51465c-1.62864,2.84683 -2.78337,6.27616 -3.74048,9.4676c0.72941,-3.1848 1.28098,-6.41343 2.29636,-9.5079z" fill="#69685e"/><path d="M243.94663,174.30031c-0.06109,-0.12008 -0.04335,-0.25767 0.01524,-0.39861l-0.26883,-0.13442c-0.08456,-0.04009 -0.14304,-0.12623 -0.14304,-0.22603c0,-0.13807 0.11193,-0.25 0.25,-0.25h0.352c0.08339,-0.05462 0.04289,-0.16923 -0.03693,-0.28365l-0.07023,-0.02341c-0.10216,-0.03142 -0.17641,-0.12654 -0.17641,-0.239c0,-0.11246 0.07426,-0.20758 0.17641,-0.23899l0.23335,-0.07778c0.10727,-0.03444 0.13022,-0.1378 0.11508,-0.26449l-0.00522,0.00349l-0.15732,-0.23598c-0.02768,-0.04024 -0.04388,-0.08899 -0.04388,-0.14152c0,-0.13807 0.11193,-0.25 0.25,-0.25c0.02969,0 0.05818,0.00518 0.0846,0.01468l0.13983,0.04661c-0.01542,-0.03606 -0.05359,-0.10896 -0.09271,-0.19722c-0.03947,0.00987 -0.04565,0.00784 -0.00433,-0.00983c-0.10449,-0.23843 -0.21001,-0.58051 0.09752,-0.61798c-0.04738,-0.04549 -0.07687,-0.10948 -0.07687,-0.18035c0,-0.11246 0.07425,-0.20758 0.17641,-0.23899l0.23335,-0.07778l0.00438,0.01314l0.03463,-0.02274c0.04341,-0.00018 0.10484,-0.0053 0.1711,-0.01113c0.00272,-0.01725 0.00546,-0.03444 0.00824,-0.05158l-0.18438,-0.11062c-0.07489,-0.04318 -0.1253,-0.12408 -0.1253,-0.21673c0,-0.11246 0.07426,-0.20757 0.17641,-0.23899l0.23335,-0.07779l0.00449,0.01348l0.01897,-0.01268c0.00786,-0.03474 0.01586,-0.06912 0.02399,-0.1031c-0.23781,-0.10195 -0.49215,-0.29466 -0.35121,-0.648c0.06094,-0.15278 0.33826,-0.24105 0.58793,-0.25236c-0.18016,-0.31823 0.07864,-0.71158 0.42324,-0.75254c-0.08337,-0.02516 -0.17551,-0.05468 -0.2679,-0.08631l-0.02306,0.09225l-0.31335,-0.07833c-0.11133,-0.02526 -0.19444,-0.12483 -0.19444,-0.24381c0,-0.11246 0.07425,-0.20758 0.17641,-0.23899l0.23335,-0.07778c0.01212,-0.00389 0.14338,-0.04916 0.28296,-0.08168c-0.24144,-0.1744 -0.50648,-0.49316 -0.42433,-0.67478c0.02218,-0.04903 0.06892,-0.08765 0.12963,-0.11568c-0.16809,-0.20721 0.13434,-0.37702 0.4864,-0.5345c0.17952,-0.26719 0.48454,-0.44301 0.83064,-0.44301c0.1707,0 0.33142,0.04278 0.47201,0.11819c0.30354,-0.51932 0.86699,-0.86819 1.51192,-0.86819c0.33453,0 0.64714,0.09387 0.91292,0.2567c1.97648,-0.23203 4.0395,0.69126 3.02337,2.46948c-0.06634,0.11608 -0.21558,0.23367 -0.42241,0.34559c0.00198,0.00861 0.00394,0.01727 0.00587,0.02596c0.18588,0.83647 -0.22872,1.27201 -0.71012,1.70591c0.03482,0.13768 0.0533,0.28186 0.0533,0.43035c0,0.15197 -0.01937,0.29941 -0.05578,0.44c-0.04579,0.11885 -0.09111,0.23796 -0.13598,0.35729c-0.132,0.25747 -0.32595,0.47795 -0.56216,0.64176c-0.02775,0.46535 -0.11053,1.0319 -0.2401,1.64358c-0.44948,1.36417 -0.85217,2.72277 -1.22833,4.01565c-0.17658,0.60691 -1.15864,2.08885 -1.18603,3.01653c-0.17165,0.46962 -0.31907,0.93173 -0.43689,1.38307c-0.20039,0.46538 -0.33213,0.96728 -0.38249,1.49293c-0.27898,0.61202 -0.59563,1.17562 -0.91952,1.56537c0.40544,0.19112 -0.05756,0.41694 0.06888,0.8062l0.09817,0.05652c-0.01429,0.05926 -0.02809,0.1184 -0.04141,0.17743c-0.16371,-0.02811 -0.33015,-0.04826 -0.49889,-0.06004c-0.05471,-0.17213 -0.13029,-0.46778 -0.0469,-0.58326c-0.33622,0.22451 -0.66613,0.20433 -0.95592,-0.20009c-0.19257,-0.07648 -0.33578,-0.17843 -0.35344,-0.31107c-0.02299,-0.17263 -0.00825,-0.27318 0.0275,-0.3368c-0.06387,-0.16134 -0.12,-0.32554 -0.16923,-0.49224c-0.14953,-0.0296 -0.26817,-0.07762 -0.2594,-0.18397c0.00704,-0.08537 0.0641,-0.17508 0.14633,-0.25526c-0.06148,-0.27705 -0.10671,-0.55983 -0.13932,-0.84672c-0.09712,-0.0343 -0.16671,-0.12692 -0.16671,-0.23579c0,-0.08816 0.04563,-0.16565 0.11455,-0.21017l0.01084,-0.00723c-0.00496,-0.07081 -0.00929,-0.14182 -0.01304,-0.21299l-0.00104,0.00155l-0.23559,-0.15706c-0.06893,-0.04451 -0.11455,-0.12201 -0.11455,-0.21016c0,-0.11898 0.08311,-0.21854 0.19444,-0.24381l0.13742,-0.03435c-0.00054,-0.05417 -0.00082,-0.1084 -0.00089,-0.16268c-0.33345,-0.05932 -0.69023,-0.20428 -0.64163,-0.57622c0.01501,-0.11484 0.25602,-0.23705 0.54591,-0.31871c-0.57784,-0.29951 -0.36601,-0.7258 0.01512,-0.92273c-0.0225,-0.00962 -0.04478,-0.01961 -0.06681,-0.02999l-0.07222,0.10833l-0.23559,-0.15706c-0.06893,-0.04451 -0.11455,-0.12201 -0.11455,-0.21016c0,-0.11246 0.07426,-0.20758 0.17641,-0.239l0.2096,-0.06986c0.01854,-0.01323 0.02845,-0.02816 0.03133,-0.04441l-0.2743,-0.13715c-0.08456,-0.04009 -0.14305,-0.12623 -0.14305,-0.22603c0,-0.11898 0.08311,-0.21854 0.19444,-0.24381l0.26185,-0.06546c0.06654,-0.07917 0.04112,-0.17629 -0.02622,-0.27645l-0.28703,-0.14352c-0.08456,-0.04009 -0.14305,-0.12623 -0.14305,-0.22603c0,-0.13807 0.11193,-0.25 0.25,-0.25h0.03229c-0.00585,-0.01198 -0.01147,-0.02409 -0.01686,-0.03633c-0.09581,-0.0488 -0.17988,-0.11929 -0.22809,-0.21908c-0.20849,-0.43153 0.05131,-0.66977 0.32235,-0.77006c-0.29279,-0.14624 -0.61742,-0.41258 -0.58944,-0.62219c0.01295,-0.097 0.23838,-0.21907 0.48305,-0.29224c-0.05183,-0.13488 -0.10996,-0.26648 -0.17509,-0.39449zM244.46563,179.40372c0.00044,-0.01191 0.00087,-0.02382 0.00132,-0.03573c-0.091,0.02171 -0.10505,0.02367 -0.00132,0.03573z" fill="#69685e"/><path d="M255.37639,162.47606c0,0.11427 -0.02555,0.22257 -0.07126,0.31949l-0.3008,0.6768c-0.07734,0.23132 -0.15624,0.44571 -0.2369,0.64425c-0.22695,0.31476 -0.41818,0.65699 -0.56776,1.02075c-0.0871,0.13935 -0.1729,0.28039 -0.25745,0.42301c-1.24413,1.44699 -2.90374,0.69964 -5.42357,0.28001c-0.72941,-0.12147 -1.58915,0.05238 -2.21586,-0.51745c-0.56665,-0.51522 -0.97125,-2.4906 -1.22415,-3.24654c0,0 -0.04433,-0.133 -0.03716,-0.30315c-0.79194,-1.19901 0.09372,-2.73531 1.27625,-3.38455c1.86954,-1.02642 4.2785,-0.72252 6.31852,-0.72252c0,0 0.49541,0 0.68095,0.40264c2.13149,0.57708 3.68003,2.61797 2.04493,4.26097c0.00935,0.04731 0.01426,0.09623 0.01426,0.14629zM252.0273,159.14694c-1.81012,-0.07618 -5.92864,-0.26477 -5.81778,1.68189c0.04441,0.77989 4.80826,0.84109 5.45456,0.89986c2.35709,0.18258 4.24766,-1.62818 1.06389,-2.25866l-0.66596,-0.30343c0,0 -0.01309,-0.00655 -0.03472,-0.01965z" fill="#393100"/><path d="M245.72935,184.6592l0.07761,-0.11288c0.28153,-0.4095 0.6007,-0.82572 0.92168,-1.25076c0.41109,-1.04622 0.94043,-2.01695 1.40116,-3.05359c0,0 0.07726,-0.17383 0.24151,-0.3075c-0.16995,0.46588 -0.31601,0.92434 -0.43291,1.3722c-0.22214,0.5159 -0.35992,1.07666 -0.39599,1.66492c-0.33074,0.81842 -0.60069,1.63683 -0.78038,2.43354c-0.27694,-0.04755 -0.56167,-0.07233 -0.85219,-0.07233c-0.09583,0 -0.19105,0.00269 -0.28555,0.00802c-0.12539,-0.3464 0.10506,-0.6816 0.10506,-0.6816z" fill="#69685e"/></g><path d="M236.58545,162.21316l-1.15941,0.45711c-2.4835,0.22339 -5.13295,0.04933 -7.58238,-0.38705c0,0 -0.98387,-0.17889 -0.80498,-1.16276c0.00601,-0.03306 0.01293,-0.06481 0.02069,-0.0953c-0.01509,-0.06065 -0.02623,-0.12644 -0.03272,-0.19781c-0.09054,-0.99589 0.90536,-1.08643 0.90536,-1.08643c2.506,-0.22528 4.96776,-0.19162 7.49725,-0.19162l1.03706,0.09872c0,0 0.99504,0.0995 0.89553,1.09454c-0.02142,0.21421 -0.08434,0.37769 -0.16991,0.50236c0.07106,0.6671 -0.6065,0.96824 -0.6065,0.96824z" fill="#414141" stroke="none" stroke-width="0.5"/><path d="M250.36772,158.95545c0,-0.13807 0.11193,-0.25 0.25,-0.25c0.13807,0 0.25,0.11193 0.25,0.25c0,0.13807 -0.11193,0.25 -0.25,0.25c-0.13807,0 -0.25,-0.11193 -0.25,-0.25z" fill="#737267" stroke="none" stroke-width="0.5"/><path d="M233.58542,162.70568c0,-0.13807 0.11193,-0.25 0.25,-0.25c0.13807,0 0.25,0.11193 0.25,0.25c0,0.13807 -0.11193,0.25 -0.25,0.25c-0.13807,0 -0.25,-0.11193 -0.25,-0.25z" fill="#737267" stroke="none" stroke-width="0.5"/><path d="M229.17889,162.70568c0,-0.13807 0.11193,-0.25 0.25,-0.25c0.13807,0 0.25,0.11193 0.25,0.25c0,0.13807 -0.11193,0.25 -0.25,0.25c-0.13807,0 -0.25,-0.11193 -0.25,-0.25z" fill="#737267" stroke="none" stroke-width="0.5"/></g></g></svg>