<svg version="1.1" xmlns="http://www.w3.org/2000/svg" xmlns:xlink="http://www.w3.org/1999/xlink" width="42.61369" height="47.64089" viewBox="0,0,42.61369,47.64089"><g transform="translate(-218.98359,-154.45903)"><g data-paper-data="{&quot;isPaintingLayer&quot;:true}" fill-rule="nonzero" stroke-width="0.5" stroke-linejoin="miter" stroke-miterlimit="10" stroke-dasharray="" stroke-dashoffset="0" style="mix-blend-mode: normal"><path d="M227.12357,188.83168l30.275,-31.85l3.9375,-2.1l-0.0875,3.325l-30.7125,32.6375z" fill="#b3b3b3" stroke="#b3b3b3" stroke-linecap="round"/><path d="M231.86107,192.56474c-0.83053,0 -0.97128,-0.68978 -0.99513,-0.92357c-1.58954,-0.04731 -0.53939,-1.5358 -0.1101,-2.60957l0.5405,-0.65065c0,0 0.2344,-0.28129 0.58974,-0.3616c0.46211,-1.00199 1.29873,-2.08745 1.60823,-2.76957c0,0 0.4138,-0.91037 1.32417,-0.49656c0.91037,0.4138 0.49656,1.32417 0.49656,1.32417c-0.30831,0.67713 -1.59258,3.95286 -2.45397,5.01087c0,0.02317 0,0.04634 0,0.06952v0.40698c0,0 0,1 -1,1z" fill="#b3b3b3" stroke="none" stroke-linecap="butt"/><path d="M231.34931,193.75541c-1.36529,0.56485 -3.21333,2.50688 -4.44191,4.5761c-1.04718,0.28627 -1.96761,1.18475 -2.62027,2.22589c-0.84063,0.13065 -1.57155,0.54377 -2.34535,1.40835c-0.03716,0.04154 -0.07418,0.08638 -0.11081,0.13419c-1.32039,-0.22407 -2.43479,-1.17216 -2.84737,-2.47657c0.63102,-1.11115 1.01793,-2.55659 1.06982,-3.28226c0.00587,-0.01504 0.01156,-0.03016 0.0171,-0.04534c0.07978,-0.15394 0.13344,-0.303 0.16413,-0.44694c2.16936,-1.28655 4.32512,-3.58442 5.31074,-5.7676c0.33216,-0.31704 0.66039,-0.63671 0.98502,-0.95886c0.5813,0.52084 2.86513,1.76973 3.2078,2.01595c0.56081,0.40296 1.56233,1.31068 2.71326,2.2651c-0.33206,0.06988 -0.69926,0.18531 -1.10215,0.352z" data-paper-data="{&quot;index&quot;:null}" fill="#885c36" stroke="none" stroke-linecap="butt"/><path d="M249.66565,163.00182c-0.00164,-0.00911 -0.00335,-0.01821 -0.00518,-0.0273c0.0056,-0.00649 0.0119,-0.01304 0.01886,-0.01962c-0.00457,0.01564 -0.00913,0.03128 -0.01368,0.04692z" data-paper-data="{&quot;index&quot;:null}" fill="#885c36" stroke="none" stroke-linecap="butt"/><path d="M224.899,199.72234c-0.12107,0.14113 -0.23682,0.28869 -0.34674,0.441c-1.74174,-1.0873 -3.07964,-2.43968 -4.37974,-4.09896c0.02649,-0.07307 0.04707,-0.14492 0.06213,-0.21555c0.11159,-0.06618 0.22314,-0.13503 0.33449,-0.20641c0.01657,0.03011 0.03314,0.06024 0.04971,0.09035c1.28251,1.61998 2.57023,2.93219 4.28014,3.98959z" data-paper-data="{&quot;index&quot;:null}" fill="#4c331e" stroke="none" stroke-linecap="butt"/><path d="M226.09248,188.96557c0.06292,-0.13339 0.16311,-0.16293 0.24353,-0.16118l0.06187,0.15489c0.08356,0.34025 2.95288,1.90061 3.34034,2.17901c0.34108,0.24507 0.84517,0.67685 1.44673,1.19229c0.29073,0.36917 0.54681,0.76909 0.75781,1.20752c-0.16824,0.05302 -0.34393,0.11625 -0.52716,0.1902c-0.91303,-1.85515 -2.71515,-2.9834 -4.44286,-4.02901c-0.20181,-0.10938 -0.40827,-0.21069 -0.61873,-0.30231l-0.12831,-0.06037c0,0 -0.25215,-0.11893 -0.13322,-0.37107z" data-paper-data="{&quot;index&quot;:null}" fill="#4c331e" stroke="none" stroke-linecap="butt"/><path d="M225.47799,190.60878c0,0 -0.08179,-0.03858 -0.13023,-0.11836c0.07067,-0.13753 0.13703,-0.27489 0.19879,-0.4118c0.09036,-0.01137 0.16929,0.02586 0.16929,0.02586l0.1087,0.05162c2.00005,0.83452 3.77777,2.13305 5.01841,3.85754c-0.15124,0.09036 -0.30621,0.19382 -0.46372,0.309c-1.17737,-1.63247 -2.86857,-2.86904 -4.76826,-3.6515z" data-paper-data="{&quot;index&quot;:null}" fill="#b97b48" stroke="none" stroke-linecap="butt"/><path d="M224.65089,191.70644c1.86104,0.51871 3.62273,1.82565 4.98786,3.22587c-0.13407,0.12213 -0.26858,0.2508 -0.40288,0.38524c-1.24761,-1.27997 -2.83487,-2.47903 -4.52562,-3.01237c-0.10527,0.03543 -0.21133,-0.01084 -0.21133,-0.01084c-0.07811,-0.03409 -0.15647,-0.06771 -0.23506,-0.10074c0.12472,-0.16468 0.24472,-0.33083 0.35948,-0.49795l0.02758,0.01079z" data-paper-data="{&quot;index&quot;:null}" fill="#b97b48" stroke="none" stroke-linecap="butt"/><path d="M228.23706,196.42995c-1.45102,-1.30524 -2.78923,-2.63617 -4.54031,-3.535c0.12506,-0.14524 0.24684,-0.29232 0.36491,-0.44083c1.738,0.91066 3.08388,2.24491 4.53463,3.54934c-0.12103,0.13855 -0.24093,0.28091 -0.3592,0.42649z" data-paper-data="{&quot;index&quot;:null}" fill="#b97b48" stroke="none" stroke-linecap="butt"/><path d="M227.44293,197.49358c-1.53966,-1.06634 -2.86945,-3.03345 -4.44203,-3.84372c0.12812,-0.13 0.25392,-0.26226 0.3771,-0.39644c1.56945,0.93215 2.80463,2.7697 4.38121,3.79466c-0.10773,0.14648 -0.21332,0.29515 -0.31628,0.44549z" data-paper-data="{&quot;index&quot;:null}" fill="#b97b48" stroke="none" stroke-linecap="butt"/><path d="M227.08056,198.0472c-0.05897,0.09441 -0.11672,0.18921 -0.17316,0.2843c-0.08611,0.02354 -0.17136,0.05122 -0.25568,0.08279c-1.52382,-1.27777 -3.06388,-2.62647 -4.60816,-3.87234c0.14151,-0.1209 0.28144,-0.24504 0.41938,-0.37206c1.54733,1.24931 3.08939,2.60049 4.61765,3.87732z" data-paper-data="{&quot;index&quot;:null}" fill="#b97b48" stroke="none" stroke-linecap="butt"/><path d="M221.33083,195.11304c1.5913,1.04693 2.70324,2.77535 4.2378,3.94639c-0.14264,0.118 -0.28051,0.24596 -0.41306,0.38201c-1.54091,-1.20586 -2.69107,-2.91179 -4.30794,-3.98303c0.16191,-0.11019 0.32315,-0.22547 0.48319,-0.34538z" data-paper-data="{&quot;index&quot;:null}" fill="#b97b48" stroke="none" stroke-linecap="butt"/><path d="M236.35529,193.82471c-0.09303,0.74421 -0.83724,0.65118 -0.83724,0.65118l-0.75406,-0.09627c-5.57751,-1.14139 -8.15248,-4.91185 -12.02074,-8.7801c0,0 -0.53033,-0.53033 0,-1.06066c0.53033,-0.53033 1.06066,0 1.06066,0c3.60978,3.60978 6.04989,7.34946 11.25426,8.3699l0.64594,0.07872c0,0 0.74421,0.09302 0.65118,0.83723z" fill="#949494" stroke="none" stroke-linecap="butt"/><path d="M229.04857,190.05668l29.4875,-31.325l-1.4,-1.6625" fill="none" stroke="#949494" stroke-linecap="round"/><path d="M258.53607,158.55668l2.74663,-0.4375" fill="none" stroke="#949494" stroke-linecap="round"/></g></g></svg>