<svg version="1.1" xmlns="http://www.w3.org/2000/svg" xmlns:xlink="http://www.w3.org/1999/xlink" width="963.74174" height="742.0621" viewBox="0,0,963.74174,742.0621"><defs><radialGradient cx="240.00002" cy="179.6997" r="362.61261" gradientUnits="userSpaceOnUse" id="color-1"><stop offset="0" stop-color="#000000" stop-opacity="0"/><stop offset="1" stop-color="#000000"/></radialGradient><radialGradient cx="240.00002" cy="179.69971" r="362.61262" gradientUnits="userSpaceOnUse" id="color-2"><stop offset="0" stop-color="#000000" stop-opacity="0"/><stop offset="1" stop-color="#000000"/></radialGradient><radialGradient cx="240.00002" cy="179.69972" r="362.61262" gradientUnits="userSpaceOnUse" id="color-3"><stop offset="0" stop-color="#000000" stop-opacity="0"/><stop offset="1" stop-color="#000000"/></radialGradient><radialGradient cx="240.00002" cy="179.69972" r="362.61262" gradientUnits="userSpaceOnUse" id="color-4"><stop offset="0" stop-color="#000000" stop-opacity="0"/><stop offset="1" stop-color="#000000"/></radialGradient></defs><g transform="translate(243.73273,182.50275)"><g data-paper-data="{&quot;isPaintingLayer&quot;:true}" fill-rule="nonzero" stroke-linecap="butt" stroke-linejoin="miter" stroke-miterlimit="10" stroke-dasharray="" stroke-dashoffset="0" style="mix-blend-mode: normal"><path d="M-122.61259,450.72073v-542.04204h725.22523v542.04204z" fill="url(#color-1)" stroke="#000000" stroke-width="2"/><path d="M-122.61259,450.72073v-542.04204h725.22523v542.04204z" fill="url(#color-2)" stroke="#000000" stroke-width="2"/><path d="M-122.61259,450.72074v-542.04204h725.22523v542.04204z" fill="url(#color-3)" stroke="#000000" stroke-width="2"/><path d="M-122.61259,450.72074v-542.04204h725.22523v542.04204z" fill="url(#color-4)" stroke="#000000" stroke-width="2"/><path d="M-242.73272,450.78078v-539.27927h147.14715v539.27927z" fill="#000000" stroke="#000000" stroke-width="2"/><path d="M-242.73272,450.78078v-539.27927h147.14715v539.27928z" fill="#000000" stroke="#000000" stroke-width="2"/><path d="M571.86187,447.77777v-539.27928h147.14715v539.27928z" fill="#000000" stroke="#000000" stroke-width="2"/><path d="M597.71191,-34.35424l-716.45398,4.19949l-1.52238,-147.14269l716.45398,-4.19949z" fill="#000000" stroke="#000000" stroke-width="2"/><path d="M602.60681,554.35446l-770.78299,4.19949l-1.63782,-147.14269l770.78298,-4.19949z" fill="#000000" stroke="#000000" stroke-width="2"/><path d="M73.5,273.5v-187h333v187z" fill="#655028" stroke="#000000" stroke-width="2"/><text transform="translate(79.25,107.61144) scale(0.39233,0.39233)" font-size="40" xml:space="preserve" fill="#250000" fill-rule="nonzero" stroke="none" stroke-width="1" stroke-linecap="butt" stroke-linejoin="miter" stroke-miterlimit="10" stroke-dasharray="" stroke-dashoffset="0" font-family="Marker" font-weight="normal" text-anchor="start" style="mix-blend-mode: normal"><tspan x="0" dy="0">You feel your adventure coming to an end</tspan><tspan x="0" dy="46.15px">as you succumb to your wounds.</tspan><tspan x="0" dy="46.15px"> </tspan><tspan x="0" dy="46.15px">The claws of death pull you from what's</tspan><tspan x="0" dy="46.15px">left of your body. </tspan><tspan x="0" dy="46.15px"> </tspan><tspan x="0" dy="46.15px">You Died, good luck next time.</tspan><tspan x="0" dy="46.15px"> </tspan></text></g></g></svg>