<svg version="1.1" xmlns="http://www.w3.org/2000/svg" xmlns:xlink="http://www.w3.org/1999/xlink" width="9.81407" height="16.04469" viewBox="0,0,9.81407,16.04469"><g transform="translate(-234.60799,-178.68377)"><g data-paper-data="{&quot;isPaintingLayer&quot;:true}" fill="#9a542c" fill-rule="nonzero" stroke="none" stroke-width="0.5" stroke-linecap="butt" stroke-linejoin="miter" stroke-miterlimit="10" stroke-dasharray="" stroke-dashoffset="0" style="mix-blend-mode: normal"><path d="M235.07092,179.39887l0.00753,-0.01318l0.02863,-0.00716c0.0765,-0.04096 0.15894,-0.07226 0.2457,-0.09227l0.01884,-0.01615l0.12154,-0.06077l0.0762,-0.04572l0.03794,-0.06639l0.12465,-0.03116l0.11018,-0.06611l0.04516,0.01232l0.09905,-0.04952l0.00557,-0.00975l0.02786,-0.00697l0.02492,-0.01246l0.2243,-0.04984l0.03924,-0.00981l0.01464,-0.00732l0.00557,-0.00975l0.02786,-0.00697l0.02492,-0.01246l0.2243,-0.04984l0.22291,-0.05573l0.02786,0l0.02804,-0.00623l0.00935,0.00623h0.07612l0.14329,-0.02866l0.09949,0.00474l0.09663,-0.02416h3.99038l0.18374,0.04593l0.18765,0.02559l0.2131,0.08524l0.07992,0.02664l0.15505,0.03876l0.09717,0.05183l0.10751,0.02389l0.12874,0.06437l0.07681,0.0256l0.00913,0.00581l0.11054,0.02456l0.02158,-0.00588l0.02827,0.01696l0.05762,0.01281l0.02492,0.01246l0.02786,0.00697l0.00557,0.00975l0.03779,0.0189l0.12205,0.10461l0.04487,0.02692l0.02538,0.01269l0.00987,0.00846l0.05771,0.03463l0.07212,0.07212l0.12019,0.07212l0.09615,0.09615l0.02682,0.04469l0.00845,0.00724l0.00042,0.00754l0.00135,0.00225l0.05586,0.04539l0.14423,0.19231l0.06238,0.14815l0.0863,0.13562l0.00573,0.01718l0.11802,0.17703l0.02125,0.05951l0.04112,0.04798l0.16313,0.32626l0.00975,0.00557l0.00697,0.02786l0.01246,0.02492l0.04984,0.2243l0.05573,0.22291v0.02786l0.00623,0.02804l-0.00623,0.00935v0.03522l0.03866,0.07732l0.02389,0.10751l0.05183,0.09717l0.03692,0.1477c-0.06364,0.17977 -0.11442,0.32789 -0.15017,0.43178c-1.3123,3.81371 -1.3541,7.9743 -1.53377,11.96707c-0.32681,0.1877 -0.76342,0.3351 -1.24332,0.47483l-1.13956,0l-0.00935,0.00623l-0.02804,-0.00623h-0.02786l-0.19231,-0.04808l-1.0844,0c-0.23914,-0.32005 -0.49848,-0.62374 -0.76089,-0.89217c-0.15054,-0.27843 -0.36521,-0.51711 -0.62422,-0.69623c-0.60979,-4.18472 -0.97974,-9.23657 -3.02019,-13.06727c0.06549,-0.26323 0.23527,-0.48524 0.46293,-0.6196z"/></g></g></svg>