<svg version="1.1" xmlns="http://www.w3.org/2000/svg" xmlns:xlink="http://www.w3.org/1999/xlink" width="19.71539" height="15.78025" viewBox="0,0,19.71539,15.78025"><g transform="translate(-236.09302,-173.14153)"><g data-paper-data="{&quot;isPaintingLayer&quot;:true}" fill-rule="nonzero" stroke="none" stroke-width="0.5" stroke-linecap="butt" stroke-linejoin="miter" stroke-miterlimit="10" stroke-dasharray="" stroke-dashoffset="0" style="mix-blend-mode: normal"><path d="M245.18935,184.73271c-0.41294,-0.21184 -0.90134,-0.3165 -1.41501,-0.33247c-1.02329,-0.59093 -2.15487,-0.99589 -3.20697,-1.00062c-1.94642,-1.92053 -4.38245,-4.38406 -4.47434,-6.78609c0.75782,-0.54715 1.23345,-1.47727 1.37016,-2.46387c0.23606,-0.10466 0.48521,-0.18759 0.74626,-0.2456c0.10953,-0.09315 0.22924,-0.17471 0.35721,-0.24277c0.00972,-0.01701 0.02017,-0.0336 0.03131,-0.04976c0.9726,-0.24753 2.11107,-0.32666 3.1945,-0.47c0.30369,0.03301 0.60548,0.07391 0.89416,0.11797c0.24173,0.10379 0.50802,0.16131 0.78775,0.1614c1.75126,0.60714 3.23621,1.78658 4.94466,2.32201c0.77549,0.84999 1.74321,1.6684 2.59102,2.21441c0.42057,0.72632 0.91187,1.3826 1.06311,1.65593c1.24877,2.2569 2.48435,4.47831 3.7176,6.74319c0.00574,0.02105 0.01163,0.04205 0.01766,0.06303c-0.0444,0.07994 -0.09171,0.15956 -0.142,0.23882c-0.37012,-0.42471 -0.74686,-0.8259 -1.15536,-1.2344c0,0 -0.17678,-0.17678 -0.35355,0c-0.17678,0.17678 0,0.35355 0,0.35355c0.24135,0.24135 0.47026,0.47944 0.69349,0.72131c-0.07141,0.10778 -0.01302,0.23916 -0.01302,0.23916c0.0936,0.21016 0.19995,0.41146 0.30115,0.61533c-0.03107,0.03492 -0.0628,0.06975 -0.09518,0.10449c-0.1925,-0.07875 -0.38617,-0.1544 -0.57327,-0.25575c0,0 -0.02091,-0.01126 -0.05332,-0.0204c-0.27231,-0.43988 -0.54462,-0.87976 -0.81692,-1.31965c0,0 -0.13159,-0.21257 -0.34415,-0.08098c-0.21257,0.13159 -0.08098,0.34415 -0.08098,0.34415c0.39009,0.63014 0.8054,1.30103 1.20855,1.95228c-0.07947,0.06613 -0.15869,0.12948 -0.23765,0.19011c-0.40185,-0.62815 -0.97773,-1.21789 -1.24284,-1.87245c0,0 -0.09848,-0.22979 -0.32827,-0.13131c-0.22979,0.09848 -0.13131,0.32827 -0.13131,0.32827c0.3096,0.6951 0.89044,1.29499 1.29713,1.96466c-0.04348,0.02867 -0.08688,0.05653 -0.1302,0.08359c-0.4365,-0.69455 -1.02766,-1.21334 -1.75954,-1.63165c0,0 -0.21706,-0.12403 -0.3411,0.09303c-0.12403,0.21706 0.09303,0.3411 0.09303,0.3411c0.65213,0.37257 1.18405,0.82584 1.57461,1.44333c-0.02375,0.01213 -0.04748,0.02404 -0.07118,0.03571c-0.16185,-0.06381 -0.30226,-0.10481 -0.46771,-0.11232c-1.46187,-1.87566 -4.60847,-3.63439 -7.44948,-4.07675z" fill="#8f5029"/><path d="M240.45047,173.40859c0.02887,-0.06968 0.08483,-0.10519 0.13437,-0.12329c0.05408,-0.00631 0.10823,-0.01256 0.16242,-0.01879c0.18972,0.00013 0.38708,0.00089 0.59034,0.00316c0.11387,-0.07845 0.28094,-0.12615 0.49772,-0.01054c0.01237,0.0066 0.0242,0.01335 0.03552,0.02026c0.32012,0.00833 0.65028,0.02186 0.98449,0.04365c0.19491,0.06345 0.40296,0.09779 0.61902,0.09786c0.55334,0.19184 1.0801,0.44081 1.59572,0.70855c-0.04225,-0.01023 -0.0847,-0.02017 -0.12733,-0.02983c-0.08036,0.25315 -0.17106,0.50424 -0.27143,0.75276c0.05752,0.01586 0.11482,0.03101 0.17187,0.04538c0.36523,0.16134 0.73255,0.32657 1.09572,0.50164c0.13338,-0.19456 0.26591,-0.39064 0.39787,-0.58803c0.29734,0.15958 0.59524,0.31469 0.89681,0.45765c-0.13253,0.19861 -0.26561,0.39591 -0.39952,0.59172c0.69639,0.38703 1.35603,0.83197 1.93034,1.38088c0.07243,-0.17303 0.14088,-0.35304 0.20509,-0.54061c-0.39133,-0.41122 -0.7896,-0.83321 -1.22001,-1.20244c0.22,0.0909 0.44279,0.1733 0.66952,0.24436c0.45775,0.50173 0.98248,0.99245 1.51,1.42265c-0.01203,0.03062 -0.03234,0.06225 -0.06397,0.09388c-0.01599,0.01599 -0.03198,0.02909 -0.04784,0.03968c-1.37122,3.65065 -4.20321,4.46333 -6.86259,6.68038c-0.35259,-0.15838 -0.71165,-0.29036 -1.07042,-0.38819c0.272,-0.23898 0.54752,-0.46091 0.82445,-0.67065c-0.07407,-0.04745 -0.09763,-0.12923 -0.10512,-0.17645c-0.2566,-0.43518 -0.57449,-0.79764 -0.92867,-1.13768c-0.47509,0.35857 -0.97507,0.694 -1.50443,1.00324c0.2007,0.16308 0.40496,0.32108 0.61373,0.47259c0.09285,0.12793 0.18626,0.23998 0.28495,0.34838c-0.16873,-0.01972 -0.33622,-0.03037 -0.50174,-0.03112c-0.88619,-0.8744 -1.87387,-1.86137 -2.6956,-2.90383c0.05889,0.05714 0.11776,0.11433 0.17664,0.17152c0.51281,-0.27163 1.01656,-0.58856 1.50203,-0.944c-0.50284,-0.39169 -1.00824,-0.74262 -1.52577,-1.08342c-0.35623,0.15174 -0.74547,0.27109 -1.17459,0.35374c-0.17429,-0.31101 -0.32448,-0.62438 -0.44422,-0.93877c0.18886,-0.02776 0.36895,-0.06365 0.54099,-0.10719c-0.23683,-0.15007 -0.47728,-0.30223 -0.72214,-0.45907c-0.07497,-0.29187 -0.12054,-0.58392 -0.13168,-0.87506c0.21513,-0.15532 0.40752,-0.34151 0.57587,-0.55109c0.04224,-0.02208 0.08405,-0.04435 0.12541,-0.06685c-0.0174,-0.00925 -0.03478,-0.01855 -0.05212,-0.02788c0.09902,-0.1329 0.18889,-0.27421 0.26932,-0.42219c0.09467,0.05108 0.19009,0.10089 0.28617,0.14957c0.0832,-0.05487 0.1643,-0.11135 0.24329,-0.16973c-0.13636,-0.0811 -0.26835,-0.16507 -0.39532,-0.25223c0.17259,-0.38848 0.28501,-0.81223 0.33255,-1.2442c0.72111,-0.38991 1.65508,-0.56082 2.63685,-0.68655c0.11143,0.019 0.22327,0.04121 0.33544,0.06621zM246.99605,179.77906l0.01352,0.01886c0.59045,-0.56889 1.11369,-1.23225 1.53354,-2.07303l-0.02428,-0.02428c-0.57711,-0.5783 -1.25365,-1.03403 -1.96969,-1.42747c-0.21227,0.304 -0.42703,0.604 -0.6453,0.89931c0.54194,0.48236 1.05489,1.00594 1.62829,1.48286l0.10033,0.15378c0,0 0.1118,0.22361 -0.1118,0.33541c-0.22361,0.1118 -0.33541,-0.1118 -0.33541,-0.1118l0.0268,0.00672c-0.56422,-0.47101 -1.0693,-0.99277 -1.60517,-1.47112c-0.178,0.23365 -0.35857,0.46407 -0.54223,0.69088c0.64485,0.49771 1.24343,1.06335 1.93142,1.51988zM242.99707,175.97987c-0.55138,-0.2498 -1.12379,-0.47584 -1.70879,-0.66656c-0.20663,0.35943 -0.41754,0.7038 -0.64028,1.02836c0.58137,0.20035 1.16612,0.38882 1.72107,0.579c0.22489,-0.30502 0.43496,-0.61917 0.62801,-0.94081zM243.06709,182.54686l0.01949,0.09514c0.44116,-0.31713 0.88343,-0.6091 1.3183,-0.89538c-0.56666,-0.26954 -1.09025,-0.67024 -1.63314,-1.04547c-0.22708,0.20408 -0.45988,0.4026 -0.69903,0.59514c0.3811,0.37217 0.72042,0.77132 0.99438,1.25057zM245.76113,180.63295c0.04477,0.01361 0.09837,0.04093 0.1332,0.09576c0.25472,-0.18825 0.50258,-0.3833 0.74147,-0.58996c-0.66187,-0.45637 -1.24813,-1.01674 -1.88382,-1.50065c-0.1648,0.1959 -0.33223,0.38885 -0.50265,0.57861c0.53089,0.44079 1.02165,0.92693 1.51181,1.41624zM244.70789,181.33596l0.20334,0.0762c0.18533,-0.12339 0.36865,-0.24715 0.54926,-0.37285c-0.50232,-0.50304 -1.00407,-1.00334 -1.55005,-1.45386c-0.25184,0.26767 -0.51041,0.52835 -0.7768,0.7813c0.52097,0.3687 1.03199,0.74366 1.57425,0.96921zM241.46799,178.01047c-0.51876,-0.25232 -1.05471,-0.47513 -1.59465,-0.6905c-0.21918,0.23518 -0.45292,0.45223 -0.70588,0.64819c0.45539,0.32773 0.9136,0.64904 1.38988,0.93888c0.31664,-0.28331 0.62123,-0.58293 0.91065,-0.89656zM240.92657,180.91944c-0.19566,-0.19 -0.3904,-0.36973 -0.58477,-0.54097c-0.49554,0.37724 -1.01119,0.71781 -1.53899,1.0156c0.1861,0.17649 0.37352,0.35119 0.56314,0.52279c0.5519,-0.30389 1.07031,-0.63762 1.56062,-0.99742zM239.68679,175.994c0.21903,-0.30047 0.42267,-0.62351 0.62017,-0.96288c-0.44451,-0.11036 -0.89341,-0.19753 -1.34321,-0.25671c-0.17073,0.2432 -0.35729,0.46236 -0.55985,0.66259c0.40331,0.20213 0.83633,0.38559 1.28289,0.557zM243.52036,174.99948c-0.55556,-0.20638 -1.12574,-0.44485 -1.69671,-0.65674c-0.0956,0.17821 -0.1907,0.35405 -0.28605,0.52703c0.58474,0.19384 1.15679,0.4216 1.70837,0.67362c0.09697,-0.17937 0.18856,-0.36076 0.27439,-0.54391zM241.79174,179.5504c0.16591,0.07358 0.32802,0.1588 0.48738,0.25176c0.28524,-0.26322 0.56091,-0.53582 0.82844,-0.81676c-0.23752,-0.17618 -0.48337,-0.33825 -0.73576,-0.48918c-0.28266,0.31815 -0.5798,0.62374 -0.88898,0.91488c0.1018,0.04842 0.20473,0.09493 0.30891,0.13931zM243.59076,177.37249c0.22754,0.09228 0.44292,0.20105 0.64957,0.32187c0.20104,-0.24708 0.39811,-0.49869 0.592,-0.7543c-0.28748,-0.20575 -0.59255,-0.39038 -0.92593,-0.54264c-0.17548,0.29806 -0.3642,0.59022 -0.56479,0.87541c0.0845,0.03292 0.1676,0.06612 0.24916,0.09966zM245.65056,175.81547c-0.32221,-0.15379 -0.64726,-0.30045 -0.97016,-0.44496c-0.06911,-0.01715 -0.13865,-0.03556 -0.20857,-0.05511c-0.09948,0.21728 -0.20624,0.43228 -0.3198,0.64464c0.35267,0.16422 0.67441,0.36222 0.97749,0.58195c0.17583,-0.23917 0.3493,-0.48149 0.52104,-0.72651zM240.5607,174.58184c0.10099,-0.18347 0.2014,-0.37063 0.30255,-0.56061c-0.45594,-0.1314 -0.90737,-0.22439 -1.34714,-0.24855c-0.08204,0.19138 -0.17007,0.37116 -0.26413,0.54057c0.43868,0.06641 0.87591,0.15717 1.30872,0.2686zM238.31324,177.3523c0.19698,-0.12975 0.3805,-0.27369 0.5531,-0.43011c-0.52134,-0.20731 -1.03875,-0.42047 -1.54031,-0.65937c-0.11525,0.06969 -0.23385,0.13714 -0.35584,0.20282c0.46266,0.27261 0.90592,0.57543 1.34305,0.88666zM242.05454,173.90675c0.56113,0.20862 1.12008,0.43751 1.66625,0.63616c0.08367,-0.20434 0.16003,-0.41054 0.2286,-0.61823c-0.62171,-0.0823 -1.25525,-0.12189 -1.85705,-0.14087c-0.01069,0.05304 -0.02658,0.09635 -0.0378,0.12294zM243.40162,177.83534c-0.11925,-0.04916 -0.24123,-0.09758 -0.36556,-0.14542c-0.10898,0.14296 -0.22093,0.28394 -0.33564,0.4228c0.25204,0.15232 0.49767,0.31594 0.73518,0.49379c0.00488,0.00325 0.00976,0.00651 0.01464,0.00978c0.15835,-0.17487 0.31394,-0.35265 0.4671,-0.53312c-0.16563,-0.09195 -0.33698,-0.17536 -0.51571,-0.24784zM240.21144,176.92975c0.54078,0.21695 1.07721,0.44211 1.59644,0.69772c0.08255,-0.09677 0.16364,-0.19471 0.24319,-0.29375c-0.55286,-0.19089 -1.12888,-0.38013 -1.70054,-0.58088c-0.04576,0.05981 -0.09211,0.1188 -0.13908,0.17691zM241.59216,180.00884c-0.17191,-0.07408 -0.34035,-0.15371 -0.50589,-0.23799c-0.11397,0.09959 -0.22934,0.19722 -0.34601,0.29283c0.1959,0.17414 0.39194,0.35687 0.58859,0.54992c0.19051,-0.14996 0.37674,-0.30395 0.55904,-0.46171c-0.09702,-0.05094 -0.19551,-0.09887 -0.29574,-0.14305zM237.55605,177.74938c0.09882,-0.03997 0.19466,-0.08286 0.28773,-0.12856c-0.45539,-0.31668 -0.9204,-0.61993 -1.41008,-0.88642c-0.08833,0.04139 -0.17819,0.08229 -0.26959,0.12284c0.47796,0.31273 0.94036,0.6041 1.39194,0.89215zM238.53747,178.38721c0.4808,0.32141 0.95274,0.6548 1.42207,1.02401c0.06938,-0.05511 0.13831,-0.11099 0.20676,-0.16764c-0.4857,-0.30669 -0.95396,-0.64202 -1.4218,-0.97964c-0.06767,0.04248 -0.13666,0.08359 -0.20703,0.12328zM238.71754,174.24469c0.10983,-0.18103 0.21151,-0.37629 0.30513,-0.58803c-0.44229,0.01122 -0.81815,0.21983 -1.15495,0.5322c0.28284,0.00719 0.56638,0.02613 0.84982,0.05583zM237.37033,174.8204c0.17975,0.13045 0.37245,0.25371 0.57557,0.37082c0.15815,-0.14617 0.30615,-0.30407 0.44411,-0.47673c-0.25392,-0.01948 -0.50766,-0.0294 -0.76058,-0.02889c0,0 -0.09334,0 -0.16596,-0.05704c-0.04467,0.05536 -0.08877,0.11207 -0.13237,0.16984c0.02444,0.01144 0.03922,0.022 0.03922,0.022zM239.2414,176.54542c0.0451,-0.04994 0.08947,-0.10079 0.13315,-0.15253c-0.47443,-0.18575 -0.93427,-0.3853 -1.36258,-0.60674c-0.06617,0.05324 -0.13376,0.10508 -0.20278,0.15566c0.46869,0.21577 0.94914,0.41171 1.43221,0.60361z" fill="#703e20"/></g></g></svg>