<svg version="1.1" xmlns="http://www.w3.org/2000/svg" xmlns:xlink="http://www.w3.org/1999/xlink" width="38.53089" height="24.16439" viewBox="0,0,38.53089,24.16439"><g transform="translate(-220.5691,-170.45858)"><g data-paper-data="{&quot;isPaintingLayer&quot;:true}" fill-rule="nonzero" stroke-linecap="butt" stroke-linejoin="miter" stroke-miterlimit="10" stroke-dasharray="" stroke-dashoffset="0" style="mix-blend-mode: normal"><path d="M249.0659,184.18879c0.01724,-0.01058 0.0347,-0.02082 0.05239,-0.03071c-0.00897,-0.00213 -0.01791,-0.00433 -0.02682,-0.00662c-0.00834,0.01258 -0.01686,0.02503 -0.02557,0.03733zM250.92189,174.75102c0.06708,-0.4548 0.13219,-0.88816 0.18871,-1.28957c0,0 0.21261,-1.48824 1.70084,-1.27563c1.48824,0.21261 1.27563,1.70084 1.27563,1.70084c-0.30228,2.08219 -0.99325,5.41704 -0.52107,7.48374c0.61056,2.67239 2.85039,5.25209 4.19677,7.55259c0.7428,1.26918 2.16415,3.49843 0.70354,5.06436c-0.69071,0.74052 -1.97995,0.68444 -2.98529,0.56307c-0.72549,-0.08759 -1.22413,-0.80164 -1.8671,-1.14891c-2.45145,-1.32402 -5.09445,-2.09728 -7.5174,-3.50809c-1.07406,-0.60246 -2.05064,-1.40216 -2.88456,-2.30833l-0.54756,-0.85869c0,0 -0.19424,-0.32373 -0.22581,-0.74407c-0.42602,-0.48972 -0.35685,-1.18135 -0.35685,-1.18135l0.12302,-1.2282c0.26577,-3.15499 0.1201,-6.35711 0.1201,-9.52284c0,0 0,-1.50335 1.50335,-1.50335c1.43506,0 1.50025,1.36988 1.50321,1.49432c1.72652,-0.09919 4.79524,0.546 5.41445,0.66143c0,0 0.06971,0.01307 0.17601,0.04868z" data-paper-data="{&quot;index&quot;:null}" fill="#805700" stroke="none" stroke-width="0.5"/><path d="M230.57762,183.44188c-0.00891,0.00229 -0.01785,0.00449 -0.02682,0.00662c0.01769,0.00989 0.03515,0.02013 0.05239,0.03071c-0.0087,-0.01231 -0.01723,-0.02475 -0.02557,-0.03733zM228.92321,173.99276c0.61921,-0.11543 3.68794,-0.76063 5.41446,-0.66143c0.00296,-0.12444 0.06814,-1.49432 1.50321,-1.49432c1.50335,0 1.50335,1.50335 1.50335,1.50335c0,3.16573 -0.14567,6.36785 0.1201,9.52284l0.12303,1.2282c0,0 0.06916,0.69163 -0.35685,1.18135c-0.03157,0.42034 -0.22581,0.74407 -0.22581,0.74407l-0.54756,0.85869c-0.83392,0.90617 -1.8105,1.70587 -2.88456,2.30833c-2.42294,1.41081 -5.06594,2.18407 -7.5174,3.50809c-0.64297,0.34727 -1.14161,1.06132 -1.8671,1.14891c-1.00534,0.12138 -2.29458,0.17745 -2.98529,-0.56307c-1.4606,-1.56593 -0.03925,-3.79517 0.70355,-5.06436c1.34638,-2.3005 3.5862,-4.8802 4.19677,-7.55259c0.47218,-2.0667 -0.21879,-5.40155 -0.52107,-7.48374c0,0 -0.21261,-1.48824 1.27563,-1.70084c1.48824,-0.21261 1.70084,1.27563 1.70084,1.27563c0.05652,0.40141 0.12164,0.83477 0.18871,1.28957c0.1063,-0.0356 0.17601,-0.04867 0.17601,-0.04867z" fill="#805700" stroke="none" stroke-width="0.5"/><path d="M237.34441,172.58858c0,1.17637 -2.66457,2.13001 -5.95149,2.13001c-3.28692,0 -5.95149,-0.95364 -5.95149,-2.13001c0,-1.17637 2.66457,-2.13001 5.95149,-2.13001c3.28692,0 5.95149,0.95364 5.95149,2.13001z" fill="#402c00" stroke="#000000" stroke-width="0"/><path d="M254.34229,173.17287c0,1.17637 -2.66458,2.13001 -5.95149,2.13001c-3.28692,0 -5.95149,-0.95363 -5.95149,-2.13001c0,-1.17637 2.66458,-2.13001 5.95149,-2.13001c3.28692,0 5.95149,0.95364 5.95149,2.13001z" fill="#402c00" stroke="#000000" stroke-width="0"/></g></g></svg>