<svg version="1.1" xmlns="http://www.w3.org/2000/svg" xmlns:xlink="http://www.w3.org/1999/xlink" width="73.96348" height="60.70121" viewBox="0,0,73.96348,60.70121"><g transform="translate(-211.01482,-145.74219)"><g data-paper-data="{&quot;isPaintingLayer&quot;:true}" fill-rule="nonzero" stroke="none" stroke-width="0.5" stroke-linecap="butt" stroke-linejoin="miter" stroke-miterlimit="10" stroke-dasharray="" stroke-dashoffset="0" style="mix-blend-mode: normal"><g fill="#9b974b"><path d="M249.38697,173.55481c1.09144,1.21271 -0.12127,2.30415 -0.12127,2.30415l-1.4358,1.28813c-2.01417,1.40992 -3.76085,3.12333 -5.77884,4.53834c-6.32947,4.59846 -12.82007,8.9827 -18.78874,14.05401c-3.33323,2.8321 -6.047,6.22384 -9.63005,8.78987c0,0 -1.32764,0.94831 -2.27595,-0.37932c-0.94831,-1.32763 0.37932,-2.27595 0.37932,-2.27595c3.50554,-2.49683 6.15004,-5.84605 9.40689,-8.61535c6.03949,-5.13538 12.61177,-9.56879 19.0132,-14.22945c1.97395,-1.37926 3.67431,-3.05791 5.64333,-4.43622l1.28376,-1.15947c0,0 1.21271,-1.09144 2.30415,0.12127z"/><path d="M250.70097,175.14077c1.09144,1.21271 -0.12127,2.30415 -0.12127,2.30415l-1.4358,1.28813c-2.01417,1.40992 -3.76085,3.12333 -5.77884,4.53834c-6.32947,4.59846 -12.82007,8.9827 -18.78874,14.05401c-3.33323,2.8321 -6.04701,6.22384 -9.63005,8.78987c0,0 -1.32764,0.94831 -2.27595,-0.37932c-0.94831,-1.32763 0.37932,-2.27595 0.37932,-2.27595c3.50554,-2.49683 6.15004,-5.84605 9.40689,-8.61535c6.03949,-5.13538 12.61178,-9.56879 19.01321,-14.22945c1.97395,-1.37926 3.67431,-3.05791 5.64333,-4.43622l1.28376,-1.15947c0,0 1.21271,-1.09144 2.30415,0.12127z"/></g><g><g fill="#9b974b"><path d="M268.14587,158.498c1.09144,1.21271 -0.12127,2.30415 -0.12127,2.30415l-1.4358,1.28813c-2.01417,1.40992 -3.76085,3.12333 -5.77884,4.53834c-6.32947,4.59846 -12.82007,8.9827 -18.78874,14.05401c-3.33323,2.8321 -6.047,6.22384 -9.63005,8.78987c0,0 -1.32764,0.94831 -2.27595,-0.37932c-0.94831,-1.32763 0.37932,-2.27595 0.37932,-2.27595c3.50554,-2.49683 6.15004,-5.84605 9.40689,-8.61535c6.03949,-5.13538 12.61177,-9.56879 19.0132,-14.22945c1.97395,-1.37926 3.67431,-3.05791 5.64333,-4.43622l1.28376,-1.15947c0,0 1.21271,-1.09144 2.30415,0.12127z"/><path d="M269.45987,160.08396c1.09144,1.21271 -0.12127,2.30415 -0.12127,2.30415l-1.4358,1.28813c-2.01417,1.40992 -3.76085,3.12333 -5.77884,4.53834c-6.32947,4.59846 -12.82007,8.9827 -18.78874,14.05401c-3.33323,2.8321 -6.04701,6.22384 -9.63005,8.78987c0,0 -1.32764,0.94831 -2.27595,-0.37932c-0.94831,-1.32763 0.37932,-2.27595 0.37932,-2.27595c3.50554,-2.49683 6.15004,-5.84605 9.40689,-8.61535c6.03949,-5.13538 12.61178,-9.56879 19.01321,-14.22945c1.97395,-1.37926 3.67431,-3.05791 5.64333,-4.43622l1.28376,-1.15947c0,0 1.21271,-1.09144 2.30415,0.12127z"/></g><path d="M284.96857,145.93157c0.05063,0.20251 -0.1101,0.2782 -0.16454,0.29767l-0.04876,0.24379l-0.07162,-0.01432c-0.0849,0.47961 -0.29279,0.92038 -0.54625,1.34761c0.01599,0.56325 -0.13554,0.97733 -0.38623,1.31682c-0.03586,0.16687 -0.08887,0.34787 -0.15953,0.54572c-1.08948,3.05055 -8.23257,8.3814 -10.25187,12.37113c-0.48847,0.96513 -1.21498,2.60241 -2.20924,3.53035c-0.05388,0.09993 -0.11433,0.20038 -0.18164,0.30134c-1.9706,2.95589 -7.75079,-3.79773 -8.56621,-5.46059c-0.08197,-0.16717 -0.25473,-0.33736 -0.4583,-0.51561c-0.13592,-0.0947 -0.262,-0.20255 -0.37638,-0.32171c-0.51711,-0.44707 -1.0107,-0.95561 -0.69241,-1.5922c-0.00252,-0.04594 -0.00379,-0.09223 -0.00379,-0.1388c0,-1.15178 0.7789,-2.12165 1.8387,-2.4116c0.84842,-0.44932 2.00344,-0.72603 2.51531,-1.13192c4.11723,-3.26478 9.45508,-3.62266 13.73253,-6.18913c0.47913,-0.28748 2.21378,-1.19995 3.54897,-1.38223c0.42535,-0.36802 0.93707,-0.63934 1.48457,-0.80467l-0.00535,-0.0107l0.28337,-0.14169c0.03474,-0.01829 0.07432,-0.02864 0.11631,-0.02864c0.05394,0 0.10388,0.01708 0.14472,0.04613l0.15448,-0.03866c0,0 0.24254,-0.06063 0.30317,0.1819z" fill="#838273"/><path d="M266.01458,164.92966c-0.25,0 -0.25,-0.25 -0.25,-0.25v-0.03285c-0.04719,-0.04856 -0.06344,-0.11214 -0.06903,-0.15016c-0.86761,-0.90163 -1.41998,-1.9874 -2.26928,-2.78798c0.14065,0.91858 0.61613,2.03852 0.90392,2.96653c0.17381,0.02796 0.35117,0.04304 0.53291,0.04233c0,0 0.25,0 0.25,0.25c0,0.04319 -0.00746,0.07891 -0.0198,0.10847c0.02863,0.05415 0.03941,0.12723 -0.00659,0.21924c-0.1118,0.22361 -0.33541,0.1118 -0.33541,0.1118l-0.1932,-0.0966l0.02484,0.04906c0,0 0.01574,0.03149 0.0236,0.07673c0.06602,0.00452 0.14095,0.03647 0.1923,0.13917c0.1118,0.22361 -0.1118,0.33541 -0.1118,0.33541l-0.46375,-0.01296c-0.04798,-0.07197 -0.09596,-0.14393 -0.14393,-0.2159c0,0 -0.08682,-0.13022 -0.02003,-0.25329l-0.0784,-0.15848c-0.01448,-0.05817 -0.03006,-0.11727 -0.04662,-0.17721c-0.26689,-0.06959 -0.52436,-0.16432 -0.77669,-0.27384c0.31316,0.46225 0.64676,0.89723 1.01866,1.26704l0.07322,0.24874c0,0 0,0.25 -0.25,0.25c-0.19315,0 -0.23707,-0.14923 -0.24706,-0.2171c-0.54719,-0.56903 -1.00402,-1.25918 -1.43767,-1.96214c-0.66967,-0.35282 -1.33702,-0.72818 -2.0881,-0.91722l-0.25732,0.00187c0,0 -0.25,0 -0.25,-0.25c0,-0.25 0.25,-0.25 0.25,-0.25l0.31841,0.00187c0.54491,0.13561 1.05516,0.37974 1.55731,0.64248c-0.2996,-0.49115 -0.59987,-0.96901 -0.92425,-1.39583c0,0 -0.15,-0.2 0.05,-0.35c0.2,-0.15 0.35,0.05 0.35,0.05c0.47002,0.63692 0.90093,1.395 1.35812,2.13552c0.35542,0.18126 0.71416,0.34678 1.08569,0.4645c-0.35279,-1.07182 -0.86175,-2.30225 -0.87832,-3.26573c-0.1374,-0.09306 -0.28284,-0.17884 -0.43796,-0.2561c0,0 -0.22361,-0.1118 -0.1118,-0.33541c0.04943,-0.09887 0.12072,-0.13216 0.18488,-0.13855c0.09358,-0.10158 0.2433,-0.06415 0.2433,-0.06415c0.67181,0.16813 1.35324,0.33411 2.0346,0.5085c-0.47955,-1.96649 -0.83392,-3.80205 -0.83392,-5.87939c0,0 0,-0.25 0.25,-0.25c0.25,0 0.25,0.25 0.25,0.25c0,2.13003 0.38066,3.99339 0.88351,6.02213c0.45407,0.11986 0.90694,0.24471 1.35575,0.37769c0.73519,-1.28031 1.68875,-2.44384 2.03484,-3.84447c1.23044,-1.68246 2.52686,-4.61261 2.93124,-6.63453c0,0 0.04903,-0.24515 0.29417,-0.19612c0.24515,0.04903 0.19612,0.29417 0.19612,0.29417c-0.40035,2.00173 -1.70622,5.11882 -2.97006,6.75135c-0.34549,1.36643 -1.31196,2.50691 -2.04047,3.76492c0.62348,0.19401 1.23713,0.40594 1.83309,0.64436c1.06236,0.39887 2.13892,0.74074 3.07916,1.35055c0.02797,0.00095 0.24707,0.01589 0.24707,0.24993c0,0.25 -0.25,0.25 -0.25,0.25l-0.21064,-0.04199c-0.92039,-0.61407 -1.99524,-0.94861 -3.04623,-1.34227c-0.61646,-0.24656 -1.25176,-0.46443 -1.89719,-0.66329c-0.11578,0.22599 -0.22117,0.45682 -0.31156,0.69433c1.42486,1.21639 3.34403,2.89238 4.31415,2.79633c0,0 0.25,0 0.25,0.25c0,0.25 -0.25,0.25 -0.25,0.25c-1.31058,-0.06503 -3.04268,-1.59109 -4.47537,-2.80526c-0.03581,0.13026 -0.0666,0.26272 -0.0917,0.39766c0.03136,0.05007 0.06374,0.09936 0.09722,0.14779l0.08756,0.17081c0,0 0.1118,0.22361 -0.1118,0.33541c-0.05622,0.02811 -0.10537,0.03502 -0.14745,0.02961c-0.0019,0.05903 -0.00266,0.11856 -0.00222,0.17859v0.14393c0,0 0,0.25 -0.25,0.25zM265.92858,162.853c0.02533,0.06154 0.05139,0.12263 0.07829,0.18317c0.00988,-0.03116 0.02002,-0.0622 0.0304,-0.09313c-0.0365,-0.03036 -0.07273,-0.06039 -0.10869,-0.09004zM265.51947,161.69238c0.02978,0.09201 0.05971,0.18445 0.09012,0.27698c0.18082,0.13969 0.38641,0.309 0.60983,0.49719c0.07397,-0.17307 0.15474,-0.34284 0.24061,-0.51005c-0.31197,-0.09156 -0.62582,-0.17924 -0.94057,-0.26412zM265.00658,162.149c-0.29115,-0.21957 -0.65289,-0.35333 -0.97669,-0.51922c0.63122,0.693 1.11992,1.51696 1.78157,2.25973c0.00534,-0.03818 0.01111,-0.07616 0.0173,-0.11395c-0.26154,-0.47192 -0.45892,-0.98167 -0.63766,-1.49854c-0.06307,-0.04528 -0.12461,-0.08804 -0.18452,-0.12801zM264.94463,161.54044c-0.00506,-0.00131 -0.01011,-0.00262 -0.01517,-0.00393c0.0055,0.00259 0.01099,0.00519 0.01644,0.00778c-0.00042,-0.00128 -0.00085,-0.00256 -0.00127,-0.00385z" fill="#7fad53"/></g></g></g></svg>