<svg version="1.1" xmlns="http://www.w3.org/2000/svg" xmlns:xlink="http://www.w3.org/1999/xlink" width="37.24715" height="40.05151" viewBox="0,0,37.24715,40.05151"><g transform="translate(-218.11222,-161.35531)"><g data-paper-data="{&quot;isPaintingLayer&quot;:true}" fill-rule="nonzero" stroke="none" stroke-width="0.5" stroke-linecap="butt" stroke-linejoin="miter" stroke-miterlimit="10" stroke-dasharray="" stroke-dashoffset="0" style="mix-blend-mode: normal"><g data-paper-data="{&quot;index&quot;:null}"><path d="M254.40641,165.50147c0.15065,1.3666 -1.21594,1.51726 -1.21594,1.51726l0.13719,-0.23139c-1.9121,1.53529 -3.91129,3.06019 -5.54827,4.88609c-6.4563,7.15151 -11.9306,15.14862 -18.08497,22.17548c0,0 -0.92128,1.02051 -1.94186,0.09918c-1.02058,-0.92131 -0.09925,-1.94185 -0.09925,-1.94185c6.23614,-6.60959 11.75692,-15.16605 18.08495,-22.17552c1.75144,-1.92871 3.83655,-3.55665 5.86776,-5.18756l1.28317,-0.35771c0,0 1.3666,-0.15065 1.51726,1.21594z" fill="#7a6a5e"/><path d="M231.05367,190.02026c-0.47639,1.28969 -1.76615,0.81329 -1.76615,0.81329c-0.45309,-0.1674 -1.95201,-0.72106 -2.40516,-0.88843c0,0 -0.39191,-0.14472 -0.66381,-0.49069c-2.00854,-0.64572 -4.40622,-1.40315 -6.13103,-0.5075c0,0 -1.24882,0.57508 -1.82391,-0.67376c-0.5751,-1.24886 0.67374,-1.8239 0.67374,-1.8239c3.04986,-1.30255 6.24371,-0.11516 9.31884,0.75936l0.8323,0.30314c0,0 0.4646,0.17163 0.73312,0.58768l0.41875,0.15475c0,0 1.28975,0.47643 0.81334,1.76612z" fill="#7a0c00"/><path d="M231.32654,190.87798c1.30469,-0.43369 1.73837,0.87104 1.73837,0.87104l0.23803,0.71833c0.88643,2.99639 0.78485,5.09714 -0.29279,8.02055c0,0 -0.47645,1.28972 -1.76615,0.81329c-1.28969,-0.47639 -0.81334,-1.76612 -0.81334,-1.76612c0.88374,-2.38696 0.97361,-3.83114 0.23702,-6.28231l-0.21227,-0.63638c0,0 -0.43363,-1.30473 0.87108,-1.73842z" fill="#7a0c00"/><path d="M237.21045,181.71776c-0.47639,1.28969 -1.76615,0.81329 -1.76615,0.81329l-0.31379,-0.11592c-2.21301,-0.81746 -4.4093,-1.70153 -6.76779,-1.94946c0,0 -1.3668,-0.14943 -1.21741,-1.51616c0.1494,-1.36671 1.51618,-1.21737 1.51618,-1.21737c2.59247,0.29243 4.98634,1.20398 7.42188,2.10368l0.31374,0.11588c0,0 1.28975,0.47643 0.81334,1.76612z" fill="#7a0c00"/><path d="M238.04481,182.66404c1.30469,-0.43369 1.73839,0.87103 1.73839,0.87103l0.22515,0.67739c0.86106,2.59063 1.81812,4.84764 2.23385,7.25353c-0.98974,1.60571 -1.92491,3.20446 -2.77698,4.7675c0.00174,-0.15613 0.02294,-0.2602 0.02294,-0.2602c0.84435,-4.0989 -0.82775,-7.09836 -2.08926,-10.89352l-0.22515,-0.67739c0,0 -0.43367,-1.30466 0.87103,-1.73839z" fill="#7a0c00"/><path d="M243.78149,174.30679c-0.88846,1.04923 -1.93774,0.16077 -1.93774,0.16077l-0.77425,-0.69015c-2.29752,-1.28336 -4.69662,-1.86062 -7.24121,-2.43299c0,0 -0.91749,-0.20638 -1.06416,-1.03661c0.80593,-0.4271 1.6623,-0.91266 2.54993,-1.4438c2.47684,0.58061 4.81874,1.25677 7.08941,2.50885l1.21728,0.99623c0,0 1.04929,0.88848 0.16081,1.93772z" fill="#7a0c00"/><path d="M244.04877,174.76968c1.24886,-0.5751 1.82403,0.67375 1.82403,0.67375l0.52753,1.14555c0.9192,2.00213 1.49384,3.78639 1.98115,5.702c-0.70765,0.987 -1.41546,1.99416 -2.11575,3.01365c-0.60072,-2.76803 -1.11981,-4.87456 -2.3631,-7.56551l-0.52757,-1.14553c0,0 -0.57514,-1.24884 0.67374,-1.82395z" fill="#7a0c00"/><path d="M247.57271,170.44038c-1.19163,0.68579 -1.87741,-0.50582 -1.87741,-0.50582l-0.38651,-0.67763c-0.99311,-1.49309 -2.20052,-2.72021 -3.54495,-3.78397c0.9193,-0.33035 1.88593,-0.71701 2.87716,-1.14873c1.09536,0.99559 2.0914,2.11446 2.95552,3.40708l0.48211,0.83169c0,0 0.68581,1.19162 -0.50582,1.87741z" fill="#7a0c00"/><path d="M248.89019,169.53217c1.11179,-0.80881 1.92063,0.30302 1.92063,0.30302l0.18599,0.25985c0.68068,0.82664 1.25368,1.65805 1.78105,2.50107c-0.42843,1.12997 -0.82748,2.25634 -1.18866,3.36434c-0.79814,-1.4087 -1.59736,-2.7601 -2.71509,-4.11744l-0.2869,-0.39022c0,0 -0.80883,-1.11183 0.30296,-1.92065z" fill="#7a0c00"/><path d="M252.50031,165.32267c-1.00291,0.94053 -1.94341,-0.06242 -1.94341,-0.06242l-0.34098,-0.36361c-0.74837,-0.7982 -1.42044,-1.51252 -2.22098,-2.15717c0.86595,-0.44018 1.73176,-0.90393 2.58325,-1.38416c0.55718,0.5166 1.08743,1.06753 1.64348,1.66029l0.34103,0.3637c0,0 0.94049,1.00285 -0.06242,1.94341z" fill="#7a0c00"/><path d="M233.99219,185.28256c-0.47639,1.28969 -1.76615,0.81329 -1.76615,0.81329l-0.51577,-0.19483c-2.84784,-1.31074 -5.03412,-1.15729 -8.09811,-1.07162c0,0 -1.37442,0.03667 -1.41109,-1.33771c-0.03661,-1.37441 1.33775,-1.41111 1.33775,-1.41111c3.4729,-0.08766 6.07639,-0.16533 9.31929,1.3217l0.32078,0.11418c0,0 1.28972,0.47645 0.81329,1.76615z" fill="#7a6500"/><path d="M235.00975,186.32397c1.15495,-0.7459 1.90089,0.40901 1.90089,0.40901l0.39634,0.63906c1.14317,2.58719 1.41691,6.37548 1.53786,9.24077c0,0 0.05626,1.37375 -1.31745,1.43004c-1.37379,0.05628 -1.43004,-1.31745 -1.43004,-1.31745c-0.09791,-2.47242 -0.22847,-6.03306 -1.28807,-8.20313l-0.20853,-0.29737c0,0 -0.74594,-1.15498 0.40901,-1.90089z" fill="#7a6500"/><path d="M240.53218,177.34742c-0.85983,1.07288 -1.9327,0.21309 -1.9327,0.21309l-0.19027,-0.15773c-1.92488,-1.35726 -4.59726,-1.85638 -6.77592,-2.81858c0,0 -1.25758,-0.55591 -0.70156,-1.81343c0.55595,-1.2575 1.81345,-0.70152 1.81345,-0.70152c2.38469,1.05537 5.05603,1.62444 7.21404,3.06223l0.35991,0.28322c0,0 1.07288,0.85983 0.21305,1.93267z" fill="#7a6500"/><path d="M241.7162,178.62535c1.20103,-0.66915 1.87024,0.5319 1.87024,0.5319l0.44304,0.80418c1.39727,2.10057 1.94089,3.99032 2.59983,6.40397c0,0 0.36195,1.32635 -0.96444,1.68832c-1.32639,0.36197 -1.68835,-0.9644 -1.68835,-0.9644c-0.58725,-2.15289 -0.99196,-3.74381 -2.23477,-5.60224l-0.55739,-0.99144c0,0 -0.66912,-1.20107 0.5319,-1.87024z" fill="#7a6500"/><path d="M246.18076,173.18047c1.24886,-0.5751 1.82395,0.67374 1.82395,0.67374l0.0167,0.28382c1.05214,0.97814 2.13468,1.91318 3.25676,2.80278c-0.30054,0.97414 -0.56923,1.93033 -0.80007,2.85824c-1.50469,-1.14217 -2.94127,-2.35861 -4.32826,-3.64645l-0.64273,-1.1482c0,0 -0.57514,-1.24884 0.67374,-1.82395z" fill="#7a6500"/><path d="M245.85595,171.08728c-0.74483,1.15568 -1.90049,0.41078 -1.90049,0.41078l-0.59548,-0.42269c-1.40242,-0.51802 -2.77759,-1.02796 -4.13716,-1.65141c0,0 -1.2494,-0.57391 -0.67543,-1.82329c0.57397,-1.24938 1.82329,-0.67543 1.82329,-0.67543c1.29464,0.59586 2.60563,1.07708 3.94219,1.57075l1.13233,0.69083c0,0 1.15564,0.74485 0.41079,1.90051z" fill="#7a6500"/><path d="M251.56566,167.01418c1.07203,-0.86079 1.93291,0.21135 1.93291,0.21135l0.30792,0.39624c0.24181,0.24226 0.48044,0.47817 0.71515,0.71179c-0.39626,0.90415 -0.78024,1.81796 -1.14743,2.73379c-0.48411,-0.5006 -0.99423,-0.98249 -1.51379,-1.50289l-0.50602,-0.61743c0,0 -0.86082,-1.07209 0.21123,-1.9329z" fill="#7a6500"/><path d="M250.0871,167.56677c-0.85983,1.07288 -1.93267,0.21305 -1.93267,0.21305l-0.66337,-0.54243c-0.67019,-0.67314 -1.37263,-1.31702 -2.11478,-1.90985c0,0 -0.55051,-0.44115 -0.54685,-1.08577c0.74716,-0.32862 1.50743,-0.68231 2.2712,-1.05613c0.81761,0.65748 1.59432,1.36748 2.3365,2.10905l0.43692,0.33941c0,0 1.07288,0.85983 0.21309,1.9327z" fill="#7a6500"/><path d="M229.22174,191.09914c-0.34568,1.33071 -1.67639,0.98502 -1.67639,0.98502l-1.01845,-0.26636c-1.33331,-0.27722 -2.66458,-0.56528 -3.99068,-0.87505c0,0 -1.3388,-0.31276 -1.02609,-1.65161c0.31282,-1.33883 1.65164,-1.02618 1.65164,-1.02618c1.30419,0.30479 2.61345,0.58799 3.92476,0.86052l1.15018,0.29712c0,0 1.3307,0.34571 0.98495,1.67643z" fill="#246800"/><path d="M231.39997,193.44212c1.32756,0.35775 0.96989,1.68524 0.96989,1.68524l-0.35822,1.30766c-0.19314,0.52285 -0.38627,1.04568 -0.57942,1.56851c0,0 -0.47642,1.28977 -1.76612,0.81334c-1.28969,-0.47639 -0.81329,-1.76615 -0.81329,-1.76615c0.19314,-0.52285 0.38624,-1.04574 0.57939,-1.56857l0.28252,-1.07016c0,0 0.35773,-1.3276 1.68524,-0.96989z" fill="#246800"/><path d="M234.71446,188.63491c1.32639,-0.36197 1.68836,0.96442 1.68836,0.96442l0.28644,1.0878c0.23513,1.63659 0.21872,3.1165 0.04118,4.75864c0,0 -0.14937,1.36677 -1.51616,1.21741c-1.36671,-0.1494 -1.21735,-1.51619 -1.21735,-1.51619c0.15629,-1.41332 0.18262,-2.65337 -0.02838,-4.06121l-0.2185,-0.76254c0,0 -0.36197,-1.32639 0.96442,-1.68836z" fill="#246800"/><path d="M231.98072,187.51058c-0.47639,1.28969 -1.76612,0.81334 -1.76612,0.81334l-0.11209,-0.05849c-1.56511,-0.31926 -3.03711,-0.63328 -4.53901,-1.18422c0,0 -1.28972,-0.47645 -0.81329,-1.76615c0.47639,-1.28969 1.76615,-0.81329 1.76615,-0.81329c1.36728,0.50905 2.70762,0.77814 4.13571,1.0694l0.5154,0.17333c0,0 1.28972,0.47645 0.81329,1.76615z" fill="#246800"/><path d="M235.53533,183.35695c-0.47639,1.28969 -1.76612,0.81334 -1.76612,0.81334l-0.49131,-0.19623c-1.4478,-0.78303 -2.90293,-1.55158 -4.35802,-2.32103c0,0 -1.21545,-0.6427 -0.57275,-1.85815c0.6427,-1.21545 1.85814,-0.57277 1.85814,-0.57277c1.46271,0.77343 2.92526,1.54604 4.38066,2.3331l0.13609,0.03557c0,0 1.28973,0.47647 0.8133,1.76617z" fill="#246800"/><path d="M239.38352,181.50848c1.00291,-0.94053 1.94338,0.06237 1.94338,0.06237l0.58696,0.72909c0.95815,2.0821 1.6946,4.24823 2.65374,6.32811c0,0 0.5751,1.24886 -0.67378,1.82397c-1.24886,0.5751 -1.82395,-0.67374 -1.82395,-0.67374c-0.9571,-2.08133 -1.6945,-4.24663 -2.65373,-6.32809l-0.09507,0.00179c0,0 -0.94049,-1.00285 0.06242,-1.94341z" fill="#246800"/><path d="M238.86947,179.47842c-0.47639,1.28969 -1.7661,0.81326 -1.7661,0.81326l-0.72495,-0.27209c-1.41629,-0.65174 -2.71147,-1.35777 -4.1786,-1.89576c0,0 -1.28972,-0.47645 -0.81329,-1.76615c0.47639,-1.28969 1.76615,-0.81329 1.76615,-0.81329c1.53427,0.57047 2.89204,1.29703 4.37365,1.97643l0.52989,0.1914c0,0 1.28972,0.47645 0.81329,1.76615z" fill="#246800"/><path d="M242.91254,177.20219c1.24886,-0.5751 1.82397,0.67378 1.82397,0.67378l0.38073,0.8431c0.3276,0.95134 0.67609,1.89595 1.04855,2.8307c0,0 0.50864,1.2773 -0.7687,1.78596c-1.27734,0.50866 -1.78598,-0.76864 -1.78598,-0.76864c-0.38803,-0.97496 -0.75149,-1.96 -1.09359,-2.95199l-0.27868,-0.58888c0,0 -0.57511,-1.24878 0.67377,-1.82389z" fill="#246800"/><path d="M242.53997,175.01107c-0.47639,1.28969 -1.76615,0.81329 -1.76615,0.81329l-0.3067,-0.11759c-1.36504,-0.63203 -2.62255,-0.95241 -4.09247,-1.28262c0,0 -1.34136,-0.30177 -1.03959,-1.64313c0.30178,-1.34134 1.64313,-1.03959 1.64313,-1.03959c1.65008,0.37179 3.09749,0.76428 4.63687,1.46653l0.11162,0.03691c0,0 1.28972,0.47645 0.81329,1.76615z" fill="#246800"/><path d="M247.95574,170.62742c1.24886,-0.5751 1.82395,0.67374 1.82395,0.67374l0.25376,0.57101c0.47209,1.43703 0.93702,2.23323 1.81572,3.30714c-0.31543,0.92989 -0.60595,1.84938 -0.8667,2.75002c-0.49612,-0.10199 -0.82738,-0.49161 -0.82738,-0.49161c-1.33238,-1.57946 -2.07908,-2.75606 -2.73105,-4.69821l-0.14194,-0.28818c0,0 -0.57514,-1.24884 0.67374,-1.82395z" fill="#246800"/><path d="M250.22626,168.01971c1.24886,-0.5751 1.82395,0.67374 1.82395,0.67374l0.09665,0.29923c0.57107,0.72996 0.87256,1.36539 1.31624,1.85413c-0.3567,0.88295 -0.69811,1.76834 -1.02021,2.64905c-1.00174,-0.69632 -1.44677,-1.51957 -2.45937,-2.80573l-0.43094,-0.84644c0,0 -0.5751,-1.24886 0.67374,-1.82395z" fill="#246800"/><path d="M252.74804,166.10517c-0.8989,1.04029 -1.93928,0.14136 -1.93928,0.14136l-0.46446,-0.44757c-0.49711,-0.26282 -0.99419,-0.52568 -1.49128,-0.78856c0,0 -1.21547,-0.64269 -0.57277,-1.85814c0.6427,-1.21545 1.85815,-0.57283 1.85815,-0.57283c0.49711,0.26282 0.99416,0.52572 1.49131,0.78857l0.97697,0.79789c0,0 1.04029,0.8989 0.1414,1.93926z" fill="#246800"/><path d="M245.29927,174.8219c1.13732,-0.7726 1.90987,0.36474 1.90987,0.36474l0.57925,0.85634c0.75288,1.25242 1.59479,2.3945 2.47909,3.55705c0,0 0.09571,0.12577 0.1795,0.3245c-0.12723,0.51753 -0.24254,1.02606 -0.3449,1.52376c-0.03043,0.02639 -0.0626,0.05249 -0.09661,0.0784c-1.09434,0.8323 -1.92668,-0.26202 -1.92668,-0.26202c-0.94392,-1.24128 -1.83956,-2.46701 -2.6458,-3.80264l-0.49843,-0.73019c0,0 -0.7726,-1.13732 0.36474,-1.90987z" fill="#693d00"/><path d="M252.38993,165.70783c0.85983,-1.07288 1.93267,-0.21305 1.93267,-0.21305l0.41819,0.35282c0.20012,0.21484 0.40653,0.42427 0.61859,0.62802c-0.40254,0.86833 -0.7962,1.75108 -1.17684,2.64119c-0.50521,-0.43862 -0.98907,-0.90226 -1.44748,-1.38821l-0.132,-0.0881c0,0 -1.07288,-0.85983 -0.21308,-1.93272z" fill="#693d00"/></g></g></g></svg>