<svg version="1.1" xmlns="http://www.w3.org/2000/svg" xmlns:xlink="http://www.w3.org/1999/xlink" width="45.25653" height="45.6933" viewBox="0,0,45.25653,45.6933"><g transform="translate(-217.08135,-157.67767)"><g data-paper-data="{&quot;isPaintingLayer&quot;:true}" fill-rule="nonzero" stroke-width="0.5" stroke-linejoin="miter" stroke-miterlimit="10" stroke-dasharray="" stroke-dashoffset="0" style="mix-blend-mode: normal"><path d="M222.07116,158.61718c0.5365,-0.24547 1.05023,-0.24547 1.05023,-0.24547l1.4998,0.00499c4.14369,0.27863 8.19258,0.12677 12.31891,0.75133c4.72685,-0.01054 9.14944,0.27823 13.83125,-0.56994c2.03767,-0.36915 6.63035,-1.48171 8.55024,-0.42757c3.70618,2.03492 2.95348,5.13812 2.95348,8.4918c0,7.2576 0,14.49744 0,21.75218c0,3.42162 -0.56739,6.44345 -0.9008,9.80758c-0.12259,1.23695 0.63002,2.77638 -0.17322,3.725c-2.17069,2.56356 -8.81629,1.05484 -11.51846,0.69966c-9.29264,-1.22145 -18.67455,-0.49826 -27.87215,0.61629c-1.40108,-0.48345 -3.21563,-0.34521 -4.20325,-1.45038c-0.85029,-0.95149 -0.3897,-2.52478 -0.48619,-3.79719c-0.184,-2.42645 0.43017,-4.65976 0.605,-7.04971c0.28794,-3.9362 -0.81008,-7.86336 -0.44593,-11.90387c0.54003,-5.99209 2.46443,-12.1251 1.23476,-18.10892c0,0 -0.44126,-2.2063 1.76504,-2.64756c0.81642,-0.16329 1.39115,0.03596 1.79128,0.35179z" fill="#998830" stroke="none" stroke-linecap="butt"/><path d="M224.47152,158.62052l-1.50015,44.1554" fill="none" stroke="#7a6c26" stroke-linecap="round"/><path d="M228.37191,158.79685l-1.05011,43.6874" fill="none" stroke="#7a6c26" stroke-linecap="round"/><path d="M231.31374,158.89396v43.18196" fill="none" stroke="#7a6c26" stroke-linecap="round"/><path d="M235.2726,159.18881l-1.50015,42.75376" fill="none" stroke="#7a6c26" stroke-linecap="round"/><path d="M239.17299,159.40404l-1.05011,42.4211" fill="none" stroke="#7a6c26" stroke-linecap="round"/><path d="M242.12245,159.4301v42.28218" fill="none" stroke="#7a6c26" stroke-linecap="round"/><path d="M245.77365,159.29769l-1.50015,42.60093" fill="none" stroke="#7a6c26" stroke-linecap="round"/><path d="M249.67404,158.97142l-1.05011,43.19993" fill="none" stroke="#7a6c26" stroke-linecap="round"/><path d="M252.61459,158.45264v44.32515" fill="none" stroke="#7a6c26" stroke-linecap="round"/><path d="M256.2747,157.92767l-1.50015,45.14828" fill="none" stroke="#7a6c26" stroke-linecap="round"/><path d="M260.17509,158.89021l-1.05011,43.96348" fill="none" stroke="#7a6c26" stroke-linecap="round"/><path d="M220.958,158.46961v44.30998" fill="none" stroke="#7a6c26" stroke-linecap="round"/></g></g></svg>