<svg version="1.1" xmlns="http://www.w3.org/2000/svg" xmlns:xlink="http://www.w3.org/1999/xlink" width="16.19028" height="21.00369" viewBox="0,0,16.19028,21.00369"><g transform="translate(-238.43459,-175.98482)"><g data-paper-data="{&quot;isPaintingLayer&quot;:true}" fill-rule="nonzero" stroke-linejoin="miter" stroke-miterlimit="10" stroke-dasharray="" stroke-dashoffset="0" style="mix-blend-mode: normal"><path d="M248.63452,192.06039c0.10629,-0.05351 0.19441,-0.09157 0.26643,-0.11633c0.01188,-0.03044 0.03493,-0.06101 0.07549,-0.08808c0.15661,-0.10453 0.26114,0.05209 0.26114,0.05209l0.06968,0.1044c0.14632,0.21985 0.33506,0.39148 0.48193,0.609c0,0 0.10452,0.1566 -0.05209,0.26113c-0.03161,0.02111 -0.06112,0.03157 -0.08806,0.03482c-0.07513,0.07663 -0.18948,0.04032 -0.18948,0.04032l-0.09324,-0.03307c-0.60229,-0.08222 -1.71918,0.74895 -2.21533,1.0801c-1.02073,0.82406 -2.26946,1.67054 -2.88437,2.87783c0,0 -0.08614,0.16743 -0.25357,0.08129c-0.16743,-0.08614 -0.08129,-0.25357 -0.08129,-0.25357c0.012,-0.02313 0.0242,-0.04613 0.03661,-0.069c0.22521,-1.06795 1.71339,-2.16363 2.46426,-2.91035c0.75063,-0.50469 1.39246,-1.26314 2.20188,-1.67058z" data-paper-data="{&quot;index&quot;:null}" fill="#8c8172" stroke="none" stroke-width="0.5" stroke-linecap="butt"/><path d="M247.16854,186.46676c0.02784,-0.03327 0.06977,-0.06199 0.13228,-0.07889c0.24133,-0.06526 0.30659,0.17608 0.30659,0.17608l0.04351,0.16088c0.09108,0.33861 0.25594,0.63449 0.34871,0.9704c0,0 0.06525,0.24134 -0.17608,0.30659c-0.04872,0.01317 -0.09028,0.01385 -0.12556,0.00654c-0.12699,0.06464 -0.25552,-0.02947 -0.25552,-0.02947l-0.10334,-0.08109c-0.72315,-0.35841 -2.48054,0.21483 -3.2451,0.42157c-1.63336,0.605 -3.56314,1.14171 -4.848,2.40077c0,0 -0.17928,0.17424 -0.35352,-0.00503c-0.17424,-0.17928 0.00503,-0.35352 0.00503,-0.35352c0.02489,-0.02402 0.04999,-0.0478 0.07528,-0.07133c0.73545,-1.24865 3.07205,-1.99762 4.33307,-2.61951c1.15827,-0.31741 2.28702,-1.00022 3.47811,-1.17037c0.15642,-0.02235 0.28342,-0.03295 0.38454,-0.03362z" data-paper-data="{&quot;index&quot;:null}" fill="#8c8172" stroke="none" stroke-width="0.5" stroke-linecap="butt"/><path d="M246.04215,188.55435c0.13951,-0.0742 0.25534,-0.12735 0.3502,-0.16236c0.01486,-0.04075 0.04454,-0.08202 0.09758,-0.11917c0.20477,-0.14342 0.34819,0.06135 0.34819,0.06135l0.09561,0.13651c0.20078,0.28747 0.45642,0.50968 0.65787,0.79403c0,0 0.14342,0.20477 -0.06135,0.34819c-0.04134,0.02896 -0.08019,0.04372 -0.11585,0.04884c-0.09744,0.10396 -0.25032,0.05916 -0.25032,0.05916l-0.12475,-0.04112c-0.80191,-0.09119 -2.25972,1.04541 -2.90845,1.49977c-1.33036,1.12429 -2.9627,2.28513 -3.74295,3.90603c0,0 -0.10935,0.22481 -0.33417,0.11546c-0.22482,-0.10936 -0.11547,-0.33417 -0.11547,-0.33417c0.01524,-0.03106 0.03075,-0.06195 0.04654,-0.09268c0.26711,-1.42432 2.20987,-2.9231 3.18433,-3.93668c0.98135,-0.6923 1.81072,-1.7182 2.873,-2.28317z" data-paper-data="{&quot;index&quot;:null}" fill="#8c8172" stroke="none" stroke-width="0.5" stroke-linecap="butt"/><path d="M247.61248,179.97149c2.32003,1.55084 3.61148,3.68964 2.88453,4.77716c-0.72696,1.08752 -3.19703,0.71193 -5.51707,-0.83891c-2.32004,-1.55084 -3.61148,-3.68964 -2.88453,-4.77716c0.72695,-1.08752 3.19702,-0.71193 5.51706,0.83891z" data-paper-data="{&quot;index&quot;:null}" fill="#8c6738" stroke="none" stroke-width="0" stroke-linecap="butt"/><path d="M244.31254,192.49054c-3.26809,-1.35005 -4.91053,-4.88185 -3.66848,-7.8885c1.24204,-3.00664 4.89823,-4.34958 8.16633,-2.99953c3.26809,1.35005 4.91053,4.88185 3.66848,7.8885c-1.24204,3.00664 -4.89823,4.34958 -8.16633,2.99953z" data-paper-data="{&quot;index&quot;:null}" fill="#8c6738" stroke="none" stroke-width="0" stroke-linecap="butt"/><path d="M248.77716,189.36993c-0.32108,-1.03761 0.65693,-2.70608 2.18446,-3.72663c1.52753,-1.02055 3.02613,-1.00671 3.34721,0.0309c0.32108,1.03761 -0.65693,2.70608 -2.18446,3.72663c-1.52752,1.02055 -3.02613,1.00671 -3.34721,-0.0309z" data-paper-data="{&quot;index&quot;:null}" fill="#8c6738" stroke="none" stroke-width="0" stroke-linecap="butt"/><path d="M252.36258,183.74444c1.64572,0.81638 2.38003,2.12281 1.64015,2.91799c-0.73989,0.79518 -2.6738,0.77798 -4.31951,-0.0384c-1.64571,-0.81638 -2.38003,-2.12281 -1.64015,-2.91799c0.73988,-0.79517 2.6738,-0.77797 4.31951,0.03841z" data-paper-data="{&quot;index&quot;:null}" fill="#8c6738" stroke="none" stroke-width="0" stroke-linecap="butt"/><path d="M252.24653,183.05003l0.56296,0.44265l-0.28446,0.76487l-0.64237,-0.27587l0.33421,-0.85987" data-paper-data="{&quot;index&quot;:null}" fill="#b39675" stroke="#b39675" stroke-width="0.5" stroke-linecap="round"/><path d="M254.52781,186.76538c-0.09545,0.23106 -0.32651,0.13561 -0.32651,0.13561l-0.25726,-0.10628c-0.08575,-0.03543 -0.1715,-0.07085 -0.25726,-0.10628c0,0 -0.23106,-0.09545 -0.13561,-0.32651c0.09545,-0.23106 0.32651,-0.13561 0.32651,-0.13561c0.01487,0.00614 0.03749,0.01548 0.06515,0.02691c-0.17472,-1.36638 -1.88898,-1.61134 -3.05916,-2.09474c0,0 -0.23106,-0.09545 -0.13561,-0.32651c0.09545,-0.23106 0.32651,-0.13561 0.32651,-0.13561c1.46064,0.6034 3.3806,0.91652 3.38283,2.78257c0.05995,0.04764 0.13104,0.13968 0.07042,0.28644z" data-paper-data="{&quot;index&quot;:null}" fill="#864e00" stroke="none" stroke-width="0.5" stroke-linecap="butt"/><path d="M254.60177,186.82939c-0.09545,0.23106 -0.32651,0.13561 -0.32651,0.13561l-0.17151,-0.07085c-0.17151,-0.07085 -0.34302,-0.1417 -0.51453,-0.21255c0,0 -0.23106,-0.09545 -0.13561,-0.32651c0.09545,-0.23106 0.32651,-0.13561 0.32651,-0.13561c0.1715,0.07085 0.51452,0.21255 0.68603,0.2834c0,0 0.23106,0.09545 0.13561,0.32651z" data-paper-data="{&quot;index&quot;:null}" fill="#871400" stroke="none" stroke-width="0.5" stroke-linecap="butt"/><path d="M249.95618,189.19485c-0.08075,-0.14734 0.047,-0.28204 0.047,-0.28204c0.76918,-0.67572 1.19202,0.54205 0.17257,0.47175l-0.06713,-0.02173c0,0 -0.12296,-0.0508 -0.15243,-0.16798z" data-paper-data="{&quot;index&quot;:null}" fill="#000000" stroke="none" stroke-width="0.5" stroke-linecap="butt"/><path d="M245.55996,193.10217c-0.50351,0.44732 -0.99976,0.04436 -1.40046,-0.41394c0,0 -0.16398,-0.18871 0.02473,-0.35269c0.18871,-0.16398 0.35269,0.02473 0.35269,0.02473c0.13492,0.15639 0.5596,0.66914 0.69479,0.3694l0.13092,-0.08673c0,0 0.23088,-0.09589 0.32677,0.13499c0.08696,0.20939 -0.09484,0.30775 -0.12944,0.32425z" data-paper-data="{&quot;index&quot;:null}" fill="#8c6738" stroke="none" stroke-width="0.5" stroke-linecap="butt"/><path d="M242.06506,189.64345c-1.30812,0 -2.36855,-2.26226 -2.36855,-5.0529c0,-2.79064 1.06044,-5.0529 2.36855,-5.0529c1.30812,0 2.36855,2.26226 2.36855,5.0529c0,2.79064 -1.06044,5.0529 -2.36855,5.0529z" data-paper-data="{&quot;index&quot;:null}" fill="#8c6738" stroke="none" stroke-width="0" stroke-linecap="butt"/><path d="M248.28423,184.41422c0.23106,0.09545 0.13561,0.32651 0.13561,0.32651l-0.02794,0.06763c-0.58807,1.42355 -0.35081,1.86322 0.44242,3.04526c0,0 0.13931,0.20759 -0.06828,0.3469c-0.20759,0.13931 -0.3469,-0.06829 -0.3469,-0.06829c-0.87621,-1.30569 -1.13404,-1.95418 -0.48936,-3.51478l0.02794,-0.06763c0,0 0.09545,-0.23106 0.32651,-0.13561z" data-paper-data="{&quot;index&quot;:null}" fill="#864e00" stroke="none" stroke-width="0.5" stroke-linecap="butt"/><path d="M242.6572,188.53813c-1.94036,0 -3.51334,-2.81015 -3.51334,-6.27665c0,-3.4665 1.57297,-6.27665 3.51334,-6.27665c1.94036,0 3.51334,2.81015 3.51334,6.27665c0,3.4665 -1.57297,6.27665 -3.51334,6.27665z" data-paper-data="{&quot;index&quot;:null}" fill="#8c6738" stroke="none" stroke-width="0" stroke-linecap="butt"/><g data-paper-data="{&quot;index&quot;:null}" stroke="none" stroke-width="0.5" stroke-linecap="butt"><path d="M248.41917,184.70996c0.09174,0.23255 -0.14081,0.3243 -0.14081,0.3243l-0.23671,0.05137c-0.46505,-0.0899 -0.93852,-0.17475 -1.38385,-0.33628c-1.61248,-0.59021 -3.22642,-1.4977 -4.79019,-2.0314c0,0 -0.23477,-0.08593 -0.14883,-0.3207c0.08594,-0.23477 0.3207,-0.14884 0.3207,-0.14884c1.58603,0.60774 3.14503,1.42923 4.79019,2.03139c0.4182,0.15471 0.86911,0.23028 1.30689,0.31491l-0.0417,-0.02557c0,0 0.23255,-0.09174 0.3243,0.14081z" fill="#7a6a5e"/><path d="M242.58298,182.74874c0.18606,0.16697 0.01908,0.35304 0.01908,0.35304l-0.05421,0.06042c-0.00787,0.08969 -0.06802,0.15672 -0.06802,0.15672l-0.10812,0.11938c-0.42031,0.4016 -0.83316,0.86359 -1.43416,0.91294c0,0 -0.24963,0.01351 -0.26313,-0.23613c-0.0135,-0.24963 0.23613,-0.26313 0.23613,-0.26313c0.35338,-0.00234 0.67469,-0.32762 0.94289,-0.60191c0.01437,-0.07871 0.06511,-0.13524 0.06511,-0.13524c0.05867,-0.06537 0.25273,-0.28161 0.31139,-0.34698c0,0 0.16698,-0.18606 0.35304,-0.01909z" fill="#7a0c00"/><path d="M242.26646,182.38203l-0.01987,-0.12035c-0.08956,-0.45669 -0.22657,-0.68131 -0.57125,-0.99017c0,0 -0.18605,-0.16698 -0.01908,-0.35304c0.16697,-0.18606 0.35304,-0.01909 0.35304,-0.01909c0.42139,0.37867 0.616,0.70788 0.72773,1.26497l0.02268,0.13572c0,0 0.04098,0.24662 -0.20564,0.2876c-0.24662,0.04098 -0.28761,-0.20564 -0.28761,-0.20564z" fill="#7a0c00"/><path d="M244.27765,183.56143c0.18606,0.16697 0.01908,0.35304 0.01908,0.35304l-0.04062,0.04526c-0.31532,0.35137 -0.62293,0.70111 -1.01502,0.96814c0,0 -0.20712,0.14001 -0.34713,-0.0671c-0.14001,-0.20711 0.06711,-0.34713 0.06711,-0.34713c0.35824,-0.24002 0.63641,-0.56858 0.92292,-0.88784l0.04062,-0.04527c0,0 0.16698,-0.18606 0.35304,-0.01909z" fill="#7a0c00"/><path d="M244.33152,183.33847c-0.24662,0.04097 -0.2876,-0.20564 -0.2876,-0.20564l-0.02128,-0.12804c-0.1192,-0.71737 -0.10484,-1.34162 -0.58847,-1.92913c0,0 -0.01224,-0.01494 -0.02577,-0.0399c0.26967,0.17905 0.55573,0.35679 0.85116,0.53102c0.13732,0.42218 0.17494,0.86636 0.25632,1.35604l0.02128,0.12804c0,0 0.04098,0.24662 -0.20564,0.2876z" fill="#7a0c00"/><path d="M245.96329,184.19558c0.23192,0.09333 0.13858,0.32526 0.13858,0.32526l-0.11121,0.26351c-0.2589,0.39405 -0.57813,0.70153 -0.92717,1.00509c-0.18782,-0.01009 -0.36674,-0.0155 -0.53259,-0.01579c-0.04687,-0.14596 0.08316,-0.25701 0.08316,-0.25701c0.36063,-0.30799 0.69746,-0.60441 0.95802,-1.00577l0.06594,-0.17669c0,0 0.09334,-0.23192 0.32526,-0.13859z" fill="#7a0c00"/><path d="M245.70385,183.86233l-0.01237,-0.22899c-0.02842,-0.53825 -0.12371,-0.92106 -0.26201,-1.41718c0.19913,0.10452 0.39843,0.20642 0.59599,0.30509c0.0842,0.34941 0.1432,0.68511 0.16529,1.08509l0.01238,0.22899c0,0 0.01349,0.24964 -0.23615,0.26314c-0.24964,0.0135 -0.26313,-0.23614 -0.26313,-0.23614z" fill="#7a0c00"/><path d="M246.90109,184.49562c0.24983,0.00916 0.24067,0.25899 0.24067,0.25899l-0.00695,0.17466c-0.02927,0.2812 -0.0945,0.54566 -0.18616,0.79872c-0.19604,0.01469 -0.3843,0.03454 -0.56017,0.05943c0.12593,-0.28516 0.21596,-0.58496 0.24896,-0.90935l0.00465,-0.14177c0,0 0.00916,-0.24983 0.25899,-0.24067z" fill="#7a0c00"/><path d="M247.19002,184.52989c-0.24743,-0.03572 -0.21171,-0.28316 -0.21171,-0.28316l0.01302,-0.0871c0.06456,-0.31313 0.0784,-0.59828 0.08721,-0.89255c0.15211,0.14753 0.31187,0.2948 0.47666,0.44016c-0.01327,0.18032 -0.03486,0.36265 -0.07417,0.55335l-0.00786,0.05757c0,0 -0.03572,0.24744 -0.28315,0.21172z" fill="#7a0c00"/><path d="M248.12781,184.90045c0.2411,0.06614 0.17496,0.30723 0.17496,0.30723l-0.02398,0.08743c-0.03912,0.14251 -0.07764,0.27611 -0.1234,0.40647c-0.17769,-0.00497 -0.35628,-0.00607 -0.53289,-0.00337c0.07403,-0.1716 0.12149,-0.34351 0.1741,-0.53538l0.02398,-0.08741c0,0 0.06613,-0.2411 0.30723,-0.17496z" fill="#7a0c00"/><path d="M243.45759,183.26127c0.18606,0.16697 0.01909,0.35304 0.01909,0.35304l-0.0419,0.04558c-0.39531,0.51434 -0.82058,0.72279 -1.38651,1.00341c0,0 -0.22413,0.11073 -0.33488,-0.1134c-0.11074,-0.22413 0.1134,-0.33487 0.1134,-0.33487c0.5,-0.24624 0.86461,-0.4071 1.21135,-0.85956l0.06641,-0.0751c0,0 0.16698,-0.18606 0.35304,-0.01909z" fill="#7a6500"/><path d="M243.53284,183.00745c-0.24903,-0.02194 -0.22709,-0.27098 -0.22709,-0.27098l0.0083,-0.06552c-0.01376,-0.4389 -0.29493,-1.02258 -0.489,-1.42849c0,0 -0.10753,-0.22569 0.11817,-0.33322c0.22569,-0.10752 0.33322,0.11817 0.33322,0.11817c0.22371,0.47104 0.50117,1.10348 0.53689,1.61655l-0.0095,0.1364c0,0 -0.02195,0.24903 -0.27098,0.22709z" fill="#7a6500"/><path d="M245.18271,183.98237c0.22932,0.09956 0.12975,0.32888 0.12975,0.32888l-0.03384,0.07609c-0.22502,0.41435 -0.60632,0.73256 -0.90025,1.10465c0,0 -0.15504,0.19612 -0.35116,0.04108c-0.19613,-0.15504 -0.04107,-0.35116 -0.04107,-0.35116c0.2687,-0.33962 0.6561,-0.64667 0.85047,-1.02829l0.01721,-0.04151c0,0 0.09957,-0.22932 0.32889,-0.12975z" fill="#7a6500"/><path d="M245.26467,183.67636c-0.24993,-0.00569 -0.24425,-0.25562 -0.24425,-0.25562l0.0055,-0.20674c0.04215,-0.40433 -0.02778,-0.69452 -0.11604,-1.09057c0,0 -0.05435,-0.24402 0.18967,-0.29837c0.24402,-0.05435 0.29837,0.18966 0.29837,0.18966c0.09886,0.44407 0.17181,0.7941 0.12537,1.25048l-0.003,0.16692c0,0 -0.00569,0.24994 -0.25562,0.24425z" fill="#7a6500"/><path d="M246.44471,184.17311c-0.24964,0.0135 -0.26313,-0.23614 -0.26313,-0.23614l0.00592,-0.23919c0.11376,-0.32481 0.24155,-0.64234 0.3866,-0.95371c0.11587,0.12963 0.24022,0.2606 0.37122,0.39175c-0.10495,0.23828 -0.19969,0.48051 -0.28588,0.7271l0.0214,0.04706c0,0 0.0135,0.24963 -0.23614,0.26313z" fill="#7a6500"/><path d="M246.5701,184.53728c0.21785,0.12264 0.09522,0.34049 0.09522,0.34049l-0.12347,0.20719c-0.17304,0.19281 -0.34303,0.38145 -0.50066,0.58714c0,0 -0.1522,0.19832 -0.35053,0.04611c-0.19833,-0.15221 -0.04611,-0.35053 -0.04611,-0.35053c0.16573,-0.21564 0.3436,-0.41434 0.52517,-0.61666l0.05989,-0.11851c0,0 0.12264,-0.21786 0.34049,-0.09522z" fill="#7a6500"/><path d="M247.83395,184.70776c-0.24545,-0.04745 -0.198,-0.29291 -0.198,-0.29291l0.02898,-0.14223c0.03939,-0.12778 0.08053,-0.24856 0.1159,-0.37015c0.13677,0.11612 0.27607,0.23049 0.41652,0.34226c-0.01792,0.05749 -0.03627,0.11568 -0.0546,0.17516l-0.01589,0.08985c0,0 -0.04745,0.24547 -0.2929,0.19802z" fill="#7a6500"/><path d="M247.54929,184.74436c0.22932,0.09957 0.12975,0.32889 0.12975,0.32889l-0.04146,0.09166c-0.05642,0.18224 -0.12107,0.36233 -0.19676,0.53745c-0.15455,0.0047 -0.30683,0.01234 -0.45487,0.0229c-0.05529,-0.10335 -0.0042,-0.22101 -0.0042,-0.22101c0.06904,-0.15832 0.12736,-0.32148 0.17801,-0.4866l0.06065,-0.14353c0,0 0.09956,-0.22932 0.32888,-0.12975z" fill="#7a6500"/><path d="M242.19681,182.73074c0.16853,0.18466 -0.01613,0.35318 -0.01613,0.35318l-0.15975,0.14539c-0.18775,0.15511 -0.37426,0.31176 -0.55813,0.47145c0,0 -0.18877,0.1639 -0.35269,-0.02486c-0.16391,-0.18877 0.02485,-0.35268 0.02485,-0.35268c0.18697,-0.16235 0.37661,-0.32165 0.5675,-0.47938l0.14118,-0.12926c0,0 0.18466,-0.16852 0.35318,0.01614z" fill="#246800"/><path d="M241.99496,182.15613l-0.13625,-0.14812c-0.07543,-0.06769 -0.15086,-0.13539 -0.22629,-0.20308c0,0 -0.18606,-0.16698 -0.01909,-0.35304c0.16697,-0.18606 0.35304,-0.01908 0.35304,-0.01908c0.07543,0.06769 0.15086,0.13538 0.22629,0.20307l0.16858,0.17989c0,0 0.17017,0.18313 -0.01296,0.35332c-0.18313,0.17018 -0.35332,-0.01296 -0.35332,-0.01296z" fill="#246800"/><path d="M243.28925,182.66089c-0.24402,0.05435 -0.29837,-0.18967 -0.29837,-0.18967l-0.02957,-0.14117c-0.08554,-0.24431 -0.19501,-0.44149 -0.34008,-0.65551c0,0 -0.14001,-0.20712 0.0671,-0.34713c0.20712,-0.14001 0.34713,0.06711 0.34713,0.06711c0.16791,0.24901 0.29614,0.48561 0.39721,0.76875l0.04625,0.19924c0,0 0.05435,0.24402 -0.18967,0.29837z" fill="#246800"/><path d="M242.94504,183.07367c0.18606,0.16697 0.01909,0.35304 0.01909,0.35304l-0.06817,0.07161c-0.20494,0.16803 -0.39765,0.32505 -0.57433,0.52294c0,0 -0.16698,0.18606 -0.35304,0.01909c-0.18606,-0.16697 -0.01909,-0.35304 -0.01909,-0.35304c0.19477,-0.21605 0.40484,-0.39147 0.62944,-0.57563l0.01306,-0.01892c0,0 0.16698,-0.18605 0.35304,-0.01908z" fill="#246800"/><path d="M243.88825,183.79303l-0.01887,0.01727c-0.16726,0.25008 -0.33689,0.49844 -0.50648,0.74695c0,0 -0.14092,0.2065 -0.34742,0.06558c-0.2065,-0.14092 -0.06558,-0.34742 -0.06558,-0.34742c0.1687,-0.24722 0.33748,-0.4943 0.50386,-0.74309l0.06236,-0.07325c0,0 0.16698,-0.18605 0.35304,-0.01908c0.18606,0.16697 0.01909,0.35304 0.01909,0.35304z" fill="#246800"/><path d="M244.64486,183.41067c-0.2411,-0.06614 -0.17496,-0.30723 -0.17496,-0.30723l0.01544,-0.00778c-0.02238,-0.41613 -0.08755,-0.82692 -0.11026,-1.24285c0,0 -0.0135,-0.24963 0.23614,-0.26313c0.24964,-0.0135 0.26314,0.23614 0.26314,0.23614c0.02226,0.41587 0.08765,0.82671 0.11026,1.24285l-0.03252,0.16706c0,0 -0.06613,0.24109 -0.30723,0.17495z" fill="#246800"/><path d="M244.73449,183.78077c0.18606,0.16697 0.01909,0.35304 0.01909,0.35304l-0.06897,0.07575c-0.18061,0.23499 -0.3373,0.46706 -0.53562,0.689c0,0 -0.16698,0.18606 -0.35304,0.01909c-0.18606,-0.16697 -0.01909,-0.35304 -0.01909,-0.35304c0.19028,-0.21102 0.33865,-0.43447 0.5111,-0.65947l0.09349,-0.10528c0,0 0.16697,-0.18606 0.35303,-0.01909z" fill="#246800"/><path d="M245.57783,183.80369c-0.24964,0.0135 -0.26313,-0.23613 -0.26313,-0.23613l-0.00516,-0.11835c-0.02917,-0.18856 -0.05431,-0.37781 -0.07465,-0.56753c0,0 -0.0266,-0.24857 0.22198,-0.27517c0.24858,-0.0266 0.27518,0.22197 0.27518,0.22197c0.01943,0.18193 0.04355,0.36341 0.0716,0.5442l0.01032,0.16789c0,0 0.0135,0.24964 -0.23614,0.26314z" fill="#246800"/><path d="M245.70387,184.18769c0.18606,0.16697 0.01909,0.35304 0.01909,0.35304l-0.01482,0.01541c-0.18796,0.24357 -0.38741,0.42952 -0.62122,0.62934c0,0 -0.1901,0.16236 -0.35246,-0.02774c-0.16236,-0.1901 0.02774,-0.35246 0.02774,-0.35246c0.20836,-0.17784 0.3834,-0.33608 0.54928,-0.55356l0.03934,-0.04494c0,0 0.16698,-0.18606 0.35304,-0.01909z" fill="#246800"/><path d="M246.94681,184.43305c-0.24964,0.0135 -0.26313,-0.23614 -0.26313,-0.23614l-0.00163,-0.05839c-0.05997,-0.36765 -0.03974,-0.62023 0.04049,-0.9873c0,0 0.02021,-0.09077 0.09134,-0.14927c0.11836,0.12271 0.24311,0.24592 0.37275,0.36869c-0.05017,0.24727 -0.05737,0.41476 -0.01134,0.68592l0.00765,0.11336c0,0 0.0135,0.24963 -0.23614,0.26313z" fill="#246800"/><path d="M247.53323,184.65971c-0.24963,0.0135 -0.26313,-0.23614 -0.26313,-0.23614l-0.00253,-0.17269c0.05369,-0.29277 0.0554,-0.46292 0.1574,-0.65991c0.12654,0.1143 0.25658,0.22771 0.38887,0.33943c-0.02987,0.11625 -0.02443,0.24402 -0.05432,0.40987l0.00985,0.05632c0,0 0.0135,0.24963 -0.23614,0.26313z" fill="#246800"/><path d="M248.10125,184.7536c0.23284,0.09102 0.14183,0.32386 0.14183,0.32386l-0.0894,0.21122c-0.05764,0.08446 -0.11526,0.16892 -0.1729,0.25337c0,0 -0.14093,0.20649 -0.34743,0.06557c-0.2065,-0.14092 -0.06558,-0.34742 -0.06558,-0.34742c0.05763,-0.08446 0.11526,-0.16892 0.1729,-0.25337l0.03671,-0.11139c0,0 0.09102,-0.23285 0.32386,-0.14184z" fill="#246800"/><path d="M246.16364,183.98393c-0.24846,-0.02772 -0.22073,-0.27618 -0.22073,-0.27618l0.01819,-0.15972c0.01631,-0.28321 0.05632,-0.55633 0.10278,-0.83605c0,0 0.04098,-0.24662 0.2876,-0.20564c0.00767,0.00128 0.01506,0.00275 0.02219,0.00441c0.0587,0.07135 0.1204,0.14334 0.18478,0.21577c0.00339,0.03907 -0.00133,0.06742 -0.00133,0.06742c-0.04355,0.262 -0.08202,0.51711 -0.09681,0.78241l-0.02048,0.18687c0,0 -0.02772,0.24846 -0.27618,0.22073z" fill="#693d00"/><path d="M248.07738,184.84789c-0.22932,-0.09957 -0.12975,-0.32889 -0.12975,-0.32889l0.01375,-0.02537c0.03248,-0.11705 0.07095,-0.23267 0.11497,-0.34608c0.13675,0.11084 0.27497,0.21939 0.41339,0.32487c-0.01681,0.05076 -0.03223,0.10196 -0.04618,0.15349l-0.03731,0.09223c0,0 -0.09956,0.22932 -0.32888,0.12975z" fill="#693d00"/></g><g data-paper-data="{&quot;index&quot;:null}" stroke="none" stroke-width="0.5" stroke-linecap="butt"><path d="M247.8966,187.36625c0.19546,0.15587 0.03959,0.35133 0.03959,0.35133l-0.17959,0.16252c-0.44797,0.15388 -0.90071,0.31634 -1.36729,0.3983c-1.69207,0.29214 -3.54356,0.30995 -5.16523,0.6268c0,0 -0.24636,0.04253 -0.28889,-0.20382c-0.04253,-0.24636 0.20382,-0.28889 0.20382,-0.28889c1.67787,-0.26376 3.43887,-0.32873 5.16523,-0.6268c0.43966,-0.07435 0.86821,-0.23361 1.28992,-0.37847l-0.04889,-0.00138c0,0 0.15586,-0.19545 0.35132,-0.03958z" fill="#7a6a5e"/><path d="M241.85958,188.57532c0.24453,0.052 0.19253,0.29653 0.19253,0.29653l-0.01689,0.0794c0.03789,0.08168 0.01916,0.16977 0.01916,0.16977l-0.03422,0.15739c-0.16418,0.55766 -0.29179,1.16395 -0.7882,1.50633c0,0 -0.20967,0.13614 -0.34581,-0.07354c-0.13614,-0.20968 0.07354,-0.34581 0.07354,-0.34581c0.30518,-0.17819 0.42158,-0.62034 0.51735,-0.99182c-0.02678,-0.0754 -0.01098,-0.1497 -0.01098,-0.1497c0.01827,-0.08591 0.07871,-0.37011 0.09698,-0.45602c0,0 0.052,-0.24453 0.29653,-0.19253z" fill="#7a0c00"/><path d="M241.40238,188.41518l-0.07722,-0.09443c-0.3053,-0.35127 -0.53604,-0.47769 -0.9888,-0.57363c0,0 -0.24453,-0.052 -0.19253,-0.29653c0.052,-0.24453 0.29654,-0.19253 0.29654,-0.19253c0.55407,0.11822 0.88688,0.3066 1.26143,0.73385l0.08731,0.10635c0,0 0.15847,0.19337 -0.0349,0.35183c-0.19336,0.15845 -0.35183,-0.03491 -0.35183,-0.03491z" fill="#7a0c00"/><path d="M243.73379,188.43507c0.24453,0.052 0.19253,0.29654 0.19253,0.29654l-0.01265,0.05948c-0.09821,0.46178 -0.19054,0.91831 -0.39733,1.34525c0,0 -0.10976,0.22462 -0.33438,0.11486c-0.22462,-0.10975 -0.11486,-0.33437 -0.11486,-0.33437c0.19091,-0.38665 0.26829,-0.81015 0.35751,-1.22974l0.01265,-0.05948c0,0 0.052,-0.24453 0.29653,-0.19253z" fill="#7a0c00"/><path d="M243.66934,188.21491c-0.19336,0.15846 -0.35183,-0.0349 -0.35183,-0.0349l-0.08227,-0.10038c-0.46093,-0.56247 -0.75966,-1.1108 -1.47178,-1.37903c0,0 -0.01806,-0.00685 -0.04223,-0.02174c0.32303,0.02081 0.65961,0.03229 1.00257,0.03606c0.32949,0.29753 0.58352,0.66385 0.89817,1.04779l0.08227,0.10039c0,0 0.15847,0.19336 -0.0349,0.35182z" fill="#7a0c00"/><path d="M245.5112,188.14456c0.24758,-0.03469 0.28227,0.21289 0.28227,0.21289l0.03494,0.28387c-0.02801,0.47066 -0.15147,0.89634 -0.30274,1.33349c-0.16786,0.08487 -0.32566,0.16936 -0.46958,0.25179c-0.1134,-0.10316 -0.05603,-0.26426 -0.05603,-0.26426c0.15911,-0.44676 0.30335,-0.87163 0.32915,-1.34945l-0.03091,-0.18605c0,0 -0.0347,-0.24758 0.21288,-0.28227z" fill="#7a0c00"/><path d="M245.46596,188.05853c-0.20968,0.13615 -0.34582,-0.07354 -0.34582,-0.07354l-0.12488,-0.19235c-0.29294,-0.45244 -0.56637,-0.7368 -0.93357,-1.09794c0.22473,-0.00865 0.4483,-0.01967 0.66875,-0.03261c0.24716,0.26094 0.46565,0.52254 0.68418,0.85827l0.12489,0.19234c0,0 0.13614,0.20969 -0.07354,0.34583z" fill="#7a0c00"/><path d="M246.47373,187.93719c0.22115,-0.11659 0.33774,0.10455 0.33774,0.10455l0.08104,0.15487c0.1148,0.25836 0.19007,0.52013 0.23676,0.7852c-0.16263,0.11047 -0.31593,0.22152 -0.45599,0.33076c-0.03297,-0.30998 -0.10438,-0.61476 -0.23747,-0.91242l-0.06663,-0.12521c0,0 -0.1166,-0.22115 0.10455,-0.33774z" fill="#7a0c00"/><path d="M246.74129,187.82286c-0.2323,0.09238 -0.32468,-0.13993 -0.32468,-0.13993l-0.03213,-0.082c-0.10013,-0.30363 -0.23027,-0.55774 -0.36932,-0.81723c0.20541,0.05207 0.41731,0.1001 0.63263,0.14397c0.07839,0.16293 0.15056,0.33176 0.21154,0.51667l0.02188,0.05383c0,0 0.09237,0.2323 -0.13993,0.32468z" fill="#7a0c00"/><path d="M248.04379,187.85577l0.0228,0.08775c0.03713,0.14304 0.07033,0.27806 0.09564,0.41388c-0.15652,0.08427 -0.31188,0.17234 -0.46364,0.26272c-0.02136,-0.18568 -0.06591,-0.35835 -0.11595,-0.55091l-0.02278,-0.08774c0,0 -0.06285,-0.24197 0.17912,-0.30482c0.24197,-0.06284 0.30481,0.17912 0.30481,0.17912z" fill="#7a0c00"/><path d="M242.87325,188.58366c0.24453,0.052 0.19253,0.29654 0.19253,0.29654l-0.0136,0.0604c-0.0863,0.64293 -0.35106,1.03563 -0.70179,1.561c0,0 -0.1391,0.20772 -0.34683,0.06862c-0.20773,-0.1391 -0.06862,-0.34682 -0.06862,-0.34682c0.31071,-0.46272 0.5466,-0.7839 0.62165,-1.34899l0.02013,-0.09822c0,0 0.05201,-0.24453 0.29654,-0.19253z" fill="#7a6500"/><path d="M242.81197,188.3261c-0.22683,0.10512 -0.33194,-0.12171 -0.33194,-0.12171l-0.02547,-0.06093c-0.23071,-0.37363 -0.7654,-0.73946 -1.13598,-0.9946c0,0 -0.20572,-0.14206 -0.06367,-0.34778c0.14205,-0.20572 0.34777,-0.06367 0.34777,-0.06367c0.42874,0.29683 0.98453,0.70678 1.27125,1.13376l0.05976,0.12298c0,0 0.10512,0.22682 -0.12171,0.33194z" fill="#7a6500"/><path d="M244.72821,188.34881c0.24843,-0.028 0.27643,0.22043 0.27643,0.22043l0.00859,0.08283c0.01147,0.47138 -0.16045,0.9373 -0.22978,1.40639c0,0 -0.03665,0.2473 -0.28395,0.21066c-0.24729,-0.03664 -0.21064,-0.28395 -0.21064,-0.28395c0.06364,-0.42836 0.24642,-0.88765 0.22469,-1.31537l-0.00577,-0.04456c0,0 -0.02799,-0.24842 0.22043,-0.27642z" fill="#7a6500"/><path d="M244.64672,188.04271c-0.21951,0.11966 -0.33916,-0.09984 -0.33916,-0.09984l-0.09829,-0.18197c-0.16501,-0.37153 -0.37029,-0.58823 -0.64422,-0.88757c0,0 -0.16876,-0.18445 0.01569,-0.35321c0.18445,-0.16876 0.35321,0.01568 0.35321,0.01568c0.30707,0.33567 0.54479,0.60275 0.73202,1.02154l0.08061,0.1462c0,0 0.11965,0.21951 -0.09985,0.33916z" fill="#7a6500"/><path d="M245.91731,187.88511c-0.20968,0.13615 -0.34581,-0.07354 -0.34581,-0.07354l-0.1141,-0.21031c-0.06328,-0.33829 -0.11079,-0.67726 -0.14026,-1.01949c0.16507,0.05461 0.33816,0.10617 0.51709,0.15456c0.0278,0.25888 0.06643,0.5161 0.11463,0.77283l0.04201,0.03012c0,0 0.13613,0.20968 -0.07355,0.34582z" fill="#7a6500"/><path d="M246.20757,188.1383c0.24998,-0.00229 0.25227,0.2477 0.25227,0.2477l-0.00376,0.24116c-0.05389,0.2534 -0.10722,0.50167 -0.14134,0.75856c0,0 -0.03309,0.2478 -0.28089,0.21471c-0.24781,-0.03309 -0.21471,-0.2809 -0.21471,-0.2809c0.03618,-0.26956 0.09133,-0.53047 0.14788,-0.79637l-0.00716,-0.13259c0,0 -0.00229,-0.24999 0.2477,-0.25227z" fill="#7a6500"/><path d="M247.07052,187.50085l-0.04578,-0.13775c-0.02955,-0.13041 -0.0541,-0.25563 -0.08404,-0.37866c0.17645,0.03249 0.35423,0.0622 0.5317,0.08908c0.01312,0.05878 0.02621,0.11837 0.03998,0.17907l0.03101,0.08581c0,0 0.08123,0.23645 -0.15521,0.31767c-0.23644,0.08122 -0.31766,-0.15522 -0.31766,-0.15522z" fill="#7a6500"/><path d="M247.15965,187.8297c0.24842,-0.02799 0.27642,0.22044 0.27642,0.22044l0.00974,0.10013c0.04194,0.18611 0.07568,0.37444 0.09735,0.56399c-0.13165,0.08112 -0.25984,0.16366 -0.38292,0.2466c-0.09945,-0.06203 -0.11381,-0.1895 -0.11381,-0.1895c-0.01907,-0.17166 -0.04984,-0.34218 -0.08825,-0.51057l-0.01897,-0.15465c0,0 -0.02798,-0.24843 0.22044,-0.27643z" fill="#7a6500"/><path d="M241.67789,189.0664l-0.06602,0.20567c-0.08544,0.22806 -0.16905,0.45683 -0.24884,0.68692c0,0 -0.08193,0.23619 -0.31813,0.15426c-0.2362,-0.08193 -0.15426,-0.31812 -0.15426,-0.31812c0.08117,-0.23394 0.16615,-0.46657 0.25301,-0.69846l0.05796,-0.18243c0,0 0.07606,-0.23814 0.31421,-0.16206c0.23815,0.07608 0.16207,0.31422 0.16207,0.31422z" fill="#246800"/><path d="M241.36716,188.18981c-0.07393,0.23882 -0.31275,0.16489 -0.31275,0.16489l-0.19195,-0.0605c-0.09913,-0.02108 -0.19827,-0.04216 -0.2974,-0.06324c0,0 -0.24453,-0.05201 -0.19253,-0.29654c0.052,-0.24453 0.29653,-0.19253 0.29653,-0.19253c0.09913,0.02108 0.19827,0.04216 0.2974,0.06324l0.23581,0.07192c0,0 0.23882,0.07393 0.16489,0.31275z" fill="#246800"/><path d="M242.42805,188.14708c-0.18445,0.16876 -0.35321,-0.01569 -0.35321,-0.01569l-0.096,-0.10763c-0.19595,-0.16915 -0.38913,-0.28552 -0.62158,-0.39874c0,0 -0.22463,-0.10975 -0.11487,-0.33437c0.10975,-0.22462 0.33437,-0.11486 0.33437,-0.11486c0.26969,0.13216 0.49879,0.27334 0.72755,0.46842l0.13941,0.14967c0,0 0.16876,0.18444 -0.01569,0.3532z" fill="#246800"/><path d="M242.52795,188.97306l-0.0234,0.09606c-0.09391,0.24783 -0.18269,0.48 -0.23721,0.73963c0,0 -0.05201,0.24453 -0.29654,0.19253c-0.24453,-0.052 -0.19253,-0.29654 -0.19253,-0.29654c0.06114,-0.28438 0.1558,-0.54118 0.25871,-0.81278l0.0019,-0.02291c0,0 0.05201,-0.24453 0.29654,-0.19253c0.24453,0.052 0.19253,0.29654 0.19253,0.29654z" fill="#246800"/><path d="M243.31912,188.53342c0.24453,0.052 0.19253,0.29653 0.19253,0.29653l-0.00775,0.02438c-0.02034,0.30017 -0.04359,0.60004 -0.06672,0.9c0,0 -0.01923,0.24927 -0.26849,0.23004c-0.24926,-0.01923 -0.23003,-0.26849 -0.23003,-0.26849c0.02302,-0.29841 0.04616,-0.59673 0.06639,-0.89535l0.01754,-0.09458c0,0 0.05201,-0.24453 0.29654,-0.19253z" fill="#246800"/><path d="M243.97699,188.12132c-0.24197,0.06285 -0.30482,-0.17912 -0.30482,-0.17912l0.0095,-0.01444c-0.22684,-0.34959 -0.48812,-0.67322 -0.71513,-1.02247c0,0 -0.13614,-0.20968 0.07354,-0.34582c0.20968,-0.13614 0.34582,0.07354 0.34582,0.07354c0.2266,0.34942 0.48809,0.67299 0.71513,1.02247l0.05508,0.16103c0,0 0.06285,0.24197 -0.17912,0.30482z" fill="#246800"/><path d="M244.43168,188.69403l-0.02203,0.10005c-0.03945,0.29373 -0.05958,0.57302 -0.12088,0.86428c0,0 -0.052,0.24453 -0.29653,0.19253c-0.24453,-0.052 -0.19253,-0.29653 -0.19253,-0.29653c0.05977,-0.27778 0.077,-0.54546 0.11434,-0.82647l0.02857,-0.13787c0,0 0.052,-0.24453 0.29653,-0.19253c0.24453,0.052 0.19253,0.29654 0.19253,0.29654z" fill="#246800"/><path d="M244.98168,187.99699c-0.20968,0.13615 -0.34581,-0.07354 -0.34581,-0.07354l-0.06347,-0.10003c-0.11928,-0.14892 -0.2354,-0.30045 -0.34761,-0.45478c0,0 -0.14698,-0.20224 0.05526,-0.34921c0.20224,-0.14697 0.34921,0.05526 0.34921,0.05526c0.10753,0.14803 0.2189,0.29333 0.33334,0.43608l0.09264,0.1404c0,0 0.13613,0.20968 -0.07355,0.34582z" fill="#246800"/><path d="M245.28236,188.26703c0.24453,0.052 0.19253,0.29653 0.19253,0.29653l-0.00517,0.02075c-0.04152,0.30484 -0.12174,0.56547 -0.22482,0.85524c0,0 -0.08387,0.23552 -0.31938,0.15165c-0.23552,-0.08387 -0.15165,-0.31938 -0.15165,-0.31938c0.09198,-0.25804 0.16484,-0.48247 0.20023,-0.75369l0.01171,-0.05857c0,0 0.05201,-0.24453 0.29654,-0.19253z" fill="#246800"/><path d="M246.13635,187.78662l-0.03052,-0.0498c-0.23526,-0.28883 -0.34363,-0.51787 -0.45705,-0.87608c0,0 -0.02773,-0.08877 0.00477,-0.17494c0.16377,0.04737 0.33333,0.092 0.50692,0.13381c0.07977,0.23937 0.15702,0.38815 0.33209,0.60028l0.06314,0.09445c0,0 0.13614,0.20968 -0.07354,0.34582c-0.20968,0.13615 -0.34581,-0.07354 -0.34581,-0.07354z" fill="#246800"/><path d="M246.75771,187.69079l-0.08827,-0.14844c-0.0994,-0.28056 -0.18274,-0.42893 -0.19251,-0.65054c0.16667,0.03601 0.33592,0.0695 0.5063,0.1004c0.03206,0.11566 0.10046,0.22373 0.15723,0.3824l0.03661,0.0439c0,0 0.13614,0.20968 -0.07354,0.34582c-0.20968,0.13614 -0.34582,-0.07354 -0.34582,-0.07354z" fill="#246800"/><path d="M247.64274,187.56256c0.24722,-0.03717 0.28439,0.21005 0.28439,0.21005l0.02779,0.22767c-0.00786,0.10195 -0.01572,0.20389 -0.02359,0.30584c0,0 -0.01924,0.24926 -0.2685,0.23003c-0.24926,-0.01922 -0.23003,-0.26848 -0.23003,-0.26848c0.00786,-0.10195 0.01572,-0.20389 0.02359,-0.30584l-0.02371,-0.11487c0,0 -0.03717,-0.24722 0.21005,-0.28439z" fill="#246800"/><path d="M245.57939,187.86121c-0.22921,0.09981 -0.32902,-0.1294 -0.32902,-0.1294l-0.06385,-0.14753c-0.12703,-0.25364 -0.22851,-0.51035 -0.32766,-0.776c0,0 -0.08741,-0.23422 0.14681,-0.32163c0.00728,-0.00272 0.01443,-0.00513 0.02143,-0.00725c0.08645,0.03259 0.17583,0.06424 0.26774,0.09494c0.02241,0.03219 0.03245,0.05911 0.03245,0.05911c0.09285,0.24884 0.18666,0.48917 0.30609,0.72653l0.0754,0.1722c0,0 0.09981,0.22921 -0.1294,0.32903z" fill="#693d00"/><path d="M247.66906,187.65621c-0.24843,0.028 -0.27643,-0.22043 -0.27643,-0.22043l-0.00072,-0.02885c-0.03019,-0.11766 -0.05448,-0.23707 -0.07285,-0.35733c0.17379,0.02791 0.34774,0.05312 0.52031,0.07556c0.01072,0.05239 0.02288,0.10445 0.03648,0.15608l0.01363,0.09855c0,0 0.02799,0.24842 -0.22043,0.27642z" fill="#693d00"/></g><g data-paper-data="{&quot;index&quot;:null}" stroke="none" stroke-width="0.5" stroke-linecap="butt"><path d="M248.07086,191.15243c0.22506,0.10883 0.11623,0.3339 0.11623,0.3339l-0.13924,0.19818c-0.4029,0.24905 -0.80856,0.50754 -1.24549,0.69056c-1.5857,0.65879 -3.38751,1.08524 -4.89909,1.75256c0,0 -0.23087,0.09591 -0.32678,-0.13496c-0.09591,-0.23088 0.13495,-0.32679 0.13495,-0.32679c1.57813,-0.62796 3.28126,-1.08043 4.89909,-1.75256c0.41236,-0.16966 0.79513,-0.41967 1.17441,-0.65412l-0.04798,0.00946c0,0 0.10883,-0.22507 0.3339,-0.11624z" fill="#7a6a5e"/><path d="M242.45019,193.66546c0.24998,-0.00331 0.25329,0.24667 0.25329,0.24667l0.00108,0.08116c0.055,0.07129 0.05619,0.16135 0.05619,0.16135l0.0014,0.16106c-0.0369,0.58015 -0.0274,1.19966 -0.43589,1.64325c0,0 -0.17442,0.1791 -0.35352,0.00468c-0.17911,-0.17442 -0.00469,-0.35352 -0.00469,-0.35352c0.25826,-0.2412 0.27411,-0.69816 0.28543,-1.08161c-0.04277,-0.06762 -0.04378,-0.14357 -0.04378,-0.14357c-0.00117,-0.08783 -0.00502,-0.37834 -0.00618,-0.46617c0,0 -0.00331,-0.24998 0.24667,-0.25329z" fill="#7a0c00"/><path d="M242.31976,193.56662c-0.15358,0.19727 -0.35084,0.0437 -0.35084,0.0437l-0.09618,-0.07504c-0.37536,-0.27514 -0.62833,-0.34744 -1.0911,-0.34098c0,0 -0.24998,0.00331 -0.25329,-0.24667c-0.00331,-0.24998 0.24667,-0.25329 0.24667,-0.25329c0.5665,-0.00712 0.9327,0.10307 1.3924,0.437l0.10865,0.08443c0,0 0.19726,0.15357 0.04369,0.35084z" fill="#7a0c00"/><path d="M244.50039,193.36125l0.0008,0.06081c0.00626,0.47207 0.01707,0.93771 -0.09028,1.39979c0,0 -0.05741,0.24331 -0.30073,0.1859c-0.24332,-0.05742 -0.1859,-0.30074 -0.1859,-0.30074c0.10076,-0.41927 0.08264,-0.8494 0.07696,-1.27833l-0.0008,-0.0608c0,0 -0.00332,-0.24998 0.24666,-0.25329c0.24998,-0.00331 0.25329,0.24666 0.25329,0.24666z" fill="#7a0c00"/><path d="M244.1356,192.91412c-0.15357,0.19727 -0.35084,0.0437 -0.35084,0.0437l-0.10242,-0.07973c-0.57381,-0.44673 -0.9863,-0.91551 -1.74009,-1.01976c0,0 -0.01913,-0.00268 -0.04599,-0.01187c0.31965,-0.05109 0.65044,-0.11426 0.98576,-0.18636c0.38709,0.21737 0.71576,0.51851 1.10747,0.82344l0.10242,0.07973c0,0 0.19726,0.15357 0.04369,0.35084z" fill="#7a0c00"/><path d="M245.91637,192.43856c0.2338,-0.08854 0.32234,0.14525 0.32234,0.14525l0.0968,0.26914c0.07667,0.46521 0.05031,0.90765 -0.00063,1.36742c-0.14496,0.11986 -0.28019,0.23713 -0.40234,0.34932c-0.13339,-0.07556 -0.11303,-0.24535 -0.11303,-0.24535c0.05647,-0.47088 0.10327,-0.91712 0.02286,-1.38883l-0.07126,-0.17463c0,0 -0.08853,-0.23379 0.14526,-0.32233z" fill="#7a0c00"/><path d="M245.49975,192.3693l-0.1643,-0.16c-0.38568,-0.37653 -0.71517,-0.59344 -1.15309,-0.86453c0.21727,-0.0581 0.43287,-0.11824 0.64502,-0.17957c0.29871,0.19988 0.5696,0.40674 0.85691,0.6859l0.1643,0.16c0,0 0.1791,0.17442 0.00468,0.35352c-0.17442,0.1791 -0.35352,0.00468 -0.35352,0.00468z" fill="#7a0c00"/><path d="M247.1618,192.05098l0.11326,0.13313c0.16905,0.22661 0.30029,0.46527 0.4044,0.71348c-0.1342,0.14367 -0.25918,0.28583 -0.37164,0.42333c-0.10064,-0.29503 -0.23762,-0.57649 -0.43319,-0.83739l-0.09266,-0.1074c0,0 -0.16258,-0.18992 0.02734,-0.3525c0.18992,-0.16257 0.35249,0.02735 0.35249,0.02735z" fill="#7a0c00"/><path d="M247.04498,191.85299c-0.20616,0.14142 -0.34758,-0.06474 -0.34758,-0.06474l-0.04944,-0.07287c-0.16474,-0.274 -0.34782,-0.49307 -0.54076,-0.71543c0.21184,0.00539 0.42912,0.00542 0.64881,0.00064c0.11246,0.14159 0.22014,0.29029 0.32047,0.45716l0.03324,0.04767c0,0 0.14141,0.20616 -0.06474,0.34758z" fill="#7a0c00"/><path d="M247.98573,191.48995c0.2221,-0.11476 0.33686,0.10735 0.33686,0.10735l0.04161,0.08054c0.06782,0.1313 0.13004,0.25564 0.18473,0.38252c-0.13403,0.11678 -0.26609,0.23699 -0.39413,0.35867c-0.06187,-0.17636 -0.14347,-0.33492 -0.23481,-0.51167l-0.04161,-0.08053c0,0 -0.11475,-0.22211 0.10735,-0.33687z" fill="#7a0c00"/><path d="M243.44066,193.44962c0.24998,-0.00331 0.25329,0.24667 0.25329,0.24667l0.00008,0.06191c0.05788,0.64611 -0.11356,1.08759 -0.33954,1.67748c0,0 -0.08977,0.23332 -0.3231,0.14356c-0.23332,-0.08976 -0.14356,-0.32309 -0.14356,-0.32309c0.20079,-0.51992 0.35989,-0.8853 0.30823,-1.453l-0.00206,-0.10023c0,0 -0.00332,-0.24998 0.24666,-0.25329z" fill="#7a6500"/><path d="M243.32399,193.21196c-0.19799,0.15264 -0.35063,-0.04536 -0.35063,-0.04536l-0.0383,-0.0538c-0.30756,-0.31341 -0.90987,-0.55206 -1.32767,-0.71902c0,0 -0.23203,-0.09309 -0.13894,-0.32511c0.09309,-0.23202 0.32511,-0.13893 0.32511,-0.13893c0.48373,0.19476 1.11634,0.47179 1.49033,0.82486l0.08546,0.10673c0,0 0.15263,0.198 -0.04536,0.35064z" fill="#7a6500"/><path d="M245.1979,192.81076c0.2361,-0.08219 0.31829,0.15391 0.31829,0.15391l0.02668,0.07888c0.11534,0.45719 0.05062,0.94958 0.08664,1.42239c0,0 0.01889,0.24929 -0.23039,0.26819c-0.24928,0.0189 -0.26818,-0.23039 -0.26818,-0.23039c-0.03258,-0.43184 0.0442,-0.92017 -0.07149,-1.33251l-0.01547,-0.04219c0,0 -0.0822,-0.23611 0.15391,-0.3183z" fill="#7a6500"/><path d="M245.05078,192.53021c-0.18764,0.1652 -0.35284,-0.02245 -0.35284,-0.02245l-0.13607,-0.15576c-0.24302,-0.32589 -0.49109,-0.49186 -0.8244,-0.72329c0,0 -0.20534,-0.14261 -0.06274,-0.34795c0.1426,-0.20534 0.34795,-0.06273 0.34795,-0.06273c0.37364,0.25953 0.66449,0.46748 0.93963,0.83455l0.11092,0.12478c0,0 0.16519,0.18764 -0.02245,0.35284z" fill="#7a6500"/><path d="M246.25516,192.09575c-0.17442,0.17911 -0.35352,0.00469 -0.35352,0.00469l-0.15774,-0.1799c-0.13646,-0.31594 -0.2577,-0.63603 -0.36205,-0.9633c0.17304,0.01678 0.35324,0.02881 0.53845,0.03648c0.0843,0.24634 0.17881,0.48868 0.28254,0.72841l0.04763,0.0201c0,0 0.1791,0.17442 0.00468,0.35352z" fill="#7a6500"/><path d="M246.59415,192.27856c0.24331,-0.05746 0.30077,0.18585 0.30077,0.18585l0.04962,0.23603c0.00343,0.25905 0.00627,0.51296 0.02975,0.77104c0,0 0.02248,0.249 -0.22651,0.27147c-0.24899,0.02247 -0.27146,-0.22652 -0.27146,-0.22652c-0.02426,-0.27089 -0.02813,-0.53754 -0.03173,-0.80937l-0.03628,-0.12773c0,0 -0.05745,-0.24331 0.18585,-0.30077z" fill="#7a6500"/><path d="M247.63906,191.5474c-0.21265,0.13145 -0.34411,-0.0812 -0.34411,-0.0812l-0.07508,-0.12422c-0.05763,-0.12066 -0.10925,-0.23736 -0.16563,-0.35074c0.17926,-0.0073 0.35922,-0.0176 0.53824,-0.03059c0.02578,0.05443 0.05171,0.10966 0.07854,0.16581l0.04922,0.07684c0,0 0.13146,0.21265 -0.08119,0.3441z" fill="#7a6500"/><path d="M247.77283,191.92115l0.03162,0.0955c0.08202,0.17225 0.15653,0.34848 0.21955,0.52855c-0.11047,0.1082 -0.21726,0.21701 -0.31897,0.3251c-0.1107,-0.03853 -0.15287,-0.15966 -0.15287,-0.15966c-0.05652,-0.1632 -0.12421,-0.32272 -0.19888,-0.47846l-0.05266,-0.14664c0,0 -0.0822,-0.23611 0.15391,-0.3183c0.23611,-0.08219 0.3183,0.15391 0.3183,0.15391z" fill="#7a6500"/><path d="M242.38149,194.18455l-0.01895,0.21518c-0.03295,0.2413 -0.06393,0.48289 -0.09092,0.72492c0,0 -0.02772,0.24846 -0.27618,0.22074c-0.24846,-0.02772 -0.22074,-0.27618 -0.22074,-0.27618c0.02747,-0.24609 0.05895,-0.49174 0.09243,-0.73709l0.01622,-0.19073c0,0 0.02158,-0.24907 0.27065,-0.22749c0.24906,0.02158 0.22749,0.27065 0.22749,0.27065z" fill="#246800"/><path d="M241.61617,193.62819l-0.20058,-0.01659c-0.10133,0.00134 -0.20268,0.00269 -0.30402,0.00403c0,0 -0.24998,0.00331 -0.25329,-0.24667c-0.00331,-0.24998 0.24666,-0.25329 0.24666,-0.25329c0.10134,-0.00135 0.20269,-0.00269 0.30403,-0.00403l0.24587,0.01804c0,0 0.24926,0.01934 0.22992,0.26859c-0.01934,0.24925 -0.26859,0.22992 -0.26859,0.22992z" fill="#246800"/><path d="M242.90997,193.1222c-0.1426,0.20534 -0.34794,0.06274 -0.34794,0.06274l-0.11742,-0.08376c-0.22846,-0.12167 -0.44259,-0.19247 -0.69431,-0.25154c0,0 -0.24331,-0.05742 -0.1859,-0.30074c0.05742,-0.24332 0.30074,-0.1859 0.30074,-0.1859c0.29223,0.06931 0.54687,0.15639 0.81307,0.2961l0.16903,0.11516c0,0 0.20534,0.14261 0.06274,0.34795z" fill="#246800"/><path d="M242.93662,193.65901c0.24998,-0.00331 0.25329,0.24667 0.25329,0.24667l-0.0016,0.09886c-0.03683,0.26245 -0.07213,0.5085 -0.06793,0.77376c0,0 0.00332,0.24998 -0.24666,0.25329c-0.24998,0.00331 -0.25329,-0.24666 -0.25329,-0.24666c-0.0032,-0.29086 0.03238,-0.56223 0.07274,-0.84986l-0.00321,-0.02276c0,0 -0.00331,-0.24998 0.24667,-0.25329z" fill="#246800"/><path d="M243.86442,193.3021c0.24998,-0.00331 0.25329,0.24667 0.25329,0.24667l-0.00217,0.02549c0.04648,0.29725 0.09006,0.59486 0.13377,0.89252c0,0 0.03632,0.24735 -0.21103,0.28367c-0.24735,0.03632 -0.28367,-0.21103 -0.28367,-0.21103c-0.04349,-0.29612 -0.08683,-0.59219 -0.13308,-0.88789l-0.00378,-0.09613c0,0 -0.00331,-0.24998 0.24667,-0.25329z" fill="#246800"/><path d="M244.07811,192.64751l0.00607,-0.01619c-0.29847,-0.29083 -0.62479,-0.54873 -0.92336,-0.83919c0,0 -0.17911,-0.17442 -0.00469,-0.35352c0.17442,-0.1791 0.35353,-0.00468 0.35353,-0.00468c0.2982,0.29073 0.62472,0.54851 0.92336,0.83919l0.0893,0.14488c0,0 0.11475,0.2221 -0.10735,0.33686c-0.2221,0.11475 -0.33686,-0.10735 -0.33686,-0.10735z" fill="#246800"/><path d="M244.98496,193.21294l0.00062,0.10244c0.02643,0.29519 0.0685,0.57203 0.07307,0.86964c0,0 0.00331,0.24998 -0.24667,0.25329c-0.24998,0.00331 -0.25329,-0.24667 -0.25329,-0.24667c-0.00308,-0.28412 -0.04542,-0.54899 -0.07109,-0.83131l-0.0026,-0.14077c0,0 -0.00331,-0.24998 0.24667,-0.25329c0.24998,-0.00331 0.25329,0.24667 0.25329,0.24667z" fill="#246800"/><path d="M245.36737,192.41162c-0.17442,0.1791 -0.35353,0.00468 -0.35353,0.00468l-0.08399,-0.08354c-0.14923,-0.1189 -0.29596,-0.24102 -0.4395,-0.36674c0,0 -0.18802,-0.16476 -0.02326,-0.35279c0.16476,-0.18803 0.35279,-0.02326 0.35279,-0.02326c0.13757,0.12061 0.27828,0.23771 0.42144,0.35164l0.12137,0.11647c0,0 0.1791,0.17442 0.00468,0.35352z" fill="#246800"/><path d="M245.72024,192.60854c0.24998,-0.00331 0.25329,0.24666 0.25329,0.24666l-0.00045,0.02138c0.02686,0.30649 0.00622,0.57839 -0.03029,0.88378c0,0 -0.02976,0.24821 -0.27798,0.21846c-0.24822,-0.02975 -0.21846,-0.27797 -0.21846,-0.27797c0.0327,-0.27198 0.05417,-0.50697 0.02876,-0.77931l-0.00152,-0.0597c0,0 -0.00331,-0.24998 0.24667,-0.25329z" fill="#246800"/><path d="M246.44699,191.9513l-0.04076,-0.04183c-0.29326,-0.22971 -0.44956,-0.42913 -0.63932,-0.75343c0,0 -0.04667,-0.08045 -0.03401,-0.17168c0.1702,0.01002 0.34544,0.01609 0.52397,0.01851c0.13068,0.21582 0.23889,0.34386 0.45651,0.51207l0.08246,0.07816c0,0 0.1791,0.17442 0.00468,0.35352c-0.17442,0.1791 -0.35353,0.00468 -0.35353,0.00468z" fill="#246800"/><path d="M247.38534,191.71589c-0.17442,0.1791 -0.35352,0.00468 -0.35352,0.00468l-0.11889,-0.12527c-0.15894,-0.25167 -0.27299,-0.37795 -0.33148,-0.59193c0.17051,-0.00171 0.34299,-0.00645 0.51598,-0.01395c0.05682,0.10572 0.1474,0.196 0.23783,0.33821l0.04541,0.03473c0,0 0.1791,0.17442 0.00468,0.35352z" fill="#246800"/><path d="M248.19043,191.54199l0.0774,0.2159c0.01486,0.10117 0.02971,0.20232 0.04457,0.30349c0,0 0.03632,0.24735 -0.21103,0.28367c-0.24735,0.03632 -0.28367,-0.21103 -0.28367,-0.21103c-0.01485,-0.10116 -0.0297,-0.20232 -0.04456,-0.30349l-0.04851,-0.10678c0,0 -0.09088,-0.2329 0.14202,-0.32378c0.2329,-0.09088 0.32378,0.14202 0.32378,0.14202z" fill="#246800"/><path d="M245.5708,192.09362l-0.09486,-0.12978c-0.17995,-0.21931 -0.33562,-0.44726 -0.49102,-0.68443c0,0 -0.13701,-0.20912 0.07211,-0.34612c0.00651,-0.00426 0.01295,-0.00819 0.01931,-0.0118c0.09152,0.01268 0.18567,0.02381 0.2821,0.03344c0.02896,0.02644 0.04471,0.05047 0.04471,0.05047c0.14553,0.22217 0.29014,0.43583 0.45905,0.64094l0.11158,0.1513c0,0 0.14799,0.20149 -0.0535,0.34948c-0.20149,0.14799 -0.34948,-0.0535 -0.34948,-0.0535z" fill="#693d00"/><path d="M247.91301,191.48547c-0.23611,0.08219 -0.3183,-0.15391 -0.3183,-0.15391l-0.00708,-0.02797c-0.05544,-0.10808 -0.10551,-0.21917 -0.15,-0.3324c0.17567,-0.01118 0.35089,-0.02503 0.52415,-0.04127c0.02204,0.04872 0.04541,0.09681 0.07007,0.14416l0.03507,0.0931c0,0 0.0822,0.23611 -0.15391,0.3183z" fill="#693d00"/></g><path d="" data-paper-data="{&quot;index&quot;:null}" fill="#864e00" stroke="none" stroke-width="0.5" stroke-linecap="butt"/><path d="" data-paper-data="{&quot;index&quot;:null}" fill="#7c4800" stroke="none" stroke-width="0.5" stroke-linecap="butt"/><path d="" data-paper-data="{&quot;index&quot;:null}" fill="#7c4800" stroke="none" stroke-width="0.5" stroke-linecap="butt"/><path d="M248.81401,193.02724c-0.33813,0.11695 -0.55521,-0.20866 -0.55521,-0.20866c-2.04031,-3.0926 -0.71223,-6.9 0.48914,-9.88513c0.54474,-0.82156 1.46707,-2.15369 2.45722,-0.88077c0.47783,0.61429 -0.10526,1.65793 -0.01845,2.36496c0.27463,2.23684 2.87267,5.43819 0.16347,7.04469c-0.54162,0.7197 -1.09597,1.14269 -1.94198,1.45505l-0.294,0.0982c0,0 -0.14426,0.04809 -0.30018,0.01167zM249.47171,189.11937c0,0.41422 0.33578,0.75 0.75,0.75c0.41422,0 0.75,-0.33578 0.75,-0.75c0,-0.41422 -0.33578,-0.75 -0.75,-0.75c-0.41422,0 -0.75,0.33578 -0.75,0.75z" data-paper-data="{&quot;index&quot;:null}" fill="#553f22" stroke="none" stroke-width="0.5" stroke-linecap="butt"/><path d="M250.49981,189.6979c0.37827,-0.50673 0.60221,-1.07659 -0.87988,-1.07853c-0.01333,0.00343 -0.02676,0.00677 -0.04029,0.01001c0.00144,0.01319 0.00144,0.02123 0.00144,0.02123c0,0.50808 0.26522,0.79534 0.47537,1.16075l0.051,-0.08067c0,0 0.13867,-0.20802 0.34668,-0.06934c0.01762,0.01174 0.03275,0.02398 0.04568,0.03655zM251.2089,188.6653c0,0 0.03251,0.09756 -0.00673,0.18839c-0.03909,0.46554 -0.53942,1.08931 -0.91795,1.67973v0.17969c0,0.13807 -0.11193,0.25 -0.25,0.25c-0.13807,0 -0.25,-0.11193 -0.25,-0.25c0,0 0,-0.20731 0,-0.26596c-0.11769,-0.72815 -0.70313,-0.97508 -0.70313,-1.79654c0,0 0,-0.09245 0.05621,-0.1649c-0.00229,-0.00901 -0.00428,-0.01846 -0.00593,-0.02838c-0.0411,-0.2466 0.2055,-0.2877 0.2055,-0.2877c0.03323,-0.00491 0.06679,-0.01066 0.10036,-0.01738c0.06356,-0.03289 0.12823,-0.03289 0.12823,-0.03289h0.00657c0.2021,-0.05915 0.38789,-0.16309 0.48218,-0.34737l0.13827,-0.23045c0.04319,-0.07489 0.12407,-0.1253 0.21673,-0.1253c0.11246,0 0.20758,0.07425 0.239,0.17641l0.08765,0.26297c0.1385,0.20341 0.2737,0.40641 0.40335,0.6195l0.06967,0.19019z" data-paper-data="{&quot;index&quot;:null}" fill="#b9b9b9" stroke="none" stroke-width="0.5" stroke-linecap="butt"/><path d="M251.98735,189.58812c0,0 0,-0.12078 0.08395,-0.19444c-0.101,-1.51326 -0.95326,-3.05176 -1.19356,-4.54731c-0.5034,-0.87018 0.56564,-2.11878 -0.26627,-2.77662l-0.20135,-0.07764c0,0 -0.23212,-0.09284 -0.13927,-0.32496c0.09285,-0.23212 0.32497,-0.13927 0.32497,-0.13927l0.26739,0.10986c1.1879,0.95669 -0.15579,2.01336 0.48373,3.03588c0.28323,1.64397 1.23414,3.34088 1.23414,5.00825c0,0 0,0.13001 -0.09375,0.20252c0,0.08874 0,0.17749 0,0.26623c0,0 0,0.25 -0.25,0.25c-0.25,0 -0.25,-0.25 -0.25,-0.25c0,-0.09375 0,-0.46875 0,-0.5625z" data-paper-data="{&quot;index&quot;:null}" fill="#b9b9b9" stroke="none" stroke-width="0.5" stroke-linecap="butt"/><path d="M249.83995,193.35341c-0.07073,0.17055 -0.26872,0.13755 -0.26872,0.13755c-0.00598,-0.00105 -0.01193,-0.00213 -0.01783,-0.00322c-0.20254,0.0522 -0.41947,0.02026 -0.61345,-0.14238c-0.14192,-0.11898 -0.22608,-0.22424 -0.26538,-0.31689c0.11806,-0.05748 0.21879,-0.14504 0.29221,-0.2527c0.19771,-0.05485 0.37954,-0.15359 0.53425,-0.27802c0.28507,-0.01552 0.55097,-0.06905 0.75686,-0.17127c0.13407,0.35396 -0.0851,0.79589 -0.41793,1.02693zM249.43248,192.92956c0.00225,-0.00171 0.00451,-0.00345 0.0068,-0.0052l-0.00772,-0.00966c-0.0038,0.00277 -0.00751,0.00547 -0.01114,0.00812c0.00393,0.00228 0.00795,0.00452 0.01207,0.00674z" data-paper-data="{&quot;index&quot;:null}" fill="#7a3535" stroke="none" stroke-width="0.5" stroke-linecap="butt"/><path d="M243.9416,190.84122c0.14009,-0.19127 0.3409,-0.01738 0.48182,0.20718c0.04196,-0.11116 0.08466,-0.21332 0.12529,-0.30217c-0.0052,0.00033 -0.01045,0.00049 -0.01573,0.00049c-0.13807,0 -0.25,-0.11193 -0.25,-0.25c0,-0.13807 0.11193,-0.25 0.25,-0.25c0.10254,0 0.19065,0.06173 0.22922,0.15005c0.01843,-0.00571 0.02628,0.0176 0.01964,0.07594c0.00076,0.0079 0.00114,0.01591 0.00114,0.02401c0,0.04199 -0.01035,0.08156 -0.02864,0.1163l-0.00967,0.01935c-0.35296,1.41183 1.71294,-0.50518 1.99093,-0.01871c0.37224,0.65142 -0.93217,2.43404 -1.55625,2.59006c-0.8699,0.21748 -1.08866,-0.29721 -1.04575,-0.94309c-0.2832,-0.20319 -0.55109,-0.92914 -0.192,-1.4194z" data-paper-data="{&quot;index&quot;:null}" fill="#8c6738" stroke="none" stroke-width="0.5" stroke-linecap="butt"/><path d="M247.18742,190.23583c0.24224,0.06181 0.18042,0.30405 0.18042,0.30405l-0.04185,0.15384c-0.2952,0.71368 -0.62409,1.3822 -1.04907,2.02919c-1.30702,2.70855 -3.38716,-0.84845 -2.63314,-2.69613c0,0 0.09545,-0.23106 0.32651,-0.13561c0.23106,0.09545 0.13561,0.32651 0.13561,0.32651c-0.53026,1.26521 0.74886,4.32973 1.73553,2.25956c0.41292,-0.63188 0.73514,-1.27803 1.02243,-1.97443l0.0195,-0.08657c0,0 0.06181,-0.24224 0.30405,-0.18042z" data-paper-data="{&quot;index&quot;:null}" fill="#7c4800" stroke="none" stroke-width="0.5" stroke-linecap="butt"/><path d="M246.183,190.38174c0.16398,0.18871 -0.02473,0.35269 -0.02473,0.35269l-0.07644,0.06514c-0.29881,0.20945 -0.52032,0.52274 -0.80625,0.76484c-0.0037,0.27526 0.00415,0.55361 0.0187,0.85478c0,0 0.01202,0.24971 -0.23769,0.26173c-0.24971,0.01202 -0.26173,-0.23769 -0.26173,-0.23769c-0.03333,-0.69494 -0.03101,-1.28907 0.05941,-1.97607l-0.00968,0.0194c0,0 -0.04875,-0.2452 0.19645,-0.29395c0.2452,-0.04875 0.29395,0.19645 0.29395,0.19645l0.01499,0.14348c-0.01359,0.10278 -0.02508,0.20304 -0.03467,0.3016c0.1496,-0.15478 0.29742,-0.30887 0.47301,-0.43935l0.042,-0.03778c0,0 0.18871,-0.16398 0.35269,0.02473z" data-paper-data="{&quot;index&quot;:null}" fill="#7c4800" stroke="none" stroke-width="0.5" stroke-linecap="butt"/><path d="M246.90483,188.18307c0.15644,-0.0222 0.28345,-0.03268 0.38457,-0.03326c0.02787,-0.03325 0.06983,-0.06193 0.13236,-0.07877c0.24139,-0.06503 0.30642,0.17636 0.30642,0.17636l0.04335,0.16093c0.09077,0.3387 0.25535,0.63473 0.34781,0.97072c0,0 0.06503,0.24139 -0.17636,0.30642c-0.04874,0.01312 -0.09028,0.01376 -0.12556,0.00642c-0.12705,0.06452 -0.2555,-0.02971 -0.2555,-0.02971l-0.10326,-0.08118c-0.72281,-0.35907 -2.48073,0.21255 -3.24549,0.41857c-1.63391,0.60349 -3.5642,1.13841 -4.85022,2.39628c0,0 -0.17943,0.17407 -0.35351,-0.00536c-0.17407,-0.17943 0.00536,-0.35351 0.00536,-0.35351c0.02492,-0.024 0.05003,-0.04775 0.07535,-0.07126c0.7366,-1.24797 3.0739,-1.99478 4.33549,-2.6155c1.15856,-0.31634 2.28795,-0.99809 3.47919,-1.16714z" data-paper-data="{&quot;index&quot;:null}" fill="#8c8172" stroke="none" stroke-width="0.5" stroke-linecap="butt"/><path d="M247.20125,185.24787c0.1567,0.02026 0.28192,0.04398 0.37954,0.07035c0.03571,-0.02463 0.0838,-0.04109 0.14855,-0.04068c0.25,0.0016 0.24839,0.2516 0.24839,0.2516l-0.00107,0.16666c-0.0027,0.35063 0.0771,0.67981 0.07674,1.02829c0,0 -0.0016,0.25 -0.2516,0.24839c-0.05048,-0.00033 -0.0907,-0.01078 -0.12274,-0.02725c-0.13964,0.02836 -0.23836,-0.09667 -0.23836,-0.09667l-0.07791,-0.10575c-0.60108,-0.53861 -2.44775,-0.4558 -3.23975,-0.46088c-1.73563,0.14656 -3.73866,0.1481 -5.31323,1.01805c0,0 -0.21931,0.12001 -0.33932,-0.09931c-0.12001,-0.21931 0.09931,-0.33932 0.09931,-0.33932c0.03041,-0.01649 0.06095,-0.0327 0.09161,-0.04862c1.04236,-1.00673 3.49413,-1.1041 4.87547,-1.36643c1.20097,0.00363 2.47114,-0.35274 3.66438,-0.19843z" data-paper-data="{&quot;index&quot;:null}" fill="#8c8172" stroke="none" stroke-width="0.5" stroke-linecap="butt"/><path d="M247.7254,191.60583c0.1063,-0.05351 0.19442,-0.09157 0.26644,-0.11633c0.01188,-0.03044 0.03493,-0.061 0.07549,-0.08808c0.15661,-0.10453 0.26114,0.05209 0.26114,0.05209l0.06968,0.1044c0.14632,0.21985 0.33505,0.39148 0.48193,0.609c0,0 0.10452,0.15661 -0.05209,0.26114c-0.03162,0.0211 -0.06112,0.03157 -0.08806,0.03482c-0.07513,0.07663 -0.18948,0.04031 -0.18948,0.04031l-0.09324,-0.03307c-0.60227,-0.08222 -1.71916,0.74895 -2.21532,1.0801c-1.02073,0.82406 -2.26946,1.67054 -2.88437,2.87783c0,0 -0.08614,0.16743 -0.25357,0.08129c-0.16743,-0.08614 -0.08129,-0.25357 -0.08129,-0.25357c0.012,-0.02313 0.02422,-0.04613 0.03662,-0.069c0.22521,-1.06794 1.71339,-2.16362 2.46426,-2.91034c0.75063,-0.50469 1.39246,-1.26314 2.20188,-1.67058z" data-paper-data="{&quot;index&quot;:null}" fill="#8c8172" stroke="none" stroke-width="0.5" stroke-linecap="butt"/></g></g></svg>