<svg version="1.1" xmlns="http://www.w3.org/2000/svg" xmlns:xlink="http://www.w3.org/1999/xlink" width="380.73037" height="230.72127" viewBox="0,0,380.73037,230.72127"><g transform="translate(-48.29658,-72.33022)"><g data-paper-data="{&quot;isPaintingLayer&quot;:true}" fill-rule="nonzero" stroke-linejoin="miter" stroke-miterlimit="10" stroke-dasharray="" stroke-dashoffset="0" style="mix-blend-mode: normal"><g data-paper-data="{&quot;index&quot;:null}"><path d="M63.06318,82.71331l-0.6021,-1.41367c-0.9146,-2.3453 0.49413,-6.81316 4.3099,-8.33096c2.23699,-0.88981 5.75555,-0.59283 8.27971,-0.58361c2.99878,0.01096 4.14186,-0.25421 6.67266,0.99066c2.02804,0.99758 2.3185,2.91277 3.45769,4.24099c0,0 0.89226,1.0529 -0.87905,1.58328c-1.77132,0.53038 -2.66359,-0.52252 -2.66359,-0.52252c-0.68901,-0.82146 -1.3096,-2.92666 -2.53137,-3.52946c-1.37734,-0.67955 -2.30204,-0.41939 -4.04452,-0.40508c-1.38475,0.01136 -4.73751,-0.35648 -5.99686,0.14905c-1.04095,0.41787 -1.1966,1.31486 -1.70323,1.99809c-1.13068,1.52478 -1.80623,2.26805 -1.05596,3.83087l0.6021,1.41367c0,0 0.48677,1.14288 -1.43593,1.43223c-1.9227,0.28934 -2.40946,-0.85354 -2.40946,-0.85354z" fill="#927500" stroke="none" stroke-width="0.5" stroke-linecap="butt"/><path d="M66.09535,286.83665c1.92556,0.28253 1.45027,1.42711 1.45027,1.42711l-0.58791,1.41578c-0.73459,1.56545 -0.05158,2.3063 1.09438,3.82706c0.51348,0.68142 0.6781,1.57784 1.72324,1.99201c1.26439,0.50106 4.6134,0.12134 5.99825,0.1278c1.74259,0.00813 2.66989,0.26501 4.04038,-0.41941c1.2157,-0.60712 1.81516,-2.71448 2.49593,-3.53836c0,0 0.88169,-1.05605 2.6583,-0.53195c1.77661,0.52409 0.89491,1.58014 0.89491,1.58014c-1.12584,1.33223 -1.3971,3.24843 -3.4151,4.25318c-2.51826,1.25382 -3.66398,0.9927 -6.6626,1.01429c-2.52402,0.01817 -6.03954,0.32761 -8.28541,-0.55426c-3.83093,-1.50426 -5.28444,-5.96704 -4.39338,-8.31554l0.58791,-1.41578c0,0 0.47529,-1.14459 2.40086,-0.86206z" data-paper-data="{&quot;index&quot;:null}" fill="#927500" stroke="none" stroke-width="0.5" stroke-linecap="butt"/><path d="M66.61316,288.26554l-1.62906,-206.19524" fill="none" stroke="#927500" stroke-width="4" stroke-linecap="round"/></g><g><path d="M67.22142,86.76508c-0.48204,1.94029 -2.41022,1.45522 -2.41022,1.45522l-2.38502,-0.6c-2.63691,-0.74866 -3.88791,-0.06368 -6.45508,1.0842c-1.15029,0.51434 -2.66201,0.67581 -3.36336,1.72762c-0.84848,1.27246 -0.21834,4.65148 -0.23336,6.04791c-0.01891,1.75716 -0.45474,2.69094 0.69499,4.07639c1.01986,1.22897 4.57074,1.84411 5.95765,2.53475c0,0 1.77769,0.89442 0.88885,2.68328c-0.88884,1.78885 -2.66653,0.89443 -2.66653,0.89443c-2.24257,-1.14203 -5.47215,-1.42524 -7.15996,-3.46525c-2.10621,-2.54572 -1.66259,-3.69973 -1.69003,-6.7236c-0.02309,-2.54528 -0.53424,-6.09185 0.95915,-8.3521c2.54737,-3.85546 10.07524,-5.29858 14.03177,-4.38818l2.38502,0.6c0,0 1.92818,0.48507 1.44614,2.42535z" fill="#927500" stroke="none" stroke-width="0.5" stroke-linecap="butt"/><path d="M411.34949,83.93972l2.38502,-0.6c3.95653,-0.9104 11.4844,0.53273 14.03177,4.38819c1.49339,2.26025 0.98224,5.80682 0.95915,8.3521c-0.02744,3.02388 0.41619,4.17789 -1.69004,6.72361c-1.68782,2.04001 -4.9174,2.32322 -7.15996,3.46525c0,0 -1.7777,0.89442 -2.66653,-0.89443c-0.88885,-1.78885 0.88885,-2.68328 0.88885,-2.68328c1.38691,-0.69064 4.93779,-1.30578 5.95765,-2.53475c1.14973,-1.38545 0.71391,-2.31924 0.695,-4.0764c-0.01503,-1.39642 0.61512,-4.77544 -0.23336,-6.0479c-0.70135,-1.05181 -2.21307,-1.21328 -3.36336,-1.72761c-2.56717,-1.14787 -3.81816,-1.83285 -6.45508,-1.08419l-2.38502,0.6c0,0 -1.92817,0.48507 -2.41021,-1.45521c-0.48204,-1.94029 1.44614,-2.42536 1.44614,-2.42536z" data-paper-data="{&quot;index&quot;:null}" fill="#927500" stroke="none" stroke-width="0.5" stroke-linecap="butt"/><path d="M64.69698,86.28001l347.61679,0.6" fill="none" stroke="#927500" stroke-width="4" stroke-linecap="round"/></g><g data-paper-data="{&quot;index&quot;:null}"><path d="M412.80118,88.56686c-1.92673,-0.28934 -1.43894,-1.43223 -1.43894,-1.43223l0.60336,-1.41367c0.75185,-1.56283 0.07487,-2.30609 -1.05818,-3.83087c-0.50769,-0.68322 -0.66365,-1.58022 -1.7068,-1.99809c-1.26199,-0.50553 -4.62178,-0.13769 -6.00944,-0.14905c-1.74612,-0.0143 -2.67277,-0.27447 -4.053,0.40508c-1.22433,0.6028 -1.84622,2.708 -2.53668,3.52946c0,0 -0.89414,1.0529 -2.66918,0.52252c-1.77503,-0.53038 -0.88089,-1.58328 -0.88089,-1.58328c1.14158,-1.32822 1.43264,-3.24341 3.46495,-4.24099c2.5361,-1.24487 3.68158,-0.9797 6.68664,-0.99066c2.52945,-0.00923 6.05539,-0.3062 8.29707,0.58361c3.82378,1.5178 5.23546,5.98566 4.31895,8.33096l-0.60336,1.41367c0,0 -0.48779,1.14289 -2.41452,0.85354z" fill="#927500" stroke="none" stroke-width="0.5" stroke-linecap="butt"/><path d="M414.58306,292.69872l0.58915,1.41578c0.89292,2.3485 -0.56363,6.81128 -4.4026,8.31554c-2.25059,0.88187 -5.77348,0.57243 -8.30279,0.55426c-3.00491,-0.02159 -4.15303,0.23953 -6.67657,-1.01429c-2.02224,-1.00475 -2.29406,-2.92095 -3.42227,-4.25318c0,0 -0.88354,-1.05604 0.89679,-1.58014c1.78034,-0.52409 2.66387,0.53195 2.66387,0.53195c0.68219,0.82389 1.2829,2.93125 2.50115,3.53836c1.37337,0.68442 2.30263,0.42754 4.04887,0.41941c1.38774,-0.00646 4.74378,0.37326 6.01083,-0.1278c1.04732,-0.41417 1.2123,-1.31059 1.72684,-1.99201c1.14836,-1.52076 1.83279,-2.2616 1.09667,-3.82706l-0.58915,-1.41578c0,0 -0.47629,-1.14459 1.45331,-1.42711c1.9296,-0.28253 2.40589,0.86206 2.40589,0.86206z" data-paper-data="{&quot;index&quot;:null}" fill="#927500" stroke="none" stroke-width="0.5" stroke-linecap="butt"/><path d="M411.65826,293.26554l1.63248,-206.19524" fill="none" stroke="#927500" stroke-width="4" stroke-linecap="round"/></g><g data-paper-data="{&quot;index&quot;:null}"><path d="M410.10211,285.20342c0.48204,-1.94029 2.41022,-1.45522 2.41022,-1.45522l2.38502,0.6c2.63692,0.74866 3.88791,0.06368 6.45508,-1.0842c1.15029,-0.51434 2.66201,-0.67581 3.36336,-1.72762c0.84848,-1.27247 0.21834,-4.65148 0.23336,-6.0479c0.01891,-1.75716 0.45474,-2.69094 -0.695,-4.0764c-1.01986,-1.22897 -4.57074,-1.84411 -5.95765,-2.53475c0,0 -1.7777,-0.89443 -0.88885,-2.68328c0.88885,-1.78886 2.66653,-0.89443 2.66653,-0.89443c2.24257,1.14202 5.47214,1.42524 7.15996,3.46525c2.10621,2.54572 1.6626,3.69973 1.69004,6.72361c0.02309,2.54528 0.53424,6.09185 -0.95915,8.3521c-2.54737,3.85546 -10.07525,5.29859 -14.03177,4.38819l-2.38502,-0.6c0,0 -1.92818,-0.48507 -1.44614,-2.42535z" fill="#927500" stroke="none" stroke-width="0.5" stroke-linecap="butt"/><path d="M65.97403,288.02877l-2.38502,0.6c-3.95652,0.9104 -11.4844,-0.53273 -14.03177,-4.38818c-1.49339,-2.26025 -0.98224,-5.80682 -0.95915,-8.3521c0.02744,-3.02387 -0.41619,-4.17789 1.69004,-6.72361c1.68781,-2.04001 4.9174,-2.32322 7.15996,-3.46525c0,0 1.7777,-0.89443 2.66653,0.89443c0.88884,1.78886 -0.88885,2.68328 -0.88885,2.68328c-1.3869,0.69064 -4.93778,1.30579 -5.95765,2.53475c-1.14973,1.38545 -0.71391,2.31923 -0.695,4.07639c0.01503,1.39642 -0.61512,4.77544 0.23336,6.04791c0.70135,1.05181 2.21307,1.21328 3.36336,1.72761c2.56717,1.14787 3.81817,1.83285 6.45508,1.0842l2.38502,-0.6c0,0 1.92818,-0.48507 2.41021,1.45522c0.48204,1.94029 -1.44613,2.42536 -1.44613,2.42536z" data-paper-data="{&quot;index&quot;:null}" fill="#927500" stroke="none" stroke-width="0.5" stroke-linecap="butt"/><path d="M65.00975,285.08849l347.61679,0.6" fill="none" stroke="#927500" stroke-width="4" stroke-linecap="round"/></g></g></g></svg>