<svg version="1.1" xmlns="http://www.w3.org/2000/svg" xmlns:xlink="http://www.w3.org/1999/xlink" width="45.89486" height="50.80466" viewBox="0,0,45.89486,50.80466"><g transform="translate(-219.23508,-158.90313)"><g data-paper-data="{&quot;isPaintingLayer&quot;:true}" fill-rule="nonzero" stroke="none" stroke-width="0.5" stroke-linecap="butt" stroke-linejoin="miter" stroke-miterlimit="10" stroke-dasharray="" stroke-dashoffset="0" style="mix-blend-mode: normal"><path d="M261.18537,159.94829c0.97042,1.74677 -0.77634,2.71719 -0.77634,2.71719l-1.86443,1.00721c-4.29096,1.56035 -8.91284,3.56984 -13.48024,4.2961c-0.11264,0.05742 -0.18615,0.08415 -0.18615,0.08415c-2.48582,0.90229 -5.96104,1.15916 -8.03844,2.85088c-3.74498,3.0497 -7.41323,6.80612 -9.17353,11.39936c-1.04394,2.724 -0.47064,5.99957 -0.57205,8.82837c-0.07708,2.15002 -0.41116,3.87483 -0.04039,5.99919c0.8004,3.19124 1.77292,6.2184 1.79397,9.51782l0.14802,0.72275c0,0 0.3285,1.97105 -1.64254,2.29955c-1.97104,0.32851 -2.29954,-1.64254 -2.29954,-1.64254l-0.2024,-1.37976c0.02404,-2.98414 -0.99016,-5.81506 -1.71023,-8.70403c-0.39937,-2.48198 -0.12872,-4.48328 -0.0404,-6.96636c0.11965,-3.36374 -0.3674,-6.84938 0.82963,-10.09433c1.91365,-5.18758 6.1335,-9.79604 10.45,-13.13005c2.10626,-1.62685 4.82125,-2.16543 7.38375,-2.89899c0.5432,-0.60061 1.38929,-0.67111 1.38929,-0.67111c4.68099,-0.35434 9.61436,-2.6628 14.0255,-4.26685l1.28935,-0.74489c0,0 1.74676,-0.97043 2.71719,0.77634z" fill="#524800"/><path d="M261.12265,161.20563c0,-0.25 0.25,-0.25 0.25,-0.25h0.37683c2.92741,0 3.38049,4.32914 3.38047,6.57258c-0.00015,3.26549 -0.15781,7.32009 -1.17653,10.39983c-1.13521,3.40495 -2.00645,6.56765 -3.75209,9.76737c-1.55475,2.84982 -3.93884,6.15689 -6.54734,8.12067c-1.3896,2.62276 -4.88946,5.67192 -7.20932,7.49643c-3.05193,2.37969 -4.85855,4.09927 -8.83553,4.83999c-2.97007,0.55247 -5.87059,0.65178 -8.8983,0.65178c0,0 -0.25,0 -0.25,-0.25c0,-0.25 0.25,-0.25 0.25,-0.25c2.99696,0 5.86739,-0.09518 8.80675,-0.64333c3.9162,-0.7294 5.61491,-2.39163 8.61928,-4.74247c2.31215,-1.79232 5.72823,-4.84045 7.1357,-7.4257c2.57734,-2.03162 4.92383,-5.16639 6.48982,-8.03683c1.73353,-3.17753 2.5895,-6.30513 3.71668,-9.68605c1.01485,-3.01774 1.15071,-7.03388 1.15086,-10.2417c0.00002,-1.96957 -0.31973,-6.07256 -2.88047,-6.07256h-0.37683c0,0 -0.25,0 -0.25,-0.25z" fill="#525252"/><g><path d="M256.41929,191.59561c-0.82562,1.25234 -2.07795,0.42673 -2.07795,0.42673l-1.0438,-0.6908c-6.05851,-3.54629 -11.33715,-8.41777 -17.38617,-12.04811c-4.736,-2.84232 -10.19149,-4.73818 -15.23845,-6.97815c0,0 -1.37103,-0.6085 -0.76254,-1.97953c0.6085,-1.37103 1.97953,-0.76254 1.97953,-0.76254c5.16834,2.29383 10.73206,4.24813 15.58283,7.15855c6.03525,3.6211 11.29213,8.49925 17.33716,12.01887l1.18266,0.77702c0,0 1.25234,0.82562 0.42673,2.07796z" fill="#433b00"/><path d="M228.6881,169.46566c0.24371,0.09954 0.22034,0.47824 0.32433,0.72009c0.16697,0.38833 -1.50396,6.69759 -2.69083,7.05072c-2.47973,0.73779 -4.02635,-3.50251 -5.77316,-4.79327c-0.14204,-0.0179 -0.28389,-0.0566 -0.42149,-0.11766c-0.7572,-0.33606 -1.0986,-1.22233 -0.76254,-1.97953c0.296,-0.66694 1.01886,-1.0113 1.7044,-0.85428c1.94252,-1.03575 5.76129,-0.78494 7.61928,-0.02606z" fill="#424135"/><path d="M252.81292,191.41369c0.00308,0.00801 0.00614,0.01602 0.00919,0.02403c-0.01074,-0.24846 -0.02509,-0.49766 -0.04132,-0.74771c0,0 -0.01619,-0.24948 0.23328,-0.26567c0.24948,-0.01619 0.26567,0.23328 0.26567,0.23328c0.01777,0.27379 0.03308,0.54653 0.04395,0.81836c0.03701,-0.03578 0.09189,-0.06233 0.17331,-0.06237c0.25,-0.00013 0.25013,0.24987 0.25013,0.24987c0.0001,0.20801 0.00096,0.41462 0.00151,0.6203c0.00555,0.04693 0.01129,0.09384 0.01723,0.14073c0.00436,-0.07047 0.00884,-0.14099 0.01342,-0.2116c0,0 0.01617,-0.24948 0.26565,-0.23331c0.24948,0.01617 0.23331,0.26564 0.23331,0.26564c-0.00133,0.02051 -0.00265,0.04101 -0.00396,0.0615c0.03697,-0.03473 0.09131,-0.06026 0.17115,-0.0603c0.18523,-0.00009 0.23329,0.13712 0.24576,0.20823c0.00711,-0.00078 0.01446,-0.00135 0.02204,-0.00169c0.24974,-0.01148 0.26122,0.23826 0.26122,0.23826c0.03322,0.72255 -0.04697,1.38862 -0.10644,2.10662l-0.05053,0.41953c0,0 -0.02992,0.24821 -0.27812,0.21829c-0.2482,-0.02992 -0.21828,-0.27812 -0.21828,-0.27812l0.0495,-0.41033c0.00399,-0.04781 0.00807,-0.09536 0.01222,-0.1427c-0.01392,0.00052 -0.02868,0.00009 -0.04432,-0.00142c-0.07642,-0.00735 -0.12711,-0.03592 -0.16067,-0.07197l-0.02122,0.22192c0,0 -0.02395,0.24885 -0.2728,0.22489c-0.15002,-0.01444 -0.20089,-0.11061 -0.21764,-0.18472c-0.00962,0.09906 -0.02033,0.19835 -0.03226,0.29792l-0.00143,0.01198c0,0 -0.02973,0.24823 -0.27796,0.21849c-0.24823,-0.02973 -0.21849,-0.27795 -0.21849,-0.27795l0.00143,-0.01198c0.03563,-0.29735 0.06015,-0.59205 0.07695,-0.88557c-0.05446,0.36272 -0.12917,0.72461 -0.22907,1.08605c-0.00158,0.0606 -0.02233,0.10736 -0.02233,0.10736l-0.00763,-0.00159c-0.00387,0.01334 -0.00778,0.02668 -0.01172,0.04002l-0.12358,-0.06812l-0.35582,-0.07392c0.24399,-0.82105 0.34564,-1.64509 0.37123,-2.47573c-0.02005,-0.00648 -0.03797,-0.01567 -0.05385,-0.02639c-0.0153,0.37126 -0.04551,0.74206 -0.10023,1.11425l0.03491,0.05995c0,0 0.06117,0.2424 -0.18123,0.30357c-0.07109,0.01794 -0.1266,0.00977 -0.16954,-0.01074c0.00191,0.06765 -0.02232,0.12223 -0.02232,0.12223l-0.49351,-0.05552c-0.00998,-0.21974 -0.01195,-0.4395 -0.01147,-0.65932c-0.22709,0.00541 -0.24818,-0.22782 -0.24818,-0.22782l-0.00802,-0.09045c-0.00618,0.06579 -0.0124,0.13153 -0.01866,0.1972c0.03672,0.09733 -0.00794,0.19795 -0.00794,0.19795l-0.5079,-0.05654c0.02668,-0.27722 0.05311,-0.55567 0.07811,-0.83485c-0.03893,0.01418 -0.086,0.01819 -0.1417,0.00197c-0.00436,0.05236 -0.02143,0.09082 -0.02143,0.09082l-0.04009,0.00299c0.00015,0.00973 0.0003,0.01946 0.00046,0.02919l-0.04583,-0.02581l-0.44645,0.03332c0.00177,0.0238 0.00367,0.04751 0.00574,0.07111c0.22582,0.10187 0.12502,0.32899 0.12502,0.32899l-0.08101,0.02103c0.00237,0.01406 0.0048,0.02807 0.00732,0.04203l-0.04608,-0.03196l-0.44681,0.11596c-0.05028,-0.30843 -0.07015,-0.6365 -0.0716,-0.97399c-0.04112,0.0038 -0.08376,-0.00256 -0.12419,-0.0205c-0.04199,-0.01864 -0.07631,-0.04742 -0.10135,-0.0822c-0.05921,0.02221 -0.12684,0.02211 -0.18921,-0.00557c-0.10279,-0.04562 -0.15961,-0.15208 -0.14688,-0.25819l0.00323,-0.03346c-0.04249,0.05242 -0.11349,0.0968 -0.22997,0.07648c-0.16194,-0.02825 -0.19882,-0.14441 -0.20508,-0.22066c-0.04103,0.01033 -0.0905,0.00934 -0.14948,-0.0117c-0.12483,-0.04452 -0.15989,-0.13161 -0.16527,-0.20363c-0.04046,0.044 -0.10388,0.07767 -0.20291,0.06814c-0.01225,-0.00118 -0.02384,-0.0029 -0.03481,-0.00512c-0.012,0.12081 -0.02391,0.24189 -0.0356,0.36331l-0.0184,0.31188c-0.00111,0.03101 -0.00804,0.06234 -0.0214,0.09244c-0.05601,0.1262 -0.20372,0.1831 -0.32992,0.12709c-0.095,-0.04216 -0.15073,-0.13629 -0.14859,-0.23408l-0.00019,-0.36508c0,0 -0.00004,-0.06853 0.03581,-0.13385c0.13038,-1.33187 0.28181,-2.62532 0.29848,-3.96362c0,0 0.0032,-0.24998 0.25318,-0.24678c0.24998,0.0032 0.24678,0.25318 0.24678,0.25318c-0.001,0.07587 -0.00242,0.15159 -0.00424,0.22719c0.03941,-0.06529 0.11919,-0.14276 0.26824,-0.10662c0.24296,0.0589 0.18405,0.30186 0.18405,0.30186c-0.20034,0.82076 -0.37191,1.81449 -0.39421,2.6834c0.14635,-0.89961 0.33716,-1.78826 0.44587,-2.69586c0,0 0.02973,-0.24823 0.27796,-0.21849c0.09606,0.01151 0.1505,0.05573 0.18113,0.10563c0.15305,0.04843 0.16124,0.22661 0.16124,0.22661c0.01804,0.39625 0.0147,0.77938 -0.00844,1.15805c0.02917,-0.00976 0.06371,-0.01473 0.10461,-0.01266c0.04842,0.00245 0.08698,0.01381 0.11768,0.03054c0.01358,-0.16999 0.02241,-0.34016 0.02453,-0.51057c0,0 0.0032,-0.24998 0.25318,-0.24678c0.24998,0.0032 0.24678,0.25318 0.24678,0.25318c-0.0018,0.13723 -0.00775,0.27426 -0.01691,0.41114c0.02557,0.02367 0.0428,0.05169 0.05441,0.07912c0.00221,-0.02349 0.00444,-0.04698 0.0067,-0.07045c0,0 0.02395,-0.24885 0.2728,-0.22489c0.24885,0.02395 0.2249,0.2728 0.2249,0.2728c-0.00565,0.05869 -0.01114,0.11745 -0.01646,0.17627c0.02162,-0.01818 0.04889,-0.03445 0.08313,-0.04764c0.12393,-0.04774 0.20738,-0.00429 0.25839,0.04694c0.03653,-0.02714 0.08674,-0.04557 0.15579,-0.04468c0.24998,0.0032 0.24678,0.25318 0.24678,0.25318c-0.00448,0.33753 -0.01626,0.67637 -0.03344,1.01568c0.03754,-0.02538 0.08828,-0.04153 0.15684,-0.03784c0.01939,0.00104 0.03721,0.00351 0.05355,0.00718c-0.00458,-0.10096 -0.01141,-0.20166 -0.02165,-0.30194c0,0 -0.02531,-0.24871 0.2234,-0.27403c0.24871,-0.02532 0.27403,0.2234 0.27403,0.2234c0.01316,0.1297 0.02022,0.26057 0.02394,0.39204c0.02097,-0.00536 0.04447,-0.00857 0.07079,-0.00907c0.24995,-0.00473 0.25468,0.24522 0.25468,0.24522c0.00033,0.01741 0.00066,0.03481 0.00097,0.05221c0.01679,0.02607 0.02451,0.04612 0.02451,0.04612zM250.42082,192.76322c-0.00264,-0.26603 -0.00139,-0.5329 0.00359,-0.80005c-0.01213,0.27231 -0.0156,0.54116 -0.00359,0.80005z" fill="#134220"/><path d="M253.05525,185.30499c0.00176,-0.01719 0.00525,-0.03544 0.01073,-0.05481c0.06808,-0.24055 0.30863,-0.17247 0.30863,-0.17247l0.25201,0.07133c0.01262,0.00335 0.02515,0.00775 0.03747,0.01322c0.1262,0.05601 0.1831,0.20372 0.12709,0.32992c-0.02875,0.06477 -0.08165,0.11128 -0.1434,0.13365l-0.40148,0.14609l-0.00154,-0.00422l-0.01343,0.00914c-0.06365,0.01447 -0.12726,0.02833 -0.19084,0.04167c0.00087,0.01744 -0.00009,0.03509 -0.00298,0.05268c0.07458,-0.00657 0.13766,0.02143 0.13766,0.02143l0.00123,0.02247l0.01256,0.0015c0.02608,0.00251 0.0522,0.0092 0.07746,0.02041c0.08185,0.03633 0.13455,0.11122 0.1462,0.1938l0.04687,0.03189c0.19795,-0.00242 0.39565,-0.00727 0.59297,-0.0166l0.21613,0.06705c0,0 0.12714,0.05643 0.14965,0.17993c0.20058,-0.02654 0.40103,-0.05624 0.6016,-0.09037c0.029,-0.01182 0.05037,-0.01573 0.05037,-0.01573l0.32376,-0.05918l0.48075,-0.11043c0.05161,-0.01244 0.10757,-0.00862 0.15985,0.01458c0.1262,0.05601 0.1831,0.20372 0.12709,0.32992c-0.02527,0.05694 -0.06921,0.09977 -0.12142,0.12449c0.10279,-0.01346 0.20559,-0.02686 0.30839,-0.04019l0.02321,0.00969l0.00056,-0.00942l0.31535,0.0186c0.03101,0.00111 0.06234,0.00804 0.09244,0.0214c0.1262,0.05601 0.1831,0.20372 0.12709,0.32992c-0.03159,0.07117 -0.09235,0.12031 -0.16197,0.13958l-0.16906,0.04808c0.13013,0.00415 0.26025,0.00925 0.39035,0.01512l0.24939,0.01128c0.03212,0.0007 0.06463,0.00765 0.09582,0.0215c0.1262,0.05601 0.1831,0.20372 0.12709,0.32992c-0.02494,0.05619 -0.06806,0.09864 -0.11936,0.1235l-0.25938,0.12798l-0.37367,0.20034c0,0 -0.22034,0.11811 -0.33845,-0.10224c-0.0531,-0.09907 -0.03778,-0.17747 -0.00484,-0.23376c-0.04535,-0.00105 -0.0907,-0.00196 -0.13605,-0.00273l-0.25469,0.13651l-0.00152,-0.00283l-0.00918,0.00824c-0.17956,0.07524 -0.35965,0.14671 -0.54029,0.21546c0.15691,-0.01463 0.31373,-0.03033 0.47042,-0.04762l0.01331,0.00582l-0.00003,-0.00623l0.27564,-0.00115c0.03599,-0.00095 0.07276,0.00589 0.10786,0.02147c0.1067,0.04736 0.16386,0.16026 0.14513,0.27029l0.18816,-0.00865c0.03917,-0.00262 0.07954,0.00397 0.11792,0.021c0.08329,0.03697 0.1364,0.11389 0.14678,0.1982c0.34374,-0.01714 0.68763,-0.03174 1.03151,-0.05967l0.01172,0.00493l0.00007,-0.00505l0.28117,0.0036c0.03468,-0.00034 0.06997,0.00656 0.10374,0.02155c0.11909,0.05286 0.17647,0.18737 0.13549,0.30841c0.1116,0.06226 0.15929,0.20052 0.10643,0.31961c-0.00966,0.02176 -0.02204,0.04147 -0.03658,0.05888l0.17879,-0.02205c0.04475,-0.00631 0.09175,-0.00057 0.1361,0.01911c0.1262,0.05601 0.1831,0.20372 0.12709,0.32992c-0.02602,0.05863 -0.07183,0.1023 -0.12607,0.12664l-0.41177,0.18707l-0.00198,-0.00435c-0.00386,0.00334 -0.00771,0.00669 -0.01157,0.01003l-0.44573,0.14271c0,0 -0.02715,0.00866 -0.06605,0.01097l0.0915,0.23643c-0.39903,0.1518 -0.8123,0.19758 -1.23236,0.26982c0,0 -0.24638,0.04237 -0.28875,-0.20401c-0.00862,-0.05014 -0.00529,-0.09183 0.0055,-0.12644c-0.06562,-0.0118 -0.14176,-0.05 -0.17757,-0.15713c-0.08952,0.0431 -0.17683,0.08941 -0.26127,0.13968c0,0 -0.21534,0.127 -0.34234,-0.08835c-0.03997,-0.06778 -0.04603,-0.12682 -0.03556,-0.17589c-0.11587,0.02032 -0.23203,0.03926 -0.34867,0.05592c0,0 -0.24752,0.03511 -0.28263,-0.21241c-0.01361,-0.096 0.01528,-0.16004 0.05575,-0.20248c-0.01928,0.00565 -0.03855,0.01136 -0.05782,0.01713c0,0 -0.23949,0.07171 -0.3112,-0.16778c-0.07171,-0.2395 0.16778,-0.3112 0.16778,-0.3112c0.08808,-0.02635 0.17623,-0.05143 0.26449,-0.07542c-0.09729,0.01356 -0.19463,0.02851 -0.29212,0.04533c0,0 -0.17072,0.02936 -0.25238,-0.10292c-0.15525,0.01534 -0.31037,0.03484 -0.466,0.0674c0,0 -0.24489,0.05029 -0.29518,-0.1946c-0.01055,-0.05136 -0.00811,-0.09416 0.00233,-0.12973c-0.0127,-0.00652 -0.02525,-0.01438 -0.03719,-0.02387c-0.04204,0.0141 -0.08411,0.02823 -0.12622,0.04238c0,0 -0.23697,0.07965 -0.31662,-0.15733c-0.07965,-0.23697 0.15733,-0.31662 0.15733,-0.31662c0.14273,-0.04797 0.28508,-0.09554 0.42708,-0.14321c-0.02209,0.00371 -0.04418,0.00742 -0.06629,0.01113c0.04586,-0.01166 0.09171,-0.02335 0.13755,-0.03508c0.03479,-0.01171 0.06956,-0.02342 0.10431,-0.03516c-0.44835,0.06359 -0.89829,0.1327 -1.34512,0.15431c0,0 -0.24973,0.01148 -0.26122,-0.23826c-0.00018,-0.00393 -0.0003,-0.0078 -0.00035,-0.01161c-0.04688,-0.02831 -0.08874,-0.07823 -0.10605,-0.16496c-0.04892,-0.24516 0.19625,-0.29409 0.19625,-0.29409c0.0938,-0.01872 0.18765,-0.03678 0.28153,-0.05431c-0.02438,-0.02307 -0.04569,-0.05316 -0.05756,-0.09215c-0.02008,0.00386 -0.0402,0.00756 -0.06038,0.01107c0,0 -0.04835,0.00831 -0.1059,-0.00384c-0.31076,0.15769 -0.5396,0.15653 -0.89551,0.21842c0,0 -0.24638,0.04237 -0.28875,-0.20402c-0.04237,-0.24639 0.20401,-0.28875 0.20401,-0.28875c0.07052,-0.01201 0.13596,-0.01982 0.19813,-0.02668c-0.04094,-0.02663 -0.07756,-0.07117 -0.09832,-0.14417c-0.00754,-0.02651 -0.01132,-0.05093 -0.01209,-0.0734c-0.01133,0.00031 -0.02265,0.00063 -0.03398,0.00096c-0.21472,0.04125 -0.42973,0.08 -0.64554,0.11065c0,0 -0.24752,0.03511 -0.28263,-0.21242c-0.01149,-0.08098 0.00728,-0.13923 0.03774,-0.18095c-0.07459,0.01167 -0.14897,0.02147 -0.22297,0.02811c0,0 -0.249,0.02232 -0.27132,-0.22668c-0.00701,-0.07822 0.01275,-0.13407 0.04316,-0.17389c-0.0009,-0.0078 -0.00156,-0.01589 -0.00194,-0.02428c-0.00196,-0.04256 0.00368,-0.0782 0.01436,-0.10804c-0.18717,0.03504 -0.37523,0.06728 -0.56478,0.09576c0,0 -0.24723,0.03712 -0.28435,-0.21011c-0.0124,-0.08258 0.00693,-0.14172 0.03817,-0.18386c-0.06567,-0.02107 -0.13529,-0.07249 -0.15602,-0.19308c-0.04237,-0.24639 0.20401,-0.28876 0.20401,-0.28876c0.04337,-0.00744 0.08674,-0.01458 0.1301,-0.02146c-0.04208,-0.03212 -0.07728,-0.08415 -0.08763,-0.16804c-0.0306,-0.24812 0.21752,-0.27872 0.21752,-0.27872c0.95161,-0.11736 1.91241,-0.25688 2.8706,-0.30125l-0.06153,0.40998l0.08449,0.0895c-0.03288,0.0015 -0.06576,0.00312 -0.09865,0.00484l-0.01176,0.07832c0,0 -0.18664,0.09678 -0.30636,-0.05832c-0.08031,0.00584 -0.16063,0.01224 -0.24095,0.01914c0.0144,0.03283 0.02175,0.06867 0.0211,0.10505c0.01049,0.00309 0.0209,0.0069 0.03118,0.01146c0.1262,0.05601 0.1831,0.20372 0.12709,0.32992c-0.02941,0.06626 -0.0841,0.11342 -0.14768,0.13516l-0.08834,0.03047c0.33184,-0.05634 0.66119,-0.11215 0.99097,-0.1854zM251.27233,185.70082c0.13337,-0.00637 0.26672,-0.013 0.40005,-0.02015c0.0117,-0.03434 0.03081,-0.06146 0.05264,-0.0828c-0.15117,0.03482 -0.30196,0.06931 -0.45269,0.10295zM254.82363,187.55553l-0.30216,0.09811c-0.00002,-0.00001 -0.00003,-0.00001 -0.00005,-0.00002l0.03358,0.07474c0.14433,-0.05032 0.2883,-0.10156 0.43189,-0.15426c-0.03754,-0.02032 -0.07361,-0.05262 -0.09567,-0.10389c-0.02848,0.05307 -0.0676,0.08531 -0.0676,0.08531zM255.91377,189.19229c-0.00006,-0.00476 -0.00001,-0.00962 0.00014,-0.01457c-0.11039,0.02442 -0.22038,0.04974 -0.33008,0.07639c0.11017,-0.0196 0.22008,-0.0405 0.32994,-0.06182zM250.3633,186.68024c0.01621,0.00607 0.0325,0.00989 0.04841,0.01204c-0.02354,0.00969 -0.04703,0.01934 -0.07046,0.02895c0.00731,-0.01369 0.01466,-0.02734 0.02205,-0.04099z" fill="#134220"/></g></g></g></svg>