<svg version="1.1" xmlns="http://www.w3.org/2000/svg" xmlns:xlink="http://www.w3.org/1999/xlink" width="11.39367" height="32.75799" viewBox="0,0,11.39367,32.75799"><g transform="translate(-217.23098,-161.03569)"><g data-paper-data="{&quot;isPaintingLayer&quot;:true}" fill-rule="nonzero" stroke="none" stroke-width="0.5" stroke-linecap="butt" stroke-linejoin="miter" stroke-miterlimit="10" stroke-dasharray="" stroke-dashoffset="0" style="mix-blend-mode: normal"><g><path d="M218.22728,193.76016c-1.22486,-0.24945 -0.9754,-1.47431 -0.9754,-1.47431l0.11514,-0.56536c1.29627,-6.36489 3.69443,-12.35791 4.99947,-18.76588c0,0 0.24945,-1.22486 1.47431,-0.9754c1.22486,0.24945 0.9754,1.47431 0.9754,1.47431c-1.30477,6.40661 -3.70436,12.40665 -4.99947,18.76588l-0.11514,0.56536c0,0 -0.24945,1.22486 -1.47431,0.9754z" fill="#572600"/><path d="M219.56125,170.53836c0.0241,-0.11835 0.06419,-0.22937 0.11756,-0.33125c-0.04876,-0.03044 -0.09813,-0.06503 -0.14806,-0.10414c-0.98399,-0.77089 -0.21309,-1.75488 -0.21309,-1.75488l0.32942,-0.38112c1.1087,-0.89376 1.24619,-1.54798 1.39599,-2.94826c0,0 0.14688,-1.24134 1.38821,-1.09447c1.24134,0.14687 1.09447,1.38822 1.09447,1.38822c-0.0005,0.00394 -0.001,0.00787 -0.0015,0.0118c0.10302,0.04605 0.20941,0.10991 0.31842,0.19531c0.98399,0.77089 0.2131,1.75488 0.2131,1.75488l-0.02706,-0.00483c-0.39502,0.78314 -0.79004,1.56628 -1.18505,2.34942c0,0 -0.30117,0.59707 -0.89964,0.69751c0.09007,0.22072 0.11809,0.46958 0.06695,0.72071c-0.13777,0.67647 -0.79784,1.11317 -1.47431,0.9754c-0.67647,-0.13777 -1.11317,-0.79784 -0.9754,-1.47431z" fill="#570c00"/><path d="M225.82541,167.53542c0.04411,-0.21657 0.14175,-0.40857 0.27632,-0.56501c-0.00463,-0.05841 -0.00389,-0.09341 -0.00389,-0.09341l0.00143,-0.06617c-0.03908,-0.08547 -0.06869,-0.17563 -0.08777,-0.26887c-0.25113,0.13907 -0.55117,0.19281 -0.85451,0.13103c-0.67647,-0.13777 -1.11317,-0.79784 -0.9754,-1.47431c0.12261,-0.60204 0.65891,-1.01417 1.25229,-1.00046c-0.03514,-0.16359 -0.03782,-0.33695 -0.00229,-0.5114c0.07194,-0.35322 0.28628,-0.64107 0.571,-0.8159c-0.00779,-0.17654 -0.01558,-0.35307 -0.02337,-0.52961c0,0 -0.05507,-1.24879 1.19372,-1.30385c1.24879,-0.05507 1.30385,1.19372 1.30385,1.19372c0.0495,1.12263 0.09885,2.24526 0.14785,3.36791l-0.02736,1.33055c0,0 -0.00951,0.452 -0.28894,0.80661c0.11635,0.23867 0.15789,0.51614 0.10081,0.79642c-0.06755,0.3317 -0.26068,0.60574 -0.51974,0.78269c0.23416,0.28148 0.34311,0.66281 0.26436,1.0495c-0.13777,0.67647 -0.79784,1.11317 -1.47431,0.9754c-0.67647,-0.13777 -1.11317,-0.79784 -0.9754,-1.47431c0.06755,-0.3317 0.26068,-0.60575 0.51975,-0.78269c-0.16944,-0.20369 -0.27333,-0.45965 -0.28797,-0.7321c-0.12365,-0.24295 -0.16906,-0.52786 -0.11043,-0.81574z" fill="#570c00"/><path d="M220.20424,174.31994c0.01172,-0.05755 0.02722,-0.11336 0.04619,-0.16724c0.00361,-0.057 0.01118,-0.11443 0.0229,-0.17198c0.04777,-0.23456 0.15834,-0.4403 0.31061,-0.60325c-0.46591,-0.25702 -0.73239,-0.79515 -0.6206,-1.34408c0.13777,-0.67647 0.79784,-1.11317 1.47431,-0.9754c0.04072,0.00829 0.08057,0.01848 0.11949,0.03045l-0.06612,-0.74815c0.04675,-0.42228 0.0935,-0.84455 0.14024,-1.26683c0,0 0.06197,-0.55977 0.47845,-0.88625c-0.0752,-0.20846 -0.09592,-0.43955 -0.04846,-0.67258c0.11528,-0.56605 0.59627,-0.96422 1.14657,-0.99841c0.07719,-0.3117 0.26663,-0.56863 0.51597,-0.73616c0.20792,-0.57257 0.80919,-0.9219 1.42401,-0.79669c0.49006,0.0998 0.85428,0.47371 0.96543,0.92939c0.08349,-0.00017 0.16825,0.00807 0.25327,0.02538c0.67647,0.13777 1.11317,0.79784 0.9754,1.47431c-0.09007,0.44226 -0.40339,0.78204 -0.79859,0.92581c0.5023,0.24617 0.65949,0.83062 0.65949,0.83062l0.33508,1.24586c0,0 0.24645,0.91631 -0.48845,1.36696c0.03649,0.16552 0.03972,0.34117 0.00372,0.51796c-0.07834,0.38466 -0.32557,0.6918 -0.64866,0.85987c0.03581,0.06186 0.06923,0.12998 0.09979,0.20494c0.47187,1.15752 -0.68565,1.62938 -0.68565,1.62938l-0.97326,0.39676c0.00814,0.11156 0.00132,0.22608 -0.0221,0.34108c-0.13777,0.67647 -0.79784,1.11317 -1.47431,0.9754c-0.43665,-0.08893 -0.7734,-0.39547 -0.92024,-0.78358c-0.1625,-0.05167 -0.30828,-0.13452 -0.43197,-0.24042c-0.24325,0.12418 -0.5287,0.16988 -0.81713,0.11114c-0.67647,-0.13777 -1.11317,-0.79784 -0.9754,-1.47431zM223.01483,173.49971c0.08764,-0.06808 0.16989,-0.11724 0.22892,-0.14886c-0.02629,-0.03105 -0.05105,-0.06335 -0.07418,-0.09676c-0.0191,-0.00299 -0.03822,-0.00642 -0.05736,-0.01032c-0.32047,-0.06527 -0.58713,-0.24775 -0.7644,-0.49368c-0.05832,0.1452 -0.14229,0.27513 -0.24538,0.38545c0.16975,0.09364 0.31303,0.2246 0.42119,0.37981c0.15686,-0.03688 0.32319,-0.04381 0.49121,-0.01565zM224.43421,168.82509l0.55559,-0.55619c0,0 0.12726,-0.08419 0.32226,-0.14929c-0.08522,-0.07185 -0.16014,-0.15455 -0.22304,-0.24551c-0.17484,0.11058 -0.37713,0.17814 -0.58976,0.19135c-0.0706,0.2851 -0.23512,0.52438 -0.45348,0.69134c0.1015,0.31001 0.0703,0.59175 0.0703,0.59175c-0.00417,0.03762 -0.00833,0.07524 -0.01249,0.11286c0.11021,-0.2121 0.22043,-0.42421 0.33063,-0.63631z" fill="#573100"/><path d="M220.11212,174.77223c0.07935,-0.38964 0.33198,-0.69973 0.66122,-0.86632c-0.23786,-0.28208 -0.34909,-0.66628 -0.26974,-1.05591c0.12941,-0.63543 0.71967,-1.05931 1.35149,-0.99421c-0.14974,-0.25616 -0.20934,-0.56627 -0.14547,-0.87989c0.11356,-0.55758 0.58195,-0.95226 1.1219,-0.99663c-0.34839,-0.28431 -0.53116,-0.74756 -0.43519,-1.21876c0.05064,-0.24865 0.17185,-0.4649 0.3385,-0.63214c-0.02817,-0.15297 -0.02808,-0.3138 0.00486,-0.47556c0.13777,-0.67647 0.79784,-1.11317 1.47431,-0.9754c0.67647,0.13777 1.11317,0.79784 0.9754,1.47431c-0.05064,0.24865 -0.17185,0.4649 -0.3385,0.63214c0.02817,0.15297 0.02808,0.3138 -0.00486,0.47556c-0.04319,0.21207 -0.13771,0.40057 -0.26798,0.5552c0.01827,0.00289 0.03655,0.0062 0.05485,0.00993c0.67647,0.13777 1.11317,0.79784 0.9754,1.47431c-0.02747,0.1349 -0.07572,0.26027 -0.14072,0.37345c0.07363,0.20706 0.09359,0.43619 0.04654,0.66723c-0.01956,0.09605 -0.04966,0.18727 -0.08883,0.2727c0.51095,0.23908 0.81159,0.80431 0.69405,1.38147c-0.13777,0.67647 -0.79784,1.11317 -1.47431,0.9754c-0.12998,-0.02647 -0.25111,-0.07223 -0.36101,-0.13368c-0.00298,0.0638 -0.01089,0.1282 -0.02403,0.19275c-0.13777,0.67647 -0.79784,1.11317 -1.47431,0.9754c-0.17489,-0.03562 -0.33377,-0.10615 -0.47082,-0.20285c-0.28351,0.35528 -0.75136,0.54275 -1.22734,0.44582c-0.67647,-0.13777 -1.11317,-0.79784 -0.9754,-1.47431zM222.90345,172.53414c0.00751,0.00153 0.01499,0.00313 0.02245,0.00479c0.00607,-0.0214 0.01269,-0.04253 0.01981,-0.06337c-0.04563,0.00036 -0.09163,-0.00178 -0.13787,-0.00654c0.01027,0.01758 0.02013,0.03541 0.02954,0.05348c0.02199,0.00328 0.04402,0.00716 0.06606,0.01165z" fill="#897600"/></g></g></g></svg>