<svg version="1.1" xmlns="http://www.w3.org/2000/svg" xmlns:xlink="http://www.w3.org/1999/xlink" width="19.87309" height="28.61806" viewBox="0,0,19.87309,28.61806"><g transform="translate(-228.26553,-168.27257)"><g data-paper-data="{&quot;isPaintingLayer&quot;:true}" fill="#a60000" fill-rule="nonzero" stroke="none" stroke-width="0.5" stroke-linecap="butt" stroke-linejoin="miter" stroke-miterlimit="10" stroke-dasharray="" stroke-dashoffset="0" style="mix-blend-mode: normal"><path d="M230.58303,191.43361c-1.13289,-2.01398 0.88076,-5.83873 2.35272,-7.29071c0.68538,-0.67609 1.94569,-0.53506 2.72042,-1.01387c1.27059,-0.78527 2.34809,-2.15556 4.05987,-1.72762c3.01842,0.75461 3.70894,2.47034 5.43568,4.59959c0.50931,0.62803 1.42898,1.36046 1.65779,2.1415c0.56002,1.91164 -1.24986,3.96232 -3.27021,3.16642c-1.52364,-0.60022 -2.78672,-3.00522 -4.62821,-2.82288c-1.0696,0.10591 -2.49748,2.56037 -4.11354,2.99656c-0.09173,0.11379 -0.19367,0.21901 -0.30442,0.31427c-0.43899,0.5104 -1.08953,0.83361 -1.81555,0.83361c-0.779,0 -1.47108,-0.37211 -1.90821,-0.94827c-0.07134,-0.0737 -0.13415,-0.15586 -0.18632,-0.2486z"/><path d="M231.89234,195.09532c0,-0.99152 0.80379,-1.79531 1.79531,-1.79531c0.99152,0 1.79531,0.80379 1.79531,1.79531c0,0.99152 -0.80379,1.79531 -1.79531,1.79531c-0.99152,0 -1.79531,-0.80379 -1.79531,-1.79531z"/><path d="M240.3964,193.56273c0,-0.99152 0.80379,-1.79531 1.79531,-1.79531c0.99152,0 1.79531,0.80379 1.79531,1.79531c0,0.99152 -0.80379,1.79531 -1.79531,1.79531c-0.99152,0 -1.79531,-0.80379 -1.79531,-1.79531z"/><path d="M234.35375,179.86001c-0.41096,1.23289 -2.50438,1.00145 -2.56274,-0.04915c-0.04817,-0.07421 -0.08746,-0.15471 -0.11635,-0.24001c-0.34144,-0.22313 -0.65692,-0.52279 -0.88928,-0.87773c-0.0151,-0.00496 -0.03027,-0.00998 -0.04552,-0.01506c-0.14862,-0.04954 -0.37826,-0.3301 -0.60054,-0.70885c-0.07842,-0.0309 -0.15706,-0.06814 -0.23566,-0.11208c-0.64726,-0.36188 -1.75636,-2.54458 -0.86289,-3.05513c0.3123,-0.52915 0.88831,-0.88413 1.54723,-0.88413c0.67092,0 1.25588,0.36802 1.56403,0.9132c0.20485,0.19312 0.36213,0.42616 0.43692,0.72532c0.04086,0.16344 0.05872,0.32897 0.05613,0.49303c0.0064,0.05731 0.00969,0.11557 0.00969,0.17458c0,0.00718 -0.00005,0.01435 -0.00015,0.0215c0.26163,0.3862 0.47937,0.79317 0.61181,1.17238c0.22873,0.23438 0.39935,0.4782 0.46885,0.68812c0.08117,0.24519 0.13151,0.46393 0.15518,0.65775c0.34783,0.32826 0.58326,0.73633 0.46329,1.09625z"/><path d="M235.22854,176.41222c-0.05351,-0.05527 -0.10061,-0.1169 -0.13974,-0.18646c-0.62806,-1.11652 -0.63682,-3.41639 0.74776,-3.87791c2.02981,-0.6766 2.86171,2.40424 2.58538,3.52741c0.03206,0.12444 0.04911,0.25491 0.04911,0.38935c0,0.2055 -0.03984,0.4017 -0.11221,0.58128c0.01481,0.19139 0.03113,0.37113 0.0644,0.50423v0.51083c0,0.32731 -0.11944,0.62672 -0.31711,0.85702c-0.00207,0.00372 -0.00414,0.00742 -0.00621,0.0111c-0.00374,0.52031 -0.10859,0.96237 -0.32032,1.08336l-0.92834,0.53048c-0.48053,-0.27459 -0.76791,-0.32055 -0.92509,-0.52501c-0.05513,-0.07172 -0.09425,-0.16294 -0.12006,-0.29037c-0.02092,-0.08381 -0.03204,-0.17151 -0.03204,-0.2618c-0.01406,-0.2182 -0.02952,-0.71599 0.02706,-1.23362c-0.00727,-0.05602 -0.01103,-0.11315 -0.01103,-0.17116c0,-0.06537 0.00477,-0.12964 0.01397,-0.19246c-0.05229,-0.14201 -0.09646,-0.28698 -0.131,-0.43209c-0.1588,-0.18231 -0.28166,-0.42585 -0.34927,-0.73735c-0.03356,-0.02716 -0.06541,-0.05601 -0.09526,-0.08685z"/><path d="M241.50661,172.00031c1.03618,0 2.9223,2.62313 1.54723,3.40889c-0.07334,0.12427 -0.16123,0.23893 -0.26132,0.34165c-0.02539,0.14522 -0.06994,0.28789 -0.13017,0.42582c-0.02185,0.14661 -0.06415,0.28653 -0.12391,0.41679c-0.00514,0.08253 -0.01652,0.16478 -0.03454,0.24585c-0.03762,0.1693 -0.11842,0.44738 -0.23871,0.73355c-0.04682,0.16998 -0.12686,0.32618 -0.23271,0.46119c-0.00134,0.00219 -0.00268,0.00437 -0.00403,0.00655c-0.14013,0.84225 -0.38224,1.57489 -0.61517,1.708c-0.18738,0.31749 -0.53298,0.53048 -0.92834,0.53048c-0.59491,0 -1.07719,-0.48227 -1.07719,-1.07719c0,-0.20879 0.0594,-0.40371 0.16223,-0.56878c-0.01389,-0.35004 0.03479,-0.71792 0.12786,-1.07806c-0.03295,-0.09371 -0.04153,-0.19294 -0.01819,-0.29795c-0.0003,-0.01152 -0.00045,-0.02308 -0.00045,-0.03467c0,-0.08457 0.00798,-0.16729 0.02321,-0.24743c-0.05686,-0.17793 -0.08843,-0.39353 -0.08843,-0.65075c-0.03035,-0.12128 -0.04646,-0.2482 -0.04646,-0.37889c0,-0.11315 0.01208,-0.22348 0.03502,-0.32977c0.02456,-0.25246 0.05556,-0.57376 0.09992,-0.85407c-0.25515,-1.21076 0.33493,-2.76121 1.80412,-2.76121z"/><path d="M228.86397,169.45307c0.59844,0 0.59844,0.59844 0.59844,0.59844l-0.03071,0.00232c0.14667,0.44345 0.25586,0.89989 0.34032,1.35926c0,0 0.10705,0.58878 -0.48173,0.69584c-0.58878,0.10705 -0.69584,-0.48173 -0.69584,-0.48173c-0.07253,-0.40405 -0.16735,-0.80578 -0.29821,-1.19487l-0.03071,-0.3808c0,0 0,-0.59844 0.59844,-0.59844z"/><path d="M235.57419,168.85516c0.59844,0 0.59844,0.59844 0.59844,0.59844c0,0.23413 0,0.59596 0,0.83009c0,0 0,0.59844 -0.59844,0.59844c-0.59844,0 -0.59844,-0.59844 -0.59844,-0.59844c0,-0.23413 0,-0.46826 0,-0.70239v-0.12771c0,0 0,-0.59844 0.59844,-0.59844z"/><path d="M242.07897,168.31119c0.56773,0.18924 0.37849,0.75697 0.37849,0.75697l-0.14858,0.43693c-0.08514,0.19156 -0.17027,0.38312 -0.25541,0.57468c0,0 -0.24305,0.54686 -0.78991,0.30381c-0.54686,-0.24305 -0.30381,-0.78991 -0.30381,-0.78991c0.08514,-0.19156 0.17028,-0.38312 0.25542,-0.57468l0.10684,-0.32931c0,0 0.18924,-0.56773 0.75697,-0.37849z"/><path d="M246.85917,170.17801c0.53526,0.26763 0.26763,0.80289 0.26763,0.80289l-0.00068,-0.13992c0,0.25541 0,0.51083 0,0.76624c0,0 0,0.59844 -0.59844,0.59844c-0.59844,0 -0.59844,-0.59844 -0.59844,-0.59844c0,-0.25541 0,-0.51083 0,-0.76624l0.12703,-0.39534c0,0 0.26763,-0.53526 0.80289,-0.26763z"/><path d="M246.66981,173.32514c1.01156,0.22453 2.28447,3.19403 0.77181,3.66316c-0.09853,0.10542 -0.20917,0.19832 -0.32914,0.27691c-0.05626,0.13627 -0.13067,0.26589 -0.21935,0.38749c-0.0531,0.13839 -0.12472,0.26583 -0.21128,0.38004c-0.0229,0.07945 -0.05183,0.15728 -0.08699,0.23253c-0.07341,0.15713 -0.21256,0.41109 -0.39199,0.6644c-0.08254,0.15579 -0.19452,0.29094 -0.32711,0.3998c-0.00178,0.00185 -0.00357,0.00369 -0.00536,0.00553c-0.31931,0.79188 -0.71441,1.45465 -0.97065,1.53412c-0.25172,0.26935 -0.63527,0.40238 -1.02123,0.31672c-0.58078,-0.12891 -0.9471,-0.70423 -0.81818,-1.28501c0.04524,-0.20383 0.14548,-0.38125 0.28163,-0.52011c0.06229,-0.34473 0.18953,-0.69332 0.35842,-1.02474c-0.01187,-0.09863 0.00127,-0.19735 0.0468,-0.29481c0.00221,-0.01131 0.00456,-0.02263 0.00708,-0.03395c0.01833,-0.08257 0.04404,-0.16158 0.07628,-0.23652c-0.01695,-0.18603 -0.00105,-0.40334 0.05468,-0.65445c-0.00334,-0.12497 0.00843,-0.25237 0.03675,-0.37995c0.02452,-0.11046 0.06021,-0.21555 0.10564,-0.31435c0.07868,-0.24115 0.17857,-0.54809 0.28262,-0.81212c0.01327,-1.23728 0.92529,-2.62303 2.35958,-2.30467z"/></g></g></svg>