<svg version="1.1" xmlns="http://www.w3.org/2000/svg" xmlns:xlink="http://www.w3.org/1999/xlink" width="55.27126" height="11.85215" viewBox="0,0,55.27126,11.85215"><g transform="translate(-119.62741,-175.65678)"><g data-paper-data="{&quot;isPaintingLayer&quot;:true}" fill-rule="nonzero" stroke-linecap="butt" stroke-linejoin="miter" stroke-miterlimit="10" stroke-dasharray="" stroke-dashoffset="0" style="mix-blend-mode: normal"><path d="M172.6463,175.72236c1.10457,0 2,0.89543 2,2c0,0.2197 -0.03543,0.43111 -0.10087,0.62886c0.37519,1.67719 0.39122,3.83033 0.10697,5.49264c0.11271,0.1826 0.19688,0.38469 0.24628,0.60005c-0.07286,0.42119 -0.11505,0.84658 -0.12675,1.27356c-0.3141,0.69322 -1.01206,1.17544 -1.82265,1.17544c-0.15166,0 -0.29938,-0.01689 -0.44138,-0.04887c-0.61622,0.25096 -1.25388,0.43114 -1.90801,0.55598c-0.06736,0.00064 -0.13476,0.00141 -0.2022,0.00226c-0.7392,-0.18185 -1.51072,-0.28151 -2.30433,-0.28872c-0.64983,-0.13272 -1.3226,-0.20241 -2.01165,-0.20241c-0.67455,0 -1.3335,0.06679 -1.97061,0.19412c-0.08405,-0.0188 -0.16781,-0.0386 -0.25126,-0.05946h-2.92882c-0.05743,0.01436 -0.11742,0.02848 -0.17978,0.04244c-0.68921,-0.05341 -1.3715,-0.0898 -2.04208,-0.09435c-8.94445,-0.06069 -17.76321,-0.311 -26.8348,-0.30298c-2.09248,0.00185 -6.36078,1.01233 -8.37756,-0.34034c-0.35016,0.28171 -0.79482,0.44134 -1.34733,0.44134c-0.67185,0 -1.27492,-0.52492 -1.75,-1c-0.1048,-0.1048 -0.19214,-0.21751 -0.26438,-0.33706c3.35954,-1.61208 5.67913,-5.0456 5.67913,-9.02089c0,-0.20039 -0.00589,-0.39941 -0.01752,-0.59689c0.4655,-0.05296 0.93283,-0.11292 1.395,-0.18031c0.7187,0.09219 1.43255,0.16961 2.12313,0.16658c4.95048,-0.02176 9.90074,-0.11757 14.85124,-0.101c0.22601,0.00075 0.47648,0.09699 0.70301,0.101c4.95665,0.08759 9.87057,0.21732 14.84483,0.20198c3.85415,-0.01189 7.57825,0.13052 11.49811,0.101c0.08822,-0.00066 0.17798,-0.01177 0.2689,-0.02957c0.32814,-0.23565 0.73054,-0.3744 1.16535,-0.3744z" fill="#b85000" stroke="none" stroke-width="0.5"/><path d="M174.31962,176.26788l-0.0183,10.74019l-54.17305,-0.0923l0.00175,-1.02723c3.56876,-1.5271 6.06927,-5.07047 6.06927,-9.19787c0,-0.08582 -0.00108,-0.17139 -0.00323,-0.2567c0.00025,-0.00988 0.00048,-0.01978 0.0007,-0.02967c0.02426,-0.0724 0.04771,-0.14517 0.07035,-0.2183z" fill-opacity="0.53333" fill="#00a67e" stroke="#827700" stroke-width="1"/></g></g></svg>