<svg version="1.1" xmlns="http://www.w3.org/2000/svg" xmlns:xlink="http://www.w3.org/1999/xlink" width="35.39948" height="36.61698" viewBox="0,0,35.39948,36.61698"><g transform="translate(-222.87706,-160.12985)"><g data-paper-data="{&quot;isPaintingLayer&quot;:true}" fill-rule="nonzero" stroke="#000000" stroke-width="0" stroke-linecap="butt" stroke-linejoin="miter" stroke-miterlimit="10" stroke-dasharray="" stroke-dashoffset="0" style="mix-blend-mode: normal"><path d="M222.9142,180.68274v-11.04085h35.25544v11.04085z" fill="#595959"/><path d="M258.25797,178.86819c0,9.8741 -7.92029,17.87865 -17.69046,17.87865c-9.77016,0 -17.69045,-8.00455 -17.69045,-17.87865c0,-9.8741 7.92029,-17.87864 17.69045,-17.87864c9.77016,0 17.69046,8.00454 17.69046,17.87864z" fill="#595959"/><path d="M258.27654,170.22973c0,5.578 -7.92029,10.09987 -17.69045,10.09987c-9.77017,0 -17.69045,-4.52187 -17.69045,-10.09987c0,-5.578 7.92029,-10.09987 17.69045,-10.09987c9.77017,0 17.69045,4.52187 17.69045,10.09987z" fill="#595959"/><path d="M256.66408,169.93464c0,4.2961 -7.19005,7.77878 -16.05942,7.77878c-8.86937,0 -16.05942,-3.48268 -16.05942,-7.77878c0,-4.2961 7.19005,-7.77878 16.05942,-7.77878c8.86937,0 16.05942,3.48268 16.05942,7.77878z" fill="#b4c28d"/></g></g></svg>