<svg version="1.1" xmlns="http://www.w3.org/2000/svg" xmlns:xlink="http://www.w3.org/1999/xlink" width="58.90988" height="59.01163" viewBox="0,0,58.90988,59.01163"><defs><radialGradient cx="241.27241" cy="176.77792" r="29.45494" gradientUnits="userSpaceOnUse" id="color-1"><stop offset="0" stop-color="#00d5ff" stop-opacity="0.55294"/><stop offset="1" stop-color="#00d5ff" stop-opacity="0"/></radialGradient></defs><g transform="translate(-211.81747,-147.27211)"><g data-paper-data="{&quot;isPaintingLayer&quot;:true}" fill-rule="nonzero" stroke-linejoin="miter" stroke-miterlimit="10" stroke-dasharray="" stroke-dashoffset="0" style="mix-blend-mode: normal"><g stroke="none" stroke-width="0.5" stroke-linecap="butt"><path d="M232.79771,193.12966c-1.22434,0.50654 -2.8816,2.24807 -3.98334,4.10367c-0.93907,0.25672 -1.76448,1.06244 -2.34976,1.99609c-0.75385,0.11716 -1.40931,0.48764 -2.10322,1.26296c-0.03333,0.03725 -0.06652,0.07746 -0.09937,0.12033c-1.18408,-0.20094 -2.18343,-1.05115 -2.55342,-2.2209c0.56588,-0.99644 0.91284,-2.29265 0.95937,-2.94341c0.00526,-0.01349 0.01037,-0.02705 0.01534,-0.04066c0.07154,-0.13805 0.11966,-0.27172 0.14718,-0.4008c1.9454,-1.15373 3.87861,-3.21438 4.76248,-5.17217c0.29787,-0.28431 0.59222,-0.57098 0.88333,-0.85987c0.52129,0.46707 2.56934,1.58703 2.87663,1.80783c0.50292,0.36136 1.40104,1.17537 2.43315,2.03126c-0.29778,0.06267 -0.62707,0.16618 -0.98837,0.31566z" data-paper-data="{&quot;index&quot;:null}" fill="#885c36"/><path d="M249.22313,165.55098c-0.00147,-0.00817 -0.00301,-0.01633 -0.00464,-0.02448c0.00502,-0.00582 0.01067,-0.01169 0.01691,-0.01759c-0.0041,0.01402 -0.00819,0.02805 -0.01227,0.04207z" data-paper-data="{&quot;index&quot;:null}" fill="#885c36"/><path d="M227.01331,198.48058c-0.10857,0.12656 -0.21237,0.25889 -0.31094,0.39547c-1.56193,-0.97505 -2.76171,-2.18782 -3.92759,-3.6758c0.02375,-0.06552 0.04221,-0.12996 0.05571,-0.1933c0.10007,-0.05935 0.20011,-0.12109 0.29996,-0.1851c0.01486,0.027 0.02972,0.05402 0.04458,0.08102c1.15011,1.45274 2.30489,2.62948 3.83827,3.57772z" data-paper-data="{&quot;index&quot;:null}" fill="#4c331e"/><path d="M228.08358,188.83431c0.05642,-0.11962 0.14627,-0.14611 0.21839,-0.14454l0.05548,0.1389c0.07494,0.30512 2.64803,1.7044 2.99549,1.95406c0.30587,0.21977 0.75792,0.60697 1.29738,1.0692c0.26071,0.33106 0.49036,0.68969 0.67958,1.08286c-0.15087,0.04755 -0.30843,0.10425 -0.47274,0.17057c-0.81877,-1.66363 -2.43484,-2.6754 -3.98419,-3.61307c-0.18097,-0.09809 -0.36612,-0.18894 -0.55486,-0.2711l-0.11506,-0.05414c0,0 -0.22612,-0.10665 -0.11947,-0.33276z" data-paper-data="{&quot;index&quot;:null}" fill="#4c331e"/><path d="M227.53253,190.30788c0,0 -0.07335,-0.03459 -0.11679,-0.10614c0.06338,-0.12333 0.12288,-0.24651 0.17826,-0.36928c0.08103,-0.0102 0.15181,0.02319 0.15181,0.02319l0.09748,0.04629c1.79357,0.74836 3.38777,1.91284 4.50032,3.4593c-0.13562,0.08103 -0.2746,0.17381 -0.41585,0.2771c-1.05582,-1.46394 -2.57243,-2.57285 -4.276,-3.27453z" data-paper-data="{&quot;index&quot;:null}" fill="#b97b48"/><path d="M226.79082,191.29222c1.66891,0.46516 3.24873,1.63718 4.47293,2.89284c-0.12023,0.10952 -0.24086,0.22491 -0.36129,0.34547c-1.11881,-1.14783 -2.54221,-2.2231 -4.05841,-2.70138c-0.0944,0.03177 -0.18951,-0.00972 -0.18951,-0.00972c-0.07005,-0.03057 -0.14032,-0.06072 -0.2108,-0.09034c0.11184,-0.14768 0.21946,-0.29668 0.32237,-0.44655l0.02473,0.00968z" data-paper-data="{&quot;index&quot;:null}" fill="#b97b48"/><path d="M230.00676,195.52809c-1.30122,-1.17049 -2.50127,-2.36402 -4.07158,-3.17006c0.11215,-0.13024 0.22135,-0.26214 0.32724,-0.39532c1.55857,0.81665 2.76551,2.01315 4.06649,3.18292c-0.10853,0.12425 -0.21606,0.25191 -0.32212,0.38246z" data-paper-data="{&quot;index&quot;:null}" fill="#b97b48"/><path d="M229.29462,196.48191c-1.38071,-0.95625 -2.57322,-2.72028 -3.98345,-3.4469c0.11489,-0.11658 0.22771,-0.23519 0.33817,-0.35552c1.40742,0.83592 2.51508,2.48377 3.9289,3.40291c-0.09661,0.13136 -0.19129,0.26468 -0.28362,0.3995z" data-paper-data="{&quot;index&quot;:null}" fill="#b97b48"/><path d="M228.96966,196.97838c-0.05288,0.08467 -0.10467,0.16968 -0.15529,0.25495c-0.07722,0.02111 -0.15367,0.04594 -0.22929,0.07424c-1.3665,-1.14586 -2.74757,-2.35532 -4.13242,-3.47257c0.1269,-0.10842 0.25238,-0.21974 0.37608,-0.33365c1.38759,1.12034 2.77045,2.33202 4.14093,3.47703z" data-paper-data="{&quot;index&quot;:null}" fill="#b97b48"/><path d="M223.81351,194.34713c1.42702,0.93885 2.42416,2.48883 3.8003,3.53898c-0.12792,0.10582 -0.25155,0.22057 -0.37042,0.34257c-1.38183,-1.08137 -2.41325,-2.61118 -3.8632,-3.57183c0.1452,-0.09881 0.28979,-0.2022 0.43331,-0.30973z" data-paper-data="{&quot;index&quot;:null}" fill="#b97b48"/><path d="M255.03958,165.03855c0,-0.13807 0.11193,-0.25 0.25,-0.25c0.13807,0 0.25,0.11193 0.25,0.25c0,0.13807 -0.11193,0.25 -0.25,0.25c-0.13807,0 -0.25,-0.11193 -0.25,-0.25z" fill="#754f2f"/><path d="M259.87511,159.81925c0,-0.13807 0.11193,-0.25 0.25,-0.25c0.13807,0 0.25,0.11193 0.25,0.25c0,0.13807 -0.11193,0.25 -0.25,0.25c-0.13807,0 -0.25,-0.11193 -0.25,-0.25z" fill="#754f2f"/></g><path d="M228.50351,188.78374l29.7093,-31.5407l5.2907,-3.15407l-1.01744,5.49419l-30.625,32.15116z" fill="#75ffef" stroke="#75ffef" stroke-width="0.5" stroke-linecap="round"/><path d="M236.5413,196.29536c-0.76171,0 -0.94322,-0.5802 -0.98647,-0.85672c-0.22634,-0.47814 -0.5328,-0.92302 -0.88529,-1.31617c0,0 -0.13439,-0.15359 -0.21236,-0.38271c-3.05313,-0.7216 -6.11857,-2.35612 -7.89418,-4.75434c-0.72339,-0.25786 -1.45024,-0.50725 -2.18492,-0.73079c-0.21028,-0.01758 -0.94433,-0.1403 -0.94433,-0.99706c0,-1 1,-1 1,-1l0.38909,0.04217c0.25001,0.07509 0.49916,0.15306 0.74758,0.23332c-0.12688,-0.37372 -0.29918,-0.74089 -0.60335,-1.10341c0,0 -0.61394,-0.78935 0.17541,-1.40329c0.78935,-0.61394 1.40329,0.17541 1.40329,0.17541c0.87681,1.18406 0.69015,2.36977 1.53749,3.47415c2.18094,2.84253 6.31048,4.49041 9.78072,4.48282h0.10174c0,0 1,0 1,1c0,1 -1,1 -1,1h-0.10174c-0.24464,-0.00048 -0.49302,-0.00807 -0.74429,-0.02269c0.12199,0.2122 0.23423,0.42962 0.33543,0.65143l0.08619,0.50788c0,0 0,1 -1,1z" fill="#48c3b5" stroke="none" stroke-width="0.5" stroke-linecap="butt"/><path d="M270.72735,176.77792c0,16.29561 -13.18743,29.50581 -29.45494,29.50581c-16.26751,0 -29.45494,-13.2102 -29.45494,-29.50581c0,-16.29561 13.18743,-29.50581 29.45494,-29.50581c16.26751,0 29.45494,13.2102 29.45494,29.50581z" fill="url(#color-1)" stroke="none" stroke-width="0" stroke-linecap="butt"/></g></g></svg>