<svg version="1.1" xmlns="http://www.w3.org/2000/svg" xmlns:xlink="http://www.w3.org/1999/xlink" width="49.64246" height="48.04908" viewBox="0,0,49.64246,48.04908"><g transform="translate(-211.24953,-158.67302)"><g data-paper-data="{&quot;isPaintingLayer&quot;:true}" fill-rule="nonzero" stroke="none" stroke-width="0.5" stroke-linecap="butt" stroke-linejoin="miter" stroke-miterlimit="10" stroke-dasharray="" stroke-dashoffset="0" style="mix-blend-mode: normal"><path d="M228.68285,186.79915c2.05577,-2.41167 3.52128,-5.31951 5.58557,-7.67469c2.45505,-2.801 6.52828,-5.04099 9.40842,-7.50203c3.04573,-2.60253 10.2638,-8.25061 13.22745,-3.80514c2.45248,3.67872 -3.69856,6.48572 -5.87275,7.93586c-2.09374,1.39649 -3.51122,3.54413 -5.55922,4.80984c-1.72781,1.06782 -3.80408,1.88408 -5.35185,3.25209c-3.61138,3.19196 -5.78309,7.49015 -8.4849,11.3847c-0.6317,0.27624 -1.18231,0.59804 -1.41505,0.79278c-1.51244,1.26551 -5.77449,3.80391 -9.03653,6.1568c-1.66311,0.28439 -3.37207,2.14686 -4.24756,3.9759c-0.57634,0.44764 -1.25156,0.79396 -1.90058,0.46948c-1.59779,0 -2.96219,-0.99928 -3.50233,-2.40697c-0.24003,-0.37902 -0.3467,-0.79287 -0.24639,-1.24428c-0.00085,-0.03281 -0.00128,-0.06573 -0.00128,-0.09875c0,-1.3548 0.71845,-2.5418 1.79514,-3.20078c0.03887,-0.03636 0.07819,-0.0723 0.11795,-0.10784c1.83895,-0.1311 4.23629,-1.47261 5.94428,-2.7779c0.01248,0.00023 0.02498,0.00034 0.03752,0.00034c0.87459,0 1.61808,-0.56139 1.88975,-1.34347c2.87293,-2.1294 6.68716,-4.48726 7.38207,-8.35425c0.07861,-0.08664 0.15542,-0.17386 0.23031,-0.2617z" fill="#654400"/><path d="M229.33792,192.60642c-0.73233,-0.80391 -1.50234,-1.56327 -2.35643,-2.28333c0.31705,-0.42559 0.59816,-0.87282 0.83218,-1.34519c0.8251,0.63797 1.56138,1.39957 2.25415,2.20798c0.70539,0.7463 1.37233,1.53059 2.03294,2.35805l0.6075,0.60587c0,0 0.04266,0.04266 0.09168,0.11587c-0.24547,0.23749 -0.49097,0.49169 -0.72681,0.75597c-0.06606,0.02485 -0.13184,0.05056 -0.1971,0.07694c-0.16602,0.03126 -0.32479,0.08305 -0.47359,0.15261c-0.67799,-0.84017 -1.3481,-1.76411 -2.06452,-2.64476z" fill="#583a00"/><path d="M214.02831,199.79012c0,0 -0.12087,-0.14284 -0.17051,-0.34619c0.46851,-0.09472 0.96088,-0.25089 1.45986,-0.45127c1.23195,1.46689 2.40637,2.93815 3.50629,4.50808c-0.36473,0.35004 -0.70685,0.74704 -1.0137,1.1678c-1.17472,-1.71465 -2.43963,-3.2974 -3.78195,-4.87843z" fill="#583a00"/><path d="M231.14216,195.30731l-0.1056,-0.11246c-0.21424,-0.32136 -0.44398,-0.58363 -0.69525,-0.87687c-0.83585,-1.16848 -2.20792,-2.78883 -3.48377,-3.83192c0.09911,-0.12768 0.19503,-0.25731 0.28745,-0.38899c1.31341,1.08811 2.70906,2.67743 3.58997,3.9126c0.25827,0.30121 0.49692,0.57675 0.71764,0.90783l0.04313,0.03626c0,0 0.10198,0.10198 0.07357,0.22848c-0.12644,0.04565 -0.24697,0.10368 -0.36011,0.17262c-0.04143,-0.02197 -0.06701,-0.04755 -0.06701,-0.04755z" fill="#9b6700"/><path d="M229.40516,194.68094c-0.90035,-1.26811 -2.18036,-2.23717 -3.207,-3.42013c0.11326,-0.12232 0.22388,-0.24646 0.33154,-0.37253c1.0335,1.22422 2.35266,2.20738 3.28232,3.50204c0.30322,0.4246 0.55219,0.87631 0.84271,1.30817c-0.17578,0.10443 -0.31869,0.20053 -0.41507,0.27833c-0.28697,-0.42825 -0.53428,-0.87566 -0.8345,-1.29588z" fill="#9b6700"/><path d="M229.16845,196.66745c-0.94575,-1.68741 -2.61774,-2.99317 -3.86781,-4.51819c0.12231,-0.11193 0.24288,-0.22537 0.36139,-0.34041c1.25674,1.56891 2.94391,2.89301 3.94054,4.61053l0.02591,0.03367c-0.12612,0.09303 -0.26091,0.19018 -0.40354,0.29113z" fill="#9b6700"/><path d="M228.32784,197.3593c-1.15577,-1.60028 -2.64819,-2.936 -3.87187,-4.47938c0.12826,-0.10546 0.2555,-0.21221 0.38139,-0.32032c1.22439,1.55673 2.72944,2.90002 3.89545,4.50646l0.01067,0.01331c-0.13334,0.09151 -0.2716,0.18548 -0.41425,0.28169z" fill="#9b6700"/><path d="M223.27668,193.8014c0.13173,-0.09874 0.26338,-0.19845 0.39463,-0.29925c1.25651,1.50149 3.04984,2.57649 4.29129,4.10475c-0.13514,0.09015 -0.27354,0.18199 -0.41481,0.27539c-1.23024,-1.52278 -3.00992,-2.59065 -4.27111,-4.08088z" fill="#9b6700"/><path d="M226.32339,198.46529c-1.18669,-1.44224 -2.77335,-2.54073 -4.09337,-3.89527c0.13643,-0.09891 0.27369,-0.19861 0.41142,-0.29921c1.37793,1.37488 3.13283,2.49147 4.22368,4.06068c-0.17201,0.11276 -0.34705,0.22728 -0.52456,0.34334c-0.03252,-0.05096 -0.05372,-0.12228 -0.01714,-0.20954z" fill="#9b6700"/><path d="M221.29911,195.24654c0.13285,-0.09748 0.26743,-0.1955 0.40335,-0.29419c1.03954,1.46462 2.35556,3.15451 3.67282,4.35374c-0.14076,0.09219 -0.28236,0.18504 -0.42456,0.27846c-1.31113,-1.23325 -2.60842,-2.8747 -3.6516,-4.33801z" fill="#9b6700"/><path d="M224.69916,199.75c-0.13743,0.09051 -0.27528,0.1815 -0.41332,0.27287c-1.06746,-1.42604 -2.54468,-2.48727 -3.73509,-3.80723c0.12177,-0.11453 0.22917,-0.24416 0.31923,-0.38589c1.20547,1.37355 2.72437,2.45592 3.82918,3.92025z" fill="#9b6700"/><path d="M223.70183,200.41117c-0.07983,0.05334 -0.15962,0.10675 -0.23932,0.16025c-1.02939,-1.14939 -2.90521,-2.45126 -4.11794,-3.81946c0.17375,-0.01409 0.34123,-0.05039 0.49958,-0.10605c1.11998,1.42681 2.58053,2.80551 3.85767,3.76526z" fill="#9b6700"/><path d="M222.09902,201.50179c-0.14122,0.09824 -0.28132,0.1964 -0.42002,0.29436c-1.02181,-1.57584 -2.49537,-2.81012 -3.4717,-4.36771c0.13896,-0.09328 0.27541,-0.1875 0.40885,-0.2822c0.9642,1.56341 2.46329,2.77581 3.48287,4.35554z" fill="#9b6700"/><path d="M217.15822,198.08387c0.14445,-0.08361 0.28762,-0.16922 0.42907,-0.25639c0.90946,1.54117 1.68853,3.13357 2.57095,4.68434c-0.14424,0.07595 -0.28743,0.16148 -0.42899,0.25552c-0.88182,-1.55095 -1.66119,-3.14289 -2.57102,-4.68347z" fill="#9b6700"/><path d="M215.89084,198.7449c0.1496,-0.06909 0.29921,-0.14153 0.44835,-0.21685c0.80564,1.66263 1.96445,3.03903 3.0455,4.4871c-0.12733,0.0986 -0.25287,0.20363 -0.37616,0.31424c-1.09507,-1.48735 -2.28674,-2.8876 -3.11769,-4.5845z" fill="#9b6700"/><path d="M237.82546,158.67518c1.6499,1.15178 3.05713,3.12274 4.2226,4.2925c4.91675,4.93486 10.16982,10.04986 13.98729,15.90264c0.2867,0.43955 0.79953,1.04678 1.40886,1.74646c0.10894,3.39071 1.85887,9.03705 3.44778,13.19682c-1.00911,-1.04006 -1.92068,-2.09416 -2.94839,-3.21623c-1.45596,-1.58963 -2.90084,-3.2549 -4.56676,-4.59492c-0.12739,-0.33361 -0.34153,-0.62436 -0.61483,-0.84466c-2.45137,-3.30864 -5.03388,-6.5086 -7.76654,-9.61975c-2.82629,-3.21775 -5.813,-6.25976 -8.76292,-9.36673c-0.46692,-0.71066 -0.9328,-1.31683 -1.24434,-1.68474c-1.33075,-1.57154 -3.13786,-3.46811 -4.33769,-4.7853c-0.30858,-0.33877 -0.57195,-0.68161 -0.80574,-1.02438c2.66022,-0.00425 5.32045,-0.00528 7.98067,-0.00171z" fill="#a3a2a6"/><path d="M244.00468,182.11864c-0.13102,0.02987 -0.22,-0.00063 -0.27828,-0.0433c-0.27494,-0.06407 -0.20417,-0.28998 -0.20417,-0.28998l0.02362,-0.07384l-0.00762,-0.02192c-0.16547,-0.21585 -0.29036,-0.42453 -0.4905,-0.62236c-1.41841,-1.70041 -3.39988,-3.52358 -5.34895,-4.8504c0,0 -0.23033,-0.15754 -0.03291,-0.34134c0.19743,-0.1838 0.42777,-0.02626 0.42777,-0.02626c1.96073,1.34673 3.95068,3.16053 5.39702,4.87644c-0.03784,-0.21116 -0.07775,-0.42316 -0.16397,-0.62844c-1.02902,-1.64848 -2.92024,-3.1459 -4.54476,-4.43651c0,0 -0.21453,-0.17118 0,-0.34234c0.21453,-0.17118 0.42904,0 0.42904,0c1.68597,1.35056 3.59875,2.87891 4.6763,4.59358c0.05779,0.1389 0.09177,0.28892 0.1191,0.44229c0.49458,-1.11883 1.19037,-2.20867 1.40003,-3.36992c0.2129,-0.56626 0.35041,-1.16404 0.46196,-1.77391c-1.56991,-0.45194 -3.13966,-0.89004 -4.76063,-1.28716c0,0 -0.28995,-0.07119 -0.20073,-0.30257c0.08922,-0.23137 0.37918,-0.16018 0.37918,-0.16018c1.58752,0.39066 3.12755,0.81912 4.66664,1.26102c0.04256,-0.25848 0.08284,-0.51818 0.12454,-0.77767c-1.44497,-0.26641 -2.90275,-0.47179 -4.40887,-0.46977c0,0 -0.30338,0 -0.30338,-0.24208c0,-0.24208 0.30338,-0.24208 0.30338,-0.24208c1.53492,0.00186 3.01761,0.20912 4.48796,0.47743c0.21259,-1.22755 0.50751,-2.43018 1.27702,-3.45355c0,0 0.0081,-0.01077 0.02368,-0.02592c-0.02024,-0.65173 -0.08571,-1.30053 -0.21996,-1.94184l-0.04095,-0.08867c0,0 -0.09594,-0.22966 0.19186,-0.30621c0.28781,-0.07655 0.38375,0.1531 0.38375,0.1531l0.06383,0.16217c0.39946,1.91656 0.21089,3.89754 0.00695,5.82795c0.53621,0.10744 1.0728,0.21566 1.61174,0.31759c1.31846,0.25065 2.71045,0.42029 4.05227,0.59528l0.1073,-0.00329c0,0 0.30337,0 0.30337,0.24208c0,0.24208 -0.30337,0.24208 -0.30337,0.24208l-0.20705,-0.0033c-1.35691,-0.18347 -2.75831,-0.34844 -4.09305,-0.60185c-0.52724,-0.10059 -1.05267,-0.20763 -1.57798,-0.31401c-0.06338,0.30999 -0.10226,0.62068 -0.12574,0.93191c0.73394,0.21308 1.47145,0.42723 2.21752,0.63982c1.74053,0.42705 3.37897,1.02733 5.12706,1.42276l0.16977,0.04491c0,0 0.2878,0.07656 0.19186,0.30621c-0.09594,0.22965 -0.38375,0.1531 -0.38375,0.1531l-0.14459,-0.0387c-1.75443,-0.40277 -3.40377,-0.99963 -5.15166,-1.42882c-0.69035,-0.19676 -1.37308,-0.39495 -2.05232,-0.59242c-0.04441,1.46269 0.14109,2.9359 -0.38461,4.40515c0,0 -0.08334,0.23276 -0.37504,0.16626c-0.2917,-0.0665 -0.20836,-0.29927 -0.20836,-0.29927c0.53064,-1.48093 0.32993,-2.96598 0.38016,-4.44303c-0.18476,-0.05368 -0.36934,-0.10726 -0.55383,-0.16069c-0.10639,0.59022 -0.23857,1.16752 -0.44337,1.71223c-0.25894,1.45906 -1.30911,2.80282 -1.73197,4.23493c0.02154,0.03555 0.04531,0.07011 0.07168,0.10353l0.08974,0.2861c0,0 0.05851,0.23345 -0.23065,0.28363c-0.02843,0.04996 -0.08503,0.0974 -0.19306,0.12202zM247.02465,175.03101c0.02399,-0.2939 0.0624,-0.58743 0.12299,-0.88049c-0.16417,-0.03278 -0.32836,-0.06523 -0.49268,-0.09714c-0.04358,0.278 -0.08525,0.55635 -0.12971,0.83307c0.1664,0.04808 0.33284,0.09628 0.49941,0.14457zM247.24728,173.67579c0.08814,-0.85722 0.17494,-1.72456 0.20544,-2.59127c-0.37985,0.77612 -0.5723,1.62637 -0.71997,2.49094c0.17159,0.03294 0.34308,0.06647 0.51454,0.10034z" fill="#012800"/></g></g></svg>