<svg version="1.1" xmlns="http://www.w3.org/2000/svg" xmlns:xlink="http://www.w3.org/1999/xlink" width="38.55001" height="50.80466" viewBox="0,0,38.55001,50.80466"><g transform="translate(-222.92888,-158.90313)"><g data-paper-data="{&quot;isPaintingLayer&quot;:true}" fill-rule="nonzero" stroke="none" stroke-width="0.5" stroke-linecap="butt" stroke-linejoin="miter" stroke-miterlimit="10" stroke-dasharray="" stroke-dashoffset="0" style="mix-blend-mode: normal"><path d="M229.09727,207.54695c-0.19756,-0.02999 -0.16757,-0.22755 -0.16757,-0.22755l0.05682,-0.35491c0.88614,-2.60449 1.52512,-5.27593 2.76537,-7.76414c1.27083,-2.54167 2.63267,-4.6942 4.12624,-7.12752c1.23896,-2.0185 2.89418,-5.43812 4.93416,-6.67569c1.79556,-1.66678 3.19766,-4.57284 5.17939,-6.06273c1.63778,-2.32011 3.08893,-4.39603 4.82819,-6.63606c1.14814,-1.72024 3.14088,-5.62148 4.97323,-6.48943c0.81728,-1.73775 2.98661,-4.10252 4.98399,-4.77895c0,0 0.18957,-0.06319 0.25276,0.12638c0.06319,0.18957 -0.12638,0.25276 -0.12638,0.25276c-1.99624,0.6532 -3.96443,3.01593 -4.82778,4.6824c-1.86101,0.9731 -3.74581,4.65973 -4.93148,6.44033c-1.75048,2.25749 -3.18956,4.36218 -4.86574,6.68089c-1.95125,1.50162 -3.53819,4.33857 -5.22245,6.10113c-1.96815,1.08469 -3.66842,4.66373 -4.83729,6.56804c-1.48914,2.4261 -2.84284,4.56408 -4.10939,7.09718c-1.23661,2.46501 -1.89386,5.1163 -2.74369,7.71179l-0.04084,0.2885c0,0 -0.02999,0.19756 -0.22755,0.16757z" fill="#525252"/><path d="M261.18537,159.94828c0.97043,1.74677 -0.77634,2.71719 -0.77634,2.71719l-1.86444,1.00721c-4.29097,1.56035 -8.91284,3.56984 -13.48024,4.2961c-0.11264,0.05743 -0.18615,0.08416 -0.18615,0.08416c-2.48582,0.90229 -5.96104,1.15916 -8.03844,2.85087c-3.74498,3.0497 -7.41324,6.80611 -9.17354,11.39936c-1.04393,2.72399 -0.47064,5.99956 -0.57205,8.82836c-0.07708,2.15002 -0.41116,3.87483 -0.04039,5.99919c0.80039,3.19124 1.77292,6.2184 1.79397,9.51782l0.14802,0.72275c0,0 0.32851,1.97104 -1.64253,2.29955c-1.97104,0.32851 -2.29955,-1.64253 -2.29955,-1.64253l-0.2024,-1.37977c0.02404,-2.98414 -0.99017,-5.81506 -1.71023,-8.70403c-0.39937,-2.48197 -0.12872,-4.48328 -0.04039,-6.96636c0.11965,-3.36374 -0.3674,-6.84938 0.82963,-10.09433c1.91365,-5.18758 6.1335,-9.79604 10.45,-13.13006c2.10626,-1.62685 4.82125,-2.16543 7.38375,-2.89898c0.5432,-0.6006 1.38929,-0.67111 1.38929,-0.67111c4.681,-0.35434 9.61436,-2.6628 14.0255,-4.26685l1.28935,-0.74489c0,0 1.74677,-0.97043 2.71719,0.77634z" fill="#524800"/></g></g></svg>