<svg version="1.1" xmlns="http://www.w3.org/2000/svg" xmlns:xlink="http://www.w3.org/1999/xlink" width="43.779" height="63.61359" viewBox="0,0,43.779,63.61359"><g transform="translate(-214.0256,-141.0616)"><g data-paper-data="{&quot;isPaintingLayer&quot;:true}" fill-rule="nonzero" stroke="none" stroke-width="0.5" stroke-linecap="butt" stroke-linejoin="miter" stroke-miterlimit="10" stroke-dasharray="" stroke-dashoffset="0" style="mix-blend-mode: normal"><path d="M221.07057,202.43231c-1.5,0 -1.5,-2.12821 -1.5,-2.12821c0,-3.04439 0,-7.66345 0,-10.70784c0,-15.91898 -2.81679,-30.52594 -5.50454,-45.77946c0,0 -0.36381,-2.06466 1.09141,-2.58083c1.45522,-0.51617 1.81902,1.5485 1.81902,1.5485c2.74594,15.58378 5.59411,30.5522 5.59411,46.81179c0,3.04439 0,6.08877 0,9.13316v1.57468c0,0 0,2.12821 -1.5,2.12821z" fill="#32892c"/><path d="M222.68197,193.13949c-0.00052,-1.75089 -0.09968,-4.71008 0.34225,-6.34852c0.20474,-0.75907 0.85842,-1.10629 1.07541,-1.85775c0.39327,-1.36196 -0.14476,-5.17348 -0.08729,-6.64771c0.28184,-7.2306 0.93552,-14.71154 1.79286,-21.76092c0.57106,-4.69542 2.56719,-8.75567 2.87545,-13.46672c0,0 0.16565,-2.22423 1.65648,-1.9771c1.49083,0.24713 1.32518,2.47137 1.32518,2.47137c-0.39605,4.86329 -2.34671,8.88938 -2.89585,13.6894c-0.79301,6.93173 -1.47561,14.19562 -1.75871,21.29147c-0.09121,2.28598 0.42472,5.76761 -0.0873,7.92389c-0.20287,0.85434 -0.88914,1.29378 -1.14432,2.11631c-0.07569,0.24397 -0.09948,1.37367 -0.10525,2.40863c0.45128,0.66304 0.45127,1.66783 0.45127,1.66783v7.61696c0,1.23597 -0.67157,2.23793 -1.5,2.23793c-0.82843,0 -1.5,-1.00196 -1.5,-2.23793v-2.21327c-0.13934,-1.6394 -0.28598,-3.27745 -0.44017,-4.91388z" fill="#32892c"/><path d="M239.71631,199.58677c-1.5,0 -1.5,-2.11101 -1.5,-2.11101l0.01507,-0.01385c-0.68979,-6.79538 -1.10584,-15.03019 -2.34677,-22.68993c-2.19056,7.52309 -3.89172,15.24228 -3.98697,22.95692c0.07041,0.04956 0.14236,0.10829 0.21573,0.17713c1.24808,1.17097 0.41602,2.92744 0.41602,2.92744l-0.87499,1.8471c-0.26708,0.58201 -0.73206,0.96727 -1.26098,0.96727c-0.82843,0 -1.5,-0.94513 -1.5,-2.111v-1.50858c-0.27579,-0.19189 -0.44855,-0.43502 -0.44855,-0.43502l-0.66132,-1.80509c0,-12.61638 1.7073,-25.09547 4.04031,-37.2924c-0.38374,-0.78849 -0.79538,-1.54241 -1.23749,-2.25702c0,0 -0.97619,-1.60279 0.1627,-2.97662c1.01039,-1.21882 1.89272,-0.09482 2.07896,0.17434c0.61157,-2.98079 1.25193,-5.9433 1.90497,-8.88533c0,0 0.44742,-2.01491 1.87914,-1.38524c1.43172,0.62966 0.9843,2.64458 0.9843,2.64458c-0.88529,3.98546 -1.74856,8.00985 -2.54675,12.06735c0.44241,1.07084 0.84602,2.18204 1.21541,3.32652c1.17464,-3.60145 2.3492,-7.14234 3.40431,-10.60728c0,0 0.59088,-1.94032 1.96959,-1.10876c1.37872,0.83157 0.78784,2.77189 0.78784,2.77189c-1.4211,4.66634 -3.09227,9.50465 -4.67962,14.45492c1.03185,4.62583 1.67856,9.56855 2.18099,14.4538c1.29757,-8.79528 3.6062,-17.34818 2.95695,-26.40632c0,0 -0.14926,-2.10053 1.3433,-2.31058c1.49256,-0.21006 1.64181,1.89048 1.64181,1.89048c0.89359,12.67919 -3.7661,24.14699 -3.7661,36.75983l0.06361,-0.31929c0,0 0.67082,1.88814 -0.67082,2.83221c-0.1404,0.09879 -0.27345,0.16657 -0.39916,0.20874c0.034,0.34939 0.06843,0.69642 0.1034,1.04088l0.01507,0.61093c0,0 0,2.11101 -1.5,2.11101zM232.33249,176.07148c0.70057,-2.57835 1.46812,-5.13626 2.26299,-7.66862c-0.21059,-0.83806 -0.43673,-1.6604 -0.68021,-2.4638c-0.59384,3.35817 -1.12938,6.73672 -1.58279,10.13242z" fill="#32892c"/><path d="M246.05023,200.74233c0.24884,0.53222 0.60791,1.67673 -0.16788,2.82124c-1.06066,1.56476 -2.12132,0 -2.12132,0l-0.65387,-1.67205c-0.47452,-7.06618 0.83285,-12.56989 2.1253,-19.30032c1.59282,-8.29464 2.75067,-16.85309 2.75067,-25.45607c0,0 0,-2.21291 1.5,-2.21291c1.5,0 1.5,2.21291 1.5,2.21291c0,9.01215 -1.19622,17.97607 -2.86426,26.66242c-1.14523,5.96381 -2.37679,10.79796 -2.06864,16.94478z" fill="#32892c"/><path d="M229.94949,202.59052c-0.75,0 -0.75,-1.12617 -0.75,-1.12617l0.00944,-0.48848c-0.55043,-5.21337 -0.54143,-10.2497 -1.58252,-15.37247c-0.32877,-3.95112 -1.26264,-7.83457 -1.96119,-11.62244c-0.79705,-4.32203 -0.82993,-9.02864 -1.47911,-13.41652c-0.59899,-4.04862 -1.62007,-7.8785 -2.28935,-11.82301c0,0 -0.1819,-1.09256 0.5457,-1.36569c0.72761,-0.27313 0.90951,0.81941 0.90951,0.81941c0.64401,3.95843 1.69828,7.8243 2.29843,11.88083c0.63981,4.32456 0.65431,8.99953 1.45014,13.25073c0.71856,3.83841 1.65896,7.79921 1.99254,11.80458c1.06239,5.15777 1.03118,10.24424 1.59695,15.4883l0.00944,0.84476c0,0 0,1.12617 -0.75,1.12617z" fill="#3ca435"/><path d="M232.61317,203.02687c-0.75,0 -0.75,-1.27021 -0.75,-1.27021v-0.75187c0,-2.36709 0.22781,-4.56965 0.22401,-6.92305c0.11527,-7.87441 1.01479,-15.34676 2.62552,-22.71781c1.35485,-6.20007 3.58769,-12.17865 3.58769,-18.85499c0,0 0,-1.27022 0.75,-1.27022c0.75,0 0.75,1.27022 0.75,1.27022c0,6.3431 -1.83563,11.54651 -3.15828,17.37606c-1.79284,7.90191 -2.94018,15.72432 -3.05505,24.22883c-0.00707,2.35987 -0.22389,4.53079 -0.22389,6.89097v0.75187c0,0 0,1.27021 -0.75,1.27021z" fill="#3ca435"/><path d="M233.50106,202.61555c-0.75,0 -0.75,-1.06773 -0.75,-1.06773l0.02239,-1.207c0.70484,-4.00679 0.82304,-8.00137 1.76308,-11.92048c0.00009,-5.38229 2.69965,-9.92422 4.5318,-14.27111c2.25676,-5.35426 4.72312,-10.58689 6.87351,-16.09742c0,0 0.36423,-0.93337 1.01985,-0.41484c0.65562,0.51853 0.29139,1.45191 0.29139,1.45191c-2.15611,5.52518 -4.6317,10.76395 -6.88881,16.13568c-1.74102,4.14347 -4.34721,8.40954 -4.34712,13.53784c-0.91486,3.99105 -1.07535,8.02855 -1.78849,12.09634l0.02239,0.68908c0,0 0,1.06773 -0.75,1.06773z" fill="#3ca435"/><path d="M242.09632,195.12693c-0.1819,-1.00926 0.5457,-1.26158 0.5457,-1.26158l0.63553,-0.14682c1.06742,-2.66736 0.59838,-6.64285 1.03537,-9.54675c0.15931,-1.05867 0.42977,-2.21371 0.77462,-3.41273c-1.3336,3.08017 -2.68152,6.09789 -3.82324,9.06724c-0.77074,1.96003 -3.10996,5.82314 -2.20901,7.96999l0.07918,1.08105c0,0 0,1.04033 -0.75,1.04033c-0.75,0 -0.75,-1.04033 -0.75,-1.04033l0.07918,-0.15055c-1.10684,-3.37899 1.05522,-6.89964 2.23045,-9.88824c3.54946,-9.23176 9.31097,-19.11873 9.9011,-29.76015c0,0 0.05752,-1.03725 0.80531,-0.95747c0.74779,0.07978 0.69027,1.11705 0.69027,1.11705c-0.21055,3.79679 -1.03834,7.47862 -2.18306,11.06465c0.20417,-0.44074 0.40164,-0.85987 0.58926,-1.2529c0,0 0.41602,-0.8656 1.04006,-0.28853c0.62404,0.57707 0.20801,1.44268 0.20801,1.44268c-1.76067,3.63442 -4.60955,10.09041 -5.22065,14.43637c-0.50423,3.58593 -0.06152,7.63176 -1.62831,10.77467l-1.14026,0.46898c0,0 -0.72761,0.25231 -0.90951,-0.75695z" fill="#3ca435"/><path d="M251.25891,203.20538c-0.75,0 -0.75,-1.38399 -0.75,-1.38399l0.00003,-0.83307c0.06298,-10.21282 4.01222,-19.16779 3.99548,-29.47836c0,0 0,-1.384 0.75,-1.384c0.75,0 0.75,1.384 0.75,1.384c-0.0151,10.34358 -3.94883,19.34389 -3.99555,29.50604l0.00004,0.80539c0,0 0,1.38399 -0.75,1.38399z" fill="#3ca435"/><path d="M224.13812,201.88555c-0.72761,0.26421 -0.90951,-0.79262 -0.90951,-0.79262l-0.22198,-1.28966c-0.40332,-2.40016 -0.45661,-5.21573 -0.46634,-7.67974c0.02695,-11.49467 -3.19288,-23.23558 -7.21823,-32.97057c0,0 -0.38587,-0.93412 0.25725,-1.4946c0.64312,-0.56047 1.02899,0.37365 1.02899,0.37365c4.17944,10.12726 7.40745,22.16039 7.43199,34.09152c-0.01101,2.2671 0.03102,4.94638 0.42156,7.15132l0.22198,1.28966c0,0 0.1819,1.05684 -0.54571,1.32105z" fill="#3ca435"/><path d="M244.37187,197.89194l0.01507,-0.61093c0.03496,-0.34447 0.06939,-0.69149 0.10339,-1.04088c-0.12571,-0.04217 -0.25876,-0.10995 -0.39915,-0.20874c-1.34164,-0.94407 -0.67082,-2.83222 -0.67082,-2.83222l0.06361,0.31929c0,-12.61283 -4.65968,-24.08063 -3.7661,-36.75982c0,0 0.14926,-2.10053 1.64181,-1.89048c1.49256,0.21006 1.3433,2.31058 1.3433,2.31058c-0.64925,9.05814 1.65937,17.61105 2.95694,26.40633c0.50243,-4.88525 1.14915,-9.82797 2.18099,-14.4538c-1.58734,-4.95027 -3.25852,-9.78858 -4.67962,-14.45492c0,0 -0.59088,-1.94033 0.78784,-2.77189c1.37872,-0.83157 1.96959,1.10876 1.96959,1.10876c1.05511,3.46493 2.22967,7.00582 3.40431,10.60727c0.36938,-1.14448 0.773,-2.25567 1.21541,-3.32652c-0.79819,-4.0575 -1.66146,-8.0819 -2.54675,-12.06735c0,0 -0.44742,-2.01491 0.98431,-2.64458c1.43172,-0.62966 1.87913,1.38525 1.87913,1.38525c0.65304,2.94204 1.2934,5.90454 1.90497,8.88533c0.18624,-0.26916 1.06858,-1.39316 2.07896,-0.17434c1.13888,1.37383 0.16269,2.97662 0.16269,2.97662c-0.44212,0.71461 -0.85376,1.46853 -1.23749,2.25701c2.33302,12.19693 4.04031,24.67604 4.04031,37.29241l-0.66132,1.80509c0,0 -0.17275,0.24313 -0.44855,0.43502v1.50858c0,1.16587 -0.67157,2.111 -1.5,2.111c-0.52892,0 -0.9939,-0.38526 -1.26098,-0.96727l-0.87499,-1.84711c0,0 -0.83205,-1.75646 0.41603,-2.92744c0.07338,-0.06884 0.14532,-0.12756 0.21573,-0.17712c-0.09525,-7.71464 -1.79641,-15.43384 -3.98697,-22.95693c-1.24093,7.65974 -1.65698,15.89455 -2.34677,22.68993l0.01508,0.01385c0,0 0,2.11101 -1.5,2.11101c-1.5,0 -1.5,-2.11101 -1.5,-2.11101zM251.6729,166.35523c-0.24347,0.8034 -0.46962,1.62574 -0.68021,2.4638c0.79487,2.53236 1.56242,5.09027 2.26299,7.66862c-0.45341,-3.3957 -0.98895,-6.77425 -1.58279,-10.13242z" data-paper-data="{&quot;index&quot;:null}" fill="#32892c"/><path d="M237.46931,184.21372c-1.66804,-8.68634 -2.86425,-17.65027 -2.86425,-26.66242c0,0 0,-2.21292 1.5,-2.21292c1.5,0 1.5,2.21292 1.5,2.21292c0,8.60297 1.15785,17.16143 2.75066,25.45606c1.29244,6.73044 2.59983,12.23414 2.1253,19.30033l-0.65387,1.67204c0,0 -1.06066,1.56476 -2.12132,0c-0.77579,-1.14451 -0.41672,-2.28902 -0.16788,-2.82124c0.30815,-6.14683 -0.92341,-10.98097 -2.06864,-16.94478z" data-paper-data="{&quot;index&quot;:null}" fill="#32892c"/><path d="M252.22501,202.17284v-0.75187c0,-2.36019 -0.21682,-4.53109 -0.22389,-6.89096c-0.11487,-8.5045 -1.26221,-16.32692 -3.05505,-24.22883c-1.32265,-5.82955 -3.15828,-11.03296 -3.15828,-17.37606c0,0 0,-1.27021 0.75,-1.27021c0.75,0 0.75,1.27021 0.75,1.27021c0,6.67634 2.23284,12.65492 3.58769,18.85499c1.61073,7.37106 2.51024,14.8434 2.62552,22.71781c-0.0038,2.35341 0.22401,4.55597 0.22401,6.92305v0.75187c0,0 0,1.27021 -0.75,1.27021c-0.75,0 -0.75,-1.27021 -0.75,-1.27021z" data-paper-data="{&quot;index&quot;:null}" fill="#3ca435"/><path d="M251.33711,201.964l0.0224,-0.68908c-0.71314,-4.06779 -0.87363,-8.10529 -1.7885,-12.09634c0.00009,-5.1283 -2.6061,-9.39437 -4.34712,-13.53785c-2.25711,-5.37174 -4.7327,-10.6105 -6.88881,-16.13568c0,0 -0.36423,-0.93337 0.29139,-1.4519c0.65562,-0.51853 1.01985,0.41483 1.01985,0.41483c2.1504,5.51053 4.61676,10.74316 6.87351,16.09742c1.83216,4.34689 4.53171,8.88881 4.5318,14.27111c0.94004,3.91911 1.05824,7.91369 1.76308,11.92047l0.02239,1.207c0,0 0,1.06773 -0.75,1.06773c-0.75,0 -0.75,-1.06773 -0.75,-1.06773z" data-paper-data="{&quot;index&quot;:null}" fill="#3ca435"/><path d="M242.58234,196.30006l-1.14026,-0.46898c-1.5668,-3.14291 -1.12408,-7.18874 -1.62831,-10.77467c-0.6111,-4.34597 -3.45998,-10.80195 -5.22065,-14.43637c0,0 -0.41603,-0.86562 0.20801,-1.44269c0.62404,-0.57707 1.04006,0.28854 1.04006,0.28854c0.18762,0.39302 0.38509,0.81216 0.58926,1.2529c-1.14472,-3.58603 -1.9725,-7.26786 -2.18306,-11.06465c0,0 -0.05752,-1.03727 0.69027,-1.11705c0.74779,-0.07978 0.80531,0.95747 0.80531,0.95747c0.59013,10.64142 6.35164,20.52839 9.9011,29.76015c1.17523,2.9886 3.3373,6.50924 2.23045,9.88823l0.07918,0.15055c0,0 0,1.04033 -0.75,1.04033c-0.75,0 -0.75,-1.04033 -0.75,-1.04033l0.07918,-1.08105c0.90095,-2.14685 -1.43828,-6.00996 -2.20901,-7.96999c-1.14172,-2.96935 -2.48965,-5.98707 -3.82324,-9.06724c0.34485,1.19903 0.61531,2.35406 0.77462,3.41273c0.43698,2.9039 -0.03205,6.87939 1.03537,9.54675l0.63553,0.14683c0,0 0.72761,0.25232 0.5457,1.26159c-0.1819,1.00926 -0.90951,0.75695 -0.90951,0.75695z" data-paper-data="{&quot;index&quot;:null}" fill="#3ca435"/><path d="M233.57927,202.23755l0.00004,-0.80538c-0.04673,-10.16215 -3.98046,-19.16246 -3.99555,-29.50604c0,0 0,-1.384 0.75,-1.384c0.75,0 0.75,1.384 0.75,1.384c-0.01674,10.31057 3.93249,19.26554 3.99548,29.47835l0.00003,0.83307c0,0 0,1.384 -0.75,1.384c-0.75,0 -0.75,-1.384 -0.75,-1.384z" data-paper-data="{&quot;index&quot;:null}" fill="#3ca435"/></g></g></svg>