<svg version="1.1" xmlns="http://www.w3.org/2000/svg" xmlns:xlink="http://www.w3.org/1999/xlink" width="52.88786" height="38.84433" viewBox="0,0,52.88786,38.84433"><g transform="translate(-149.66525,-121.58937)"><g data-paper-data="{&quot;isPaintingLayer&quot;:true}" fill-rule="nonzero" stroke="none" stroke-width="0.5" stroke-linecap="butt" stroke-linejoin="miter" stroke-miterlimit="10" stroke-dasharray="" stroke-dashoffset="0" style="mix-blend-mode: normal"><path d="M152.24657,146.69927c-0.13394,-0.17144 -0.40229,-0.607 -0.13182,-1.08229c-0.09488,-0.22628 -0.09487,-0.4343 -0.09487,-0.4343l0.2,-0.06488c-1.01143,-1.34857 -3.35879,-3.30771 -1.60701,-5.14101c0.69599,-0.72838 1.99568,-0.27925 2.98941,-0.44487c6.10978,0.00911 12.07755,-1.9592 17.68879,-3.93112c2.25742,-0.79331 4.48809,-0.2865 6.16066,-2.22188c0.08981,-0.25738 0.2604,-0.42798 0.2604,-0.42798l0.57199,-0.55777c1.47963,-1.96768 2.12573,-4.54142 3.55232,-6.43548c2.62516,-3.4854 6.57685,-3.29431 10.16863,-4.26261c0.01582,-0.03766 0.03311,-0.07285 0.05166,-0.10571c0.83775,0.22768 1.71923,0.34919 2.62909,0.34919c0.16986,0 0.33874,-0.00423 0.50653,-0.0126c3.93786,2.16111 4.97708,7.45057 2.31796,11.40357c-1.38611,2.06058 -4.58876,2.88309 -4.48743,5.73006c-0.2811,1.54326 -1.2255,3.96036 -2.62815,4.93968c-0.95481,0.66664 -2.60153,0.8046 -3.53494,1.54327c-4.99198,3.95055 -10.24937,9.05203 -16.84332,10.15835c-2.46179,0.35169 -5.04544,1.57195 -7.54911,1.33811c-0.35829,-0.03347 -0.7083,-0.07634 -1.04982,-0.12858c0.29909,-0.32581 0.48468,-0.67075 0.48468,-1.00307c0,-2.97582 -2.60443,-1.62698 -4.02286,-0.00598c-0.14775,-0.06651 -0.29282,-0.1357 -0.43521,-0.20756c0.13517,-0.15784 0.21497,-0.27072 0.22153,-0.31663c0.32629,-2.28406 -1.10944,-2.19098 -2.52343,-1.29857c-0.25397,-0.24434 -0.4922,-0.50312 -0.71429,-0.77626c0.17788,-0.20643 0.34189,-0.41018 0.48634,-0.60556c0.36228,-0.26249 0.60259,-0.68297 0.61985,-1.16034c0.00877,-0.04988 0.01234,-0.09634 0.01034,-0.139c-0.00306,-0.06537 -0.01459,-0.12685 -0.03337,-0.18499c-0.12669,-0.70013 -0.73932,-1.23116 -1.47598,-1.23116c-0.30077,0 -0.58087,0.08853 -0.81566,0.24094c-0.12118,0.00673 -0.25399,0.03599 -0.39525,0.0849c-0.34872,-1.07858 -0.5445,-2.28195 -0.57768,-3.60788z" fill="#66cfff"/><path d="M196.70722,125.75824c0.78087,-0.6247 1.40556,0.15618 1.40556,0.15618c0.74469,0.9427 4.87231,3.73838 4.4033,5.06537c-0.4638,1.31223 -5.0962,2.23895 -6.21213,1.24637c-1.25077,-1.1125 -0.85576,-2.10272 -0.63692,-3.3204v-1.03688v0c0,-0.46088 0.31179,-0.84894 0.73594,-0.96476c-0.11951,-0.28208 -0.19561,-0.74598 0.30425,-1.14587z" fill="#dbff66"/><path d="M150.87442,157.97073c-0.70711,-0.70711 0,-1.41422 0,-1.41422l0.00026,0.11409c0.07093,-0.17006 0.14559,-0.33137 0.22392,-0.48501c0.98857,-0.26701 2.92797,-2.02205 3.92876,-3.37574c0.03831,-0.02776 0.07526,-0.05728 0.11072,-0.08846c0.18926,0.04184 0.38759,0.15582 0.56786,0.39619c0.19944,0.26593 0.2442,0.50976 0.21506,0.7168c-0.833,0.36317 -1.76143,1.11063 -2.38972,1.89251c-0.42062,0.26572 -0.69997,0.73477 -0.69997,1.26907c0,0.01321 0.00017,0.02638 0.00051,0.0395c-0.01967,0.0885 -0.0368,0.1732 -0.05148,0.25422c-0.01667,0.04052 -0.03291,0.08175 -0.0487,0.12371l-0.44299,0.55734c0,0 -0.70711,0.70711 -1.41422,0z" fill="#dbff66"/><path d="M157.53121,160.20754l-0.47105,0.08241c-0.08558,-0.52264 -0.14907,-0.90653 -0.36044,-1.37538c-0.13674,0.02806 -0.29721,0.02653 -0.48493,-0.0204c-0.82726,-0.20682 -0.77275,-0.94269 -0.73874,-1.15497c0.10832,-0.12779 0.19563,-0.27396 0.25658,-0.43317c1.07182,-0.86702 2.02276,-1.87854 2.0461,-2.04189c0.0279,-0.1953 0.04291,-0.37322 0.04617,-0.53475c0.09384,0.03038 0.19243,0.07775 0.29527,0.14631c0.18535,0.12357 0.30188,0.26089 0.37106,0.39971c-0.22788,0.21153 -0.44063,0.43696 -0.62794,0.66523c-0.43676,0.26221 -0.72902,0.74045 -0.72902,1.28697c0,0.01321 0.00017,0.02638 0.00051,0.0395c-0.10783,0.48523 0.01115,0.79392 0.27274,0.96316c-0.03388,0.09632 -0.11454,0.28447 -0.26921,0.44188c0.22325,0.48746 0.30682,0.9057 0.39639,1.42638c0.02206,0.05498 0.02206,0.10453 0.02206,0.10453l-0.00408,0.00071c0.00023,0.00132 0.00045,0.00265 0.00068,0.00396z" fill="#bfde59"/><path d="M158.53894,159.67993l0.0034,0.08687c0,0 0,0.25 -0.25,0.25c-0.25,0 -0.25,-0.25 -0.25,-0.25l0.0034,-0.00467c-0.101,-0.61678 -0.23233,-0.99273 -0.62736,-1.35328c0.02634,0.01128 0.05367,0.02154 0.08195,0.0308c0.21823,0.20281 0.49696,0.34143 0.80612,0.38575c0.10519,0.24619 0.17633,0.52431 0.2325,0.85453z" fill="#bfde59"/><path d="M155.93309,158.25619c0,0.04835 -0.00935,0.08735 -0.02444,0.11881c0.20755,0.02657 0.20755,0.2474 0.20755,0.2474c-0.00045,0.03954 0.00072,0.07834 0.00324,0.11652l0.16916,0.0022c0.3603,-0.04486 0.67389,-0.17652 0.89615,-0.46187c0,0 0.00403,-0.00484 0.01159,-0.01235c0.08175,0.07665 0.18448,0.13361 0.30397,0.17275c0.03468,0.03223 0.0709,0.06286 0.10853,0.09173c-0.01791,0.04148 -0.03998,0.06796 -0.03998,0.06796c-0.33549,0.38473 -0.7058,0.55796 -1.20955,0.63675l-0.14798,0.00141c0.06394,0.25471 0.12903,0.5058 0.08456,0.79928l-0.11454,0.25381c0,0 -0.11181,0.22361 -0.33541,0.1118c-0.2236,-0.11181 -0.11181,-0.33541 -0.11181,-0.33541l0.06857,-0.1124c0.08656,-0.45945 -0.1823,-0.86153 -0.18651,-1.33219c0,0 0,-0.05987 0.02929,-0.12101c-0.83558,0.26513 -1.00973,0.09991 -0.90945,-0.21025c0.40574,-0.14924 0.72916,-0.46882 0.88354,-0.87205c0.10778,-0.08719 0.21434,-0.17583 0.31886,-0.26493c0.11063,0.14702 -0.01752,0.30079 -0.01752,0.30079c-0.10986,0.13164 -0.30576,0.27784 -0.48006,0.40101c0.05921,0.03388 0.10324,0.09129 0.11934,0.15949l0.12289,-0.00924c0,0 0.25,0 0.25,0.25z" fill="#bfde59"/><path d="M150.77415,156.12768c0.00178,-0.00675 0.00385,-0.01379 0.0063,-0.02099c0.11518,-0.00466 0.25113,-0.04027 0.40286,-0.10188c0.08062,0.07389 0.08062,0.19145 0.08062,0.19145l-0.07323,0.22255c-0.13521,0.13521 -0.3632,0.42162 -0.58244,0.5853c0.18607,0.11775 0.32457,0.29667 0.4102,0.5051c0.01388,-0.03654 0.02958,-0.07312 0.04755,-0.10982l-0.08336,-0.05002l0.13497,-0.22495c0.04318,-0.07489 0.12408,-0.1253 0.21673,-0.1253c0.11246,0 0.20757,0.07426 0.23899,0.17641l0.08525,0.25574c0.07649,-0.26865 0.21914,-0.45382 0.51071,-0.40182c0.02367,-0.012 0.05183,-0.02135 0.08526,-0.02693c0.2466,-0.0411 0.28769,0.2055 0.28769,0.2055c0.02286,0.13736 0.0454,0.27463 0.06548,0.41207c-0.02526,0.32108 0.00202,0.56186 0.07185,0.73459c0.0017,0.05025 0.00258,0.10059 0.00254,0.15102l-0.01114,0.01905l0.00859,0.00144l-0.0451,0.2706c-0.0179,0.12051 -0.12179,0.21295 -0.24728,0.21295c-0.12548,0 -0.22938,-0.09244 -0.24728,-0.21295l-0.0451,-0.2706l0.06668,-0.01112c-0.0178,-0.04755 -0.03508,-0.09651 -0.05126,-0.14612c-0.05101,0.19923 -0.11142,0.38599 -0.16761,0.50486l-0.04057,0.24341c-0.0179,0.12051 -0.12179,0.21295 -0.24728,0.21295c-0.0998,0 -0.18595,-0.05848 -0.22603,-0.14304l-0.13491,-0.26981l0.09317,-0.04658c-0.04364,-0.09819 -0.07417,-0.19604 -0.09652,-0.29613c-0.04806,0.15874 -0.09901,0.29356 -0.13508,0.36807l-0.08562,0.25687c-0.03142,0.10216 -0.12653,0.17641 -0.23899,0.17641c-0.12115,0 -0.22217,-0.08617 -0.24511,-0.20057l-0.09049,-0.40718l0.15226,-0.03384c-0.0697,-0.63697 0.02795,-1.28753 -0.5178,-1.37993l-0.01644,-0.01254l-0.00236,0.00708l-0.26919,-0.08973c-0.10216,-0.03142 -0.17641,-0.12653 -0.17641,-0.23899c0,-0.12548 0.09245,-0.22938 0.21295,-0.24728l0.17636,-0.02939c0.25523,-0.18509 0.48584,-0.38651 0.71955,-0.61588z" fill="#dbff66"/><path d="M156.74228,158.4914c0.17677,-0.17677 0.35355,0 0.35355,0l0.02658,0.04472c0.11366,0.05692 0.22487,0.11759 0.33525,0.17953c-0.34299,-0.29349 -0.64439,-0.58959 -0.82155,-1.11283c0,0 -0.07906,-0.23717 0.15811,-0.31623c0.23717,-0.07906 0.31623,0.15811 0.31623,0.15811c0.23884,0.73037 0.79982,0.94561 1.31289,1.45867l0.07322,0.26833c0,0 0,0.25 -0.25,0.25c-0.00191,0 -0.00381,-0.00001 -0.00569,-0.00005c-0.11194,0.22251 -0.33499,0.11098 -0.33499,0.11098c-0.34311,-0.17181 -0.66385,-0.37796 -1.00708,-0.54931l-0.15652,-0.13838c0,0 -0.17677,-0.17678 0,-0.35355z" fill="#bfde59"/><path d="M152.70637,150.09431c0.48674,-0.52145 1.14593,-1.30378 1.83151,-1.10679c1.36785,0.39301 1.92288,3.03671 3.18902,3.85053c1.17935,0.75803 7.81001,-0.99113 6.71067,3.40623c-0.3454,1.38163 -2.73439,0.9081 -3.68735,0.63059c-2.43567,-0.70927 -7.67902,-3.14814 -7.84306,-6.10084z" fill="#66cfff"/><path d="M172.63431,136.06792c1.41789,-0.29032 2.80724,0.66607 3.63142,2.85026c1.02215,2.70885 -0.00425,5.34149 -1.54791,7.4921c-3.16325,4.40699 -6.39673,8.10238 -11.50257,8.85697l0.06485,0.33896l-1.65308,0.31626c-0.22115,0.04631 -0.45755,0.03324 -0.68532,-0.05026c-0.64818,-0.23763 -0.98099,-0.9557 -0.74336,-1.60387c0.0411,-0.11211 0.09657,-0.21478 0.16358,-0.30672l1.24958,-1.79687l0.00613,0.00427l0.01189,-0.02951c2.00026,-2.59014 3.88898,-5.26113 5.53011,-8.06715c0.83913,-2.03107 1.6733,-4.05741 2.86137,-5.91537c0.07579,-0.11606 0.15278,-0.2274 0.23081,-0.33399c0.15633,-0.38874 0.30697,-0.78036 0.45164,-1.17496c0,0 0.43026,-1.17362 1.60387,-0.74336c0.1269,0.04652 0.23505,0.10173 0.32701,0.16321z" fill="#59b4de"/><path d="M192.24127,127.96571c0,-0.69035 0.55964,-1.25 1.25,-1.25c0.69036,0 1.25,0.55965 1.25,1.25c0,0.69035 -0.55964,1.25 -1.25,1.25c-0.69036,0 -1.25,-0.55965 -1.25,-1.25z" fill="#de5c59"/></g></g></svg>