<svg version="1.1" xmlns="http://www.w3.org/2000/svg" xmlns:xlink="http://www.w3.org/1999/xlink" width="52.79504" height="58.37325" viewBox="0,0,52.79504,58.37325"><g transform="translate(-211.84172,-153.28461)"><g data-paper-data="{&quot;isPaintingLayer&quot;:true}" fill-rule="nonzero" stroke="none" stroke-width="0.5" stroke-linecap="butt" stroke-linejoin="miter" stroke-miterlimit="10" stroke-dasharray="" stroke-dashoffset="0" style="mix-blend-mode: normal"><path d="" fill="#6e6b35"/><path d="M237.59207,168.70288c-0.05875,0.047 -0.11662,0.08605 -0.17341,0.11807c-0.01997,0.2501 -0.13196,0.47427 -0.3021,0.63863c0.01871,0.05211 0.03749,0.10448 0.05633,0.15712l0.2105,-0.06015l0.53916,1.88706c0.02913,0.09381 0.04482,0.19354 0.04482,0.29693c0,0.55229 -0.44771,1 -1,1c-0.42416,0 -0.78663,-0.26407 -0.93199,-0.63678l-0.67297,-1.61512l0.00829,-0.00346l-0.01786,-0.02038c-0.02345,-0.06552 -0.04754,-0.13099 -0.07218,-0.19641c-0.0167,-0.00315 -0.03326,-0.00672 -0.04965,-0.01069l-0.00892,1.25301c-0.00334,0.54943 -0.44978,0.99378 -0.99999,0.99378c-0.53,0 -0.96369,-0.41231 -0.99783,-0.93367l-0.03543,-0.47138c-0.04459,-0.00427 -0.08833,-0.01145 -0.13101,-0.02138v1.20798c0,0.55229 -0.44771,1 -1,1c-0.41994,0 -0.77941,-0.25885 -0.92758,-0.62569c-0.11866,0.04995 -0.2623,0.08018 -0.43617,0.08018c-1,0 -1,-1 -1,-1l0.02986,-0.03021c-0.61215,-2.51269 -0.30261,-5.30057 -0.30261,-7.87959c0,-2.7114 0.31623,-5.07444 1.13622,-7.66162c0.30585,-0.96497 0.4472,-2.90615 2.07353,-2.88432c0.78554,0.01055 2.01199,2.29882 2.36407,3.00172c1.58791,3.17011 2.90204,6.59829 3.76062,10.0292c0,0 0.24254,0.97015 -0.72761,1.21268c-0.04586,0.01146 -0.09009,0.02022 -0.13274,0.0265c0.12002,0.28188 0.19777,0.74709 -0.30335,1.14799zM236.96269,167.24013h0.08238c-0.04371,-0.05301 -0.08004,-0.10747 -0.10992,-0.15923c0.01024,0.05286 0.01944,0.10594 0.02754,0.15923z" fill="#6e6b35"/><path d="M221.33152,180.86874c1.15414,-2.40778 5.88121,-6.79999 9.15221,-8.70739c3.48111,-2.78456 7.22965,-5.25198 11.35044,-6.88762c0.87644,-0.02568 1.9184,-0.28117 2.4535,-0.28402c1.96094,-0.01045 4.53271,0.53144 6.8491,0.4453c0.35575,0.23569 0.78239,0.37296 1.2411,0.37296c0.28817,0 0.5637,-0.05417 0.81694,-0.1529c0.08983,0.01091 0.1813,0.01652 0.27407,0.01652c0.21598,0 0.42486,-0.03043 0.62257,-0.08724c4.51287,3.70955 6.31189,9.5492 6.92224,15.65269c0.00308,2.82423 -0.01229,5.96178 -0.86523,8.67551c-1.91406,6.08984 -9.80739,9.6505 -15.63059,10.23833c-3.04153,0.00295 -6.08137,-0.11681 -9.10361,0.22257l-0.16003,0.03201l-0.00266,-0.01329c-0.00464,0.00054 -0.00927,0.00109 -0.0139,0.00164l-0.03157,0.02006c-0.61561,0.06205 -1.23406,0.11229 -1.85465,0.15221c-1.39429,0.3426 -3.11621,0.33945 -4.23857,0.40277c-4.74904,0.26794 -11.3224,3.03198 -15.50153,0.08802l-0.05441,-0.19433c-1.28123,-0.28607 -1.18522,-0.9881 -1.7152,-2.36848c0.02082,-2.22787 1.28373,-4.09241 2.27395,-6.06098c2.0703,-4.11579 4.35623,-7.7985 7.11464,-11.21249c0.01206,-0.11387 0.04324,-0.23088 0.10121,-0.35183z" fill="#9b974b"/><path d="M252.39609,175.88524c0.00668,-0.10021 0.01558,-0.19923 0.02663,-0.29718c-0.05877,0.01076 -0.11935,0.01638 -0.18123,0.01638c-0.12168,0 -0.23829,-0.02174 -0.34615,-0.06153c-0.9555,-1.01048 -1.96069,-2.10288 -2.87218,-2.55863c-0.12865,-0.06432 -0.35063,-0.27991 -0.61942,-0.54143c1.34984,-2.36731 3.37185,-4.793 5.55932,-6.82569c0.74319,-0.16655 1.34745,-0.7008 1.61179,-1.40176c0.9045,-0.73389 1.81598,-1.38573 2.70097,-1.9257c0.711,-0.43381 3.35384,-1.78074 4.10368,-1.62418c2.54573,0.53152 2.33677,5.33807 2.16451,7.16568c-1.19524,4.41012 -2.55401,7.85605 -5.21549,11.58213l-0.51575,0.535c0,0 -0.05015,0.05015 -0.1371,0.11039c-0.02203,-0.01557 -0.04366,-0.03091 -0.06487,-0.04601c-0.4853,-0.34548 -0.99407,-0.6344 -1.51194,-0.90301c0.01941,-0.10599 0.05616,-0.20213 0.09744,-0.28418c-0.05433,0.05602 -0.10753,0.11295 -0.15918,0.17093l-0.06044,0.02602l0.0146,0.01669l-0.01087,0.00951c-1.14256,-0.58478 -2.32391,-1.08454 -3.39083,-1.88565c-0.43355,-0.32554 -0.90432,-0.79294 -1.39246,-1.30266z" fill="#6e6b35"/><path d="M237.28591,180.97993c0,-0.4832 1.64333,-0.87491 3.6705,-0.87491c2.02716,0 3.6705,0.39171 3.6705,0.87491c0,0.4832 -1.64333,0.87491 -3.6705,0.87491c-2.02716,0 -3.6705,-0.39171 -3.6705,-0.87491z" fill="#6e6b35"/><path d="M219.52734,202.10106c0.04163,-0.05894 0.09212,-0.12874 0.12098,-0.16384c0,0 0.1627,-0.18981 0.35251,-0.02712c0.02199,0.01885 0.03924,0.03806 0.05257,0.05729c0.40856,-0.42847 0.97858,-0.56808 1.67424,0.04568c0.33577,0.29624 0.15284,1.42429 0.2201,1.85702c0.3325,2.13913 -0.24027,4.39577 -1.89343,5.63899c-0.03806,0.07976 -0.07596,0.15676 -0.11355,0.23071l0.00107,0.00119l-0.00308,0.00277c-0.16573,0.3257 -0.32513,0.59179 -0.46365,0.77204l-0.04096,0.02075l0.00953,0.01048l-0.4218,0.38346c-0.08896,0.08148 -0.20748,0.1312 -0.33762,0.1312c-0.03368,0 -0.06659,-0.00333 -0.0984,-0.00968c-0.22073,0.1404 -0.46348,0.25237 -0.71084,0.34633l0.00772,0.00926l-0.22951,0.19126c-0.04354,0.03681 -0.09983,0.059 -0.16131,0.059c-0.13807,0 -0.25,-0.11193 -0.25,-0.25c0,-0.06148 0.02219,-0.11777 0.059,-0.16131l0.19126,-0.22951l0.00372,0.0031l0.00373,-0.01164c0.21626,-0.2129 0.47311,-0.52442 0.68463,-0.83289v-0.19086l0.12514,0c0.06158,-0.09866 0.11645,-0.19475 0.16164,-0.28477c0.11387,-0.50163 0.34855,-0.97255 0.62131,-1.44122c0.03535,-0.57794 0.03405,-1.16514 0.11309,-1.80512c0,0 0.00873,-0.06983 0.05397,-0.13076l0.00309,-0.02265c-0.00061,-0.32153 0.00116,-0.64125 0.00734,-0.96042c-0.02062,-0.8412 -0.05395,-1.67647 -0.00777,-2.46154c0,0 0.00421,-0.07165 0.0366,-0.15907c-0.12193,-0.04376 -0.23,-0.18881 -0.32401,-0.47289l0.32499,-0.28101c0,0 0.1664,0 0.22769,0.13575z" fill="#ab6861"/><path d="M246.76369,195.8791c0,0.25 -0.25,0.25 -0.25,0.25l-0.16094,-0.0264c-1.65811,0.79116 -3.987,0.10452 -5.57774,1.22001c-2.62226,1.25776 -5.98658,1.34144 -8.51945,2.61727c-2.24059,0.09188 -6.30478,0.43231 -8.26847,1.48139c-1.83338,0.88197 -5.16677,0.98103 -7.20336,0.98103c0,0 -0.25,0 -0.25,-0.25c0,-0.25 0.25,-0.25 0.25,-0.25c1.90543,0 5.30114,-0.04326 6.97975,-0.92824c2.11836,-1.01076 6.01149,-1.46637 8.3694,-1.51889c2.53868,-1.26019 5.82745,-1.19627 8.39118,-2.56501c1.65356,-1.05832 4.00046,-0.37751 5.60509,-1.23476l0.38456,-0.02639c0,0 0.25,0 0.25,0.25z" fill="#6e6b35"/><path d="M243.26812,180.94074c0,0.25 -0.25,0.25 -0.25,0.25h-0.27274c-1.48192,-0.00915 -2.70739,-0.18242 -4.18637,0.06478c0,0 -0.2466,0.0411 -0.2877,-0.2055c-0.0411,-0.2466 0.2055,-0.2877 0.2055,-0.2877c1.50478,-0.25004 2.76953,-0.05999 4.26856,-0.07159h0.27274c0,0 0.25,0 0.25,0.25z" fill="#2b2a15"/></g></g></svg>