<svg version="1.1" xmlns="http://www.w3.org/2000/svg" xmlns:xlink="http://www.w3.org/1999/xlink" width="55.19305" height="11.84526" viewBox="0,0,55.19305,11.84526"><g transform="translate(-119.62742,-175.68537)"><g data-paper-data="{&quot;isPaintingLayer&quot;:true}" fill-rule="nonzero" stroke-linecap="butt" stroke-linejoin="miter" stroke-miterlimit="10" stroke-dasharray="" stroke-dashoffset="0" style="mix-blend-mode: normal"><path d="M170.59989,187.52837c-0.06736,0.00064 -0.13476,0.00141 -0.2022,0.00226c-0.73919,-0.18186 -1.51072,-0.28151 -2.30433,-0.28872c-0.64983,-0.13272 -1.3226,-0.20241 -2.01165,-0.20241c-0.67455,0 -1.33351,0.06679 -1.97061,0.19411c-0.08406,-0.0188 -0.16781,-0.0386 -0.25125,-0.05946h-2.92882c-0.05743,0.01436 -0.11741,0.02848 -0.17978,0.04244c-0.68921,-0.05341 -1.3715,-0.0898 -2.04208,-0.09435c-8.94445,-0.06069 -17.76321,-0.311 -26.83481,-0.30298c-2.09248,0.00185 -6.36078,1.01233 -8.37756,-0.34034c-0.35016,0.28171 -0.79482,0.44134 -1.34733,0.44134c-0.67185,0 -1.27492,-0.52492 -1.75,-1c-0.14974,-0.14974 -0.26385,-0.31565 -0.34917,-0.49455c3.47418,-1.56723 5.89228,-5.06127 5.89228,-9.12009c0,-0.11926 -0.00209,-0.23803 -0.00623,-0.35629c0.41924,-0.04893 0.83939,-0.10356 1.25536,-0.16422c0.71871,0.0922 1.43255,0.16962 2.12313,0.16658c4.95048,-0.02176 9.90074,-0.11757 14.85124,-0.101c0.22601,0.00075 0.47648,0.09699 0.70301,0.101c4.95665,0.08759 9.87057,0.21733 14.84484,0.20199c3.83092,-0.01181 7.53334,0.1288 11.42724,0.10151c0.22266,2.86698 -0.01607,5.82675 0.72975,8.56437c0.19224,0.70563 0.51647,1.44225 0.85874,2.18977c-0.07526,-0.00822 -0.14926,-0.02062 -0.22176,-0.03695c-0.61622,0.25096 -1.25388,0.43114 -1.90801,0.55598z" fill="#b85000" stroke="none" stroke-width="0.5"/><path d="M174.31962,176.26788l-0.0183,10.74019l-54.17305,-0.0923l0.00175,-1.02723c3.56876,-1.5271 6.06927,-5.07047 6.06927,-9.19787c0,-0.08582 -0.00108,-0.17139 -0.00323,-0.2567c0.00025,-0.00988 0.00048,-0.01978 0.0007,-0.02967c0.02426,-0.0724 0.04771,-0.14517 0.07035,-0.2183z" fill-opacity="0.53333" fill="#00a67e" stroke="#827700" stroke-width="1"/></g></g></svg>