<svg version="1.1" xmlns="http://www.w3.org/2000/svg" xmlns:xlink="http://www.w3.org/1999/xlink" width="55.19847" height="11.83419" viewBox="0,0,55.19847,11.83419"><g transform="translate(-119.622,-175.67473)"><g data-paper-data="{&quot;isPaintingLayer&quot;:true}" fill-rule="nonzero" stroke-linecap="butt" stroke-linejoin="miter" stroke-miterlimit="10" stroke-dasharray="" stroke-dashoffset="0" style="mix-blend-mode: normal"><path d="M158.70918,187.12224c-8.94445,-0.06069 -17.76321,-0.311 -26.83481,-0.30298c-2.09248,0.00185 -6.36078,1.01233 -8.37756,-0.34034c-0.35016,0.28171 -0.79482,0.44134 -1.34733,0.44134c-0.67185,0 -1.27492,-0.52492 -1.75,-1c-1.14179,-1.14179 -0.21156,-3.22348 -0.25,-4.83776c-0.01217,-0.51129 -1.01065,-4.10296 -0.2286,-4.54985l0.41572,-0.23755c1.69479,0.00211 4.35076,-0.1448 6.85512,-0.50998c0.71871,0.0922 1.43255,0.16962 2.12313,0.16658c4.95048,-0.02176 9.90074,-0.11757 14.85124,-0.101c0.22601,0.00075 0.47648,0.09699 0.70301,0.101c4.8135,0.08506 9.5867,0.20987 14.41402,0.20296c0.16973,3.71669 0.90561,7.37498 1.43744,11.05956c-0.67877,-0.05212 -1.35076,-0.0875 -2.01138,-0.09198z" fill="#b85000" stroke="none" stroke-width="0.5"/><path d="M174.31962,176.26788l-0.0183,10.74019l-54.17306,-0.0923l0.0183,-10.74019z" fill-opacity="0.53333" fill="#00a67e" stroke="#827700" stroke-width="1"/></g></g></svg>