<svg version="1.1" xmlns="http://www.w3.org/2000/svg" xmlns:xlink="http://www.w3.org/1999/xlink" width="15.90249" height="31.99857" viewBox="0,0,15.90249,31.99857"><g transform="translate(-245.64683,-163.64744)"><g data-paper-data="{&quot;isPaintingLayer&quot;:true}" fill-rule="nonzero" stroke="none" stroke-width="0.5" stroke-linecap="butt" stroke-linejoin="miter" stroke-miterlimit="10" stroke-dasharray="" stroke-dashoffset="0" style="mix-blend-mode: normal"><path d="M260.82871,195.5018c-1.12938,0.53574 -1.66511,-0.59364 -1.66511,-0.59364l-0.24728,-0.52129c-2.78392,-5.86872 -4.46333,-12.10146 -7.2661,-18.00991c0,0 -0.53574,-1.12938 0.59364,-1.66511c1.12938,-0.53574 1.66511,0.59364 1.66511,0.59364c2.80217,5.90719 4.48465,12.14641 7.2661,18.00991l0.24728,0.52129c0,0 0.53574,1.12938 -0.59364,1.66511z" fill="#572600"/><path d="M247.95619,176.12836c-0.05177,-0.10912 -0.08635,-0.22198 -0.10482,-0.3355c-0.05727,0.00492 -0.11752,0.00689 -0.18093,0.00559c-1.24973,-0.02589 -1.22384,-1.27563 -1.22384,-1.27563l0.03469,-0.50256c0.35023,-1.38035 0.06749,-1.98612 -0.65325,-3.19598c0,0 -0.62767,-1.08099 0.4533,-1.70866c1.08098,-0.62768 1.70866,0.45331 1.70866,0.45331c0.00197,0.00345 0.00392,0.00689 0.00588,0.01034c0.11004,-0.02501 0.23346,-0.0378 0.37191,-0.03493c1.24973,0.02589 1.22384,1.27563 1.22384,1.27563l-0.02454,0.01238c0.15416,0.86347 0.30833,1.72694 0.4625,2.59041c0,0 0.11753,0.65832 -0.30083,1.09789c0.20453,0.12246 0.37632,0.30468 0.48617,0.53623c0.29588,0.62374 0.0301,1.36923 -0.59364,1.66511c-0.62374,0.29588 -1.36923,0.0301 -1.66511,-0.59364z" fill="#570c00"/><path d="M251.16365,169.96642c-0.09472,-0.19969 -0.13188,-0.41186 -0.11816,-0.61776c-0.03876,-0.04394 -0.05918,-0.07237 -0.05918,-0.07237l-0.03858,-0.05378c-0.08256,-0.0449 -0.16036,-0.09924 -0.23159,-0.16236c-0.11737,0.26197 -0.32508,0.48506 -0.60478,0.61774c-0.62374,0.29588 -1.36923,0.0301 -1.66511,-0.59364c-0.26333,-0.55511 -0.08179,-1.20665 0.40103,-1.55188c-0.1263,-0.10974 -0.23251,-0.24679 -0.30881,-0.40764c-0.15449,-0.32569 -0.15585,-0.68457 -0.03308,-0.99531c-0.1122,-0.13652 -0.2244,-0.27303 -0.3366,-0.40955c0,0 -0.79366,-0.96572 0.17207,-1.75937c0.96572,-0.79366 1.75937,0.17207 1.75937,0.17207c0.71347,0.86816 1.42683,1.73641 2.13991,2.60489l0.77681,1.08059c0,0 0.26372,0.36722 0.25309,0.81857c0.23632,0.12105 0.4361,0.31803 0.5587,0.57646c0.14508,0.30584 0.15512,0.64095 0.05414,0.93798c0.35624,0.08457 0.67228,0.32415 0.84142,0.6807c0.29588,0.62374 0.0301,1.36923 -0.59364,1.66511c-0.62374,0.29588 -1.36923,0.0301 -1.66511,-0.59364c-0.14508,-0.30584 -0.15512,-0.64096 -0.05413,-0.93798c-0.25779,-0.0612 -0.49452,-0.20355 -0.66978,-0.41267c-0.24473,-0.12009 -0.45207,-0.3207 -0.57799,-0.58614z" fill="#570c00"/><path d="M250.74043,178.76688c-0.02517,-0.05306 -0.04628,-0.107 -0.06345,-0.16148c-0.03133,-0.04776 -0.05975,-0.09823 -0.08492,-0.1513c-0.10259,-0.21628 -0.13766,-0.4472 -0.11369,-0.66893c-0.52691,0.07411 -1.06307,-0.19632 -1.30317,-0.70246c-0.29588,-0.62374 -0.0301,-1.36923 0.59364,-1.66511c0.03754,-0.01781 0.07553,-0.03358 0.11385,-0.04737l-0.50198,-0.55868c-0.21609,-0.3658 -0.43218,-0.73159 -0.64828,-1.09739c0,0 -0.28645,-0.4849 -0.14933,-0.99602c-0.18528,-0.12158 -0.34057,-0.29397 -0.44249,-0.50884c-0.24758,-0.52192 -0.1019,-1.1291 0.3177,-1.48678c-0.12537,-0.29563 -0.12808,-0.61484 -0.02923,-0.8985c-0.1774,-0.58275 0.09379,-1.22307 0.66069,-1.49198c0.45185,-0.21435 0.9676,-0.13393 1.33003,0.1638c0.06667,-0.05025 0.13941,-0.09454 0.2178,-0.13173c0.62374,-0.29588 1.36923,-0.0301 1.66511,0.59364c0.19344,0.40778 0.14681,0.86762 -0.08297,1.21983c0.54951,-0.10463 1.02606,0.26845 1.02606,0.26845l1.01585,0.79529c0,0 0.74715,0.58492 0.42989,1.38649c0.12854,0.11048 0.23656,0.24902 0.31389,0.41203c0.16825,0.35467 0.15488,0.74873 -0.00264,1.07709c0.06577,0.02798 0.13339,0.0624 0.20283,0.10401c1.07223,0.64253 0.42969,1.71475 0.42969,1.71475l-0.54024,0.90155c0.07348,0.08434 0.13677,0.18003 0.18707,0.28606c0.29588,0.62374 0.0301,1.36923 -0.59364,1.66511c-0.40261,0.19098 -0.85595,0.14796 -1.20637,-0.07431c-0.16098,0.05622 -0.32731,0.07746 -0.48981,0.06701c-0.12001,0.24533 -0.32088,0.45323 -0.58682,0.57939c-0.62374,0.29588 -1.36923,0.0301 -1.66511,-0.59364zM252.49597,176.42375c0.02923,-0.10706 0.0655,-0.19575 0.09373,-0.25647c-0.03967,-0.00905 -0.07886,-0.02002 -0.11741,-0.03286c-0.01707,0.00907 -0.03442,0.01781 -0.05207,0.02618c-0.29549,0.14017 -0.6183,0.15429 -0.90771,0.06401c0.04052,0.15114 0.05135,0.30546 0.03512,0.45558c0.19197,-0.027 0.38518,-0.00827 0.56486,0.05094c0.10332,-0.12366 0.23219,-0.22904 0.38347,-0.30738zM250.82513,171.83299l0.11049,-0.77834c0,0 0.05124,-0.14373 0.16813,-0.31285c-0.11129,-0.00631 -0.22085,-0.02748 -0.32576,-0.06247c-0.07346,0.19339 -0.19469,0.36886 -0.35683,0.50706c0.11467,0.2704 0.12672,0.56053 0.0523,0.82514c0.26727,0.18702 0.41144,0.43108 0.41144,0.43108c0.01925,0.03259 0.0385,0.06518 0.05776,0.09776c-0.03917,-0.23579 -0.07834,-0.4716 -0.11752,-0.70739z" fill="#573100"/><path d="M250.93825,179.18392c-0.17043,-0.35926 -0.15451,-0.75892 0.00881,-1.08979c-0.35956,-0.08283 -0.67915,-0.32334 -0.84957,-0.68259c-0.27793,-0.5859 -0.06029,-1.27923 0.48412,-1.60643c-0.27353,-0.11499 -0.50735,-0.32724 -0.64452,-0.61641c-0.24388,-0.51412 -0.10617,-1.11094 0.29904,-1.47055c-0.4493,-0.01826 -0.87356,-0.27905 -1.07965,-0.71353c-0.10876,-0.22927 -0.14162,-0.47498 -0.10873,-0.70877c-0.11435,-0.10543 -0.21082,-0.23412 -0.28158,-0.38327c-0.29588,-0.62374 -0.0301,-1.36923 0.59364,-1.66511c0.62374,-0.29588 1.36923,-0.0301 1.66511,0.59364c0.10876,0.22927 0.14162,0.47498 0.10873,0.70877c0.11435,0.10543 0.21082,0.23412 0.28158,0.38327c0.09276,0.19554 0.13031,0.40304 0.11894,0.60491c0.01635,-0.00866 0.03295,-0.01698 0.04983,-0.02498c0.62374,-0.29588 1.36923,-0.0301 1.66511,0.59364c0.05901,0.12438 0.09567,0.25362 0.11162,0.38315c0.18318,0.12141 0.33669,0.29268 0.43774,0.50571c0.04201,0.08856 0.0727,0.17959 0.09265,0.27143c0.55217,-0.11549 1.13191,0.15611 1.38436,0.68827c0.29588,0.62374 0.0301,1.36923 -0.59364,1.66511c-0.11985,0.05685 -0.24419,0.09297 -0.36898,0.10979c0.03591,0.05282 0.06825,0.10907 0.09648,0.16859c0.29588,0.62374 0.0301,1.36923 -0.59364,1.66511c-0.16126,0.07649 -0.33067,0.11545 -0.49832,0.12038c-0.01349,0.45433 -0.27514,0.88511 -0.71401,1.0933c-0.62374,0.29588 -1.36923,0.0301 -1.66511,-0.59364zM251.82728,175.71835c0.00692,-0.00328 0.01387,-0.00649 0.02083,-0.00965c-0.00799,-0.02076 -0.01538,-0.04163 -0.0222,-0.06257c-0.03628,0.02768 -0.07435,0.05358 -0.11419,0.07753c0.01877,0.0079 0.03736,0.01624 0.05573,0.02504c0.01956,-0.01058 0.0395,-0.0207 0.05983,-0.03034z" fill="#897600"/></g></g></svg>