<svg version="1.1" xmlns="http://www.w3.org/2000/svg" xmlns:xlink="http://www.w3.org/1999/xlink" width="23.99956" height="19.9486" viewBox="0,0,23.99956,19.9486"><g transform="translate(-230.65426,-163.44327)"><g data-paper-data="{&quot;isPaintingLayer&quot;:true}" fill-rule="nonzero" stroke-linecap="butt" stroke-linejoin="miter" stroke-miterlimit="10" stroke-dasharray="" stroke-dashoffset="0" style="mix-blend-mode: normal"><path d="M245.74046,167.92603c0,2.17819 -1.04209,3.94396 -2.32758,3.94396c-1.28549,0 -2.32758,-1.76577 -2.32758,-3.94396c0,-2.17819 1.04209,-3.94397 2.32758,-3.94397c1.28549,0 2.32758,1.76578 2.32758,3.94397z" fill="#894b28" stroke="none" stroke-width="0"/><path d="M250.89132,174.79025c0,4.26711 -4.53022,7.72629 -10.11853,7.72629c-5.58831,0 -10.11853,-3.45918 -10.11853,-7.72629c0,-4.26711 4.53022,-7.72629 10.11853,-7.72629c5.58831,0 10.11853,3.45918 10.11853,7.72629z" fill="#9a542c" stroke="none" stroke-width="0"/><path d="M254.09202,180.69905c-1.2814,2.96667 -6.47903,3.57528 -11.60924,1.35938c-5.1302,-2.2159 -8.25028,-6.4172 -6.96888,-9.38387c1.2814,-2.96667 6.47904,-3.57528 11.60924,-1.35938c5.1302,2.2159 8.25027,6.41721 6.96887,9.38388z" fill="#9a542c" stroke="none" stroke-width="0"/><path d="M241.06374,167.38724c0,2.17819 -1.0421,3.94397 -2.32759,3.94397c-1.28549,0 -2.32759,-1.76577 -2.32759,-3.94397c0,-2.17819 1.0421,-3.94397 2.32759,-3.94397c1.28549,0 2.32759,1.76577 2.32759,3.94397z" fill="#9a542c" stroke="none" stroke-width="0"/><path d="M246.17149,173.65879c0,0.4285 -0.39079,0.77586 -0.87284,0.77586c-0.48206,0 -0.87284,-0.34737 -0.87284,-0.77586c0,-0.4285 0.39079,-0.77586 0.87284,-0.77586c0.48206,0 0.87284,0.34737 0.87284,0.77586z" fill="#000000" stroke="#000000" stroke-width="0.5"/><path d="M253.75123,180.28523c-0.10728,-0.16786 -0.33437,-0.29851 -0.48836,-0.41351c0,0 -0.00937,-0.00703 -0.02253,-0.02007c-0.32136,-0.09514 -0.62842,-0.23624 -0.97375,-0.40891c0,0 -0.22361,-0.1118 -0.1118,-0.33541c0.1118,-0.22361 0.33541,-0.1118 0.33541,-0.1118c0.59168,0.29584 1.03211,0.49085 1.69854,0.49085h0.06466c0,0 0.17375,0 0.23155,0.14484c0.10872,0.04753 0.1403,0.17383 0.1403,0.17383c0.15799,0.69939 -0.36947,1.25029 -0.84162,1.72448l-0.19428,0.11149c0,0 -0.22361,0.1118 -0.33541,-0.1118c-0.1118,-0.22361 0.1118,-0.33541 0.1118,-0.33541l0.06434,-0.01783c0.11123,-0.11069 0.25066,-0.24277 0.37785,-0.38791l-0.05829,-0.29146l0.05076,-0.01015c-0.02317,-0.06588 -0.0404,-0.13296 -0.04916,-0.20123z" fill="#000000" stroke="none" stroke-width="0.5"/><path d="M239.87079,167.86879c0.06957,0.0266 0.14985,0.08799 0.14985,0.22966c0,0.25 -0.25,0.25 -0.25,0.25l-0.28826,-0.1382c-0.18695,-0.3739 -0.36667,-0.79597 -0.64705,-1.10904c-0.10426,0.42075 -0.25126,0.82061 -0.37854,1.13881l-0.05999,0.24234c0,0 -0.06063,0.24254 -0.30317,0.1819c-0.24254,-0.06063 -0.1819,-0.30317 -0.1819,-0.30317l0.06932,-0.2749c0.23934,-0.59836 0.88806,-2.27398 0.25506,-2.7851c0,0 -0.17678,-0.17678 0,-0.35355c0.17678,-0.17678 0.35355,0 0.35355,0c0.36527,0.40488 0.42829,0.98399 0.35511,1.57576c0.42747,0.35722 0.67674,0.84573 0.92603,1.3455z" fill="#000000" stroke="none" stroke-width="0.5"/></g></g></svg>