<svg version="1.1" xmlns="http://www.w3.org/2000/svg" xmlns:xlink="http://www.w3.org/1999/xlink" width="55.19305" height="11.82355" viewBox="0,0,55.19305,11.82355"><g transform="translate(-119.62741,-175.68537)"><g data-paper-data="{&quot;isPaintingLayer&quot;:true}" fill-rule="nonzero" stroke-linecap="butt" stroke-linejoin="miter" stroke-miterlimit="10" stroke-dasharray="" stroke-dashoffset="0" style="mix-blend-mode: normal"><path d="M131.87437,186.81926c-2.09248,0.00185 -6.36078,1.01233 -8.37756,-0.34034c-0.35016,0.28171 -0.79482,0.44134 -1.34733,0.44134c-0.67185,0 -1.27492,-0.52492 -1.75,-1c-0.0758,-0.0758 -0.14248,-0.15575 -0.20091,-0.23943c3.32524,-1.6247 5.61566,-5.03995 5.61566,-8.99015c0,-0.24357 -0.00871,-0.4851 -0.02583,-0.7243c0.46825,-0.05319 0.9384,-0.11346 1.40332,-0.18126c0.71871,0.0922 1.43255,0.16962 2.12313,0.16658c4.95048,-0.02176 9.90074,-0.11757 14.85124,-0.101c0.22601,0.00075 0.47648,0.09699 0.70301,0.101c1.66776,0.02947 3.33068,0.06371 4.99269,0.09559c-0.14196,2.31503 0.00948,4.7941 -0.00031,5.59467c-0.01909,1.56157 0.06252,3.46075 0.36164,5.37959c-6.0787,-0.0928 -12.15479,-0.20776 -18.34875,-0.20228z" fill="#b85000" stroke="none" stroke-width="0.5"/><path d="M174.31962,176.26788l-0.0183,10.74019l-54.17305,-0.0923l0.00175,-1.02723c3.56876,-1.5271 6.06927,-5.07047 6.06927,-9.19787c0,-0.08582 -0.00108,-0.17139 -0.00323,-0.2567c0.00025,-0.00988 0.00048,-0.01978 0.0007,-0.02967c0.02426,-0.0724 0.04771,-0.14517 0.07035,-0.2183z" fill-opacity="0.53333" fill="#00a67e" stroke="#827700" stroke-width="1"/></g></g></svg>