<svg version="1.1" xmlns="http://www.w3.org/2000/svg" xmlns:xlink="http://www.w3.org/1999/xlink" width="35.0881" height="16.93105" viewBox="0,0,35.0881,16.93105"><g transform="translate(-222.44811,-183.84748)"><g data-paper-data="{&quot;isPaintingLayer&quot;:true}" fill-rule="nonzero" stroke="none" stroke-width="0.5" stroke-linecap="butt" stroke-linejoin="miter" stroke-miterlimit="10" stroke-dasharray="" stroke-dashoffset="0" style="mix-blend-mode: normal"><path d="M227.29045,187.22953c-1.9398,1.41692 -1.93404,5.14721 -2.24477,7.31309c-0.07644,0.53275 -0.5773,1.88552 0.34104,2.21739c1.41932,0.51292 3.59451,-0.06172 5.10889,0.15152c1.88732,0.26575 3.78638,0.55438 5.68547,0.90704c4.2834,-0.0117 8.51108,0.6916 12.80685,0.26202c1.89332,-0.18933 3.96486,0.12816 5.22442,-1.68126c1.00388,-1.44213 0.21291,-2.896 -0.067,-4.40578c-0.24201,-1.30532 -0.48447,-1.85366 -1.32072,-2.86648c-1.99074,-0.74361 -4.14547,-0.42202 -6.21287,-0.69249c-6.22309,-0.81413 -12.43701,-1.16455 -18.76032,-1.16455h-0.26087c0,0 -0.12704,0 -0.30011,-0.0405zM228.65767,184.77193c6.14823,0.02913 12.19931,0.39363 18.25953,1.18138c2.59624,0.33748 4.86314,0.10476 7.35234,1.1336c1.36312,1.5108 1.94191,2.44155 2.33145,4.43786c0.1816,0.93067 0.64105,1.81647 0.67186,2.7642c0.09969,3.06703 -2.26899,5.67079 -5.23991,6.14173c-5.31553,0.84259 -10.7536,-0.10878 -16.07638,-0.12224c-2.80448,-0.5006 -5.58456,-0.91069 -8.42265,-1.03971c-0.79657,-0.03621 -2.51259,0.11107 -3.21777,-0.24957c-2.0614,-1.0542 -1.99158,-2.93666 -1.74591,-4.82609c0.4874,-3.74868 0.79067,-8.1625 4.72358,-9.73911c0,0 0.84671,-0.3079 1.36386,0.31795z" fill="#908737"/><path d="M230.13723,187.02985c0.0114,0.00829 0.0228,0.01658 0.03421,0.02486c0.00311,-0.00151 0.00622,-0.00302 0.00933,-0.00453l-0.00695,-0.02953l0.13627,-0.03206c0.04976,-0.02329 0.09971,-0.0462 0.14987,-0.06872l0.08644,0.01312l0.05089,-0.01197l-0.00777,-0.03628l1.8001,-0.38573c0.09243,-0.02179 0.18882,-0.03332 0.2879,-0.03332c0.35781,0 0.68051,0.15034 0.90838,0.3913l1.83075,0c0.488,0 0.91068,0.27964 1.11655,0.68741c0.45347,0.03492 0.94152,0.07975 1.48318,0.10111l0.07,0.03143l0.00348,-0.02205l2.44987,0.38682c0.44792,0.0629 0.81967,0.3632 0.98394,0.76959c0.24865,-0.02663 0.4832,-0.01067 0.67558,0.13264l0.45939,0l2.00732,-0.20073c0.16293,-0.10229 0.35112,-0.16803 0.55309,-0.18574l1.27386,-0.12739c0.04632,-0.0052 0.0934,-0.00788 0.14111,-0.00788c0.11273,0 0.22198,0.01492 0.32588,0.0429l0.78234,-0.04118l0.02048,0.38909c3.25662,-1.63263 8.04637,1.4743 7.94735,5.43537c-0.06931,2.77226 -2.51086,4.2107 -4.90846,4.73459c-3.7688,0.8235 -7.71734,0.67181 -11.5342,0.28551c-3.3199,0.00415 -6.4875,-0.72767 -9.8326,-1.04698c-1.03704,-0.09899 -3.68897,-0.07223 -4.5101,-0.73743c-2.1031,-1.70374 -1.14688,-4.69808 -0.27883,-6.67413l0.04437,-0.03887l-0.01848,-0.01027l0.64005,-1.15209c0.14698,-0.2769 0.39501,-0.49196 0.69493,-0.59602c0.14702,-0.23625 0.37067,-0.41986 0.63619,-0.51607l1.48312,-0.57677c0.16473,-0.23884 0.41042,-0.41754 0.69742,-0.49648l1.27745,-0.38323l0.0052,0.01732z" fill="#908737"/><path d="M254.32969,191.96568c-0.5522,0 -1.02077,-0.35807 -1.1862,-0.85468c-0.16679,0.06018 -0.33164,0.08102 -0.4948,0.01397c-0.62238,-0.25577 -0.96268,-0.95569 -1.28199,-1.56078c-0.09725,0.37823 -0.19352,0.75866 -0.52529,0.82548c-0.42313,0.08523 -0.3504,-1.17309 -0.76297,-1.04623c-0.47922,0.14736 0.02544,1.40233 -0.47531,1.42699c-0.77864,0.03835 -1.35352,-0.79301 -1.9387,-1.3081c-0.19556,-0.17213 -0.13917,-0.86199 -0.34446,-0.70158c-0.42141,0.3293 -0.11838,1.3546 -0.64035,1.47113c-0.57242,0.12779 -0.85775,-0.97929 -1.44366,-1.00587c-0.40137,-0.01821 -0.39577,0.88384 -0.79703,0.90421c-0.47607,0.02417 -0.73181,-0.95797 -1.18284,-0.8037c-0.5933,0.20294 -0.41982,1.50003 -1.04348,1.56522c-0.79648,0.08325 -1.46928,-0.56274 -2.17776,-0.99835c-0.0349,0.06415 -0.09119,0.09855 -0.1801,0.08751c-0.82374,-0.10219 -1.58238,-0.62321 -2.17729,-1.22862c-0.35593,0.2108 -0.68849,0.51475 -1.07964,0.46816c-0.40677,-0.04844 -0.39634,-0.9973 -0.80078,-0.93221c-0.45281,0.07288 -0.37485,1.06827 -0.76476,1.18672c-0.22844,0.24822 -0.55605,0.40375 -0.91998,0.40375c-0.5753,0 -1.05983,-0.38865 -1.20535,-0.91772l-0.31129,-1.03763c-0.02328,-0.0034 -0.04656,-0.00688 -0.06983,-0.01041c-0.34555,-0.03417 -0.71368,-0.12553 -1.09047,-0.23181c-0.23064,0.57289 -0.21659,1.38088 -0.74346,1.65416c-0.42503,0.22046 -0.49855,-1.14516 -0.96967,-1.05973c-0.4536,0.08225 0.02087,1.22669 -0.43181,1.31385c-0.49288,0.0949 -0.61364,-1.08747 -1.11059,-1.01687c-0.52544,0.07465 -0.40867,1.46947 -0.91305,1.30435c-0.8921,-0.29205 -1.48195,-0.62335 -1.83812,-0.97871c-0.27262,0.24798 -0.865,0.6207 -1.5881,0.07837c-1,-0.75 -0.25,-1.75 -0.25,-1.75c0.0818,-0.10906 0.1616,-0.21831 0.24013,-0.32725c-0.06364,-0.14992 -0.09883,-0.31484 -0.09883,-0.48798c0,-0.49976 0.29328,-0.93102 0.71713,-1.13106c0.23253,-0.60537 0.9399,-0.74685 0.9399,-0.74685c0.26829,-0.05366 0.53659,-0.10731 0.80489,-0.16097c0.2308,-0.12873 0.48301,-0.2393 0.76247,-0.32795c1.70555,-0.54106 4.03826,0.20379 5.8517,0.20379c5.70185,0 10.71725,0.40573 16.28617,1.43983c1.5414,-0.00653 7.26435,0.56732 7.90291,2.95572c0.32579,0.22562 0.53919,0.60207 0.53919,1.02836c0,0.41877 -0.20592,0.78943 -0.52203,1.01626c0.00019,0.00904 0.0003,0.01812 0.0003,0.02722c0,0.08946 -0.0094,0.17673 -0.02727,0.26087c0.01787,0.08414 0.02727,0.1714 0.02727,0.26087c0,0.69036 -0.55965,1.25 -1.25,1.25c-0.44397,0 -0.83387,-0.23145 -1.05564,-0.58028c-0.11959,0.03802 -0.24697,0.05854 -0.37915,0.05854zM253.43738,188.74739c-0.04159,-0.02448 -0.08322,-0.04908 -0.12473,-0.07354c0.02101,0.02969 0.04992,0.0528 0.08934,0.06732c0.01118,0.00412 0.023,0.00613 0.03539,0.00623zM249.21786,188.1704c-0.01201,0.0005 -0.02397,0.00098 -0.03587,0.00143c-0.057,0.14308 -0.09878,0.22867 -0.03879,0.14127c0.02976,-0.04337 0.05423,-0.09134 0.07467,-0.1427zM246.18624,187.73457c-0.03461,-0.00523 -0.06921,-0.01045 -0.10378,-0.01565c-0.01312,0.03288 -0.02711,0.06429 -0.0419,0.0943c0.00854,-0.00122 0.01726,-0.00289 0.02615,-0.00505c0.05091,-0.01236 0.08989,-0.03787 0.11953,-0.0736z" fill="#8f8f8f"/></g></g></svg>