<svg version="1.1" xmlns="http://www.w3.org/2000/svg" xmlns:xlink="http://www.w3.org/1999/xlink" width="40.16764" height="48.70058" viewBox="0,0,40.16764,48.70058"><g transform="translate(-226.29194,-151.68136)"><g data-paper-data="{&quot;isPaintingLayer&quot;:true}" fill-rule="nonzero" stroke="none" stroke-width="0.5" stroke-linecap="butt" stroke-linejoin="miter" stroke-miterlimit="10" stroke-dasharray="" stroke-dashoffset="0" style="mix-blend-mode: normal"><path d="M258.73593,165.25542c0.11229,1.01766 0.37541,2.13829 0.70414,3.22919c-0.06943,1.61791 0.23165,3.62106 0.59878,5.2574c-1.1912,1.92304 -3.30317,3.70224 -5.60974,4.69939c-1.03838,-1.22264 -2.2369,-2.10128 -2.86915,-2.13298c-1.72225,-0.08634 -3.01488,2.36671 -2.96284,4.34496c-0.03205,0.04591 -0.06185,0.09022 -0.08923,0.13285c-2.66088,4.14328 -6.24742,8.1686 -9.95547,11.76293c-0.34421,0.05537 -0.73438,0.16892 -1.17138,0.34972c-1.22434,0.50654 -2.8816,2.24807 -3.98334,4.10368c-0.93907,0.25672 -1.76449,1.06244 -2.34976,1.99609c-0.75385,0.11716 -1.4093,0.48764 -2.10321,1.26296c-0.03333,0.03725 -0.06652,0.07746 -0.09937,0.12033c-1.18407,-0.20094 -2.18344,-1.05115 -2.55343,-2.2209c0.56588,-0.99644 0.91285,-2.29265 0.95937,-2.94341c0.00526,-0.01349 0.01037,-0.02705 0.01534,-0.04066c0.07154,-0.13805 0.11966,-0.27171 0.14718,-0.4008c1.94541,-1.15373 3.87861,-3.21439 4.76248,-5.17217c4.63995,-4.42875 8.42736,-9.43136 12.41059,-14.44257c0.20769,-0.26128 0.42137,-0.52113 0.64227,-0.77234c0.06008,-0.39174 0.1778,-0.76775 0.34541,-1.11755c-1.65832,-11.17656 8.36321,-13.31975 13.16135,-8.01612z" data-paper-data="{&quot;index&quot;:null}" fill="#885c36"/><path d="M231.59664,198.24981c-0.10857,0.12657 -0.21236,0.25889 -0.31094,0.39547c-1.56193,-0.97506 -2.76171,-2.18782 -3.92759,-3.6758c0.02375,-0.06552 0.04221,-0.12996 0.05571,-0.1933c0.10006,-0.05935 0.2001,-0.12109 0.29996,-0.1851c0.01486,0.027 0.02972,0.05401 0.04458,0.08101c1.15011,1.45274 2.30489,2.62948 3.83827,3.57772z" data-paper-data="{&quot;index&quot;:null}" fill="#4c331e"/><path d="M232.66692,188.60353c0.10665,-0.22612 0.33276,-0.11947 0.33276,-0.11947l0.10167,0.04807c0.2055,0.0898 0.40694,0.18925 0.6042,0.29594c1.65033,1.01421 3.34721,2.08793 4.20769,3.87595c-0.15086,0.04756 -0.30843,0.10426 -0.47273,0.17058c-0.81878,-1.66364 -2.43484,-2.67541 -3.98419,-3.61307c-0.18098,-0.09809 -0.36613,-0.18894 -0.55487,-0.2711l-0.11505,-0.05414c0,0 -0.22612,-0.10665 -0.11947,-0.33276z" data-paper-data="{&quot;index&quot;:null}" fill="#4c331e"/><path d="M232.11586,190.07711c0,0 -0.07334,-0.03459 -0.11678,-0.10614c0.06337,-0.12334 0.12288,-0.24651 0.17826,-0.36928c0.08103,-0.01019 0.15181,0.02319 0.15181,0.02319l0.09748,0.04629c1.79357,0.74836 3.38777,1.91284 4.50032,3.4593c-0.13562,0.08103 -0.2746,0.17381 -0.41585,0.27709c-1.05582,-1.46394 -2.57242,-2.57285 -4.27599,-3.27453l-0.11923,-0.05593z" data-paper-data="{&quot;index&quot;:null}" fill="#b97b48"/><path d="M231.37415,191.06145c1.66891,0.46515 3.24873,1.63719 4.47292,2.89284c-0.12023,0.10952 -0.24086,0.22491 -0.36129,0.34547c-1.11881,-1.14782 -2.54221,-2.2231 -4.05841,-2.70138c-0.0944,0.03177 -0.18951,-0.00972 -0.18951,-0.00972c-0.07006,-0.03057 -0.14032,-0.06072 -0.2108,-0.09034c0.11185,-0.14768 0.21946,-0.29668 0.32237,-0.44655l0.02473,0.00969z" data-paper-data="{&quot;index&quot;:null}" fill="#b97b48"/><path d="M234.5901,195.29732c-1.30122,-1.17049 -2.50127,-2.36402 -4.07159,-3.17006c0.11215,-0.13024 0.22134,-0.26213 0.32723,-0.39532c1.55858,0.81665 2.76551,2.01315 4.06649,3.18292c-0.10853,0.12424 -0.21606,0.25191 -0.32213,0.38246z" data-paper-data="{&quot;index&quot;:null}" fill="#b97b48"/><path d="M233.87796,196.25114c-1.38071,-0.95625 -2.57323,-2.72028 -3.98345,-3.4469c0.11489,-0.11659 0.22772,-0.23519 0.33817,-0.35552c1.40743,0.83592 2.51508,2.48377 3.9289,3.40291c-0.09661,0.13136 -0.19128,0.26468 -0.28362,0.3995z" data-paper-data="{&quot;index&quot;:null}" fill="#b97b48"/><path d="M233.55299,196.74761c-0.05288,0.08467 -0.10467,0.16969 -0.15529,0.25495c-0.07722,0.02111 -0.15367,0.04593 -0.22929,0.07424c-1.3665,-1.14586 -2.74757,-2.35532 -4.13242,-3.47257c0.1269,-0.10842 0.25237,-0.21974 0.37608,-0.33365c1.38759,1.12034 2.77046,2.33202 4.14093,3.47703z" data-paper-data="{&quot;index&quot;:null}" fill="#b97b48"/><path d="M228.39684,194.11635c1.42702,0.93886 2.42415,2.48883 3.80029,3.53898c-0.12791,0.10582 -0.25155,0.22057 -0.37041,0.34257c-1.38183,-1.08137 -2.41325,-2.61118 -3.86321,-3.57183c0.1452,-0.09881 0.28979,-0.2022 0.43331,-0.30973z" data-paper-data="{&quot;index&quot;:null}" fill="#b97b48"/><path d="M252.00382,176.78122c-0.26442,-0.15613 -0.55124,-0.3046 -0.84357,-0.44716c-0.17416,0.03129 -0.34273,0.08825 -0.50461,0.16734c-0.75104,-0.55494 -1.50664,-1.10353 -2.2877,-1.62249c-0.01533,-0.00709 -0.03066,-0.01424 -0.04602,-0.02148l-0.12947,-0.08996c0,0 -0.00828,-0.00613 -0.02022,-0.01759c-0.48104,-0.3147 -0.97229,-0.61755 -1.47854,-0.90321c-2.54054,-1.4365 -4.65552,-3.4646 -7.44676,-4.37771c-0.70773,-0.32655 -0.47346,-1.72733 -0.36031,-2.51004c0.3469,-2.39951 0.97414,-4.5823 1.73006,-6.89154c0.96907,-2.95911 1.94896,-5.49127 5.0153,-6.8294c2.01518,-1.36538 4.90001,-1.5418 7.26418,-1.55663c0,0 0.2228,-0.0012 0.24887,0.20899c0.15901,0.03157 0.18541,0.20956 0.18541,0.20956l-0.00501,0.01704c0.23319,0.56363 0.4946,1.1164 0.84603,1.61691c1.46776,2.5224 3.23823,4.95018 4.25285,7.77308c0.04242,0.11818 0.08394,0.23751 0.12457,0.35791c0.1894,0.011 0.21949,0.21385 0.21949,0.21385l0.03379,0.22777c0.40795,2.74945 0.77877,5.48378 1.39883,8.18455c1.02674,2.46936 1.58378,5.11882 1.97637,7.76473c0,0 0.01157,0.07795 -0.02205,0.15281c0.16228,0.59235 0.32106,1.17915 0.47009,1.75738c0.71392,2.76997 3.23334,5.48773 3.66037,8.29115l0.03381,-0.01399l0.11884,0.28725c0.00878,0.01997 0.01506,0.04144 0.01842,0.06406c0.02026,0.13657 -0.07403,0.26372 -0.2106,0.28398c-0.0872,0.01294 -0.17055,-0.02081 -0.2247,-0.08246l-0.17235,-0.19055c-1.60697,-1.26238 -3.15267,-2.54066 -4.79717,-3.75824c-2.08644,-1.35731 -3.62041,-3.30156 -5.44066,-4.89749c-0.00517,-0.00956 -0.01037,-0.01913 -0.01559,-0.02867c-0.03233,-0.0215 -0.05136,-0.04253 -0.05136,-0.04253c-0.85186,-0.98312 -2.07923,-2.28949 -3.30427,-3.28269c-0.11413,0.05664 -0.23634,-0.01455 -0.23634,-0.01455z" data-paper-data="{&quot;index&quot;:null}" fill="#754f2f"/></g></g></svg>