<svg version="1.1" xmlns="http://www.w3.org/2000/svg" xmlns:xlink="http://www.w3.org/1999/xlink" width="52.57852" height="34.63872" viewBox="0,0,52.57852,34.63872"><g transform="translate(-216.95253,-159.37173)"><g data-paper-data="{&quot;isPaintingLayer&quot;:true}" fill-rule="nonzero" stroke-linecap="butt" stroke-linejoin="miter" stroke-miterlimit="10" stroke-dasharray="" stroke-dashoffset="0" style="mix-blend-mode: normal"><path d="M258.45253,174.6269c0,7.7665 -9.29009,14.0625 -20.75,14.0625c-11.45991,0 -20.75,-6.296 -20.75,-14.0625c0,-7.7665 9.29009,-14.0625 20.75,-14.0625c11.45991,0 20.75,6.296 20.75,14.0625z" fill="#6d542c" stroke="#000000" stroke-width="0"/><path d="M264.49018,176.77889c-0.7119,7.73381 -10.53998,13.15175 -21.95165,12.1013c-11.41167,-1.05044 -20.08554,-8.17149 -19.37364,-15.9053c0.7119,-7.73381 10.53998,-13.15175 21.95165,-12.1013c11.41167,1.05044 20.08554,8.17149 19.37364,15.9053z" fill="#6d542c" stroke="#000000" stroke-width="0"/><path d="M250.70253,172.0644c0,-1.38071 1.11929,-2.5 2.5,-2.5c1.38071,0 2.5,1.11929 2.5,2.5c0,1.38071 -1.11929,2.5 -2.5,2.5c-1.38071,0 -2.5,-1.11929 -2.5,-2.5z" fill="#000000" stroke="none" stroke-width="0.5"/><path d="M263.45253,179.6269c0,7.7665 -9.29009,14.0625 -20.75,14.0625c-11.45991,0 -20.75,-6.296 -20.75,-14.0625c0,-7.7665 9.29009,-14.0625 20.75,-14.0625c11.45991,0 20.75,6.296 20.75,14.0625z" fill="#6d542c" stroke="#000000" stroke-width="0"/><path d="M269.49018,181.7789c-0.7119,7.73381 -10.53998,13.15175 -21.95165,12.1013c-11.41166,-1.05044 -20.08554,-8.17149 -19.37364,-15.9053c0.7119,-7.73381 10.53999,-13.15174 21.95165,-12.1013c11.41166,1.05044 20.08554,8.17149 19.37364,15.9053z" fill="#6d542c" stroke="#000000" stroke-width="0"/><path d="M266.36518,177.7789c-0.7119,7.73381 -10.53998,13.15175 -21.95165,12.1013c-11.41166,-1.05044 -20.08554,-8.17149 -19.37364,-15.9053c0.7119,-7.73381 10.53999,-13.15174 21.95165,-12.1013c11.41167,1.05044 20.08554,8.17149 19.37364,15.9053z" fill="#6d542c" stroke="#000000" stroke-width="0"/><path d="M242.73122,161.54186c4.34013,-4.67684 16.99935,-1.41634 15.48689,6.1623c-0.31576,1.58223 -2.39558,2.76586 -3.91312,1.95656c-1.7798,-0.94916 -0.39311,-3.22591 -1.5309,-4.12732c-1.94887,-1.54398 -5.5719,-1.52405 -6.91223,0.48645c0.05909,0.2131 0.09067,0.43764 0.09067,0.66956c0,1.38071 -1.11929,2.5 -2.5,2.5c-0.33812,0 -0.66057,-0.06713 -0.95474,-0.18878c-2.38828,0.12898 -2.02532,-5.02477 0.23343,-7.45876z" fill="#000000" stroke="none" stroke-width="0.5"/><path d="M255.70253,177.0644c0,-1.38071 1.11929,-2.5 2.5,-2.5c1.38071,0 2.5,1.11929 2.5,2.5c0,1.38071 -1.11929,2.5 -2.5,2.5c-1.38071,0 -2.5,-1.11929 -2.5,-2.5z" fill="#000000" stroke="none" stroke-width="0.5"/></g></g></svg>