<svg version="1.1" xmlns="http://www.w3.org/2000/svg" xmlns:xlink="http://www.w3.org/1999/xlink" width="55.19846" height="11.83419" viewBox="0,0,55.19846,11.83419"><g transform="translate(-119.622,-175.67472)"><g data-paper-data="{&quot;isPaintingLayer&quot;:true}" fill-rule="nonzero" stroke-linecap="butt" stroke-linejoin="miter" stroke-miterlimit="10" stroke-dasharray="" stroke-dashoffset="0" style="mix-blend-mode: normal"><path d="M158.70918,187.12224c-8.94445,-0.06069 -17.76321,-0.311 -26.83481,-0.30298c-2.09248,0.00185 -6.36078,1.01233 -8.37756,-0.34034c-0.35016,0.28171 -0.79482,0.44134 -1.34733,0.44134c-0.67185,0 -1.27492,-0.52492 -1.75,-1c-1.14179,-1.14179 -0.21156,-3.22348 -0.25,-4.83776c-0.01217,-0.51129 -1.01065,-4.10296 -0.2286,-4.54985l0.41572,-0.23755c1.69479,0.00211 4.35076,-0.1448 6.85512,-0.50998c0.71871,0.0922 1.43255,0.16962 2.12313,0.16658c4.95048,-0.02176 9.90074,-0.11757 14.85124,-0.101c0.22601,0.00075 0.47648,0.09699 0.70301,0.101c4.08951,0.07227 8.14994,0.17322 12.23918,0.19772c0.02487,0.23748 0.05417,0.47145 0.08666,0.69943c0.0442,0.39699 0.11165,0.78696 0.20094,1.16852c0.06471,0.32154 0.13173,0.61534 0.19563,0.87076c0.70501,2.81775 0.8069,5.62527 1.43489,8.23856c-0.10602,-0.00223 -0.21176,-0.00373 -0.31721,-0.00445z" fill="#b85000" stroke="none" stroke-width="0.5"/><path d="M174.31961,176.26788l-0.0183,10.74019l-54.17306,-0.0923l0.0183,-10.74019z" fill-opacity="0.53333" fill="#00a67e" stroke="#827700" stroke-width="1"/></g></g></svg>