<svg version="1.1" xmlns="http://www.w3.org/2000/svg" xmlns:xlink="http://www.w3.org/1999/xlink" width="55.19305" height="11.82355" viewBox="0,0,55.19305,11.82355"><g transform="translate(-119.62741,-175.68537)"><g data-paper-data="{&quot;isPaintingLayer&quot;:true}" fill-rule="nonzero" stroke-linecap="butt" stroke-linejoin="miter" stroke-miterlimit="10" stroke-dasharray="" stroke-dashoffset="0" style="mix-blend-mode: normal"><path d="M131.87437,186.81926c-2.09248,0.00185 -6.36078,1.01233 -8.37756,-0.34034c-0.35016,0.28171 -0.79482,0.44134 -1.34733,0.44134c-0.67185,0 -1.27492,-0.52492 -1.75,-1c-0.11891,-0.11891 -0.21534,-0.24801 -0.29274,-0.38572c3.30548,-1.63181 5.57914,-5.03649 5.57914,-8.97222c0,-0.19555 -0.00561,-0.38978 -0.01669,-0.58256c0.5076,-0.05641 1.01814,-0.1211 1.52253,-0.19465c0.71871,0.0922 1.43255,0.16962 2.12313,0.16658c2.82911,-0.01243 5.65815,-0.04905 8.4872,-0.07506c0.34009,1.59623 0.79084,3.1254 0.84914,4.18046c0.12665,2.29208 0.14003,4.59751 0.44716,6.80252c-2.39476,-0.02619 -4.80035,-0.04249 -7.22398,-0.04035z" fill="#b85000" stroke="none" stroke-width="0.5"/><path d="M174.31962,176.26788l-0.0183,10.74019l-54.17305,-0.0923l0.00175,-1.02723c3.56876,-1.5271 6.06927,-5.07047 6.06927,-9.19787c0,-0.08582 -0.00108,-0.17139 -0.00323,-0.2567c0.00025,-0.00988 0.00048,-0.01978 0.0007,-0.02967c0.02426,-0.0724 0.04771,-0.14517 0.07035,-0.2183z" fill-opacity="0.53333" fill="#00a67e" stroke="#827700" stroke-width="1"/></g></g></svg>