<svg version="1.1" xmlns="http://www.w3.org/2000/svg" xmlns:xlink="http://www.w3.org/1999/xlink" width="65.83048" height="71.10095" viewBox="0,0,65.83048,71.10095"><g transform="translate(-227.91217,-139.23037)"><g data-paper-data="{&quot;isPaintingLayer&quot;:true}" fill-rule="nonzero" stroke="none" stroke-linecap="butt" stroke-linejoin="miter" stroke-miterlimit="10" stroke-dasharray="" stroke-dashoffset="0" style="mix-blend-mode: normal"><g stroke-width="0.5"><path d="M234.94815,184.66096c-0.85547,1.49706 -6.81972,-2.32977 -6.87535,-3.33114c-0.10161,-0.15652 -0.16063,-0.34325 -0.16063,-0.54377c0,-0.55229 0.44771,-1 1,-1c0.31195,0 0.59053,0.14283 0.77392,0.36666c2.48758,0.25993 5.59985,3.91711 5.26206,4.50825z" fill="#9e6d39"/><path d="M247.1056,196.65818l0.0277,0.0277l0.11204,-0.02801l0.06212,0.24846c0.00575,0.02105 0.00882,0.0432 0.00882,0.06607c0,0.13807 -0.11193,0.25 -0.25,0.25c-0.06904,0 -0.13154,-0.02798 -0.17678,-0.07322l-0.16883,-0.16883c-0.61755,-0.30613 -1.04032,-0.90259 -1.58739,-1.27515c-0.22025,0.01149 -0.38832,-0.15657 -0.38832,-0.15657l-0.16227,-0.16435c-0.24341,-0.21062 -0.47138,-0.43653 -0.68348,-0.67616c-0.02505,-0.0099 -0.04912,-0.02177 -0.072,-0.03541l-0.42767,-0.24438c-1.07496,-0.53778 -1.96488,-1.23287 -2.80742,-2.08384c-2.24938,-1.48843 -4.56576,-3.00488 -6.39746,-4.99807c-0.82307,-0.89564 -1.96894,-0.95623 -1.56125,-2.41956c0,0 0.16435,-0.43827 0.59907,-0.3077c-0.03721,-0.22507 0.12423,-0.41342 0.12423,-0.41342c0.042,-0.04894 0.08718,-0.10331 0.13526,-0.1616c0.07868,-0.12801 0.17909,-0.25033 0.3036,-0.36401c0.51369,-0.59761 1.21565,-1.27691 1.92702,-0.99973c0.32811,0.12785 1.17854,1.47958 1.52727,1.80124c1.64387,1.51632 3.13725,3.12013 4.60554,4.79683c1.46508,1.65344 2.52602,3.36379 3.79111,5.1391l0.00334,0.02719l0.00975,-0.00557l0.24955,0.43671c0.04461,0.07482 0.07023,0.16226 0.07023,0.25569c0,0.02234 -0.00147,0.04434 -0.00431,0.06591c0.45904,0.43892 0.94014,0.91457 1.13053,1.46067z" fill="#9e8a74"/></g><g><path d="M269.26603,156.48085c0,7.61213 -6.54865,13.78297 -14.62683,13.78297c-8.07817,0 -14.62683,-6.17085 -14.62683,-13.78297c0,-7.61213 6.54865,-13.78297 14.62683,-13.78297c8.07817,0 14.62683,6.17085 14.62683,13.78297z" fill="#ff8800" stroke-width="0"/><path d="M243.50687,147.62827c-0.27348,0.59825 -0.55792,1.18062 -0.83308,1.74472c0,0 -0.1118,0.22361 -0.33541,0.1118c-0.22361,-0.1118 -0.1118,-0.33541 -0.1118,-0.33541c0.22367,-0.43839 0.44907,-0.88859 0.66757,-1.34931c-0.03866,-0.02057 -0.07568,-0.05614 -0.105,-0.1148c-0.1118,-0.22361 0.1118,-0.33541 0.1118,-0.33541l0.25955,-0.12536c0.80315,-1.78287 1.45553,-3.71002 1.48455,-5.71077c0.25567,-0.52883 0.24061,-1.62147 0.62874,-1.99303c0.6109,-0.58481 1.54993,0.09119 2.01533,0.54838c1.30949,1.2864 2.01392,2.68155 3.71143,3.53031c0.45165,0.22583 0.77264,0.38604 1.1334,0.74422l0.36693,0.19341c0.08186,0.04107 0.13805,0.12577 0.13805,0.22359c0,0.11246 -0.07426,0.20758 -0.17641,0.23899l-0.46887,0.15629l-0.02265,-0.06795c-1.22318,0.43823 -2.60215,0.34592 -3.88101,0.65095c-1.65522,0.39479 -2.82425,1.84891 -4.58311,1.88936z" fill="#ff8800" stroke-width="0.5"/><path d="M261.31125,145.67578c-1.27885,-0.30503 -2.65783,-0.21272 -3.88101,-0.65094l-0.02264,0.06794l-0.46888,-0.15629c-0.10216,-0.03142 -0.17641,-0.12654 -0.17641,-0.239c0,-0.09783 0.05618,-0.18252 0.13804,-0.22359l0.36694,-0.19342c0.36076,-0.35818 0.68176,-0.51839 1.13341,-0.74421c1.69751,-0.84876 2.40193,-2.24392 3.71142,-3.53031c0.4654,-0.45719 1.40444,-1.13319 2.01533,-0.54838c0.38813,0.37156 0.37306,1.4642 0.62874,1.99303c0.02902,2.00075 0.6814,3.9279 1.48454,5.71077l0.25955,0.12535c0,0 0.22361,0.11181 0.11181,0.33541c-0.02933,0.05866 -0.06635,0.09422 -0.10501,0.1148c0.21851,0.46072 0.44391,0.91092 0.66757,1.3493c0,0 0.1118,0.22361 -0.1118,0.33541c-0.2236,0.11181 -0.33541,-0.1118 -0.33541,-0.1118c-0.27516,-0.5641 -0.55961,-1.14648 -0.83308,-1.74472c-1.75886,-0.04045 -2.92789,-1.49457 -4.58311,-1.88936z" data-paper-data="{&quot;index&quot;:null}" fill="#ff8800" stroke-width="0.5"/><path d="M271.70383,181.04642c0,12.99758 -7.76603,23.53419 -17.34592,23.53419c-9.57989,0 -17.34592,-10.53662 -17.34592,-23.53419c0,-12.99758 7.76603,-23.53419 17.34592,-23.53419c9.57989,0 17.34592,10.53662 17.34592,23.53419z" fill="#ff8800" stroke-width="0"/><path d="M268.72434,187.39096c0,10.1495 -7.80801,18.3773 -17.43968,18.3773c-9.63167,0 -17.43968,-8.2278 -17.43968,-18.3773c0,-10.1495 7.80801,-18.3773 17.43968,-18.3773c9.63167,0 17.43968,8.2278 17.43968,18.3773z" fill="#ff8800" stroke-width="0"/><path d="M238.19018,174.02323c-3.82993,5.66163 -7.6301,9.78087 -8.48792,9.20058c-0.85782,-0.58029 1.55154,-5.64037 5.38147,-11.302c3.82993,-5.66163 7.6301,-9.78087 8.48792,-9.20058c0.85782,0.58029 -1.55154,5.64037 -5.38147,11.302z" fill="#ff8800" stroke-width="0"/><path d="M264.72685,167.24194c0.85782,-0.58029 4.65799,3.53895 8.48792,9.20058c3.82993,5.66163 6.23929,10.72171 5.38147,11.302c-0.85782,0.58029 -4.658,-3.53895 -8.48792,-9.20058c-3.82993,-5.66163 -6.23929,-10.72171 -5.38147,-11.30201z" data-paper-data="{&quot;index&quot;:null}" fill="#ff8800" stroke-width="0"/><path d="M251.07626,199.26745c0,5.28188 -2.98048,9.5637 -6.65708,9.5637c-3.67661,0 -6.65708,-4.28181 -6.65708,-9.5637c0,-5.28188 2.98048,-9.5637 6.65708,-9.5637c3.67661,0 6.65708,4.28181 6.65708,9.5637z" fill="#ff8800" stroke-width="0"/><path d="M272.3908,199.20431c0,5.28189 -2.98048,9.5637 -6.65709,9.5637c-3.6766,0 -6.65708,-4.28181 -6.65708,-9.5637c0,-5.28188 2.98048,-9.56369 6.65708,-9.56369c3.6766,0 6.65709,4.28181 6.65709,9.56369z" fill="#ff8800" stroke-width="0"/><path d="M239.91861,206.58087c3.9873,0 7.21965,0.83957 7.21965,1.87523c0,1.03566 -3.23235,1.87523 -7.21965,1.87523c-3.9873,0 -7.21965,-0.83957 -7.21965,-1.87523c0,-1.03566 3.23235,-1.87523 7.21965,-1.87523z" fill="#ff8800" stroke-width="0"/><path d="M270.04675,206.51773c3.9873,0 7.21965,0.83957 7.21965,1.87523c0,1.03567 -3.23235,1.87524 -7.21965,1.87524c-3.9873,0 -7.21965,-0.83958 -7.21965,-1.87524c0,-1.03566 3.23235,-1.87523 7.21965,-1.87523z" fill="#ff8800" stroke-width="0"/><path d="M292.66054,174.61218c-2.28591,-0.01074 -3.76103,1.60527 -5.71582,2.55878c-0.68066,0.33201 -1.78125,0.13334 -2.39061,0.53802c-1.77315,1.17755 -4.75046,3.77875 -5.73229,5.7424c-0.97508,1.30831 -2.1542,2.33115 -3.27465,3.45455c-0.46441,0.72289 -0.93943,1.44545 -1.42909,2.13787c-0.33122,1.1489 -0.40053,2.44594 -1.49646,3.2478c-1.42255,1.04083 -3.30508,0.56779 -4.84808,1.21307c0,0 -0.51649,0.2066 -0.83777,-0.18088c-0.97736,-0.00623 -1.98815,-0.07796 -3.00372,-0.07796c0,0 -0.25,0 -0.25,-0.25c0,-0.25 0.25,-0.25 0.25,-0.25c0.93817,0 1.88411,0.07084 2.80349,0.08779c-0.04443,-0.51154 0.48091,-0.72168 0.48091,-0.72168c1.3851,-0.53525 3.29601,-0.19512 4.5281,-1.03721c1.22525,-0.83742 0.99225,-3.23631 1.92548,-4.37269c1.18452,-1.44238 2.73354,-2.52721 3.87582,-4.03925c0.99732,-1.99464 4.37326,-5.12537 6.26921,-6.2591c0.41073,-0.24561 0.91155,-0.28029 1.40236,-0.3311c1.27175,-0.83034 2.27785,-1.32218 3.41568,-1.5952c1.27839,-0.73685 2.54637,-1.33541 4.26919,-1.35332c0.28012,0.0681 0.56024,0.1362 0.84036,0.2043l-0.41136,1.09136l0.04756,0.36385c-0.0561,-0.01452 -0.11219,-0.02903 -0.16829,-0.04355l-0.02486,0.06594c0,0 -0.30424,0 -0.52517,-0.19377z" fill="#ff8800" stroke-width="0.5"/><path d="M253.51415,192.57912c0,-0.41421 0.33579,-0.75 0.75,-0.75c0.41421,0 0.75,0.33579 0.75,0.75c0,0.41421 -0.33579,0.75 -0.75,0.75c-0.41421,0 -0.75,-0.33579 -0.75,-0.75z" fill="#422300" stroke-width="0.5"/><path d="M255.5712,160.30259c-0.72761,0.1819 -0.90951,-0.54571 -0.90951,-0.54571l-0.18752,-0.75009c-0.09205,-0.37865 -0.14944,-0.76648 -0.18051,-1.15633c-0.25312,0.02085 -0.51137,0.03565 -0.77959,0.03672c0,0 -0.75,0 -0.75,-0.75c0,-0.75 0.75,-0.75 0.75,-0.75c0.99253,0.00457 1.83549,-0.181 2.81285,-0.18752h0.37505c0,0 0.75,0 0.75,0.75c0,0.75 -0.75,0.75 -0.75,0.75h-0.37505c-0.18498,-0.00158 -0.36597,0.0042 -0.5447,0.0146c0.02279,0.31368 0.06873,0.62566 0.14716,0.92873l0.18752,0.75009c0,0 0.1819,0.72761 -0.54571,0.90951z" fill="#422300" stroke-width="0.5"/><path d="M259.5149,150.57386c0,-0.41421 0.33579,-0.75 0.75,-0.75c0.41421,0 0.75,0.33579 0.75,0.75c0,0.41421 -0.33579,0.75 -0.75,0.75c-0.41421,0 -0.75,-0.33579 -0.75,-0.75z" fill="#422300" stroke-width="0.5"/><path d="M249.01359,150.76139c0,-0.41421 0.33579,-0.75 0.75,-0.75c0.41421,0 0.75,0.33579 0.75,0.75c0,0.41421 -0.33579,0.75 -0.75,0.75c-0.41421,0 -0.75,-0.33579 -0.75,-0.75z" fill="#422300" stroke-width="0.5"/></g><path d="M242.44122,148.0652c-0.84366,-0.53688 -0.30678,-1.38054 -0.30678,-1.38054c1.00581,-1.57583 1.81243,-3.42595 3.49926,-4.4332c4.48383,-2.67742 10.60001,-1.20654 15.36267,-0.18151c2.59307,0.81034 3.79757,2.02696 5.66374,3.89182l0.42699,1.20074c0,0 0.06381,0.28714 -0.03352,0.58455c0.10499,0.19287 0.39646,0.86258 -0.30902,1.3329c-0.83205,0.5547 -1.38675,-0.27735 -1.38675,-0.27735l-0.16951,-0.25468c-0.72747,-1.1836 -1.60871,-1.57456 -2.92318,-1.97716c-4.42593,-2.20836 -13.87246,-1.33825 -18.03957,1.33652c0,0 -0.09806,0.0624 -0.24859,0.11122c-0.16783,0.12741 -0.37714,0.20302 -0.6041,0.20302c-0.04976,0 -0.09866,-0.00364 -0.14646,-0.01065c-0.21417,0.06212 -0.47954,0.0488 -0.78517,-0.14569z" fill="#352e27" stroke-width="0.5"/><path d="M268.93153,154.70081c-0.53247,0.41362 -3.13321,-0.56762 -3.86659,-0.64173c-2.80788,-0.28375 -5.67341,-0.70781 -8.50718,-0.7057c-4.00355,0 -8.14351,0.45319 -12.16123,0.70765c-0.68411,0.04333 -1.27294,0.66579 -1.9575,0.63023c-3.79124,-0.19691 -2.14372,-4.25798 -0.40143,-5.72415c0,0 0.00158,-0.00126 0.00466,-0.00361c0.01661,-0.61977 0.66367,-0.86241 0.66367,-0.86241c1.31035,-0.48491 2.61463,-0.94126 3.91903,-1.34465c1.46397,-0.58158 2.6042,-1.22402 4.2483,-1.24547l0.30931,-0.06535c0,0 0.2761,-0.04602 0.5605,0.05671c3.49779,-0.59521 7.05334,-0.59096 10.78278,0.47142c1.65028,0.81748 3.40012,1.62347 4.84136,2.75651l0.52316,0.69987c0,0 0.22489,0.33733 0.17349,0.72561c1.44812,1.52156 2.25523,3.46722 0.86767,4.54507zM261.29183,149.32825c-0.23464,0.13524 -0.47294,0.15357 -0.47294,0.15357c-1.41374,0.07712 -2.15531,1.27014 -0.34277,1.24039c0.94711,-0.01555 1.42858,-0.91713 0.81571,-1.39396zM249.48767,148.82921c-1.91345,0.42359 -0.60297,2.40282 1.12975,2.22414c2.14348,-0.22104 -0.29968,-2.0405 -0.98567,-2.24442l0.05723,0.04422c0,0 -0.08307,0 -0.20132,-0.02394z" fill="#191512" stroke-width="0.5"/><path d="" fill="#191512" stroke-width="0.5"/><path d="M265.59467,161.04467l0.83742,-0.75668c-0.1311,-1.0632 -0.30234,-2.14175 -0.30709,-3.21299c0,0 0,-0.75 0.75,-0.75c0.75,0 0.75,0.75 0.75,0.75c-0.00146,0.26994 0.00927,0.53506 0.0265,0.79759c0.27519,-0.57761 0.55969,-1.14267 0.83551,-1.69188l0.78799,-1.0557c0,0 0.45,-0.6 1.05,-0.15c0.6,0.45 0.15,1.05 0.15,1.05l-0.71201,0.9443c-0.44109,0.88687 -0.92769,1.83561 -1.34593,2.81601c0.43596,-0.55214 0.93088,-1.09026 1.35794,-1.66031l0.31967,-0.33033c0,0 0.53033,-0.53033 1.06066,0c0.53033,0.53033 0,1.06066 0,1.06066l-0.18033,0.16967c-0.3218,0.42862 -0.86314,0.94847 -1.33237,1.50717c0.00423,0.0041 0.00846,0.00826 0.0127,0.0125c0.53033,0.53033 0,1.06066 0,1.06066c-0.0538,0.0538 -0.12936,0.12936 -0.22004,0.22004c0.40717,-0.00122 0.81859,-0.07771 1.20254,-0.21188l0.40176,-0.20931c0,0 0.67082,-0.33541 1.00623,0.33541c0.33541,0.67082 -0.33541,1.00623 -0.33541,1.00623l-0.59824,0.29069c-0.53824,0.17308 -1.10674,0.27432 -1.67236,0.28738l-0.13291,0.22872c-0.32661,0.08165 -0.65323,0.16331 -0.97984,0.24496c-0.13659,0.04045 -0.25506,0.04541 -0.35719,0.02743c-0.1973,0 -0.3946,0 -0.5919,0c-0.0017,0.05651 -0.00272,0.113 -0.00302,0.16945c0.08496,0.07728 0.15964,0.18758 0.21157,0.34337c0.23717,0.71151 -0.47434,0.94868 -0.47434,0.94868c-0.8514,0.12825 -1.0027,1.25672 -1.29426,1.8255c-0.03843,0.07497 -0.07906,0.15064 -0.12175,0.22688c0.11153,0.13091 0.17885,0.30065 0.17885,0.48611c0,0.41421 -0.33579,0.75 -0.75,0.75c-0.08135,0 -0.15968,-0.01295 -0.23303,-0.03691c-0.32429,0.41879 -0.69048,0.83491 -1.08095,1.22886c0.06397,0.16271 0.06397,0.30804 0.06397,0.30804v0.75c0,0 0,0.75 -0.75,0.75c-0.5111,0 -0.6739,-0.3483 -0.72576,-0.57019c-0.04585,0.03442 -0.09174,0.06831 -0.13767,0.10166c-0.38844,0.38373 -0.78888,0.73052 -1.19902,1.02867c-0.43941,0.31244 -0.64324,0.68547 -1.08986,1.00234l-0.20479,0.14266c0,0 -0.20514,0.1429 -0.34803,-0.06224c-0.1429,-0.20514 0.06224,-0.34803 0.06224,-0.34803l0.20479,-0.14266c0.1761,-0.11995 0.31439,-0.2515 0.44465,-0.38672c-0.16354,0.00677 -0.35021,-0.04849 -0.53688,-0.23516c-0.53033,-0.53033 0,-1.06066 0,-1.06066l0.54316,-0.43118c0.12409,-0.03138 0.24411,-0.06821 0.36033,-0.11009c-0.12316,-0.20349 -0.12316,-0.42839 -0.12316,-0.42839c0,-0.91667 0,-2.08333 0,-3c0,0 0,-0.57236 0.5,-0.71707c0,-0.60181 0,-1.37327 0,-1.53293c0,0 0,-0.75 0.75,-0.75c0,-0.17601 0,-0.34478 0,-0.5c0,0 0,-0.75 0.75,-0.75c0.09481,0 0.17764,0.01199 0.25,0.03293c0,-0.53098 0,-1.05617 0,-1.53293c0,0 0,-0.75 0.75,-0.75c0.05871,0 0.11282,0.0046 0.1627,0.01307c0.10808,-0.14359 0.28795,-0.26307 0.5873,-0.26307c0.75,0 0.75,0.75 0.75,0.75c0,0.4256 0,0.8512 0,1.27681c0.00943,-0.00289 0.01903,-0.0056 0.02882,-0.00812c0.04992,-0.19214 0.18384,-0.39803 0.51198,-0.4891c-0.19627,-0.43477 0.17888,-0.80992 0.17888,-0.80992zM262.375,168.575c-0.22998,0 -0.38944,-0.07052 -0.5,-0.16831c0,0.41579 0,0.83158 0,1.24737c0.69437,-0.63454 1.22789,-1.47634 1.73844,-2.32936c-0.04766,-0.00189 -0.23462,-0.01578 -0.40848,-0.11788c-0.03948,0.11845 -0.07897,0.2369 -0.11845,0.35535l0.03849,0.26283c0,0 0,0.75 -0.75,0.75zM263.575,165.82793c0.02798,-0.09306 0.05526,-0.18634 0.08193,-0.27981l-0.31226,0.0572c0,0 -0.01119,-0.01119 -0.02869,-0.03193c-0.07064,-0.00391 -0.13405,-0.01485 -0.19098,-0.03132c0,0.01098 0,0.02195 0,0.03293v0.25c0,0 0,0.06668 -0.01988,0.16027c0.00623,0.00455 0.01232,0.00915 0.01827,0.0138c0.16237,-0.12944 0.36062,-0.16262 0.45161,-0.17113z" fill="#dd1818" stroke-width="0.5"/><path d="M268.625,165.825c0,-0.41421 0.33579,-0.75 0.75,-0.75c0.41421,0 0.75,0.33579 0.75,0.75c0,0.41421 -0.33579,0.75 -0.75,0.75c-0.41421,0 -0.75,-0.33579 -0.75,-0.75z" fill="#dd1818" stroke-width="0.5"/><path d="M264.625,174.325c-0.75,0 -0.75,-0.75 -0.75,-0.75l0.01456,-0.35291c-0.13112,-0.65561 -0.25103,-1.28349 -0.34204,-1.91169c-1.3615,-0.09542 -1.90463,-0.61509 -2.59334,-1.89998c0,0 -0.33541,-0.67082 0.33541,-1.00623c0.67082,-0.33541 1.00623,0.33541 1.00623,0.33541c0.3308,0.74079 0.50747,1.01752 1.09927,1.07636c-0.01308,-0.24331 -0.02009,-0.4898 -0.02009,-0.74095c0,0 0,-0.75 0.75,-0.75c0.13173,0 0.24032,0.02314 0.32984,0.06128c-0.02661,-0.27043 -0.05323,-0.54085 -0.07984,-0.81128c0,0 0,-0.75 0.75,-0.75c0.17397,0 0.30759,0.04035 0.41021,0.10234c-0.04057,-0.12172 -0.08115,-0.24345 -0.12172,-0.36517c0,0 -0.19367,-0.58101 0.29404,-0.86798c-0.04092,-0.08299 -0.06969,-0.184 -0.07994,-0.30691c-0.06228,-0.74741 0.68513,-0.80969 0.68513,-0.80969c0.1695,-0.01413 0.34035,-0.02584 0.51226,-0.03583c0.22218,-0.21676 0.55003,-0.21676 0.55003,-0.21676c1.79693,0.00489 2.84677,-0.556 4.38752,-1.40659l-0.05834,-0.17882c0,0 0.33541,-0.67082 1.00623,-0.33541c0.67082,0.33541 0.33541,1.00623 0.33541,1.00623l-0.28288,0.41605c0.18667,0.02442 0.39015,0.12766 0.53288,0.41313c0.33541,0.67082 -0.33541,1.00623 -0.33541,1.00623l-0.65351,0.30679c-1.75948,0.43052 -3.66504,0.36937 -5.48787,0.49126c0.00585,0.0134 0.01017,0.02423 0.01305,0.03179c0.15896,-0.00254 0.28009,0.03783 0.28009,0.03783l0.75,0.25c0,0 0.71151,0.23717 0.47434,0.94868c-0.23717,0.71151 -0.94868,0.47434 -0.94868,0.47434l-0.14915,-0.04972c-0.18365,0.0882 -0.36368,0.0882 -0.36368,0.0882l-0.60927,-0.2579c-0.12942,-0.01889 -0.24811,-0.07083 -0.34723,-0.14698l-0.06872,-0.02909c0.02522,0.10583 0.02522,0.18397 0.02522,0.18397c-0.04306,0.17077 -0.08612,0.34154 -0.12918,0.51232c0.07126,0.01114 0.11635,0.02617 0.11635,0.02617c0.01247,0.00436 0.02497,0.00866 0.0375,0.01289l0.2125,-0.01289c0,0 0.12069,0.04023 0.24608,0.13725c0.25262,0.05198 0.51083,0.07819 0.76675,0.07426h0.25c0,0 0.75,0 0.75,0.75c0,0.75 -0.75,0.75 -0.75,0.75h-0.25c-0.58695,-0.00653 -1.17836,-0.1088 -1.73717,-0.28849c0,0 -0.25658,-0.08553 -0.41023,-0.30794l-0.10215,-0.04764c0.0112,1.30095 0.22706,2.45741 0.48498,3.74699l0.01456,0.64709c0,0 0,0.75 -0.75,0.75z" fill="#bf1515" stroke-width="0.5"/><path d="M269.09646,160.62864l1.17164,-0.46866c0.07727,-0.03622 0.15351,-0.05701 0.21556,-0.06893c0.05942,-0.01147 0.13394,-0.02022 0.21497,-0.01661c0.49371,-0.24898 0.96176,-0.49802 1.43306,-0.74277l-0.03701,-0.03701l0.75,-0.75c0.13572,-0.13572 0.32322,-0.21967 0.53033,-0.21967c0.41421,0 0.75,0.33579 0.75,0.75c0,0.1576 -0.04861,0.30384 -0.13165,0.42456l-0.49431,0.74147c0,0 -0.25594,0.38391 -0.66744,0.34875c-0.0626,0.09489 -0.145,0.17574 -0.24293,0.248c-0.09822,0.22832 -0.29764,0.36127 -0.29764,0.36127l-0.75,0.5c0,0 -0.00693,0.00462 -0.0198,0.01215c-0.10153,0.15208 -0.2302,0.23785 -0.2302,0.23785l-1.02048,0.6117c-0.51421,-0.08344 -1.02842,-0.16687 -1.54264,-0.25031c0,0 -0.73544,-0.14709 -0.58835,-0.88252c0.09531,-0.47656 0.43767,-0.58255 0.66689,-0.59812c0.13461,-0.139 0.29001,-0.20115 0.29001,-0.20115z" fill="#bf1515" stroke-width="0.5"/><path d="M266.28959,163.74582c-0.67082,-0.33541 -0.33541,-1.00623 -0.33541,-1.00623l0.17082,-0.16459c0,-0.5 0,-1 0,-1.5c0,0 0,-0.75 0.75,-0.75c0.75,0 0.75,0.75 0.75,0.75c0,0.5 0,1 0,1.5l-0.32918,0.83541c0,0 -0.33541,0.67082 -1.00623,0.33541z" fill="#bf1515" stroke-width="0.5"/><path d="M262.42864,165.60354c-0.27854,-0.69636 0.41781,-0.9749 0.41781,-0.9749l1.11567,-0.42977c0.24254,-0.21205 0.4523,-0.55413 0.41287,-0.87387c0,0 0,-0.75 0.75,-0.75c0.75,0 0.75,0.75 0.75,0.75c-0.04375,0.79478 -0.54019,1.54782 -1.08713,2.12613l-1.38433,0.57023c0,0 -0.69636,0.27854 -0.9749,-0.41781z" fill="#bf1515" stroke-width="0.5"/></g></g></svg>