<svg version="1.1" xmlns="http://www.w3.org/2000/svg" xmlns:xlink="http://www.w3.org/1999/xlink" width="715.88589" height="543.62018" viewBox="0,0,715.88589,543.62018"><g transform="translate(117.94294,91.81009)"><g data-paper-data="{&quot;isPaintingLayer&quot;:true}" fill-rule="nonzero" stroke="none" stroke-linecap="butt" stroke-linejoin="miter" stroke-miterlimit="10" stroke-dasharray="" stroke-dashoffset="0" style="mix-blend-mode: normal"><path d="M-117.94294,451.81009v-543.62018h715.88589v543.62018z" fill="#000000" stroke-width="0"/><path d="M136.25869,144.23968c-0.60634,2.42535 -3.0317,1.81902 -3.0317,1.81902l-2.36578,-0.61076c-2.56956,0.00607 -5.8623,-0.18636 -7.86024,1.88402c-1.63787,1.69725 -2.99221,5.56678 -4.37434,7.6157c-0.76193,1.12951 -0.99223,2.75372 -2.14563,3.47896c-1.1283,0.70946 -2.65399,0.24892 -3.98099,0.37338c-5.71085,0 -10.30074,-0.25326 -14.43443,-4.73224c-2.87395,-3.114 -3.78808,-3.10197 -1.74107,-7.66618c1.03365,-2.30471 4.14285,-4.43555 5.13712,-6.89216c0.5375,-1.32801 -0.12417,-2.86378 -0.11612,-4.29642c0.00347,-0.61816 0.34949,-1.33666 0.01184,-1.85447c-0.21233,-0.32563 -0.77426,0.10183 -1.1628,0.08939c-2.56963,-0.08226 -4.03643,2.28965 -3.8612,4.85207c0,0 0,2.5 -2.5,2.5c-2.5,0 -2.5,-2.5 -2.5,-2.5c0.19012,-5.12321 3.48845,-10.73893 9.47212,-9.8146c1.45162,0.22424 3.19729,0.32259 4.17052,1.42273c1.48588,1.67963 2.04193,8.90563 1.22906,11.18245c-0.43724,1.22468 -1.56598,2.08144 -2.24508,3.19042c-0.54963,0.89756 -0.81887,1.95857 -1.43185,2.81412c-0.663,0.92535 -2.83804,1.54231 -2.28548,2.53756c0.26363,0.47484 0.94764,0.54435 1.35848,0.89956c1.92903,1.66788 3.1561,2.97563 5.87103,3.2865c1.66509,0.19066 3.3519,-0.01873 5.02787,-0.01873c0.45078,0.12446 0.98548,0.66339 1.35234,0.37337c0.50368,-0.39818 0.20834,-1.2936 0.52103,-1.85437c0.54113,-0.97044 1.40937,-1.72554 2,-2.66667c0.63453,-1.01108 2.30544,-5.07725 2.95898,-5.71763c3.46805,-3.39823 7.68781,-3.45683 12.13977,-3.44931l2.96755,0.72258c0,0 2.42536,0.60634 1.81902,3.0317z" fill="#435b00" stroke-width="0.5"/><path d="M353.24968,143.20798l2.96755,-0.72258c4.45195,-0.00752 8.67172,0.05108 12.13977,3.44931c0.65354,0.64039 2.32446,4.70656 2.95898,5.71763c0.59063,0.94113 1.45887,1.69623 2,2.66667c0.3127,0.56077 0.01736,1.45619 0.52103,1.85437c0.36685,0.29002 0.90156,-0.24891 1.35234,-0.37337c1.67597,0 3.36278,0.20939 5.02787,0.01873c2.71492,-0.31088 3.94199,-1.61863 5.87102,-3.2865c0.41084,-0.35521 1.09486,-0.42473 1.35848,-0.89956c0.55256,-0.99525 -1.62248,-1.61221 -2.28549,-2.53756c-0.61299,-0.85555 -0.88223,-1.91655 -1.43185,-2.81412c-0.6791,-1.10898 -1.80784,-1.96574 -2.24508,-3.19042c-0.81288,-2.27681 -0.25683,-9.50281 1.22905,-11.18245c0.97323,-1.10014 2.7189,-1.19849 4.17052,-1.42273c5.98368,-0.92433 9.28201,4.69139 9.47213,9.81461c0,0 0,2.5 -2.5,2.5c-2.5,0 -2.5,-2.5 -2.5,-2.5c0.17523,-2.56241 -1.29158,-4.93432 -3.8612,-4.85207c-0.38855,0.01244 -0.95047,-0.41502 -1.1628,-0.08939c-0.33765,0.51781 0.00838,1.23631 0.01184,1.85447c0.00805,1.43264 -0.65362,2.9684 -0.11613,4.29642c0.99427,2.4566 4.10348,4.58744 5.13713,6.89216c2.04701,4.56421 1.13288,4.55218 -1.74106,7.66618c-4.13369,4.47897 -8.72358,4.73224 -14.43444,4.73224c-1.327,-0.12446 -2.85269,0.33609 -3.981,-0.37338c-1.15341,-0.72525 -1.3837,-2.34945 -2.14563,-3.47896c-1.38214,-2.04892 -2.73648,-5.91846 -4.37435,-7.6157c-1.99795,-2.07038 -5.29068,-1.87796 -7.86024,-1.88402l-2.36578,0.61076c0,0 -2.42536,0.60634 -3.0317,-1.81902c-0.60634,-2.42535 1.81902,-3.0317 1.81902,-3.0317z" data-paper-data="{&quot;index&quot;:null}" fill="#435b00" stroke-width="0.5"/><text transform="translate(136.33333,147.3) scale(0.5,0.5)" font-size="40" xml:space="preserve" fill="#ff0000" fill-rule="nonzero" stroke="none" stroke-width="1" stroke-linecap="butt" stroke-linejoin="miter" stroke-miterlimit="10" stroke-dasharray="" stroke-dashoffset="0" font-family="Pixel" font-weight="normal" text-anchor="start" style="mix-blend-mode: normal"><tspan x="0" dy="0">Turkey and Squirrel</tspan></text><text transform="translate(176.33333,169.12281) scale(0.45758,0.45758)" font-size="40" xml:space="preserve" fill="#ff0000" fill-rule="nonzero" stroke="none" stroke-width="1" stroke-linecap="butt" stroke-linejoin="miter" stroke-miterlimit="10" stroke-dasharray="" stroke-dashoffset="0" font-family="Pixel" font-weight="normal" text-anchor="start" style="mix-blend-mode: normal"><tspan x="0" dy="0">Animal Dystopia</tspan></text><text transform="translate(209.66667,280.63334) scale(0.5,0.5)" font-size="40" xml:space="preserve" fill="#ff0000" fill-rule="nonzero" stroke="none" stroke-width="1" stroke-linecap="butt" stroke-linejoin="miter" stroke-miterlimit="10" stroke-dasharray="" stroke-dashoffset="0" font-family="Pixel" font-weight="normal" text-anchor="start" style="mix-blend-mode: normal"><tspan x="0" dy="0">Press P</tspan></text></g></g></svg>