<svg version="1.1" xmlns="http://www.w3.org/2000/svg" xmlns:xlink="http://www.w3.org/1999/xlink" width="14.25462" height="5.31151" viewBox="0,0,14.25462,5.31151"><g transform="translate(-234.03091,-197.79865)"><g data-paper-data="{&quot;isPaintingLayer&quot;:true}" fill-rule="nonzero" stroke="none" stroke-width="0.5" stroke-linecap="butt" stroke-linejoin="miter" stroke-miterlimit="10" stroke-dasharray="" stroke-dashoffset="0" style="mix-blend-mode: normal"><path d="M247.86626,201.93861c-0.67082,0.33541 -1.00623,-0.33541 -1.00623,-0.33541l-0.29073,-0.59832c-0.82288,-2.76442 -6.4943,-1.34738 -8.40317,-0.87353c-1.08511,0.26936 -2.53931,-0.04586 -2.6598,1.0683c0,0 -0.18191,0.72761 -0.90951,0.5457c-0.7276,-0.1819 -0.5457,-0.90951 -0.5457,-0.90951c0.67627,-2.10127 1.85204,-1.68143 3.75121,-2.15972c3.00695,-0.75727 8.82928,-1.96093 10.19,1.8544l0.20935,0.40185c0,0 0.33541,0.67082 -0.33541,1.00623z" fill="#3ca435"/><path d="M236.50862,198.81481c2.43902,-1.0253 5.55171,-1.25716 8.00808,-0.7748c0.86146,0.16917 3.19782,1.22196 3.25143,2.30088c0.04471,0.89998 -0.6889,1.78031 -1.42854,2.29498c-0.22447,0.15619 -2.73506,0.13344 -3.30948,0.13197c-3.35093,-0.00857 -5.56329,1.06593 -8.78638,-0.54921c0.0504,-0.94496 -0.39865,-2.06471 0.1512,-2.83488c0.27249,-0.38168 1.10587,-0.53167 2.11369,-0.56893z" fill="#3ca435"/></g></g></svg>