<svg version="1.1" xmlns="http://www.w3.org/2000/svg" xmlns:xlink="http://www.w3.org/1999/xlink" width="55.19305" height="11.82355" viewBox="0,0,55.19305,11.82355"><g transform="translate(-119.62741,-175.68537)"><g data-paper-data="{&quot;isPaintingLayer&quot;:true}" fill-rule="nonzero" stroke-linecap="butt" stroke-linejoin="miter" stroke-miterlimit="10" stroke-dasharray="" stroke-dashoffset="0" style="mix-blend-mode: normal"><path d="M158.70918,187.12224c-8.94445,-0.06069 -17.76321,-0.311 -26.83481,-0.30298c-2.09248,0.00185 -6.36078,1.01233 -8.37756,-0.34034c-0.35016,0.28171 -0.79482,0.44134 -1.34733,0.44134c-0.67185,0 -1.27492,-0.52492 -1.75,-1c-0.07618,-0.07618 -0.14314,-0.15654 -0.20177,-0.24067c2.5308,-1.32808 4.42266,-3.70867 5.09395,-6.56016c0.33454,-0.99153 0.51785,-2.05267 0.52248,-3.15598c0.45974,-0.05247 0.92118,-0.11177 1.37758,-0.17833c0.71871,0.0922 1.43255,0.16962 2.12313,0.16658c4.95048,-0.02176 9.90074,-0.11757 14.85124,-0.101c0.22601,0.00075 0.47648,0.09699 0.70301,0.101c4.08951,0.07227 8.14994,0.17322 12.23918,0.19772c0.02487,0.23748 0.05417,0.47145 0.08666,0.69943c0.0442,0.39699 0.11165,0.78696 0.20094,1.16852c0.06471,0.32154 0.13173,0.61534 0.19563,0.87076c0.70501,2.81775 0.8069,5.62527 1.43489,8.23856c-0.10602,-0.00223 -0.21176,-0.00373 -0.31721,-0.00445z" fill="#b85000" stroke="none" stroke-width="0.5"/><path d="M174.31962,176.26788l-0.0183,10.74019l-54.17305,-0.0923l0.00175,-1.02723c3.56876,-1.5271 6.06927,-5.07047 6.06927,-9.19787c0,-0.08582 -0.00108,-0.17139 -0.00323,-0.2567c0.00025,-0.00988 0.00048,-0.01978 0.0007,-0.02967c0.02426,-0.0724 0.04771,-0.14517 0.07035,-0.2183z" fill-opacity="0.53333" fill="#00a67e" stroke="#827700" stroke-width="1"/></g></g></svg>