<svg version="1.1" xmlns="http://www.w3.org/2000/svg" xmlns:xlink="http://www.w3.org/1999/xlink" width="37.63805" height="31.74152" viewBox="0,0,37.63805,31.74152"><g transform="translate(-223.90368,-167.76317)"><g data-paper-data="{&quot;isPaintingLayer&quot;:true}" fill-rule="nonzero" stroke-width="0.5" stroke-linejoin="miter" stroke-miterlimit="10" stroke-dasharray="" stroke-dashoffset="0" style="mix-blend-mode: normal"><path d="M230.53401,189.52513c-0.06694,-0.0737 -0.13563,-0.14578 -0.20601,-0.21617c-0.5926,-0.70639 -1.2247,-1.36166 -1.87804,-1.99396c0.01167,-0.03474 0.02419,-0.06878 0.03754,-0.10213c-0.17543,-0.1421 -0.34315,-0.2863 -0.49719,-0.43371c-0.05785,-0.03356 -0.11315,-0.07107 -0.16548,-0.11217l-0.34693,-0.26687c-0.31649,-0.29136 -0.63572,-0.58067 -0.95578,-0.8709l-0.12302,-0.25297c-0.46549,-0.51599 -0.96153,-0.92306 -1.52266,-1.2648c-0.17866,-0.17019 -0.35653,-0.34228 -0.53326,-0.51682c-0.08199,-0.17995 -0.12767,-0.37993 -0.12767,-0.59058c0,-0.11303 0.01315,-0.223 0.038,-0.32845l0.14119,-0.6589c0.12508,-0.24296 0.25208,-0.48966 0.40612,-0.73952l0.46412,0.09945c0.21248,-0.69131 0.48746,-1.41393 0.80453,-2.10634c0.1955,-0.36163 0.381,-0.73152 0.55923,-1.10708c0.29546,-0.52961 0.61202,-1.01537 0.93814,-1.42247c0.23156,-0.76515 0.47412,-1.52423 0.78922,-2.27809l-0.1304,-0.04012c0.1705,-0.41048 0.34284,-0.81787 0.52034,-1.21905c0.06245,-0.02066 0.12445,-0.04229 0.186,-0.06488c0.48809,-0.06805 0.95793,-0.19311 1.40257,-0.36824c0.22904,-0.00935 0.45486,-0.03118 0.6768,-0.06481c0.05134,0.09336 0.09255,0.19309 0.1221,0.2977l0.09261,0.30096l0.38076,-0.71922c0.11906,-0.0303 0.23673,-0.06406 0.35291,-0.10117c0.11801,-0.01862 0.2354,-0.04279 0.35216,-0.0723c0.09913,-0.0224 0.19739,-0.04647 0.29468,-0.07223c1.1485,-0.07636 2.21116,-0.46651 3.10301,-1.08549c0.02331,-0.00963 0.04656,-0.0194 0.06973,-0.0293c0.89068,-0.13715 1.71863,-0.46447 2.44106,-0.93922l0.04026,-0.00549c0.15256,-0.12458 0.33138,-0.21822 0.52689,-0.2713l2.70389,-0.80115l0.04551,0.15362c0.96042,-0.37676 1.97974,-0.46693 3.6149,-0.24719h1.93241c0.12363,0 0.24357,0.01574 0.35796,0.0453c0.96168,-1.10637 3.2437,-0.71618 4.91159,-0.3292c1.06679,0.24752 2.78146,1.34525 4.40179,2.76015c0.05734,0.08334 0.11554,0.16717 0.17453,0.25136c0.48524,1.53468 1.5534,2.81029 2.94465,3.567c0.18527,0.18182 0.37125,0.35523 0.55712,0.51834c0.36366,0.69788 0.56724,1.35941 0.54222,1.9354c-0.00509,0.11732 -0.02034,0.23142 -0.04456,0.34262c-0.18829,0.02988 -0.31689,0.17683 -0.31689,0.17683c-2.1988,2.52422 -4.69928,5.10967 -7.0399,7.38627c-1.65901,2.20501 -3.93167,4.04051 -5.82087,6.06661l-0.57094,0.61231c0,0 -0.11447,0.12277 -0.13963,0.29237c-0.96319,0.913 -1.89959,2.02035 -2.65544,3.00339c-0.23731,-0.03304 -0.42356,0.1532 -0.42356,0.1532c-0.46287,0.46287 -0.92651,0.91588 -1.353,1.41278l-0.06184,0.23534c-0.59073,0.58692 -1.14657,1.44247 -1.87986,1.24958c-0.26512,-0.06974 -0.50766,-0.14879 -0.7288,-0.23646c-0.13591,-0.02701 -0.26485,-0.07333 -0.38386,-0.13599l-0.11144,-0.05572c-1.26298,-1.59814 -2.81247,-3.03325 -4.39521,-4.43489c-0.79105,-1.13372 -1.65461,-1.94832 -2.88941,-2.56937c-0.22009,-0.20294 -0.43764,-0.40683 -0.65191,-0.61206c-0.27851,-0.4128 -0.60558,-0.79014 -0.973,-1.12383zM240.50972,181.57343c0.0008,-0.00705 0.0016,-0.01408 0.00239,-0.02111c-0.00216,0.00102 -0.00431,0.00204 -0.00647,0.00305c0.00136,0.00602 0.00271,0.01204 0.00408,0.01806z" fill="#105b58" stroke="none" stroke-linecap="butt"/><path d="M261.13826,177.51982l-20.43929,21.62762l-16.39897,-16.16129" fill="none" stroke="#0c4240" stroke-linecap="round"/><path d="M254.34686,169.34362c0.44989,0.86271 -0.21701,2.05521 -1.11602,2.23204c-5.66371,1.11407 -12.6322,3.05231 -18.79809,3.34315c-0.95872,0.38732 -1.96599,0.59132 -3.03649,0.3237c-2.42486,-0.60621 -0.96536,-2.98019 0.88206,-3.1223l0.00084,-0.0042c1.73251,-1.10251 6.16034,-3.20185 7.54706,-1.04322c4.59424,-1.38252 13.12785,-4.39998 14.52064,-1.72917z" fill="#105b58" stroke="none" stroke-linecap="butt"/><path d="M248.88282,169.27237c0,0.75 -0.75,0.75 -0.75,0.75h-0.06c-0.26959,-0.00018 -0.53919,-0.00037 -0.80878,-0.00055c-1.82683,-0.14053 -3.67633,0.81485 -5.45525,1.34879c-1.93287,0.58014 -3.85621,0.65539 -5.83149,1.03772c-1.2665,0.24514 -2.3821,0.64868 -3.51183,0.91183c-0.0725,0.03113 -0.124,0.04301 -0.124,0.04301c-0.4899,0.11273 -0.98387,0.21021 -1.48105,0.28463l0.02956,0.13792l-0.82441,0.17666c-0.05546,0.01307 -0.11329,0.01999 -0.17274,0.01999c-0.41421,0 -0.75,-0.33579 -0.75,-0.75c0,-0.31811 0.19805,-0.58997 0.47758,-0.69899l0.70396,-0.29332l0.01667,0.04l0.06906,-0.06977c0.32438,-0.05185 0.64799,-0.10952 0.97016,-0.17414c0.93125,-0.4642 2.4668,-0.64316 3.2363,-0.84765c1.84628,-0.49062 3.82984,-0.38451 5.63888,-0.8997c2.26084,-0.64385 4.73243,-1.94541 7.06618,-1.76589c0.25041,-0.00018 0.50081,-0.00037 0.75122,-0.00055h0.06c0,0 0.75,0 0.75,0.75z" fill="#105b58" stroke="none" stroke-linecap="butt"/><path d="M254.29399,171.13468c-1.03607,0.12951 -3.52516,-3.35004 -1.39327,-2.81707c0.13662,-0.1435 0.3295,-0.23293 0.54327,-0.23293c0.36355,0 0.66668,0.25867 0.7354,0.602c0.70759,0.85172 1.30569,2.29912 0.1146,2.448z" fill="#105b58" stroke="none" stroke-linecap="butt"/><path d="M244.50163,171.3405l-15.21063,1.18833l-4.99099,10.45731h23.52895l13.3093,-5.70399l-7.36765,-9.03131l-8.79364,2.85199l2.85199,11.17031l-7.36765,16.63662" fill="none" stroke="#0c4240" stroke-linecap="round"/><path d="M229.52867,172.29117l12.35864,-3.32733l11.40797,-0.95066" fill="none" stroke="#0c4240" stroke-linecap="round"/></g></g></svg>