<svg version="1.1" xmlns="http://www.w3.org/2000/svg" xmlns:xlink="http://www.w3.org/1999/xlink" width="78.74566" height="87.8255" viewBox="0,0,78.74566,87.8255"><g transform="translate(-204.02139,-128.06761)"><g data-paper-data="{&quot;isPaintingLayer&quot;:true}" fill-rule="nonzero" stroke="none" stroke-width="0.5" stroke-linecap="butt" stroke-linejoin="miter" stroke-miterlimit="10" stroke-dasharray="" stroke-dashoffset="0" style="mix-blend-mode: normal"><path d="M216.12357,174.68717c4.44761,-3.31807 11.90262,-1.57335 16.11975,1.21943c0.82501,0.43391 1.46348,0.86706 2.23147,1.3685c0.17375,-0.00713 0.34823,-0.01135 0.52373,-0.01135h0.17977c0,0 0.59918,0 0.59918,0.59918c0,0.07336 -0.00898,0.13774 -0.02475,0.19424c0.02474,0.09368 0.02475,0.16528 0.02475,0.16528v0.17976c0,5.00115 -0.9033,9.98222 -0.9033,14.81367c-1.33816,5.37631 -6.78253,10.34864 -11.01376,13.5233c-1.60525,1.27365 -8.78214,2.29161 -9.39614,3.27496c-0.97865,1.56734 4.13264,2.62857 1.22297,5.40796c-2.335,0.43049 -11.0335,-4.85389 -11.64971,-7.21389c0,0 -0.09278,-0.37116 0.16651,-0.59446c0.02856,-0.14157 0.096,-0.24275 0.096,-0.24275l0.35952,-0.5393c0.23281,-0.3492 0.46589,-0.69818 0.69935,-1.04694c2.48611,-4.99106 6.21521,-9.72394 6.21521,-15.59149c1.26835,-5.1531 4.29148,-9.24868 4.3097,-14.7966c-0.00587,-0.04667 -0.00673,-0.09013 -0.00346,-0.13056c-0.07048,-0.34366 0.24322,-0.57895 0.24322,-0.57895z" fill="#888b44"/><g><path d="M254.533,133.63223c-0.03234,-0.01032 -0.06611,-0.03024 -0.09988,-0.064c-0.16459,-0.16459 0,-0.32919 0,-0.32919l0.27421,-0.17779c0.56801,0.0108 0.95303,0.13643 1.10715,0.53748l0.10761,-0.02152l0.05387,0.26932c0.00358,0.01621 0.00547,0.03307 0.00547,0.05036c0,0.12856 -0.10422,0.23277 -0.23278,0.23277c-0.0391,0 -0.07595,-0.00964 -0.10829,-0.02667l-0.19394,-0.09697c-0.28468,-0.05449 -0.52606,-0.10104 -0.78838,-0.22977c0,0 -0.09602,-0.04801 -0.12504,-0.14402z" fill="#e2e3a2"/><path d="M250.15222,146.4868c-1.51363,0.42847 -5.81485,0.89026 -7.06467,-0.03842c-1.51121,-1.12291 -1.06827,-6.36284 -0.99856,-8.00258c0.02146,-0.50478 -0.24655,-1.97078 0.21563,-2.23488l0.41774,-0.23871c0.08635,-0.42934 0.21599,-0.83023 0.39013,-1.18509c0.3514,-0.71611 0.98492,-1.2738 1.31195,-2.00137c0.73676,-1.63909 1.71383,-3.34137 3.44061,-4.18752c1.70804,-0.83697 4.09479,-0.50459 5.89099,-0.21062c0,0 0.08441,0.01406 0.20364,0.05746l0.15625,0.01623c3.82718,1.65824 7.14938,6.09166 6.39767,10.37975c-0.0786,0.44839 -0.20585,0.92249 -0.38313,1.38854c-0.20417,0.03021 -0.41281,0.0183 -0.62649,0.01316c-0.62713,-0.37902 -1.26151,-0.77298 -1.82964,-1.18543c-0.01781,-0.01963 -0.03224,-0.03045 -0.03224,-0.03045c-0.14343,-0.10755 -0.2723,-0.21242 -0.40907,-0.30539c-0.0079,-0.00633 -0.01577,-0.01266 -0.02363,-0.019c0,0 -0.02044,-0.01636 -0.05311,-0.03124c-0.10248,-0.06439 -0.21137,-0.12154 -0.3354,-0.16788c-0.15911,-0.13766 -0.34178,-0.24771 -0.53717,-0.32904c-0.01981,-0.03571 -0.04165,-0.05755 -0.04165,-0.05755l-0.17375,-0.11846c-0.50352,-0.09873 -1.00328,-0.20384 -1.50389,-0.2971c-0.03752,-0.04432 -0.08185,-0.06649 -0.08185,-0.06649l-0.12726,-0.06273c-0.21195,-0.0847 -0.70565,-0.34618 -1.13116,-0.42959c-0.07629,-0.03821 -0.15031,-0.07501 -0.22387,-0.1097c-0.02093,-0.04119 -0.04659,-0.06686 -0.04659,-0.06686l-0.13295,-0.10634c-0.44871,-0.17789 -0.86708,-0.31209 -1.31535,-0.49326c0,0 -0.21613,-0.08645 -0.30258,0.12968c-0.06429,0.16071 0.03874,0.24971 0.09579,0.28479c0.00738,0.04145 0.02175,0.07018 0.02175,0.07018c0.10555,0.1927 0.2778,0.37187 0.4768,0.53279c0.10265,0.24087 0.21602,0.45856 0.35388,0.68861l0.07428,0.03987c0.36514,0.98196 1.14629,1.84795 2.08106,2.3235l0.08785,0.15111c0.03976,0.07135 0.11598,0.11961 0.20346,0.11961c0.02744,0 0.05377,-0.00475 0.07822,-0.01346c0.33914,0.59801 0.87966,1.34538 1.4823,1.95403c0.02487,0.06262 0.04792,0.12019 0.06867,0.17203c0.07272,0.18049 0.14954,0.35923 0.23048,0.53603c0.01031,0.06378 0.0183,0.12789 0.0245,0.19235c-0.70353,0.18096 -1.46241,0.2796 -2.23771,0.32936c-0.7843,1.16048 -3.25359,2.37274 -4.09196,2.61006z" fill="#888b44"/><path d="M254.3972,138.16353c-0.00061,0.00102 -0.00121,0.00205 -0.0018,0.00308c-0.00405,-0.00203 -0.00811,-0.00405 -0.01216,-0.00608c0.00465,0.001 0.0093,0.002 0.01395,0.003z" fill="#888b44"/><path d="M252.55634,137.13045c0,-0.12856 0.10422,-0.23278 0.23278,-0.23278c0.12856,0 0.23277,0.10422 0.23277,0.23278c0,0.12856 -0.10421,0.23278 -0.23277,0.23278c-0.12856,0 -0.23278,-0.10422 -0.23278,-0.23278z" fill="#c0c649"/><path d="M253.76208,137.40449c0,-0.12856 0.10422,-0.23278 0.23278,-0.23278c0.12856,0 0.23277,0.10422 0.23277,0.23278c0,0.12856 -0.10421,0.23278 -0.23277,0.23278c-0.12856,0 -0.23278,-0.10422 -0.23278,-0.23278z" fill="#c0c649"/><path d="M254.31014,137.5141c0,-0.12856 0.10422,-0.23278 0.23278,-0.23278c0.10761,0 0.19816,0.07302 0.22482,0.17222c0.04159,-0.03884 0.09744,-0.0626 0.15883,-0.0626c0.12856,0 0.23277,0.10421 0.23277,0.23277c0,0.12856 -0.10421,0.23278 -0.23277,0.23278c-0.10761,0 -0.19816,-0.07302 -0.22482,-0.17221c-0.04159,0.03884 -0.09744,0.0626 -0.15883,0.0626c-0.12856,0 -0.23278,-0.10422 -0.23278,-0.23277z" fill="#c0c649"/><path d="M255.13223,137.84293c0,-0.12856 0.10422,-0.23277 0.23277,-0.23277c0.11295,0 0.20712,0.08046 0.22831,0.18718c0.03043,-0.0146 0.06452,-0.02277 0.10053,-0.02277c0.12856,0 0.23277,0.10422 0.23277,0.23278c0,0.12856 -0.10422,0.23277 -0.23277,0.23277c-0.11295,0 -0.20712,-0.08046 -0.22831,-0.18718c-0.03043,0.0146 -0.06453,0.02276 -0.10053,0.02276c-0.12856,0 -0.23277,-0.10422 -0.23277,-0.23277z" fill="#c0c649"/><path d="M256.28316,138.28139c0,-0.12856 0.10422,-0.23278 0.23278,-0.23278c0.12856,0 0.23277,0.10422 0.23277,0.23278c0,0.12856 -0.10422,0.23277 -0.23277,0.23277c-0.12856,0 -0.23278,-0.10421 -0.23278,-0.23277z" fill="#c0c649"/><path d="M256.94083,138.61022c0,-0.12856 0.10422,-0.23277 0.23277,-0.23277c0.12856,0 0.23278,0.10422 0.23278,0.23277c0,0.12856 -0.10422,0.23278 -0.23278,0.23278c-0.12856,0 -0.23277,-0.10422 -0.23277,-0.23278z" fill="#c0c649"/><path d="M257.43409,139.15828c0,-0.12856 0.10422,-0.23277 0.23277,-0.23277c0.12856,0 0.23278,0.10421 0.23278,0.23277c0,0.12856 -0.10422,0.23278 -0.23278,0.23278c-0.12856,0 -0.23277,-0.10422 -0.23277,-0.23278z" fill="#c0c649"/><path d="M258.20137,139.59673c0,-0.12856 0.10422,-0.23278 0.23278,-0.23278c0.12856,0 0.23278,0.10422 0.23278,0.23278c0,0.12856 -0.10422,0.23277 -0.23278,0.23277c-0.12856,0 -0.23278,-0.10422 -0.23278,-0.23277z" fill="#c0c649"/><path d="M258.74943,139.87076c0,-0.12856 0.10422,-0.23277 0.23278,-0.23277c0.12856,0 0.23277,0.10421 0.23277,0.23277c0,0.12856 -0.10421,0.23278 -0.23277,0.23278c-0.12856,0 -0.23278,-0.10422 -0.23278,-0.23278z" fill="#c0c649"/><path d="M259.2975,140.25441c0,-0.12856 0.10421,-0.23278 0.23277,-0.23278c0.12856,0 0.23278,0.10422 0.23278,0.23278c0,0.12856 -0.10422,0.23277 -0.23278,0.23277c-0.12856,0 -0.23277,-0.10422 -0.23277,-0.23277z" fill="#c0c649"/><path d="M252.75611,138.58547c-0.13967,0.18622 -0.32588,0.04655 -0.32588,0.04655l-0.21922,-0.16442c0,0 -0.18622,-0.13966 -0.04656,-0.32588c0.13967,-0.18622 0.32588,-0.04656 0.32588,-0.04656l0.21922,0.16442c0,0 0.18622,0.13966 0.04656,0.32588z" fill="#c0c649"/><path d="M252.50154,138.93906c0,-0.12856 0.10422,-0.23277 0.23278,-0.23277c0.12856,0 0.23277,0.10422 0.23277,0.23277c0,0.12856 -0.10422,0.23278 -0.23277,0.23278c-0.12856,0 -0.23278,-0.10422 -0.23278,-0.23278z" fill="#c0c649"/><path d="M253.0496,139.43232c0,-0.12856 0.10422,-0.23278 0.23277,-0.23278c0.12856,0 0.23277,0.10422 0.23277,0.23278c0,0.12856 -0.10422,0.23277 -0.23277,0.23277c-0.12856,0 -0.23277,-0.10422 -0.23277,-0.23277z" fill="#c0c649"/><path d="M253.65247,140.03518c0,-0.10765 0.07308,-0.19824 0.17234,-0.22485c0.01074,-0.04008 0.03191,-0.07588 0.06043,-0.10434c0.04211,-0.04202 0.10023,-0.068 0.16442,-0.068c0.12856,0 0.23278,0.10421 0.23278,0.23277c0,0.10765 -0.07308,0.19824 -0.17234,0.22485c-0.02661,0.09926 -0.1172,0.17234 -0.22486,0.17234c-0.12856,0 -0.23277,-0.10421 -0.23277,-0.23277z" fill="#c0c649"/><path d="M254.25533,140.47363c0,-0.12856 0.10422,-0.23277 0.23278,-0.23277c0.12856,0 0.23278,0.10422 0.23278,0.23277c0,0.12856 -0.10422,0.23278 -0.23278,0.23278c-0.12856,0 -0.23278,-0.10422 -0.23278,-0.23278z" fill="#c0c649"/><path d="M254.80339,141.02169c0,-0.12856 0.10422,-0.23278 0.23278,-0.23278c0.12856,0 0.23277,0.10422 0.23277,0.23278c0,0.12856 -0.10421,0.23277 -0.23277,0.23277c-0.12856,0 -0.23278,-0.10421 -0.23278,-0.23277z" fill="#c0c649"/><path d="M255.18704,141.51494c0,-0.12856 0.10421,-0.23277 0.23277,-0.23277c0.12856,0 0.23278,0.10422 0.23278,0.23277c0,0.12856 -0.10422,0.23277 -0.23278,0.23277c-0.12856,0 -0.23277,-0.10422 -0.23277,-0.23277z" fill="#c0c649"/><path d="M255.62548,141.9534c0,-0.12856 0.10422,-0.23278 0.23278,-0.23278c0.12856,0 0.23277,0.10422 0.23277,0.23278c0,0.12856 -0.10422,0.23277 -0.23277,0.23277c-0.12856,0 -0.23278,-0.10421 -0.23278,-0.23277z" fill="#c0c649"/><path d="M256.00913,142.44665c0,-0.12856 0.10422,-0.23278 0.23278,-0.23278c0.12856,0 0.23278,0.10422 0.23278,0.23278c0,0.12856 -0.10422,0.23277 -0.23278,0.23277c-0.12856,0 -0.23278,-0.10421 -0.23278,-0.23277z" fill="#c0c649"/><path d="M256.28316,142.99471c0,-0.12856 0.10422,-0.23278 0.23278,-0.23278c0.12856,0 0.23277,0.10422 0.23277,0.23278c0,0.12856 -0.10422,0.23278 -0.23277,0.23278c-0.12856,0 -0.23278,-0.10422 -0.23278,-0.23278z" fill="#c0c649"/><path d="M253.0496,137.29488c0,-0.12856 0.10422,-0.23278 0.23277,-0.23278c0.12856,0 0.23277,0.10422 0.23277,0.23278c0,0.12856 -0.10422,0.23278 -0.23277,0.23278c-0.12856,0 -0.23277,-0.10422 -0.23277,-0.23278z" fill="#c0c649"/><path d="M249.81604,135.86992c0,-0.12856 0.10422,-0.23278 0.23278,-0.23278c0.01525,0 0.03017,0.00147 0.0446,0.00427c0.12545,-0.04024 0.2296,0.06391 0.2296,0.06391l0.04912,0.06601c0.24235,0.12225 0.38627,0.26223 0.65403,0.30878c0,0 0.02764,0.00553 0.06176,0.02235c0.05663,-0.02687 0.11182,-0.02687 0.11182,-0.02687c0.47308,0.00899 0.83746,0.25423 1.25503,0.46302l0.00551,-0.02457c0,0 0.23278,0 0.23278,0.23278c0,0.23278 -0.23278,0.23277 -0.23278,0.23277l-0.21371,-0.02457c-0.32352,-0.16176 -0.65786,-0.41221 -1.02041,-0.41418c0.16479,0.23714 0.3581,0.45227 0.54537,0.68171c0.12298,0.00967 0.18447,0.13265 0.18447,0.13265l0.16233,0.32465c0.01703,0.03234 0.02667,0.0692 0.02667,0.10829c0,0.12856 -0.10422,0.23278 -0.23278,0.23278c-0.07712,0 -0.14549,-0.03751 -0.18785,-0.09528l-0.16279,-0.21706c-0.32915,-0.43887 -0.69949,-0.79623 -0.94555,-1.27997c-0.14757,-0.06897 -0.27646,-0.15397 -0.45209,-0.24087l-0.09534,-0.08587c-0.00653,0.00055 -0.01313,0.00083 -0.01979,0.00083c-0.12856,0 -0.23278,-0.10422 -0.23278,-0.23278z" fill="#9a0000"/><path d="M252.72076,136.96604c0,-0.12856 0.10421,-0.23277 0.23277,-0.23277c0.12856,0 0.23278,0.10422 0.23278,0.23277c0,0.12856 -0.10422,0.23277 -0.23278,0.23277c-0.12856,0 -0.23277,-0.10422 -0.23277,-0.23277z" fill="#9a0000"/><path d="M253.43324,137.07565c0,-0.12856 0.10421,-0.23278 0.23277,-0.23278c0.12856,0 0.23278,0.10422 0.23278,0.23278c0,0.12856 -0.10422,0.23277 -0.23278,0.23277c-0.12856,0 -0.23277,-0.10421 -0.23277,-0.23277z" fill="#9a0000"/><path d="M254.74859,137.34968c0,-0.12856 0.10422,-0.23277 0.23278,-0.23277c0.12856,0 0.23277,0.10422 0.23277,0.23277c0,0.12856 -0.10422,0.23277 -0.23277,0.23277c-0.12856,0 -0.23278,-0.10422 -0.23278,-0.23277z" fill="#9a0000"/><path d="M255.29665,137.67852c0,-0.12856 0.10422,-0.23277 0.23277,-0.23277c0.12856,0 0.23277,0.10422 0.23277,0.23277c0,0.12856 -0.10422,0.23278 -0.23277,0.23278c-0.12856,0 -0.23277,-0.10422 -0.23277,-0.23278z" fill="#9a0000"/><path d="M252.99479,139.81596c0,-0.12856 0.10422,-0.23278 0.23277,-0.23278c0.12856,0 0.23277,0.10422 0.23277,0.23278c0,0.12856 -0.10422,0.23278 -0.23277,0.23278c-0.12856,0 -0.23277,-0.10422 -0.23277,-0.23278z" fill="#9a0000"/><path d="M253.43324,140.14479c0,-0.12856 0.10421,-0.23277 0.23277,-0.23277c0.12856,0 0.23278,0.10422 0.23278,0.23277c0,0.12856 -0.10422,0.23278 -0.23278,0.23278c-0.12856,0 -0.23277,-0.10422 -0.23277,-0.23278z" fill="#9a0000"/><path d="M253.9813,140.47363c0,-0.12856 0.10421,-0.23277 0.23277,-0.23277c0.12856,0 0.23278,0.10422 0.23278,0.23277c0,0.12856 -0.10422,0.23278 -0.23278,0.23278c-0.12856,0 -0.23277,-0.10422 -0.23277,-0.23278z" fill="#9a0000"/><path d="M256.79955,142.20863l-0.01845,0.02153l-0.13155,-0.11275c-0.02247,-0.01904 -0.03764,-0.04645 -0.04066,-0.07741c-0.182,-0.11268 -0.3579,-0.19372 -0.49405,-0.34385c-0.01761,0.04189 -0.05904,0.0713 -0.10734,0.0713c-0.05126,0 -0.09478,-0.03314 -0.1103,-0.07916l-0.00468,-0.01288c-0.06555,0.01385 -0.13133,0.0374 -0.19665,0.07203l-0.00586,0.00469l0.01095,0.0219l-0.01305,0.00653c0.10509,0.02246 0.1839,0.11584 0.1839,0.22763c0,0.12856 -0.10422,0.23278 -0.23278,0.23278c-0.12856,0 -0.23277,-0.10422 -0.23277,-0.23278c0,-0.0703 0.03117,-0.13334 0.08044,-0.17602c-0.03982,-0.01848 -0.06743,-0.05883 -0.06743,-0.10562c0,-0.03716 0.01741,-0.07024 0.04452,-0.09155l0.08818,-0.07054c-0.08155,-0.0835 -0.18416,-0.14987 -0.29411,-0.17628l-0.064,0.0512c-0.02003,0.0163 -0.04559,0.02608 -0.07343,0.02608c-0.06428,0 -0.11639,-0.05211 -0.11639,-0.11639c0,-0.03716 0.01741,-0.07024 0.04452,-0.09155l0.06033,-0.04827c-0.02104,-0.11955 -0.0695,-0.22596 -0.16925,-0.25339h-0.00301l-0.00253,0.0177l-0.06457,-0.00922c0.04352,0.04229 0.07056,0.10146 0.07056,0.16695c0,0.12856 -0.10421,0.23278 -0.23277,0.23278c-0.12856,0 -0.23278,-0.10422 -0.23278,-0.23278c0,-0.10509 0.06964,-0.1939 0.16528,-0.22283c-0.04114,-0.01794 -0.0699,-0.05898 -0.0699,-0.10673c0,-0.00143 0.00003,-0.00284 0.00008,-0.00426c-0.03355,-0.01114 -0.07557,-0.03905 -0.07557,-0.10899c0,-0.11639 0.11638,-0.11639 0.11638,-0.11639c1.23397,0 1.94494,-0.01097 2.94803,0.71054c0.59224,0.70926 0.66649,1.68176 1.276,2.38264c0.08236,0.073 0.16271,0.14935 0.24024,0.23066l0.0043,-0.00861l0.11099,0.05549c0.03936,0.01866 0.0666,0.05877 0.0666,0.10523c0,0.06428 -0.05211,0.11639 -0.11639,0.11639c-0.01382,0 -0.02708,-0.00241 -0.03938,-0.00683l-0.11067,-0.03689l0.00326,-0.00977l-0.02208,0.00159c-0.03073,-0.02394 -0.0604,-0.04837 -0.08907,-0.07325c-0.17766,-0.03454 -0.44288,-0.21401 -0.54928,-0.29547c-0.56371,-0.43156 -0.88117,-0.76818 -1.25176,-1.29644c-0.10118,-0.06794 -0.19504,-0.14367 -0.28207,-0.23877zM257.10198,142.05503c-0.00844,-0.01019 -0.01686,-0.02023 -0.02525,-0.0301l0.00149,0.00744c0.00419,0.00563 0.00834,0.01128 0.01246,0.01695c0.00375,0.00188 0.00752,0.00378 0.0113,0.0057z" fill="#9a0000"/><path d="M255.57068,143.43316c0,-0.12856 0.10421,-0.23278 0.23277,-0.23278c0.01566,0 0.03096,0.00155 0.04576,0.0045c-0.00295,-0.01479 -0.0045,-0.0301 -0.0045,-0.04576c0,-0.06894 0.02996,-0.13086 0.07757,-0.17349c-0.01325,-0.02764 -0.02121,-0.0583 -0.02256,-0.09067c-0.01345,0.00242 -0.02731,0.00368 -0.04146,0.00368c-0.00927,0 -0.01842,-0.00054 -0.0274,-0.00159c-0.00898,0.00106 -0.01814,0.00159 -0.02741,0.00159c-0.12856,0 -0.23277,-0.10422 -0.23277,-0.23278c0,-0.03963 0.00991,-0.07694 0.02737,-0.10961c-0.01746,-0.03267 -0.02737,-0.06998 -0.02737,-0.10961c0,-0.12856 0.10421,-0.23278 0.23277,-0.23278c0.12856,0 0.23278,0.10422 0.23278,0.23278c0,0.02086 -0.00274,0.04107 -0.00789,0.0603c0.03679,0.03937 0.06009,0.09151 0.06249,0.14906c0.01346,-0.00242 0.02731,-0.00368 0.04146,-0.00368c0.12856,0 0.23278,0.10422 0.23278,0.23278c0,0.04192 -0.01109,0.08126 -0.03049,0.11524c0.07227,0.0314 0.12549,0.0984 0.13753,0.17887c0.06725,0.04081 0.11219,0.11473 0.11219,0.19915c0,0.12856 -0.10422,0.23277 -0.23278,0.23277c-0.02445,0 -0.04801,-0.00376 -0.07015,-0.01075c-0.03965,0.07176 -0.11609,0.12037 -0.20389,0.12037c-0.06894,0 -0.13086,-0.02997 -0.17349,-0.07758c-0.03044,0.0146 -0.06453,0.02277 -0.10054,0.02277c-0.12856,0 -0.23277,-0.10422 -0.23277,-0.23277z" fill="#9a0000"/><path d="M259.36584,139.58318c0.12856,0 0.23278,0.10422 0.23278,0.23278c0,0.12856 -0.10422,0.23278 -0.23278,0.23278c-0.10104,0 -0.18703,-0.06437 -0.21922,-0.15433c-0.0322,0.08996 -0.11819,0.15433 -0.21922,0.15433c-0.12856,0 -0.23278,-0.10422 -0.23278,-0.23278c0,-0.12856 0.10422,-0.23278 0.23278,-0.23278c0.10104,0 0.18703,0.06437 0.21922,0.15433c0.0322,-0.08996 0.11818,-0.15433 0.21922,-0.15433z" fill="#9a0000"/><path d="M259.91391,139.80241c0.12856,0 0.23277,0.10422 0.23277,0.23278c0,0.11297 -0.08047,0.20714 -0.18721,0.22832c-0.04118,0.03686 -0.09556,0.05926 -0.15517,0.05926c-0.12856,0 -0.23277,-0.10422 -0.23277,-0.23278c0,-0.00927 0.00054,-0.01842 0.0016,-0.0274c-0.00106,-0.00898 -0.0016,-0.01814 -0.0016,-0.0274c0,-0.12856 0.10422,-0.23278 0.23277,-0.23278c0.01888,0 0.03723,0.00225 0.0548,0.00649c0.01758,-0.00424 0.03593,-0.00649 0.05481,-0.00649z" fill="#9a0000"/><path d="M255.02709,133.4895c-0.23993,0.00262 -0.50217,-0.0175 -0.59379,-0.0175h-0.27403v0c-0.12856,0 -0.23277,-0.10422 -0.23277,-0.23278c0,-0.09293 0.05445,-0.17313 0.13318,-0.21045l0.07544,-0.03771c0.03805,-0.04642 0.08446,-0.06964 0.08446,-0.06964c0.14165,-0.07009 0.54586,-0.1806 0.89271,-0.19905c0.06557,-0.04474 0.1431,-0.04475 0.1431,-0.04475l0.14126,0.01665c0.4229,0.18921 0.52855,0.37437 0.45697,0.50941c0.01171,0.02778 0.01818,0.05831 0.01818,0.09036c0,0.09293 -0.05445,0.17312 -0.13318,0.21045l-0.21471,0.10736l-0.06967,-0.13934c-0.14022,0.02764 -0.28714,0.03205 -0.42715,0.017z" fill="#99926f"/><path d="M255.74766,133.11754c-0.47803,-0.56551 -1.28423,-0.0958 -1.85917,0.18927c0.26664,0.04019 0.53325,0.08204 0.8,0.13174c0.4578,0.06556 0.86616,-0.01112 1.28247,-0.08591c-0.07099,-0.04747 -0.12249,-0.12309 -0.2233,-0.2351zM253.6521,133.16229c0.69194,-0.31936 1.65646,-0.92327 2.2745,-0.19364c0.08885,0.1149 0.23232,0.21752 0.37757,0.21752h0.06054c0,0 0.09571,0 0.11354,0.0868c0.2288,-0.0266 0.46627,-0.0365 0.72094,-0.00825l0.07784,0.00865c0,0 0.11568,0.01285 0.10282,0.12852c-0.01286,0.11568 -0.12853,0.10282 -0.12853,0.10282l-0.07784,-0.00865c-0.93243,-0.10378 -1.62346,0.30031 -2.52291,0.17213c-0.73994,-0.13965 -1.47628,-0.21597 -2.21796,-0.36396c0,0 -0.11413,-0.02283 -0.0913,-0.13696c0.02283,-0.11413 0.13695,-0.0913 0.13695,-0.0913c0.3685,0.07388 0.73638,0.13014 1.10409,0.18506c0.00145,-0.06725 0.06974,-0.09877 0.06974,-0.09877z" fill="#9a0000"/></g><g><path d="M257.0005,153.33146c0.16467,0.088 0.22682,0.29282 0.13882,0.45749c-0.03665,0.06857 -0.09355,0.11936 -0.15938,0.14894c0.04593,0.15708 0.09336,0.31626 0.14247,0.47765c1.2953,4.26877 0.49777,8.80943 1.75454,12.97635c0.23677,4.44974 0.02692,8.53075 -0.76173,12.89636c-0.74171,2.95984 -2.26644,5.72304 -3.50614,8.50754c-0.46275,1.03939 -1.39162,2.83494 -0.86838,3.92688c-0.91473,1.62693 1.39208,4.39912 1.4803,6.2049c0.1192,2.44008 -2.03692,3.68262 -3.56158,5.03124c-4.19102,-0.03295 -7.17488,1.58141 -11.07089,-1.53726c-2.59794,-1.5795 -8.32922,-4.06563 -9.33907,-7.01006c-2.49685,-3.65211 -5.46241,-5.35592 -9.27608,-7.39396c-4.49912,-2.4248 -7.21282,-4.53102 -8.22965,-9.80033c-0.04447,-0.89277 0.00057,-1.88874 0.11652,-2.93348c-0.00108,-0.00056 -0.00216,-0.00113 -0.00323,-0.0017c-0.16467,-0.088 -0.22682,-0.29282 -0.13882,-0.45749c0.04743,-0.08874 0.12877,-0.14772 0.21949,-0.16945c0.00312,-0.02312 0.00628,-0.04627 0.00947,-0.06942c-0.06753,0.00886 -0.13837,-0.00255 -0.20302,-0.0371c-0.16467,-0.088 -0.22682,-0.29282 -0.13882,-0.45749c0.0845,-0.15813 0.27674,-0.22171 0.43769,-0.1486c0.02667,-0.16652 0.05486,-0.33364 0.08447,-0.50118c-0.03708,-0.0056 -0.07386,-0.01752 -0.10883,-0.03621c-0.16467,-0.088 -0.22682,-0.29282 -0.13882,-0.45749c0.07327,-0.1371 0.22752,-0.20314 0.37215,-0.17061c0.02318,-0.11712 0.047,-0.23431 0.07146,-0.3515c-0.06985,0.01082 -0.14368,-0.0001 -0.21082,-0.03598c-0.16467,-0.088 -0.22682,-0.29282 -0.13882,-0.45749c0.088,-0.16467 0.29282,-0.22682 0.45749,-0.13882c0.00919,0.00491 0.01806,0.01019 0.0266,0.01579c0.03636,-0.15991 0.07382,-0.3196 0.11232,-0.47891c-0.08671,0.03104 -0.18572,0.02672 -0.27335,-0.02011c-0.16467,-0.088 -0.22682,-0.29282 -0.13882,-0.45749c0.088,-0.16467 0.29282,-0.22682 0.45749,-0.13882c0.03516,0.01879 0.06565,0.04291 0.091,0.07083c0.02046,-0.0793 0.04116,-0.15845 0.06211,-0.23743c-0.01766,-0.00593 -0.03506,-0.01341 -0.05205,-0.02248c-0.16467,-0.088 -0.22682,-0.29282 -0.13882,-0.45749c0.07289,-0.1364 0.22597,-0.20247 0.36996,-0.1711c0.0582,-0.20419 0.11792,-0.40682 0.17897,-0.60747c-0.06026,-0.09885 -0.06813,-0.2261 -0.00962,-0.33559c0.03698,-0.0692 0.09459,-0.12029 0.16118,-0.14975c0.02439,-0.07615 0.04899,-0.15196 0.07375,-0.2274c-0.0637,0.00594 -0.12981,-0.00609 -0.19045,-0.0385c-0.16467,-0.088 -0.22681,-0.29282 -0.13881,-0.45749c0.088,-0.16467 0.29282,-0.22682 0.45749,-0.13882c0.02593,0.01386 0.04932,0.03061 0.06997,0.04964c0.06055,-0.17325 0.12197,-0.34412 0.18418,-0.51234c-0.03425,-0.00606 -0.06812,-0.01755 -0.10046,-0.03483c-0.16467,-0.088 -0.22682,-0.29282 -0.13882,-0.45749c0.088,-0.16467 0.29282,-0.22682 0.45749,-0.13882c0.00663,0.00355 0.0131,0.00728 0.0194,0.0112c0.02062,-0.05188 0.0413,-0.10346 0.06205,-0.1547c-0.00125,-0.00064 -0.00248,-0.00129 -0.00372,-0.00195c-0.16467,-0.088 -0.22682,-0.29282 -0.13882,-0.45749c0.07872,-0.1473 0.25092,-0.21258 0.40423,-0.16172c0.05697,-0.12985 0.11431,-0.25707 0.17194,-0.38144c-0.0039,-0.0019 -0.00777,-0.00387 -0.01163,-0.00593c-0.16467,-0.088 -0.22682,-0.29282 -0.13882,-0.45749c0.06313,-0.11813 0.18639,-0.1835 0.31181,-0.17853c0.01743,-0.07043 0.03584,-0.14137 0.0552,-0.21282c-0.04546,-0.09399 -0.0469,-0.20767 0.00608,-0.30679c0.00959,-0.01794 0.02056,-0.03467 0.03272,-0.05012c-0.14128,-0.09587 -0.19025,-0.28491 -0.10798,-0.43886c0.07388,-0.13826 0.23014,-0.20425 0.37582,-0.16977c0.03705,-0.1029 0.07563,-0.20651 0.11566,-0.31075c-0.03824,-0.00538 -0.0762,-0.01745 -0.11223,-0.0367c-0.16467,-0.088 -0.22682,-0.29282 -0.13882,-0.45749c0.07559,-0.14145 0.23739,-0.20726 0.38589,-0.16721c-0.08608,-0.10264 -0.10612,-0.25132 -0.03912,-0.3767c0.06544,-0.12244 0.19545,-0.1882 0.32553,-0.1777c-0.05328,-0.09683 -0.05806,-0.21784 -0.00208,-0.32259c0.0671,-0.12556 0.20213,-0.19152 0.33549,-0.17675c0.1011,-0.20651 0.20594,-0.41395 0.31399,-0.62183c-0.10626,-0.10227 -0.13647,-0.26635 -0.06353,-0.40284c0.07279,-0.1362 0.2255,-0.20227 0.3693,-0.17124c0.0612,-0.11229 0.1232,-0.22457 0.18591,-0.33678c-0.00459,-0.06173 0.0077,-0.12547 0.03904,-0.18411c0.03404,-0.0637 0.08557,-0.11206 0.14549,-0.14232c0.11644,-0.20371 0.23498,-0.40693 0.35513,-0.60922c-0.16243,-0.08887 -0.22331,-0.29221 -0.13584,-0.45588c0.088,-0.16467 0.29282,-0.22682 0.45749,-0.13882c0.00953,0.0051 0.01873,0.01058 0.02757,0.01644c0.05563,-0.09066 0.1115,-0.18105 0.16755,-0.27111c-0.13432,-0.09768 -0.17948,-0.28191 -0.09898,-0.43255c0.088,-0.16467 0.29282,-0.22682 0.45749,-0.13882c0.00055,0.00029 0.00109,0.00059 0.00164,0.00088c0.09267,-0.14479 0.18558,-0.28846 0.27853,-0.43086c-0.16135,-0.08928 -0.2216,-0.2919 -0.1344,-0.45508c0.088,-0.16467 0.29282,-0.22682 0.45749,-0.13882c0.01733,0.00926 0.03353,0.01982 0.04853,0.03148c0.04609,-0.06894 0.09213,-0.13749 0.13808,-0.20564c-0.03739,-0.09028 -0.03554,-0.19598 0.01411,-0.28888c0.06184,-0.11572 0.18138,-0.18081 0.30412,-0.17874c0.20537,-0.29904 0.40794,-0.58884 0.60542,-0.86734c-0.02217,-0.00645 -0.04402,-0.01528 -0.06519,-0.0266c-0.16467,-0.088 -0.22682,-0.29282 -0.13882,-0.45749c0.088,-0.16467 0.29282,-0.22682 0.45749,-0.13882c0.04854,0.02595 0.08818,0.06204 0.11768,0.10426c0.11169,-0.15467 0.22114,-0.30497 0.32788,-0.4505c-0.09165,-0.10281 -0.11445,-0.25583 -0.04576,-0.38438c0.08468,-0.15845 0.27751,-0.22197 0.43867,-0.14815c0.0819,-0.11188 0.16359,-0.22501 0.24515,-0.33926c-0.01081,-0.00441 -0.02148,-0.00941 -0.032,-0.01503c-0.16467,-0.088 -0.22682,-0.29282 -0.13882,-0.45749c0.088,-0.16467 0.29282,-0.22682 0.45749,-0.13882c0.02015,0.01077 0.03878,0.02329 0.05578,0.03727c-0.08309,-0.10247 -0.10168,-0.24877 -0.0356,-0.37242c0.08647,-0.1618 0.28573,-0.22462 0.44886,-0.14327c0.17969,-0.26495 0.35965,-0.53337 0.54057,-0.80376c-0.06409,0.00623 -0.13066,-0.00576 -0.19171,-0.03839c-0.16467,-0.088 -0.22681,-0.29282 -0.13881,-0.45749c0.088,-0.16467 0.29282,-0.22681 0.45749,-0.13881c0.00814,0.00435 0.01602,0.00898 0.02365,0.01388c-0.03454,-0.08875 -0.03156,-0.19149 0.01685,-0.28207c0.088,-0.16467 0.29282,-0.22682 0.45749,-0.13882c0.01832,0.00978 0.03535,0.02101 0.05106,0.03347c0.08956,-0.13271 0.17956,-0.26546 0.27006,-0.3981c-0.10968,-0.10196 -0.14167,-0.26856 -0.06777,-0.40685c0.08622,-0.16133 0.28457,-0.22426 0.44744,-0.14398c0.03172,-0.04549 0.06351,-0.09095 0.09538,-0.13636c-0.00254,-0.00128 -0.00508,-0.0026 -0.0076,-0.00395c-0.16467,-0.088 -0.22682,-0.29282 -0.13882,-0.45749c0.088,-0.16467 0.29282,-0.22682 0.45749,-0.13882c0.0288,0.01539 0.05445,0.03435 0.07672,0.05604c0.06819,-0.09414 0.13676,-0.18795 0.20575,-0.28136c-0.04307,-0.09297 -0.04351,-0.20433 0.00851,-0.30166c0.06955,-0.13013 0.21205,-0.19625 0.35003,-0.17482c0.14874,-0.19382 0.29955,-0.3854 0.45274,-0.57417c-0.02931,-0.08564 -0.02437,-0.18277 0.02166,-0.2689c0.06918,-0.12944 0.21053,-0.19553 0.34783,-0.17514c0.10726,-0.12557 0.21572,-0.24962 0.32546,-0.37193c-0.16329,-0.08854 -0.22465,-0.29244 -0.13698,-0.45649c0.088,-0.16467 0.29282,-0.22682 0.45749,-0.13882c0.05291,0.02828 0.09524,0.06861 0.12539,0.1158c0.05143,-0.05328 0.10316,-0.10616 0.15517,-0.1586c-0.09017,-0.10279 -0.11225,-0.25465 -0.04399,-0.38237c0.088,-0.16467 0.29282,-0.22682 0.45749,-0.13882c0.02704,0.01445 0.05131,0.03205 0.07261,0.0521c0.00907,-0.00836 0.01816,-0.01672 0.02725,-0.02505c-0.02205,-0.08047 -0.01453,-0.16921 0.0279,-0.24861c0.08305,-0.15541 0.27017,-0.21951 0.42937,-0.15224c0.04663,-0.03901 0.0935,-0.07763 0.14061,-0.11589c-0.01174,-0.00467 -0.02335,-0.01005 -0.03475,-0.01614c-0.16467,-0.088 -0.22682,-0.29282 -0.13882,-0.45749c0.088,-0.16467 0.29282,-0.22682 0.45749,-0.13882c0.10083,0.05389 0.16322,0.15157 0.17624,0.25701c0.16634,-0.12196 0.33571,-0.23915 0.50833,-0.35116c-0.02846,-0.08508 -0.02319,-0.18125 0.02243,-0.26663c0.088,-0.16467 0.29282,-0.22682 0.45749,-0.13882c0.03245,0.01734 0.06092,0.03922 0.08505,0.06444c0.15733,-0.08794 0.31729,-0.17159 0.48002,-0.25067c0.05555,-0.03678 0.11147,-0.07348 0.16773,-0.11008c-0.02686,-0.084 -0.02102,-0.17837 0.02384,-0.2623c0.088,-0.16467 0.29282,-0.22682 0.45749,-0.13882c0.02632,0.01406 0.05002,0.0311 0.0709,0.0505c0.0428,-0.02657 0.08575,-0.05311 0.12885,-0.07963c-0.00573,-0.06339 0.00637,-0.1291 0.0386,-0.18942c0.088,-0.16467 0.29282,-0.22681 0.45749,-0.13881c0.00795,0.00425 0.01566,0.00877 0.02312,0.01354c0.11318,-0.06768 0.22714,-0.13531 0.34177,-0.20297c-0.0144,-0.07368 -0.00446,-0.1526 0.03368,-0.22397c0.088,-0.16467 0.29282,-0.22682 0.45749,-0.13882c0.02155,0.01152 0.04133,0.02502 0.05926,0.04019c0.24954,-0.14549 0.50125,-0.29154 0.75396,-0.43881c-0.01439,-0.07368 -0.00445,-0.15258 0.03369,-0.22395c0.088,-0.16467 0.29282,-0.22682 0.45749,-0.13882c0.02163,0.01156 0.04148,0.02513 0.05946,0.04036c0.203,-0.11961 0.40609,-0.24027 0.60864,-0.36235c-0.06874,-0.1007 -0.08049,-0.23525 -0.01905,-0.35022c0.088,-0.16467 0.29282,-0.22681 0.45749,-0.13881c0.06052,0.03234 0.10719,0.08046 0.13765,0.13655c0.13234,-0.08234 0.26419,-0.16541 0.39539,-0.24932c-0.03142,-0.08695 -0.02726,-0.18637 0.01975,-0.27433c0.088,-0.16467 0.29282,-0.22681 0.45749,-0.13881c0.02739,0.01463 0.05193,0.03249 0.07343,0.05286c0.13155,-0.08817 0.26216,-0.17736 0.39165,-0.26765c-0.02695,-0.08408 -0.02114,-0.17855 0.02376,-0.26257c0.088,-0.16467 0.29282,-0.22682 0.45749,-0.13882c0.01456,0.00778 0.02832,0.01647 0.04124,0.02597c0.22322,-0.16551 0.44212,-0.33492 0.65569,-0.50878c-0.02909,-0.00654 -0.05778,-0.01707 -0.08535,-0.0318c-0.16467,-0.088 -0.22682,-0.29282 -0.13882,-0.45749c0.088,-0.16467 0.29282,-0.22682 0.45749,-0.13882c0.10853,0.058 0.17253,0.16676 0.17835,0.28132c0.23689,-0.20674 0.46586,-0.41984 0.68533,-0.64012c-0.03174,-0.00635 -0.06309,-0.0174 -0.09311,-0.03345c-0.16467,-0.088 -0.22682,-0.29282 -0.13882,-0.45749c0.088,-0.16467 0.29282,-0.22682 0.45749,-0.13882c0.08724,0.04662 0.14571,0.12604 0.16832,0.21489c0.22846,-0.25298 0.44422,-0.51533 0.64519,-0.78817c-0.10048,0.06764 -0.2341,0.07889 -0.34838,0.01782c-0.16467,-0.088 -0.22682,-0.29282 -0.13882,-0.45749c0.088,-0.16467 0.29282,-0.22682 0.45749,-0.13882c0.14193,0.07585 0.20771,0.2385 0.1668,0.38741c0.08718,-0.1248 0.17127,-0.25176 0.25208,-0.38101c0.33205,-0.01952 0.66565,-0.07192 0.98304,-0.17147l0.24956,-0.07573c0,0 0.3235,-0.09815 0.42166,0.22534c0.00509,0.01676 0.00904,0.03292 0.01196,0.04849c0.14921,-0.07462 0.31181,0.01228 0.31181,0.01228c3.16447,1.6911 5.68284,4.42184 8.62883,6.27493c3.32862,3.54995 3.56669,6.24056 4.72351,10.39554c0.06784,-0.00912 0.13908,0.00223 0.20406,0.03696zM224.7289,151.24953c-0.006,-0.00336 -0.01185,-0.00688 -0.01757,-0.01055c0.00311,0.00797 0.00591,0.01606 0.0084,0.02425c0.00305,-0.00457 0.00612,-0.00913 0.00917,-0.0137z" fill="#888b44"/><path d="M231.82201,195.64425c-0.24544,0.23247 -0.47791,-0.01297 -0.47791,-0.01297l-0.26257,-0.29454c-0.85444,-1.59422 -1.93366,-3.00331 -2.70147,-4.64915c-0.7918,-2.59113 -1.7535,-5.4826 -2.25994,-8.15763c0,0 -0.06183,-0.33236 0.27053,-0.39419c0.33236,-0.06184 0.39419,0.27052 0.39419,0.27052c0.47998,2.63188 1.45925,5.49032 2.22667,8.03963c0.75319,1.61449 1.82563,3.00357 2.66595,4.57144l0.15753,0.14899c0,0 0.23246,0.24544 -0.01298,0.47791z" fill="#6f7238"/><path d="M251.86364,203.36757c-0.10558,-0.05642 -0.15381,-0.13026 -0.17203,-0.2021c-0.89168,-0.48223 -1.67203,-0.94819 -2.43954,-1.64306c0,0 -0.25061,-0.2269 -0.02372,-0.4775c0.22689,-0.25061 0.4775,-0.02372 0.4775,-0.02372c0.78916,0.71447 1.58417,1.16371 2.52198,1.66488l0.0933,0.54268c0,0 -0.15933,0.29815 -0.45749,0.13882z" fill="#6f7238"/><path d="M254.05713,189.42592c-0.27456,-0.14673 -0.16117,-0.41118 -0.14151,-0.45211c-0.0643,-0.65939 -0.1286,-1.31879 -0.19291,-1.97818c-0.26677,-2.78666 -3.0383,-5.54322 -5.2685,-7.14792c-1.9519,-2.28061 -3.69829,-3.935 -6.3508,-5.35252c0,0 -0.29816,-0.15933 -0.13882,-0.45749c0.15933,-0.29816 0.45749,-0.13882 0.45749,-0.13882c2.69168,1.43845 4.5282,3.12582 6.49274,5.45387c2.37387,1.77041 5.18105,4.56564 5.48082,7.57726c0.06761,0.69325 0.1352,1.3865 0.20281,2.07976l-0.08383,0.27733c0,0 -0.15933,0.29816 -0.45749,0.13882z" fill="#6f7238"/><path d="M257.85528,157.72261c0.07693,-0.05133 0.18853,-0.08106 0.33251,-0.00412c0.29816,0.15933 0.13882,0.45749 0.13882,0.45749l-0.42595,0.25375c-3.06304,-0.81607 -5.30509,-1.93852 -8.22891,-3.51282c-2.15519,-1.95122 -4.93675,-2.45126 -6.69101,-4.92756c0,0 -0.19543,-0.27585 0.08043,-0.47127c0.27586,-0.19542 0.47128,0.08043 0.47128,0.08043c1.69351,2.39054 4.43752,2.87245 6.52845,4.7655c2.79418,1.48117 4.8932,2.6342 7.79439,3.35861z" fill="#6f7238"/><path d="M257.15442,160.38282c0.19542,0.27586 -0.08043,0.47127 -0.08043,0.47127l-0.38084,0.18694c-2.52348,-0.07253 -4.8767,-1.90854 -7.07308,-3.08229c-2.47619,-1.32338 -6.41806,-2.96139 -8.09618,-5.24327c0,0 -0.19543,-0.27586 0.08043,-0.47128c0.27586,-0.19542 0.47127,0.08043 0.47127,0.08043c1.45251,2.16543 5.59441,3.8253 7.86316,5.03781c2.0834,1.11337 4.38233,2.94127 6.77274,3.00272l-0.02835,-0.06277c0,0 0.27585,-0.19543 0.47127,0.08043z" fill="#6f7238"/><path d="M254.31654,164.51845c0.07674,-0.06238 0.19779,-0.11094 0.35985,-0.02433c0.29816,0.15933 0.13882,0.45749 0.13882,0.45749l-0.38088,0.26186c-2.75782,-0.30539 -4.50313,-1.50539 -6.96087,-2.81634c-2.87658,-1.54906 -5.34681,-3.73352 -8.2401,-5.27971c0,0 -0.29815,-0.15933 -0.13882,-0.45749c0.15933,-0.29816 0.45749,-0.13882 0.45749,-0.13882c2.89144,1.5452 5.35678,3.75238 8.2401,5.2797c2.32614,1.24533 3.97654,2.38933 6.52441,2.71763z" fill="#6f7238"/><path d="M252.15728,168.53939c0.07494,-0.06958 0.20282,-0.13564 0.37936,-0.04129c0.29816,0.15933 0.13882,0.45749 0.13882,0.45749l-0.35285,0.26379c-2.36998,-0.07456 -4.44139,-0.14652 -6.59812,-1.29518c-2.56579,-1.37121 -7.70192,-3.41403 -8.29861,-6.55004c0,0 -0.06184,-0.33236 0.27052,-0.39419c0.33236,-0.06184 0.39419,0.27052 0.39419,0.27052c0.51281,2.82972 5.64122,4.84218 7.95258,6.07741c1.99081,1.06781 3.93052,1.16137 6.11411,1.2115z" fill="#6f7238"/><path d="M249.21185,176.35911c-0.29816,-0.15933 -0.13882,-0.45749 -0.13882,-0.45749l0.09307,-0.15275c1.22664,-1.34985 2.90179,-2.61903 4.7072,-3.04476c0.75759,-0.17864 2.31465,-0.14897 2.65786,-0.92136c0,0 0.15933,-0.29816 0.45749,-0.13882c0.29816,0.15933 0.13882,0.45749 0.13882,0.45749c-1.05007,1.78077 -5.67265,2.11865 -7.46016,4.10123l0.00202,0.01764c0,0 -0.15933,0.29816 -0.45749,0.13882z" fill="#6f7238"/><path d="M228.4514,161.10284c-0.29816,-0.15933 -0.13882,-0.45749 -0.13882,-0.45749l0.04552,-0.08519c1.15312,-2.08919 2.85625,-4.70972 4.40732,-6.55304c1.85341,-0.93318 3.34186,-5.48828 4.30895,-7.29793c0,0 0.15933,-0.29816 0.45749,-0.13882c0.29816,0.15933 0.13882,0.45749 0.13882,0.45749c-1.063,1.98912 -2.48625,6.38028 -4.4763,7.50187c-1.42857,1.79194 -3.21703,4.34462 -4.23998,6.34911l-0.04552,0.08519c0,0 -0.15933,0.29815 -0.45749,0.13882z" fill="#6f7238"/><path d="M218.54088,179.62595c-0.23247,-0.24544 0.01298,-0.47791 0.01298,-0.47791l0.20363,-0.19149c2.47963,-2.73748 3.67393,-5.66658 5.38047,-8.85993c1.4174,-2.6523 2.10421,-5.57701 3.50691,-8.2018c0,0 0.15933,-0.29815 0.45749,-0.13882c0.29816,0.15933 0.13882,0.45749 0.13882,0.45749c-1.40118,2.62196 -2.08981,5.55004 -3.50692,8.2018c-1.72994,3.23715 -2.96278,6.21829 -5.47555,8.99504l-0.23991,0.2286c0,0 -0.24544,0.23247 -0.47791,-0.01297z" fill="#6f7238"/><path d="M242.99185,144.76601c-0.23247,-0.24544 0.01297,-0.47791 0.01297,-0.47791l0.30563,-0.27307c1.30523,-0.69955 4.37096,-1.08495 5.18485,-2.05441c0,0 0.22689,-0.25061 0.4775,-0.02372c0.25061,0.22689 0.02372,0.4775 0.02372,0.4775c-1.08059,1.13717 -3.8557,1.38673 -5.36667,2.19655l-0.16009,0.16804c0,0 -0.24544,0.23247 -0.47791,-0.01297z" fill="#6f7238"/></g><g fill="#979b4c"><g><path d="M259.52089,159.67721c-0.03674,0.01189 -0.07587,0.01613 -0.11476,0.01204l0.13293,0.04689c-0.00822,-0.01892 -0.01432,-0.0387 -0.01818,-0.05893zM259.29394,159.65199c-0.12387,-0.07336 -0.16984,-0.228 -0.11024,-0.35578c-0.05694,0.00577 -0.11615,-0.00596 -0.16917,-0.03736c-0.13187,-0.0781 -0.17545,-0.24831 -0.09735,-0.38018l0.19964,-0.33709l0.14623,0.0866c0.06532,-0.07539 0.13513,-0.13708 0.20646,-0.18577c-0.02803,-0.0305 -0.05154,-0.07226 -0.06611,-0.12913c-0.06884,-0.26882 0.19998,-0.33767 0.19998,-0.33767c0.02227,-0.00568 0.04425,-0.0114 0.06595,-0.01719c-0.40634,-0.61283 -1.09328,-0.83413 -1.53064,-1.50053c0,0 -0.04444,-0.06896 -0.0475,-0.15606c-1.03037,-2.11172 -3.10728,-3.15441 -5.07405,-4.31923c-2.23409,-1.32315 -4.55119,-2.21165 -6.80244,-3.54496c0,0 -0.23877,-0.14141 -0.09735,-0.38018c0.14141,-0.23877 0.38017,-0.09736 0.38017,-0.09736c2.25136,1.33337 4.56644,2.22068 6.80245,3.54495c2.13535,1.26467 4.21401,2.38465 5.34629,4.67192l0.084,0.12639c0,0 0.01856,0.0288 0.03252,0.07269c0.44791,0.54818 1.06236,0.78158 1.44218,1.40281c0.67067,-0.28808 0.95178,-0.73319 1.11874,-1.63343l0.03422,-0.15871c0,0 0.05865,-0.27124 0.32988,-0.21259c0.27123,0.05865 0.21258,0.32988 0.21258,0.32988l-0.03125,0.14402c-0.06261,0.32751 -0.1419,0.60947 -0.24525,0.8536c0.71474,0.14737 1.40394,0.3296 2.1245,0.46491l0.18686,0.01146c0,0 0.2768,0.0197 0.2571,0.2965c-0.0197,0.2768 -0.2965,0.2571 -0.2965,0.2571l-0.25006,-0.01963c-0.36645,-0.06904 -0.72544,-0.15028 -1.08387,-0.23279c0.02728,0.17132 0.0467,0.33676 0.05846,0.49587c0.55388,-0.00202 1.11641,0.19409 1.59058,0.47051c0,0 0.23877,0.14141 0.09736,0.38018c-0.14141,0.23877 -0.38018,0.09736 -0.38018,0.09736c-0.36676,-0.22155 -0.85029,-0.40393 -1.29839,-0.39952c-0.00757,0.16684 -0.02524,0.32436 -0.05268,0.47186c0.48631,0.15491 0.96707,0.36531 1.39702,0.61889l0.24031,0.1721c0,0 0.22499,0.16245 0.06254,0.38744c-0.16245,0.22499 -0.38743,0.06254 -0.38743,0.06254l-0.19824,-0.14454c-0.38932,-0.23164 -0.82971,-0.42475 -1.27348,-0.56597c-0.05494,0.12476 -0.12005,0.23765 -0.19498,0.3379c0.50362,0.31628 0.97798,0.65668 1.43768,1.04572l0.23361,0.13725c0,0 0.23877,0.14141 0.09736,0.38018c-0.14141,0.23877 -0.38018,0.09735 -0.38018,0.09735l-0.27203,-0.16221c-0.49746,-0.41693 -1.00512,-0.77966 -1.5531,-1.11588c-0.33943,0.18469 -0.77447,0.22571 -1.29361,0.09696c-0.01231,0.04508 -0.0301,0.07511 -0.0301,0.07511c-0.48019,0.81079 -0.94794,1.66848 -1.81509,2.1147l-0.00189,0.00137c-0.06326,0.25931 -0.32748,0.20218 -0.32748,0.20218l-0.21838,-0.05008c-3.36925,-0.27684 -5.09784,-0.97584 -7.99966,-3.01031c-1.92452,-1.35038 -6.42905,-2.76173 -7.50964,-4.84056c0,0 -0.12023,-0.2501 0.12988,-0.37033c0.2501,-0.12023 0.37033,0.12987 0.37033,0.12987c0.7479,1.79915 5.69964,3.48577 7.32804,4.62658c2.81443,1.97323 4.44589,2.70637 7.72045,2.91116l0.10949,0.02263c0.03641,-0.04743 0.077,-0.07359 0.077,-0.07359l0.07082,-0.04389c0.75176,-0.3744 1.15948,-1.17451 1.57066,-1.87217c-0.20598,-0.08659 -0.42238,-0.19629 -0.64867,-0.33031l-0.1594,-0.04517c0,0 -0.26376,-0.08624 -0.17751,-0.35c0.06789,-0.20764 0.2458,-0.19837 0.31843,-0.18503c-0.00196,-0.00109 -0.00391,-0.00221 -0.00585,-0.00336zM260.31021,158.87224c-0.02102,0.01216 -0.04225,0.02459 -0.06369,0.03731c-0.00127,0.00371 -0.00257,0.00744 -0.00389,0.01119c0.02299,-0.01631 0.0455,-0.03248 0.06759,-0.0485z"/><path d="M246.92984,148.21302c0,0 0.27421,0.04262 0.23159,0.31683c-0.04262,0.27421 -0.31683,0.23158 -0.31683,0.23158c-0.28435,-0.05158 -0.37225,-0.01233 -0.58571,0.12744c-0.90315,1.89679 -1.99048,3.73632 -3.04412,5.52686c-0.06402,0.1081 -0.12805,0.21621 -0.19207,0.32431c0.0559,0.09678 0.13877,0.17903 0.26074,0.24049l0.13432,0.07955c0,0 0.23877,0.14141 0.09735,0.38018c-0.14141,0.23877 -0.38018,0.09736 -0.38018,0.09736l-0.13431,-0.07955c-0.11144,-0.07224 -0.20327,-0.14773 -0.27895,-0.22684c-0.23451,0.03257 -0.29617,-0.20823 -0.29617,-0.20823l-0.00645,-0.35283c0.00117,-0.00197 0.00233,-0.00394 0.0035,-0.00591c-0.01242,-0.05432 -0.02209,-0.11004 -0.02964,-0.16725c-0.51676,-0.56543 -0.63548,-1.46435 -0.7393,-2.20222c-0.11517,-1.445 1.02812,-3.27892 2.25311,-4.07144c0.64318,-0.41611 1.46002,0.07551 2.08733,-0.34885c0,0 0.2045,-0.13179 0.35394,0.0429c0.01444,0.00438 0.02939,0.01 0.04487,0.01698c0.14736,0.06652 0.1701,0.18014 0.16343,0.2634c0.10924,-0.00996 0.22935,-0.00468 0.37355,0.01524z"/></g><path d="M246.0444,148.31068c3.84866,0.08586 16.58726,8.17305 13.67207,13.09527c-2.6146,4.41468 -14.76256,-3.78888 -17.03839,-6.00214c-1.12025,-1.08945 -1.45496,-3.86306 0.54766,-4.25901c-0.0072,-0.49387 0.11735,-0.99585 0.38748,-1.45196c0.46019,-0.77702 1.24021,-1.24752 2.07314,-1.34318c0.11566,-0.02763 0.23472,-0.04174 0.35805,-0.03899z"/><path d="M246.51633,150.72372c-0.0197,0.2768 -0.2965,0.2571 -0.2965,0.2571l-0.35383,-0.05456c-0.86498,-0.51229 -1.96034,-1.26853 -2.45247,-2.16366c0,0 -0.13199,-0.2441 0.11211,-0.37609c0.2441,-0.13198 0.37609,0.11212 0.37609,0.11212c0.42684,0.80652 1.47601,1.49342 2.24709,1.95009l0.1104,-0.02151c0,0 0.2768,0.0197 0.2571,0.2965z"/><path d="M248.63637,150.25807c0.04927,0.06509 0.08655,0.16698 0.00875,0.29834c-0.14141,0.23877 -0.38018,0.09736 -0.38018,0.09736l-0.18086,-0.2637c-0.00165,-0.46916 -0.07778,-0.92714 -0.30519,-1.34008c0,0 -0.13199,-0.24411 0.11212,-0.37609c0.2441,-0.13198 0.37609,0.11211 0.37609,0.11211c0.24635,0.46241 0.35128,0.95392 0.36927,1.47206z"/><path d="M250.20597,153.53694c-0.14141,0.23877 -0.38018,0.09735 -0.38018,0.09735l-0.15982,-0.09662c-0.49294,-0.37186 -1.02862,-0.66771 -1.55971,-0.98225c0,0 -0.23877,-0.14141 -0.09736,-0.38018c0.14141,-0.23877 0.38018,-0.09735 0.38018,-0.09735c0.54913,0.32522 1.10026,0.63277 1.61072,1.01639l0.1088,0.06247c0,0 0.23877,0.14141 0.09736,0.38018z"/><path d="M255.92831,157.04695c-0.14141,0.23877 -0.38018,0.09736 -0.38018,0.09736l-0.22385,-0.13258c-1.31273,-0.77747 -2.65064,-1.50937 -3.96631,-2.28858c0,0 -0.23877,-0.14141 -0.09735,-0.38018c0.14141,-0.23877 0.38018,-0.09736 0.38018,-0.09736c1.3157,0.77922 2.65351,1.51108 3.9663,2.28858l0.22386,0.13258c0,0 0.23877,0.14141 0.09735,0.38018z"/><path d="M260.70221,160.1162c-0.14141,0.23877 -0.38018,0.09735 -0.38018,0.09735l-0.04477,-0.02652c-0.97169,-0.57759 -2.06948,-1.22512 -2.87595,-2.01528c0,0 -0.19735,-0.1951 -0.00225,-0.39244c0.1951,-0.19734 0.39244,-0.00224 0.39244,-0.00224c0.76032,0.75962 1.84132,1.38547 2.76858,1.93243l0.04477,0.02651c0,0 0.23877,0.14141 0.09735,0.38018z"/><path d="M251.55261,158.20656c-0.1427,0.238 -0.3807,0.09531 -0.3807,0.09531l-0.29463,-0.17694c-0.36181,-0.26119 -0.65919,-0.46482 -0.93016,-0.81341c0,0 -0.16917,-0.21997 0.0508,-0.38914c0.21997,-0.16917 0.38915,0.0508 0.38915,0.0508c0.22812,0.30059 0.48397,0.46326 0.79563,0.68834l0.2746,0.16434c0,0 0.23801,0.14269 0.09531,0.38069z"/><path d="M256.32075,161.69398c-0.14141,0.23877 -0.38017,0.09736 -0.38017,0.09736l-0.23924,-0.1541c-0.2613,-0.27624 -0.48007,-0.51543 -0.6628,-0.84941c0,0 -0.13199,-0.24411 0.11211,-0.37609c0.2441,-0.13198 0.37609,0.11211 0.37609,0.11211c0.15603,0.2928 0.34913,0.49043 0.57772,0.73192l0.11893,0.05803c0,0 0.23877,0.14141 0.09735,0.38018z"/><path d="M244.45351,155.17267c0.0197,-0.2768 0.2965,-0.2571 0.2965,-0.2571l0.1632,0.01573c0.40231,0.09984 0.80203,0.20704 1.20713,0.29455c0,0 0.27124,0.05865 0.21259,0.32989c-0.05865,0.27123 -0.32988,0.21258 -0.32988,0.21258c-0.41058,-0.08886 -0.81574,-0.19717 -1.22351,-0.29836l-0.06892,-0.00079c0,0 -0.2768,-0.0197 -0.2571,-0.2965z"/></g><path d="M237.01648,177.57794c2.85489,-4.75819 10.41414,-5.9744 15.37581,-4.99176c0.92797,0.08821 1.68309,0.24653 2.58395,0.41886c0.15804,-0.07256 0.31785,-0.14271 0.48021,-0.20934l0.16631,-0.06825c0,0 0.55431,-0.22747 0.78179,0.32684c0.02785,0.06787 0.04399,0.13083 0.05085,0.18909c0.05846,0.07727 0.08564,0.14351 0.08564,0.14351l0.06825,0.1663c1.8987,4.62671 2.9541,9.57778 4.78837,14.0475c0.80316,5.48182 -2.34583,12.14883 -5.055,16.69221c-1.00152,1.78773 -7.2546,5.45419 -7.4493,6.59702c-0.31033,1.82154 4.82116,0.8628 3.18454,4.53876c-1.99675,1.28474 -12.05021,-0.30159 -13.51626,-2.25095c0,0 -0.22673,-0.30814 -0.07164,-0.61316c-0.02733,-0.14182 -0.00335,-0.26102 -0.00335,-0.26102l0.12786,-0.63541c0.0828,-0.41144 0.16594,-0.82279 0.24952,-1.23407c0.40511,-5.56124 2.05817,-11.35551 -0.16947,-16.78376c-0.783,-5.24882 0.45889,-10.18549 -1.63053,-15.32495c-0.02315,-0.04095 -0.04044,-0.08083 -0.05277,-0.11947c-0.19568,-0.29118 0.00521,-0.62794 0.00521,-0.62794z" fill="#888b44"/><path d="M254.26314,187.62381c0,0 -1.75,0 -1.75,-1.75c0,-1.20549 0.83041,-1.58058 1.34717,-1.69729c-0.28066,-0.12286 -0.55792,-0.35124 -0.79394,-0.7446c-0.90037,-1.50061 0.60025,-2.40098 0.60025,-2.40098c1.5096,-0.8485 3.03675,-1.11074 4.5975,-1.14083c-0.25677,-0.33864 -0.41244,-0.82613 -0.20802,-1.50751c0.23139,-0.77131 0.71124,-1.08122 1.16188,-1.19105c-0.15457,-0.18864 -0.28571,-0.42664 -0.33429,-0.71747c-0.38182,-0.02944 -0.76456,-0.06295 -1.14858,-0.10109c0,0 -1.74132,-0.17413 -1.56718,-1.91545c0.00579,-0.05793 0.01332,-0.11374 0.02246,-0.1675c-0.3624,0.02995 -0.78128,-0.07151 -1.22452,-0.44087c-1.34439,-1.12032 -0.22406,-2.46471 -0.22406,-2.46471c2.24722,-2.52825 4.05265,-2.40909 6.8407,-4.03588l1.50319,-0.90203c0,0 1.50061,-0.90037 2.40098,0.60025c0.90037,1.50061 -0.60025,2.40098 -0.60025,2.40098l-1.53522,0.92102c-0.04985,0.02801 -0.09963,0.05538 -0.14935,0.08215c0.57825,0 1.15649,0 1.73474,0c-0.07584,-0.99796 0.88367,-1.57366 0.88367,-1.57366c3.30065,-1.9651 7.1039,-3.28623 10.83756,-4.15453l-0.23634,-0.13991c0,0 1.23744,-1.23744 2.47487,0c1.23744,1.23744 0,2.47487 0,2.47487l-1.45171,1.07545c-1.80509,0.41276 -3.6512,0.94575 -5.43164,1.62803c0.56679,1.32969 -0.74592,2.11731 -0.74592,2.11731l-0.07752,0.04644c0.01022,0.08679 0.01563,0.17869 0.01563,0.276c0,0.07312 -0.00306,0.14318 -0.00891,0.21032c0.95742,-0.34019 1.88686,-0.76197 2.75949,-1.364l1.32669,-0.50651c0,0 1.6602,-0.5534 2.21359,1.1068c0.33476,1.00429 -0.14049,1.60356 -0.56827,1.92033c0.40113,0.32068 0.65808,0.81415 0.65808,1.36764c0,0.9665 -0.7835,1.75 -1.75,1.75c-0.9665,0 -1.75,-0.7835 -1.75,-1.75c0,-0.01293 0.00014,-0.02583 0.00042,-0.03869c-1.14405,0.47173 -2.33423,0.78164 -3.51625,1.10339c0.44036,0.14235 1.46255,0.62402 1.21442,1.98398c-0.02411,0.13215 -0.05651,0.2523 -0.09579,0.36152c0.38494,0.23979 0.7319,0.67205 0.7319,1.45126c0,1.29217 -0.95412,1.63023 -1.45335,1.71867c0.30018,0.07375 0.60051,0.14681 0.90092,0.21923l0.47432,-0.60038c0,0 1.09322,-1.36652 2.45974,-0.2733c0.71582,0.57266 0.7567,1.2203 0.63333,1.70725c1.47033,0.33459 2.9347,0.65903 4.38344,0.97991l1.14175,0.72467c0,0 1.29695,1.17491 0.12203,2.47186c-1.17491,1.29695 -2.47186,0.12203 -2.47186,0.12203l0.4505,0.09846c-1.83633,-0.40752 -3.69557,-0.82148 -5.55992,-1.25389c-0.05557,0.1357 -0.12577,0.253 -0.20561,0.35439c2.29316,0.51943 4.66221,0.84081 6.9504,1.46185l1.17935,0.29443c0,0 1.69775,0.42444 1.27331,2.12219c-0.42444,1.69775 -2.12219,1.27331 -2.12219,1.27331l-1.25138,-0.31325c-3.66494,-1.00472 -7.28157,-1.34816 -10.71153,-2.63824c-2.03132,1.02333 -4.17353,1.8137 -6.3866,2.38198c0.57412,0.68529 1.19679,1.29023 2.00073,1.70757c0.11253,-0.0183 0.23421,-0.02819 0.36578,-0.02819c1.75,0 1.75,1.75 1.75,1.75l-2.3034,1.96404c-2.8389,-1.02802 -4.17802,-2.8782 -6.02611,-5.11898c-0.24683,-0.18737 -0.46065,-0.47407 -0.57274,-0.91008c-0.10652,-0.31041 -0.15819,-0.70566 0.00803,-1.11443c0.09776,-0.29043 0.2709,-0.50735 0.46244,-0.6683c-0.1021,0.00098 -0.20429,0.00155 -0.30657,0.00171c0,0 -0.86456,0 -1.37833,-0.60768c-0.72752,0 -1.39646,0 -1.96393,0zM262.32076,184.12381h2.27299c0,0 0.10797,0 0.27028,0.02682c0.07423,-0.01017 0.14846,-0.02041 0.22268,-0.03071c0.14306,-0.17998 0.29561,-0.31252 0.45134,-0.40797c-0.05929,-0.0164 -0.11856,-0.03283 -0.1778,-0.0493c-0.09839,0.01123 -0.15881,0.01123 -0.15881,0.01123h-0.91152c-2.71777,-0.00257 -6.49903,-1.19426 -8.82256,0.3583c0,0 -0.06899,0.0414 -0.18627,0.09164c2.34656,0 4.69312,0 7.03968,0z" fill="#580000"/></g></g></svg>