<svg version="1.1" xmlns="http://www.w3.org/2000/svg" xmlns:xlink="http://www.w3.org/1999/xlink" width="35.76937" height="38.72097" viewBox="0,0,35.76937,38.72097"><g transform="translate(-217.8288,-161.76662)"><g data-paper-data="{&quot;isPaintingLayer&quot;:true}" fill-rule="nonzero" stroke="none" stroke-width="0.5" stroke-linecap="butt" stroke-linejoin="miter" stroke-miterlimit="10" stroke-dasharray="" stroke-dashoffset="0" style="mix-blend-mode: normal"><path d="M220.27691,171.72755c0.01739,0.37955 -0.08613,1.01058 -0.90447,1.24268c-1.20256,0.34107 -1.54364,-0.86149 -1.54364,-0.86149l0.03986,-1.20121c1.69489,-2.87437 3.52721,-3.10898 6.4825,-1.9024c0.28484,3.47415 -0.87362,6.20789 0.13274,9.75758c0.17085,0.60265 -0.11901,1.49756 0.40931,1.8341c3.60039,2.29343 9.06744,-5.40051 10.62042,-8.186c1.71984,-3.06281 2.58813,-5.04792 -1.16861,-6.52303c-0.73993,-0.29054 -1.09562,-0.59083 -1.906,-0.42574c-1.85152,0.37721 -2.80203,2.2392 -4.78515,2.28391c-3.86929,0.08722 -3.74726,-3.69042 -1.59407,-5.66685c0,0 0.9604,-0.80009 1.76049,0.1603c0.80009,0.9604 -0.16031,1.76048 -0.16031,1.76048c-0.09131,0.06184 -1.34875,0.88773 -0.63611,1.29951c0.78914,0.45599 2.8759,-1.46646 3.45624,-1.72451c2.18168,-0.9701 3.98347,-0.52174 6.06128,0.48243c4.49551,2.17257 3.06384,6.13366 1.15529,9.57183c-1.74356,3.12118 -3.99884,5.46036 -6.73779,7.73834c-1.1342,0.94331 -2.76532,2.41766 -4.3686,2.35806c-5.43243,-0.20197 -6.49001,-9.47629 -4.27088,-13.26368c-1.00803,0.25656 -1.55388,0.49773 -2.04251,1.2657z" fill="#46443c"/><g><path d="M252.19282,193.60631c-0.25341,0.79668 -0.65755,1.61599 -1.2475,2.4778c-1.12348,1.64121 -3.31807,4.26246 -5.80023,4.03946c-1.79043,1.09376 -3.19746,-0.62593 -3.19746,-0.62593c-1.23623,-1.51177 -2.98284,-2.70849 -3.74226,-4.50765c-2.55941,-6.06361 3.54344,-12.77131 6.98293,-17.22553l1.23921,-2.12437c0.43442,-0.7766 1.26489,-1.30161 2.21798,-1.30161c1.30743,0 2.38412,0.98797 2.52421,2.25808l0.3744,2.99523l-0.21725,0.02715c1.47117,3.97722 2.78806,8.74049 2.0689,11.63016c-0.14327,0.57567 -0.58875,1.44534 -1.20295,2.35721z" fill="#2b281b"/><path d="M250.42739,194.07045c-0.34541,-0.11102 -0.23439,-0.45642 -0.23439,-0.45642l0.2053,-0.6379c0.66732,-2.73977 -0.41225,-5.4196 -0.41195,-8.15335c0.0937,-2.67074 0.91936,-6.91651 -1.21882,-9.01313c0,0 -0.25654,-0.25655 0,-0.51309c0.25654,-0.25654 0.51309,0 0.51309,0c2.30336,2.34001 1.50626,6.60204 1.43125,9.5374c0.00033,2.8146 1.05826,5.49715 0.38512,8.338l-0.21319,0.66411c0,0 -0.11102,0.3454 -0.45642,0.23439z" fill="#403b23"/><path d="M241.57447,193.79229c-0.25654,-0.25654 0,-0.51309 0,-0.51309l0.10164,-0.04747c0.49702,-1.42321 1.31763,-2.47826 1.73209,-4.03914c0.41803,-0.43217 0.93117,-1.00038 1.47607,-1.63949c-0.02461,-0.10786 -0.02633,-0.29015 0.19172,-0.39917c0.06805,-0.03403 0.12898,-0.04665 0.18276,-0.04534c1.34296,-1.61308 2.78745,-3.55353 3.44081,-4.90326c0,0 0.16225,-0.32451 0.48676,-0.16226c0.32451,0.16225 0.16226,0.48677 0.16226,0.48677c-0.71698,1.39974 -2.22821,3.49564 -3.61039,5.15442c0.93334,2.04729 1.47419,4.60377 3.63742,5.52698l0.20056,0.5138c0,0 0,0.36281 -0.36281,0.36281c-0.30889,0 -0.35479,-0.26299 -0.36162,-0.34116c-2.06584,-1.23128 -2.67061,-3.34538 -3.62952,-5.45679c-0.42998,0.49292 -0.83446,0.92561 -1.18258,1.2602c-0.35053,1.51269 -1.2432,2.52901 -1.67515,3.91108l-0.27694,0.33111c0,0 -0.25654,0.25654 -0.51308,0z" fill="#403b23"/><path d="M242.51045,189.27105c-0.22629,0 -0.22629,-0.22629 -0.22629,-0.22629v-0.11806c0.03053,-0.92843 -1.04807,-1.74059 -1.0626,-2.71554c0,0 0,-0.22629 0.2263,-0.22629c0.22629,0 0.22629,0.22629 0.22629,0.22629c-0.01864,0.9309 0.96062,1.68021 1.05553,2.60191c0.58349,-1.30829 0.99409,-2.69196 1.6162,-3.95766c0,0 0.16225,-0.32451 0.48676,-0.16225c0.32451,0.16225 0.16226,0.48676 0.16226,0.48676c-0.72976,1.42883 -1.16387,3.07745 -1.89291,4.54298l-0.18929,0.37858c0,0 -0.16225,0.32451 -0.48676,0.16226c-0.32451,-0.16225 -0.16226,-0.48676 -0.16226,-0.48676l0.18929,-0.37859c0.0213,-0.04235 0.04234,-0.08481 0.06315,-0.12738c-0.00188,0.00003 -0.00376,0.00005 -0.00566,0.00005z" fill="#403b23"/><path d="M245.23826,184.43401c-0.36281,0 -0.3628,-0.36281 -0.3628,-0.36281l0.20055,-0.5138c0.64024,-0.1531 0.36731,-2.45996 0.36731,-3.08273c0,0 0,-0.36281 0.36281,-0.36281c0.36281,0 0.36281,0.36281 0.36281,0.36281c0,1.1567 0.31775,2.93731 -0.67054,3.66574l0.10267,-0.06922c0,0 0,0.36281 -0.36281,0.36281z" fill="#403b23"/><path d="M241.09365,194.82022c-0.22629,0 -0.22629,-0.22629 -0.22629,-0.22629l0.03801,0.00746c-0.41931,-0.65671 -1.38616,-2.00169 -1.45481,-2.72301c0,0 0,-0.22629 0.22629,-0.22629c0.22629,0 0.2263,0.22629 0.2263,0.22629c-0.06045,0.20957 1.15234,2.15133 1.3788,2.47195l0.038,0.24359c0,0 0,0.22629 -0.22629,0.22629z" fill="#403b23"/><path d="M244.8718,198.59837c-0.22629,0 -0.22629,-0.2263 -0.22629,-0.2263l0.02388,-0.21927c0.22079,-0.43629 0.81696,-0.87849 0.80258,-1.3156c0,0 0,-0.2263 0.22629,-0.2263c0.22629,0 0.2263,0.2263 0.2263,0.2263c-0.01289,0.61336 -0.58027,0.96987 -0.85036,1.51801l0.02388,0.01686c0,0 0,0.2263 -0.22629,0.2263z" fill="#403b23"/><path d="M252.7823,186.45713c0.22629,0 0.2263,0.2263 0.2263,0.2263l-0.02389,0.13493c0.3158,0.63161 0.49088,1.28597 0.49615,1.99027c0,1.16941 -0.20683,4.98721 -1.33253,5.55006c0.0826,1.01566 -2.92737,4.03665 -3.72026,4.43309c-1.79306,1.79306 -3.96234,2.04737 -6.16799,0.94454c-1.17484,-1.16261 -2.72376,-2.32656 -3.49404,-3.74247c0,0 -0.1012,-0.2024 0.1012,-0.30361c0.20241,-0.1012 0.30361,0.1012 0.30361,0.1012c0.55341,1.2967 2.33119,2.54333 3.35386,3.5777c2.03906,1.01953 3.98897,0.70523 5.63872,-0.94454c0.89832,-0.44916 3.53056,-3.18031 3.5999,-4.30388c1.07712,-0.53856 1.26495,-4.16241 1.26495,-5.31212c0.0058,-0.63163 -0.16606,-1.22322 -0.44838,-1.78787l-0.02389,-0.33733c0,0 0,-0.2263 0.22629,-0.2263z" fill="#403b23"/></g></g></g></svg>