<svg version="1.1" xmlns="http://www.w3.org/2000/svg" xmlns:xlink="http://www.w3.org/1999/xlink" width="83.04192" height="113.82728" viewBox="0,0,83.04192,113.82728"><g transform="translate(-221.06631,-106.66049)"><g data-paper-data="{&quot;isPaintingLayer&quot;:true}" fill-rule="nonzero" stroke="none" stroke-linecap="butt" stroke-linejoin="miter" stroke-miterlimit="10" stroke-dasharray="" stroke-dashoffset="0" style="mix-blend-mode: normal"><path d="M276.71627,121.97718c0,8.45917 -7.4098,15.31669 -16.55025,15.31669c-9.14045,0 -16.55025,-6.85751 -16.55025,-15.31669c0,-8.45917 7.4098,-15.31669 16.55025,-15.31669c9.14045,0 16.55025,6.85751 16.55025,15.31669z" fill-opacity="0.67059" fill="#026000" stroke-width="0"/><path d="M287.6127,156.51682c0,16.86157 -12.33432,30.53058 -27.54948,30.53058c-15.21516,0 -27.54948,-13.66901 -27.54948,-30.53058c0,-16.86157 12.33432,-30.53058 27.54948,-30.53058c15.21516,0 27.54948,13.66901 27.54948,30.53058z" fill-opacity="0.67059" fill="#026000" stroke-width="0"/><path d="M292.0263,150.67246c5.06802,8.21369 7.84477,15.6939 6.20203,16.7075c-1.64274,1.0136 -7.08289,-4.82322 -12.15091,-13.03691c-5.06802,-8.21369 -7.84477,-15.6939 -6.20203,-16.7075c1.64274,-1.0136 7.08289,4.82322 12.15091,13.03691z" fill-opacity="0.67059" fill="#026000" stroke-width="0"/><path d="M236.19471,151.69666c-4.9591,8.27991 -10.32168,14.18808 -11.97766,13.19626c-1.65598,-0.99182 1.02172,-8.50804 5.98082,-16.78796c4.9591,-8.27991 10.32168,-14.18809 11.97767,-13.19626c1.65598,0.99182 -1.02172,8.50804 -5.98082,16.78796z" fill-opacity="0.67059" fill="#026000" stroke-width="0"/><path d="M270.91953,178.23078c2.48361,-1.2532 6.21782,1.14128 8.34058,5.34821c2.12277,4.20693 1.83024,8.63324 -0.65337,9.88644c-2.48361,1.2532 -6.21782,-1.14128 -8.34058,-5.34821c-2.12277,-4.20693 -1.83024,-8.63324 0.65337,-9.88644z" fill-opacity="0.67059" fill="#026000" stroke-width="0"/><path d="M281.23932,202.08996c0,9.93527 -1.5648,17.9894 -3.49508,17.9894c-1.93028,0 -3.49508,-8.05413 -3.49508,-17.9894c0,-9.93527 1.5648,-17.9894 3.49508,-17.9894c1.93028,0 3.49508,8.05413 3.49508,17.9894z" fill-opacity="0.67059" fill="#026000" stroke-width="0"/><path d="M249.39362,179.62337c-2.12276,4.20693 -5.85697,6.60141 -8.34058,5.34821c-2.48361,-1.2532 -2.77613,-5.67951 -0.65337,-9.88645c2.12276,-4.20693 5.85697,-6.60141 8.34058,-5.34821c2.48361,1.2532 2.77614,5.67951 0.65337,9.88645z" data-paper-data="{&quot;index&quot;:null}" fill-opacity="0.67059" fill="#026000" stroke-width="0"/><path d="M241.91555,175.60671c1.93028,0 3.49509,8.05413 3.49509,17.9894c0,9.93527 -1.56481,17.9894 -3.49509,17.9894c-1.93028,0 -3.49508,-8.05412 -3.49508,-17.9894c0,-9.93527 1.5648,-17.9894 3.49508,-17.9894z" data-paper-data="{&quot;index&quot;:null}" fill-opacity="0.67059" fill="#026000" stroke-width="0"/><path d="M238.41116,208.16172c3.17929,0 5.75661,0.7824 5.75661,1.74754c0,0.96514 -2.57732,1.74754 -5.75661,1.74754c-3.17929,0 -5.75661,-0.7824 -5.75661,-1.74754c0,-0.96514 2.57732,-1.74754 5.75661,-1.74754z" fill-opacity="0.67059" fill="#026000" stroke-width="0"/><path d="M281.09949,216.99269c3.17929,0 5.75661,0.7824 5.75661,1.74754c0,0.96514 -2.57732,1.74754 -5.75661,1.74754c-3.17929,0 -5.75661,-0.7824 -5.75661,-1.74754c0,-0.96514 2.57732,-1.74754 5.75661,-1.74754z" fill-opacity="0.67059" fill="#026000" stroke-width="0"/><path d="M302.41541,167.34472c0,1.41932 -1.10457,2.56991 -2.46712,2.56991c-1.36255,0 -2.46712,-1.15059 -2.46712,-2.56991c0,-1.41932 1.10457,-2.56991 2.46712,-2.56991c1.36255,0 2.46712,1.15059 2.46712,2.56991z" fill-opacity="0.67059" fill="#026000" stroke-width="0"/><path d="M226.00054,165.14897c0,1.41932 -1.10457,2.56991 -2.46712,2.56991c-1.36255,0 -2.46711,-1.15059 -2.46711,-2.56991c0,-1.41932 1.10456,-2.56992 2.46711,-2.56992c1.36255,0 2.46712,1.15059 2.46712,2.56992z" fill-opacity="0.67059" fill="#026000" stroke-width="0"/><path d="M302.69958,172.69865c-0.02158,0.03309 -0.0457,0.06437 -0.07209,0.09356c0.01577,0.00875 0.03119,0.01805 0.04624,0.02788c0.01724,-0.04006 0.02672,-0.08046 0.02586,-0.12144zM304.04824,171.9944c0.30263,0.74208 -0.62478,2.18359 -0.89093,2.88219c-0.8512,2.23427 -2.20092,4.95946 -4.17448,6.45217l0.18988,0.25318l-0.76661,0.57495c-0.12637,0.09693 -0.28449,0.15455 -0.45606,0.15455c-0.41421,0 -0.75,-0.33579 -0.75,-0.75c0,-0.10819 0.02291,-0.21104 0.06414,-0.30394l0.2955,-0.70921c0.50324,-2.3708 1.21263,-4.92551 1.47204,-7.40842c-0.01875,-0.06561 -0.0288,-0.1349 -0.0288,-0.20653c0,-0.11973 0.02806,-0.23291 0.07795,-0.33332c0.02824,-0.36613 0.04555,-0.73028 0.0498,-1.09162c-0.10879,-0.13936 -0.17636,-0.34023 -0.10536,-0.62424c0.1819,-0.72761 0.90951,-0.54571 0.90951,-0.54571c1.05806,0.26587 1.88185,0.40542 2.97105,0.49531l0.36805,0.10029c0,0 0.55554,0.18518 0.52122,0.71917c0.11897,0.11178 0.20647,0.22687 0.25308,0.34118z" fill-opacity="0.67059" fill="#616161" stroke-width="0.5"/><path d="M303.14288,170.22901c0,0.75 -0.75,0.75 -0.75,0.75l-0.31647,-0.0102c-0.21843,-0.0372 -0.43471,-0.08509 -0.64937,-0.14034v0.02177h-0.77267c-0.41421,0 -0.75,-0.33579 -0.75,-0.75c0,-0.2243 0.09847,-0.42561 0.25453,-0.56305l0.5767,-0.51262c0,0 0.00277,-0.00246 0.0081,-0.00685c0.0227,-2.08906 0.85186,-4.6184 1.37875,-6.46385l0.21206,-0.57241c0,0 0.26334,-0.70225 0.96559,-0.4389c0.70225,0.26334 0.4389,0.96559 0.4389,0.96559l-0.17427,0.45781c-0.52413,1.83317 -1.49257,4.54084 -1.31719,6.51337c0.02602,0.00263 0.05126,0.00594 0.07546,0.0099l0.06987,-0.0102c0,0 0.75,0 0.75,0.75z" fill-opacity="0.67059" fill="#393700" stroke-width="0.5"/><path d="M260.21773,123.18973c-0.45,0.6 -1.05,0.15 -1.05,0.15l0.18912,-0.04566c-1.2316,0 -4.23694,0.57814 -4.65894,-1.19179c-0.11731,-0.492 0.56864,-0.83904 0.8962,-1.22443c1.08096,-1.27176 2.02672,-2.68403 3.02574,-4.05775c0,0 0.44113,-0.60655 1.04768,-0.16542c0.60655,0.44113 0.16542,1.04768 0.16542,1.04768c-0.8442,1.16072 -1.59533,2.54667 -2.51243,3.6305c-0.12137,0.14343 -0.33183,0.35772 -0.53956,0.51826c0.85621,-0.05129 2.36168,-0.05704 2.57588,-0.05704l0.71088,0.34566c0,0 0.6,0.45 0.15,1.05z" fill-opacity="0.67059" fill="#014600" stroke-width="0.5"/><path d="M250.27822,127.36382l-0.12599,-0.18055c-0.31098,-0.32808 -0.70865,-0.6022 -1.14169,-0.7319c0,0 -0.71151,-0.23717 -0.47434,-0.94868c0.09103,-0.27309 0.25193,-0.40642 0.41566,-0.46705c0.38816,-0.46722 0.9426,-0.13456 0.9426,-0.13456c1.09134,0.66955 1.87497,1.54484 3.04643,2.11274c0.15415,0.01271 0.69262,0.10134 0.70878,0.7192c4.73741,2.27642 11.29679,2.34536 14.79324,-2.00605l0.35225,-0.71384c0,0 0.33541,-0.67082 1.00623,-0.33541c0.67082,0.33541 0.33541,1.00623 0.33541,1.00623l-0.43039,0.85145c-4.18968,5.25344 -11.94112,5.1491 -17.49161,2.14559c0,0 -0.37111,-0.20242 -0.40413,-0.58194c-0.24067,-0.14602 -0.46856,-0.30342 -0.69022,-0.46622c-0.49317,0.19641 -0.84223,-0.269 -0.84223,-0.269z" fill-opacity="0.67059" fill="#014600" stroke-width="0.5"/><path d="M250.40279,127.35148c-0.17678,0.17678 -0.35355,0 -0.35355,0l-0.06522,-0.06522c-0.16657,-0.20571 -0.43318,-0.18744 -0.69065,-0.3681c0,0 -0.06901,-0.05176 -0.09555,-0.13501l-0.06166,-0.01866c-0.0978,-0.10864 -0.24962,-0.16978 -0.39401,-0.19251c0,0 -0.24515,-0.04903 -0.19612,-0.29417c0.04903,-0.24515 0.29417,-0.19612 0.29417,-0.19612c0.20119,0.04581 0.40191,0.1315 0.56619,0.25831c0.06026,0.00797 0.19773,0.0437 0.21898,0.2039c0.26581,0.20586 0.41859,0.12374 0.7122,0.3888l0.06522,0.06522c0,0 0.17678,0.17678 0,0.35355z" fill-opacity="0.67059" fill="#450000" stroke-width="0.5"/><path d="M251.77242,128.13412c-0.17678,0.17678 -0.35355,0 -0.35355,0l-0.06522,-0.06522c-0.1978,-0.20327 -0.39903,-0.283 -0.65245,-0.40971c0,0 -0.22361,-0.1118 -0.1118,-0.33541c0.1118,-0.22361 0.33541,-0.1118 0.33541,-0.1118c0.30263,0.15131 0.53893,0.26482 0.7824,0.50337l0.06522,0.06522c0,0 0.17678,0.17678 0,0.35355z" fill-opacity="0.67059" fill="#450000" stroke-width="0.5"/><path d="M253.66434,128.93106c-0.06063,0.24254 -0.30317,0.1819 -0.30317,0.1819l-0.26088,-0.06522c0,0 -0.24254,-0.06063 -0.1819,-0.30317c0.06063,-0.24254 0.30317,-0.1819 0.30317,-0.1819l0.26088,0.06522c0,0 0.24254,0.06063 0.1819,0.30317z" fill-opacity="0.67059" fill="#450000" stroke-width="0.5"/><path d="M254.08489,129.32697c0,-0.13807 0.11193,-0.25 0.25,-0.25c0.13807,0 0.25,0.11193 0.25,0.25c0,0.13807 -0.11193,0.25 -0.25,0.25c-0.13807,0 -0.25,-0.11193 -0.25,-0.25z" fill-opacity="0.67059" fill="#450000" stroke-width="0.5"/><path d="M255.43275,129.78351c0,0.25 -0.25,0.25 -0.25,0.25l-0.20344,-0.00669c-0.06884,0.03691 -0.13768,0.07382 -0.20652,0.11074c0,0 -0.07977,0.03988 -0.16784,0.02437c0.02845,0.04059 0.04515,0.09002 0.04515,0.14335c0,0.13807 -0.11193,0.25 -0.25,0.25c-0.13807,0 -0.25,-0.11193 -0.25,-0.25c0,-0.09559 0.05365,-0.17865 0.13248,-0.22071c-0.04172,-0.04467 -0.06726,-0.10466 -0.06726,-0.17061c0,-0.13807 0.11193,-0.25 0.25,-0.25c0.03466,0 0.06768,0.00705 0.09769,0.01981c0.10047,-0.04785 0.20094,-0.09571 0.30142,-0.14356l0.31832,-0.00669c0,0 0.25,0 0.25,0.25z" fill-opacity="0.67059" fill="#450000" stroke-width="0.5"/><path d="M252.71526,116.73947c0,-0.13807 0.11193,-0.25 0.25,-0.25c0.13807,0 0.25,0.11193 0.25,0.25c0,0.13807 -0.11193,0.25 -0.25,0.25c-0.13807,0 -0.25,-0.11193 -0.25,-0.25z" fill-opacity="0.67059" fill="#450000" stroke-width="0.5"/><path d="M266.61226,116.64017c0.23305,-0.28824 0.61462,-0.49533 0.98874,-0.46337c0.20227,-0.05478 0.34495,0.01795 0.43259,0.16119c0.06055,0.0435 0.11894,0.09637 0.17432,0.15948c0.02311,0.02634 0.04442,0.05225 0.06399,0.07775c0.20399,0.04552 0.38526,0.14171 0.48801,0.28497c0.3918,0.54625 -0.62522,1.36845 -1.1757,1.08455c-0.24404,0.1254 -0.56299,0.09491 -0.94612,-0.22558c-0.32864,-0.2749 -0.30463,-0.65826 -0.10151,-0.97441c0.00375,-0.02143 0.00803,-0.04339 0.01283,-0.06592z" fill-opacity="0.67059" fill="#450000" stroke-width="0.5"/><path d="M266.81277,116.42654c0.28975,-0.35416 1.09737,-0.37763 1.54686,-0.10479c0.54063,0.13983 0.57059,0.48787 0.36783,0.80773c0.23872,0.82433 -0.61501,0.96002 -1.19622,0.84872c-0.18826,0.01478 -0.37672,-0.04265 -0.53202,-0.14773c-0.49105,0.04636 -0.87269,-0.16479 -0.71304,-0.88038c0.05945,-0.26646 0.26641,-0.43789 0.52659,-0.52354zM267.65907,117.02554c0.03,-0.00635 0.06069,-0.01328 0.09154,-0.02075c-0.0028,-0.00291 -0.0057,-0.00577 -0.00869,-0.0086c-0.04459,-0.00066 -0.09111,0.00429 -0.13889,0.01603c0.01036,0.00156 0.02109,0.0037 0.0322,0.00648c0.0083,0.00207 0.01624,0.00436 0.02384,0.00684z" fill="#450000" stroke-width="0.5"/><path d="M253.74341,117.38305c-0.10713,0.04236 -0.22806,0.06555 -0.35113,0.06702c-0.15325,0.0918 -0.33529,0.07216 -0.50281,-0.01021c-0.03704,-0.0157 -0.07254,-0.03657 -0.10616,-0.06171c-0.30048,-0.20233 -0.51596,-0.5906 -0.35539,-0.83759c0.01388,-0.02136 0.03057,-0.04134 0.04973,-0.05996c0.01493,-0.04627 0.03616,-0.08884 0.06425,-0.12609c0.00375,-0.0226 0.00803,-0.04559 0.01286,-0.06898c0.69653,-0.58021 2.4775,-0.19424 1.7163,0.86867c-0.10706,0.14949 -0.30382,0.21914 -0.52765,0.22885z" fill="#450000" stroke-width="0.5"/><path d="M251.07646,127.6898c0,-0.13807 0.11193,-0.25 0.25,-0.25c0.13807,0 0.25,0.11193 0.25,0.25c0,0.13807 -0.11193,0.25 -0.25,0.25c-0.13807,0 -0.25,-0.11193 -0.25,-0.25z" fill="#450000" stroke-width="0.5"/><path d="M253.2551,128.99343c0.13807,0 0.25,0.11193 0.25,0.25c0,0.13807 -0.11193,0.25 -0.25,0.25c-0.10561,0 -0.19592,-0.06548 -0.23255,-0.15806c-0.13999,0.02444 -0.23532,-0.10266 -0.23532,-0.10266l-0.16072,-0.21429c0,0 -0.06909,-0.09212 -0.05097,-0.19821c-0.15756,0.10038 -0.30082,-0.04288 -0.30082,-0.04288l-0.03684,-0.03829c-0.10715,-0.08929 -0.21429,-0.17858 -0.32144,-0.26787c0,0 -0.19206,-0.16005 -0.03201,-0.3521c0.16005,-0.19206 0.3521,-0.03201 0.3521,-0.03201c0.10715,0.08929 0.21429,0.17858 0.32144,0.26787l0.0703,0.06885c0,0 0.10125,0.10125 0.07387,0.22712c0.18705,-0.11557 0.32437,0.06753 0.32437,0.06753l0.16072,0.21429c0,0 0.01845,0.0246 0.03378,0.06302c0.01114,-0.00152 0.02252,-0.0023 0.03408,-0.0023z" fill="#450000" stroke-width="0.5"/><path d="M253.86228,129.72559c0,-0.13807 0.11193,-0.25 0.25,-0.25c0.13807,0 0.25,0.11193 0.25,0.25c0,0.13807 -0.11193,0.25 -0.25,0.25c-0.13807,0 -0.25,-0.11193 -0.25,-0.25z" fill="#450000" stroke-width="0.5"/><path d="M255.02302,130.11847c0.13807,0 0.25,0.11193 0.25,0.25c0,0.13807 -0.11193,0.25 -0.25,0.25c-0.04542,0 -0.08801,-0.01211 -0.12472,-0.03328c0.0025,0.0751 -0.02279,0.17583 -0.15745,0.22969c-0.23212,0.09285 -0.32497,-0.13927 -0.32497,-0.13927l-0.10715,-0.26787c0,0 -0.09285,-0.23212 0.13927,-0.32497c0.23212,-0.09285 0.32497,0.13927 0.32497,0.13927l0.01966,0.04916c0.03794,-0.08976 0.1268,-0.15274 0.23038,-0.15274z" fill="#450000" stroke-width="0.5"/><path d="M254.29086,131.22564c0,-0.13807 0.11193,-0.25 0.25,-0.25c0.13807,0 0.25,0.11193 0.25,0.25c0,0.13807 -0.11193,0.25 -0.25,0.25c-0.13807,0 -0.25,-0.11193 -0.25,-0.25z" fill="#450000" stroke-width="0.5"/><path d="M254.34444,131.81495c0,-0.13807 0.11193,-0.25 0.25,-0.25c0.13807,0 0.25,0.11193 0.25,0.25c0,0.13807 -0.11193,0.25 -0.25,0.25c-0.13807,0 -0.25,-0.11193 -0.25,-0.25z" fill="#450000" stroke-width="0.5"/><path d="M255.6302,130.36847c0,-0.13807 0.11193,-0.25 0.25,-0.25c0.13807,0 0.25,0.11193 0.25,0.25c0,0.13807 -0.11193,0.25 -0.25,0.25c-0.13807,0 -0.25,-0.11193 -0.25,-0.25z" fill="#450000" stroke-width="0.5"/></g></g></svg>