<svg version="1.1" xmlns="http://www.w3.org/2000/svg" xmlns:xlink="http://www.w3.org/1999/xlink" width="963.74174" height="742.06209" viewBox="0,0,963.74174,742.06209"><defs><radialGradient cx="240.00001" cy="179.6997" r="362.61261" gradientUnits="userSpaceOnUse" id="color-1"><stop offset="0" stop-color="#000000" stop-opacity="0"/><stop offset="1" stop-color="#000000"/></radialGradient><radialGradient cx="240.00001" cy="179.69971" r="362.61262" gradientUnits="userSpaceOnUse" id="color-2"><stop offset="0" stop-color="#000000" stop-opacity="0"/><stop offset="1" stop-color="#000000"/></radialGradient><radialGradient cx="240.00001" cy="179.69972" r="362.61262" gradientUnits="userSpaceOnUse" id="color-3"><stop offset="0" stop-color="#000000" stop-opacity="0"/><stop offset="1" stop-color="#000000"/></radialGradient><radialGradient cx="240.00001" cy="179.69972" r="362.61262" gradientUnits="userSpaceOnUse" id="color-4"><stop offset="0" stop-color="#000000" stop-opacity="0"/><stop offset="1" stop-color="#000000"/></radialGradient></defs><g transform="translate(243.73274,182.50274)"><g data-paper-data="{&quot;isPaintingLayer&quot;:true}" fill-rule="nonzero" stroke="#000000" stroke-width="2" stroke-linecap="butt" stroke-linejoin="miter" stroke-miterlimit="10" stroke-dasharray="" stroke-dashoffset="0" style="mix-blend-mode: normal"><path d="M-122.6126,450.72073v-542.04204h725.22523v542.04204z" fill="url(#color-1)"/><path d="M-122.6126,450.72073v-542.04204h725.22523v542.04204z" fill="url(#color-2)"/><path d="M-122.6126,450.72074v-542.04204h725.22523v542.04204z" fill="url(#color-3)"/><path d="M-122.6126,450.72074v-542.04204h725.22523v542.04204z" fill="url(#color-4)"/><path d="M-242.73273,450.78078v-539.27927h147.14715v539.27927z" fill="#000000"/><path d="M-242.73273,450.78078v-539.27927h147.14715v539.27928z" fill="#000000"/><path d="M571.86186,447.77777v-539.27928h147.14715v539.27928z" fill="#000000"/><path d="M597.7119,-34.35424l-716.45398,4.19949l-1.52238,-147.14269l716.45398,-4.19949z" fill="#000000"/><path d="M602.6068,554.35446l-770.78299,4.19949l-1.63782,-147.14269l770.78298,-4.19949z" fill="#000000"/></g></g></svg>