<svg version="1.1" xmlns="http://www.w3.org/2000/svg" xmlns:xlink="http://www.w3.org/1999/xlink" width="85.14175" height="102.33119" viewBox="0,0,85.14175,102.33119"><g transform="translate(-185.00802,-104.19096)"><g data-paper-data="{&quot;isPaintingLayer&quot;:true}" fill-rule="nonzero" stroke-linejoin="miter" stroke-miterlimit="10" stroke-dasharray="" stroke-dashoffset="0" style="mix-blend-mode: normal"><g><g><path d="M240.70753,134.89132c-2.43951,6.60146 -6.92564,11.02597 -10.02006,9.88245c-3.09442,-1.14353 -3.62535,-7.42203 -1.18585,-14.02349c2.43951,-6.60146 6.92564,-11.02597 10.02007,-9.88246c3.09442,1.14353 3.62533,7.42205 1.18585,14.02349z" fill="#8c6738" stroke="none" stroke-width="0" stroke-linecap="butt"/><path d="M236.5447,108.25208c6.98787,4.2984 8.86509,13.9403 4.19293,21.53579c-4.67217,7.59551 -14.12449,10.26832 -21.11233,5.96993c-6.98787,-4.2984 -8.86509,-13.9403 -4.19293,-21.53579c4.67218,-7.5955 14.12449,-10.26832 21.11233,-5.96993z" fill="#8c6738" stroke="none" stroke-width="0" stroke-linecap="butt"/><path d="M235.95457,108.96114c4.62953,-0.17871 9.09675,1.77895 9.97785,4.37258c0.88109,2.59361 -2.1576,4.84107 -6.78713,5.01977c-4.62953,0.17871 -9.09674,-1.77896 -9.97785,-4.37258c-0.8811,-2.59361 2.15761,-4.84108 6.78713,-5.01978z" fill="#8c6738" stroke="none" stroke-width="0" stroke-linecap="butt"/><path d="M244.81708,120.15514c-2.15057,4.10357 -6.07294,7.00253 -8.76083,6.47494c-2.68791,-0.52761 -3.12351,-4.28192 -0.97294,-8.3855c2.15056,-4.10358 6.07291,-7.00251 8.76084,-6.47492c2.6879,0.52761 3.12354,4.28191 0.97294,8.3855z" data-paper-data="{&quot;index&quot;:null}" fill="#8c6738" stroke="none" stroke-width="0" stroke-linecap="butt"/><path d="M245.44166,121.64196l-1.95558,-1.26039l0.9028,-1.5144l1.71334,1.14014l-0.49372,1.73726" fill="#b39675" stroke="#b39675" stroke-width="0.5" stroke-linecap="round"/><path d="M244.7636,110.78195c0.34107,0.20982 0.33225,0.50298 0.28042,0.689c2.75877,3.8126 -0.69688,7.29496 -2.78504,10.6897c0,0 -0.33034,0.53701 -0.86735,0.20668c-0.53701,-0.33033 -0.20668,-0.86734 -0.20668,-0.86734c1.67292,-2.71965 4.80962,-5.75826 3.14288,-8.80628c-0.03953,0.06429 -0.07189,0.11685 -0.09315,0.1514c0,0 -0.33034,0.53701 -0.86735,0.20669c-0.53701,-0.33033 -0.20668,-0.86734 -0.20668,-0.86734c0.1226,-0.19932 0.24519,-0.39861 0.36778,-0.59792l0.36779,-0.59793c0,0 0.33033,-0.537 0.86734,-0.20668z" fill="#864e00" stroke="none" stroke-width="0.5" stroke-linecap="butt"/><path d="M244.81975,110.54177c0.53701,0.33033 0.20669,0.86735 0.20669,0.86735c-0.24519,0.39861 -0.73559,1.19583 -0.98077,1.59443c0,0 -0.33034,0.53701 -0.86735,0.20668c-0.53701,-0.33033 -0.20668,-0.86735 -0.20668,-0.86735c0.24519,-0.39861 0.4904,-0.79722 0.73559,-1.19583l0.24519,-0.39862c0,0 0.33034,-0.53701 0.86735,-0.20668z" fill="#871400" stroke="none" stroke-width="0.5" stroke-linecap="butt"/><path d="M231.83355,112.59236c-0.11337,-0.28285 0.06241,-0.56863 0.06241,-0.56863l0.10486,-0.14377c1.97697,-1.65315 2.91713,1.45891 0.3463,1.21856c0,0 -0.46026,-0.0858 -0.51361,-0.50615z" fill="#000000" stroke="none" stroke-width="0.5" stroke-linecap="butt"/><path d="M222.37349,115.75698c-0.05529,0.62805 -0.68336,0.57276 -0.68336,0.57276l-0.14168,-0.01493c-0.55166,-0.00634 -1.08161,-0.10199 -1.6162,-0.19641c0.16552,0.187 0.33745,0.37465 0.51741,0.56434l0.18187,0.31509c0,0 0.26359,0.57274 -0.30914,0.83633c-0.57273,0.26359 -0.83632,-0.30915 -0.83632,-0.30915l0.04848,0.02526c-1.20192,-1.26852 -2.08647,-2.47793 -3.04753,-3.94591c0,0 -0.34523,-0.52755 0.18231,-0.87279c0.52755,-0.34525 0.87279,0.18231 0.87279,0.18231c0.41628,0.63635 0.81245,1.21618 1.22762,1.77261c0.9422,0.0708 1.85832,0.38232 2.77846,0.3674l0.25251,0.01978c0,0 0.62806,0.0553 0.57276,0.68336z" fill="#7c4800" stroke="none" stroke-width="0.5" stroke-linecap="butt"/><path d="M217.07306,111.12621c0.09507,-0.01756 0.61184,-0.08599 0.74441,0.47022c0.14615,0.61331 -0.46716,0.75947 -0.46716,0.75947l-0.39569,0.01682c-0.71984,-0.41168 -0.82747,1.26391 -0.8713,1.78296c0,0 -0.05528,0.62806 -0.68334,0.57276c-0.62805,-0.05529 -0.57275,-0.68335 -0.57275,-0.68335c0.13931,-1.52894 0.55561,-3.08639 2.24587,-2.91887z" fill="#8c6738" stroke="none" stroke-width="0.5" stroke-linecap="butt"/><path d="M224.63992,114.5675c-0.40295,0.48492 -0.88785,0.08195 -0.88785,0.08195l-0.16801,-0.14785c-1.61772,-0.99617 -3.23234,-1.83804 -5.01098,-2.51647c-5.07975,-2.76487 -3.15283,5.38513 -0.1968,7.18264c0,0 0.537,0.33033 0.20669,0.86734c-0.33033,0.537 -0.86735,0.20669 -0.86735,0.20669c-4.27537,-2.65521 -5.2964,-12.99672 1.38265,-9.40307c1.82563,0.69142 3.48699,1.56907 5.14646,2.5888l0.31324,0.25207c0,0 0.48491,0.40296 0.08195,0.88785z" fill="#7c4800" stroke="none" stroke-width="0.5" stroke-linecap="butt"/><path d="M227.37818,130.16952c4.13251,5.69673 5.31784,11.88516 2.64748,13.82229c-2.67033,1.93711 -8.18513,-1.11065 -12.31764,-6.80738c-4.1325,-5.69672 -5.31783,-11.88516 -2.64748,-13.82228c2.67033,-1.93711 8.18514,1.11065 12.31765,6.80737z" fill="#8c6738" stroke="none" stroke-width="0" stroke-linecap="butt"/><path d="M235.49984,124.82732c-0.33033,0.537 -0.86734,0.20669 -0.86734,0.20669l-0.15719,-0.09668c-3.62703,-2.23109 -4.06103,-3.9367 -4.20588,-7.89963c0,0 -0.02304,-0.63008 0.60702,-0.65311c0.63007,-0.02303 0.65308,0.60704 0.65308,0.60704c0.13115,3.58763 0.2979,4.8365 3.60642,6.87166l0.15718,0.09669c0,0 0.537,0.33033 0.20669,0.86734z" fill="#864e00" stroke="none" stroke-width="0.5" stroke-linecap="butt"/><path d="M234.37289,132.35189c5.13335,7.0764 6.08372,15.14229 2.12273,18.01567c-3.96101,2.87339 -11.33342,-0.53384 -16.46677,-7.61024c-5.13335,-7.0764 -6.08372,-15.14229 -2.12273,-18.01567c3.96101,-2.87339 11.33342,0.53384 16.46677,7.61024z" fill="#8c6738" stroke="none" stroke-width="0" stroke-linecap="butt"/></g><path d="M224.89209,108.69994c-2.25568,0.36688 -4.68904,-0.23094 -6.96871,-0.14961c-2.63858,-0.41241 -7.29904,-0.44533 -9.34024,-2.2919c-0.0592,-0.02831 -0.11816,-0.0572 -0.17691,-0.08664c0,0 -0.42378,-0.21422 -0.20956,-0.638c0.21423,-0.42379 0.63801,-0.20956 0.63801,-0.20956c3.04307,1.55393 6.84569,1.43274 10.14969,1.6034c1.5032,-0.05873 5.01403,-0.01594 6.12176,-1.07569l0.14138,-0.20558c0,0 0.17966,-0.24345 0.4465,-0.19828c0.05981,-0.03326 0.13554,-0.0556 0.23132,-0.05933c0.4745,-0.01853 0.49302,0.45593 0.49302,0.45593c0.02229,0.66153 -0.10883,1.29138 -0.08195,1.95685l0.01236,0.3163c0,0 0.01855,0.47452 -0.45595,0.49305c-0.12289,0.0048 -0.21521,-0.02346 -0.28454,-0.06801c-0.18368,0.0561 -0.41993,0.1089 -0.71615,0.15707z" fill="#8c8172" stroke="none" stroke-width="0.5" stroke-linecap="butt"/><path d="M229.34803,122.79029c-2.68343,1.41648 -5.99876,1.69412 -8.83324,2.76139c-3.49513,0.59787 -9.37409,2.52909 -12.72447,1.06923c-0.08647,-0.01058 -0.17292,-0.02196 -0.2593,-0.03413c0,0 -0.62397,-0.09021 -0.53378,-0.71421c0.09021,-0.62397 0.71421,-0.53378 0.71421,-0.53378c4.48735,0.66752 9.22153,-1.09455 13.45173,-2.27828c1.8669,-0.71016 6.30325,-2.1424 7.24872,-3.94492l0.09088,-0.31857c0,0 0.12302,-0.38245 0.47798,-0.43855c0.0612,-0.06717 0.14705,-0.12733 0.26599,-0.17259c0.58926,-0.22417 0.81345,0.36512 0.81345,0.36512c0.30805,0.82309 0.40967,1.67122 0.72518,2.49733l0.14942,0.39285c0,0 0.22417,0.5893 -0.36512,0.81345c-0.15263,0.05807 -0.28077,0.06154 -0.38686,0.03485c-0.20741,0.14839 -0.48236,0.3148 -0.83477,0.50082z" fill="#8c8172" stroke="none" stroke-width="0.5" stroke-linecap="butt"/><path d="M224.79207,119.69595c-3.00514,0.41976 -6.21739,-0.44631 -9.24588,-0.40632c-3.49019,-0.62606 -9.67553,-0.8087 -12.33001,-3.32071c-0.07774,-0.03935 -0.15514,-0.07944 -0.23225,-0.12027c0,0 -0.55614,-0.29698 -0.25914,-0.85315c0.29701,-0.55615 0.85315,-0.25916 0.85315,-0.25916c3.99309,2.15342 9.04432,2.10589 13.42497,2.43091c1.99713,-0.03315 6.65619,0.12828 8.15814,-1.24538l0.19377,-0.26868c0,0 0.24574,-0.31785 0.5986,-0.24993c0.08037,-0.04236 0.18154,-0.06976 0.30883,-0.07185c0.63039,-0.01046 0.64085,0.61994 0.64085,0.61994c0.00985,0.87878 -0.18295,1.71095 -0.16711,2.59511l0.00697,0.42026c0,0 0.01046,0.63039 -0.61994,0.64085c-0.16329,0.00271 -0.28499,-0.03758 -0.37567,-0.09876c-0.24549,0.06901 -0.56066,0.13203 -0.95532,0.18716z" fill="#8c8172" stroke="none" stroke-width="0.5" stroke-linecap="butt"/><path d="M240.70753,134.89132c-2.43951,6.60146 -6.92564,11.02597 -10.02006,9.88245c-3.09442,-1.14353 -3.62535,-7.42203 -1.18585,-14.02349c2.43951,-6.60146 6.92564,-11.02597 10.02007,-9.88246c3.09442,1.14353 3.62533,7.42205 1.18585,14.02349z" fill="#8c6738" stroke="none" stroke-width="0" stroke-linecap="butt"/><path d="M236.5447,108.25208c6.98787,4.2984 8.86509,13.9403 4.19293,21.53579c-4.67217,7.59551 -14.12449,10.26832 -21.11233,5.96993c-6.98787,-4.2984 -8.86509,-13.9403 -4.19293,-21.53579c4.67218,-7.5955 14.12449,-10.26832 21.11233,-5.96993z" fill="#8c6738" stroke="none" stroke-width="0" stroke-linecap="butt"/><path d="M235.95457,108.96114c4.62953,-0.17871 9.09675,1.77895 9.97785,4.37258c0.88109,2.59361 -2.1576,4.84107 -6.78713,5.01977c-4.62953,0.17871 -9.09674,-1.77896 -9.97785,-4.37258c-0.8811,-2.59361 2.15761,-4.84108 6.78713,-5.01978z" fill="#8c6738" stroke="none" stroke-width="0" stroke-linecap="butt"/><path d="M244.81708,120.15514c-2.15057,4.10357 -6.07294,7.00253 -8.76083,6.47494c-2.68791,-0.52761 -3.12351,-4.28192 -0.97294,-8.3855c2.15056,-4.10358 6.07291,-7.00251 8.76084,-6.47492c2.6879,0.52761 3.12354,4.28191 0.97294,8.3855z" data-paper-data="{&quot;index&quot;:null}" fill="#8c6738" stroke="none" stroke-width="0" stroke-linecap="butt"/><path d="M245.44166,121.64196l-1.95558,-1.26039l0.9028,-1.5144l1.71334,1.14014l-0.49372,1.73726" fill="#b39675" stroke="#b39675" stroke-width="0.5" stroke-linecap="round"/><path d="M244.7636,110.78195c0.34107,0.20982 0.33225,0.50298 0.28042,0.689c2.75877,3.8126 -0.69688,7.29496 -2.78504,10.6897c0,0 -0.33034,0.53701 -0.86735,0.20668c-0.53701,-0.33033 -0.20668,-0.86734 -0.20668,-0.86734c1.67292,-2.71965 4.80962,-5.75826 3.14288,-8.80628c-0.03953,0.06429 -0.07189,0.11685 -0.09315,0.1514c0,0 -0.33034,0.53701 -0.86735,0.20669c-0.53701,-0.33033 -0.20668,-0.86734 -0.20668,-0.86734c0.1226,-0.19932 0.24519,-0.39861 0.36778,-0.59792l0.36779,-0.59793c0,0 0.33033,-0.537 0.86734,-0.20668z" fill="#864e00" stroke="none" stroke-width="0.5" stroke-linecap="butt"/><path d="M244.81975,110.54177c0.53701,0.33033 0.20669,0.86735 0.20669,0.86735c-0.24519,0.39861 -0.73559,1.19583 -0.98077,1.59443c0,0 -0.33034,0.53701 -0.86735,0.20668c-0.53701,-0.33033 -0.20668,-0.86735 -0.20668,-0.86735c0.24519,-0.39861 0.4904,-0.79722 0.73559,-1.19583l0.24519,-0.39862c0,0 0.33034,-0.53701 0.86735,-0.20668z" fill="#871400" stroke="none" stroke-width="0.5" stroke-linecap="butt"/><path d="M231.83355,112.59236c-0.11337,-0.28285 0.06241,-0.56863 0.06241,-0.56863l0.10486,-0.14377c1.97697,-1.65315 2.91713,1.45891 0.3463,1.21856c0,0 -0.46026,-0.0858 -0.51361,-0.50615z" fill="#000000" stroke="none" stroke-width="0.5" stroke-linecap="butt"/><path d="M217.07306,111.12621c0.09507,-0.01756 0.61184,-0.08599 0.74441,0.47022c0.14615,0.61331 -0.46716,0.75947 -0.46716,0.75947l-0.39569,0.01682c-0.71984,-0.41168 -0.82747,1.26391 -0.8713,1.78296c0,0 -0.05528,0.62806 -0.68334,0.57276c-0.62805,-0.05529 -0.57275,-0.68335 -0.57275,-0.68335c0.13931,-1.52894 0.55561,-3.08639 2.24587,-2.91887z" fill="#8c6738" stroke="none" stroke-width="0.5" stroke-linecap="butt"/><path d="M227.37818,130.16952c4.13251,5.69673 5.31784,11.88516 2.64748,13.82229c-2.67033,1.93711 -8.18513,-1.11065 -12.31764,-6.80738c-4.1325,-5.69672 -5.31783,-11.88516 -2.64748,-13.82228c2.67033,-1.93711 8.18514,1.11065 12.31765,6.80737z" fill="#8c6738" stroke="none" stroke-width="0" stroke-linecap="butt"/><path d="M235.49984,124.82732c-0.33033,0.537 -0.86734,0.20669 -0.86734,0.20669l-0.15719,-0.09668c-3.62703,-2.23109 -4.06103,-3.9367 -4.20588,-7.89963c0,0 -0.02304,-0.63008 0.60702,-0.65311c0.63007,-0.02303 0.65308,0.60704 0.65308,0.60704c0.13115,3.58763 0.2979,4.8365 3.60642,6.87166l0.15718,0.09669c0,0 0.537,0.33033 0.20669,0.86734z" fill="#864e00" stroke="none" stroke-width="0.5" stroke-linecap="butt"/><path d="M234.37289,132.35189c5.13335,7.0764 6.08372,15.14229 2.12273,18.01567c-3.96101,2.87339 -11.33342,-0.53384 -16.46677,-7.61024c-5.13335,-7.0764 -6.08372,-15.14229 -2.12273,-18.01567c3.96101,-2.87339 11.33342,0.53384 16.46677,7.61024z" fill="#8c6738" stroke="none" stroke-width="0" stroke-linecap="butt"/><g data-paper-data="{&quot;index&quot;:null}" stroke="none" stroke-width="0.5" stroke-linecap="butt"><path d="M235.33735,124.02379c0.15708,0.61059 -0.4535,0.76768 -0.4535,0.76768l0.04726,-0.11394c-0.76835,0.82105 -1.57691,1.64303 -2.20151,2.57815c-2.46667,3.66547 -4.43267,7.65106 -6.77037,11.24035c0,0 -0.35198,0.52306 -0.87507,0.17106c-0.52309,-0.35199 -0.17109,-0.87506 -0.17109,-0.87506c2.4019,-3.40518 4.3527,-7.6477 6.77036,-11.24037c0.66988,-0.98921 1.51076,-1.86355 2.32697,-2.73574l0.55928,-0.24566c0,0 0.61059,-0.15708 0.76768,0.4535z" fill="#7a6a5e"/><path d="M226.32777,136.66979c-0.13255,0.61637 -0.74896,0.48382 -0.74896,0.48382c-0.21655,-0.04658 -0.93292,-0.20063 -1.14949,-0.2472c0,0 -0.1873,-0.04026 -0.33318,-0.17966c-0.95369,-0.16276 -2.09127,-0.35098 -2.81612,0.16755c0,0 -0.52958,0.34211 -0.87169,-0.18747c-0.34212,-0.52959 0.18747,-0.87169 0.18747,-0.87169c1.29994,-0.78924 2.82686,-0.45752 4.27957,-0.26013l0.3975,0.08359c0,0 0.22204,0.04776 0.37094,0.21919l0.20014,0.04307c0,0 0.61641,0.13256 0.48385,0.74894z" fill="#7a0c00"/><path d="M226.50731,137.04145c0.56412,-0.28155 0.84567,0.28258 0.84567,0.28258l0.15468,0.31064c0.59687,1.30268 0.68711,2.2629 0.38766,3.65993c0,0 -0.13257,0.61639 -0.74896,0.48382c-0.61637,-0.13255 -0.48385,-0.74894 -0.48385,-0.74894c0.24625,-1.14092 0.19331,-1.80234 -0.30015,-2.86724l-0.13766,-0.27511c0,0 -0.28153,-0.56413 0.2826,-0.84569z" fill="#7a0c00"/><path d="M228.58377,132.50127c-0.13255,0.61637 -0.74896,0.48382 -0.74896,0.48382l-0.14997,-0.03226c-1.05765,-0.22745 -2.11204,-0.48623 -3.19876,-0.4457c0,0 -0.63016,0.02088 -0.65105,-0.60924c-0.02089,-0.63011 0.60925,-0.65103 0.60925,-0.65103c1.19583,-0.03552 2.34169,0.22291 3.5057,0.47325l0.14994,0.03224c0,0 0.61641,0.13256 0.48385,0.74894z" fill="#7a0c00"/><path d="M229.02394,132.87668c0.56412,-0.28155 0.84568,0.28257 0.84568,0.28257l0.14617,0.29289c0.55902,1.12013 1.13997,2.08258 1.48484,3.14775c-0.34508,0.79315 -0.66583,1.5796 -0.95117,2.34444c-0.00935,-0.07099 -0.00648,-0.11961 -0.00648,-0.11961c0.11725,-1.9155 -0.83647,-3.16857 -1.65546,-4.80951l-0.14617,-0.29289c0,0 -0.28154,-0.5641 0.28257,-0.84568z" fill="#7a0c00"/><path d="M231.08568,128.71058c-0.33522,0.53396 -0.8692,0.19875 -0.8692,0.19875l-0.39626,-0.26304c-1.12625,-0.43346 -2.25279,-0.53979 -3.44506,-0.63447c0,0 -0.42989,-0.03414 -0.55036,-0.4015c0.33813,-0.24619 0.69536,-0.5222 1.06383,-0.82092c1.16205,0.10281 2.26903,0.25775 3.38107,0.67876l0.61724,0.37323c0,0 0.53399,0.33522 0.19877,0.86919z" fill="#7a0c00"/><path d="M231.23705,128.90336c0.52959,-0.34212 0.87175,0.18746 0.87175,0.18746l0.31382,0.48578c0.54722,0.84921 0.92388,1.62187 1.26943,2.45984c-0.25718,0.49398 -0.51312,0.99712 -0.76485,1.50537c-0.45235,-1.21756 -0.82472,-2.14013 -1.56377,-3.28099l-0.31384,-0.48577c0,0 -0.34214,-0.52958 0.18746,-0.87171z" fill="#7a0c00"/><path d="M232.55575,126.70935c-0.49643,0.38866 -0.88508,-0.10776 -0.88508,-0.10776l-0.21944,-0.28252c-0.54773,-0.61333 -1.17548,-1.09202 -1.85483,-1.48765c0.39587,-0.20963 0.80958,-0.44789 1.23153,-0.70821c0.56186,0.38086 1.08663,0.82412 1.56279,1.35481l0.27283,0.34625c0,0 0.38867,0.49642 -0.10776,0.88508z" fill="#7a0c00"/><path d="M233.09488,126.21156c0.4522,-0.43932 0.89154,0.0129 0.89154,0.0129l0.1013,0.10589c0.36265,0.33107 0.67672,0.6713 0.97084,1.01976c-0.12115,0.54076 -0.22919,1.07797 -0.32123,1.60439c-0.45375,-0.58768 -0.90427,-1.14927 -1.49976,-1.69289l-0.15556,-0.15852c0,0 -0.43933,-0.45222 0.01287,-0.89154z" fill="#7a0c00"/><path d="M234.46047,124.06634c-0.39423,0.49204 -0.88626,0.0978 -0.88626,0.0978l-0.17839,-0.14293c-0.39153,-0.31377 -0.74298,-0.59442 -1.14822,-0.83509c0.36453,-0.25602 0.72746,-0.52274 1.08283,-0.796c0.28646,0.19835 0.56293,0.41403 0.85382,0.64702l0.17842,0.14297c0,0 0.49203,0.3942 0.0978,0.88626z" fill="#7a0c00"/><path d="M227.35421,134.32839c-0.13255,0.61637 -0.74896,0.48382 -0.74896,0.48382l-0.24678,-0.05497c-1.37785,-0.41017 -2.36035,-0.19861 -3.74569,0.03915c0,0 -0.62154,0.10585 -0.72739,-0.51567c-0.10582,-0.62154 0.51568,-0.7274 0.51568,-0.7274c1.57083,-0.2652 2.74764,-0.46944 4.31627,-0.00488l0.15303,0.03101c0,0 0.61639,0.13257 0.48382,0.74896z" fill="#7a6500"/><path d="M227.88372,134.7351c0.47588,-0.41357 0.88945,0.06229 0.88945,0.06229l0.2214,0.26438c0.68686,1.10026 1.05701,2.80218 1.29788,4.09503c0,0 0.1147,0.61996 -0.50524,0.73467c-0.61998,0.11471 -0.73467,-0.50524 -0.73467,-0.50524c-0.20492,-1.116 -0.49529,-2.72388 -1.11714,-3.64021l-0.11396,-0.12146c0,0 -0.41359,-0.47589 0.06229,-0.88945z" fill="#7a6500"/><path d="M229.80801,130.30176c-0.32069,0.54284 -0.86352,0.22217 -0.86352,0.22217l-0.09661,-0.05925c-0.96189,-0.49119 -2.20741,-0.54432 -3.25886,-0.83971c0,0 -0.60696,-0.17073 -0.43617,-0.77767c0.17076,-0.60693 0.77768,-0.43616 0.77768,-0.43616c1.15103,0.32431 2.40062,0.40926 3.47356,0.92187l0.18176,0.10521c0,0 0.54284,0.32069 0.22215,0.86351z" fill="#7a6500"/><path d="M230.42844,130.80503c0.50178,-0.38171 0.88352,0.12007 0.88352,0.12007l0.25331,0.3363c0.77063,0.86286 1.14006,1.68543 1.59584,2.73834c0,0 0.25039,0.57861 -0.32823,0.82901c-0.57862,0.25041 -0.82902,-0.32821 -0.82902,-0.32821c-0.40632,-0.93919 -0.69329,-1.63512 -1.37809,-2.39809l-0.31738,-0.41389c0,0 -0.3817,-0.5018 0.12007,-0.88352z" fill="#7a6500"/><path d="M232.10172,128.04356c0.52959,-0.34212 0.87171,0.18746 0.87171,0.18746l0.026,0.12776c0.54111,0.37574 1.09321,0.72994 1.66032,1.06094c-0.0732,0.46172 -0.13311,0.91322 -0.17768,1.34942c-0.75719,-0.42083 -1.48827,-0.87979 -2.20149,-1.37438l-0.36629,-0.47951c0,0 -0.34214,-0.52958 0.18746,-0.87171z" fill="#7a6500"/><path d="M231.81842,127.11444c-0.26311,0.57296 -0.83607,0.30983 -0.83607,0.30983l-0.29775,-0.15323c-0.67025,-0.14413 -1.3276,-0.28636 -1.98525,-0.48113c0,0 -0.60441,-0.17944 -0.42495,-0.78385c0.17946,-0.60441 0.78385,-0.42495 0.78385,-0.42495c0.62637,0.18646 1.25273,0.31982 1.8915,0.45717l0.55886,0.24011c0,0 0.57295,0.26312 0.30983,0.83607z" fill="#7a6500"/><path d="M234.14598,124.89487c0.43078,-0.46034 0.89116,-0.02951 0.89116,-0.02951l0.1655,0.15989c0.12549,0.09428 0.24913,0.18588 0.37084,0.2767c-0.1212,0.43616 -0.23619,0.87591 -0.34344,1.31548c-0.25225,-0.19582 -0.5151,-0.38147 -0.78473,-0.58398l-0.26978,-0.24744c0,0 -0.46035,-0.4308 -0.02957,-0.89115z" fill="#7a6500"/><path d="M233.51065,125.24168c-0.32069,0.54284 -0.86351,0.22215 -0.86351,0.22215l-0.33634,-0.20318c-0.34792,-0.26207 -0.70859,-0.50877 -1.08396,-0.72972c0,0 -0.27853,-0.16453 -0.31872,-0.45739c0.31784,-0.19767 0.64001,-0.40757 0.96246,-0.62684c0.41383,0.24539 0.8125,0.51729 1.19754,0.80575l0.22037,0.12572c0,0 0.54284,0.32069 0.22217,0.86352z" fill="#7a6500"/><path d="M225.56619,137.27846c-0.07055,0.62651 -0.69706,0.55596 -0.69706,0.55596l-0.47961,-0.05481c-0.62325,-0.0393 -1.24627,-0.08366 -1.86836,-0.13821c0,0 -0.62805,-0.05508 -0.57299,-0.68315c0.05511,-0.62807 0.68316,-0.57303 0.68316,-0.57303c0.61182,0.05371 1.22454,0.09729 1.83749,0.1359l0.54141,0.06023c0,0 0.62651,0.07057 0.55592,0.69709z" fill="#246800"/><path d="M226.70707,138.20067c0.62586,0.07624 0.54966,0.70206 0.54966,0.70206l-0.07774,0.61686c-0.05374,0.24988 -0.10748,0.49976 -0.16123,0.74963c0,0 -0.13256,0.61641 -0.74894,0.48385c-0.61637,-0.13255 -0.48382,-0.74896 -0.48382,-0.74896c0.05374,-0.24988 0.10746,-0.49978 0.16121,-0.74966l0.05879,-0.50413c0,0 0.07622,-0.62588 0.70206,-0.54966z" fill="#246800"/><path d="M227.89966,135.80331c0.57862,-0.25041 0.82903,0.32822 0.82903,0.32822l0.20063,0.47521c0.21296,0.72767 0.30156,1.40054 0.32755,2.15751c0,0 0.0209,0.63014 -0.60924,0.65105c-0.63011,0.02089 -0.65102,-0.60926 -0.65102,-0.60926c-0.02078,-0.65172 -0.08932,-1.21635 -0.27647,-1.84174l-0.14868,-0.33197c0,0 -0.25041,-0.57862 0.32822,-0.82903z" fill="#246800"/><path d="M226.58571,135.47036c-0.13255,0.61637 -0.74894,0.48385 -0.74894,0.48385l-0.05468,-0.01928c-0.7312,-0.04334 -1.4198,-0.09036 -2.13734,-0.24297c0,0 -0.61639,-0.13257 -0.48382,-0.74896c0.13255,-0.61637 0.74896,-0.48382 0.74896,-0.48382c0.65372,0.14234 1.27963,0.1775 1.94681,0.21703l0.24522,0.04523c0,0 0.61639,0.13257 0.48382,0.74896z" fill="#246800"/><path d="M227.92974,133.35411c-0.13255,0.61637 -0.74894,0.48385 -0.74894,0.48385l-0.23577,-0.05719c-0.70805,-0.26149 -1.41849,-0.51593 -2.12897,-0.77077c0,0 -0.59347,-0.21286 -0.3806,-0.80633c0.21286,-0.59347 0.80632,-0.38061 0.80632,-0.38061c0.7142,0.25616 1.42827,0.51196 2.14003,0.77478l0.06409,0.00731c0,0 0.6164,0.13258 0.48383,0.74897z" fill="#246800"/><path d="M229.55665,132.26523c0.39423,-0.49204 0.88624,-0.09782 0.88624,-0.09782l0.31377,0.29287c0.57009,0.88298 1.045,1.81849 1.61539,2.7004c0,0 0.34212,0.52959 -0.18748,0.87172c-0.52959,0.34212 -0.87171,-0.18746 -0.87171,-0.18746c-0.56956,-0.8827 -1.04484,-1.81778 -1.61539,-2.70039l-0.04304,0.00698c0,0 -0.49203,-0.3942 -0.0978,-0.88626z" fill="#246800"/><path d="M229.19153,131.37705c-0.13255,0.61637 -0.74893,0.48381 -0.74893,0.48381l-0.34675,-0.07646c-0.68523,-0.20393 -1.319,-0.44037 -2.01992,-0.58937c0,0 -0.61639,-0.13257 -0.48382,-0.74896c0.13255,-0.61637 0.74896,-0.48382 0.74896,-0.48382c0.73351,0.15938 1.39702,0.40108 2.1137,0.61333l0.25297,0.05249c0,0 0.61639,0.13257 0.48382,0.74896z" fill="#246800"/><path d="M230.87914,130.08134c0.52959,-0.34212 0.87172,0.18748 0.87172,0.18748l0.22755,0.35801c0.21046,0.4106 0.42997,0.81679 0.65971,1.21694c0,0 0.3138,0.54682 -0.23303,0.86063c-0.54683,0.31381 -0.86063,-0.23301 -0.86063,-0.23301c-0.23942,-0.4174 -0.46835,-0.84097 -0.68803,-1.26908l-0.16473,-0.24924c0,0 -0.34212,-0.52956 0.18748,-0.87169z" fill="#246800"/><path d="M230.5678,129.11086c-0.13255,0.61637 -0.74896,0.48382 -0.74896,0.48382l-0.14686,-0.03347c-0.66068,-0.19831 -1.25232,-0.26213 -1.94102,-0.31663c0,0 -0.6285,-0.04993 -0.57857,-0.67842c0.04993,-0.62849 0.67842,-0.57857 0.67842,-0.57857c0.77319,0.06168 1.45571,0.1459 2.20009,0.36478l0.05307,0.00951c0,0 0.61639,0.13257 0.48382,0.74896z" fill="#246800"/><path d="M232.74177,126.7694c0.52959,-0.34212 0.87171,0.18746 0.87171,0.18746l0.15226,0.24274c0.30757,0.6217 0.57031,0.95296 1.03889,1.38342c-0.08284,0.4426 -0.15504,0.87885 -0.21495,1.30462c-0.23183,-0.0141 -0.4075,-0.16946 -0.4075,-0.16946c-0.70735,-0.63052 -1.12268,-1.11617 -1.5447,-1.95549l-0.08314,-0.1216c0,0 -0.34214,-0.52958 0.18746,-0.87171z" fill="#246800"/><path d="M233.60322,125.43826c0.52959,-0.34212 0.87171,0.18746 0.87171,0.18746l0.0633,0.12956c0.30661,0.2943 0.48472,0.56318 0.71785,0.75625c-0.10462,0.42397 -0.20213,0.84805 -0.29119,1.26875c-0.49993,-0.25108 -0.75539,-0.5959 -1.29854,-1.11403l-0.25056,-0.35627c0,0 -0.34212,-0.52959 0.18746,-0.87171z" fill="#246800"/><path d="M234.62372,124.40548c-0.34054,0.53058 -0.87116,0.19004 -0.87116,0.19004l-0.23989,-0.17303c-0.24272,-0.08704 -0.48543,-0.17411 -0.72815,-0.26118c0,0 -0.59347,-0.21286 -0.38061,-0.80632c0.21286,-0.59347 0.80633,-0.38064 0.80633,-0.38064c0.24272,0.08704 0.48542,0.17413 0.72816,0.26118l0.49528,0.29879c0,0 0.53058,0.34054 0.19005,0.87115z" fill="#246800"/><path d="M231.80811,128.8459c0.46614,-0.42454 0.89066,0.04161 0.89066,0.04161l0.31853,0.35114c0.42306,0.51967 0.87937,0.98347 1.35625,1.45382c0,0 0.05161,0.05088 0.10255,0.13566c-0.02417,0.24319 -0.04351,0.48152 -0.05767,0.71409c-0.0121,0.01396 -0.02501,0.02789 -0.03877,0.04186c-0.44276,0.44885 -0.89162,0.00611 -0.89162,0.00611c-0.50906,-0.50221 -0.99519,-1.0005 -1.44787,-1.55448l-0.27366,-0.29912c0,0 -0.42454,-0.46614 0.04161,-0.89066z" fill="#693d00"/><path d="M234.43536,124.24835c0.32069,-0.54284 0.86351,-0.22215 0.86351,-0.22215l0.21274,0.13302c0.10479,0.08454 0.21208,0.16621 0.32157,0.24494c-0.12637,0.4203 -0.24778,0.84658 -0.3628,1.27535c-0.25781,-0.16632 -0.50755,-0.34539 -0.74718,-0.53623l-0.06564,-0.03142c0,0 -0.54284,-0.32069 -0.22217,-0.86353z" fill="#693d00"/></g><g data-paper-data="{&quot;index&quot;:null}" stroke="none" stroke-width="0.5" stroke-linecap="butt"><path d="M230.337,119.37514c-0.16818,0.60763 -0.77579,0.43945 -0.77579,0.43945l0.09776,-0.07522c-1.07538,0.32878 -2.18604,0.63827 -3.19365,1.13757c-3.96553,1.948 -7.65659,4.42314 -11.47234,6.36937c0,0 -0.56587,0.27798 -0.84388,-0.28791c-0.27798,-0.56587 0.28791,-0.84388 0.28791,-0.84388c3.77963,-1.75463 7.58558,-4.46004 11.47233,-6.36938c1.07383,-0.52363 2.23862,-0.86242 3.38096,-1.21166l0.60727,0.06582c0,0 0.60764,0.16819 0.43945,0.77582z" fill="#7a6a5e"/><path d="M216.22279,125.8469c-0.42216,0.46827 -0.89043,0.04609 -0.89043,0.04609c-0.16452,-0.14832 -0.70875,-0.63898 -0.87327,-0.78729c0,0 -0.14228,-0.12828 -0.19927,-0.32185c-0.74561,-0.61651 -1.63797,-1.34673 -2.52484,-1.25855c0,0 -0.62962,0.03261 -0.66222,-0.59702c-0.0326,-0.62964 0.59702,-0.66222 0.59702,-0.66222c1.52037,-0.03618 2.67869,1.01251 3.83965,1.90777l0.30293,0.27062c0,0 0.16868,0.15208 0.21229,0.37494l0.15206,0.13707c0,0 0.46827,0.42218 0.04609,0.89044z" fill="#7a0c00"/><path d="M216.19316,126.25856c0.62939,0.03713 0.59226,0.66653 0.59226,0.66653l-0.02075,0.34639c-0.13191,1.42683 -0.53233,2.30422 -1.48833,3.36604c0,0 -0.42219,0.46828 -0.89046,0.0461c-0.46827,-0.42217 -0.04608,-0.89043 -0.04608,-0.89043c0.78218,-0.86632 1.06599,-1.46607 1.16905,-2.63524l0.0178,-0.30713c0,0 0.03716,-0.62939 0.66651,-0.59227z" fill="#7a0c00"/><path d="M220.25644,123.35775c-0.42216,0.46827 -0.89043,0.04608 -0.89043,0.04608l-0.11391,-0.10269c-0.80348,-0.72441 -1.58858,-1.47434 -2.55087,-1.98092c0,0 -0.55669,-0.29599 -0.26067,-0.85266c0.29599,-0.55669 0.85268,-0.26069 0.85268,-0.26069c1.05436,0.56532 1.91889,1.36054 2.80321,2.15776l0.1139,0.10269c0,0 0.46828,0.42219 0.04611,0.89045z" fill="#7a0c00"/><path d="M220.45089,123.90261c0.62939,0.03713 0.59224,0.66651 0.59224,0.66651l-0.01929,0.32676c-0.07376,1.24971 -0.04987,2.37368 -0.28189,3.46898c-0.69452,0.51557 -1.36461,1.03743 -1.99321,1.55827c0.0273,-0.06619 0.05401,-0.10692 0.05401,-0.10692c1.05649,-1.6021 0.85431,-3.16381 0.96231,-4.99459l0.0193,-0.32674c0,0 0.03717,-0.62938 0.66654,-0.59225z" fill="#7a0c00"/><path d="M224.31495,121.31874c-0.55678,0.29581 -0.85257,-0.26097 -0.85257,-0.26097l-0.21242,-0.42556c-0.76025,-0.93719 -1.68386,-1.59093 -2.67024,-2.2673c0,0 -0.35568,-0.24392 -0.27696,-0.62243c0.41585,-0.04485 0.8631,-0.10605 1.33145,-0.18137c0.95615,0.66838 1.83855,1.35453 2.59271,2.27384l0.34904,0.63123c0,0 0.29581,0.55678 -0.26096,0.85258z" fill="#7a0c00"/><path d="M224.35007,121.56133c0.62964,-0.0326 0.66224,0.59707 0.66224,0.59707l0.02988,0.57759c0.05106,1.00896 -0.00756,1.86653 -0.1257,2.76521c-0.46918,0.30004 -0.94188,0.60862 -1.41345,0.92374c0.2148,-1.28099 0.35188,-2.26638 0.27988,-3.62377l-0.02991,-0.57759c0,0 -0.03261,-0.62965 0.59704,-0.66223z" fill="#7a0c00"/><path d="M226.58695,120.31668c-0.62411,0.08949 -0.71357,-0.53462 -0.71357,-0.53462l-0.0494,-0.35426c-0.16911,-0.80472 -0.47467,-1.53264 -0.8664,-2.21423c0.44768,0.0156 0.92507,0.01528 1.42065,-0.00005c0.29722,0.61025 0.5312,1.25607 0.67944,1.95349l0.06391,0.43615c0,0 0.08947,0.62408 -0.53462,0.71357z" fill="#7a0c00"/><path d="M227.30245,120.1539c0.61101,-0.15541 0.76646,0.45557 0.76646,0.45557l0.03505,0.14229c0.14935,0.46777 0.25203,0.91928 0.33328,1.36797c-0.37458,0.40841 -0.73602,0.82026 -1.07824,1.23073c-0.10042,-0.73563 -0.21104,-1.44708 -0.45627,-2.21518l-0.05584,-0.21497c0,0 -0.15543,-0.61103 0.45557,-0.76646z" fill="#7a0c00"/><path d="M229.55563,118.97491c-0.58702,0.23002 -0.81705,-0.35701 -0.81705,-0.35701l-0.08342,-0.21285c-0.18301,-0.46718 -0.34775,-0.88564 -0.57911,-1.29631c0.44363,-0.04023 0.89121,-0.09052 1.33551,-0.15027c0.14946,0.31474 0.28163,0.63953 0.41766,0.98652l0.0834,0.21289c0,0 0.23002,0.58698 -0.35698,0.81703z" fill="#7a0c00"/><path d="M218.27975,124.32875c-0.42216,0.46827 -0.89045,0.04611 -0.89045,0.04611l-0.18654,-0.17069c-0.99002,-1.04243 -1.94718,-1.34875 -3.26666,-1.83322c0,0 -0.59158,-0.21803 -0.3735,-0.8096c0.21808,-0.59158 0.80962,-0.37351 0.80962,-0.37351c1.49396,0.5531 2.61596,0.96267 3.74421,2.14733l0.11721,0.10316c0,0 0.46828,0.42219 0.0461,0.89044z" fill="#7a6500"/><path d="M218.53608,124.9453c0.61872,-0.12131 0.74001,0.49738 0.74001,0.49738l0.06012,0.33955c0.04699,1.29621 -0.48051,2.95611 -0.91617,4.19695c0,0 -0.20959,0.59461 -0.8042,0.38502c-0.59462,-0.2096 -0.38503,-0.80423 -0.38503,-0.80423c0.37867,-1.0696 0.92844,-2.6082 0.8461,-3.71255l-0.03824,-0.1621c0,0 -0.12134,-0.61869 0.49738,-0.74001z" fill="#7a6500"/><path d="M222.41416,122.06125c-0.54858,0.3107 -0.85931,-0.23786 -0.85931,-0.23786l-0.0542,-0.09952c-0.58903,-0.90532 -1.64229,-1.57222 -2.40653,-2.35242c0,0 -0.44104,-0.45057 0.00951,-0.89157c0.45057,-0.44101 0.8916,0.00954 0.8916,0.00954c0.83617,0.85491 1.87708,1.55145 2.55172,2.53069l0.10513,0.1818c0,0 0.31072,0.5486 -0.23788,0.85933z" fill="#7a6500"/><path d="M222.70114,122.80682c0.62526,-0.0808 0.70608,0.54449 0.70608,0.54449l0.05194,0.41781c0.23795,1.13216 0.14819,2.0294 0.01842,3.16934c0,0 -0.07137,0.62642 -0.69781,0.55506c-0.62644,-0.07136 -0.55508,-0.6978 -0.55508,-0.6978c0.11592,-1.01671 0.21407,-1.76306 0.00074,-2.76584l-0.06882,-0.51702c0,0 -0.08079,-0.62526 0.54451,-0.70606z" fill="#7a6500"/><path d="M225.52827,121.24699c0.62964,-0.0326 0.66225,0.59703 0.66225,0.59703l-0.04116,0.1237c0.28178,0.59546 0.58383,1.17774 0.91044,1.74738c-0.2936,0.36375 -0.5706,0.72532 -0.8267,1.08124c-0.44663,-0.74225 -0.8516,-1.50457 -1.22339,-2.28885l-0.07851,-0.59828c0,0 -0.03263,-0.62964 0.59702,-0.66222z" fill="#7a6500"/><path d="M225.7458,120.30032c-0.5137,0.36555 -0.87922,-0.14817 -0.87922,-0.14817l-0.18173,-0.28127c-0.5092,-0.45907 -1.00814,-0.91 -1.48118,-1.4067c0,0 -0.43453,-0.45685 0.02234,-0.89137c0.45685,-0.4345 0.89135,0.02235 0.89135,0.02235c0.45007,0.47388 0.92658,0.90172 1.41184,1.3392l0.3648,0.48673c0,0 0.36552,0.51372 -0.14817,0.87922z" fill="#7a6500"/><path d="M228.86998,119.53641c0.60293,-0.18433 0.78727,0.41865 0.78727,0.41865l0.06377,0.22108c0.06178,0.14431 0.1233,0.28534 0.18356,0.42476c-0.32247,0.31768 -0.6414,0.64159 -0.95348,0.9692c-0.12108,-0.29549 -0.25638,-0.58746 -0.38918,-0.89743l-0.11054,-0.34899c0,0 -0.18434,-0.60293 0.4186,-0.78726z" fill="#7a6500"/><path d="M228.14634,119.52036c-0.54858,0.3107 -0.85935,-0.23786 -0.85935,-0.23786l-0.19029,-0.34379c-0.17095,-0.40063 -0.36065,-0.79428 -0.57593,-1.17295c0,0 -0.15945,-0.28148 -0.0483,-0.55538c0.37407,-0.01296 0.75798,-0.03428 1.14685,-0.06365c0.23647,0.41903 0.44647,0.85344 0.63646,1.29547l0.1284,0.21882c0,0 0.31072,0.5486 -0.23784,0.85933z" fill="#7a6500"/><path d="M215.25916,125.9949c-0.37348,0.50797 -0.8814,0.13447 -0.8814,0.13447l-0.38847,-0.28658c-0.5207,-0.34475 -1.03867,-0.69378 -1.5508,-1.05115c0,0 -0.51702,-0.36081 -0.15618,-0.87784c0.36085,-0.51703 0.87786,-0.1562 0.87786,-0.1562c0.5036,0.35154 1.01306,0.69473 1.5252,1.03376l0.43933,0.32209c0,0 0.50796,0.37347 0.13446,0.88143z" fill="#246800"/><path d="M215.7885,127.36306c0.50457,0.37804 0.12654,0.88262 0.12654,0.88262l-0.37488,0.49602c-0.17115,0.18983 -0.34231,0.37967 -0.51345,0.5695c0,0 -0.42216,0.46827 -0.89043,0.04609c-0.46827,-0.42217 -0.04611,-0.89045 -0.04611,-0.89045c0.17115,-0.18983 0.34231,-0.37967 0.51345,-0.5695l0.30225,-0.40774c0,0 0.37804,-0.50457 0.88262,-0.12654z" fill="#246800"/><path d="M218.01739,125.8793c0.62644,0.07136 0.55506,0.69777 0.55506,0.69777l-0.06295,0.51198c-0.1781,0.73698 -0.43671,1.36445 -0.79154,2.03361c0,0 -0.29599,0.55669 -0.85266,0.26067c-0.55669,-0.29599 -0.26065,-0.85268 -0.26065,-0.85268c0.30686,-0.57535 0.52888,-1.09896 0.6784,-1.73443l0.0366,-0.36187c0,0 0.07135,-0.62643 0.6978,-0.55507z" fill="#246800"/><path d="M217.04432,124.93565c-0.42216,0.46827 -0.89045,0.04611 -0.89045,0.04611l-0.0378,-0.04395c-0.61228,-0.40205 -1.18579,-0.7861 -1.73173,-1.27608c0,0 -0.46828,-0.42219 -0.0461,-0.89044c0.42216,-0.46827 0.89045,-0.04611 0.89045,-0.04611c0.49577,0.44926 1.02081,0.79175 1.57952,1.15858l0.19002,0.16145c0,0 0.46828,0.42219 0.0461,0.89044z" fill="#246800"/><path d="M219.26434,123.77104c-0.42216,0.46827 -0.89045,0.04611 -0.89045,0.04611l-0.17586,-0.16711c-0.48351,-0.57964 -0.97251,-1.15434 -1.4614,-1.72942c0,0 -0.40837,-0.48035 0.07199,-0.88872c0.48035,-0.40837 0.88874,0.072 0.88874,0.072c0.49141,0.57807 0.98293,1.1558 1.46896,1.73843l0.05192,0.03829c0,0 0.46827,0.42217 0.04609,0.89043z" fill="#246800"/><path d="M221.21751,123.63808c0.58702,-0.23002 0.81704,0.35701 0.81704,0.35701l0.12603,0.41029c0.05405,1.04963 -0.00059,2.09738 0.05428,3.14623c0,0 0.0326,0.62964 -0.59705,0.66223c-0.62964,0.0326 -0.66223,-0.59704 -0.66223,-0.59704c-0.05377,-1.04913 0.00035,-2.09668 -0.05428,-3.14623l-0.04078,-0.01541c0,0 -0.23001,-0.58702 0.35701,-0.81704z" fill="#246800"/><path d="M221.34372,122.68613c-0.42216,0.46827 -0.89043,0.04609 -0.89043,0.04609l-0.26249,-0.23914c-0.49237,-0.51835 -0.92392,-1.03927 -1.45729,-1.51781c0,0 -0.46827,-0.42218 -0.04608,-0.89043c0.42216,-0.46827 0.89043,-0.04608 0.89043,-0.04608c0.55645,0.50379 1.01112,1.04412 1.52662,1.5853l0.19313,0.17161c0,0 0.46828,0.42219 0.0461,0.89045z" fill="#246800"/><path d="M223.45261,122.4041c0.62964,-0.0326 0.66225,0.59703 0.66225,0.59703l0.0188,0.42379c-0.02222,0.46088 -0.0344,0.9224 -0.0347,1.38383c0,0 -0.00055,0.63047 -0.63104,0.62993c-0.63049,-0.00054 -0.62993,-0.63104 -0.62993,-0.63104c0.00052,-0.48121 0.01318,-0.9625 0.03614,-1.44313l-0.01856,-0.29818c0,0 -0.03263,-0.62964 0.59702,-0.66222z" fill="#246800"/><path d="M223.66648,121.40762c-0.42216,0.46827 -0.89046,0.0461 -0.89046,0.0461l-0.11064,-0.10222c-0.47388,-0.50125 -0.95495,-0.85151 -1.52484,-1.24205c0,0 -0.51996,-0.35655 -0.16339,-0.87654c0.35655,-0.51996 0.87654,-0.16338 0.87654,-0.16338c0.63953,0.43888 1.18924,0.85212 1.72542,1.41294l0.04128,0.0347c0,0 0.46827,0.42218 0.04609,0.89043z" fill="#246800"/><path d="M226.71824,120.46146c0.62964,-0.0326 0.66223,0.59704 0.66223,0.59704l0.01098,0.28631c-0.04325,0.69229 0.01936,1.1104 0.211,1.71717c-0.29245,0.34241 -0.57249,0.68461 -0.83666,1.02383c-0.19394,-0.12778 -0.26879,-0.35006 -0.26879,-0.35006c-0.29891,-0.89919 -0.41687,-1.52723 -0.36433,-2.46523l-0.01144,-0.14685c0,0 -0.03263,-0.62964 0.59702,-0.66222z" fill="#246800"/><path d="M228.1286,119.73693c0.62964,-0.0326 0.66223,0.59705 0.66223,0.59705l-0.00973,0.14383c0.11907,0.40797 0.13949,0.72986 0.24531,1.01345c-0.30206,0.31538 -0.59796,0.63439 -0.88487,0.95471c-0.30824,-0.46686 -0.35782,-0.89314 -0.57037,-1.61307l-0.03962,-0.43373c0,0 -0.03259,-0.62963 0.59705,-0.66223z" fill="#246800"/><path d="M229.52808,119.35032c-0.55971,0.29022 -0.84994,-0.26949 -0.84994,-0.26949l-0.1217,-0.2696c-0.16704,-0.19646 -0.33404,-0.39292 -0.50106,-0.58939c0,0 -0.40837,-0.48036 0.072,-0.88871c0.48035,-0.40837 0.88874,0.07197 0.88874,0.07197c0.16704,0.19646 0.33404,0.39292 0.50106,0.58939l0.28041,0.50592c0,0 0.29022,0.55971 -0.26949,0.84993z" fill="#246800"/><path d="M224.87379,121.79619c0.61572,-0.13565 0.7514,0.48005 0.7514,0.48005l0.10107,0.46318c0.10769,0.6614 0.27208,1.29092 0.45103,1.93639c0,0 0.01936,0.06983 0.02129,0.16872c-0.14216,0.19879 -0.27775,0.39574 -0.40597,0.59028c-0.01743,0.00603 -0.03559,0.01171 -0.05448,0.01694c-0.60757,0.16841 -0.77598,-0.43915 -0.77598,-0.43915c-0.19098,-0.68912 -0.36397,-1.36343 -0.48026,-2.06931l-0.08813,-0.39571c0,0 -0.13567,-0.61571 0.48003,-0.75138z" fill="#693d00"/><path d="M229.44314,119.12019c0.54858,-0.3107 0.85931,0.23786 0.85931,0.23786l0.11811,0.22136c0.04869,0.12554 0.10096,0.24981 0.15667,0.37265c-0.31905,0.30136 -0.63682,0.61042 -0.95025,0.92475c-0.14059,-0.2727 -0.26783,-0.55243 -0.38044,-0.83732l-0.04125,-0.05996c0,0 -0.31072,-0.5486 0.23788,-0.85933z" fill="#693d00"/></g><g stroke="none" stroke-width="0.5" stroke-linecap="butt"><path d="M225.08603,111.38812c-0.29828,0.55546 -0.85375,0.25716 -0.85375,0.25716l0.11196,-0.05174c-1.12143,0.08305 -2.27303,0.13952 -3.36605,0.40382c-4.29791,1.02369 -8.44466,2.62211 -12.59612,3.67719c0,0 -0.61329,0.14609 -0.75941,-0.46726c-0.1461,-0.61331 0.46721,-0.75941 0.46721,-0.75941c4.07389,-0.87617 8.38355,-2.67383 12.59613,-3.67718c1.16296,-0.27341 2.37386,-0.34646 3.56512,-0.43469l0.57772,0.19837c0,0 0.55545,0.29828 0.25718,0.85374z" fill="#7a6a5e"/><path d="M209.89074,114.58141c-0.5152,0.36342 -0.87863,-0.15178 -0.87863,-0.15178c-0.12769,-0.18101 -0.55004,-0.77974 -0.67772,-0.96078c0,0 -0.11041,-0.15655 -0.12322,-0.35791c-0.59094,-0.766 -1.29998,-1.67535 -2.18437,-1.78528c0,0 -0.62127,-0.10733 -0.51394,-0.72862c0.10731,-0.62128 0.7286,-0.51395 0.7286,-0.51395c1.49077,0.30063 2.38877,1.57933 3.32321,2.70899l0.23565,0.33086c0,0 0.13093,0.18562 0.12423,0.41258l0.11798,0.16728c0,0 0.36342,0.5152 -0.15178,0.87863z" fill="#7a0c00"/><path d="M209.77088,114.97636c0.60562,0.17529 0.43035,0.78089 0.43035,0.78089l-0.09676,0.33324c-0.44392,1.36242 -1.02829,2.12964 -2.19527,2.95401c0,0 -0.5152,0.36343 -0.87862,-0.15177c-0.36343,-0.5152 0.15177,-0.87863 0.15177,-0.87863c0.95425,-0.67211 1.36359,-1.1943 1.7224,-2.31181l0.08522,-0.29561c0,0 0.17527,-0.60561 0.78091,-0.43033z" fill="#7a0c00"/><path d="M214.37466,113.04501c-0.5152,0.36342 -0.87861,-0.15179 -0.87861,-0.15179l-0.0884,-0.1253c-0.62359,-0.88401 -1.22356,-1.78891 -2.05012,-2.49558c0,0 -0.47753,-0.41168 -0.06585,-0.88921c0.41169,-0.47751 0.88919,-0.06585 0.88919,-0.06585c0.9034,0.78431 1.57089,1.75086 2.25717,2.7238l0.08842,0.12532c0,0 0.36341,0.51519 -0.15179,0.87861z" fill="#7a0c00"/><path d="M214.44392,113.61937c0.60562,0.17529 0.43036,0.78088 0.43036,0.78088l-0.09101,0.31444c-0.34807,1.20254 -0.57307,2.30397 -1.04137,3.32094c-0.79128,0.34937 -1.56008,0.71027 -2.28827,1.07933c0.04123,-0.05853 0.0763,-0.09234 0.0763,-0.09234c1.38438,-1.32907 1.53224,-2.89684 2.04205,-4.65851l0.09101,-0.31443c0,0 0.17529,-0.60562 0.7809,-0.43034z" fill="#7a0c00"/><path d="M218.78336,111.95313c-0.60836,0.16546 -0.77385,-0.44288 -0.77385,-0.44288l-0.11312,-0.46201c-0.53438,-1.08201 -1.29073,-1.92365 -2.10331,-2.80126c0,0 -0.29299,-0.31646 -0.1326,-0.66823c0.41548,0.04813 0.8652,0.08727 1.33861,0.1173c0.78484,0.86312 1.49384,1.72728 2.02623,2.79048l0.20095,0.69276c0,0 0.16547,0.60836 -0.44292,0.77384z" fill="#7a0c00"/><path d="M218.76404,112.19749c0.62128,0.10731 0.51396,0.72859 0.51396,0.72859l-0.09847,0.56992c-0.1731,0.99534 -0.41977,1.81876 -0.73355,2.66913c-0.52389,0.18896 -1.05307,0.38546 -1.58263,0.5886c0.49251,-1.20189 0.84391,-2.13261 1.07364,-3.47237l0.09847,-0.56992c0,0 0.10732,-0.62128 0.72859,-0.51396z" fill="#7a0c00"/><path d="M221.22062,111.47783c-0.62845,-0.05065 -0.57781,-0.6791 -0.57781,-0.6791l0.03011,-0.35645c0.01288,-0.8222 -0.1243,-1.59961 -0.35574,-2.35091c0.43319,0.11415 0.89884,0.21927 1.38554,0.31383c0.15504,0.66085 0.24054,1.3424 0.23103,2.05534l-0.03405,0.43949c0,0 -0.05063,0.62844 -0.67907,0.57782z" fill="#7a0c00"/><path d="M221.95438,111.47715c0.63025,-0.01658 0.64686,0.61367 0.64686,0.61367l0.00274,0.14654c0.04229,0.48922 0.04269,0.95222 0.02279,1.4078c-0.45555,0.31558 -0.89905,0.63739 -1.32352,0.96209c0.06458,-0.73962 0.1139,-1.45795 0.04444,-2.26124l-0.00699,-0.22196c0,0 -0.0166,-0.63026 0.61367,-0.64686z" fill="#7a0c00"/><path d="M224.4124,110.82515c-0.62333,0.09463 -0.71799,-0.52871 -0.71799,-0.52871l-0.03431,-0.22601c-0.07528,-0.49607 -0.1435,-0.94059 -0.27836,-1.39223c0.44157,0.05879 0.88916,0.10862 1.3357,0.14853c0.07625,0.33999 0.13336,0.68596 0.18934,1.05442l0.03433,0.22603c0,0 0.09464,0.62336 -0.52869,0.71797z" fill="#7a0c00"/><path d="M212.23228,113.55528c-0.5152,0.36342 -0.87861,-0.15179 -0.87861,-0.15179l-0.14422,-0.20765c-0.73522,-1.23538 -1.60107,-1.74565 -2.78087,-2.50966c0,0 -0.52875,-0.34338 -0.18539,-0.87213c0.34339,-0.52876 0.87215,-0.18541 0.87215,-0.18541c1.33484,0.86955 2.33858,1.51689 3.17721,2.92155l0.09152,0.1265c0,0 0.36343,0.5152 -0.15177,0.87862z" fill="#7a6500"/><path d="M212.34605,114.21321c0.6302,0.01841 0.61184,0.64862 0.61184,0.64862l-0.0164,0.34443c-0.2406,1.27457 -1.12177,2.77689 -1.82083,3.89079c0,0 -0.33579,0.53362 -0.8694,0.19784c-0.53362,-0.33579 -0.19782,-0.86942 -0.19782,-0.86942c0.60563,-0.95952 1.48177,-2.33863 1.64551,-3.43387l-0.00148,-0.16653c0,0 0.01839,-0.63023 0.6486,-0.61184z" fill="#7a6500"/><path d="M216.76553,112.25731c-0.60369,0.18187 -0.78554,-0.42185 -0.78554,-0.42185l-0.03089,-0.10904c-0.37444,-1.01305 -1.25432,-1.89621 -1.8273,-2.826c0,0 -0.33058,-0.53687 0.20629,-0.86744c0.53685,-0.33056 0.86747,0.2063 0.86747,0.2063c0.62662,1.01853 1.4879,1.92783 1.92948,3.03193l0.06235,0.20053c0,0 0.18185,0.60367 -0.42183,0.78552z" fill="#7a6500"/><path d="M216.88066,113.04784c0.62768,0.05936 0.56832,0.68703 0.56832,0.68703l-0.04165,0.41897c-0.01809,1.15676 -0.30387,2.01197 -0.6823,3.09508c0,0 -0.20801,0.59521 -0.80319,0.3872c-0.59517,-0.20801 -0.38719,-0.8032 -0.38719,-0.8032c0.3377,-0.96602 0.59832,-1.67217 0.61182,-2.69731l0.04712,-0.51946c0,0 0.05935,-0.6277 0.68703,-0.56833z" fill="#7a6500"/><path d="M219.98257,112.15122c0.62128,0.10731 0.51395,0.7286 0.51395,0.7286l-0.06746,0.11156c0.14325,0.64297 0.30919,1.27764 0.50189,1.90535c-0.36672,0.28993 -0.71677,0.58133 -1.04515,0.87183c-0.27163,-0.82261 -0.49812,-1.65557 -0.68742,-2.50258l0.0556,-0.60084c0,0 0.10731,-0.62128 0.72861,-0.51393z" fill="#7a6500"/><path d="M220.40391,111.27602c-0.58175,0.243 -0.82478,-0.33877 -0.82478,-0.33877l-0.11508,-0.31447c-0.39519,-0.56024 -0.78216,-1.1103 -1.13378,-1.69921c0,0 -0.32284,-0.54155 0.21871,-0.8644c0.54156,-0.32286 0.8644,0.21875 0.8644,0.21875c0.33425,0.56161 0.70446,1.08413 1.08106,1.61803l0.24823,0.55531c0,0 0.24302,0.58177 -0.33877,0.82478z" fill="#7a6500"/><path d="M223.61965,111.22127c0.62875,-0.04656 0.67529,0.58221 0.67529,0.58221l0.01332,0.22975c0.02838,0.15436 0.05724,0.30549 0.08521,0.45478c-0.38467,0.23859 -0.7673,0.48405 -1.14405,0.7346c-0.05281,-0.31495 -0.12024,-0.62961 -0.18128,-0.96127l-0.03069,-0.36475c0,0 -0.04655,-0.62877 0.58221,-0.67533z" fill="#7a6500"/><path d="M222.91743,111.04573c-0.60369,0.18187 -0.78554,-0.42184 -0.78554,-0.42184l-0.10966,-0.37733c-0.0782,-0.42849 -0.17624,-0.85437 -0.30255,-1.27122c0,0 -0.09329,-0.30972 0.07563,-0.55231c0.36769,0.07003 0.74682,0.13402 1.13256,0.1913c0.138,0.46092 0.24688,0.931 0.33452,1.40408l0.07687,0.24178c0,0 0.18185,0.60367 -0.42186,0.78553z" fill="#7a6500"/><path d="M208.91821,114.51288c-0.47648,0.41288 -0.88938,-0.06361 -0.88938,-0.06361l-0.31554,-0.36533c-0.43167,-0.45126 -0.85971,-0.90611 -1.2802,-1.3678c0,0 -0.42452,-0.46615 0.04163,-0.89067c0.46615,-0.42452 0.89066,0.04164 0.89066,0.04164c0.4135,0.45411 0.83451,0.9014 1.2591,1.34519l0.35733,0.4112c0,0 0.41286,0.47651 -0.0636,0.88937z" fill="#246800"/><path d="M209.13217,115.96417c0.40858,0.48017 -0.07162,0.88876 -0.07162,0.88876l-0.4752,0.40093c-0.20886,0.14733 -0.41774,0.29468 -0.62661,0.44199c0,0 -0.51518,0.36341 -0.87861,-0.15179c-0.36343,-0.5152 0.15177,-0.87862 0.15177,-0.87862c0.20886,-0.14733 0.41776,-0.29467 0.62659,-0.44198l0.38488,-0.33089c0,0 0.48019,-0.40855 0.88876,0.07161z" fill="#246800"/><path d="M211.63382,115.00952c0.59517,0.20801 0.38719,0.8032 0.38719,0.8032l-0.17452,0.48539c-0.33652,0.67939 -0.72739,1.23424 -1.2213,1.80848c0,0 -0.41167,0.47753 -0.88921,0.06586c-0.47751,-0.41169 -0.06585,-0.88921 -0.06585,-0.88921c0.42638,-0.49334 0.75865,-0.95497 1.04485,-1.54166l0.11566,-0.34487c0,0 0.20801,-0.59517 0.80319,-0.38717z" fill="#246800"/><path d="M210.89329,113.87423c-0.5152,0.36342 -0.87863,-0.15178 -0.87863,-0.15178l-0.02716,-0.05121c-0.50833,-0.52739 -0.98282,-1.02867 -1.407,-1.62716c0,0 -0.36341,-0.51519 0.15179,-0.87861c0.5152,-0.36342 0.87861,0.15179 0.87861,0.15179c0.38424,0.54772 0.82065,0.99772 1.28448,1.47894l0.14966,0.19945c0,0 0.36342,0.5152 -0.15178,0.87863z" fill="#246800"/><path d="M213.31578,113.2289c-0.5152,0.36342 -0.87863,-0.15177 -0.87863,-0.15177l-0.13464,-0.20184c-0.34347,-0.67212 -0.69343,-1.34069 -1.04316,-2.00958c0,0 -0.29214,-0.55872 0.26657,-0.85086c0.55872,-0.29215 0.85087,0.26656 0.85087,0.26656c0.35157,0.67236 0.70331,1.34444 1.04861,2.02006l0.04218,0.04881c0,0 0.36342,0.5152 -0.15178,0.87863z" fill="#246800"/><path d="M215.25005,113.53076c0.62333,-0.09463 0.71797,0.52869 0.71797,0.52869l0.03225,0.428c-0.17918,1.03562 -0.464,2.04537 -0.64221,3.08045c0,0 -0.10734,0.6213 -0.72862,0.51397c-0.62128,-0.10731 -0.51393,-0.72861 -0.51393,-0.72861c0.17936,-1.03507 0.46359,-2.04477 0.64221,-3.08045l-0.03635,-0.02406c0,0 -0.09463,-0.62333 0.52869,-0.71797z" fill="#246800"/><path d="M215.58349,112.63021c-0.5152,0.36342 -0.87862,-0.15177 -0.87862,-0.15177l-0.20316,-0.29121c-0.36566,-0.61433 -0.67148,-1.21772 -1.08592,-1.80227c0,0 -0.36343,-0.51521 0.15178,-0.87864c0.5152,-0.36342 0.87863,0.15178 0.87863,0.15178c0.43138,0.6143 0.75545,1.24173 1.13863,1.88346l0.15044,0.21004c0,0 0.36342,0.5152 -0.15178,0.87863z" fill="#246800"/><path d="M217.70257,112.82113c0.62128,0.10731 0.51396,0.72859 0.51396,0.72859l-0.07529,0.41748c-0.12353,0.44457 -0.23736,0.89199 -0.33959,1.34192c0,0 -0.13984,0.6148 -0.75461,0.47494c-0.61478,-0.13986 -0.47495,-0.75462 -0.47495,-0.75462c0.10685,-0.4692 0.22554,-0.93578 0.3541,-1.39949l0.04774,-0.29491c0,0 0.10735,-0.62129 0.72862,-0.51397z" fill="#246800"/><path d="M218.13129,111.89651c-0.5152,0.36342 -0.87862,-0.15177 -0.87862,-0.15177l-0.08531,-0.12412c-0.35142,-0.59357 -0.74323,-1.04149 -1.21275,-1.54827c0,0 -0.42832,-0.46264 0.03433,-0.89095c0.46265,-0.42831 0.89096,0.03431 0.89096,0.03431c0.52677,0.56935 0.97154,1.09383 1.37058,1.75927l0.03258,0.04298c0,0 0.36342,0.51518 -0.15179,0.87861z" fill="#246800"/><path d="M221.31671,111.64805c0.62128,0.10731 0.51396,0.72859 0.51396,0.72859l-0.05258,0.28166c-0.19515,0.66564 -0.22644,1.08726 -0.17361,1.72135c-0.36086,0.26931 -0.7096,0.54122 -1.04221,0.81371c-0.16094,-0.16748 -0.1848,-0.40082 -0.1848,-0.40082c-0.09287,-0.94302 -0.06911,-1.58157 0.18937,-2.48476l0.02126,-0.14575c0,0 0.10734,-0.62129 0.72862,-0.51397z" fill="#246800"/><path d="M222.85226,111.25303c0.62128,0.10731 0.51396,0.72859 0.51396,0.72859l-0.04127,0.13814c0.02599,0.42422 -0.02522,0.74265 0.01535,1.0426c-0.36424,0.24087 -0.72335,0.4866 -1.07397,0.73562c-0.19747,-0.52343 -0.15164,-0.9501 -0.19988,-1.69922l0.05719,-0.43179c0,0 0.10732,-0.62127 0.72859,-0.51396z" fill="#246800"/><path d="M224.30258,111.18519c-0.61002,0.15937 -0.76938,-0.45065 -0.76938,-0.45065l-0.0591,-0.28981c-0.11949,-0.22852 -0.23897,-0.45703 -0.35847,-0.68552c0,0 -0.29214,-0.55872 0.26656,-0.85087c0.55872,-0.29215 0.85086,0.26657 0.85086,0.26657c0.11949,0.22852 0.23896,0.45701 0.35845,0.68554l0.16171,0.55535c0,0 0.15937,0.61002 -0.45065,0.76938z" fill="#246800"/><path d="M219.22292,112.54225c0.63047,0.00372 0.62674,0.63419 0.62674,0.63419l-0.00373,0.47409c-0.04107,0.66883 -0.01987,1.31914 0.01205,1.98817c0,0 0.00343,0.07238 -0.01654,0.16924c-0.18259,0.16246 -0.35831,0.3246 -0.52635,0.48601c-0.01833,0.00204 -0.03729,0.00357 -0.05689,0.00451c-0.62977,0.03001 -0.65975,-0.59978 -0.65975,-0.59978c-0.03398,-0.71427 -0.05377,-1.41013 -0.01117,-2.12429l0.00146,-0.4054c0,0 0.00372,-0.63046 0.63419,-0.62674z" fill="#693d00"/><path d="M224.2706,110.94197c0.60369,-0.18187 0.78554,0.42185 0.78554,0.42185l0.06627,0.24199c0.01978,0.13317 0.04328,0.26595 0.07044,0.39805c-0.37773,0.22343 -0.75594,0.45462 -1.13109,0.69193c-0.07686,-0.29703 -0.13916,-0.59795 -0.18603,-0.90068l-0.02697,-0.06758c0,0 -0.18184,-0.60368 0.42185,-0.78554z" fill="#693d00"/></g><path d="M223.82676,106.4604c0.26435,-0.30524 0.63005,-0.42069 0.63005,-0.42069l0.74557,-0.23491c2.18958,-0.61517 3.94759,-0.57259 6.119,0.09453c7.90946,-0.73245 7.3466,9.64998 10.09839,14.62288c0.86979,1.57186 3.60556,2.83883 3.53981,4.80044c-0.13626,4.06475 -3.99176,2.71122 -6.32038,1.84079c-6.87296,-4.31471 -15.22224,-10.12034 -15.63687,-19.45486c0,0 -0.03904,-0.98615 0.82439,-1.24813zM233.59797,113.88428c0.84557,-0.61339 1.0338,-1.79609 0.4204,-2.64166c-0.61339,-0.84557 -1.79609,-1.0338 -2.64167,-0.42039c-0.84557,0.61339 -1.03379,1.79608 -0.42039,2.64167c0.61339,0.84557 1.79608,1.03379 2.64166,0.42039z" fill="#553f22" stroke="none" stroke-width="0.5" stroke-linecap="butt"/><path d="M232.1592,110.9027c-0.21927,0.59113 -0.81038,0.37184 -0.81038,0.37184l-0.22357,-0.08915c0.11212,1.05714 -0.00391,2.03629 0.74848,3.07347c0,0 0.01191,0.01642 0.0285,0.04547c0.03242,-0.01342 0.06478,-0.02649 0.09707,-0.03923c3.02262,-2.1987 1.72161,-3.03038 0.19901,-3.50464c-0.00778,0.04479 -0.02054,0.09219 -0.03914,0.14226zM235.17492,111.81831l0.13942,0.49141c0.0509,0.62699 0.07551,1.2416 0.094,1.86194l0.2105,0.66661c0.08714,0.25508 0.00292,0.5475 -0.22665,0.71404c-0.18915,0.13721 -0.42891,0.15408 -0.62798,0.06516l-0.62353,-0.26568c-0.46538,-0.23655 -0.99856,-0.17361 -1.49871,0.00492l-0.01341,0.00973c0,0 -0.13201,0.09576 -0.31048,0.12275c-0.07848,0.03599 -0.15551,0.07395 -0.23061,0.11314c0,0 -0.56426,0.28127 -0.84555,-0.28299c-0.01132,-0.0227 -0.02125,-0.04493 -0.02992,-0.06671c-0.22203,-0.06465 -0.35894,-0.25338 -0.35894,-0.25338c-1.21646,-1.6769 -0.38702,-3.04792 -1.22505,-4.70863c-0.08685,-0.11973 -0.39385,-0.54292 -0.39385,-0.54292c-0.20446,-0.28185 -0.14172,-0.67609 0.14013,-0.88055c0.28185,-0.20446 0.67609,-0.14172 0.88055,0.14013l0.26609,0.36681c1.64704,0.64472 3.59211,1.17715 4.36129,2.0696c0.21462,0.12731 0.29272,0.3746 0.29272,0.3746z" fill="#b9b9b9" stroke="none" stroke-width="0.5" stroke-linecap="butt"/><path d="M235.39748,108.78175c-0.13884,-0.19139 -0.69414,-0.95688 -0.83298,-1.14827c0,0 -0.37022,-0.51035 0.14012,-0.88056c0.51034,-0.37021 0.88056,0.14014 0.88056,0.14014c0.13141,0.18115 0.26283,0.36232 0.39424,0.54346c0.29875,0.00919 0.49128,0.27459 0.49128,0.27459c2.46911,3.40371 3.04082,8.27588 4.89711,12.05126c0.2087,3.03437 4.51643,3.20163 3.50821,6.91367l-0.38316,0.62023c0,0 -0.33635,0.53328 -0.86962,0.19693c-0.53328,-0.33634 -0.19692,-0.86959 -0.19692,-0.86959l0.29605,-0.45667c0.72407,-2.57482 -3.30722,-3.54059 -3.56819,-6.0624c-1.72414,-3.40882 -2.26265,-7.81152 -4.29737,-11.05021c-0.28046,-0.02605 -0.45931,-0.27262 -0.45931,-0.27262z" fill="#b9b9b9" stroke="none" stroke-width="0.5" stroke-linecap="butt"/><path d="M225.43809,104.27532c1.02157,-0.02124 2.12339,0.55635 2.37386,1.47745c-0.57167,0.09622 -1.19374,0.38071 -1.79866,0.77117c-0.50009,-0.02491 -1.01748,0.0428 -1.50231,0.22361c-0.30931,-0.11105 -0.64459,-0.14063 -0.97072,-0.08314c-0.05696,-0.24733 -0.04104,-0.58683 0.07248,-1.03988c0.15514,-0.61926 0.55067,-1.00571 1.04143,-1.19907c0.01043,-0.01096 0.02097,-0.02198 0.03162,-0.03297c0,0 0.35531,-0.36056 0.75225,-0.11715zM225.23395,105.74397c-0.00512,0.01063 -0.01001,0.02116 -0.01466,0.03163c0.01133,0.00004 0.0229,0.00005 0.03476,0.00008l0.00146,-0.03115c-0.00726,-0.00018 -0.01447,-0.00039 -0.02158,-0.00054z" fill="#7a3535" stroke="none" stroke-width="0.5" stroke-linecap="butt"/><path d="M217.11752,118.13818c-1.45904,-0.46904 -1.98719,-2.34767 -1.70997,-3.18183c-1.04405,-1.25493 -1.35964,-2.62957 0.73819,-3.47379c1.50502,-0.60567 6.80759,1.10168 7.01236,2.9827c0.15291,1.40473 -6.90315,0.55068 -4.09193,2.91006l0.04839,0.02519c0.08878,0.04383 0.16851,0.10927 0.2307,0.19499c0.012,0.01654 0.02307,0.03346 0.03322,0.0507c0.09994,0.10926 0.11843,0.16847 0.07237,0.18411c0.05206,0.23741 -0.0364,0.49391 -0.24571,0.64575c-0.28185,0.20446 -0.67609,0.14172 -0.88055,-0.14013c-0.20446,-0.28185 -0.14173,-0.67609 0.14013,-0.88055c0.01078,-0.00782 0.02173,-0.01527 0.03283,-0.0223c-0.21452,-0.1212 -0.45296,-0.26652 -0.70324,-0.4313c0.04487,0.66709 -0.10755,1.31943 -0.67677,1.13643z" fill="#8c6738" stroke="none" stroke-width="0.5" stroke-linecap="butt"/><path d="M224.63992,114.5675c-0.40295,0.48492 -0.88785,0.08195 -0.88785,0.08195l-0.16801,-0.14785c-1.61772,-0.99617 -3.23234,-1.83804 -5.01098,-2.51647c-5.07975,-2.76487 -3.15283,5.38513 -0.1968,7.18264c0,0 0.537,0.33033 0.20669,0.86734c-0.33033,0.537 -0.86735,0.20669 -0.86735,0.20669c-4.27537,-2.65521 -5.2964,-12.99672 1.38265,-9.40307c1.82563,0.69142 3.48699,1.56907 5.14646,2.5888l0.31324,0.25207c0,0 0.48491,0.40296 0.08195,0.88785z" fill="#7c4800" stroke="none" stroke-width="0.5" stroke-linecap="butt"/><path d="M222.37349,115.75698c-0.05529,0.62805 -0.68336,0.57276 -0.68336,0.57276l-0.14168,-0.01493c-0.55166,-0.00634 -1.08161,-0.10199 -1.6162,-0.19641c0.16552,0.187 0.33745,0.37465 0.51741,0.56434l0.18187,0.31509c0,0 0.26359,0.57274 -0.30914,0.83633c-0.57273,0.26359 -0.83632,-0.30915 -0.83632,-0.30915l0.04848,0.02526c-1.20192,-1.26852 -2.08647,-2.47793 -3.04753,-3.94591c0,0 -0.34523,-0.52755 0.18231,-0.87279c0.52755,-0.34525 0.87279,0.18231 0.87279,0.18231c0.41628,0.63635 0.81245,1.21618 1.22762,1.77261c0.9422,0.0708 1.85832,0.38232 2.77846,0.3674l0.25251,0.01978c0,0 0.62806,0.0553 0.57276,0.68336z" fill="#7c4800" stroke="none" stroke-width="0.5" stroke-linecap="butt"/><path d="M227.10287,119.17635c-2.68209,1.41895 -5.99716,1.6997 -8.83066,2.76958c-3.49456,0.60111 -9.37176,2.53777 -12.72348,1.08099c-0.0865,-0.0105 -0.17293,-0.0218 -0.25935,-0.03389c0,0 -0.62407,-0.08966 -0.53444,-0.71371c0.08966,-0.62407 0.71371,-0.53444 0.71371,-0.53444c4.48796,0.66337 9.22052,-1.10311 13.44961,-2.29074c1.86624,-0.71192 6.30128,-2.14825 7.24508,-3.95161l0.09057,-0.31863c0,0 0.12267,-0.38257 0.47758,-0.439c0.06116,-0.06723 0.1469,-0.12744 0.26582,-0.17283c0.58907,-0.22471 0.81377,0.36436 0.81377,0.36436c0.30881,0.82281 0.41122,1.67082 0.72749,2.49664l0.14981,0.39271c0,0 0.22471,0.58907 -0.36435,0.81378c-0.15259,0.05822 -0.28072,0.06181 -0.38685,0.0352c-0.20728,0.14856 -0.48207,0.31525 -0.8343,0.50159z" fill="#8c8172" stroke="none" stroke-width="0.5" stroke-linecap="butt"/><path d="M232.0546,124.72923c-2.20733,2.08201 -5.32795,3.23545 -7.7742,5.02131c-3.2083,1.51003 -8.35745,4.94197 -11.9761,4.43044c-0.08617,0.01291 -0.17251,0.02504 -0.259,0.03641c0,0 -0.62543,0.07979 -0.70521,-0.54562c-0.0798,-0.62543 0.54561,-0.70522 0.54561,-0.70522c4.50254,-0.55582 8.59374,-3.51884 12.35384,-5.78985c1.60924,-1.1832 5.50161,-3.74879 5.93104,-5.7384l0.00244,-0.33124c0,0 0.01638,-0.40142 0.34343,-0.55031c0.04102,-0.08106 0.10764,-0.16196 0.21021,-0.23738c0.50796,-0.3735 0.88143,0.13447 0.88143,0.13447c0.51678,0.71084 0.84135,1.50099 1.36608,2.21277l0.24898,0.33863c0,0 0.3735,0.50796 -0.13448,0.88143c-0.13156,0.09672 -0.25411,0.13433 -0.36349,0.13693c-0.16022,0.1984 -0.38073,0.43224 -0.67061,0.70566z" fill="#8c8172" stroke="none" stroke-width="0.5" stroke-linecap="butt"/><path d="M223.70942,110.97407c-2.25568,0.36688 -4.68904,-0.23094 -6.96872,-0.14962c-2.63858,-0.41241 -7.29904,-0.44533 -9.34023,-2.29189c-0.05918,-0.02833 -0.11818,-0.05718 -0.17693,-0.08663c0,0 -0.42379,-0.21423 -0.20956,-0.63801c0.21423,-0.42379 0.63801,-0.20956 0.63801,-0.20956c3.04307,1.55393 6.84568,1.43273 10.14969,1.6034c1.50322,-0.05874 5.01404,-0.01595 6.12174,-1.07566l0.14137,-0.20559c0,0 0.17966,-0.24348 0.4465,-0.19831c0.05981,-0.03326 0.13553,-0.05557 0.23133,-0.05932c0.4745,-0.01853 0.49304,0.45594 0.49304,0.45594c0.02228,0.66155 -0.10884,1.29139 -0.08196,1.95686l0.01236,0.3163c0,0 0.01855,0.47451 -0.45594,0.49304c-0.1229,0.00478 -0.21521,-0.02347 -0.28454,-0.06801c-0.18368,0.0561 -0.41993,0.10892 -0.71617,0.15709z" fill="#8c8172" stroke="none" stroke-width="0.5" stroke-linecap="butt"/></g><g stroke="none" stroke-width="0.5" stroke-linecap="butt"><path d="M240.1087,193.7659c-3.43752,-3.47838 -1.20056,-10.64897 -0.25138,-14.52916c0,0 0.27975,-1.14044 1.42019,-0.8607c0.10633,0.02607 0.20029,0.05963 0.2833,0.09906c0.11536,-0.11373 0.2363,-0.22532 0.36299,-0.33469l1.52955,-0.26628c0,0 0.52846,-0.07564 0.92375,0.23138c2.60799,-0.92558 5.55081,-1.37324 8.25756,-1.12901c0.43992,0.33257 0.90613,0.64072 1.3978,0.92148c1.58087,0.90272 3.27211,1.43478 4.9732,1.62365c1.75179,1.63056 2.79207,4.09623 2.59901,7.59257c-0.29873,3.40565 0.47046,4.91863 2.51618,7.57106c0.10297,0.13352 1.19351,1.66364 1.79486,2.72208c0.00139,-0.00439 0.0028,-0.00881 0.00424,-0.01324c0.96981,1.84733 2.39682,3.47896 4.22983,4.70741c-0.42299,1.60348 -0.9245,3.53007 -2.45243,4.27393c-0.71874,0.34993 -3.02501,-0.02461 -3.76866,-0.11226c-5.03446,-1.74507 -10.57035,-4.48583 -15.19518,-8.14207c-3.01827,-1.17784 -6.76916,-2.47747 -8.62483,-4.3552z" fill="#7c5c32"/><path d="M251.99035,182.98876c-0.17209,-0.00951 -0.29088,-0.06673 -0.37281,-0.14286c-0.07407,0.00293 -0.14816,0.00583 -0.22221,0.00873c-4.23148,0.33439 -6.57422,5.36911 -5.3066,8.9796c0,0 0.19197,0.55486 -0.36286,0.74685c-0.55486,0.19197 -0.74683,-0.36286 -0.74683,-0.36286c-1.52482,-4.46251 1.35856,-9.95521 6.33347,-10.53489c0.23193,-0.00933 0.46386,-0.01864 0.69578,-0.02796l0.6007,0.77957c0,0 -0.0324,0.58624 -0.61861,0.55384z" fill="#ffffff"/><path d="M251.96108,184.18961c-0.02017,-0.15675 -0.01823,-0.5295 0.42472,-0.65045c0.5664,-0.15466 0.72104,0.41174 0.72104,0.41174l0.02563,0.41153c-1.03251,3.6647 -2.58429,6.79118 -6.21503,8.36276c0,0 -0.53882,0.2332 -0.77203,-0.30563c-0.23321,-0.53883 0.30563,-0.77203 0.30563,-0.77203c3.23637,-1.40046 4.58112,-4.19848 5.51004,-7.45793z" fill="#ffffff"/><path d="M251.23472,188.5497c-0.92347,2.91919 -4.10977,0.05466 -5.16863,-1.21622c0,0 -0.43618,-0.52508 0.00377,-0.99868c-0.03979,-0.18085 -0.0152,-0.37646 0.08386,-0.54993c0.18983,-0.33243 0.5888,-0.4707 0.9367,-0.34376c1.132,-0.73557 4.96285,0.52103 4.14431,3.10856z" fill="#ffffff"/><path d="M265.15495,196.28162c0.56279,0.1631 0.41383,0.71113 0.41383,0.71113l-0.0563,0.15391c-0.15223,3.53245 -2.35769,5.44429 -5.00679,7.50349c0,0 -0.45026,0.34877 -0.8193,-0.10431c-0.36904,-0.45308 0.08124,-0.80187 0.08124,-0.80187c2.38537,-1.84054 4.46008,-3.51551 4.58143,-6.67799l0.09412,-0.39944c0,0 0.14896,-0.54802 0.71174,-0.38493z" fill="#ffffff"/></g><g stroke="none" stroke-linecap="butt"><path d="M254.53907,161.86009c2.93192,13.08115 -2.73147,25.48758 -12.64955,27.71056c-9.91807,2.22297 -20.33506,-6.57933 -23.26698,-19.66046c-2.93192,-13.08115 2.73147,-25.48755 12.64956,-27.71053c9.91807,-2.22297 20.33505,6.5793 23.26697,19.66043z" fill="#946d3b" stroke-width="0"/><path d="M241.7704,153.41304c10.79859,2.12675 18.72382,10.51627 17.70152,18.73844c-1.02231,8.22217 -10.605,13.16348 -21.4036,11.03671c-10.79859,-2.12675 -18.72379,-10.51628 -17.70148,-18.73845c1.02231,-8.22217 10.60501,-13.16345 21.40357,-11.0367z" fill="#946d3b" stroke-width="0"/><path d="M237.64099,189.35651c0.20281,0.89575 -0.59295,1.54472 -0.59295,1.54472l-1.29853,0.91696c-10.2259,3.24731 -18.6353,3.8187 -26.17435,-4.89753c-3.42972,-5.39349 -3.18492,-15.83645 -10.72081,-18.12527c-3.92883,-1.19327 -7.1371,2.0117 -10.29275,4.12893l0.33794,0.49294l-1.29752,0.88956c-0.17022,0.12258 -0.36746,0.21351 -0.58507,0.26229c-0.86275,0.19337 -1.71894,-0.34928 -1.91232,-1.21204c-0.04877,-0.21761 -0.05074,-0.43482 -0.01253,-0.64105l0.25065,-1.55308l0.01328,0.00214l-0.0061,-0.04306c4.15974,-19.16024 19.05102,-24.05039 32.64995,-9.70599c4.14736,5.84585 8.03476,27.75776 17.84418,26.04114c0,0 1.58747,-0.20726 1.79473,1.38018c0.02515,0.19272 0.02387,0.36508 0.00217,0.51917z" fill="#8c6738" stroke-width="0.5"/><path d="M189.48542,162.7994c0.28886,0.21086 0.47308,0.42242 0.5767,0.62797l0.01091,0.01045l0.01722,0.02721l0.02591,0.00801l0.08091,0.16113l0.00428,0.00679l0.01206,0.0115l0.05711,0.0904l0.07575,0.07546l0.049,0.08129l0.01229,0.0402l0.02656,0.03257l0.09006,0.19172l0.03588,0.0523l0.0308,0.03776l0.0086,0.00266l0.01032,0.02056l0.01411,0.01728l0.0782,0.16646l0.03419,0.0681l0.04469,0.05196l0.01553,0.03094l0.04062,0.03881l0.01722,0.02721l0.02591,0.00801l0.08075,0.16073l0.04343,0.04563l0.01548,0.02731l0.02515,0.01878l0.04243,0.05202l0.04544,0.09675l0.06582,0.08428l0.04189,0.09433l0.02326,0.03863l0.01481,0.04839l0.03115,0.03984l0.12424,0.27978l0.01373,0.07853l0.03579,0.07126l0.03518,0.15697l0.02995,0.06744l0.01248,0.07152l0.0221,0.044l0.06066,0.08852l0.05285,0.14211l0.01641,0.03268l0.00554,0.00643l0.04176,0.08314l0.00377,0.00625l0.00647,0.00794l0.00597,0.01274l0.01691,0.02804l0.00699,0.02281l0.04832,0.10286l0.03093,0.06159l0.00554,0.00643l0.07167,0.14265l0.07172,0.08794l0.01444,0.03076l0.02542,0.02253l0.09141,0.13333l0.00841,0.02256l0.01703,0.01699l0.00158,0.00267l0.00007,0.00002l0.00034,0.00064l0.01761,0.02923l0.00647,0.00794l0.006,0.01274l0.01688,0.02805l0.00698,0.02278l0.04833,0.1029l0.01879,0.03743l0.01408,0.01729l0.02211,0.04712l0.03761,0.0359l0.05711,0.09037l0.07575,0.07546l0.049,0.08132l0.00918,0.03l0.02049,0.02379l0.04176,0.08311l0.03312,0.05496l0.03768,0.12304l0.05777,0.11499l0.05252,0.23433l0.05556,0.1106l0.00488,0.02178l0.03021,0.06437l0.08258,0.16436l0.00488,0.02178l0.00975,0.02082l-0.00321,0.00836l0.09362,0.4177l-0.00286,0.11722l0.02435,0.13938l-0.02872,0.03909l-0.00288,0.11674l-0.25171,0.22967l-0.19444,0.26458l-0.0374,-0.00379l-0.01644,0.02196l-0.07442,0.14012l-0.03841,0.01087l-0.03913,0.05235l-0.08323,0.06788l-0.06626,0.08868l-0.05202,0.04243l-0.04694,0.02204l-0.02961,0.0282l-0.00119,-0.00006l-0.01505,0.01512l-0.16262,0.09798l-0.03003,0.00919l-0.02379,0.02049l-0.02805,0.0141l-0.00213,0.00691l-0.02056,0.01032l-0.01728,0.01411l-0.10019,0.04706l-0.0104,0.0085l-0.16646,0.0782l-0.07995,0.04017l-0.01559,0.01564l-0.08395,0.05058l-0.00001,0.0001l-0.00069,0.00032l-0.02923,0.01761l-0.00794,0.00647l-0.01274,0.006l-0.02808,0.01689l-0.02278,0.00698l-0.1029,0.04833l-0.06159,0.03093l-0.00643,0.00554l-0.06206,0.03117l-0.08854,0.06069l-0.05161,0.01918l-0.04173,0.0359l-0.08314,0.04176l-0.05496,0.03312l-0.03003,0.00919l-0.02379,0.02049l-0.1106,0.05556l-0.01906,0.00427l-0.01538,0.01202l-0.12247,0.05439l-0.20418,0.10256l-0.04768,0.01069l-0.01033,0.00485l-0.02258,0.01359l-0.01799,0.02031l-0.10587,0.07255l-0.07823,0.0638l-0.07976,0.0375l-0.0257,0.02211l-0.05059,0.06768l-0.02708,0.02209l-0.00173,0.03209l-0.05475,0.04708l-0.03384,0.06377l-0.06002,0.017l-0.08904,0.07663l-0.02795,0.08435l-0.06295,0.09932l0.00022,0.00901l-0.01623,0.01627l-0.01192,0.01885l-0.06957,0.06626l0.0003,0.01276l-0.07259,0.07287l-0.04825,0.09084l-0.017,0.00479l-0.03324,0.05244l-0.03442,0.03278l-0.01282,0.02407l-0.00459,0.00133l-0.01637,0.04938l-0.03408,0.05381l-0.02752,0.08308l-0.05171,0.08158l-0.02101,0.05823l0.01006,0.06038l-0.06156,0.08238l-0.03492,0.09675l-0.05592,0.02484l-0.09453,0.12649l-0.10403,0.08485l-0.04711,0.02214l-0.03588,0.03758l-0.04277,0.02701l-0.03029,0.04053l-0.05203,0.0424l-0.0798,0.03751l-0.06681,0.0575l-0.1106,0.05556l-0.03184,0.00714l-0.02634,0.01923l-0.16918,0.06869l-0.05467,0.00775l-0.0415,0.01951l-0.06681,0.0575l-0.1106,0.05556l-0.05396,0.01209l-0.12592,0.08634l-0.02257,0.00837l-0.01698,0.01707l-0.08129,0.049l-0.12304,0.03768l-0.11499,0.05777l-0.08786,0.01969l-0.1106,0.05556l-0.02178,0.00488l-0.02082,0.00975l-0.00158,-0.0006l-0.0957,0.04809l-0.02178,0.00488l-0.02082,0.00975l-0.00032,-0.00012l-0.00021,0.00024l-0.02299,0.00007l-0.02178,0.00488l-0.18388,-0.00452l-0.06871,0.00014l-0.02453,0.01298l-0.03881,-0.01286l-0.05185,0.0001l-0.02165,-0.00538l-0.023,-0.00055l-0.00605,-0.00665l-0.01445,-0.00359l-0.09777,-0.05191l-0.03909,-0.00972l-0.03218,-0.01711l-0.0358,-0.01186l-0.02913,0.00486l-0.09424,-0.07039l-0.01335,0.0022l-0.07595,-0.05674l-0.08376,-0.04446l-0.00371,-0.01301l-0.10388,-0.05518l-0.01087,-0.03841l-0.05237,-0.03912l-0.13666,-0.16759l-0.00856,-0.00264l-0.01032,-0.02056l-0.01412,-0.01731l-0.04998,-0.10644l-0.00555,-0.00414l-0.07729,-0.09477l-0.05484,-0.01688l-0.04616,-0.09193l-0.07093,-0.07447l0.0028,-0.06116l-0.07086,-0.1411l-0.00828,-0.03693l-0.0065,-0.00619l-0.00004,-0.023l-0.00487,-0.02175l0.00261,-0.10709l-0.00122,-0.00117l-0.00004,-0.023l-0.00487,-0.02175l0.00449,-0.18387l-0.00022,-0.11368l-0.00341,-0.02359l0.00333,-0.03258l-0.00004,-0.01407l0.00247,-0.00994l0.00347,-0.03398l0.00003,-0.00072l0.00005,-0.00007l0.00029,-0.00309l0.01955,-0.05419l-0.00011,-0.05759l0.02153,-0.08679l0.00055,-0.023l0.00664,-0.00608l0.00894,-0.0361l0.00055,-0.023l0.00661,-0.00607l0.00359,-0.01445l0.04324,-0.08142l0.00156,-0.0642l0.03747,-0.03415l0.01552,-0.04686l0.00108,-0.04392l-0.01313,-0.05859l0.00077,-0.03239l-0.00597,-0.04128l0.00606,-0.05964l-0.00613,-0.02734l-0.0065,-0.00619l-0.00004,-0.023l-0.00487,-0.02175l0.00449,-0.18387l-0.00007,-0.0429l-0.0074,-0.03302l0.00304,-0.12373l0.03645,-0.13204l0.00397,-0.03223l0.00452,-0.18421l0.02348,-0.085l-0.00016,-0.08813l0.01117,-0.04503l0.00089,-0.03586l0.03882,-0.14057l0.02111,-0.14432l0.11693,-0.28435l0.00197,-0.00789l0.00575,-0.01077l0.00509,-0.01239l0.00102,-0.01959l0.03872,-0.12578l0.00032,-0.01333l0.03645,-0.13204l0.00397,-0.03223l0.00147,-0.06048l0.01076,-0.03897l0.00051,-0.00429l0.00233,-0.00603l0.00986,-0.03568l-0.00016,-0.08813l0.03553,-0.14332l-0.0002,-0.1107l0.00536,-0.02165l0.00055,-0.023l0.00664,-0.00608l0.01973,-0.07959l0.02373,-0.04466l0.0062,-0.05021l0.02643,-0.06872l0.00401,-0.07463l0.05485,-0.1782l0.01693,-0.10473l0.01338,-0.03122l-0.00007,-0.03398l0.05663,-0.22827l0.02046,-0.12671l0.03299,-0.07696l0.01025,-0.08311l0.0359,-0.09323l0.0126,-0.10218l0.03889,-0.10102l0.03291,-0.04685l0.01494,-0.06028l0.06037,-0.11364l0.0135,-0.04079l0.00148,-0.01215l0.01815,-0.04715l0.00732,-0.02208l0.00301,-0.00474l0.0493,-0.12803l0.01306,-0.01861l0.00405,-0.02237l0.0616,-0.13686l0.0357,-0.04524l0.0181,-0.05468l0.02243,-0.03535l-0.00002,-0.00256l0.03233,-0.13029l0.02373,-0.04466l0.00617,-0.0502l0.03204,-0.08324l0.0394,-0.11889l0.00876,-0.03533l0.01473,-0.02771l0.00234,-0.0313l0.05507,-0.16614l0.02923,-0.04612l0.01133,-0.05337l0.0323,-0.06613l0.00685,-0.04249l0.00394,-0.00921l-0.0006,-0.01l0.04193,-0.22475l0.03998,-0.08732l0.01701,-0.09451l0.03198,-0.07106l0.01492,-0.06024l0.03067,-0.05771l-0.00657,-0.03942l0.04043,-0.05411l0.00338,-0.03341l0.03629,-0.10057l0.01307,-0.1061l0.0351,-0.09114l-0.00202,-0.01208l0.05681,-0.07607l0.00074,-0.00207l0.00122,-0.00054l0.01224,-0.01639l0.02563,-0.07101l0.05783,-0.1746l0.01195,-0.01886l0.00779,-0.02163l0.00824,-0.00365l0.05159,-0.08139l0.02752,-0.08308l0.02243,-0.03535l-0.00002,-0.00256l0.03233,-0.13029l0.05191,-0.09777l0.04203,-0.16938l0.04992,-0.09397l0.00526,-0.01456l-0.00011,-0.05759l0.03233,-0.13029l0.02372,-0.04469l0.00618,-0.05018l0.02099,-0.05448l0.00662,-0.02671l0.00386,-0.03785l0.00725,-0.02006l-0.00056,-0.00105l0.01286,-0.03881l-0.0001,-0.05185l0.01614,-0.06515l0.05191,-0.09777l0.00972,-0.03909l0.01711,-0.03215l0.02211,-0.06677l0.03408,-0.05378l0.02752,-0.08308l0.0909,-0.14342l0.09319,-0.08874l0.07704,-0.10308l0.04392,-0.0358c0.01266,-0.62176 0.34693,-0.92611 1.52202,-0.06829zM191.08797,169.45591l-0.00373,-0.01666l-0.01462,0.03244z" fill="#ededed" stroke-width="0.5"/><path d="M202.34863,153.08747c0.78109,-0.17507 0.94718,0.56597 0.94718,0.56597l0.1661,0.74106c1.09192,4.87174 0.61322,10.39064 -2.53146,14.63928c0,0 -0.47344,0.62318 -1.11651,0.1856c-0.64307,-0.43758 -0.16963,-1.06073 -0.16963,-1.06073c2.97345,-3.77349 3.23271,-9.05367 2.25541,-13.41402l-0.1661,-0.74106c0,0 -0.16609,-0.74103 0.615,-0.9161z" fill="#ededed" stroke-width="0.5"/><path d="M222.27911,170.84538c0.6697,0.42993 0.24758,1.10461 0.24758,1.10461l-0.26297,0.41588c-2.0805,2.81442 -9.19248,7.91852 -13.59625,7.25156c-0.0952,0.04447 -0.1904,0.08894 -0.2856,0.13341l0.00175,0.00781l-0.88706,0.19882c-0.42638,0.09557 -0.85041,-0.17668 -0.94709,-0.60805c-0.09669,-0.43138 0.17058,-0.85856 0.59696,-0.95413l0.72448,-0.16238c0.24769,-0.11881 0.49537,-0.23765 0.74306,-0.35646c0,0 0.00611,-0.00291 0.01744,-0.00755c3.39477,-2.5317 9.40941,-2.45973 12.36161,-6.46386l0.19431,-0.31495c0,0 0.42213,-0.67465 1.09184,-0.24472z" fill="#1c1b11" stroke-width="0.5"/><path d="M246.37323,147.14817c0.43138,-0.09669 0.85947,0.17464 0.95616,0.60602c0.09669,0.43138 -0.17464,0.85947 -0.60602,0.95616c-0.2372,0.05317 -0.47339,-0.00494 -0.65404,-0.1397c-0.11041,0.15945 -0.27872,0.27943 -0.4829,0.3252c-0.28866,0.0647 -0.57583,-0.03537 -0.76323,-0.23792c-0.11041,0.14993 -0.27334,0.26228 -0.4693,0.3062c-0.26429,0.05924 -0.52732,-0.01966 -0.71368,-0.18884c-0.08068,0.26765 -0.29944,0.48522 -0.5917,0.55072c-0.1879,0.04211 -0.3752,0.01443 -0.53473,-0.06591c-0.10998,0.14074 -0.26752,0.24572 -0.45541,0.28783c-0.18049,0.04045 -0.3604,0.0165 -0.51573,-0.05668c-0.09826,0.08762 -0.21958,0.15215 -0.35718,0.18299c-0.1934,0.04335 -0.38615,0.01272 -0.54865,-0.07312c-0.10359,0.10351 -0.2368,0.17983 -0.39026,0.21423c-0.2148,0.04814 -0.42876,0.00504 -0.60142,-0.10359c-0.09741,0.08542 -0.21697,0.14839 -0.35229,0.17872c-0.21826,0.04892 -0.43574,0.00362 -0.60981,-0.10899c-0.06886,0.03992 -0.1449,0.07015 -0.22666,0.08847c-0.22714,0.05091 -0.45336,-0.0002 -0.63077,-0.12299c-0.10339,0.10281 -0.23611,0.17866 -0.38892,0.21291c-0.29294,0.06566 -0.58437,-0.03837 -0.77151,-0.24702c-0.10615,0.11377 -0.2465,0.19789 -0.40982,0.2345c-0.22164,0.04968 -0.44245,0.0022 -0.61785,-0.11422c-0.10985,0.13927 -0.26653,0.2431 -0.45311,0.28492c-0.27482,0.0616 -0.54833,-0.02617 -0.73565,-0.20955c-0.06068,0.03175 -0.12644,0.05616 -0.19643,0.07185c-0.26913,0.06032 -0.53701,-0.02261 -0.7239,-0.19827c-0.0922,0.07395 -0.20229,0.12855 -0.32542,0.15615c-0.29441,0.06599 -0.58733,-0.03941 -0.77436,-0.25019c-0.03427,0.01284 -0.06979,0.02345 -0.10653,0.03169c-0.25507,0.05717 -0.50895,-0.01432 -0.69391,-0.17149c-0.11008,0.14231 -0.26852,0.24854 -0.45783,0.29096c-0.29076,0.06517 -0.58003,-0.03685 -0.76731,-0.24235c-0.08609,0.06284 -0.18616,0.10945 -0.29679,0.13425c-0.42466,0.09518 -0.8461,-0.16622 -0.95138,-0.58589c-0.0113,0.00305 -0.02267,0.00587 -0.03417,0.00845c-0.39036,0.08749 -0.77804,-0.12638 -0.91988,-0.4875c-0.07421,0.04603 -0.15721,0.08064 -0.24722,0.10082c-0.37814,0.08475 -0.75374,-0.11325 -0.90583,-0.45396c-0.08076,0.05472 -0.17291,0.09549 -0.2739,0.11812c-0.31209,0.06995 -0.62244,-0.05271 -0.80683,-0.28924c-0.03451,0.03182 -0.07192,0.06078 -0.11203,0.08634c-0.22063,0.35534 -0.41214,0.32499 -0.55291,0.11609c-0.29419,-0.04562 -0.54762,-0.25415 -0.64077,-0.54985c-0.09211,0.07377 -0.20204,0.1282 -0.32495,0.15575c-0.28,0.06276 -0.55857,-0.02952 -0.74606,-0.21998c-0.10478,0.10801 -0.24119,0.18778 -0.399,0.22315c-0.43138,0.09669 -0.85947,-0.17464 -0.95616,-0.60602c-0.09669,-0.43138 0.17464,-0.85947 0.60602,-0.95616c0.28,-0.06276 0.55857,0.02952 0.74606,0.21998c0.10478,-0.10801 0.24119,-0.18778 0.399,-0.22315c0.40882,-0.09163 0.81468,0.14727 0.9383,0.5397c0.05433,-0.04352 0.11483,-0.08031 0.18059,-0.10882c0.08231,-0.26698 0.26186,-0.36011 0.56499,-0.02786c0.15219,0.04921 0.28731,0.14331 0.38619,0.27016c0.10003,-0.09234 0.22499,-0.16035 0.36737,-0.19226c0.37814,-0.08475 0.75371,0.11326 0.9058,0.45396c0.08076,-0.05472 0.17295,-0.0955 0.2739,-0.11812c0.39036,-0.08749 0.77804,0.12638 0.91988,0.4875c0.07421,-0.04603 0.15721,-0.08064 0.24722,-0.10082c0.42466,-0.09518 0.8461,0.16622 0.95138,0.58589c0.0113,-0.00305 0.02267,-0.00587 0.03417,-0.00845c0.29076,-0.06517 0.58003,0.03685 0.76731,0.24235c0.08609,-0.06284 0.18617,-0.10941 0.2968,-0.13421c0.25507,-0.05717 0.50895,0.01432 0.69388,0.1715c0.11008,-0.14231 0.26855,-0.24854 0.45783,-0.29096c0.29441,-0.06599 0.5873,0.03942 0.77436,0.25019c0.03427,-0.01284 0.06982,-0.02346 0.10653,-0.03169c0.26913,-0.06032 0.53701,0.02261 0.7239,0.19827c0.0922,-0.07395 0.20229,-0.12855 0.32542,-0.15615c0.27482,-0.0616 0.54832,0.02614 0.73564,0.20951c0.06068,-0.03175 0.12644,-0.05613 0.19644,-0.07182c0.22164,-0.04968 0.44242,-0.00219 0.61781,0.11423c0.10985,-0.13927 0.26653,-0.2431 0.45311,-0.28492c0.29294,-0.06566 0.58434,0.03838 0.77148,0.24699c0.10615,-0.11377 0.24655,-0.19786 0.40985,-0.23446c0.22714,-0.05091 0.45336,0.0002 0.63077,0.12299c0.10339,-0.10281 0.23611,-0.17866 0.38892,-0.21291c0.21826,-0.04892 0.43574,-0.00362 0.60981,0.10899c0.06886,-0.03992 0.1449,-0.07015 0.22666,-0.08847c0.2148,-0.04814 0.42875,-0.00507 0.60142,0.10359c0.09741,-0.08542 0.21698,-0.14835 0.3523,-0.17868c0.1934,-0.04335 0.38615,-0.01272 0.54865,0.07312c0.10359,-0.10351 0.2368,-0.17983 0.39026,-0.21423c0.18049,-0.04045 0.3604,-0.01646 0.51573,0.05668c0.09826,-0.08762 0.21957,-0.15218 0.35717,-0.18302c0.1879,-0.04211 0.37518,-0.01439 0.53471,0.06594c0.10998,-0.14074 0.26754,-0.24575 0.45544,-0.28787c0.26429,-0.05924 0.52732,0.01966 0.71369,0.18887c0.08068,-0.26765 0.29943,-0.48525 0.59169,-0.55075c0.28866,-0.0647 0.5758,0.03538 0.7632,0.23789c0.11041,-0.14993 0.27335,-0.26224 0.46935,-0.30617c0.2372,-0.05317 0.47335,0.00494 0.65401,0.13971c0.11041,-0.15945 0.27875,-0.27944 0.48293,-0.3252z" fill="#6a7e00" stroke-width="0.5"/><path d="M253.03252,155.76443c-2.84048,1.79479 -6.33229,-0.21337 -6.83229,-3.28601c-0.51178,-0.44695 -0.53913,-1.51657 0.40101,-3.50729c0.05661,-0.4598 0.19104,-0.86226 0.44432,-1.09333c0.05394,-0.16677 0.16176,-0.31307 0.30751,-0.41363c0.09997,-0.22171 0.29935,-0.39532 0.55495,-0.45261c0.16625,-0.03726 0.33202,-0.01985 0.47851,0.04028c0.62672,0.06438 1.14647,0.16668 1.57168,0.29921c0.36362,-0.06713 0.73516,0.15728 1.06558,0.52794c0.23611,0.19012 0.39017,0.40242 0.47489,0.62904c2.12592,1.34424 4.42236,5.43131 1.53384,7.25641z" fill="#7d794a" stroke-width="0.5"/><path d="M249.05342,148.55547c-0.09669,-0.43138 0.17464,-0.85947 0.60602,-0.95616c0.02093,-0.00469 0.04183,-0.00852 0.06269,-0.01149c2.43381,-2.16601 3.88882,11.00991 -0.36164,1.43762c-0.1504,-0.11044 -0.26309,-0.27359 -0.3071,-0.46996z" fill="#7d794a" stroke-width="0.5"/><path d="M250.34457,154.47111l0.07361,-0.22217l0.02628,-0.04146l0.00952,-0.04814l0.10197,-0.21629l0.00355,-0.00437l0.00119,-0.00551l0.05893,-0.12067l0.09669,-0.11496l0.0831,-0.1251l0.12491,-0.11397l0.03118,-0.0168l0.02208,-0.02769l0.23855,-0.18242l0.04137,-0.01787l0.03182,-0.03194l0.17042,-0.10268l0.02174,-0.00665l0.01693,-0.01521l0.21134,-0.11185l0.1038,-0.02559l0.09553,-0.04799l0.09463,-0.02121l0.09684,-0.0348l0.22129,-0.08986l0.06625,-0.00937l0.05978,-0.03003l0.02487,-0.00557c0.10855,-0.18311 0.28945,-0.32279 0.51359,-0.37303c0.33696,-0.07552 0.67191,0.07349 0.84847,0.34793l0.00151,-0.00011l0.14698,0.13017l0.15415,0.12161l0.00158,0.01628l0.00617,0.00544l0.06386,0.09315l0.05282,0.14212l0.06806,0.13545l0.07339,0.32744l-0.00243,0.09853l0.02155,0.09616l-0.00271,0.11102l0.02198,0.16836l-0.01068,0.09246l0.01333,0.09211l-0.00509,0.0502l0.02857,0.27533l-0.01167,0.08176l0.01185,0.08174l-0.01325,0.13045l0.0141,0.20753l-0.00665,0.03709l0.00824,0.03678l-0.00423,0.17289l-0.00834,0.03026l0.0045,0.03105l-0.02681,0.26395l-0.01336,0.03702l0.00185,0.03929l-0.04061,0.20253l-0.01553,0.03278l-0.00152,0.03624l-0.06107,0.20712l-0.04329,0.07362l-0.02143,0.0827l-0.10656,0.19583l-0.03661,0.03984l-0.0204,0.05012l-0.11585,0.15843l-0.06513,0.10276l-0.01742,0.01657l-0.0089,0.02237l-0.14749,0.205l-0.08063,0.0682l-0.06323,0.08462l-0.07269,0.05927l-0.07687,0.0361l-0.02151,0.0182l-0.00087,-0.0001l-0.04734,0.04073l-0.07727,0.03881l-0.0273,0.00612l-0.00346,0.00331l-0.01936,0.0259l-0.00196,0.01455l-0.01964,0.01431l-0.0361,0.04831l-0.07269,0.05927l-0.04109,0.01928l-0.01482,0.01411l-0.01385,-0.00064l-0.03851,0.01808l-0.09655,0.0705l-0.2364,0.09597l-0.06625,0.00937l-0.05978,0.03003l-0.96187,0.21559l-0.0322,-0.00079l-0.02103,0.01715l-0.17895,-0.02204l-0.04223,-0.00104l-0.00815,0.00432l-0.01471,-0.00487l-0.11516,-0.00283l-0.0183,-0.02001l-0.03195,-0.00393l-0.07057,-0.02716l-0.06524,-0.04585l-0.07568,-0.02508l-0.0501,-0.03175l-0.04742,-0.04981l-0.00726,-0.00241l-0.0501,-0.03175l-0.00438,-0.00459l-0.01512,-0.00859l-0.01156,-0.01103l-0.01816,-0.00183l-0.02108,-0.027c-0.81155,-0.06699 -1.77203,-0.89272 -2.84062,-3.02021c-0.03615,-0.072 1.16717,0.13209 2.3544,0.05004l0.06933,-0.18945z" fill="#7d794a" stroke-width="0.5"/><path d="M248.88859,152.21485c-0.12969,-0.57863 0.23426,-1.15286 0.8129,-1.28256c0.57863,-0.12969 1.15286,0.23426 1.28256,0.8129c0.12969,0.57863 -0.23426,1.15286 -0.8129,1.28256c-0.57863,0.12969 -1.15286,-0.23426 -1.28256,-0.8129z" fill="#1c1b11" stroke-width="0.5"/><path d="M252.28238,151.0625c-0.36992,-0.55084 -0.4539,-1.14234 -0.18765,-1.3212c0.26629,-0.17886 0.78205,0.12276 1.15197,0.6736c0.36992,0.55084 0.45397,1.14233 0.18767,1.32116c-0.26629,0.17886 -0.78208,-0.12276 -1.15199,-0.67356z" fill="#1c1b11" stroke-width="0.5"/><path d="M252.05181,155.48088c-0.13527,-0.00785 -0.12746,-0.14311 -0.12746,-0.14311l0.00516,-0.07419c-0.0169,-0.32457 -0.07686,-0.67411 -0.14844,-0.99181c0,0 -0.02966,-0.13221 0.10258,-0.16185c0.13226,-0.02964 0.16189,0.10258 0.16189,0.10258c0.07434,0.33316 0.13474,0.69589 0.15458,1.03608l-0.00521,0.10486c0,0 -0.00785,0.13527 -0.14311,0.12746z" fill="#1c1b11" stroke-width="0.5"/><path d="M252.92886,155.19814l-0.04947,-0.0926c-0.12726,-0.31611 -0.22743,-0.66996 -0.30243,-1.00294c0,0 -0.02963,-0.13222 0.10258,-0.16185c0.13226,-0.02964 0.16185,0.10258 0.16185,0.10258c0.07088,0.31785 0.16584,0.65955 0.28909,0.96028l0.03636,0.06489c0,0 0.06481,0.11903 -0.05418,0.18385c-0.11898,0.06483 -0.18382,-0.05419 -0.18382,-0.05419z" data-paper-data="{&quot;index&quot;:null}" fill="#1c1b11" stroke-width="0.5"/><path d="M250.90271,158.04264l-0.04135,-0.05636c-0.10027,-0.19573 -0.17101,-0.41807 -0.21859,-0.62886c0,0 -0.01876,-0.0837 0.1135,-0.11335c0.13226,-0.02964 0.15098,0.05407 0.15098,0.05407c0.04474,0.20123 0.11128,0.4161 0.20882,0.60214l0.03061,0.03937c0,0 0.05438,0.07237 -0.06763,0.12387c-0.12197,0.05149 -0.17635,-0.02085 -0.17635,-0.02085z" data-paper-data="{&quot;index&quot;:null}" fill="#1c1b11" stroke-width="0.5"/><path d="M251.37524,158.10644l-0.04135,-0.05636c-0.10027,-0.19573 -0.17101,-0.41807 -0.21859,-0.62886c0,0 -0.01876,-0.0837 0.1135,-0.11335c0.13226,-0.02964 0.15098,0.05407 0.15098,0.05407c0.04474,0.20123 0.11128,0.4161 0.20882,0.60214l0.03061,0.03937c0,0 0.05438,0.07234 -0.06763,0.12384c-0.12197,0.05149 -0.17635,-0.02085 -0.17635,-0.02085z" data-paper-data="{&quot;index&quot;:null}" fill="#1c1b11" stroke-width="0.5"/><path d="M251.91049,158.07132l-0.04135,-0.05636c-0.10027,-0.19573 -0.17101,-0.41807 -0.21859,-0.62886c0,0 -0.01876,-0.0837 0.1135,-0.11335c0.13226,-0.02964 0.15098,0.05407 0.15098,0.05407c0.04474,0.20123 0.11128,0.4161 0.20882,0.60214l0.03064,0.03936c0,0 0.05435,0.07237 -0.06763,0.12387c-0.12197,0.05149 -0.17635,-0.02085 -0.17635,-0.02085z" data-paper-data="{&quot;index&quot;:null}" fill="#1c1b11" stroke-width="0.5"/><path d="M252.35409,158.00586l-0.04135,-0.05636c-0.10027,-0.19573 -0.17101,-0.41807 -0.21859,-0.62886c0,0 -0.01876,-0.0837 0.1135,-0.11335c0.13226,-0.02964 0.15098,0.05407 0.15098,0.05407c0.04474,0.20123 0.11128,0.4161 0.20882,0.60214l0.03061,0.03937c0,0 0.05438,0.07237 -0.06763,0.12387c-0.12197,0.05149 -0.17635,-0.02085 -0.17635,-0.02085z" data-paper-data="{&quot;index&quot;:null}" fill="#1c1b11" stroke-width="0.5"/><path d="M252.73999,157.83451l-0.04135,-0.05636c-0.10027,-0.19573 -0.17101,-0.41807 -0.21859,-0.62886c0,0 -0.01876,-0.0837 0.1135,-0.11335c0.13226,-0.02964 0.15098,0.05407 0.15098,0.05407c0.04474,0.20123 0.11128,0.4161 0.20882,0.60214l0.03061,0.03937c0,0 0.05438,0.07234 -0.06763,0.12384c-0.12197,0.05149 -0.17635,-0.02085 -0.17635,-0.02085z" data-paper-data="{&quot;index&quot;:null}" fill="#1c1b11" stroke-width="0.5"/><path d="M253.19817,157.60706l-0.03897,-0.04574c-0.09234,-0.16031 -0.15437,-0.344 -0.19392,-0.51882c0,0 -0.01557,-0.06946 0.11669,-0.0991c0.13226,-0.02964 0.14779,0.03982 0.14779,0.03982c0.03706,0.16695 0.09524,0.34452 0.18521,0.49679l0.02896,0.03187c0,0 0.05128,0.05866 -0.07158,0.10622c-0.12285,0.04755 -0.17415,-0.01104 -0.17415,-0.01104z" data-paper-data="{&quot;index&quot;:null}" fill="#1c1b11" stroke-width="0.5"/><path d="M253.55667,157.31342l-0.03737,-0.03861c-0.08705,-0.13671 -0.1433,-0.2946 -0.17749,-0.44549c0,0 -0.01343,-0.05992 0.11879,-0.08956c0.13226,-0.02964 0.14565,0.03029 0.14565,0.03029c0.03194,0.14411 0.08454,0.29682 0.16947,0.42658l0.02784,0.02687c0,0 0.04923,0.0495 -0.07422,0.09447c-0.12344,0.04495 -0.17269,-0.00454 -0.17269,-0.00454z" data-paper-data="{&quot;index&quot;:null}" fill="#1c1b11" stroke-width="0.5"/><path d="M253.80751,157.06948l-0.03392,-0.02324c-0.07558,-0.08557 -0.11936,-0.18762 -0.14187,-0.28659c0,0 -0.00882,-0.03933 0.12344,-0.06898c0.13226,-0.02964 0.14104,0.0097 0.14104,0.0097c0.02083,0.09455 0.06137,0.19343 0.13537,0.27446l0.02538,0.01604c0,0 0.04481,0.02966 -0.07993,0.06897c-0.1247,0.0393 -0.16951,0.00965 -0.16951,0.00965z" data-paper-data="{&quot;index&quot;:null}" fill="#1c1b11" stroke-width="0.5"/><path d="M253.09832,173.31764c-1.47117,0.37056 -2.96773,0.35335 -4.45462,0.02936c0,0 -0.39581,-0.08631 -0.3095,-0.48212c0.08634,-0.39582 0.48212,-0.3095 0.48212,-0.3095c1.31725,0.28755 2.63914,0.31511 3.94361,0.01069c-0.10369,-0.30686 -0.1723,-0.62585 -0.19898,-0.9434c-1.55487,0.25856 -3.0327,0.26113 -4.57442,-0.18352c0,0 -0.38911,-0.11278 -0.27633,-0.5019c0.11279,-0.38908 0.5019,-0.27633 0.5019,-0.27633c1.46994,0.42799 2.88686,0.41151 4.3803,0.13755c0.05924,-0.34515 0.18007,-0.67319 0.37242,-0.96437c-1.67615,0.23619 -3.44694,0.12416 -4.89984,-0.76199c0,0 -0.3457,-0.21117 -0.13451,-0.55691c0.2112,-0.34574 0.55687,-0.13453 0.55687,-0.13453c1.5253,0.93334 3.48289,0.88184 5.19127,0.50438l0.10925,-0.03305c0,0 0.095,-0.02779 0.20478,-0.00895c-0.08678,-0.29408 -0.1696,-0.58616 -0.24121,-0.88239c-0.42938,-0.31042 -0.87075,-0.83864 -1.14538,-1.60471c-0.43643,-0.20826 -0.92441,-0.30965 -1.54087,-0.22576c0,0 -0.4016,0.05329 -0.45491,-0.34827c-0.05329,-0.4016 0.3483,-0.45492 0.3483,-0.45492c0.77781,-0.10097 1.3902,0.02826 1.94277,0.29163c0.20261,-0.02142 0.31455,0.10554 0.36875,0.19924c0.19705,0.11859 0.38919,0.25265 0.58175,0.39724l0.0945,-0.00175l0.00138,0.07453c0.05103,0.03913 0.10217,0.07899 0.15349,0.11939c0.78343,0.1295 1.43237,0.70046 2.03346,1.37924c0.33501,-0.05776 0.68465,-0.06699 1.06586,-0.04215c0.14823,-0.08458 0.30888,-0.14663 0.47565,-0.17529c0.45628,-0.07838 0.89421,-0.04204 1.29913,0.08092c0.17259,0.98331 0.42291,2.01336 0.73343,3.00775c-0.0778,0.77962 -0.12203,1.62475 -0.12707,2.48356c-0.09979,0.05213 -0.19878,0.10611 -0.29721,0.16125c-2.3155,0.33739 -5.02527,0.98389 -6.68553,1.77368c-0.83429,0.1929 -1.66167,0.33053 -2.52849,0.47149c0,0 -0.39991,0.06463 -0.46458,-0.3353c-0.06466,-0.3999 0.3353,-0.46458 0.3353,-0.46458c1.07567,-0.17291 2.08304,-0.34154 3.12568,-0.62349c-0.0025,-0.21155 0.02911,-0.45629 0.08629,-0.71419c-0.01862,-0.03055 -0.03693,-0.06139 -0.05484,-0.09258z" data-paper-data="{&quot;index&quot;:null}" fill="#ffffff" stroke-width="0.5"/></g><path d="M235.84569,154.61498c0.2673,-0.33706 0.60397,-0.58672 0.97355,-0.74478c0.00238,-0.00301 0.00475,-0.00602 0.00714,-0.00904c1.22027,-1.53873 2.69069,-0.91016 3.26526,-0.56978c4.68705,1.09973 8.95478,0.01253 12.75305,-3.11761c2.17328,-1.71225 2.98527,-3.44394 4.49717,-5.74441c0.68192,-1.03761 1.04869,-2.41119 2.09476,-3.08004c1.49846,-0.9581 3.48921,-2.25546 5.11224,-1.52806c1.60196,0.71796 1.94974,3.05455 2.17762,4.7952c0.42404,3.2388 -3.14293,6.22752 -5.10091,8.20497c-4.33927,4.38242 -8.76031,8.87693 -15.33214,9.36578c-2.78206,0.20694 -5.94021,-0.88366 -8.71122,-1.19208c0,0 -2.48437,-0.27913 -2.20526,-2.76349c0.03831,-0.34099 0.11817,-0.62992 0.22744,-0.87466c-0.46037,-0.85312 -0.39924,-1.93432 0.24129,-2.74202z" data-paper-data="{&quot;index&quot;:null}" fill="#7c5c32" stroke="none" stroke-width="0.5" stroke-linecap="butt"/></g></g></svg>