<svg version="1.1" xmlns="http://www.w3.org/2000/svg" xmlns:xlink="http://www.w3.org/1999/xlink" width="23.99955" height="19.94861" viewBox="0,0,23.99955,19.94861"><g transform="translate(-232.09822,-175.68464)"><g data-paper-data="{&quot;isPaintingLayer&quot;:true}" fill-rule="nonzero" stroke-linecap="butt" stroke-linejoin="miter" stroke-miterlimit="10" stroke-dasharray="" stroke-dashoffset="0" style="mix-blend-mode: normal"><path d="M244.85683,195.09446c-1.28549,0 -2.32758,-1.76577 -2.32758,-3.94396c0,-2.17819 1.04209,-3.94396 2.32758,-3.94396c1.28549,0 2.32758,1.76577 2.32758,3.94396c0,2.17819 -1.04209,3.94396 -2.32758,3.94396z" fill="#894b28" stroke="none" stroke-width="0"/><path d="M242.21675,192.01256c-5.58831,0 -10.11853,-3.45918 -10.11853,-7.72629c0,-4.26711 4.53022,-7.72629 10.11853,-7.72629c5.58831,0 10.11853,3.45918 10.11853,7.72629c0,4.26711 -4.53022,7.72629 -10.11853,7.72629z" fill="#9a542c" stroke="none" stroke-width="0"/><path d="M248.5671,187.76134c-5.1302,2.2159 -10.32784,1.60729 -11.60924,-1.35938c-1.2814,-2.96667 1.83867,-7.16798 6.96887,-9.38388c5.1302,-2.2159 10.32783,-1.60729 11.60923,1.35938c1.2814,2.96667 -1.83866,7.16797 -6.96887,9.38387z" fill="#9a542c" stroke="none" stroke-width="0"/><path d="M240.18011,195.63325c-1.28549,0 -2.32758,-1.76578 -2.32758,-3.94397c0,-2.17819 1.04209,-3.94396 2.32758,-3.94396c1.28549,0 2.32758,1.76577 2.32758,3.94396c0,2.17819 -1.04209,3.94397 -2.32758,3.94397z" fill="#9a542c" stroke="none" stroke-width="0"/><path d="M246.74261,186.1936c-0.48206,0 -0.87285,-0.34736 -0.87285,-0.77586c0,-0.42849 0.39079,-0.77587 0.87285,-0.77587c0.48206,0 0.87284,0.34737 0.87284,0.77587c0,0.42849 -0.39078,0.77586 -0.87284,0.77586z" fill="#000000" stroke="#000000" stroke-width="0.5"/><path d="M255.24435,178.59007l-0.05076,-0.01015l0.05829,-0.29145c-0.1272,-0.14514 -0.26662,-0.27723 -0.37785,-0.38791l-0.06434,-0.01783c0,0 -0.2236,-0.11181 -0.1118,-0.33541c0.11181,-0.2236 0.33541,-0.11181 0.33541,-0.11181l0.19428,0.11149c0.47215,0.47419 0.99961,1.02508 0.84162,1.72448c0,0 -0.03158,0.1263 -0.1403,0.17383c-0.05781,0.14485 -0.23155,0.14484 -0.23155,0.14484h-0.06466c-0.66643,0 -1.10686,0.19501 -1.69854,0.49085c0,0 -0.2236,0.1118 -0.33541,-0.11181c-0.11181,-0.2236 0.11181,-0.33541 0.11181,-0.33541c0.34533,-0.17267 0.65238,-0.31377 0.97375,-0.40891c0.01316,-0.01304 0.02253,-0.02007 0.02253,-0.02007c0.15399,-0.11499 0.38108,-0.24565 0.48836,-0.41351c0.00875,-0.06826 0.02599,-0.13534 0.04916,-0.20123z" fill="#000000" stroke="none" stroke-width="0.5"/><path d="M240.38871,192.55323c0.07319,0.59177 0.01017,1.17087 -0.3551,1.57576c0,0 -0.17678,0.17677 -0.35356,0c-0.17677,-0.17677 0,-0.35355 0,-0.35355c0.633,-0.51111 -0.01572,-2.18674 -0.25506,-2.7851l-0.06931,-0.27491c0,0 -0.06064,-0.24254 0.1819,-0.30317c0.24254,-0.06063 0.30317,0.18191 0.30317,0.18191l0.05999,0.24233c0.12728,0.3182 0.27428,0.71806 0.37854,1.1388c0.28037,-0.31306 0.4601,-0.73513 0.64705,-1.10903l0.28826,-0.1382c0,0 0.25,0 0.25,0.25c0,0.14166 -0.08028,0.20305 -0.14985,0.22966c-0.24929,0.49976 -0.49856,0.98827 -0.92603,1.34549z" fill="#000000" stroke="none" stroke-width="0.5"/></g></g></svg>