<svg version="1.1" xmlns="http://www.w3.org/2000/svg" xmlns:xlink="http://www.w3.org/1999/xlink" width="52.93557" height="51.9592" viewBox="0,0,52.93557,51.9592"><g transform="translate(-203.4744,-159.03894)"><g data-paper-data="{&quot;isPaintingLayer&quot;:true}" fill-rule="nonzero" stroke="none" stroke-width="0.5" stroke-linecap="butt" stroke-linejoin="miter" stroke-miterlimit="10" stroke-dasharray="" stroke-dashoffset="0" style="mix-blend-mode: normal"><path d="M220.90773,191.07519c2.05577,-2.41167 3.52128,-5.31951 5.58557,-7.67469c2.45505,-2.801 6.52828,-5.04099 9.40842,-7.50203c3.04573,-2.60253 10.2638,-8.25061 13.22744,-3.80514c2.45248,3.67872 -3.69855,6.48572 -5.87274,7.93586c-2.09374,1.39649 -3.51122,3.54413 -5.55922,4.80984c-1.72781,1.06782 -3.80408,1.88408 -5.35185,3.25209c-3.61138,3.19196 -5.78309,7.49015 -8.4849,11.3847c-0.6317,0.27624 -1.18231,0.59804 -1.41504,0.79278c-1.51244,1.26551 -5.77449,3.80392 -9.03653,6.15681c-1.66311,0.28439 -3.37207,2.14685 -4.24757,3.9759c-0.57634,0.44764 -1.25156,0.79396 -1.90058,0.46948c-1.59779,0 -2.9622,-0.99928 -3.50234,-2.40697c-0.24003,-0.37902 -0.3467,-0.79287 -0.24639,-1.24427c-0.00085,-0.03281 -0.00127,-0.06574 -0.00127,-0.09876c0,-1.3548 0.71845,-2.5418 1.79513,-3.20078c0.03887,-0.03636 0.07819,-0.0723 0.11795,-0.10784c1.83895,-0.1311 4.23629,-1.47261 5.94428,-2.7779c0.01248,0.00023 0.02498,0.00034 0.03752,0.00034c0.87459,0 1.61808,-0.56139 1.88975,-1.34347c2.87293,-2.1294 6.68717,-4.48726 7.38208,-8.35425c0.07861,-0.08664 0.15542,-0.17386 0.2303,-0.2617z" fill="#654400"/><path d="M221.5628,196.88246c-0.73233,-0.80391 -1.50234,-1.56327 -2.35643,-2.28333c0.31705,-0.42559 0.59816,-0.87282 0.83219,-1.34519c0.8251,0.63797 1.56137,1.39957 2.25414,2.20798c0.70539,0.7463 1.37233,1.53059 2.03294,2.35805l0.6075,0.60587c0,0 0.04266,0.04266 0.09168,0.11587c-0.24547,0.23749 -0.49097,0.49169 -0.72681,0.75597c-0.06606,0.02485 -0.13185,0.05056 -0.19711,0.07694c-0.16602,0.03126 -0.32479,0.08305 -0.47359,0.15261c-0.67799,-0.84017 -1.3481,-1.76411 -2.06452,-2.64476z" fill="#583a00"/><path d="M206.25319,204.06616c0,0 -0.12087,-0.14284 -0.17051,-0.34619c0.46851,-0.09472 0.96088,-0.25089 1.45986,-0.45127c1.23195,1.46689 2.40637,2.93815 3.50629,4.50808c-0.36473,0.35004 -0.70685,0.74704 -1.01369,1.1678c-1.17472,-1.71465 -2.43963,-3.2974 -3.78195,-4.87843z" fill="#583a00"/><path d="M223.36704,199.58335l-0.1056,-0.11246c-0.21424,-0.32136 -0.44398,-0.58363 -0.69525,-0.87687c-0.83585,-1.16848 -2.20793,-2.78883 -3.48378,-3.83192c0.09911,-0.12768 0.19503,-0.2573 0.28745,-0.38899c1.31341,1.08811 2.70906,2.67742 3.58996,3.9126c0.25827,0.30121 0.49692,0.57675 0.71764,0.90783l0.04313,0.03626c0,0 0.10198,0.10198 0.07357,0.22848c-0.12644,0.04565 -0.24697,0.10368 -0.36011,0.17262c-0.04143,-0.02197 -0.06701,-0.04755 -0.06701,-0.04755z" fill="#9b6700"/><path d="M221.63004,198.95698c-0.90035,-1.26811 -2.18036,-2.23717 -3.207,-3.42013c0.11326,-0.12232 0.22388,-0.24646 0.33154,-0.37253c1.0335,1.22422 2.35267,2.20738 3.28233,3.50205c0.30322,0.4246 0.55219,0.87631 0.8427,1.30816c-0.17578,0.10443 -0.31868,0.20053 -0.41506,0.27834c-0.28697,-0.42825 -0.53428,-0.87566 -0.8345,-1.29588z" fill="#9b6700"/><path d="M221.39333,200.94349c-0.94575,-1.68741 -2.61774,-2.99318 -3.86781,-4.5182c0.12231,-0.11193 0.24288,-0.22536 0.36139,-0.3404c1.25674,1.56891 2.94391,2.893 3.94054,4.61053l0.02591,0.03367c-0.12612,0.09303 -0.26092,0.19018 -0.40354,0.29113z" fill="#9b6700"/><path d="M220.55272,201.63534c-1.15577,-1.60028 -2.64819,-2.936 -3.87187,-4.47938c0.12826,-0.10546 0.2555,-0.21221 0.38139,-0.32032c1.22439,1.55673 2.72944,2.90002 3.89545,4.50646l0.01067,0.01331c-0.13334,0.09151 -0.2716,0.18548 -0.41425,0.28169z" fill="#9b6700"/><path d="M215.50155,198.07744c0.13173,-0.09874 0.26338,-0.19845 0.39463,-0.29925c1.25651,1.50149 3.04984,2.57649 4.29128,4.10475c-0.13514,0.09015 -0.27354,0.18199 -0.41481,0.27539c-1.23024,-1.52278 -3.00992,-2.59065 -4.27111,-4.08088z" fill="#9b6700"/><path d="M218.54827,202.74133c-1.18669,-1.44224 -2.77336,-2.54073 -4.09338,-3.89527c0.13643,-0.09891 0.27369,-0.19861 0.41142,-0.29921c1.37793,1.37488 3.13283,2.49147 4.22368,4.06068c-0.17201,0.11276 -0.34705,0.22728 -0.52456,0.34334c-0.03252,-0.05096 -0.05371,-0.12228 -0.01714,-0.20955z" fill="#9b6700"/><path d="M213.52398,199.52258c0.13285,-0.09748 0.26743,-0.1955 0.40335,-0.29419c1.03954,1.46462 2.35556,3.15451 3.67282,4.35374c-0.14076,0.09219 -0.28236,0.18504 -0.42456,0.27846c-1.31113,-1.23325 -2.60842,-2.8747 -3.6516,-4.33801z" fill="#9b6700"/><path d="M216.92404,204.02604c-0.13743,0.09051 -0.27528,0.1815 -0.41332,0.27287c-1.06746,-1.42604 -2.54467,-2.48727 -3.73509,-3.80723c0.12177,-0.11453 0.22917,-0.24416 0.31923,-0.38589c1.20547,1.37355 2.72437,2.45592 3.82918,3.92025z" fill="#9b6700"/><path d="M215.92671,204.68721c-0.07983,0.05334 -0.15961,0.10675 -0.23931,0.16025c-1.02939,-1.14939 -2.90521,-2.45126 -4.11794,-3.81946c0.17375,-0.01409 0.34123,-0.05039 0.49958,-0.10605c1.11998,1.42681 2.58052,2.80551 3.85767,3.76526z" fill="#9b6700"/><path d="M214.3239,205.77783c-0.14122,0.09824 -0.28132,0.1964 -0.42002,0.29436c-1.02181,-1.57584 -2.49537,-2.81012 -3.47169,-4.36771c0.13896,-0.09328 0.27541,-0.1875 0.40885,-0.2822c0.9642,1.56341 2.46329,2.77581 3.48287,4.35554z" fill="#9b6700"/><path d="M209.3831,202.35991c0.14445,-0.08361 0.28762,-0.16922 0.42907,-0.25639c0.90946,1.54117 1.68854,3.13358 2.57095,4.68435c-0.14424,0.07595 -0.28743,0.16148 -0.42899,0.25552c-0.88182,-1.55095 -1.6612,-3.14289 -2.57103,-4.68347z" fill="#9b6700"/><path d="M208.11572,203.02094c0.1496,-0.06909 0.29921,-0.14153 0.44835,-0.21685c0.80564,1.66263 1.96445,3.03903 3.04551,4.4871c-0.12733,0.0986 -0.25288,0.20363 -0.37617,0.31424c-1.09507,-1.48735 -2.28674,-2.8876 -3.11769,-4.5845z" fill="#9b6700"/><path d="M227.87949,159.04319c3.17254,-0.14854 5.16898,3.63741 6.87602,5.62324c4.62658,5.38221 8.16743,11.6918 12.7388,17.07132c1.96456,2.31187 9.66561,5.66866 8.85631,9.31052c-0.7318,3.29309 -7.46772,9.75362 -11.08611,7.32575c-2.38008,-1.59699 -1.95074,-4.61057 -2.51648,-7.12646c-0.76311,-3.39361 -2.77902,-6.37186 -3.69976,-9.71661c-0.79973,-2.90516 -7.97413,-11.03665 -9.9383,-13.61303c-0.22473,-0.29477 -2.23366,-2.17066 -3.22644,-3.19191c-0.13608,-0.12291 -0.26171,-0.25716 -0.3754,-0.40128c-0.43647,-0.55328 -0.69694,-1.25187 -0.69694,-2.01129c0,-1.59609 1.15055,-2.92345 2.66751,-3.19795c0.12596,-0.0407 0.25917,-0.06567 0.40081,-0.0723z" fill="#95f7ff"/><path d="M236.56317,186.39352c-0.11832,0.03276 -0.19868,-0.00069 -0.25131,-0.04749c-0.2483,-0.07027 -0.18438,-0.31802 -0.18438,-0.31802l0.02133,-0.08098l-0.00688,-0.02405c-0.14944,-0.23672 -0.26222,-0.46558 -0.44296,-0.68255c-1.28094,-1.86484 -3.07038,-3.86432 -4.83055,-5.31944c0,0 -0.20801,-0.17278 -0.02972,-0.37435c0.1783,-0.20157 0.38631,-0.0288 0.38631,-0.0288c1.7707,1.47697 3.5678,3.46616 4.87396,5.34801c-0.03417,-0.23158 -0.07021,-0.46408 -0.14808,-0.68921c-0.92929,-1.8079 -2.63723,-3.45011 -4.1043,-4.86553c0,0 -0.19374,-0.18773 0,-0.37545c0.19374,-0.18773 0.38745,0 0.38745,0c1.52257,1.48116 3.24997,3.15731 4.22308,5.03779c0.05219,0.15233 0.08288,0.31686 0.10756,0.48506c0.44664,-1.22702 1.075,-2.42225 1.26434,-3.6958c0.19226,-0.62101 0.31645,-1.2766 0.41718,-1.94545c-1.41776,-0.49564 -2.83537,-0.97611 -4.29925,-1.41164c0,0 -0.26185,-0.07807 -0.18128,-0.33182c0.08057,-0.25374 0.34243,-0.17567 0.34243,-0.17567c1.43366,0.42844 2.82443,0.89833 4.21437,1.38296c0.03843,-0.28348 0.07482,-0.56829 0.11247,-0.85287c-1.30493,-0.29217 -2.62143,-0.51741 -3.98158,-0.5152c0,0 -0.27398,0 -0.27398,-0.26548c0,-0.26549 0.27398,-0.26549 0.27398,-0.26549c1.38617,0.00204 2.72516,0.22934 4.053,0.5236c0.19199,-1.34626 0.45833,-2.66518 1.15326,-3.78752c0,0 0.00732,-0.01181 0.02139,-0.02843c-0.01828,-0.71475 -0.0774,-1.42629 -0.19864,-2.12962l-0.03699,-0.09725c0,0 -0.08665,-0.25186 0.17327,-0.33582c0.25992,-0.08396 0.34655,0.1679 0.34655,0.1679l0.05765,0.17785c0.36075,2.1019 0.19046,4.27445 0.00628,6.39153c0.48424,0.11784 0.96883,0.23651 1.45554,0.3483c1.19068,0.27489 2.44777,0.46094 3.65954,0.65284l0.0969,-0.00361c0,0 0.27397,0 0.27397,0.26548c0,0.26549 -0.27397,0.26549 -0.27397,0.26549l-0.18698,-0.00361c-1.2254,-0.20121 -2.49098,-0.38213 -3.69637,-0.66005c-0.47615,-0.11032 -0.95065,-0.22771 -1.42505,-0.34438c-0.05724,0.33997 -0.09234,0.6807 -0.11355,1.02203c0.66281,0.23369 1.32884,0.46854 2.00261,0.70169c1.57184,0.46835 3.05149,1.12668 4.63017,1.56035l0.15332,0.04925c0,0 0.25991,0.08396 0.17327,0.33582c-0.08664,0.25186 -0.34656,0.1679 -0.34656,0.1679l-0.13057,-0.04244c-1.5844,-0.44171 -3.07388,-1.0963 -4.65238,-1.56699c-0.62345,-0.21579 -1.24001,-0.43315 -1.85342,-0.64971c-0.04011,1.60413 0.12742,3.2198 -0.34733,4.83113c0,0 -0.07527,0.25527 -0.3387,0.18233c-0.26343,-0.07294 -0.18816,-0.3282 -0.18816,-0.3282c0.47922,-1.62414 0.29795,-3.2528 0.34332,-4.87268c-0.16685,-0.05888 -0.33355,-0.11763 -0.50016,-0.17623c-0.09608,0.6473 -0.21544,1.28042 -0.4004,1.8778c-0.23385,1.60015 -1.18224,3.07385 -1.56412,4.64446c0.01945,0.03898 0.04092,0.07689 0.06474,0.11355l0.08104,0.31377c0,0 0.05284,0.25602 -0.2083,0.31105c-0.02568,0.0548 -0.07679,0.10682 -0.17434,0.13383zM239.29046,178.62051c0.02167,-0.32232 0.05635,-0.64423 0.11107,-0.96563c-0.14826,-0.03594 -0.29654,-0.07154 -0.44493,-0.10654c-0.03936,0.30489 -0.07699,0.61015 -0.11714,0.91362c0.15027,0.05273 0.30058,0.10558 0.451,0.15855zM239.49152,177.13424c0.0796,-0.94012 0.15798,-1.89132 0.18552,-2.84185c-0.34304,0.85117 -0.51683,1.78364 -0.65019,2.73182c0.15496,0.03612 0.30983,0.07289 0.46467,0.11004z" fill="#012800"/></g></g></svg>