<svg version="1.1" xmlns="http://www.w3.org/2000/svg" xmlns:xlink="http://www.w3.org/1999/xlink" width="383.12156" height="230.72126" viewBox="0,0,383.12156,230.72126"><g transform="translate(-48.29658,-72.33023)"><g data-paper-data="{&quot;isPaintingLayer&quot;:true}" fill-rule="nonzero" stroke-linejoin="miter" stroke-miterlimit="10" stroke-dasharray="" stroke-dashoffset="0" style="mix-blend-mode: normal"><g><path d="M67.34028,86.76508c-0.48507,1.94029 -2.42536,1.45522 -2.42536,1.45522l-2.4,-0.6c-2.65347,-0.74866 -3.91233,-0.06368 -6.49562,1.0842c-1.15751,0.51434 -2.67873,0.67581 -3.38448,1.72762c-0.85381,1.27246 -0.21971,4.65148 -0.23483,6.04791c-0.01903,1.75716 -0.4576,2.69094 0.69935,4.07639c1.02627,1.22897 4.59945,1.84411 5.99507,2.53475c0,0 1.78885,0.89442 0.89443,2.68328c-0.89442,1.78885 -2.68328,0.89443 -2.68328,0.89443c-2.25665,-1.14203 -5.50652,-1.42524 -7.20493,-3.46525c-2.11944,-2.54572 -1.67303,-3.69973 -1.70064,-6.7236c-0.02324,-2.54528 -0.5376,-6.09185 0.96517,-8.3521c2.56337,-3.85546 10.13852,-5.29858 14.1199,-4.38818l2.4,0.6c0,0 1.94029,0.48507 1.45522,2.42535z" fill="#927500" stroke="none" stroke-width="0.5" stroke-linecap="butt"/><path d="M413.62966,83.93972l2.4,-0.6c3.98138,-0.9104 11.55653,0.53273 14.1199,4.38819c1.50277,2.26025 0.98841,5.80682 0.96517,8.3521c-0.02761,3.02388 0.4188,4.17789 -1.70065,6.72361c-1.69842,2.04001 -4.94828,2.32322 -7.20493,3.46525c0,0 -1.78886,0.89442 -2.68328,-0.89443c-0.89443,-1.78885 0.89443,-2.68328 0.89443,-2.68328c1.39562,-0.69064 4.9688,-1.30578 5.99507,-2.53475c1.15695,-1.38545 0.71839,-2.31924 0.69936,-4.0764c-0.01512,-1.39642 0.61898,-4.77544 -0.23483,-6.0479c-0.70575,-1.05181 -2.22697,-1.21328 -3.38448,-1.72761c-2.58329,-1.14787 -3.84214,-1.83285 -6.49562,-1.08419l-2.4,0.6c0,0 -1.94028,0.48507 -2.42535,-1.45521c-0.48507,-1.94029 1.45522,-2.42536 1.45522,-2.42536z" data-paper-data="{&quot;index&quot;:null}" fill="#927500" stroke="none" stroke-width="0.5" stroke-linecap="butt"/><path d="M64.79999,86.28001l349.80001,0.6" fill="none" stroke="#927500" stroke-width="4" stroke-linecap="round"/></g><g data-paper-data="{&quot;index&quot;:null}"><path d="M63.1871,82.71331l-0.60715,-1.41367c-0.92227,-2.3453 0.49828,-6.81316 4.34607,-8.33096c2.25576,-0.88981 5.80385,-0.59283 8.34919,-0.58361c3.02394,0.01096 4.17662,-0.25421 6.72865,0.99066c2.04506,0.99758 2.33796,2.91277 3.48671,4.24099c0,0 0.89975,1.0529 -0.88643,1.58328c-1.78618,0.53038 -2.68594,-0.52252 -2.68594,-0.52252c-0.69479,-0.82146 -1.32059,-2.92666 -2.55261,-3.52946c-1.3889,-0.67955 -2.32136,-0.41939 -4.07846,-0.40508c-1.39637,0.01136 -4.77727,-0.35648 -6.04718,0.14905c-1.04969,0.41787 -1.20664,1.31486 -1.71752,1.99809c-1.14017,1.52478 -1.82139,2.26805 -1.06482,3.83087l0.60715,1.41367c0,0 0.49085,1.14288 -1.44798,1.43223c-1.93883,0.28934 -2.42968,-0.85354 -2.42968,-0.85354z" fill="#927500" stroke="none" stroke-width="0.5" stroke-linecap="butt"/><path d="M66.24471,286.83665c1.94172,0.28253 1.46244,1.42711 1.46244,1.42711l-0.59284,1.41578c-0.74075,1.56545 -0.05201,2.3063 1.10356,3.82706c0.51779,0.68142 0.68379,1.57784 1.7377,1.99201c1.275,0.50106 4.65211,0.12134 6.04858,0.1278c1.75721,0.00813 2.69229,0.26501 4.07429,-0.41941c1.2259,-0.60712 1.83039,-2.71448 2.51687,-3.53836c0,0 0.88909,-1.05605 2.68061,-0.53195c1.79152,0.52409 0.90242,1.58014 0.90242,1.58014c-1.13529,1.33223 -1.40882,3.24843 -3.44376,4.25318c-2.53939,1.25382 -3.69473,0.9927 -6.71851,1.01429c-2.5452,0.01817 -6.09022,0.32761 -8.35494,-0.55426c-3.86308,-1.50426 -5.32878,-5.96704 -4.43025,-8.31554l0.59284,-1.41578c0,0 0.47928,-1.14459 2.42101,-0.86206z" data-paper-data="{&quot;index&quot;:null}" fill="#927500" stroke="none" stroke-width="0.5" stroke-linecap="butt"/><path d="M66.76687,288.26554l-1.64273,-206.19524" fill="none" stroke="#927500" stroke-width="4" stroke-linecap="round"/></g><g data-paper-data="{&quot;index&quot;:null}"><path d="M415.09046,88.56686c-1.93883,-0.28934 -1.44798,-1.43223 -1.44798,-1.43223l0.60715,-1.41367c0.75657,-1.56283 0.07534,-2.30609 -1.06483,-3.83087c-0.51088,-0.68322 -0.66782,-1.58022 -1.71752,-1.99809c-1.26992,-0.50553 -4.65081,-0.13769 -6.04718,-0.14905c-1.75709,-0.0143 -2.68956,-0.27447 -4.07846,0.40508c-1.23202,0.6028 -1.85782,2.708 -2.55261,3.52946c0,0 -0.89976,1.0529 -2.68594,0.52252c-1.78618,-0.53038 -0.88642,-1.58328 -0.88642,-1.58328c1.14875,-1.32822 1.44164,-3.24341 3.48671,-4.24099c2.55203,-1.24487 3.7047,-0.9797 6.72864,-0.99066c2.54534,-0.00923 6.09342,-0.3062 8.34918,0.58361c3.8478,1.5178 5.26834,5.98566 4.34608,8.33096l-0.60715,1.41367c0,0 -0.49085,1.14289 -2.42968,0.85354z" fill="#927500" stroke="none" stroke-width="0.5" stroke-linecap="butt"/><path d="M416.88354,292.69872l0.59285,1.41578c0.89853,2.3485 -0.56717,6.81128 -4.43025,8.31554c-2.26472,0.88187 -5.80974,0.57243 -8.35494,0.55426c-3.02378,-0.02159 -4.17911,0.23953 -6.7185,-1.01429c-2.03494,-1.00475 -2.30847,-2.92095 -3.44376,-4.25318c0,0 -0.88909,-1.05604 0.90242,-1.58014c1.79152,-0.52409 2.6806,0.53195 2.6806,0.53195c0.68647,0.82389 1.29096,2.93125 2.51686,3.53836c1.382,0.68442 2.31709,0.42754 4.0743,0.41941c1.39646,-0.00646 4.77357,0.37326 6.04858,-0.1278c1.0539,-0.41417 1.21991,-1.31059 1.73769,-1.99201c1.15557,-1.52076 1.8443,-2.2616 1.10356,-3.82706l-0.59285,-1.41578c0,0 -0.47928,-1.14459 1.46244,-1.42711c1.94172,-0.28253 2.421,0.86206 2.421,0.86206z" data-paper-data="{&quot;index&quot;:null}" fill="#927500" stroke="none" stroke-width="0.5" stroke-linecap="butt"/><path d="M413.94037,293.26554l1.64273,-206.19524" fill="none" stroke="#927500" stroke-width="4" stroke-linecap="round"/></g><g data-paper-data="{&quot;index&quot;:null}"><path d="M412.37444,285.20342c0.48507,-1.94029 2.42536,-1.45522 2.42536,-1.45522l2.4,0.6c2.65348,0.74866 3.91233,0.06368 6.49562,-1.0842c1.15751,-0.51434 2.67873,-0.67581 3.38448,-1.72762c0.85381,-1.27247 0.21971,-4.65148 0.23483,-6.0479c0.01903,-1.75716 0.4576,-2.69094 -0.69936,-4.0764c-1.02627,-1.22897 -4.59945,-1.84411 -5.99507,-2.53475c0,0 -1.78886,-0.89443 -0.89443,-2.68328c0.89443,-1.78886 2.68328,-0.89443 2.68328,-0.89443c2.25665,1.14202 5.50651,1.42524 7.20493,3.46525c2.11944,2.54572 1.67304,3.69973 1.70065,6.72361c0.02324,2.54528 0.5376,6.09185 -0.96517,8.3521c-2.56337,3.85546 -10.13853,5.29859 -14.1199,4.38819l-2.4,-0.6c0,0 -1.94029,-0.48507 -1.45522,-2.42535z" fill="#927500" stroke="none" stroke-width="0.5" stroke-linecap="butt"/><path d="M66.08506,288.02877l-2.4,0.6c-3.98137,0.9104 -11.55653,-0.53273 -14.1199,-4.38818c-1.50277,-2.26025 -0.98841,-5.80682 -0.96517,-8.3521c0.02761,-3.02387 -0.4188,-4.17789 1.70065,-6.72361c1.69841,-2.04001 4.94828,-2.32322 7.20493,-3.46525c0,0 1.78886,-0.89443 2.68328,0.89443c0.89442,1.78886 -0.89443,2.68328 -0.89443,2.68328c-1.39561,0.69064 -4.96879,1.30579 -5.99507,2.53475c-1.15695,1.38545 -0.71839,2.31923 -0.69936,4.07639c0.01512,1.39642 -0.61898,4.77544 0.23483,6.04791c0.70575,1.05181 2.22697,1.21328 3.38448,1.72761c2.58329,1.14787 3.84215,1.83285 6.49562,1.0842l2.4,-0.6c0,0 1.94029,-0.48507 2.42535,1.45522c0.48507,1.94029 -1.45521,2.42536 -1.45521,2.42536z" data-paper-data="{&quot;index&quot;:null}" fill="#927500" stroke="none" stroke-width="0.5" stroke-linecap="butt"/><path d="M65.11472,285.08849l349.80001,0.6" fill="none" stroke="#927500" stroke-width="4" stroke-linecap="round"/></g></g></g></svg>