<svg version="1.1" xmlns="http://www.w3.org/2000/svg" xmlns:xlink="http://www.w3.org/1999/xlink" width="231.29678" height="118.81493" viewBox="0,0,231.29678,118.81493"><g transform="translate(-93.18978,-85.17281)"><g data-paper-data="{&quot;isPaintingLayer&quot;:true}" fill-rule="nonzero" stroke="none" stroke-linecap="butt" stroke-linejoin="miter" stroke-miterlimit="10" stroke-dasharray="" stroke-dashoffset="0" style="mix-blend-mode: normal"><path d="M275.87516,167.39553c-3.45209,18.77321 -23.50554,30.81894 -44.79057,26.90497c-21.2851,-3.91398 -35.74156,-22.30553 -32.28947,-41.07874c3.45209,-18.77321 23.50553,-30.81894 44.79056,-26.90497c21.2851,3.91398 35.74157,22.30552 32.28948,41.07873z" fill="#080318" stroke-width="0"/><path d="M267.12009,153.54633c0.03762,18.0125 -36.54579,32.69111 -81.71151,32.78555c-45.16572,0.09444 -81.81024,-14.43099 -81.84787,-32.44349c-0.03763,-18.0125 36.54578,-32.69111 81.7115,-32.78555c45.16565,-0.09445 81.81026,14.43099 81.84794,32.4435z" fill="#080318" stroke-width="0"/><path d="M317.92984,158.77957c-2.0907,11.36968 -18.68267,17.84726 -37.05923,14.46811c-18.37656,-3.37915 -31.57884,-15.3354 -29.48815,-26.70508c2.09069,-11.36962 18.68266,-17.84726 37.05923,-14.46811c18.37657,3.37915 31.57884,15.33546 29.48815,26.70508z" fill="#080318" stroke-width="0"/><path d="M194.27523,185.88212c1.59578,0.29344 1.30234,1.88922 1.30234,1.88922l-0.39993,2.10781c-0.84901,1.86673 -1.11806,3.4559 -1.48737,5.46429c0,0 -0.29344,1.59578 -1.88922,1.30234c-0.5928,-0.109 -0.92489,-0.39773 -1.10813,-0.71756c-0.74504,-0.25756 -1.21064,-1.02743 -1.06372,-1.82647c0.12118,-0.659 0.62457,-1.15116 1.23931,-1.28987c0.27441,-1.32575 0.61011,-2.57899 1.21321,-3.90515l0.30429,-1.72227c0,0 0.29344,-1.59578 1.88922,-1.30234z" fill="#171103" stroke-width="0.5"/><path d="M249.40239,199.91548c-0.97615,1.29603 -2.2722,0.32001 -2.2722,0.32001l-1.51267,-1.84857c-0.51092,-10.34054 -11.26956,-22.04476 -15.82086,-31.34872c-1.13876,-2.44295 -3.65216,-18.17418 -5.8669,-18.94544c-5.55688,-1.93518 -14.46608,6.38518 -19.99849,5.76743c0,0 -1.59579,-0.29344 -1.30235,-1.88922c0.29344,-1.59578 1.88922,-1.30235 1.88922,-1.30235c4.76406,1.70097 14.70306,-8.26711 20.68999,-5.55857c4.80103,2.17207 5.40422,16.03304 7.51585,20.52766c4.90337,10.02913 15.31049,21.39319 16.13214,32.54448l0.22626,-0.5389c0,0 1.2961,0.97616 0.32001,2.2722z" fill="#171103" stroke-width="0.5"/><path d="M210.49041,199.74835c-1.49053,0.64106 -2.13158,-0.84953 -2.13158,-0.84953l-0.67505,-1.57122c-5.98778,-12.10659 -11.62883,-25.095 -16.39558,-37.78887c-5.57486,-16.52475 -6.80478,-16.61261 -18.28374,-3.767c0,0 -1.1293,1.16499 -2.29427,0.03563c-1.16497,-1.12937 -0.03568,-2.29435 -0.03568,-2.29435c2.07523,-2.03619 12.20468,-13.67911 15.26681,-12.76767c4.02245,1.19724 7.26169,14.31591 8.40417,17.70538c4.70657,12.5858 10.29018,25.54392 16.28265,37.51267l0.71175,1.65339c0,0 0.64104,1.49059 -0.84954,2.13157z" fill="#171103" stroke-width="0.5"/><path d="M172.83343,198.62652c-1.33589,0.9086 -2.25675,-0.40946 -2.25675,-0.40946l-0.54538,-0.83543c-3.56298,-8.2779 -6.29395,-17.73997 -7.58788,-26.62616c-0.49968,-2.49203 -5.00607,-24.78543 -7.36621,-24.25274c-2.87748,0.6494 -7.27978,5.61238 -10.0622,7.51934c0,0 -1.33589,0.9086 -2.25682,-0.40947c-0.92093,-1.31806 0.415,-2.22679 0.415,-2.22679c2.5176,-1.6973 8.64799,-8.26446 11.65209,-8.0753c7.50308,0.47237 9.67829,21.40585 10.81681,26.90559c1.19609,8.5699 3.85479,17.9555 7.37033,25.90055l0.23608,0.28309c0,0 0.92091,1.31812 -0.415,2.22679z" fill="#171103" stroke-width="0.5"/><path d="M280.60146,203.95173c-1.59578,-0.29344 -1.30234,-1.88922 -1.30234,-1.88922l0.43047,-0.37512c-3.28073,-6.11545 -7.3613,-13.99953 -8.76299,-20.74729c-3.05761,-9.27208 -9.92049,-41.64522 -19.07752,-24.97168c0,0 -0.78303,1.42109 -2.20413,0.63813c-1.42109,-0.78303 -0.63812,-2.20413 -0.63812,-2.20413c12.03245,-21.77193 21.39672,14.53336 25.0573,25.70945c1.25565,6.46962 5.33943,14.19229 8.48415,20.04009l-0.09774,2.49741c0,0 -0.29344,1.59579 -1.88922,1.30235z" fill="#171103" stroke-width="0.5"/><path d="M130.87193,190.21717c-1.2961,-0.97616 -0.31994,-2.27219 -0.31994,-2.27219l0.35512,-0.18678c0.44018,-2.3938 0.88037,-4.7876 1.32055,-7.1814c0,0 0.29343,-1.59578 1.88921,-1.30234c1.59578,0.29344 1.30235,1.88922 1.30235,1.88922c-0.44018,2.3938 -0.88036,4.7876 -1.32054,7.1814l-0.95455,1.55214c0,0 -0.97609,1.2961 -2.2722,0.32001z" fill="#171103" stroke-width="0.5"/><path d="M150.45173,190.03216c-1.59578,-0.29344 -1.30234,-1.88922 -1.30234,-1.88922l0.20682,-0.85705c0.55392,-1.218 1.1079,-2.43599 1.66182,-3.65399c0,0 0.67169,-1.477 2.14869,-0.80531c1.47693,0.67168 0.80524,2.14867 0.80524,2.14867c-0.55392,1.218 -1.10784,2.43601 -1.66182,3.654l0.03082,0.10049c0,0 -0.29344,1.59579 -1.88922,1.30235z" fill="#171103" stroke-width="0.5"/><path d="M177.38884,191.4362c-1.42109,-0.78303 -0.63806,-2.20412 -0.63806,-2.20412l0.56815,-0.85865c0.23476,-1.27669 0.46953,-2.55337 0.70428,-3.83006c0,0 0.29344,-1.59579 1.88922,-1.30235c1.59578,0.29344 1.30235,1.88922 1.30235,1.88922c-0.23476,1.27669 -0.46953,2.55338 -0.70429,3.83007l-0.91753,1.83782c0,0 -0.78303,1.42109 -2.20412,0.63806z" fill="#171103" stroke-width="0.5"/><path d="M232.75955,202.69248c-1.59578,-0.29344 -1.30235,-1.88922 -1.30235,-1.88922c0.23476,-1.27669 0.55756,-3.03211 0.79232,-4.3088c0,0 0.29344,-1.59578 1.88922,-1.30234c1.59578,0.29344 1.30234,1.88922 1.30234,1.88922c-0.23476,1.27669 -0.46953,2.55338 -0.70428,3.83007l-0.08803,0.47873c0,0 -0.29344,1.59579 -1.88922,1.30235z" fill="#171103" stroke-width="0.5"/><path d="M290.81626,149.85017c0.16206,-0.88132 1.0079,-1.4644 1.88922,-1.30235c0.88132,0.16206 1.4644,1.0079 1.30235,1.88922c-0.16206,0.88132 -1.0079,1.4644 -1.88922,1.30234c-0.88132,-0.16206 -1.4644,-1.0079 -1.30235,-1.88922z" fill="#170303" stroke-width="0.5"/><path d="M294.64632,150.55445c0.16206,-0.88132 1.0079,-1.4644 1.88922,-1.30235c0.88132,0.16206 1.4644,1.0079 1.30235,1.88922c-0.16206,0.88132 -1.0079,1.4644 -1.88922,1.30235c-0.88132,-0.16206 -1.4644,-1.0079 -1.30235,-1.88922z" fill="#170303" stroke-width="0.5"/><path d="M297.06782,158.91887c0.16206,-0.88132 1.0079,-1.4644 1.88922,-1.30234c0.88132,0.16206 1.4644,1.00789 1.30234,1.88921c-0.16206,0.88132 -1.0079,1.4644 -1.88922,1.30235c-0.88132,-0.16206 -1.4644,-1.0079 -1.30234,-1.88922z" fill="#170303" stroke-width="0.5"/><path d="M301.51414,156.27183c0.16206,-0.88132 1.0079,-1.4644 1.88922,-1.30234c0.88132,0.16206 1.4644,1.0079 1.30234,1.88922c-0.16206,0.88132 -1.0079,1.4644 -1.88922,1.30234c-0.88132,-0.16206 -1.4644,-1.0079 -1.30234,-1.88922z" fill="#170303" stroke-width="0.5"/><path d="M299.56052,153.43785c0.16206,-0.88132 1.0079,-1.4644 1.88922,-1.30235c0.88132,0.16206 1.4644,1.0079 1.30235,1.88922c-0.16206,0.88132 -1.0079,1.4644 -1.88922,1.30234c-0.88132,-0.16206 -1.4644,-1.0079 -1.30235,-1.88922z" fill="#170303" stroke-width="0.5"/><path d="M303.26399,152.1391c0.16206,-0.88132 1.0079,-1.4644 1.88922,-1.30234c0.88132,0.16206 1.4644,1.0079 1.30234,1.88922c-0.16206,0.88132 -1.00789,1.4644 -1.88921,1.30234c-0.88132,-0.16206 -1.4644,-1.0079 -1.30235,-1.88922z" fill="#170303" stroke-width="0.5"/><path d="M305.38282,159.45796c0.16206,-0.88132 1.0079,-1.4644 1.88922,-1.30234c0.88132,0.16206 1.4644,1.00789 1.30235,1.88921c-0.16206,0.88132 -1.0079,1.4644 -1.88922,1.30235c-0.88132,-0.16206 -1.4644,-1.0079 -1.30235,-1.88922z" fill="#170303" stroke-width="0.5"/><path d="M320.6976,172.17299c-0.29344,1.59578 -1.88922,1.30235 -1.88922,1.30235l-0.95753,-0.17607c-4.6847,-0.86144 -7.8688,-1.98344 -11.31911,-5.32816c0,0 -1.16499,-1.1293 -0.03569,-2.29429c1.1293,-1.16499 2.29435,-0.03568 2.29435,-0.03568c2.99,2.89851 5.5646,3.71588 9.64731,4.46662l0.95754,0.17607c0,0 1.59578,0.29344 1.30234,1.88922z" fill="#170c03" stroke-width="0.5"/><path d="M324.45054,167.91368c-0.29344,1.59578 -1.88922,1.30235 -1.88922,1.30235l-2.15461,-1.13086c-0.53889,-1.75655 -2.38435,-1.78852 -4.00732,-2.52625c0,0 -1.47692,-0.67174 -0.80524,-2.14867c0.67169,-1.477 2.14868,-0.80525 2.14868,-0.80525c2.68975,1.22405 4.2866,1.44312 5.64499,4.19813l-0.23963,-0.77866c0,0 1.59578,0.29344 1.30235,1.88922z" fill="#170c03" stroke-width="0.5"/><path d="M105.11023,152.12625c-0.42208,2.29537 1.5726,5.31118 -0.03663,7.00149c-0.06028,0.06335 -5.17829,0.32238 -8.58515,0.53603l-0.75494,0.52042c-0.34188,0.23567 -0.77366,0.34091 -1.21435,0.25987c-0.88132,-0.16206 -1.4644,-1.0079 -1.30234,-1.88922c0.06166,-0.33531 0.22228,-0.62747 0.4462,-0.85184l1.20618,-1.24429l0.01428,0.01385l0.01752,-0.04574c4.9479,-4.43558 6.78903,-11.29359 13.45131,-14.27956c0,0 1.49052,-0.64107 2.13157,0.84953c0.64106,1.49053 -0.84954,2.13158 -0.84954,2.13158c-2.09135,0.84554 -3.69212,2.21096 -5.06815,3.80874c0.25016,0.27637 0.40333,0.63626 0.41925,1.02127l0.1245,1.96919l-0.07585,0.0048z" fill="#03010b" stroke-width="0.5"/><path d="M255.7334,121.00937c0.59082,-0.30827 1.1744,-0.80141 1.7634,-1.25022c0.11471,-0.56633 0.2286,-1.13357 0.33796,-1.70279c-0.86971,0.54426 -1.73883,1.08947 -2.60831,1.63424l-0.16608,1.66078c0.23092,-0.11475 0.45572,-0.22863 0.67303,-0.34201zM254.4882,127.26823c-1.27327,0.24974 -2.54861,0.4824 -3.82512,0.68385c-0.69553,0.36519 -1.38806,0.71089 -2.08998,1.03788c1.95084,-0.38729 3.93732,-0.9809 5.9151,-1.72173zM250.61704,150.04876c-0.44321,0 -0.77418,-0.11225 -1.02132,-0.27989c-0.52843,1.51498 -1.42078,3.26458 -0.95826,4.68034c0.62765,1.92123 3.81977,4.81692 5.15815,6.41559l1.22636,1.53282c0,0 1.09322,1.36652 -0.2733,2.45974c-1.36652,1.09322 -2.45974,-0.2733 -2.45974,-0.2733l-1.20437,-1.5056c-1.58457,-1.90945 -5.07799,-5.25666 -5.78014,-7.56112c-1.25407,-4.11583 2.68348,-8.613 1.20936,-12.78046c-0.07655,-0.2164 -0.16928,-0.42731 -0.27538,-0.63377l0.29388,1.17553c0.04027,0.14733 0.06177,0.30241 0.06177,0.46251c0,0.9665 -0.7835,1.75 -1.75,1.75c-0.65262,0 -1.22181,-0.35724 -1.52267,-0.88684l-1.04197,-1.76074l0.01051,-0.00622l-0.02587,-0.02028c-0.56363,-1.03313 -1.12726,-2.06626 -1.69088,-3.09939c0,0 -0.83799,-1.53632 0.69833,-2.37431c0.03798,-0.02072 0.07553,-0.03998 0.11266,-0.05786c-0.58904,-2.16932 -0.95878,-4.64907 -0.03852,-6.17885c-0.07183,-0.00898 -0.14629,-0.02187 -0.22346,-0.03901c-0.84829,-0.18851 -1.18175,-0.70464 -1.30249,-1.17654c-0.17713,0.25362 -0.34697,0.50138 -0.50789,0.74278c0,0 -0.6623,0.99345 -1.71337,0.79212c-0.36812,0.25233 -0.98459,0.51475 -1.68402,0.15325c-0.17978,0.77531 -0.87481,1.35312 -1.7048,1.35312c-0.90092,0 -1.64283,-0.68078 -1.73937,-1.55597l-0.30096,-2.4077c0,0 -0.10107,-0.80857 0.38647,-1.39119c0.02139,-0.06974 0.04753,-0.14247 0.07948,-0.21609c-1.16641,-0.687 -2.25577,-1.5311 -3.28198,-2.45801c-0.3371,0.17886 -0.6748,0.35732 -1.0131,0.53537c0,0 -1.54861,0.81506 -2.36366,-0.73355c-0.81506,-1.54861 0.73355,-2.36366 0.73355,-2.36366c0.0216,-0.01137 0.04319,-0.02273 0.06478,-0.0341c-0.83884,-0.92009 -1.63589,-1.85437 -2.40147,-2.74755c0,0 -1.13888,-1.3287 0.18981,-2.46758c0.19703,-0.16888 0.38989,-0.28351 0.57547,-0.35625c-0.15024,-0.3176 -0.29604,-0.6402 -0.43741,-0.96795c0,0 -0.68936,-1.6085 0.91915,-2.29786c1.6085,-0.68936 2.29786,0.91915 2.29786,0.91915c0.87356,2.05324 1.96008,3.89766 3.2592,5.55573c1.00125,-0.54739 1.99752,-1.0991 2.98937,-1.65545c-6.33492,-4.97656 -11.92288,-12.22238 -14.37873,-19.57136c0,0 -0.5534,-1.6602 1.1068,-2.21359c1.6602,-0.5534 2.21359,1.1068 2.21359,1.1068c0.08015,0.24111 0.16434,0.48251 0.25244,0.7241c0.07255,-0.25814 0.22487,-0.52929 0.49602,-0.80045c1.23744,-1.23744 2.47487,0 2.47487,0c3.04906,3.04906 5.71402,6.24401 8.55853,9.47168c0,-1.22275 0,-2.35799 0,-3.17022c0,0 0,-1.75 1.75,-1.75c0.02977,0 0.05902,0.00051 0.08779,0.0015c-0.09747,-0.64236 -0.19561,-1.28534 -0.29716,-1.9285c0,0 -0.27293,-1.72859 1.45565,-2.00152c1.72859,-0.27293 2.00152,1.45565 2.00152,1.45565c0.56434,3.57414 0.99261,7.17578 1.84772,10.66835c0.32112,-1.2402 0.68526,-2.35313 0.86785,-2.99938l0.25384,-0.88845c0,0 0.28986,-1.01452 1.2072,-1.24297c-0.99414,-4.13131 -1.81695,-8.2514 -2.46954,-12.49327c0,0 -0.2661,-1.72965 1.46355,-1.99575c1.72965,-0.2661 1.99575,1.46355 1.99575,1.46355c0.5364,3.4866 1.18999,6.88633 1.962,10.28002c1.23869,0.18046 1.3899,1.54135 1.3899,1.54135c0.1308,1.17874 0.28135,2.35403 0.43876,3.52823c0.07867,0.03559 0.15919,0.07776 0.24152,0.12716c0.1762,0.10572 0.3193,0.21971 0.43463,0.33858c0.02431,-0.01955 0.04916,-0.03846 0.07452,-0.05671c0.26362,-0.63895 0.52846,-1.25832 0.75281,-1.83388c-0.24975,-6.37951 -0.26623,-12.74215 -0.26623,-19.1278c0,0 0,-1.75 1.75,-1.75c1.75,0 1.75,1.75 1.75,1.75c0,4.96996 0.00899,9.92626 0.13128,14.88758c0.08938,0.01436 0.173,0.03401 0.25123,0.05822c0.14295,0.00805 0.29697,0.03327 0.46275,0.07932c1.68616,0.46838 1.21778,2.15453 1.21778,2.15453l-0.16759,0.60333c0.16906,-0.15553 1.31125,-1.12189 2.45345,0.0203c1.23744,1.23744 0,2.47487 0,2.47487l-1.64716,1.63512c-0.42232,0.28305 -0.84485,0.56466 -1.26761,0.84484c-0.02115,0.90741 -0.04445,1.81485 -0.0677,2.72237c1.05384,-0.73342 2.11098,-1.46385 3.16711,-2.19633c0.18191,-0.5795 0.34324,-1.16532 0.48801,-1.75619c-0.00523,-0.82577 -0.01398,-1.65428 -0.01398,-2.48725c0,0 0,-1.01794 0.77636,-1.5011c0.55141,-3.67072 0.8236,-7.42302 1.70662,-10.97571c0,0 0.42444,-1.69775 2.12219,-1.27331c1.69775,0.42444 1.27331,2.12219 1.27331,2.12219c-1.06181,4.22044 -1.31662,8.61885 -2.09776,12.88583c1.98714,-1.41998 3.94969,-2.87191 5.85811,-4.39037l1.09761,-1.33039c0,0 1.1206,-1.34416 2.46476,-0.22356c0.23711,0.19768 0.39753,0.40231 0.50092,0.60529c1.08762,0.67744 0.64635,2.00123 0.64635,2.00123c-0.51852,1.55556 -1.05233,3.07156 -1.60924,4.55455c0.42061,-0.0079 0.90057,0.15146 1.33098,0.70546c1.07366,1.38194 -0.30828,2.4556 -0.30828,2.4556l-0.64807,0.43831c-1.34037,1.70075 -2.70223,3.39685 -4.10592,5.05652c-0.74697,1.50642 -1.54055,2.98926 -2.391,4.45713l0.60218,-0.01872c0,0 0.02766,0 0.07603,0.00348c1.77453,-1.09848 3.45075,-2.22635 4.98364,-3.32361l0.95797,-0.63974c0,0 1.45609,-0.97073 2.42681,0.48536c0.97073,1.45609 -0.48536,2.42681 -0.48536,2.42681l-0.86508,0.57563c-3.54813,2.52935 -7.71635,5.12788 -12.10801,7.25331c-0.18026,0.24717 -0.36265,0.49429 -0.54723,0.7414c-0.09018,0.68784 -0.48599,1.0486 -0.87639,1.23781c-0.81545,1.21046 -1.59366,2.45502 -2.65546,3.44343c-1.35323,1.25969 -2.94946,2.23362 -4.35444,3.43533l-1.02285,-1.83862l-1.25086,-0.82225c0.17866,-0.15252 0.36057,-0.30113 0.54477,-0.44698l-0.03766,-0.0677c0,0 0.27366,-0.27366 0.69228,-0.4349c0.99993,-0.74881 2.03263,-1.45775 2.95374,-2.2996c0.12659,-0.11569 0.24837,-0.23573 0.36605,-0.35947c-2.44844,0.85322 -4.90873,1.49351 -7.31757,1.83431c0.79897,1.2128 1.44819,2.5512 1.87531,3.49776c1.72283,-0.23893 1.9693,1.48642 1.9693,1.48642c0.50077,3.53389 1.23295,6.67962 1.23295,10.27425v0.30384c0,0 0,1.75 -1.75,1.75zM262.99701,111.04488l1.55071,-0.62785c0,0 1.2825,-0.51646 2.02666,0.50868c0.48189,-1.1418 0.94399,-2.30194 1.39084,-3.48429c-1.63206,1.23172 -3.29411,2.42587 -4.96822,3.60346zM230.69669,110.27204c-0.31204,-0.4971 -0.63869,-1.0004 -0.98159,-1.51474c0,0 -0.85587,-1.2838 0.24514,-2.24413c-1.88896,-2.09315 -3.79355,-4.17478 -5.78762,-6.18606c1.55955,3.46777 3.85567,6.90309 6.52407,9.94493zM236.8579,125.20668c0.03351,0.00584 0.06706,0.01155 0.10064,0.01716c-0.90592,-0.92333 -1.95484,-2.11343 -2.7069,-2.9721c-0.21398,0.1182 -0.42818,0.2362 -0.64259,0.354c0.99458,0.9372 2.07756,1.80217 3.24885,2.60094zM263.22697,114.71573c-0.47903,0.29228 -0.95731,0.58569 -1.43497,0.87999c-0.04607,0.36992 -0.09879,0.74038 -0.1591,1.11156c-0.12453,0.76647 -0.26701,1.52734 -0.41724,2.2852c1.17835,-1.23511 2.31744,-2.51421 3.42817,-3.81881c0.20586,-0.42062 0.40799,-0.8432 0.60666,-1.26796zM238.99802,121.1556c0,0.2184 -0.04001,0.42746 -0.11309,0.62024c0.30546,0.30361 0.61356,0.61961 0.91345,0.94409c-0.12142,-0.55267 -0.27264,-1.09838 -0.45033,-1.63718l-0.35002,-0.04232c0,0.07378 0,0.11517 0,0.11517z" fill="#580000" stroke-width="0.5"/><path d="M260.07837,163.29261c-1.62483,0.64993 -2.27477,-0.9749 -2.27477,-0.9749l-0.48346,-1.26877c-1.31222,-2.19891 -2.92926,-4.1745 -4.25378,-6.38067c0,0 -0.90037,-1.50061 0.60025,-2.40098c1.50061,-0.90037 2.40098,0.60025 2.40098,0.60025c1.32417,2.20839 2.92914,4.18335 4.25378,6.38067l0.7319,1.76964c0,0 0.64993,1.62483 -0.9749,2.27477z" fill="#580000" stroke-width="0.5"/></g></g></svg>