<svg version="1.1" xmlns="http://www.w3.org/2000/svg" xmlns:xlink="http://www.w3.org/1999/xlink" width="24.38273" height="29.15636" viewBox="0,0,24.38273,29.15636"><g transform="translate(-226.20837,-173.92188)"><g data-paper-data="{&quot;isPaintingLayer&quot;:true}" fill="#006f09" fill-rule="nonzero" stroke="none" stroke-width="0.5" stroke-linecap="butt" stroke-linejoin="miter" stroke-miterlimit="10" stroke-dasharray="" stroke-dashoffset="0" style="mix-blend-mode: normal"><path d="M246.62331,194.28347c0.53063,0.53003 0.00061,1.06066 0.00061,1.06066l-0.34853,0.34713c-0.12531,0.14097 -0.25062,0.28195 -0.37593,0.42292l-0.10799,0.44682c0.79836,-0.57361 1.57142,-1.17995 2.31373,-1.81634l0.33276,-0.33589c0,0 0.53033,-0.53033 1.06066,0c0.53033,0.53033 0,1.06066 0,1.06066l-0.41724,0.41412c-0.51641,0.44255 -1.04704,0.87059 -1.59015,1.28365c0.29143,0.42328 -0.06229,0.86543 -0.06229,0.86543l-0.47895,0.5974c-0.11166,0.16989 -0.22252,0.33749 -0.33323,0.50289c0.43092,-0.365 0.78988,-0.81509 1.12653,-1.26881l0.44467,-0.45533c0,0 0.53033,-0.53033 1.06066,0c0.01069,0.01068 0.02094,0.02137 0.03078,0.03205c0.68889,0.03959 0.6889,0.74828 0.6889,0.74828l-0.00445,0.32243c0.0465,0.17623 0.00696,0.33781 -0.05032,0.46196c-0.02494,0.22448 -0.04989,0.44896 -0.07483,0.67344c0,0 -0.08282,0.74542 -0.82824,0.66259c-0.08796,-0.00977 -0.16439,-0.02877 -0.23079,-0.05469c-0.24732,0.29206 -0.48497,0.59271 -0.71937,0.89473c0,0 -0.46045,0.59202 -1.05247,0.13156c-0.31536,-0.24527 -0.33208,-0.52788 -0.27883,-0.73845c-0.11575,-0.04033 -0.23441,-0.12009 -0.34637,-0.26004c-0.16086,-0.20108 -0.19745,-0.38834 -0.17615,-0.54758c-0.79982,1.14956 -1.63443,2.18986 -2.7501,3.1485c0,0 -0.56944,0.48809 -1.05754,-0.08135c-0.48809,-0.56944 0.08135,-1.05754 0.08135,-1.05754c0.99666,-0.85201 1.7389,-1.77906 2.44826,-2.79564c-1.05142,0.6675 -2.1355,1.28301 -3.24179,1.84382c-0.10737,0.14721 -0.28834,0.27126 -0.59337,0.27126c-0.75,0 -0.75,-0.75 -0.75,-0.75l0.00579,-0.53197c-0.04824,-0.39022 -0.08476,-0.78253 -0.11516,-1.17593c-0.00545,0.15142 -0.06689,0.31982 -0.2353,0.48822c-0.25663,0.25663 -0.51325,0.26489 -0.70979,0.20507c-0.14307,0.17925 -0.41484,0.38466 -0.84909,0.21096c-0.11676,-0.04671 -0.20611,-0.10516 -0.27397,-0.17011c-0.11001,0.2775 -0.38082,0.47375 -0.69749,0.47375c-0.03699,0 -0.07336,-0.00267 -0.10892,-0.00785c-0.20444,0.0273 -0.37825,-0.03064 -0.37825,-0.03064l-0.66816,-0.30618c-0.34301,-0.34372 -0.67828,-0.69647 -0.99538,-1.06444c-0.01198,0.00375 -0.02409,0.0072 -0.03632,0.01036l0.16464,0.59185c0,0 0.1819,0.72761 -0.5457,0.90951c-0.72761,0.1819 -0.90951,-0.5457 -0.90951,-0.5457l-0.06821,-0.3465c-0.00169,-0.00338 -0.00338,-0.00675 -0.00507,-0.01013c-0.44911,-0.16744 -0.44911,-0.70028 -0.44911,-0.70028l0.0436,-0.12974c-0.02437,-0.07361 -0.05169,-0.1856 -0.04793,-0.31045c-0.01394,-0.02486 -0.02796,-0.04966 -0.04205,-0.07439c-0.46712,-0.08438 -0.55714,-0.51182 -0.57448,-0.67342c-0.46634,-0.91115 -0.94997,-1.6481 -1.59615,-2.47655c0,0 -0.06998,-0.08997 -0.1203,-0.22705c-0.10146,-0.15189 -0.20123,-0.30534 -0.29868,-0.4609c0,0 -0.3975,-0.636 0.2385,-1.0335c0.636,-0.3975 1.0335,0.2385 1.0335,0.2385c0.22744,0.3648 0.46732,0.71823 0.71187,1.06713c0.11092,0.15173 0.21784,0.30253 0.32143,0.45369c0.54782,0.76746 1.10195,1.52725 1.57773,2.35374c0.11098,-0.06488 0.24014,-0.10207 0.37797,-0.10207c0.0264,0 0.05247,0.00137 0.07816,0.00403c0.56367,-0.40232 1.00749,0.15246 1.00749,0.15246c0.12172,0.15263 0.24757,0.30199 0.37661,0.44862c-0.33452,-1.44016 -1.88874,-2.96594 -3.01736,-3.74068c0,0 -0.61442,-0.43009 -0.18433,-1.04452c0.43009,-0.61443 1.04452,-0.18433 1.04452,-0.18433c0.8501,0.60477 1.73461,1.42348 2.43232,2.35645c-1.1107,-2.40441 -2.33225,-4.66777 -4.18858,-6.88689c0,0 -0.48014,-0.57617 0.09602,-1.05631c0.57617,-0.48014 1.05631,0.09603 1.05631,0.09603c2.3811,2.86717 3.76123,5.82861 5.19031,9.02547c0.28179,-0.70914 0.56724,-1.4211 0.86043,-2.13157c-0.06178,-7.72558 -4.54952,-12.87115 -8.74134,-18.85867c0,0 -0.4301,-0.61443 0.18433,-1.04452c0.61443,-0.43009 1.04452,0.18433 1.04452,0.18433c3.80546,5.43713 7.83067,10.2673 8.79274,16.77254c1.02649,-2.22046 2.18869,-4.36454 3.61784,-6.29244l0.375,-0.5c0,0 0.45,-0.6 1.05,-0.15c0.6,0.45 0.15,1.05 0.15,1.05l-0.375,0.5c-1.92411,2.53033 -3.33038,5.51531 -4.57478,8.53603c0.04413,0.28516 0.08033,0.57172 0.11094,0.85926c0.05193,-0.19457 0.1663,-0.32975 0.1663,-0.32975c0.90962,-1.07469 1.85947,-2.17816 2.91595,-3.13323c0.36279,-0.3702 0.72845,-0.74205 1.09085,-1.1247l0.48008,-0.60114c0,0 0.46815,-0.58518 1.05347,-0.11769c0.74703,-0.37257 1.54956,-0.64516 2.42151,-0.78058l0.96327,1.05989c0,0 0.1819,0.72761 -0.5457,0.90951c-0.48308,0.12077 -0.72562,-0.15939 -0.83407,-0.36132c-1.27663,0.31845 -2.38523,1.01687 -3.38233,1.88119c-1.06392,1.0806 -2.11311,2.13822 -2.96646,3.41855c0,0 -0.41602,0.62404 -1.04006,0.20802c-0.11798,-0.07865 -0.19878,-0.16475 -0.25225,-0.25265c0.06653,0.85661 0.10227,1.71867 0.16795,2.57555c0.13791,-0.17902 0.32989,-0.2613 0.32989,-0.2613c0.81309,-0.32309 1.36723,-0.97159 1.92254,-1.63939c-0.08602,-0.36198 0.18734,-0.66952 0.18734,-0.66952c0.33218,-0.37371 0.66437,-0.74741 0.99655,-1.12112l0.40837,-0.41064c0,0 0.53003,-0.53064 1.06066,-0.00061zM238.02193,198.53556c0.06427,-0.16068 0.12849,-0.32178 0.1927,-0.48323c-0.01257,-0.02876 -0.02513,-0.0575 -0.03767,-0.08621c-0.07745,0.23315 -0.25074,0.35136 -0.40657,0.41131c0.09341,0.04116 0.17684,0.10082 0.24564,0.17435c0.00362,-0.01054 0.00589,-0.01622 0.00589,-0.01622zM239.99862,198.03377c0,0 0.17795,0.17795 0.22461,0.43077c-0.02994,-0.4063 -0.05408,-0.81361 -0.07854,-1.22087c-0.0921,0.23477 -0.18394,0.46888 -0.2757,0.70214zM237.23713,198.27159c0.02039,0.02065 0.04082,0.04127 0.06127,0.06184c0.00614,-0.00142 0.0123,-0.00277 0.0185,-0.00404z"/><path d="M232.12361,199.71943c-0.53033,0.53033 -1.06066,0 -1.06066,0l-0.179,-0.18515c-0.53721,-0.66764 -1.07849,-1.33202 -1.62114,-1.99525c0,0 -0.47493,-0.58047 0.10554,-1.0554c0.0813,-0.06652 0.16053,-0.11234 0.23667,-0.14194c-0.0549,-0.20941 -0.04028,-0.49023 0.26973,-0.73824c0.58565,-0.46852 1.05417,0.11713 1.05417,0.11713c0.38497,0.48206 0.74179,0.98688 1.08187,1.50159l0.40973,1.07859c0,0 0.15415,0.41109 -0.08795,0.72216c0.05543,0.19474 0.04192,0.44562 -0.20897,0.69651z"/><path d="M228.4298,199.05128c-0.23717,0.71151 -0.94868,0.47434 -0.94868,0.47434l-0.75,-0.25c0,0 -0.71151,-0.23717 -0.47434,-0.94868c0.23717,-0.71151 0.94869,-0.47434 0.94869,-0.47434l0.75,0.25c0,0 0.71151,0.23718 0.47434,0.94869z"/></g></g></svg>