<svg version="1.1" xmlns="http://www.w3.org/2000/svg" xmlns:xlink="http://www.w3.org/1999/xlink" width="90.9053" height="118.53112" viewBox="0,0,90.9053,118.53112"><g transform="translate(-184.59312,-102.08827)"><g data-paper-data="{&quot;isPaintingLayer&quot;:true}" fill-rule="nonzero" stroke-linejoin="miter" stroke-miterlimit="10" stroke-dasharray="" stroke-dashoffset="0" style="mix-blend-mode: normal"><g><g><path d="M253.42471,145.67353c-6.76667,1.93459 -12.98725,0.93157 -13.89408,-2.2403c-0.90682,-3.17187 3.84347,-7.31146 10.61013,-9.24605c6.76667,-1.93459 12.98725,-0.93157 13.8941,2.2403c0.90682,3.17187 -3.8435,7.31145 -10.61013,9.24605z" fill="#8c6738" stroke="none" stroke-width="0" stroke-linecap="butt"/><path d="M272.45075,126.56886c0.66366,8.17717 -6.00367,15.39083 -14.89188,16.11219c-8.88823,0.72136 -16.63153,-5.32276 -17.29517,-13.4999c-0.66365,-8.17717 6.00367,-15.39083 14.89188,-16.11219c8.88822,-0.72135 16.63153,5.32276 17.29517,13.4999z" fill="#8c6738" stroke="none" stroke-width="0" stroke-linecap="butt"/><path d="M271.53,126.51201c2.88076,3.62846 3.9424,8.38886 2.37126,10.63269c-1.57113,2.24381 -5.18012,1.12137 -8.06088,-2.5071c-2.88076,-3.62846 -3.94239,-8.38886 -2.37126,-10.63269c1.57113,-2.24382 5.18014,-1.12136 8.06088,2.50709z" fill="#8c6738" stroke="none" stroke-width="0" stroke-linecap="butt"/><path d="M267.73991,140.27736c-4.58112,0.69109 -9.23796,-0.75899 -10.40128,-3.23887c-1.16332,-2.4799 1.60736,-5.0505 6.18848,-5.7416c4.58112,-0.6911 9.23793,0.75898 10.40127,3.23889c1.16331,2.4799 -1.60733,5.05052 -6.18848,5.7416z" data-paper-data="{&quot;index&quot;:null}" fill="#8c6738" stroke="none" stroke-width="0" stroke-linecap="butt"/><path d="M266.90987,141.66003l-0.13937,-2.32238l1.75515,-0.16701l0.09317,2.05591l-1.69309,0.62871" fill="#b39675" stroke="#b39675" stroke-width="0.5" stroke-linecap="round"/><path d="M275.26856,134.69354c0.03237,0.39913 -0.2093,0.56531 -0.38998,0.63346c-1.44441,4.47889 -6.29593,3.75011 -10.26843,4.07254c0,0 -0.62841,0.05099 -0.67942,-0.57742c-0.051,-0.62841 0.57741,-0.67941 0.57741,-0.67941c3.18253,-0.25829 7.48758,0.47554 8.96082,-2.67057c-0.07522,0.00612 -0.13674,0.01109 -0.17718,0.01437c0,0 -0.62841,0.05099 -0.67942,-0.57741c-0.051,-0.62841 0.57741,-0.67941 0.57741,-0.67941c0.23324,-0.01893 0.46645,-0.03786 0.69967,-0.0568l0.69968,-0.0568c0,0 0.6284,-0.05099 0.67941,0.57741z" fill="#864e00" stroke="none" stroke-width="0.5" stroke-linecap="butt"/><path d="M275.49548,134.59686c0.051,0.62841 -0.57741,0.67942 -0.57741,0.67942c-0.46645,0.03786 -1.39936,0.11356 -1.8658,0.15142c0,0 -0.62841,0.05099 -0.67942,-0.57742c-0.051,-0.62841 0.57742,-0.67942 0.57742,-0.67942c0.46645,-0.03786 0.93291,-0.0757 1.39936,-0.11356l0.46645,-0.03787c0,0 0.62841,-0.05099 0.67942,0.57742z" fill="#871400" stroke="none" stroke-width="0.5" stroke-linecap="butt"/><path d="M266.1651,125.33455c0.16113,-0.25864 0.49554,-0.28579 0.49554,-0.28579l0.17795,-0.0004c2.50203,0.61739 0.54764,3.2153 -0.77816,0.99964c0,0 -0.20287,-0.42196 0.10465,-0.71346z" fill="#000000" stroke="none" stroke-width="0.5" stroke-linecap="butt"/><path d="M258.02054,119.5749c-0.53926,0.32666 -0.86592,-0.21261 -0.86592,-0.21261l-0.07171,-0.12311c-0.32099,-0.44871 -0.5571,-0.93269 -0.79695,-1.4197c-0.05299,0.24405 -0.10271,0.49365 -0.14934,0.75092l-0.14664,0.33295c0,0 -0.30614,0.55117 -0.85731,0.24502c-0.55116,-0.30614 -0.24501,-0.85731 -0.24501,-0.85731l0.00828,0.05404c0.31269,-1.7193 0.7653,-3.14767 1.38124,-4.79059c0,0 0.22144,-0.5903 0.81174,-0.36888c0.59032,0.22143 0.36888,0.81174 0.36888,0.81174c-0.2672,0.71193 -0.50069,1.37422 -0.70409,2.03801c0.49985,0.80182 0.79012,1.72488 1.34607,2.45823l0.13331,0.21536c0,0 0.32665,0.53927 -0.21261,0.86592z" fill="#7c4800" stroke="none" stroke-width="0.5" stroke-linecap="butt"/><path d="M258.62245,112.56232c0.07036,0.0663 0.43103,0.44267 0.06076,0.87838c-0.40829,0.48042 -0.88872,0.07214 -0.88872,0.07214l-0.24747,-0.30921c-0.09346,-0.82397 -1.50858,0.0797 -1.95315,0.35117c0,0 -0.53926,0.32667 -0.86592,-0.2126c-0.32666,-0.53926 0.21261,-0.86591 0.21261,-0.86591c1.31557,-0.79142 2.81786,-1.37628 3.68189,0.08608z" fill="#8c6738" stroke="none" stroke-width="0.5" stroke-linecap="butt"/><path d="M260.31968,120.69983c-0.62932,-0.03837 -0.59093,-0.66768 -0.59093,-0.66768l0.01994,-0.22291c-0.15277,-1.89368 -0.42817,-3.69366 -0.93235,-5.52931c-0.77265,-5.73161 -6.20726,0.64024 -5.90973,4.08707c0,0 0.05099,0.6284 -0.5774,0.67941c-0.6284,0.05099 -0.67942,-0.57741 -0.67942,-0.57741c-0.38561,-5.01799 7.35213,-11.95461 8.40167,-4.44312c0.52148,1.88123 0.79564,3.74006 0.95409,5.68134l-0.01815,0.40166c0,0 -0.03838,0.62932 -0.66768,0.59093z" fill="#7c4800" stroke="none" stroke-width="0.5" stroke-linecap="butt"/><path d="M249.35399,132.13115c-2.15207,6.70067 -6.44289,11.31484 -9.58385,10.30605c-3.14093,-1.00878 -3.94257,-7.25852 -1.79049,-13.95919c2.15207,-6.70066 6.44289,-11.31483 9.58384,-10.30605c3.14093,1.00878 3.94258,7.25852 1.79051,13.95918z" fill="#8c6738" stroke="none" stroke-width="0" stroke-linecap="butt"/><path d="M258.4638,135.52406c-0.6284,0.05099 -0.67941,-0.5774 -0.67941,-0.5774l-0.01494,-0.18394c-0.34446,-4.24435 0.77472,-5.60262 3.88553,-8.06203c0,0 0.4946,-0.39104 0.88561,0.10355c0.39102,0.49459 -0.10358,0.8856 -0.10358,0.8856c-2.8162,2.2265 -3.72495,3.09924 -3.41074,6.97085l0.01493,0.18394c0,0 0.05099,0.6284 -0.5774,0.67941z" fill="#864e00" stroke="none" stroke-width="0.5" stroke-linecap="butt"/><path d="M251.72845,139.063c-2.67328,8.32348 -8.61731,13.85795 -13.27635,12.36159c-4.65906,-1.49637 -6.26883,-9.45691 -3.59555,-17.78039c2.67328,-8.32348 8.61731,-13.85795 13.27635,-12.36159c4.65906,1.49637 6.26883,9.45691 3.59555,17.78039z" fill="#8c6738" stroke="none" stroke-width="0" stroke-linecap="butt"/></g><path d="M265.20141,117.4348c-1.6293,-1.60252 -2.58552,-3.91862 -3.99867,-5.70929c-1.22707,-2.37202 -3.95541,-6.15053 -3.67259,-8.88847c-0.01216,-0.06449 -0.02371,-0.12912 -0.03469,-0.19391c0,0 -0.07772,-0.46844 0.39073,-0.54616c0.46845,-0.07771 0.54617,0.39073 0.54617,0.39073c0.54545,3.37305 2.891,6.36854 4.70641,9.13437c0.93594,1.17775 2.97675,4.03481 4.48633,4.30185l0.24939,-0.00749c0,0 0.30257,0.001 0.42387,0.24293c0.06218,0.02858 0.12497,0.07646 0.18459,0.15151c0.29543,0.37177 -0.07631,0.66717 -0.07631,0.66717c-0.5204,0.40903 -1.10594,0.67558 -1.62681,1.09063l-0.24781,0.19695c0,0 -0.37178,0.29546 -0.66721,-0.07631c-0.07651,-0.09628 -0.10829,-0.18745 -0.11334,-0.26971c-0.15383,-0.11499 -0.33607,-0.27434 -0.55002,-0.48479z" fill="#8c8172" stroke="none" stroke-width="0.5" stroke-linecap="butt"/><path d="M256.47037,129.35798c-2.72874,-1.3271 -4.91244,-3.83707 -7.4488,-5.49243c-2.54827,-2.4657 -7.58114,-6.06599 -8.38412,-9.63131c-0.04258,-0.076 -0.08451,-0.15245 -0.12575,-0.22933c0,0 -0.29608,-0.55661 0.26054,-0.85272c0.55661,-0.29608 0.85272,0.26054 0.85272,0.26054c2.11415,4.01401 6.33388,6.79092 9.78922,9.5032c1.67637,1.08602 5.45401,3.81768 7.46677,3.51478l0.31067,-0.11501c0,0 0.3812,-0.12685 0.63627,0.12629c0.09035,0.00966 0.18962,0.04334 0.29644,0.11253c0.52914,0.34277 0.18634,0.87195 0.18634,0.87195c-0.4818,0.73501 -1.10582,1.31832 -1.58564,2.06114l-0.22854,0.35274c0,0 -0.34281,0.52916 -0.87194,0.18635c-0.13706,-0.08878 -0.2156,-0.19008 -0.25679,-0.29143c-0.24229,-0.07958 -0.53904,-0.20298 -0.8974,-0.37727z" fill="#8c8172" stroke="none" stroke-width="0.5" stroke-linecap="butt"/><path d="M256.27309,123.85408c-2.11497,-2.17577 -3.31525,-5.27867 -5.1377,-7.69776c-1.55815,-3.18521 -5.06713,-8.28216 -4.61009,-11.90812c-0.01421,-0.08596 -0.02763,-0.17209 -0.04028,-0.25842c0,0 -0.0892,-0.62412 0.53495,-0.71334c0.62415,-0.08918 0.71335,0.53494 0.71335,0.53494c0.62349,4.49369 3.6477,8.53983 5.97504,12.26532c1.20728,1.59126 3.83114,5.4446 5.82695,5.84405l0.33125,-0.00253c0,0 0.40163,0.01032 0.55543,0.33509c0.08167,0.03979 0.16358,0.10519 0.24051,0.20662c0.38107,0.50228 -0.12121,0.88336 -0.12121,0.88336c-0.70299,0.52741 -1.48817,0.86381 -2.19195,1.39923l-0.33485,0.25404c0,0 -0.50228,0.38107 -0.88336,-0.12121c-0.09871,-0.13011 -0.13815,-0.25208 -0.1424,-0.36139c-0.20077,-0.15721 -0.43791,-0.37417 -0.71567,-0.65991z" fill="#8c8172" stroke="none" stroke-width="0.5" stroke-linecap="butt"/><path d="M253.42471,145.67353c-6.76667,1.93459 -12.98725,0.93157 -13.89408,-2.2403c-0.90682,-3.17187 3.84347,-7.31146 10.61013,-9.24605c6.76667,-1.93459 12.98725,-0.93157 13.8941,2.2403c0.90682,3.17187 -3.8435,7.31145 -10.61013,9.24605z" fill="#8c6738" stroke="none" stroke-width="0" stroke-linecap="butt"/><path d="M272.45075,126.56886c0.66366,8.17717 -6.00367,15.39083 -14.89188,16.11219c-8.88823,0.72136 -16.63153,-5.32276 -17.29517,-13.4999c-0.66365,-8.17717 6.00367,-15.39083 14.89188,-16.11219c8.88822,-0.72135 16.63153,5.32276 17.29517,13.4999z" fill="#8c6738" stroke="none" stroke-width="0" stroke-linecap="butt"/><path d="M271.53,126.51201c2.88076,3.62846 3.9424,8.38886 2.37126,10.63269c-1.57113,2.24381 -5.18012,1.12137 -8.06088,-2.5071c-2.88076,-3.62846 -3.94239,-8.38886 -2.37126,-10.63269c1.57113,-2.24382 5.18014,-1.12136 8.06088,2.50709z" fill="#8c6738" stroke="none" stroke-width="0" stroke-linecap="butt"/><path d="M267.73991,140.27736c-4.58112,0.69109 -9.23796,-0.75899 -10.40128,-3.23887c-1.16332,-2.4799 1.60736,-5.0505 6.18848,-5.7416c4.58112,-0.6911 9.23793,0.75898 10.40127,3.23889c1.16331,2.4799 -1.60733,5.05052 -6.18848,5.7416z" data-paper-data="{&quot;index&quot;:null}" fill="#8c6738" stroke="none" stroke-width="0" stroke-linecap="butt"/><path d="M266.90987,141.66003l-0.13937,-2.32238l1.75515,-0.16701l0.09317,2.05591l-1.69309,0.62871" fill="#b39675" stroke="#b39675" stroke-width="0.5" stroke-linecap="round"/><path d="M275.26856,134.69354c0.03237,0.39913 -0.2093,0.56531 -0.38998,0.63346c-1.44441,4.47889 -6.29593,3.75011 -10.26843,4.07254c0,0 -0.62841,0.05099 -0.67942,-0.57742c-0.051,-0.62841 0.57741,-0.67941 0.57741,-0.67941c3.18253,-0.25829 7.48758,0.47554 8.96082,-2.67057c-0.07522,0.00612 -0.13674,0.01109 -0.17718,0.01437c0,0 -0.62841,0.05099 -0.67942,-0.57741c-0.051,-0.62841 0.57741,-0.67941 0.57741,-0.67941c0.23324,-0.01893 0.46645,-0.03786 0.69967,-0.0568l0.69968,-0.0568c0,0 0.6284,-0.05099 0.67941,0.57741z" fill="#864e00" stroke="none" stroke-width="0.5" stroke-linecap="butt"/><path d="M275.49548,134.59686c0.051,0.62841 -0.57741,0.67942 -0.57741,0.67942c-0.46645,0.03786 -1.39936,0.11356 -1.8658,0.15142c0,0 -0.62841,0.05099 -0.67942,-0.57742c-0.051,-0.62841 0.57742,-0.67942 0.57742,-0.67942c0.46645,-0.03786 0.93291,-0.0757 1.39936,-0.11356l0.46645,-0.03787c0,0 0.62841,-0.05099 0.67942,0.57742z" fill="#871400" stroke="none" stroke-width="0.5" stroke-linecap="butt"/><path d="M266.1651,125.33455c0.16113,-0.25864 0.49554,-0.28579 0.49554,-0.28579l0.17795,-0.0004c2.50203,0.61739 0.54764,3.2153 -0.77816,0.99964c0,0 -0.20287,-0.42196 0.10465,-0.71346z" fill="#000000" stroke="none" stroke-width="0.5" stroke-linecap="butt"/><path d="M258.62245,112.56232c0.07036,0.0663 0.43103,0.44267 0.06076,0.87838c-0.40829,0.48042 -0.88872,0.07214 -0.88872,0.07214l-0.24747,-0.30921c-0.09346,-0.82397 -1.50858,0.0797 -1.95315,0.35117c0,0 -0.53926,0.32667 -0.86592,-0.2126c-0.32666,-0.53926 0.21261,-0.86591 0.21261,-0.86591c1.31557,-0.79142 2.81786,-1.37628 3.68189,0.08608z" fill="#8c6738" stroke="none" stroke-width="0.5" stroke-linecap="butt"/><path d="M249.35399,132.13115c-2.15207,6.70067 -6.44289,11.31484 -9.58385,10.30605c-3.14093,-1.00878 -3.94257,-7.25852 -1.79049,-13.95919c2.15207,-6.70066 6.44289,-11.31483 9.58384,-10.30605c3.14093,1.00878 3.94258,7.25852 1.79051,13.95918z" fill="#8c6738" stroke="none" stroke-width="0" stroke-linecap="butt"/><path d="M258.4638,135.52406c-0.6284,0.05099 -0.67941,-0.5774 -0.67941,-0.5774l-0.01494,-0.18394c-0.34446,-4.24435 0.77472,-5.60262 3.88553,-8.06203c0,0 0.4946,-0.39104 0.88561,0.10355c0.39102,0.49459 -0.10358,0.8856 -0.10358,0.8856c-2.8162,2.2265 -3.72495,3.09924 -3.41074,6.97085l0.01493,0.18394c0,0 0.05099,0.6284 -0.5774,0.67941z" fill="#864e00" stroke="none" stroke-width="0.5" stroke-linecap="butt"/><path d="M251.72845,139.063c-2.67328,8.32348 -8.61731,13.85795 -13.27635,12.36159c-4.65906,-1.49637 -6.26883,-9.45691 -3.59555,-17.78039c2.67328,-8.32348 8.61731,-13.85795 13.27635,-12.36159c4.65906,1.49637 6.26883,9.45691 3.59555,17.78039z" fill="#8c6738" stroke="none" stroke-width="0" stroke-linecap="butt"/><g data-paper-data="{&quot;index&quot;:null}" stroke="none" stroke-width="0.5" stroke-linecap="butt"><path d="M259.01586,134.91801c-0.39964,0.48763 -0.88727,0.08801 -0.88727,0.08801l0.11984,-0.02923c-1.11643,-0.1344 -2.25739,-0.30068 -3.38085,-0.2517c-4.41461,0.17716 -8.79146,0.94738 -13.06839,1.18354c0,0 -0.62995,0.02529 -0.65525,-0.6047c-0.0253,-0.62998 0.60468,-0.65526 0.60468,-0.65526c4.16637,-0.07554 8.74148,-1.0099 13.06839,-1.18355c1.19386,-0.04443 2.39615,0.11697 3.58212,0.25974l0.52875,0.30589c0,0 0.48763,0.39964 0.08801,0.88727z" fill="#7a6a5e"/><path d="M243.49006,135.12634c-0.57551,0.25744 -0.83297,-0.3181 -0.83297,-0.3181c-0.09043,-0.2022 -0.38964,-0.87107 -0.4801,-1.07328c0,0 -0.07824,-0.17487 -0.05204,-0.37494c-0.43246,-0.86544 -0.9531,-1.89425 -1.79981,-2.17239c0,0 -0.58899,-0.22492 -0.36406,-0.81391c0.22492,-0.589 0.8139,-0.36407 0.8139,-0.36407c1.40501,0.58197 2.04004,2.00965 2.73956,3.29806l0.16755,0.37003c0,0 0.09273,0.20733 0.04247,0.42877l0.08357,0.18689c0,0 0.25745,0.57554 -0.31807,0.83298z" fill="#7a0c00"/><path d="M243.29642,135.49085c0.56056,0.28858 0.27197,0.84914 0.27197,0.84914l-0.15912,0.30838c-0.69789,1.25147 -1.41905,1.89186 -2.72288,2.47614c0,0 -0.57554,0.25743 -0.83297,-0.3181c-0.25744,-0.57551 0.31807,-0.83298 0.31807,-0.83298c1.06581,-0.4758 1.56801,-0.90948 2.13524,-1.93698l0.14052,-0.27366c0,0 0.2886,-0.56055 0.84917,-0.27197z" fill="#7a0c00"/><path d="M248.18589,134.48189c-0.57551,0.25744 -0.83297,-0.3181 -0.83297,-0.3181l-0.06263,-0.14003c-0.44174,-0.98753 -0.85629,-1.99095 -1.53136,-2.84353c0,0 -0.38934,-0.49593 0.10656,-0.88526c0.49589,-0.38932 0.88525,0.10658 0.88525,0.10658c0.73553,0.94354 1.20443,2.02053 1.69058,3.10739l0.06263,0.14c0,0 0.25745,0.57554 -0.31807,0.83298z" fill="#7a0c00"/><path d="M248.14328,135.05884c0.56056,0.28858 0.27198,0.84914 0.27198,0.84914l-0.14983,0.29103c-0.57303,1.11303 -1.00591,2.15053 -1.6612,3.05835c-0.84372,0.19051 -1.66767,0.39669 -2.45325,0.61865c0.05174,-0.0495 0.09265,-0.07593 0.09265,-0.07593c1.61432,-1.03772 2.06126,-2.5477 2.90069,-4.17826l0.14983,-0.29103c0,0 0.28857,-0.56054 0.84914,-0.27198z" fill="#7a0c00"/><path d="M252.72233,134.25914c-0.62884,0.04526 -0.67411,-0.5836 -0.67411,-0.5836l-0.02207,-0.47511c-0.31613,-1.16465 -0.89628,-2.13615 -1.5247,-3.15377c0,0 -0.22658,-0.36692 -0.00148,-0.68125c0.39845,0.1272 0.83224,0.25219 1.29099,0.37281c0.60399,0.99806 1.13337,1.98253 1.45115,3.12834l0.06382,0.71848c0,0 0.04527,0.62887 -0.58358,0.67412z" fill="#7a0c00"/><path d="M252.65632,134.49519c0.589,0.22492 0.3641,0.81395 0.3641,0.81395l-0.20631,0.54028c-0.36148,0.94336 -0.76205,1.70391 -1.23368,2.47796c-0.55046,0.08457 -1.10757,0.17555 -1.66632,0.27294c0.71467,-1.08459 1.23868,-1.93028 1.72201,-3.20077l0.2063,-0.54029c0,0 0.22491,-0.58901 0.81392,-0.36408z" fill="#7a0c00"/><path d="M255.20548,134.26191c-0.60693,-0.17067 -0.43627,-0.77759 -0.43627,-0.77759l0.09816,-0.344c0.17093,-0.80434 0.18595,-1.59363 0.10348,-2.37545c0.40309,0.19539 0.83982,0.38823 1.29921,0.57469c0.02493,0.67832 -0.02239,1.36361 -0.16897,2.06138l-0.118,0.42474c0,0 -0.17066,0.60694 -0.77759,0.43627z" fill="#7a0c00"/><path d="M255.92567,134.4025c0.62166,0.10505 0.5166,0.72672 0.5166,0.72672l-0.02553,0.1443c-0.05267,0.48821 -0.14144,0.94265 -0.24864,1.38586c-0.50778,0.22194 -1.00495,0.45235 -1.48396,0.68929c0.20579,-0.71337 0.39245,-1.40872 0.47892,-2.21038l0.0359,-0.21918c0,0 0.10505,-0.62167 0.72671,-0.51663z" fill="#7a0c00"/><path d="M258.4632,134.23589c-0.62991,-0.02712 -0.60277,-0.65703 -0.60277,-0.65703l0.00983,-0.22837c0.02164,-0.50127 0.04026,-0.95065 -0.00517,-1.41978c0.42198,0.14268 0.85165,0.27776 1.28213,0.40286c0.00935,0.3483 -0.00119,0.69879 -0.01716,1.07114l-0.00985,0.22842c0,0 -0.02711,0.62988 -0.65703,0.60277z" fill="#7a0c00"/><path d="M245.98534,134.5702c-0.57551,0.25744 -0.83297,-0.3181 -0.83297,-0.3181l-0.10154,-0.23154c-0.48364,-1.35381 -1.23505,-2.02122 -2.24573,-2.99807c0,0 -0.45278,-0.43875 -0.01405,-0.89152c0.43877,-0.45276 0.89154,-0.01404 0.89154,-0.01404c1.14245,1.11024 2.00283,1.93871 2.55537,3.47855l0.06545,0.14176c0,0 0.25743,0.57554 -0.3181,0.83297z" fill="#7a6500"/><path d="M245.97031,135.23771c0.61488,0.13937 0.47553,0.75424 0.47553,0.75424l-0.08237,0.33485c-0.48143,1.20439 -1.63538,2.50899 -2.53578,3.4675c0,0 -0.43225,0.45899 -0.89123,0.02676c-0.45901,-0.43225 -0.02676,-0.89123 -0.02676,-0.89123c0.77901,-0.82497 1.90426,-2.00963 2.27576,-3.05287l0.0306,-0.16372c0,0 0.13936,-0.6149 0.75424,-0.47553z" fill="#7a6500"/><path d="M250.68365,134.16917c-0.62741,0.06223 -0.68964,-0.56517 -0.68964,-0.56517l-0.00932,-0.11295c-0.17241,-1.0662 -0.86581,-2.10222 -1.24909,-3.12491c0,0 -0.22108,-0.59049 0.36943,-0.81151c0.59047,-0.22104 0.8115,0.36944 0.8115,0.36944c0.41882,1.1201 1.08896,2.17822 1.30973,3.34666l0.02258,0.2088c0,0 0.06223,0.62741 -0.56517,0.68962z" fill="#7a6500"/><path d="M250.64447,134.96709c0.60449,0.17909 0.42542,0.7836 0.42542,0.7836l-0.12152,0.40311c-0.24044,1.13163 -0.68553,1.91584 -1.26536,2.90587c0,0 -0.31868,0.54399 -0.86269,0.2253c-0.54401,-0.31869 -0.22532,-0.86268 -0.22532,-0.86268c0.51735,-0.8829 0.90904,-1.52575 1.11964,-2.5291l0.14623,-0.50065c0,0 0.17911,-0.6045 0.7836,-0.42542z" fill="#7a6500"/><path d="M253.86094,134.68437c0.589,0.22492 0.36408,0.81392 0.36408,0.81392l-0.08768,0.09649c0.0168,0.65855 0.05747,1.31325 0.12571,1.96633c-0.41568,0.21388 -0.81527,0.43245 -1.19345,0.65436c-0.10816,-0.85949 -0.17013,-1.72047 -0.19279,-2.58811l0.17024,-0.57889c0,0 0.22491,-0.58901 0.81392,-0.36408z" fill="#7a6500"/><path d="M254.44289,133.90664c-0.61767,0.12647 -0.74412,-0.49121 -0.74412,-0.49121l-0.05241,-0.33074c-0.27994,-0.62581 -0.5538,-1.2401 -0.78544,-1.88568c0,0 -0.21255,-0.59358 0.38104,-0.80611c0.59359,-0.21253 0.80611,0.38104 0.80611,0.38104c0.21987,0.61544 0.48256,1.19949 0.74936,1.7959l0.13669,0.5927c0,0 0.12645,0.61766 -0.49121,0.74413z" fill="#7a6500"/><path d="M257.60902,134.47198c0.62594,0.07535 0.55059,0.70135 0.55059,0.70135l-0.03113,0.228c-0.00186,0.15695 -0.00266,0.31082 -0.00397,0.46268c-0.42344,0.16006 -0.84611,0.32725 -1.26406,0.50059c0.00884,-0.31922 0.0032,-0.64096 0.00716,-0.97815l0.04011,-0.36387c0,0 0.07535,-0.62597 0.70131,-0.55062z" fill="#7a6500"/><path d="M256.95373,134.16454c-0.62741,0.06223 -0.68962,-0.56517 -0.68962,-0.56517l-0.03494,-0.39139c0.00572,-0.43554 -0.00849,-0.87228 -0.05217,-1.30566c0,0 -0.03194,-0.32192 0.18052,-0.52744c0.34732,0.13952 0.70707,0.2753 1.07453,0.40577c0.04669,0.47884 0.06305,0.96113 0.05798,1.44221l0.02887,0.25206c0,0 0.06223,0.62741 -0.56517,0.68964z" fill="#7a6500"/><path d="M242.54894,134.87186c-0.54704,0.31344 -0.86047,-0.2336 -0.86047,-0.2336l-0.2393,-0.41925c-0.33671,-0.52594 -0.66922,-1.05468 -0.99295,-1.58869c0,0 -0.32682,-0.53913 0.21231,-0.86599c0.53916,-0.32681 0.86603,0.21229 0.86603,0.21229c0.31834,0.52523 0.64537,1.0452 0.97657,1.56242l0.27146,0.47229c0,0 0.31342,0.54705 -0.23364,0.86046z" fill="#246800"/><path d="M242.47949,136.33721c0.30847,0.54988 -0.24136,0.85835 -0.24136,0.85835l-0.5435,0.30194c-0.23332,0.10436 -0.46663,0.20873 -0.69994,0.31308c0,0 -0.57555,0.25746 -0.83298,-0.31807c-0.25744,-0.57551 0.3181,-0.83297 0.3181,-0.83297c0.23332,-0.10436 0.46664,-0.20876 0.69995,-0.31311l0.44138,-0.25058c0,0 0.54988,-0.30849 0.85835,0.24136z" fill="#246800"/><path d="M245.11813,135.88201c0.54401,0.31869 0.22532,0.86269 0.22532,0.86269l-0.2647,0.44273c-0.46104,0.60191 -0.95139,1.07112 -1.54659,1.53955c0,0 -0.4959,0.38935 -0.88526,-0.10656c-0.38932,-0.49589 0.10659,-0.88525 0.10659,-0.88525c0.51338,-0.40201 0.92829,-0.79105 1.32209,-1.31169l0.17987,-0.31616c0,0 0.31869,-0.54401 0.86269,-0.22532z" fill="#246800"/><path d="M244.60998,134.62539c-0.57551,0.25744 -0.83298,-0.31807 -0.83298,-0.31807l-0.01677,-0.0555c-0.39727,-0.6154 -0.76639,-1.1986 -1.06745,-1.86757c0,0 -0.25743,-0.57554 0.3181,-0.83297c0.57551,-0.25744 0.83297,0.3181 0.83297,0.3181c0.27162,0.61141 0.61325,1.13705 0.97575,1.69856l0.10847,0.22452c0,0 0.25743,0.57554 -0.3181,0.83297z" fill="#246800"/><path d="M247.11139,134.4585c-0.57551,0.25744 -0.83298,-0.31807 -0.83298,-0.31807l-0.09324,-0.22397c-0.20763,-0.72567 -0.42236,-1.44911 -0.63678,-2.17281c0,0 -0.17912,-0.60451 0.42539,-0.78363c0.60451,-0.17912 0.78363,0.42538 0.78363,0.42538c0.21556,0.72748 0.43134,1.45465 0.64009,2.1841l0.03198,0.05601c0,0 0.25743,0.57555 -0.3181,0.83298z" fill="#246800"/><path d="M248.95136,135.12707c0.62991,0.02712 0.60278,0.657 0.60278,0.657l-0.05075,0.42621c-0.37521,0.98177 -0.84905,1.91783 -1.22321,2.89921c0,0 -0.22492,0.589 -0.81394,0.36408c-0.589,-0.22492 -0.36408,-0.81392 -0.36408,-0.81392c0.37529,-0.98118 0.84856,-1.91728 1.22321,-2.8992l-0.03108,-0.03059c0,0 0.02711,-0.62988 0.65703,-0.60277z" fill="#246800"/><path d="M249.45193,134.30756c-0.57551,0.25744 -0.83294,-0.31809 -0.83294,-0.31809l-0.1433,-0.32488c-0.24056,-0.67324 -0.42449,-1.32419 -0.71864,-1.97762c0,0 -0.25743,-0.57554 0.3181,-0.83297c0.57551,-0.25744 0.83297,0.3181 0.83297,0.3181c0.30504,0.68585 0.50231,1.3639 0.75475,2.06742l0.10719,0.23507c0,0 0.25743,0.57554 -0.3181,0.83297z" fill="#246800"/><path d="M251.49461,134.90284c0.589,0.22492 0.36408,0.81394 0.36408,0.81394l-0.15426,0.39517c-0.20677,0.41247 -0.40464,0.82962 -0.59159,1.25147c0,0 -0.25556,0.57634 -0.83192,0.32077c-0.57636,-0.25557 -0.3208,-0.83191 -0.3208,-0.83191c0.19514,-0.43985 0.40146,-0.87488 0.61691,-1.30513l0.10366,-0.28019c0,0 0.2249,-0.58898 0.81391,-0.36405z" fill="#246800"/><path d="M252.09334,134.07805c-0.57551,0.25744 -0.83297,-0.3181 -0.83297,-0.3181l-0.05981,-0.13824c-0.23059,-0.65012 -0.52884,-1.16505 -0.89199,-1.75276c0,0 -0.33125,-0.53645 0.2052,-0.8677c0.53644,-0.33124 0.8677,0.2052 0.8677,0.2052c0.4073,0.6601 0.74282,1.2604 1.0063,1.99019l0.0237,0.04843c0,0 0.25743,0.57554 -0.3181,0.83297z" fill="#246800"/><path d="M255.267,134.44744c0.589,0.22492 0.36408,0.81392 0.36408,0.81392l-0.10579,0.2663c-0.31964,0.61558 -0.43152,1.02331 -0.50174,1.65573c-0.40596,0.19481 -0.80052,0.39446 -1.17935,0.59781c-0.12567,-0.19533 -0.10419,-0.42885 -0.10419,-0.42885c0.09044,-0.94325 0.23664,-1.56533 0.66416,-2.40186l0.04894,-0.13894c0,0 0.22491,-0.58901 0.81392,-0.36408z" fill="#246800"/><path d="M256.84989,134.35541c0.589,0.22492 0.36408,0.81392 0.36408,0.81392l-0.06708,0.12764c-0.05613,0.42128 -0.16773,0.72387 -0.18564,1.02604c-0.4038,0.16623 -0.8035,0.33826 -1.19548,0.51512c-0.09301,-0.55165 0.03412,-0.96153 0.13097,-1.7059l0.13925,-0.4127c0,0 0.22492,-0.589 0.81392,-0.36408z" fill="#246800"/><path d="M258.28616,134.56803c-0.62926,0.03897 -0.66824,-0.59033 -0.66824,-0.59033l-0.00224,-0.29577c-0.07327,-0.24723 -0.14652,-0.49446 -0.21976,-0.7417c0,0 -0.17913,-0.60451 0.42538,-0.78363c0.60451,-0.17912 0.78365,0.42537 0.78365,0.42537c0.07327,0.24723 0.1465,0.49446 0.21977,0.74171l0.05177,0.57611c0,0 0.03897,0.62926 -0.59031,0.66825z" fill="#246800"/><path d="M253.04022,134.92183c0.61797,0.12503 0.49292,0.74299 0.49292,0.74299l-0.09493,0.46449c-0.16908,0.64842 -0.27344,1.29064 -0.37092,1.95331c0,0 -0.01053,0.0717 -0.0488,0.1629c-0.21044,0.12426 -0.4141,0.24955 -0.61007,0.3756c-0.01841,-0.00151 -0.03728,-0.00369 -0.05668,-0.00652c-0.62376,-0.0918 -0.53198,-0.71556 -0.53198,-0.71556c0.10416,-0.70747 0.21871,-1.39412 0.39796,-2.08671l0.0795,-0.39754c0,0 0.12503,-0.61797 0.74299,-0.49292z" fill="#693d00"/><path d="M258.30155,134.32322c0.62741,-0.06223 0.68962,0.56517 0.68962,0.56517l0.01846,0.25022c-0.00625,0.13449 -0.0087,0.26931 -0.00748,0.40416c-0.41371,0.14652 -0.82931,0.30057 -1.24313,0.46126c-0.01824,-0.30626 -0.02144,-0.61355 -0.00916,-0.91964l-0.01345,-0.07152c0,0 -0.06223,-0.62741 0.56518,-0.68965z" fill="#693d00"/></g><g data-paper-data="{&quot;index&quot;:null}" stroke="none" stroke-width="0.5" stroke-linecap="butt"><path d="M259.80958,128.1369c-0.58952,0.22353 -0.81304,-0.36597 -0.81304,-0.36597l0.11846,0.03439c-0.90087,-0.67303 -1.80704,-1.38593 -2.80538,-1.9035c-3.91533,-2.04703 -8.0936,-3.56107 -11.91897,-5.48833c0,0 -0.55871,-0.2921 -0.26661,-0.85084c0.2921,-0.55871 0.85084,-0.26661 0.85084,-0.26661c3.64947,2.01139 8.08138,3.48198 11.91897,5.48832c1.05711,0.55661 2.0189,1.29584 2.97586,2.01078l0.30588,0.52872c0,0 0.22353,0.58953 -0.366,0.81306z" fill="#7a6a5e"/><path d="M246.24636,120.5782c-0.62724,-0.06371 -0.56353,-0.69096 -0.56353,-0.69096c0.02238,-0.22037 0.09643,-0.94938 0.11881,-1.16975c0,0 0.01936,-0.19059 0.14181,-0.35098c0.05653,-0.96583 0.11801,-2.11724 -0.47736,-2.78045c0,0 -0.39849,-0.48857 0.0901,-0.88705c0.48859,-0.39848 0.88705,0.0901 0.88705,0.0901c0.92791,1.20492 0.76676,2.7591 0.73092,4.22472l-0.03921,0.40431c0,0 -0.02295,0.22595 -0.17693,0.39287l-0.02067,0.20367c0,0 -0.06372,0.62725 -0.69097,0.56353z" fill="#7a0c00"/><path d="M245.89681,120.79765c0.3421,0.52961 -0.18752,0.8717 -0.18752,0.8717l-0.29166,0.18802c-1.22883,0.73703 -2.17322,0.9327 -3.59477,0.78928c0,0 -0.62727,-0.06372 -0.56355,-0.69098c0.06371,-0.62725 0.69097,-0.56352 0.69097,-0.56352c1.16112,0.1188 1.81264,-0.00681 2.81659,-0.61481l0.25824,-0.16719c0,0 0.52962,-0.34207 0.8717,0.1875z" fill="#7a0c00"/><path d="M250.63845,122.36029c-0.62724,-0.06371 -0.56352,-0.69097 -0.56352,-0.69097l0.0155,-0.15258c0.10934,-1.07629 0.25013,-2.15283 0.08991,-3.22845c0,0 -0.09033,-0.62398 0.53365,-0.71428c0.62398,-0.09033 0.71431,0.53366 0.71431,0.53366c0.16727,1.1846 0.03691,2.35199 -0.08338,3.53651l-0.0155,0.15257c0,0 -0.06372,0.62727 -0.69097,0.56355z" fill="#7a0c00"/><path d="M250.31391,122.83921c0.3421,0.52961 -0.18751,0.87168 -0.18751,0.87168l-0.27496,0.1776c-1.0516,0.67924 -1.94405,1.3629 -2.96465,1.82322c-0.8264,-0.25543 -1.64342,-0.48743 -2.4351,-0.68656c0.06952,-0.01711 0.11816,-0.01964 0.11816,-0.01964c1.91674,-0.09489 3.05688,-1.18112 4.59739,-2.17622l0.27495,-0.17758c0,0 0.52962,-0.34206 0.8717,0.18753z" fill="#7a0c00"/><path d="M254.68214,124.42851c-0.56772,-0.27423 -0.29347,-0.84193 -0.29347,-0.84193l0.21768,-0.42289c0.30653,-1.1672 0.28786,-2.2986 0.25033,-3.49402c0,0 -0.01351,-0.43107 0.33832,-0.59132c0.282,0.30891 0.59574,0.63347 0.93334,0.96671c0.0261,1.16631 -0.00573,2.28363 -0.30144,3.43535l-0.30281,0.65466c0,0 -0.27423,0.56772 -0.84194,0.29349z" fill="#7a0c00"/><path d="M254.50723,124.60024c0.39848,0.48859 -0.09012,0.88709 -0.09012,0.88709l-0.44821,0.36552c-0.78363,0.6376 -1.50998,1.09724 -2.30468,1.53319c-0.51935,-0.20107 -1.04767,-0.39994 -1.5806,-0.59402c1.16019,-0.58397 2.03602,-1.05588 3.08832,-1.91634l0.44819,-0.36555c0,0 0.48859,-0.3985 0.88707,0.0901z" fill="#7a0c00"/><path d="M256.83341,125.66874c-0.4411,-0.45049 0.00942,-0.89158 0.00942,-0.89158l0.25654,-0.24925c0.54911,-0.61209 0.95561,-1.28883 1.27382,-2.0077c0.25206,0.37031 0.53451,0.75518 0.83982,1.14584c-0.31653,0.60046 -0.69912,1.17095 -1.17402,1.70277l-0.31401,0.30937c0,0 -0.45048,0.44107 -0.89158,-0.00942z" fill="#7a0c00"/><path d="M257.38765,126.14962c0.48654,0.40096 0.08561,0.88751 0.08561,0.88751l-0.09405,0.11238c-0.28901,0.39697 -0.5925,0.74669 -0.90637,1.07745c-0.55084,-0.06071 -1.09668,-0.10879 -1.63005,-0.14218c0.53399,-0.51584 1.04244,-1.02562 1.51701,-1.67746l0.14038,-0.17211c0,0 0.40097,-0.48655 0.88751,-0.08561z" fill="#7a0c00"/><path d="M259.67051,127.27007c-0.53253,-0.33751 -0.19502,-0.87005 -0.19502,-0.87005l0.12237,-0.19311c0.26864,-0.42377 0.50878,-0.80401 0.70326,-1.23338c0.29469,0.33404 0.59982,0.66533 0.91065,0.98837c-0.16551,0.3066 -0.34936,0.6052 -0.54882,0.92003l-0.12242,0.19312c0,0 -0.33748,0.53251 -0.87002,0.19503z" fill="#7a0c00"/><path d="M248.68679,121.33991c-0.62724,-0.06371 -0.56355,-0.69097 -0.56355,-0.69097l0.02741,-0.25136c0.25558,-1.41473 -0.06314,-2.36784 -0.45234,-3.71849c0,0 -0.17384,-0.60604 0.43223,-0.77983c0.60607,-0.1738 0.77985,0.43223 0.77985,0.43223c0.43699,1.53195 0.76987,2.67905 0.48128,4.28935l-0.01392,0.15552c0,0 -0.06372,0.62727 -0.69096,0.56355z" fill="#7a6500"/><path d="M248.34101,121.91111c0.46358,0.42734 0.03626,0.89089 0.03626,0.89089l-0.23833,0.24921c-1.01772,0.80412 -2.66838,1.35985 -3.92676,1.74193c0,0 -0.60349,0.18244 -0.78593,-0.42107c-0.18243,-0.6035 0.42108,-0.78596 0.42108,-0.78596c1.08656,-0.32684 2.65255,-0.7929 3.49463,-1.51211l0.10814,-0.12666c0,0 0.4273,-0.46359 0.89089,-0.03625z" fill="#7a6500"/><path d="M252.95965,123.33428c-0.57489,-0.25881 -0.3161,-0.83371 -0.3161,-0.83371l0.04823,-0.10254c0.38202,-1.01025 0.29734,-2.25402 0.47487,-3.33164c0,0 0.10271,-0.62208 0.72475,-0.51936c0.62205,0.10274 0.51934,0.72479 0.51934,0.72479c-0.19528,1.1798 -0.14179,2.43111 -0.53284,3.55412l-0.0845,0.19226c0,0 -0.25882,0.57491 -0.83373,0.31609z" fill="#7a6500"/><path d="M252.52793,124.00647c0.43478,0.45656 -0.0218,0.89137 -0.0218,0.89137l-0.3063,0.28888c-0.77252,0.86117 -1.54928,1.31914 -2.54545,1.88832c0,0 -0.54745,0.31273 -0.8602,-0.23473c-0.31274,-0.54746 0.23471,-0.8602 0.23471,-0.8602c0.88858,-0.5075 1.5486,-0.86952 2.23132,-1.63435l0.37634,-0.36113c0,0 0.45657,-0.43477 0.89136,0.02182z" fill="#7a6500"/><path d="M255.45723,125.36474c0.39848,0.48859 -0.09008,0.88708 -0.09008,0.88708l-0.1241,0.03992c-0.31372,0.57927 -0.60484,1.16709 -0.87123,1.76726c-0.46695,-0.02179 -0.92232,-0.03148 -1.36079,-0.02766c0.33468,-0.799 0.71016,-1.57627 1.12298,-2.33975l0.43615,-0.41698c0,0 0.48857,-0.39851 0.88705,0.0901z" fill="#7a6500"/><path d="M256.34939,124.98061c-0.5985,-0.19826 -0.40021,-0.79675 -0.40021,-0.79675l0.11944,-0.31284c0.06928,-0.68208 0.13806,-1.35107 0.25906,-2.02622c0,0 0.11163,-0.62054 0.73216,-0.50889c0.62051,0.11164 0.50887,0.73216 0.50887,0.73216c-0.11618,0.64314 -0.17959,1.28038 -0.24561,1.93039l-0.17695,0.58196c0,0 -0.19829,0.59849 -0.79676,0.40021z" fill="#7a6500"/><path d="M258.81232,127.04896c0.50508,0.37735 0.1277,0.88247 0.1277,0.88247l-0.14063,0.18212c-0.07988,0.13514 -0.15727,0.26812 -0.2341,0.39914c-0.44685,-0.07232 -0.89664,-0.13809 -1.34536,-0.19615c0.16676,-0.27233 0.32228,-0.55405 0.4938,-0.8444l0.21615,-0.29546c0,0 0.37734,-0.50509 0.88244,-0.12773z" fill="#7a6500"/><path d="M258.3975,126.45579c-0.57489,-0.25881 -0.31612,-0.83374 -0.31612,-0.83374l0.16481,-0.35671c0.22209,-0.37471 0.42746,-0.76041 0.60564,-1.15789c0,0 0.13278,-0.295 0.41941,-0.36725c0.23157,0.29406 0.47571,0.59111 0.72926,0.88741c-0.1982,0.43842 -0.42446,0.8646 -0.66869,1.27913l-0.1006,0.23291c0,0 -0.25882,0.57491 -0.83372,0.31613z" fill="#7a6500"/><path d="M245.55737,119.88844c-0.63049,-0.00097 -0.62948,-0.63143 -0.62948,-0.63143l0.00152,-0.48274c-0.02973,-0.62378 -0.05439,-1.24789 -0.06887,-1.8722c0,0 -0.0146,-0.63031 0.61573,-0.64488c0.63033,-0.01457 0.64491,0.61573 0.64491,0.61573c0.01414,0.614 0.03848,1.22779 0.06776,1.84128l-0.00009,0.54476c0,0 -0.00097,0.63047 -0.63147,0.62949z" fill="#246800"/><path d="M244.76674,121.12414c-0.00666,0.63044 -0.63711,0.6238 -0.63711,0.6238l-0.62168,-0.00916c-0.25428,-0.02583 -0.50858,-0.05167 -0.76286,-0.0775c0,0 -0.62724,-0.06371 -0.56353,-0.69096c0.06371,-0.62725 0.69097,-0.56355 0.69097,-0.56355c0.25428,0.02583 0.50858,0.05167 0.76286,0.0775l0.50755,0.00276c0,0 0.63044,0.00666 0.6238,0.63711z" fill="#246800"/><path d="M247.28105,122.04484c0.31274,0.54746 -0.2347,0.86017 -0.2347,0.86017l-0.45016,0.25187c-0.69971,0.29199 -1.35869,0.45431 -2.10817,0.56366c0,0 -0.62398,0.09033 -0.71428,-0.53365c-0.09033,-0.62398 0.53368,-0.71427 0.53368,-0.71427c0.64546,-0.09259 1.19904,-0.22303 1.79998,-0.47808l0.31351,-0.18439c0,0 0.54745,-0.31275 0.86019,0.23472z" fill="#246800"/><path d="M247.46698,120.70218c-0.62724,-0.06371 -0.56355,-0.69097 -0.56355,-0.69097l0.0131,-0.05647c-0.03765,-0.73151 -0.06689,-1.42112 0.0056,-2.15111c0,0 0.06372,-0.62727 0.69096,-0.56355c0.62724,0.06371 0.56355,0.69097 0.56355,0.69097c-0.06931,0.66545 -0.03519,1.29139 -0.00081,1.95887l-0.0179,0.2487c0,0 -0.06372,0.62727 -0.69096,0.56355z" fill="#246800"/><path d="M249.71864,121.80438c-0.62724,-0.06371 -0.56355,-0.69097 -0.56355,-0.69097l0.03083,-0.24063c0.18171,-0.73263 0.3562,-1.46677 0.53106,-2.20104c0,0 0.14605,-0.61333 0.75938,-0.46727c0.61333,0.14605 0.46728,0.7594 0.46728,0.7594c-0.17578,0.73807 -0.35122,1.47603 -0.53386,2.21246l-0.0002,0.06451c0,0 -0.06371,0.62725 -0.69096,0.56353z" fill="#246800"/><path d="M250.98044,123.30119c0.53253,0.33751 0.19501,0.87005 0.19501,0.87005l-0.25643,0.34418c-0.81466,0.66405 -1.69206,1.23933 -2.50562,1.90358c0,0 -0.48859,0.39848 -0.88707,-0.09011c-0.39848,-0.48859 0.0901,-0.88707 0.0901,-0.88707c0.81442,-0.66353 1.69135,-1.23911 2.50562,-1.90358l-0.01168,-0.042c0,0 0.33752,-0.53252 0.87005,-0.19501z" fill="#246800"/><path d="M251.82288,122.84027c-0.62724,-0.06371 -0.56353,-0.69096 -0.56353,-0.69096l0.03772,-0.35308c0.12704,-0.70354 0.29211,-1.35955 0.36281,-2.07263c0,0 0.06372,-0.62725 0.69097,-0.56352c0.62724,0.06371 0.56352,0.69097 0.56352,0.69097c-0.07742,0.74662 -0.24447,1.43275 -0.37626,2.16845l-0.02425,0.25721c0,0 -0.06372,0.62727 -0.69097,0.56354z" fill="#246800"/><path d="M253.29696,124.37455c0.39848,0.48859 -0.09008,0.88708 -0.09008,0.88708l-0.33071,0.26568c-0.38487,0.25451 -0.76433,0.51751 -1.13669,0.79002c0,0 -0.50885,0.37224 -0.88111,-0.13662c-0.37226,-0.50886 0.13662,-0.88111 0.13662,-0.88111c0.38844,-0.28403 0.78413,-0.55833 1.18537,-0.82391l0.22954,-0.19123c0,0 0.48857,-0.39851 0.88705,0.0901z" fill="#246800"/><path d="M254.22713,123.95801c-0.62724,-0.06371 -0.56355,-0.69098 -0.56355,-0.69098l0.01704,-0.14967c0.12418,-0.67852 0.12232,-1.27359 0.10046,-1.96411c0,0 -0.01977,-0.63016 0.61042,-0.64992c0.63016,-0.01977 0.64992,0.61043 0.64992,0.61043c0.02404,0.77527 0.01567,1.46293 -0.11972,2.22691l-0.00359,0.05381c0,0 -0.06372,0.62725 -0.69096,0.56353z" fill="#246800"/><path d="M256.79425,125.86021c0.39848,0.48859 -0.0901,0.88707 -0.0901,0.88707l-0.22444,0.1781c-0.58395,0.37435 -0.88418,0.672 -1.26031,1.18524c-0.44905,-0.03348 -0.89061,-0.05707 -1.32036,-0.06963c-0.01158,-0.23196 0.12347,-0.42373 0.12347,-0.42373c0.54858,-0.77263 0.98542,-1.23902 1.77305,-1.75111l0.11169,-0.09604c0,0 0.48857,-0.39851 0.88705,0.0901z" fill="#246800"/><path d="M258.21233,126.5695c0.39848,0.48859 -0.09011,0.88707 -0.09011,0.88707l-0.12176,0.07717c-0.25867,0.3372 -0.50624,0.54394 -0.67242,0.79693c-0.43293,-0.05721 -0.86516,-0.10731 -1.29311,-0.14937c0.19435,-0.52459 0.50888,-0.81656 0.96391,-1.41357l0.32642,-0.28835c0,0 0.48858,-0.39847 0.88707,0.09011z" fill="#246800"/><path d="M259.35142,127.46977c-0.56494,-0.2799 -0.28505,-0.84484 -0.28505,-0.84484l0.14552,-0.25753c0.05972,-0.25086 0.11946,-0.50169 0.17921,-0.75255c0,0 0.14606,-0.61334 0.75938,-0.46726c0.61333,0.14605 0.4673,0.75939 0.4673,0.75939c-0.05972,0.25086 -0.11946,0.50169 -0.17921,0.75255l-0.24231,0.52523c0,0 -0.2799,0.56494 -0.84484,0.28504z" fill="#246800"/><path d="M254.62738,125.1615c0.47338,0.41644 0.05697,0.88983 0.05697,0.88983l-0.31385,0.35532c-0.46982,0.47782 -0.8804,0.98255 -1.29525,1.50843c0,0 -0.04488,0.05689 -0.1235,0.1169c-0.24437,0.00284 -0.48338,0.0099 -0.71609,0.02148c-0.01517,-0.01049 -0.03049,-0.02179 -0.04587,-0.03393c-0.49498,-0.3905 -0.10448,-0.88549 -0.10448,-0.88549c0.44294,-0.5614 0.88457,-1.09953 1.38518,-1.61059l0.26708,-0.305c0,0 0.41642,-0.47339 0.88981,-0.05698z" fill="#693d00"/><path d="M259.48684,127.26523c0.57489,0.25881 0.3161,0.83371 0.3161,0.83371l-0.10873,0.22611c-0.07247,0.11348 -0.14181,0.2291 -0.20796,0.34664c-0.43167,-0.0792 -0.86879,-0.15282 -1.3076,-0.21982c0.13684,-0.2746 0.28725,-0.54258 0.45048,-0.80181l0.02398,-0.06872c0,0 0.25882,-0.57491 0.83374,-0.3161z" fill="#693d00"/></g><g stroke="none" stroke-width="0.5" stroke-linecap="butt"><path d="M263.14782,119.18027c-0.62434,0.08776 -0.71209,-0.5366 -0.71209,-0.5366l0.10792,0.05972c-0.72989,-0.85544 -1.45617,-1.75092 -2.31546,-2.4763c-3.36627,-2.8615 -7.10676,-5.26134 -10.41178,-7.98616c0,0 -0.48036,-0.40832 -0.07202,-0.88873c0.40832,-0.48038 0.8887,-0.07206 0.8887,-0.07206c3.11486,2.76801 7.11236,5.18148 10.41178,7.98617c0.90798,0.7764 1.68269,1.70991 2.45803,2.61861l0.1815,0.58324c0,0 0.08775,0.62434 -0.53658,0.7121z" fill="#7a6a5e"/><path d="M251.58992,108.81162c-0.59768,-0.20073 -0.39695,-0.79841 -0.39695,-0.79841c0.07052,-0.20999 0.30379,-0.90457 0.37433,-1.11457c0,0 0.061,-0.18159 0.21585,-0.31096c0.26852,-0.92944 0.58286,-2.03887 0.14875,-2.81719c0,0 -0.28068,-0.56455 0.28389,-0.84524c0.56455,-0.28069 0.84523,0.28387 0.84523,0.28387c0.63874,1.38014 0.13819,2.86032 -0.22061,4.28178l-0.12757,0.38565c0,0 -0.07232,0.21533 -0.25935,0.34409l-0.06518,0.19404c0,0 -0.20073,0.59768 -0.79841,0.39695z" fill="#7a0c00"/><path d="M251.20051,108.9484c0.21661,0.5921 -0.37546,0.80872 -0.37546,0.80872l-0.32598,0.11893c-1.36132,0.4473 -2.32558,0.42948 -3.68032,-0.02449c0,0 -0.59768,-0.20072 -0.39695,-0.7984c0.20072,-0.59768 0.7984,-0.39696 0.7984,-0.39696c1.10619,0.37239 1.76935,0.39387 2.88282,0.0227l0.28881,-0.106c0,0 0.59208,-0.21661 0.80871,0.37549z" fill="#7a0c00"/><path d="M255.47969,111.52007c-0.59768,-0.20073 -0.39693,-0.79839 -0.39693,-0.79839l0.04881,-0.14537c0.34442,-1.02554 0.71963,-2.04436 0.80102,-3.12878c0,0 0.04978,-0.62851 0.6783,-0.57875c0.62851,0.0498 0.57873,0.67828 0.57873,0.67828c-0.09859,1.19229 -0.48363,2.30202 -0.86271,3.43069l-0.04882,0.1454c0,0 -0.20072,0.59766 -0.7984,0.39693z" fill="#7a0c00"/><path d="M255.05736,111.91546c0.21661,0.5921 -0.37545,0.80872 -0.37545,0.80872l-0.30742,0.11246c-1.1757,0.4301 -2.1971,0.8997 -3.29419,1.12312c-0.74954,-0.43171 -1.49509,-0.83848 -2.22321,-1.20766c0.07158,-0.00135 0.11958,0.00696 0.11958,0.00696c1.89034,0.33098 3.24229,-0.4765 4.96458,-1.10666l0.30741,-0.11245c0,0 0.5921,-0.21661 0.80871,0.37548z" fill="#7a0c00"/><path d="M258.96646,114.43062c-0.49308,-0.39289 -0.10022,-0.88597 -0.10022,-0.88597l0.30578,-0.36435c0.55685,-1.07063 0.7886,-2.17819 1.01614,-3.35238c0,0 0.08206,-0.42339 0.46061,-0.50196c0.20678,0.36358 0.44104,0.74945 0.69667,1.14903c-0.23225,1.14324 -0.51015,2.22593 -1.05301,3.28383l-0.43998,0.57159c0,0 -0.39288,0.49308 -0.88598,0.10018z" fill="#7a0c00"/><path d="M258.75793,114.55948c0.28069,0.56455 -0.28386,0.84524 -0.28386,0.84524l-0.5179,0.25747c-0.90515,0.44874 -1.71512,0.73653 -2.58649,0.9861c-0.4621,-0.31086 -0.9334,-0.62154 -1.41028,-0.92859c1.26056,-0.31321 2.21898,-0.57994 3.43541,-1.18661l0.5179,-0.25747c0,0 0.56455,-0.28069 0.84524,0.28386z" fill="#7a0c00"/><path d="M260.79054,116.11552c-0.33064,-0.53684 0.20619,-0.86748 0.20619,-0.86748l0.30531,-0.18642c0.67078,-0.47563 1.21674,-1.04582 1.68591,-1.67661c0.164,0.41688 0.35446,0.85461 0.56589,1.30306c-0.44139,0.51569 -0.94057,0.98754 -1.52124,1.4013l-0.37462,0.23232c0,0 -0.53681,0.33065 -0.86747,-0.20617z" fill="#7a0c00"/><path d="M261.22483,116.70696c0.38593,0.49854 -0.11261,0.8845 -0.11261,0.8845l-0.11658,0.08883c-0.36959,0.3233 -0.74281,0.59731 -1.12204,0.85056c-0.52383,-0.1809 -1.04555,-0.34839 -1.55836,-0.49881c0.63474,-0.38512 1.24329,-0.76995 1.85015,-1.30082l0.1749,-0.13684c0,0 0.49855,-0.38595 0.8845,0.11261z" fill="#7a0c00"/><path d="M263.20371,118.30414c-0.44479,-0.44684 0.00203,-0.89165 0.00203,-0.89165l0.16202,-0.16127c0.35562,-0.35396 0.67384,-0.67174 0.9584,-1.0475c0.2136,0.39091 0.43799,0.78139 0.66976,1.16516c-0.22916,0.26248 -0.47445,0.51305 -0.73855,0.77601l-0.16202,0.1613c0,0 -0.44684,0.44482 -0.89162,-0.00202z" fill="#7a0c00"/><path d="M253.8017,110.0937c-0.59768,-0.20073 -0.39693,-0.7984 -0.39693,-0.7984l0.08224,-0.23908c0.56183,-1.32327 0.46159,-2.32329 0.38042,-3.72651c0,0 -0.03559,-0.62947 0.59385,-0.66506c0.62947,-0.03559 0.66509,0.59386 0.66509,0.59386c0.08769,1.59067 0.15889,2.78292 -0.47836,4.28967l-0.04793,0.14859c0,0 -0.20072,0.59768 -0.7984,0.39695z" fill="#7a6500"/><path d="M253.33828,110.57437c0.35768,0.51919 -0.1615,0.87691 -0.1615,0.87691l-0.28751,0.19037c-1.17027,0.55936 -2.90289,0.73668 -4.21458,0.83128c0,0 -0.6289,0.0446 -0.67349,-0.58429c-0.0446,-0.6289 0.58433,-0.67349 0.58433,-0.67349c1.13193,-0.0787 2.76221,-0.18724 3.7424,-0.70259l0.13345,-0.09964c0,0 0.5192,-0.35771 0.8769,0.16148z" fill="#7a6500"/><path d="M257.52833,112.98288c-0.50355,-0.37942 -0.12409,-0.88297 -0.12409,-0.88297l0.06969,-0.08937c0.59577,-0.90085 0.788,-2.1326 1.19925,-3.14438c0,0 0.23762,-0.58399 0.8216,-0.34637c0.58397,0.23761 0.34637,0.82163 0.34637,0.82163c-0.45112,1.10749 -0.67543,2.3397 -1.30495,3.34852l-0.12489,0.16883c0,0 -0.37941,0.50352 -0.88294,0.1241z" fill="#7a6500"/><path d="M256.95875,113.54304c0.32315,0.54137 -0.2182,0.86452 -0.2182,0.86452l-0.36256,0.21407c-0.94372,0.6692 -1.80245,0.94422 -2.89976,1.27923c0,0 -0.60304,0.18406 -0.78709,-0.41895c-0.18404,-0.60301 0.41897,-0.78709 0.41897,-0.78709c0.9788,-0.29865 1.70242,-0.50586 2.53726,-1.10095l0.44684,-0.26906c0,0 0.54138,-0.32317 0.86452,0.21819z" fill="#7a6500"/><path d="M259.51555,115.51498c0.28069,0.56455 -0.28387,0.84523 -0.28387,0.84523l-0.12986,0.01153c-0.43393,0.49562 -0.84775,1.00463 -1.24015,1.53111c-0.45062,-0.1244 -0.89259,-0.2345 -1.32102,-0.32765c0.50294,-0.70535 1.04091,-1.38042 1.61219,-2.03379l0.51749,-0.31032c0,0 0.56455,-0.28069 0.84523,0.28389z" fill="#7a6500"/><path d="M260.47054,115.33747c-0.53988,-0.32559 -0.2143,-0.86551 -0.2143,-0.86551l0.18562,-0.27871c0.21828,-0.64993 0.4332,-1.2872 0.70035,-1.91893c0,0 0.24597,-0.58052 0.8265,-0.33456c0.58054,0.24596 0.33453,0.82651 0.33453,0.82651c-0.2554,0.60158 -0.45803,1.20906 -0.66603,1.82842l-0.30117,0.52847c0,0 -0.32559,0.53991 -0.86551,0.2143z" fill="#7a6500"/><path d="M262.41559,117.89887c0.40922,0.47962 -0.07042,0.88883 -0.07042,0.88883l-0.17743,0.14655c-0.10773,0.11413 -0.21257,0.22675 -0.31645,0.33756c-0.41983,-0.16924 -0.84399,-0.33276 -1.26879,-0.48853c0.22282,-0.22876 0.43675,-0.46916 0.66818,-0.71444l0.27606,-0.24037c0,0 0.47964,-0.40922 0.88887,0.0704z" fill="#7a6500"/><path d="M262.14208,117.22871c-0.50355,-0.37942 -0.12409,-0.88296 -0.12409,-0.88296l0.23953,-0.3115c0.29939,-0.31636 0.58494,-0.64718 0.8465,-0.99547c0,0 0.19467,-0.25833 0.49019,-0.26548c0.16087,0.33797 0.33336,0.6816 0.51518,1.02659c-0.29019,0.38377 -0.605,0.74946 -0.93477,1.0998l-0.14958,0.20493c0,0 -0.37941,0.50352 -0.88297,0.12408z" fill="#7a6500"/><path d="M251.07031,107.98668c-0.61468,-0.14026 -0.47443,-0.75496 -0.47443,-0.75496l0.10814,-0.47047c0.10881,-0.61493 0.22266,-1.22904 0.34649,-1.84112c0,0 0.12505,-0.61796 0.74301,-0.49292c0.61796,0.12505 0.49291,0.74301 0.49291,0.74301c-0.12185,0.60195 -0.23376,1.20593 -0.34072,1.81074l-0.12044,0.53129c0,0 -0.14029,0.61468 -0.75495,0.47443z" fill="#246800"/><path d="M250.02619,109.01714c-0.14578,0.61339 -0.75919,0.4676 -0.75919,0.4676l-0.60428,-0.14629c-0.24229,-0.08137 -0.48462,-0.16275 -0.7269,-0.24414c0,0 -0.59765,-0.20072 -0.39693,-0.7984c0.20072,-0.59768 0.7984,-0.39695 0.7984,-0.39695c0.24229,0.08137 0.48462,0.16277 0.72688,0.24414l0.4944,0.11484c0,0 0.61338,0.14581 0.46761,0.75919z" fill="#246800"/><path d="M252.27498,110.47062c0.18404,0.60301 -0.41897,0.78709 -0.41897,0.78709l-0.49467,0.14616c-0.74691,0.13017 -1.42549,0.14288 -2.18062,0.08395c0,0 -0.62852,-0.04977 -0.57875,-0.67829c0.0498,-0.62851 0.6783,-0.57875 0.6783,-0.57875c0.64997,0.05229 1.21872,0.04741 1.86111,-0.06855l0.34653,-0.11057c0,0 0.60301,-0.18404 0.78706,0.41897z" fill="#246800"/><path d="M252.75294,109.20223c-0.59768,-0.20073 -0.39695,-0.79841 -0.39695,-0.79841l0.02525,-0.05218c0.1249,-0.72176 0.24874,-1.4008 0.48073,-2.09671c0,0 0.20072,-0.59766 0.7984,-0.39693c0.59768,0.20073 0.39693,0.7984 0.39693,0.7984c-0.21465,0.63369 -0.31964,1.2517 -0.4336,1.91027l-0.0724,0.23861c0,0 -0.20073,0.59768 -0.79841,0.39695z" fill="#246800"/><path d="M254.70544,110.7747c-0.59768,-0.20073 -0.39696,-0.7984 -0.39696,-0.7984l0.08321,-0.22791c0.33909,-0.67434 0.67148,-1.35182 1.00426,-2.0293c0,0 0.27796,-0.56591 0.84386,-0.28795c0.56591,0.27795 0.28796,0.84387 0.28796,0.84387c-0.3345,0.68101 -0.66866,1.362 -1.00949,2.03989l-0.01444,0.06288c0,0 -0.20073,0.59768 -0.79841,0.39695z" fill="#246800"/><path d="M255.60535,112.51328c0.44479,0.44684 -0.00202,0.89162 -0.00202,0.89162l-0.32615,0.27901c-0.94123,0.46765 -1.92404,0.83481 -2.86426,1.30292c0,0 -0.56458,0.28068 -0.84526,-0.28387c-0.28069,-0.56455 0.28389,-0.84523 0.28389,-0.84523c0.9409,-0.46718 1.92331,-0.83478 2.86426,-1.30292l-0.00208,-0.04354c0,0 0.44684,-0.44479 0.89162,0.00202z" fill="#246800"/><path d="M256.52883,112.2499c-0.59768,-0.20073 -0.39695,-0.7984 -0.39695,-0.7984l0.11479,-0.336c0.27935,-0.65808 0.58527,-1.26142 0.81178,-1.94124c0,0 0.20073,-0.59769 0.79841,-0.39696c0.59768,0.20073 0.39695,0.79841 0.39695,0.79841c-0.24049,0.71107 -0.55499,1.34335 -0.8461,2.03176l-0.08049,0.2455c0,0 -0.20073,0.59768 -0.79841,0.39695z" fill="#246800"/><path d="M257.62746,114.07196c0.28069,0.56455 -0.28386,0.84524 -0.28386,0.84524l-0.38123,0.18605c-0.43161,0.16316 -0.85977,0.33582 -1.28311,0.51933c0,0 -0.57855,0.25063 -0.82915,-0.32791c-0.2506,-0.57854 0.32791,-0.82915 0.32791,-0.82915c0.44161,-0.19117 0.8881,-0.37124 1.33812,-0.54165l0.26609,-0.13582c0,0 0.56458,-0.28067 0.84526,0.28387z" fill="#246800"/><path d="M258.62667,113.87121c-0.59768,-0.20073 -0.39695,-0.7984 -0.39695,-0.7984l0.04969,-0.14218c0.27103,-0.63433 0.40071,-1.21512 0.53193,-1.8934c0,0 0.11997,-0.61895 0.73891,-0.49897c0.61895,0.11998 0.49899,0.73892 0.49899,0.73892c-0.14784,0.76144 -0.30797,1.43022 -0.60882,2.14543l-0.0154,0.05169c0,0 -0.20071,0.59766 -0.79839,0.39693z" fill="#246800"/><path d="M260.71005,116.29364c0.28069,0.56455 -0.28386,0.84524 -0.28386,0.84524l-0.25826,0.12408c-0.65225,0.23607 -1.01082,0.46006 -1.49104,0.87749c-0.43054,-0.13187 -0.85599,-0.25242 -1.2724,-0.35963c0.03995,-0.22881 0.21406,-0.38599 0.21406,-0.38599c0.70573,-0.63235 1.23481,-0.99064 2.11611,-1.31605l0.13012,-0.069c0,0 0.56457,-0.28068 0.84526,0.28387z" fill="#246800"/><path d="M261.93635,117.29869c0.28069,0.56455 -0.28386,0.84524 -0.28386,0.84524l-0.13582,0.04838c-0.3268,0.27172 -0.61392,0.41865 -0.83187,0.62868c-0.40959,-0.15141 -0.82007,-0.29581 -1.22818,-0.43141c0.30546,-0.46868 0.67669,-0.68394 1.25241,-1.16566l0.38209,-0.20911c0,0 0.56454,-0.28068 0.84524,0.28386z" fill="#246800"/><path d="M262.84838,118.42839c-0.48914,-0.39782 -0.09131,-0.88696 -0.09131,-0.88696l0.19883,-0.21898c0.11369,-0.23146 0.22737,-0.46291 0.34103,-0.69436c0,0 0.27796,-0.56591 0.84387,-0.28796c0.56591,0.27795 0.28795,0.84386 0.28795,0.84386c-0.11369,0.23146 -0.22737,0.46289 -0.34106,0.69436l-0.35235,0.45871c0,0 -0.39782,0.48914 -0.88696,0.09131z" fill="#246800"/><path d="M258.75111,115.13341c0.36968,0.51073 -0.14104,0.8804 -0.14104,0.8804l-0.3846,0.27723c-0.56375,0.36223 -1.07574,0.76374 -1.5965,1.18497c0,0 -0.05635,0.04555 -0.14628,0.0867c-0.23897,-0.05124 -0.47362,-0.09713 -0.70314,-0.13726c-0.01249,-0.01358 -0.02492,-0.02797 -0.03727,-0.04323c-0.39648,-0.49022 0.09378,-0.88669 0.09378,-0.88669c0.55604,-0.44963 1.1056,-0.87692 1.70682,-1.26473l0.32785,-0.23846c0,0 0.51072,-0.36968 0.8804,0.14105z" fill="#693d00"/><path d="M263.02565,118.25882c0.50355,0.37942 0.12409,0.88297 0.12409,0.88297l-0.15601,0.1965c-0.09573,0.09467 -0.18893,0.19212 -0.27942,0.29211c-0.4035,-0.1726 -0.81354,-0.34099 -1.22672,-0.5033c0.19415,-0.23757 0.40004,-0.4657 0.61651,-0.68246l0.03857,-0.0617c0,0 0.37942,-0.50352 0.88297,-0.12409z" fill="#693d00"/></g><path d="M266.37806,115.25168c0.40246,0.03279 0.71176,0.25951 0.71176,0.25951l0.6302,0.4625c1.79049,1.40244 2.79535,2.84559 3.54082,4.99136c5.26622,5.94667 -3.44078,11.62995 -5.8252,16.78908c-0.75369,1.63071 -0.15843,4.58628 -1.7795,5.69279c-3.35911,2.29285 -4.54644,-1.61703 -5.22086,-4.00978c-0.58257,-8.09413 -0.83528,-18.26034 6.44869,-24.1126c0,0 0.77234,-0.61442 1.49404,-0.07286zM266.16604,127.52138c0.99458,0.31943 2.05979,-0.22786 2.37923,-1.22245c0.31943,-0.99458 -0.22786,-2.05979 -1.22246,-2.37923c-0.99458,-0.31943 -2.05978,0.22787 -2.37922,1.22247c-0.31943,0.99458 0.22787,2.05978 1.22246,2.37922z" fill="#553f22" stroke="none" stroke-width="0.5" stroke-linecap="butt"/><path d="M267.72045,124.59842c-0.60641,0.17257 -0.77895,-0.43384 -0.77895,-0.43384l-0.06025,-0.23303c-0.7864,0.71533 -1.64475,1.20054 -2.03657,2.4205c0,0 -0.0062,0.01932 -0.01983,0.04987c0.02999,0.01821 0.05966,0.03659 0.08902,0.0551c3.56017,1.13829 3.46193,-0.4027 2.94443,-1.91114c-0.04073,0.0202 -0.0865,0.03793 -0.13788,0.05253zM268.76458,127.57209l-0.31395,0.40294c-0.47563,0.41168 -0.95682,0.79484 -1.44624,1.17645l-0.41325,0.56383c-0.15423,0.22107 -0.43988,0.326 -0.70991,0.23927c-0.22249,-0.07146 -0.37782,-0.25487 -0.42377,-0.468l-0.15429,-0.65997c-0.0843,-0.5152 -0.45024,-0.90804 -0.88989,-1.20592l-0.01578,-0.00507c0,0 -0.15528,-0.04987 -0.28253,-0.17787c-0.07542,-0.04203 -0.15157,-0.08171 -0.22757,-0.11913c0,0 -0.56041,-0.28886 -0.27157,-0.84928c0.01162,-0.02255 0.02368,-0.0437 0.03612,-0.06357c-0.0791,-0.21731 -0.0078,-0.43929 -0.0078,-0.43929c0.63349,-1.97243 2.22962,-2.11385 3.07375,-3.77148c0.04523,-0.14083 0.2051,-0.6386 0.2051,-0.6386c0.10648,-0.33152 0.46155,-0.51396 0.79307,-0.40749c0.33152,0.10648 0.51396,0.46155 0.40749,0.79307l-0.13857,0.43145c0.45358,1.70958 1.1739,3.59317 0.90875,4.74113c0.02418,0.24836 -0.12911,0.45753 -0.12911,0.45753z" fill="#b9b9b9" stroke="none" stroke-width="0.5" stroke-linecap="butt"/><path d="M271.34538,125.95662c0.0723,-0.22511 0.36149,-1.12551 0.43379,-1.35063c0,0 0.1928,-0.60029 0.79308,-0.4075c0.60028,0.19279 0.40748,0.79308 0.40748,0.79308c-0.06843,0.21307 -0.13687,0.42617 -0.20531,0.63924c0.16919,0.2464 0.06893,0.55857 0.06893,0.55857c-1.28583,4.00355 -4.8777,7.34471 -6.82556,11.07367c-2.32411,1.96202 0.08737,5.53543 -3.50268,6.91647l-0.72676,0.05758c0,0 -0.62895,0.04394 -0.67289,-0.58502c-0.04395,-0.62896 0.585,-0.67287 0.585,-0.67287l0.54334,-0.03115c2.50482,-0.938 0.90082,-4.76046 2.7806,-6.46165c1.73032,-3.40568 4.96314,-6.44256 6.37265,-9.99819c-0.14477,-0.24161 -0.05162,-0.53162 -0.05162,-0.53162z" fill="#b9b9b9" stroke="none" stroke-width="0.5" stroke-linecap="butt"/><path d="M269.09299,115.25971c0.621,0.81142 0.80644,2.04156 0.21155,2.78807c-0.41554,-0.40422 -1.01272,-0.73781 -1.68524,-0.99491c-0.27552,-0.41809 -0.63597,-0.79538 -1.0684,-1.07956c-0.09327,-0.31512 -0.2676,-0.60305 -0.50675,-0.83211c0.16582,-0.19215 0.44907,-0.37999 0.88159,-0.55623c0.59119,-0.24093 1.1367,-0.15033 1.58276,0.13121c0.01501,0.00193 0.03012,0.00392 0.04529,0.00602c0,0 0.50085,0.07345 0.53916,0.53751zM267.78774,115.9632c-0.0116,0.00215 -0.02299,0.00443 -0.03418,0.00688c0.00667,0.00917 0.0135,0.0185 0.02048,0.02809l0.02599,-0.01724c-0.00415,-0.00596 -0.00824,-0.0119 -0.01232,-0.01773z" fill="#7a3535" stroke="none" stroke-width="0.5" stroke-linecap="butt"/><path d="M252.99299,116.74309c-0.48414,-1.4541 0.71893,-2.99059 1.55561,-3.26008c0.39505,-1.58393 1.31725,-2.65106 3.23826,-1.45802c1.37817,0.8559 3.1355,6.14211 1.73935,7.41919c-1.04264,0.95369 -4.52477,-5.24245 -4.76603,-1.58029l0.00829,0.05392c0.01712,0.09752 0.01147,0.20051 -0.02091,0.30134c-0.00625,0.01945 -0.01335,0.03839 -0.02126,0.05677c-0.02905,0.1452 -0.06588,0.19511 -0.10572,0.1672c-0.16072,0.18233 -0.41989,0.2626 -0.6661,0.18353c-0.33152,-0.10648 -0.51396,-0.46155 -0.40749,-0.79307c0.10648,-0.33152 0.46154,-0.51396 0.79307,-0.40749c0.01268,0.00407 0.02517,0.0085 0.03739,0.0133c-0.02904,-0.24467 -0.05278,-0.5229 -0.06782,-0.82217c-0.51154,0.43052 -1.1278,0.69319 -1.31668,0.1259z" fill="#8c6738" stroke="none" stroke-width="0.5" stroke-linecap="butt"/><path d="M260.31968,120.69983c-0.62932,-0.03837 -0.59093,-0.66768 -0.59093,-0.66768l0.01994,-0.22291c-0.15277,-1.89368 -0.42817,-3.69366 -0.93235,-5.52931c-0.77265,-5.73161 -6.20726,0.64024 -5.90973,4.08707c0,0 0.05099,0.6284 -0.5774,0.67941c-0.6284,0.05099 -0.67942,-0.57741 -0.67942,-0.57741c-0.38561,-5.01799 7.35213,-11.95461 8.40167,-4.44312c0.52148,1.88123 0.79564,3.74006 0.95409,5.68134l-0.01815,0.40166c0,0 -0.03838,0.62932 -0.66768,0.59093z" fill="#7c4800" stroke="none" stroke-width="0.5" stroke-linecap="butt"/><path d="M258.02054,119.5749c-0.53926,0.32666 -0.86592,-0.21261 -0.86592,-0.21261l-0.07171,-0.12311c-0.32099,-0.44871 -0.5571,-0.93269 -0.79695,-1.4197c-0.05299,0.24405 -0.10271,0.49365 -0.14934,0.75092l-0.14664,0.33295c0,0 -0.30614,0.55117 -0.85731,0.24502c-0.55116,-0.30614 -0.24501,-0.85731 -0.24501,-0.85731l0.00828,0.05404c0.31269,-1.7193 0.7653,-3.14767 1.38124,-4.79059c0,0 0.22144,-0.5903 0.81174,-0.36888c0.59032,0.22143 0.36888,0.81174 0.36888,0.81174c-0.2672,0.71193 -0.50069,1.37422 -0.70409,2.03801c0.49985,0.80182 0.79012,1.72488 1.34607,2.45823l0.13331,0.21536c0,0 0.32665,0.53927 -0.21261,0.86592z" fill="#7c4800" stroke="none" stroke-width="0.5" stroke-linecap="butt"/><path d="M258.05816,125.41079c-2.72994,-1.32456 -4.91599,-3.83248 -7.45388,-5.4855c-2.55055,-2.46332 -7.58676,-6.05898 -8.39302,-9.62355c-0.04266,-0.07597 -0.08464,-0.15237 -0.12597,-0.22922c0,0 -0.29659,-0.55636 0.25975,-0.85296c0.55636,-0.29659 0.85296,0.25975 0.85296,0.25975c2.11786,4.01205 6.34019,6.78505 9.79801,9.49413c1.6774,1.08444 5.45756,3.81264 7.47002,3.50788l0.31054,-0.11529c0,0 0.38109,-0.1272 0.63639,0.1257c0.09038,0.00959 0.18963,0.04315 0.29653,0.11224c0.52946,0.3423 0.18715,0.87176 0.18715,0.87176c-0.48112,0.73546 -1.10458,1.31934 -1.58372,2.0626l-0.2282,0.35298c0,0 -0.3423,0.52946 -0.87175,0.18716c-0.13716,-0.08866 -0.21579,-0.18988 -0.25707,-0.29122c-0.24236,-0.07937 -0.53923,-0.20248 -0.89774,-0.37643z" fill="#8c8172" stroke="none" stroke-width="0.5" stroke-linecap="butt"/><path d="M256.50636,132.6872c-2.98411,-0.54968 -5.75912,-2.38489 -8.64559,-3.30234c-3.11446,-1.69515 -8.92637,-3.81968 -10.65284,-7.0408c-0.06135,-0.06187 -0.12217,-0.12434 -0.18247,-0.18738c0,0 -0.43406,-0.45729 0.02322,-0.89133c0.45729,-0.43407 0.89134,0.02321 0.89134,0.02321c3.10986,3.30312 7.91817,4.85151 11.97261,6.5419c1.9056,0.59857 6.27582,2.22152 8.13445,1.39179l0.26862,-0.19383c0,0 0.33346,-0.22407 0.64687,-0.0483c0.08963,-0.01483 0.19426,-0.00891 0.31573,0.02923c0.60152,0.18893 0.41257,0.79043 0.41257,0.79043c-0.26787,0.83702 -0.71334,1.56589 -0.97726,2.40987l-0.12595,0.40099c0,0 -0.18893,0.60152 -0.79044,0.41256c-0.15579,-0.04894 -0.25856,-0.12556 -0.32531,-0.21224c-0.25474,-0.01196 -0.5737,-0.05158 -0.96558,-0.12377z" fill="#8c8172" stroke="none" stroke-width="0.5" stroke-linecap="butt"/><path d="M262.66804,117.82516c-1.6293,-1.60252 -2.58552,-3.91862 -3.99867,-5.7093c-1.22707,-2.37202 -3.95541,-6.15053 -3.6726,-8.88845c-0.01213,-0.06448 -0.02374,-0.12913 -0.03472,-0.19391c0,0 -0.07771,-0.46845 0.39073,-0.54617c0.46845,-0.07771 0.54617,0.39073 0.54617,0.39073c0.54545,3.37305 2.891,6.36853 4.70641,9.13437c0.93596,1.17775 2.97677,4.03481 4.4863,4.30185l0.24939,-0.0075c0,0 0.30258,0.00098 0.42388,0.24291c0.06218,0.02858 0.12494,0.07647 0.18459,0.15152c0.29543,0.37177 -0.07631,0.6672 -0.07631,0.6672c-0.52042,0.40902 -1.10595,0.67558 -1.62682,1.09063l-0.24781,0.19695c0,0 -0.37177,0.29546 -0.6672,-0.07631c-0.0765,-0.09631 -0.10828,-0.18746 -0.11334,-0.26971c-0.15383,-0.11499 -0.33608,-0.27433 -0.55005,-0.48479z" fill="#8c8172" stroke="none" stroke-width="0.5" stroke-linecap="butt"/></g><g stroke="none" stroke-width="0.5" stroke-linecap="butt"><path d="M228.65894,189.86749c1.31601,-4.70997 8.65216,-6.32314 12.49236,-7.42297c0,0 1.12907,-0.32259 1.45166,0.80648c0.03009,0.10526 0.04754,0.2035 0.05446,0.29514c0.15597,0.04378 0.31284,0.09347 0.47064,0.14925l0.98971,1.19621c0,0 0.32774,0.4214 0.25714,0.91691c2.09701,1.80579 3.94503,4.13933 5.07516,6.61095c-0.07065,0.54694 -0.10707,1.1046 -0.10707,1.67078c0,1.82045 0.37661,3.55295 1.05613,5.12382c-0.54729,2.3298 -2.17261,4.45584 -5.30454,6.02194c-3.10558,1.42937 -4.03801,2.84758 -5.32694,5.93935c-0.06489,0.15563 -0.85286,1.8614 -1.4738,2.90846c0.0045,-0.00097 0.00904,-0.00194 0.0136,-0.00288c-1.1233,1.75822 -1.83257,3.80652 -1.99041,6.00745c-1.6022,0.42781 -3.52393,0.94765 -4.92756,-0.01033c-0.66028,-0.45063 -1.47866,-2.6391 -1.77131,-3.32834c-0.98107,-5.23723 -1.34613,-11.40364 -0.46443,-17.23285c-0.47386,-3.20511 -1.20526,-7.10681 -0.49483,-9.64938z" fill="#7c5c32"/><path d="M243.90956,194.84129c-0.07708,-0.15416 -0.08629,-0.28569 -0.06081,-0.39459c-0.03927,-0.06287 -0.07853,-0.12577 -0.11777,-0.18864c-2.38868,-3.50877 -7.9225,-3.04659 -10.42924,-0.15543c0,0 -0.38664,0.44185 -0.82849,0.05524c-0.44185,-0.38664 -0.05523,-0.82848 -0.05523,-0.82848c3.11909,-3.537 9.31871,-3.7568 12.28904,0.27593c0.12311,0.19678 0.2462,0.39357 0.3693,0.59035l-0.3791,0.90822c0,0 -0.52515,0.26257 -0.78771,-0.26256z" fill="#ffffff"/><path d="M242.85224,195.41135c0.12612,-0.09525 0.45077,-0.2784 0.77545,0.04628c0.41517,0.41517 0,0.83032 0,0.83032l-0.34466,0.22633c-3.6944,0.92062 -7.1789,1.12341 -10.34405,-1.25018c0,0 -0.4697,-0.35227 -0.11743,-0.82198c0.35227,-0.46971 0.82198,-0.11743 0.82198,-0.11743c2.82099,2.11598 5.9176,1.89628 9.20871,1.08666z" fill="#ffffff"/><path d="M238.70579,196.94265c-2.99293,0.64563 -2.08541,-3.54179 -1.50685,-5.09149c0,0 0.23969,-0.63915 0.86911,-0.49195c0.13732,-0.12423 0.31938,-0.19988 0.51914,-0.19988c0.38281,0 0.70072,0.2779 0.76301,0.64296c1.2001,0.61827 2.00851,4.56807 -0.64438,5.14035z" fill="#ffffff"/><path d="M238.89417,212.86496c0.13744,0.5696 -0.41233,0.712 -0.41233,0.712l-0.16157,0.02743c-3.14304,1.61946 -5.89691,0.6523 -8.99873,-0.62705c0,0 -0.52614,-0.21806 -0.31569,-0.7632c0.21045,-0.54514 0.73662,-0.32708 0.73662,-0.32708c2.78116,1.15876 5.2645,2.12984 8.07095,0.66702l0.39354,-0.11634c0,0 0.54976,-0.14239 0.6872,0.42719z" fill="#ffffff"/></g><g stroke="none" stroke-linecap="butt"><path d="M251.40376,171.65234c-3.57458,12.92033 -14.4137,21.19724 -24.20985,18.48701c-9.79614,-2.71024 -14.83971,-15.38132 -11.26513,-28.30164c3.57458,-12.92033 14.41369,-21.19722 24.20984,-18.48698c9.79614,2.71024 14.83972,15.38129 11.26514,28.30161z" fill="#946d3b" stroke-width="0"/><path d="M244.11835,158.18704c8.52426,6.96202 11.56414,18.09541 6.78985,24.86706c-4.77431,6.77165 -15.55488,6.61734 -24.07912,-0.34471c-8.52426,-6.96202 -11.56412,-18.0954 -6.78981,-24.86705c4.77431,-6.77165 15.55487,-6.61731 24.0791,0.34471z" fill="#946d3b" stroke-width="0"/><path d="M223.54696,187.94948c-0.24298,0.8857 -1.2506,1.0834 -1.2506,1.0834l-1.57736,0.19731c-10.55014,-1.9516 -18.23755,-5.40821 -20.7829,-16.64792c-0.48528,-6.37316 4.6491,-15.47006 -0.92065,-21.03839c-2.90379,-2.90304 -7.24342,-1.58683 -11.02432,-1.20537l0.06595,0.59401l-1.56356,0.17362c-0.20789,0.02796 -0.42471,0.01529 -0.63965,-0.04418c-0.85215,-0.23576 -1.35185,-1.1177 -1.11609,-1.96986c0.05946,-0.21494 0.16003,-0.40747 0.29087,-0.5714l0.95258,-1.25199l0.01071,0.00814l0.01489,-0.04086c12.69358,-14.94293 28.133,-12.24325 33.37328,6.81541c0.90529,7.1102 -5.98554,28.27055 3.47627,31.37629c0,0 1.49799,0.56484 0.93317,2.0628c-0.06858,0.18185 -0.15088,0.33329 -0.24261,0.45901z" fill="#8c6738" stroke-width="0.5"/><path d="M193.57469,141.84197c0.15551,0.32206 0.21837,0.59545 0.21297,0.82558l0.0047,0.01435l0.00237,0.03212l0.01908,0.01927l-0.00451,0.18024l0.00058,0.008l0.00522,0.01582l0.00781,0.10664l0.03128,0.10224l0.00493,0.09479l-0.00809,0.04125l0.00809,0.04124l-0.01085,0.21155l0.00702,0.06303l0.00939,0.04782l0.00633,0.0064l-0.00058,0.023l0.00431,0.02189l-0.00942,0.18367l-0.00191,0.07618l0.01495,0.06689l-0.00087,0.03461l0.01756,0.05336l0.00237,0.03212l0.01908,0.01927l-0.00447,0.17982l0.01682,0.0607l0.00079,0.03138l0.01334,0.02841l0.01293,0.06587l-0.00548,0.10675l0.01837,0.10534l-0.00748,0.10294l0.00233,0.04503l-0.00973,0.04966l0.00871,0.04982l-0.02218,0.30532l-0.02488,0.07574l-0.00199,0.07972l-0.04289,0.15504l-0.00535,0.0736l-0.02267,0.06897l-0.00123,0.04922l0.01182,0.10665l-0.02031,0.15025l-0.00091,0.03656l0.00186,0.00829l-0.00231,0.09301l0.00038,0.00729l0.00197,0.01005l-0.00073,0.01405l0.00171,0.0327l-0.00458,0.02342l-0.00582,0.1135l-0.00172,0.06889l0.00186,0.00829l-0.00396,0.15959l0.02185,0.11136l-0.00175,0.03393l0.01182,0.03184l0.01784,0.16068l-0.00321,0.02386l0.00702,0.023l0.00014,0.0031l0.00005,0.00004l0,0.00073l0.00177,0.03408l0.00197,0.01005l-0.0007,0.01406l0.00168,0.03269l-0.00457,0.02339l-0.00583,0.11353l-0.00105,0.04187l0.00428,0.02188l-0.00269,0.05198l0.01627,0.04939l0.00781,0.10661l0.03128,0.10224l0.00493,0.09482l-0.00603,0.03079l0.00687,0.03064l-0.00231,0.09298l0.00333,0.06408l-0.02471,0.12628l-0.0032,0.12864l-0.06403,0.23145l-0.00307,0.12373l-0.00595,0.02151l-0.00367,0.07101l-0.00457,0.18388l-0.00595,0.02151l-0.00121,0.02296l-0.00677,0.00587l-0.11414,0.41256l-0.05773,0.10206l-0.04416,0.13442l-0.04374,0.02096l-0.05752,0.10162l-0.33022,0.08405l-0.29614,0.14182l-0.03121,-0.02096l-0.02484,0.01163l-0.13164,0.08856l-0.03901,-0.0085l-0.05917,0.02775l-0.10539,0.02068l-0.10022,0.04702l-0.06587,0.01293l-0.05178,-0.00266l-0.0394,0.01093l-0.00102,-0.00062l-0.02039,0.00625l-0.1896,0.00984l-0.03082,-0.00604l-0.03064,0.00687l-0.03138,-0.00078l-0.00513,0.0051l-0.023,-0.00058l-0.02189,0.00431l-0.11055,-0.00567l-0.01318,0.0026l-0.18367,-0.00942l-0.08945,-0.00222l-0.02112,0.00645l-0.09788,0.00508l-0.00006,0.00009l-0.00076,-0.00004l-0.03408,0.00177l-0.01005,0.00197l-0.01406,-0.0007l-0.03272,0.00168l-0.02339,-0.00457l-0.11353,-0.00583l-0.06889,-0.00172l-0.00829,0.00186l-0.06942,-0.00173l-0.10669,0.01184l-0.05457,-0.00739l-0.05372,0.01201l-0.09301,-0.00231l-0.06408,0.00333l-0.03082,-0.00604l-0.03064,0.00687l-0.12373,-0.00307l-0.01882,-0.00521l-0.01923,0.00335l-0.13365,-0.0097l-0.22842,-0.00569l-0.04709,-0.01303l-0.0114,-0.00059l-0.02632,0.00135l-0.02544,0.00944l-0.12756,0.01414l-0.09906,0.01944l-0.08802,-0.00448l-0.03308,0.0074l-0.07651,0.03588l-0.03429,0.00673l-0.01664,0.02749l-0.07047,0.01575l-0.05989,0.04031l-0.06095,-0.01327l-0.11463,0.02566l-0.06438,0.06125l-0.10231,0.05797l-0.00405,0.00805l-0.02199,0.00671l-0.01939,0.01102l-0.09258,0.02568l-0.00575,0.0114l-0.09836,0.03009l-0.08535,0.05741l-0.01726,-0.00378l-0.05402,0.0306l-0.04581,0.01271l-0.02264,0.01519l-0.00467,-0.00099l-0.03769,0.03585l-0.0554,0.03141l-0.0634,0.06033l-0.08404,0.04762l-0.04596,0.04147l-0.01956,0.058l-0.09311,0.04367l-0.07637,0.0689l-0.06103,-0.00442l-0.14297,0.06706l-0.13173,0.02585l-0.05198,-0.00266l-0.04935,0.01625l-0.05045,0.00368l-0.04581,0.02148l-0.06587,0.0129l-0.08806,-0.00449l-0.08602,0.01926l-0.12373,-0.00307l-0.03145,-0.0087l-0.03229,0.00455l-0.1816,-0.01908l-0.05188,-0.01891l-0.0458,-0.00234l-0.08602,0.01926l-0.12373,-0.00307l-0.0533,-0.01475l-0.15174,0.01686l-0.02385,-0.00325l-0.02302,0.00706l-0.09479,0.00493l-0.12628,-0.02471l-0.12864,-0.0032l-0.08678,-0.02401l-0.12373,-0.00307l-0.02151,-0.00595l-0.02296,-0.00121l-0.00111,-0.00127l-0.10707,-0.00265l-0.02151,-0.00595l-0.02296,-0.00121l-0.00023,-0.00026l-0.0003,0.00011l-0.02031,-0.01077l-0.02151,-0.00595l-0.16008,-0.09059l-0.06068,-0.03224l-0.02775,-0.0001l-0.02818,-0.02963l-0.04579,-0.02433l-0.01656,-0.01495l-0.02003,-0.01132l-0.00221,-0.00871l-0.01106,-0.00997l-0.0618,-0.09184l-0.02991,-0.02698l-0.02033,-0.03025l-0.026,-0.02732l-0.02799,-0.00943l-0.04998,-0.10648l-0.01282,-0.00434l-0.04027,-0.08583l-0.05295,-0.07867l0.00286,-0.01323l-0.06565,-0.0976l0.0085,-0.03901l-0.02778,-0.05918l-0.04162,-0.2122l-0.00631,-0.00636l0.00058,-0.023l-0.0043,-0.02192l0.00604,-0.11743l-0.00295,-0.00626l-0.02354,-0.12l-0.04043,-0.04071l0.00257,-0.10284l-0.0275,-0.0991l0.03128,-0.05264l0.00394,-0.15784l0.01009,-0.03648l-0.00282,-0.00852l0.0108,-0.02031l0.00594,-0.02148l0.05274,-0.09324l-0.00052,-0.00161l0.0108,-0.02031l0.00594,-0.02148l0.09057,-0.16009l0.05335,-0.10039l0.0081,-0.02241l0.01828,-0.02717l0.00659,-0.01243l0.00686,-0.00761l0.01907,-0.02834l0.00037,-0.00062l0.00007,-0.00004l0.00171,-0.00259l0.04277,-0.03859l0.02703,-0.05085l0.05987,-0.06642l0.01132,-0.02003l0.00872,-0.00224l0.02489,-0.02763l0.01132,-0.02003l0.00869,-0.00224l0.00997,-0.01106l0.07649,-0.05146l0.03161,-0.0559l0.04914,-0.01248l0.03576,-0.03403l0.02164,-0.03823l0.01601,-0.05787l0.01594,-0.02821l0.01417,-0.03923l0.03344,-0.04976l0.00747,-0.02701l-0.00282,-0.00852l0.0108,-0.02031l0.00594,-0.02148l0.09057,-0.16009l0.02015,-0.03788l0.00902,-0.03261l0.06096,-0.10772l0.09435,-0.09931l0.01868,-0.02656l0.09075,-0.16037l0.06075,-0.06393l0.04137,-0.07782l0.03106,-0.03446l0.01767,-0.03122l0.10045,-0.10572l0.08659,-0.11737l0.23707,-0.19576l0.00546,-0.00603l0.01015,-0.00679l0.01033,-0.00853l0.01013,-0.0168l0.0934,-0.09272l0.00656,-0.01161l0.09435,-0.09931l0.01868,-0.02656l0.02978,-0.05266l0.02784,-0.02931l0.00247,-0.00354l0.00489,-0.00423l0.0255,-0.02683l0.04137,-0.07782l0.09885,-0.10969l0.05195,-0.09775l0.01492,-0.01657l0.01132,-0.02003l0.00872,-0.00224l0.05489,-0.06092l0.04196,-0.02822l0.02912,-0.04137l0.05568,-0.04818l0.03869,-0.06395l0.13232,-0.13136l0.06425,-0.08441l0.0265,-0.02124l0.01594,-0.03001l0.15746,-0.1747l0.07773,-0.10214l0.06535,-0.05235l0.04819,-0.06849l0.07558,-0.06533l0.05924,-0.0842l0.08188,-0.0708l0.0511,-0.02583l0.04157,-0.04614l0.10678,-0.07182l0.03112,-0.02963l0.00703,-0.01002l0.03822,-0.03305l0.01686,-0.01604l0.00488,-0.00277l0.10379,-0.08972l0.02028,-0.01026l0.0141,-0.01782l0.1188,-0.09171l0.0528,-0.0231l0.04172,-0.03971l0.03644,-0.02062l0.00119,-0.00227l0.08988,-0.09971l0.04196,-0.02822l0.02909,-0.04138l0.06747,-0.05834l0.09075,-0.08632l0.02436,-0.02704l0.02604,-0.01751l0.01681,-0.02651l0.12682,-0.12062l0.04751,-0.02692l0.03513,-0.04174l0.05964,-0.04313l0.02606,-0.03425l0.00782,-0.00627l0.00418,-0.00911l0.14284,-0.17851l0.07639,-0.0582l0.05952,-0.07536l0.06168,-0.04762l0.04153,-0.04612l0.05424,-0.03646l0.01277,-0.03787l0.06115,-0.02869l0.01871,-0.02788l0.07938,-0.07163l0.0615,-0.08744l0.07389,-0.06387l0.00391,-0.01161l0.08594,-0.04035l0.00163,-0.00148l0.00133,0.0001l0.01852,-0.0087l0.05605,-0.05057l0.13325,-0.12678l0.01943,-0.01101l0.01706,-0.01541l0.00899,0.00066l0.08384,-0.0475l0.0634,-0.06033l0.03644,-0.02062l0.00119,-0.00227l0.08988,-0.09971l0.09184,-0.0618l0.11685,-0.12962l0.08829,-0.05939l0.0115,-0.01037l0.02703,-0.05085l0.08988,-0.09971l0.04197,-0.02825l0.02908,-0.04135l0.04418,-0.03817l0.01842,-0.02045l0.02123,-0.03157l0.01584,-0.01428l0,-0.00119l0.02963,-0.02818l0.02433,-0.04579l0.04492,-0.04987l0.09184,-0.0618l0.02698,-0.02991l0.03024,-0.0203l0.05095,-0.04849l0.05539,-0.03139l0.0634,-0.06033l0.14774,-0.08371l0.124,-0.03439l0.11651,-0.05464l0.05561,-0.0109c0.30401,-0.54252 0.74222,-0.65356 1.37481,0.6566zM191.85329,148.46874l0.00455,-0.01645l-0.02818,0.02173z" fill="#ededed" stroke-width="0.5"/><path d="M209.49602,139.33296c0.77149,0.21344 0.56899,0.94537 0.56899,0.94537l-0.2025,0.73195c-1.33126,4.81185 -4.35283,9.45485 -9.12792,11.72168c0,0 -0.71115,0.32676 -1.07233,-0.36213c-0.36119,-0.68888 0.34995,-1.01561 0.34995,-1.01561c4.40025,-1.92832 7.11581,-6.4641 8.30733,-10.77084l0.2025,-0.73195c0,0 0.2025,-0.73192 0.97399,-0.51848z" fill="#ededed" stroke-width="0.5"/><path d="M218.71395,164.38485c0.38828,0.69468 -0.30185,1.09103 -0.30185,1.09103l-0.42785,0.24301c-3.16084,1.50284 -11.83855,2.6558 -15.40919,-0.00665c-0.10492,-0.00561 -0.20985,-0.01121 -0.31477,-0.01682l-0.00213,0.00771l-0.87616,-0.2424c-0.42114,-0.11651 -0.66697,-0.55638 -0.54909,-0.98245c0.11788,-0.42607 0.55484,-0.67704 0.97598,-0.56052l0.71557,0.19797c0.27446,0.01185 0.54891,0.02366 0.82337,0.03552c0,0 0.00676,0.00031 0.01894,0.00156c4.18706,-0.63445 9.45893,2.26181 13.94906,0.12002l0.31975,-0.18632c0,0 0.69012,-0.39632 1.07842,0.29836z" fill="#1c1b11" stroke-width="0.5"/><path d="M251.12934,154.82836c0.42607,0.11788 0.67592,0.55886 0.55805,0.98493c-0.11788,0.42607 -0.55886,0.67592 -0.98493,0.55805c-0.23429,-0.06482 -0.41527,-0.22731 -0.51116,-0.43127c-0.17249,0.08865 -0.37748,0.11523 -0.57915,0.05943c-0.28511,-0.07888 -0.4913,-0.3024 -0.56123,-0.56934c-0.16801,0.08026 -0.36466,0.10263 -0.55821,0.04908c-0.26104,-0.07222 -0.45591,-0.2657 -0.54063,-0.50272c-0.19723,0.19811 -0.49268,0.287 -0.78134,0.20714c-0.18559,-0.05135 -0.33777,-0.16398 -0.44067,-0.30999c-0.16331,0.07235 -0.35172,0.09076 -0.5373,0.03942c-0.17827,-0.04932 -0.32569,-0.15518 -0.42826,-0.2929c-0.12794,0.03102 -0.26536,0.0308 -0.40126,-0.0068c-0.19102,-0.05285 -0.34663,-0.17065 -0.44956,-0.3229c-0.14013,0.04252 -0.29359,0.04711 -0.44517,0.00517c-0.21216,-0.0587 -0.3806,-0.19749 -0.48175,-0.37464c-0.12616,0.02948 -0.26129,0.02871 -0.39494,-0.00827c-0.21558,-0.05964 -0.38609,-0.20203 -0.48661,-0.38335c-0.07954,0.00278 -0.16086,-0.00636 -0.24161,-0.0287c-0.22435,-0.06207 -0.39983,-0.2137 -0.4985,-0.40558c-0.13962,0.042 -0.29243,0.0464 -0.44336,0.00465c-0.28934,-0.08005 -0.49743,-0.30908 -0.56424,-0.58128c-0.14722,0.05037 -0.31065,0.05847 -0.47196,0.01384c-0.21892,-0.06057 -0.39134,-0.20644 -0.49124,-0.39175c-0.1625,0.07112 -0.34961,0.08892 -0.53389,0.03793c-0.27144,-0.0751 -0.47138,-0.28134 -0.55025,-0.53133c-0.06848,-0.00057 -0.13799,-0.01001 -0.20712,-0.02913c-0.26582,-0.07354 -0.46307,-0.27286 -0.5452,-0.51584c-0.11616,0.02182 -0.239,0.01813 -0.36061,-0.01552c-0.29079,-0.08045 -0.49955,-0.31139 -0.56526,-0.58541c-0.03628,-0.00482 -0.07261,-0.01218 -0.1089,-0.02222c-0.25194,-0.0697 -0.44222,-0.25234 -0.53137,-0.4781c-0.16413,0.07369 -0.35393,0.09277 -0.54091,0.04104c-0.28718,-0.07945 -0.49431,-0.3057 -0.56274,-0.57518c-0.10554,0.01489 -0.21577,0.00888 -0.32504,-0.02136c-0.41944,-0.11604 -0.66809,-0.54512 -0.56331,-0.96492c-0.0114,-0.00263 -0.02277,-0.0055 -0.03412,-0.00864c-0.38556,-0.10667 -0.62682,-0.47792 -0.58186,-0.86329c-0.08714,0.00566 -0.17666,-0.0029 -0.26557,-0.0275c-0.37349,-0.10333 -0.61156,-0.4549 -0.58527,-0.82709c-0.09701,0.01023 -0.19751,0.0028 -0.29725,-0.0248c-0.30825,-0.08528 -0.52425,-0.33966 -0.57551,-0.63516c-0.04543,0.01182 -0.09207,0.01975 -0.13949,0.0234c-0.36198,0.20955 -0.51663,0.09257 -0.54242,-0.158c-0.23803,-0.1788 -0.36338,-0.48212 -0.30628,-0.78684c-0.11599,0.0217 -0.23861,0.01793 -0.36001,-0.01565c-0.27656,-0.07651 -0.47883,-0.28912 -0.55453,-0.54543c-0.14331,0.04593 -0.3012,0.05205 -0.45707,0.00893c-0.42607,-0.11788 -0.67592,-0.55886 -0.55805,-0.98493c0.11788,-0.42607 0.55886,-0.67592 0.98493,-0.55805c0.27656,0.07651 0.47883,0.28912 0.55453,0.54543c0.14331,-0.04593 0.3012,-0.05205 0.45707,-0.00893c0.40379,0.11171 0.64931,0.51361 0.57353,0.91802c0.06842,-0.0128 0.13912,-0.01676 0.21056,-0.01094c0.19835,-0.19674 0.4006,-0.19434 0.51153,0.24152c0.11107,0.11508 0.18595,0.26174 0.21343,0.4202c0.13173,-0.03435 0.27399,-0.03549 0.41462,0.00342c0.37349,0.10333 0.61154,0.45489 0.58524,0.82708c0.09701,-0.01023 0.19755,-0.00279 0.29725,0.0248c0.38556,0.10667 0.62682,0.47792 0.58186,0.86329c0.08714,-0.00566 0.17666,0.0029 0.26557,0.0275c0.41944,0.11604 0.66809,0.54512 0.56331,0.96492c0.0114,0.00263 0.02277,0.0055 0.03412,0.00864c0.28718,0.07945 0.49431,0.3057 0.56274,0.57518c0.10554,-0.01489 0.21576,-0.00884 0.32503,0.02139c0.25194,0.0697 0.44222,0.25234 0.53133,0.47809c0.16413,-0.07369 0.35396,-0.09277 0.54091,-0.04104c0.29079,0.08045 0.49952,0.31138 0.56526,0.58541c0.03628,0.00482 0.07264,0.01219 0.1089,0.02222c0.26582,0.07354 0.46307,0.27286 0.5452,0.51584c0.11616,-0.02182 0.239,-0.01813 0.36061,0.01552c0.27144,0.0751 0.47139,0.28131 0.55027,0.53129c0.06848,0.00057 0.13798,0.01004 0.20711,0.02916c0.21892,0.06057 0.39131,0.20644 0.4912,0.39174c0.1625,-0.07112 0.34961,-0.08892 0.53389,-0.03793c0.28934,0.08005 0.4974,0.30907 0.56422,0.58123c0.14722,-0.05037 0.31068,-0.05842 0.47198,-0.0138c0.22435,0.06207 0.39983,0.2137 0.4985,0.40558c0.13962,-0.042 0.29243,-0.0464 0.44336,-0.00465c0.21558,0.05964 0.38609,0.20203 0.48661,0.38335c0.07954,-0.00278 0.16086,0.00636 0.24161,0.0287c0.21216,0.0587 0.38061,0.19746 0.48175,0.37464c0.12616,-0.02948 0.26127,-0.02867 0.39493,0.00831c0.19102,0.05285 0.34663,0.17065 0.44956,0.3229c0.14013,-0.04252 0.29359,-0.04711 0.44517,-0.00517c0.17827,0.04932 0.32568,0.15522 0.42826,0.2929c0.12794,-0.03102 0.26537,-0.03083 0.40127,0.00677c0.18559,0.05135 0.33774,0.164 0.44063,0.31001c0.16331,-0.07235 0.35175,-0.09078 0.53734,-0.03944c0.26104,0.07222 0.45591,0.2657 0.54062,0.50275c0.19723,-0.19811 0.49268,-0.28703 0.78135,-0.20717c0.28511,0.07888 0.49127,0.3024 0.56121,0.56931c0.16801,-0.08026 0.36465,-0.10259 0.55824,-0.04903c0.23429,0.06482 0.41523,0.2273 0.51113,0.43127c0.17249,-0.08865 0.37751,-0.11522 0.57918,-0.05943z" fill="#6a7e00" stroke-width="0.5"/><path d="M252.94571,165.56554c-3.35102,0.24545 -5.48549,-3.1706 -4.47942,-6.11661c-0.24096,-0.63531 0.23869,-1.59176 2.00561,-2.90507c0.26649,-0.37895 0.57463,-0.67066 0.90689,-0.75521c0.12613,-0.12171 0.29014,-0.19999 0.46608,-0.22005c0.19261,-0.1485 0.45026,-0.20774 0.70271,-0.1379c0.1642,0.04543 0.30223,0.13887 0.40315,0.2609c0.52254,0.35197 0.93285,0.687 1.24553,1.00417c0.35238,0.11204 0.57444,0.48499 0.69135,0.96759c0.11874,0.27892 0.15465,0.53875 0.12266,0.77857c1.24226,2.18708 1.34312,6.87404 -2.06456,7.12361z" fill="#7d794a" stroke-width="0.5"/><path d="M252.83084,157.33212c0.11788,-0.42607 0.55886,-0.67592 0.98493,-0.55805c0.02067,0.00572 0.04091,0.01218 0.06072,0.01939c3.16712,-0.76446 -1.75495,11.54388 -0.99611,1.09786c-0.08065,-0.16826 -0.10322,-0.36526 -0.04956,-0.55921z" fill="#7d794a" stroke-width="0.5"/><path d="M251.18367,163.15868l0.16957,-0.16131l0.04271,-0.0242l0.03107,-0.03798l0.19182,-0.14277l0.00519,-0.00219l0.00365,-0.0043l0.10881,-0.07869l0.13944,-0.05587l0.13223,-0.07122l0.16386,-0.04171l0.03542,-0.00013l0.03252,-0.01403l0.29635,-0.04857l0.04491,0.00372l0.04312,-0.01319l0.19869,-0.01031l0.02231,0.00438l0.0221,-0.00544l0.23912,0.00087l0.10362,0.02631l0.10687,0.00265l0.09347,0.02586l0.10182,0.01491l0.23754,0.02495l0.06285,0.02294l0.06688,0.00166l0.02457,0.0068c0.182,-0.11041 0.40736,-0.14842 0.62875,-0.08717c0.33282,0.09208 0.55811,0.38128 0.5846,0.70653l0.00139,0.00061l0.06835,0.18405l0.07871,0.17988l-0.00627,0.0151l0.00288,0.00771l0.01246,0.11225l-0.02034,0.15025l-0.00376,0.15155l-0.08948,0.32341l-0.04855,0.08577l-0.02628,0.09498l-0.05468,0.09666l-0.0599,0.15887l-0.05297,0.07654l-0.03162,0.08753l-0.02814,0.04188l-0.10447,0.25633l-0.0488,0.06663l-0.02804,0.07769l-0.07313,0.10883l-0.0853,0.18971l-0.02333,0.02959l-0.01005,0.03633l-0.08516,0.15052l-0.02161,0.02276l-0.01065,0.02951l-0.14797,0.22022l-0.02922,0.02636l-0.01687,0.03553l-0.13121,0.15954l-0.02914,0.0216l-0.01841,0.03125l-0.15142,0.15395l-0.07286,0.04456l-0.05786,0.06286l-0.18623,0.12256l-0.05106,0.0179l-0.0416,0.0346l-0.17682,0.0852l-0.10585,0.05998l-0.02317,0.00641l-0.01839,0.01554l-0.22665,0.11138l-0.10325,0.02219l-0.09564,0.04486l-0.09204,0.01805l-0.08481,-0.00436l-0.02755,0.00593l-0.00072,-0.0005l-0.06094,0.01363l-0.08644,-0.00216l-0.02697,-0.00746l-0.00461,0.00129l-0.02928,0.01373l-0.00858,0.01191l-0.02406,0.00338l-0.0546,0.02562l-0.09204,0.01805l-0.04533,-0.00234l-0.01972,0.00547l-0.01192,-0.00709l-0.04248,-0.00219l-0.11837,0.01672l-0.25374,-0.02669l-0.06285,-0.02294l-0.06688,-0.00166l-0.95004,-0.26284l-0.02804,-0.01586l-0.02663,0.00523l-0.14748,-0.10372l-0.03676,-0.02081l-0.00923,-0.00003l-0.01068,-0.01123l-0.10025,-0.05674l-0.00672,-0.02627l-0.02634,-0.01851l-0.04946,-0.0572l-0.03595,-0.07117l-0.05495,-0.05776l-0.02924,-0.0516l-0.01837,-0.06628l-0.00527,-0.00555l-0.02924,-0.0516l-0.0017,-0.00611l-0.00929,-0.0147l-0.00501,-0.01517l-0.01516,-0.01017l-0.00587,-0.03375c-0.68435,-0.44132 -1.14274,-1.6221 -1.08338,-4.00214c0.00202,-0.08054 0.9674,0.66623 2.05335,1.15302l0.15039,-0.13447z" fill="#7d794a" stroke-width="0.5"/><path d="M250.96194,160.48259c0.15812,-0.57152 0.74963,-0.90666 1.32115,-0.74854c0.57152,0.15812 0.90666,0.74963 0.74854,1.32115c-0.15812,0.57152 -0.74963,0.90666 -1.32115,0.74854c-0.57152,-0.15812 -0.90666,-0.74963 -0.74854,-1.32115z" fill="#1c1b11" stroke-width="0.5"/><path d="M254.49848,161.06446c-0.06689,-0.66015 0.13762,-1.22149 0.45672,-1.25386c0.31914,-0.03236 0.63206,0.47662 0.69895,1.13677c0.06689,0.66015 -0.13755,1.22151 -0.45669,1.25384c-0.31914,0.03236 -0.63209,-0.47663 -0.69899,-1.13674z" fill="#1c1b11" stroke-width="0.5"/><path d="M252.21412,164.85351c-0.11563,-0.07063 -0.04504,-0.18627 -0.04504,-0.18627l0.03949,-0.06302c0.13796,-0.29428 0.24969,-0.63086 0.33618,-0.94483c0,0 0.0361,-0.1306 0.16672,-0.09446c0.13063,0.03614 0.0945,0.16674 0.0945,0.16674c-0.09133,0.32891 -0.20889,0.67733 -0.35161,0.98677l-0.05398,0.09005c0,0 -0.07063,0.11563 -0.18627,0.04504z" fill="#1c1b11" stroke-width="0.5"/><path d="M253.12097,165.01717l-0.00003,-0.10499c0.03662,-0.33879 0.11491,-0.69812 0.20558,-1.02717c0,0 0.03613,-0.13059 0.16672,-0.09446c0.13063,0.03614 0.09446,0.16672 0.09446,0.16672c-0.08717,0.31378 -0.16434,0.65992 -0.19726,0.98326l0.00152,0.07437c0,0 0.00111,0.13552 -0.13439,0.13666c-0.13549,0.00115 -0.13664,-0.13438 -0.13664,-0.13438z" data-paper-data="{&quot;index&quot;:null}" fill="#1c1b11" stroke-width="0.5"/><path d="M249.99392,166.57215l-0.00993,-0.06919c0.00373,-0.21989 0.04604,-0.44934 0.10335,-0.65769c0,0 0.02287,-0.08267 0.15351,-0.04653c0.13063,0.03614 0.10772,0.1188 0.10772,0.1188c-0.0553,0.19858 -0.09781,0.41947 -0.09939,0.62952l0.00846,0.04915c0,0 0.01389,0.08945 -0.118,0.07742c-0.13185,-0.01202 -0.14575,-0.10145 -0.14575,-0.10145z" data-paper-data="{&quot;index&quot;:null}" fill="#1c1b11" stroke-width="0.5"/><path d="M250.38071,166.85098l-0.00993,-0.06919c0.00373,-0.21989 0.04604,-0.44934 0.10335,-0.65769c0,0 0.02287,-0.08267 0.15351,-0.04653c0.13063,0.03614 0.10772,0.1188 0.10772,0.1188c-0.0553,0.19858 -0.09781,0.41947 -0.09939,0.62952l0.00846,0.04915c0,0 0.0139,0.08942 -0.11799,0.07739c-0.13185,-0.01202 -0.14575,-0.10145 -0.14575,-0.10145z" data-paper-data="{&quot;index&quot;:null}" fill="#1c1b11" stroke-width="0.5"/><path d="M250.86941,167.0721l-0.00993,-0.06919c0.00373,-0.21989 0.04604,-0.44934 0.10335,-0.65769c0,0 0.02287,-0.08267 0.15351,-0.04653c0.13063,0.03614 0.10772,0.1188 0.10772,0.1188c-0.0553,0.19858 -0.09781,0.41947 -0.09939,0.62952l0.00849,0.04915c0,0 0.01386,0.08944 -0.118,0.07742c-0.13185,-0.01202 -0.14575,-0.10145 -0.14575,-0.10145z" data-paper-data="{&quot;index&quot;:null}" fill="#1c1b11" stroke-width="0.5"/><path d="M251.29156,167.22327l-0.00993,-0.06919c0.00373,-0.21989 0.04604,-0.44934 0.10335,-0.65769c0,0 0.02287,-0.08267 0.15351,-0.04653c0.13063,0.03614 0.10772,0.1188 0.10772,0.1188c-0.0553,0.19858 -0.09781,0.41947 -0.09939,0.62952l0.00846,0.04915c0,0 0.01389,0.08945 -0.118,0.07742c-0.13185,-0.01202 -0.14575,-0.10145 -0.14575,-0.10145z" data-paper-data="{&quot;index&quot;:null}" fill="#1c1b11" stroke-width="0.5"/><path d="M251.71268,167.25387l-0.00993,-0.06919c0.00373,-0.21989 0.04604,-0.44934 0.10335,-0.65769c0,0 0.02287,-0.08267 0.15351,-0.04653c0.13063,0.03614 0.10772,0.1188 0.10772,0.1188c-0.0553,0.19858 -0.09781,0.41947 -0.09939,0.62952l0.00846,0.04915c0,0 0.0139,0.08942 -0.11799,0.07739c-0.13185,-0.01202 -0.14575,-0.10145 -0.14575,-0.10145z" data-paper-data="{&quot;index&quot;:null}" fill="#1c1b11" stroke-width="0.5"/><path d="M252.22399,167.26902l-0.01283,-0.0587c-0.00595,-0.1849 0.02584,-0.37616 0.07328,-0.54901c0,0 0.01898,-0.0686 0.14961,-0.03246c0.13063,0.03614 0.11161,0.10473 0.11161,0.10473c-0.04594,0.16473 -0.07825,0.34877 -0.0706,0.52547l0.01054,0.04175c0,0 0.01761,0.0759 -0.11317,0.05998c-0.13077,-0.01592 -0.14843,-0.09176 -0.14843,-0.09176z" data-paper-data="{&quot;index&quot;:null}" fill="#1c1b11" stroke-width="0.5"/><path d="M252.67853,167.17884l-0.01478,-0.05166c-0.0124,-0.1616 0.01234,-0.32737 0.05325,-0.47658c0,0 0.01637,-0.05919 0.14697,-0.02306c0.13063,0.03614 0.11422,0.09532 0.11422,0.09532c-0.0397,0.14217 -0.06522,0.30165 -0.05142,0.45612l0.0119,0.03682c0,0 0.02011,0.06685 -0.10996,0.04838c-0.13006,-0.01848 -0.1502,-0.08534 -0.1502,-0.08534z" data-paper-data="{&quot;index&quot;:null}" fill="#1c1b11" stroke-width="0.5"/><path d="M253.0147,167.08178l-0.01898,-0.03648c-0.02637,-0.11108 -0.01693,-0.22172 0.00982,-0.31963c0,0 0.01075,-0.03885 0.14138,-0.00271c0.13063,0.03614 0.11985,0.07498 0.11985,0.07498c-0.02615,0.09322 -0.03696,0.19954 -0.00985,0.30587l0.01484,0.0261c0,0 0.02556,0.04727 -0.10299,0.0232c-0.12852,-0.02406 -0.15408,-0.07133 -0.15408,-0.07133z" data-paper-data="{&quot;index&quot;:null}" fill="#1c1b11" stroke-width="0.5"/><path d="M244.73653,181.08099c-1.47231,-0.36601 -2.78438,-1.08604 -3.94345,-2.07214c0,0 -0.30851,-0.26256 -0.04595,-0.57107c0.26259,-0.3085 0.57107,-0.04595 0.57107,-0.04595c1.02657,0.87406 2.17969,1.52095 3.4738,1.8668c0.05305,-0.31953 0.14277,-0.63324 0.2688,-0.92593c-1.4934,-0.50423 -2.79826,-1.19798 -3.94886,-2.31636c0,0 -0.29013,-0.28275 -0.00738,-0.57289c0.28274,-0.2901 0.57289,-0.00738 0.57289,-0.00738c1.09512,1.06987 2.35281,1.72266 3.79927,2.18437c0.21482,-0.27657 0.4759,-0.50904 0.78273,-0.67531c-1.58985,-0.58108 -3.09918,-1.51392 -3.96349,-2.97991c0,0 -0.2055,-0.34911 0.14364,-0.55463c0.34914,-0.20552 0.5546,0.1436 0.5546,0.1436c0.90594,1.54173 2.65708,2.41829 4.34189,2.88992l0.11194,0.0223c0,0 0.09689,0.02023 0.18486,0.08855c0.06196,-0.30029 0.12645,-0.59695 0.2028,-0.892c-0.23257,-0.47606 -0.37314,-1.14991 -0.2546,-1.95503c-0.28691,-0.38927 -0.66963,-0.70854 -1.25294,-0.92487c0,0 -0.37937,-0.14213 -0.23727,-0.52148c0.14213,-0.37937 0.52151,-0.23726 0.52151,-0.23726c0.73369,0.27727 1.21304,0.67968 1.57645,1.17227c0.18882,0.07653 0.22777,0.24125 0.23145,0.34944c0.11797,0.19741 0.22433,0.40617 0.3261,0.62442l0.08419,0.04297l-0.03388,0.0664c0.02659,0.05855 0.05293,0.1178 0.07917,0.17761c0.6301,0.48322 0.93366,1.29252 1.14421,2.17441c0.32273,0.10683 0.63551,0.26336 0.9601,0.46482c0.1706,-0.00479 0.34154,0.01612 0.50215,0.06939c0.43942,0.14576 0.80862,0.38407 1.10791,0.68325c-0.31087,0.9487 -0.57518,1.97526 -0.7696,2.9987c-0.43581,0.6511 -0.87287,1.37579 -1.2818,2.13101c-0.11258,-0.00101 -0.22533,-0.00002 -0.33813,0.00226c-2.20151,-0.79292 -4.89641,-1.49887 -6.73296,-1.58411c-0.82681,-0.22277 -1.6215,-0.49104 -2.45256,-0.77494c0,0 -0.38321,-0.13134 -0.25191,-0.51459c0.13131,-0.38322 0.51459,-0.25191 0.51459,-0.25191c1.03034,0.35409 1.9984,0.67979 3.05095,0.92212c0.09743,-0.18779 0.24058,-0.38881 0.41249,-0.58938c-0.00204,-0.03572 -0.00366,-0.07155 -0.00478,-0.1075z" data-paper-data="{&quot;index&quot;:null}" fill="#ffffff" stroke-width="0.5"/></g><path d="M226.375,155.25833c0,-1.03085 0.62392,-1.91598 1.51473,-2.29836c0.06645,-0.25966 0.18341,-0.53566 0.36527,-0.82664c1.325,-2.11999 3.445,-0.795 3.445,-0.795c2.36279,1.48015 5.51494,2.58799 7.56616,4.4788c4.84543,4.46651 5.51671,10.73513 6.19356,16.86512c0.30541,2.76599 1.24314,7.3241 -1.10157,9.5983c-1.26012,1.22224 -2.98448,2.83692 -4.68577,2.40406c-1.72366,-0.43855 -2.47733,-2.69204 -3.05608,-4.37382c-0.40402,-1.17405 0.1621,-2.47818 0.27253,-3.71489c0.24482,-2.74191 0.68461,-4.60327 0.04572,-7.29525c-1.03109,-4.81264 -3.69942,-8.31629 -8.05516,-10.36698c-0.66169,-0.09033 -2.20437,-0.51149 -2.20437,-2.47535c0,-0.00385 0.00001,-0.00768 0.00002,-0.01152c-0.19136,-0.35349 -0.30002,-0.7583 -0.30002,-1.18848z" fill="#7c5c32" stroke="none" stroke-width="0.5" stroke-linecap="butt"/></g></g></svg>