<svg version="1.1" xmlns="http://www.w3.org/2000/svg" xmlns:xlink="http://www.w3.org/1999/xlink" width="24.77901" height="19.06591" viewBox="0,0,24.77901,19.06591"><g transform="translate(-232.92825,-176.46138)"><g data-paper-data="{&quot;isPaintingLayer&quot;:true}" fill-rule="nonzero" stroke-linecap="butt" stroke-linejoin="miter" stroke-miterlimit="10" stroke-dasharray="" stroke-dashoffset="0" style="mix-blend-mode: normal"><path d="M242.79351,195.48335c-1.24529,-0.31898 -1.81662,-2.28812 -1.27613,-4.39818c0.54049,-2.11007 1.98815,-3.56203 3.23344,-3.24305c1.24529,0.31898 1.81663,2.28811 1.27613,4.39817c-0.54049,2.11007 -1.98815,3.56204 -3.23344,3.24306z" data-paper-data="{&quot;index&quot;:null}" fill="#894b28" stroke="none" stroke-width="0"/><path d="M241.00073,191.84273c-5.41353,-1.38668 -8.94371,-5.8618 -7.88487,-9.99545c1.05884,-4.13365 6.30573,-6.36052 11.71926,-4.97384c5.41353,1.38668 8.94371,5.8618 7.88487,9.99545c-1.05884,4.13365 -6.30573,6.36052 -11.71926,4.97384z" data-paper-data="{&quot;index&quot;:null}" fill="#9a542c" stroke="none" stroke-width="0"/><path d="M257.28679,181.9391c0.50518,3.19185 -3.55982,6.48755 -9.07942,7.36114c-5.5196,0.87359 -10.40366,-1.00572 -10.90884,-4.19757c-0.50518,-3.19185 3.55983,-6.48754 9.07943,-7.36113c5.51961,-0.87359 10.40366,1.00572 10.90884,4.19757z" data-paper-data="{&quot;index&quot;:null}" fill="#9a542c" stroke="none" stroke-width="0"/><path d="M238.12935,194.84481c-1.24529,-0.31898 -1.81663,-2.28812 -1.27614,-4.39819c0.5405,-2.11008 1.98816,-3.56203 3.23345,-3.24305c1.24529,0.31898 1.81663,2.28812 1.27614,4.39819c-0.5405,2.11008 -1.98816,3.56203 -3.23345,3.24305z" data-paper-data="{&quot;index&quot;:null}" fill="#9a542c" stroke="none" stroke-width="0"/><path d="M246.82896,187.32879c-0.46697,-0.11962 -0.75935,-0.55308 -0.65302,-0.96818c0.10633,-0.41509 0.57108,-0.65463 1.03806,-0.53501c0.46697,0.11962 0.75935,0.55308 0.65302,0.96818c-0.10633,0.41509 -0.57108,0.65463 -1.03806,0.53501z" data-paper-data="{&quot;index&quot;:null}" fill="#000000" stroke="#000000" stroke-width="0.5"/><path d="M256.85399,182.25543c0.02543,-0.06396 0.05876,-0.12467 0.09756,-0.18274l-0.04665,-0.02243l0.12879,-0.26788c-0.0872,-0.17216 -0.18949,-0.33471 -0.26978,-0.46954l-0.0579,-0.03324c0,0 -0.18886,-0.16379 -0.02507,-0.35266c0.16379,-0.18886 0.35266,-0.02507 0.35266,-0.02507l0.16054,0.15621c0.33972,0.57652 0.71398,1.24107 0.38739,1.87938c0,0 -0.06193,0.11451 -0.17905,0.13358c-0.09193,0.12597 -0.26025,0.08285 -0.26025,0.08285l-0.06264,-0.01604c-0.64559,-0.16537 -1.12063,-0.08574 -1.76722,0.05402c0,0 -0.24436,0.05283 -0.29718,-0.19153c-0.05283,-0.24436 0.19153,-0.29718 0.19153,-0.29718c0.37738,-0.08158 0.70984,-0.14207 1.04476,-0.1545c0.01598,-0.00937 0.02681,-0.01385 0.02681,-0.01385c0.17771,-0.07319 0.43012,-0.14341 0.57569,-0.2794z" data-paper-data="{&quot;index&quot;:null}" fill="#000000" stroke="none" stroke-width="0.5"/><path d="M240.32667,190.83924c-0.36551,0.42228 -0.7282,0.83366 -1.23094,1.07363c-0.07595,0.59142 -0.2807,1.13678 -0.73501,1.43836c0,0 -0.21511,0.12739 -0.34249,-0.08773c-0.12739,-0.21511 0.08773,-0.34249 0.08773,-0.34249c0.74003,-0.33806 0.52739,-2.12225 0.44401,-2.76128l0.00106,-0.2835c0,0 0.00144,-0.25 0.25144,-0.24855c0.25,0.00144 0.24855,0.25144 0.24855,0.25144l-0.00202,0.24965c0.04434,0.33983 0.08752,0.76366 0.08412,1.19712c0.3493,-0.23371 0.62813,-0.59798 0.90201,-0.9138l0.31354,-0.06235c0,0 0.24218,0.06203 0.18015,0.30422c-0.03515,0.13724 -0.12816,0.17679 -0.20215,0.18529z" data-paper-data="{&quot;index&quot;:null}" fill="#000000" stroke="none" stroke-width="0.5"/></g></g></svg>