<svg version="1.1" xmlns="http://www.w3.org/2000/svg" xmlns:xlink="http://www.w3.org/1999/xlink" width="14.31922" height="6.73089" viewBox="0,0,14.31922,6.73089"><g transform="translate(-237.57355,-176.39727)"><g data-paper-data="{&quot;isPaintingLayer&quot;:true}" fill="#7c5c32" fill-rule="nonzero" stroke="none" stroke-width="0.5" stroke-linecap="butt" stroke-linejoin="miter" stroke-miterlimit="10" stroke-dasharray="" stroke-dashoffset="0" style="mix-blend-mode: normal"><path d="M237.6809,177.50412c-0.0239,-0.04255 -0.04233,-0.09271 -0.05257,-0.15184c-0.02932,-0.05878 -0.04909,-0.13117 -0.05378,-0.22032c-0.02628,-0.49931 0.47303,-0.52559 0.47303,-0.52559c4.14781,-0.20654 9.23922,-0.9212 12.58066,2.39312c0.8662,1.07998 2.59166,4.7017 -0.51608,4.05102c-1.17197,-0.24538 -1.9861,-1.49095 -3.00618,-2.05199c-1.19079,-0.65493 -2.70285,-0.66624 -4.03212,-0.66558c-0.93545,0 -4.2371,0.94805 -4.911,0.38411c-0.41698,-0.34894 -0.44039,-2.3841 -0.48196,-3.21295z"/></g></g></svg>