<svg version="1.1" xmlns="http://www.w3.org/2000/svg" xmlns:xlink="http://www.w3.org/1999/xlink" width="88.30662" height="139.11165" viewBox="0,0,88.30662,139.11165"><g transform="translate(-183.59233,-109.53894)"><g data-paper-data="{&quot;isPaintingLayer&quot;:true}" fill-rule="nonzero" stroke="none" stroke-linecap="butt" stroke-linejoin="miter" stroke-miterlimit="10" stroke-dasharray="" stroke-dashoffset="0" style="mix-blend-mode: normal"><path d="M258.01613,134.91748c0,9.89143 -10.01284,17.91001 -22.36431,17.91001c-12.35147,0 -22.3643,-8.01859 -22.3643,-17.91001c0,-9.89143 10.01283,-17.91 22.3643,-17.91c12.35147,0 22.36431,8.01858 22.36431,17.91z" fill="#61691f" stroke-width="0"/><path d="M183.59233,148.00213v0v0z" fill="#61691f" stroke-width="0"/><path d="M260.05769,174.29352c0,20.80786 -14.95694,37.67597 -33.40727,37.67597c-18.45032,0 -33.40727,-16.86811 -33.40727,-37.67597c0,-20.80786 14.95694,-37.67597 33.40727,-37.67597c18.45032,0 33.40727,16.86811 33.40727,37.67597z" fill="#61691f" stroke-width="0"/><path d="M259.14996,200.18315c-7.97826,11.24343 -20.20607,16.27068 -27.31159,11.22865c-7.10552,-5.04202 -6.39802,-18.244 1.58024,-29.48743c7.97826,-11.24343 20.20607,-16.27068 27.31159,-11.22865c7.10552,5.04202 6.39802,18.244 -1.58024,29.48743z" fill="#61691f" stroke-width="0"/><path d="M222.70416,155.36868c0.3253,-0.43397 0.78833,-0.1253 0.78833,-0.1253c3.30906,2.20603 4.44621,7.90418 8.35396,8.82745c5.20508,1.33644 10.9911,1.28163 16.3755,1.28163c6.1196,0 9.4323,1.99794 14.38478,-2.71441c3.72461,-0.81893 3.9037,2.96572 2.61803,3.96954c0.47606,-0.0526 1.00594,-0.10134 1.29938,-0.13715c1.02128,-0.12466 4.23531,-0.37649 4.92476,0.33708c1.45444,1.50533 -0.98728,2.13913 -2.08174,2.5775c1.45069,0.68345 2.6307,2.10725 1.3318,2.89639c0.56779,0.29467 0.96486,0.75485 0.93582,1.39291c-0.06031,1.32566 -1.2889,1.772 -2.74081,1.88407c1.36382,0.68608 2.13264,1.62313 0.79489,2.75983c-1.70343,1.44742 -7.33193,-1.07595 -8.81463,-2.06172c-5.34941,-4.05897 -12.02068,-2.93585 -18.26863,-3.97718c-5.96973,0.01359 -11.08164,-1.24018 -16.87127,-2.26633c-4.04088,-2.80921 -11.04903,-4.03801 -9.22995,-11.17763c1.47268,-2.194 3.25634,-3.17304 5.83444,-3.68205z" fill="#454a16" stroke-width="0.5"/><path d="M240.86408,175.93274c-0.12606,-0.06304 -0.20678,-0.14119 -0.25664,-0.22357c0.01514,0.21471 -0.10513,0.3951 -0.10513,0.3951c-2.99706,4.04226 -6.07595,8.03976 -9.00224,13.03586c-1.78212,3.04264 -3.56424,6.08529 -5.34636,9.12793l-0.48095,0.82113c0,0 -0.29702,0.50711 -0.80412,0.21009c-0.50711,-0.29702 -0.21009,-0.80412 -0.21009,-0.80412c1.78212,-3.04264 4.0452,-6.90643 5.82732,-9.94908c1.94448,-3.31985 4.0028,-6.45311 5.24918,-9.76954c0.64122,-1.70617 3.1626,-2.14266 3.78929,-3.32425c0,0 0.32599,-0.48898 0.81498,-0.16299c0.09282,0.06188 0.15627,0.12962 0.19816,0.19879c-0.01516,-0.18596 0.06378,-0.34382 0.06378,-0.34382l0.71125,-0.69606c1.62191,0.04198 3.46798,-1.06355 5.05414,-1.46723c0,0 0.57014,-0.14253 0.71268,0.42761c0.14254,0.57014 -0.4276,0.71267 -0.4276,0.71267c-1.74787,0.42769 -3.53841,1.47006 -5.33922,1.50232l0.34005,0.04632c0,0 -0.26283,0.52565 -0.78847,0.26283z" fill="#454a16" stroke-width="0.5"/><path d="M232.48111,210.63918c-0.52564,0.26283 -0.78847,-0.26283 -0.78847,-0.26283l-0.23623,-0.51875c-0.36242,-1.83929 -1.11473,-3.78901 -1.12498,-5.68313c0,0 0,-0.58769 0.58769,-0.58769c0.58769,0 0.58769,0.58769 0.58769,0.58769c-0.01174,1.78895 0.74893,3.71558 1.10215,5.45262l0.13497,0.22363c0,0 0.26281,0.52564 -0.26283,0.78847z" fill="#454a16" stroke-width="0.5"/><path d="M257.45934,199.68926c0.32457,0 0.58769,0.26312 0.58769,0.58769c0,0.25871 -0.16717,0.47839 -0.39939,0.55688c0.17744,0.4741 -0.29667,0.71115 -0.29667,0.71115l-0.30802,0.14893c-0.04723,0.02947 -0.0957,0.05776 -0.14537,0.08487c-0.02266,0.0617 -0.05537,0.11853 -0.09616,0.16853c0.08255,0.1012 0.13203,0.23042 0.13203,0.3712c0,0.32457 -0.26312,0.58769 -0.58769,0.58769c-0.03489,0 -0.06905,-0.00304 -0.10226,-0.00887c-0.17338,0.19447 -0.45452,0.19447 -0.45452,0.19447h-0.74239c0,0 -0.13936,0 -0.28236,-0.06787c-0.08191,0.04334 -0.17531,0.06787 -0.27443,0.06787c-0.14078,0 -0.26998,-0.0495 -0.37118,-0.13204c-0.1012,0.08255 -0.23042,0.13204 -0.3712,0.13204c-0.05742,0 -0.1129,-0.00823 -0.16535,-0.02358c-0.23409,0.07882 -0.46866,-0.03847 -0.46866,-0.03847l-0.25091,-0.14109c-0.23268,-0.05817 -0.46534,-0.11634 -0.69802,-0.17451c-0.02853,0.00425 -0.05772,0.00645 -0.08742,0.00645c-0.32457,0 -0.58769,-0.26312 -0.58769,-0.58769c0,-0.01041 0.00027,-0.02076 0.00081,-0.03104c-0.9478,-0.14749 -1.83387,-0.34341 -2.52518,-0.51238c0,0 -0.57015,-0.14254 -0.42761,-0.71268c0.14254,-0.57014 0.71268,-0.42761 0.71268,-0.42761c0.78536,0.20165 2.19179,0.51516 3.58203,0.66126c0.05134,-0.03959 0.10943,-0.07088 0.17222,-0.09186c0.03165,-0.09475 0.08678,-0.17875 0.15849,-0.2451c0.02815,-0.27645 0.24793,-0.49623 0.52438,-0.52438c0.10736,-0.11601 0.26092,-0.18865 0.43145,-0.18865c0.15233,0 0.29112,0.05795 0.39553,0.15301c0.09375,-0.20005 0.29691,-0.3386 0.53245,-0.3386c0.14078,0 0.27,0.04948 0.3712,0.13203c0.1012,-0.08255 0.23042,-0.13203 0.3712,-0.13203c0.03157,0 0.06257,0.00248 0.0928,0.00728c0.03023,-0.0048 0.06123,-0.00728 0.0928,-0.00728c0.03157,0 0.06257,0.00248 0.0928,0.00728c0.03023,-0.0048 0.06123,-0.00728 0.0928,-0.00728c0.09456,0 0.1839,0.02232 0.26304,0.062c0.1065,-0.14985 0.2815,-0.24761 0.47934,-0.24761c0.10073,0 0.19554,0.02534 0.2784,0.06999c0.08286,-0.04465 0.17766,-0.06999 0.27839,-0.06999z" fill="#454a16" stroke-width="0.5"/><path d="M208.05992,143.1134c0,-0.32457 0.26312,-0.58769 0.58769,-0.58769c0.32457,0 0.58769,0.26312 0.58769,0.58769c0,0.32457 -0.26312,0.58769 -0.58769,0.58769c-0.32457,0 -0.58769,-0.26312 -0.58769,-0.58769z" fill="#454a16" stroke-width="0.5"/><path d="M204.34801,146.08294c0,-0.32457 0.26312,-0.58769 0.58769,-0.58769c0.32457,0 0.58769,0.26312 0.58769,0.58769c0,0.32457 -0.26312,0.58769 -0.58769,0.58769c-0.32457,0 -0.58769,-0.26312 -0.58769,-0.58769z" fill="#454a16" stroke-width="0.5"/><path d="M200.0793,151.65081c0,-0.32457 0.26312,-0.58769 0.58769,-0.58769c0.32457,0 0.58769,0.26312 0.58769,0.58769c0,0.32457 -0.26312,0.58769 -0.58769,0.58769c-0.32457,0 -0.58769,-0.26312 -0.58769,-0.58769z" fill="#454a16" stroke-width="0.5"/><path d="M196.36738,157.96108c0,-0.32457 0.26312,-0.58769 0.58769,-0.58769c0.32457,0 0.58769,0.26312 0.58769,0.58769c0,0.32457 -0.26312,0.58769 -0.58769,0.58769c-0.32457,0 -0.58769,-0.26312 -0.58769,-0.58769z" fill="#454a16" stroke-width="0.5"/><path d="M193.58344,165.01372c0,-0.32457 0.26312,-0.58769 0.58769,-0.58769c0.32457,0 0.58769,0.26312 0.58769,0.58769c0,0.32457 -0.26312,0.58769 -0.58769,0.58769c-0.32457,0 -0.58769,-0.26312 -0.58769,-0.58769z" fill="#454a16" stroke-width="0.5"/><path d="M248.70543,141.13371c0,-0.58769 0.58769,-0.58769 0.58769,-0.58769c0.74238,0 1.85596,0 2.59834,0c0.55183,0 4.38912,1.10379 4.64286,0.39107c0.79922,-2.2449 -3.22902,-5.39227 -4.05493,-6.96439c0,0 -0.26283,-0.52564 0.26281,-0.78847c0.52564,-0.26283 0.78847,0.26283 0.78847,0.26283c0.76344,1.64436 6.58336,7.13531 3.00093,8.80098c-1.31436,0.61111 -3.26845,-0.52664 -4.64015,-0.52664c-0.74238,0 -1.48477,0 -2.22716,0h-0.37118c0,0 -0.58769,0 -0.58769,-0.58769z" fill="#454a16" stroke-width="0.5"/><path d="M243.50874,130.74034c0,-0.32457 0.26312,-0.58769 0.58769,-0.58769c0.32457,0 0.58769,0.26312 0.58769,0.58769c0,0.32457 -0.26312,0.58769 -0.58769,0.58769c-0.32457,0 -0.58769,-0.26312 -0.58769,-0.58769z" fill="#454a16" stroke-width="0.5"/><path d="M255.38689,130.55475c0,-0.32457 0.26312,-0.58769 0.58769,-0.58769c0.32457,0 0.58769,0.26312 0.58769,0.58769c0,0.32457 -0.26312,0.58769 -0.58769,0.58769c-0.32457,0 -0.58769,-0.26312 -0.58769,-0.58769z" fill="#454a16" stroke-width="0.5"/><path d="M236.5548,141.4597c0,0 -0.32599,-0.48898 0.163,-0.81497c0.48899,-0.32599 0.81497,0.16299 0.81497,0.16299c0.61729,0.92917 1.1057,1.82452 2.06415,2.43535l-0.14039,-0.0987c0,0 0.43879,-0.00001 0.55807,0.37914c4.15641,0.67603 9.31584,0.5754 13.36163,0.54883h0.74238c0,0 0.58769,0 0.58769,0.58769c0,0.58769 -0.58769,0.58769 -0.58769,0.58769h-0.74238c-4.52027,-0.02445 -10.14454,0.12249 -14.59174,-0.75379c0,0 -0.57628,-0.11526 -0.46102,-0.69153c0.00428,-0.02142 0.0092,-0.04187 0.0147,-0.06141c-0.72129,-0.6537 -1.20814,-1.42176 -1.78338,-2.28128z" fill="#454a16" stroke-width="0.5"/><path d="M227.94984,139.4641c-0.55753,0.18584 -0.74338,-0.37169 -0.74338,-0.37169l-0.04362,-0.32707c-2.65302,-2.67103 -2.58488,-4.4899 -2.58488,-8.02499c0,0 0,-0.57736 0.57228,-0.58755c-0.00997,-0.04645 -0.01549,-0.09789 -0.01549,-0.15483c0,-0.58769 0.58769,-0.58769 0.58769,-0.58769c4.05413,0 4.61871,1.053 5.58123,4.89946l0.1856,0.74238c0,0 0.14253,0.57014 -0.42761,0.71268c-0.57014,0.14254 -0.71268,-0.42761 -0.71268,-0.42761l-0.18559,-0.74238c-0.85899,-3.43906 -0.88326,-4.00824 -4.4324,-4.00915c0.02236,0.08822 0.02236,0.15469 0.02236,0.15469c0,3.31915 -0.28901,4.68401 2.24061,7.19388l0.32758,0.78649c0,0 0.18584,0.55754 -0.37169,0.74338z" fill="#454a16" stroke-width="0.5"/><path d="M229.65086,133.70988c0,0.46847 -0.37345,0.56351 -0.52496,0.58279c-0.19172,0.19172 -0.38344,0.38344 -0.57516,0.57516c0,0 -0.02636,0.02636 -0.07246,0.05918c0.05937,0.12607 0.12017,0.25145 0.18255,0.37602l0.06205,0.63401c0,0 0,0.58769 -0.58769,0.58769c-0.58769,0 -0.58769,-0.58769 -0.58769,-0.58769l0.06205,-0.10837c-0.27943,-0.5597 -0.52978,-1.13419 -0.7624,-1.71492c0,0 -0.21827,-0.54565 0.32739,-0.76391c0.54566,-0.21827 0.76393,0.32739 0.76393,0.32739c0.01338,0.03347 0.0268,0.06693 0.04029,0.10035c0.16109,-0.16109 0.32217,-0.32216 0.48326,-0.48325l0.60116,-0.17213c0,0 0.58769,0 0.58769,0.58769z" fill="#454a16" stroke-width="0.5"/><path d="M221.29904,211.28897c0,0.58769 -0.58769,0.58769 -0.58769,0.58769l-0.40386,-0.04203c-4.45874,-1.84553 -10.06636,-3.14248 -12.55671,-8.07786c0,0 -0.26282,-0.52565 0.26282,-0.78847c0.52565,-0.26282 0.78847,0.26282 0.78847,0.26282c2.26116,4.57088 7.82433,5.91058 11.94195,7.5122l-0.03267,-0.04203c0,0 0.58769,0 0.58769,0.58769z" fill="#454a16" stroke-width="0.5"/><path d="M235.00223,120.56347c-0.02347,0 -0.046,-0.00094 -0.06763,-0.00274c-0.37123,0.09463 -0.60696,-0.25896 -0.60696,-0.25896c-0.06971,-0.11082 -0.14377,-0.21129 -0.22169,-0.30271c-0.2307,-0.06858 -0.35637,-0.2885 -0.35637,-0.2885c-0.01636,-0.02864 -0.03286,-0.05837 -0.04949,-0.08911c-0.96911,-0.71247 -2.30373,-0.60292 -3.38992,-1.33538l-0.64717,-0.1529c0,0 -0.57014,-0.14254 -0.42761,-0.71268c0.14254,-0.57014 0.71268,-0.42761 0.71268,-0.42761l0.8376,0.21829c0.72944,0.4811 1.47924,0.66255 2.19539,0.88582c-0.51458,-1.08746 -1.15777,-2.22552 -2.01889,-2.37657l-0.74238,-0.1856c0,0 -0.57014,-0.14254 -0.42761,-0.71268c0.14254,-0.57014 0.71268,-0.42761 0.71268,-0.42761l0.74238,0.1856c1.66708,0.48917 2.3935,2.33171 3.16729,3.8764c0,-0.25864 0,-0.50353 0,-0.70791c0,0 0,-0.1131 0.04961,-0.24006c-0.90043,-3.30742 -1.79002,-4.81696 -5.47822,-6.65813l-0.33833,-0.29568c0,0 -0.41556,-0.41556 0,-0.83112c0.41556,-0.41556 0.83112,0 0.83112,0l0.03286,0.07551c2.20302,1.10337 3.52434,2.14372 4.43639,3.47253c-0.06475,-0.76861 -0.09022,-1.55448 -0.09022,-2.3901v-0.1856c0,0 0,-0.58769 0.58769,-0.58769c0.58769,0 0.58769,0.58769 0.58769,0.58769v0.1856c0,1.37758 0.06741,2.60109 0.27839,3.84578c0.49939,-1.89985 1.65066,-3.36123 4.09286,-4.01204l0.46855,-0.32273c0,0 0.48899,-0.32599 0.81498,0.163c0.32599,0.48899 -0.163,0.81498 -0.163,0.81498l-0.64503,0.41966c-3.03243,0.70062 -3.64381,2.82713 -3.72327,5.43877c1.82863,-1.73777 4.12085,-1.92402 6.82624,-1.92402h0.1856c0,0 0.58769,0 0.58769,0.58769c0,0.58769 -0.58769,0.58769 -0.58769,0.58769h-0.1856c-2.88497,0 -5.18293,0.07798 -6.93485,2.70784c0,0 -0.17386,0.26078 -0.45809,0.2745c0,0.0473 0,0.0946 0,0.1419v0.37119c0,0 0,0.58769 -0.58769,0.58769z" fill="#4a2016" stroke-width="0.5"/><g stroke-width="0.5"><path d="M245.85912,204.40675c2.59658,0 4.70152,2.10494 4.70152,4.70152c0,0.06215 -0.00121,0.12403 -0.0036,0.1856c0.00239,0.06157 0.0036,0.12344 0.0036,0.1856c0,0.09346 -0.00273,0.18628 -0.00811,0.27839c0.00538,0.09211 0.00811,0.18493 0.00811,0.27839c0,0.12151 -0.00461,0.24195 -0.01366,0.36115c0.24762,0.57204 0.38486,1.203 0.38486,1.866c0,0.55339 -0.09561,1.08445 -0.27121,1.57757c0.1756,0.49311 0.27121,1.02417 0.27121,1.57757c0,0.70959 -0.1572,1.38247 -0.43868,1.9857c0.04437,0.25944 0.06749,0.52614 0.06749,0.79823c0,1.05678 -0.34867,2.03213 -0.93724,2.81728c0.99506,5.49901 1.35277,11.30128 5.29859,15.56761c2.55938,2.76727 9.95025,4.38834 7.02043,9.51552c-1.94012,3.39522 -22.91514,3.26584 -24.55831,0.39029c-2.63245,-4.60679 1.05539,-5.87897 0.98955,-10.6371c-0.10018,-7.23943 -2.14958,-15.36548 -1.26091,-22.61883c-0.02525,-0.19732 -0.03827,-0.39847 -0.03827,-0.60266c0,-0.80136 0.20049,-1.55588 0.55404,-2.21616c0.01577,-0.06308 0.03918,-0.13775 0.09563,-0.17001c0.74162,-1.25659 2.05112,-2.13811 3.57544,-2.2915c0.51352,-2.03997 2.36015,-3.55016 4.55951,-3.55016z" fill="#61691f"/><path d="M261.66567,241.44841c0,0.58769 -0.58769,0.58769 -0.58769,0.58769c-0.74238,0 -1.85596,0 -2.59834,0c0,0 -0.58769,0 -0.58769,-0.58769c0,-0.58769 0.58769,-0.58769 0.58769,-0.58769c0.74238,0 1.48477,0 2.22715,0h0.37119c0,0 0.58769,0 0.58769,0.58769z" fill="#454a16"/><path d="M263.33604,243.11878c0,0.58769 -0.58769,0.58769 -0.58769,0.58769c-0.98984,0 -2.35088,0 -3.34073,0c0,0 -0.58769,0 -0.58769,-0.58769c0,-0.58769 0.58769,-0.58769 0.58769,-0.58769c0.98984,0 1.97969,0 2.96953,0h0.37119c0,0 0.58769,0 0.58769,0.58769z" fill="#454a16"/><path d="M262.22246,245.16033c0,0.58769 -0.58769,0.58769 -0.58769,0.58769l-0.51159,-0.0987c-0.56765,-0.42133 -1.00972,-0.27249 -1.71556,-0.27249c0,0 -0.58769,0 -0.58769,-0.58769c0,-0.58769 0.58769,-0.58769 0.58769,-0.58769c0.98014,0 1.51812,-0.06026 2.36755,0.46989l-0.1404,-0.0987c0,0 0.58769,0 0.58769,0.58769z" fill="#454a16"/><path d="M261.10888,246.27391c0,0.58769 -0.58769,0.58769 -0.58769,0.58769c-0.74238,0 -1.85596,0 -2.59834,0c0,0 -0.58769,0 -0.58769,-0.58769c0,-0.58769 0.58769,-0.58769 0.58769,-0.58769c0.74238,0 1.48477,0 2.22715,0h0.37119c0,0 0.58769,0 0.58769,0.58769z" fill="#454a16"/><path d="M240.47683,243.89206c-0.58769,0 -0.58769,-0.58769 -0.58769,-0.58769v-0.37119c0,-0.89864 0.10576,-1.36501 -0.30915,-2.14992c0,0 -0.26282,-0.52565 0.26282,-0.78847c0.52565,-0.26282 0.78847,0.26282 0.78847,0.26282c0.47371,0.9873 0.43324,1.59312 0.43324,2.67557v0.37119c0,0 0,0.58769 -0.58769,0.58769z" fill="#454a16"/><path d="M242.1472,235.72584c-0.58769,0 -0.58769,-0.58769 -0.58769,-0.58769v-0.74238c0,-1.97996 -0.2158,-3.32154 -1.68383,-4.78113c0,0 -0.41556,-0.41556 0,-0.83112c0.41556,-0.41556 0.83112,0 0.83112,0c1.67535,1.68403 2.02809,3.32143 2.02809,5.61225v0.74238c0,0 0,0.58769 -0.58769,0.58769z" fill="#454a16"/><path d="M250.80241,208.82873c0.32599,0.48899 -0.163,0.81498 -0.163,0.81498l-0.5878,0.3905c-2.24786,1.12393 -4.90193,2.60725 -7.59343,3.6476c1.39286,3.3585 2.0579,9.41859 -1.05336,11.27947l-0.88278,-0.46989c0,0 -0.48899,-0.32599 -0.163,-0.81498c0.32599,-0.48899 0.81498,-0.163 0.81498,-0.163l0.2308,0.27249c1.58734,-2.53555 1.21499,-6.92708 -0.03188,-9.71095c-1.49904,0.50448 -2.99433,0.83856 -4.42242,0.86415c0,0 -0.58769,0 -0.58769,-0.58769c0,-0.58769 0.58769,-0.58769 0.58769,-0.58769c1.22859,0.0318 2.55668,-0.24102 3.90842,-0.6848c-0.06086,-0.15874 -0.12917,-0.4926 0.24352,-0.71622c0.50394,-0.30236 0.8063,0.20158 0.8063,0.20158c0.02204,0.03719 0.044,0.07512 0.06589,0.11378c2.67801,-1.03946 5.36713,-2.6005 7.48701,-3.66044l0.52577,-0.35188c0,0 0.48899,-0.32599 0.81498,0.163z" fill="#454a16"/></g><g stroke-width="0.5"><path d="M221.55154,206.9808c0.67699,1.01548 -0.55,3.95857 -0.55679,5.33577c-0.02936,5.95772 -0.015,11.91561 0,17.87339c0.013,5.16302 12.14509,3.5718 11.69254,10.13368c-0.49144,7.12584 -21.85921,5.90595 -27.5318,3.53227c-7.15823,-2.99534 4.17429,-18.08106 4.20907,-24.05932c0.0489,-8.40503 -1.6711,-13.20179 -4.4234,-20.55164c-0.59117,-1.57869 -2.10322,-4.97787 -1.12352,-6.44742c0.63798,-0.95696 2.20029,-2.3728 3.06496,-2.66948c6.55063,-2.24757 5.60138,4.24074 7.24515,7.52156c0.94272,0.32822 1.74882,0.94811 2.31023,1.75162c1.69705,0.18711 3.50419,0.80198 4.71146,2.00925c0.98026,0.98026 0.73697,4.00279 0.40209,5.34229z" fill="#61691f"/><path d="M232.09979,237.91089c0,0.58769 -0.58769,0.58769 -0.58769,0.58769l-0.41425,-0.01755c-0.53101,0.12979 -1.08067,0.20019 -1.6273,0.20314c0,0 -0.58769,0 -0.58769,-0.58769c0,-0.58769 0.58769,-0.58769 0.58769,-0.58769c0.45089,0.00296 0.90549,-0.05591 1.34223,-0.16805l0.69932,-0.01755c0,0 0.58769,0 0.58769,0.58769z" fill="#454a16"/><path d="M232.84217,240.13804c0,0.58769 -0.58769,0.58769 -0.58769,0.58769c-0.98984,0 -2.16529,0 -3.15513,0c0,0 -0.58769,0 -0.58769,-0.58769c0,-0.58769 0.58769,-0.58769 0.58769,-0.58769c0.98984,0 1.97969,0 2.96953,0h0.1856c0,0 0.58769,0 0.58769,0.58769z" fill="#454a16"/><path d="M231.17181,241.80841c0,0.58769 -0.58769,0.58769 -0.58769,0.58769c-0.74238,0 -1.67036,0 -2.41275,0c0,0 -0.58769,0 -0.58769,-0.58769c0,-0.58769 0.58769,-0.58769 0.58769,-0.58769c0.74238,0 1.48477,0 2.22715,0h0.1856c0,0 0.58769,0 0.58769,0.58769z" fill="#454a16"/><path d="M229.87264,243.29317c0,0.58769 -0.58769,0.58769 -0.58769,0.58769c-0.74238,0 -1.67036,0 -2.41275,0c0,0 -0.58769,0 -0.58769,-0.58769c0,-0.58769 0.58769,-0.58769 0.58769,-0.58769c0.74238,0 1.48477,0 2.22715,0h0.1856c0,0 0.58769,0 0.58769,0.58769z" fill="#454a16"/><path d="M207.75582,241.46812c-0.58769,0 -0.58769,-0.58769 -0.58769,-0.58769v-0.1856c0,-1.42363 -0.0044,-2.34486 -0.82928,-3.57152c0,0 -0.32599,-0.48899 0.163,-0.81498c0.48899,-0.32599 0.81498,0.163 0.81498,0.163c0.94719,1.43132 1.02668,2.5705 1.02668,4.22351v0.1856c0,0 0,0.58769 -0.58769,0.58769z" fill="#454a16"/><path d="M212.13978,220.44538c0.57628,0.11526 0.46102,0.69153 0.46102,0.69153l-0.17704,0.87063c0.0109,2.60939 -0.98005,5.24872 -1.49332,7.85237c0,0 -0.11526,0.57628 -0.69153,0.46102c-0.57628,-0.11526 -0.46102,-0.69153 -0.46102,-0.69153c0.5208,-2.57109 1.46703,-5.16704 1.47622,-7.73768l0.19415,-0.98533c0,0 0.11526,-0.57628 0.69153,-0.46102z" fill="#454a16"/><path d="M211.28214,214.55671c-0.58769,0 -0.58769,-0.58769 -0.58769,-0.58769v-0.37119c0.02827,-4.30476 -0.68776,-8.37033 -3.05643,-11.92334c0,0 -0.32599,-0.48899 0.163,-0.81498c0.48899,-0.32599 0.81498,0.163 0.81498,0.163c2.51587,3.7738 3.22923,8.02643 3.25383,12.57532v0.37119c0,0 0,0.58769 -0.58769,0.58769z" fill="#454a16"/></g></g></g></svg>