<svg version="1.1" xmlns="http://www.w3.org/2000/svg" xmlns:xlink="http://www.w3.org/1999/xlink" width="16.29143" height="16.91081" viewBox="0,0,16.29143,16.91081"><g transform="translate(-239.46241,-175.93956)"><g data-paper-data="{&quot;isPaintingLayer&quot;:true}" fill-rule="nonzero" stroke-linejoin="miter" stroke-miterlimit="10" stroke-dasharray="" stroke-dashoffset="0" style="mix-blend-mode: normal"><g data-paper-data="{&quot;index&quot;:null}"><path d="M247.52292,178.88997c2.58437,1.05293 4.27932,2.88854 3.78576,4.09997c-0.49356,1.21143 -2.98872,1.33992 -5.5731,0.287c-2.58438,-1.05292 -4.27932,-2.88853 -3.78576,-4.09996c0.49355,-1.21143 2.98871,-1.33992 5.57309,-0.287z" fill="#8c6738" stroke="none" stroke-width="0" stroke-linecap="butt"/><path d="M246.80633,191.81679c-3.47273,-0.6657 -5.79147,-3.79535 -5.17902,-6.99027c0.61244,-3.19492 3.92413,-5.24525 7.39688,-4.57956c3.47274,0.6657 5.79147,3.79535 5.17902,6.99027c-0.61244,3.19492 -3.92413,5.24525 -7.39688,4.57956z" fill="#8c6738" stroke="none" stroke-width="0" stroke-linecap="butt"/><path d="M250.55269,187.86257c-0.52307,-0.95191 0.09967,-2.78289 1.39093,-4.08962c1.29126,-1.30673 2.76206,-1.59434 3.28512,-0.64243c0.52306,0.95191 -0.09967,2.78289 -1.39093,4.08961c-1.29125,1.30672 -2.76206,1.59435 -3.28512,0.64244z" fill="#8c6738" stroke="none" stroke-width="0" stroke-linecap="butt"/><path d="M252.93437,181.63128c1.77622,0.46898 2.7581,1.60117 2.19313,2.52883c-0.56498,0.92765 -2.46289,1.29948 -4.2391,0.8305c-1.77621,-0.46898 -2.7581,-1.60117 -2.19313,-2.52883c0.56498,-0.92765 2.46289,-1.29946 4.2391,-0.83049z" data-paper-data="{&quot;index&quot;:null}" fill="#8c6738" stroke="none" stroke-width="0" stroke-linecap="butt"/><path d="M252.68113,180.97437l0.64043,0.32047l-0.12494,0.80644l-0.68471,-0.14114l0.15458,-0.90949" fill="#b39675" stroke="#b39675" stroke-width="0.5" stroke-linecap="round"/><path d="M255.66255,184.15543c-0.04706,0.24553 -0.29259,0.19846 -0.29259,0.19846l-0.27337,-0.05241c-0.09112,-0.01747 -0.18224,-0.03494 -0.27337,-0.05241c0,0 -0.24553,-0.04706 -0.19846,-0.29259c0.04707,-0.24553 0.2926,-0.19846 0.2926,-0.19846c0.0158,0.00303 0.03983,0.00763 0.06923,0.01327c-0.44576,-1.30338 -2.17428,-1.19882 -3.41773,-1.43718c0,0 -0.24552,-0.04707 -0.19846,-0.2926c0.04707,-0.24553 0.29259,-0.19846 0.29259,-0.19846c1.55211,0.29754 3.49582,0.2184 3.87303,2.04593c0.0683,0.03462 0.15644,0.1105 0.12655,0.26645z" fill="#864e00" stroke="none" stroke-width="0.5" stroke-linecap="butt"/><path d="M255.74787,184.20327c-0.04707,0.24553 -0.29259,0.19846 -0.29259,0.19846l-0.18225,-0.03494c-0.18225,-0.03493 -0.3645,-0.06987 -0.54675,-0.1048c0,0 -0.24553,-0.04707 -0.19846,-0.2926c0.04707,-0.24553 0.2926,-0.19846 0.2926,-0.19846c0.18224,0.03493 0.54673,0.10481 0.72898,0.13975c0,0 0.24553,0.04707 0.19846,0.2926z" fill="#871400" stroke="none" stroke-width="0.5" stroke-linecap="butt"/><path d="M251.67246,187.45411c-0.10871,-0.12811 -0.01064,-0.28573 -0.01064,-0.28573c0.61768,-0.81652 1.27664,0.29142 0.26386,0.42744l-0.07013,-0.00779c0,0 -0.13066,-0.02505 -0.18308,-0.13392z" fill="#000000" stroke="none" stroke-width="0.5" stroke-linecap="butt"/><path d="M248.21481,189.3751c0.19856,0.1519 0.04665,0.35047 0.04665,0.35047l-0.06179,0.07917c-0.25062,0.26523 -0.40465,0.61665 -0.63609,0.91127c0.05169,0.27039 0.11533,0.54148 0.19011,0.83358c0,0 0.06196,0.2422 -0.18024,0.30416c-0.2422,0.06196 -0.30416,-0.18024 -0.30416,-0.18024c-0.17231,-0.67406 -0.28945,-1.25653 -0.33894,-1.94769l-0.00558,0.02095c0,0 -0.09704,-0.2304 0.13336,-0.32743c0.2304,-0.09704 0.32743,0.13336 0.32743,0.13336l0.04352,0.13754c0.00734,0.10342 0.01624,0.20394 0.02666,0.30241c0.11544,-0.18169 0.22928,-0.36235 0.37506,-0.52545l0.03355,-0.04545c0,0 0.1519,-0.19857 0.35046,-0.04666z" fill="#7c4800" stroke="none" stroke-width="0.5" stroke-linecap="butt"/><path d="M248.15122,192.16524c-0.40333,0.53939 -0.97044,0.24438 -1.45507,-0.12404c0,0 -0.19857,-0.1519 -0.04666,-0.35046c0.1519,-0.19856 0.35046,-0.04666 0.35046,-0.04666c0.1636,0.12608 0.68266,0.54303 0.75485,0.22223l0.11082,-0.11128c0,0 0.2069,-0.14033 0.34724,0.06657c0.12727,0.18764 -0.03106,0.32054 -0.06163,0.34365z" fill="#8c6738" stroke="none" stroke-width="0.5" stroke-linecap="butt"/><path d="M249.16941,189.03031c0.24972,0.01187 0.23784,0.26158 0.23784,0.26158l-0.01008,0.15911c-0.14575,0.75844 -0.33357,1.47943 -0.61985,2.19863c-0.736,2.91597 -3.48856,-0.15041 -3.12127,-2.11193c0,0 0.04706,-0.24552 0.29259,-0.19846c0.24553,0.04707 0.19846,0.29259 0.19846,0.29259c-0.26516,1.34597 1.60375,4.09088 2.15424,1.86466c0.2775,-0.70198 0.46329,-1.3997 0.60476,-2.13962l0.0017,-0.08872c0,0 0.01187,-0.24972 0.26159,-0.23785z" fill="#7c4800" stroke="none" stroke-width="0.5" stroke-linecap="butt"/><path d="M244.03251,189.47948c-1.28143,0.2629 -2.77488,-1.74008 -3.33573,-4.47378c-0.56085,-2.7337 0.02329,-5.16293 1.30471,-5.42583c1.28143,-0.2629 2.77488,1.74008 3.33573,4.47378c0.56085,2.7337 -0.0233,5.16292 -1.30472,5.42582z" fill="#8c6738" stroke="none" stroke-width="0" stroke-linecap="butt"/><path d="M249.07384,183.10705c0.24553,0.04707 0.19846,0.29259 0.19846,0.29259l-0.01378,0.07186c-0.28997,1.51269 0.03081,1.89571 1.04541,2.89421c0,0 0.17819,0.17535 0.00284,0.35354c-0.17535,0.17819 -0.35355,0.00283 -0.35355,0.00283c-1.12074,-1.10296 -1.50364,-1.6864 -1.18576,-3.34472l0.01378,-0.07187c0,0 0.04707,-0.24553 0.2926,-0.19846z" fill="#864e00" stroke="none" stroke-width="0.5" stroke-linecap="butt"/><path d="M244.39042,188.2777c-1.90078,0.38996 -4.00643,-2.04672 -4.70311,-5.44249c-0.69668,-3.39577 0.27943,-6.46471 2.18021,-6.85467c1.90078,-0.38996 4.00643,2.04671 4.7031,5.44248c0.69668,3.39577 -0.27943,6.46472 -2.18021,6.85468z" fill="#8c6738" stroke="none" stroke-width="0" stroke-linecap="butt"/></g></g></g></svg>