<svg version="1.1" xmlns="http://www.w3.org/2000/svg" xmlns:xlink="http://www.w3.org/1999/xlink" width="40.77643" height="42.0335" viewBox="0,0,40.77643,42.0335"><g transform="translate(-220.02073,-159.20578)"><g data-paper-data="{&quot;isPaintingLayer&quot;:true}" fill-rule="nonzero" stroke-linecap="butt" stroke-linejoin="miter" stroke-miterlimit="10" stroke-dasharray="" stroke-dashoffset="0" style="mix-blend-mode: normal"><path d="M220.02074,199.98222v-40.77643h40.77643v40.77643h-6.2683c0.16002,-0.83916 0.24378,-1.70537 0.24378,-2.59114c0,-7.59392 -6.15608,-13.75 -13.75,-13.75c-7.59392,0 -13.75,6.15608 -13.75,13.75c0,0.88577 0.08375,1.75198 0.24378,2.59114z" fill="#565449" stroke="#000000" stroke-width="0"/><path d="" fill="#565449" stroke="#000000" stroke-width="0"/><path d="" fill="#565449" stroke="#000000" stroke-width="0"/><path d="" fill="#565449" stroke="#000000" stroke-width="0"/><path d="M230.65973,200.40632c-1.24236,0.13804 -1.38039,-1.10432 -1.38039,-1.10432l-0.14402,-1.36542c0.01322,-3.13919 1.13939,-6.01418 0.4389,-9.13879c0,0 -0.27116,-1.22023 0.94907,-1.49139c1.22024,-0.27116 1.4914,0.94907 1.4914,0.94907c0.74693,3.38774 -0.39607,6.3226 -0.37936,9.68111l0.12873,1.08935c0,0 0.13804,1.24236 -1.10432,1.38039z" fill="#807d6d" stroke="none" stroke-width="0.5"/><path d="M234.74935,200.14121c-1.25,0 -1.25,-1.25 -1.25,-1.25v-0.81826c0,-4.19366 0.27275,-8.35763 0.27275,-12.54659c0,0 0,-1.25 1.25,-1.25c1.25,0 1.25,1.25 1.25,1.25c0,4.18945 -0.27275,8.35281 -0.27275,12.54659v0.81826c0,0 0,1.25 -1.25,1.25z" fill="#807d6d" stroke="none" stroke-width="0.5"/><path d="M239.65889,200.27759c-1.07874,0 -1.22653,-0.93094 -1.24678,-1.18604c-1.28886,-4.24114 -0.68164,-9.98524 -0.6851,-14.38344c0,0 0,-1.25 1.25,-1.25c1.25,0 1.25,1.25 1.25,1.25c-0.00343,4.08557 -0.73329,9.92569 0.61774,13.78782l0.06414,0.53166c0,0 0,1.25 -1.25,1.25z" fill="#807d6d" stroke="none" stroke-width="0.5"/><path d="M243.61379,200.27759c-1.25,0 -1.25,-1.25 -1.25,-1.25v-0.5455c0.00459,-4.67434 -0.40913,-9.36054 -0.40913,-14.04673c0,0 0,-1.25 1.25,-1.25c1.25,0 1.25,1.25 1.25,1.25c0,4.68734 0.40491,9.37075 0.40913,14.04673v0.5455c0,0 0,1.25 -1.25,1.25z" fill="#807d6d" stroke="none" stroke-width="0.5"/><path d="M247.45993,199.70781c-1.22573,-0.24515 -0.98058,-1.47087 -0.98058,-1.47087l0.11723,-0.32357c-0.34678,-3.84966 -0.29495,-7.73227 -0.68081,-11.58075c0,0 -0.12438,-1.2438 1.11942,-1.36818c1.2438,-0.12438 1.36818,1.11942 1.36818,1.11942c0.38469,3.85654 0.32891,7.74669 0.68295,11.60317l-0.15552,1.0402c0,0 -0.24515,1.22573 -1.47088,0.98058z" fill="#807d6d" stroke="none" stroke-width="0.5"/><path d="M251.65998,200.14121c-1.25,0 -1.25,-1.25 -1.25,-1.25c0,-3.13665 0,-6.40967 0,-9.54632c0,0 0,-1.25 1.25,-1.25c1.25,0 1.25,1.25 1.25,1.25c0,3.13665 0,6.27329 0,9.40994v0.13638c0,0 0,1.25 -1.25,1.25z" fill="#807d6d" stroke="none" stroke-width="0.5"/><path d="M227.11229,199.73208c-1.25,0 -1.25,-1.25 -1.25,-1.25l0.0062,-0.39713c0.52862,-5.20573 2.50532,-11.61496 7.36831,-14.35906c9.8751,-4.3503 26.87018,3.23495 22.2268,15.66495c-2.3188,2.49054 -4.61017,1.83633 -7.73441,1.56357c-6.37027,-0.55615 -13.28369,-0.55985 -19.66227,-0.54045c0,0 -1.25,0 -1.25,-1.25c0,-1.25 1.25,-1.25 1.25,-1.25c0.11106,0.0003 0.22218,0.00068 0.33336,0.00115c-0.01594,0.14122 -0.03066,0.28082 -0.0442,0.4186l0.0062,0.14837c0,0 0,1.25 -1.25,1.25zM228.40028,197.91511c5.896,0.0248 11.96119,0.28662 17.8613,0.54564c1.69854,0.07457 5.93736,1.17683 7.04982,-0.34193c3.47592,-9.9725 -11.42961,-15.54075 -18.95877,-12.15576c-3.92701,2.13448 -5.4792,7.76024 -5.95235,11.95205z" fill="#807d6d" stroke="none" stroke-width="0.5"/></g></g></svg>