<svg version="1.1" xmlns="http://www.w3.org/2000/svg" xmlns:xlink="http://www.w3.org/1999/xlink" width="40.16764" height="48.70058" viewBox="0,0,40.16764,48.70058"><g transform="translate(-223.07922,-151.76907)"><g data-paper-data="{&quot;isPaintingLayer&quot;:true}" fill-rule="nonzero" stroke="none" stroke-width="0.5" stroke-linecap="butt" stroke-linejoin="miter" stroke-miterlimit="10" stroke-dasharray="" stroke-dashoffset="0" style="mix-blend-mode: normal"><path d="M255.52321,165.34314c0.11229,1.01766 0.37541,2.13828 0.70414,3.22919c-0.06943,1.61791 0.23166,3.62107 0.59879,5.2574c-1.1912,1.92305 -3.30317,3.70224 -5.60974,4.69939c-1.03838,-1.22264 -2.23691,-2.10128 -2.86916,-2.13298c-1.72225,-0.08634 -3.01488,2.36671 -2.96284,4.34496c-0.03205,0.04591 -0.06185,0.09023 -0.08923,0.13286c-2.66089,4.14328 -6.24742,8.1686 -9.95547,11.76292c-0.34421,0.05537 -0.73439,0.16893 -1.17138,0.34972c-1.22434,0.50654 -2.8816,2.24807 -3.98334,4.10368c-0.93907,0.25672 -1.76448,1.06243 -2.34976,1.99608c-0.75385,0.11716 -1.40931,0.48765 -2.10322,1.26297c-0.03333,0.03725 -0.06652,0.07746 -0.09937,0.12032c-1.18408,-0.20094 -2.18344,-1.05115 -2.55343,-2.2209c0.56588,-0.99644 0.91285,-2.29265 0.95937,-2.94341c0.00526,-0.01349 0.01037,-0.02705 0.01533,-0.04066c0.07154,-0.13805 0.11966,-0.27171 0.14718,-0.4008c1.9454,-1.15373 3.87861,-3.21439 4.76248,-5.17217c4.63995,-4.42874 8.42736,-9.43136 12.41058,-14.44257c0.20769,-0.26128 0.42137,-0.52113 0.64227,-0.77233c0.06008,-0.39174 0.17781,-0.76775 0.34541,-1.11755c-1.65832,-11.17657 8.3632,-13.31975 13.16135,-8.01612z" data-paper-data="{&quot;index&quot;:null}" fill="#885c36"/><path d="M228.38392,198.33753c-0.10857,0.12656 -0.21237,0.25889 -0.31094,0.39547c-1.56193,-0.97505 -2.7617,-2.18782 -3.92759,-3.6758c0.02375,-0.06552 0.04221,-0.12996 0.05571,-0.1933c0.10007,-0.05935 0.20011,-0.12109 0.29996,-0.1851c0.01486,0.027 0.02972,0.05401 0.04458,0.08101c1.15011,1.45274 2.30489,2.62948 3.83827,3.57772z" data-paper-data="{&quot;index&quot;:null}" fill="#4c331e"/><path d="M229.4542,188.69126c0.10665,-0.22612 0.33276,-0.11948 0.33276,-0.11948l0.10166,0.04807c0.2055,0.0898 0.40694,0.18925 0.6042,0.29594c1.65034,1.01421 3.34721,2.08793 4.20769,3.87595c-0.15087,0.04755 -0.30843,0.10425 -0.47274,0.17057c-0.81877,-1.66363 -2.43484,-2.6754 -3.98419,-3.61307c-0.18097,-0.09809 -0.36613,-0.18894 -0.55487,-0.2711l-0.11505,-0.05414c0,0 -0.22612,-0.10665 -0.11947,-0.33276z" data-paper-data="{&quot;index&quot;:null}" fill="#4c331e"/><path d="M228.90315,190.16483c0,0 -0.07334,-0.03459 -0.11678,-0.10614c0.06338,-0.12333 0.12288,-0.24652 0.17826,-0.36929c0.08103,-0.0102 0.15181,0.0232 0.15181,0.0232l0.09748,0.04629c1.79357,0.74836 3.38777,1.91284 4.50032,3.4593c-0.13562,0.08103 -0.2746,0.17381 -0.41585,0.2771c-1.05582,-1.46394 -2.57242,-2.57285 -4.27599,-3.27453l-0.11923,-0.05593z" data-paper-data="{&quot;index&quot;:null}" fill="#b97b48"/><path d="M228.16143,191.14917c1.66891,0.46516 3.24873,1.63719 4.47293,2.89284c-0.12023,0.10952 -0.24086,0.22491 -0.36129,0.34547c-1.11881,-1.14783 -2.54221,-2.2231 -4.05841,-2.70138c-0.0944,0.03177 -0.18951,-0.00972 -0.18951,-0.00972c-0.07005,-0.03057 -0.14032,-0.06072 -0.2108,-0.09034c0.11184,-0.14768 0.21946,-0.29668 0.32237,-0.44655l0.02473,0.00969z" data-paper-data="{&quot;index&quot;:null}" fill="#b97b48"/><path d="M231.37738,195.38504c-1.30122,-1.17049 -2.50127,-2.36402 -4.07158,-3.17006c0.11215,-0.13024 0.22135,-0.26214 0.32724,-0.39532c1.55857,0.81665 2.76551,2.01315 4.06649,3.18292c-0.10853,0.12425 -0.21606,0.25191 -0.32212,0.38246z" data-paper-data="{&quot;index&quot;:null}" fill="#b97b48"/><path d="M230.66524,196.33886c-1.38071,-0.95625 -2.57323,-2.72029 -3.98345,-3.44691c0.11489,-0.11658 0.22772,-0.23518 0.33817,-0.35552c1.40742,0.83592 2.51508,2.48377 3.92889,3.40291c-0.09661,0.13136 -0.19128,0.26469 -0.28361,0.39951z" data-paper-data="{&quot;index&quot;:null}" fill="#b97b48"/><path d="M230.34027,196.83533c-0.05288,0.08467 -0.10467,0.16969 -0.15529,0.25495c-0.07722,0.02111 -0.15367,0.04594 -0.22929,0.07424c-1.3665,-1.14586 -2.74757,-2.35533 -4.13242,-3.47257c0.1269,-0.10842 0.25238,-0.21974 0.37608,-0.33365c1.38759,1.12034 2.77045,2.33202 4.14093,3.47703z" data-paper-data="{&quot;index&quot;:null}" fill="#b97b48"/><path d="M225.18412,194.20408c1.42702,0.93885 2.42416,2.48883 3.8003,3.53898c-0.12792,0.10582 -0.25155,0.22057 -0.37042,0.34258c-1.38183,-1.08137 -2.41325,-2.61118 -3.8632,-3.57184c0.1452,-0.09881 0.28979,-0.2022 0.43331,-0.30973z" data-paper-data="{&quot;index&quot;:null}" fill="#b97b48"/><path d="M248.7911,176.86894c-0.26442,-0.15614 -0.55123,-0.3046 -0.84357,-0.44716c-0.17416,0.03129 -0.34273,0.08825 -0.50462,0.16734c-0.75104,-0.55494 -1.50663,-1.10353 -2.2877,-1.62249c-0.01532,-0.00708 -0.03067,-0.01424 -0.04603,-0.02148l-0.12947,-0.08997c0,0 -0.00828,-0.00613 -0.02022,-0.01759c-0.48103,-0.3147 -0.97228,-0.61755 -1.47854,-0.90321c-2.54055,-1.4365 -4.65552,-3.4646 -7.44675,-4.37771c-0.70773,-0.32656 -0.47347,-1.72733 -0.36031,-2.51004c0.34689,-2.39951 0.97414,-4.5823 1.73006,-6.89154c0.96907,-2.95911 1.94896,-5.49127 5.0153,-6.8294c2.01518,-1.36538 4.90001,-1.5418 7.26418,-1.55663c0,0 0.22279,-0.0012 0.24886,0.20899c0.15901,0.03158 0.18542,0.20956 0.18542,0.20956l-0.00501,0.01704c0.23319,0.56363 0.49459,1.1164 0.84603,1.61691c1.46776,2.5224 3.23824,4.95018 4.25286,7.77308c0.04243,0.11819 0.08394,0.23752 0.12457,0.35791c0.18939,0.011 0.21949,0.21385 0.21949,0.21385l0.03379,0.22777c0.40795,2.74945 0.77877,5.48378 1.39883,8.18455c1.02674,2.46936 1.58378,5.11882 1.97636,7.76472c0,0 0.01157,0.07795 -0.02205,0.15282c0.16228,0.59234 0.32106,1.17915 0.47009,1.75737c0.71393,2.76997 3.23334,5.48772 3.66037,8.29115l0.03382,-0.01399l0.11883,0.28725c0.00878,0.01997 0.01506,0.04144 0.01842,0.06406c0.02026,0.13657 -0.07403,0.26372 -0.2106,0.28399c-0.0872,0.01294 -0.17055,-0.02082 -0.22469,-0.08247l-0.17236,-0.19055c-1.60697,-1.26238 -3.15266,-2.54066 -4.79716,-3.75823c-2.08644,-1.3573 -3.62041,-3.30157 -5.44067,-4.89749c-0.00517,-0.00957 -0.01036,-0.01913 -0.01558,-0.02868c-0.03232,-0.0215 -0.05136,-0.04253 -0.05136,-0.04253c-0.85186,-0.98312 -2.07923,-2.28949 -3.30426,-3.28269c-0.11413,0.05665 -0.23635,-0.01455 -0.23635,-0.01455z" data-paper-data="{&quot;index&quot;:null}" fill="#756b62"/></g></g></svg>