<svg version="1.1" xmlns="http://www.w3.org/2000/svg" xmlns:xlink="http://www.w3.org/1999/xlink" width="32.5" height="33.375" viewBox="0,0,32.5,33.375"><g transform="translate(-223.75,-163.3125)"><g data-paper-data="{&quot;isPaintingLayer&quot;:true}" fill-rule="nonzero" stroke-linecap="butt" stroke-linejoin="miter" stroke-miterlimit="10" stroke-dasharray="" stroke-dashoffset="0" style="mix-blend-mode: normal"><g><path d="M252.5,167.4375c0,2.27818 -1.84682,4.125 -4.125,4.125c-2.27818,0 -4.125,-1.84682 -4.125,-4.125c0,-2.27818 1.84682,-4.125 4.125,-4.125c2.27818,0 4.125,1.84682 4.125,4.125z" fill="#b8b44f" stroke="#925500" stroke-width="0"/><path d="M248.25,170.25c0,2.17462 1.79086,3.9375 4,3.9375c2.20914,0 4,-1.76288 4,-3.9375c0,-2.17462 -1.79086,-3.9375 -4,-3.9375c-2.20914,0 -4,1.76288 -4,3.9375z" fill="#b8b44f" stroke="none" stroke-width="0"/><path d="M232,189.9375c0,2.27818 -1.84682,4.125 -4.125,4.125c-2.27818,0 -4.125,-1.84682 -4.125,-4.125c0,-2.27818 1.84682,-4.125 4.125,-4.125c2.27818,0 4.125,1.84682 4.125,4.125z" fill="#b8b44f" stroke="#925500" stroke-width="0"/><path d="M227.75,192.75c0,2.17462 1.79086,3.9375 4,3.9375c2.20914,0 4,-1.76288 4,-3.9375c0,-2.17462 -1.79086,-3.9375 -4,-3.9375c-2.20914,0 -4,1.76288 -4,3.9375z" fill="#b8b44f" stroke="none" stroke-width="0"/><path d="M251.51558,170.67275c0,2.03886 -1.96214,3.13893 -2.97394,4.58424c-3.02618,4.32275 -7.62696,8.11568 -11.7742,11.24112c-0.80548,0.60703 -2.81226,3.52514 -4.10452,3.49507c-2.43669,-0.0567 -3.01393,-0.67987 -3.09359,-3.09359c-0.04444,-1.34654 3.32298,-3.53106 3.96063,-4.18214c1.00957,-1.03085 2.60831,-1.63166 3.76479,-2.61021c2.24142,-1.89659 3.78506,-4.43085 6.09044,-6.37944c1.21965,-1.03089 2.13686,-3.67789 3.46029,-4.43413c0.43488,-0.73685 1.23698,-1.23117 2.15454,-1.23117c0.92609,0 1.73458,0.50355 2.16658,1.2518c0.22912,0.2905 0.34899,0.69549 0.34899,1.35845z" fill="#b8b44f" stroke="none" stroke-width="0.5"/></g></g></g></svg>