<svg version="1.1" xmlns="http://www.w3.org/2000/svg" xmlns:xlink="http://www.w3.org/1999/xlink" width="69.44882" height="58.70078" viewBox="0,0,69.44882,58.70078"><defs><radialGradient cx="240.6456" cy="181.63284" r="21.28086" gradientUnits="userSpaceOnUse" id="color-1"><stop offset="0" stop-color="#ff0000"/><stop offset="1" stop-color="#ff0000" stop-opacity="0"/></radialGradient><radialGradient cx="239.17323" cy="182.59843" r="34.72441" gradientUnits="userSpaceOnUse" id="color-2"><stop offset="0" stop-color="#66d6ff"/><stop offset="1" stop-color="#66d6ff" stop-opacity="0"/></radialGradient><radialGradient cx="238.9172" cy="182.49704" r="2.48457" gradientUnits="userSpaceOnUse" id="color-3"><stop offset="0" stop-color="#ff0000"/><stop offset="1" stop-color="#ff0000" stop-opacity="0"/></radialGradient></defs><g transform="translate(-204.44882,-153.24804)"><g data-paper-data="{&quot;isPaintingLayer&quot;:true}" fill-rule="nonzero" stroke-linejoin="miter" stroke-miterlimit="10" stroke-dasharray="" stroke-dashoffset="0" style="mix-blend-mode: normal"><path d="M261.92646,181.63284c0,10.08261 -9.52777,18.25617 -21.28086,18.25617c-11.7531,0 -21.28086,-8.17357 -21.28086,-18.25617c0,-10.08261 9.52777,-18.25617 21.28086,-18.25617c11.7531,0 21.28086,8.17357 21.28086,18.25617z" fill="url(#color-1)" stroke="none" stroke-width="0" stroke-linecap="butt"/><path d="M273.89764,182.59843c0,16.20977 -15.54665,29.35039 -34.72441,29.35039c-19.17776,0 -34.72441,-13.14062 -34.72441,-29.35039c0,-16.20977 15.54665,-29.35039 34.72441,-29.35039c19.17776,0 34.72441,13.14062 34.72441,29.35039z" fill="url(#color-2)" stroke="none" stroke-width="0" stroke-linecap="butt"/><path d="M230.5993,180.76864c0,3.162 -2.41822,5.72531 -5.40123,5.72531c-2.98302,0 -5.40123,-2.56331 -5.40123,-5.72531c0,-3.162 2.41822,-5.72531 5.40123,-5.72531c2.98302,0 5.40123,2.56331 5.40123,5.72531z" fill="#b6ff00" stroke="none" stroke-width="0" stroke-linecap="butt"/><path d="M261.95732,181.01555c0,3.162 -2.41822,5.72531 -5.40124,5.72531c-2.98302,0 -5.40124,-2.56331 -5.40124,-5.72531c0,-3.162 2.41822,-5.72531 5.40124,-5.72531c2.98302,0 5.40124,2.56331 5.40124,5.72531z" fill="#b6ff00" stroke="none" stroke-width="0" stroke-linecap="butt"/><path d="M224.44444,186.48148v-11.23457h31.11111v11.23457z" fill="#b6ff00" stroke="none" stroke-width="0" stroke-linecap="butt"/><path d="M226.92646,172.01864v6.69753" fill="none" stroke="#b6ff00" stroke-width="5" stroke-linecap="round"/><path d="M235.78449,172.66679l-0.21605,4.53704" fill="none" stroke="#b6ff00" stroke-width="5" stroke-linecap="round"/><path d="M243.13016,172.23469l-1.2963,5.18519" fill="none" stroke="#b6ff00" stroke-width="5" stroke-linecap="round"/><path d="M249.17955,172.23469l0.4321,6.48148" fill="none" stroke="#b6ff00" stroke-width="5" stroke-linecap="round"/><path d="M254.36473,170.50629l0.64815,6.04938" fill="none" stroke="#b6ff00" stroke-width="5" stroke-linecap="round"/><path d="M238.59313,182.49704c0,-1.37219 0.14509,-2.48457 0.32407,-2.48457c0.17898,0 0.32407,1.11238 0.32407,2.48457c0,1.37219 -0.14509,2.48457 -0.32407,2.48457c-0.17898,0 -0.32407,-1.11238 -0.32407,-2.48457z" fill="url(#color-3)" stroke="none" stroke-width="0" stroke-linecap="butt"/></g></g></svg>