<svg version="1.1" xmlns="http://www.w3.org/2000/svg" xmlns:xlink="http://www.w3.org/1999/xlink" width="59.33154" height="92.07618" viewBox="0,0,59.33154,92.07618"><g transform="translate(-204.02137,-127.06746)"><g data-paper-data="{&quot;isPaintingLayer&quot;:true}" fill-rule="nonzero" stroke="none" stroke-width="0.5" stroke-linecap="butt" stroke-linejoin="miter" stroke-miterlimit="10" stroke-dasharray="" stroke-dashoffset="0" style="mix-blend-mode: normal"><path d="" fill="#888b44"/><path d="" fill="#888b44"/><path d="" fill="#888b44"/><path d="" fill="#888b44"/><path d="" fill="#888b44"/><path d="" fill="#888b44"/><path d="" fill="#888b44"/><path d="" fill="#888b44"/><path d="" fill="#888b44"/><path d="" fill="#888b44"/><path d="M216.12357,176.93754c4.44761,-3.31808 11.90262,-1.57335 16.11975,1.21943c0.825,0.43391 1.46349,0.86707 2.23147,1.3685c0.17375,-0.00713 0.34823,-0.01135 0.52373,-0.01135h0.17976c0,0 0.59918,0 0.59918,0.59918c0,0.07336 -0.00898,0.13774 -0.02475,0.19424c0.02475,0.09369 0.02475,0.16528 0.02475,0.16528v0.17976c0,5.00115 -0.90329,9.98221 -0.90329,14.81366c-1.33816,5.3763 -6.78253,10.34863 -11.01377,13.5233c-1.60525,1.27366 -8.78214,2.29161 -9.39614,3.27496c-0.97865,1.56735 4.13263,2.62857 1.22296,5.40795c-2.335,0.43048 -11.0335,-4.8539 -11.64971,-7.21389c0,0 -0.09278,-0.37115 0.16651,-0.59445c0.02856,-0.14157 0.096,-0.24275 0.096,-0.24275l0.35952,-0.53929c0.2328,-0.3492 0.46589,-0.69818 0.69936,-1.04694c2.48611,-4.99106 6.21521,-9.72393 6.21521,-15.59149c1.26835,-5.1531 4.29147,-9.24868 4.3097,-14.7966c-0.00587,-0.04668 -0.00673,-0.09013 -0.00346,-0.13056c-0.07049,-0.34366 0.24322,-0.57895 0.24322,-0.57895z" fill="#888b44"/><g><path d="M254.533,132.63208c-0.03235,-0.01032 -0.06611,-0.03023 -0.09988,-0.064c-0.1646,-0.1646 0,-0.32919 0,-0.32919l0.27421,-0.17779c0.56801,0.0108 0.95304,0.13643 1.10715,0.53748l0.10761,-0.02152l0.05386,0.26932c0.00358,0.01622 0.00546,0.03307 0.00546,0.05036c0,0.12856 -0.10422,0.23277 -0.23277,0.23277c-0.0391,0 -0.07594,-0.00964 -0.10829,-0.02667l-0.19394,-0.09697c-0.28468,-0.05449 -0.52606,-0.10105 -0.78838,-0.22977c0,0 -0.09601,-0.04801 -0.12504,-0.14402z" fill="#e2e3a2"/><path d="M250.15222,145.48664c-1.51363,0.42847 -5.81485,0.89026 -7.06467,-0.03842c-1.51121,-1.12291 -1.06827,-6.36284 -0.99856,-8.00258c0.02146,-0.50479 -0.24655,-1.97078 0.21563,-2.23488l0.41775,-0.23871c0.08636,-0.42934 0.21599,-0.83023 0.39013,-1.18509c0.3514,-0.71611 0.98492,-1.27381 1.31195,-2.00137c0.73676,-1.63909 1.71383,-3.34137 3.44061,-4.18752c1.70805,-0.83697 4.09479,-0.50459 5.89099,-0.21062c0,0 0.08441,0.01407 0.20364,0.05746l0.15625,0.01623c3.82718,1.65824 7.14938,6.09166 6.39767,10.37974c-0.0786,0.44838 -0.20586,0.9225 -0.38314,1.38855c-0.20417,0.03021 -0.41281,0.0183 -0.62648,0.01316c-0.62713,-0.37902 -1.26152,-0.77298 -1.82964,-1.18542c-0.01781,-0.01964 -0.03224,-0.03046 -0.03224,-0.03046c-0.14343,-0.10755 -0.2723,-0.21242 -0.40907,-0.30538c-0.0079,-0.00633 -0.01577,-0.01266 -0.02363,-0.019c0,0 -0.02044,-0.01636 -0.05311,-0.03124c-0.10247,-0.06439 -0.21136,-0.12154 -0.3354,-0.16788c-0.15911,-0.13766 -0.34178,-0.24771 -0.53717,-0.32904c-0.01981,-0.03571 -0.04164,-0.05754 -0.04164,-0.05754l-0.17375,-0.11847c-0.50352,-0.09873 -1.00328,-0.20384 -1.50389,-0.2971c-0.03752,-0.04432 -0.08184,-0.06648 -0.08184,-0.06648l-0.12726,-0.06273c-0.21195,-0.0847 -0.70565,-0.34618 -1.13116,-0.42959c-0.07629,-0.03821 -0.15032,-0.07501 -0.22387,-0.1097c-0.02093,-0.04119 -0.04659,-0.06686 -0.04659,-0.06686l-0.13295,-0.10633c-0.44871,-0.17788 -0.86708,-0.31209 -1.31535,-0.49326c0,0 -0.21613,-0.08645 -0.30257,0.12967c-0.06428,0.16071 0.03873,0.24971 0.09579,0.28479c0.00739,0.04145 0.02175,0.07017 0.02175,0.07017c0.10555,0.1927 0.2778,0.37187 0.4768,0.53279c0.10265,0.24087 0.21602,0.45856 0.35388,0.68861l0.07428,0.03986c0.36514,0.98196 1.14629,1.84795 2.08106,2.32351l0.08785,0.15111c0.03977,0.07135 0.11598,0.11961 0.20346,0.11961c0.02744,0 0.05377,-0.00475 0.07821,-0.01347c0.33914,0.59801 0.87966,1.34538 1.4823,1.95402c0.02487,0.06262 0.04792,0.12019 0.06867,0.17203c0.07272,0.18049 0.14954,0.35923 0.23049,0.53603c0.01031,0.06378 0.0183,0.12789 0.0245,0.19235c-0.70352,0.18096 -1.46242,0.2796 -2.23771,0.32936c-0.7843,1.16048 -3.25358,2.37275 -4.09195,2.61007z" fill="#888b44"/><path d="M254.3972,137.16337c-0.00061,0.00102 -0.00121,0.00205 -0.0018,0.00307c-0.00405,-0.00203 -0.0081,-0.00405 -0.01215,-0.00608c0.00464,0.001 0.00929,0.002 0.01395,0.003z" fill="#888b44"/><path d="M252.55634,136.1303c0,-0.12856 0.10422,-0.23277 0.23277,-0.23277c0.12856,0 0.23277,0.10422 0.23277,0.23277c0,0.12856 -0.10422,0.23277 -0.23277,0.23277c-0.12856,0 -0.23277,-0.10422 -0.23277,-0.23277z" fill="#c0c649"/><path d="M253.76208,136.40433c0,-0.12856 0.10422,-0.23277 0.23277,-0.23277c0.12856,0 0.23277,0.10422 0.23277,0.23277c0,0.12856 -0.10422,0.23277 -0.23277,0.23277c-0.12856,0 -0.23277,-0.10422 -0.23277,-0.23277z" fill="#c0c649"/><path d="M254.31014,136.51394c0,-0.12856 0.10422,-0.23277 0.23277,-0.23277c0.10761,0 0.19816,0.07302 0.22482,0.17221c0.04159,-0.03884 0.09743,-0.0626 0.15883,-0.0626c0.12856,0 0.23277,0.10422 0.23277,0.23277c0,0.12856 -0.10422,0.23277 -0.23277,0.23277c-0.10761,0 -0.19816,-0.07302 -0.22482,-0.17221c-0.04159,0.03884 -0.09743,0.0626 -0.15883,0.0626c-0.12856,0 -0.23277,-0.10422 -0.23277,-0.23277z" fill="#c0c649"/><path d="M255.13223,136.84277c0,-0.12856 0.10422,-0.23277 0.23277,-0.23277c0.11296,0 0.20712,0.08046 0.22831,0.18718c0.03043,-0.01459 0.06452,-0.02277 0.10053,-0.02277c0.12856,0 0.23277,0.10422 0.23277,0.23277c0,0.12856 -0.10422,0.23277 -0.23277,0.23277c-0.11296,0 -0.20712,-0.08046 -0.22831,-0.18718c-0.03043,0.01459 -0.06452,0.02277 -0.10053,0.02277c-0.12856,0 -0.23277,-0.10422 -0.23277,-0.23277z" fill="#c0c649"/><path d="M256.28316,137.28122c0,-0.12856 0.10422,-0.23277 0.23277,-0.23277c0.12856,0 0.23277,0.10422 0.23277,0.23277c0,0.12856 -0.10422,0.23277 -0.23277,0.23277c-0.12856,0 -0.23277,-0.10422 -0.23277,-0.23277z" fill="#c0c649"/><path d="M256.94083,137.61006c0,-0.12856 0.10422,-0.23277 0.23277,-0.23277c0.12856,0 0.23277,0.10422 0.23277,0.23277c0,0.12856 -0.10422,0.23277 -0.23277,0.23277c-0.12856,0 -0.23277,-0.10422 -0.23277,-0.23277z" fill="#c0c649"/><path d="M257.43408,138.15812c0,-0.12856 0.10422,-0.23277 0.23277,-0.23277c0.12856,0 0.23277,0.10422 0.23277,0.23277c0,0.12856 -0.10422,0.23277 -0.23277,0.23277c-0.12856,0 -0.23277,-0.10422 -0.23277,-0.23277z" fill="#c0c649"/><path d="M258.20137,138.59657c0,-0.12856 0.10422,-0.23277 0.23277,-0.23277c0.12856,0 0.23277,0.10422 0.23277,0.23277c0,0.12856 -0.10422,0.23277 -0.23277,0.23277c-0.12856,0 -0.23277,-0.10422 -0.23277,-0.23277z" fill="#c0c649"/><path d="M258.74943,138.8706c0,-0.12856 0.10422,-0.23277 0.23277,-0.23277c0.12856,0 0.23277,0.10422 0.23277,0.23277c0,0.12856 -0.10422,0.23277 -0.23277,0.23277c-0.12856,0 -0.23277,-0.10422 -0.23277,-0.23277z" fill="#c0c649"/><path d="M259.29749,139.25424c0,-0.12856 0.10422,-0.23277 0.23277,-0.23277c0.12856,0 0.23277,0.10422 0.23277,0.23277c0,0.12856 -0.10422,0.23277 -0.23277,0.23277c-0.12856,0 -0.23277,-0.10422 -0.23277,-0.23277z" fill="#c0c649"/><path d="M252.75611,137.58531c-0.13966,0.18622 -0.32588,0.04655 -0.32588,0.04655l-0.21923,-0.16442c0,0 -0.18622,-0.13966 -0.04655,-0.32588c0.13966,-0.18622 0.32588,-0.04655 0.32588,-0.04655l0.21923,0.16442c0,0 0.18622,0.13966 0.04655,0.32588z" fill="#c0c649"/><path d="M252.50154,137.9389c0,-0.12856 0.10422,-0.23277 0.23277,-0.23277c0.12856,0 0.23277,0.10422 0.23277,0.23277c0,0.12856 -0.10422,0.23277 -0.23277,0.23277c-0.12856,0 -0.23277,-0.10422 -0.23277,-0.23277z" fill="#c0c649"/><path d="M253.0496,138.43215c0,-0.12856 0.10422,-0.23277 0.23277,-0.23277c0.12856,0 0.23277,0.10422 0.23277,0.23277c0,0.12856 -0.10422,0.23277 -0.23277,0.23277c-0.12856,0 -0.23277,-0.10422 -0.23277,-0.23277z" fill="#c0c649"/><path d="M253.65246,139.03502c0,-0.10766 0.07308,-0.19824 0.17234,-0.22485c0.01074,-0.04008 0.03192,-0.07589 0.06043,-0.10434c0.04211,-0.04202 0.10023,-0.068 0.16442,-0.068c0.12856,0 0.23277,0.10422 0.23277,0.23277c0,0.10766 -0.07308,0.19824 -0.17234,0.22485c-0.02661,0.09926 -0.1172,0.17234 -0.22485,0.17234c-0.12856,0 -0.23277,-0.10422 -0.23277,-0.23277z" fill="#c0c649"/><path d="M254.25533,139.47347c0,-0.12856 0.10422,-0.23277 0.23277,-0.23277c0.12856,0 0.23277,0.10422 0.23277,0.23277c0,0.12856 -0.10422,0.23277 -0.23277,0.23277c-0.12856,0 -0.23277,-0.10422 -0.23277,-0.23277z" fill="#c0c649"/><path d="M254.80339,140.02153c0,-0.12856 0.10422,-0.23277 0.23277,-0.23277c0.12856,0 0.23277,0.10422 0.23277,0.23277c0,0.12856 -0.10422,0.23277 -0.23277,0.23277c-0.12856,0 -0.23277,-0.10422 -0.23277,-0.23277z" fill="#c0c649"/><path d="M255.18703,140.51478c0,-0.12856 0.10422,-0.23277 0.23277,-0.23277c0.12856,0 0.23277,0.10422 0.23277,0.23277c0,0.12856 -0.10422,0.23277 -0.23277,0.23277c-0.12856,0 -0.23277,-0.10422 -0.23277,-0.23277z" fill="#c0c649"/><path d="M255.62548,140.95323c0,-0.12856 0.10422,-0.23277 0.23277,-0.23277c0.12856,0 0.23277,0.10422 0.23277,0.23277c0,0.12856 -0.10422,0.23277 -0.23277,0.23277c-0.12856,0 -0.23277,-0.10422 -0.23277,-0.23277z" fill="#c0c649"/><path d="M256.00913,141.44649c0,-0.12856 0.10422,-0.23277 0.23277,-0.23277c0.12856,0 0.23277,0.10422 0.23277,0.23277c0,0.12856 -0.10422,0.23277 -0.23277,0.23277c-0.12856,0 -0.23277,-0.10422 -0.23277,-0.23277z" fill="#c0c649"/><path d="M256.28316,141.99455c0,-0.12856 0.10422,-0.23277 0.23277,-0.23277c0.12856,0 0.23277,0.10422 0.23277,0.23277c0,0.12856 -0.10422,0.23277 -0.23277,0.23277c-0.12856,0 -0.23277,-0.10422 -0.23277,-0.23277z" fill="#c0c649"/><path d="M253.0496,136.29471c0,-0.12856 0.10422,-0.23277 0.23277,-0.23277c0.12856,0 0.23277,0.10422 0.23277,0.23277c0,0.12856 -0.10422,0.23277 -0.23277,0.23277c-0.12856,0 -0.23277,-0.10422 -0.23277,-0.23277z" fill="#c0c649"/><path d="M249.81604,134.86975c0,-0.12856 0.10422,-0.23277 0.23277,-0.23277c0.01526,0 0.03017,0.00147 0.04461,0.00427c0.12545,-0.04024 0.2296,0.06391 0.2296,0.06391l0.04912,0.06601c0.24235,0.12225 0.38627,0.26224 0.65403,0.30878c0,0 0.02764,0.00553 0.06175,0.02235c0.05663,-0.02687 0.11182,-0.02687 0.11182,-0.02687c0.47308,0.00899 0.83745,0.25423 1.25503,0.46302l0.00551,-0.02457c0,0 0.23277,0 0.23277,0.23277c0,0.23277 -0.23277,0.23277 -0.23277,0.23277l-0.21371,-0.02457c-0.32352,-0.16176 -0.65786,-0.4122 -1.02041,-0.41418c0.16479,0.23714 0.35811,0.45227 0.54537,0.68171c0.12298,0.00967 0.18447,0.13265 0.18447,0.13265l0.16232,0.32465c0.01703,0.03235 0.02667,0.06919 0.02667,0.10829c0,0.12856 -0.10422,0.23277 -0.23277,0.23277c-0.07712,0 -0.14549,-0.03751 -0.18784,-0.09528l-0.16279,-0.21706c-0.32916,-0.43887 -0.69949,-0.79623 -0.94555,-1.27997c-0.14758,-0.06897 -0.27646,-0.15397 -0.4521,-0.24087l-0.09533,-0.08587c-0.00652,0.00055 -0.01312,0.00083 -0.01979,0.00083c-0.12856,0 -0.23277,-0.10422 -0.23277,-0.23277z" fill="#9a0000"/><path d="M252.72076,135.96588c0,-0.12856 0.10422,-0.23277 0.23277,-0.23277c0.12856,0 0.23277,0.10422 0.23277,0.23277c0,0.12856 -0.10422,0.23277 -0.23277,0.23277c-0.12856,0 -0.23277,-0.10422 -0.23277,-0.23277z" fill="#9a0000"/><path d="M253.43324,136.07549c0,-0.12856 0.10422,-0.23277 0.23277,-0.23277c0.12856,0 0.23277,0.10422 0.23277,0.23277c0,0.12856 -0.10422,0.23277 -0.23277,0.23277c-0.12856,0 -0.23277,-0.10422 -0.23277,-0.23277z" fill="#9a0000"/><path d="M254.74858,136.34952c0,-0.12856 0.10422,-0.23277 0.23277,-0.23277c0.12856,0 0.23277,0.10422 0.23277,0.23277c0,0.12856 -0.10422,0.23277 -0.23277,0.23277c-0.12856,0 -0.23277,-0.10422 -0.23277,-0.23277z" fill="#9a0000"/><path d="M255.29665,136.67836c0,-0.12856 0.10422,-0.23277 0.23277,-0.23277c0.12856,0 0.23277,0.10422 0.23277,0.23277c0,0.12856 -0.10422,0.23277 -0.23277,0.23277c-0.12856,0 -0.23277,-0.10422 -0.23277,-0.23277z" fill="#9a0000"/><path d="M252.99479,138.8158c0,-0.12856 0.10422,-0.23277 0.23277,-0.23277c0.12856,0 0.23277,0.10422 0.23277,0.23277c0,0.12856 -0.10422,0.23277 -0.23277,0.23277c-0.12856,0 -0.23277,-0.10422 -0.23277,-0.23277z" fill="#9a0000"/><path d="M253.43324,139.14463c0,-0.12856 0.10422,-0.23277 0.23277,-0.23277c0.12856,0 0.23277,0.10422 0.23277,0.23277c0,0.12856 -0.10422,0.23277 -0.23277,0.23277c-0.12856,0 -0.23277,-0.10422 -0.23277,-0.23277z" fill="#9a0000"/><path d="M253.9813,139.47347c0,-0.12856 0.10422,-0.23277 0.23277,-0.23277c0.12856,0 0.23277,0.10422 0.23277,0.23277c0,0.12856 -0.10422,0.23277 -0.23277,0.23277c-0.12856,0 -0.23277,-0.10422 -0.23277,-0.23277z" fill="#9a0000"/><path d="M256.79955,141.20847l-0.01845,0.02153l-0.13154,-0.11275c-0.02248,-0.01903 -0.03764,-0.04644 -0.04066,-0.07741c-0.182,-0.11268 -0.3579,-0.19372 -0.49405,-0.34385c-0.01762,0.04189 -0.05904,0.07131 -0.10733,0.07131c-0.05126,0 -0.09478,-0.03314 -0.11031,-0.07916l-0.00468,-0.01288c-0.06555,0.01385 -0.13134,0.0374 -0.19666,0.07203l-0.00586,0.00469l0.01095,0.0219l-0.01305,0.00652c0.10509,0.02245 0.1839,0.11584 0.1839,0.22764c0,0.12856 -0.10422,0.23277 -0.23277,0.23277c-0.12856,0 -0.23277,-0.10422 -0.23277,-0.23277c0,-0.07031 0.03117,-0.13333 0.08045,-0.17602c-0.03982,-0.01849 -0.06743,-0.05883 -0.06743,-0.10562c0,-0.03716 0.01741,-0.07025 0.04452,-0.09155l0.08817,-0.07054c-0.08155,-0.0835 -0.18416,-0.14987 -0.29411,-0.17628l-0.064,0.0512c-0.02003,0.01631 -0.04559,0.02608 -0.07343,0.02608c-0.06428,0 -0.11639,-0.05211 -0.11639,-0.11639c0,-0.03716 0.01741,-0.07025 0.04452,-0.09155l0.06033,-0.04826c-0.02103,-0.11956 -0.0695,-0.22596 -0.16925,-0.25339h-0.003l-0.00253,0.0177l-0.06457,-0.00922c0.04353,0.0423 0.07057,0.10146 0.07057,0.16695c0,0.12856 -0.10422,0.23277 -0.23277,0.23277c-0.12856,0 -0.23277,-0.10422 -0.23277,-0.23277c0,-0.10509 0.06964,-0.1939 0.16528,-0.22284c-0.04114,-0.01795 -0.06989,-0.05898 -0.06989,-0.10673c0,-0.00142 0.00003,-0.00284 0.00008,-0.00426c-0.03354,-0.01114 -0.07557,-0.03905 -0.07557,-0.10899c0,-0.11639 0.11639,-0.11639 0.11639,-0.11639c1.23397,0 1.94493,-0.01097 2.94802,0.71054c0.59225,0.70926 0.66649,1.68175 1.27599,2.38264c0.08235,0.073 0.16272,0.14934 0.24024,0.23066l0.0043,-0.00861l0.11099,0.05549c0.03937,0.01866 0.06659,0.05877 0.06659,0.10523c0,0.06428 -0.05211,0.11639 -0.11639,0.11639c-0.01382,0 -0.02708,-0.00241 -0.03938,-0.00683l-0.11067,-0.03689l0.00326,-0.00977l-0.02207,0.00159c-0.03073,-0.02395 -0.0604,-0.04837 -0.08907,-0.07325c-0.17765,-0.03454 -0.44288,-0.21401 -0.54928,-0.29547c-0.56371,-0.43156 -0.88118,-0.76819 -1.25176,-1.29644c-0.10119,-0.06794 -0.19504,-0.14367 -0.28207,-0.23876zM257.10197,141.05486c-0.00844,-0.01019 -0.01686,-0.02023 -0.02525,-0.03009l0.00149,0.00744c0.00419,0.00562 0.00834,0.01128 0.01246,0.01695c0.00375,0.00188 0.00751,0.00378 0.0113,0.0057z" fill="#9a0000"/><path d="M255.57068,142.433c0,-0.12856 0.10422,-0.23277 0.23277,-0.23277c0.01566,0 0.03096,0.00155 0.04575,0.00449c-0.00295,-0.01479 -0.00449,-0.03009 -0.00449,-0.04575c0,-0.06893 0.02996,-0.13087 0.07758,-0.17349c-0.01326,-0.02764 -0.02122,-0.0583 -0.02257,-0.09067c-0.01345,0.00242 -0.02731,0.00368 -0.04146,0.00368c-0.00927,0 -0.01841,-0.00054 -0.0274,-0.00159c-0.00899,0.00105 -0.01813,0.00159 -0.0274,0.00159c-0.12856,0 -0.23277,-0.10422 -0.23277,-0.23277c0,-0.03963 0.0099,-0.07695 0.02737,-0.10961c-0.01747,-0.03267 -0.02737,-0.06998 -0.02737,-0.10961c0,-0.12856 0.10422,-0.23277 0.23277,-0.23277c0.12856,0 0.23277,0.10422 0.23277,0.23277c0,0.02085 -0.00274,0.04107 -0.00789,0.0603c0.0368,0.03936 0.06009,0.09151 0.06249,0.14906c0.01345,-0.00242 0.02731,-0.00368 0.04146,-0.00368c0.12856,0 0.23277,0.10422 0.23277,0.23277c0,0.04193 -0.01108,0.08127 -0.03048,0.11524c0.07227,0.0314 0.12549,0.0984 0.13752,0.17887c0.06725,0.04081 0.11218,0.11473 0.11218,0.19914c0,0.12856 -0.10422,0.23277 -0.23277,0.23277c-0.02445,0 -0.04801,-0.00377 -0.07015,-0.01076c-0.03965,0.07177 -0.11609,0.12037 -0.20388,0.12037c-0.06893,0 -0.13087,-0.02997 -0.17349,-0.07758c-0.03043,0.0146 -0.06453,0.02277 -0.10054,0.02277c-0.12856,0 -0.23277,-0.10422 -0.23277,-0.23277z" fill="#9a0000"/><path d="M259.36585,138.58302c0.12856,0 0.23277,0.10422 0.23277,0.23277c0,0.12856 -0.10422,0.23277 -0.23277,0.23277c-0.10103,0 -0.18703,-0.06437 -0.21922,-0.15433c-0.03219,0.08996 -0.11819,0.15433 -0.21923,0.15433c-0.12856,0 -0.23277,-0.10422 -0.23277,-0.23277c0,-0.12856 0.10422,-0.23277 0.23277,-0.23277c0.10103,0 0.18703,0.06437 0.21923,0.15433c0.03219,-0.08996 0.11819,-0.15433 0.21922,-0.15433z" fill="#9a0000"/><path d="M259.91391,138.80225c0.12856,0 0.23277,0.10422 0.23277,0.23277c0,0.11296 -0.08047,0.20714 -0.18721,0.22832c-0.04118,0.03685 -0.09556,0.05926 -0.15517,0.05926c-0.12856,0 -0.23277,-0.10422 -0.23277,-0.23277c0,-0.00927 0.00054,-0.01841 0.0016,-0.0274c-0.00105,-0.00899 -0.0016,-0.01813 -0.0016,-0.0274c0,-0.12856 0.10422,-0.23277 0.23277,-0.23277c0.01888,0 0.03723,0.00225 0.05481,0.00649c0.01757,-0.00424 0.03593,-0.00649 0.05481,-0.00649z" fill="#9a0000"/><path d="M255.02709,132.48934c-0.23993,0.00262 -0.50217,-0.0175 -0.59379,-0.0175h-0.27403v0c-0.12856,0 -0.23277,-0.10422 -0.23277,-0.23277c0,-0.09292 0.05445,-0.17313 0.13319,-0.21045l0.07544,-0.03772c0.03804,-0.04642 0.08447,-0.06964 0.08447,-0.06964c0.14165,-0.07008 0.54586,-0.1806 0.89271,-0.19906c0.06557,-0.04474 0.1431,-0.04474 0.1431,-0.04474l0.14126,0.01665c0.4229,0.18921 0.52854,0.37437 0.45697,0.50941c0.01171,0.02778 0.01819,0.05831 0.01819,0.09036c0,0.09292 -0.05445,0.17313 -0.13318,0.21045l-0.21471,0.10736l-0.06967,-0.13934c-0.14022,0.02764 -0.28714,0.03205 -0.42715,0.017z" fill="#99926f"/><path d="M255.74766,132.11738c-0.47803,-0.56551 -1.28423,-0.0958 -1.85917,0.18927c0.26664,0.04019 0.53326,0.08203 0.80001,0.13174c0.4578,0.06556 0.86616,-0.01111 1.28247,-0.08591c-0.07099,-0.04748 -0.1225,-0.12309 -0.2233,-0.2351zM253.6521,132.16213c0.69194,-0.31936 1.65646,-0.92327 2.27449,-0.19364c0.08885,0.11491 0.23232,0.21752 0.37757,0.21752h0.06054c0,0 0.09571,0 0.11354,0.0868c0.2288,-0.02661 0.46627,-0.0365 0.72094,-0.00825l0.07784,0.00865c0,0 0.11568,0.01285 0.10282,0.12853c-0.01285,0.11567 -0.12853,0.10282 -0.12853,0.10282l-0.07784,-0.00865c-0.93243,-0.10378 -1.62345,0.30031 -2.52291,0.17213c-0.73994,-0.13965 -1.47628,-0.21596 -2.21796,-0.36395c0,0 -0.11413,-0.02283 -0.0913,-0.13695c0.02283,-0.11413 0.13695,-0.0913 0.13695,-0.0913c0.3685,0.07388 0.73638,0.13015 1.10409,0.18506c0.00146,-0.06725 0.06974,-0.09876 0.06974,-0.09876z" fill="#9a0000"/></g><g><path d="M257.0005,153.33146c0.16466,0.088 0.22682,0.29283 0.13882,0.45749c-0.03664,0.06857 -0.09355,0.11936 -0.15937,0.14894c0.04594,0.15708 0.09336,0.31626 0.14247,0.47766c1.2953,4.26877 0.49776,8.80943 1.75454,12.97634c0.23677,4.44973 0.02692,8.53075 -0.76173,12.89636c-0.74171,2.95984 -2.26644,5.72304 -3.50613,8.50754c-0.46274,1.03938 -1.39162,2.83494 -0.86837,3.92688c-0.91473,1.62693 1.39208,4.39911 1.48029,6.20489c0.1192,2.44008 -2.03692,3.68262 -3.56158,5.03125c-4.19102,-0.03295 -7.17489,1.58141 -11.0709,-1.53727c-2.59793,-1.5795 -8.32922,-4.06562 -9.33907,-7.01006c-2.49684,-3.6521 -5.46242,-5.35592 -9.27609,-7.39396c-4.49913,-2.42481 -7.21281,-4.53102 -8.22965,-9.80033c-0.04447,-0.89277 0.00057,-1.88875 0.11652,-2.93348c-0.00108,-0.00056 -0.00216,-0.00113 -0.00323,-0.0017c-0.16466,-0.088 -0.22682,-0.29283 -0.13882,-0.45749c0.04742,-0.08874 0.12878,-0.14772 0.21949,-0.16945c0.00312,-0.02312 0.00628,-0.04627 0.00947,-0.06943c-0.06753,0.00886 -0.13838,-0.00255 -0.20303,-0.0371c-0.16466,-0.088 -0.22682,-0.29283 -0.13882,-0.45749c0.0845,-0.15812 0.27674,-0.22172 0.43769,-0.14859c0.02667,-0.16651 0.05485,-0.33364 0.08447,-0.50119c-0.03709,-0.0056 -0.07386,-0.01752 -0.10883,-0.0362c-0.16466,-0.088 -0.22682,-0.29283 -0.13882,-0.45749c0.07327,-0.1371 0.22752,-0.20313 0.37215,-0.17061c0.02318,-0.11712 0.04701,-0.23431 0.07146,-0.3515c-0.06986,0.01082 -0.14368,-0.00009 -0.21083,-0.03598c-0.16466,-0.088 -0.22682,-0.29283 -0.13882,-0.45749c0.088,-0.16466 0.29283,-0.22682 0.45749,-0.13882c0.00919,0.00491 0.01805,0.01018 0.02659,0.01579c0.03636,-0.15991 0.07382,-0.31961 0.11233,-0.47891c-0.08672,0.03104 -0.18572,0.02673 -0.27335,-0.0201c-0.16466,-0.088 -0.22682,-0.29283 -0.13882,-0.45749c0.088,-0.16466 0.29283,-0.22682 0.45749,-0.13882c0.03516,0.01879 0.06564,0.04291 0.091,0.07082c0.02046,-0.0793 0.04116,-0.15845 0.06211,-0.23743c-0.01766,-0.00594 -0.03507,-0.01341 -0.05205,-0.02248c-0.16466,-0.088 -0.22682,-0.29283 -0.13882,-0.45749c0.0729,-0.13641 0.22597,-0.20247 0.36996,-0.1711c0.05821,-0.2042 0.11791,-0.40682 0.17897,-0.60747c-0.06026,-0.09885 -0.06813,-0.2261 -0.00962,-0.33559c0.03698,-0.0692 0.09459,-0.1203 0.16118,-0.14975c0.0244,-0.07615 0.04898,-0.15195 0.07374,-0.22739c-0.0637,0.00594 -0.1298,-0.0061 -0.19045,-0.03851c-0.16466,-0.088 -0.22682,-0.29283 -0.13882,-0.45749c0.088,-0.16466 0.29283,-0.22682 0.45749,-0.13882c0.02593,0.01386 0.04932,0.03061 0.06998,0.04965c0.06055,-0.17325 0.12197,-0.34412 0.18418,-0.51234c-0.03425,-0.00606 -0.06813,-0.01755 -0.10046,-0.03483c-0.16466,-0.088 -0.22682,-0.29283 -0.13882,-0.45749c0.088,-0.16466 0.29283,-0.22682 0.45749,-0.13882c0.00664,0.00355 0.0131,0.00728 0.0194,0.0112c0.02062,-0.05188 0.0413,-0.10345 0.06205,-0.1547c-0.00124,-0.00064 -0.00248,-0.0013 -0.00372,-0.00196c-0.16466,-0.088 -0.22682,-0.29283 -0.13882,-0.45749c0.07872,-0.1473 0.25092,-0.21258 0.40423,-0.16171c0.05698,-0.12986 0.11431,-0.25707 0.17194,-0.38144c-0.0039,-0.0019 -0.00777,-0.00387 -0.01163,-0.00593c-0.16466,-0.088 -0.22682,-0.29283 -0.13882,-0.45749c0.06313,-0.11813 0.18639,-0.1835 0.31181,-0.17852c0.01743,-0.07043 0.03584,-0.14137 0.0552,-0.21282c-0.04546,-0.09398 -0.0469,-0.20767 0.00608,-0.30679c0.00959,-0.01794 0.02057,-0.03467 0.03272,-0.05011c-0.14128,-0.09587 -0.19025,-0.28491 -0.10798,-0.43886c0.07389,-0.13826 0.23013,-0.20425 0.37581,-0.16977c0.03705,-0.10291 0.07562,-0.20651 0.11565,-0.31075c-0.03824,-0.00538 -0.0762,-0.01745 -0.11223,-0.0367c-0.16466,-0.088 -0.22682,-0.29283 -0.13882,-0.45749c0.07559,-0.14145 0.23739,-0.20725 0.38589,-0.16722c-0.08608,-0.10265 -0.10613,-0.25131 -0.03912,-0.3767c0.06543,-0.12244 0.19545,-0.1882 0.32553,-0.1777c-0.05328,-0.09684 -0.05806,-0.21783 -0.00208,-0.32258c0.0671,-0.12556 0.20213,-0.19152 0.33549,-0.17675c0.1011,-0.20652 0.20594,-0.41395 0.31399,-0.62183c-0.10626,-0.10227 -0.13647,-0.26636 -0.06353,-0.40284c0.07279,-0.1362 0.2255,-0.20227 0.36931,-0.17124c0.0612,-0.11228 0.1232,-0.22457 0.18591,-0.33678c-0.00459,-0.06174 0.0077,-0.12547 0.03904,-0.18411c0.03404,-0.0637 0.08557,-0.11206 0.14549,-0.14232c0.11644,-0.20371 0.23498,-0.40693 0.35513,-0.60922c-0.16244,-0.08887 -0.22331,-0.29222 -0.13584,-0.45588c0.088,-0.16466 0.29283,-0.22682 0.45749,-0.13882c0.00953,0.0051 0.01873,0.01058 0.02757,0.01644c0.05563,-0.09066 0.11149,-0.18105 0.16755,-0.2711c-0.13433,-0.09767 -0.17948,-0.28191 -0.09898,-0.43254c0.088,-0.16466 0.29283,-0.22682 0.45749,-0.13882c0.00055,0.00029 0.00109,0.00059 0.00164,0.00088c0.09267,-0.14478 0.18558,-0.28846 0.27853,-0.43086c-0.16135,-0.08928 -0.2216,-0.29191 -0.13439,-0.45509c0.088,-0.16466 0.29283,-0.22682 0.45749,-0.13882c0.01733,0.00926 0.03352,0.01982 0.04852,0.03148c0.04609,-0.06893 0.09213,-0.13749 0.13808,-0.20564c-0.03739,-0.09028 -0.03554,-0.19597 0.01411,-0.28888c0.06184,-0.11572 0.18138,-0.18081 0.30412,-0.17875c0.20537,-0.29904 0.40794,-0.58884 0.60542,-0.86734c-0.02217,-0.00645 -0.04401,-0.01529 -0.06519,-0.0266c-0.16466,-0.088 -0.22682,-0.29283 -0.13882,-0.45749c0.088,-0.16466 0.29283,-0.22682 0.45749,-0.13882c0.04855,0.02594 0.08819,0.06204 0.11769,0.10427c0.11169,-0.15467 0.22114,-0.30497 0.32788,-0.4505c-0.09165,-0.10281 -0.11445,-0.25583 -0.04576,-0.38438c0.08467,-0.15845 0.27751,-0.22198 0.43867,-0.14815c0.0819,-0.11188 0.16359,-0.22501 0.24515,-0.33926c-0.01081,-0.00441 -0.02149,-0.00941 -0.03201,-0.01503c-0.16466,-0.088 -0.22682,-0.29283 -0.13882,-0.45749c0.088,-0.16466 0.29283,-0.22682 0.45749,-0.13882c0.02016,0.01077 0.03878,0.02329 0.05578,0.03727c-0.08308,-0.10247 -0.10168,-0.24877 -0.0356,-0.37242c0.08647,-0.1618 0.28573,-0.22462 0.44886,-0.14327c0.17969,-0.26496 0.35965,-0.53337 0.54058,-0.80376c-0.06409,0.00623 -0.13066,-0.00576 -0.19171,-0.03839c-0.16466,-0.088 -0.22682,-0.29283 -0.13882,-0.45749c0.088,-0.16466 0.29283,-0.22682 0.45749,-0.13882c0.00813,0.00435 0.01602,0.00898 0.02365,0.01388c-0.03454,-0.08875 -0.03156,-0.19149 0.01684,-0.28207c0.088,-0.16466 0.29283,-0.22682 0.45749,-0.13882c0.01831,0.00979 0.03536,0.02102 0.05107,0.03348c0.08957,-0.13271 0.17956,-0.26546 0.27005,-0.3981c-0.10968,-0.10196 -0.14167,-0.26856 -0.06777,-0.40685c0.08622,-0.16133 0.28458,-0.22426 0.44744,-0.14398c0.03173,-0.04549 0.06351,-0.09095 0.09538,-0.13635c-0.00254,-0.00128 -0.00507,-0.0026 -0.0076,-0.00394c-0.16466,-0.088 -0.22682,-0.29283 -0.13882,-0.45749c0.088,-0.16466 0.29283,-0.22682 0.45749,-0.13882c0.0288,0.01539 0.05445,0.03435 0.07672,0.05604c0.06819,-0.09414 0.13676,-0.18795 0.20576,-0.28137c-0.04307,-0.09298 -0.04351,-0.20433 0.00851,-0.30166c0.06954,-0.13013 0.21205,-0.19625 0.35003,-0.17482c0.14874,-0.19382 0.29956,-0.3854 0.45274,-0.57417c-0.02931,-0.08564 -0.02437,-0.18276 0.02166,-0.26889c0.06917,-0.12944 0.21053,-0.19553 0.34783,-0.17515c0.10726,-0.12557 0.21571,-0.24961 0.32546,-0.37193c-0.16329,-0.08854 -0.22464,-0.29245 -0.13697,-0.4565c0.088,-0.16466 0.29283,-0.22682 0.45749,-0.13882c0.05291,0.02828 0.09523,0.06862 0.1254,0.11581c0.05143,-0.05328 0.10316,-0.10616 0.15517,-0.15861c-0.09017,-0.10279 -0.11225,-0.25466 -0.04399,-0.38237c0.088,-0.16466 0.29283,-0.22682 0.45749,-0.13882c0.02704,0.01445 0.05131,0.03205 0.07261,0.0521c0.00907,-0.00836 0.01815,-0.01672 0.02725,-0.02505c-0.02205,-0.08047 -0.01453,-0.16921 0.0279,-0.24861c0.08305,-0.15541 0.27017,-0.21951 0.42937,-0.15224c0.04662,-0.039 0.09349,-0.07763 0.14061,-0.11589c-0.01174,-0.00467 -0.02335,-0.01005 -0.03476,-0.01614c-0.16466,-0.088 -0.22682,-0.29283 -0.13882,-0.45749c0.088,-0.16466 0.29283,-0.22682 0.45749,-0.13882c0.10083,0.05388 0.16323,0.15157 0.17625,0.25701c0.16634,-0.12196 0.33571,-0.23915 0.50833,-0.35115c-0.02846,-0.08508 -0.0232,-0.18125 0.02243,-0.26662c0.088,-0.16466 0.29283,-0.22682 0.45749,-0.13882c0.03245,0.01734 0.06093,0.03922 0.08505,0.06444c0.15734,-0.08795 0.31729,-0.17159 0.48002,-0.25067c0.05555,-0.03678 0.11147,-0.07347 0.16773,-0.11009c-0.02685,-0.08401 -0.02101,-0.17837 0.02384,-0.2623c0.088,-0.16466 0.29283,-0.22682 0.45749,-0.13882c0.02632,0.01406 0.05002,0.03111 0.0709,0.0505c0.04279,-0.02657 0.08574,-0.05312 0.12884,-0.07964c-0.00572,-0.06338 0.00637,-0.1291 0.0386,-0.18942c0.088,-0.16466 0.29283,-0.22682 0.45749,-0.13882c0.00795,0.00425 0.01566,0.00877 0.02312,0.01354c0.11317,-0.06768 0.22714,-0.13532 0.34177,-0.20297c-0.01439,-0.07368 -0.00446,-0.1526 0.03368,-0.22397c0.088,-0.16466 0.29283,-0.22682 0.45749,-0.13882c0.02154,0.01151 0.04133,0.02502 0.05926,0.04019c0.24954,-0.14548 0.50125,-0.29154 0.75396,-0.43881c-0.01439,-0.07367 -0.00445,-0.15258 0.03369,-0.22395c0.088,-0.16466 0.29283,-0.22682 0.45749,-0.13882c0.02163,0.01156 0.04148,0.02513 0.05947,0.04037c0.203,-0.1196 0.40609,-0.24027 0.60865,-0.36235c-0.06874,-0.10069 -0.08049,-0.23524 -0.01906,-0.35021c0.088,-0.16466 0.29283,-0.22682 0.45749,-0.13882c0.06051,0.03234 0.10718,0.08045 0.13764,0.13656c0.13234,-0.08233 0.26419,-0.1654 0.39539,-0.24932c-0.03141,-0.08695 -0.02725,-0.18637 0.01975,-0.27432c0.088,-0.16466 0.29283,-0.22682 0.45749,-0.13882c0.02738,0.01463 0.05193,0.0325 0.07342,0.05287c0.13155,-0.08817 0.26217,-0.17736 0.39166,-0.26765c-0.02696,-0.08407 -0.02114,-0.17855 0.02376,-0.26257c0.088,-0.16466 0.29283,-0.22682 0.45749,-0.13882c0.01456,0.00778 0.02832,0.01647 0.04124,0.02597c0.22321,-0.16552 0.44212,-0.33492 0.65569,-0.50878c-0.02909,-0.00654 -0.05778,-0.01706 -0.08535,-0.0318c-0.16466,-0.088 -0.22682,-0.29283 -0.13882,-0.45749c0.088,-0.16466 0.29283,-0.22682 0.45749,-0.13882c0.10853,0.058 0.17253,0.16676 0.17835,0.28131c0.23689,-0.20674 0.46585,-0.41984 0.68532,-0.64012c-0.03174,-0.00635 -0.06309,-0.0174 -0.09311,-0.03344c-0.16466,-0.088 -0.22682,-0.29283 -0.13882,-0.45749c0.088,-0.16466 0.29283,-0.22682 0.45749,-0.13882c0.08724,0.04662 0.14571,0.12603 0.16832,0.21489c0.22846,-0.25299 0.44422,-0.51534 0.64519,-0.78818c-0.10049,0.06764 -0.2341,0.07888 -0.34838,0.01781c-0.16466,-0.088 -0.22682,-0.29283 -0.13882,-0.45749c0.088,-0.16466 0.29283,-0.22682 0.45749,-0.13882c0.14193,0.07585 0.20771,0.2385 0.1668,0.38741c0.08718,-0.1248 0.17126,-0.25176 0.25208,-0.38101c0.33205,-0.01951 0.66565,-0.07192 0.98303,-0.17147l0.24956,-0.07573c0,0 0.3235,-0.09816 0.42166,0.22534c0.00509,0.01676 0.00904,0.03292 0.01197,0.04849c0.14921,-0.07462 0.31181,0.01227 0.31181,0.01227c3.16447,1.69111 5.68285,4.42185 8.62883,6.27493c3.32861,3.54995 3.56668,6.24056 4.7235,10.39554c0.06784,-0.00911 0.13908,0.00223 0.20406,0.03696zM224.7289,151.24953c-0.006,-0.00336 -0.01185,-0.00688 -0.01757,-0.01055c0.0031,0.00798 0.00591,0.01606 0.0084,0.02425c0.00306,-0.00457 0.00611,-0.00913 0.00917,-0.0137z" fill="#888b44"/><path d="M231.82201,195.64425c-0.24544,0.23247 -0.47791,-0.01297 -0.47791,-0.01297l-0.26257,-0.29454c-0.85444,-1.59422 -1.93367,-3.00331 -2.70147,-4.64915c-0.7918,-2.59113 -1.7535,-5.4826 -2.25993,-8.15764c0,0 -0.06183,-0.33236 0.27052,-0.3942c0.33235,-0.06184 0.39419,0.27052 0.39419,0.27052c0.47999,2.63187 1.45924,5.49032 2.22667,8.03963c0.75319,1.61449 1.82562,3.00356 2.66595,4.57144l0.15753,0.149c0,0 0.23246,0.24544 -0.01298,0.47791z" fill="#6f7238"/><path d="M251.86364,203.36757c-0.10558,-0.05642 -0.1538,-0.13026 -0.17203,-0.2021c-0.89168,-0.48223 -1.67203,-0.94819 -2.43954,-1.64306c0,0 -0.25061,-0.22689 -0.02371,-0.4775c0.22689,-0.25061 0.4775,-0.02372 0.4775,-0.02372c0.78916,0.71448 1.58417,1.16371 2.52198,1.66488l0.09329,0.54268c0,0 -0.15934,0.29815 -0.45749,0.13882z" fill="#6f7238"/><path d="M254.05713,189.42591c-0.27456,-0.14673 -0.16117,-0.41117 -0.14151,-0.4521c-0.06431,-0.6594 -0.12861,-1.31879 -0.19291,-1.97819c-0.26677,-2.78666 -3.0383,-5.54322 -5.2685,-7.14793c-1.9519,-2.28061 -3.6983,-3.935 -6.35081,-5.35251c0,0 -0.29815,-0.15934 -0.13882,-0.45749c0.15934,-0.29815 0.45749,-0.13882 0.45749,-0.13882c2.69168,1.43844 4.52819,3.12583 6.49274,5.45387c2.37388,1.77041 5.18106,4.56564 5.48082,7.57726c0.06761,0.69325 0.1352,1.3865 0.20281,2.07976l-0.08383,0.27734c0,0 -0.15934,0.29815 -0.45749,0.13882z" fill="#6f7238"/><path d="M257.85529,157.72261c0.07692,-0.05133 0.18853,-0.08106 0.3325,-0.00412c0.29815,0.15934 0.13882,0.45749 0.13882,0.45749l-0.42595,0.25375c-3.06304,-0.81606 -5.30509,-1.93852 -8.22891,-3.51283c-2.15519,-1.95123 -4.93675,-2.45126 -6.69101,-4.92755c0,0 -0.19542,-0.27586 0.08043,-0.47127c0.27585,-0.19542 0.47127,0.08043 0.47127,0.08043c1.69352,2.39053 4.43752,2.87244 6.52846,4.76549c2.79418,1.48117 4.89321,2.63421 7.79439,3.35862z" fill="#6f7238"/><path d="M257.15442,160.38282c0.19542,0.27585 -0.08043,0.47127 -0.08043,0.47127l-0.38084,0.18694c-2.52348,-0.07253 -4.8767,-1.90854 -7.07308,-3.08229c-2.47619,-1.32338 -6.41806,-2.96139 -8.09619,-5.24327c0,0 -0.19542,-0.27586 0.08043,-0.47127c0.27585,-0.19542 0.47127,0.08043 0.47127,0.08043c1.45251,2.16543 5.59441,3.8253 7.86316,5.03781c2.0834,1.11338 4.38233,2.94127 6.77274,3.00272l-0.02835,-0.06277c0,0 0.27586,-0.19542 0.47127,0.08043z" fill="#6f7238"/><path d="M254.31653,164.51844c0.07674,-0.06238 0.19779,-0.11094 0.35985,-0.02433c0.29815,0.15934 0.13882,0.45749 0.13882,0.45749l-0.38088,0.26186c-2.75783,-0.30538 -4.50313,-1.50539 -6.96087,-2.81633c-2.87657,-1.54906 -5.34681,-3.73352 -8.24009,-5.27971c0,0 -0.29815,-0.15934 -0.13882,-0.45749c0.15934,-0.29815 0.45749,-0.13882 0.45749,-0.13882c2.89144,1.5452 5.35678,3.75239 8.24009,5.27971c2.32614,1.24533 3.97654,2.38932 6.52441,2.71762z" fill="#6f7238"/><path d="M252.15728,168.53939c0.07494,-0.06958 0.20281,-0.13563 0.37936,-0.04129c0.29815,0.15934 0.13882,0.45749 0.13882,0.45749l-0.35285,0.26379c-2.36998,-0.07455 -4.44139,-0.14651 -6.59812,-1.29518c-2.56579,-1.37121 -7.70193,-3.41403 -8.29861,-6.55004c0,0 -0.06183,-0.33236 0.27052,-0.3942c0.33235,-0.06184 0.39419,0.27052 0.39419,0.27052c0.51281,2.82972 5.64122,4.84218 7.95258,6.07741c1.99081,1.06782 3.93053,1.16137 6.11412,1.2115z" fill="#6f7238"/><path d="M249.21185,176.3591c-0.29815,-0.15934 -0.13882,-0.45749 -0.13882,-0.45749l0.09307,-0.15275c1.22664,-1.34985 2.90179,-2.61904 4.7072,-3.04477c0.75759,-0.17865 2.31466,-0.14897 2.65786,-0.92136c0,0 0.15934,-0.29815 0.45749,-0.13882c0.29815,0.15934 0.13882,0.45749 0.13882,0.45749c-1.05007,1.78077 -5.67265,2.11866 -7.46016,4.10123l0.00202,0.01764c0,0 -0.15934,0.29815 -0.45749,0.13882z" fill="#6f7238"/><path d="M228.4514,161.10284c-0.29815,-0.15934 -0.13882,-0.45749 -0.13882,-0.45749l0.04553,-0.08519c1.15312,-2.08919 2.85624,-4.70972 4.40732,-6.55304c1.8534,-0.93318 3.34187,-5.48828 4.30896,-7.29793c0,0 0.15934,-0.29815 0.45749,-0.13882c0.29815,0.15934 0.13882,0.45749 0.13882,0.45749c-1.063,1.98912 -2.48625,6.38029 -4.4763,7.50187c-1.42857,1.79195 -3.21703,4.34462 -4.23998,6.34911l-0.04553,0.08519c0,0 -0.15934,0.29815 -0.45749,0.13882z" fill="#6f7238"/><path d="M218.54088,179.62595c-0.23247,-0.24544 0.01298,-0.47792 0.01298,-0.47792l0.20363,-0.19149c2.47963,-2.73748 3.67393,-5.66658 5.38047,-8.85993c1.4174,-2.6523 2.10422,-5.57701 3.50691,-8.2018c0,0 0.15934,-0.29815 0.45749,-0.13882c0.29815,0.15934 0.13882,0.45749 0.13882,0.45749c-1.40118,2.62196 -2.0898,5.55004 -3.50691,8.2018c-1.72995,3.23715 -2.96279,6.21829 -5.47555,8.99504l-0.23992,0.2286c0,0 -0.24544,0.23247 -0.47791,-0.01297z" fill="#6f7238"/><path d="M242.99185,144.76601c-0.23247,-0.24544 0.01298,-0.47792 0.01298,-0.47792l0.30563,-0.27307c1.30523,-0.69955 4.37097,-1.08496 5.18485,-2.05441c0,0 0.22689,-0.25061 0.47749,-0.02372c0.25061,0.22689 0.02372,0.4775 0.02372,0.4775c-1.08059,1.13716 -3.8557,1.38673 -5.36667,2.19655l-0.16009,0.16803c0,0 -0.24544,0.23247 -0.47791,-0.01297z" fill="#6f7238"/></g><g fill="#979b4c"><g><path d="M258.52072,162.17763c-0.03675,0.01189 -0.07587,0.01613 -0.11476,0.01204l0.13293,0.04689c-0.00822,-0.01892 -0.01432,-0.0387 -0.01817,-0.05893zM258.29377,162.15241c-0.12387,-0.07336 -0.16984,-0.228 -0.11024,-0.35578c-0.05694,0.00577 -0.11615,-0.00596 -0.16916,-0.03736c-0.13187,-0.0781 -0.17546,-0.24831 -0.09736,-0.38018l0.19964,-0.33709l0.14623,0.08661c0.06532,-0.07539 0.13514,-0.13708 0.20646,-0.18577c-0.02803,-0.03049 -0.05154,-0.07225 -0.06611,-0.12913c-0.06884,-0.26882 0.19999,-0.33767 0.19999,-0.33767c0.02227,-0.00568 0.04425,-0.0114 0.06595,-0.01719c-0.40634,-0.61284 -1.09329,-0.83413 -1.53064,-1.50053c0,0 -0.04444,-0.06896 -0.0475,-0.15606c-1.03037,-2.11171 -3.10727,-3.15441 -5.07405,-4.31924c-2.23409,-1.32314 -4.5512,-2.21165 -6.80244,-3.54495c0,0 -0.23877,-0.14141 -0.09736,-0.38018c0.14141,-0.23877 0.38018,-0.09736 0.38018,-0.09736c2.25136,1.33337 4.56644,2.22068 6.80244,3.54495c2.13535,1.26466 4.21401,2.38465 5.34629,4.67192l0.084,0.12639c0,0 0.01857,0.0288 0.03252,0.0727c0.44791,0.54818 1.06236,0.78158 1.44217,1.40281c0.67067,-0.28808 0.95178,-0.73318 1.11874,-1.63343l0.03422,-0.15871c0,0 0.05865,-0.27123 0.32988,-0.21258c0.27123,0.05865 0.21259,0.32988 0.21259,0.32988l-0.03125,0.14402c-0.06261,0.32751 -0.1419,0.60947 -0.24526,0.8536c0.71474,0.14737 1.40394,0.3296 2.1245,0.46491l0.18686,0.01147c0,0 0.2768,0.0197 0.2571,0.2965c-0.0197,0.2768 -0.2965,0.2571 -0.2965,0.2571l-0.25005,-0.01963c-0.36646,-0.06904 -0.72544,-0.15028 -1.08387,-0.23279c0.02728,0.17133 0.0467,0.33677 0.05846,0.49587c0.55387,-0.00201 1.11641,0.19409 1.59059,0.47051c0,0 0.23877,0.14141 0.09736,0.38018c-0.14141,0.23877 -0.38018,0.09736 -0.38018,0.09736c-0.36675,-0.22155 -0.8503,-0.40393 -1.29839,-0.39952c-0.00757,0.16684 -0.02524,0.32436 -0.05268,0.47186c0.48631,0.1549 0.96707,0.36531 1.39701,0.61889l0.24031,0.1721c0,0 0.22499,0.16245 0.06254,0.38743c-0.16245,0.22499 -0.38743,0.06254 -0.38743,0.06254l-0.19824,-0.14454c-0.38931,-0.23164 -0.82971,-0.42474 -1.27347,-0.56597c-0.05494,0.12476 -0.12005,0.23765 -0.19499,0.3379c0.50362,0.31628 0.97797,0.65667 1.43768,1.04572l0.23361,0.13725c0,0 0.23877,0.14141 0.09736,0.38018c-0.14141,0.23877 -0.38018,0.09736 -0.38018,0.09736l-0.27203,-0.16221c-0.49746,-0.41693 -1.00512,-0.77967 -1.5531,-1.11589c-0.33943,0.18468 -0.77448,0.2257 -1.29361,0.09696c-0.01231,0.04508 -0.0301,0.07512 -0.0301,0.07512c-0.48019,0.81078 -0.94795,1.66848 -1.81509,2.1147l-0.00189,0.00137c-0.06326,0.25931 -0.32749,0.20218 -0.32749,0.20218l-0.21838,-0.05007c-3.36925,-0.27684 -5.09784,-0.97584 -7.99966,-3.01031c-1.92452,-1.35037 -6.42905,-2.76173 -7.50964,-4.84056c0,0 -0.12023,-0.2501 0.12988,-0.37033c0.25011,-0.12023 0.37033,0.12987 0.37033,0.12987c0.7479,1.79915 5.69964,3.48577 7.32804,4.62658c2.81443,1.97323 4.44588,2.70637 7.72045,2.91115l0.10949,0.02262c0.0364,-0.04743 0.077,-0.07359 0.077,-0.07359l0.07082,-0.04389c0.75176,-0.37441 1.15947,-1.17451 1.57066,-1.87217c-0.20598,-0.08659 -0.42238,-0.19629 -0.64867,-0.33031l-0.1594,-0.04517c0,0 -0.26375,-0.08624 -0.17751,-0.35c0.06789,-0.20763 0.24579,-0.19838 0.31843,-0.18503c-0.00196,-0.00109 -0.00391,-0.00222 -0.00584,-0.00336zM259.31004,161.37265c-0.02102,0.01216 -0.04225,0.02459 -0.06369,0.03731c-0.00127,0.00371 -0.00257,0.00744 -0.0039,0.01119c0.02299,-0.01631 0.0455,-0.03248 0.06759,-0.0485z"/><path d="M245.92966,150.71344c0,0 0.27421,0.04262 0.23159,0.31683c-0.04262,0.27421 -0.31683,0.23158 -0.31683,0.23158c-0.28434,-0.05158 -0.37226,-0.01232 -0.58571,0.12744c-0.90315,1.8968 -1.99047,3.73632 -3.04411,5.52687c-0.06402,0.1081 -0.12805,0.2162 -0.19207,0.3243c0.05591,0.09678 0.13877,0.17904 0.26074,0.24049l0.13431,0.07955c0,0 0.23877,0.14141 0.09736,0.38018c-0.14141,0.23877 -0.38018,0.09736 -0.38018,0.09736l-0.13431,-0.07955c-0.11144,-0.07224 -0.20327,-0.14773 -0.27895,-0.22685c-0.2345,0.03257 -0.29617,-0.20823 -0.29617,-0.20823l-0.00645,-0.35283c0.00117,-0.00197 0.00233,-0.00394 0.0035,-0.00591c-0.01242,-0.05432 -0.02209,-0.11005 -0.02964,-0.16725c-0.51676,-0.56543 -0.63548,-1.46435 -0.7393,-2.20222c-0.11518,-1.445 1.02813,-3.27893 2.25311,-4.07144c0.64318,-0.41611 1.46002,0.07551 2.08733,-0.34884c0,0 0.2045,-0.13179 0.35394,0.0429c0.01444,0.00438 0.02939,0.00999 0.04487,0.01698c0.14735,0.06652 0.1701,0.18014 0.16343,0.2634c0.10924,-0.00996 0.22935,-0.00468 0.37355,0.01525z"/></g><path d="M245.04423,150.8111c3.84866,0.08586 16.58725,8.17305 13.67206,13.09527c-2.6146,4.41468 -14.76257,-3.78888 -17.03839,-6.00214c-1.12024,-1.08945 -1.45495,-3.86306 0.54766,-4.25901c-0.0072,-0.49387 0.11735,-0.99585 0.38748,-1.45196c0.46019,-0.77702 1.2402,-1.24752 2.07313,-1.34318c0.11565,-0.02763 0.23472,-0.04174 0.35805,-0.03899z"/><path d="M245.51616,153.22414c-0.0197,0.2768 -0.2965,0.2571 -0.2965,0.2571l-0.35382,-0.05455c-0.86498,-0.51229 -1.96034,-1.26853 -2.45247,-2.16366c0,0 -0.13199,-0.2441 0.11212,-0.37609c0.2441,-0.13199 0.37609,0.11212 0.37609,0.11212c0.42684,0.80652 1.47601,1.49342 2.24709,1.95009l0.1104,-0.02151c0,0 0.2768,0.0197 0.2571,0.2965z"/><path d="M247.6362,152.75849c0.04927,0.06509 0.08654,0.16698 0.00875,0.29834c-0.14141,0.23877 -0.38018,0.09736 -0.38018,0.09736l-0.18086,-0.2637c-0.00165,-0.46916 -0.07778,-0.92714 -0.30519,-1.34008c0,0 -0.13199,-0.2441 0.11212,-0.37609c0.2441,-0.13199 0.37609,0.11212 0.37609,0.11212c0.24635,0.46241 0.35129,0.95392 0.36927,1.47206z"/><path d="M249.20579,156.03736c-0.14141,0.23877 -0.38018,0.09736 -0.38018,0.09736l-0.15981,-0.09662c-0.49294,-0.37186 -1.02863,-0.66771 -1.55971,-0.98224c0,0 -0.23877,-0.14141 -0.09736,-0.38018c0.14141,-0.23877 0.38018,-0.09736 0.38018,-0.09736c0.54913,0.32522 1.10027,0.63277 1.61072,1.0164l0.10881,0.06247c0,0 0.23877,0.14141 0.09736,0.38018z"/><path d="M254.92814,159.54737c-0.14141,0.23877 -0.38018,0.09736 -0.38018,0.09736l-0.22385,-0.13258c-1.31273,-0.77746 -2.65064,-1.50937 -3.9663,-2.28858c0,0 -0.23877,-0.14141 -0.09736,-0.38018c0.14141,-0.23877 0.38018,-0.09736 0.38018,-0.09736c1.3157,0.77923 2.65352,1.51107 3.9663,2.28858l0.22385,0.13258c0,0 0.23877,0.14141 0.09736,0.38018z"/><path d="M259.70204,162.61662c-0.14141,0.23877 -0.38018,0.09736 -0.38018,0.09736l-0.04477,-0.02652c-0.97169,-0.57759 -2.06949,-1.22512 -2.87595,-2.01529c0,0 -0.19734,-0.1951 -0.00224,-0.39244c0.1951,-0.19734 0.39244,-0.00224 0.39244,-0.00224c0.76032,0.75963 1.84132,1.38547 2.76858,1.93243l0.04477,0.02652c0,0 0.23877,0.14141 0.09736,0.38018z"/><path d="M250.55243,160.70698c-0.14269,0.238 -0.3807,0.09531 -0.3807,0.09531l-0.29463,-0.17694c-0.36181,-0.26118 -0.65919,-0.46482 -0.93016,-0.81341c0,0 -0.16917,-0.21997 0.0508,-0.38914c0.21997,-0.16917 0.38914,0.0508 0.38914,0.0508c0.22811,0.30059 0.48398,0.46326 0.79563,0.68834l0.2746,0.16434c0,0 0.238,0.14269 0.09531,0.3807z"/><path d="M255.32058,164.1944c-0.14141,0.23877 -0.38018,0.09736 -0.38018,0.09736l-0.23923,-0.1541c-0.2613,-0.27623 -0.48007,-0.51544 -0.6628,-0.84941c0,0 -0.13199,-0.2441 0.11212,-0.37609c0.2441,-0.13199 0.37609,0.11212 0.37609,0.11212c0.15603,0.2928 0.34913,0.49043 0.57772,0.73192l0.11893,0.05803c0,0 0.23877,0.14141 0.09736,0.38018z"/><path d="M243.45333,157.67309c0.0197,-0.2768 0.2965,-0.2571 0.2965,-0.2571l0.16319,0.01573c0.40231,0.09984 0.80203,0.20705 1.20714,0.29456c0,0 0.27123,0.05865 0.21258,0.32988c-0.05865,0.27123 -0.32988,0.21258 -0.32988,0.21258c-0.41058,-0.08886 -0.81574,-0.19717 -1.22351,-0.29836l-0.06892,-0.00079c0,0 -0.2768,-0.0197 -0.2571,-0.2965z"/></g><path d="M233.51589,180.82847c2.8549,-4.75819 10.41414,-5.97441 15.37581,-4.99176c0.92797,0.08821 1.6831,0.24653 2.58395,0.41886c0.15803,-0.07256 0.31785,-0.14271 0.48021,-0.20934l0.16631,-0.06825c0,0 0.55431,-0.22748 0.78179,0.32684c0.02785,0.06787 0.04399,0.13084 0.05085,0.18909c0.05846,0.07728 0.08564,0.1435 0.08564,0.1435l0.06825,0.16631c1.8987,4.62671 2.9541,9.57778 4.78837,14.04749c0.80315,5.48181 -2.34584,12.14883 -5.05501,16.6922c-1.00152,1.78773 -7.2546,5.45419 -7.4493,6.59702c-0.31033,1.82154 4.82116,0.8628 3.18454,4.53876c-1.99674,1.28474 -12.05021,-0.30159 -13.51626,-2.25095c0,0 -0.22674,-0.30814 -0.07164,-0.61316c-0.02733,-0.14182 -0.00335,-0.26102 -0.00335,-0.26102l0.12786,-0.63541c0.0828,-0.41144 0.16594,-0.82279 0.24952,-1.23407c0.40511,-5.56123 2.05816,-11.35551 -0.16947,-16.78376c-0.783,-5.24881 0.45889,-10.18549 -1.63053,-15.32496c-0.02315,-0.04095 -0.04044,-0.08083 -0.05277,-0.11947c-0.19568,-0.29117 0.00521,-0.62794 0.00521,-0.62794z" fill="#888b44"/></g></g></svg>