<svg version="1.1" xmlns="http://www.w3.org/2000/svg" xmlns:xlink="http://www.w3.org/1999/xlink" width="26.54841" height="20.80617" viewBox="0,0,26.54841,20.80617"><g transform="translate(-221.01372,-165.0866)"><g data-paper-data="{&quot;isPaintingLayer&quot;:true}" fill-rule="nonzero" stroke="none" stroke-width="0.5" stroke-linecap="butt" stroke-linejoin="miter" stroke-miterlimit="10" stroke-dasharray="" stroke-dashoffset="0" style="mix-blend-mode: normal"><path d="M237.49824,166.43545l0.03447,-0.00689l0.14476,0.00689h0.01882l0.00443,0.00111l0.03098,0.00148l0.19325,-0.04832h0.27439l0.18293,-0.04573h0.11964l0.12699,-0.03175h0.04343l0.17875,-0.03973l0.44583,-0.11146h0.05573l0.05608,-0.01246l0.01869,0.01246h0.37256l0.13966,0.03492l0.14318,-0.01481l0.64024,0.09146l0.02214,0.00902l0.02382,-0.00191l0.27439,0.04574l0.14549,0.06325l0.15817,0.01217l0.20152,0.06717l0.05248,0.01312h0.89708l0.38278,0.09569l0.14755,-0.04024l0.22036,0.13222l0.24931,0.06233l0.07587,0.13278l0.33671,0.20203l0.02284,0.00457l0.03084,0.04846l0.03941,0.03941l0.22871,0.38118l0.06691,0.06082l0.09146,0.1372l0.0164,0.04592l0.03449,0.03449l0.13719,0.22866l0.04005,0.13162l0.08325,0.10953l0.1372,0.32012l0.00165,0.01027l0.0062,0.00834l0.20217,0.4852l0.06066,0.12131l0.01305,0.05871l0.03639,0.04788l0.1372,0.32012l0.00753,0.04667l0.02684,0.03892l0.13719,0.36586l0.00781,0.06839l0.03518,0.05917l0.13719,0.45731l0.00062,0.01352l0.00677,0.01173l0.06703,0.23461l0.19674,0.51151l0.00567,0.04621l0.025,0.03929l0.18293,0.54878l0.00969,0.12601l0.0541,0.11422l0.10276,0.5138l0.08779,0.15216l0.18292,0.64024l0.00316,0.09473l0.03954,0.08614l0.12005,0.64028l0.05397,0.1889l0.07772,0.23316l0.01528,0.19861l0.07191,0.18577l0.04067,0.32537l0.08476,0.50853l-0.00333,0.04171l0.0151,0.03902l0.04068,0.32537l0.00348,0.02089l0.01117,0.02792l0.025,0.18333l0.07921,0.16721l0.04573,0.22866l-0.00384,0.08061l0.02585,0.18954l0.09285,0.23986l0.03075,0.24601l0.06218,0.24869v0.24621l0.05971,0.23886v1.92073l-0.04832,0.19326l0.00147,0.03097l0.0011,0.00443v0.01881l0.0069,0.14476l-0.04573,0.22866l-0.02088,0.04407v0.14023l-0.07992,0.31968l-0.03639,0.18199l-0.1003,0.21175l-0.00923,0.11994l-0.04573,0.13719l-0.01482,0.0233l-0.00223,0.01002l-0.02861,0.05722l-0.00007,0.00092l-0.00447,0.0134l0.00591,0.02168l-0.02955,0.04925l-0.01763,0.05287l-0.01482,0.02329l-0.00223,0.01002l-0.04574,0.09146l-0.06453,0.07529l-0.1194,0.18763l-0.23644,0.39406l-0.0394,0.0394l-0.03084,0.04846l-0.02203,0.00441l-0.00337,0.00336l-0.20272,0.22807l-0.04111,0.06851l-0.17409,0.1741l-0.12668,0.21113l-0.09146,0.09146l-0.02543,0.01526c-0.68054,0.92763 -1.87986,1.60736 -3.51687,1.40103l-0.09118,0.00424l-0.08667,0.04106l-0.22866,0.04573l-0.19897,-0.00948l-0.0205,0.00513l-0.00919,0.00435l-0.0411,0.00822l-0.12247,0.03062h-0.03062l-0.03446,0.00689l-0.12215,-0.00581l-0.36155,0.09038h-0.05573l-0.05608,0.01246l-0.01869,-0.01246h-0.41829l-0.18293,0.04574h-0.8689l-0.19325,-0.04832l-0.19898,0.00947l-0.19703,-0.0394l-0.07931,-0.01322h-0.0174l-0.0348,-0.0087l-0.11107,-0.01851l-0.05009,-0.02178l-0.0429,-0.01073h-0.24621l-0.08283,-0.02071l-0.21798,-0.03114l-0.10362,-0.04221l-0.11658,-0.02914h-0.18293l-0.05594,-0.01398h-0.06329l-0.09089,-0.02273l-0.11868,0.00949l-0.23415,-0.03902l-0.20181,-0.02523h-2.4889l-0.01869,0.01246l-0.05607,-0.01246h-0.05573l-0.44582,-0.11146l-0.4486,-0.09969l-0.0183,-0.00914l-0.16463,-0.03659l-0.04985,-0.02492l-0.05573,-0.01393l-0.01115,-0.01951l-0.15767,-0.07883l-0.12398,-0.10627l-0.09962,-0.00554l-0.2478,-0.2891l-0.11533,-0.02307l-0.11052,-0.17369l-0.08536,-0.07317l-0.00115,-0.02058l-0.13605,-0.11662l-0.00849,-0.15269l-0.04685,-0.07363l-0.16335,-0.19058l-0.03718,-0.02125l-0.01394,-0.05572l-0.02492,-0.04985l-0.03154,-0.14195l-0.07842,-0.13069l0.02721,-0.09975l-0.01693,-0.07622l-0.11146,-0.44582v-0.05572l-0.01246,-0.05608l0.01246,-0.01869v-0.37256l0.05972,-0.23886v-0.24621l0.03175,-0.12699v-1.67452l0.04573,-0.18293v-0.22866l0.04573,-0.18293v-0.13719l0.01398,-0.05594v-0.10901l0.02997,-0.11988l-0.00511,-0.1074l0.04573,-0.22866l0.0069,-0.01456v-0.09626l0.04573,-0.18293v-0.45731l0.02731,-0.10926l-0.01508,-0.1116l0.04574,-0.41159l0.01943,-0.05231l-0.00445,-0.05562l0.01852,-0.11112v-0.74911l0.04831,-0.19326l-0.00147,-0.03097l-0.0011,-0.00443v-0.01882l-0.00689,-0.14475l0.00689,-0.03447v-0.12208l0.07798,-0.3119l0.02466,-0.32055l0.01361,-0.04081l0.02685,-0.34902l0.05382,-0.16147v-0.17021l0.03419,-0.13675l0.03639,-0.18199l0.03014,-0.06363l0.0015,-0.07038l0.12268,-0.44982l0.12564,-0.5863l0.0496,-0.10111l0.00863,-0.11229l0.04184,-0.12552l0.06566,-0.39399l0.08126,-0.18689l0.02484,-0.20227l0.22205,-0.57733l0.16741,-0.46036l0.20894,-0.62683v-0.17849l0.01398,-0.05593v-0.06329l0.04574,-0.18293v-0.18292l0.09146,-0.36586l0.00826,-0.01549l0.02016,-0.08065l0.0145,-0.18844l0.01132,-0.03397l-0.01277,-0.04683l0.04999,-0.08331v-0.00862l0.04573,-0.18293l0.05131,-0.09619l0.00044,-0.00176l0.00823,-0.03702l0.02492,-0.04984l0.01394,-0.05573l0.03536,-0.0202l0.03002,-0.05005l0.11198,-0.31354l0.09146,-0.1372l0.07473,-0.06794l0.04269,-0.08004l0.00448,-0.00126l0.00235,-0.04232l0.11878,-0.10181l0.00686,-0.01145l0.09146,-0.09146l0.07243,-0.04346l0.01148,-0.00983l0.00983,-0.01147l0.04346,-0.07243l0.09146,-0.09146l0.01144,-0.00687l0.10181,-0.11877l0.09963,-0.00554l0.12398,-0.10627l0.05487,-0.02743l0.09269,-0.07945l0.02125,-0.03718l0.05573,-0.01393l0.04985,-0.02492l0.14194,-0.03154l0.13069,-0.07842l0.09975,0.0272l0.07621,-0.01694l0.44583,-0.11146h0.05573l0.05608,-0.01246l0.01869,0.01246h0.18963l0.18293,-0.04573h0.27439l0.18293,-0.04574z" fill="#3f6729"/><path d="M232.7051,178.29035c0.07784,0.00906 0.12893,0.0576 0.15966,0.10093c0.04415,0.03557 0.12905,0.12324 0.09392,0.25062c0.23874,1.54204 -0.38863,3.26988 -0.82033,4.80816l0,0.35125c0,0.13807 -0.11193,0.25 -0.25,0.25c-0.06904,0 -0.13154,-0.02798 -0.17678,-0.07322l-0.17691,-0.17691c-1.33067,-1.10815 -3.00093,-1.81387 -4.21417,-3.02515c-1.9774,-2.02089 -1.9008,-3.39049 -1.9008,-6.05021c0.43151,-2.58903 0.97837,-3.86272 -1.12511,-5.44265c-0.77866,-0.5181 -2.19034,0.57031 -2.91876,0.05093c-1.18065,-0.84182 0.8474,-3.00151 1.50689,-3.44221c2.23925,-1.34434 4.90647,-1.02446 6.41999,1.10254c1.33295,2.47049 1.07369,4.52752 1.50858,7.13688c0.0048,1.91906 0.26472,3.12812 1.89382,4.15906z" fill="#ffd118"/></g></g></svg>