<svg version="1.1" xmlns="http://www.w3.org/2000/svg" xmlns:xlink="http://www.w3.org/1999/xlink" width="55.19305" height="11.82355" viewBox="0,0,55.19305,11.82355"><g transform="translate(-119.62741,-175.68537)"><g data-paper-data="{&quot;isPaintingLayer&quot;:true}" fill-rule="nonzero" stroke-linecap="butt" stroke-linejoin="miter" stroke-miterlimit="10" stroke-dasharray="" stroke-dashoffset="0" style="mix-blend-mode: normal"><path d="M123.49681,186.47892c-0.35016,0.28171 -0.79482,0.44134 -1.34733,0.44134c-0.67185,0 -1.27492,-0.52492 -1.75,-1c-0.16628,-0.16628 -0.28862,-0.3525 -0.37641,-0.55431c3.55735,-1.53209 6.04786,-5.06954 6.04786,-9.18867c0,-0.08139 -0.00097,-0.16256 -0.00291,-0.24349c0.37548,-0.04488 0.75126,-0.09436 1.12369,-0.14867c0.51575,0.06616 1.029,0.12472 1.53294,0.15139c-0.04491,1.31194 -0.13448,2.61979 -0.11167,3.92746c0.04227,2.42365 0.92716,4.6987 1.24242,7.10441c-2.16043,0.22053 -4.87155,0.50792 -6.3586,-0.48946z" fill="#b85000" stroke="none" stroke-width="0.5"/><path d="M174.31962,176.26788l-0.0183,10.74019l-54.17305,-0.0923l0.00175,-1.02723c3.56876,-1.5271 6.06927,-5.07047 6.06927,-9.19787c0,-0.08582 -0.00108,-0.17139 -0.00323,-0.2567c0.00025,-0.00988 0.00048,-0.01978 0.0007,-0.02967c0.02426,-0.0724 0.04771,-0.14517 0.07035,-0.2183z" fill-opacity="0.53333" fill="#00a67e" stroke="#827700" stroke-width="1"/></g></g></svg>