<svg version="1.1" xmlns="http://www.w3.org/2000/svg" xmlns:xlink="http://www.w3.org/1999/xlink" width="46.58697" height="48.57901" viewBox="0,0,46.58697,48.57901"><g transform="translate(-212.39252,-159.94187)"><g data-paper-data="{&quot;isPaintingLayer&quot;:true}" fill-rule="nonzero" stroke="none" stroke-width="0.5" stroke-linecap="butt" stroke-linejoin="miter" stroke-miterlimit="10" stroke-dasharray="" stroke-dashoffset="0" style="mix-blend-mode: normal"><path d="M238.33075,161.0308c8.66504,5.70089 13.70992,13.70577 17.28889,23.12936c0.93917,2.47288 3.07016,3.85394 3.30936,6.74415c0.02023,0.24441 0.03687,0.489 0.05049,0.73374c-1.2108,1.10712 -2.58371,3.84802 -2.76544,4.14214c-0.16688,0.27009 -0.45066,0.68311 -0.81085,1.19754c-1.34896,-1.16421 -2.54846,-2.37969 -3.82671,-3.47522c-0.0196,-0.84055 -0.04254,-1.5482 -0.07147,-1.97647c-0.09071,-1.34302 -2.07397,-2.87065 -2.60769,-4.10003c-0.85216,-1.96287 -1.53934,-4.05775 -2.37403,-6.07572c-1.1335,0.84775 -2.19492,1.58569 -2.58115,2.01528c-4.54033,5.05 -9.02366,10.15399 -13.85227,14.95248c-0.48431,0.17168 -0.88284,0.52466 -1.11397,0.97734c-0.02858,0.02926 -0.05557,0.05868 -0.08086,0.08818l-0.1052,0.21039c-0.05721,0.05543 -0.11446,0.11081 -0.17178,0.16614c-0.48894,0.31163 -0.90612,0.76432 -1.30046,1.23857c-0.93674,0.87971 -1.88843,1.74618 -2.85775,2.597c-1.42994,0.81354 -3.05473,1.38261 -4.42611,2.25236c-0.19398,-0.06271 -0.40093,-0.09659 -0.6158,-0.09659c-0.73405,0 -1.37573,0.39545 -1.72363,0.98493c-0.46027,0.26301 -0.58718,0.84443 -0.50283,1.49224c-0.11546,0.06349 -0.22398,0.13806 -0.32412,0.22226c-0.23452,0.04593 -0.47688,0.07 -0.72486,0.07c-0.10529,0 -0.20956,-0.00434 -0.31265,-0.01285c-1.92478,-0.15887 -3.43735,-1.77137 -3.43735,-3.73715c0,-1.53113 0.91763,-2.84793 2.23294,-3.43046c0.03391,-0.03472 0.06803,-0.06926 0.10236,-0.10361c3.06329,-1.03806 8.68965,-5.13956 10.65318,-7.85516c0.27732,-0.24231 0.48713,-0.55995 0.59753,-0.921c1.313,-1.32178 2.62111,-2.85261 2.77841,-3.35948c2.92126,-3.42561 5.66216,-6.99053 8.93224,-10.0871c0.86252,-0.81676 2.70909,-2.96171 4.5092,-4.52851c-1.80831,-2.12165 -3.99709,-4.64746 -6.37296,-6.65795c-0.00659,-0.01222 -0.01306,-0.02432 -0.0194,-0.0363c-0.69622,-1.31628 -1.7928,-2.25246 -2.54851,-3.46746c-0.39041,-0.62768 -0.76815,-1.26327 -1.13807,-1.90372c0.73135,-0.34697 1.45727,-0.71078 2.17607,-1.11032c0.82019,-0.45591 1.79528,-0.88944 2.75713,-1.36792c0.41759,0.40156 0.83343,0.79637 1.27811,1.08893z" fill="#654400"/><path d="" fill="#654400"/><path d="" fill="#654400"/><path d="" fill="#654400"/><path d="" fill="#654400"/><path d="" fill="#654400"/><path d="" fill="#654400"/><path d="" fill="#654400"/><path d="" fill="#654400"/><path d="" fill="#654400"/><path d="M228.70289,195.18838c-0.80336,-0.88189 -1.65207,-1.71016 -2.60738,-2.49176c0,0 -0.07074,-0.05788 -0.14263,-0.15792c0.00906,-0.02578 0.01761,-0.05179 0.02564,-0.07804c0.34096,-0.34324 0.6816,-0.70058 1.00183,-1.05043c0.90617,0.66691 1.70465,1.48499 2.45244,2.3576c0.70539,0.7463 1.37233,1.53059 2.03294,2.35805l0.6075,0.60587c0,0 0.04266,0.04266 0.09168,0.11587c-0.25488,0.2466 -0.50979,0.51121 -0.75389,0.78641c-0.01607,0.00901 -0.03211,0.01816 -0.0481,0.02743c-0.21041,0.02629 -0.41066,0.08527 -0.59552,0.17169c-0.67799,-0.84017 -1.3481,-1.76411 -2.06452,-2.64476z" fill="#583a00"/><path d="M213.39328,202.37208c0,0 -0.20711,-0.24477 -0.19046,-0.54964c0.14929,-0.10969 0.29616,-0.22501 0.43841,-0.34358c0.23646,-0.01345 0.51031,-0.06714 0.81438,-0.15597c0.05317,0.04532 0.08274,0.08027 0.08274,0.08027c1.30014,1.5423 2.53741,3.08537 3.69205,4.73886c-0.21612,0.15974 -0.39892,0.36197 -0.53607,0.59435c-0.2312,0.13211 -0.37829,0.34457 -0.45674,0.60543c-1.19228,-1.74984 -2.47821,-3.36067 -3.84432,-4.96972z" fill="#583a00"/><path d="M230.50713,197.88927l-0.1056,-0.11246c-0.21424,-0.32136 -0.44398,-0.58363 -0.69525,-0.87687c-0.91785,-1.28312 -2.48232,-3.11113 -3.85593,-4.1213c0.0514,-0.10133 0.09443,-0.20763 0.12818,-0.31798c0.03742,-0.03768 0.07485,-0.07552 0.11224,-0.11351c1.42718,1.07487 3.03373,2.87678 4.00915,4.24448c0.25827,0.30121 0.49692,0.57675 0.71764,0.90783l0.04313,0.03626c0,0 0.10198,0.10198 0.07357,0.22848c-0.12644,0.04565 -0.24697,0.10368 -0.36011,0.17262c-0.04143,-0.02197 -0.06701,-0.04755 -0.06701,-0.04755z" fill="#9b6700"/><path d="M228.77013,197.2629c-0.98331,-1.38495 -2.41946,-2.4132 -3.48383,-3.75296c0.03244,-0.04309 0.06402,-0.08586 0.09469,-0.12828c0.08723,-0.07622 0.16779,-0.1599 0.24067,-0.25003c1.06461,1.38748 2.54156,2.42886 3.55533,3.84066c0.31511,0.44124 0.57163,0.91177 0.87707,1.35886c-0.15874,0.05973 -0.30788,0.13906 -0.44446,0.23505c-0.28909,-0.43049 -0.53752,-0.88065 -0.83947,-1.30329z" fill="#9b6700"/><path d="M228.66202,199.4241l-0.1286,-0.17469c-0.99753,-1.77979 -2.80299,-3.13501 -4.06914,-4.77074c0.11839,-0.12687 0.23164,-0.25228 0.33927,-0.37588c1.2732,1.69792 3.10697,3.07696 4.16399,4.89855l0.09448,0.12276c0,0 0.00247,0.00329 0.00635,0.00935c-0.03324,0.05238 -0.06411,0.1064 -0.09246,0.16193c-0.02858,0.02926 -0.05557,0.05868 -0.08086,0.08818l-0.0714,0.1428c-0.09869,-0.01835 -0.16163,-0.10227 -0.16163,-0.10227z" fill="#9b6700"/><path d="M227.84881,200.13672l-0.156,-0.19546c-1.20216,-1.66451 -2.76854,-3.04281 -4.01789,-4.66627c0.12317,-0.11777 0.24299,-0.23492 0.35912,-0.3512c1.25251,1.65061 2.84372,3.04337 4.06375,4.72423l0.14145,0.17636c0,0 0.0587,0.07337 0.05914,0.16614c-0.09555,0.0768 -0.18846,0.15855 -0.27919,0.24417c-0.10237,-0.01294 -0.17039,-0.09796 -0.17039,-0.09796z" fill="#9b6700"/><path d="M227.6487,200.61335c0.0004,0.00021 0.0008,0.00042 0.00119,0.00063c-0.11524,0.12721 -0.22762,0.25871 -0.33822,0.39186c-1.23966,-1.86221 -3.34701,-3.00704 -4.75366,-4.72287c0.12681,-0.10858 0.25164,-0.21721 0.37424,-0.32571c1.37027,1.70604 3.44951,2.84832 4.71645,4.6561z" fill="#9b6700"/><path d="M225.68836,201.04725c-1.19909,-1.45731 -2.80657,-2.56366 -4.13468,-3.93783c0.1325,-0.10495 0.26373,-0.21041 0.39345,-0.31619c1.44359,1.46006 3.32437,2.62062 4.416,4.31913l0.28531,0.17832c0.07261,0.04374 0.12117,0.12335 0.12117,0.21429c0,0.13807 -0.11193,0.25 -0.25,0.25c-0.03694,0 -0.07201,-0.00801 -0.10356,-0.02239l-0.25519,-0.10937l0.01433,-0.03344l-0.07572,-0.00415c-0.02064,-0.0293 -0.04145,-0.05845 -0.06243,-0.08745l-0.24482,-0.15301c0,0 -0.18123,-0.11327 -0.10384,-0.29791z" fill="#9b6700"/><path d="M225.2463,202.68565c-0.17678,0.17678 -0.35355,0 -0.35355,0l-0.02045,-0.0219c-1.50264,-1.26842 -3.03178,-3.18284 -4.22501,-4.85881c0.13372,-0.09943 0.26674,-0.1997 0.39884,-0.30065c1.16143,1.63885 2.67288,3.56713 4.14626,4.77535l0.05391,0.05246c0,0 0.17678,0.17678 0,0.35355z" fill="#9b6700"/><path d="M224.18246,203.41241c-1.12308,-1.97313 -3.08326,-3.20004 -4.51685,-4.90145c0.13615,-0.09465 0.27214,-0.19054 0.40774,-0.2875c1.44118,1.71781 3.40287,2.95226 4.54472,4.9435c0.04603,0.08422 0.09503,0.16808 0.14973,0.24761c-0.14152,0.08615 -0.28536,0.1694 -0.43107,0.25031c-0.05505,-0.08201 -0.10605,-0.16685 -0.15427,-0.25247z" fill="#9b6700"/><path d="M223.2978,203.76768c-0.81082,-1.32075 -3.26701,-2.88815 -4.68886,-4.54923c0.13126,-0.08448 0.26293,-0.17051 0.39479,-0.25795c1.30868,1.74175 3.17002,3.44649 4.63993,4.44609c0.12668,0.13986 0.25183,0.28341 0.36321,0.43614c-0.14868,0.07796 -0.29889,0.15398 -0.45015,0.22865c-0.08097,-0.10552 -0.16951,-0.20579 -0.25892,-0.3037z" fill="#9b6700"/><path d="M221.90209,204.85219c-0.15201,0.07187 -0.3034,0.14442 -0.4537,0.21821c-1.01956,-1.9651 -2.83551,-3.33821 -3.94517,-5.17209c0.14107,-0.0825 0.28335,-0.16741 0.42655,-0.25455c1.10893,1.85027 2.97995,3.19911 3.97232,5.20843z" fill="#9b6700"/><path d="M216.42152,200.49481c0.14517,-0.0748 0.29266,-0.15311 0.44211,-0.23468c1.09232,1.8295 1.9894,3.73577 3.08481,5.56242c-0.16894,-0.04636 -0.34681,-0.07111 -0.53047,-0.07111c-0.03047,0 -0.06077,0.00068 -0.09091,0.00203c-1.01332,-1.73465 -1.87156,-3.53127 -2.90555,-5.25866z" fill="#9b6700"/><path d="M215.14067,201.08469c0.14881,-0.05889 0.30236,-0.1237 0.46006,-0.19403c0.84667,1.84682 2.13844,3.33243 3.31126,4.92534c-0.16592,0.04326 -0.32346,0.10729 -0.46966,0.18915c-1.16516,-1.59282 -2.45151,-3.07707 -3.30166,-4.92045z" fill="#9b6700"/><path d="M243.9602,183.70697c-0.10797,0.03085 -0.18129,-0.00065 -0.22932,-0.04472c-0.22657,-0.06617 -0.16825,-0.29947 -0.16825,-0.29947l0.01947,-0.07626l-0.00628,-0.02264c-0.13636,-0.22291 -0.23927,-0.43842 -0.4042,-0.64273c-1.16885,-1.75606 -2.8017,-3.63891 -4.40785,-5.00915c0,0 -0.18981,-0.1627 -0.02712,-0.35251c0.1627,-0.18981 0.35251,-0.02712 0.35251,-0.02712c1.61576,1.39081 3.25559,3.26398 4.44746,5.03605c-0.03118,-0.21807 -0.06407,-0.43701 -0.13512,-0.64901c-0.84797,-1.70244 -2.40645,-3.24886 -3.74515,-4.58172c0,0 -0.17678,-0.17678 0,-0.35355c0.17678,-0.17678 0.35355,0 0.35355,0c1.38934,1.39476 2.96558,2.97314 3.85354,4.74393c0.04762,0.14345 0.07563,0.29837 0.09815,0.45677c0.40756,-1.15545 0.98093,-2.28096 1.1537,-3.48022c0.17544,-0.58479 0.28876,-1.20214 0.38068,-1.83197c-1.2937,-0.46673 -2.58726,-0.91917 -3.92304,-1.32929c0,0 -0.23894,-0.07352 -0.16542,-0.31247c0.07352,-0.23894 0.31247,-0.16542 0.31247,-0.16542c1.30821,0.40345 2.57728,0.84593 3.84559,1.30229c0.03507,-0.26694 0.06827,-0.53514 0.10263,-0.80312c-1.19074,-0.27513 -2.39204,-0.48723 -3.63317,-0.48514c0,0 -0.25,0 -0.25,-0.25c0,-0.25 0.25,-0.25 0.25,-0.25c1.26487,0.00192 2.48669,0.21597 3.69834,0.49306c0.17519,-1.26773 0.41822,-2.50972 1.05234,-3.56659c0,0 0.00667,-0.01112 0.01951,-0.02677c-0.01668,-0.67306 -0.07063,-1.3431 -0.18126,-2.0054l-0.03375,-0.09157c0,0 -0.07906,-0.23717 0.15811,-0.31623c0.23717,-0.07906 0.31623,0.15811 0.31623,0.15811l0.0526,0.16748c0.32918,1.97929 0.17379,4.02511 0.00573,6.0187c0.44187,0.11096 0.88405,0.22272 1.32817,0.32799c1.08649,0.25885 2.23357,0.43405 3.33931,0.61476l0.08842,-0.0034c0,0 0.25,0 0.25,0.25c0,0.25 -0.25,0.25 -0.25,0.25l-0.17062,-0.0034c-1.11817,-0.18948 -2.27301,-0.35984 -3.37292,-0.62155c-0.43448,-0.10388 -0.86746,-0.21442 -1.30035,-0.32429c-0.05223,0.32014 -0.08426,0.64099 -0.10361,0.96241c0.60481,0.22006 1.21256,0.44121 1.82737,0.66076c1.4343,0.44103 2.78447,1.06096 4.225,1.46933l0.1399,0.04638c0,0 0.23717,0.07906 0.15811,0.31623c-0.07906,0.23717 -0.31623,0.15811 -0.31623,0.15811l-0.11915,-0.03996c-1.44575,-0.41595 -2.8049,-1.03235 -4.24527,-1.47559c-0.56889,-0.2032 -1.1315,-0.40788 -1.69123,-0.61181c-0.0366,1.51056 0.11627,3.03199 -0.31694,4.54933c0,0 -0.06868,0.24038 -0.30906,0.1717c-0.24038,-0.06868 -0.1717,-0.30906 -0.1717,-0.30906c0.43728,-1.5294 0.27188,-3.06306 0.31328,-4.58845c-0.15225,-0.05544 -0.30436,-0.11077 -0.45639,-0.16595c-0.08767,0.60954 -0.19659,1.20573 -0.36536,1.76827c-0.21338,1.50681 -1.07879,2.89455 -1.42725,4.37354c0.01775,0.03671 0.03734,0.0724 0.05907,0.10692l0.07395,0.29547c0,0 0.04822,0.24109 -0.19007,0.29291c-0.02343,0.0516 -0.07007,0.10059 -0.15909,0.12602zM246.44884,176.38737c0.01977,-0.30352 0.05142,-0.60666 0.10135,-0.90931c-0.13528,-0.03385 -0.27059,-0.06736 -0.406,-0.10032c-0.03591,0.2871 -0.07025,0.57456 -0.10689,0.86033c0.13712,0.04965 0.27428,0.09943 0.41154,0.1493zM246.6323,174.98779c0.07263,-0.88528 0.14416,-1.781 0.16929,-2.67608c-0.31302,0.80152 -0.47161,1.6796 -0.5933,2.57247c0.1414,0.03402 0.28272,0.06864 0.42401,0.10362z" fill="#012800"/></g></g></svg>