<svg version="1.1" xmlns="http://www.w3.org/2000/svg" xmlns:xlink="http://www.w3.org/1999/xlink" width="56.7523" height="44.48822" viewBox="0,0,56.7523,44.48822"><g transform="translate(-210.86367,-156.61463)"><g data-paper-data="{&quot;isPaintingLayer&quot;:true}" fill-rule="nonzero" stroke-linecap="butt" stroke-linejoin="miter" stroke-miterlimit="10" stroke-dasharray="" stroke-dashoffset="0" style="mix-blend-mode: normal"><path d="M212.52005,161.79692v-5.18229h55.09592v5.18229z" fill="#655700" stroke="#000000" stroke-width="0"/><path d="M211.98654,199.72587c-1.2438,-0.12438 -1.11942,-1.36818 -1.11942,-1.36818l0.13638,-1.36376c0.29893,-2.95387 0.67859,-6.04464 0.67568,-9.01282c0.00904,-9.10468 1.37063,-18.18771 2.18715,-27.252c0,0 0.11317,-1.24487 1.35804,-1.1317c1.24487,0.11317 1.1317,1.35804 1.1317,1.35804c-0.82448,8.98108 -2.18662,18.00339 -2.17688,27.02566c-0.00276,3.053 -0.38743,6.22179 -0.68808,9.26157l-0.13638,1.36376c0,0 -0.12438,1.2438 -1.36818,1.11942z" fill="#655700" stroke="none" stroke-width="0.5"/><path d="M266.47582,201.07568c-1.22984,0.22361 -1.45344,-1.00623 -1.45344,-1.00623l-0.28073,-1.54961c-0.34645,-3.47747 -0.24166,-6.98815 -0.55641,-10.48207c-0.00248,-3.27037 0.278,-6.54235 0.13664,-9.81345c-0.25117,-5.81228 -1.63806,-11.429 -1.63806,-17.24565c0,0 0,-1.25 1.25,-1.25c1.25,0 1.25,1.25 1.25,1.25c0,5.7694 1.38274,11.35239 1.63496,17.12111c0.14321,3.27554 -0.13345,6.55071 -0.13611,9.8247c0.31345,3.41473 0.19341,6.85007 0.5346,10.24709l0.26478,1.45066c0,0 0.22361,1.22984 -1.00623,1.45344z" fill="#655700" stroke="none" stroke-width="0.5"/></g></g></svg>