<svg version="1.1" xmlns="http://www.w3.org/2000/svg" xmlns:xlink="http://www.w3.org/1999/xlink" width="54.06794" height="96.3432" viewBox="0,0,54.06794,96.3432"><g transform="translate(-213.56535,-123.73986)"><g data-paper-data="{&quot;isPaintingLayer&quot;:true}" fill-rule="nonzero" stroke="none" stroke-width="0.5" stroke-linecap="butt" stroke-linejoin="miter" stroke-miterlimit="10" stroke-dasharray="" stroke-dashoffset="0" style="mix-blend-mode: normal"><path d="M215.31369,179.19728c1.89957,-5.21368 9.09039,-7.84299 14.14839,-7.82026c0.92784,-0.08959 1.69928,-0.07751 2.61648,-0.07936c0.14138,-0.10125 0.28497,-0.20046 0.43173,-0.2967l0.15033,-0.09858c0,0 0.50105,-0.32859 0.82963,0.17246c0.04023,0.06135 0.06803,0.12011 0.08582,0.176c0.07206,0.06477 0.11134,0.12464 0.11134,0.12464l0.09858,0.15032c2.7426,4.18206 4.71883,8.8427 7.36837,12.88285c1.82934,5.22962 0.00344,12.37324 -1.79383,17.34833c-0.64388,1.94536 -6.0871,6.73236 -6.06127,7.89137c0.04115,1.84733 4.89729,-0.06825 3.98836,3.85158c-1.7165,1.64048 -11.88828,1.99178 -13.69778,0.35623c0,0 -0.28113,-0.25949 -0.18676,-0.58841c-0.05375,-0.13405 -0.05285,-0.25564 -0.05285,-0.25564l0.00489,-0.64813c0.00318,-0.41968 0.00671,-0.83932 0.01067,-1.25899c-0.65813,-5.53699 -0.13527,-11.53974 -3.353,-16.4463c-1.76531,-5.00468 -1.4833,-10.08735 -4.51051,-14.73663c-0.0305,-0.03581 -0.05505,-0.07168 -0.07449,-0.10728c-0.2474,-0.24872 -0.11411,-0.61751 -0.11411,-0.61751z" fill="#888b44"/><g><path d="M250.93935,128.00416c-0.03283,0.00863 -0.07202,0.00993 -0.11862,-0.00046c-0.22718,-0.05067 -0.17652,-0.27786 -0.17652,-0.27786l0.13611,-0.29711c0.48523,-0.29547 0.87758,-0.39589 1.22273,-0.14002l0.07929,-0.07587l0.18989,0.19844c0.01171,0.01176 0.02235,0.02498 0.03162,0.03957c0.06894,0.10851 0.03685,0.25236 -0.07166,0.3213c-0.033,0.02097 -0.06928,0.03259 -0.10571,0.03556l-0.2157,0.02215c-0.26951,0.10666 -0.49821,0.19681 -0.78866,0.22882c0,0 -0.10679,0.01097 -0.18277,-0.05451z" fill="#e2e3a2"/><path d="M254.13474,141.20343c-1.04785,1.17332 -4.43075,3.86957 -5.98367,3.75589c-1.87771,-0.13745 -4.31367,-4.79783 -5.13412,-6.21927c-0.25257,-0.43758 -1.26491,-1.53127 -1.01641,-2.00202l0.2246,-0.42549c-0.15734,-0.4087 -0.26289,-0.81659 -0.30619,-1.2095c-0.0874,-0.79288 0.14828,-1.60332 0.03417,-2.39281c-0.25706,-1.77858 -0.34517,-3.73936 0.65862,-5.37953c0.99289,-1.62237 3.18571,-2.62168 4.85946,-3.33673c0,0 0.07879,-0.0334 0.2027,-0.0607l0.14059,-0.07009c4.11961,-0.6526 9.30113,1.30803 10.96606,5.33057c0.1741,0.42062 0.32092,0.88903 0.4212,1.37747c-0.15613,0.13498 -0.33863,0.23681 -0.52174,0.34705c-0.73258,0.01637 -1.4793,0.02402 -2.18001,-0.01947c-0.02556,-0.00702 -0.04354,-0.00841 -0.04354,-0.00841c-0.17874,-0.01387 -0.34375,-0.03328 -0.50904,-0.03841c-0.01006,-0.00111 -0.0201,-0.00223 -0.03013,-0.00337c0,0 -0.02603,-0.00285 -0.06158,0.00211c-0.12103,0.0006 -0.24358,0.01076 -0.37312,0.03815c-0.20812,-0.03087 -0.42132,-0.02581 -0.62985,0.01032c-0.03587,-0.01952 -0.06602,-0.02624 -0.06602,-0.02624l-0.21018,-0.00682c-0.47795,0.18667 -0.95614,0.36594 -1.4287,0.55567c-0.05544,-0.01729 -0.10474,-0.01223 -0.10474,-0.01223l-0.14105,0.01529c-0.22432,0.04216 -0.78125,0.08619 -1.18514,0.24396c-0.08488,0.00866 -0.16709,0.01729 -0.24779,0.02745c-0.03975,-0.02354 -0.07518,-0.03145 -0.07518,-0.03145l-0.16924,-0.01847c-0.47413,0.09046 -0.89923,0.20153 -1.37475,0.28899c0,0 -0.22879,0.04293 -0.18586,0.27171c0.03191,0.17012 0.1666,0.19 0.23357,0.18902c0.02846,0.03103 0.05599,0.04757 0.05599,0.04757c0.19242,0.10605 0.43389,0.16492 0.68815,0.19403c0.21581,0.14827 0.42823,0.27122 0.66796,0.39147l0.08408,-0.00618c0.83476,0.63304 1.95848,0.94512 3.0025,0.84526l0.15518,0.08044c0.07182,0.0389 0.16203,0.03877 0.23587,-0.00814c0.02316,-0.01471 0.04284,-0.03284 0.05881,-0.05331c0.60693,0.3229 1.46393,0.66389 2.29898,0.85448c0.05457,0.03952 0.1049,0.07575 0.15021,0.10838c0.15817,0.11335 0.31885,0.22303 0.48198,0.32885c0.0429,0.04831 0.08403,0.09813 0.12382,0.14922c-0.49679,0.53 -1.08444,1.0202 -1.71217,1.47794c-0.03971,1.40009 -1.47391,3.74744 -2.05429,4.39732z" fill="#888b44"/><path d="M253.25457,131.90171c0.00003,0.00119 0.00008,0.00238 0.00013,0.00356c-0.00451,0.00046 -0.00902,0.00093 -0.01352,0.00139c0.00446,-0.00165 0.00892,-0.0033 0.01338,-0.00495z" fill="#888b44"/><path d="M251.14679,132.01685c-0.06894,-0.10851 -0.03686,-0.25237 0.07166,-0.32131c0.10851,-0.06894 0.25236,-0.03685 0.3213,0.07166c0.06894,0.10851 0.03686,0.25236 -0.07165,0.3213c-0.10851,0.06894 -0.25237,0.03686 -0.32131,-0.07166z" fill="#c0c649"/><path d="M252.31146,131.6016c-0.06894,-0.10851 -0.03686,-0.25237 0.07166,-0.32131c0.10851,-0.06894 0.25236,-0.03685 0.3213,0.07166c0.06894,0.10851 0.03686,0.25236 -0.07165,0.3213c-0.10851,0.06894 -0.25237,0.03686 -0.32131,-0.07166z" fill="#c0c649"/><path d="M252.83284,131.40023c-0.06894,-0.10851 -0.03686,-0.25237 0.07166,-0.32131c0.09083,-0.0577 0.20642,-0.04463 0.28211,0.02481c0.01428,-0.05509 0.04868,-0.10509 0.1005,-0.13801c0.10851,-0.06894 0.25235,-0.03686 0.32129,0.07165c0.06894,0.10851 0.03686,0.25236 -0.07165,0.3213c-0.09083,0.0577 -0.20642,0.04463 -0.28211,-0.0248c-0.01428,0.05509 -0.04868,0.10509 -0.1005,0.13801c-0.10851,0.06894 -0.25237,0.03686 -0.3213,-0.07165z" fill="#c0c649"/><path d="M253.70307,131.23695c-0.06894,-0.10851 -0.03685,-0.25236 0.07165,-0.32129c0.09534,-0.06057 0.21797,-0.04315 0.29308,0.03557c0.01786,-0.02864 0.04225,-0.05382 0.07264,-0.07313c0.10851,-0.06894 0.25236,-0.03685 0.3213,0.07166c0.06894,0.10851 0.03685,0.25236 -0.07165,0.32129c-0.09534,0.06057 -0.21797,0.04315 -0.29308,-0.03557c-0.01786,0.02864 -0.04226,0.05381 -0.07265,0.07312c-0.10851,0.06894 -0.25236,0.03685 -0.32129,-0.07165z" fill="#c0c649"/><path d="M254.90965,130.98987c-0.06894,-0.10851 -0.03686,-0.25237 0.07166,-0.32131c0.10851,-0.06894 0.25236,-0.03685 0.3213,0.07166c0.06894,0.10851 0.03685,0.25236 -0.07165,0.32129c-0.10851,0.06894 -0.25236,0.03686 -0.3213,-0.07165z" fill="#c0c649"/><path d="M255.6411,130.91476c-0.06894,-0.10851 -0.03685,-0.25236 0.07165,-0.32129c0.10851,-0.06894 0.25237,-0.03686 0.3213,0.07165c0.06894,0.10851 0.03686,0.25237 -0.07166,0.32131c-0.10851,0.06894 -0.25236,0.03685 -0.3213,-0.07166z" fill="#c0c649"/><path d="M256.35133,131.11286c-0.06894,-0.10851 -0.03685,-0.25236 0.07165,-0.32129c0.10851,-0.06894 0.25236,-0.03686 0.3213,0.07165c0.06894,0.10851 0.03686,0.25237 -0.07166,0.32131c-0.10851,0.06894 -0.25236,0.03685 -0.3213,-0.07166z" fill="#c0c649"/><path d="M257.23408,131.0715c-0.06894,-0.10851 -0.03686,-0.25237 0.07166,-0.32131c0.10851,-0.06894 0.25237,-0.03686 0.32131,0.07166c0.06894,0.10851 0.03685,0.25236 -0.07166,0.3213c-0.10851,0.06894 -0.25237,0.03686 -0.3213,-0.07165z" fill="#c0c649"/><path d="M257.84363,131.00891c-0.06894,-0.10851 -0.03685,-0.25236 0.07166,-0.3213c0.10851,-0.06894 0.25235,-0.03686 0.32129,0.07165c0.06894,0.10851 0.03686,0.25236 -0.07165,0.3213c-0.10851,0.06894 -0.25237,0.03686 -0.32131,-0.07166z" fill="#c0c649"/><path d="M258.51196,131.03884c-0.06894,-0.10851 -0.03686,-0.25236 0.07165,-0.3213c0.10851,-0.06894 0.25237,-0.03686 0.32131,0.07166c0.06894,0.10851 0.03685,0.25236 -0.07166,0.3213c-0.10851,0.06894 -0.25236,0.03685 -0.32129,-0.07165z" fill="#c0c649"/><path d="M252.09564,133.13786c-0.01803,0.23208 -0.2501,0.21404 -0.2501,0.21404l-0.2732,-0.02123c0,0 -0.23207,-0.01803 -0.21405,-0.2501c0.01803,-0.23208 0.2501,-0.21405 0.2501,-0.21405l0.2732,0.02123c0,0 0.23207,0.01803 0.21405,0.2501z" fill="#c0c649"/><path d="M252.07037,133.57283c-0.06894,-0.10851 -0.03685,-0.25236 0.07166,-0.3213c0.10851,-0.06894 0.25236,-0.03685 0.32129,0.07165c0.06894,0.10851 0.03686,0.25237 -0.07165,0.3213c-0.10851,0.06894 -0.25237,0.03686 -0.32131,-0.07166z" fill="#c0c649"/><path d="M252.79747,133.69528c-0.06894,-0.10851 -0.03686,-0.25237 0.07165,-0.3213c0.10851,-0.06894 0.25236,-0.03685 0.3213,0.07166c0.06894,0.10851 0.03685,0.25236 -0.07165,0.32129c-0.10851,0.06894 -0.25236,0.03685 -0.32129,-0.07165z" fill="#c0c649"/><path d="M253.62961,133.88086c-0.05773,-0.09086 -0.04462,-0.20652 0.02489,-0.2822c-0.01243,-0.03959 -0.01376,-0.08116 -0.00494,-0.12047c0.01301,-0.05805 0.04814,-0.11114 0.10232,-0.14556c0.10851,-0.06894 0.25236,-0.03686 0.3213,0.07165c0.05773,0.09086 0.04462,0.20652 -0.02489,0.2822c0.03077,0.09805 -0.00651,0.20831 -0.09738,0.26604c-0.10851,0.06894 -0.25235,0.03686 -0.32129,-0.07165z" fill="#c0c649"/><path d="M254.37358,133.92767c-0.06894,-0.10851 -0.03685,-0.25236 0.07166,-0.3213c0.10851,-0.06894 0.25237,-0.03686 0.3213,0.07165c0.06894,0.10851 0.03686,0.25237 -0.07166,0.32131c-0.10851,0.06894 -0.25237,0.03686 -0.32131,-0.07166z" fill="#c0c649"/><path d="M255.13007,134.09638c-0.06894,-0.10851 -0.03686,-0.25237 0.07166,-0.32131c0.10851,-0.06894 0.25236,-0.03685 0.3213,0.07166c0.06894,0.10851 0.03686,0.25235 -0.07165,0.32129c-0.10851,0.06894 -0.25236,0.03686 -0.3213,-0.07165z" fill="#c0c649"/><path d="M255.71839,134.30699c-0.06894,-0.10851 -0.03686,-0.25235 0.07165,-0.32129c0.10851,-0.06894 0.25237,-0.03686 0.3213,0.07165c0.06894,0.10851 0.03685,0.25236 -0.07166,0.3213c-0.10851,0.06894 -0.25236,0.03685 -0.32129,-0.07165z" fill="#c0c649"/><path d="M256.32358,134.44197c-0.06894,-0.10851 -0.03686,-0.25237 0.07166,-0.32131c0.10851,-0.06894 0.25236,-0.03685 0.3213,0.07166c0.06894,0.10851 0.03685,0.25236 -0.07165,0.32129c-0.10851,0.06894 -0.25236,0.03686 -0.3213,-0.07165z" fill="#c0c649"/><path d="M256.91191,134.65258c-0.06894,-0.10851 -0.03686,-0.25237 0.07166,-0.32131c0.10851,-0.06894 0.25237,-0.03686 0.32131,0.07166c0.06894,0.10851 0.03685,0.25236 -0.07166,0.3213c-0.10851,0.06894 -0.25236,0.03686 -0.3213,-0.07165z" fill="#c0c649"/><path d="M257.4371,134.96824c-0.06894,-0.10851 -0.03686,-0.25237 0.07166,-0.32131c0.10851,-0.06894 0.25236,-0.03685 0.3213,0.07166c0.06894,0.10851 0.03686,0.25237 -0.07165,0.3213c-0.10851,0.06894 -0.25237,0.03686 -0.32131,-0.07166z" fill="#c0c649"/><path d="M251.6513,131.89114c-0.06894,-0.10851 -0.03686,-0.25237 0.07165,-0.3213c0.10851,-0.06894 0.25236,-0.03685 0.3213,0.07166c0.06894,0.10851 0.03686,0.25237 -0.07165,0.3213c-0.10851,0.06894 -0.25236,0.03685 -0.3213,-0.07166z" fill="#c0c649"/><path d="M248.15784,132.42232c-0.06894,-0.10851 -0.03686,-0.25237 0.07166,-0.32131c0.01287,-0.00818 0.02625,-0.01494 0.03994,-0.02031c0.08431,-0.10124 0.22807,-0.06918 0.22807,-0.06918l0.07686,0.02938c0.27011,-0.02677 0.46666,0.01421 0.71762,-0.09008c0,0 0.0263,-0.01015 0.06411,-0.01425c0.03339,-0.05305 0.07998,-0.08264 0.07998,-0.08264c0.40413,-0.24609 0.8432,-0.23449 1.30762,-0.28217l-0.00852,-0.02369c0,0 0.19648,-0.12482 0.32131,0.07166c0.12482,0.19648 -0.07166,0.3213 -0.07166,0.3213l-0.19356,0.09386c-0.35981,0.03695 -0.77632,0.00483 -1.08339,0.19758c0.26626,0.1118 0.54478,0.18972 0.82589,0.28296c0.10899,-0.05778 0.22684,0.01305 0.22684,0.01305l0.31111,0.18698c0.03172,0.01817 0.05962,0.04411 0.08058,0.0771c0.06894,0.10851 0.03686,0.25237 -0.07166,0.32131c-0.06509,0.04135 -0.14292,0.04636 -0.20965,0.02031l-0.2538,-0.09592c-0.51316,-0.19393 -1.01738,-0.29698 -1.48447,-0.57335c-0.16154,0.02092 -0.31592,0.01829 -0.51076,0.03912l-0.12652,-0.02136c-0.00522,0.00397 -0.01064,0.00774 -0.01626,0.01131c-0.10851,0.06894 -0.25237,0.03686 -0.32131,-0.07166z" fill="#9a0000"/><path d="M251.1974,131.78991c-0.06894,-0.10851 -0.03686,-0.25235 0.07165,-0.32129c0.10851,-0.06894 0.25237,-0.03686 0.3213,0.07165c0.06894,0.10851 0.03685,0.25236 -0.07166,0.3213c-0.10851,0.06894 -0.25236,0.03685 -0.32129,-0.07165z" fill="#9a0000"/><path d="M251.85756,131.50037c-0.06894,-0.10851 -0.03686,-0.25236 0.07165,-0.3213c0.10851,-0.06894 0.25237,-0.03686 0.32131,0.07166c0.06894,0.10851 0.03685,0.25236 -0.07166,0.3213c-0.10851,0.06894 -0.25235,0.03686 -0.32129,-0.07165z" fill="#9a0000"/><path d="M253.11475,131.02634c-0.06894,-0.10851 -0.03685,-0.25236 0.07166,-0.3213c0.10851,-0.06894 0.25236,-0.03685 0.32129,0.07165c0.06894,0.10851 0.03685,0.25236 -0.07165,0.32129c-0.10851,0.06894 -0.25237,0.03686 -0.3213,-0.07165z" fill="#9a0000"/><path d="M253.75369,131.01001c-0.06894,-0.10851 -0.03685,-0.25236 0.07165,-0.32129c0.10851,-0.06894 0.25236,-0.03685 0.32129,0.07165c0.06894,0.10851 0.03686,0.25237 -0.07165,0.3213c-0.10851,0.06894 -0.25236,0.03685 -0.3213,-0.07166z" fill="#9a0000"/><path d="M252.95693,134.04849c-0.06894,-0.10851 -0.03686,-0.25237 0.07165,-0.3213c0.10851,-0.06894 0.25236,-0.03685 0.3213,0.07166c0.06894,0.10851 0.03686,0.25237 -0.07165,0.3213c-0.10851,0.06894 -0.25236,0.03685 -0.3213,-0.07166z" fill="#9a0000"/><path d="M253.50334,134.09094c-0.06894,-0.10851 -0.03686,-0.25235 0.07165,-0.32129c0.10851,-0.06894 0.25237,-0.03686 0.3213,0.07165c0.06894,0.10851 0.03686,0.25237 -0.07166,0.32131c-0.10851,0.06894 -0.25236,0.03685 -0.3213,-0.07166z" fill="#9a0000"/><path d="M254.14228,134.07461c-0.06894,-0.10851 -0.03686,-0.25235 0.07165,-0.32129c0.10851,-0.06894 0.25237,-0.03686 0.3213,0.07165c0.06894,0.10851 0.03686,0.25237 -0.07166,0.32131c-0.10851,0.06894 -0.25236,0.03685 -0.3213,-0.07166z" fill="#9a0000"/><path d="M257.45144,134.02783l-0.00403,0.02807l-0.1715,-0.02463c-0.02918,-0.00402 -0.05668,-0.01902 -0.07583,-0.04354c-0.21404,0.00249 -0.40597,0.02841 -0.6014,-0.02531c0.0076,0.0448 -0.0116,0.09184 -0.05237,0.11774c-0.04327,0.02749 -0.09777,0.02285 -0.13555,-0.00767l-0.01086,-0.00836c-0.0479,0.04684 -0.0908,0.10199 -0.12736,0.16625l-0.00243,0.0071l0.02099,0.01261l-0.00751,0.01251c0.10075,-0.0374 0.21734,-0.00084 0.27729,0.09352c0.06894,0.10851 0.03686,0.25237 -0.07166,0.32131c-0.10851,0.06894 -0.25236,0.03685 -0.3213,-0.07166c-0.0377,-0.05934 -0.04519,-0.12926 -0.02649,-0.19171c-0.04352,0.00575 -0.08846,-0.0135 -0.11355,-0.05299c-0.01993,-0.03137 -0.02297,-0.06862 -0.01151,-0.10115l0.0366,-0.10683c-0.11361,-0.02675 -0.23581,-0.02775 -0.34278,0.00892l-0.02657,0.07754c-0.00817,0.0245 -0.0245,0.04646 -0.04799,0.06139c-0.05426,0.03447 -0.12618,0.01843 -0.16065,-0.03583c-0.01993,-0.03137 -0.02297,-0.06862 -0.01151,-0.10115l0.02504,-0.07309c-0.08187,-0.08963 -0.17983,-0.15346 -0.27874,-0.12312l-0.00254,0.00161l0.00736,0.0163l-0.05945,0.02684c0.05941,0.01236 0.11396,0.0478 0.14908,0.10308c0.06894,0.10851 0.03686,0.25236 -0.07165,0.3213c-0.10851,0.06894 -0.25237,0.03686 -0.32131,-0.07166c-0.05635,-0.0887 -0.04519,-0.20101 0.02002,-0.27671c-0.04435,0.00692 -0.09063,-0.0123 -0.11623,-0.0526c-0.00077,-0.00121 -0.0015,-0.00241 -0.00222,-0.00364c-0.03429,0.00859 -0.08473,0.00756 -0.12223,-0.05147c-0.06241,-0.09824 0.03582,-0.16065 0.03582,-0.16065c1.04156,-0.6617 1.63578,-1.0522 2.86936,-0.98109c0.88022,0.28108 1.46438,1.06213 2.35469,1.32688c0.10866,0.01745 0.21743,0.03881 0.32647,0.06587l-0.00099,-0.00957l0.12344,-0.01268c0.04323,-0.00536 0.08773,0.01389 0.11264,0.05311c0.03447,0.05426 0.01843,0.12618 -0.03583,0.16065c-0.01167,0.00741 -0.02415,0.01249 -0.0369,0.01535l-0.11319,0.02821l-0.00249,-0.00999l-0.01778,0.01318c-0.03878,-0.00373 -0.07692,-0.00844 -0.11446,-0.01407c-0.16848,0.06611 -0.48858,0.05685 -0.62207,0.04515c-0.70723,-0.06199 -1.15569,-0.17588 -1.75177,-0.42305c-0.12183,-0.00309 -0.24167,-0.01668 -0.36612,-0.05028zM257.62435,133.736c-0.01259,-0.00408 -0.02508,-0.00803 -0.03745,-0.01187l0.00525,0.00548c0.00656,0.00251 0.01309,0.00505 0.01961,0.00763c0.00417,-0.00042 0.00837,-0.00084 0.01259,-0.00125z" fill="#9a0000"/><path d="M257.07083,135.72038c-0.06894,-0.10851 -0.03686,-0.25236 0.07165,-0.3213c0.01322,-0.0084 0.02696,-0.01529 0.04104,-0.02074c-0.01042,-0.0109 -0.01994,-0.02299 -0.02834,-0.03621c-0.03697,-0.05819 -0.04488,-0.12652 -0.02756,-0.18803c-0.02601,-0.01622 -0.04917,-0.03784 -0.06766,-0.06443c-0.01006,0.00926 -0.02108,0.01775 -0.03302,0.02534c-0.00782,0.00497 -0.01584,0.00942 -0.02398,0.01335c-0.00701,0.00571 -0.01446,0.01107 -0.02228,0.01604c-0.10851,0.06894 -0.25236,0.03685 -0.3213,-0.07166c-0.02125,-0.03345 -0.03289,-0.07026 -0.03567,-0.1072c-0.03226,-0.01821 -0.06063,-0.04439 -0.08188,-0.07784c-0.06894,-0.10851 -0.03686,-0.25236 0.07165,-0.3213c0.10851,-0.06894 0.25237,-0.03686 0.32131,0.07166c0.01119,0.01761 0.01971,0.03614 0.02568,0.05513c0.05216,0.0135 0.09979,0.04502 0.13268,0.09231c0.01006,-0.00926 0.02108,-0.01775 0.03302,-0.02534c0.10851,-0.06894 0.25237,-0.03686 0.32131,0.07166c0.02248,0.03538 0.03421,0.07454 0.03606,0.11362c0.07784,-0.01225 0.15869,0.01576 0.212,0.07723c0.07865,-0.00162 0.15622,0.03668 0.20149,0.10794c0.06894,0.10851 0.03685,0.25236 -0.07166,0.3213c-0.02064,0.01311 -0.04254,0.02257 -0.06498,0.02854c0.00501,0.08183 -0.03344,0.16385 -0.10755,0.21093c-0.05819,0.03697 -0.12653,0.04487 -0.18804,0.02755c-0.01786,0.02865 -0.04226,0.05382 -0.07265,0.07313c-0.10851,0.06894 -0.25236,0.03685 -0.32129,-0.07165z" fill="#9a0000"/><path d="M258.20971,130.43563c0.10851,-0.06894 0.25237,-0.03686 0.32131,0.07166c0.06894,0.10851 0.03686,0.25237 -0.07166,0.32131c-0.08528,0.05418 -0.19238,0.04596 -0.26779,-0.01271c0.02106,0.0932 -0.017,0.19364 -0.10228,0.24782c-0.10851,0.06894 -0.25237,0.03686 -0.32131,-0.07166c-0.06894,-0.10851 -0.03686,-0.25237 0.07166,-0.32131c0.08528,-0.05418 0.19238,-0.04596 0.26779,0.01271c-0.02106,-0.0932 0.01699,-0.19364 0.10228,-0.24782z" fill="#9a0000"/><path d="M258.78988,130.32678c0.10851,-0.06894 0.25236,-0.03685 0.3213,0.07166c0.06058,0.09535 0.04315,0.21799 -0.03559,0.29311c-0.01499,0.05319 -0.04888,0.10126 -0.0992,0.13323c-0.10851,0.06894 -0.25236,0.03685 -0.3213,-0.07166c-0.00497,-0.00782 -0.00942,-0.01584 -0.01334,-0.02399c-0.00571,-0.00701 -0.01108,-0.01445 -0.01604,-0.02227c-0.06894,-0.10851 -0.03686,-0.25237 0.07165,-0.3213c0.01594,-0.01012 0.03263,-0.01806 0.04974,-0.02391c0.01257,-0.01301 0.02685,-0.02474 0.04278,-0.03487z" fill="#9a0000"/><path d="M251.27986,127.61874c-0.20111,0.13087 -0.43325,0.25451 -0.51058,0.30364l-0.2313,0.14694v0c-0.10851,0.06894 -0.25236,0.03685 -0.3213,-0.07166c-0.04983,-0.07844 -0.04688,-0.17533 -0.00044,-0.24905l0.04346,-0.07228c0.00722,-0.05959 0.03395,-0.10407 0.03395,-0.10407c0.08198,-0.13512 0.3639,-0.44515 0.64677,-0.64671c0.03135,-0.07292 0.09679,-0.11451 0.09679,-0.11451l0.12816,-0.06169c0.45842,-0.06707 0.64688,0.03257 0.65888,0.18493c0.02478,0.01717 0.04661,0.03947 0.0638,0.06652c0.04983,0.07844 0.04687,0.17532 0.00044,0.24905l-0.12366,0.20575l-0.13353,-0.08025c-0.10353,0.09852 -0.22518,0.18103 -0.35143,0.2434z" fill="#99926f"/><path d="M251.68862,126.91838c-0.70674,-0.22099 -1.13535,0.60779 -1.46777,1.15671c0.24661,-0.10906 0.49409,-0.2167 0.7459,-0.31779c0.42157,-0.19015 0.72514,-0.47385 1.03643,-0.76022c-0.08538,-0.002 -0.1694,-0.03821 -0.31455,-0.0787zM249.94382,128.07987c0.41279,-0.6406 0.90308,-1.66755 1.816,-1.38311c0.13661,0.04934 0.31274,0.05902 0.43534,-0.01886l0.0511,-0.03246c0,0 0.08079,-0.05132 0.14238,0.01238c0.17886,-0.14514 0.37399,-0.28084 0.6041,-0.39356l0.07034,-0.03444c0,0 0.10453,-0.05119 0.1557,0.05334c0.05118,0.10454 -0.05335,0.15571 -0.05335,0.15571l-0.07034,0.03444c-0.84269,0.4124 -1.20928,1.12404 -2.03721,1.49816c-0.69945,0.27891 -1.36189,0.60934 -2.06728,0.88214c0,0 -0.10858,0.04193 -0.15051,-0.06665c-0.04193,-0.10858 0.06664,-0.1505 0.06664,-0.1505c0.35066,-0.13524 0.69134,-0.28503 1.03116,-0.43585c-0.03484,-0.05754 0.0059,-0.12077 0.0059,-0.12077z" fill="#9a0000"/></g><g><path d="M257.0005,153.33146c0.16467,0.088 0.22682,0.29282 0.13882,0.45749c-0.03665,0.06857 -0.09355,0.11936 -0.15938,0.14894c0.04593,0.15708 0.09336,0.31626 0.14247,0.47765c1.2953,4.26877 0.49777,8.80943 1.75454,12.97635c0.23677,4.44974 0.02692,8.53075 -0.76173,12.89636c-0.74171,2.95984 -2.26644,5.72304 -3.50614,8.50754c-0.46275,1.03939 -1.39162,2.83494 -0.86838,3.92688c-0.91473,1.62693 1.39208,4.39912 1.4803,6.2049c0.1192,2.44008 -2.03692,3.68262 -3.56158,5.03124c-4.19102,-0.03295 -7.17488,1.58141 -11.07089,-1.53726c-2.59794,-1.5795 -8.32922,-4.06563 -9.33907,-7.01006c-2.49685,-3.65211 -5.46241,-5.35592 -9.27608,-7.39396c-4.49912,-2.4248 -7.21282,-4.53102 -8.22965,-9.80033c-0.04447,-0.89277 0.00057,-1.88874 0.11652,-2.93348c-0.00108,-0.00056 -0.00216,-0.00113 -0.00323,-0.0017c-0.16467,-0.088 -0.22682,-0.29282 -0.13882,-0.45749c0.04743,-0.08874 0.12877,-0.14772 0.21949,-0.16945c0.00312,-0.02312 0.00628,-0.04627 0.00947,-0.06942c-0.06753,0.00886 -0.13837,-0.00255 -0.20302,-0.0371c-0.16467,-0.088 -0.22682,-0.29282 -0.13882,-0.45749c0.0845,-0.15813 0.27674,-0.22171 0.43769,-0.1486c0.02667,-0.16652 0.05486,-0.33364 0.08447,-0.50118c-0.03708,-0.0056 -0.07386,-0.01752 -0.10883,-0.03621c-0.16467,-0.088 -0.22682,-0.29282 -0.13882,-0.45749c0.07327,-0.1371 0.22752,-0.20314 0.37215,-0.17061c0.02318,-0.11712 0.047,-0.23431 0.07146,-0.3515c-0.06985,0.01082 -0.14368,-0.0001 -0.21082,-0.03598c-0.16467,-0.088 -0.22682,-0.29282 -0.13882,-0.45749c0.088,-0.16467 0.29282,-0.22682 0.45749,-0.13882c0.00919,0.00491 0.01806,0.01019 0.0266,0.01579c0.03636,-0.15991 0.07382,-0.3196 0.11232,-0.47891c-0.08671,0.03104 -0.18572,0.02672 -0.27335,-0.02011c-0.16467,-0.088 -0.22682,-0.29282 -0.13882,-0.45749c0.088,-0.16467 0.29282,-0.22682 0.45749,-0.13882c0.03516,0.01879 0.06565,0.04291 0.091,0.07083c0.02046,-0.0793 0.04116,-0.15845 0.06211,-0.23743c-0.01766,-0.00593 -0.03506,-0.01341 -0.05205,-0.02248c-0.16467,-0.088 -0.22682,-0.29282 -0.13882,-0.45749c0.07289,-0.1364 0.22597,-0.20247 0.36996,-0.1711c0.0582,-0.20419 0.11792,-0.40682 0.17897,-0.60747c-0.06026,-0.09885 -0.06813,-0.2261 -0.00962,-0.33559c0.03698,-0.0692 0.09459,-0.12029 0.16118,-0.14975c0.02439,-0.07615 0.04899,-0.15196 0.07375,-0.2274c-0.0637,0.00594 -0.12981,-0.00609 -0.19045,-0.0385c-0.16467,-0.088 -0.22681,-0.29282 -0.13881,-0.45749c0.088,-0.16467 0.29282,-0.22682 0.45749,-0.13882c0.02593,0.01386 0.04932,0.03061 0.06997,0.04964c0.06055,-0.17325 0.12197,-0.34412 0.18418,-0.51234c-0.03425,-0.00606 -0.06812,-0.01755 -0.10046,-0.03483c-0.16467,-0.088 -0.22682,-0.29282 -0.13882,-0.45749c0.088,-0.16467 0.29282,-0.22682 0.45749,-0.13882c0.00663,0.00355 0.0131,0.00728 0.0194,0.0112c0.02062,-0.05188 0.0413,-0.10346 0.06205,-0.1547c-0.00125,-0.00064 -0.00248,-0.00129 -0.00372,-0.00195c-0.16467,-0.088 -0.22682,-0.29282 -0.13882,-0.45749c0.07872,-0.1473 0.25092,-0.21258 0.40423,-0.16172c0.05697,-0.12985 0.11431,-0.25707 0.17194,-0.38144c-0.0039,-0.0019 -0.00777,-0.00387 -0.01163,-0.00593c-0.16467,-0.088 -0.22682,-0.29282 -0.13882,-0.45749c0.06313,-0.11813 0.18639,-0.1835 0.31181,-0.17853c0.01743,-0.07043 0.03584,-0.14137 0.0552,-0.21282c-0.04546,-0.09399 -0.0469,-0.20767 0.00608,-0.30679c0.00959,-0.01794 0.02056,-0.03467 0.03272,-0.05012c-0.14128,-0.09587 -0.19025,-0.28491 -0.10798,-0.43886c0.07388,-0.13826 0.23014,-0.20425 0.37582,-0.16977c0.03705,-0.1029 0.07563,-0.20651 0.11566,-0.31075c-0.03824,-0.00538 -0.0762,-0.01745 -0.11223,-0.0367c-0.16467,-0.088 -0.22682,-0.29282 -0.13882,-0.45749c0.07559,-0.14145 0.23739,-0.20726 0.38589,-0.16721c-0.08608,-0.10264 -0.10612,-0.25132 -0.03912,-0.3767c0.06544,-0.12244 0.19545,-0.1882 0.32553,-0.1777c-0.05328,-0.09683 -0.05806,-0.21784 -0.00208,-0.32259c0.0671,-0.12556 0.20213,-0.19152 0.33549,-0.17675c0.1011,-0.20651 0.20594,-0.41395 0.31399,-0.62183c-0.10626,-0.10227 -0.13647,-0.26635 -0.06353,-0.40284c0.07279,-0.1362 0.2255,-0.20227 0.3693,-0.17124c0.0612,-0.11229 0.1232,-0.22457 0.18591,-0.33678c-0.00459,-0.06173 0.0077,-0.12547 0.03904,-0.18411c0.03404,-0.0637 0.08557,-0.11206 0.14549,-0.14232c0.11644,-0.20371 0.23498,-0.40693 0.35513,-0.60922c-0.16243,-0.08887 -0.22331,-0.29221 -0.13584,-0.45588c0.088,-0.16467 0.29282,-0.22682 0.45749,-0.13882c0.00953,0.0051 0.01873,0.01058 0.02757,0.01644c0.05563,-0.09066 0.1115,-0.18105 0.16755,-0.27111c-0.13432,-0.09768 -0.17948,-0.28191 -0.09898,-0.43255c0.088,-0.16467 0.29282,-0.22682 0.45749,-0.13882c0.00055,0.00029 0.00109,0.00059 0.00164,0.00088c0.09267,-0.14479 0.18558,-0.28846 0.27853,-0.43086c-0.16135,-0.08928 -0.2216,-0.2919 -0.1344,-0.45508c0.088,-0.16467 0.29282,-0.22682 0.45749,-0.13882c0.01733,0.00926 0.03353,0.01982 0.04853,0.03148c0.04609,-0.06894 0.09213,-0.13749 0.13808,-0.20564c-0.03739,-0.09028 -0.03554,-0.19598 0.01411,-0.28888c0.06184,-0.11572 0.18138,-0.18081 0.30412,-0.17874c0.20537,-0.29904 0.40794,-0.58884 0.60542,-0.86734c-0.02217,-0.00645 -0.04402,-0.01528 -0.06519,-0.0266c-0.16467,-0.088 -0.22682,-0.29282 -0.13882,-0.45749c0.088,-0.16467 0.29282,-0.22682 0.45749,-0.13882c0.04854,0.02595 0.08818,0.06204 0.11768,0.10426c0.11169,-0.15467 0.22114,-0.30497 0.32788,-0.4505c-0.09165,-0.10281 -0.11445,-0.25583 -0.04576,-0.38438c0.08468,-0.15845 0.27751,-0.22197 0.43867,-0.14815c0.0819,-0.11188 0.16359,-0.22501 0.24515,-0.33926c-0.01081,-0.00441 -0.02148,-0.00941 -0.032,-0.01503c-0.16467,-0.088 -0.22682,-0.29282 -0.13882,-0.45749c0.088,-0.16467 0.29282,-0.22682 0.45749,-0.13882c0.02015,0.01077 0.03878,0.02329 0.05578,0.03727c-0.08309,-0.10247 -0.10168,-0.24877 -0.0356,-0.37242c0.08647,-0.1618 0.28573,-0.22462 0.44886,-0.14327c0.17969,-0.26495 0.35965,-0.53337 0.54057,-0.80376c-0.06409,0.00623 -0.13066,-0.00576 -0.19171,-0.03839c-0.16467,-0.088 -0.22681,-0.29282 -0.13881,-0.45749c0.088,-0.16467 0.29282,-0.22681 0.45749,-0.13881c0.00814,0.00435 0.01602,0.00898 0.02365,0.01388c-0.03454,-0.08875 -0.03156,-0.19149 0.01685,-0.28207c0.088,-0.16467 0.29282,-0.22682 0.45749,-0.13882c0.01832,0.00978 0.03535,0.02101 0.05106,0.03347c0.08956,-0.13271 0.17956,-0.26546 0.27006,-0.3981c-0.10968,-0.10196 -0.14167,-0.26856 -0.06777,-0.40685c0.08622,-0.16133 0.28457,-0.22426 0.44744,-0.14398c0.03172,-0.04549 0.06351,-0.09095 0.09538,-0.13636c-0.00254,-0.00128 -0.00508,-0.0026 -0.0076,-0.00395c-0.16467,-0.088 -0.22682,-0.29282 -0.13882,-0.45749c0.088,-0.16467 0.29282,-0.22682 0.45749,-0.13882c0.0288,0.01539 0.05445,0.03435 0.07672,0.05604c0.06819,-0.09414 0.13676,-0.18795 0.20575,-0.28136c-0.04307,-0.09297 -0.04351,-0.20433 0.00851,-0.30166c0.06955,-0.13013 0.21205,-0.19625 0.35003,-0.17482c0.14874,-0.19382 0.29955,-0.3854 0.45274,-0.57417c-0.02931,-0.08564 -0.02437,-0.18277 0.02166,-0.2689c0.06918,-0.12944 0.21053,-0.19553 0.34783,-0.17514c0.10726,-0.12557 0.21572,-0.24962 0.32546,-0.37193c-0.16329,-0.08854 -0.22465,-0.29244 -0.13698,-0.45649c0.088,-0.16467 0.29282,-0.22682 0.45749,-0.13882c0.05291,0.02828 0.09524,0.06861 0.12539,0.1158c0.05143,-0.05328 0.10316,-0.10616 0.15517,-0.1586c-0.09017,-0.10279 -0.11225,-0.25465 -0.04399,-0.38237c0.088,-0.16467 0.29282,-0.22682 0.45749,-0.13882c0.02704,0.01445 0.05131,0.03205 0.07261,0.0521c0.00907,-0.00836 0.01816,-0.01672 0.02725,-0.02505c-0.02205,-0.08047 -0.01453,-0.16921 0.0279,-0.24861c0.08305,-0.15541 0.27017,-0.21951 0.42937,-0.15224c0.04663,-0.03901 0.0935,-0.07763 0.14061,-0.11589c-0.01174,-0.00467 -0.02335,-0.01005 -0.03475,-0.01614c-0.16467,-0.088 -0.22682,-0.29282 -0.13882,-0.45749c0.088,-0.16467 0.29282,-0.22682 0.45749,-0.13882c0.10083,0.05389 0.16322,0.15157 0.17624,0.25701c0.16634,-0.12196 0.33571,-0.23915 0.50833,-0.35116c-0.02846,-0.08508 -0.02319,-0.18125 0.02243,-0.26663c0.088,-0.16467 0.29282,-0.22682 0.45749,-0.13882c0.03245,0.01734 0.06092,0.03922 0.08505,0.06444c0.15733,-0.08794 0.31729,-0.17159 0.48002,-0.25067c0.05555,-0.03678 0.11147,-0.07348 0.16773,-0.11008c-0.02686,-0.084 -0.02102,-0.17837 0.02384,-0.2623c0.088,-0.16467 0.29282,-0.22682 0.45749,-0.13882c0.02632,0.01406 0.05002,0.0311 0.0709,0.0505c0.0428,-0.02657 0.08575,-0.05311 0.12885,-0.07963c-0.00573,-0.06339 0.00637,-0.1291 0.0386,-0.18942c0.088,-0.16467 0.29282,-0.22681 0.45749,-0.13881c0.00795,0.00425 0.01566,0.00877 0.02312,0.01354c0.11318,-0.06768 0.22714,-0.13531 0.34177,-0.20297c-0.0144,-0.07368 -0.00446,-0.1526 0.03368,-0.22397c0.088,-0.16467 0.29282,-0.22682 0.45749,-0.13882c0.02155,0.01152 0.04133,0.02502 0.05926,0.04019c0.24954,-0.14549 0.50125,-0.29154 0.75396,-0.43881c-0.01439,-0.07368 -0.00445,-0.15258 0.03369,-0.22395c0.088,-0.16467 0.29282,-0.22682 0.45749,-0.13882c0.02163,0.01156 0.04148,0.02513 0.05946,0.04036c0.203,-0.11961 0.40609,-0.24027 0.60864,-0.36235c-0.06874,-0.1007 -0.08049,-0.23525 -0.01905,-0.35022c0.088,-0.16467 0.29282,-0.22681 0.45749,-0.13881c0.06052,0.03234 0.10719,0.08046 0.13765,0.13655c0.13234,-0.08234 0.26419,-0.16541 0.39539,-0.24932c-0.03142,-0.08695 -0.02726,-0.18637 0.01975,-0.27433c0.088,-0.16467 0.29282,-0.22681 0.45749,-0.13881c0.02739,0.01463 0.05193,0.03249 0.07343,0.05286c0.13155,-0.08817 0.26216,-0.17736 0.39165,-0.26765c-0.02695,-0.08408 -0.02114,-0.17855 0.02376,-0.26257c0.088,-0.16467 0.29282,-0.22682 0.45749,-0.13882c0.01456,0.00778 0.02832,0.01647 0.04124,0.02597c0.22322,-0.16551 0.44212,-0.33492 0.65569,-0.50878c-0.02909,-0.00654 -0.05778,-0.01707 -0.08535,-0.0318c-0.16467,-0.088 -0.22682,-0.29282 -0.13882,-0.45749c0.088,-0.16467 0.29282,-0.22682 0.45749,-0.13882c0.10853,0.058 0.17253,0.16676 0.17835,0.28132c0.23689,-0.20674 0.46586,-0.41984 0.68533,-0.64012c-0.03174,-0.00635 -0.06309,-0.0174 -0.09311,-0.03345c-0.16467,-0.088 -0.22682,-0.29282 -0.13882,-0.45749c0.088,-0.16467 0.29282,-0.22682 0.45749,-0.13882c0.08724,0.04662 0.14571,0.12604 0.16832,0.21489c0.22846,-0.25298 0.44422,-0.51533 0.64519,-0.78817c-0.10048,0.06764 -0.2341,0.07889 -0.34838,0.01782c-0.16467,-0.088 -0.22682,-0.29282 -0.13882,-0.45749c0.088,-0.16467 0.29282,-0.22682 0.45749,-0.13882c0.14193,0.07585 0.20771,0.2385 0.1668,0.38741c0.08718,-0.1248 0.17127,-0.25176 0.25208,-0.38101c0.33205,-0.01952 0.66565,-0.07192 0.98304,-0.17147l0.24956,-0.07573c0,0 0.3235,-0.09815 0.42166,0.22534c0.00509,0.01676 0.00904,0.03292 0.01196,0.04849c0.14921,-0.07462 0.31181,0.01228 0.31181,0.01228c3.16447,1.6911 5.68284,4.42184 8.62883,6.27493c3.32862,3.54995 3.56669,6.24056 4.72351,10.39554c0.06784,-0.00912 0.13908,0.00223 0.20406,0.03696zM224.7289,151.24953c-0.006,-0.00336 -0.01185,-0.00688 -0.01757,-0.01055c0.00311,0.00797 0.00591,0.01606 0.0084,0.02425c0.00305,-0.00457 0.00612,-0.00913 0.00917,-0.0137z" fill="#888b44"/><path d="M231.82201,195.64425c-0.24544,0.23247 -0.47791,-0.01297 -0.47791,-0.01297l-0.26257,-0.29454c-0.85444,-1.59422 -1.93366,-3.00331 -2.70147,-4.64915c-0.7918,-2.59113 -1.7535,-5.4826 -2.25994,-8.15763c0,0 -0.06183,-0.33236 0.27053,-0.39419c0.33236,-0.06184 0.39419,0.27052 0.39419,0.27052c0.47998,2.63188 1.45925,5.49032 2.22667,8.03963c0.75319,1.61449 1.82563,3.00357 2.66595,4.57144l0.15753,0.14899c0,0 0.23246,0.24544 -0.01298,0.47791z" fill="#6f7238"/><path d="M251.86364,203.36757c-0.10558,-0.05642 -0.15381,-0.13026 -0.17203,-0.2021c-0.89168,-0.48223 -1.67203,-0.94819 -2.43954,-1.64306c0,0 -0.25061,-0.2269 -0.02372,-0.4775c0.22689,-0.25061 0.4775,-0.02372 0.4775,-0.02372c0.78916,0.71447 1.58417,1.16371 2.52198,1.66488l0.0933,0.54268c0,0 -0.15933,0.29815 -0.45749,0.13882z" fill="#6f7238"/><path d="M254.05713,189.42592c-0.27456,-0.14673 -0.16117,-0.41118 -0.14151,-0.45211c-0.0643,-0.65939 -0.1286,-1.31879 -0.19291,-1.97818c-0.26677,-2.78666 -3.0383,-5.54322 -5.2685,-7.14792c-1.9519,-2.28061 -3.69829,-3.935 -6.3508,-5.35252c0,0 -0.29816,-0.15933 -0.13882,-0.45749c0.15933,-0.29816 0.45749,-0.13882 0.45749,-0.13882c2.69168,1.43845 4.5282,3.12582 6.49274,5.45387c2.37387,1.77041 5.18105,4.56564 5.48082,7.57726c0.06761,0.69325 0.1352,1.3865 0.20281,2.07976l-0.08383,0.27733c0,0 -0.15933,0.29816 -0.45749,0.13882z" fill="#6f7238"/><path d="M257.85528,157.72261c0.07693,-0.05133 0.18853,-0.08106 0.33251,-0.00412c0.29816,0.15933 0.13882,0.45749 0.13882,0.45749l-0.42595,0.25375c-3.06304,-0.81607 -5.30509,-1.93852 -8.22891,-3.51282c-2.15519,-1.95122 -4.93675,-2.45126 -6.69101,-4.92756c0,0 -0.19543,-0.27585 0.08043,-0.47127c0.27586,-0.19542 0.47128,0.08043 0.47128,0.08043c1.69351,2.39054 4.43752,2.87245 6.52845,4.7655c2.79418,1.48117 4.8932,2.6342 7.79439,3.35861z" fill="#6f7238"/><path d="M257.15442,160.38282c0.19542,0.27586 -0.08043,0.47127 -0.08043,0.47127l-0.38084,0.18694c-2.52348,-0.07253 -4.8767,-1.90854 -7.07308,-3.08229c-2.47619,-1.32338 -6.41806,-2.96139 -8.09618,-5.24327c0,0 -0.19543,-0.27586 0.08043,-0.47128c0.27586,-0.19542 0.47127,0.08043 0.47127,0.08043c1.45251,2.16543 5.59441,3.8253 7.86316,5.03781c2.0834,1.11337 4.38233,2.94127 6.77274,3.00272l-0.02835,-0.06277c0,0 0.27585,-0.19543 0.47127,0.08043z" fill="#6f7238"/><path d="M254.31654,164.51845c0.07674,-0.06238 0.19779,-0.11094 0.35985,-0.02433c0.29816,0.15933 0.13882,0.45749 0.13882,0.45749l-0.38088,0.26186c-2.75782,-0.30539 -4.50313,-1.50539 -6.96087,-2.81634c-2.87658,-1.54906 -5.34681,-3.73352 -8.2401,-5.27971c0,0 -0.29815,-0.15933 -0.13882,-0.45749c0.15933,-0.29816 0.45749,-0.13882 0.45749,-0.13882c2.89144,1.5452 5.35678,3.75238 8.2401,5.2797c2.32614,1.24533 3.97654,2.38933 6.52441,2.71763z" fill="#6f7238"/><path d="M252.15728,168.53939c0.07494,-0.06958 0.20282,-0.13564 0.37936,-0.04129c0.29816,0.15933 0.13882,0.45749 0.13882,0.45749l-0.35285,0.26379c-2.36998,-0.07456 -4.44139,-0.14652 -6.59812,-1.29518c-2.56579,-1.37121 -7.70192,-3.41403 -8.29861,-6.55004c0,0 -0.06184,-0.33236 0.27052,-0.39419c0.33236,-0.06184 0.39419,0.27052 0.39419,0.27052c0.51281,2.82972 5.64122,4.84218 7.95258,6.07741c1.99081,1.06781 3.93052,1.16137 6.11411,1.2115z" fill="#6f7238"/><path d="M249.21185,176.35911c-0.29816,-0.15933 -0.13882,-0.45749 -0.13882,-0.45749l0.09307,-0.15275c1.22664,-1.34985 2.90179,-2.61903 4.7072,-3.04476c0.75759,-0.17864 2.31465,-0.14897 2.65786,-0.92136c0,0 0.15933,-0.29816 0.45749,-0.13882c0.29816,0.15933 0.13882,0.45749 0.13882,0.45749c-1.05007,1.78077 -5.67265,2.11865 -7.46016,4.10123l0.00202,0.01764c0,0 -0.15933,0.29816 -0.45749,0.13882z" fill="#6f7238"/><path d="M228.4514,161.10284c-0.29816,-0.15933 -0.13882,-0.45749 -0.13882,-0.45749l0.04552,-0.08519c1.15312,-2.08919 2.85625,-4.70972 4.40732,-6.55304c1.85341,-0.93318 3.34186,-5.48828 4.30895,-7.29793c0,0 0.15933,-0.29816 0.45749,-0.13882c0.29816,0.15933 0.13882,0.45749 0.13882,0.45749c-1.063,1.98912 -2.48625,6.38028 -4.4763,7.50187c-1.42857,1.79194 -3.21703,4.34462 -4.23998,6.34911l-0.04552,0.08519c0,0 -0.15933,0.29815 -0.45749,0.13882z" fill="#6f7238"/><path d="M218.54088,179.62595c-0.23247,-0.24544 0.01298,-0.47791 0.01298,-0.47791l0.20363,-0.19149c2.47963,-2.73748 3.67393,-5.66658 5.38047,-8.85993c1.4174,-2.6523 2.10421,-5.57701 3.50691,-8.2018c0,0 0.15933,-0.29815 0.45749,-0.13882c0.29816,0.15933 0.13882,0.45749 0.13882,0.45749c-1.40118,2.62196 -2.08981,5.55004 -3.50692,8.2018c-1.72994,3.23715 -2.96278,6.21829 -5.47555,8.99504l-0.23991,0.2286c0,0 -0.24544,0.23247 -0.47791,-0.01297z" fill="#6f7238"/><path d="M242.99185,144.76601c-0.23247,-0.24544 0.01297,-0.47791 0.01297,-0.47791l0.30563,-0.27307c1.30523,-0.69955 4.37096,-1.08495 5.18485,-2.05441c0,0 0.22689,-0.25061 0.4775,-0.02372c0.25061,0.22689 0.02372,0.4775 0.02372,0.4775c-1.08059,1.13717 -3.8557,1.38673 -5.36667,2.19655l-0.16009,0.16804c0,0 -0.24544,0.23247 -0.47791,-0.01297z" fill="#6f7238"/></g><g fill="#979b4c"><g><path d="M263.00538,150.5406c-0.01621,0.03505 -0.03965,0.06666 -0.06905,0.09245l0.12466,-0.06579c-0.01947,-0.00681 -0.03814,-0.01575 -0.05562,-0.02665zM262.83282,150.69015c-0.13795,0.04117 -0.28271,-0.03003 -0.3361,-0.16053c-0.03441,0.04573 -0.08321,0.08125 -0.14226,0.09887c-0.14686,0.04383 -0.30144,-0.0397 -0.34527,-0.18656l-0.11204,-0.37541l0.16285,-0.04861c-0.01103,-0.09914 -0.00895,-0.19228 0.00371,-0.27771c-0.04142,-0.00012 -0.08805,-0.0112 -0.1397,-0.0391c-0.24414,-0.13191 -0.11223,-0.37605 -0.11223,-0.37605c0.01094,-0.02021 0.02166,-0.04023 0.03214,-0.0601c-0.72585,-0.11756 -1.35463,0.23669 -2.14087,0.10555c0,0 -0.08081,-0.01417 -0.14685,-0.07104c-2.25014,-0.67668 -4.42557,0.14079 -6.61593,0.79448c-2.48808,0.74253 -4.71331,1.84105 -7.22049,2.58929c0,0 -0.26591,0.07936 -0.34527,-0.18656c-0.07936,-0.26591 0.18655,-0.34527 0.18655,-0.34527c2.5073,-0.74828 4.73029,-1.84612 7.22049,-2.5893c2.37811,-0.70972 4.61149,-1.47601 7.05972,-0.75501l0.14983,0.0241c0,0 0.03375,0.00592 0.07545,0.02546c0.70659,0.04315 1.29505,-0.24965 2.00906,-0.10691c0.24367,-0.68805 0.1076,-1.19661 -0.44018,-1.93026l-0.09332,-0.13286c0,0 -0.15938,-0.22718 0.06779,-0.38655c0.22717,-0.15937 0.38654,0.0678 0.38654,0.0678l0.08455,0.1207c0.19801,0.26828 0.35126,0.51789 0.46039,0.75949c0.59336,-0.42485 1.19498,-0.80728 1.78343,-1.24459l0.13525,-0.12944c0,0 0.20235,-0.1899 0.39225,0.01245c0.1899,0.20235 -0.01245,0.39225 -0.01245,0.39225l-0.18415,0.17031c-0.29943,0.22225 -0.60276,0.43073 -0.90664,0.63795c0.14433,0.09625 0.279,0.19428 0.40383,0.29364c0.37447,-0.40812 0.9003,-0.68811 1.42514,-0.8487c0,0 0.26591,-0.07936 0.34527,0.18655c0.07936,0.26591 -0.18655,0.34527 -0.18655,0.34527c-0.41164,0.11896 -0.87377,0.35025 -1.17468,0.68231c0.11738,0.1188 0.22107,0.2387 0.31076,0.35896c0.44385,-0.25198 0.92468,-0.46222 1.40273,-0.60584l0.2895,-0.05966c0,0 0.27201,-0.05496 0.32697,0.21705c0.05496,0.27201 -0.21704,0.32696 -0.21704,0.32696l-0.2407,0.04747c-0.43436,0.12867 -0.87509,0.32101 -1.28001,0.55104c0.05433,0.12503 0.09304,0.24947 0.1158,0.37254c0.5741,-0.15516 1.14605,-0.27246 1.74377,-0.34599l0.25936,-0.07839c0,0 0.26591,-0.07936 0.34527,0.18655c0.07936,0.26591 -0.18656,0.34527 -0.18656,0.34527l-0.30376,0.08967c-0.64383,0.08232 -1.25479,0.20892 -1.87364,0.38313c-0.09476,0.37462 -0.35992,0.72194 -0.80684,1.01579c0.02475,0.03964 0.03473,0.07309 0.03473,0.07309c0.26948,0.90296 0.58185,1.82863 0.32095,2.7683l-0.00028,0.00232c0.14749,0.22246 -0.07381,0.37772 -0.07381,0.37772l-0.185,0.12638c-2.49021,2.28634 -4.17682,3.0813 -7.64049,3.83138c-2.29795,0.49671 -6.39188,2.84671 -8.65195,2.22923c0,0 -0.26527,-0.08146 -0.1838,-0.34674c0.08146,-0.26527 0.34674,-0.18381 0.34674,-0.18381c1.82887,0.67196 6.42849,-1.81961 8.37155,-2.24111c3.35938,-0.72747 5.00514,-1.42792 7.37816,-3.69363l0.09094,-0.06505c-0.01012,-0.05893 -0.00178,-0.1065 -0.00178,-0.1065l0.01584,-0.0818c0.23532,-0.80619 -0.07551,-1.64869 -0.30875,-2.42418c-0.2034,0.09249 -0.43084,0.17695 -0.68286,0.25216l-0.14137,0.0864c0,0 -0.24236,0.13516 -0.37751,-0.10721c-0.1064,-0.19079 0.02116,-0.31515 0.08026,-0.35943c-0.00213,0.0007 -0.00428,0.00137 -0.00644,0.00202zM262.95,149.41458c-0.00534,0.02369 -0.01062,0.04772 -0.01583,0.0721c0.00186,0.00345 0.00372,0.00694 0.00558,0.01045c0.00363,-0.02795 0.00703,-0.05546 0.01026,-0.08256z"/><path d="M246.04024,152.00559c0,0 0.21742,-0.17244 0.38986,0.04498c0.17244,0.21742 -0.04499,0.38985 -0.04499,0.38985c-0.23088,0.17381 -0.26172,0.265 -0.30397,0.51662c0.77991,1.9507 1.39276,3.99779 1.9925,5.98689c0.03593,0.12039 0.07186,0.24079 0.10779,0.36118c0.10901,0.02464 0.22566,0.01961 0.35359,-0.02824l0.14959,-0.04464c0,0 0.26591,-0.07936 0.34527,0.18656c0.07936,0.26591 -0.18655,0.34527 -0.18655,0.34527l-0.14958,0.04464c-0.12869,0.0328 -0.24646,0.049 -0.35592,0.05088c-0.13526,0.19432 -0.35394,0.07616 -0.35394,0.07616l-0.26348,-0.23475c-0.00065,-0.0022 -0.00131,-0.00439 -0.00196,-0.00658c-0.04832,-0.02775 -0.0958,-0.05847 -0.14294,-0.09176c-0.76599,-0.0043 -1.5067,-0.52727 -2.11903,-0.95186c-1.13933,-0.89623 -1.71007,-2.9806 -1.4606,-4.41812c0.13099,-0.75476 1.04645,-1.02093 1.16061,-1.76964c0,0 0.04202,-0.23963 0.27174,-0.2308c0.01302,-0.00763 0.02729,-0.0148 0.04293,-0.02143c0.14887,-0.06306 0.24774,-0.00264 0.30436,0.05877c0.06683,-0.08698 0.15224,-0.1716 0.26474,-0.26398z"/></g><path d="M245.51096,152.72211c2.67536,-2.76803 17.26071,-6.63354 18.8967,-1.15174c1.46729,4.91656 -12.80261,8.26933 -15.97268,8.43835c-1.56043,0.0832 -3.82445,-1.55361 -2.75593,-3.29302c-0.36757,-0.32993 -0.65166,-0.76212 -0.80326,-1.27008c-0.25826,-0.86535 -0.07433,-1.75753 0.42078,-2.43413c0.05821,-0.10369 0.12867,-0.2007 0.2144,-0.2894z"/><path d="M247.60333,154.01341c0.1899,0.20235 -0.01245,0.39225 -0.01245,0.39225l-0.28023,0.22281c-0.96332,0.28749 -2.26216,0.57858 -3.25354,0.3324c0,0 -0.26885,-0.06876 -0.20009,-0.3376c0.06876,-0.26884 0.33761,-0.20008 0.33761,-0.20008c0.882,0.23398 2.09856,-0.07026 2.9573,-0.32654l0.05914,-0.09567c0,0 0.20235,-0.1899 0.39225,0.01245z"/><path d="M248.70037,152.14047c0.08124,0.008 0.18137,0.04978 0.22503,0.19607c0.07936,0.26591 -0.18655,0.34527 -0.18655,0.34527l-0.31641,-0.04617c-0.34565,-0.31723 -0.73365,-0.57218 -1.19125,-0.68547c0,0 -0.26885,-0.06876 -0.20008,-0.33761c0.06876,-0.26884 0.3376,-0.20009 0.3376,-0.20009c0.50679,0.13295 0.93896,0.38951 1.33167,0.72799z"/><path d="M252.17363,153.21337c0.07936,0.26591 -0.18656,0.34527 -0.18656,0.34527l-0.17943,0.05178c-0.60767,0.10959 -1.18852,0.30217 -1.77999,0.47868c0,0 -0.26591,0.07936 -0.34527,-0.18655c-0.07936,-0.26591 0.18656,-0.34527 0.18656,-0.34527c0.61156,-0.18251 1.21149,-0.37849 1.83969,-0.49297l0.11972,-0.0375c0,0 0.26591,-0.07936 0.34527,0.18655z"/><path d="M258.63533,151.39355c0.07936,0.26591 -0.18655,0.34527 -0.18655,0.34527l-0.2493,0.0744c-1.46197,0.43631 -2.90757,0.92203 -4.37281,1.35932c0,0 -0.26591,0.07936 -0.34527,-0.18656c-0.07936,-0.26591 0.18655,-0.34527 0.18655,-0.34527c1.46527,-0.4373 2.91077,-0.92298 4.3728,-1.35931l0.24931,-0.0744c0,0 0.26591,-0.07936 0.34527,0.18656z"/><path d="M264.12959,149.97106c0.07936,0.26591 -0.18656,0.34527 -0.18656,0.34527l-0.04986,0.01488c-1.0837,0.32153 -2.30436,0.68819 -3.43202,0.7441c0,0 -0.27723,0.0125 -0.28972,-0.26472c-0.01249,-0.27722 0.26473,-0.28971 0.26473,-0.28971c1.07391,-0.04275 2.26725,-0.4118 3.2983,-0.72149l0.04986,-0.01488c0,0 0.26591,-0.07936 0.34527,0.18656z"/><path d="M256.51686,155.39399c0.07792,0.26634 -0.18841,0.34426 -0.18841,0.34426l-0.32992,0.09627c-0.43739,0.08841 -0.78878,0.16858 -1.22869,0.13097c0,0 -0.27636,-0.02507 -0.25129,-0.30144c0.02507,-0.27636 0.30144,-0.2513 0.30144,-0.2513c0.37558,0.03651 0.6687,-0.04097 1.04553,-0.11706l0.30707,-0.09011c0,0 0.26634,-0.07793 0.34426,0.1884z"/><path d="M262.3143,154.25956c0.07936,0.26591 -0.18655,0.34527 -0.18655,0.34527l-0.27555,0.07109c-0.38022,0.00439 -0.70436,0.00269 -1.07366,-0.08981c0,0 -0.26885,-0.06876 -0.20009,-0.3376c0.06876,-0.26884 0.3376,-0.20009 0.3376,-0.20009c0.32093,0.08416 0.59713,0.0765 0.92963,0.07254l0.12334,-0.04795c0,0 0.26591,-0.07936 0.34527,0.18656z"/><path d="M249.47032,158.54803c-0.1899,-0.20235 0.01245,-0.39225 0.01245,-0.39225l0.12232,-0.10917c0.34639,-0.22767 0.69643,-0.44845 1.03566,-0.68654c0,0 0.22718,-0.15938 0.38656,0.0678c0.15937,0.22717 -0.0678,0.38654 -0.0678,0.38654c-0.34394,0.2412 -0.69848,0.46522 -1.04957,0.69599l-0.04736,0.05008c0,0 -0.20235,0.1899 -0.39225,-0.01245z"/></g><path d="M237.43203,179.58436c3.94887,-3.89836 11.57303,-3.19574 16.13424,-1.00964c0.87685,0.3163 1.56884,0.6575 2.39851,1.04852c0.17112,-0.03096 0.34336,-0.05915 0.51719,-0.08329l0.17806,-0.02473c0,0 0.59347,-0.08242 0.6759,0.51106c0.01009,0.07266 0.01006,0.13766 0.00221,0.1958c0.0374,0.08938 0.04725,0.1603 0.04725,0.1603l0.02473,0.17805c0.68798,4.9536 0.47847,10.01158 1.1431,14.7971c-0.58585,5.50928 -5.29446,11.18328 -9.04875,14.90983c-1.41478,1.48237 -8.38341,3.47792 -8.8563,4.53638c-0.75373,1.68707 4.45494,2.03508 1.95527,5.18831c-2.25359,0.7476 -11.59632,-3.28995 -12.53132,-5.54275c0,0 -0.14294,-0.35486 0.08315,-0.6117c0.00881,-0.14416 0.06169,-0.25365 0.06169,-0.25365l0.28192,-0.58362c0.18255,-0.37791 0.36542,-0.75564 0.54869,-1.1332c1.7759,-5.28561 4.81848,-10.48646 4.01131,-16.29824c0.54742,-5.27859 2.9784,-9.7511 2.23327,-15.24878c-0.01223,-0.04542 -0.01906,-0.08835 -0.02139,-0.12884c-0.11709,-0.33071 0.16126,-0.6069 0.16126,-0.6069z" fill="#888b44"/></g></g></svg>