<svg version="1.1" xmlns="http://www.w3.org/2000/svg" xmlns:xlink="http://www.w3.org/1999/xlink" width="9.12801" height="14.88629" viewBox="0,0,9.12801,14.88629"><g transform="translate(-234.53367,-180.00022)"><g data-paper-data="{&quot;isPaintingLayer&quot;:true}" fill="#a0d10d" fill-rule="nonzero" stroke="none" stroke-width="0.5" stroke-linecap="butt" stroke-linejoin="miter" stroke-miterlimit="10" stroke-dasharray="" stroke-dashoffset="0" style="mix-blend-mode: normal"><path d="M234.54664,193.66116c-0.09806,-0.49029 0.39223,-0.58835 0.39223,-0.58835l0.42344,-0.08348c0.53031,-0.14273 0.97003,-0.3587 1.46154,-0.60455c0,0 0.01854,-0.00927 0.04996,-0.02026c-0.10721,-1.03286 0.3742,-2.81509 0.49998,-3.5698c0.08016,-0.97069 -0.17102,-2.60321 0.34461,-3.4446c1.2667,-2.06699 3.61355,-3.42733 5.17586,-5.3499c0.23562,0.23524 0.49246,0.44923 0.76742,0.63883c-1.53584,1.89475 -3.67942,3.27722 -5.09186,5.23556c-0.39397,0.54624 -0.14527,2.34832 -0.20372,3.04393c-0.12263,0.73579 -0.47151,1.99933 -0.49903,2.92112c0.03228,-0.00687 0.05275,-0.00857 0.05275,-0.00857c0.86294,-0.07125 1.72065,-0.07102 2.56021,-0.30397l-0.00066,-0.01053c0,0 0.44721,-0.22361 0.67082,0.22361c0.22361,0.44721 -0.22361,0.67082 -0.22361,0.67082l-0.18344,0.08086c-0.25137,0.06756 -0.50306,0.11747 -0.75539,0.156c0.5313,0.03095 0.98199,0.05066 1.08077,0.04965h0.18278c0,0 0.5,0 0.5,0.5c0,0.5 -0.5,0.5 -0.5,0.5h-0.18278c-0.40264,-0.00313 -1.10816,0.01093 -1.82409,-0.04226c0.12492,0.06262 0.25608,0.11922 0.39568,0.16901l0.24329,0.09705c0,0 0.46424,0.1857 0.27854,0.64993c-0.1857,0.46424 -0.64993,0.27854 -0.64993,0.27854l-0.21365,-0.08573c-0.80823,-0.29852 -1.39579,-0.7623 -2.03476,-1.32993c0,0 -0.04454,-0.03959 -0.0892,-0.10682c-0.5124,0.25412 -0.99132,0.47294 -1.54897,0.62674l-0.49044,0.0993c0,0 -0.49029,0.09806 -0.58835,-0.39223z"/></g></g></svg>