<svg version="1.1" xmlns="http://www.w3.org/2000/svg" xmlns:xlink="http://www.w3.org/1999/xlink" width="22.45737" height="21.45729" viewBox="0,0,22.45737,21.45729"><g transform="translate(-235.76886,-161.65623)"><g data-paper-data="{&quot;isPaintingLayer&quot;:true}" fill-rule="nonzero" stroke="none" stroke-linecap="butt" stroke-linejoin="miter" stroke-miterlimit="10" stroke-dasharray="" stroke-dashoffset="0" style="mix-blend-mode: normal"><path d="" fill="#864e00" stroke-width="0.5"/><path d="" fill="#7c4800" stroke-width="0.5"/><path d="" fill="#7c4800" stroke-width="0.5"/><path d="M244.23747,179.06917c-2.32004,1.55084 -4.79011,1.92643 -5.51706,0.83891c-0.72695,-1.08752 0.56449,-3.22632 2.88453,-4.77716c2.32004,-1.55084 4.79011,-1.92643 5.51707,-0.83891c0.72695,1.08752 -0.5645,3.22632 -2.88453,4.77716z" fill="#464442" stroke-width="0"/><path d="M249.10387,169.60734c1.24205,3.00665 -0.40039,6.53845 -3.66848,7.8885c-3.2681,1.35005 -6.92429,0.00711 -8.16633,-2.99953c-1.24205,-3.00665 0.40039,-6.53845 3.66848,-7.8885c3.2681,-1.35005 6.92429,-0.00711 8.16633,2.99953z" fill="#464442" stroke-width="0"/><path d="M248.74937,169.69752c1.52753,1.02055 2.50554,2.68902 2.18446,3.72663c-0.32108,1.03761 -1.81968,1.05145 -3.34721,0.0309c-1.52753,-1.02055 -2.50554,-2.68902 -2.18446,-3.72663c0.32108,-1.03761 1.81969,-1.05145 3.34721,-0.0309z" fill="#464442" stroke-width="0"/><path d="M248.98758,175.3539c-1.64571,0.81638 -3.57963,0.83358 -4.31951,0.03841c-0.73988,-0.79518 -0.00556,-2.10161 1.64015,-2.91799c1.64571,-0.81638 3.57962,-0.83358 4.31951,-0.0384c0.73988,0.79518 0.00557,2.10161 -1.64015,2.91799z" data-paper-data="{&quot;index&quot;:null}" fill="#464442" stroke-width="0"/><path d="M251.21051,172.33298c0.06062,0.14676 -0.01047,0.2388 -0.07042,0.28644c-0.00223,1.86605 -1.92219,2.17917 -3.38283,2.78257c0,0 -0.23106,0.09545 -0.32651,-0.13561c-0.09545,-0.23106 0.13561,-0.32651 0.13561,-0.32651c1.17018,-0.4834 2.88444,-0.72836 3.05916,-2.09474c-0.02766,0.01143 -0.05028,0.02077 -0.06515,0.02691c0,0 -0.23106,0.09545 -0.32651,-0.13561c-0.09545,-0.23106 0.13561,-0.32651 0.13561,-0.32651c0.08576,-0.03543 0.17151,-0.07085 0.25726,-0.10628l0.25726,-0.10628c0,0 0.23106,-0.09545 0.32651,0.13561z" fill="#2b2927" stroke-width="0.5"/><path d="M246.58119,169.9035c0.02947,-0.11718 0.15243,-0.16798 0.15243,-0.16798l0.06713,-0.02173c1.01945,-0.0703 0.59661,1.14747 -0.17257,0.47175c0,0 -0.12775,-0.1347 -0.047,-0.28204z" fill="#000000" stroke-width="0.5"/><path d="M241.05861,174.5078c0,2.79064 -1.06043,5.0529 -2.36855,5.0529c-1.30811,0 -2.36855,-2.26226 -2.36855,-5.0529c0,-2.79064 1.06043,-5.0529 2.36855,-5.0529c1.30811,0 2.36855,2.26226 2.36855,5.0529z" fill="#464442" stroke-width="0"/><path d="M244.90923,174.68414c-0.23106,0.09545 -0.32651,-0.13561 -0.32651,-0.13561l-0.02794,-0.06763c-0.64468,-1.5606 -0.38685,-2.20909 0.48936,-3.51478c0,0 0.13931,-0.2076 0.3469,-0.06829c0.20759,0.13931 0.06828,0.3469 0.06828,0.3469c-0.79323,1.18204 -1.03049,1.62171 -0.44242,3.04526l0.02794,0.06763c0,0 0.09545,0.23106 -0.13561,0.32651z" fill="#2a251d" stroke-width="0.5"/><path d="M242.79554,176.83687c0,3.4665 -1.57298,6.27665 -3.51334,6.27665c-1.94037,0 -3.51334,-2.81015 -3.51334,-6.27665c0,-3.4665 1.57298,-6.27665 3.51334,-6.27665c1.94037,0 3.51334,2.81015 3.51334,6.27665z" fill="#464442" stroke-width="0"/><path d="M252.16086,165.69713c0.32694,-0.26151 0.67415,-0.46122 1.00551,-0.70975l0.2504,-0.12633c0,0 0.08192,-0.04096 0.17138,-0.02372c0.05126,-0.02772 0.10297,-0.05463 0.15515,-0.08073c1.33297,-1.00766 2.6643,-1.97064 4.0199,-2.98734l0.03091,-0.03447c0,0 0.17678,-0.17677 0.35355,0c0.17678,0.17677 0,0.35355 0,0.35355l-0.08447,0.08092c-1.36725,1.02543 -2.70495,2.00546 -4.05703,3.01266c-0.71409,0.35705 -1.34134,0.87044 -1.94067,1.4347c-0.09523,0.11964 -0.19233,0.23697 -0.29144,0.35177c-0.84519,1.39953 -2.31633,3.43234 -2.82563,3.32677c-0.44022,-0.09125 -0.44932,-0.38187 -0.30684,-0.69299c-0.02559,-0.02349 -0.05149,-0.05 -0.07771,-0.07972c-0.034,-0.0189 -0.06706,-0.0497 -0.09583,-0.09765c-0.0191,-0.03183 -0.03064,-0.06177 -0.03644,-0.08968c-0.02457,0.00851 -0.04923,0.01689 -0.07398,0.02515c0,0 -0.23718,0.07906 -0.31623,-0.15811c-0.07906,-0.23717 0.15812,-0.31623 0.15812,-0.31623c0.56866,-0.18936 1.08571,-0.44997 1.56038,-0.76792c0.05855,-0.20156 0.24055,-0.35061 0.45873,-0.35984c0.47912,-0.45842 0.94152,-0.94565 1.41871,-1.40659c0.08444,-0.10506 0.16738,-0.21205 0.24893,-0.32079l0.17133,-0.22844c0.01609,-0.02194 0.03567,-0.04116 0.05792,-0.05684c0.02333,-0.03079 0.04534,-0.0484 0.04534,-0.0484z" fill="#878484" stroke-width="0.5"/></g></g></svg>