<svg version="1.1" xmlns="http://www.w3.org/2000/svg" xmlns:xlink="http://www.w3.org/1999/xlink" width="29.05586" height="23.27956" viewBox="0,0,29.05586,23.27956"><g transform="translate(-222.39595,-177.32647)"><g data-paper-data="{&quot;isPaintingLayer&quot;:true}" fill-rule="nonzero" stroke-width="0.5" stroke-linecap="butt" stroke-linejoin="miter" stroke-miterlimit="10" stroke-dasharray="" stroke-dashoffset="0" style="mix-blend-mode: normal"><path d="M235.0342,195.03929c-1.15434,-0.77388 -1.40324,-2.39605 -2.05897,-3.51008c-1.58953,-2.70049 -6.27427,-9.16938 -5.67078,-12.3311c0.41431,-2.17056 3.01725,-2.42643 4.27096,-0.90685c1.74779,2.11844 5.09262,10.64735 6.69062,13.79462c0.16654,0.31165 0.26191,0.66721 0.26424,1.0451c0.00767,1.24262 -0.99345,2.25618 -2.23606,2.26385c-0.20001,0.00124 -0.39408,-0.02367 -0.57898,-0.0715c-0.24023,-0.05015 -0.47123,-0.1434 -0.68102,-0.28404z" data-paper-data="{&quot;index&quot;:null}" fill="#895000" stroke="none"/><path d="M222.64749,192.10395l28.50183,-0.17601l0.05095,8.25053l-28.50183,0.17601z" data-paper-data="{&quot;index&quot;:null}" fill="#5d5d5d" stroke="#969696"/></g></g></svg>