<svg version="1.1" xmlns="http://www.w3.org/2000/svg" xmlns:xlink="http://www.w3.org/1999/xlink" width="10.95407" height="47.81094" viewBox="0,0,10.95407,47.81094"><g transform="translate(-234.3596,-152.5924)"><g data-paper-data="{&quot;isPaintingLayer&quot;:true}" fill-rule="nonzero" stroke-linecap="butt" stroke-linejoin="miter" stroke-miterlimit="10" stroke-dasharray="" stroke-dashoffset="0" style="mix-blend-mode: normal"><path d="M234.35961,200.40334v-37.71426c0.60808,-0.92032 1.13245,-1.95327 1.54712,-3.00182l7.44048,0c0.16527,2.49303 1.02522,7.00753 1.96647,10.51272v30.20336z" fill="#705c24" stroke="#000000" stroke-width="0"/><path d="M235.97956,161.68221c0,0 -0.39307,0.63874 -1.03182,0.24567c-0.03067,-0.01887 -0.05896,-0.03831 -0.08503,-0.05822c0.68401,-1.19815 1.23091,-2.52371 1.59279,-3.79778c0.74605,-1.19441 1.49486,-2.38654 2.24779,-3.58805c0.29455,-0.47004 1.12404,-1.91441 1.78186,-1.89115c1.28174,0.04532 2.08697,3.34977 2.58249,5.04661c0.13355,0.51746 0.25081,0.97911 0.25103,1.28874c0.00038,0.51873 0.0521,1.19622 0.14445,1.97967c-0.02406,0.00233 -0.04845,0.00352 -0.07311,0.00352c-0.10448,0 -0.20397,-0.02136 -0.29434,-0.05996l-0.15183,-0.06073l0.01392,0.17399c0.00203,0.02249 0.00307,0.04526 0.00307,0.06827c0,0.41421 -0.33579,0.75 -0.75,0.75c-0.3405,0 -0.628,-0.2269 -0.71954,-0.53775l-0.40492,-1.26539l0.00425,-0.00136l-0.00349,-0.00494l-0.07995,0.58627c-0.02184,0.18098 -0.10813,0.34211 -0.23525,0.45976l-0.01685,0.26113c-0.02211,0.39437 -0.34891,0.70735 -0.74881,0.70735c-0.39293,0 -0.71529,-0.30217 -0.74738,-0.68682l-0.04116,-0.43221l-0.79527,0.7574c-0.13466,0.12874 -0.3172,0.20782 -0.51821,0.20782c-0.38726,0 -0.70597,-0.29351 -0.74581,-0.6702l-0.07603,-0.6336l-0.13158,-0.00877l0.02994,-0.44916c-0.33526,0.53398 -0.66935,1.06989 -1.00123,1.60989z" fill="#705c24" stroke="none" stroke-width="0.5"/></g></g></svg>