<svg version="1.1" xmlns="http://www.w3.org/2000/svg" xmlns:xlink="http://www.w3.org/1999/xlink" width="16.50265" height="18.37499" viewBox="0,0,16.50265,18.37499"><g transform="translate(-232.8965,-179.75837)"><g data-paper-data="{&quot;isPaintingLayer&quot;:true}" fill-rule="nonzero" stroke="none" stroke-linecap="butt" stroke-linejoin="miter" stroke-miterlimit="10" stroke-dasharray="" stroke-dashoffset="0" style="mix-blend-mode: normal"><path d="M249.1337,186.77481c-0.21905,0.88355 -0.32136,1.74515 -0.25403,2.31865c-0.9164,3.18843 -4.0873,5.53991 -7.85817,5.53991c-4.48731,0 -8.125,-3.32988 -8.125,-7.4375c0,-4.10762 3.63769,-7.4375 8.125,-7.4375c4.33294,0 7.87372,3.10472 8.1122,7.01645z" data-paper-data="{&quot;index&quot;:null}" fill="#ffd118" stroke-width="0"/><path d="M240.084,198.13336c-1.27716,0 -2.3125,-1.62297 -2.3125,-3.625c0,-2.00203 1.03534,-3.625 2.3125,-3.625c1.27716,0 2.3125,1.62297 2.3125,3.625c0,2.00203 -1.03534,3.625 -2.3125,3.625z" data-paper-data="{&quot;index&quot;:null}" fill="#ffd118" stroke-width="0"/><path d="M244.8965,189.13336c0.27614,0 0.5,0.22386 0.5,0.5c0,0.27614 -0.22386,0.5 -0.5,0.5c-0.27614,0 -0.5,-0.22386 -0.5,-0.5c0,-0.27614 0.22386,-0.5 0.5,-0.5z" data-paper-data="{&quot;index&quot;:null}" fill="#000000" stroke-width="0.5"/><path d="M248.39373,183.90142c0.07449,0.39492 0.33472,0.72423 0.68646,0.89369c0.09587,0.42926 0.21051,0.81068 0.31896,1.07061c-0.05765,0.17053 -0.11148,0.34376 -0.16111,0.51765h-0.34155c-0.20834,0 -0.41666,0 -0.625,0c0,0 -0.5,0 -0.5,-0.5c0,-0.5 0.5,-0.5 0.5,-0.5c0.06588,0 0.18175,0 0.31599,0c-0.09044,-0.18088 -0.18088,-0.36176 -0.27132,-0.54264c-0.13796,-0.05423 -0.29467,-0.17744 -0.29467,-0.45736c0,-0.33473 0.22409,-0.44537 0.37223,-0.48194z" data-paper-data="{&quot;index&quot;:null}" fill="#000000" stroke-width="0.5"/><path d="M246.5215,190.63336c0.27614,0 0.5,0.22386 0.5,0.5c0,0.27614 -0.22386,0.5 -0.5,0.5c-0.27614,0 -0.5,-0.22386 -0.5,-0.5c0,-0.27614 0.22386,-0.5 0.5,-0.5z" data-paper-data="{&quot;index&quot;:null}" fill="#ffd118" stroke-width="0.5"/><path d="M248.60503,188.58771c-0.13567,0.06848 -0.34887,0.1124 -0.56207,-0.1008c-0.35356,-0.35356 0,-0.7071 0,-0.7071c0.20601,-0.20019 0.38325,-0.43695 0.50961,-0.69492l0.10887,-0.4478c0,0 0.00333,-0.0133 0.01108,-0.03495c-0.24722,0 -0.49444,0 -0.74165,0c0,0 -0.25,0 -0.25,-0.25c0,-0.25 0.25,-0.25 0.25,-0.25c0.35539,0 0.78432,0 1.13971,0c0,0 0.11056,0 0.18463,0.07353h0.04423c-0.24234,0.79238 -0.39969,1.61574 -0.43343,2.27567c-0.00261,0.00315 -0.00522,0.00627 -0.0078,0.00938l-0.15378,0.10033c0,0 -0.04235,0.02117 -0.0994,0.02666z" data-paper-data="{&quot;index&quot;:null}" fill="#ffd118" stroke-width="0.5"/></g></g></svg>