<svg version="1.1" xmlns="http://www.w3.org/2000/svg" xmlns:xlink="http://www.w3.org/1999/xlink" width="34.05626" height="38.76043" viewBox="0,0,34.05626,38.76043"><g transform="translate(-221.52129,-158.41895)"><g data-paper-data="{&quot;isPaintingLayer&quot;:true}" fill-rule="nonzero" stroke-linecap="butt" stroke-linejoin="miter" stroke-miterlimit="10" stroke-dasharray="" stroke-dashoffset="0" style="mix-blend-mode: normal"><g><path d="M255.57755,186.38081c0,5.96389 -7.62023,10.79857 -17.02026,10.79857c-9.40003,0 -17.02026,-4.83469 -17.02026,-10.79857c0,-5.96389 7.62024,-10.79857 17.02026,-10.79857c9.40003,0 17.02026,4.83468 17.02026,10.79857z" fill="#877b45" stroke="#000000" stroke-width="0"/><path d="M250.9009,173.92196c4.27752,6.22807 5.54856,12.78556 2.83894,14.64656c-2.70962,1.861 -8.37381,-1.67921 -12.65133,-7.90729c-4.27752,-6.22807 -5.54856,-12.78556 -2.83894,-14.64656c2.70962,-1.861 8.37381,1.67921 12.65133,7.90729z" fill="#877b45" stroke="none" stroke-width="0"/><path d="M238.43591,166.87284c2.70962,1.861 1.43858,8.41849 -2.83894,14.64656c-4.27752,6.22807 -9.94171,9.76828 -12.65133,7.90729c-2.70962,-1.861 -1.43858,-8.41849 2.83894,-14.64656c4.27752,-6.22807 9.94171,-9.76828 12.65133,-7.90729z" data-paper-data="{&quot;index&quot;:null}" fill="#877b45" stroke="none" stroke-width="0"/><path d="M242.84811,160.42134c0,1.10589 -2.3373,2.00238 -5.2205,2.00238c-2.88321,0 -5.2205,-0.89649 -5.2205,-2.00238c0,-1.10589 2.33729,-2.00239 5.2205,-2.00239c2.88321,0 5.2205,0.8965 5.2205,2.00239z" fill="#877b45" stroke="#000000" stroke-width="0"/><path d="M242.16929,159.74727c0.83965,0.7197 -0.00078,3.07774 -1.87714,5.26683c-1.87636,2.18909 -4.07812,3.38027 -4.91778,2.66057c-0.83965,-0.7197 0.00077,-3.07775 1.87713,-5.26684c1.87636,-2.18909 4.07814,-3.38026 4.91779,-2.66056z" fill="#877b45" stroke="#000000" stroke-width="0"/><path d="M233.15465,159.84973c0.93914,-0.58395 2.93465,0.92754 4.45709,3.37601c1.52245,2.44848 1.99532,4.90673 1.05618,5.49068c-0.93914,0.58395 -2.93465,-0.92753 -4.4571,-3.37601c-1.52245,-2.44848 -1.99531,-4.90674 -1.05617,-5.49069z" fill="#877b45" stroke="#000000" stroke-width="0"/><path d="M227.1238,176.45346c0.41602,-0.27735 0.69338,0.13868 0.69338,0.13868l0.2567,0.38944c0.21286,0.21649 0.45999,0.40552 0.7294,0.54551c0.32939,-0.00964 2.55284,-0.42938 1.67698,-1.30524c-0.23161,-0.23161 -0.68428,0.10188 -0.98201,-0.03464c-2.31703,-1.06239 -0.57004,-3.23165 0.67055,-3.76333c0.36707,-0.15732 0.6958,-0.45909 1.0941,-0.48825c0,0 0.5,0 0.5,0.5c0,0.5 -0.5,0.5 -0.5,0.5c-0.75415,-0.13272 -2.07958,0.71828 -1.80989,1.78657c0.22208,0.8797 1.20773,0.2659 1.73436,0.79253c1.83237,1.83237 -1.41228,3.00898 -2.61384,2.98559c-0.4641,-0.22726 -0.90559,-0.52136 -1.27298,-0.88476l-0.31541,-0.46873c0,0 -0.27735,-0.41602 0.13868,-0.69338z" fill="#524a2a" stroke="none" stroke-width="0.5"/><path d="M236.26885,175.51132c0.5,0 0.5,0.5 0.5,0.5v0.14303c-0.04119,1.37679 -2.48425,5.23494 -3.55304,2.43333c-0.35371,-0.92718 0.27146,-2.06964 0.2646,-3.00544c0,0 0,-0.5 0.5,-0.5c0.5,0 0.5,0.5 0.5,0.5c-0.00146,0.2475 -0.55197,2.76496 -0.26407,2.84879c1.08408,0.31563 1.58459,-1.63789 1.55251,-2.27668v-0.14303c0,0 0,-0.5 0.5,-0.5z" fill="#524a2a" stroke="none" stroke-width="0.5"/><path d="M239.34453,177.29857c0,-0.5 0.5,-0.5 0.5,-0.5h0.28606c1.23924,0.03708 2.29572,1.40609 0.80804,2.22808c-3.20162,1.76898 -3.02425,-3.0075 -1.59068,-4.5131c0,0 0.35355,-0.35356 0.70711,0c0.35356,0.35356 0,0.7071 0,0.7071c-0.22984,0.21287 -1.44789,2.80446 -0.83276,2.92433c0.57611,0.11227 2.1489,-0.40871 0.90829,-0.34641h-0.28606c0,0 -0.5,0 -0.5,-0.5z" fill="#524a2a" stroke="none" stroke-width="0.5"/><path d="M245.11479,177.78364c-0.36039,0.08796 -0.71093,0.22363 -1.04188,0.39123c0,0 -0.09195,0.04597 -0.2133,0.05453c-0.04999,0.08163 -0.10264,0.15581 -0.15822,0.21997c0.19004,0.2595 -0.00816,0.55682 -0.00816,0.55682l-0.28176,0.42263c-0.08902,0.13785 -0.24402,0.22911 -0.42032,0.22911c-0.27614,0 -0.5,-0.22386 -0.5,-0.5c0,-0.04575 0.00614,-0.09005 0.01764,-0.13215l0.14031,-0.56124l0.17432,0.04358l0.03776,-0.05663c0,0 0.01442,-0.02163 0.04162,-0.05174c0.2531,-1.65132 0.887,-4.31275 1.64777,-4.31851c1.72113,-0.01305 1.54096,3.4311 1.7862,4.3833l0.10517,0.18372c0,0 0.2236,0.44721 -0.22361,0.67082c-0.44721,0.2236 -0.67082,-0.22361 -0.67082,-0.22361l-0.18088,-0.38839c-0.02639,-0.10818 -0.11304,-0.47263 -0.21986,-0.93143zM244.87225,176.8135l0.05052,-0.01263c-0.08071,-0.3568 -0.15852,-0.70806 -0.2199,-0.99934c-0.02129,0.21875 -0.05911,0.43027 -0.11026,0.5551c-0.06468,0.15786 -0.1337,0.37115 -0.21086,0.60509c0.16148,-0.05638 0.32517,-0.10608 0.4905,-0.14822z" fill="#524a2a" stroke="none" stroke-width="0.5"/><path d="M250.36611,179.03303c-0.44721,0.2236 -0.67082,-0.22361 -0.67082,-0.22361l0.02684,-0.09363c-0.16867,-0.1135 -0.65748,-0.48692 -1.08122,-0.87212c-0.00051,0.05679 -0.00079,0.11347 -0.00079,0.17003v0.28606c0,0 0,0.5 -0.5,0.5c-0.5,0 -0.5,-0.5 -0.5,-0.5v-0.28606c0,-1.08239 0.14223,-2.26172 -0.1281,-3.31139c0,0 -0.09027,-0.3611 0.19652,-0.53807c0.13691,-0.22622 0.43158,-0.22622 0.43158,-0.22622c1.13551,0.00672 2.99428,0.73398 2.15716,2.30923c-0.14892,0.28025 -0.87824,0.46599 -1.24977,0.53104c0.37325,0.10994 0.91847,0.90055 1.22932,1.10545l0.31289,0.47848c0,0 0.2236,0.44721 -0.22361,0.67082zM248.66366,176.05741c0.61282,-0.53439 1.2024,-1.0346 -0.08599,-1.10989c0.05535,0.3649 0.0787,0.73631 0.08599,1.10989z" fill="#524a2a" stroke="none" stroke-width="0.5"/></g></g></g></svg>