<svg version="1.1" xmlns="http://www.w3.org/2000/svg" xmlns:xlink="http://www.w3.org/1999/xlink" width="7.91225" height="17.58389" viewBox="0,0,7.91225,17.58389"><g transform="translate(-234.66523,-183.68679)"><g data-paper-data="{&quot;isPaintingLayer&quot;:true}" fill-rule="nonzero" stroke="none" stroke-width="0.5" stroke-linecap="butt" stroke-linejoin="miter" stroke-miterlimit="10" stroke-dasharray="" stroke-dashoffset="0" style="mix-blend-mode: normal"><path d="M241.89444,201.20614c-0.94868,0.31623 -1.26491,-0.63246 -1.26491,-0.63246l-0.21956,-0.66012c-0.98938,-3.32134 -0.50681,-7.0156 -2.23089,-10.11201c0,0 -0.48564,-0.87416 0.38851,-1.3598c0.87416,-0.48564 1.3598,0.38851 1.3598,0.38851c1.83134,3.30321 1.34478,7.01903 2.39823,10.5086l0.20127,0.60236c0,0 0.31623,0.94868 -0.63246,1.26491z" fill="#0aa121"/><path d="M237.77277,184.21664c0.02791,-0.00185 0.0516,0.0053 0.07187,0.01957c0.16479,-0.32594 0.50279,-0.54942 0.89298,-0.54942c0.49155,0 0.90027,0.35466 0.98421,0.82205l0.19092,0.95458c0.4502,1.06365 0.49764,1.8642 0.28045,2.42881c0.3617,0.84402 -0.48233,1.26604 -0.48233,1.26604l-1.15539,0.27381c-0.46348,-0.25973 -1.10461,-0.34754 -1.4912,-0.68168c-0.73995,-0.23425 -1.48402,-0.66136 -2.08477,-1.25236c0,0 -0.41119,-0.41119 -0.29289,-0.92c0.00085,-0.35159 0.18315,-0.66054 0.4582,-0.83817l0.93396,-0.62264l0.00064,0.00097c0.56359,-0.30355 1.05528,-0.85933 1.69335,-0.90156z" fill="#98db46"/></g></g></svg>