<svg version="1.1" xmlns="http://www.w3.org/2000/svg" xmlns:xlink="http://www.w3.org/1999/xlink" width="38.83105" height="41.04346" viewBox="0,0,38.83105,41.04346"><g transform="translate(-221.0836,-159.65646)"><g data-paper-data="{&quot;isPaintingLayer&quot;:true}" fill-rule="nonzero" stroke="none" stroke-width="0.5" stroke-linecap="butt" stroke-linejoin="miter" stroke-miterlimit="10" stroke-dasharray="" stroke-dashoffset="0" style="mix-blend-mode: normal"><path d="M228.09123,189.33904c0.01747,-0.10483 0.07208,-0.15767 0.12909,-0.18377c-0.00788,-0.0105 -0.0155,-0.02209 -0.0228,-0.03486c-0.12403,-0.21706 0.09303,-0.3411 0.09303,-0.3411c2.3214,-1.32631 3.79665,-3.3452 5.47199,-5.3921c1.92893,-2.62798 4.28293,-4.4665 6.78367,-6.49835c2.56975,-2.08654 4.82559,-4.43098 7.34625,-6.59462c2.28215,-2.15005 4.07663,-4.88527 6.4593,-6.83319c1.13273,-1.08548 6.87055,-6.45 5.28918,-2.0782c-1.04638,2.84059 -2.2921,5.48284 -3.80821,8.16519c-1.7011,3.0077 -3.7878,5.42115 -6.14367,7.92545c-2.27539,2.41876 -4.86028,4.70739 -7.36334,6.89773c-2.13482,1.86756 -4.46887,3.92189 -6.95301,5.30101c-2.70892,1.69239 -3.77945,2.9231 -6.52088,0.1917c-0.05596,-0.06158 -0.11192,-0.12317 -0.16788,-0.18475l-0.38723,-0.05245c0,0 -0.2466,-0.0411 -0.2055,-0.2877z" fill="#885c36"/><path d="" data-paper-data="{&quot;index&quot;:null}" fill="#885c36"/><path d="" data-paper-data="{&quot;index&quot;:null}" fill="#885c36"/><path d="" data-paper-data="{&quot;index&quot;:null}" fill="#885c36"/><path d="" data-paper-data="{&quot;index&quot;:null}" fill="#885c36"/><path d="" data-paper-data="{&quot;index&quot;:null}" fill="#885c36"/><path d="" data-paper-data="{&quot;index&quot;:null}" fill="#885c36"/><g><path d="M232.17271,193.21687c-1.22434,0.50654 -2.8816,2.24807 -3.98334,4.10367c-0.93907,0.25672 -1.76448,1.06244 -2.34976,1.99609c-0.75385,0.11716 -1.40931,0.48764 -2.10322,1.26296c-0.03333,0.03725 -0.06652,0.07746 -0.09937,0.12033c-1.18408,-0.20094 -2.18343,-1.05115 -2.55342,-2.2209c0.56588,-0.99644 0.91284,-2.29265 0.95937,-2.94341c0.00526,-0.01349 0.01037,-0.02705 0.01534,-0.04066c0.07154,-0.13805 0.11966,-0.27172 0.14718,-0.4008c1.9454,-1.15373 3.87861,-3.21438 4.76248,-5.17217c0.29787,-0.28431 0.59222,-0.57098 0.88333,-0.85987c0.52129,0.46707 2.56934,1.58703 2.87663,1.80783c0.50292,0.36136 1.40104,1.17537 2.43315,2.03126c-0.29778,0.06267 -0.62707,0.16618 -0.98837,0.31566z" data-paper-data="{&quot;index&quot;:null}" fill="#885c36"/><path d="M248.59813,165.63819c-0.00147,-0.00817 -0.00301,-0.01633 -0.00464,-0.02448c0.00502,-0.00582 0.01067,-0.01169 0.01691,-0.01759c-0.0041,0.01402 -0.00819,0.02805 -0.01227,0.04207z" data-paper-data="{&quot;index&quot;:null}" fill="#885c36"/><path d="M226.38831,198.56779c-0.10857,0.12656 -0.21237,0.25889 -0.31094,0.39547c-1.56193,-0.97505 -2.76171,-2.18782 -3.92759,-3.6758c0.02375,-0.06552 0.04221,-0.12996 0.05571,-0.1933c0.10007,-0.05935 0.20011,-0.12109 0.29996,-0.1851c0.01486,0.027 0.02972,0.05402 0.04458,0.08102c1.15011,1.45274 2.30489,2.62948 3.83827,3.57772z" data-paper-data="{&quot;index&quot;:null}" fill="#4c331e"/><path d="M227.45858,188.92152c0.05642,-0.11962 0.14627,-0.14611 0.21839,-0.14454l0.05548,0.1389c0.07494,0.30512 2.64803,1.7044 2.99549,1.95406c0.30587,0.21977 0.75792,0.60697 1.29738,1.0692c0.26071,0.33106 0.49036,0.68969 0.67958,1.08286c-0.15087,0.04755 -0.30843,0.10425 -0.47274,0.17057c-0.81877,-1.66363 -2.43484,-2.6754 -3.98419,-3.61307c-0.18097,-0.09809 -0.36612,-0.18894 -0.55486,-0.2711l-0.11506,-0.05414c0,0 -0.22612,-0.10665 -0.11947,-0.33276z" data-paper-data="{&quot;index&quot;:null}" fill="#4c331e"/><path d="M226.90753,190.39509c0,0 -0.07335,-0.03459 -0.11679,-0.10614c0.06338,-0.12333 0.12288,-0.24651 0.17826,-0.36928c0.08103,-0.0102 0.15181,0.02319 0.15181,0.02319l0.09748,0.04629c1.79357,0.74836 3.38777,1.91284 4.50032,3.4593c-0.13562,0.08103 -0.2746,0.17381 -0.41585,0.2771c-1.05582,-1.46394 -2.57243,-2.57285 -4.276,-3.27453z" data-paper-data="{&quot;index&quot;:null}" fill="#b97b48"/><path d="M226.16582,191.37943c1.66891,0.46516 3.24873,1.63718 4.47293,2.89284c-0.12023,0.10952 -0.24086,0.22491 -0.36129,0.34547c-1.11881,-1.14783 -2.54221,-2.2231 -4.05841,-2.70138c-0.0944,0.03177 -0.18951,-0.00972 -0.18951,-0.00972c-0.07005,-0.03057 -0.14032,-0.06072 -0.2108,-0.09034c0.11184,-0.14768 0.21946,-0.29668 0.32237,-0.44655l0.02473,0.00968z" data-paper-data="{&quot;index&quot;:null}" fill="#b97b48"/><path d="M229.38176,195.6153c-1.30122,-1.17049 -2.50127,-2.36402 -4.07158,-3.17006c0.11215,-0.13024 0.22135,-0.26214 0.32724,-0.39532c1.55857,0.81665 2.76551,2.01315 4.06649,3.18292c-0.10853,0.12425 -0.21606,0.25191 -0.32212,0.38246z" data-paper-data="{&quot;index&quot;:null}" fill="#b97b48"/><path d="M228.66962,196.56912c-1.38071,-0.95625 -2.57322,-2.72028 -3.98345,-3.4469c0.11489,-0.11658 0.22771,-0.23519 0.33817,-0.35552c1.40742,0.83592 2.51508,2.48377 3.9289,3.40291c-0.09661,0.13136 -0.19129,0.26468 -0.28362,0.3995z" data-paper-data="{&quot;index&quot;:null}" fill="#b97b48"/><path d="M228.34466,197.06559c-0.05288,0.08467 -0.10467,0.16968 -0.15529,0.25495c-0.07722,0.02111 -0.15367,0.04594 -0.22929,0.07424c-1.3665,-1.14586 -2.74757,-2.35532 -4.13242,-3.47257c0.1269,-0.10842 0.25238,-0.21974 0.37608,-0.33365c1.38759,1.12034 2.77045,2.33202 4.14093,3.47703z" data-paper-data="{&quot;index&quot;:null}" fill="#b97b48"/><path d="M223.18851,194.43434c1.42702,0.93885 2.42416,2.48883 3.8003,3.53898c-0.12792,0.10582 -0.25155,0.22057 -0.37042,0.34257c-1.38183,-1.08137 -2.41325,-2.61118 -3.8632,-3.57183c0.1452,-0.09881 0.28979,-0.2022 0.43331,-0.30973z" data-paper-data="{&quot;index&quot;:null}" fill="#b97b48"/><path d="M254.41458,165.12576c0,-0.13807 0.11193,-0.25 0.25,-0.25c0.13807,0 0.25,0.11193 0.25,0.25c0,0.13807 -0.11193,0.25 -0.25,0.25c-0.13807,0 -0.25,-0.11193 -0.25,-0.25z" fill="#754f2f"/><path d="M259.25011,159.90646c0,-0.13807 0.11193,-0.25 0.25,-0.25c0.13807,0 0.25,0.11193 0.25,0.25c0,0.13807 -0.11193,0.25 -0.25,0.25c-0.13807,0 -0.25,-0.11193 -0.25,-0.25z" fill="#754f2f"/></g></g></g></svg>