<svg version="1.1" xmlns="http://www.w3.org/2000/svg" xmlns:xlink="http://www.w3.org/1999/xlink" width="31.80076" height="35.79348" viewBox="0,0,31.80076,35.79348"><g transform="translate(-224.09962,-162.10326)"><g data-paper-data="{&quot;isPaintingLayer&quot;:true}" fill-rule="nonzero" stroke="none" stroke-width="0.5" stroke-linecap="butt" stroke-linejoin="miter" stroke-miterlimit="10" stroke-dasharray="" stroke-dashoffset="0" style="mix-blend-mode: normal"><g><path d="M227.55132,194.97241c-1.08263,-1.03822 -0.04441,-2.12085 -0.04441,-2.12085l0.86796,-0.90187c4.5822,-5.31838 10.32694,-9.63037 14.9901,-14.92424c3.65095,-4.14476 6.50095,-9.16812 9.61561,-13.72752c0,0 0.84611,-1.23858 2.0847,-0.39247c1.23858,0.84611 0.39247,2.0847 0.39247,2.0847c-3.18957,4.66906 -6.11659,9.78831 -9.85525,14.03366c-4.65158,5.28199 -10.39895,9.57138 -14.95249,14.88132l-0.97784,1.02288c0,0 -1.03822,1.08263 -2.12085,0.04441z" fill="#433b00"/><path d="M254.32588,171.69417c-0.14192,0.22172 -0.51018,0.13034 -0.76682,0.18894c-0.4121,0.09409 -6.31582,-2.68888 -6.44878,-3.92001c-0.27779,-2.57221 4.17211,-3.32755 5.75714,-4.8125c0.04326,-0.13647 0.10694,-0.269 0.19185,-0.3933c0.46729,-0.68405 1.40065,-0.85977 2.0847,-0.39247c0.60251,0.41159 0.81065,1.18476 0.5324,1.83066c0.66788,2.09765 -0.26852,5.80831 -1.35049,7.49868z" fill="#424135"/><path d="M228.3816,191.4582c-0.00843,0.00158 -0.01687,0.00315 -0.0253,0.0047c0.24631,0.03431 0.49401,0.0652 0.74287,0.0944c0,0 0.2483,0.02913 0.21916,0.27743c-0.02914,0.2483 -0.27743,0.21916 -0.27743,0.21916c-0.2725,-0.03197 -0.54352,-0.06617 -0.81284,-0.10458c0.02851,0.04286 0.0447,0.10164 0.03004,0.18172c-0.04503,0.24591 -0.29094,0.20088 -0.29094,0.20088c-0.20461,-0.03747 -0.40797,-0.07394 -0.61037,-0.11054c-0.04716,-0.00301 -0.09434,-0.00585 -0.14153,-0.00847c0.06852,0.01701 0.13708,0.03416 0.20569,0.05141c0,0 0.24246,0.06096 0.1815,0.30342c-0.06096,0.24245 -0.30341,0.18149 -0.30341,0.18149c-0.01993,-0.00501 -0.03985,-0.01001 -0.05978,-0.015c0.02749,0.04263 0.04278,0.10069 0.0284,0.17923c-0.03336,0.18221 -0.177,0.20469 -0.24919,0.20411c-0.00052,0.00713 -0.00129,0.01446 -0.00232,0.02199c-0.03381,0.2477 -0.28152,0.21389 -0.28152,0.21389c-0.71667,-0.09783 -1.3573,-0.29699 -2.05275,-0.48517l-0.4035,-0.12547c0,0 -0.23872,-0.07426 -0.16447,-0.31298c0.07426,-0.23872 0.31297,-0.16446 0.31297,-0.16446l0.39464,0.1228c0.04631,0.01256 0.09234,0.02517 0.13814,0.03779c0.002,-0.01378 0.00509,-0.02822 0.0094,-0.04334c0.02104,-0.07384 0.05829,-0.11854 0.09981,-0.14503l-0.21444,-0.06095c0,0 -0.24043,-0.0685 -0.17193,-0.30893c0.04129,-0.14494 0.14507,-0.17761 0.22099,-0.1807c-0.09569,-0.02735 -0.19141,-0.05582 -0.2872,-0.08553l-0.01153,-0.00358c0,0 -0.23877,-0.07408 -0.1647,-0.31285c0.07408,-0.23877 0.31284,-0.1647 0.31284,-0.1647l0.01153,0.00358c0.28602,0.08874 0.57144,0.16609 0.85711,0.23562c-0.34691,-0.11908 -0.68937,-0.25792 -1.02681,-0.42145c-0.05932,-0.0125 -0.10156,-0.04135 -0.10156,-0.04135l0.00294,-0.00722c-0.01242,-0.00621 -0.02483,-0.01247 -0.03724,-0.01876l0.08932,-0.10924l0.13697,-0.33662c0.76348,0.38827 1.55561,0.63708 2.36797,0.81227c0.00999,-0.01855 0.02227,-0.03451 0.03568,-0.0482c-0.36239,-0.0821 -0.72164,-0.17879 -1.07782,-0.29982l-0.06527,0.02351c0,0 -0.24946,0.01638 -0.26585,-0.23308c-0.0048,-0.07316 0.01326,-0.12628 0.04118,-0.16481c-0.06688,-0.01034 -0.11619,-0.04403 -0.11619,-0.04403l0.14374,-0.47537c0.21793,0.02987 0.43443,0.06763 0.65055,0.1078c0.03569,-0.22433 0.2689,-0.20295 0.2689,-0.20295l0.09041,0.00845c-0.06359,-0.01796 -0.12712,-0.03595 -0.19059,-0.05397c-0.10236,0.01853 -0.19326,-0.04356 -0.19326,-0.04356l0.14735,-0.48934c0.26784,0.07631 0.53694,0.15259 0.80702,0.22761c-0.00692,-0.04085 -0.00236,-0.08787 0.02366,-0.13972c-0.05072,-0.01374 -0.08546,-0.03748 -0.08546,-0.03748l0.0043,-0.03997c-0.0096,-0.00161 -0.01919,-0.00322 -0.0288,-0.00482l0.03366,-0.04042l0.04786,-0.44512c-0.02373,-0.00256 -0.04739,-0.00497 -0.07098,-0.00719c-0.14098,0.20371 -0.34616,0.06355 -0.34616,0.06355l-0.00605,-0.08347c-0.01425,-0.00021 -0.02848,-0.00034 -0.04266,-0.0004l0.03976,-0.03955l-0.03336,-0.46041c0.31244,0.00626 0.63871,0.04596 0.97091,0.10549c0.00369,-0.04113 0.01764,-0.08192 0.04259,-0.11844c0.02591,-0.03793 0.06043,-0.06649 0.09915,-0.08484c-0.01115,-0.06225 0.00116,-0.12875 0.03965,-0.1851c0.06344,-0.09286 0.1784,-0.12952 0.28048,-0.09784l0.03233,0.00922c-0.04389,-0.05126 -0.07471,-0.12911 -0.03368,-0.24c0.05703,-0.15417 0.17795,-0.16946 0.25407,-0.16186c-0.00275,-0.04222 0.00716,-0.0907 0.0385,-0.14491c0.06633,-0.11474 0.15832,-0.13349 0.23013,-0.12578c-0.03597,-0.04774 -0.05764,-0.1162 -0.03037,-0.21189c0.00337,-0.01183 0.00716,-0.02293 0.01132,-0.03331c-0.11666,-0.03362 -0.23359,-0.0672 -0.35091,-0.10064l-0.30343,-0.07443c-0.0303,-0.00669 -0.05986,-0.01917 -0.08706,-0.03774c-0.11401,-0.07788 -0.14329,-0.23344 -0.06541,-0.34745c0.05863,-0.08582 0.16127,-0.12363 0.25707,-0.10387l0.35911,0.06575c0,0 0.06741,0.01234 0.12518,0.05939c1.28642,0.36878 2.53125,0.75134 3.84453,1.00944c0,0 0.24529,0.0483 0.19699,0.29359c-0.0483,0.24529 -0.29359,0.19699 -0.29359,0.19699c-0.07444,-0.01469 -0.14866,-0.02976 -0.22269,-0.0452c0.0571,0.05055 0.11888,0.14301 0.05642,0.28309c-0.10182,0.22832 -0.33014,0.12651 -0.33014,0.12651c-0.77108,-0.34529 -1.71748,-0.69351 -2.56807,-0.87237c0.85838,0.30643 1.69796,0.65459 2.571,0.92543c0,0 0.23877,0.07408 0.1647,0.31285c-0.02867,0.0924 -0.082,0.13795 -0.13661,0.15908c-0.07528,0.14179 -0.25201,0.11766 -0.25201,0.11766c-0.39299,-0.05382 -0.76922,-0.12631 -1.13749,-0.21746c0.00433,0.03045 0.00298,0.06532 -0.00644,0.10517c-0.01116,0.04719 -0.02929,0.08306 -0.0513,0.11023c0.16474,0.04405 0.33052,0.08348 0.49774,0.11634c0,0 0.24529,0.0483 0.19699,0.29359c-0.0483,0.24529 -0.29359,0.19699 -0.29359,0.19699c-0.13464,-0.02656 -0.26835,-0.05716 -0.40132,-0.09088c-0.0279,0.02087 -0.05857,0.03276 -0.08764,0.03923c0.02271,0.00642 0.0454,0.01285 0.06808,0.01931c0,0 0.24043,0.0685 0.17193,0.30893c-0.0685,0.24043 -0.30894,0.17193 -0.30894,0.17193c-0.0567,-0.01616 -0.11351,-0.03217 -0.1704,-0.04803c0.01397,0.02455 0.02505,0.05431 0.03184,0.09037c0.02457,0.13051 -0.03324,0.20474 -0.09284,0.24566c0.0201,0.04083 0.02915,0.09355 0.01581,0.16129c-0.0483,0.24529 -0.29359,0.19699 -0.29359,0.19699c-0.33117,-0.06537 -0.66231,-0.13815 -0.99294,-0.21633c0.01818,0.04151 0.0249,0.09433 0.00889,0.1611c-0.00453,0.01889 -0.01017,0.03596 -0.01673,0.05138c0.10013,0.01373 0.20041,0.0252 0.30088,0.03324c0,0 0.24919,0.02002 0.22917,0.26922c-0.02002,0.2492 -0.26922,0.22918 -0.26922,0.22918c-0.12994,-0.01048 -0.25993,-0.02717 -0.38992,-0.04727c0.00148,0.02159 0.0004,0.04529 -0.00386,0.07126c-0.04049,0.2467 -0.28719,0.2062 -0.28719,0.2062c-0.01718,-0.00282 -0.03435,-0.00564 -0.05152,-0.00848c-0.02867,0.0118 -0.04979,0.01578 -0.04979,0.01578zM227.4863,188.8617c0.26213,0.04545 0.52439,0.09488 0.78625,0.14803c-0.26565,-0.06111 -0.52944,-0.11308 -0.78625,-0.14803z" fill="#134220"/><path d="M234.34607,192.79984c0.01659,0.00484 0.03391,0.01156 0.05197,0.02045c0.2243,0.11041 0.11389,0.3347 0.11389,0.3347l-0.11567,0.23499c-0.00558,0.01181 -0.01217,0.02334 -0.01977,0.03447c-0.07788,0.11401 -0.23344,0.14329 -0.34745,0.06541c-0.05851,-0.03997 -0.0947,-0.1004 -0.10555,-0.16518l-0.07117,-0.42126l0.00442,-0.00075l-0.00656,-0.01486c-0.00274,-0.06522 -0.00488,-0.13028 -0.00652,-0.19523c-0.01731,-0.0023 -0.0345,-0.00642 -0.05127,-0.01245c-0.00701,0.07454 -0.04594,0.13153 -0.04594,0.13153l-0.02232,-0.00285l-0.00375,0.01208c-0.00718,0.0252 -0.01848,0.04968 -0.03407,0.0725c-0.05051,0.07394 -0.13369,0.11225 -0.21702,0.10879l-0.03983,0.04033c-0.03337,0.19513 -0.0643,0.39046 -0.09077,0.58622l-0.10499,0.20047c0,0 -0.07846,0.11485 -0.204,0.11469c-0.01012,0.20207 -0.01711,0.40459 -0.01978,0.60803c0.00639,0.03065 0.00638,0.05239 0.00638,0.05239l-0.00027,0.32912l0.02179,0.49279c0.00292,0.05301 -0.01095,0.10736 -0.04321,0.15458c-0.07788,0.11401 -0.23344,0.14329 -0.34745,0.06541c-0.05144,-0.03514 -0.08563,-0.08609 -0.10051,-0.1419c-0.00532,0.10353 -0.01071,0.20706 -0.01617,0.31058l-0.01372,0.02108l0.00916,0.00225l-0.07525,0.30681c-0.00669,0.0303 -0.01917,0.05986 -0.03774,0.08706c-0.07788,0.11401 -0.23344,0.14329 -0.34745,0.06541c-0.0643,-0.04392 -0.10165,-0.11256 -0.10803,-0.18451l-0.01675,-0.17497c-0.02758,0.12724 -0.0561,0.2543 -0.08537,0.3812l-0.05614,0.24325c-0.00649,0.03146 -0.0192,0.06218 -0.03845,0.09037c-0.07788,0.11401 -0.23344,0.14329 -0.34745,0.06541c-0.05076,-0.03468 -0.08472,-0.08475 -0.09992,-0.1397l-0.07903,-0.27823l-0.12955,-0.40371c0,0 -0.07637,-0.23805 0.16168,-0.31442c0.10703,-0.03434 0.18138,-0.00511 0.23079,0.03746c0.00922,-0.04442 0.01831,-0.08886 0.02726,-0.13332l-0.08827,-0.27516l0.00306,-0.00098l-0.00645,-0.01052c-0.04157,-0.1902 -0.07934,-0.38024 -0.11434,-0.57032c-0.01395,0.15697 -0.02683,0.31405 -0.03812,0.47128l-0.00813,0.01204l0.00613,0.0011l-0.04866,0.27131c-0.00556,0.03557 -0.01894,0.0705 -0.0406,0.10221c-0.06585,0.09639 -0.18721,0.13222 -0.29205,0.09392l-0.02547,0.18662c-0.00449,0.039 -0.01827,0.07752 -0.04196,0.11219c-0.0514,0.07525 -0.13665,0.11359 -0.22145,0.10857c-0.04522,0.34119 -0.09298,0.68205 -0.12761,1.02532l-0.00697,0.01064l0.00496,0.00098l-0.05432,0.27589c-0.00593,0.03417 -0.01909,0.06764 -0.03993,0.09814c-0.0735,0.10759 -0.21616,0.13973 -0.32781,0.07756c-0.0814,0.09852 -0.22599,0.12045 -0.33358,0.04696c-0.01966,-0.01343 -0.03681,-0.02917 -0.05131,-0.04661l-0.0106,0.17983c-0.00188,0.04515 -0.01601,0.09035 -0.04338,0.13041c-0.07788,0.11401 -0.23344,0.14329 -0.34745,0.06541c-0.05296,-0.03618 -0.08764,-0.08912 -0.10179,-0.14687l-0.10963,-0.43878l0.00464,-0.00116c-0.00259,-0.0044 -0.00518,-0.00879 -0.00778,-0.01319l-0.05986,-0.46418c0,0 -0.00362,-0.02827 0.00114,-0.06695l-0.24907,0.0473c-0.07723,-0.41989 -0.04763,-0.83463 -0.0428,-1.26083c0,0 0.00282,-0.24998 0.25281,-0.24716c0.05087,0.00058 0.09128,0.01139 0.12336,0.02824c0.02346,-0.06241 0.07478,-0.13039 0.18662,-0.14627c-0.02622,-0.09583 -0.056,-0.19007 -0.09019,-0.2822c0,0 -0.08602,-0.23474 0.14872,-0.32075c0.07389,-0.02707 0.13304,-0.02237 0.17942,-0.0032c0.00094,-0.11764 0.00329,-0.2353 0.00797,-0.35303c0,0 0.01017,-0.24979 0.25997,-0.23961c0.09688,0.00395 0.15465,0.04393 0.18908,0.09141c-0.00207,-0.01998 -0.00421,-0.03997 -0.00641,-0.05996c0,0 -0.02728,-0.24851 0.22123,-0.27578c0.24851,-0.02728 0.27578,0.22123 0.27578,0.22123c0.01001,0.09139 0.01875,0.18262 0.02641,0.27377c0.00424,-0.09814 0.00711,-0.19658 0.00818,-0.2955c0,0 0.00196,-0.17322 0.14681,-0.22964c0.01295,-0.15547 0.02178,-0.31156 0.01787,-0.47051c0,0 -0.00523,-0.24995 0.24471,-0.25518c0.05242,-0.0011 0.09407,0.00903 0.12718,0.02572c0.0087,-0.01131 0.01871,-0.02223 0.0302,-0.03227c-0.00628,-0.0439 -0.01257,-0.08783 -0.01888,-0.1318c0,0 -0.03554,-0.24746 0.21193,-0.283c0.24746,-0.03554 0.283,0.21193 0.283,0.21193c0.0214,0.14904 0.04248,0.29765 0.06372,0.44592c0.00034,-0.02239 0.00068,-0.0448 0.00103,-0.06721c0.00319,0.04721 0.0064,0.09442 0.00966,0.14163c0.00523,0.03633 0.01047,0.07265 0.01574,0.10895c0.01843,-0.45246 0.03172,-0.90748 0.09117,-1.35087c0,0 0.03381,-0.2477 0.28152,-0.21389c0.0039,0.00053 0.00772,0.00111 0.01148,0.00175c0.03631,-0.041 0.09297,-0.07315 0.1814,-0.07451c0.24997,-0.00384 0.25381,0.24613 0.25381,0.24613c0.00147,0.09564 0.00228,0.1912 0.00257,0.28671c0.0271,-0.01981 0.06054,-0.03534 0.10103,-0.03997c-0.00017,-0.02044 -0.00017,-0.04091 0.00002,-0.06139c0,0 0.00056,-0.04905 0.02291,-0.10346c-0.09897,-0.33413 -0.0565,-0.559 -0.05309,-0.92023c0,0 0.00283,-0.24998 0.25281,-0.24715c0.24999,0.00283 0.24716,0.25281 0.24716,0.25281c-0.00093,0.07153 -0.00506,0.1373 -0.00954,0.19969c0.03358,-0.03546 0.084,-0.06343 0.15956,-0.07066c0.02744,-0.00263 0.05214,-0.00194 0.07437,0.00136c0.00174,-0.0112 0.00347,-0.02239 0.00519,-0.0336c-0.00179,-0.21864 -0.00107,-0.43711 0.00776,-0.65491c0,0 0.01018,-0.24979 0.25997,-0.23962c0.08172,0.00333 0.13563,0.03231 0.17116,0.0698c0.002,-0.07547 0.00578,-0.1504 0.01262,-0.22438c0,0 0.02302,-0.24894 0.27196,-0.22592c0.0782,0.00723 0.12957,0.03676 0.16324,0.07386c0.00784,0.00052 0.01591,0.00134 0.02423,0.00247c0.04221,0.00576 0.07625,0.01774 0.10367,0.03364c-0.00066,-0.19042 0.0016,-0.38121 0.00782,-0.57279c0,0 0.00814,-0.24987 0.25801,-0.24172c0.08346,0.00272 0.13814,0.03241 0.17394,0.07075c0.03258,-0.06079 0.09573,-0.11997 0.21808,-0.11859c0.24999,0.00283 0.24716,0.25281 0.24716,0.25281c-0.00051,0.044 -0.00133,0.08794 -0.00239,0.13184c0.03919,-0.03558 0.09673,-0.06081 0.1811,-0.05584c0.24957,0.01471 0.23485,0.26428 0.23485,0.26428c-0.05645,0.95716 -0.09275,1.92736 -0.22216,2.8778l-0.39212,-0.13457l-0.10328,0.06694c0.00446,-0.03261 0.00881,-0.06524 0.01305,-0.0979l-0.07491,-0.02571c0,0 -0.06148,-0.20105 0.1127,-0.29079c0.00876,-0.08004 0.01697,-0.1602 0.0247,-0.24044c-0.03489,0.00823 -0.07147,0.00899 -0.10713,0.00178c-0.00493,0.00976 -0.01056,0.01931 -0.0169,0.0286c-0.07788,0.11401 -0.23344,0.14329 -0.34745,0.06541c-0.05986,-0.04089 -0.09637,-0.1032 -0.10627,-0.16967l-0.01402,-0.09239c-0.00452,0.33655 -0.00911,0.67058 0.00337,1.00816zM234.27876,190.97476c-0.01782,0.13233 -0.03538,0.26468 -0.05243,0.39711c0.03166,0.01771 0.05489,0.04141 0.07193,0.06673c-0.00694,-0.15497 -0.01363,-0.30951 -0.0195,-0.46384zM231.81315,194.13267l-0.04193,-0.31491c0.00001,-0.00002 0.00002,-0.00003 0.00003,-0.00005l-0.07958,0.01953c0.02343,0.15105 0.04782,0.3019 0.07372,0.45265c0.02677,-0.03325 0.06505,-0.06289 0.11946,-0.07533c-0.04705,-0.0376 -0.0717,-0.08189 -0.0717,-0.08189zM230.00642,194.90926c0.0047,0.0008 0.00946,0.00172 0.01431,0.00277c-0.00408,-0.11299 -0.00912,-0.22574 -0.01552,-0.33845c-0.00062,0.1119 0.00009,0.22378 0.00121,0.33568zM233.47963,189.90378c-0.0089,0.01485 -0.0156,0.03018 -0.02059,0.04544c-0.00528,-0.0249 -0.01052,-0.04975 -0.01575,-0.07453c0.01214,0.00966 0.02425,0.01936 0.03633,0.02909z" fill="#134220"/></g></g></g></svg>