<svg version="1.1" xmlns="http://www.w3.org/2000/svg" xmlns:xlink="http://www.w3.org/1999/xlink" width="12.036" height="14.92734" viewBox="0,0,12.036,14.92734"><g transform="translate(-235.23868,-185.56928)"><g data-paper-data="{&quot;isPaintingLayer&quot;:true}" fill-rule="nonzero" stroke="none" stroke-width="0.5" stroke-linecap="butt" stroke-linejoin="miter" stroke-miterlimit="10" stroke-dasharray="" stroke-dashoffset="0" style="mix-blend-mode: normal"><g><path d="M241.05052,200.49116c-1.49619,-0.10687 -1.38932,-1.60306 -1.38932,-1.60306l0.10432,-1.4596c0.13433,-2.13109 0.3127,-4.18487 0.3127,-6.32407c0,0 0,-1.5 1.5,-1.5c1.5,0 1.5,1.5 1.5,1.5c0,2.20035 -0.18285,4.32028 -0.31855,6.51121l-0.1061,1.4862c0,0 -0.10687,1.49618 -1.60306,1.38932z" fill="#c5bc6c"/><path d="M236.04614,188.89987c0.01947,-0.02142 0.03894,-0.04284 0.05841,-0.06426c0.07367,-0.40548 0.31034,-0.75414 0.63967,-0.97565l1.35,-0.93462l0.01119,0.01617l0.04287,-0.05188c1.96133,-1.08469 4.00787,-1.87042 6.25155,-0.8368c0.72807,0.33541 1.46643,0.96428 2.01255,1.72662c0.17046,0.14838 0.31654,0.35404 0.39402,0.6391c0.70913,1.36123 0.74277,2.97053 -0.81747,4.10233c-0.66695,0.48381 -1.63795,-0.18221 -2.45873,-0.25431c-2.22219,-0.19519 -4.277,-0.00646 -6.49302,0.12486c0,0 -1.49741,0.08808 -1.58549,-1.40933c-0.01371,-0.23305 0.01099,-0.43197 0.06247,-0.60173l-0.27547,-0.1176c0,0 0.00001,-0.99261 0.80746,-1.36291z" fill="#702424"/><path d="M240.59177,187.31697c0,-0.13807 0.11193,-0.25 0.25,-0.25c0.13807,0 0.25,0.11193 0.25,0.25c0,0.13807 -0.11193,0.25 -0.25,0.25c-0.13807,0 -0.25,-0.11193 -0.25,-0.25z" fill="#973030"/><path d="M243.32715,188.26384c0,-0.13807 0.11193,-0.25 0.25,-0.25c0.13807,0 0.25,0.11193 0.25,0.25c0,0.13807 -0.11193,0.25 -0.25,0.25c-0.13807,0 -0.25,-0.11193 -0.25,-0.25z" fill="#973030"/><path d="M239.85531,189.84195c0,-0.13807 0.11193,-0.25 0.25,-0.25c0.13807,0 0.25,0.11193 0.25,0.25c0,0.13807 -0.11193,0.25 -0.25,0.25c-0.13807,0 -0.25,-0.11193 -0.25,-0.25z" fill="#973030"/><path d="M236.80431,190.26277c0,-0.13807 0.11193,-0.25 0.25,-0.25c0.13807,0 0.25,0.11193 0.25,0.25c0,0.13807 -0.11193,0.25 -0.25,0.25c-0.13807,0 -0.25,-0.11193 -0.25,-0.25z" fill="#973030"/><path d="M243.22195,190.5784c0,-0.13807 0.11193,-0.25 0.25,-0.25c0.13807,0 0.25,0.11193 0.25,0.25c0,0.13807 -0.11193,0.25 -0.25,0.25c-0.13807,0 -0.25,-0.11193 -0.25,-0.25z" fill="#973030"/><path d="M245.95733,191.20964c0,-0.13807 0.11193,-0.25 0.25,-0.25c0.13807,0 0.25,0.11193 0.25,0.25c0,0.13807 -0.11193,0.25 -0.25,0.25c-0.13807,0 -0.25,-0.11193 -0.25,-0.25z" fill="#973030"/><path d="M245.64171,189.00029c0,-0.13807 0.11193,-0.25 0.25,-0.25c0.13807,0 0.25,0.11193 0.25,0.25c0,0.13807 -0.11193,0.25 -0.25,0.25c-0.13807,0 -0.25,-0.11193 -0.25,-0.25z" fill="#973030"/><path d="M242.16987,189.42112c0,-0.13807 0.11193,-0.25 0.25,-0.25c0.13807,0 0.25,0.11193 0.25,0.25c0,0.13807 -0.11193,0.25 -0.25,0.25c-0.13807,0 -0.25,-0.11193 -0.25,-0.25z" fill="#973030"/><path d="M241.1178,191.10443c0,-0.13807 0.11193,-0.25 0.25,-0.25c0.13807,0 0.25,0.11193 0.25,0.25c0,0.13807 -0.11193,0.25 -0.25,0.25c-0.13807,0 -0.25,-0.11193 -0.25,-0.25z" fill="#973030"/><path d="M242.10425,199.45539c-0.25,0 -0.25,-0.25 -0.25,-0.25l0.00323,-0.35567c0.06831,-0.21101 0.13796,-0.42162 0.21041,-0.63124c0,-1.8166 0.62802,-3.709 0.62802,-5.64114c0,0 0,-0.25 0.25,-0.25c0.25,0 0.25,0.25 0.25,0.25c0,1.95645 -0.63447,3.8818 -0.63447,5.72124c-0.06831,0.21101 -0.13796,0.42162 -0.21041,0.63124l0.00323,0.27558c0,0 0,0.25 -0.25,0.25z" fill="#ddd37a"/></g></g></g></svg>