<svg version="1.1" xmlns="http://www.w3.org/2000/svg" xmlns:xlink="http://www.w3.org/1999/xlink" width="64.90649" height="94.50593" viewBox="0,0,64.90649,94.50593"><g transform="translate(-204.02139,-124.63772)"><g data-paper-data="{&quot;isPaintingLayer&quot;:true}" fill-rule="nonzero" stroke="none" stroke-width="0.5" stroke-linecap="butt" stroke-linejoin="miter" stroke-miterlimit="10" stroke-dasharray="" stroke-dashoffset="0" style="mix-blend-mode: normal"><path d="M216.12357,176.93755c4.44761,-3.31807 11.90262,-1.57335 16.11975,1.21943c0.82501,0.43391 1.46348,0.86706 2.23147,1.3685c0.17375,-0.00713 0.34823,-0.01135 0.52373,-0.01135h0.17977c0,0 0.59918,0 0.59918,0.59918c0,0.07336 -0.00898,0.13774 -0.02475,0.19424c0.02474,0.09368 0.02475,0.16528 0.02475,0.16528v0.17976c0,5.00115 -0.9033,9.98222 -0.9033,14.81367c-1.33816,5.37631 -6.78253,10.34864 -11.01376,13.5233c-1.60525,1.27365 -8.78214,2.29161 -9.39614,3.27496c-0.97865,1.56734 4.13264,2.62857 1.22297,5.40796c-2.335,0.43049 -11.0335,-4.85389 -11.64971,-7.21389c0,0 -0.09278,-0.37116 0.16651,-0.59446c0.02856,-0.14157 0.096,-0.24275 0.096,-0.24275l0.35952,-0.5393c0.23281,-0.3492 0.46589,-0.69818 0.69935,-1.04694c2.48611,-4.99106 6.21521,-9.72394 6.21521,-15.59149c1.26835,-5.1531 4.29148,-9.24868 4.3097,-14.7966c-0.00587,-0.04667 -0.00673,-0.09013 -0.00346,-0.13056c-0.07048,-0.34366 0.24322,-0.57895 0.24322,-0.57895z" fill="#888b44"/><g><path d="M251.72569,129.10242c-0.03357,0.00505 -0.07267,0.00213 -0.11789,-0.01321c-0.22042,-0.0748 -0.14563,-0.29523 -0.14563,-0.29523l0.16727,-0.28075c0.51418,-0.24159 0.91506,-0.29925 1.23069,-0.00776l0.08699,-0.0669l0.16745,0.2177c0.01038,0.01295 0.01954,0.02724 0.02718,0.04274c0.05687,0.1153 0.00951,0.25486 -0.10579,0.31173c-0.03507,0.0173 -0.07238,0.02495 -0.10892,0.02399l-0.21683,-0.00117c-0.27941,0.07707 -0.51648,0.14211 -0.80869,0.1427c0,0 -0.10735,-0.00058 -0.17585,-0.07385z" fill="#e2e3a2"/><path d="M253.48355,142.56871c-1.16791,1.05387 -4.82107,3.37081 -6.35277,3.09084c-1.85205,-0.33852 -3.77287,-5.23377 -4.43575,-6.73517c-0.20406,-0.46219 -1.09295,-1.65838 -0.79529,-2.09969l0.26904,-0.39888c-0.11249,-0.42324 -0.17358,-0.84012 -0.17439,-1.23541c-0.00165,-0.79768 0.31979,-1.57809 0.29122,-2.37527c-0.06436,-1.79591 0.05884,-3.7548 1.23313,-5.27755c1.16155,-1.50623 3.44909,-2.264 5.19001,-2.79497c0,0 0.08192,-0.02473 0.20805,-0.03856l0.14731,-0.05457c4.16589,-0.20593 9.1066,2.30038 10.32943,6.47859c0.12787,0.4369 0.22348,0.91838 0.27067,1.41477c-0.16974,0.11741 -0.36212,0.19903 -0.55603,0.28895c-0.7301,-0.06248 -1.47331,-0.13516 -2.16528,-0.25372c-0.02466,-0.00973 -0.04238,-0.01305 -0.04238,-0.01305c-0.17621,-0.033 -0.33818,-0.07004 -0.50196,-0.09292c-0.00989,-0.00218 -0.01974,-0.00438 -0.0296,-0.00659c0,0 -0.02557,-0.00563 -0.06145,-0.00452c-0.12039,-0.01241 -0.24333,-0.01549 -0.37506,-0.00218c-0.20359,-0.05307 -0.4161,-0.07095 -0.62731,-0.05746c-0.03356,-0.02326 -0.06281,-0.03319 -0.06281,-0.03319l-0.20823,-0.02937c-0.49525,0.13421 -0.98994,0.26103 -1.48016,0.39885c-0.05326,-0.02315 -0.10282,-0.02342 -0.10282,-0.02342l-0.14188,0.00004c-0.22755,0.0178 -0.78599,0.00171 -1.2045,0.11514c-0.08532,-0.00052 -0.16799,-0.00078 -0.2493,0.00065c-0.03699,-0.02768 -0.07136,-0.03935 -0.07136,-0.03935l-0.16628,-0.03655c-0.48111,0.03897 -0.91568,0.10369 -1.39785,0.13952c0,0 -0.23208,0.01808 -0.21399,0.25016c0.01344,0.17257 0.14521,0.20681 0.21189,0.21303c0.02496,0.03391 0.05055,0.05332 0.05055,0.05332c0.17991,0.12612 0.41365,0.21061 0.6633,0.26689c0.19862,0.17061 0.39659,0.31568 0.622,0.46101l0.08425,0.0029c0.76187,0.71911 1.84553,1.15019 2.89423,1.16315l0.14563,0.09666c0.06722,0.0464 0.15693,0.05596 0.23538,0.01726c0.02461,-0.01214 0.04612,-0.02805 0.0642,-0.04667c0.5687,0.38628 1.38408,0.81742 2.1938,1.09668c0.05001,0.04516 0.09615,0.08659 0.13769,0.1239c0.14506,0.1297 0.29303,0.25601 0.44383,0.37876c0.03746,0.05264 0.07299,0.1066 0.10706,0.16167c-0.55089,0.47352 -1.18784,0.8977 -1.86113,1.28531c-0.19,1.38771 -1.86824,3.56727 -2.51512,4.15099z" fill="#888b44"/><path d="M253.60847,133.22628c-0.0001,0.00118 -0.00018,0.00237 -0.00025,0.00356c-0.00453,-0.00003 -0.00906,-0.00004 -0.0136,-0.00007c0.00461,-0.00116 0.00923,-0.00232 0.01384,-0.00348z" fill="#888b44"/><path d="M251.50053,133.11415c-0.05687,-0.1153 -0.00951,-0.25487 0.10578,-0.31174c0.1153,-0.05687 0.25486,-0.00951 0.31173,0.10579c0.05687,0.1153 0.00952,0.25486 -0.10578,0.31174c-0.1153,0.05687 -0.25487,0.00951 -0.31174,-0.10578z" fill="#c0c649"/><path d="M252.70309,132.82652c-0.05687,-0.1153 -0.00951,-0.25487 0.10578,-0.31174c0.1153,-0.05687 0.25486,-0.00951 0.31173,0.10579c0.05687,0.1153 0.00952,0.25486 -0.10578,0.31174c-0.1153,0.05687 -0.25487,0.00951 -0.31174,-0.10578z" fill="#c0c649"/><path d="M253.2431,132.68237c-0.05687,-0.1153 -0.00951,-0.25487 0.10578,-0.31174c0.09651,-0.0476 0.21002,-0.02218 0.27781,0.05499c0.02012,-0.05323 0.05969,-0.09925 0.11475,-0.12641c0.1153,-0.05687 0.25485,-0.00952 0.31173,0.10578c0.05687,0.1153 0.00952,0.25486 -0.10578,0.31174c-0.09651,0.0476 -0.21002,0.02218 -0.27781,-0.05499c-0.02012,0.05323 -0.05969,0.09925 -0.11475,0.12641c-0.1153,0.05687 -0.25487,0.00951 -0.31174,-0.10578z" fill="#c0c649"/><path d="M254.12584,132.61359c-0.05687,-0.1153 -0.00951,-0.25486 0.10578,-0.31173c0.1013,-0.04997 0.22134,-0.01947 0.28756,0.06687c0.02083,-0.02656 0.04779,-0.04896 0.08008,-0.06489c0.1153,-0.05687 0.25486,-0.00951 0.31173,0.10579c0.05687,0.1153 0.00951,0.25486 -0.10578,0.31173c-0.1013,0.04997 -0.22134,0.01947 -0.28756,-0.06687c-0.02083,0.02656 -0.0478,0.04896 -0.08009,0.06488c-0.1153,0.05687 -0.25486,0.00951 -0.31173,-0.10578z" fill="#c0c649"/><path d="M255.35199,132.49766c-0.05687,-0.1153 -0.00951,-0.25487 0.10578,-0.31174c0.1153,-0.05687 0.25486,-0.00951 0.31173,0.10579c0.05687,0.1153 0.00951,0.25486 -0.10578,0.31173c-0.1153,0.05687 -0.25486,0.00952 -0.31174,-0.10578z" fill="#c0c649"/><path d="M256.08728,132.50162c-0.05687,-0.1153 -0.00951,-0.25486 0.10578,-0.31173c0.1153,-0.05687 0.25487,-0.00951 0.31174,0.10578c0.05687,0.1153 0.00951,0.25487 -0.10578,0.31174c-0.1153,0.05687 -0.25486,0.00951 -0.31173,-0.10579z" fill="#c0c649"/><path d="M256.7721,132.77492c-0.05687,-0.1153 -0.00951,-0.25486 0.10578,-0.31173c0.1153,-0.05687 0.25486,-0.00952 0.31174,0.10578c0.05687,0.1153 0.00951,0.25487 -0.10578,0.31174c-0.1153,0.05687 -0.25486,0.00951 -0.31173,-0.10579z" fill="#c0c649"/><path d="M257.65418,132.8287c-0.05687,-0.1153 -0.00951,-0.25487 0.10578,-0.31174c0.1153,-0.05687 0.25487,-0.00951 0.31174,0.10578c0.05687,0.1153 0.00951,0.25486 -0.10579,0.31173c-0.1153,0.05687 -0.25487,0.00951 -0.31174,-0.10578z" fill="#c0c649"/><path d="M258.26692,132.83201c-0.05687,-0.1153 -0.00951,-0.25486 0.10579,-0.31173c0.1153,-0.05687 0.25485,-0.00952 0.31173,0.10578c0.05687,0.1153 0.00952,0.25486 -0.10578,0.31174c-0.1153,0.05687 -0.25487,0.00951 -0.31174,-0.10578z" fill="#c0c649"/><path d="M258.92816,132.93362c-0.05687,-0.1153 -0.00952,-0.25486 0.10578,-0.31174c0.1153,-0.05687 0.25487,-0.00951 0.31174,0.10578c0.05687,0.1153 0.00951,0.25486 -0.10579,0.31173c-0.1153,0.05687 -0.25486,0.00951 -0.31173,-0.10578z" fill="#c0c649"/><path d="M252.32336,134.33068c-0.04288,0.22879 -0.27166,0.18591 -0.27166,0.18591l-0.26934,-0.05048c0,0 -0.22879,-0.04287 -0.18592,-0.27166c0.04288,-0.22879 0.27166,-0.18592 0.27166,-0.18592l0.26934,0.05048c0,0 0.22879,0.04287 0.18592,0.27166z" fill="#c0c649"/><path d="M252.25148,134.7604c-0.05687,-0.1153 -0.00951,-0.25486 0.10579,-0.31173c0.1153,-0.05687 0.25486,-0.00951 0.31173,0.10578c0.05687,0.1153 0.00951,0.25487 -0.10578,0.31174c-0.1153,0.05687 -0.25487,0.00951 -0.31174,-0.10578z" fill="#c0c649"/><path d="M252.96121,134.96032c-0.05687,-0.1153 -0.00951,-0.25487 0.10578,-0.31174c0.1153,-0.05687 0.25486,-0.00951 0.31173,0.10579c0.05687,0.1153 0.00951,0.25486 -0.10578,0.31173c-0.1153,0.05687 -0.25486,0.00951 -0.31173,-0.10578z" fill="#c0c649"/><path d="M253.76857,135.23428c-0.04762,-0.09654 -0.02216,-0.21012 0.05509,-0.27789c-0.0081,-0.0407 -0.00495,-0.08217 0.00804,-0.12031c0.01918,-0.05631 0.05981,-0.10532 0.11737,-0.13372c0.1153,-0.05687 0.25486,-0.00952 0.31174,0.10578c0.04762,0.09654 0.02216,0.21012 -0.05509,0.27789c0.02005,0.10079 -0.02887,0.20641 -0.12542,0.25403c-0.1153,0.05687 -0.25485,0.00952 -0.31173,-0.10578z" fill="#c0c649"/><path d="M254.50319,135.3608c-0.05687,-0.1153 -0.00951,-0.25486 0.10579,-0.31173c0.1153,-0.05687 0.25487,-0.00951 0.31174,0.10578c0.05687,0.1153 0.00951,0.25487 -0.10578,0.31174c-0.1153,0.05687 -0.25487,0.00951 -0.31174,-0.10578z" fill="#c0c649"/><path d="M255.23716,135.60986c-0.05687,-0.1153 -0.00951,-0.25487 0.10578,-0.31174c0.1153,-0.05687 0.25486,-0.00951 0.31173,0.10579c0.05687,0.1153 0.00952,0.25485 -0.10578,0.31173c-0.1153,0.05687 -0.25486,0.00952 -0.31174,-0.10578z" fill="#c0c649"/><path d="M255.79943,135.8825c-0.05687,-0.1153 -0.00952,-0.25485 0.10578,-0.31173c0.1153,-0.05687 0.25487,-0.00951 0.31174,0.10578c0.05687,0.1153 0.00951,0.25486 -0.10579,0.31173c-0.1153,0.05687 -0.25486,0.00951 -0.31173,-0.10578z" fill="#c0c649"/><path d="M256.38661,136.08176c-0.05687,-0.1153 -0.00951,-0.25487 0.10578,-0.31174c0.1153,-0.05687 0.25486,-0.00951 0.31173,0.10579c0.05687,0.1153 0.00951,0.25486 -0.10578,0.31173c-0.1153,0.05687 -0.25486,0.00952 -0.31174,-0.10578z" fill="#c0c649"/><path d="M256.94888,136.3544c-0.05687,-0.1153 -0.00951,-0.25487 0.10578,-0.31174c0.1153,-0.05687 0.25487,-0.00951 0.31174,0.10578c0.05687,0.1153 0.00951,0.25486 -0.10579,0.31173c-0.1153,0.05687 -0.25486,0.00952 -0.31174,-0.10578z" fill="#c0c649"/><path d="M257.43709,136.72468c-0.05687,-0.1153 -0.00951,-0.25487 0.10578,-0.31174c0.1153,-0.05687 0.25486,-0.00951 0.31173,0.10579c0.05687,0.1153 0.00951,0.25487 -0.10578,0.31174c-0.1153,0.05687 -0.25487,0.00951 -0.31174,-0.10578z" fill="#c0c649"/><path d="M252.01563,133.04341c-0.05687,-0.1153 -0.00951,-0.25487 0.10578,-0.31174c0.1153,-0.05687 0.25486,-0.00951 0.31173,0.10579c0.05687,0.1153 0.00951,0.25487 -0.10578,0.31174c-0.1153,0.05687 -0.25486,0.00951 -0.31173,-0.10579z" fill="#c0c649"/><path d="M248.48532,133.19595c-0.05687,-0.1153 -0.00951,-0.25487 0.10578,-0.31174c0.01368,-0.00675 0.02771,-0.01203 0.04189,-0.0159c0.09471,-0.09159 0.23418,-0.04426 0.23418,-0.04426l0.07325,0.03747c0.27143,0.00243 0.46242,0.06429 0.72315,-0.01241c0,0 0.02723,-0.00727 0.06528,-0.00728c0.0389,-0.04915 0.0884,-0.07357 0.0884,-0.07357c0.42825,-0.20122 0.86352,-0.14248 1.33038,-0.13996l-0.00593,-0.02447c0,0 0.20876,-0.10298 0.31174,0.10578c0.10298,0.20876 -0.10579,0.31173 -0.10579,0.31173l-0.20253,0.07251c-0.3617,-0.00195 -0.77234,-0.07865 -1.09836,0.07997c0.25269,0.13977 0.52123,0.24719 0.79068,0.37011c0.11457,-0.04573 0.22412,0.03736 0.22412,0.03736l0.2892,0.21934c0.02958,0.02147 0.05453,0.05026 0.07182,0.08532c0.05687,0.1153 0.00951,0.25487 -0.10578,0.31174c-0.06916,0.03412 -0.14707,0.03072 -0.21062,-0.00235l-0.24202,-0.12265c-0.48934,-0.24798 -0.97956,-0.40464 -1.41423,-0.72961c-0.16286,0.00343 -0.31605,-0.01578 -0.512,-0.01602l-0.12349,-0.03483c-0.00561,0.00338 -0.01141,0.00655 -0.01738,0.0095c-0.1153,0.05687 -0.25487,0.00951 -0.31174,-0.10578z" fill="#9a0000"/><path d="M251.57525,132.89397c-0.05687,-0.1153 -0.00952,-0.25485 0.10578,-0.31173c0.1153,-0.05687 0.25487,-0.00951 0.31174,0.10578c0.05687,0.1153 0.00951,0.25486 -0.10579,0.31173c-0.1153,0.05687 -0.25486,0.00951 -0.31173,-0.10578z" fill="#9a0000"/><path d="M252.26271,132.67708c-0.05687,-0.1153 -0.00952,-0.25486 0.10578,-0.31174c0.1153,-0.05687 0.25487,-0.00951 0.31174,0.10578c0.05687,0.1153 0.00951,0.25486 -0.10579,0.31173c-0.1153,0.05687 -0.25485,0.00952 -0.31173,-0.10578z" fill="#9a0000"/><path d="M253.56358,132.34095c-0.05687,-0.1153 -0.00951,-0.25486 0.10579,-0.31173c0.1153,-0.05687 0.25486,-0.00951 0.31173,0.10578c0.05687,0.1153 0.00951,0.25486 -0.10578,0.31173c-0.1153,0.05687 -0.25487,0.00951 -0.31174,-0.10578z" fill="#9a0000"/><path d="M254.20056,132.39341c-0.05687,-0.1153 -0.00951,-0.25486 0.10578,-0.31173c0.1153,-0.05687 0.25486,-0.00951 0.31173,0.10578c0.05687,0.1153 0.00951,0.25487 -0.10578,0.31174c-0.1153,0.05687 -0.25486,0.00951 -0.31173,-0.10579z" fill="#9a0000"/><path d="M253.08177,135.32862c-0.05687,-0.1153 -0.00951,-0.25487 0.10578,-0.31174c0.1153,-0.05687 0.25486,-0.00951 0.31173,0.10579c0.05687,0.1153 0.00951,0.25487 -0.10578,0.31174c-0.1153,0.05687 -0.25486,0.00951 -0.31173,-0.10579z" fill="#9a0000"/><path d="M253.62045,135.42956c-0.05687,-0.1153 -0.00952,-0.25485 0.10578,-0.31173c0.1153,-0.05687 0.25487,-0.00951 0.31174,0.10578c0.05687,0.1153 0.00951,0.25487 -0.10578,0.31174c-0.1153,0.05687 -0.25486,0.00951 -0.31173,-0.10579z" fill="#9a0000"/><path d="M254.25744,135.48202c-0.05687,-0.1153 -0.00952,-0.25485 0.10578,-0.31173c0.1153,-0.05687 0.25487,-0.00951 0.31174,0.10578c0.05687,0.1153 0.00951,0.25487 -0.10578,0.31174c-0.1153,0.05687 -0.25486,0.00951 -0.31173,-0.10579z" fill="#9a0000"/><path d="M257.55245,135.79127l-0.00702,0.02747l-0.16786,-0.04292c-0.02857,-0.00714 -0.05431,-0.02501 -0.07071,-0.05144c-0.21307,-0.02054 -0.40667,-0.0154 -0.59519,-0.08981c0.00274,0.04536 -0.02141,0.09006 -0.06472,0.11143c-0.04597,0.02268 -0.09966,0.01221 -0.13394,-0.0222l-0.0099,-0.00948c-0.05266,0.04142 -0.10123,0.09164 -0.1445,0.15159l-0.00318,0.0068l0.01951,0.0148l-0.00881,0.01163c0.10418,-0.02635 0.21617,0.02253 0.26563,0.12279c0.05687,0.1153 0.00951,0.25487 -0.10578,0.31174c-0.1153,0.05687 -0.25486,0.00951 -0.31173,-0.10579c-0.0311,-0.06305 -0.03103,-0.13337 -0.00573,-0.19344c-0.04389,0.00104 -0.0865,-0.02293 -0.1072,-0.06489c-0.01644,-0.03333 -0.01546,-0.07069 -0.00057,-0.1018l0.04788,-0.10227c-0.11008,-0.03881 -0.23146,-0.05294 -0.34175,-0.02798l-0.03475,0.07423c-0.01075,0.02348 -0.02935,0.04356 -0.05432,0.05587c-0.05765,0.02844 -0.12743,0.00476 -0.15587,-0.05289c-0.01644,-0.03333 -0.01546,-0.07069 -0.00057,-0.1018l0.03275,-0.06998c-0.07176,-0.09791 -0.16229,-0.1719 -0.26388,-0.15237l-0.0027,0.00133l0.00556,0.01699l-0.06199,0.0203c0.05774,0.01867 0.10816,0.05978 0.13714,0.11851c0.05687,0.1153 0.00952,0.25486 -0.10578,0.31174c-0.1153,0.05687 -0.25487,0.00951 -0.31174,-0.10578c-0.04649,-0.09425 -0.02332,-0.2047 0.04965,-0.27296c-0.04483,0.00211 -0.08878,-0.02197 -0.1099,-0.0648c-0.00063,-0.00128 -0.00123,-0.00256 -0.00181,-0.00386c-0.03502,0.00485 -0.08505,-0.00159 -0.11599,-0.06431c-0.05149,-0.10438 0.05288,-0.15587 0.05288,-0.15587c1.10666,-0.54589 1.73942,-0.87025 2.9582,-0.66693c0.8449,0.37408 1.34171,1.2134 2.19839,1.57233c0.10616,0.02903 0.21199,0.06196 0.31749,0.10058l0.00005,-0.00962l0.12409,0.00066c0.04355,-0.00068 0.08573,0.02324 0.10628,0.06491c0.02844,0.05765 0.00476,0.12743 -0.05289,0.15587c-0.01239,0.00611 -0.02535,0.00982 -0.03834,0.0113l-0.11557,0.01587l-0.0014,-0.0102l-0.0191,0.01119c-0.03815,-0.00788 -0.07557,-0.01666 -0.11228,-0.02629c-0.17461,0.04762 -0.49186,0.00399 -0.62332,-0.02199c-0.69646,-0.13766 -1.13009,-0.29911 -1.69614,-0.60892c-0.1208,-0.01617 -0.23847,-0.04256 -0.3586,-0.08935zM257.75573,135.51972c-0.01208,-0.0054 -0.02407,-0.01068 -0.03596,-0.01582l0.00463,0.00601c0.00625,0.0032 0.01247,0.00643 0.01867,0.00969c0.00419,0.00003 0.00842,0.00006 0.01266,0.00011z" fill="#9a0000"/><path d="M256.99208,137.43309c-0.05687,-0.1153 -0.00952,-0.25486 0.10578,-0.31174c0.01404,-0.00693 0.02845,-0.01231 0.04303,-0.01621c-0.00919,-0.01196 -0.01735,-0.025 -0.02428,-0.03905c-0.0305,-0.06183 -0.03102,-0.13061 -0.00718,-0.18991c-0.02411,-0.01893 -0.04481,-0.0429 -0.06034,-0.07133c-0.01099,0.00812 -0.02286,0.01538 -0.03555,0.02164c-0.00831,0.0041 -0.01676,0.00766 -0.02528,0.0107c-0.00758,0.00492 -0.01557,0.00945 -0.02388,0.01355c-0.1153,0.05687 -0.25486,0.00951 -0.31173,-0.10579c-0.01753,-0.03554 -0.02515,-0.07339 -0.02394,-0.11041c-0.03011,-0.02158 -0.0555,-0.05065 -0.07304,-0.08619c-0.05687,-0.1153 -0.00952,-0.25486 0.10578,-0.31174c0.1153,-0.05687 0.25487,-0.00951 0.31174,0.10578c0.00923,0.01871 0.01571,0.03804 0.0196,0.05757c0.05041,0.01903 0.09437,0.05549 0.12198,0.10604c0.011,-0.00812 0.02286,-0.01538 0.03555,-0.02164c0.1153,-0.05687 0.25487,-0.00951 0.31174,0.10578c0.01854,0.03759 0.026,0.07778 0.02364,0.11684c0.0787,-0.00381 0.15607,0.03273 0.20247,0.09957c0.07837,0.00685 0.15137,0.05326 0.18872,0.12897c0.05687,0.1153 0.00951,0.25486 -0.10579,0.31173c-0.02193,0.01082 -0.04472,0.01787 -0.06767,0.02139c-0.00381,0.0819 -0.05086,0.15931 -0.1296,0.19815c-0.06183,0.0305 -0.13062,0.03101 -0.18991,0.00717c-0.02084,0.02656 -0.0478,0.04897 -0.08009,0.0649c-0.1153,0.05687 -0.25486,0.00951 -0.31173,-0.10578z" fill="#9a0000"/><path d="M258.69251,132.30141c0.1153,-0.05687 0.25487,-0.00951 0.31174,0.10578c0.05687,0.1153 0.00951,0.25487 -0.10578,0.31174c-0.09062,0.0447 -0.19621,0.02501 -0.26488,-0.04143c0.01092,0.09492 -0.03772,0.19069 -0.12833,0.23539c-0.1153,0.05687 -0.25487,0.00951 -0.31174,-0.10578c-0.05687,-0.1153 -0.00951,-0.25487 0.10578,-0.31174c0.09062,-0.0447 0.19621,-0.02501 0.26488,0.04143c-0.01092,-0.09492 0.03771,-0.19069 0.12833,-0.23539z" fill="#9a0000"/><path d="M259.28102,132.25556c0.1153,-0.05687 0.25486,-0.00951 0.31173,0.10579c0.04998,0.10131 0.01947,0.22137 -0.06689,0.28758c-0.02062,0.05127 -0.05948,0.09542 -0.11294,0.12179c-0.1153,0.05687 -0.25486,0.00951 -0.31173,-0.10579c-0.0041,-0.00831 -0.00766,-0.01676 -0.01069,-0.02528c-0.00492,-0.00758 -0.00946,-0.01556 -0.01356,-0.02387c-0.05687,-0.1153 -0.00951,-0.25487 0.10578,-0.31174c0.01693,-0.00835 0.03438,-0.01445 0.05202,-0.01842c0.01389,-0.01158 0.02935,-0.02172 0.04628,-0.03007z" fill="#9a0000"/><path d="M252.10566,128.75584c-0.21402,0.10849 -0.4581,0.20646 -0.54027,0.24699l-0.24576,0.12123v0c-0.1153,0.05687 -0.25486,0.00951 -0.31173,-0.10579c-0.04111,-0.08334 -0.02776,-0.17936 0.02634,-0.24765l0.05097,-0.06719c0.01359,-0.05846 0.04494,-0.09982 0.04494,-0.09982c0.09603,-0.12552 0.40965,-0.40345 0.71255,-0.57343c0.03901,-0.06913 0.10854,-0.10344 0.10854,-0.10344l0.13405,-0.04756c0.46297,-0.0174 0.63963,0.10192 0.63518,0.2547c0.02279,0.01973 0.0421,0.04425 0.05628,0.07299c0.04111,0.08334 0.02775,0.17935 -0.02634,0.24765l-0.14506,0.19127l-0.12412,-0.09414c-0.11353,0.08682 -0.24334,0.15577 -0.37556,0.20421z" fill="#99926f"/><path d="M252.58733,128.10348c-0.67888,-0.29569 -1.19411,0.48221 -1.58362,0.99221c0.25691,-0.08191 0.51453,-0.16233 0.77574,-0.23576c0.43957,-0.14373 0.77188,-0.39315 1.11215,-0.64439c-0.08467,-0.01117 -0.16431,-0.0562 -0.30427,-0.11206zM250.72778,129.07066c0.47927,-0.59251 1.07712,-1.5608 1.95417,-1.17986c0.13051,0.06374 0.30458,0.0923 0.43484,0.02805l0.05429,-0.02678c0,0 0.08584,-0.04234 0.14022,0.02762c0.19343,-0.12507 0.40202,-0.239 0.64291,-0.32633l0.07364,-0.02668c0,0 0.10943,-0.03965 0.14907,0.06977c0.03964,0.10943 -0.06978,0.14907 -0.06978,0.14907l-0.07364,0.02668c-0.88214,0.31942 -1.32311,0.98752 -2.18646,1.27047c-0.72538,0.2021 -1.41951,0.4594 -2.15013,0.65478c0,0 -0.11245,0.03001 -0.14247,-0.08244c-0.03001,-0.11245 0.08243,-0.14246 0.08243,-0.14246c0.36316,-0.09676 0.71798,-0.20905 1.07204,-0.32247c-0.02845,-0.06095 0.01885,-0.11943 0.01885,-0.11943z" fill="#9a0000"/></g><g><path d="M257.0005,153.33146c0.16467,0.088 0.22682,0.29282 0.13882,0.45749c-0.03665,0.06857 -0.09355,0.11936 -0.15938,0.14894c0.04593,0.15708 0.09336,0.31626 0.14247,0.47765c1.2953,4.26877 0.49777,8.80943 1.75454,12.97635c0.23677,4.44974 0.02692,8.53075 -0.76173,12.89636c-0.74171,2.95984 -2.26644,5.72304 -3.50614,8.50754c-0.46275,1.03939 -1.39162,2.83494 -0.86838,3.92688c-0.91473,1.62693 1.39208,4.39912 1.4803,6.2049c0.1192,2.44008 -2.03692,3.68262 -3.56158,5.03124c-4.19102,-0.03295 -7.17488,1.58141 -11.07089,-1.53726c-2.59794,-1.5795 -8.32922,-4.06563 -9.33907,-7.01006c-2.49685,-3.65211 -5.46241,-5.35592 -9.27608,-7.39396c-4.49912,-2.4248 -7.21282,-4.53102 -8.22965,-9.80033c-0.04447,-0.89277 0.00057,-1.88874 0.11652,-2.93348c-0.00108,-0.00056 -0.00216,-0.00113 -0.00323,-0.0017c-0.16467,-0.088 -0.22682,-0.29282 -0.13882,-0.45749c0.04743,-0.08874 0.12877,-0.14772 0.21949,-0.16945c0.00312,-0.02312 0.00628,-0.04627 0.00947,-0.06942c-0.06753,0.00886 -0.13837,-0.00255 -0.20302,-0.0371c-0.16467,-0.088 -0.22682,-0.29282 -0.13882,-0.45749c0.0845,-0.15813 0.27674,-0.22171 0.43769,-0.1486c0.02667,-0.16652 0.05486,-0.33364 0.08447,-0.50118c-0.03708,-0.0056 -0.07386,-0.01752 -0.10883,-0.03621c-0.16467,-0.088 -0.22682,-0.29282 -0.13882,-0.45749c0.07327,-0.1371 0.22752,-0.20314 0.37215,-0.17061c0.02318,-0.11712 0.047,-0.23431 0.07146,-0.3515c-0.06985,0.01082 -0.14368,-0.0001 -0.21082,-0.03598c-0.16467,-0.088 -0.22682,-0.29282 -0.13882,-0.45749c0.088,-0.16467 0.29282,-0.22682 0.45749,-0.13882c0.00919,0.00491 0.01806,0.01019 0.0266,0.01579c0.03636,-0.15991 0.07382,-0.3196 0.11232,-0.47891c-0.08671,0.03104 -0.18572,0.02672 -0.27335,-0.02011c-0.16467,-0.088 -0.22682,-0.29282 -0.13882,-0.45749c0.088,-0.16467 0.29282,-0.22682 0.45749,-0.13882c0.03516,0.01879 0.06565,0.04291 0.091,0.07083c0.02046,-0.0793 0.04116,-0.15845 0.06211,-0.23743c-0.01766,-0.00593 -0.03506,-0.01341 -0.05205,-0.02248c-0.16467,-0.088 -0.22682,-0.29282 -0.13882,-0.45749c0.07289,-0.1364 0.22597,-0.20247 0.36996,-0.1711c0.0582,-0.20419 0.11792,-0.40682 0.17897,-0.60747c-0.06026,-0.09885 -0.06813,-0.2261 -0.00962,-0.33559c0.03698,-0.0692 0.09459,-0.12029 0.16118,-0.14975c0.02439,-0.07615 0.04899,-0.15196 0.07375,-0.2274c-0.0637,0.00594 -0.12981,-0.00609 -0.19045,-0.0385c-0.16467,-0.088 -0.22681,-0.29282 -0.13881,-0.45749c0.088,-0.16467 0.29282,-0.22682 0.45749,-0.13882c0.02593,0.01386 0.04932,0.03061 0.06997,0.04964c0.06055,-0.17325 0.12197,-0.34412 0.18418,-0.51234c-0.03425,-0.00606 -0.06812,-0.01755 -0.10046,-0.03483c-0.16467,-0.088 -0.22682,-0.29282 -0.13882,-0.45749c0.088,-0.16467 0.29282,-0.22682 0.45749,-0.13882c0.00663,0.00355 0.0131,0.00728 0.0194,0.0112c0.02062,-0.05188 0.0413,-0.10346 0.06205,-0.1547c-0.00125,-0.00064 -0.00248,-0.00129 -0.00372,-0.00195c-0.16467,-0.088 -0.22682,-0.29282 -0.13882,-0.45749c0.07872,-0.1473 0.25092,-0.21258 0.40423,-0.16172c0.05697,-0.12985 0.11431,-0.25707 0.17194,-0.38144c-0.0039,-0.0019 -0.00777,-0.00387 -0.01163,-0.00593c-0.16467,-0.088 -0.22682,-0.29282 -0.13882,-0.45749c0.06313,-0.11813 0.18639,-0.1835 0.31181,-0.17853c0.01743,-0.07043 0.03584,-0.14137 0.0552,-0.21282c-0.04546,-0.09399 -0.0469,-0.20767 0.00608,-0.30679c0.00959,-0.01794 0.02056,-0.03467 0.03272,-0.05012c-0.14128,-0.09587 -0.19025,-0.28491 -0.10798,-0.43886c0.07388,-0.13826 0.23014,-0.20425 0.37582,-0.16977c0.03705,-0.1029 0.07563,-0.20651 0.11566,-0.31075c-0.03824,-0.00538 -0.0762,-0.01745 -0.11223,-0.0367c-0.16467,-0.088 -0.22682,-0.29282 -0.13882,-0.45749c0.07559,-0.14145 0.23739,-0.20726 0.38589,-0.16721c-0.08608,-0.10264 -0.10612,-0.25132 -0.03912,-0.3767c0.06544,-0.12244 0.19545,-0.1882 0.32553,-0.1777c-0.05328,-0.09683 -0.05806,-0.21784 -0.00208,-0.32259c0.0671,-0.12556 0.20213,-0.19152 0.33549,-0.17675c0.1011,-0.20651 0.20594,-0.41395 0.31399,-0.62183c-0.10626,-0.10227 -0.13647,-0.26635 -0.06353,-0.40284c0.07279,-0.1362 0.2255,-0.20227 0.3693,-0.17124c0.0612,-0.11229 0.1232,-0.22457 0.18591,-0.33678c-0.00459,-0.06173 0.0077,-0.12547 0.03904,-0.18411c0.03404,-0.0637 0.08557,-0.11206 0.14549,-0.14232c0.11644,-0.20371 0.23498,-0.40693 0.35513,-0.60922c-0.16243,-0.08887 -0.22331,-0.29221 -0.13584,-0.45588c0.088,-0.16467 0.29282,-0.22682 0.45749,-0.13882c0.00953,0.0051 0.01873,0.01058 0.02757,0.01644c0.05563,-0.09066 0.1115,-0.18105 0.16755,-0.27111c-0.13432,-0.09768 -0.17948,-0.28191 -0.09898,-0.43255c0.088,-0.16467 0.29282,-0.22682 0.45749,-0.13882c0.00055,0.00029 0.00109,0.00059 0.00164,0.00088c0.09267,-0.14479 0.18558,-0.28846 0.27853,-0.43086c-0.16135,-0.08928 -0.2216,-0.2919 -0.1344,-0.45508c0.088,-0.16467 0.29282,-0.22682 0.45749,-0.13882c0.01733,0.00926 0.03353,0.01982 0.04853,0.03148c0.04609,-0.06894 0.09213,-0.13749 0.13808,-0.20564c-0.03739,-0.09028 -0.03554,-0.19598 0.01411,-0.28888c0.06184,-0.11572 0.18138,-0.18081 0.30412,-0.17874c0.20537,-0.29904 0.40794,-0.58884 0.60542,-0.86734c-0.02217,-0.00645 -0.04402,-0.01528 -0.06519,-0.0266c-0.16467,-0.088 -0.22682,-0.29282 -0.13882,-0.45749c0.088,-0.16467 0.29282,-0.22682 0.45749,-0.13882c0.04854,0.02595 0.08818,0.06204 0.11768,0.10426c0.11169,-0.15467 0.22114,-0.30497 0.32788,-0.4505c-0.09165,-0.10281 -0.11445,-0.25583 -0.04576,-0.38438c0.08468,-0.15845 0.27751,-0.22197 0.43867,-0.14815c0.0819,-0.11188 0.16359,-0.22501 0.24515,-0.33926c-0.01081,-0.00441 -0.02148,-0.00941 -0.032,-0.01503c-0.16467,-0.088 -0.22682,-0.29282 -0.13882,-0.45749c0.088,-0.16467 0.29282,-0.22682 0.45749,-0.13882c0.02015,0.01077 0.03878,0.02329 0.05578,0.03727c-0.08309,-0.10247 -0.10168,-0.24877 -0.0356,-0.37242c0.08647,-0.1618 0.28573,-0.22462 0.44886,-0.14327c0.17969,-0.26495 0.35965,-0.53337 0.54057,-0.80376c-0.06409,0.00623 -0.13066,-0.00576 -0.19171,-0.03839c-0.16467,-0.088 -0.22681,-0.29282 -0.13881,-0.45749c0.088,-0.16467 0.29282,-0.22681 0.45749,-0.13881c0.00814,0.00435 0.01602,0.00898 0.02365,0.01388c-0.03454,-0.08875 -0.03156,-0.19149 0.01685,-0.28207c0.088,-0.16467 0.29282,-0.22682 0.45749,-0.13882c0.01832,0.00978 0.03535,0.02101 0.05106,0.03347c0.08956,-0.13271 0.17956,-0.26546 0.27006,-0.3981c-0.10968,-0.10196 -0.14167,-0.26856 -0.06777,-0.40685c0.08622,-0.16133 0.28457,-0.22426 0.44744,-0.14398c0.03172,-0.04549 0.06351,-0.09095 0.09538,-0.13636c-0.00254,-0.00128 -0.00508,-0.0026 -0.0076,-0.00395c-0.16467,-0.088 -0.22682,-0.29282 -0.13882,-0.45749c0.088,-0.16467 0.29282,-0.22682 0.45749,-0.13882c0.0288,0.01539 0.05445,0.03435 0.07672,0.05604c0.06819,-0.09414 0.13676,-0.18795 0.20575,-0.28136c-0.04307,-0.09297 -0.04351,-0.20433 0.00851,-0.30166c0.06955,-0.13013 0.21205,-0.19625 0.35003,-0.17482c0.14874,-0.19382 0.29955,-0.3854 0.45274,-0.57417c-0.02931,-0.08564 -0.02437,-0.18277 0.02166,-0.2689c0.06918,-0.12944 0.21053,-0.19553 0.34783,-0.17514c0.10726,-0.12557 0.21572,-0.24962 0.32546,-0.37193c-0.16329,-0.08854 -0.22465,-0.29244 -0.13698,-0.45649c0.088,-0.16467 0.29282,-0.22682 0.45749,-0.13882c0.05291,0.02828 0.09524,0.06861 0.12539,0.1158c0.05143,-0.05328 0.10316,-0.10616 0.15517,-0.1586c-0.09017,-0.10279 -0.11225,-0.25465 -0.04399,-0.38237c0.088,-0.16467 0.29282,-0.22682 0.45749,-0.13882c0.02704,0.01445 0.05131,0.03205 0.07261,0.0521c0.00907,-0.00836 0.01816,-0.01672 0.02725,-0.02505c-0.02205,-0.08047 -0.01453,-0.16921 0.0279,-0.24861c0.08305,-0.15541 0.27017,-0.21951 0.42937,-0.15224c0.04663,-0.03901 0.0935,-0.07763 0.14061,-0.11589c-0.01174,-0.00467 -0.02335,-0.01005 -0.03475,-0.01614c-0.16467,-0.088 -0.22682,-0.29282 -0.13882,-0.45749c0.088,-0.16467 0.29282,-0.22682 0.45749,-0.13882c0.10083,0.05389 0.16322,0.15157 0.17624,0.25701c0.16634,-0.12196 0.33571,-0.23915 0.50833,-0.35116c-0.02846,-0.08508 -0.02319,-0.18125 0.02243,-0.26663c0.088,-0.16467 0.29282,-0.22682 0.45749,-0.13882c0.03245,0.01734 0.06092,0.03922 0.08505,0.06444c0.15733,-0.08794 0.31729,-0.17159 0.48002,-0.25067c0.05555,-0.03678 0.11147,-0.07348 0.16773,-0.11008c-0.02686,-0.084 -0.02102,-0.17837 0.02384,-0.2623c0.088,-0.16467 0.29282,-0.22682 0.45749,-0.13882c0.02632,0.01406 0.05002,0.0311 0.0709,0.0505c0.0428,-0.02657 0.08575,-0.05311 0.12885,-0.07963c-0.00573,-0.06339 0.00637,-0.1291 0.0386,-0.18942c0.088,-0.16467 0.29282,-0.22681 0.45749,-0.13881c0.00795,0.00425 0.01566,0.00877 0.02312,0.01354c0.11318,-0.06768 0.22714,-0.13531 0.34177,-0.20297c-0.0144,-0.07368 -0.00446,-0.1526 0.03368,-0.22397c0.088,-0.16467 0.29282,-0.22682 0.45749,-0.13882c0.02155,0.01152 0.04133,0.02502 0.05926,0.04019c0.24954,-0.14549 0.50125,-0.29154 0.75396,-0.43881c-0.01439,-0.07368 -0.00445,-0.15258 0.03369,-0.22395c0.088,-0.16467 0.29282,-0.22682 0.45749,-0.13882c0.02163,0.01156 0.04148,0.02513 0.05946,0.04036c0.203,-0.11961 0.40609,-0.24027 0.60864,-0.36235c-0.06874,-0.1007 -0.08049,-0.23525 -0.01905,-0.35022c0.088,-0.16467 0.29282,-0.22681 0.45749,-0.13881c0.06052,0.03234 0.10719,0.08046 0.13765,0.13655c0.13234,-0.08234 0.26419,-0.16541 0.39539,-0.24932c-0.03142,-0.08695 -0.02726,-0.18637 0.01975,-0.27433c0.088,-0.16467 0.29282,-0.22681 0.45749,-0.13881c0.02739,0.01463 0.05193,0.03249 0.07343,0.05286c0.13155,-0.08817 0.26216,-0.17736 0.39165,-0.26765c-0.02695,-0.08408 -0.02114,-0.17855 0.02376,-0.26257c0.088,-0.16467 0.29282,-0.22682 0.45749,-0.13882c0.01456,0.00778 0.02832,0.01647 0.04124,0.02597c0.22322,-0.16551 0.44212,-0.33492 0.65569,-0.50878c-0.02909,-0.00654 -0.05778,-0.01707 -0.08535,-0.0318c-0.16467,-0.088 -0.22682,-0.29282 -0.13882,-0.45749c0.088,-0.16467 0.29282,-0.22682 0.45749,-0.13882c0.10853,0.058 0.17253,0.16676 0.17835,0.28132c0.23689,-0.20674 0.46586,-0.41984 0.68533,-0.64012c-0.03174,-0.00635 -0.06309,-0.0174 -0.09311,-0.03345c-0.16467,-0.088 -0.22682,-0.29282 -0.13882,-0.45749c0.088,-0.16467 0.29282,-0.22682 0.45749,-0.13882c0.08724,0.04662 0.14571,0.12604 0.16832,0.21489c0.22846,-0.25298 0.44422,-0.51533 0.64519,-0.78817c-0.10048,0.06764 -0.2341,0.07889 -0.34838,0.01782c-0.16467,-0.088 -0.22682,-0.29282 -0.13882,-0.45749c0.088,-0.16467 0.29282,-0.22682 0.45749,-0.13882c0.14193,0.07585 0.20771,0.2385 0.1668,0.38741c0.08718,-0.1248 0.17127,-0.25176 0.25208,-0.38101c0.33205,-0.01952 0.66565,-0.07192 0.98304,-0.17147l0.24956,-0.07573c0,0 0.3235,-0.09815 0.42166,0.22534c0.00509,0.01676 0.00904,0.03292 0.01196,0.04849c0.14921,-0.07462 0.31181,0.01228 0.31181,0.01228c3.16447,1.6911 5.68284,4.42184 8.62883,6.27493c3.32862,3.54995 3.56669,6.24056 4.72351,10.39554c0.06784,-0.00912 0.13908,0.00223 0.20406,0.03696zM224.7289,151.24953c-0.006,-0.00336 -0.01185,-0.00688 -0.01757,-0.01055c0.00311,0.00797 0.00591,0.01606 0.0084,0.02425c0.00305,-0.00457 0.00612,-0.00913 0.00917,-0.0137z" fill="#888b44"/><path d="M231.82201,195.64425c-0.24544,0.23247 -0.47791,-0.01297 -0.47791,-0.01297l-0.26257,-0.29454c-0.85444,-1.59422 -1.93366,-3.00331 -2.70147,-4.64915c-0.7918,-2.59113 -1.7535,-5.4826 -2.25994,-8.15763c0,0 -0.06183,-0.33236 0.27053,-0.39419c0.33236,-0.06184 0.39419,0.27052 0.39419,0.27052c0.47998,2.63188 1.45925,5.49032 2.22667,8.03963c0.75319,1.61449 1.82563,3.00357 2.66595,4.57144l0.15753,0.14899c0,0 0.23246,0.24544 -0.01298,0.47791z" fill="#6f7238"/><path d="M251.86364,203.36757c-0.10558,-0.05642 -0.15381,-0.13026 -0.17203,-0.2021c-0.89168,-0.48223 -1.67203,-0.94819 -2.43954,-1.64306c0,0 -0.25061,-0.2269 -0.02372,-0.4775c0.22689,-0.25061 0.4775,-0.02372 0.4775,-0.02372c0.78916,0.71447 1.58417,1.16371 2.52198,1.66488l0.0933,0.54268c0,0 -0.15933,0.29815 -0.45749,0.13882z" fill="#6f7238"/><path d="M254.05713,189.42592c-0.27456,-0.14673 -0.16117,-0.41118 -0.14151,-0.45211c-0.0643,-0.65939 -0.1286,-1.31879 -0.19291,-1.97818c-0.26677,-2.78666 -3.0383,-5.54322 -5.2685,-7.14792c-1.9519,-2.28061 -3.69829,-3.935 -6.3508,-5.35252c0,0 -0.29816,-0.15933 -0.13882,-0.45749c0.15933,-0.29816 0.45749,-0.13882 0.45749,-0.13882c2.69168,1.43845 4.5282,3.12582 6.49274,5.45387c2.37387,1.77041 5.18105,4.56564 5.48082,7.57726c0.06761,0.69325 0.1352,1.3865 0.20281,2.07976l-0.08383,0.27733c0,0 -0.15933,0.29816 -0.45749,0.13882z" fill="#6f7238"/><path d="M257.85528,157.72261c0.07693,-0.05133 0.18853,-0.08106 0.33251,-0.00412c0.29816,0.15933 0.13882,0.45749 0.13882,0.45749l-0.42595,0.25375c-3.06304,-0.81607 -5.30509,-1.93852 -8.22891,-3.51282c-2.15519,-1.95122 -4.93675,-2.45126 -6.69101,-4.92756c0,0 -0.19543,-0.27585 0.08043,-0.47127c0.27586,-0.19542 0.47128,0.08043 0.47128,0.08043c1.69351,2.39054 4.43752,2.87245 6.52845,4.7655c2.79418,1.48117 4.8932,2.6342 7.79439,3.35861z" fill="#6f7238"/><path d="M257.15442,160.38282c0.19542,0.27586 -0.08043,0.47127 -0.08043,0.47127l-0.38084,0.18694c-2.52348,-0.07253 -4.8767,-1.90854 -7.07308,-3.08229c-2.47619,-1.32338 -6.41806,-2.96139 -8.09618,-5.24327c0,0 -0.19543,-0.27586 0.08043,-0.47128c0.27586,-0.19542 0.47127,0.08043 0.47127,0.08043c1.45251,2.16543 5.59441,3.8253 7.86316,5.03781c2.0834,1.11337 4.38233,2.94127 6.77274,3.00272l-0.02835,-0.06277c0,0 0.27585,-0.19543 0.47127,0.08043z" fill="#6f7238"/><path d="M254.31654,164.51845c0.07674,-0.06238 0.19779,-0.11094 0.35985,-0.02433c0.29816,0.15933 0.13882,0.45749 0.13882,0.45749l-0.38088,0.26186c-2.75782,-0.30539 -4.50313,-1.50539 -6.96087,-2.81634c-2.87658,-1.54906 -5.34681,-3.73352 -8.2401,-5.27971c0,0 -0.29815,-0.15933 -0.13882,-0.45749c0.15933,-0.29816 0.45749,-0.13882 0.45749,-0.13882c2.89144,1.5452 5.35678,3.75238 8.2401,5.2797c2.32614,1.24533 3.97654,2.38933 6.52441,2.71763z" fill="#6f7238"/><path d="M252.15728,168.53939c0.07494,-0.06958 0.20282,-0.13564 0.37936,-0.04129c0.29816,0.15933 0.13882,0.45749 0.13882,0.45749l-0.35285,0.26379c-2.36998,-0.07456 -4.44139,-0.14652 -6.59812,-1.29518c-2.56579,-1.37121 -7.70192,-3.41403 -8.29861,-6.55004c0,0 -0.06184,-0.33236 0.27052,-0.39419c0.33236,-0.06184 0.39419,0.27052 0.39419,0.27052c0.51281,2.82972 5.64122,4.84218 7.95258,6.07741c1.99081,1.06781 3.93052,1.16137 6.11411,1.2115z" fill="#6f7238"/><path d="M249.21185,176.35911c-0.29816,-0.15933 -0.13882,-0.45749 -0.13882,-0.45749l0.09307,-0.15275c1.22664,-1.34985 2.90179,-2.61903 4.7072,-3.04476c0.75759,-0.17864 2.31465,-0.14897 2.65786,-0.92136c0,0 0.15933,-0.29816 0.45749,-0.13882c0.29816,0.15933 0.13882,0.45749 0.13882,0.45749c-1.05007,1.78077 -5.67265,2.11865 -7.46016,4.10123l0.00202,0.01764c0,0 -0.15933,0.29816 -0.45749,0.13882z" fill="#6f7238"/><path d="M228.4514,161.10284c-0.29816,-0.15933 -0.13882,-0.45749 -0.13882,-0.45749l0.04552,-0.08519c1.15312,-2.08919 2.85625,-4.70972 4.40732,-6.55304c1.85341,-0.93318 3.34186,-5.48828 4.30895,-7.29793c0,0 0.15933,-0.29816 0.45749,-0.13882c0.29816,0.15933 0.13882,0.45749 0.13882,0.45749c-1.063,1.98912 -2.48625,6.38028 -4.4763,7.50187c-1.42857,1.79194 -3.21703,4.34462 -4.23998,6.34911l-0.04552,0.08519c0,0 -0.15933,0.29815 -0.45749,0.13882z" fill="#6f7238"/><path d="M218.54088,179.62595c-0.23247,-0.24544 0.01298,-0.47791 0.01298,-0.47791l0.20363,-0.19149c2.47963,-2.73748 3.67393,-5.66658 5.38047,-8.85993c1.4174,-2.6523 2.10421,-5.57701 3.50691,-8.2018c0,0 0.15933,-0.29815 0.45749,-0.13882c0.29816,0.15933 0.13882,0.45749 0.13882,0.45749c-1.40118,2.62196 -2.08981,5.55004 -3.50692,8.2018c-1.72994,3.23715 -2.96278,6.21829 -5.47555,8.99504l-0.23991,0.2286c0,0 -0.24544,0.23247 -0.47791,-0.01297z" fill="#6f7238"/><path d="M242.99185,144.76601c-0.23247,-0.24544 0.01297,-0.47791 0.01297,-0.47791l0.30563,-0.27307c1.30523,-0.69955 4.37096,-1.08495 5.18485,-2.05441c0,0 0.22689,-0.25061 0.4775,-0.02372c0.25061,0.22689 0.02372,0.4775 0.02372,0.4775c-1.08059,1.13717 -3.8557,1.38673 -5.36667,2.19655l-0.16009,0.16804c0,0 -0.24544,0.23247 -0.47791,-0.01297z" fill="#6f7238"/></g><g fill="#979b4c"><g><path d="M264.27898,148.13288c-0.01664,0.03485 -0.04047,0.06617 -0.07019,0.09159l0.12546,-0.06425c-0.01939,-0.00705 -0.03794,-0.01622 -0.05528,-0.02733zM264.10459,148.28028c-0.13845,0.03947 -0.28232,-0.03352 -0.33409,-0.16466c-0.03497,0.0453 -0.08421,0.08022 -0.14347,0.09711c-0.14739,0.04202 -0.30093,-0.04341 -0.34294,-0.1908l-0.1074,-0.37676l0.16344,-0.04659c-0.0098,-0.09927 -0.00657,-0.19237 0.00714,-0.27764c-0.04142,-0.00063 -0.0879,-0.01228 -0.13921,-0.04082c-0.24249,-0.13491 -0.10759,-0.37741 -0.10759,-0.37741c0.01119,-0.02007 0.02216,-0.03996 0.03288,-0.0597c-0.72434,-0.1265 -1.35744,0.21997 -2.14201,0.07914c0,0 -0.08062,-0.01517 -0.14596,-0.07285c-2.24162,-0.70437 -4.42697,0.08621 -6.62522,0.71285c-2.49704,0.7118 -4.73565,1.78279 -7.25187,2.50006c0,0 -0.26687,0.07608 -0.34294,-0.1908c-0.07608,-0.26687 0.19079,-0.34294 0.19079,-0.34294c2.51634,-0.71731 4.75269,-1.78765 7.25187,-2.50008c2.38668,-0.68034 4.62934,-1.41904 7.06849,-0.66791l0.14952,0.02595c0,0 0.03367,0.00633 0.07513,0.02639c0.706,0.05186 1.29803,-0.23367 2.01023,-0.08213c0.25213,-0.68499 0.12235,-1.19519 -0.41634,-1.93554l-0.09168,-0.134c0,0 -0.15657,-0.22912 0.07255,-0.38568c0.22912,-0.15656 0.38568,0.07256 0.38568,0.07256l0.08306,0.12174c0.19469,0.2707 0.34484,0.52218 0.45099,0.76511c0.59855,-0.4175 1.20484,-0.79249 1.79864,-1.22251l0.13683,-0.12777c0,0 0.20467,-0.18739 0.39206,0.01728c0.18739,0.20467 -0.01728,0.39206 -0.01728,0.39206l-0.18623,0.16803c-0.30215,0.21854 -0.60802,0.42327 -0.91443,0.62672c0.14313,0.09802 0.27659,0.19771 0.40018,0.2986c0.37947,-0.40347 0.90872,-0.67696 1.4355,-0.83106c0,0 0.26687,-0.07608 0.34295,0.1908c0.07608,0.26687 -0.1908,0.34295 -0.1908,0.34295c-0.41307,0.11387 -0.87802,0.33945 -1.18301,0.66778c0.11591,0.12024 0.21811,0.2414 0.30631,0.36277c0.44692,-0.24649 0.93031,-0.45079 1.41009,-0.5885l0.29021,-0.05609c0,0 0.27267,-0.0516 0.32427,0.22107c0.0516,0.27267 -0.22106,0.32426 -0.22106,0.32426l-0.24127,0.0445c-0.43592,0.12331 -0.87898,0.31019 -1.28671,0.53521c0.05278,0.12569 0.08995,0.2506 0.11119,0.37394c0.57597,-0.14807 1.14932,-0.25831 1.74791,-0.32446l0.2603,-0.07519c0,0 0.26687,-0.07608 0.34295,0.1908c0.07608,0.26687 -0.1908,0.34294 -0.1908,0.34294l-0.30485,0.08592c-0.6448,0.07438 -1.25727,0.19343 -1.87822,0.35999c-0.09937,0.37343 -0.3688,0.71745 -0.81931,1.00577c0.02426,0.03994 0.03382,0.07351 0.03382,0.07351c0.25833,0.90622 0.55926,1.83566 0.28679,2.77205l-0.00031,0.00231c0.14474,0.22427 -0.07846,0.37678 -0.07846,0.37678l-0.18655,0.12409c-2.51821,2.25546 -4.21449,3.02957 -7.68715,3.73688c-2.3039,0.46834 -6.42649,2.76768 -8.67878,2.12238c0,0 -0.26425,-0.08473 -0.17951,-0.34898c0.08473,-0.26425 0.34898,-0.17952 0.34898,-0.17952c1.82045,0.69446 6.45044,-1.74021 8.39855,-2.13772c3.3681,-0.68599 5.02236,-1.3661 7.42314,-3.60238l0.09173,-0.06392c-0.00939,-0.05905 -0.00046,-0.10651 -0.00046,-0.10651l0.01685,-0.0816c0.24524,-0.80323 -0.05518,-1.64949 -0.27884,-2.42781c-0.20452,0.08998 -0.43299,0.17162 -0.68591,0.24372l-0.14242,0.08465c0,0 -0.24401,0.13216 -0.37616,-0.11186c-0.10404,-0.19209 0.02505,-0.31487 0.08468,-0.35842c-0.00214,0.00067 -0.00429,0.00132 -0.00646,0.00194zM264.23749,147.00626c-0.00563,0.02362 -0.01121,0.04758 -0.01672,0.0719c0.00182,0.00347 0.00363,0.00698 0.00545,0.01052c0.00397,-0.02791 0.00771,-0.05537 0.01128,-0.08242z"/><path d="M247.29707,149.38857c0,0 0.21953,-0.16975 0.38928,0.04978c0.16975,0.21953 -0.04979,0.38927 -0.04979,0.38927c-0.23301,0.17095 -0.26497,0.26175 -0.31031,0.51284c0.7558,1.96017 1.34336,4.01466 1.91853,6.011c0.03444,0.12082 0.06889,0.24166 0.10333,0.36248c0.1087,0.02598 0.22541,0.02239 0.35391,-0.02388l0.15013,-0.0428c0,0 0.26687,-0.07608 0.34294,0.1908c0.07608,0.26687 -0.1908,0.34295 -0.1908,0.34295l-0.15012,0.04279c-0.12909,0.03121 -0.24704,0.04596 -0.35652,0.04649c-0.13764,0.19264 -0.35486,0.07179 -0.35486,0.07179l-0.26057,-0.23798c-0.00063,-0.0022 -0.00126,-0.0044 -0.00188,-0.00661c-0.04797,-0.02834 -0.09507,-0.05965 -0.1418,-0.09351c-0.76587,-0.01375 -1.50008,-0.5458 -2.10714,-0.97791c-1.12819,-0.91021 -1.67319,-3.00146 -1.40601,-4.43579c0.14028,-0.75309 1.05896,-1.00795 1.18234,-1.7552c0,0 0.04498,-0.23909 0.27457,-0.22743c0.01311,-0.00747 0.02747,-0.01446 0.04319,-0.02089c0.14964,-0.06122 0.24776,0.00041 0.30361,0.06252c0.0679,-0.08615 0.15434,-0.16971 0.26798,-0.26069z"/></g><path d="M246.75899,150.09851c2.70929,-2.73484 17.34119,-6.42021 18.90946,-0.91865c1.40656,4.93428 -12.9036,8.11085 -16.07551,8.24077c-1.56134,0.06395 -3.805,-1.60065 -2.71512,-3.32675c-0.36347,-0.33444 -0.64222,-0.7701 -0.78754,-1.27989c-0.24757,-0.86847 -0.05265,-1.75831 0.45076,-2.42876c0.05949,-0.10296 0.13113,-0.1991 0.21795,-0.28674z"/><path d="M248.83528,151.41552c0.18739,0.20467 -0.01728,0.39206 -0.01728,0.39206l-0.28296,0.21933c-0.96679,0.27559 -2.26912,0.55064 -3.25739,0.29226c0,0 -0.26798,-0.07207 -0.19591,-0.34004c0.07207,-0.26797 0.34005,-0.19591 0.34005,-0.19591c0.87905,0.24483 2.09927,-0.04438 2.9611,-0.29005l0.06031,-0.09494c0,0 0.20467,-0.18739 0.39206,0.01728z"/><path d="M249.95533,149.55624c0.08114,0.009 0.18074,0.05201 0.22259,0.19883c0.07608,0.26687 -0.1908,0.34295 -0.1908,0.34295l-0.31582,-0.05007c-0.34172,-0.32147 -0.72654,-0.58119 -1.18271,-0.70011c0,0 -0.26799,-0.07207 -0.19591,-0.34005c0.07207,-0.26797 0.34004,-0.19591 0.34004,-0.19591c0.50511,0.13919 0.93408,0.40106 1.32259,0.74436z"/><path d="M253.41509,150.67189c0.07608,0.26687 -0.1908,0.34294 -0.1908,0.34294l-0.18006,0.04957c-0.60897,0.10209 -1.19216,0.28749 -1.78576,0.4567c0,0 -0.26687,0.07608 -0.34295,-0.1908c-0.07608,-0.26687 0.1908,-0.34294 0.1908,-0.34294c0.61376,-0.17496 1.21607,-0.36353 1.84563,-0.47025l0.12018,-0.03602c0,0 0.26687,-0.07608 0.34295,0.1908z"/><path d="M259.89874,148.93188c0.07608,0.26687 -0.1908,0.34295 -0.1908,0.34295l-0.2502,0.07132c-1.46724,0.41825 -2.91871,0.88611 -4.38924,1.3053c0,0 -0.26687,0.07608 -0.34294,-0.1908c-0.07608,-0.26687 0.1908,-0.34295 0.1908,-0.34295c1.47055,-0.4192 2.92193,-0.88702 4.38923,-1.30529l0.25021,-0.07133c0,0 0.26687,-0.07608 0.34294,0.1908z"/><path d="M265.41013,147.57723c0.07608,0.26687 -0.1908,0.34294 -0.1908,0.34294l-0.05004,0.01426c-1.08758,0.30814 -2.31267,0.65972 -3.44093,0.70173c0,0 -0.27736,0.00908 -0.28643,-0.26827c-0.00907,-0.27735 0.26828,-0.28643 0.26828,-0.28643c1.07435,-0.02951 2.27215,-0.38381 3.30694,-0.68077l0.05004,-0.01427c0,0 0.26687,-0.07608 0.34294,0.1908z"/><path d="M257.73111,152.9059c0.07463,0.26728 -0.19264,0.34191 -0.19264,0.34191l-0.33108,0.09219c-0.43845,0.08302 -0.7908,0.15885 -1.23021,0.11581c0,0 -0.27603,-0.02848 -0.24755,-0.30451c0.02848,-0.27603 0.30452,-0.24756 0.30452,-0.24756c0.3751,0.04113 0.66915,-0.03272 1.04689,-0.10416l0.30816,-0.08632c0,0 0.26728,-0.07464 0.34191,0.19263z"/><path d="M263.5421,151.84304c0.07608,0.26687 -0.19079,0.34294 -0.19079,0.34294l-0.27641,0.06769c-0.38024,-0.0003 -0.70434,-0.00599 -1.07247,-0.10304c0,0 -0.26799,-0.07207 -0.19591,-0.34004c0.07207,-0.26797 0.34004,-0.19591 0.34004,-0.19591c0.31987,0.08811 0.59614,0.08385 0.92866,0.084l0.12392,-0.04642c0,0 0.26687,-0.07608 0.34294,0.1908z"/><path d="M250.64621,155.97281c-0.18739,-0.20467 0.01728,-0.39206 0.01728,-0.39206l0.12366,-0.10765c0.34917,-0.22339 0.7019,-0.43983 1.04404,-0.67372c0,0 0.22912,-0.15657 0.38569,0.07256c0.15656,0.22912 -0.07256,0.38568 -0.07256,0.38568c-0.34689,0.23694 -0.70417,0.45657 -1.05807,0.68299l-0.04797,0.04949c0,0 -0.20467,0.18739 -0.39206,-0.01728z"/></g><path d="M233.51589,180.82848c2.85489,-4.75819 10.41414,-5.9744 15.37581,-4.99176c0.92797,0.08821 1.68309,0.24653 2.58395,0.41886c0.15804,-0.07256 0.31785,-0.14271 0.48021,-0.20934l0.16631,-0.06825c0,0 0.55431,-0.22747 0.78179,0.32684c0.02785,0.06787 0.04399,0.13083 0.05085,0.18909c0.05846,0.07727 0.08564,0.14351 0.08564,0.14351l0.06825,0.1663c1.8987,4.62671 2.9541,9.57778 4.78837,14.0475c0.80316,5.48182 -2.34583,12.14883 -5.055,16.69221c-1.00152,1.78773 -7.2546,5.45419 -7.4493,6.59702c-0.31033,1.82154 4.82116,0.8628 3.18454,4.53876c-1.99675,1.28474 -12.05021,-0.30159 -13.51626,-2.25095c0,0 -0.22673,-0.30814 -0.07164,-0.61316c-0.02733,-0.14182 -0.00335,-0.26102 -0.00335,-0.26102l0.12786,-0.63541c0.0828,-0.41144 0.16594,-0.82279 0.24952,-1.23407c0.40511,-5.56124 2.05817,-11.35551 -0.16947,-16.78376c-0.783,-5.24882 0.45889,-10.18549 -1.63053,-15.32495c-0.02315,-0.04095 -0.04044,-0.08083 -0.05277,-0.11947c-0.19568,-0.29118 0.00521,-0.62794 0.00521,-0.62794z" fill="#888b44"/></g></g></svg>