<svg version="1.1" xmlns="http://www.w3.org/2000/svg" xmlns:xlink="http://www.w3.org/1999/xlink" width="13.62327" height="19.61806" viewBox="0,0,13.62327,19.61806"><g transform="translate(-235.89053,-172.89757)"><g data-paper-data="{&quot;isPaintingLayer&quot;:true}" fill-opacity="0.30196" fill="#a60000" fill-rule="nonzero" stroke="none" stroke-width="0.5" stroke-linecap="butt" stroke-linejoin="miter" stroke-miterlimit="10" stroke-dasharray="" stroke-dashoffset="0" style="mix-blend-mode: normal"><path d="M237.47921,188.77477c-0.77661,-1.38061 0.60378,-4.00252 1.61282,-4.99788c0.46984,-0.46347 1.3338,-0.36679 1.86488,-0.69502c0.871,-0.53831 1.60965,-1.47767 2.7831,-1.18431c2.06917,0.51729 2.54253,1.69346 3.72622,3.15309c0.34914,0.43052 0.97959,0.93261 1.13644,1.46803c0.3839,1.31046 -0.8568,2.71621 -2.24177,2.17062c-1.04448,-0.41146 -1.91034,-2.06011 -3.17271,-1.93512c-0.73323,0.07261 -1.71205,1.75517 -2.81988,2.05418c-0.06288,0.078 -0.13276,0.15013 -0.20869,0.21543c-0.30094,0.34989 -0.74688,0.57146 -1.24459,0.57146c-0.53401,0 -1.00845,-0.25509 -1.3081,-0.65006c-0.04891,-0.05052 -0.09196,-0.10685 -0.12772,-0.17042z"/><path d="M238.37676,191.28492c0,-0.67971 0.55101,-1.23072 1.23072,-1.23072c0.67971,0 1.23071,0.55101 1.23071,1.23072c0,0.67971 -0.551,1.23071 -1.23071,1.23071c-0.67971,0 -1.23072,-0.551 -1.23072,-1.23071z"/><path d="M244.2064,190.23431c0,-0.67971 0.551,-1.23071 1.23071,-1.23071c0.67971,0 1.23072,0.55101 1.23072,1.23071c0,0.67971 -0.55101,1.23072 -1.23072,1.23072c-0.67971,0 -1.23071,-0.55101 -1.23071,-1.23072z"/><path d="M240.06409,180.84091c-0.28172,0.84517 -1.71678,0.68651 -1.75679,-0.03369c-0.03302,-0.05087 -0.05996,-0.10605 -0.07976,-0.16453c-0.23406,-0.15296 -0.45032,-0.35837 -0.60961,-0.6017c-0.01035,-0.0034 -0.02075,-0.00684 -0.0312,-0.01032c-0.10188,-0.03396 -0.2593,-0.22629 -0.41168,-0.48593c-0.05375,-0.02118 -0.10767,-0.04671 -0.16155,-0.07683c-0.4437,-0.24808 -1.204,-1.74435 -0.59152,-2.09434c0.21409,-0.36274 0.60895,-0.60608 1.06064,-0.60608c0.45992,0 0.86093,0.25229 1.07216,0.62601c0.14042,0.13238 0.24825,0.29213 0.29952,0.49721c0.02801,0.11204 0.04025,0.22552 0.03848,0.33798c0.00439,0.03929 0.00664,0.07922 0.00664,0.11968c0,0.00492 -0.00003,0.00984 -0.0001,0.01474c0.17935,0.26475 0.32862,0.54372 0.41941,0.80368c0.1568,0.16067 0.27376,0.32781 0.3214,0.47172c0.05564,0.16808 0.09015,0.31803 0.10637,0.4509c0.23844,0.22502 0.39983,0.50476 0.31759,0.75149z"/><path d="M240.66377,178.47741c-0.03668,-0.03789 -0.06897,-0.08014 -0.0958,-0.12782c-0.43054,-0.76539 -0.43654,-2.34198 0.5126,-2.65836c1.39146,-0.46382 1.96174,1.64814 1.77231,2.41809c0.02198,0.08531 0.03367,0.17474 0.03367,0.26691c0,0.14087 -0.02731,0.27537 -0.07692,0.39848c0.01015,0.13119 0.02133,0.25441 0.04414,0.34565v0.35018c0,0.22437 -0.08187,0.42962 -0.21738,0.58749c-0.00142,0.00254 -0.00284,0.00509 -0.00426,0.00761c-0.00257,0.35668 -0.07443,0.65972 -0.21958,0.74266l-0.63639,0.36365c-0.32941,-0.18823 -0.52641,-0.21974 -0.63416,-0.3599c-0.03779,-0.04916 -0.06461,-0.11169 -0.0823,-0.19905c-0.01434,-0.05746 -0.02196,-0.11757 -0.02196,-0.17947c-0.00964,-0.14958 -0.02024,-0.49082 0.01855,-0.84566c-0.00499,-0.03841 -0.00756,-0.07757 -0.00756,-0.11733c0,-0.04481 0.00328,-0.08886 0.00958,-0.13193c-0.03585,-0.09734 -0.06613,-0.19673 -0.08981,-0.2962c-0.10886,-0.12498 -0.19308,-0.29192 -0.23942,-0.50546c-0.02301,-0.01862 -0.04484,-0.0384 -0.0653,-0.05954z"/><path d="M244.96747,175.45299c0.71032,0 2.00328,1.79819 1.06065,2.33683c-0.05028,0.08519 -0.11053,0.16379 -0.17914,0.23421c-0.0174,0.09955 -0.04794,0.19736 -0.08923,0.29191c-0.01498,0.1005 -0.04398,0.19642 -0.08494,0.28571c-0.00352,0.05658 -0.01133,0.11296 -0.02368,0.16854c-0.02579,0.11606 -0.08118,0.30668 -0.16363,0.50286c-0.03209,0.11652 -0.08696,0.2236 -0.15953,0.31615c-0.00092,0.0015 -0.00184,0.00299 -0.00277,0.00449c-0.09606,0.57737 -0.26203,1.07961 -0.42171,1.17085c-0.12845,0.21765 -0.36536,0.36364 -0.63638,0.36364c-0.40782,0 -0.73843,-0.3306 -0.73843,-0.73842c0,-0.14313 0.04072,-0.27675 0.11121,-0.3899c-0.00952,-0.23996 0.02385,-0.49215 0.08765,-0.73902c-0.02259,-0.06424 -0.02846,-0.13226 -0.01247,-0.20425c-0.0002,-0.00789 -0.00031,-0.01582 -0.00031,-0.02376c0,-0.05797 0.00547,-0.11468 0.01592,-0.16961c-0.03898,-0.12197 -0.06062,-0.26977 -0.06062,-0.4461c-0.0208,-0.08314 -0.03185,-0.17015 -0.03185,-0.25973c0,-0.07756 0.00829,-0.15319 0.024,-0.22606c0.01684,-0.17307 0.03808,-0.39332 0.0685,-0.58548c-0.17491,-0.82999 0.2296,-1.89284 1.23675,-1.89284z"/><path d="M236.30077,173.70682c0.41024,0 0.41024,0.41024 0.41024,0.41024l-0.02105,0.00159c0.10055,0.30399 0.1754,0.61688 0.23329,0.93179c0,0 0.07339,0.40362 -0.33023,0.47701c-0.40362,0.07339 -0.47701,-0.33024 -0.47701,-0.33024c-0.04972,-0.27698 -0.11472,-0.55238 -0.20443,-0.81911l-0.02105,-0.26104c0,0 0,-0.41024 0.41024,-0.41024z"/><path d="M240.90072,173.29695c0.41024,0 0.41024,0.41024 0.41024,0.41024c0,0.1605 0,0.40854 0,0.56904c0,0 0,0.41024 -0.41024,0.41024c-0.41024,0 -0.41024,-0.41024 -0.41024,-0.41024c0,-0.1605 0,-0.32099 0,-0.48149v-0.08755c0,0 0,-0.41024 0.41024,-0.41024z"/><path d="M245.35983,172.92405c0.38918,0.12973 0.25946,0.51891 0.25946,0.51891l-0.10185,0.29952c-0.05836,0.13132 -0.11673,0.26263 -0.17509,0.39395c0,0 -0.16662,0.37488 -0.54149,0.20827c-0.37488,-0.16662 -0.20826,-0.54149 -0.20826,-0.54149c0.05836,-0.13132 0.11673,-0.26264 0.17509,-0.39395l0.07324,-0.22575c0,0 0.12973,-0.38918 0.51891,-0.25946z"/><path d="M248.63672,174.20378c0.36693,0.18347 0.18346,0.55039 0.18346,0.55039l-0.00046,-0.09592c0,0.17508 0,0.35019 0,0.52527c0,0 0,0.41024 -0.41024,0.41024c-0.41024,0 -0.41024,-0.41024 -0.41024,-0.41024c0,-0.17508 0,-0.35019 0,-0.52527l0.08709,-0.27101c0,0 0.18346,-0.36693 0.55039,-0.18346z"/><path d="M248.50691,176.36118c0.69344,0.15392 1.56603,2.18955 0.52908,2.51114c-0.06754,0.07227 -0.14339,0.13596 -0.22563,0.18983c-0.03857,0.09341 -0.08957,0.18227 -0.15036,0.26563c-0.0364,0.09487 -0.08549,0.18223 -0.14483,0.26052c-0.0157,0.05446 -0.03553,0.10782 -0.05963,0.1594c-0.05032,0.10772 -0.1457,0.28181 -0.26871,0.45546c-0.05658,0.1068 -0.13335,0.19944 -0.22424,0.27407c-0.00123,0.00126 -0.00244,0.00252 -0.00367,0.00378c-0.21889,0.54284 -0.48974,0.99719 -0.66539,1.05166c-0.17256,0.18464 -0.43549,0.27585 -0.70007,0.21712c-0.39813,-0.08837 -0.64925,-0.48276 -0.56088,-0.88089c0.03101,-0.13973 0.09973,-0.26136 0.19307,-0.35655c0.0427,-0.23631 0.12992,-0.47528 0.2457,-0.70247c-0.00814,-0.06761 0.00086,-0.13529 0.03208,-0.2021c0.00151,-0.00776 0.00313,-0.01551 0.00485,-0.02327c0.01256,-0.0566 0.0302,-0.11077 0.0523,-0.16213c-0.01163,-0.12752 -0.00072,-0.2765 0.03749,-0.44864c-0.0023,-0.08567 0.00578,-0.173 0.02519,-0.26046c0.01681,-0.07573 0.04128,-0.14776 0.07242,-0.21549c0.05393,-0.16531 0.12241,-0.37572 0.19374,-0.55673c0.0091,-0.84817 0.6343,-1.79811 1.61752,-1.57988z"/></g></g></svg>