<svg version="1.1" xmlns="http://www.w3.org/2000/svg" xmlns:xlink="http://www.w3.org/1999/xlink" width="55.19305" height="11.82354" viewBox="0,0,55.19305,11.82354"><g transform="translate(-119.62741,-175.68538)"><g data-paper-data="{&quot;isPaintingLayer&quot;:true}" fill-rule="nonzero" stroke-linecap="butt" stroke-linejoin="miter" stroke-miterlimit="10" stroke-dasharray="" stroke-dashoffset="0" style="mix-blend-mode: normal"><path d="M123.49681,186.47892c-0.35016,0.28171 -0.79482,0.44134 -1.34733,0.44134c-0.67185,0 -1.27492,-0.52492 -1.75,-1c-0.17925,-0.17925 -0.30743,-0.38166 -0.39631,-0.60179c2.61096,-1.16155 4.63216,-3.40889 5.49017,-6.16861c0.84852,2.65002 1.6582,5.31292 2.42022,7.99216c-1.66556,0.10629 -3.35385,0.04979 -4.41675,-0.66311z" fill="#b85000" stroke="none" stroke-width="0.5"/><path d="M174.31962,176.26788l-0.0183,10.74019l-54.17305,-0.0923l0.00175,-1.02723c3.56876,-1.5271 6.06927,-5.07047 6.06927,-9.19787c0,-0.08582 -0.00108,-0.17139 -0.00323,-0.2567c0.00025,-0.00988 0.00048,-0.01978 0.0007,-0.02967c0.02426,-0.0724 0.04771,-0.14517 0.07035,-0.2183z" fill-opacity="0.53333" fill="#00a67e" stroke="#827700" stroke-width="1"/></g></g></svg>