<svg version="1.1" xmlns="http://www.w3.org/2000/svg" xmlns:xlink="http://www.w3.org/1999/xlink" width="22.96311" height="15.50573" viewBox="0,0,22.96311,15.50573"><g transform="translate(-225.38779,-169.37809)"><g data-paper-data="{&quot;isPaintingLayer&quot;:true}" fill-rule="nonzero" stroke="none" stroke-linecap="butt" stroke-linejoin="miter" stroke-miterlimit="10" stroke-dasharray="" stroke-dashoffset="0" style="mix-blend-mode: normal"><path d="M247.33369,176.95901c0,4.18683 -2.57339,7.58093 -5.74783,7.58093c-3.17444,0 -5.74783,-3.3941 -5.74783,-7.58093c0,-4.18683 2.57339,-7.58092 5.74783,-7.58092c3.17444,0 5.74783,3.39409 5.74783,7.58092z" fill="#946d3b" stroke-width="0"/><path d="M244.01934,173.51254c3.14567,1.38575 4.98788,4.48385 4.1147,6.91978c-0.87318,2.43593 -4.13109,3.28727 -7.27676,1.90151c-3.14567,-1.38575 -4.98787,-4.48385 -4.11469,-6.91978c0.87318,-2.43593 4.13109,-3.28726 7.27675,-1.90151z" fill="#946d3b" stroke-width="0"/><path d="M240.30572,184.18448c0.00062,0.28684 -0.28622,0.43026 -0.28622,0.43026l-0.45837,0.19075c-3.33822,0.29115 -5.94007,-0.10913 -7.64227,-3.28042c-0.67682,-1.87797 0.1111,-5.04381 -2.02917,-6.25609c-1.11583,-0.63202 -2.31249,0.12557 -3.41881,0.55526l0.06932,0.17331l-0.45619,0.18247c-0.06025,0.02573 -0.12657,0.03997 -0.19622,0.03997c-0.27614,0 -0.5,-0.22386 -0.5,-0.5c0,-0.06965 0.01424,-0.13598 0.03997,-0.19622l0.18247,-0.45619l0.0039,0.00156l0.00108,-0.01354c2.57647,-5.55507 7.44871,-6.02821 10.61326,-0.72777c0.86463,2.06485 0.55262,9.00818 3.65936,9.15507c0,0 0.49795,0.04527 0.45268,0.54321c-0.0055,0.06045 -0.01766,0.11289 -0.0348,0.15837z" fill="#8c6738" stroke-width="0.5"/></g></g></svg>