<svg version="1.1" xmlns="http://www.w3.org/2000/svg" xmlns:xlink="http://www.w3.org/1999/xlink" width="232.04715" height="82.88536" viewBox="0,0,232.04715,82.88536"><g transform="translate(-92.4394,-121.10238)"><g data-paper-data="{&quot;isPaintingLayer&quot;:true}" fill-rule="nonzero" stroke="none" stroke-linecap="butt" stroke-linejoin="miter" stroke-miterlimit="10" stroke-dasharray="" stroke-dashoffset="0" style="mix-blend-mode: normal"><path d="M275.87516,167.39553c-3.45209,18.77321 -23.50554,30.81894 -44.79057,26.90497c-21.2851,-3.91398 -35.74156,-22.30553 -32.28947,-41.07874c3.45209,-18.77321 23.50553,-30.81894 44.79056,-26.90497c21.2851,3.91398 35.74157,22.30552 32.28948,41.07873z" fill="#080318" stroke-width="0"/><path d="M267.12009,153.54633c0.03762,18.0125 -36.54579,32.69111 -81.71151,32.78555c-45.16572,0.09444 -81.81024,-14.43099 -81.84787,-32.44349c-0.03763,-18.0125 36.54578,-32.69111 81.7115,-32.78555c45.16565,-0.09445 81.81026,14.43099 81.84794,32.4435z" fill="#080318" stroke-width="0"/><path d="M320.18096,165.53294c-2.0907,11.36968 -18.68267,17.84726 -37.05923,14.46811c-18.37656,-3.37915 -31.57884,-15.3354 -29.48815,-26.70508c2.09069,-11.36962 18.68266,-17.84726 37.05923,-14.46811c18.37657,3.37915 31.57884,15.33546 29.48815,26.70508z" fill="#080318" stroke-width="0"/><path d="M194.27523,185.88212c1.59578,0.29344 1.30234,1.88922 1.30234,1.88922l-0.39993,2.10781c-0.84901,1.86673 -1.11806,3.4559 -1.48737,5.46429c0,0 -0.29344,1.59578 -1.88922,1.30234c-0.5928,-0.109 -0.92489,-0.39773 -1.10813,-0.71756c-0.74504,-0.25756 -1.21064,-1.02743 -1.06372,-1.82647c0.12118,-0.659 0.62457,-1.15116 1.23931,-1.28987c0.27441,-1.32575 0.61011,-2.57899 1.21321,-3.90515l0.30429,-1.72227c0,0 0.29344,-1.59578 1.88922,-1.30234z" fill="#171103" stroke-width="0.5"/><path d="M244.14977,199.91548c-0.97615,1.29603 -2.2722,0.32001 -2.2722,0.32001l-1.51267,-1.84857c-0.51092,-10.34054 -11.26956,-22.04476 -15.82086,-31.34872c-1.13876,-2.44295 -3.65216,-18.17418 -5.8669,-18.94544c-5.55688,-1.93518 -14.46608,6.38518 -19.99849,5.76743c0,0 -1.59579,-0.29344 -1.30235,-1.88922c0.29344,-1.59578 1.88922,-1.30235 1.88922,-1.30235c4.76406,1.70097 14.70306,-8.26711 20.68999,-5.55857c4.80103,2.17207 5.40422,16.03304 7.51585,20.52766c4.90337,10.02913 15.31049,21.39319 16.13214,32.54448l0.22626,-0.5389c0,0 1.2961,0.97616 0.32001,2.2722z" fill="#171103" stroke-width="0.5"/><path d="M200.73553,201.99947c-1.49053,0.64106 -2.13158,-0.84953 -2.13158,-0.84953l-0.67505,-1.57122c-5.98778,-12.10659 -11.62883,-25.095 -16.39558,-37.78887c-5.57486,-16.52475 -6.80478,-16.61261 -18.28374,-3.767c0,0 -1.1293,1.16499 -2.29427,0.03563c-1.16497,-1.12937 -0.03568,-2.29435 -0.03568,-2.29435c2.07523,-2.03619 12.20468,-13.67911 15.26681,-12.76767c4.02245,1.19724 7.26169,14.31591 8.40417,17.70538c4.70657,12.5858 10.29018,25.54392 16.28265,37.51267l0.71175,1.65339c0,0 0.64104,1.49059 -0.84954,2.13157z" fill="#171103" stroke-width="0.5"/><path d="M163.07855,201.62371c-1.33589,0.92085 -2.25675,-0.41498 -2.25675,-0.41498l-0.54538,-0.8467c-3.56298,-8.38954 -6.29395,-17.97922 -7.58788,-26.98525c-0.49968,-2.52564 -5.00607,-25.1197 -7.36621,-24.57982c-2.87748,0.65816 -7.27978,5.68807 -10.0622,7.62075c0,0 -1.33589,0.92085 -2.25682,-0.41499c-0.92093,-1.33584 0.415,-2.25682 0.415,-2.25682c2.5176,-1.72019 8.64799,-8.37592 11.65209,-8.18421c7.50308,0.47874 9.67829,21.69454 10.81681,27.26845c1.19609,8.68548 3.85479,18.19765 7.37033,26.24985l0.23608,0.28691c0,0 0.92091,1.3359 -0.415,2.25682z" fill="#171103" stroke-width="0.5"/><path d="M274.59846,203.95173c-1.59578,-0.29344 -1.30234,-1.88922 -1.30234,-1.88922l0.43047,-0.37512c-3.28073,-6.11545 -7.3613,-13.99953 -8.76299,-20.74729c-3.05761,-9.27208 -9.92049,-41.64522 -19.07752,-24.97168c0,0 -0.78303,1.42109 -2.20413,0.63813c-1.42109,-0.78303 -0.63812,-2.20413 -0.63812,-2.20413c12.03245,-21.77193 21.39672,14.53336 25.0573,25.70945c1.25565,6.46962 5.33943,14.19229 8.48415,20.04009l-0.09774,2.49741c0,0 -0.29344,1.59579 -1.88922,1.30235z" fill="#171103" stroke-width="0.5"/><path d="M130.87193,190.21717c-1.2961,-0.97616 -0.31994,-2.27219 -0.31994,-2.27219l0.35512,-0.18678c0.44018,-2.3938 0.88037,-4.7876 1.32055,-7.1814c0,0 0.29343,-1.59578 1.88921,-1.30234c1.59578,0.29344 1.30235,1.88922 1.30235,1.88922c-0.44018,2.3938 -0.88036,4.7876 -1.32054,7.1814l-0.95455,1.55214c0,0 -0.97609,1.2961 -2.2722,0.32001z" fill="#171103" stroke-width="0.5"/><path d="M150.45173,190.03216c-1.59578,-0.29344 -1.30234,-1.88922 -1.30234,-1.88922l0.20682,-0.85705c0.55392,-1.218 1.1079,-2.43599 1.66182,-3.65399c0,0 0.67169,-1.477 2.14869,-0.80531c1.47693,0.67168 0.80524,2.14867 0.80524,2.14867c-0.55392,1.218 -1.10784,2.43601 -1.66182,3.654l0.03082,0.10049c0,0 -0.29344,1.59579 -1.88922,1.30235z" fill="#171103" stroke-width="0.5"/><path d="M177.38884,191.4362c-1.42109,-0.78303 -0.63806,-2.20412 -0.63806,-2.20412l0.56815,-0.85865c0.23476,-1.27669 0.46953,-2.55337 0.70428,-3.83006c0,0 0.29344,-1.59579 1.88922,-1.30235c1.59578,0.29344 1.30235,1.88922 1.30235,1.88922c-0.23476,1.27669 -0.46953,2.55338 -0.70429,3.83007l-0.91753,1.83782c0,0 -0.78303,1.42109 -2.20412,0.63806z" fill="#171103" stroke-width="0.5"/><path d="M232.75955,202.69248c-1.59578,-0.29344 -1.30235,-1.88922 -1.30235,-1.88922c0.23476,-1.27669 0.55756,-3.03211 0.79232,-4.3088c0,0 0.29344,-1.59578 1.88922,-1.30234c1.59578,0.29344 1.30234,1.88922 1.30234,1.88922c-0.23476,1.27669 -0.46953,2.55338 -0.70428,3.83007l-0.08803,0.47873c0,0 -0.29344,1.59579 -1.88922,1.30235z" fill="#171103" stroke-width="0.5"/><path d="M290.81626,149.85017c0.16206,-0.88132 1.0079,-1.4644 1.88922,-1.30235c0.88132,0.16206 1.4644,1.0079 1.30235,1.88922c-0.16206,0.88132 -1.0079,1.4644 -1.88922,1.30234c-0.88132,-0.16206 -1.4644,-1.0079 -1.30235,-1.88922z" fill="#170303" stroke-width="0.5"/><path d="M294.64632,150.55445c0.16206,-0.88132 1.0079,-1.4644 1.88922,-1.30235c0.88132,0.16206 1.4644,1.0079 1.30235,1.88922c-0.16206,0.88132 -1.0079,1.4644 -1.88922,1.30235c-0.88132,-0.16206 -1.4644,-1.0079 -1.30235,-1.88922z" fill="#170303" stroke-width="0.5"/><path d="M297.06782,158.91887c0.16206,-0.88132 1.0079,-1.4644 1.88922,-1.30234c0.88132,0.16206 1.4644,1.00789 1.30234,1.88921c-0.16206,0.88132 -1.0079,1.4644 -1.88922,1.30235c-0.88132,-0.16206 -1.4644,-1.0079 -1.30234,-1.88922z" fill="#170303" stroke-width="0.5"/><path d="M301.51414,156.27183c0.16206,-0.88132 1.0079,-1.4644 1.88922,-1.30234c0.88132,0.16206 1.4644,1.0079 1.30234,1.88922c-0.16206,0.88132 -1.0079,1.4644 -1.88922,1.30234c-0.88132,-0.16206 -1.4644,-1.0079 -1.30234,-1.88922z" fill="#170303" stroke-width="0.5"/><path d="M299.56052,153.43785c0.16206,-0.88132 1.0079,-1.4644 1.88922,-1.30235c0.88132,0.16206 1.4644,1.0079 1.30235,1.88922c-0.16206,0.88132 -1.0079,1.4644 -1.88922,1.30234c-0.88132,-0.16206 -1.4644,-1.0079 -1.30235,-1.88922z" fill="#170303" stroke-width="0.5"/><path d="M303.26399,152.1391c0.16206,-0.88132 1.0079,-1.4644 1.88922,-1.30234c0.88132,0.16206 1.4644,1.0079 1.30234,1.88922c-0.16206,0.88132 -1.00789,1.4644 -1.88921,1.30234c-0.88132,-0.16206 -1.4644,-1.0079 -1.30235,-1.88922z" fill="#170303" stroke-width="0.5"/><path d="M305.38282,159.45796c0.16206,-0.88132 1.0079,-1.4644 1.88922,-1.30234c0.88132,0.16206 1.4644,1.00789 1.30235,1.88921c-0.16206,0.88132 -1.0079,1.4644 -1.88922,1.30235c-0.88132,-0.16206 -1.4644,-1.0079 -1.30235,-1.88922z" fill="#170303" stroke-width="0.5"/><path d="M320.6976,172.17299c-0.29344,1.59578 -1.88922,1.30235 -1.88922,1.30235l-0.95753,-0.17607c-4.6847,-0.86144 -7.8688,-1.98344 -11.31911,-5.32816c0,0 -1.16499,-1.1293 -0.03569,-2.29429c1.1293,-1.16499 2.29435,-0.03568 2.29435,-0.03568c2.99,2.89851 5.5646,3.71588 9.64731,4.46662l0.95754,0.17607c0,0 1.59578,0.29344 1.30234,1.88922z" fill="#170c03" stroke-width="0.5"/><path d="M324.45054,167.91368c-0.29344,1.59578 -1.88922,1.30235 -1.88922,1.30235l-2.15461,-1.13086c-0.53889,-1.75655 -2.38435,-1.78852 -4.00732,-2.52625c0,0 -1.47692,-0.67174 -0.80524,-2.14867c0.67169,-1.477 2.14868,-0.80525 2.14868,-0.80525c2.68975,1.22405 4.2866,1.44312 5.64499,4.19813l-0.23963,-0.77866c0,0 1.59578,0.29344 1.30235,1.88922z" fill="#170c03" stroke-width="0.5"/><path d="M104.35985,153.627c-0.42208,2.29537 1.5726,5.31118 -0.03663,7.00149c-0.06028,0.06335 -5.17829,0.32238 -8.58515,0.53603l-0.75494,0.52042c-0.34188,0.23567 -0.77366,0.34091 -1.21435,0.25987c-0.88132,-0.16206 -1.4644,-1.0079 -1.30234,-1.88922c0.06166,-0.33531 0.22228,-0.62747 0.4462,-0.85184l1.20618,-1.24429l0.01428,0.01385l0.01752,-0.04574c4.9479,-4.43558 6.78903,-11.29359 13.45131,-14.27956c0,0 1.49052,-0.64107 2.13157,0.84953c0.64106,1.49053 -0.84954,2.13158 -0.84954,2.13158c-2.09135,0.84554 -3.69212,2.21096 -5.06815,3.80874c0.25016,0.27637 0.40333,0.63626 0.41925,1.02127l0.1245,1.96919l-0.07585,0.0048z" fill="#03010b" stroke-width="0.5"/></g></g></svg>