<svg version="1.1" xmlns="http://www.w3.org/2000/svg" xmlns:xlink="http://www.w3.org/1999/xlink" width="53.01033" height="34.8959" viewBox="0,0,53.01033,34.8959"><g transform="translate(-219.80771,-157.96973)"><g data-paper-data="{&quot;isPaintingLayer&quot;:true}" fill-rule="nonzero" stroke-linecap="butt" stroke-linejoin="miter" stroke-miterlimit="10" stroke-dasharray="" stroke-dashoffset="0" style="mix-blend-mode: normal"><g><path d="M239.2343,190.6314c-11.41251,-1.04126 -20.09211,-8.15532 -19.38644,-15.8897c0.70567,-7.73437 10.52939,-13.16022 21.9419,-12.11897c11.41251,1.04126 20.09211,8.15532 19.38644,15.8897c-0.70567,7.73437 -10.52939,13.16022 -21.9419,12.11897z" data-paper-data="{&quot;index&quot;:null}" fill="#6d542c" stroke="#000000" stroke-width="0"/><path d="M246.64573,190.99713c-11.45991,0.00923 -20.75506,-6.27929 -20.76131,-14.04579c-0.00625,-7.7665 9.27876,-14.06998 20.73867,-14.0792c11.45991,-0.00923 20.75506,6.27929 20.76131,14.04579c0.00625,7.7665 -9.27876,14.06998 -20.73867,14.0792z" data-paper-data="{&quot;index&quot;:null}" fill="#6d542c" stroke="#000000" stroke-width="0"/><path d="M255.94224,178.09766c1.375,0.12545 2.38796,1.34181 2.26251,2.71681c-0.12545,1.375 -1.34181,2.38796 -2.71681,2.26251c-1.375,-0.12545 -2.38796,-1.34181 -2.26251,-2.71681c0.12545,-1.375 1.34181,-2.38796 2.71681,-2.26251z" data-paper-data="{&quot;index&quot;:null}" fill="#000000" stroke="none" stroke-width="0.5"/><path d="M244.66792,186.10639c-11.41251,-1.04126 -20.09211,-8.15532 -19.38644,-15.8897c0.70567,-7.73437 10.52939,-13.16022 21.9419,-12.11897c11.41251,1.04126 20.09211,8.15532 19.38644,15.8897c-0.70567,7.73437 -10.52939,13.16022 -21.9419,12.11897z" data-paper-data="{&quot;index&quot;:null}" fill="#6d542c" stroke="#000000" stroke-width="0"/><path d="M252.07936,186.47211c-11.4599,0.00922 -20.75506,-6.27929 -20.76131,-14.04579c-0.00625,-7.7665 9.27877,-14.06998 20.73867,-14.0792c11.45991,-0.00923 20.75506,6.27929 20.76131,14.04579c0.00625,7.7665 -9.27877,14.06998 -20.73867,14.0792z" data-paper-data="{&quot;index&quot;:null}" fill="#6d542c" stroke="#000000" stroke-width="0"/><path d="M248.60384,190.17162c-11.4599,0.00922 -20.75506,-6.27929 -20.76131,-14.04579c-0.00625,-7.7665 9.27877,-14.06998 20.73867,-14.0792c11.45991,-0.00923 20.75506,6.27929 20.76131,14.04579c0.00625,7.7665 -9.27876,14.06998 -20.73867,14.0792z" data-paper-data="{&quot;index&quot;:null}" fill="#6d542c" stroke="#000000" stroke-width="0"/><path d="M244.331,190.11489c-2.02825,-2.62915 -1.92144,-7.79457 0.44525,-7.44912c0.30401,-0.09442 0.63122,-0.13197 0.96794,-0.10125c1.375,0.12545 2.38796,1.34181 2.26251,2.71681c-0.02107,0.23096 -0.07292,0.4517 -0.15113,0.65855c1.15211,2.12397 4.75834,2.47301 6.83944,1.11249c1.21499,-0.7943 0.0409,-3.18763 1.89958,-3.97115c1.5848,-0.66807 3.54847,0.69964 3.71916,2.30402c0.8176,7.68472 -12.08551,9.7815 -15.98274,4.72966z" data-paper-data="{&quot;index&quot;:null}" fill="#000000" stroke="none" stroke-width="0.5"/><path d="M261.37586,173.57264c1.375,0.12545 2.38796,1.34181 2.26251,2.71681c-0.12545,1.375 -1.34181,2.38796 -2.71681,2.26251c-1.375,-0.12545 -2.38796,-1.34181 -2.26251,-2.71681c0.12545,-1.375 1.34181,-2.38796 2.71681,-2.26251z" data-paper-data="{&quot;index&quot;:null}" fill="#000000" stroke="none" stroke-width="0.5"/></g></g></g></svg>