<svg version="1.1" xmlns="http://www.w3.org/2000/svg" xmlns:xlink="http://www.w3.org/1999/xlink" width="41.98411" height="36.25301" viewBox="0,0,41.98411,36.25301"><g transform="translate(-219.12379,-163.80093)"><g data-paper-data="{&quot;isPaintingLayer&quot;:true}" fill="#716c00" fill-rule="nonzero" stroke-width="0" stroke-linecap="butt" stroke-linejoin="miter" stroke-miterlimit="10" stroke-dasharray="" stroke-dashoffset="0" style="mix-blend-mode: normal"><g><path d="M228.78451,197.17871v-33.37778h4.37478c0.22113,0.24996 0.58165,0.24996 0.58165,0.24996c1.9161,-0.16144 2.66338,3.43711 4.50525,3.74063c1.24785,0.20563 3.65143,-2.919 4.65609,-3.73644l0.44476,-0.25415h8.86523v33.37778z" stroke="#000000"/><path d="" stroke="#000000"/><path d="" stroke="#000000"/><path d="" stroke="#000000"/><path d="M233.0796,180.48982c0,9.14798 -1.92298,16.56388 -4.29509,16.56388c-2.37211,0 -4.29509,-7.4159 -4.29509,-16.56388c0,-9.14798 1.92298,-16.56388 4.29509,-16.56388c2.37211,0 4.29509,7.4159 4.29509,16.56388z" stroke="#000000"/><path d="M228.78629,179.42723c0,-0.34521 0.08741,-0.62505 0.19523,-0.62505c0.10782,0 0.19523,0.27985 0.19523,0.62505c0,0.34521 -0.08741,0.62505 -0.19523,0.62505c-0.10782,0 -0.19523,-0.27985 -0.19523,-0.62505z" stroke="none"/><path d="M251.82156,163.92552c2.37211,0 4.29509,7.4159 4.29509,16.56388c0,9.14798 -1.92298,16.56388 -4.29509,16.56388c-2.37211,0 -4.29509,-7.4159 -4.29509,-16.56388c0,-9.14798 1.92298,-16.56388 4.29509,-16.56388z" data-paper-data="{&quot;index&quot;:null}" stroke="#000000"/></g><path d="M253.11756,196.17862c0,2.14028 -5.76481,3.87532 -12.87607,3.87532c-7.11126,0 -12.87607,-1.73504 -12.87607,-3.87532c0,-2.14028 5.76481,-3.87532 12.87607,-3.87532c7.11126,0 12.87607,1.73504 12.87607,3.87532z" stroke="#000000"/><path d="M259.93307,180.03992c-1.86239,1.05391 -5.27639,-1.61243 -7.62538,-5.95544c-2.34899,-4.34301 -2.74345,-8.71807 -0.88106,-9.77198c1.86239,-1.05391 5.2764,1.61243 7.62539,5.95544c2.34899,4.34301 2.74345,8.71807 0.88105,9.77198z" stroke="#000000"/><path d="M221.17968,170.01749c2.34899,-4.34301 5.76299,-7.00934 7.62538,-5.95543c1.86239,1.05391 1.46793,5.42897 -0.88106,9.77198c-2.34899,4.34301 -5.76298,7.00935 -7.62538,5.95544c-1.86239,-1.05391 -1.46794,-5.42898 0.88105,-9.77199z" data-paper-data="{&quot;index&quot;:null}" stroke="#000000"/></g></g></svg>