<svg version="1.1" xmlns="http://www.w3.org/2000/svg" xmlns:xlink="http://www.w3.org/1999/xlink" width="55.19846" height="11.83419" viewBox="0,0,55.19846,11.83419"><g transform="translate(-119.622,-175.67473)"><g data-paper-data="{&quot;isPaintingLayer&quot;:true}" fill-rule="nonzero" stroke-linecap="butt" stroke-linejoin="miter" stroke-miterlimit="10" stroke-dasharray="" stroke-dashoffset="0" style="mix-blend-mode: normal"><path d="M131.87437,186.81926c-2.09248,0.00185 -6.36078,1.01233 -8.37756,-0.34034c-0.35016,0.28171 -0.79482,0.44134 -1.34733,0.44134c-0.67185,0 -1.27492,-0.52492 -1.75,-1c-1.14179,-1.14179 -0.21156,-3.22348 -0.25,-4.83776c-0.01217,-0.51129 -1.01065,-4.10296 -0.2286,-4.54985l0.41572,-0.23755c1.69479,0.00211 4.35076,-0.1448 6.85512,-0.50998c0.71871,0.0922 1.43255,0.16962 2.12313,0.16658c3.89513,-0.01712 7.79013,-0.08008 11.68521,-0.09808c0.20918,1.69646 1.24214,3.45422 1.36047,5.11921c0.11022,1.55084 -0.0974,3.71735 -0.18717,5.92526c-3.41019,-0.04731 -6.83618,-0.08188 -10.299,-0.07883z" fill="#b85000" stroke="none" stroke-width="0.5"/><path d="M174.31961,176.26788l-0.0183,10.74019l-54.17306,-0.0923l0.0183,-10.74019z" fill-opacity="0.53333" fill="#00a67e" stroke="#827700" stroke-width="1"/></g></g></svg>