<svg version="1.1" xmlns="http://www.w3.org/2000/svg" xmlns:xlink="http://www.w3.org/1999/xlink" width="74.53704" height="62.43828" viewBox="0,0,74.53704,62.43828"><defs><radialGradient cx="237.18881" cy="180.76865" r="37.26852" gradientUnits="userSpaceOnUse" id="color-1"><stop offset="0" stop-color="#66d6ff"/><stop offset="1" stop-color="#66d6ff" stop-opacity="0"/></radialGradient></defs><g transform="translate(-199.92028,-149.54951)"><g data-paper-data="{&quot;isPaintingLayer&quot;:true}" fill-rule="nonzero" stroke="none" stroke-linecap="butt" stroke-linejoin="miter" stroke-miterlimit="10" stroke-dasharray="" stroke-dashoffset="0" style="mix-blend-mode: normal"><path d="M274.45732,180.76865c0,17.24185 -16.68568,31.21914 -37.26852,31.21914c-20.58283,0 -37.26852,-13.97728 -37.26852,-31.21914c0,-17.24185 16.68568,-31.21914 37.26852,-31.21914c20.58283,0 37.26852,13.97728 37.26852,31.21914z" fill="url(#color-1)" stroke-width="0"/><path d="M216.02035,177.81104v-1.60011h0.02749c-0.00771,-0.04611 -0.01474,-0.09238 -0.02105,-0.13881c-0.24127,-1.77531 1.27129,-3.5188 1.90786,-5.03552c1.27338,-3.034 1.89808,-6.29022 3.11767,-9.34108l0.42675,-0.85521l-0.04809,-0.00566l0.1978,-1.68129c0.07823,-0.75491 0.71634,-1.34357 1.49194,-1.34357c0.54961,0 1.03018,0.29559 1.29141,0.73648l0.77957,1.2668c1.20206,1.86251 2.19181,3.75261 3.03749,5.78806c0.95505,0.04245 2.03816,-0.19081 2.99207,-0.19083c0.96577,-0.00002 1.92516,0.04376 2.88071,0.11301c1.44113,-0.19444 2.8289,-0.23404 4.16983,-0.13405c1.40203,-0.20659 2.79069,-0.28874 4.07373,-0.26265c1.64428,-1.75957 3.12671,-3.58484 4.75617,-5.38845c0.72485,-0.80232 1.17903,-2.29281 2.25975,-2.32715c1.08643,-0.03452 1.79342,1.29481 2.42669,2.17825c0.69902,0.97516 0.50602,2.35509 0.93227,3.47664c0.59839,1.5745 1.67939,2.94305 2.46931,4.42686l0.00226,0.10416l0.03529,-0.01323l0.5879,1.56774c0.06943,0.17277 0.10764,0.36145 0.10764,0.55905c0,0.14622 -0.02092,0.28755 -0.05993,0.42116c3.70468,3.18298 5.98203,7.70597 5.71088,13.06886c0.3087,0.86769 0.48766,1.78263 0.48766,2.7539c0,0.39169 -0.03571,0.76514 -0.10323,1.1163c0.11072,0.33881 0.17046,0.72004 0.17046,1.14859c0,0.22313 -0.01544,0.43437 -0.04498,0.634c0.88573,2.14074 1.32015,4.69979 1.14512,6.27609c-0.06317,0.56886 -0.25711,1.06108 -0.54638,1.49174c-1.1542,0.15486 -2.42266,0.35402 -3.67763,0.62944c-0.62816,-0.25216 -1.32479,-0.40903 -2.03147,-0.44508c-2.83153,-2.38793 -12.65259,-6.40232 -16.04086,-4.65378c-1.579,0.01776 -3.15757,0.0276 -4.73484,0.02935c-3.99063,0.79938 -8.24575,1.12412 -11.87284,2.87551c-1.33596,0.64508 -4.31167,3.49032 -5.87842,2.59503c-3.53314,-2.01894 -3.20932,-5.39721 -3.17527,-9.1049l-0.37437,-0.65516c0.09705,-0.16983 0.19622,-0.3312 0.29747,-0.48449c-0.00092,-0.0326 -0.00139,-0.06533 -0.00139,-0.09816c0,-0.36929 0.0588,-0.72485 0.16753,-1.05783c-0.23927,-1.04896 -0.3362,-2.09638 -0.3362,-2.87232c0,-1.90133 0.38458,-3.60102 1.06516,-5.11685c-0.04479,-0.14231 -0.06894,-0.29377 -0.06894,-0.45087zM248.56744,166.14965c-0.00207,0.00141 -0.00414,0.00282 -0.00622,0.00423c0.00528,0.00164 0.01055,0.00329 0.01583,0.00494c-0.0032,-0.00305 -0.00641,-0.00611 -0.00961,-0.00916zM246.30137,165.39185c-0.0479,0.05153 -0.0959,0.10294 -0.14399,0.15425c0.07635,0.01499 0.15257,0.03036 0.22864,0.04609c-0.03285,-0.06424 -0.0612,-0.13116 -0.08465,-0.20034z" fill="#c8a515" stroke-width="0.5"/><path d="M251.69547,194.72785l0.00817,0.00313l0.00443,0.01189c0.03647,0.0457 0.06059,0.0965 0.06931,0.1504c0.71864,-0.04278 1.93202,0.25744 2.68048,0.56014c0.01166,-0.00044 0.0234,-0.00066 0.03523,-0.00066c0.34188,0 0.61905,0.18592 0.61905,0.41526c0,0.03799 -0.00761,0.07479 -0.02186,0.10975c-0.25251,0.67754 0.36693,2.54339 -0.2324,2.94543c-0.08959,0.0601 -2.71772,-2.10667 -3.46875,-3.21795l-0.01191,0.04951l-0.02618,0.04099l-0.00115,0.00307l-0.00107,0.00041l-0.04049,0.06337l-0.07641,0.20502l-0.00812,0.01021l-0.00183,0.00492l-0.01584,0.07792l-0.01555,0.02608l-0.03364,0.09024l-0.03086,0.09314l-0.00771,0.01035l-0.00431,0.01157l-0.00603,0.00231l-0.01517,0.02035l-0.04314,0.10132l-0.00689,0.00801l-0.00106,0.00923l-0.02948,0.05932l-0.02393,0.02522l-0.00966,0.02918l-0.02947,0.03955l-0.10115,0.07916l-0.00546,0.00576l-0.00935,0.02301l-0.02864,0.00524l-0.06303,0.04933l-0.25948,0.00967l-0.25073,0.04587l-0.08306,-0.03343l-0.02964,0.0011l-0.02158,-0.02172l-0.1393,-0.05607l-0.03041,-0.02039l-0.00682,-0.00091l-0.00955,-0.01006l-0.01219,-0.00818l-0.07318,-0.08181l-0.07637,-0.0805l-0.00545,-0.01097l-0.00915,-0.01023l0.00183,-0.0045l-0.03805,-0.07656l-0.06435,-0.10072l-0.09708,-0.11396l-0.17349,-0.19396l-0.00706,-0.01558l-0.0158,-0.01236l-0.08844,-0.11865l-0.00966,-0.02918l-0.02393,-0.02522l-0.05896,-0.11865l-0.00186,-0.01623l-0.01142,-0.01437l-0.0006,-0.00159l-0.04098,-0.03207l-0.01141,-0.01531l-0.00603,-0.00231l-0.00432,-0.01157l-0.00771,-0.01035l-0.00796,-0.02403l-0.01075,-0.01202l0.00373,-0.00917l-0.0086,-0.02597l-0.0146,-0.01959l-0.0266,-0.02975l-0.0411,-0.01575l-0.01597,-0.04286l-0.02041,-0.01173l-0.00149,-0.01794l-0.00767,-0.00857l-0.02545,-0.01992l-0.0409,-0.05487l-0.00603,-0.00231l-0.00431,-0.01157l-0.00771,-0.01035l-0.02169,-0.06548l-0.02813,-0.0283l-0.02781,-0.05223l-0.04439,-0.0468l-0.02948,-0.05933l-0.00477,-0.04159l-0.00086,-0.00161l0.00059,-0.00078l-0.00432,-0.0377l-0.02626,-0.02642l0.01725,-0.05208l-0.00609,-0.0532l0.03157,-0.02367l0.02649,-0.07997l0.02947,-0.03955l0.20764,-0.1625l0.02441,-0.00091l0.01213,-0.01424l0.16718,-0.02804l0.05967,-0.02401l0.00337,-0.00068l0.00561,-0.00659l0.14916,-0.02501l0.14709,-0.03003l0.00986,0.00371l0.00341,-0.00057h0.26531l0.05982,0.01003l0.06159,-0.00197l0.1474,0.01977l0.05175,0.01645l0.05675,0.00519l0.03671,0.00985h0.55879l0.07441,0.01248l0.04269,0.00477l0.07867,0.00406l0.04357,0.00974c0.04618,-0.00738 0.09436,-0.01128 0.1439,-0.01128c0.2272,0 0.42582,0.08211 0.5335,0.20451zM250.24816,195.34113l-0.01668,0.00086l0.00879,0.01107l0.00183,0.00204l0.00531,-0.00752z" data-paper-data="{&quot;index&quot;:null}" fill="#9b974b" stroke-width="0.5"/><path d="M251.253,194.61516c-0.37143,0.36445 -0.86667,0.09111 -0.86667,0.09111l-0.30715,-0.17392c-0.30501,-0.12859 -0.57869,-0.24032 -0.85815,-0.33056c0.02909,0.13717 0.00058,0.33746 -0.33742,0.46183c-0.55369,0.20373 -0.83053,-0.20373 -0.83053,-0.20373l-0.15688,-0.23876c-0.03098,-0.03419 -0.06195,-0.06838 -0.09293,-0.10258c-0.01617,0.08366 -0.03698,0.16653 -0.06214,0.2481l-0.31998,0.41868c0,0 -0.00258,0.00303 -0.00763,0.00839c-0.01789,0.13049 -0.10998,0.2863 -0.4193,0.36217c-0.58728,0.14406 -0.78304,-0.28812 -0.78304,-0.28812l-0.07907,-0.2195c-0.0209,-0.24849 -0.06994,-0.44377 -0.15207,-0.62747c-0.08598,0.09517 -0.23707,0.19712 -0.48783,0.19128c-0.04906,0.04332 -0.11588,0.08429 -0.20562,0.12031c-0.54346,0.21814 -0.83989,-0.18179 -0.83989,-0.18179l-0.32756,-0.45024c-0.00846,-0.01631 -0.01684,-0.03264 -0.02513,-0.049l0.00012,0.13723c0,0 0,0.02532 -0.00811,0.06402l0.0405,0.05594c0,0 0.27684,0.40746 -0.27685,0.61119c-0.55369,0.20373 -0.83053,-0.20373 -0.83053,-0.20373l-0.18021,-0.27547c-0.13012,-0.28796 -0.23049,-0.52739 -0.38495,-0.75245c-0.00643,0.09379 -0.0141,0.18752 -0.02312,0.28118l-0.04944,0.43697c0,0 -0.00337,0.02983 -0.01878,0.07355l0.01975,0.03286c0,0 0.24385,0.41873 -0.32514,0.59818c-0.569,0.17945 -0.81285,-0.23927 -0.81285,-0.23927l-0.1693,-0.29724c-0.07962,-0.19042 -0.15929,-0.38082 -0.23915,-0.57118c-0.16881,0.47513 -0.31316,0.95422 -0.41452,1.44159l-0.15635,-0.00973c-0.08649,0.09601 -0.23821,0.18022 -0.50437,0.18022c-0.32608,0 -0.48039,-0.1264 -0.55343,-0.24603l-0.07021,-0.00437c0,0 -0.10544,-0.19397 0.00499,-0.37175l0.00024,-0.10045c-0.02738,-0.44472 -0.02267,-0.87212 -0.07801,-1.30169l-0.36592,0.2875c0,0 -0.07913,0.04076 -0.19675,0.06708c0.01607,0.04034 0.03179,0.08072 0.04722,0.12114l0.06524,0.30926c0,0 0.08755,0.45098 -0.52527,0.5154c-0.0848,0.00892 -0.15954,0.00796 -0.22539,-0.0003c-0.0333,0.00318 -0.06876,0.00488 -0.10653,0.00488c-0.41197,0 -0.54978,-0.20176 -0.59588,-0.33673c-0.24757,-0.30485 -0.3427,-0.43904 -0.62042,-0.53164c0.39254,0.48156 0.42801,1.04747 -0.70879,1.24251c-0.44903,0.07704 -0.95103,-0.50472 -1.31661,-0.95437c-0.0096,0.24293 -0.07493,0.51023 -0.16958,0.77125l0.10662,0.01046l-0.08327,0.45962c-0.03624,0.22619 -0.29765,0.40165 -0.61476,0.40165c-0.19156,0 -0.36281,-0.06403 -0.47636,-0.1646l-0.49489,-0.43241l0.00202,-0.00125l-0.00802,-0.00407c-0.15525,-0.14439 -0.31092,-0.28869 -0.46887,-0.4316c-0.70942,1.07727 -3.16484,1.89393 -3.30002,0.32581l-0.00207,0.00685l-0.00771,0.01135l-0.00431,0.01269l-0.00603,0.00254l-0.0409,0.06019l-0.02545,0.02186l-0.00767,0.0094l-0.00149,0.01968l-0.02041,0.01287l-0.01597,0.04702l-0.0411,0.01728l-0.0266,0.03263l-0.0146,0.02149l-0.00861,0.02849l0.00373,0.01006l-0.01075,0.01319l-0.00796,0.02636l-0.00772,0.01135l-0.00431,0.01269l-0.00604,0.00254l-0.01141,0.0168l-0.04097,0.03518l-0.00059,0.00174l-0.01142,0.01576l-0.00186,0.01781l-0.05896,0.13016l-0.02392,0.02766l-0.00967,0.03201l-0.08844,0.13016l-0.01579,0.01356l-0.00707,0.01709l-0.17348,0.21278l-0.09708,0.12503l-0.06435,0.11049l-0.03804,0.08398l0.00183,0.00494l-0.00915,0.01122l-0.00546,0.01204l-0.07636,0.08831l-0.07318,0.08976l-0.0122,0.00897l-0.00955,0.01104l-0.00681,0.001l-0.0304,0.02237l-0.1393,0.06151l-0.02158,0.02383l-0.02964,-0.00121l-0.08306,0.03667l-0.25073,-0.05032l-0.25948,-0.01061l-0.06304,-0.05412l-0.02863,-0.00575l-0.00936,-0.02525l-0.00545,-0.00631l-0.10115,-0.08684l-0.02948,-0.04339l-0.00967,-0.03201l-0.02392,-0.02766l-0.02947,-0.06508l-0.00106,-0.01012l-0.00689,-0.00879l-0.04315,-0.11114l-0.01516,-0.02232l-0.00604,-0.00254l-0.00431,-0.01269l-0.00772,-0.01135l-0.03085,-0.10218l-0.03363,-0.09899l-0.01555,-0.02861l-0.01584,-0.08549l-0.00183,-0.0054l-0.00812,-0.0112l-0.0764,-0.22491l-0.04049,-0.06952l-0.00108,-0.00046l-0.00114,-0.00336l-0.02618,-0.04496l-0.0119,-0.05432c-0.75102,1.21913 -3.37915,3.59616 -3.46875,3.53023c-0.37604,-0.27673 -0.27229,-1.18561 -0.20515,-2.00805l-0.14015,0.16505c0,0 -0.25481,0.30002 -0.6746,0.20602l-0.58345,0.25986c0,0 -0.61904,0 -0.61904,-0.45556c0,-0.09147 0.02496,-0.16458 0.06485,-0.22301l-0.80246,0.52983c0,0 -0.56356,0.18851 -0.81973,-0.22621c-0.07637,-0.12363 -0.07988,-0.22716 -0.04719,-0.31159c-0.02409,0.0021 -0.04861,0.00318 -0.07347,0.00318c-0.34189,0 -0.61904,-0.20396 -0.61904,-0.45556c0,-0.2516 0.27715,-0.45556 0.61904,-0.45556c0.29618,0 0.54376,0.15306 0.60468,0.35756c0.01118,-0.09672 0.08806,-0.42949 0.61715,-0.42949c0.61904,0 0.61904,0.45556 0.61904,0.45556c0,0.14432 0,0.28864 0,0.43297c0.02877,-0.0209 0.05974,-0.03852 0.09151,-0.05338c0.04769,-0.18493 0.06476,-0.3748 0.04067,-0.56045c0,0 -0.04747,-0.45421 0.56975,-0.48916c0.29544,-0.01672 0.46034,0.07862 0.55198,0.18259c0.0701,-0.1199 0.12632,-0.24363 0.16301,-0.3703c0,0 0.1392,-0.44389 0.74239,-0.34146c0.01621,0.00275 0.03186,0.00575 0.04701,0.00898c0.0678,-0.01877 0.14126,-0.02904 0.21798,-0.02904c0.01182,0 0.02356,0.00024 0.03522,0.00072c0.74846,-0.33209 1.96185,-0.66143 2.68049,-0.6145c0.00872,-0.05913 0.03283,-0.11487 0.0693,-0.165l0.00443,-0.01304l0.00816,-0.00343c0.10769,-0.13427 0.3063,-0.22435 0.53351,-0.22435c0.04954,0 0.09772,0.00428 0.14389,0.01237l0.04357,-0.01069l0.07867,-0.00446l0.04269,-0.00524l0.0744,-0.01369h0.5588l0.03671,-0.0108l0.05675,-0.0057l0.05175,-0.01804l0.1474,-0.02169l0.06159,0.00216l0.05981,-0.01101h0.26531l0.00342,0.00063l0.00985,-0.00407l0.07237,0.01621c0.10104,-0.19772 0.39831,-0.27064 0.39831,-0.27064c0.44739,-0.10857 2.07788,-0.49863 2.92516,-0.43162c0.2837,-0.13371 0.53993,-0.04054 0.67196,0.03043l0.29413,-0.08658l0.00047,0.00087c0.63365,-0.16973 1.06937,-0.17092 1.35672,-0.06116c0.0332,-0.0737 0.10177,-0.14927 0.22583,-0.2195c0.24167,-0.1368 0.45586,-0.11863 0.61103,-0.06497c0.09168,-0.06977 0.23076,-0.12269 0.44175,-0.12269c0.16762,0 0.28986,0.0334 0.379,0.08212c0.23192,-0.182 0.59929,-0.11441 0.59929,-0.11441c0.18956,0.03832 0.3552,0.07634 0.50256,0.11661c-0.02192,-0.13606 0.01929,-0.32334 0.34116,-0.44177c0.55369,-0.20373 0.83054,0.20373 0.83054,0.20373c0.06315,0.09388 0.12189,0.18937 0.17687,0.2861l0.06954,0.02656c0.01629,-0.15585 0.03259,-0.31171 0.04888,-0.46756c0,0 0.04748,-0.45421 0.6647,-0.41927c0.25316,0.01433 0.3945,0.09919 0.47315,0.19432c0.01366,-0.00252 0.02772,-0.00486 0.04219,-0.00699c0.35038,-0.05157 0.53897,0.07546 0.6358,0.19209c0.09962,-0.11501 0.30186,-0.25861 0.66433,-0.18706c0.03135,-0.01077 0.06554,-0.02054 0.10282,-0.02911c0.2466,-0.05671 0.42244,-0.01401 0.54364,0.05499c0.0904,-0.08171 0.23632,-0.14766 0.47186,-0.14766c0.14777,0 0.26027,0.02596 0.34592,0.06548c0.38575,-0.13623 0.7007,0.12129 0.7007,0.12129c0.03112,0.02601 0.06125,0.05191 0.09045,0.07773c0.00289,-0.01633 0.00581,-0.03266 0.00876,-0.04898c0,0 0.08182,-0.45156 0.69543,-0.39135c0.31639,0.03104 0.44789,0.16613 0.50105,0.28972c0.09375,-0.01248 0.17566,-0.01171 0.24708,-0.00165c0.09819,-0.04818 0.21614,-0.07627 0.34301,-0.07627c0.25216,0 0.46911,0.11095 0.56562,0.27014c0.23478,0.05071 0.41166,0.20105 0.44033,0.38458c0.51122,-0.18854 0.80224,0.18624 0.80224,0.18624c0.00722,0.00936 0.01438,0.01868 0.02149,0.02796c0.06681,-0.07 0.17477,-0.132 0.34618,-0.16804c0.33786,-0.07104 0.53874,0.03938 0.64929,0.14814c0.43728,-0.13112 0.72008,0.18105 0.72008,0.18105c0.00418,0.00461 0.00834,0.00922 0.01252,0.01382c0.88825,0.10011 1.54836,0.32656 2.34106,0.65912l0.43574,0.2361c0,0 0.49524,0.27334 0.12381,0.63778zM219.69006,196.66587c0,-0.09715 0,-0.1943 0,-0.29145c-0.01854,0.05832 -0.05231,0.11234 -0.09805,0.15964zM227.59811,194.86371l0.00531,0.00825l0.00183,-0.00224l0.0088,-0.01215l-0.01668,-0.00095z" fill="#9b974b" stroke-width="0.5"/><path d="M258.55813,197.32045c0.34189,0 0.61905,0.27715 0.61905,0.61904c0,0.17439 -0.07211,0.33193 -0.18813,0.44445c0.03773,0.15699 0.01783,0.35372 -0.1789,0.55045c-0.40902,0.40902 -0.81803,0.05367 -0.86994,0.00528c-0.49686,0.30086 -0.82576,-0.19249 -0.82576,-0.19249l-0.02156,-0.03261c-0.15816,0.17502 -0.3973,0.20919 -0.3973,0.20919l-1.00363,0.03899c-0.46128,-0.65523 -0.91877,-1.31329 -1.36337,-1.97994c0,0 -0.34338,-0.51508 0.17169,-0.85847c0.51508,-0.34339 0.85846,0.17169 0.85846,0.17169c0.03339,0.0501 0.06653,0.10041 0.09938,0.15096c0.04008,-0.04746 0.09145,-0.09356 0.1565,-0.13693c0.51507,-0.34339 0.85846,0.17169 0.85846,0.17169c0.09683,0.15141 0.18363,0.31076 0.25925,0.47566c0.01059,-0.00667 0.02154,-0.01325 0.03287,-0.01972c0.32452,-0.18544 0.56506,-0.06298 0.70474,0.06318c0.48062,-0.23574 0.77738,0.23907 0.77738,0.23907c0.02616,0.04185 0.05232,0.08371 0.07848,0.12557c0.07174,-0.02907 0.15016,-0.04507 0.23232,-0.04507z" fill="#9b974b" stroke-width="0.5"/><path d="M262.54798,197.11048c0,0.61904 -0.61905,0.61904 -0.61905,0.61904h-0.49527c-1.53315,0 -3.05951,0.13248 -4.54099,-0.2834c-4.7008,-2.01463 -9.47365,-4.6693 -14.65071,-4.6693c-5.01489,-0.01297 -10.34413,1.11139 -15.23196,2.09287c-4.44165,0.84235 -7.54197,5.74525 -11.38876,0.63112c0,0 -0.37143,-0.49523 0.12381,-0.86666c0.49524,-0.37143 0.86666,0.12381 0.86666,0.12381c3.21453,4.29734 6.32117,-0.3048 10.15547,-1.10232c4.97596,-0.99087 10.36848,-2.10519 15.47477,-2.11692c5.34959,0 10.22037,2.66436 15.06546,4.74083c1.31309,0.38386 2.76102,0.21187 4.12624,0.21187h0.49527c0,0 0.61905,0 0.61905,0.61904z" fill="#635f14" stroke-width="0.5"/><path d="M229.92579,178.2168c0,0.61904 -0.61904,0.61904 -0.61904,0.61904h-0.65003c-1.47232,-0.00378 -3.34612,0.02347 -4.7516,0.44049c0,0 -0.59523,0.17006 -0.76529,-0.42516c-0.17006,-0.59522 0.42516,-0.76529 0.42516,-0.76529c1.54328,-0.42785 3.48323,-0.48452 5.09172,-0.48813h0.65003c0,0 0.61904,0 0.61904,0.61904z" fill="#130e04" stroke-width="0.5"/><path d="M256.65789,179.08109c-0.1214,0.60702 -0.72843,0.48562 -0.72843,0.48562l-0.3429,-0.08084c-1.82147,0 -3.50097,-0.93166 -5.30877,-0.39526c0,0 -0.59522,0.17006 -0.76529,-0.42516c-0.17006,-0.59522 0.42516,-0.7653 0.42516,-0.7653c2.00636,-0.55624 3.67538,0.34763 5.6489,0.34763l0.58571,0.10488c0,0 0.60702,0.1214 0.48562,0.72843z" fill="#130e04" stroke-width="0.5"/><path d="M239.02178,190.27847c-1,0 -1,-1 -1,-1v-0.90021c-0.36671,0.00007 -0.73343,0.00008 -1.10014,0.00008c0,0 -1,0 -1,-1c0,-1 1,-1 1,-1c1.0168,0 2.03359,0.00004 3.05039,0.00124l0.95038,-0.09629c0,0 0.99504,-0.0995 1.09454,0.89553c0.0995,0.99504 -0.89553,1.09454 -0.89553,1.09454l-1.04976,0.10373c-0.01663,0.00002 -0.03325,0.00004 -0.04988,0.00005v0.90132c0,0 0,1 -1,1z" fill="#631414" stroke-width="0.5"/></g></g></svg>