<svg version="1.1" xmlns="http://www.w3.org/2000/svg" xmlns:xlink="http://www.w3.org/1999/xlink" width="480.5" height="361.69998" viewBox="0,0,480.5,361.69998"><defs><radialGradient cx="239.5" cy="178.30003" r="240" gradientUnits="userSpaceOnUse" id="color-1"><stop offset="0" stop-color="#00182b" stop-opacity="0"/><stop offset="1" stop-color="#00182b" stop-opacity="0.30196"/></radialGradient><radialGradient cx="239.5" cy="178.30003" r="240" gradientUnits="userSpaceOnUse" id="color-2"><stop offset="0" stop-color="#00182b" stop-opacity="0"/><stop offset="1" stop-color="#00182b" stop-opacity="0.30196"/></radialGradient><radialGradient cx="239.5" cy="178.30003" r="240" gradientUnits="userSpaceOnUse" id="color-3"><stop offset="0" stop-color="#00182b" stop-opacity="0"/><stop offset="1" stop-color="#00182b" stop-opacity="0.30196"/></radialGradient><radialGradient cx="239.5" cy="178.30003" r="240" gradientUnits="userSpaceOnUse" id="color-4"><stop offset="0" stop-color="#00182b" stop-opacity="0"/><stop offset="1" stop-color="#00182b" stop-opacity="0.30196"/></radialGradient><radialGradient cx="239.5" cy="178.30003" r="240" gradientUnits="userSpaceOnUse" id="color-5"><stop offset="0" stop-color="#00182b" stop-opacity="0"/><stop offset="1" stop-color="#00182b" stop-opacity="0.30196"/></radialGradient><radialGradient cx="239.5" cy="178.30003" r="240" gradientUnits="userSpaceOnUse" id="color-6"><stop offset="0" stop-color="#00182b" stop-opacity="0"/><stop offset="1" stop-color="#00182b" stop-opacity="0.30196"/></radialGradient><radialGradient cx="239.5" cy="178.30003" r="240" gradientUnits="userSpaceOnUse" id="color-7"><stop offset="0" stop-color="#00182b" stop-opacity="0"/><stop offset="1" stop-color="#00182b" stop-opacity="0.30196"/></radialGradient><radialGradient cx="239.5" cy="178.30003" r="240" gradientUnits="userSpaceOnUse" id="color-8"><stop offset="0" stop-color="#00182b" stop-opacity="0"/><stop offset="1" stop-color="#00182b" stop-opacity="0.30196"/></radialGradient><radialGradient cx="239.5" cy="178.30003" r="240" gradientUnits="userSpaceOnUse" id="color-9"><stop offset="0" stop-color="#00182b" stop-opacity="0"/><stop offset="1" stop-color="#00182b" stop-opacity="0.30196"/></radialGradient><radialGradient cx="239.5" cy="178.30003" r="240" gradientUnits="userSpaceOnUse" id="color-10"><stop offset="0" stop-color="#00182b" stop-opacity="0"/><stop offset="1" stop-color="#00182b" stop-opacity="0.30196"/></radialGradient><radialGradient cx="239.5" cy="178.30003" r="240" gradientUnits="userSpaceOnUse" id="color-11"><stop offset="0" stop-color="#00182b" stop-opacity="0"/><stop offset="1" stop-color="#00182b" stop-opacity="0.30196"/></radialGradient><radialGradient cx="239.5" cy="178.30003" r="240" gradientUnits="userSpaceOnUse" id="color-12"><stop offset="0" stop-color="#00182b" stop-opacity="0"/><stop offset="1" stop-color="#00182b" stop-opacity="0.30196"/></radialGradient><radialGradient cx="239.5" cy="178.30003" r="240" gradientUnits="userSpaceOnUse" id="color-13"><stop offset="0" stop-color="#00182b" stop-opacity="0"/><stop offset="1" stop-color="#00182b" stop-opacity="0.30196"/></radialGradient><radialGradient cx="239.5" cy="178.30003" r="240" gradientUnits="userSpaceOnUse" id="color-14"><stop offset="0" stop-color="#00182b" stop-opacity="0"/><stop offset="1" stop-color="#00182b" stop-opacity="0.30196"/></radialGradient><radialGradient cx="239.5" cy="178.30003" r="240" gradientUnits="userSpaceOnUse" id="color-15"><stop offset="0" stop-color="#00182b" stop-opacity="0"/><stop offset="1" stop-color="#00182b" stop-opacity="0.30196"/></radialGradient><radialGradient cx="239.5" cy="178.30003" r="240" gradientUnits="userSpaceOnUse" id="color-16"><stop offset="0" stop-color="#00182b" stop-opacity="0"/><stop offset="1" stop-color="#00182b" stop-opacity="0.30196"/></radialGradient><radialGradient cx="239.5" cy="178.30003" r="240" gradientUnits="userSpaceOnUse" id="color-17"><stop offset="0" stop-color="#00182b" stop-opacity="0"/><stop offset="1" stop-color="#00182b" stop-opacity="0.30196"/></radialGradient><radialGradient cx="239.5" cy="178.30003" r="240" gradientUnits="userSpaceOnUse" id="color-18"><stop offset="0" stop-color="#00182b" stop-opacity="0"/><stop offset="1" stop-color="#00182b" stop-opacity="0.30196"/></radialGradient><radialGradient cx="239.5" cy="178.30003" r="240" gradientUnits="userSpaceOnUse" id="color-19"><stop offset="0" stop-color="#00182b" stop-opacity="0"/><stop offset="1" stop-color="#00182b" stop-opacity="0.30196"/></radialGradient><radialGradient cx="239.5" cy="178.30003" r="240" gradientUnits="userSpaceOnUse" id="color-20"><stop offset="0" stop-color="#00182b" stop-opacity="0"/><stop offset="1" stop-color="#00182b" stop-opacity="0.30196"/></radialGradient><radialGradient cx="239.5" cy="178.30003" r="240" gradientUnits="userSpaceOnUse" id="color-21"><stop offset="0" stop-color="#00182b" stop-opacity="0"/><stop offset="1" stop-color="#00182b" stop-opacity="0.30196"/></radialGradient><radialGradient cx="239.5" cy="178.30003" r="240" gradientUnits="userSpaceOnUse" id="color-22"><stop offset="0" stop-color="#00182b" stop-opacity="0"/><stop offset="1" stop-color="#00182b" stop-opacity="0.30196"/></radialGradient><radialGradient cx="239.5" cy="178.30003" r="240" gradientUnits="userSpaceOnUse" id="color-23"><stop offset="0" stop-color="#00182b" stop-opacity="0"/><stop offset="1" stop-color="#00182b" stop-opacity="0.30196"/></radialGradient><radialGradient cx="239.5" cy="178.30003" r="240" gradientUnits="userSpaceOnUse" id="color-24"><stop offset="0" stop-color="#00182b" stop-opacity="0"/><stop offset="1" stop-color="#00182b" stop-opacity="0.30196"/></radialGradient><radialGradient cx="239.5" cy="178.30003" r="240" gradientUnits="userSpaceOnUse" id="color-25"><stop offset="0" stop-color="#00182b" stop-opacity="0"/><stop offset="1" stop-color="#00182b" stop-opacity="0.30196"/></radialGradient><radialGradient cx="239.5" cy="178.30003" r="240" gradientUnits="userSpaceOnUse" id="color-26"><stop offset="0" stop-color="#00182b" stop-opacity="0"/><stop offset="1" stop-color="#00182b" stop-opacity="0.30196"/></radialGradient><radialGradient cx="239.5" cy="178.30003" r="240" gradientUnits="userSpaceOnUse" id="color-27"><stop offset="0" stop-color="#00182b" stop-opacity="0"/><stop offset="1" stop-color="#00182b" stop-opacity="0.30196"/></radialGradient><radialGradient cx="239.5" cy="178.30003" r="240" gradientUnits="userSpaceOnUse" id="color-28"><stop offset="0" stop-color="#00182b" stop-opacity="0"/><stop offset="1" stop-color="#00182b" stop-opacity="0.30196"/></radialGradient><radialGradient cx="239.5" cy="178.30003" r="240" gradientUnits="userSpaceOnUse" id="color-29"><stop offset="0" stop-color="#00182b" stop-opacity="0"/><stop offset="1" stop-color="#00182b" stop-opacity="0.30196"/></radialGradient><radialGradient cx="239.5" cy="178.30003" r="240" gradientUnits="userSpaceOnUse" id="color-30"><stop offset="0" stop-color="#00182b" stop-opacity="0"/><stop offset="1" stop-color="#00182b" stop-opacity="0.30196"/></radialGradient><radialGradient cx="239.5" cy="178.30003" r="240" gradientUnits="userSpaceOnUse" id="color-31"><stop offset="0" stop-color="#00182b" stop-opacity="0"/><stop offset="1" stop-color="#00182b" stop-opacity="0.30196"/></radialGradient><radialGradient cx="239.5" cy="178.30003" r="240" gradientUnits="userSpaceOnUse" id="color-32"><stop offset="0" stop-color="#00182b" stop-opacity="0"/><stop offset="1" stop-color="#00182b" stop-opacity="0.30196"/></radialGradient><radialGradient cx="239.5" cy="178.30003" r="240" gradientUnits="userSpaceOnUse" id="color-33"><stop offset="0" stop-color="#00182b" stop-opacity="0"/><stop offset="1" stop-color="#00182b" stop-opacity="0.30196"/></radialGradient><radialGradient cx="239.5" cy="178.30003" r="240" gradientUnits="userSpaceOnUse" id="color-34"><stop offset="0" stop-color="#00182b" stop-opacity="0"/><stop offset="1" stop-color="#00182b" stop-opacity="0.30196"/></radialGradient><radialGradient cx="239.5" cy="178.30003" r="240" gradientUnits="userSpaceOnUse" id="color-35"><stop offset="0" stop-color="#00182b" stop-opacity="0"/><stop offset="1" stop-color="#00182b" stop-opacity="0.30196"/></radialGradient><radialGradient cx="239.5" cy="178.30003" r="240" gradientUnits="userSpaceOnUse" id="color-36"><stop offset="0" stop-color="#00182b" stop-opacity="0"/><stop offset="1" stop-color="#00182b" stop-opacity="0.30196"/></radialGradient><radialGradient cx="239.5" cy="178.30003" r="240" gradientUnits="userSpaceOnUse" id="color-37"><stop offset="0" stop-color="#00182b" stop-opacity="0"/><stop offset="1" stop-color="#00182b" stop-opacity="0.30196"/></radialGradient><radialGradient cx="239.5" cy="178.30003" r="240" gradientUnits="userSpaceOnUse" id="color-38"><stop offset="0" stop-color="#00182b" stop-opacity="0"/><stop offset="1" stop-color="#00182b" stop-opacity="0.30196"/></radialGradient><radialGradient cx="239.5" cy="178.30003" r="240" gradientUnits="userSpaceOnUse" id="color-39"><stop offset="0" stop-color="#00182b" stop-opacity="0"/><stop offset="1" stop-color="#00182b" stop-opacity="0.30196"/></radialGradient><radialGradient cx="239.5" cy="178.30003" r="240" gradientUnits="userSpaceOnUse" id="color-40"><stop offset="0" stop-color="#00182b" stop-opacity="0"/><stop offset="1" stop-color="#00182b" stop-opacity="0.30196"/></radialGradient><radialGradient cx="239.5" cy="178.30003" r="240" gradientUnits="userSpaceOnUse" id="color-41"><stop offset="0" stop-color="#00182b" stop-opacity="0"/><stop offset="1" stop-color="#00182b" stop-opacity="0.30196"/></radialGradient><radialGradient cx="239.5" cy="178.30003" r="240" gradientUnits="userSpaceOnUse" id="color-42"><stop offset="0" stop-color="#00182b" stop-opacity="0"/><stop offset="1" stop-color="#00182b" stop-opacity="0.30196"/></radialGradient><radialGradient cx="239.5" cy="178.30003" r="240" gradientUnits="userSpaceOnUse" id="color-43"><stop offset="0" stop-color="#00182b" stop-opacity="0"/><stop offset="1" stop-color="#00182b" stop-opacity="0.30196"/></radialGradient><radialGradient cx="239.5" cy="178.30003" r="240" gradientUnits="userSpaceOnUse" id="color-44"><stop offset="0" stop-color="#00182b" stop-opacity="0"/><stop offset="1" stop-color="#00182b" stop-opacity="0.30196"/></radialGradient><radialGradient cx="239.5" cy="178.30003" r="240" gradientUnits="userSpaceOnUse" id="color-45"><stop offset="0" stop-color="#00182b" stop-opacity="0"/><stop offset="1" stop-color="#00182b" stop-opacity="0.30196"/></radialGradient><radialGradient cx="239.5" cy="178.30003" r="240" gradientUnits="userSpaceOnUse" id="color-46"><stop offset="0" stop-color="#00182b" stop-opacity="0"/><stop offset="1" stop-color="#00182b" stop-opacity="0.30196"/></radialGradient><radialGradient cx="239.5" cy="178.30003" r="240" gradientUnits="userSpaceOnUse" id="color-47"><stop offset="0" stop-color="#00182b" stop-opacity="0"/><stop offset="1" stop-color="#00182b" stop-opacity="0.30196"/></radialGradient><radialGradient cx="239.5" cy="178.30003" r="240" gradientUnits="userSpaceOnUse" id="color-48"><stop offset="0" stop-color="#00182b" stop-opacity="0"/><stop offset="1" stop-color="#00182b" stop-opacity="0.30196"/></radialGradient><radialGradient cx="239.5" cy="178.30003" r="240" gradientUnits="userSpaceOnUse" id="color-49"><stop offset="0" stop-color="#00182b" stop-opacity="0"/><stop offset="1" stop-color="#00182b" stop-opacity="0.30196"/></radialGradient><radialGradient cx="239.5" cy="178.30003" r="240" gradientUnits="userSpaceOnUse" id="color-50"><stop offset="0" stop-color="#00182b" stop-opacity="0"/><stop offset="1" stop-color="#00182b" stop-opacity="0.30196"/></radialGradient><radialGradient cx="239.5" cy="178.30003" r="240" gradientUnits="userSpaceOnUse" id="color-51"><stop offset="0" stop-color="#00182b" stop-opacity="0"/><stop offset="1" stop-color="#00182b" stop-opacity="0.30196"/></radialGradient><radialGradient cx="239.5" cy="178.30003" r="240" gradientUnits="userSpaceOnUse" id="color-52"><stop offset="0" stop-color="#00182b" stop-opacity="0"/><stop offset="1" stop-color="#00182b" stop-opacity="0.30196"/></radialGradient><radialGradient cx="239.5" cy="178.30003" r="240" gradientUnits="userSpaceOnUse" id="color-53"><stop offset="0" stop-color="#00182b" stop-opacity="0"/><stop offset="1" stop-color="#00182b" stop-opacity="0.30196"/></radialGradient><radialGradient cx="239.5" cy="178.30003" r="240" gradientUnits="userSpaceOnUse" id="color-54"><stop offset="0" stop-color="#00182b" stop-opacity="0"/><stop offset="1" stop-color="#00182b" stop-opacity="0.30196"/></radialGradient><radialGradient cx="239.5" cy="178.30003" r="240" gradientUnits="userSpaceOnUse" id="color-55"><stop offset="0" stop-color="#00182b" stop-opacity="0"/><stop offset="1" stop-color="#00182b" stop-opacity="0.30196"/></radialGradient><radialGradient cx="239.5" cy="178.30003" r="240" gradientUnits="userSpaceOnUse" id="color-56"><stop offset="0" stop-color="#00182b" stop-opacity="0"/><stop offset="1" stop-color="#00182b" stop-opacity="0.30196"/></radialGradient><radialGradient cx="239.5" cy="178.30003" r="240" gradientUnits="userSpaceOnUse" id="color-57"><stop offset="0" stop-color="#00182b" stop-opacity="0"/><stop offset="1" stop-color="#00182b" stop-opacity="0.30196"/></radialGradient><radialGradient cx="239.5" cy="178.30003" r="240" gradientUnits="userSpaceOnUse" id="color-58"><stop offset="0" stop-color="#00182b" stop-opacity="0"/><stop offset="1" stop-color="#00182b" stop-opacity="0.30196"/></radialGradient><radialGradient cx="239.5" cy="178.30003" r="240" gradientUnits="userSpaceOnUse" id="color-59"><stop offset="0" stop-color="#00182b" stop-opacity="0"/><stop offset="1" stop-color="#00182b" stop-opacity="0.30196"/></radialGradient><radialGradient cx="239.5" cy="178.30003" r="240" gradientUnits="userSpaceOnUse" id="color-60"><stop offset="0" stop-color="#00182b" stop-opacity="0"/><stop offset="1" stop-color="#00182b" stop-opacity="0.30196"/></radialGradient><radialGradient cx="239.5" cy="178.30003" r="240" gradientUnits="userSpaceOnUse" id="color-61"><stop offset="0" stop-color="#00182b" stop-opacity="0"/><stop offset="1" stop-color="#00182b" stop-opacity="0.30196"/></radialGradient><radialGradient cx="239.5" cy="178.30003" r="240" gradientUnits="userSpaceOnUse" id="color-62"><stop offset="0" stop-color="#00182b" stop-opacity="0"/><stop offset="1" stop-color="#00182b" stop-opacity="0.30196"/></radialGradient><radialGradient cx="239.5" cy="178.30003" r="240" gradientUnits="userSpaceOnUse" id="color-63"><stop offset="0" stop-color="#00182b" stop-opacity="0"/><stop offset="1" stop-color="#00182b" stop-opacity="0.30196"/></radialGradient><radialGradient cx="239.5" cy="178.30003" r="240" gradientUnits="userSpaceOnUse" id="color-64"><stop offset="0" stop-color="#00182b" stop-opacity="0"/><stop offset="1" stop-color="#00182b" stop-opacity="0.30196"/></radialGradient><radialGradient cx="239.5" cy="178.30003" r="240" gradientUnits="userSpaceOnUse" id="color-65"><stop offset="0" stop-color="#00182b" stop-opacity="0"/><stop offset="1" stop-color="#00182b" stop-opacity="0.30196"/></radialGradient><radialGradient cx="239.5" cy="178.30003" r="240" gradientUnits="userSpaceOnUse" id="color-66"><stop offset="0" stop-color="#00182b" stop-opacity="0"/><stop offset="1" stop-color="#00182b" stop-opacity="0.30196"/></radialGradient><radialGradient cx="239.5" cy="178.30003" r="240" gradientUnits="userSpaceOnUse" id="color-67"><stop offset="0" stop-color="#00182b" stop-opacity="0"/><stop offset="1" stop-color="#00182b" stop-opacity="0.30196"/></radialGradient><radialGradient cx="239.5" cy="178.30003" r="240" gradientUnits="userSpaceOnUse" id="color-68"><stop offset="0" stop-color="#00182b" stop-opacity="0"/><stop offset="1" stop-color="#00182b" stop-opacity="0.30196"/></radialGradient><radialGradient cx="239.5" cy="178.30003" r="240" gradientUnits="userSpaceOnUse" id="color-69"><stop offset="0" stop-color="#00182b" stop-opacity="0"/><stop offset="1" stop-color="#00182b" stop-opacity="0.30196"/></radialGradient><radialGradient cx="239.5" cy="178.30003" r="240" gradientUnits="userSpaceOnUse" id="color-70"><stop offset="0" stop-color="#00182b" stop-opacity="0"/><stop offset="1" stop-color="#00182b" stop-opacity="0.30196"/></radialGradient><radialGradient cx="239.5" cy="178.30003" r="240" gradientUnits="userSpaceOnUse" id="color-71"><stop offset="0" stop-color="#00182b" stop-opacity="0"/><stop offset="1" stop-color="#00182b" stop-opacity="0.30196"/></radialGradient><radialGradient cx="239.5" cy="178.30003" r="240" gradientUnits="userSpaceOnUse" id="color-72"><stop offset="0" stop-color="#00182b" stop-opacity="0"/><stop offset="1" stop-color="#00182b" stop-opacity="0.30196"/></radialGradient><radialGradient cx="239.5" cy="178.30003" r="240" gradientUnits="userSpaceOnUse" id="color-73"><stop offset="0" stop-color="#00182b" stop-opacity="0"/><stop offset="1" stop-color="#00182b" stop-opacity="0.30196"/></radialGradient><radialGradient cx="239.5" cy="178.30003" r="240" gradientUnits="userSpaceOnUse" id="color-74"><stop offset="0" stop-color="#00182b" stop-opacity="0"/><stop offset="1" stop-color="#00182b" stop-opacity="0.30196"/></radialGradient><radialGradient cx="239.5" cy="178.30003" r="240" gradientUnits="userSpaceOnUse" id="color-75"><stop offset="0" stop-color="#00182b" stop-opacity="0"/><stop offset="1" stop-color="#00182b" stop-opacity="0.30196"/></radialGradient><radialGradient cx="239.5" cy="178.30003" r="240" gradientUnits="userSpaceOnUse" id="color-76"><stop offset="0" stop-color="#00182b" stop-opacity="0"/><stop offset="1" stop-color="#00182b" stop-opacity="0.30196"/></radialGradient><radialGradient cx="239.5" cy="178.30003" r="240" gradientUnits="userSpaceOnUse" id="color-77"><stop offset="0" stop-color="#00182b" stop-opacity="0"/><stop offset="1" stop-color="#00182b" stop-opacity="0.30196"/></radialGradient><radialGradient cx="239.5" cy="178.30003" r="240" gradientUnits="userSpaceOnUse" id="color-78"><stop offset="0" stop-color="#00182b" stop-opacity="0"/><stop offset="1" stop-color="#00182b" stop-opacity="0.30196"/></radialGradient><radialGradient cx="239.5" cy="178.30003" r="240" gradientUnits="userSpaceOnUse" id="color-79"><stop offset="0" stop-color="#00182b" stop-opacity="0"/><stop offset="1" stop-color="#00182b" stop-opacity="0.30196"/></radialGradient><radialGradient cx="239.5" cy="178.30003" r="240" gradientUnits="userSpaceOnUse" id="color-80"><stop offset="0" stop-color="#00182b" stop-opacity="0"/><stop offset="1" stop-color="#00182b" stop-opacity="0.30196"/></radialGradient><radialGradient cx="239.5" cy="178.30003" r="240" gradientUnits="userSpaceOnUse" id="color-81"><stop offset="0" stop-color="#00182b" stop-opacity="0"/><stop offset="1" stop-color="#00182b" stop-opacity="0.30196"/></radialGradient><radialGradient cx="239.5" cy="178.30003" r="240" gradientUnits="userSpaceOnUse" id="color-82"><stop offset="0" stop-color="#00182b" stop-opacity="0"/><stop offset="1" stop-color="#00182b" stop-opacity="0.30196"/></radialGradient><radialGradient cx="239.5" cy="178.30003" r="240" gradientUnits="userSpaceOnUse" id="color-83"><stop offset="0" stop-color="#00182b" stop-opacity="0"/><stop offset="1" stop-color="#00182b" stop-opacity="0.30196"/></radialGradient><radialGradient cx="239.5" cy="178.30003" r="240" gradientUnits="userSpaceOnUse" id="color-84"><stop offset="0" stop-color="#00182b" stop-opacity="0"/><stop offset="1" stop-color="#00182b" stop-opacity="0.30196"/></radialGradient><radialGradient cx="239.5" cy="178.30003" r="240" gradientUnits="userSpaceOnUse" id="color-85"><stop offset="0" stop-color="#00182b" stop-opacity="0"/><stop offset="1" stop-color="#00182b" stop-opacity="0.30196"/></radialGradient><radialGradient cx="239.5" cy="178.30003" r="240" gradientUnits="userSpaceOnUse" id="color-86"><stop offset="0" stop-color="#00182b" stop-opacity="0"/><stop offset="1" stop-color="#00182b" stop-opacity="0.30196"/></radialGradient><radialGradient cx="239.5" cy="178.30003" r="240" gradientUnits="userSpaceOnUse" id="color-87"><stop offset="0" stop-color="#00182b" stop-opacity="0"/><stop offset="1" stop-color="#00182b" stop-opacity="0.30196"/></radialGradient><radialGradient cx="239.5" cy="178.30003" r="240" gradientUnits="userSpaceOnUse" id="color-88"><stop offset="0" stop-color="#00182b" stop-opacity="0"/><stop offset="1" stop-color="#00182b" stop-opacity="0.30196"/></radialGradient><radialGradient cx="239.5" cy="178.30003" r="240" gradientUnits="userSpaceOnUse" id="color-89"><stop offset="0" stop-color="#00182b" stop-opacity="0"/><stop offset="1" stop-color="#00182b" stop-opacity="0.30196"/></radialGradient><radialGradient cx="240" cy="180" r="240" gradientUnits="userSpaceOnUse" id="color-90"><stop offset="0" stop-color="#00182b" stop-opacity="0"/><stop offset="1" stop-color="#00182b" stop-opacity="0.30196"/></radialGradient></defs><g transform="translate(0.5,1.69998)"><g data-paper-data="{&quot;isPaintingLayer&quot;:true}" fill-rule="nonzero" stroke="#827700" stroke-width="0" stroke-linecap="butt" stroke-linejoin="miter" stroke-miterlimit="10" stroke-dasharray="" stroke-dashoffset="0" style="mix-blend-mode: normal"><path d="M-0.5,358.30003v-360h480v360z" fill="url(#color-1)"/><path d="M-0.5,358.30003v-360h480v360z" fill="url(#color-2)"/><path d="M-0.5,358.30003v-360h480v360z" fill="url(#color-3)"/><path d="M-0.5,358.30003v-360h480v360z" fill="url(#color-4)"/><path d="M-0.5,358.30003v-360h480v360z" fill="url(#color-5)"/><path d="M-0.5,358.30003v-360h480v360z" fill="url(#color-6)"/><path d="M-0.5,358.30003v-360h480v360z" fill="url(#color-7)"/><path d="M-0.5,358.30003v-360h480v360z" fill="url(#color-8)"/><path d="M-0.5,358.30003v-360h480v360z" fill="url(#color-9)"/><path d="M-0.5,358.30003v-360h480v360z" fill="url(#color-10)"/><path d="M-0.5,358.30003v-360h480v360z" fill="url(#color-11)"/><path d="M-0.5,358.30003v-360h480v360z" fill="url(#color-12)"/><path d="M-0.5,358.30003v-360h480v360z" fill="url(#color-13)"/><path d="M-0.5,358.30003v-360h480v360z" fill="url(#color-14)"/><path d="M-0.5,358.30003v-360h480v360z" fill="url(#color-15)"/><path d="M-0.5,358.30003v-360h480v360z" fill="url(#color-16)"/><path d="M-0.5,358.30003v-360h480v360z" fill="url(#color-17)"/><path d="M-0.5,358.30003v-360h480v360z" fill="url(#color-18)"/><path d="M-0.5,358.30003v-360h480v360z" fill="url(#color-19)"/><path d="M-0.5,358.30003v-360h480v360z" fill="url(#color-20)"/><path d="M-0.5,358.30003v-360h480v360z" fill="url(#color-21)"/><path d="M-0.5,358.30003v-360h480v360z" fill="url(#color-22)"/><path d="M-0.5,358.30003v-360h480v360z" fill="url(#color-23)"/><path d="M-0.5,358.30003v-360h480v360z" fill="url(#color-24)"/><path d="M-0.5,358.30003v-360h480v360z" fill="url(#color-25)"/><path d="M-0.5,358.30003v-360h480v360z" fill="url(#color-26)"/><path d="M-0.5,358.30003v-360h480v360z" fill="url(#color-27)"/><path d="M-0.5,358.30003v-360h480v360z" fill="url(#color-28)"/><path d="M-0.5,358.30003v-360h480v360z" fill="url(#color-29)"/><path d="M-0.5,358.30003v-360h480v360z" fill="url(#color-30)"/><path d="M-0.5,358.30003v-360h480v360z" fill="url(#color-31)"/><path d="M-0.5,358.30003v-360h480v360z" fill="url(#color-32)"/><path d="M-0.5,358.30003v-360h480v360z" fill="url(#color-33)"/><path d="M-0.5,358.30003v-360h480v360z" fill="url(#color-34)"/><path d="M-0.5,358.30003v-360h480v360z" fill="url(#color-35)"/><path d="M-0.5,358.30003v-360h480v360z" fill="url(#color-36)"/><path d="M-0.5,358.30003v-360h480v360z" fill="url(#color-37)"/><path d="M-0.5,358.30003v-360h480v360z" fill="url(#color-38)"/><path d="M-0.5,358.30003v-360h480v360z" fill="url(#color-39)"/><path d="M-0.5,358.30003v-360h480v360z" fill="url(#color-40)"/><path d="M-0.5,358.30003v-360h480v360z" fill="url(#color-41)"/><path d="M-0.5,358.30003v-360h480v360z" fill="url(#color-42)"/><path d="M-0.5,358.30003v-360h480v360z" fill="url(#color-43)"/><path d="M-0.5,358.30003v-360h480v360z" fill="url(#color-44)"/><path d="M-0.5,358.30003v-360h480v360z" fill="url(#color-45)"/><path d="M-0.5,358.30003v-360h480v360z" fill="url(#color-46)"/><path d="M-0.5,358.30003v-360h480v360z" fill="url(#color-47)"/><path d="M-0.5,358.30003v-360h480v360z" fill="url(#color-48)"/><path d="M-0.5,358.30003v-360h480v360z" fill="url(#color-49)"/><path d="M-0.5,358.30003v-360h480v360z" fill="url(#color-50)"/><path d="M-0.5,358.30003v-360h480v360z" fill="url(#color-51)"/><path d="M-0.5,358.30003v-360h480v360z" fill="url(#color-52)"/><path d="M-0.5,358.30003v-360h480v360z" fill="url(#color-53)"/><path d="M-0.5,358.30003v-360h480v360z" fill="url(#color-54)"/><path d="M-0.5,358.30003v-360h480v360z" fill="url(#color-55)"/><path d="M-0.5,358.30003v-360h480v360z" fill="url(#color-56)"/><path d="M-0.5,358.30003v-360h480v360z" fill="url(#color-57)"/><path d="M-0.5,358.30003v-360h480v360z" fill="url(#color-58)"/><path d="M-0.5,358.30003v-360h480v360z" fill="url(#color-59)"/><path d="M-0.5,358.30003v-360h480v360z" fill="url(#color-60)"/><path d="M-0.5,358.30003v-360h480v360z" fill="url(#color-61)"/><path d="M-0.5,358.30003v-360h480v360z" fill="url(#color-62)"/><path d="M-0.5,358.30003v-360h480v360z" fill="url(#color-63)"/><path d="M-0.5,358.30003v-360h480v360z" fill="url(#color-64)"/><path d="M-0.5,358.30003v-360h480v360z" fill="url(#color-65)"/><path d="M-0.5,358.30003v-360h480v360z" fill="url(#color-66)"/><path d="M-0.5,358.30003v-360h480v360z" fill="url(#color-67)"/><path d="M-0.5,358.30003v-360h480v360z" fill="url(#color-68)"/><path d="M-0.5,358.30003v-360h480v360z" fill="url(#color-69)"/><path d="M-0.5,358.30003v-360h480v360z" fill="url(#color-70)"/><path d="M-0.5,358.30003v-360h480v360z" fill="url(#color-71)"/><path d="M-0.5,358.30003v-360h480v360z" fill="url(#color-72)"/><path d="M-0.5,358.30003v-360h480v360z" fill="url(#color-73)"/><path d="M-0.5,358.30003v-360h480v360z" fill="url(#color-74)"/><path d="M-0.5,358.30003v-360h480v360z" fill="url(#color-75)"/><path d="M-0.5,358.30003v-360h480v360z" fill="url(#color-76)"/><path d="M-0.5,358.30003v-360h480v360z" fill="url(#color-77)"/><path d="M-0.5,358.30003v-360h480v360z" fill="url(#color-78)"/><path d="M-0.5,358.30003v-360h480v360z" fill="url(#color-79)"/><path d="M-0.5,358.30003v-360h480v360z" fill="url(#color-80)"/><path d="M-0.5,358.30003v-360h480v360z" fill="url(#color-81)"/><path d="M-0.5,358.30003v-360h480v360z" fill="url(#color-82)"/><path d="M-0.5,358.30003v-360h480v360z" fill="url(#color-83)"/><path d="M-0.5,358.30003v-360h480v360z" fill="url(#color-84)"/><path d="M-0.5,358.30003v-360h480v360z" fill="url(#color-85)"/><path d="M-0.5,358.30003v-360h480v360z" fill="url(#color-86)"/><path d="M-0.5,358.30003v-360h480v360z" fill="url(#color-87)"/><path d="M-0.5,358.30003v-360h480v360z" fill="url(#color-88)"/><path d="M-0.5,358.30003v-360h480v360z" fill="url(#color-89)"/><path d="M0,360v-360h480v360z" fill="url(#color-90)"/></g></g></svg>