<svg version="1.1" xmlns="http://www.w3.org/2000/svg" xmlns:xlink="http://www.w3.org/1999/xlink" width="231.29678" height="82.88535" viewBox="0,0,231.29678,82.88535"><g transform="translate(-93.18978,-121.10238)"><g data-paper-data="{&quot;isPaintingLayer&quot;:true}" fill-rule="nonzero" stroke="none" stroke-linecap="butt" stroke-linejoin="miter" stroke-miterlimit="10" stroke-dasharray="" stroke-dashoffset="0" style="mix-blend-mode: normal"><path d="M275.87515,167.39552c-3.45209,18.77321 -23.50553,30.81894 -44.79057,26.90497c-21.2851,-3.91398 -35.74156,-22.30552 -32.28947,-41.07874c3.45209,-18.77321 23.50553,-30.81894 44.79057,-26.90497c21.2851,3.91398 35.74156,22.30552 32.28947,41.07874z" fill="#080318" stroke-width="0"/><path d="M267.12009,153.54633c0.03762,18.0125 -36.54579,32.6911 -81.7115,32.78554c-45.16571,0.09444 -81.81025,-14.43099 -81.84787,-32.44349c-0.03762,-18.0125 36.54579,-32.6911 81.7115,-32.78554c45.16565,-0.09445 81.81025,14.43099 81.84794,32.44351z" fill="#080318" stroke-width="0"/><path d="M317.92984,160.28032c-2.0907,11.36968 -18.68266,17.84725 -37.05923,14.4681c-18.37656,-3.37915 -31.57885,-15.3354 -29.48815,-26.70508c2.09069,-11.36962 18.68266,-17.84725 37.05923,-14.4681c18.37656,3.37915 31.57884,15.33546 29.48815,26.70508z" fill="#080318" stroke-width="0"/><path d="M194.27523,185.88211c1.59578,0.29344 1.30234,1.88922 1.30234,1.88922l-0.39993,2.10781c-0.849,1.86673 -1.11807,3.4559 -1.48738,5.46429c0,0 -0.29344,1.59578 -1.88922,1.30234c-0.5928,-0.10901 -0.92489,-0.39774 -1.10813,-0.71756c-0.74504,-0.25756 -1.21065,-1.02743 -1.06372,-1.82647c0.12118,-0.65899 0.62458,-1.15116 1.2393,-1.28987c0.2744,-1.32575 0.61011,-2.579 1.21321,-3.90515l0.30429,-1.72227c0,0 0.29344,-1.59578 1.88922,-1.30234z" fill="#171103" stroke-width="0.5"/><path d="M244.14976,199.91547c-0.97615,1.29603 -2.2722,0.32001 -2.2722,0.32001l-1.51267,-1.84857c-0.51092,-10.34055 -11.26957,-22.04476 -15.82087,-31.34872c-1.13875,-2.44295 -3.65217,-18.17419 -5.8669,-18.94544c-5.55688,-1.93518 -14.46608,6.38518 -19.99849,5.76743c0,0 -1.59578,-0.29344 -1.30234,-1.88922c0.29344,-1.59578 1.88922,-1.30234 1.88922,-1.30234c4.76406,1.70097 14.70306,-8.26711 20.68999,-5.55858c4.80103,2.17207 5.40422,16.03303 7.51585,20.52766c4.90337,10.02913 15.31048,21.39319 16.13214,32.54448l0.22626,-0.53891c0,0 1.29609,0.97616 0.32001,2.2722z" fill="#171103" stroke-width="0.5"/><path d="M207.48891,199.74835c-1.49053,0.64106 -2.13158,-0.84953 -2.13158,-0.84953l-0.67505,-1.57122c-5.98778,-12.1066 -11.62884,-25.095 -16.39558,-37.78888c-5.57485,-16.52475 -6.80478,-16.6126 -18.28373,-3.76699c0,0 -1.1293,1.16499 -2.29428,0.03563c-1.16498,-1.12936 -0.03568,-2.29435 -0.03568,-2.29435c2.07524,-2.03619 12.20468,-13.67911 15.26681,-12.76767c4.02245,1.19723 7.26168,14.31592 8.40416,17.70538c4.70657,12.5858 10.29018,25.54391 16.28265,37.51266l0.71175,1.65339c0,0 0.64105,1.49059 -0.84953,2.13158z" fill="#171103" stroke-width="0.5"/><path d="M167.5808,200.12296c-1.33589,0.92085 -2.25675,-0.41498 -2.25675,-0.41498l-0.54538,-0.84669c-3.56298,-8.38955 -6.29395,-17.97922 -7.58788,-26.98525c-0.49968,-2.52564 -5.00607,-25.1197 -7.36621,-24.57982c-2.87748,0.65816 -7.27978,5.68807 -10.0622,7.62075c0,0 -1.33589,0.92085 -2.25682,-0.41499c-0.92092,-1.33584 0.41499,-2.25682 0.41499,-2.25682c2.51759,-1.72019 8.648,-8.37591 11.65209,-8.18421c7.50308,0.47874 9.67829,21.69454 10.81681,27.26845c1.19609,8.68548 3.85479,18.19765 7.37033,26.24985l0.23608,0.28691c0,0 0.92091,1.3359 -0.41499,2.25682z" fill="#171103" stroke-width="0.5"/><path d="M274.59846,203.95173c-1.59578,-0.29344 -1.30234,-1.88922 -1.30234,-1.88922l0.43047,-0.37512c-3.28073,-6.11545 -7.3613,-13.99953 -8.76298,-20.74729c-3.05762,-9.27208 -9.92049,-41.64523 -19.07752,-24.97168c0,0 -0.78303,1.42109 -2.20413,0.63812c-1.42109,-0.78303 -0.63812,-2.20413 -0.63812,-2.20413c12.03245,-21.77193 21.39672,14.53336 25.05731,25.70944c1.25565,6.46961 5.33944,14.19229 8.48416,20.04008l-0.09774,2.49742c0,0 -0.29344,1.59578 -1.88922,1.30234z" fill="#171103" stroke-width="0.5"/><path d="M130.87193,190.21717c-1.29609,-0.97616 -0.31994,-2.27219 -0.31994,-2.27219l0.35512,-0.18678c0.44018,-2.3938 0.88036,-4.7876 1.32054,-7.1814c0,0 0.29344,-1.59578 1.88922,-1.30234c1.59578,0.29344 1.30234,1.88922 1.30234,1.88922c-0.44018,2.3938 -0.88036,4.7876 -1.32054,7.1814l-0.95455,1.55215c0,0 -0.9761,1.2961 -2.2722,0.32001z" fill="#171103" stroke-width="0.5"/><path d="M150.45173,190.03215c-1.59578,-0.29344 -1.30234,-1.88922 -1.30234,-1.88922l0.20683,-0.85705c0.55392,-1.218 1.1079,-2.43599 1.66182,-3.65399c0,0 0.67169,-1.477 2.14869,-0.80531c1.47693,0.67168 0.80524,2.14868 0.80524,2.14868c-0.55392,1.218 -1.10784,2.436 -1.66182,3.65399l0.03082,0.10049c0,0 -0.29344,1.59578 -1.88922,1.30234z" fill="#171103" stroke-width="0.5"/><path d="M177.38884,191.4362c-1.42109,-0.78303 -0.63806,-2.20412 -0.63806,-2.20412l0.56815,-0.85864c0.23476,-1.27669 0.46952,-2.55338 0.70429,-3.83007c0,0 0.29344,-1.59578 1.88922,-1.30234c1.59578,0.29344 1.30234,1.88922 1.30234,1.88922c-0.23476,1.27669 -0.46952,2.55338 -0.70429,3.83007l-0.91753,1.83783c0,0 -0.78303,1.42109 -2.20412,0.63806z" fill="#171103" stroke-width="0.5"/><path d="M232.75955,202.69248c-1.59578,-0.29344 -1.30234,-1.88922 -1.30234,-1.88922c0.23476,-1.27669 0.55756,-3.03211 0.79232,-4.3088c0,0 0.29344,-1.59578 1.88922,-1.30234c1.59578,0.29344 1.30234,1.88922 1.30234,1.88922c-0.23476,1.27669 -0.46952,2.55338 -0.70429,3.83007l-0.08803,0.47873c0,0 -0.29344,1.59578 -1.88922,1.30234z" fill="#171103" stroke-width="0.5"/><path d="M290.81626,149.85017c0.16206,-0.88132 1.0079,-1.4644 1.88922,-1.30234c0.88132,0.16206 1.4644,1.0079 1.30234,1.88922c-0.16206,0.88132 -1.0079,1.4644 -1.88922,1.30234c-0.88132,-0.16206 -1.4644,-1.0079 -1.30234,-1.88922z" fill="#170303" stroke-width="0.5"/><path d="M294.64632,150.55445c0.16206,-0.88132 1.0079,-1.4644 1.88922,-1.30234c0.88132,0.16206 1.4644,1.0079 1.30234,1.88922c-0.16206,0.88132 -1.0079,1.4644 -1.88922,1.30234c-0.88132,-0.16206 -1.4644,-1.0079 -1.30234,-1.88922z" fill="#170303" stroke-width="0.5"/><path d="M297.06781,158.91887c0.16206,-0.88132 1.0079,-1.4644 1.88922,-1.30234c0.88132,0.16206 1.4644,1.0079 1.30234,1.88922c-0.16206,0.88132 -1.0079,1.4644 -1.88922,1.30234c-0.88132,-0.16206 -1.4644,-1.0079 -1.30234,-1.88922z" fill="#170303" stroke-width="0.5"/><path d="M301.51413,156.27183c0.16206,-0.88132 1.0079,-1.4644 1.88922,-1.30234c0.88132,0.16206 1.4644,1.0079 1.30234,1.88922c-0.16206,0.88132 -1.0079,1.4644 -1.88922,1.30234c-0.88132,-0.16206 -1.4644,-1.0079 -1.30234,-1.88922z" fill="#170303" stroke-width="0.5"/><path d="M299.56052,153.43785c0.16206,-0.88132 1.0079,-1.4644 1.88922,-1.30234c0.88132,0.16206 1.4644,1.0079 1.30234,1.88922c-0.16206,0.88132 -1.0079,1.4644 -1.88922,1.30234c-0.88132,-0.16206 -1.4644,-1.0079 -1.30234,-1.88922z" fill="#170303" stroke-width="0.5"/><path d="M303.26399,152.1391c0.16206,-0.88132 1.0079,-1.4644 1.88922,-1.30234c0.88132,0.16206 1.4644,1.0079 1.30234,1.88922c-0.16206,0.88132 -1.0079,1.4644 -1.88922,1.30234c-0.88132,-0.16206 -1.4644,-1.0079 -1.30234,-1.88922z" fill="#170303" stroke-width="0.5"/><path d="M305.38282,159.45796c0.16206,-0.88132 1.0079,-1.4644 1.88922,-1.30234c0.88132,0.16206 1.4644,1.0079 1.30234,1.88922c-0.16206,0.88132 -1.0079,1.4644 -1.88922,1.30234c-0.88132,-0.16206 -1.4644,-1.0079 -1.30234,-1.88922z" fill="#170303" stroke-width="0.5"/><path d="M320.6976,172.17299c-0.29344,1.59578 -1.88922,1.30234 -1.88922,1.30234l-0.95753,-0.17607c-4.6847,-0.86144 -7.8688,-1.98344 -11.31911,-5.32815c0,0 -1.16499,-1.1293 -0.03569,-2.29429c1.1293,-1.16499 2.29435,-0.03568 2.29435,-0.03568c2.99,2.89851 5.5646,3.71588 9.64731,4.46662l0.95753,0.17607c0,0 1.59578,0.29344 1.30234,1.88922z" fill="#170c03" stroke-width="0.5"/><path d="M324.45055,167.91368c-0.29344,1.59578 -1.88922,1.30234 -1.88922,1.30234l-2.15461,-1.13086c-0.53889,-1.75655 -2.38435,-1.78852 -4.00731,-2.52625c0,0 -1.47692,-0.67174 -0.80524,-2.14868c0.67169,-1.477 2.14868,-0.80524 2.14868,-0.80524c2.68974,1.22405 4.28659,1.44312 5.64499,4.19813l-0.23962,-0.77866c0,0 1.59578,0.29344 1.30234,1.88922z" fill="#170c03" stroke-width="0.5"/><path d="M105.11023,152.12625c-0.42208,2.29537 1.5726,5.31118 -0.03663,7.00149c-0.06028,0.06335 -5.17829,0.32239 -8.58516,0.53603l-0.75493,0.52042c-0.34187,0.23567 -0.77366,0.34091 -1.21435,0.25988c-0.88132,-0.16206 -1.4644,-1.0079 -1.30234,-1.88922c0.06166,-0.33531 0.22228,-0.62747 0.4462,-0.85184l1.20618,-1.24429l0.01428,0.01384l0.01752,-0.04574c4.9479,-4.43558 6.78902,-11.29359 13.4513,-14.27956c0,0 1.49053,-0.64106 2.13158,0.84953c0.64106,1.49053 -0.84953,2.13158 -0.84953,2.13158c-2.09135,0.84555 -3.69211,2.21096 -5.06815,3.80874c0.25016,0.27637 0.40333,0.63626 0.41924,1.02127l0.1245,1.96919l-0.07585,0.00479z" fill="#03010b" stroke-width="0.5"/></g></g></svg>