<svg version="1.1" xmlns="http://www.w3.org/2000/svg" xmlns:xlink="http://www.w3.org/1999/xlink" width="84.17537" height="83.07933" viewBox="0,0,84.17537,83.07933"><defs><radialGradient cx="251.94676" cy="172.78705" r="42.08768" gradientUnits="userSpaceOnUse" id="color-1"><stop offset="0" stop-color="#ff0000" stop-opacity="0.58039"/><stop offset="1" stop-color="#ff0000" stop-opacity="0"/></radialGradient></defs><g transform="translate(-209.85908,-131.24739)"><g data-paper-data="{&quot;isPaintingLayer&quot;:true}" fill-rule="nonzero" stroke-linejoin="miter" stroke-miterlimit="10" stroke-dasharray="" stroke-dashoffset="0" style="mix-blend-mode: normal"><path d="M241.20564,183.19937l32.22338,-33.97704l-26.3048,37.48434" fill="none" stroke="#5a0000" stroke-width="4" stroke-linecap="round"/><path d="M272.11378,150.31837l3.2881,-3.06889" fill="none" stroke="#5a0000" stroke-width="4" stroke-linecap="round"/><path d="M255.23486,170.26618l-12.93319,13.81002" fill="none" stroke="#5a0000" stroke-width="4" stroke-linecap="round"/><path d="M251.72756,176.62317l-7.67223,8.76827" fill="none" stroke="#5a0000" stroke-width="4" stroke-linecap="round"/><path d="M237.69833,175.52714l0.43841,7.67223l7.67223,5.26096l7.23382,-0.21921" fill="none" stroke="#665400" stroke-width="4" stroke-linecap="round"/><path d="M241.64405,186.26826l-11.17954,14.46764" fill="none" stroke="#665400" stroke-width="4" stroke-linecap="round"/><path d="M294.03445,172.78705c0,22.94172 -18.8433,41.53967 -42.08768,41.53967c-23.24439,0 -42.08768,-18.59794 -42.08768,-41.53967c0,-22.94172 18.8433,-41.53967 42.08768,-41.53967c23.24439,0 42.08768,18.59794 42.08768,41.53967z" fill="url(#color-1)" stroke="none" stroke-width="0" stroke-linecap="butt"/></g></g></svg>