<svg version="1.1" xmlns="http://www.w3.org/2000/svg" xmlns:xlink="http://www.w3.org/1999/xlink" width="483" height="361" viewBox="0,0,483,361"><g transform="translate(-48.25,1.04465)"><g data-paper-data="{&quot;isPaintingLayer&quot;:true}" fill-rule="nonzero" stroke-linejoin="miter" stroke-miterlimit="10" stroke-dasharray="" stroke-dashoffset="0" style="mix-blend-mode: normal"><path d="M48.25,359.95535v-361h483v361z" fill="#000000" stroke="#ff0000" stroke-width="0" stroke-linecap="butt"/><text transform="translate(90.17147,287.65) scale(0.5,0.5)" font-size="40" xml:space="preserve" fill="#a20000" fill-rule="nonzero" stroke="none" stroke-width="1" stroke-linecap="butt" stroke-linejoin="miter" stroke-miterlimit="10" stroke-dasharray="" stroke-dashoffset="0" font-family="Handwriting" font-weight="normal" text-anchor="start" style="mix-blend-mode: normal"><tspan x="0" dy="0">CREDIT</tspan></text><text transform="translate(88.97147,235.15) scale(0.5,0.5)" font-size="40" xml:space="preserve" fill="#a20000" fill-rule="nonzero" stroke="none" stroke-width="1" stroke-linecap="butt" stroke-linejoin="miter" stroke-miterlimit="10" stroke-dasharray="" stroke-dashoffset="0" font-family="Handwriting" font-weight="normal" text-anchor="start" style="mix-blend-mode: normal"><tspan x="0" dy="0">SEASON AND SHARE</tspan></text><path d="" fill="#ff0000" stroke="#ff0000" stroke-width="2" stroke-linecap="round"/><path d="" fill="#ff0000" stroke="#ff0000" stroke-width="2" stroke-linecap="round"/><path d="" fill="#ff0000" stroke="#ff0000" stroke-width="2" stroke-linecap="round"/><path d="" fill="#000000" stroke="none" stroke-width="0" stroke-linecap="butt"/><path d="" fill="#000000" stroke="none" stroke-width="0" stroke-linecap="butt"/><path d="" fill="#000000" stroke="none" stroke-width="0" stroke-linecap="butt"/><path d="" fill="#000000" stroke="none" stroke-width="0" stroke-linecap="butt"/><path d="" fill="#000000" stroke="none" stroke-width="0" stroke-linecap="butt"/><path d="" fill="#000000" stroke="none" stroke-width="0" stroke-linecap="butt"/><path d="M249.65001,216.45h53z" fill="#000000" stroke="none" stroke-width="0" stroke-linecap="butt"/><path d="M280.05001,210.65h21.4z" fill="#000000" stroke="none" stroke-width="0" stroke-linecap="butt"/><path d="M290.25001,209.65h-17.2z" fill="#000000" stroke="none" stroke-width="0" stroke-linecap="butt"/><text transform="translate(502.70575,353.71316) scale(0.2472,0.2472)" font-size="40" xml:space="preserve" fill="#ff0000" fill-rule="nonzero" stroke="none" stroke-width="1" stroke-linecap="butt" stroke-linejoin="miter" stroke-miterlimit="10" stroke-dasharray="" stroke-dashoffset="0" font-family="Pixel" font-weight="normal" text-anchor="start" style="mix-blend-mode: normal"><tspan x="0" dy="0">1.3.3</tspan></text><path d="" fill="#000000" stroke="none" stroke-width="0" stroke-linecap="butt"/><path d="" fill="#000000" stroke="none" stroke-width="0" stroke-linecap="butt"/><path d="" fill="#000000" stroke="none" stroke-width="0" stroke-linecap="butt"/><path d="M283.60527,302.27702z" fill="#000000" stroke="none" stroke-width="0" stroke-linecap="butt"/><path d="M69.19703,123.03174v190.39451z" fill="#000000" stroke="none" stroke-width="0" stroke-linecap="butt"/><path d="M238.18969,151.23984c0,-5.90402 0,5.90402 0,0z" fill="#ff0000" stroke="none" stroke-width="0" stroke-linecap="butt"/><path d="M237.06066,188.37037c0,-6.5255 0,6.52549 0,0z" fill="#ff0000" stroke="none" stroke-width="0" stroke-linecap="butt"/><path d="" fill="#ff0000" stroke="none" stroke-width="0" stroke-linecap="butt"/><path d="M94.05187,293.17262v-1.65792h7.73694v1.65792z" fill="#000000" stroke="none" stroke-width="0" stroke-linecap="butt"/><path d="" fill="#000000" stroke="none" stroke-width="0" stroke-linecap="butt"/><path d="M92.88191,270.44305v-7.58054z" fill="#000000" stroke="none" stroke-width="0" stroke-linecap="butt"/><path d="M93.82948,141.57381v-5.36955z" fill="#000000" stroke="none" stroke-width="0" stroke-linecap="butt"/><text transform="translate(89.97147,157.15) scale(0.5,0.5)" font-size="40" xml:space="preserve" fill="#a20000" fill-rule="nonzero" stroke="none" stroke-width="1" stroke-linecap="butt" stroke-linejoin="miter" stroke-miterlimit="10" stroke-dasharray="" stroke-dashoffset="0" font-family="Handwriting" font-weight="normal" text-anchor="start" style="mix-blend-mode: normal"><tspan x="0" dy="0">NEW GAME</tspan></text><text transform="translate(89.47147,195.15) scale(0.5,0.5)" font-size="40" xml:space="preserve" fill="#a20000" fill-rule="nonzero" stroke="none" stroke-width="1" stroke-linecap="butt" stroke-linejoin="miter" stroke-miterlimit="10" stroke-dasharray="" stroke-dashoffset="0" font-family="Handwriting" font-weight="normal" text-anchor="start" style="mix-blend-mode: normal"><tspan x="0" dy="0">LOAD GAME</tspan></text><path d="M207.83363,155.53014c0.71151,0.23717 0.47434,0.94868 0.47434,0.94868l-0.2686,0.79984c-0.91018,1.82289 -1.67503,5.05272 -3.58902,6.12424c-1.16043,0.64966 -4.48735,0.33874 -5.85389,0.33874c-6.02097,0 -11.93349,-0.5 -18,-0.5c-6.83333,0 -13.66667,0 -20.5,0c-6.62213,0 -13.11807,0.5 -19.75,0.5c-6.44153,0 -12.85782,-0.5 -19.25,-0.5c-2.3539,-0.0262 -5.04326,-0.10444 -7.37014,-0.50968c-1.76267,-0.30698 -3.88412,0.25837 -5.5972,-0.2725c-1.92006,-0.595 -3.40726,-0.96782 -5.53266,-0.96782c-5.1045,0 -11.18279,-1.37373 -14.37596,3.41603c0,0 -0.41603,0.62404 -1.04006,0.20801c-0.62404,-0.41603 -0.20801,-1.04006 -0.20801,-1.04006c3.58501,-5.37751 9.91867,-4.08397 15.62404,-4.08397c2.22633,0 3.97,0.3037 5.96734,1.03218c1.53603,0.56023 3.75553,-0.03653 5.4028,0.2275c2.23313,0.35794 4.8832,0.52486 7.12986,0.49032c6.39314,0 12.80801,0.5 19.25,0.5c6.63166,0 13.12712,-0.5 19.75,-0.5c6.83333,0 13.66667,0 20.5,0c6.0658,0 11.98115,0.5 18,0.5c0.97504,0 4.50772,0.29181 5.14611,-0.16126c1.4954,-1.06128 2.11321,-3.78247 2.91098,-5.37576l0.2314,-0.70016c0,0 0.23717,-0.71151 0.94868,-0.47434z" fill="#6c7523" stroke="none" stroke-width="0.5" stroke-linecap="butt"/><path d="M213.33363,196.28014c0.71151,0.23717 0.47434,0.94868 0.47434,0.94868l-0.2686,0.79984c-2.45346,4.89562 -5.84972,5.71299 -10.94291,5.71299c-2.76313,0 -5.61443,0.08485 -8.34164,-0.25562c-3.26134,-0.40715 -6.33009,-1.4942 -9.66729,-1.49443c-2.33731,-0.07181 -4.56038,-0.86718 -6.8612,-1.25963c-3.39736,-0.57949 -8.76832,0.18659 -12.03823,1.00407c-6.69665,0.04471 -13.3948,0.00562 -20.09164,0.00562c-7.02542,0 -14.0564,2.50319 -21.09164,0.74438c-4.63514,0.03956 -9.30128,-0.46628 -13.94578,-0.74531c-3.16846,-0.19036 -6.54512,0.2569 -9.58272,-0.75875c-2.17347,0.03342 -5.94457,-1.84249 -8.03178,-0.57598c-1.27481,0.77355 -1.86583,1.61888 -2.74808,2.78567c-0.6498,0.85937 -0.8656,1.03544 -0.85,2.05c0,0 0,0.75 -0.75,0.75c-0.75,0 -0.75,-0.75 -0.75,-0.75c0.01477,-1.32719 0.34766,-1.87211 1.15,-2.95c0.97046,-1.30374 1.78112,-2.41011 3.25192,-3.21433c2.62571,-1.43572 6.26883,0.39398 8.96822,0.42402c2.98989,0.9936 6.29824,0.55569 9.41728,0.74125c4.69536,0.27934 9.36838,0.7234 14.05422,0.75469c6.97277,1.74319 13.93964,-0.75562 20.90836,-0.75562c6.63548,0 13.2732,-0.05101 19.90836,0.00562c3.42403,-0.85601 8.90467,-1.5783 12.46177,-0.99593c2.22313,0.36397 4.38245,1.20608 6.6388,1.24037c6.02956,-0.00043 11.85504,1.74995 17.99107,1.74995c4.469,0 7.3921,-0.44459 9.55709,-4.78701l0.2314,-0.70016c0,0 0.23717,-0.71151 0.94868,-0.47434z" fill="#6c7523" stroke="none" stroke-width="0.5" stroke-linecap="butt"/><path d="M296.38814,235.51665c0.75,0 0.75,0.75 0.75,0.75v0.66667c-0.02769,4.15562 -3.34649,6.36318 -6.53266,8.38449c-8.70511,0.20241 -17.42398,-0.30115 -26.05067,-0.30115c-3.30765,0 -6.82265,0.32213 -10.11087,-0.04363c-6.0425,-0.67212 -11.85631,-1.95637 -18.05579,-1.95637c-8.88736,0 -17.77471,0.00011 -26.66207,-0.00001c-9.21329,0.11236 -18.41202,0.66668 -27.67127,0.66668c-4.06938,0 -8.21257,0.76432 -12.2132,1.32365c-3.92152,0.54826 -8.32405,0.00968 -12.2868,0.00968c-8.33449,0 -16.58795,-0.66667 -24.83333,-0.66667c-5.90176,0 -12.20278,0.04171 -18.0739,-0.67032c-2.16774,-0.2629 -4.8731,-0.19862 -6.90126,-1.00988c-1.65028,0.01644 -3.51516,0.23665 -5.14497,0.00385c-3.275,-0.4678 -10.93664,-4.97606 -12.50168,-0.16981c0,0 -0.23717,0.71151 -0.94868,0.47434c-0.71151,-0.23717 -0.47434,-0.94868 -0.47434,-0.94868c2.13501,-6.2843 9.85803,-1.45185 14.16498,-0.83648c1.63105,0.23304 3.53735,-0.00976 5.18836,0.00385c2.01264,0.80505 4.60796,0.73772 6.76541,0.99012c5.83503,0.68262 12.0641,0.66302 17.9261,0.66302c8.247,0 16.49812,0.66667 24.83333,0.66667c3.86588,0 8.22692,0.56825 12.04653,0.00968c4.07336,-0.59567 8.30797,-1.34302 12.45347,-1.34302c9.25673,0 18.4513,-0.553 27.66207,-0.66665c8.89042,-0.00012 17.78084,-0.00001 26.67127,-0.00001c6.25776,0 12.11987,1.30749 18.21928,1.96531c3.23756,0.34917 6.69171,0.03469 9.94738,0.03469c8.44134,0 17.11033,0.07718 25.616,0.36551c2.53339,-1.81121 5.49515,-3.4653 5.46734,-6.94885v-0.66667c0,0 0,-0.75 0.75,-0.75z" fill="#6c7523" stroke="none" stroke-width="0.5" stroke-linecap="butt"/><path d="M168.05688,290.2625c0.67082,0.33541 0.33541,1.00623 0.33541,1.00623l-0.38012,0.74728c-2.21068,3.12237 -6.06099,4.65762 -9.83723,4.65762c-2.37539,0.7918 -5.29207,0.34302 -7.7868,0.34302c-5.69844,0 -11.36656,-0.33333 -17,-0.33333c-4.95968,-0.03305 -10.24055,-1.36695 -14.884,-2.69885c-2.89348,-0.82994 -6.34353,-0.34664 -9.23613,-1.31084c-4.65743,0.01451 -10.88724,-1.61035 -15.25952,0.28593c-1.79136,0.77692 -3.59904,1.82262 -3.53701,3.97376c0,0 0,0.75 -0.75,0.75c-0.75,0 -0.75,-0.75 -0.75,-0.75c0.05871,-2.8289 2.01589,-4.32179 4.46299,-5.35958c4.7013,-1.99376 11.09631,-0.3956 16.07382,-0.38074c2.9587,0.98623 6.45454,0.50848 9.43053,1.35583c4.47431,1.27396 9.66428,2.67268 14.44933,2.63449c5.63553,0 11.30031,0.33333 17,0.33333c2.42159,0 5.24225,0.44445 7.54653,-0.32365c3.20903,0 7.08231,-1.13155 8.82943,-4.00904l0.28655,-0.58605c0,0 0.33541,-0.67082 1.00623,-0.33541z" fill="#6c7523" stroke="none" stroke-width="0.5" stroke-linecap="butt"/><path d="" fill="#000000" stroke="none" stroke-width="0" stroke-linecap="butt"/><path d="" fill="#000000" stroke="none" stroke-width="0" stroke-linecap="butt"/><path d="" fill="#000000" stroke="none" stroke-width="0" stroke-linecap="butt"/><text transform="translate(54.7362,353.41889) scale(0.15765,0.15765)" font-size="40" xml:space="preserve" fill="#ff0000" fill-rule="nonzero" stroke="none" stroke-width="1" stroke-linecap="butt" stroke-linejoin="miter" stroke-miterlimit="10" stroke-dasharray="" stroke-dashoffset="0" font-family="Pixel" font-weight="normal" text-anchor="start" style="mix-blend-mode: normal"><tspan x="0" dy="0">Marsmouche Studio ©2023 Marsmouche</tspan></text><text transform="translate(115.08126,67.45535) scale(0.80336,0.80336)" font-size="40" xml:space="preserve" fill="#ff0000" fill-rule="nonzero" stroke="#ff0a0a" stroke-width="2" stroke-linecap="butt" stroke-linejoin="miter" stroke-miterlimit="10" stroke-dasharray="" stroke-dashoffset="0" font-family="Handwriting" font-weight="normal" text-anchor="start" style="mix-blend-mode: normal"><tspan x="0" dy="0">TURKEY AND SQUIRREL</tspan></text><text transform="translate(225.25,95.06249) scale(0.56501,0.56501)" font-size="40" xml:space="preserve" fill="#ff0000" fill-rule="nonzero" stroke="none" stroke-width="1" stroke-linecap="butt" stroke-linejoin="miter" stroke-miterlimit="10" stroke-dasharray="" stroke-dashoffset="0" font-family="Handwriting" font-weight="normal" text-anchor="start" style="mix-blend-mode: normal"><tspan x="0" dy="0">Animal Dystopia</tspan></text></g></g></svg>