<svg version="1.1" xmlns="http://www.w3.org/2000/svg" xmlns:xlink="http://www.w3.org/1999/xlink" width="95.01532" height="102.71922" viewBox="0,0,95.01532,102.71922"><g transform="translate(-193.76011,-120.3763)"><g data-paper-data="{&quot;isPaintingLayer&quot;:true}" fill-rule="nonzero" stroke="none" stroke-width="0.5" stroke-linecap="butt" stroke-linejoin="miter" stroke-miterlimit="10" stroke-dasharray="" stroke-dashoffset="0" style="mix-blend-mode: normal"><path d="M202.28348,157.96687l0.07387,-0.01558l-0.01265,-0.02344l0.53464,-0.28844c0.00798,-0.00451 0.01609,-0.0088 0.02433,-0.01288c0.57232,-0.57766 1.17889,-1.03993 2.22133,-1.05153c0,0 0.23947,0 0.38695,0.16572l0.34127,-0.20476l0.11383,0.03104l0.21101,-0.24618l0.3054,-0.01697l0.66576,-0.42366l0.24194,-0.08065l1.05454,-0.70303l0.23804,-0.08501l0.19191,-0.16449l1.50025,-0.75013l0.01359,-0.00302l0.52539,-0.91944l2,-0.5h6.6761l0.08934,-0.10423l0.06122,-0.0034l0.70617,-0.47078l0.15156,-0.05413l0.06724,-0.11767l0.87412,-0.21853l0.84853,-0.30305l0.10152,0.05076l0.2054,-0.10955l0.23478,-0.27391l0.31122,-0.01729l0.95471,-0.50918l0.85113,-0.21278l1.35451,-0.4515l0.64111,-0.04932l0.6238,-0.15595h0.6011l0.13432,-0.04477l0.64111,-0.04932l0.6238,-0.15595h17.25288l0.47772,0.11943h0.49242l0.52245,0.13061h1.00783l0.6238,0.15595l0.64111,0.04932l0.31927,0.10642c2.38129,-4.98546 8.95904,-8.39599 13.02901,-10.94457c1.0148,-0.63546 4.63174,-3.51708 5.63764,-3.24274c0.25777,-0.06654 0.52561,-0.10803 0.80077,-0.12171c0.17563,-0.06153 0.36195,-0.11297 0.55792,-0.15472c0.13149,-0.03003 0.26545,-0.05358 0.40153,-0.07029c5.23556,-0.73155 16.13508,4.48769 16.24466,9.22083c0.07529,3.25203 1.68508,7.46841 -0.6459,9.73732c-0.66902,0.6512 -1.83608,1.71174 -3.25721,2.85427c0.07067,0.96564 0.05999,1.94283 -0.34751,2.91066c-0.43457,1.0321 -6.16956,5.44253 -9.76469,7.78156l0.05052,0.10105l0.04109,0.04109l0.41416,0.69027l0.47131,0.65259l0.15952,0.3988l0.01566,0.0261l-0.00212,0.00776l0.17234,0.43085l0.26906,0.40359l0.17969,0.50315l0.28684,0.45074l0.50008,1.50025l0.04932,0.64111l0.15595,0.6238v4.50075l-0.09663,0.38651l0.01895,0.39795l-0.25004,1.25021l-0.04175,0.08814v0.09753l-0.13061,0.52245v1.75795l-0.03903,0.15613l0.06061,0.12122l-0.30305,0.84853l-0.21853,0.87412l-0.11767,0.06724l-0.05413,0.15156l-1.00017,1.50025l-0.16082,0.1462l-0.09449,0.19573l-1.25021,1.50025l-0.32794,0.23965l-0.24616,0.32309l-1.07721,0.86177l-1.84368,1.84368l-0.34163,0.20498l-0.20772,0.22849c0.6493,5.20238 -1.36114,8.95458 -1.52962,14.05367c-0.05476,1.65744 0.58659,3.68342 0.15652,5.20734c0.09434,1.41189 0.12389,2.93731 0.09352,4.64829c-0.04515,2.54365 -0.99459,4.60965 -3.48521,5.54502c-0.78436,0.29457 -1.88005,0.65732 -2.76516,0.70535c-9.75578,0.52934 -6.1154,-7.66815 -8.06632,-14.26427c-0.53838,-1.82028 -4.57423,-7.16359 -4.57423,-7.92828c0,-0.28322 0.01655,-0.56419 0.0489,-0.84012c-0.87372,-0.3616 -1.69942,-0.9182 -2.35332,-1.63811h-19.81083l-0.32434,-0.08108l-0.33326,0.02666l-1.1737,-0.19562h-1.21201c-0.25707,1.76116 -1.66175,3.14989 -3.43064,3.3828c-1.87947,1.24166 -4.06466,1.66316 -7.0842,2.78489c-0.64697,0.24035 -1.19113,0.61363 -1.69902,1.00503c-1.24918,6.59678 3.04034,13.93779 -8.24675,12.99731c-6.89055,-0.57415 -2.56374,-15.58703 -2.49975,-20.49509c0.04126,-3.16496 0.00893,-6.33047 0,-9.49568c-0.00012,-0.04374 -0.0023,-0.08896 -0.00623,-0.1355c-0.12766,-0.3478 -0.2084,-0.71825 -0.23453,-1.10368c-0.00615,-0.09075 -0.00928,-0.18233 -0.00928,-0.27463c0,-0.49639 0.09042,-0.97167 0.25569,-1.41025c-0.47553,-0.65802 -0.75577,-1.46647 -0.75577,-2.34037c0,-0.09804 0.00353,-0.19526 0.01046,-0.29153l-0.19056,-0.3176l-0.12826,-0.42143l-0.2365,-0.37164l-0.25004,-0.75013l-0.01203,-0.15638l-0.07381,-0.13839l-0.21278,-0.85113l-0.20146,-0.60439l-0.04932,-0.64111l-0.15595,-0.6238v-3.75063l0.15595,-0.6238l0.04932,-0.64111l0.20146,-0.60439l0.21278,-0.85113l0.06683,-0.12531c-0.90745,0.03641 -2.61065,0.20475 -3.7837,-0.00655c-0.10241,0 -0.19074,0 -0.19074,0c-0.13494,0 -0.25739,-0.05345 -0.34734,-0.14034c-0.29661,-0.10913 -0.52122,-0.26281 -0.63452,-0.47619c-0.09941,-0.18723 -0.027,-0.36875 0.10959,-0.54967c-0.07942,-0.08851 -0.12773,-0.20552 -0.12773,-0.3338c0,-0.03059 0.00275,-0.06054 0.00801,-0.08961c-0.18355,-0.31172 -0.1484,-0.55879 0.01902,-0.7478c-0.01752,-0.05097 -0.02703,-0.10567 -0.02703,-0.16259c0,-0.11438 0.03841,-0.21979 0.10303,-0.30404l0.59697,-0.79596l0.00553,0.00415c0.00243,-0.00684 0.00486,-0.01367 0.00728,-0.02051l0.01839,-0.01145l-0.00491,-0.00436l0.39834,-0.44813c0.09163,-0.10404 0.22583,-0.16969 0.37537,-0.16969c0.04732,0 0.09311,0.00657 0.1365,0.01886l0.04918,-0.07377c0.65596,-2.66911 2.8884,-5.98217 4.79352,-7.42891l0.43702,-0.38846c0.08851,-0.07941 0.20551,-0.12772 0.33378,-0.12772c0.04316,0 0.08505,0.00547 0.125,0.01575c0.03995,-0.01028 0.08184,-0.01575 0.125,-0.01575c0.02602,0 0.05158,0.00199 0.07653,0.00582c0.2812,-0.30785 0.56278,-0.59714 0.83195,-0.86395z" fill="#a2a2a2"/><path d="M269.42542,127.29106c-3.86702,-0.47544 -6.67903,-0.14474 -10.2044,1.27671c0,0 -0.28301,0.1132 -0.49547,-0.05813c-0.9109,0.9662 -1.72097,2.11696 -2.73686,3.27556l0.01065,0.00426l-0.19569,0.48922c-0.0709,0.1899 -0.25394,0.32512 -0.46856,0.32512c-0.27614,0 -0.5,-0.22386 -0.5,-0.5v-0.50003h0.04355l-0.03453,-0.09455c0.54011,-1.40809 0.85683,-2.46778 1.76577,-3.66855c1.6426,-3.16305 4.87447,-5.68508 8.14016,-7.00183c0,0 0.13163,-0.05265 0.28274,-0.03179c0.001,-0.00133 0.00199,-0.00265 0.00299,-0.00398c0,0 0.11958,-0.15944 0.30841,-0.2015c0.01553,-0.01142 0.03108,-0.02288 0.04664,-0.03439c1.13292,-0.44434 1.87162,-0.05013 2.64934,0.53885c8.1894,0.83507 10.38359,6.00911 9.61687,14.0569c0.24946,1.68251 0.21416,3.56265 -0.03768,4.90886c0.07621,0.26436 0.11704,0.5437 0.11704,0.83259c0,1.65685 -1.34315,3 -3,3c-1.65685,0 -3,-1.34315 -3,-3c0,-0.57153 0.15982,-1.10574 0.43721,-1.56036c-0.06789,-0.83027 0.10052,-1.70425 0.3193,-2.60889c-0.08289,-1.44088 -0.13687,-2.92537 0.16308,-3.77607c-0.41395,-1.95578 -1.2956,-5.02527 -3.23054,-5.66801z" fill="#70803c"/><path d="M277.42608,135.20341c-0.0032,-0.10783 0.03439,-0.23039 0.15695,-0.35295c0.03434,-0.03434 0.06869,-0.06201 0.1027,-0.08398c0.00908,-0.05064 0.0193,-0.09844 0.03057,-0.14365c-0.23356,-0.91762 -0.40028,-2.6234 0.29283,-2.80248c1.63062,-0.42131 3.16689,4.58477 3.41272,5.56256c0,0 0.12127,0.48507 -0.3638,0.60634c-0.48507,0.12127 -0.60634,-0.3638 -0.60634,-0.3638c-0.00271,-0.01091 -0.00543,-0.02182 -0.00817,-0.03273c-0.03441,0.00749 -0.07014,0.01143 -0.1068,0.01143c-0.13807,0 -0.26307,-0.05596 -0.35355,-0.14645l-0.17969,-0.17969c-0.85209,-0.18252 -2.01765,-0.42576 -2.19011,-0.59241c-0.6979,-0.6744 -0.60542,-1.19682 -0.18732,-1.48218zM279.61386,135.2099c-0.00373,-0.00809 -0.00747,-0.01618 -0.01122,-0.02426c-0.00243,0.00623 -0.00499,0.01241 -0.00766,0.01852c0.0063,0.0019 0.01259,0.00381 0.01887,0.00574z" fill="#3f4822"/><path d="M271.41497,128.43713c0.61986,0.64153 1.12828,3.27067 0.39756,3.71201c-0.6207,0.37489 -1.53423,-0.11852 -2.14923,-0.20591c-1.5361,-0.21829 -2.83949,0.0042 -4.3552,0.37253c-0.16182,0.03932 -0.3727,0.10721 -0.60391,0.17159c-0.46817,0.41677 -1.54984,0.64371 -1.82462,0.95107c-0.6255,0.69966 -1.074,1.49914 -1.60238,2.26766l0.11363,0.05775l-0.4163,0.81904c-0.06355,0.12691 -0.18042,0.22607 -0.32914,0.26221c-0.26833,0.06521 -0.53872,-0.09946 -0.60393,-0.36779c-0.01645,-0.06768 -0.01827,-0.1355 -0.00749,-0.20011l0.07468,-0.5219c0.20573,-1.368 0.84883,-2.74305 1.39894,-4.00614c0.6544,-0.85563 1.86751,-2.20248 2.97051,-2.71403c0.04356,-0.04716 0.08182,-0.08304 0.11343,-0.10575c1.53976,-1.10605 4.58289,-1.23664 6.38574,-1.27224c0,0 0.4999,-0.00986 0.50976,0.49005c0.00246,0.12465 -0.02678,0.21883 -0.07205,0.28998zM268.00909,131.0419c0.00508,0.00015 0.01016,0.00031 0.01524,0.00047c0.00024,-0.00145 0.00049,-0.0029 0.00074,-0.00435zM263.05861,131.4717c0.01687,-0.04558 0.03495,-0.09212 0.05411,-0.13945c-0.06047,0.07057 -0.11866,0.13977 -0.17417,0.20674c0.03937,-0.02309 0.07944,-0.04557 0.12005,-0.06728z" fill="#3f4822"/><path d="M282.14786,144.40615c0.28182,-0.01164 0.55975,0.17422 0.75609,0.68675c0.424,1.10683 -1.19457,1.90833 -1.74377,0.87766c-0.36163,-0.26163 -0.51384,-0.68776 -0.05046,-1.13511c0.07799,-0.11627 0.18866,-0.19695 0.3168,-0.24561c0.09516,-0.06113 0.20303,-0.12217 0.32462,-0.18276c0,0 0.20477,-0.08191 0.39671,-0.00093z" fill="#222612"/><path d="M287.43891,150.75116c-0.15489,-0.15817 -0.34773,-0.31941 -0.55526,-0.52595c0,0 -0.01991,-0.01991 -0.04556,-0.05501c-0.02887,-0.01144 -0.05774,-0.02288 -0.0866,-0.03432c0,0 -0.46424,-0.1857 -0.27854,-0.64993c0.1857,-0.46424 0.64993,-0.27854 0.64993,-0.27854c0.17884,0.07211 0.35768,0.14422 0.53652,0.21633l0.5351,0.3192c0,0 0.07271,0.04363 0.14028,0.12489c0.01864,0.0149 0.03734,0.03162 0.05603,0.05031c0.22562,0.22562 0.16328,0.45125 0.08862,0.58499c0.28434,0.43116 0.38099,0.89922 0.21429,1.67277l-0.09323,0.06833l0.03678,0.02759l-0.29653,0.39537c-0.09098,0.12409 -0.23783,0.20466 -0.40349,0.20466c-0.27614,0 -0.5,-0.22386 -0.5,-0.5v-0.50003h0.08421c-0.06075,-0.36349 -0.07789,-0.71209 -0.08255,-1.12063z" fill="#404721"/><path d="M211.59442,215.21482c0.09779,0.07295 0.03261,-0.00341 -0.07836,-0.13189c-0.00927,0.04916 -0.02573,0.09578 -0.04825,0.13872c0.06588,-0.01653 0.10941,-0.01966 0.1266,-0.00683zM206.79905,217.1931c-0.12327,0.01769 -0.23679,0.03843 -0.3389,0.06292c0.00986,-0.00053 0.0195,-0.00109 0.0289,-0.00169c0.08087,-0.00516 0.18579,-0.02658 0.31,-0.06122zM209.95073,217.0418c-1.94966,1.11257 -4.74673,2.02654 -6.62948,1.21126h-0.08638l-0.09203,0.18407l-0.46402,-0.23201c-0.15434,-0.07316 -0.26523,-0.22303 -0.28344,-0.40037c-0.3829,-0.1388 -0.67327,-0.44118 -0.71101,-1.04589c-0.04799,-0.76904 2.1212,-1.34329 2.60845,-1.64479c1.46276,-0.90512 2.77637,-2.07918 4.13612,-3.12497c0.37041,-0.28488 1.1837,-1.0273 1.72979,-1.04492c0.04244,-0.13502 0.14767,-0.28189 0.40055,-0.31801c0.49497,-0.07071 0.56569,0.42426 0.56569,0.42426c0.17891,1.33587 0.84417,2.61473 1.51651,3.76732c0.1335,0.22886 0.64448,1.31571 0.57666,1.40247c-0.47227,0.60417 -1.83922,0.76019 -3.26739,0.82158zM212.37087,215.83816c0.02316,0.00545 0.0261,-0.00315 0.01346,-0.02291c-0.00433,0.00773 -0.00882,0.01537 -0.01346,0.02291z" fill="#404721"/><path d="M263.5389,221.77901c0.09306,-0.02469 0.18605,-0.05003 0.27895,-0.07591c-0.00208,-0.00344 -0.00411,-0.00691 -0.00611,-0.0104c-0.09247,0.0286 -0.18384,0.05721 -0.27284,0.08631zM266.62884,213.88504c0.04628,-0.11122 0.14329,-0.2188 0.33834,-0.26757c0.48507,-0.12127 0.60634,0.3638 0.60634,0.3638c0.40535,1.6787 1.91163,3.0645 2.78554,4.5215c0.10079,0.16805 0.39608,0.59367 0.62926,1.00328c0.07405,0.07141 0.12612,0.16546 0.14507,0.271c0.11773,0.23799 0.1905,0.44687 0.15933,0.56379c-0.31346,1.17589 -3.88264,1.37852 -5.01918,1.66526c-1.87204,0.56192 -3.83323,1.2855 -5.80104,1.04027c-0.27062,-0.03373 -1.40642,-0.1963 -1.46768,-0.3121c-0.35661,-0.67423 0.64001,-1.42795 0.99937,-1.69336c0.66972,-0.49463 1.71031,-0.94968 2.32534,-1.63681c0.01065,-0.07938 0.03993,-0.15286 0.0833,-0.21589l0.31201,-0.46802l0.02204,0.01469c0.44184,-0.99559 0.61555,-1.75836 1.55689,-2.55405c0.26466,-0.26292 0.51895,-0.4798 0.76361,-0.65422c0.07387,-0.13931 0.21168,-0.23952 0.37431,-0.26154c0.08673,-0.88008 0.38929,-1.62485 1.18713,-1.38003z" fill="#404721"/></g></g></svg>