<svg version="1.1" xmlns="http://www.w3.org/2000/svg" xmlns:xlink="http://www.w3.org/1999/xlink" width="115.80953" height="81.96407" viewBox="0,0,115.80953,81.96407"><g transform="translate(-174.64886,-138.68338)"><g data-paper-data="{&quot;isPaintingLayer&quot;:true}" fill-rule="nonzero" stroke="none" stroke-linecap="butt" stroke-linejoin="miter" stroke-miterlimit="10" stroke-dasharray="" stroke-dashoffset="0" style="mix-blend-mode: normal"><g fill="#8a5454" stroke-width="0"><path d="M209.3046,186.98505c2.00345,5.56959 2.04949,10.65229 0.10285,11.35253c-1.94665,0.70023 -5.14885,-3.24716 -7.1523,-8.81675c-2.00345,-5.56959 -2.04949,-10.65229 -0.10283,-11.35253c1.94665,-0.70023 5.14884,3.24716 7.15229,8.81676z"/><path d="M211.19052,203.78338c0,4.72703 -1.30438,8.55905 -2.91343,8.55905c-1.60905,0 -2.91342,-3.83202 -2.91342,-8.55905c0,-4.72703 1.30438,-8.55904 2.91342,-8.55904c1.60904,0 2.91343,3.83201 2.91343,8.55904z"/><path d="M212.11074,213.26051c-0.29172,0.30252 -1.26394,-0.16168 -2.1715,-1.03683c-0.90756,-0.87516 -1.40681,-1.82986 -1.11509,-2.13238c0.29172,-0.30252 1.26394,0.16169 2.1715,1.03685c0.90756,0.87516 1.40681,1.82985 1.11509,2.13236z"/><path d="M210.8328,214.02705c-0.29051,0.30127 -1.25869,-0.16102 -2.1625,-1.03255c-0.9038,-0.87153 -1.40099,-1.82227 -1.11048,-2.12354c0.29051,-0.30127 1.2587,0.16102 2.1625,1.03255c0.9038,0.87153 1.40098,1.82227 1.11048,2.12354z"/></g><g fill="#8a5454" stroke-width="0"><path d="M252.18103,184.65165c2.00345,5.56959 2.04949,10.65229 0.10285,11.35253c-1.94665,0.70023 -5.14885,-3.24716 -7.1523,-8.81675c-2.00345,-5.56959 -2.04949,-10.65229 -0.10283,-11.35253c1.94665,-0.70023 5.14884,3.24716 7.15229,8.81676z"/><path d="M254.06695,201.44998c0,4.72703 -1.30438,8.55905 -2.91343,8.55905c-1.60904,0 -2.91342,-3.83202 -2.91342,-8.55905c0,-4.72703 1.30438,-8.55904 2.91342,-8.55904c1.60904,0 2.91343,3.83201 2.91343,8.55904z"/><path d="M254.98717,210.92711c-0.29172,0.30252 -1.26394,-0.16168 -2.17151,-1.03683c-0.90756,-0.87516 -1.4068,-1.82986 -1.11509,-2.13238c0.29171,-0.30252 1.26393,0.16169 2.1715,1.03685c0.90756,0.87516 1.40681,1.82985 1.11509,2.13236z"/><path d="M253.70924,211.69365c-0.29051,0.30127 -1.25869,-0.16102 -2.16249,-1.03255c-0.9038,-0.87153 -1.40099,-1.82227 -1.11048,-2.12354c0.29051,-0.30127 1.2587,0.16102 2.1625,1.03255c0.90381,0.87153 1.40098,1.82227 1.11047,2.12354z"/></g><g stroke-width="0"><path d="M248.11958,193.51337c2.00345,5.56959 2.04949,10.65229 0.10284,11.35253c-1.94665,0.70023 -5.14885,-3.24716 -7.1523,-8.81675c-2.00345,-5.56959 -2.04949,-10.65229 -0.10284,-11.35253c1.94665,-0.70023 5.14884,3.24716 7.15229,8.81675z" fill="#c27676"/><path d="M250.0055,210.31171c0,4.72703 -1.30438,8.55905 -2.91343,8.55905c-1.60904,0 -2.91343,-3.83202 -2.91343,-8.55905c0,-4.72703 1.30438,-8.55904 2.91343,-8.55904c1.60904,0 2.91343,3.83201 2.91343,8.55904z" fill="#c27676"/><path d="M250.92571,219.78883c-0.29172,0.30252 -1.26393,-0.16168 -2.1715,-1.03684c-0.90757,-0.87516 -1.40681,-1.82986 -1.11509,-2.13238c0.29172,-0.30252 1.26393,0.16169 2.1715,1.03685c0.90757,0.87516 1.40681,1.82985 1.11509,2.13237z" fill="#8a7454"/><path d="M249.64778,220.55537c-0.29051,0.30127 -1.25869,-0.16102 -2.1625,-1.03255c-0.90381,-0.87153 -1.40098,-1.82227 -1.11048,-2.12354c0.29051,-0.30127 1.25869,0.16102 2.1625,1.03255c0.90381,0.87153 1.40098,1.82227 1.11048,2.12354z" fill="#ad916a"/></g><g fill="#c27676" stroke-width="0"><path d="M258.71264,155.09104c1.06525,5.12726 -14.32759,12.6612 -34.38089,16.82752c-20.0533,4.16632 -37.17326,3.38733 -38.23851,-1.73994c-1.06525,-5.12726 14.32759,-12.6612 34.38089,-16.82752c20.0533,-4.16632 37.17326,-3.38733 38.23851,1.73994z"/><path d="M265.3414,164.67826c2.01045,4.83546 -11.69099,15.12966 -30.60302,22.99274c-18.91203,7.86308 -35.87306,10.31745 -37.8835,5.48199c-2.01045,-4.83546 11.691,-15.12966 30.60303,-22.99274c18.91203,-7.86308 35.87305,-10.31745 37.88349,-5.48199z"/><path d="M262.20741,169.05544c-3.63897,12.13409 -24.76225,23.74379 -47.18018,25.93099c-22.41793,2.1872 -37.64129,-5.87633 -34.00232,-18.01042c3.63897,-12.13409 24.76225,-23.74379 47.18018,-25.93099c22.41793,-2.1872 37.64129,5.87633 34.00232,18.01042z"/></g><g><path d="M290.20422,158.33797c0,9.44995 -9.73246,17.11065 -21.73806,17.11065c-12.00559,0 -21.73805,-7.6607 -21.73805,-17.11065c0,-9.44995 9.73246,-17.11064 21.73805,-17.11064c12.00559,0 21.73806,7.66069 21.73806,17.11064z" fill="#bb7272" stroke-width="0"/><path d="M288.41341,169.97808c-2.40478,4.23894 -6.49148,6.46281 -9.12789,4.96715c-2.63641,-1.49565 -2.82419,-6.14447 -0.41941,-10.38341c2.40478,-4.23894 6.49148,-6.46281 9.12789,-4.96715c2.63641,1.49565 2.82419,6.14447 0.41941,10.38341z" fill="#8f5757" stroke-width="0"/><path d="M282.78249,172.11275c-0.7559,-0.37794 -0.37795,-1.13384 -0.37795,-1.13384l0.31301,-0.62275c0.82363,-1.91367 1.93923,-3.4148 1.93504,-5.56589c0,0 0,-0.84512 0.84512,-0.84512c0.84512,0 0.84512,0.84512 0.84512,0.84512c-0.00422,2.43312 -1.15268,4.07706 -2.0717,6.23171l-0.35478,0.71283c0,0 -0.37794,0.75589 -1.13384,0.37794z" fill="#000000" stroke-width="0.5"/><path d="M285.06037,172.88648c-0.52794,-0.65993 0.13198,-1.18787 0.13198,-1.18787l0.48685,-0.38285c1.79122,-1.79122 2.50287,-3.6002 3.11665,-6.06268c0,0 0.20497,-0.81989 1.02485,-0.61492c0.81988,0.20497 0.61492,1.02486 0.61492,1.02486c-0.68883,2.74767 -1.55242,4.83909 -3.56124,6.84791l-0.62614,0.50753c0,0 -0.65992,0.52794 -1.18786,-0.13198z" fill="#000000" stroke-width="0.5"/><path d="M270.7399,153.77387c0.40812,-0.40812 0.81623,-0.2588 1.034,-0.12308c0.12675,-0.07255 0.23339,-0.09922 0.23339,-0.09922c0.71329,-0.14831 4.48172,0.3439 4.32938,1.7976c-0.33789,3.22404 -4.49929,0.61356 -5.41484,-0.20027l-0.18192,-0.17986c0,0 -0.59759,-0.59758 0,-1.19517z" fill="#d0a472" stroke-width="0.5"/><path d="M273.32054,154.76024c0,-0.23337 0.18919,-0.42256 0.42256,-0.42256c0.0953,0 0.18324,0.03156 0.25393,0.08478c0.07746,-0.09616 0.19616,-0.15767 0.32924,-0.15767c0.12797,0 0.24265,0.05688 0.32014,0.14674c0.2137,0.01426 0.38393,0.1874 0.39358,0.40234c0.02588,0.0379 0.04574,0.08023 0.05823,0.12561c0.05517,0.0714 0.088,0.16094 0.088,0.25815c0,0.01228 -0.00053,0.02444 -0.00156,0.03645c0.00102,0.01201 0.00156,0.02417 0.00156,0.03645c0,0.15406 -0.08246,0.28888 -0.20565,0.36271c-0.07074,0.11802 -0.19744,0.19865 -0.34343,0.20521c-0.06778,0.04627 -0.14971,0.07333 -0.23797,0.07333c-0.19242,0 -0.35481,-0.12863 -0.40587,-0.30459c-0.03339,0.00848 -0.06838,0.013 -0.10441,0.013c-0.22378,0 -0.40692,-0.17395 -0.4216,-0.39401c-0.08986,-0.07749 -0.14675,-0.19216 -0.14675,-0.32013c0,-0.02485 0.00215,-0.04922 0.00626,-0.0729c-0.00412,-0.02368 -0.00626,-0.04804 -0.00626,-0.0729z" fill-opacity="0.6549" fill="#174a00" stroke-width="0.5"/><path d="M273.46633,155.12473c0,-0.03781 0.00498,-0.07447 0.01429,-0.10935c-0.00931,-0.03488 -0.01429,-0.07153 -0.01429,-0.10934c0,-0.02485 0.00216,-0.04922 0.00627,-0.0729c-0.00412,-0.02368 -0.00627,-0.04804 -0.00627,-0.0729c0,-0.19447 0.13137,-0.35825 0.3102,-0.40746c0.0714,-0.05517 0.16094,-0.08799 0.25816,-0.08799c0.13469,0 0.25465,0.06301 0.33203,0.16116c0.011,0.00306 0.02183,0.00655 0.03245,0.01045c0.04544,-0.01671 0.09456,-0.02583 0.1458,-0.02583c0.11306,0 0.21575,0.0444 0.29158,0.11673c0.05393,0.05143 0.09427,0.11698 0.1151,0.19073c0.17743,0.05012 0.30745,0.21322 0.30745,0.4067c0,0.03781 -0.00497,0.07446 -0.01428,0.10934c0.00931,0.03488 0.01428,0.07154 0.01428,0.10935c0,0.18828 -0.12313,0.34779 -0.29326,0.40241c-0.01918,0.21561 -0.20028,0.38463 -0.42088,0.38463c-0.20077,0 -0.36885,-0.14002 -0.41188,-0.32774c-0.05236,0.02325 -0.11032,0.03615 -0.1713,0.03615c-0.23337,0 -0.42256,-0.18919 -0.42256,-0.42256c0,-0.01692 0.00099,-0.0336 0.00292,-0.05c-0.04779,-0.06847 -0.07582,-0.15175 -0.07582,-0.24159z" fill="#174a00" stroke-width="0.5"/><path d="M270.7319,153.07509l0.00319,-0.00557l0.01209,-0.00303c0.05666,-0.03033 0.12102,-0.04813 0.18941,-0.04968l0.03536,-0.00884h0.05202l0.05047,-0.01262h2.36929l0.0659,0.01647l0.06773,0.00521l0.01259,0.0042l0.04775,0.01193l0.05671,0.00436l0.00319,-0.00212l0.01185,0.00263h0.01177l0.08085,0.02022l0.00226,-0.0015l0.01184,0.00263h0.01178l0.09419,0.02355l0.09478,0.02106l0.01053,0.00527l0.01178,0.00294l0.00131,0.00231l0.02674,0.00891h0.03193l0.00395,-0.00263l0.01185,0.00263h0.01177l0.0942,0.02355l0.09478,0.02106l0.01053,0.00527l0.01177,0.00294l0.00132,0.00231l0.02775,0.00925l0.02566,0.01633l0.02105,0.00468h0.01177l0.09419,0.02354l0.09478,0.02107l0.01054,0.00527l0.01177,0.00294l0.00235,0.00412l0.01803,0.00901l0.02027,0.01738l0.02514,0.00898l0.03435,0.02289l0.09196,0.023l0.0071,0.01243l0.01601,0.00571l0.01695,0.0113l0.01034,0.00346l0.02567,0.01633l0.02969,0.00659l0.03884,0.01943h0.00697l0.0942,0.02354l0.09478,0.02106l0.00854,0.00427l0.07685,0.01708l0.01053,0.00527l0.01177,0.00294l0.00236,0.00412l0.01803,0.00902l0.02027,0.01738l0.02515,0.00898l0.06403,0.04269l0.02364,0.026l0.02993,0.01905l0.05315,0.01898l0.04215,0.0281l0.23261,0.11631l0.02027,0.01738l0.02514,0.00898l0.06403,0.0427l0.02831,0.03114l0.03609,0.02165l0.17556,0.17556l0.08845,0.07076l0.01442,0.01892l0.0204,0.01225l0.04269,0.04269l0.00485,0.00807l0.00785,0.00519l0.22859,0.24938l0.07889,0.07888l0.03495,0.05825l0.04421,0.05158l0.00958,0.01916l0.00489,0.00733l0.03445,0.03446l0.02165,0.03609l0.03114,0.02831l0.04269,0.06403l0.00898,0.02514l0.01738,0.02027l0.06403,0.12807l0.00389,0.0175l0.0105,0.01454l0.03616,0.09041l0.00115,0.00231l0.00412,0.00236l0.00294,0.01177l0.00527,0.01053l0.02107,0.09478l0.02354,0.0942v0.01177l0.00263,0.01185l-0.00263,0.00395v0.27126l-0.01647,0.0659l-0.00521,0.06773l-0.01621,0.04864l-0.01741,0.06964l-0.02191,0.04106l-0.01009,0.04543l-0.00527,0.01053l-0.00929,0.03715l-0.00521,0.06773l-0.02134,0.06403l-0.01633,0.02566l-0.0066,0.02969l-0.02926,0.05852l-0.01185,0.03555l-0.03031,0.04761l-0.01898,0.05315l-0.00209,0.00314l-0.00359,0.01438l-0.00113,0.00212l0.00203,0.00744l-0.05399,0.09l-0.04939,0.09261l-0.00743,0.00209l-0.00123,0.00205l-0.00279,0.0028l-0.00344,0.01546l-0.02135,0.04269l-0.01738,0.02027l-0.00898,0.02515l-0.0281,0.04215l-0.03092,0.06185l-0.02245,0.0262l-0.00117,0.02104l-0.05603,0.04803l-0.00573,0.01145l-0.04421,0.05158l-0.03495,0.05825l-0.08538,0.08538l-0.05825,0.03495l-0.05157,0.04421l-0.04724,0.02362l-0.02926,0.01755l-0.05158,0.04421l-0.04269,0.02134l-0.02381,0.00529l-0.01043,0.00626l-0.00226,-0.00062l-0.01885,0.01199l-0.01035,0.00345l-0.01695,0.0113l-0.07732,0.02762l-0.0742,0.03515l-0.07694,0.01539l-0.02172,0.01382l-0.06403,0.02135l-0.01652,0.00128l-0.01462,0.00779l-0.08537,0.02135h-0.05203l-0.05046,0.01262h-0.08084l-0.06302,0.021l-0.06773,0.00521l-0.06589,0.01647h-1.0886l-0.05046,-0.01262h-0.05203l-0.069,-0.01725l-0.07693,-0.01282h-0.0931l-0.05046,-0.01262h-0.05203l-0.03491,-0.00873h-0.03336l-0.0659,-0.01647l-0.06332,-0.00488h-0.0202l-0.07764,-0.0194l-0.0793,-0.01082l-0.08009,-0.03204l-0.05756,-0.01439l-0.0583,-0.03109l-0.02966,0.00205l-0.04753,-0.04321l-0.05667,-0.03022l-0.00805,-0.02862l-0.00061,-0.00055l-0.04272,-0.01709l-0.00082,0.00022l-0.00276,-0.00166l-0.04213,-0.01685l-0.06894,-0.04979l-0.02005,-0.01203l-0.0077,-0.00154l-0.06535,-0.03096l-0.06918,-0.02106l-0.06695,-0.04017l-0.02003,-0.00668l-0.06274,-0.03992l-0.0676,-0.03099l-0.03906,-0.03124l-0.05536,-0.02953l-0.06811,-0.02432l-0.04215,-0.02809l-0.06185,-0.03093l-0.02027,-0.01738l-0.02514,-0.00898l-0.01695,-0.0113l-0.01035,-0.00345l-0.08191,-0.05213l-0.08326,-0.04995l-0.00832,-0.00832l-0.01024,-0.00652l-0.00049,-0.00246l-0.02054,-0.01027l-0.02619,-0.02245l-0.02105,-0.00117l-0.05451,-0.0636l-0.04943,-0.04237l-0.02267,-0.0136l-0.04034,-0.04035l-0.02582,-0.01643l-0.08325,-0.04995l-0.00833,-0.00832l-0.01023,-0.00652l-0.00093,-0.00466l-0.10858,-0.10857l-0.01859,-0.03099l-0.00238,-0.00159l-0.00808,-0.00889l-0.01106,-0.00466l-0.08538,-0.06403l-0.01918,-0.0236l-0.00452,-0.00271l-0.00167,-0.00009l-0.00161,-0.00188l-0.01828,-0.01097l-0.04269,-0.04269l-0.03495,-0.05825l-0.0442,-0.05158l-0.03195,-0.06387l-0.00429,-0.00121l-0.04939,-0.09261l-0.02448,-0.04081l-0.03703,-0.03173l-0.00179,-0.03227l-0.04476,-0.07033l-0.00906,-0.02718l-0.02419,-0.04032l-0.05213,-0.08191l-0.00047,-0.00142l-0.00417,-0.00417l-0.03201,-0.05336l-0.03202,-0.03202l-0.01361,-0.02267l-0.00151,-0.00177l-0.00227,-0.00455l-0.00426,-0.0071l-0.03114,-0.02831l-0.0427,-0.06403l-0.00346,-0.0097l-0.00728,-0.00728l-0.03727,-0.06212l-0.00591,-0.00591l-0.03201,-0.05336l-0.03202,-0.03201l-0.00123,-0.00206l-0.00743,-0.00209l-0.04939,-0.09261l-0.05399,-0.08999l0.00203,-0.00745l-0.00113,-0.00212l-0.02134,-0.08538v-0.04269l-0.0101,-0.04038l-0.0006,-0.0012l-0.0024,-0.01082l-0.00825,-0.03298v-0.00412l-0.01041,-0.04686l-0.02355,-0.0942v-0.01177l-0.00263,-0.01185l0.00263,-0.00395v-0.01512l-0.02134,-0.08538v-0.01177l-0.00264,-0.01185l0.00264,-0.00395v-0.45714l-0.00264,-0.00395l0.00264,-0.01185v-0.01177l0.02354,-0.0942l0.02106,-0.09478l0.00527,-0.01053l0.00294,-0.01177l0.00412,-0.00236l0.0071,-0.01419v-0.00697l0.02135,-0.08537v-0.02135l0.05282,-0.21128l0.08022,-0.04584c0.01968,-0.12747 0.09633,-0.23613 0.20312,-0.29915zM271.15547,154.44247l0.02134,0.08538v0.00921l0.00873,0.01637l0.02135,0.08538v0.04269l0.00008,0.0003l0.01684,0.01684l0.01361,0.02267l0.00151,0.00177l0.00227,0.00455l0.00937,0.01562l0.03679,0.03679l0.05885,0.0981l0.01391,0.02086l0.0131,0.0131l0.03202,0.05336l0.03201,0.03202l0.01361,0.02267l0.00151,0.00177l0.00227,0.00455l0.00426,0.0071l0.03114,0.02831l0.0427,0.06403l0.01898,0.05315l0.0303,0.04762l0.00187,0.00559l0.03925,0.04579l0.01059,0.02119l0.00429,0.00121l0.01793,0.03363l0.02894,0.0248l0.00183,0.03288l0.05379,0.10086l0.00148,0.00593l0.03056,0.03565l0.02796,0.05592l0.03035,0.02277l0.04963,0.03309l0.00647,0.00035l0.07114,0.083l0.02443,0.02688l0.07138,0.07138l0.02582,0.01642l0.08325,0.04995l0.00832,0.00832l0.01024,0.00652l0.00093,0.00466l0.03086,0.03086l0.01514,0.00085l0.04803,0.05603l0.01145,0.00572l0.05158,0.04421l0.05825,0.03495l0.01531,0.01532l0.04836,0.01727l0.04214,0.0281l0.06185,0.03092l0.02027,0.01738l0.02514,0.00898l0.00314,0.00209l0.01438,0.00359l0.07953,0.04242l0.08195,0.03756l0.02305,0.01844l0.00763,0.00407l0.00074,0.00263l0.03028,0.02422l0.01798,0.01144l0.04452,0.01355l0.04396,0.02638l0.03495,0.00699l0.01536,0.00728l0.01382,-0.00377l0.08161,0.04897l0.08602,0.04074l0.00453,0.01358l0.01458,0.00875l0.0027,0.0027l0.02619,0.01048l0.01454,0.0105l0.0175,0.0039l0.0804,0.04019l0.00646,-0.00045l0.07899,0.07181l0.01557,0.00212l0.03117,0.01247h0.00401l0.06589,0.01648l0.06332,0.00487h0.02021l0.05046,0.01262h0.05202l0.03492,0.00873h0.07604l0.03427,0.00856l0.0352,-0.00281l0.12807,0.02135l0.0158,0.00686h0.01722l0.03491,0.00873h0.96801l0.06302,-0.021l0.06772,-0.00521l0.0659,-0.01647h0.09739l0.01918,-0.00479l0.02015,-0.00672l0.01583,-0.00792l0.0551,-0.01224l0.051,-0.02416l0.03562,-0.00712l0.03677,-0.01313l0.04761,-0.03031l0.02718,-0.00906l0.01531,-0.00919l0.05157,-0.0442l0.01632,-0.00816l0.00816,-0.01632l0.02245,-0.02619l0.00117,-0.02105l0.05603,-0.04803l0.00572,-0.01145l0.01738,-0.02027l0.00898,-0.02514l0.02553,-0.0383l0.00185,-0.00554l-0.00125,-0.00458l0.00625,-0.0104l0.00372,-0.01117l0.05213,-0.08192l0.04313,-0.07189l0.01509,-0.02828l0.02432,-0.06811l0.0113,-0.01694l0.00345,-0.01035l0.01633,-0.02566l0.0066,-0.02969l0.02661,-0.05323l0.00929,-0.03715l0.00521,-0.06773l0.02135,-0.06403l0.01547,-0.02431l0.00505,-0.02022l0.00241,-0.01082l0.0006,-0.0012l0.01009,-0.04038l0.0078,-0.01462l0.00093,-0.01211v-0.1416l-0.02729,-0.06821l-0.0444,-0.08882l-0.00489,-0.00734l-0.03445,-0.03445l-0.02165,-0.03609l-0.03114,-0.02831l-0.04269,-0.06403l-0.00542,-0.01515l-0.04852,-0.04852l-0.00484,-0.00807l-0.00785,-0.00519l-0.22859,-0.24937l-0.01965,-0.01965l-0.08845,-0.07076l-0.01443,-0.01893l-0.0204,-0.01224l-0.16252,-0.16252l-0.00734,-0.00489l-0.23261,-0.11631l-0.02027,-0.01738l-0.02514,-0.00898l-0.01695,-0.0113l-0.01034,-0.00345l-0.08192,-0.05213l-0.08325,-0.04995l-0.00573,-0.00573l-0.04477,-0.01119h-0.05202l-0.08538,-0.02135l-0.04106,-0.0219l-0.04543,-0.0101l-0.05852,-0.02926l-0.03555,-0.01185l-0.04762,-0.0303l-0.05315,-0.01898l-0.00609,-0.00407l-0.05521,-0.01227l-0.01053,-0.00527l-0.01178,-0.00294l-0.00235,-0.00412l-0.01803,-0.00902l-0.02027,-0.01738l-0.02515,-0.00898l-0.02154,-0.01436l-0.00902,-0.00225l-0.09478,-0.02107l-0.00854,-0.00427l-0.07685,-0.01707l-0.01053,-0.00527l-0.01177,-0.00295l-0.00132,-0.0023l-0.02673,-0.00892h-0.03193l-0.00396,0.00264l-0.01184,-0.00264h-0.01178l-0.09419,-0.02354l-0.09478,-0.02106l-0.01053,-0.00527l-0.01178,-0.00294l-0.00131,-0.0023l-0.02775,-0.00925l-0.01653,-0.01052l-0.04195,-0.01049h-0.04269l-0.0659,-0.01647l-0.06773,-0.00521l-0.01259,-0.0042l-0.04775,-0.01194l-0.06332,-0.00487h-2.15904v0.00434l-0.02355,0.09419l-0.02106,0.09478l-0.00527,0.01054l-0.00294,0.01177l-0.00412,0.00235l-0.00709,0.01419z" fill="#000000" stroke-width="0.5"/><path d="M268.07514,149.41847l-0.453,0.38915c0,0 -0.14798,0.12332 -0.32737,0.10352c-1.04401,1.76897 -2.75086,3.37233 -3.91959,4.53613c-0.36422,0.26125 -0.70745,0.54084 -1.07078,0.79931l0.01957,0.02922c0,0 0.23439,0.35159 -0.1172,0.58598c-0.35159,0.23439 -0.58598,-0.1172 -0.58598,-0.1172l-0.01567,-0.02359c-0.11633,0.02665 -0.26776,0.01255 -0.4021,-0.15537c-0.17967,-0.22459 -0.08418,-0.41861 -0.00487,-0.51962c-0.26308,-0.46972 -0.56693,-0.90893 -0.85345,-1.36945c-0.94063,-2.19856 -2.86784,-3.86655 -4.5229,-5.54958c-0.40347,-0.41028 -2.37195,-1.17288 -2.0522,-2.04193c0.1282,-0.34843 1.40699,-0.53641 1.75577,-0.6236c3.70619,-0.92654 7.76582,-0.50974 11.57122,-0.5008c0.01405,-0.00985 0.02916,-0.01944 0.0454,-0.02872c0.36688,-0.20965 0.57653,0.15724 0.57653,0.15724c0.29732,0.53696 0.45054,1.08009 0.48904,1.62268c0.48555,0.85394 0.30431,1.84593 -0.1324,2.70663zM262.82892,153.80243c0.29842,-0.29983 0.66349,-0.65131 1.05599,-1.04245c-0.05748,0.03406 -0.13198,0.05613 -0.22856,0.05613c-0.42256,0 -0.42256,-0.42256 -0.42256,-0.42256v-0.27691c0,-1.35371 -0.10354,-2.70396 -0.11043,-4.05138c-1.16942,-0.14439 -2.34433,-0.29278 -3.54811,-0.40136c0,0 -0.42082,-0.03826 -0.38257,-0.45908c0.03826,-0.42082 0.45908,-0.38257 0.45908,-0.38257c2.62235,0.24016 5.10326,0.66672 7.69302,0.82398c0.04061,-0.22258 0.06096,-0.44465 0.05798,-0.66529c-0.0192,-0.06183 -0.03145,-0.14126 -0.01116,-0.22366c-0.02802,-0.32188 -0.10837,-0.64 -0.25062,-0.95144c-3.74512,-0.00597 -7.76192,-0.4367 -11.41065,0.47549c-0.11716,0.02929 -0.6684,0.26377 -0.97318,0.2414c0.53361,0.37687 1.96557,1.4326 2.13233,1.5994c1.59228,1.59257 3.29725,3.05034 4.20412,5.16281c0.26092,0.41506 0.53376,0.81318 0.77676,1.23375c0.32383,-0.23303 0.63135,-0.48359 0.95855,-0.71626zM263.96865,148.1684c0.00829,1.3122 0.11026,2.63001 0.11026,3.94825v0.27691c0,0 0,0.12756 -0.07009,0.24251c1.15587,-1.16022 2.50872,-2.64474 3.09651,-4.15959c-1.0567,-0.07053 -2.09676,-0.18353 -3.13668,-0.30808z" fill="#8b5454" stroke-width="0.5"/><path d="M267.15869,148.41095c-0.58778,1.51484 -2.04172,3.13465 -3.19759,4.29487c0.07009,-0.11495 0.06788,-0.24407 0.06788,-0.24407l-0.00482,-0.28072c0,-1.31824 -0.09578,-2.7696 -0.10407,-4.0818c1.03992,0.12455 2.1819,0.24119 3.23861,0.31172z" data-paper-data="{&quot;noHover&quot;:false,&quot;origItem&quot;:[&quot;Path&quot;,{&quot;applyMatrix&quot;:true,&quot;segments&quot;:[[[263.96865,148.1684],[1.03992,0.12455],[0.00829,1.3122]],[[264.07891,152.11665],[0,-1.31824],[0,0]],[264.07891,152.39356],[[264.00882,152.63607],[0.07009,-0.11495],[1.15587,-1.16022]],[[267.10533,148.47648],[-0.58778,1.51484],[-1.0567,-0.07053]]],&quot;closed&quot;:true}]}" fill="#a96565" stroke-width="0.5"/><path d="M261.88527,154.60188c-0.243,-0.42057 -0.53039,-0.81737 -0.79131,-1.23243c-0.90687,-2.11247 -2.68857,-3.69095 -4.28085,-5.28352c-0.16677,-0.1668 -1.59587,-1.22802 -2.12948,-1.60489c0.30478,0.02236 0.8608,-0.2196 0.97796,-0.24889c3.64873,-0.91219 7.80317,-0.48121 11.54829,-0.47524c0.14226,0.31144 0.22833,0.63885 0.25635,0.96073c-0.02029,0.0824 -0.00693,0.16399 0.01227,0.22582c0.00297,0.22064 -0.17177,0.51111 -0.21239,0.73369c-2.58976,-0.15725 -4.95833,-0.53723 -7.58068,-0.77739c0,0 -0.40845,-0.0449 -0.44671,0.37592c-0.03826,0.42082 0.29221,0.31625 0.29221,0.31625c1.20379,0.10858 2.48274,0.26918 3.65216,0.41357c0.00688,1.34743 0.11249,2.81506 0.11249,4.16877l-0.00385,0.28077c0,0 -0.11623,0.29984 0.30633,0.29984c0.09658,0 0.29076,0.0972 0.34824,0.06314c-0.3925,0.39114 -0.78282,0.76095 -1.08125,1.06078c-0.3272,0.23267 -0.65598,0.49004 -0.97981,0.72307z" data-paper-data="{&quot;noHover&quot;:false,&quot;origItem&quot;:[&quot;Path&quot;,{&quot;applyMatrix&quot;:true,&quot;segments&quot;:[[[262.82892,153.80243],[-0.3272,0.23267],[0.29842,-0.29983]],[[263.88491,152.75998],[-0.3925,0.39114],[-0.05748,0.03406]],[[263.65635,152.81612],[0.09658,0],[-0.42256,0]],[263.23379,152.39356],[[263.23379,152.11665],[0,0],[0,-1.35371]],[[263.12336,148.06527],[0.00688,1.34743],[-1.16942,-0.14439]],[[259.57525,147.66391],[1.20379,0.10858],[0,0]],[[259.19268,147.20483],[-0.03826,0.42082],[0.03826,-0.42082]],[[259.65176,146.82226],[0,0],[2.62235,0.24016]],[[267.34478,147.64624],[-2.58976,-0.15725],[0.04061,-0.22258]],[[267.40276,146.98095],[0.00297,0.22064],[-0.0192,-0.06183]],[[267.3916,146.75729],[-0.02029,0.0824],[-0.02802,-0.32188]],[[267.14098,145.80585],[0.14226,0.31144],[-3.74512,-0.00597]],[[255.73032,146.28133],[3.64873,-0.91219],[-0.11716,0.02929]],[[254.75714,146.52274],[0.30478,0.02236],[0.53361,0.37687]],[[256.88948,148.12214],[-0.16677,-0.1668],[1.59228,1.59257]],[[261.0936,153.28495],[-0.90687,-2.11247],[0.26092,0.41506]],[[261.87036,154.5187],[-0.243,-0.42057],[0.32383,-0.23303]]],&quot;closed&quot;:true}]}" fill="#a96565" stroke-width="0.5"/><path d="M284.47353,146.91894c-0.37795,0.18897 -0.56692,-0.18897 -0.56692,-0.18897l0.10292,0.04715c-0.29716,-0.16999 -0.58971,-0.34856 -0.87466,-0.53832c-2.52722,-1.68482 -4.84363,-2.82932 -7.79245,-3.67184c0,0 -0.4063,-0.11609 -0.29021,-0.52239c0.07047,-0.24664 0.24788,-0.30078 0.37643,-0.30525c0.04215,-0.06267 0.08625,-0.09942 0.08625,-0.09942c1.59845,-1.28509 8.56134,-4.62832 9.17925,-1.93678c0.5626,1.9852 0.27449,4.2697 0.27449,6.31484l-0.27451,0.42471c0.031,0.12383 0.04119,0.34537 -0.22058,0.47626zM279.68874,143.29299c0.01268,-0.01918 0.02162,-0.02991 0.02162,-0.02991l0.31292,-0.37457c0.50915,-0.75883 1.25502,-1.48841 2.00016,-1.99474c0,0 0.35159,-0.23439 0.58598,0.1172c0.23439,0.35159 -0.1172,0.58598 -0.1172,0.58598c-0.30779,0.20035 -0.61654,0.45322 -0.90386,0.73376c0.06362,0.07579 0.08967,0.15396 0.08967,0.15396c0.12109,0.36645 0.2236,0.74171 0.27946,1.12359l0.06585,0.5267c0,0 0.02537,0.203 -0.10044,0.34416c0.55827,0.32847 1.116,0.68 1.68074,1.05649c0.17073,0.11395 0.34447,0.22349 0.52044,0.32929c0.01442,-1.92867 0.28641,-4.09601 -0.24912,-5.95394c-0.27154,-1.27158 -5.67927,0.95287 -7.44339,2.10231c1.15006,0.36698 2.22086,0.78977 3.25716,1.27971zM281.11986,143.72044c-0.0325,-0.23423 -0.08815,-0.46521 -0.15572,-0.69245c-0.09435,0.12128 -0.1827,0.24383 -0.26368,0.36615l-0.23448,0.28203c0.23252,0.11935 0.46383,0.24233 0.69447,0.36907z" fill="#8b5454" stroke-width="0.5"/><path d="M281.2081,144.11504c-0.23064,-0.12674 -0.58802,-0.288 -0.82054,-0.40735l0.26046,-0.37981c0.08098,-0.12232 0.24581,-0.25963 0.34016,-0.3809c0.06758,0.22724 0.17167,0.58269 0.20417,0.81692z" data-paper-data="{&quot;noHover&quot;:false,&quot;origItem&quot;:[&quot;Path&quot;,{&quot;applyMatrix&quot;:true,&quot;segments&quot;:[[[281.11986,143.72044],[0,0],[-0.0325,-0.23423]],[[280.96414,143.02799],[0.06758,0.22724],[-0.09435,0.12128]],[[280.70046,143.39414],[0.08098,-0.12232],[0,0]],[[280.46597,143.67617],[0,0],[0.23252,0.11935]],[[281.16045,144.04525],[-0.23064,-0.12674],[0,0]]],&quot;closed&quot;:true}]}" fill="#a96565" stroke-width="0.5"/><path d="M276.34835,141.99863c1.76412,-1.14944 7.32161,-3.41136 7.59315,-2.13978c0.53553,1.85793 0.26197,4.13147 0.24755,6.06013c-0.17597,-0.1058 -0.35072,-0.21415 -0.52144,-0.32811c-0.56474,-0.3765 -1.12987,-0.72047 -1.68814,-1.04894c0.12581,-0.14116 -0.02072,-0.46144 -0.02072,-0.46144l-0.07512,-0.51327c-0.05586,-0.38188 -0.16799,-0.70301 -0.28908,-1.06946c0,0 -0.02375,-0.06778 -0.08737,-0.14358c0.28733,-0.28055 0.60186,-0.51869 0.90966,-0.71904c0,0 0.35893,-0.22246 0.12454,-0.57405c-0.23439,-0.35159 -0.57598,-0.10588 -0.57598,-0.10588c-0.74514,0.50633 -1.36199,1.1286 -1.87114,1.88743l-0.322,0.36291c0,0 -0.13225,0.12633 -0.14493,0.14551c-1.0363,-0.48994 -2.12892,-0.98544 -3.27898,-1.35242z" data-paper-data="{&quot;noHover&quot;:false,&quot;origItem&quot;:[&quot;Path&quot;,{&quot;applyMatrix&quot;:true,&quot;segments&quot;:[[[279.68874,143.29299],[-1.0363,-0.48994],[0.01268,-0.01918]],[279.71036,143.26308],[[280.02329,142.88852],[0,0],[0.50915,-0.75883]],[[282.02344,140.89378],[-0.74514,0.50633],[0,0]],[[282.60943,141.01097],[-0.23439,-0.35159],[0.23439,0.35159]],[[282.49223,141.59696],[0,0],[-0.30779,0.20035]],[[281.58837,142.33072],[0.28733,-0.28055],[0.06362,0.07579]],[[281.67804,142.48468],[0,0],[0.12109,0.36645]],[[281.9575,143.60827],[-0.05586,-0.38188],[0,0]],[282.02335,144.13497],[[281.92292,144.47913],[0.12581,-0.14116],[0.55827,0.32847]],[[283.60366,145.53562],[-0.56474,-0.3765],[0.17073,0.11395]],[[284.1241,145.86491],[-0.17597,-0.1058],[0.01442,-1.92867]],[[283.87498,139.91097],[0.53553,1.85793],[-0.27154,-1.27158]],[[276.43159,142.01328],[1.76412,-1.14944],[1.15006,0.36698]]],&quot;closed&quot;:true}]}" fill="#a96565" stroke-width="0.5"/></g><g stroke-width="0"><path d="M201.27986,192.98501c2.00345,5.56959 2.04949,10.65229 0.10284,11.35253c-1.94665,0.70023 -5.14885,-3.24716 -7.1523,-8.81675c-2.00345,-5.56959 -2.04949,-10.65229 -0.10283,-11.35253c1.94665,-0.70023 5.14884,3.24716 7.15229,8.81676z" fill="#c27676"/><path d="M203.16578,209.78334c0,4.72703 -1.30438,8.55905 -2.91343,8.55905c-1.60905,0 -2.91342,-3.83202 -2.91342,-8.55905c0,-4.72703 1.30438,-8.55904 2.91342,-8.55904c1.60905,0 2.91343,3.83201 2.91343,8.55904z" fill="#c27676"/><path d="M204.086,219.26047c-0.29172,0.30252 -1.26394,-0.16168 -2.17151,-1.03683c-0.90757,-0.87516 -1.4068,-1.82986 -1.11509,-2.13238c0.29172,-0.30252 1.26393,0.16169 2.1715,1.03685c0.90757,0.87516 1.40681,1.82985 1.1151,2.13236z" fill="#8a7454"/><path d="M202.80806,220.02701c-0.29051,0.30127 -1.25869,-0.16102 -2.1625,-1.03255c-0.90381,-0.87153 -1.40099,-1.82227 -1.11048,-2.12354c0.29051,-0.30127 1.25869,0.16102 2.1625,1.03255c0.90381,0.87153 1.40099,1.82227 1.11048,2.12354z" fill="#ad916a"/></g><path d="M175.1484,171.47559c-0.00329,0.04717 -0.03017,0.23966 -0.24954,0.23966c-0.25,0 -0.25,-0.25 -0.25,-0.25l0.13759,-0.36245c1.37458,-0.63551 1.72189,-1.13989 3.45198,-1.13989c1.22189,0.00862 2.0913,1.00365 2.18702,2.00975c1.41231,0.74025 2.7242,2.27964 3.30865,3.11094c0,0 0.13868,0.20801 -0.06934,0.34669c-0.20801,0.13868 -0.34669,-0.06934 -0.34669,-0.06934c-1.00591,-1.57121 -1.51151,-2.00629 -2.99407,-2.58621c-0.15585,0.41251 -0.48262,0.7762 -1.01586,1.00872c-0.95196,0.4151 -2.22051,-0.86436 -1.82912,-1.62949c0.73077,-0.6884 1.58253,-0.72275 2.42594,-0.41391c-0.1045,-0.69091 -0.71135,-1.28532 -1.66653,-1.27715c-1.64988,0 -1.86259,0.34341 -3.09003,1.01268zM179.78463,172.57175c-0.03519,-0.01286 -0.07087,-0.02584 -0.10703,-0.03894c-0.49314,-0.17877 -1.38681,-0.54566 -1.79295,-0.08649c-0.17722,0.36525 0.876,1.10914 1.23216,0.87519c0.32111,-0.21093 0.54034,-0.47194 0.66783,-0.74976z" fill="#c27676" stroke-width="0.5"/></g></g></svg>