<svg version="1.1" xmlns="http://www.w3.org/2000/svg" xmlns:xlink="http://www.w3.org/1999/xlink" width="39.98888" height="41.7189" viewBox="0,0,39.98888,41.7189"><g transform="translate(-221.87307,-157.31435)"><g data-paper-data="{&quot;isPaintingLayer&quot;:true}" fill-rule="nonzero" stroke="none" stroke-width="0.5" stroke-linecap="butt" stroke-linejoin="miter" stroke-miterlimit="10" stroke-dasharray="" stroke-dashoffset="0" style="mix-blend-mode: normal"><path d="M260.68739,157.446c0.12072,-0.08304 0.26696,-0.13165 0.42456,-0.13165c0.41421,0 0.75,0.33579 0.75,0.75c0,0.11427 -0.02555,0.22257 -0.07126,0.3195l-0.28954,0.65146c-0.54715,1.61603 -1.48955,2.72477 -2.68503,3.92025c-5.18591,5.75356 -9.73231,12.11368 -15.22693,17.60623c-2.57305,2.28716 -5.09463,4.61383 -7.59564,6.98177c-0.80404,0.76125 -1.96535,2.23518 -3.23381,2.02655c-0.60674,-0.09979 -1.92897,-1.24049 -2.58005,-1.8851c-0.10412,-0.01446 -0.21764,-0.05604 -0.33903,-0.13696c-0.62404,-0.41603 -0.20801,-1.04006 -0.20801,-1.04006l0.21311,-0.30812c1.34556,-1.52021 2.05511,-3.41986 3.06323,-5.10281c0.72801,-1.21533 2.13097,-1.93432 3.10959,-2.91446c2.5073,-2.51119 4.5022,-5.47923 7.0244,-8.0199l0.286,-0.3575c0.12492,-0.15892 0.31267,-0.26612 0.52582,-0.28418c3.5214,-2.67674 7.23932,-5.05783 10.74131,-7.75672c1.13318,-0.87331 2.53737,-1.60404 3.75475,-2.48071c0.19739,-0.15922 0.39731,-0.31278 0.59998,-0.45918c0.35834,-0.29344 0.69062,-0.6061 0.98264,-0.9469c0,0 0.20954,-0.23947 0.51163,-0.26997z" fill="#646464"/><path d="M232.96218,191.5502c-1.22434,0.50654 -2.8816,2.24807 -3.98334,4.10367c-0.93907,0.25672 -1.76448,1.06244 -2.34976,1.99609c-0.75385,0.11716 -1.40931,0.48764 -2.10322,1.26296c-0.03333,0.03725 -0.06652,0.07746 -0.09937,0.12033c-1.18408,-0.20094 -2.18343,-1.05115 -2.55342,-2.2209c0.56588,-0.99644 0.91284,-2.29265 0.95937,-2.94341c0.00526,-0.01349 0.01037,-0.02705 0.01534,-0.04066c0.07154,-0.13805 0.11966,-0.27172 0.14718,-0.4008c1.9454,-1.15373 3.87861,-3.21438 4.76248,-5.17217c0.29787,-0.28431 0.59222,-0.57098 0.88333,-0.85987c0.52129,0.46707 2.56934,1.58703 2.87663,1.80783c0.50292,0.36136 1.40104,1.17537 2.43315,2.03126c-0.29778,0.06267 -0.62707,0.16618 -0.98837,0.31566z" data-paper-data="{&quot;index&quot;:null}" fill="#885c36"/><path d="M249.3876,163.97152c-0.00147,-0.00817 -0.00301,-0.01633 -0.00464,-0.02448c0.00502,-0.00582 0.01067,-0.01169 0.01691,-0.01759c-0.0041,0.01402 -0.00819,0.02805 -0.01227,0.04207z" data-paper-data="{&quot;index&quot;:null}" fill="#885c36"/><path d="M227.17778,196.90112c-0.10857,0.12656 -0.21237,0.25889 -0.31094,0.39547c-1.56193,-0.97505 -2.76171,-2.18782 -3.92759,-3.6758c0.02375,-0.06552 0.04221,-0.12996 0.05571,-0.1933c0.10007,-0.05935 0.20011,-0.12109 0.29996,-0.1851c0.01486,0.027 0.02972,0.05402 0.04458,0.08102c1.15011,1.45274 2.30489,2.62948 3.83827,3.57772z" data-paper-data="{&quot;index&quot;:null}" fill="#4c331e"/><path d="M228.24805,187.25485c0.05642,-0.11962 0.14627,-0.14611 0.21839,-0.14454l0.05548,0.1389c0.07494,0.30512 2.64803,1.7044 2.99549,1.95406c0.30587,0.21977 0.75792,0.60697 1.29738,1.0692c0.26071,0.33106 0.49036,0.68969 0.67958,1.08286c-0.15087,0.04755 -0.30843,0.10425 -0.47274,0.17057c-0.81877,-1.66363 -2.43484,-2.6754 -3.98419,-3.61307c-0.18097,-0.09809 -0.36612,-0.18894 -0.55486,-0.2711l-0.11506,-0.05414c0,0 -0.22612,-0.10665 -0.11947,-0.33276z" data-paper-data="{&quot;index&quot;:null}" fill="#4c331e"/><path d="M227.697,188.72842c0,0 -0.07335,-0.03459 -0.11679,-0.10614c0.06338,-0.12333 0.12288,-0.24651 0.17826,-0.36928c0.08103,-0.0102 0.15181,0.02319 0.15181,0.02319l0.09748,0.04629c1.79357,0.74836 3.38777,1.91284 4.50032,3.4593c-0.13562,0.08103 -0.2746,0.17381 -0.41585,0.2771c-1.05582,-1.46394 -2.57243,-2.57285 -4.276,-3.27453z" data-paper-data="{&quot;index&quot;:null}" fill="#b97b48"/><path d="M226.95529,189.71276c1.66891,0.46516 3.24873,1.63718 4.47293,2.89284c-0.12023,0.10952 -0.24086,0.22491 -0.36129,0.34547c-1.11881,-1.14783 -2.54221,-2.2231 -4.05841,-2.70138c-0.0944,0.03177 -0.18951,-0.00972 -0.18951,-0.00972c-0.07005,-0.03057 -0.14032,-0.06072 -0.2108,-0.09034c0.11184,-0.14768 0.21946,-0.29668 0.32237,-0.44655l0.02473,0.00968z" data-paper-data="{&quot;index&quot;:null}" fill="#b97b48"/><path d="M230.17123,193.94863c-1.30122,-1.17049 -2.50127,-2.36402 -4.07158,-3.17006c0.11215,-0.13024 0.22135,-0.26214 0.32724,-0.39532c1.55857,0.81665 2.76551,2.01315 4.06649,3.18292c-0.10853,0.12425 -0.21606,0.25191 -0.32212,0.38246z" data-paper-data="{&quot;index&quot;:null}" fill="#b97b48"/><path d="M229.45909,194.90245c-1.38071,-0.95625 -2.57322,-2.72028 -3.98345,-3.4469c0.11489,-0.11658 0.22771,-0.23519 0.33817,-0.35552c1.40742,0.83592 2.51508,2.48377 3.9289,3.40291c-0.09661,0.13136 -0.19129,0.26468 -0.28362,0.3995z" data-paper-data="{&quot;index&quot;:null}" fill="#b97b48"/><path d="M229.13413,195.39892c-0.05288,0.08467 -0.10467,0.16968 -0.15529,0.25495c-0.07722,0.02111 -0.15367,0.04594 -0.22929,0.07424c-1.3665,-1.14586 -2.74757,-2.35532 -4.13242,-3.47257c0.1269,-0.10842 0.25238,-0.21974 0.37608,-0.33365c1.38759,1.12034 2.77045,2.33202 4.14093,3.47703z" data-paper-data="{&quot;index&quot;:null}" fill="#b97b48"/><path d="M223.97798,192.76767c1.42702,0.93885 2.42416,2.48883 3.8003,3.53898c-0.12792,0.10582 -0.25155,0.22057 -0.37042,0.34257c-1.38183,-1.08137 -2.41325,-2.61118 -3.8632,-3.57183c0.1452,-0.09881 0.28979,-0.2022 0.43331,-0.30973z" data-paper-data="{&quot;index&quot;:null}" fill="#b97b48"/><path d="M229.64161,188.21262c-0.82239,-0.39772 -1.68751,-0.79778 -2.60274,-1.33158c0,0 -0.64783,-0.3779 -0.26993,-1.02574c0.3779,-0.64783 1.02574,-0.26993 1.02574,-0.26993c0.73003,0.42592 1.43252,0.77664 2.10988,1.11039c0.32692,-0.01334 0.57544,0.23518 0.57544,0.23518l0.09512,0.09581c1.59626,0.79451 3.05059,1.60359 4.39686,3.24808l0.52877,0.6043c0.11697,0.13228 0.18796,0.30615 0.18796,0.49661c0,0.41421 -0.33579,0.75 -0.75,0.75c-0.08105,0 -0.15909,-0.01286 -0.23221,-0.03664l-0.75085,-0.22525l0.08596,-0.28654c-1.73022,-0.52505 -2.85564,-1.97203 -4.3634,-3.32831z" fill="#6f6f6f"/></g></g></svg>