<svg version="1.1" xmlns="http://www.w3.org/2000/svg" xmlns:xlink="http://www.w3.org/1999/xlink" width="8.92475" height="53.49272" viewBox="0,0,8.92475,53.49272"><g transform="translate(-222.55576,-150.73888)"><g data-paper-data="{&quot;isPaintingLayer&quot;:true}" fill="#a28737" fill-rule="nonzero" stroke="none" stroke-width="0.5" stroke-linecap="butt" stroke-linejoin="miter" stroke-miterlimit="10" stroke-dasharray="" stroke-dashoffset="0" style="mix-blend-mode: normal"><path d="M230.51322,151.16455l0.00917,-0.01174l-0.00456,-0.00171l0.0917,-0.24454c0.03403,-0.09763 0.1269,-0.16768 0.23613,-0.16768c0.10923,0 0.2021,0.07005 0.23613,0.16768l0.0917,0.24454l-0.08491,0.03184c0.26761,0.68533 0.27101,1.64329 0.1906,2.51138c0.1673,1.12686 0.25268,2.64874 0.12709,3.87621c0.07424,0.31444 0.07424,0.5459 0.07424,0.5459l-0.14997,1.14107c-1.165,3.02449 -2.77146,5.94021 -3.58904,9.09106c-1.16526,4.49075 -0.59155,9.44906 -0.42955,14.0237c0.22869,6.45797 -0.03529,12.65376 1.90216,18.92068c0,0 0.66169,2.1505 -1.48881,2.8122c-2.1505,0.66169 -2.8122,-1.48881 -2.8122,-1.48881c-2.04294,-6.66818 -1.85083,-13.21483 -2.09829,-20.08366c-0.18145,-5.03645 -0.69905,-10.37071 0.57056,-15.31289c0.82153,-3.19794 2.39123,-6.14789 3.5999,-9.20515c0.02146,-0.29124 0.13952,-1.14148 0.78911,-1.68087c0.2517,-1.39389 1.34652,-3.3079 2.3047,-3.98619c0.1598,-0.3893 0.3316,-0.77288 0.43414,-1.18303z"/></g></g></svg>