<svg version="1.1" xmlns="http://www.w3.org/2000/svg" xmlns:xlink="http://www.w3.org/1999/xlink" width="35.67923" height="26.56186" viewBox="0,0,35.67923,26.56186"><g transform="translate(-220.49543,-164.78932)"><g data-paper-data="{&quot;isPaintingLayer&quot;:true}" fill-rule="nonzero" stroke="none" stroke-width="0.5" stroke-linecap="butt" stroke-linejoin="miter" stroke-miterlimit="10" stroke-dasharray="" stroke-dashoffset="0" style="mix-blend-mode: normal"><g><path d="M220.50245,185.14204c0,-0.18534 0.0458,-0.32488 0.11477,-0.42993c0.10868,-1.89773 0.80751,-5.16187 -0.01595,-6.47682c0,0 -0.3721,-0.65118 0.27908,-1.02329c0.65118,-0.3721 1.02329,0.27908 1.02329,0.27908c1.04787,1.94478 0.19991,5.38733 0.19991,7.65096l-0.8511,0.75c0,0 -0.75,0 -0.75,-0.75z" fill="#475419"/><path d="M227.72254,191.35119c-0.75,0 -0.75,-0.75 -0.75,-0.75v-0.40438c0,-1.07833 0.14705,-2.18223 0.00579,-3.24312c0,0 -0.09303,-0.74421 0.65118,-0.83723c0.74421,-0.09303 0.83723,0.65118 0.83723,0.65118c0.13479,1.13723 0.00579,2.27877 0.00579,3.42917v0.40438c0,0 0,0.75 -0.75,0.75z" fill="#475419"/><path d="M253.33461,185.65137c-0.71151,0.23717 -0.94868,-0.47434 -0.94868,-0.47434l-0.24068,-0.84374c0,-1.66601 0.1356,-3.46111 -0.28089,-5.07505c0,0 -0.1819,-0.72761 0.54571,-0.90951c0.72761,-0.1819 0.90951,0.54571 0.90951,0.54571c0.42715,1.75379 0.32568,3.63594 0.32568,5.43885l0.1637,0.3694c0,0 0.23717,0.71151 -0.47434,0.94868z" fill="#475419"/><path d="M237.73484,176.77731c0.00466,0.01795 0.0091,0.03638 0.01325,0.05525l0.45292,-0.14154c0.00117,-0.02469 0.00305,-0.04918 0.00563,-0.07347c-0.15778,0.05374 -0.31522,0.10687 -0.4718,0.15975zM222.01512,176.9989c0.74973,-0.56802 3.27646,-1.84376 3.73307,-2.07345c3.38073,-1.70057 6.47225,-3.922 10.07106,-5.12259c2.78952,-0.92966 7.47794,-3.24479 10.4747,-2.33199c2.73203,0.83217 4.58146,5.58387 5.27352,7.91798c0.27662,0.93295 1.10042,2.56266 0.80797,3.53603c-0.8955,2.98058 -5.91472,2.95505 -8.20151,3.73258c-4.35229,2.189 -8.95349,4.35876 -13.87946,4.54255c-1.60924,0.06004 -3.49849,0.27704 -4.87981,-0.78715c-2.08158,-1.60369 -3.54253,-5.34306 -4.67369,-7.58627c0,0 -0.55902,-1.11804 0.55902,-1.67705c0.27129,-0.13564 0.50966,-0.17255 0.71511,-0.15064zM244.92107,174.11085c-0.02546,-0.04698 -0.048,-0.09577 -0.06737,-0.14614l-0.06056,0.06606c0.04293,0.02624 0.08567,0.05334 0.12793,0.08008zM247.76806,176.81538l-0.19527,-0.10848c-0.00164,0.03659 -0.00485,0.07277 -0.00957,0.10848z" fill="#bb0000"/><path d="M249.74042,176.37189c-0.92248,-0.5942 -1.01488,-1.90956 -1.59974,-2.73147c-1.00584,-1.41353 -4.58957,-4.2966 -4.1489,-6.3601c0.15075,-0.70588 1.04728,-0.99542 1.60524,-1.45331c3.06019,-2.51136 5.82505,-0.00775 7.45522,2.6702c1.3102,0.74536 2.72388,1.58984 3.07257,2.97766c0.42285,1.68299 -1.92634,7.68715 -3.94837,7.61998c-0.19714,-0.00655 -1.05299,-1.29208 -1.62929,-2.24183c-0.28513,-0.14947 -0.55842,-0.32119 -0.80673,-0.48114z" fill="#b7ba87"/><path d="M243.74727,176.33565c-0.12637,0.09693 -0.28449,0.15455 -0.45606,0.15455c-0.38574,0 -0.70346,-0.29121 -0.74532,-0.66577l-0.76817,0.29118c-0.08705,0.03534 -0.18223,0.05481 -0.28196,0.05481c-0.1782,0 -0.34189,-0.06215 -0.47057,-0.16596c-0.22824,0.20906 -0.46314,0.43972 -0.70349,0.67985c-1.09065,1.51404 -2.43499,2.86194 -3.13182,3.47842l-0.07602,0.01521l0.01453,0.02487l-0.72667,0.42453c-0.1135,0.06908 -0.24679,0.10887 -0.38938,0.10887c-0.41421,0 -0.75,-0.33579 -0.75,-0.75c0,-0.15222 0.04535,-0.29385 0.12327,-0.41211l0.70165,-1.10259l0.2322,0.14777c0.14889,-0.24698 0.30816,-0.48304 0.47691,-0.71017c-0.03048,0.0131 -0.05959,0.02583 -0.08724,0.03819l-0.01558,0.00143l0.00171,0.00428l-1.37692,0.55077c-0.09037,0.0386 -0.18986,0.05996 -0.29434,0.05996c-0.41421,0 -0.75,-0.33579 -0.75,-0.75c0,-0.2646 0.13702,-0.4972 0.34399,-0.63071l0.97863,-0.65172l0.12916,0.19394l0.01876,-0.0075c1.18749,-1.00098 2.57431,-1.69867 4.02312,-2.33979c0.10032,-0.19227 0.19777,-0.38617 0.29252,-0.58146c-0.45207,0.33225 -0.91157,0.63973 -1.37502,1.02825l-2.19219,0.73813c0.70506,-2.00075 1.25876,-3.46938 3.50865,-4.06569c0.49285,-0.13062 1.20227,-0.48171 1.52704,-0.08865c0.46378,0.56129 0.55508,1.26703 0.40329,2.03605c0.08797,-0.03843 0.17592,-0.0771 0.26383,-0.11604l0.01936,-0.00192l-0.00194,-0.00503l1.29819,-0.4993c0.08794,-0.0362 0.18428,-0.05616 0.28528,-0.05616c0.01754,0 0.03495,0.0006 0.05219,0.00179l0.06241,-0.14285c0.11206,-0.27314 0.38065,-0.46551 0.69416,-0.46551c0.34225,0 0.63096,0.22925 0.72094,0.54256l0.44233,1.41545l-0.09621,0.03007c0.14513,0.30564 0.2871,0.61161 0.43011,0.91914l0.18933,0.04408l-0.05579,0.2396c0.13593,0.03662 0.26761,0.08176 0.39298,0.13734c0.13312,-0.12073 0.30981,-0.19429 0.50368,-0.19429c0.17598,0 0.3378,0.06061 0.46573,0.16209l0.90458,0.70356l-0.06335,0.08146c0.23232,0.14384 0.44959,0.30736 0.64269,0.49984l0.13623,0.07568l0.00485,-0.00848l0.69503,0.39716c0.23272,0.12732 0.39054,0.37443 0.39054,0.65841c0,0.41421 -0.33579,0.75 -0.75,0.75c-0.13708,0 -0.26557,-0.03678 -0.37614,-0.101l-0.89795,-0.49886l0.0232,-0.04177l-0.11062,-0.01509c-0.02645,-0.02612 -0.05265,-0.05312 -0.07845,-0.08093c-0.25422,0.0121 -0.52341,-0.02663 -0.74556,-0.0878c0.00248,0.02481 0.00375,0.04998 0.00375,0.07544c0,0.41421 -0.33579,0.75 -0.75,0.75c-0.27798,0 -0.52064,-0.15124 -0.65019,-0.37592l-0.58693,-0.97822l-0.83454,-1.20544c-0.05095,-0.07152 -0.08966,-0.15237 -0.11308,-0.23948z" fill="#bb0000"/></g></g></g></svg>