<svg version="1.1" xmlns="http://www.w3.org/2000/svg" xmlns:xlink="http://www.w3.org/1999/xlink" width="55.19305" height="11.82355" viewBox="0,0,55.19305,11.82355"><g transform="translate(-119.62741,-175.68537)"><g data-paper-data="{&quot;isPaintingLayer&quot;:true}" fill-rule="nonzero" stroke-linecap="butt" stroke-linejoin="miter" stroke-miterlimit="10" stroke-dasharray="" stroke-dashoffset="0" style="mix-blend-mode: normal"><path d="M123.49681,186.47892c-0.35016,0.28171 -0.79482,0.44134 -1.34733,0.44134c-0.67185,0 -1.27492,-0.52492 -1.75,-1c-0.09008,-0.09008 -0.16726,-0.186 -0.23304,-0.28709c3.27312,-1.64318 5.51944,-5.03051 5.51944,-8.94249c0,-0.23871 -0.00836,-0.47548 -0.02482,-0.71001c0.51028,-0.05662 1.02357,-0.12161 1.53066,-0.19555c0.71871,0.0922 1.43255,0.16962 2.12313,0.16658c3.4525,-0.01517 6.90489,-0.06637 10.35733,-0.09034c-0.00734,0.15723 -0.01106,0.3154 -0.01106,0.47445c0,0.91486 0.12285,1.80103 0.35296,2.64291c0.52626,2.10505 0.79422,4.9736 1.21881,7.90667c-3.09964,-0.04064 -6.21388,-0.06891 -9.35852,-0.06613l-0.00001,0c-2.09248,0.00185 -6.36077,1.01233 -8.37755,-0.34034z" fill="#b85000" stroke="none" stroke-width="0.5"/><path d="M174.31962,176.26788l-0.0183,10.74019l-54.17305,-0.0923l0.00175,-1.02723c3.56876,-1.5271 6.06927,-5.07047 6.06927,-9.19787c0,-0.08582 -0.00108,-0.17139 -0.00323,-0.2567c0.00025,-0.00988 0.00048,-0.01978 0.0007,-0.02967c0.02426,-0.0724 0.04771,-0.14517 0.07035,-0.2183z" fill-opacity="0.53333" fill="#00a67e" stroke="#827700" stroke-width="1"/></g></g></svg>