<svg version="1.1" xmlns="http://www.w3.org/2000/svg" xmlns:xlink="http://www.w3.org/1999/xlink" width="34.97041" height="43.14509" viewBox="0,0,34.97041,43.14509"><g transform="translate(-220.58671,-157.45551)"><g data-paper-data="{&quot;isPaintingLayer&quot;:true}" fill-rule="nonzero" stroke="none" stroke-width="0.5" stroke-linecap="butt" stroke-linejoin="miter" stroke-miterlimit="10" stroke-dasharray="" stroke-dashoffset="0" style="mix-blend-mode: normal"><path d="M222.05782,200.60019c-1.49973,-0.02866 -1.47107,-1.52838 -1.47107,-1.52838l0.02912,-1.52419c0.23773,-12.44118 0.51556,-24.87704 0.51556,-37.32054c0,0 0,-1.5 1.5,-1.5c1.5,0 1.5,1.5 1.5,1.5c0,12.46262 -0.27801,24.91757 -0.5161,37.37786l-0.02912,1.52419c0,0 -0.02866,1.49973 -1.52838,1.47107z" fill="#284d19"/><path d="M222.05782,200.60018c-1.49973,-0.02928 -1.47107,-1.56153 -1.47107,-1.56153l0.02912,-1.55726c0.23773,-12.71104 0.51556,-25.41663 0.51556,-38.13005c0,0 0,-1.53254 1.5,-1.53254c1.5,0 1.5,1.53254 1.5,1.53254c0,12.73294 -0.27801,25.45805 -0.5161,38.1886l-0.02912,1.55726c0,0 -0.02866,1.53225 -1.52839,1.50297z" fill="#284d19"/><path d="M235.13672,200.23688c-1.49973,-0.02928 -1.47107,-1.56153 -1.47107,-1.56153l0.02912,-1.55725c0.23773,-12.71104 0.51556,-25.41663 0.51556,-38.13004c0,0 0,-1.53253 1.5,-1.53253c1.5,0 1.5,1.53253 1.5,1.53253c0,12.73294 -0.27801,25.45805 -0.5161,38.1886l-0.02912,1.55725c0,0 -0.02866,1.53225 -1.52839,1.50297z" fill="#284d19"/><path d="M244.58259,200.23688c-1.49973,-0.02928 -1.47107,-1.56153 -1.47107,-1.56153l0.02912,-1.55725c0.23773,-12.71104 0.51556,-25.41663 0.51556,-38.13004c0,0 0,-1.53253 1.5,-1.53253c1.5,0 1.5,1.53253 1.5,1.53253c0,12.73294 -0.27801,25.45805 -0.5161,38.1886l-0.02912,1.55725c0,0 -0.02866,1.53225 -1.52839,1.50297z" fill="#284d19"/><path d="M253.48351,200.60018c-1.49973,-0.02928 -1.47107,-1.56153 -1.47107,-1.56153l0.02912,-1.55725c0.23773,-12.71104 0.51556,-25.41663 0.51556,-38.13004c0,0 0,-1.53253 1.5,-1.53253c1.5,0 1.5,1.53253 1.5,1.53253c0,12.73294 -0.27801,25.45805 -0.5161,38.1886l-0.02912,1.55725c0,0 -0.02866,1.53225 -1.52839,1.50297z" fill="#284d19"/></g></g></svg>