<svg version="1.1" xmlns="http://www.w3.org/2000/svg" xmlns:xlink="http://www.w3.org/1999/xlink" width="55.19846" height="11.83419" viewBox="0,0,55.19846,11.83419"><g transform="translate(-119.622,-175.67473)"><g data-paper-data="{&quot;isPaintingLayer&quot;:true}" fill-rule="nonzero" stroke-linecap="butt" stroke-linejoin="miter" stroke-miterlimit="10" stroke-dasharray="" stroke-dashoffset="0" style="mix-blend-mode: normal"><path d="M123.49681,186.47892c-0.35016,0.28171 -0.79482,0.44134 -1.34733,0.44134c-0.67185,0 -1.27492,-0.52492 -1.75,-1c-1.14179,-1.14179 -0.21156,-3.22348 -0.25,-4.83776c-0.01217,-0.51129 -1.01065,-4.10296 -0.2286,-4.54985l0.41572,-0.23755c1.69479,0.00211 4.35076,-0.1448 6.85512,-0.50998c0.51575,0.06616 1.029,0.12472 1.53294,0.15139c-0.04491,1.31194 -0.13448,2.61979 -0.11167,3.92746c0.04227,2.42365 0.92716,4.6987 1.24242,7.10441c-2.16043,0.22053 -4.87155,0.50792 -6.3586,-0.48946z" fill="#b85000" stroke="none" stroke-width="0.5"/><path d="M174.31961,176.26788l-0.0183,10.74019l-54.17306,-0.0923l0.0183,-10.74019z" fill-opacity="0.53333" fill="#00a67e" stroke="#827700" stroke-width="1"/></g></g></svg>