<svg version="1.1" xmlns="http://www.w3.org/2000/svg" xmlns:xlink="http://www.w3.org/1999/xlink" width="9.38305" height="16.27307" viewBox="0,0,9.38305,16.27307"><g transform="translate(-237.35932,-177.48257)"><g data-paper-data="{&quot;isPaintingLayer&quot;:true}" fill="#7c5c32" fill-rule="nonzero" stroke="none" stroke-width="0.5" stroke-linecap="butt" stroke-linejoin="miter" stroke-miterlimit="10" stroke-dasharray="" stroke-dashoffset="0" style="mix-blend-mode: normal"><path d="M237.48535,180.66144c0.56036,-2.00551 3.6841,-2.6924 5.31926,-3.16071c0,0 0.48076,-0.13736 0.61812,0.3434c0.01281,0.04482 0.02024,0.08665 0.02319,0.12567c0.06641,0.01864 0.13321,0.0398 0.2004,0.06355l0.42142,0.50935c0,0 0.13955,0.17943 0.10949,0.39042c0.89291,0.76891 1.6798,1.76253 2.16101,2.81495c-0.03008,0.23289 -0.04559,0.47034 -0.04559,0.71142c0,0.77515 0.16036,1.51285 0.4497,2.18173c-0.23304,0.99203 -0.9251,1.8973 -2.25868,2.56415c-1.32236,0.60863 -1.71939,1.2125 -2.26822,2.52898c-0.02763,0.06627 -0.36315,0.79259 -0.62755,1.23843c0.00192,-0.00041 0.00385,-0.00083 0.00579,-0.00123c-0.4783,0.74865 -0.78031,1.62082 -0.84752,2.55798c-0.68222,0.18216 -1.50049,0.40351 -2.09816,-0.0044c-0.28115,-0.19188 -0.62962,-1.12373 -0.75423,-1.41721c-0.41774,-2.23002 -0.57318,-4.85568 -0.19775,-7.33777c-0.20177,-1.36474 -0.5132,-3.02609 -0.2107,-4.10872z"/></g></g></svg>