<svg version="1.1" xmlns="http://www.w3.org/2000/svg" xmlns:xlink="http://www.w3.org/1999/xlink" width="25.02293" height="47.71374" viewBox="0,0,25.02293,47.71374"><g transform="translate(-227.19695,-155.79639)"><g data-paper-data="{&quot;isPaintingLayer&quot;:true}" fill-rule="nonzero" stroke="none" stroke-width="0.5" stroke-linecap="butt" stroke-linejoin="miter" stroke-miterlimit="10" stroke-dasharray="" stroke-dashoffset="0" style="mix-blend-mode: normal"><path d="M236.71117,202.74243c-1.77237,0.01421 -5.10591,0.5776 -6.53861,-0.67537c-0.67337,-0.5889 -0.47537,-2.91993 -0.62392,-3.79326c0,0 -0.02608,-0.15644 0.00485,-0.35511c-0.01845,-0.10276 -0.01845,-0.1726 -0.01845,-0.1726v-0.54495c0,-5.54707 0.32593,-11.33303 -0.36137,-16.83144c-0.00793,-4.72537 0.19755,-9.75209 1.25098,-14.50074c-0.01696,-0.20827 0.04777,-0.3945 0.12255,-0.53483c0.08173,-0.3455 0.16811,-0.6894 0.2594,-1.03147c0,-2.17329 0,-4.34657 0,-6.51986c0,0 0,-1 1,-1c0.04484,0 0.08766,0.00201 0.12857,0.00585c1.45741,-0.65983 2.98699,-0.86101 4.5375,-0.82504c0.22074,-0.08906 0.42017,-0.08906 0.42017,-0.08906c3.46958,0 11.14398,-0.90684 12.40775,3.45783c0.18226,0.62947 0.19661,1.41464 0.16288,2.21157c0.30149,1.64613 0.23671,3.44937 0.23671,4.95812c0,3.92683 -1.00757,7.79591 -0.73001,11.72485c0.31775,4.49784 1.45661,8.62391 1.45661,13.16138c-0.00279,0.9743 0.0296,1.95004 0.06778,2.92732c-0.23993,2.53663 -0.38715,5.09968 -0.40708,7.64988c-2.90598,2.96117 -9.86918,0.74881 -13.37629,0.77693zM248.66458,200.69139c0.10765,-0.06134 0.19137,-0.12715 0.24621,-0.19767c-0.08121,0.06717 -0.16325,0.13312 -0.24621,0.19767z" fill="#307024"/><path d="M250.58503,161.05252c0,0.25 -0.25,0.25 -0.25,0.25l-0.31136,-0.00546c-0.29793,0.13256 -0.63413,0.18389 -0.96021,0.18711c0,0 -0.25,0 -0.25,-0.25c0,-0.25 0.25,-0.25 0.25,-0.25c0.29139,0.00355 0.59006,-0.05773 0.85631,-0.1762l0.41526,-0.00546c0,0 0.25,0 0.25,0.25z" fill="#1a3d13"/><path d="M251.12998,163.77729c0,0.25 -0.25,0.25 -0.25,0.25c-0.46942,0 -0.98379,0 -1.45321,0c0,0 -0.25,0 -0.25,-0.25c0,-0.25 0.25,-0.25 0.25,-0.25c0.46942,0 0.93884,0 1.40826,0h0.04495c0,0 0.25,0 0.25,0.25z" fill="#1a3d13"/><path d="M251.25669,166.11347c-0.15636,0.19506 -0.35143,0.03869 -0.35143,0.03869l-0.07024,-0.12671c-0.34105,0 -0.61806,-0.00843 -0.90243,-0.03995l-0.00071,0.03927l-0.49935,-0.0091c-0.13623,-0.00213 -0.24601,-0.11322 -0.24601,-0.24997c0,-0.06904 0.02799,-0.13154 0.07323,-0.17678l0.35356,-0.35355l0.28877,0.28876l0.03892,0.00071l-0.00068,0.03754l0.02654,0.02654l-0.02753,0.02753l-0.00672,0.36904c-0.22603,-0.02505 -0.45671,-0.06468 -0.72791,-0.12624l0.40861,-0.62389c0,0 0.17678,-0.17677 0.35355,0c0.12613,0.12613 0.07227,0.25226 0.03106,0.31418c0.2637,-0.05639 0.52498,-0.0241 0.83712,-0.0241l0.38297,0.23659c0,0 0.19506,0.15636 0.03869,0.35143z" fill="#1a3d13"/><path d="M250.37698,167.66182c0.11181,0.2236 -0.11181,0.33541 -0.11181,0.33541l-0.41766,0.20135c-0.32188,0.00462 -0.64379,0.00669 -0.9657,0.00669c0,0 -0.25,0 -0.25,-0.25c0,-0.25 0.25,-0.25 0.25,-0.25c0.28361,0 0.56725,0.00128 0.85082,0.00668l0.30894,-0.16195c0,0 0.22361,-0.1118 0.33541,0.11181z" fill="#1a3d13"/><path d="M251.12998,169.77179c0,0.25 -0.25,0.25 -0.25,0.25c-0.33334,0 -1.11988,0 -1.45321,0c0,0 -0.25,0 -0.25,-0.25c0,-0.25 0.25,-0.25 0.25,-0.25c0.33334,0 0.66666,0 1,0h0.45322c0,0 0.25,0 0.25,0.25z" fill="#1a3d13"/><path d="M249.42677,172.2016c0,0 -0.25,0 -0.25,-0.25c0,-0.25 0.25,-0.25 0.25,-0.25c0.06055,0 0.12111,0 0.18166,0c0.10611,0 0.21223,0 0.31834,0c0.15168,0 0.52998,0 0.68166,0h0.27156c0,0 0.25,0 0.25,0.25c0,0.25 -0.25,0.25 -0.25,0.25c-0.18822,0 -0.46301,0 -0.72661,0c-0.12036,0 -0.35891,0 -0.54495,0c-0.07156,0 -0.13536,0 -0.18166,0z" fill="#1a3d13"/><path d="M248.70016,174.38142c0,0 -0.25,0 -0.25,-0.25c0,-0.25 0.25,-0.25 0.25,-0.25c0.2422,0 0.48441,0 0.72661,0c0.09113,0 0.18227,0 0.27339,0h0.45321c0,0 0.25,0 0.25,0.25c0,0.25 -0.25,0.25 -0.25,0.25c-0.0463,0 -0.11009,0 -0.18165,0c-0.14512,0 -0.34171,0 -0.54496,0c-0.2636,0 -0.53839,0 -0.72661,0z" fill="#1a3d13"/><path d="M250.04007,175.40298c0,0.25 -0.25,0.25 -0.25,0.25c-0.30275,0 -0.78716,0 -1.08991,0c0,0 -0.25,0 -0.25,-0.25c0,-0.25 0.25,-0.25 0.25,-0.25c0.30275,0 0.60551,0 0.90826,0h0.18165c0,0 0.25,0 0.25,0.25z" fill="#1a3d13"/><path d="M249.85842,176.85619c0,0.25 -0.25,0.25 -0.25,0.25c-0.28777,0 -0.98379,0 -1.27156,0c0,0 -0.25,0 -0.25,-0.25c0,-0.25 0.25,-0.25 0.25,-0.25c0.16202,0 0.32404,0 0.48606,0c0.02973,-0.10485 0.12617,-0.18165 0.24054,-0.18165c0.11437,0 0.21081,0.07681 0.24054,0.18165h0.30442c0,0 0.25,0 0.25,0.25z" fill="#1a3d13"/><path d="M248.81347,178.49105c0,-0.13807 0.11193,-0.25 0.25,-0.25c0.13807,0 0.25,0.11193 0.25,0.25c0,0.13807 -0.11193,0.25 -0.25,0.25c-0.13807,0 -0.25,-0.11193 -0.25,-0.25z" fill="#1a3d13"/><path d="M250.94833,179.21766c0,0.25 -0.25,0.25 -0.25,0.25c-0.5,0 -1.49817,0 -1.99817,0c0,0 -0.25,0 -0.25,-0.25c0,-0.25 0.25,-0.25 0.25,-0.25c0.5,0 1,0 1.5,0h0.49817c0,0 0.25,0 0.25,0.25z" fill="#1a3d13"/><path d="M249.85842,177.76445c0,0.25 -0.25,0.25 -0.25,0.25c-0.30275,0 -0.78716,0 -1.08991,0c0,0 -0.25,0 -0.25,-0.25c0,-0.25 0.25,-0.25 0.25,-0.25c0.30275,0 0.6055,0 0.90825,0h0.18166c0,0 0.25,0 0.25,0.25z" fill="#1a3d13"/><path d="M250.04007,180.85252c0,0.25 -0.25,0.25 -0.25,0.25c-0.16666,0 -0.55994,0 -0.72661,0c0,0 -0.25,0 -0.25,-0.25c0,-0.25 0.25,-0.25 0.25,-0.25c0.16666,0 0.33334,0 0.5,0h0.22661c0,0 0.25,0 0.25,0.25z" fill="#1a3d13"/><path d="M250.76668,181.94243c0,0.25 -0.25,0.25 -0.25,0.25c-0.30275,0 -0.96881,0 -1.27156,0c0,0 -0.25,0 -0.25,-0.25c0,-0.25 0.25,-0.25 0.25,-0.25c0.30275,0 0.6055,0 0.90825,0h0.3633c0,0 0.25,0 0.25,0.25z" fill="#1a3d13"/><path d="M250.76668,182.85068c0,0.25 -0.25,0.25 -0.25,0.25c-0.30275,0 -0.78716,0 -1.08991,0c0,0 -0.25,0 -0.25,-0.25c0,-0.25 0.25,-0.25 0.25,-0.25c0.30275,0 0.60551,0 0.90826,0h0.18165c0,0 0.25,0 0.25,0.25z" fill="#1a3d13"/><path d="M251.49328,183.75894c0,0.25 -0.25,0.25 -0.25,0.25c-0.48441,0 -1.15045,0 -1.63486,0c0,0 -0.25,0 -0.25,-0.25c0,-0.25 0.25,-0.25 0.25,-0.25c0.48441,0 0.9688,0 1.45321,0h0.18165c0,0 0.25,0 0.25,0.25z" fill="#1a3d13"/><path d="M250.94833,184.84885c0,0.25 -0.25,0.25 -0.25,0.25l-0.16811,-0.00037c-0.28618,0.01393 -0.57136,0.07729 -0.84274,0.16919c0,0 -0.23718,0.07905 -0.31623,-0.15812c-0.07906,-0.23717 0.15812,-0.31623 0.15812,-0.31623c0.31443,-0.10335 0.64337,-0.17461 0.97377,-0.19412l0.19519,-0.00037c0,0 0.25,0 0.25,0.25z" fill="#1a3d13"/><path d="M251.49328,185.75711c0,0.25 -0.25,0.25 -0.25,0.25c-0.42386,0 -1.02936,0 -1.45321,0c0,0 -0.25,0 -0.25,-0.25c0,-0.25 0.25,-0.25 0.25,-0.25c0.42386,0 0.8477,0 1.27156,0h0.18165c0,0 0.25,0 0.25,0.25z" fill="#1a3d13"/><path d="M250.76668,186.84701c0,0.25 -0.25,0.25 -0.25,0.25c-0.30275,0 -0.78716,0 -1.08991,0c0,0 -0.25,0 -0.25,-0.25c0,-0.25 0.25,-0.25 0.25,-0.25c0.30275,0 0.60551,0 0.90826,0h0.18165c0,0 0.25,0 0.25,0.25z" fill="#1a3d13"/><path d="M250.94833,188.11857c0,0.25 -0.25,0.25 -0.25,0.25l-0.26167,-0.02159c-0.31524,0.13615 -0.66653,0.19985 -1.00989,0.20325c0,0 -0.25,0 -0.25,-0.25c0,-0.25 0.25,-0.25 0.25,-0.25c0.2741,0.00334 0.55775,-0.04518 0.80663,-0.16007l0.46493,-0.02159c0,0 0.25,0 0.25,0.25z" fill="#1a3d13"/><path d="M251.12998,189.02683c0,0.25 -0.25,0.25 -0.25,0.25c-0.28777,0 -0.80214,0 -1.08991,0c0,0 -0.25,0 -0.25,-0.25c0,-0.25 0.25,-0.25 0.25,-0.25c0.28777,0 0.57553,0 0.8633,0h0.22661c0,0 0.25,0 0.25,0.25z" fill="#1a3d13"/><path d="M252.21989,189.93509c0,0.25 -0.25,0.25 -0.25,0.25l-0.08002,-0.02159c-0.76253,0.32933 -1.63878,0.20324 -2.4631,0.20324c0,0 -0.25,0 -0.25,-0.25c0,-0.25 0.25,-0.25 0.25,-0.25c0.72886,0 1.59404,0.14727 2.25984,-0.16006l0.28328,-0.02159c0,0 0.25,0 0.25,0.25z" fill="#1a3d13"/><path d="M251.85659,190.84334c0,0.25 -0.25,0.25 -0.25,0.25c-0.33334,0 -0.93822,0 -1.27156,0c0,0 -0.25,0 -0.25,-0.25c0,-0.25 0.25,-0.25 0.25,-0.25c0.33334,0 0.66666,0 1,0h0.27156c0,0 0.25,0 0.25,0.25z" fill="#1a3d13"/><path d="M251.60171,192.11003c-0.17677,0.17677 -0.35356,0 -0.35356,0l-0.11668,-0.13482c-0.2422,-0.1211 -0.48441,-0.2422 -0.72661,-0.3633c0,0 -0.2236,-0.11181 -0.1118,-0.33541c0.11181,-0.2236 0.33541,-0.11181 0.33541,-0.11181c0.2422,0.1211 0.48441,0.2422 0.72661,0.3633l0.24662,0.22848c0,0 0.17677,0.17678 0,0.35355z" fill="#1a3d13"/><path d="M251.85659,193.93142c0,0.25 -0.25,0.25 -0.25,0.25h-0.22661c-0.52353,0 -0.82534,0.02685 -1.28724,-0.18402c-0.06369,-0.01308 -0.10679,-0.05184 -0.13498,-0.0907c-0.03089,-0.03489 -0.05863,-0.08347 -0.05928,-0.14575l-0.04802,-0.19208c-0.04359,-0.30308 -0.05431,-0.53319 0.00718,-0.6851c-0.06592,-0.02933 -0.13591,-0.09162 -0.13591,-0.22391c0,-0.25 0.25,-0.25 0.25,-0.25c0.16666,0 0.33334,0 0.5,0h0.40826c0.13807,0 0.25,0.11193 0.25,0.25c0,0.0998 -0.05848,0.18595 -0.14305,0.22603l-0.44236,0.22118l-0.05154,-0.10307c-0.17526,0.11128 -0.2646,0.22321 -0.15751,0.4436l0.03201,0.12804c0.34582,0.15251 0.58929,0.10577 1.01244,0.10577h0.22661c0,0 0.25,0 0.25,0.25z" fill="#1a3d13"/><path d="M251.85659,195.02133c0,0.25 -0.25,0.25 -0.25,0.25c-0.28777,0 -0.80214,0 -1.08991,0c0,0 -0.25,0 -0.25,-0.25c0,-0.25 0.25,-0.25 0.25,-0.25c0.28777,0 0.57554,0 0.8633,0h0.22661c0,0 0.25,0 0.25,0.25z" fill="#1a3d13"/><path d="M251.42006,196.46966c-0.17677,0.17677 -0.35355,0 -0.35355,0l-0.00488,-0.10843c-0.30275,0 -0.60551,0 -0.90826,0c0,0 -0.25,0 -0.25,-0.25c0,-0.25 0.25,-0.25 0.25,-0.25c0.30275,0 0.60551,0 0.90826,0l0.35843,0.25487c0,0 0.17677,0.17678 0,0.35356z" fill="#1a3d13"/><path d="M251.49328,197.56445c0,0.25 -0.25,0.25 -0.25,0.25c-0.16666,0 -0.74159,0 -0.90825,0c0,0 -0.25,0 -0.25,-0.25c0,-0.25 0.25,-0.25 0.25,-0.25c0.16666,0 0.33334,0 0.5,0h0.40825c0,0 0.25,0 0.25,0.25z" fill="#1a3d13"/><path d="M252.03824,198.83601c0,0.25 -0.25,0.25 -0.25,0.25c-0.28777,0 -0.98379,0 -1.27156,0c0,0 -0.25,0 -0.25,-0.25c0,-0.25 0.25,-0.25 0.25,-0.25c0.28777,0 0.57554,0 0.8633,0h0.40825c0,0 0.25,0 0.25,0.25z" fill="#1a3d13"/><path d="M251.84376,200.02851c0.07906,0.23717 -0.15811,0.31623 -0.15811,0.31623l-0.07061,0.02353c-0.46828,0.15299 -0.81508,0.16909 -1.27026,0.17076c-0.00323,0.00012 -0.00648,0.00019 -0.00974,0.00019c-0.0027,0 -0.0054,-0.00005 -0.00809,-0.00013c-0.05605,0.00016 -0.11376,0.00013 -0.17356,0.00013c0,0 -0.25,0 -0.25,-0.25c0,-0.25 0.25,-0.25 0.25,-0.25c0.05803,0 0.11362,0.00024 0.16729,0.00041c0.00475,-0.00027 0.00954,-0.00041 0.01436,-0.00041c0.00531,0 0.01059,0.00016 0.01582,0.00049c0.39803,0.00101 0.69316,-0.00491 1.10607,-0.14577l0.07061,-0.02354c0,0 0.23717,-0.07905 0.31623,0.15812z" fill="#1a3d13"/><path d="M251.838,201.10288c0.09459,0.23141 -0.13682,0.32601 -0.13682,0.32601l-0.00779,0.00318c-0.49913,0.2012 -0.96103,0.2409 -1.47939,0.37125c0,0 -0.24254,0.06063 -0.30317,-0.1819c-0.06063,-0.24254 0.18191,-0.30317 0.18191,-0.30317c0.18434,-0.04584 0.36228,-0.07889 0.53737,-0.11247c-0.00009,-0.00276 -0.00014,-0.00552 -0.00014,-0.0083c0,-0.13807 0.11193,-0.25 0.25,-0.25c0.10383,0 0.19288,0.0633 0.23066,0.15341c0.13044,-0.03466 0.26112,-0.07663 0.39357,-0.13164l0.00779,-0.00319c0,0 0.23142,-0.09459 0.32601,0.13682z" fill="#1a3d13"/><path d="M228.36349,187.68692l0.41526,0.00546c0.26625,0.11846 0.56491,0.17974 0.8563,0.17619c0,0 0.25,0 0.25,0.25c0,0.25 -0.25,0.25 -0.25,0.25c-0.32608,-0.00322 -0.66227,-0.05455 -0.96021,-0.18711l-0.31135,0.00545c0,0 -0.25,0 -0.25,-0.25c0,-0.25 0.25,-0.25 0.25,-0.25z" data-paper-data="{&quot;index&quot;:null}" fill="#1a3d13"/><path d="M228.39167,190.26825h0.04495c0.46942,0 0.93884,0 1.40826,0c0,0 0.25,0 0.25,0.25c0,0.25 -0.25,0.25 -0.25,0.25c-0.46942,0 -0.98379,0 -1.45321,0c0,0 -0.25,0 -0.25,-0.25c0,-0.25 0.25,-0.25 0.25,-0.25z" data-paper-data="{&quot;index&quot;:null}" fill="#1a3d13"/><path d="M227.56745,192.64645l0.38297,-0.23659c0.31214,0 0.57342,-0.03229 0.83712,0.0241c-0.04121,-0.06192 -0.09507,-0.18805 0.03106,-0.31418c0.17677,-0.17677 0.35355,0 0.35355,0l0.40861,0.62389c-0.2712,0.06155 -0.50188,0.10118 -0.72791,0.12623l-0.00673,-0.36904l-0.02752,-0.02753l0.02654,-0.02654l-0.00068,-0.03753l0.03893,-0.00071l0.28877,-0.28877l0.35356,0.35355c0.04524,0.04524 0.07322,0.10774 0.07322,0.17678c0,0.13674 -0.10978,0.24783 -0.24601,0.24996l-0.49935,0.0091l-0.00071,-0.03927c-0.28437,0.03152 -0.56138,0.03995 -0.90243,0.03995l-0.07024,0.12672c0,0 -0.19506,0.15637 -0.35142,-0.0387c-0.15636,-0.19506 0.03869,-0.35143 0.03869,-0.35143z" data-paper-data="{&quot;index&quot;:null}" fill="#1a3d13"/><path d="M228.28536,194.43442l0.30894,0.16195c0.28357,-0.0054 0.5672,-0.00669 0.85081,-0.00669c0,0 0.25,0 0.25,0.25c0,0.25 -0.25,0.25 -0.25,0.25c-0.3219,0 -0.64382,-0.00207 -0.96569,-0.00669l-0.41766,-0.20136c0,0 -0.22361,-0.11181 -0.11181,-0.33541c0.11181,-0.2236 0.33541,-0.11181 0.33541,-0.11181z" data-paper-data="{&quot;index&quot;:null}" fill="#1a3d13"/><path d="M228.0583,196.48261h0.45322c0.33334,0 0.66666,0 1,0c0,0 0.25,0 0.25,0.25c0,0.25 -0.25,0.25 -0.25,0.25c-0.33334,0 -1.11988,0 -1.45321,0c0,0 -0.25,0 -0.25,-0.25c0,-0.25 0.25,-0.25 0.25,-0.25z" data-paper-data="{&quot;index&quot;:null}" fill="#1a3d13"/><path d="M229.55911,199.0478c-0.18604,0 -0.42459,0 -0.54495,0c-0.2636,0 -0.5384,0 -0.72661,0c0,0 -0.25,0 -0.25,-0.25c0,-0.25 0.25,-0.25 0.25,-0.25h0.27156c0.15168,0 0.52997,0 0.68165,0c0.10611,0 0.21223,0 0.31835,0c0.06055,0 0.1211,0 0.18165,0c0,0 0.25,0 0.25,0.25c0,0.25 -0.25,0.25 -0.25,0.25c-0.0463,0 -0.11009,0 -0.18165,0z" data-paper-data="{&quot;index&quot;:null}" fill="#1a3d13"/><path d="M229.99007,159.66766c-0.20325,0 -0.39984,0 -0.54496,0c-0.07156,0 -0.13535,0 -0.18165,0c0,0 -0.25,0 -0.25,-0.25c0,-0.25 0.25,-0.25 0.25,-0.25h0.45321c0.09113,0 0.18227,0 0.2734,0c0.2422,0 0.4844,0 0.7266,0c0,0 0.25,0 0.25,0.25c0,0.25 -0.25,0.25 -0.25,0.25c-0.18822,0 -0.463,0 -0.7266,0z" data-paper-data="{&quot;index&quot;:null}" fill="#1a3d13"/><path d="M229.62677,160.43922h0.18165c0.30275,0 0.60551,0 0.90826,0c0,0 0.25,0 0.25,0.25c0,0.25 -0.25,0.25 -0.25,0.25c-0.30275,0 -0.78716,0 -1.08991,0c0,0 -0.25,0 -0.25,-0.25c0,-0.25 0.25,-0.25 0.25,-0.25z" data-paper-data="{&quot;index&quot;:null}" fill="#1a3d13"/><path d="M229.80842,161.89243h0.30442c0.02973,-0.10485 0.12616,-0.18165 0.24054,-0.18165c0.11437,0 0.21081,0.0768 0.24054,0.18165c0.16202,0 0.32404,0 0.48606,0c0,0 0.25,0 0.25,0.25c0,0.25 -0.25,0.25 -0.25,0.25c-0.28777,0 -0.98379,0 -1.27156,0c0,0 -0.25,0 -0.25,-0.25c0,-0.25 0.25,-0.25 0.25,-0.25z" data-paper-data="{&quot;index&quot;:null}" fill="#1a3d13"/><path d="M230.35337,164.02729c-0.13807,0 -0.25,-0.11193 -0.25,-0.25c0,-0.13807 0.11193,-0.25 0.25,-0.25c0.13807,0 0.25,0.11193 0.25,0.25c0,0.13807 -0.11193,0.25 -0.25,0.25z" data-paper-data="{&quot;index&quot;:null}" fill="#1a3d13"/><path d="M228.71851,164.2539h0.49817c0.5,0 1,0 1.5,0c0,0 0.25,0 0.25,0.25c0,0.25 -0.25,0.25 -0.25,0.25c-0.5,0 -1.49817,0 -1.99817,0c0,0 -0.25,0 -0.25,-0.25c0,-0.25 0.25,-0.25 0.25,-0.25z" data-paper-data="{&quot;index&quot;:null}" fill="#1a3d13"/><path d="M229.80842,162.80069h0.18166c0.30275,0 0.6055,0 0.90825,0c0,0 0.25,0 0.25,0.25c0,0.25 -0.25,0.25 -0.25,0.25c-0.30275,0 -0.78716,0 -1.08991,0c0,0 -0.25,0 -0.25,-0.25c0,-0.25 0.25,-0.25 0.25,-0.25z" data-paper-data="{&quot;index&quot;:null}" fill="#1a3d13"/><path d="M229.62677,165.88876h0.2266c0.16666,0 0.33334,0 0.5,0c0,0 0.25,0 0.25,0.25c0,0.25 -0.25,0.25 -0.25,0.25c-0.16666,0 -0.55994,0 -0.7266,0c0,0 -0.25,0 -0.25,-0.25c0,-0.25 0.25,-0.25 0.25,-0.25z" data-paper-data="{&quot;index&quot;:null}" fill="#1a3d13"/><path d="M228.90016,166.97867h0.3633c0.30275,0 0.6055,0 0.90825,0c0,0 0.25,0 0.25,0.25c0,0.25 -0.25,0.25 -0.25,0.25c-0.30275,0 -0.96881,0 -1.27156,0c0,0 -0.25,0 -0.25,-0.25c0,-0.25 0.25,-0.25 0.25,-0.25z" data-paper-data="{&quot;index&quot;:null}" fill="#1a3d13"/><path d="M228.90016,167.88692h0.18165c0.30275,0 0.60551,0 0.90826,0c0,0 0.25,0 0.25,0.25c0,0.25 -0.25,0.25 -0.25,0.25c-0.30275,0 -0.78716,0 -1.08991,0c0,0 -0.25,0 -0.25,-0.25c0,-0.25 0.25,-0.25 0.25,-0.25z" data-paper-data="{&quot;index&quot;:null}" fill="#1a3d13"/><path d="M228.17356,168.79518h0.18165c0.48441,0 0.96881,0 1.45321,0c0,0 0.25,0 0.25,0.25c0,0.25 -0.25,0.25 -0.25,0.25c-0.48441,0 -1.15045,0 -1.63486,0c0,0 -0.25,0 -0.25,-0.25c0,-0.25 0.25,-0.25 0.25,-0.25z" data-paper-data="{&quot;index&quot;:null}" fill="#1a3d13"/><path d="M228.71851,169.88509l0.19519,0.00037c0.3304,0.01951 0.65935,0.09076 0.97377,0.19411c0,0 0.23717,0.07906 0.15812,0.31623c-0.07906,0.23717 -0.31623,0.15812 -0.31623,0.15812c-0.27138,-0.0919 -0.55656,-0.15527 -0.84274,-0.16919l-0.16811,0.00037c0,0 -0.25,0 -0.25,-0.25c0,-0.25 0.25,-0.25 0.25,-0.25z" data-paper-data="{&quot;index&quot;:null}" fill="#1a3d13"/><path d="M228.17356,170.79335h0.18165c0.42386,0 0.84771,0 1.27156,0c0,0 0.25,0 0.25,0.25c0,0.25 -0.25,0.25 -0.25,0.25c-0.42386,0 -1.02936,0 -1.45321,0c0,0 -0.25,0 -0.25,-0.25c0,-0.25 0.25,-0.25 0.25,-0.25z" data-paper-data="{&quot;index&quot;:null}" fill="#1a3d13"/><path d="M228.90016,171.88325h0.18165c0.30275,0 0.60551,0 0.90826,0c0,0 0.25,0 0.25,0.25c0,0.25 -0.25,0.25 -0.25,0.25c-0.30275,0 -0.78716,0 -1.08991,0c0,0 -0.25,0 -0.25,-0.25c0,-0.25 0.25,-0.25 0.25,-0.25z" data-paper-data="{&quot;index&quot;:null}" fill="#1a3d13"/><path d="M228.71851,173.15481l0.46493,0.02159c0.24888,0.11488 0.53253,0.16341 0.80663,0.16007c0,0 0.25,0 0.25,0.25c0,0.25 -0.25,0.25 -0.25,0.25c-0.34336,-0.0034 -0.69466,-0.0671 -1.00989,-0.20325l-0.26167,0.02159c0,0 -0.25,0 -0.25,-0.25c0,-0.25 0.25,-0.25 0.25,-0.25z" data-paper-data="{&quot;index&quot;:null}" fill="#1a3d13"/><path d="M228.53686,174.06307h0.22661c0.28777,0 0.57553,0 0.8633,0c0,0 0.25,0 0.25,0.25c0,0.25 -0.25,0.25 -0.25,0.25c-0.28777,0 -0.80214,0 -1.08991,0c0,0 -0.25,0 -0.25,-0.25c0,-0.25 0.25,-0.25 0.25,-0.25z" data-paper-data="{&quot;index&quot;:null}" fill="#1a3d13"/><path d="M227.44695,174.97133l0.28328,0.02159c0.6658,0.30733 1.53098,0.16006 2.25984,0.16006c0,0 0.25,0 0.25,0.25c0,0.25 -0.25,0.25 -0.25,0.25c-0.82432,0 -1.70057,0.12609 -2.4631,-0.20324l-0.08002,0.02159c0,0 -0.25,0 -0.25,-0.25c0,-0.25 0.25,-0.25 0.25,-0.25z" data-paper-data="{&quot;index&quot;:null}" fill="#1a3d13"/><path d="M227.81025,175.87958h0.27156c0.33334,0 0.66666,0 1,0c0,0 0.25,0 0.25,0.25c0,0.25 -0.25,0.25 -0.25,0.25c-0.33334,0 -0.93822,0 -1.27156,0c0,0 -0.25,0 -0.25,-0.25c0,-0.25 0.25,-0.25 0.25,-0.25z" data-paper-data="{&quot;index&quot;:null}" fill="#1a3d13"/><path d="M227.81513,177.04272l0.24662,-0.22848c0.2422,-0.1211 0.48441,-0.2422 0.72661,-0.3633c0,0 0.2236,-0.1118 0.33541,0.11181c0.11181,0.2236 -0.1118,0.33541 -0.1118,0.33541c-0.2422,0.1211 -0.48441,0.2422 -0.72661,0.3633l-0.11668,0.13482c0,0 -0.17678,0.17677 -0.35356,0c-0.17677,-0.17677 0,-0.35355 0,-0.35355z" data-paper-data="{&quot;index&quot;:null}" fill="#1a3d13"/><path d="M227.81025,178.96766h0.22661c0.42315,0 0.66662,0.04674 1.01244,-0.10577l0.03201,-0.12805c0.10709,-0.22039 0.01776,-0.33232 -0.15751,-0.4436l-0.05154,0.10308l-0.44236,-0.22119c-0.08456,-0.04009 -0.14305,-0.12623 -0.14305,-0.22603c0,-0.13807 0.11193,-0.25 0.25,-0.25h0.40826c0.16666,0 0.33334,0 0.5,0c0,0 0.25,0 0.25,0.25c0,0.13228 -0.06999,0.19457 -0.13591,0.2239c0.06149,0.15192 0.05076,0.38203 0.00718,0.68511l-0.04801,0.19207c-0.00065,0.06227 -0.0284,0.11086 -0.05928,0.14575c-0.02819,0.03886 -0.07129,0.07762 -0.13498,0.0907c-0.4619,0.21087 -0.76372,0.18403 -1.28724,0.18403h-0.22661c0,0 -0.25,0 -0.25,-0.25c0,-0.25 0.25,-0.25 0.25,-0.25z" data-paper-data="{&quot;index&quot;:null}" fill="#1a3d13"/><path d="M228.18184,180.05757h0.2266c0.28777,0 0.57554,0 0.8633,0c0,0 0.25,0 0.25,0.25c0,0.25 -0.25,0.25 -0.25,0.25c-0.28777,0 -0.80214,0 -1.08991,0c0,0 -0.25,0 -0.25,-0.25c0,-0.25 0.25,-0.25 0.25,-0.25z" data-paper-data="{&quot;index&quot;:null}" fill="#1a3d13"/><path d="M228.36837,181.40235l0.35843,-0.25487c0.30275,0 0.60551,0 0.90826,0c0,0 0.25,0 0.25,0.25c0,0.25 -0.25,0.25 -0.25,0.25c-0.30275,0 -0.60551,0 -0.90826,0l-0.00487,0.10843c0,0 -0.17678,0.17677 -0.35355,0c-0.17677,-0.17677 0,-0.35356 0,-0.35356z" data-paper-data="{&quot;index&quot;:null}" fill="#1a3d13"/><path d="M228.54514,182.60069h0.40825c0.16666,0 0.33334,0 0.5,0c0,0 0.25,0 0.25,0.25c0,0.25 -0.25,0.25 -0.25,0.25c-0.16666,0 -0.74159,0 -0.90825,0c0,0 -0.25,0 -0.25,-0.25c0,-0.25 0.25,-0.25 0.25,-0.25z" data-paper-data="{&quot;index&quot;:null}" fill="#1a3d13"/><path d="M228.00019,183.87225h0.40825c0.28777,0 0.57554,0 0.8633,0c0,0 0.25,0 0.25,0.25c0,0.25 -0.25,0.25 -0.25,0.25c-0.28777,0 -0.98379,0 -1.27156,0c0,0 -0.25,0 -0.25,-0.25c0,-0.25 0.25,-0.25 0.25,-0.25z" data-paper-data="{&quot;index&quot;:null}" fill="#1a3d13"/><path d="M228.2609,185.15663l0.07061,0.02354c0.4129,0.14086 0.70803,0.14678 1.10607,0.14577c0.00523,-0.00033 0.01051,-0.00049 0.01583,-0.00049c0.00482,0 0.0096,0.00014 0.01436,0.00041c0.05367,-0.00017 0.10927,-0.00041 0.1673,-0.00041c0,0 0.25,0 0.25,0.25c0,0.25 -0.25,0.25 -0.25,0.25c-0.05981,0 -0.11752,0.00003 -0.17357,-0.00013c-0.00269,0.00009 -0.00538,0.00013 -0.00809,0.00013c-0.00326,0 -0.00651,-0.00006 -0.00974,-0.00019c-0.45518,-0.00167 -0.80199,-0.01778 -1.27027,-0.17076l-0.07061,-0.02353c0,0 -0.23717,-0.07906 -0.15812,-0.31623c0.07906,-0.23717 0.31623,-0.15811 0.31623,-0.15811z" data-paper-data="{&quot;index&quot;:null}" fill="#1a3d13"/><path d="M228.27643,186.2523l0.00778,0.00319c0.13245,0.055 0.26313,0.09698 0.39357,0.13164c0.03778,-0.09011 0.12682,-0.15341 0.23065,-0.15341c0.13807,0 0.25,0.11193 0.25,0.25c0,0.00278 -0.00005,0.00554 -0.00014,0.0083c0.17509,0.03358 0.35304,0.06663 0.53737,0.11247c0,0 0.24254,0.06063 0.18191,0.30317c-0.06063,0.24254 -0.30317,0.1819 -0.30317,0.1819c-0.51836,-0.13035 -0.98025,-0.17004 -1.47939,-0.37125l-0.00778,-0.00318c0,0 -0.23142,-0.09459 -0.13683,-0.32601c0.09459,-0.23141 0.32601,-0.13682 0.32601,-0.13682z" data-paper-data="{&quot;index&quot;:null}" fill="#1a3d13"/></g></g></svg>