<svg version="1.1" xmlns="http://www.w3.org/2000/svg" xmlns:xlink="http://www.w3.org/1999/xlink" width="47.67195" height="45.43017" viewBox="0,0,47.67195,45.43017"><g transform="translate(-214.75171,-157.54006)"><g data-paper-data="{&quot;isPaintingLayer&quot;:true}" fill-rule="nonzero" stroke="none" stroke-width="0.5" stroke-linecap="butt" stroke-linejoin="miter" stroke-miterlimit="10" stroke-dasharray="" stroke-dashoffset="0" style="mix-blend-mode: normal"><path d="M232.18503,183.04727c2.05577,-2.41167 3.52128,-5.31951 5.58557,-7.67469c2.45505,-2.801 6.52828,-5.04099 9.40842,-7.50203c3.04573,-2.60253 10.2638,-8.25061 13.22744,-3.80514c2.45248,3.67872 -3.69855,6.48572 -5.87274,7.93586c-2.09374,1.39649 -3.51122,3.54413 -5.55923,4.80984c-1.72781,1.06782 -3.80408,1.88408 -5.35185,3.25209c-3.61138,3.19196 -5.78309,7.49015 -8.4849,11.3847c-0.6317,0.27624 -1.18231,0.59804 -1.41504,0.79278c-1.51244,1.26551 -5.77449,3.80392 -9.03653,6.15681c-1.66311,0.28439 -3.37207,2.14685 -4.24757,3.9759c-0.57634,0.44764 -1.25156,0.79396 -1.90058,0.46948c-1.59779,0 -2.9622,-0.99928 -3.50234,-2.40697c-0.24003,-0.37902 -0.3467,-0.79287 -0.24639,-1.24427c-0.00085,-0.03281 -0.00127,-0.06574 -0.00127,-0.09876c0,-1.3548 0.71845,-2.5418 1.79513,-3.20078c0.03887,-0.03636 0.07819,-0.0723 0.11795,-0.10784c1.83895,-0.1311 4.23629,-1.47261 5.94428,-2.7779c0.01248,0.00023 0.02498,0.00034 0.03752,0.00034c0.87459,0 1.61808,-0.56139 1.88975,-1.34347c2.87293,-2.1294 6.68717,-4.48726 7.38208,-8.35425c0.07861,-0.08664 0.15542,-0.17386 0.2303,-0.2617z" fill="#654400"/><path d="M232.8401,188.85454c-0.73233,-0.80391 -1.50234,-1.56327 -2.35643,-2.28333c0.31705,-0.42559 0.59816,-0.87282 0.83219,-1.34519c0.8251,0.63797 1.56137,1.39957 2.25414,2.20798c0.70539,0.7463 1.37233,1.53059 2.03294,2.35805l0.6075,0.60587c0,0 0.04266,0.04266 0.09168,0.11587c-0.24547,0.23749 -0.49097,0.49169 -0.72681,0.75597c-0.06606,0.02485 -0.13185,0.05056 -0.19711,0.07694c-0.16602,0.03126 -0.32479,0.08305 -0.47359,0.15261c-0.67799,-0.84017 -1.3481,-1.76411 -2.06452,-2.64476z" fill="#583a00"/><path d="M217.53049,196.03824c0,0 -0.12087,-0.14284 -0.17051,-0.34619c0.46851,-0.09472 0.96088,-0.25089 1.45986,-0.45127c1.23195,1.46689 2.40637,2.93815 3.50629,4.50808c-0.36473,0.35004 -0.70685,0.74704 -1.01369,1.1678c-1.17472,-1.71465 -2.43963,-3.2974 -3.78195,-4.87843z" fill="#583a00"/><path d="M234.64434,191.55543l-0.1056,-0.11246c-0.21424,-0.32136 -0.44398,-0.58363 -0.69525,-0.87687c-0.83585,-1.16848 -2.20793,-2.78883 -3.48378,-3.83192c0.09911,-0.12768 0.19503,-0.2573 0.28745,-0.38899c1.31341,1.08811 2.70906,2.67742 3.58996,3.9126c0.25827,0.30121 0.49692,0.57675 0.71764,0.90783l0.04313,0.03626c0,0 0.10198,0.10198 0.07357,0.22848c-0.12644,0.04565 -0.24697,0.10368 -0.36011,0.17262c-0.04143,-0.02197 -0.06701,-0.04755 -0.06701,-0.04755z" fill="#9b6700"/><path d="M232.90734,190.92906c-0.90035,-1.26811 -2.18036,-2.23717 -3.207,-3.42013c0.11326,-0.12232 0.22388,-0.24646 0.33154,-0.37253c1.0335,1.22422 2.35267,2.20738 3.28233,3.50205c0.30322,0.4246 0.55219,0.87631 0.8427,1.30816c-0.17578,0.10443 -0.31868,0.20053 -0.41506,0.27834c-0.28697,-0.42825 -0.53428,-0.87566 -0.8345,-1.29588z" fill="#9b6700"/><path d="M232.67063,192.91557c-0.94575,-1.68741 -2.61774,-2.99318 -3.86781,-4.5182c0.12231,-0.11193 0.24288,-0.22536 0.36139,-0.3404c1.25674,1.56891 2.94391,2.893 3.94054,4.61053l0.02591,0.03367c-0.12612,0.09303 -0.26092,0.19018 -0.40354,0.29113z" fill="#9b6700"/><path d="M231.83002,193.60742c-1.15577,-1.60028 -2.64819,-2.936 -3.87187,-4.47938c0.12826,-0.10546 0.2555,-0.21221 0.38139,-0.32032c1.22439,1.55673 2.72944,2.90002 3.89545,4.50646l0.01067,0.01331c-0.13334,0.09151 -0.2716,0.18548 -0.41425,0.28169z" fill="#9b6700"/><path d="M226.77886,190.04953c0.13173,-0.09874 0.26338,-0.19845 0.39463,-0.29925c1.25651,1.50149 3.04984,2.57649 4.29128,4.10475c-0.13514,0.09015 -0.27354,0.18199 -0.41481,0.27539c-1.23024,-1.52278 -3.00992,-2.59065 -4.27111,-4.08088z" fill="#9b6700"/><path d="M229.82557,194.71341c-1.18669,-1.44224 -2.77336,-2.54073 -4.09338,-3.89527c0.13643,-0.09891 0.27369,-0.19861 0.41142,-0.29921c1.37793,1.37488 3.13283,2.49147 4.22368,4.06068c-0.17201,0.11276 -0.34705,0.22728 -0.52456,0.34334c-0.03252,-0.05096 -0.05371,-0.12228 -0.01714,-0.20955z" fill="#9b6700"/><path d="M224.80129,191.49466c0.13285,-0.09748 0.26743,-0.1955 0.40335,-0.29419c1.03954,1.46462 2.35556,3.15451 3.67282,4.35374c-0.14076,0.09219 -0.28236,0.18504 -0.42456,0.27846c-1.31113,-1.23325 -2.60842,-2.8747 -3.6516,-4.33801z" fill="#9b6700"/><path d="M228.20134,195.99812c-0.13743,0.09051 -0.27528,0.1815 -0.41332,0.27287c-1.06746,-1.42604 -2.54467,-2.48727 -3.73509,-3.80723c0.12177,-0.11453 0.22917,-0.24416 0.31923,-0.38589c1.20547,1.37355 2.72437,2.45592 3.82918,3.92025z" fill="#9b6700"/><path d="M227.20401,196.65929c-0.07983,0.05334 -0.15961,0.10675 -0.23931,0.16025c-1.02939,-1.14939 -2.90521,-2.45126 -4.11794,-3.81946c0.17375,-0.01409 0.34123,-0.05039 0.49958,-0.10605c1.11998,1.42681 2.58052,2.80551 3.85767,3.76526z" fill="#9b6700"/><path d="M225.6012,197.74992c-0.14122,0.09824 -0.28132,0.1964 -0.42002,0.29436c-1.02181,-1.57584 -2.49537,-2.81012 -3.47169,-4.36771c0.13896,-0.09328 0.27541,-0.1875 0.40885,-0.2822c0.9642,1.56341 2.46329,2.77581 3.48287,4.35554z" fill="#9b6700"/><path d="M220.6604,194.332c0.14445,-0.08361 0.28762,-0.16922 0.42907,-0.25639c0.90946,1.54117 1.68854,3.13358 2.57095,4.68435c-0.14424,0.07595 -0.28743,0.16148 -0.42899,0.25552c-0.88182,-1.55095 -1.6612,-3.14289 -2.57103,-4.68347z" fill="#9b6700"/><path d="M219.39302,194.99303c0.1496,-0.06909 0.29921,-0.14153 0.44835,-0.21685c0.80564,1.66263 1.96445,3.03903 3.04551,4.4871c-0.12733,0.0986 -0.25288,0.20363 -0.37617,0.31424c-1.09507,-1.48735 -2.28674,-2.8876 -3.11769,-4.5845z" fill="#9b6700"/><path d="M248.39045,161.64409c5.32952,3.40422 14.03321,13.27682 14.03321,20.13501c0,2.73422 -3.23747,3.60043 -5.08705,2.54353c-1.65397,-0.94513 -1.39867,-3.34561 -1.92684,-5.00053c-0.94953,-2.97517 -6.48877,-9.04365 -8.69573,-11.11093c-1.29897,-1.21676 -5.26575,-2.95844 -6.15793,-4.51976c-0.95791,-0.56534 -1.60051,-1.60808 -1.60051,-2.8009c0,-1.69369 1.29557,-3.08479 2.94975,-3.23632c2.09531,-0.73542 3.77311,2.25762 6.4851,3.98991z" fill="#cab751"/><path d="M248.16304,178.36561c-0.12491,0.03276 -0.20973,-0.00069 -0.26529,-0.04749c-0.26211,-0.07027 -0.19465,-0.31802 -0.19465,-0.31802l0.02252,-0.08098l-0.00726,-0.02405c-0.15775,-0.23672 -0.27681,-0.46558 -0.46761,-0.68255c-1.35222,-1.86484 -3.24123,-3.86432 -5.09935,-5.31944c0,0 -0.21958,-0.17278 -0.03137,-0.37435c0.18822,-0.20157 0.40781,-0.0288 0.40781,-0.0288c1.86924,1.47697 3.76633,3.46616 5.14518,5.34801c-0.03607,-0.23158 -0.07412,-0.46408 -0.15632,-0.68921c-0.981,-1.8079 -2.78398,-3.45011 -4.33269,-4.86553c0,0 -0.20452,-0.18773 0,-0.37545c0.20452,-0.18773 0.40902,0 0.40902,0c1.6073,1.48116 3.43082,3.15731 4.45808,5.03779c0.05509,0.15233 0.08749,0.31686 0.11355,0.48506c0.4715,-1.22702 1.13482,-2.42225 1.3347,-3.6958c0.20296,-0.62101 0.33406,-1.2766 0.4404,-1.94545c-1.49665,-0.49564 -2.99315,-0.97611 -4.53849,-1.41164c0,0 -0.27642,-0.07807 -0.19137,-0.33182c0.08505,-0.25374 0.36149,-0.17567 0.36149,-0.17567c1.51344,0.42844 2.9816,0.89833 4.44888,1.38296c0.04057,-0.28348 0.07898,-0.56829 0.11873,-0.85287c-1.37754,-0.29217 -2.7673,-0.51741 -4.20314,-0.5152c0,0 -0.28922,0 -0.28922,-0.26548c0,-0.26549 0.28922,-0.26549 0.28922,-0.26549c1.4633,0.00204 2.8768,0.22934 4.27853,0.5236c0.20267,-1.34626 0.48383,-2.66518 1.21743,-3.78752c0,0 0.00772,-0.01181 0.02257,-0.02843c-0.0193,-0.71475 -0.08171,-1.42629 -0.2097,-2.12962l-0.03904,-0.09725c0,0 -0.09147,-0.25186 0.18291,-0.33582c0.27438,-0.08396 0.36584,0.1679 0.36584,0.1679l0.06085,0.17785c0.38082,2.1019 0.20105,4.27445 0.00663,6.39153c0.51119,0.11784 1.02274,0.23651 1.53654,0.3483c1.25694,0.27489 2.58397,0.46094 3.86318,0.65284l0.10229,-0.00361c0,0 0.28922,0 0.28922,0.26548c0,0.26549 -0.28922,0.26549 -0.28922,0.26549l-0.19739,-0.00361c-1.29359,-0.20121 -2.62959,-0.38213 -3.90206,-0.66005c-0.50264,-0.11032 -1.00354,-0.22771 -1.50435,-0.34438c-0.06043,0.33997 -0.09748,0.6807 -0.11987,1.02203c0.69969,0.23369 1.40278,0.46854 2.11405,0.70169c1.65931,0.46835 3.22129,1.12668 4.88782,1.56035l0.16185,0.04925c0,0 0.27437,0.08396 0.18291,0.33582c-0.09146,0.25186 -0.36584,0.1679 -0.36584,0.1679l-0.13784,-0.04244c-1.67256,-0.44171 -3.24493,-1.0963 -4.91127,-1.56699c-0.65814,-0.21579 -1.30901,-0.43315 -1.95655,-0.64971c-0.04234,1.60413 0.13451,3.2198 -0.36666,4.83113c0,0 -0.07945,0.25527 -0.35754,0.18233c-0.27809,-0.07294 -0.19864,-0.3282 -0.19864,-0.3282c0.50588,-1.62414 0.31453,-3.2528 0.36242,-4.87268c-0.17613,-0.05888 -0.35211,-0.11763 -0.52799,-0.17623c-0.10142,0.6473 -0.22743,1.28042 -0.42268,1.8778c-0.24686,1.60015 -1.24803,3.07385 -1.65115,4.64446c0.02053,0.03898 0.0432,0.07689 0.06834,0.11355l0.08555,0.31377c0,0 0.05578,0.25602 -0.21989,0.31105c-0.0271,0.0548 -0.08106,0.10682 -0.18405,0.13383zM251.04209,170.5926c0.02287,-0.32232 0.05949,-0.64423 0.11725,-0.96563c-0.1565,-0.03594 -0.31304,-0.07154 -0.46969,-0.10654c-0.04154,0.30489 -0.08127,0.61015 -0.12366,0.91362c0.15863,0.05273 0.31731,0.10558 0.4761,0.15855zM251.25433,169.10632c0.08402,-0.94012 0.16678,-1.89132 0.19585,-2.84185c-0.36213,0.85117 -0.54559,1.78364 -0.68638,2.73182c0.16358,0.03612 0.32707,0.07289 0.49053,0.11004z" fill="#012800"/></g></g></svg>