<svg version="1.1" xmlns="http://www.w3.org/2000/svg" xmlns:xlink="http://www.w3.org/1999/xlink" width="76.00212" height="117.97452" viewBox="0,0,76.00212,117.97452"><g transform="translate(-185.10652,-101.14486)"><g data-paper-data="{&quot;isPaintingLayer&quot;:true}" fill-rule="nonzero" stroke-linejoin="miter" stroke-miterlimit="10" stroke-dasharray="" stroke-dashoffset="0" style="mix-blend-mode: normal"><g><g><path d="M249.19024,136.48513c-3.68381,5.99667 -8.94881,9.45808 -11.75973,7.7313c-2.81093,-1.72679 -2.10335,-7.98785 1.58045,-13.98451c3.68381,-5.99667 8.94881,-9.45808 11.75975,-7.73131c2.81093,1.72679 2.10332,7.98786 -1.58045,13.98451z" fill="#8c6738" stroke="none" stroke-width="0" stroke-linecap="butt"/><path d="M250.31922,109.54624c6.01197,5.58237 5.96669,15.40521 -0.10108,21.93993c-6.06779,6.53474 -15.86035,7.30678 -21.87228,1.72442c-6.01196,-5.58237 -5.96669,-15.40521 0.10108,-21.93993c6.0678,-6.53473 15.86035,-7.30678 21.87228,-1.72442z" fill="#8c6738" stroke="none" stroke-width="0" stroke-linecap="butt"/><path d="M249.60179,110.12616c4.57504,0.7304 8.57297,3.52416 8.92966,6.24004c0.35668,2.71586 -3.06296,4.32544 -7.638,3.59503c-4.57504,-0.7304 -8.57297,-3.52416 -8.92966,-6.24004c-0.35669,-2.71587 3.06298,-4.32545 7.638,-3.59504z" fill="#8c6738" stroke="none" stroke-width="0" stroke-linecap="butt"/><path d="M256.10319,122.83762c-2.91179,3.60357 -7.32549,5.67919 -9.85823,4.63597c-2.53276,-1.04324 -2.22549,-4.81023 0.6863,-8.41381c2.91179,-3.60358 7.32546,-5.67918 9.85824,-4.63595c2.53275,1.04324 2.22552,4.81023 -0.6863,8.41381z" data-paper-data="{&quot;index&quot;:null}" fill="#8c6738" stroke="none" stroke-width="0" stroke-linecap="butt"/><path d="M256.42485,124.41789l-1.67122,-1.61861l1.18161,-1.30853l1.45719,1.45329l-0.82403,1.60711" fill="#b39675" stroke="#b39675" stroke-width="0.5" stroke-linecap="round"/><path d="M257.88441,113.63507c0.29343,0.27249 0.22743,0.55826 0.14021,0.73055c1.95962,4.27863 -2.11051,7.01768 -4.82243,9.93833c0,0 -0.42901,0.46201 -0.89103,0.03301c-0.46201,-0.429 -0.03301,-0.89102 -0.03301,-0.89102c2.17264,-2.33984 5.84316,-4.7061 4.80491,-8.02129c-0.05134,0.05532 -0.09336,0.10053 -0.12097,0.13026c0,0 -0.42901,0.46201 -0.89102,0.03302c-0.46201,-0.429 -0.03301,-0.89102 -0.03301,-0.89102c0.15923,-0.17149 0.31843,-0.34294 0.47764,-0.51442l0.47765,-0.51442c0,0 0.429,-0.46201 0.89102,-0.03301z" fill="#864e00" stroke="none" stroke-width="0.5" stroke-linecap="butt"/><path d="M257.98646,113.41052c0.46201,0.429 0.03302,0.89102 0.03302,0.89102c-0.31843,0.34294 -0.95531,1.02882 -1.27374,1.37176c0,0 -0.42901,0.46201 -0.89103,0.03301c-0.46201,-0.429 -0.03301,-0.89103 -0.03301,-0.89103c0.31843,-0.34294 0.63688,-0.68588 0.95531,-1.02882l0.31843,-0.34295c0,0 0.42901,-0.46201 0.89103,-0.03301z" fill="#871400" stroke="none" stroke-width="0.5" stroke-linecap="butt"/><path d="M244.85002,112.88103c-0.05584,-0.29956 0.17244,-0.54543 0.17244,-0.54543l0.13096,-0.12048c2.26218,-1.23445 2.57536,2.00139 0.10123,1.26276c0,0 -0.43459,-0.17418 -0.40466,-0.59685z" fill="#000000" stroke="none" stroke-width="0.5" stroke-linecap="butt"/><path d="M234.95366,114.13384c-0.17709,0.6051 -0.7822,0.42801 -0.7822,0.42801l-0.13603,-0.04236c-0.53976,-0.11414 -1.04076,-0.31161 -1.54655,-0.50879c0.12574,0.21577 0.25764,0.43343 0.39701,0.65465l0.11672,0.34458c0,0 0.14646,0.61324 -0.46678,0.75969c-0.61323,0.14645 -0.75968,-0.46678 -0.75968,-0.46678l0.0426,0.03426c-0.93054,-1.47914 -1.5614,-2.83822 -2.21672,-4.46585c0,0 -0.23536,-0.58489 0.34953,-0.82026c0.5849,-0.23537 0.82026,0.34953 0.82026,0.34953c0.28375,0.70549 0.55883,1.35162 0.85713,1.97852c0.91014,0.25375 1.74762,0.73847 2.6529,0.90384l0.24376,0.06879c0,0 0.6051,0.1771 0.42801,0.7822z" fill="#7c4800" stroke="none" stroke-width="0.5" stroke-linecap="butt"/><path d="M230.66156,108.55564c0.09666,0.00138 0.61684,0.03536 0.63804,0.60676c0.02334,0.63005 -0.6067,0.6534 -0.6067,0.6534l-0.39134,-0.06091c-0.6254,-0.54455 -1.05874,1.07761 -1.20326,1.57806c0,0 -0.17708,0.60511 -0.78219,0.42801c-0.6051,-0.17709 -0.428,-0.78219 -0.428,-0.78219c0.43572,-1.47215 1.14865,-2.91806 2.77349,-2.42312z" fill="#8c6738" stroke="none" stroke-width="0.5" stroke-linecap="butt"/><path d="M237.409,113.41073c-0.49003,0.39672 -0.88673,-0.09332 -0.88673,-0.09332l-0.13584,-0.17786c-1.39158,-1.2934 -2.81032,-2.43486 -4.42187,-3.44814c-4.44072,-3.70519 -4.1454,4.6643 -1.59812,7.00536c0,0 0.46201,0.429 0.03302,0.89101c-0.429,0.46201 -0.89102,0.03302 -0.89102,0.03302c-3.67332,-3.44029 -2.65154,-13.78173 3.19544,-8.9509c1.65509,1.0352 3.11266,2.22091 4.54058,3.54557l0.25788,0.30848c0,0 0.39671,0.49003 -0.09332,0.88673z" fill="#7c4800" stroke="none" stroke-width="0.5" stroke-linecap="butt"/><path d="M237.04216,129.24697c2.93822,6.39509 2.89002,12.69584 -0.1077,14.07314c-2.99769,1.37729 -7.80971,-2.69043 -10.74793,-9.08552c-2.93822,-6.39508 -2.89002,-12.69583 0.10769,-14.07313c2.99769,-1.37729 7.80972,2.69043 10.74794,9.08551z" fill="#8c6738" stroke="none" stroke-width="0" stroke-linecap="butt"/><path d="M246.05198,125.59681c-0.429,0.46201 -0.89101,0.03302 -0.89101,0.03302l-0.13524,-0.12556c-3.12049,-2.89753 -3.21243,-4.65508 -2.57923,-8.56978c0,0 0.10067,-0.62242 0.72306,-0.52174c0.6224,0.10068 0.52171,0.72307 0.52171,0.72307c-0.57323,3.54396 -0.65401,4.80133 2.19245,7.4444l0.13523,0.12557c0,0 0.46201,0.429 0.03302,0.89101z" fill="#864e00" stroke="none" stroke-width="0.5" stroke-linecap="butt"/><path d="M243.47478,132.75553c3.64982,7.9439 3.00392,16.03986 -1.44265,18.08284c-4.44659,2.04299 -11.01001,-2.74066 -14.65983,-10.68456c-3.64982,-7.9439 -3.00392,-16.03986 1.44265,-18.08284c4.44659,-2.04299 11.01001,2.74066 14.65983,10.68456z" fill="#8c6738" stroke="none" stroke-width="0" stroke-linecap="butt"/></g><path d="M238.80415,107.70587c-2.28387,-0.08148 -4.55327,-1.14378 -6.8048,-1.51c-2.50691,-0.92062 -7.07089,-1.86462 -8.71141,-4.07483c-0.05252,-0.03935 -0.10469,-0.07921 -0.15654,-0.11958c0,0 -0.37368,-0.29298 -0.0807,-0.66667c0.29299,-0.37369 0.66668,-0.0807 0.66668,-0.0807c2.68028,2.11922 6.43314,2.74427 9.63991,3.55798c1.48565,0.23648 4.92026,0.96525 6.21391,0.14268l0.17886,-0.17395c0,0 0.22382,-0.2036 0.47666,-0.1071c0.06516,-0.02091 0.1438,-0.02801 0.23846,-0.01293c0.46895,0.07465 0.3943,0.54357 0.3943,0.54357c-0.10755,0.65311 -0.35936,1.24514 -0.46319,1.90301l-0.04975,0.31261c0,0 -0.07464,0.46898 -0.54359,0.39433c-0.12145,-0.01933 -0.20646,-0.06511 -0.26573,-0.12236c-0.1911,0.01909 -0.43312,0.02465 -0.73304,0.01393z" fill="#8c8172" stroke="none" stroke-width="0.5" stroke-linecap="butt"/><path d="M240.41753,122.39568c-2.90868,0.86416 -6.21427,0.48786 -9.20277,0.98001c-3.54455,-0.09743 -9.68773,0.64639 -12.68779,-1.44069c-0.08273,-0.02729 -0.16529,-0.05536 -0.24762,-0.0842c0,0 -0.59426,-0.21053 -0.38375,-0.80484c0.21053,-0.59426 0.80484,-0.38375 0.80484,-0.38375c4.27006,1.53248 9.25748,0.73059 13.63751,0.39727c1.96975,-0.33123 6.60058,-0.86791 7.8804,-2.45064l0.15144,-0.29463c0,0 0.19546,-0.351 0.55453,-0.33657c0.07316,-0.0539 0.16911,-0.0961 0.29462,-0.11722c0.62173,-0.10457 0.7263,0.5172 0.7263,0.5172c0.14108,0.86745 0.07481,1.71907 0.22262,2.59094l0.06968,0.41449c0,0 0.10455,0.62177 -0.51719,0.7263c-0.16104,0.02709 -0.28738,0.00542 -0.38621,-0.0415c-0.23243,0.10494 -0.53462,0.21435 -0.91661,0.32784z" fill="#8c8172" stroke="none" stroke-width="0.5" stroke-linecap="butt"/><path d="M236.55493,118.46985c-3.02919,-0.17624 -6.00995,-1.65398 -8.98775,-2.20722c-3.30028,-1.29674 -9.33038,-2.68587 -11.44214,-5.66865c-0.06854,-0.0538 -0.1366,-0.10826 -0.20423,-0.16338c0,0 -0.48729,-0.40004 -0.08723,-0.88736c0.40007,-0.4873 0.88736,-0.08726 0.88736,-0.08726c3.49467,2.89297 8.45759,3.83452 12.69002,5.01024c1.96503,0.35819 6.50248,1.42794 8.24414,0.37464l0.24259,-0.22558c0,0 0.30317,-0.26364 0.63593,-0.12799c0.08711,-0.02581 0.19168,-0.0329 0.31692,-0.01005c0.62025,0.11306 0.5072,0.73333 0.5072,0.73333c-0.16226,0.86373 -0.51412,1.6421 -0.67156,2.51227l-0.07538,0.4135c0,0 -0.11306,0.62025 -0.73333,0.5072c-0.16067,-0.02929 -0.27213,-0.0926 -0.34909,-0.17034c-0.25424,0.01965 -0.57565,0.0198 -0.97347,-0.00335z" fill="#8c8172" stroke="none" stroke-width="0.5" stroke-linecap="butt"/><path d="M249.19024,136.48513c-3.68381,5.99667 -8.94881,9.45808 -11.75973,7.7313c-2.81093,-1.72679 -2.10335,-7.98785 1.58045,-13.98451c3.68381,-5.99667 8.94881,-9.45808 11.75975,-7.73131c2.81093,1.72679 2.10332,7.98786 -1.58045,13.98451z" fill="#8c6738" stroke="none" stroke-width="0" stroke-linecap="butt"/><path d="M250.31922,109.54624c6.01197,5.58237 5.96669,15.40521 -0.10108,21.93993c-6.06779,6.53474 -15.86035,7.30678 -21.87228,1.72442c-6.01196,-5.58237 -5.96669,-15.40521 0.10108,-21.93993c6.0678,-6.53473 15.86035,-7.30678 21.87228,-1.72442z" fill="#8c6738" stroke="none" stroke-width="0" stroke-linecap="butt"/><path d="M249.60179,110.12616c4.57504,0.7304 8.57297,3.52416 8.92966,6.24004c0.35668,2.71586 -3.06296,4.32544 -7.638,3.59503c-4.57504,-0.7304 -8.57297,-3.52416 -8.92966,-6.24004c-0.35669,-2.71587 3.06298,-4.32545 7.638,-3.59504z" fill="#8c6738" stroke="none" stroke-width="0" stroke-linecap="butt"/><path d="M256.10319,122.83762c-2.91179,3.60357 -7.32549,5.67919 -9.85823,4.63597c-2.53276,-1.04324 -2.22549,-4.81023 0.6863,-8.41381c2.91179,-3.60358 7.32546,-5.67918 9.85824,-4.63595c2.53275,1.04324 2.22552,4.81023 -0.6863,8.41381z" data-paper-data="{&quot;index&quot;:null}" fill="#8c6738" stroke="none" stroke-width="0" stroke-linecap="butt"/><path d="M256.42485,124.41789l-1.67122,-1.61861l1.18161,-1.30853l1.45719,1.45329l-0.82403,1.60711" fill="#b39675" stroke="#b39675" stroke-width="0.5" stroke-linecap="round"/><path d="M257.88441,113.63507c0.29343,0.27249 0.22743,0.55826 0.14021,0.73055c1.95962,4.27863 -2.11051,7.01768 -4.82243,9.93833c0,0 -0.42901,0.46201 -0.89103,0.03301c-0.46201,-0.429 -0.03301,-0.89102 -0.03301,-0.89102c2.17264,-2.33984 5.84316,-4.7061 4.80491,-8.02129c-0.05134,0.05532 -0.09336,0.10053 -0.12097,0.13026c0,0 -0.42901,0.46201 -0.89102,0.03302c-0.46201,-0.429 -0.03301,-0.89102 -0.03301,-0.89102c0.15923,-0.17149 0.31843,-0.34294 0.47764,-0.51442l0.47765,-0.51442c0,0 0.429,-0.46201 0.89102,-0.03301z" fill="#864e00" stroke="none" stroke-width="0.5" stroke-linecap="butt"/><path d="M257.98646,113.41052c0.46201,0.429 0.03302,0.89102 0.03302,0.89102c-0.31843,0.34294 -0.95531,1.02882 -1.27374,1.37176c0,0 -0.42901,0.46201 -0.89103,0.03301c-0.46201,-0.429 -0.03301,-0.89103 -0.03301,-0.89103c0.31843,-0.34294 0.63688,-0.68588 0.95531,-1.02882l0.31843,-0.34295c0,0 0.42901,-0.46201 0.89103,-0.03301z" fill="#871400" stroke="none" stroke-width="0.5" stroke-linecap="butt"/><path d="M244.85002,112.88103c-0.05584,-0.29956 0.17244,-0.54543 0.17244,-0.54543l0.13096,-0.12048c2.26218,-1.23445 2.57536,2.00139 0.10123,1.26276c0,0 -0.43459,-0.17418 -0.40466,-0.59685z" fill="#000000" stroke="none" stroke-width="0.5" stroke-linecap="butt"/><path d="M230.66156,108.55564c0.09666,0.00138 0.61684,0.03536 0.63804,0.60676c0.02334,0.63005 -0.6067,0.6534 -0.6067,0.6534l-0.39134,-0.06091c-0.6254,-0.54455 -1.05874,1.07761 -1.20326,1.57806c0,0 -0.17708,0.60511 -0.78219,0.42801c-0.6051,-0.17709 -0.428,-0.78219 -0.428,-0.78219c0.43572,-1.47215 1.14865,-2.91806 2.77349,-2.42312z" fill="#8c6738" stroke="none" stroke-width="0.5" stroke-linecap="butt"/><path d="M237.04216,129.24697c2.93822,6.39509 2.89002,12.69584 -0.1077,14.07314c-2.99769,1.37729 -7.80971,-2.69043 -10.74793,-9.08552c-2.93822,-6.39508 -2.89002,-12.69583 0.10769,-14.07313c2.99769,-1.37729 7.80972,2.69043 10.74794,9.08551z" fill="#8c6738" stroke="none" stroke-width="0" stroke-linecap="butt"/><path d="M246.05198,125.59681c-0.429,0.46201 -0.89101,0.03302 -0.89101,0.03302l-0.13524,-0.12556c-3.12049,-2.89753 -3.21243,-4.65508 -2.57923,-8.56978c0,0 0.10067,-0.62242 0.72306,-0.52174c0.6224,0.10068 0.52171,0.72307 0.52171,0.72307c-0.57323,3.54396 -0.65401,4.80133 2.19245,7.4444l0.13523,0.12557c0,0 0.46201,0.429 0.03302,0.89101z" fill="#864e00" stroke="none" stroke-width="0.5" stroke-linecap="butt"/><path d="M243.47478,132.75553c3.64982,7.9439 3.00392,16.03986 -1.44265,18.08284c-4.44659,2.04299 -11.01001,-2.74066 -14.65983,-10.68456c-3.64982,-7.9439 -3.00392,-16.03986 1.44265,-18.08284c4.44659,-2.04299 11.01001,2.74066 14.65983,10.68456z" fill="#8c6738" stroke="none" stroke-width="0" stroke-linecap="butt"/><g data-paper-data="{&quot;index&quot;:null}" stroke="none" stroke-width="0.5" stroke-linecap="butt"><path d="M246.04981,124.77702c0.0346,0.62952 -0.59492,0.66413 -0.59492,0.66413l0.06864,-0.1025c-0.91412,0.65487 -1.86786,1.3028 -2.66333,2.09766c-3.13608,3.1121 -5.84379,6.63608 -8.83848,9.6987c0,0 -0.4475,0.44409 -0.89163,-0.00344c-0.44412,-0.44752 0.0034,-0.89162 0.0034,-0.89162c3.02164,-2.86951 5.7647,-6.64843 8.83847,-9.69872c0.85046,-0.83905 1.84613,-1.532 2.81719,-2.22766l0.59653,-0.13151c0,0 0.62952,-0.0346 0.66413,0.59492z" fill="#7a6a5e"/><path d="M234.7404,135.41616c-0.25057,0.57853 -0.82914,0.32796 -0.82914,0.32796c-0.20325,-0.08805 -0.87564,-0.37926 -1.07892,-0.46729c0,0 -0.17581,-0.07612 -0.2916,-0.24137c-0.90342,-0.34618 -1.9822,-0.75331 -2.79448,-0.3866c0,0 -0.58627,0.2319 -0.81818,-0.35438c-0.23191,-0.58629 0.35437,-0.81817 0.35437,-0.81817c1.42922,-0.51969 2.86174,0.10433 4.24777,0.5821l0.37346,0.15974c0,0 0.20841,0.09027 0.32089,0.28753l0.18784,0.08139c0,0 0.57856,0.25059 0.32798,0.82912z" fill="#7a0c00"/><path d="M234.84377,135.81575c0.6083,-0.16576 0.77405,0.44255 0.77405,0.44255l0.09092,0.33489c0.3305,1.39427 0.23115,2.3536 -0.33581,3.66505c0,0 -0.2506,0.57854 -0.82914,0.32796c-0.57853,-0.25057 -0.32798,-0.82912 -0.32798,-0.82912c0.46469,-1.0707 0.54216,-1.7297 0.26656,-2.87055l-0.08118,-0.29672c0,0 -0.16573,-0.60831 0.44258,-0.77407z" fill="#7a0c00"/><path d="M237.76829,131.76951c-0.25057,0.57853 -0.82914,0.32796 -0.82914,0.32796l-0.14076,-0.06097c-0.99272,-0.42996 -1.97611,-0.89 -3.04977,-1.06285c0,0 -0.62207,-0.1028 -0.51928,-0.72483c0.10279,-0.62203 0.72484,-0.51927 0.72484,-0.51927c1.17967,0.19911 2.25284,0.6767 3.34538,1.14992l0.14074,0.06095c0,0 0.57856,0.25059 0.32798,0.82912z" fill="#7a0c00"/><path d="M238.12652,132.22378c0.6083,-0.16576 0.77406,0.44255 0.77406,0.44255l0.08605,0.31582c0.32909,1.20785 0.71053,2.26535 0.84037,3.37741c-0.49357,0.71032 -0.96198,1.41883 -1.39143,2.11307c0.00472,-0.07145 0.01705,-0.11856 0.01705,-0.11856c0.48971,-1.85555 -0.20045,-3.27099 -0.6826,-5.04043l-0.08605,-0.31582c0,0 -0.16575,-0.60828 0.44255,-0.77406z" fill="#7a0c00"/><path d="M240.96343,128.5415c-0.4332,0.45807 -0.89129,0.02487 -0.89129,0.02487l-0.33715,-0.33548c-1.01969,-0.64541 -2.10366,-0.97007 -3.25438,-1.29616c0,0 -0.41491,-0.11758 -0.46118,-0.50141c0.37976,-0.17528 0.78408,-0.37607 1.20387,-0.59694c1.11948,0.32815 2.17477,0.69666 3.18296,1.32707l0.5323,0.48677c0,0 0.45809,0.43321 0.02489,0.89128z" fill="#7a0c00"/><path d="M241.07417,128.76017c0.58629,-0.23191 0.81823,0.35438 0.81823,0.35438l0.21273,0.53779c0.37052,0.93985 0.58875,1.77127 0.76369,2.66064c-0.34884,0.43412 -0.69827,0.87747 -1.04456,1.32666c-0.20543,-1.28253 -0.39012,-2.26011 -0.8917,-3.52351l-0.21275,-0.53778c0,0 -0.23193,-0.58628 0.35437,-0.81819z" fill="#7a0c00"/><path d="M242.7966,126.86653c-0.56287,0.28403 -0.8469,-0.27883 -0.8469,-0.27883l-0.15993,-0.31999c-0.41716,-0.70863 -0.93914,-1.30087 -1.52796,-1.82176c0.42923,-0.12813 0.88156,-0.28086 1.34628,-0.4536c0.47649,0.48341 0.90442,1.02077 1.26756,1.63436l0.19983,0.39294c0,0 0.28404,0.56287 -0.27883,0.8469z" fill="#7a0c00"/><path d="M243.42268,126.48383c0.52941,-0.34237 0.87179,0.18706 0.87179,0.18706l0.07863,0.12366c0.29087,0.39562 0.53232,0.79072 0.75258,1.18998c-0.22459,0.50661 -0.43564,1.01231 -0.62889,1.51055c-0.33002,-0.66509 -0.66197,-1.30396 -1.1396,-1.95357l-0.12155,-0.18589c0,0 -0.34238,-0.52943 0.18703,-0.8718z" fill="#7a0c00"/><path d="M245.18156,124.64721c-0.48287,0.40542 -0.88827,-0.07747 -0.88827,-0.07747l-0.14698,-0.17506c-0.32258,-0.3843 -0.61234,-0.72828 -0.96267,-1.04358c0.40757,-0.17976 0.81567,-0.37032 1.21763,-0.56879c0.24213,0.25055 0.47106,0.51615 0.71074,0.80155l0.147,0.17511c0,0 0.4054,0.48284 -0.07747,0.88827z" fill="#7a0c00"/><path d="M236.20506,133.3208c-0.25057,0.57853 -0.82914,0.32796 -0.82914,0.32796l-0.23126,-0.10218c-1.27098,-0.67179 -2.27589,-0.65653 -3.68097,-0.69437c0,0 -0.63024,-0.01778 -0.61245,-0.648c0.01781,-0.63023 0.64802,-0.61246 0.64802,-0.61246c1.59236,0.04722 2.78639,0.07715 4.23383,0.8396l0.14401,0.06035c0,0 0.57854,0.2506 0.32796,0.82914z" fill="#7a6500"/><path d="M236.64477,133.82323c0.54759,-0.31248 0.86008,0.23509 0.86008,0.23509l0.1654,0.30258c0.45835,1.21337 0.4884,2.95482 0.4717,4.26981c0,0 -0.0088,0.63042 -0.6392,0.62164c-0.63044,-0.00879 -0.62164,-0.6392 -0.62164,-0.6392c0.01736,-1.13452 0.04715,-2.76814 -0.38343,-3.78842l-0.088,-0.1414c0,0 -0.3125,-0.5476 0.23509,-0.86008z" fill="#7a6500"/><path d="M239.39916,129.852c-0.42068,0.46962 -0.89029,0.04895 -0.89029,0.04895l-0.08315,-0.07701c-0.84722,-0.66988 -2.05828,-0.96564 -3.03163,-1.46101c0,0 -0.56183,-0.28617 -0.27561,-0.84797c0.28619,-0.5618 0.84798,-0.27559 0.84798,-0.27559c1.06534,0.54321 2.27417,0.87098 3.2261,1.58359l0.15767,0.13873c0,0 0.46962,0.42068 0.04893,0.89028z" fill="#7a6500"/><path d="M239.90915,130.46692c0.56675,-0.27618 0.84296,0.29059 0.84296,0.29059l0.18263,0.37936c0.58694,0.99695 0.78831,1.87589 1.02931,2.99762c0,0 0.13236,0.61641 -0.48406,0.74878c-0.61643,0.13237 -0.7488,-0.48405 -0.7488,-0.48405c-0.21473,-1.00053 -0.36002,-1.73915 -0.88233,-2.62135l-0.23028,-0.46798c0,0 -0.27616,-0.56677 0.29059,-0.84296z" fill="#7a6500"/><path d="M242.09033,128.08614c0.58629,-0.23191 0.81819,0.35437 0.81819,0.35437l0.00051,0.13037c0.45715,0.47433 0.92929,0.9297 1.42069,1.36525c-0.16211,0.43847 -0.30919,0.86953 -0.43823,1.28859c-0.66023,-0.56082 -1.28741,-1.15393 -1.89008,-1.7785l-0.26541,-0.5419c0,0 -0.23193,-0.58628 0.35437,-0.81819z" fill="#7a6500"/><path d="M241.99426,127.11955c-0.37011,0.51042 -0.88052,0.14028 -0.88052,0.14028l-0.26202,-0.20852c-0.6291,-0.27247 -1.24593,-0.54054 -1.85276,-0.86021c0,0 -0.55763,-0.29421 -0.2634,-0.85183c0.29424,-0.55762 0.85183,-0.2634 0.85183,-0.2634c0.57779,0.30539 1.16596,0.55871 1.76552,0.81837l0.50109,0.3448c0,0 0.5104,0.37012 0.14029,0.88053z" fill="#7a6500"/><path d="M244.71106,125.3982c0.51251,-0.36717 0.87972,0.14539 0.87972,0.14539l0.13102,0.18917c0.10462,0.11701 0.20795,0.23103 0.30954,0.3439c-0.20418,0.40402 -0.40298,0.81277 -0.59415,1.22287c-0.20907,-0.24139 -0.43052,-0.47487 -0.65532,-0.72621l-0.21616,-0.29543c0,0 -0.36718,-0.51254 0.14534,-0.87971z" fill="#7a6500"/><path d="M244.02016,125.61403c-0.42068,0.46962 -0.89028,0.04893 -0.89028,0.04893l-0.2901,-0.26505c-0.28993,-0.32507 -0.59537,-0.63756 -0.92026,-0.92767c0,0 -0.24097,-0.21584 -0.22308,-0.5109c0.35037,-0.13167 0.70738,-0.27449 1.06649,-0.42645c0.35783,0.32161 0.6956,0.66624 1.01678,1.02446l0.19152,0.1664c0,0 0.46962,0.42068 0.04895,0.89029z" fill="#7a6500"/><path d="M233.87447,135.86407c-0.19175,0.6006 -0.79236,0.40885 -0.79236,0.40885l-0.45963,-0.14758c-0.60352,-0.16047 -1.20583,-0.32585 -1.80523,-0.50105c0,0 -0.60514,-0.17688 -0.42828,-0.78204c0.17691,-0.60515 0.78206,-0.42832 0.78206,-0.42832c0.58949,0.17236 1.18184,0.33497 1.7754,0.49274l0.51917,0.16498c0,0 0.6006,0.19177 0.40881,0.79237z" fill="#246800"/><path d="M234.81289,136.99166c0.59886,0.1972 0.4017,0.79603 0.4017,0.79603l-0.19691,0.58973c-0.10159,0.23454 -0.20317,0.46908 -0.30476,0.70361c0,0 -0.25058,0.57857 -0.82912,0.32798c-0.57853,-0.25057 -0.32796,-0.82914 -0.32796,-0.82914c0.10159,-0.23454 0.20315,-0.4691 0.30475,-0.70364l0.15628,-0.48289c0,0 0.19719,-0.59888 0.79603,-0.4017z" fill="#246800"/><path d="M236.45144,134.87393c0.61643,-0.13237 0.7488,0.48406 0.7488,0.48406l0.10379,0.50528c0.06649,0.75527 0.02175,1.43247 -0.10085,2.1799c0,0 -0.10277,0.62205 -0.72483,0.51928c-0.62203,-0.10279 -0.51926,-0.72485 -0.51926,-0.72485c0.10711,-0.6432 0.15036,-1.21032 0.08916,-1.86024l-0.08087,-0.35464c0,0 -0.13237,-0.61643 0.48406,-0.7488z" fill="#246800"/><path d="M235.22801,134.29036c-0.25057,0.57853 -0.82912,0.32798 -0.82912,0.32798l-0.04985,-0.0296c-0.7086,-0.18555 -1.37469,-0.36636 -2.04851,-0.6564c0,0 -0.57854,-0.2506 -0.32796,-0.82914c0.25057,-0.57853 0.82914,-0.32796 0.82914,-0.32796c0.61324,0.26747 1.22018,0.4244 1.86674,0.59368l0.23163,0.09233c0,0 0.57854,0.2506 0.32796,0.82914z" fill="#246800"/><path d="M236.96006,132.47793c-0.25057,0.57853 -0.82912,0.32798 -0.82912,0.32798l-0.22002,-0.10221c-0.64322,-0.39495 -1.29015,-0.78345 -1.93705,-1.17237c0,0 -0.54036,-0.32485 -0.21551,-0.86521c0.32485,-0.54036 0.8652,-0.21552 0.8652,-0.21552c0.65028,0.39093 1.30051,0.78148 1.94711,1.17846l0.06142,0.01971c0,0 0.57855,0.25061 0.32796,0.82915z" fill="#246800"/><path d="M238.76855,131.72835c0.48287,-0.40542 0.88826,0.07744 0.88826,0.07744l0.25041,0.3486c0.38634,0.97745 0.66906,1.98779 1.0559,2.96424c0,0 0.23191,0.58629 -0.35439,0.8182c-0.58629,0.23191 -0.81819,-0.35437 -0.81819,-0.35437c-0.38588,-0.97706 -0.66905,-1.98705 -1.0559,-2.96423l-0.04358,-0.00157c0,0 -0.4054,-0.48284 0.07747,-0.88827z" fill="#246800"/><path d="M238.58425,130.78591c-0.25057,0.57853 -0.82911,0.32795 -0.82911,0.32795l-0.32509,-0.14282c-0.63209,-0.33404 -1.20736,-0.6899 -1.86559,-0.97313c0,0 -0.57854,-0.2506 -0.32796,-0.82914c0.25057,-0.57853 0.82914,-0.32796 0.82914,-0.32796c0.68816,0.2998 1.29157,0.66663 1.95287,1.01498l0.23781,0.10097c0,0 0.57854,0.2506 0.32796,0.82914z" fill="#246800"/><path d="M240.49272,129.84538c0.58629,-0.23191 0.8182,0.35439 0.8182,0.35439l0.15312,0.39561c0.12607,0.44384 0.26187,0.88512 0.4089,1.32249c0,0 0.20076,0.59764 -0.39689,0.79841c-0.59766,0.20077 -0.79842,-0.39687 -0.79842,-0.39687c-0.15314,-0.45617 -0.29478,-0.91634 -0.42647,-1.37915l-0.11279,-0.27665c0,0 -0.23192,-0.58625 0.35438,-0.81817z" fill="#246800"/><path d="M240.37725,128.83275c-0.25057,0.57853 -0.82914,0.32796 -0.82914,0.32796l-0.13747,-0.06156c-0.60912,-0.32373 -1.17684,-0.50205 -1.84158,-0.69023c0,0 -0.60659,-0.17191 -0.43467,-0.7785c0.17192,-0.60658 0.7785,-0.43467 0.7785,-0.43467c0.74618,0.21174 1.39904,0.42786 2.08622,0.78813l0.05018,0.01971c0,0 0.57854,0.2506 0.32796,0.82914z" fill="#246800"/><path d="M242.96727,126.96181c0.58629,-0.23191 0.81819,0.35437 0.81819,0.35437l0.10183,0.26784c0.18001,0.66986 0.37286,1.04611 0.74818,1.55993c-0.16782,0.41784 -0.32397,0.83154 -0.46602,1.23736c-0.2246,-0.05918 -0.36647,-0.24591 -0.36647,-0.24591c-0.57033,-0.75671 -0.88263,-1.31423 -1.1323,-2.21989l-0.05774,-0.13552c0,0 -0.23193,-0.58628 0.35437,-0.81819z" fill="#246800"/><path d="M244.07248,125.82492c0.58629,-0.23191 0.81819,0.35437 0.81819,0.35437l0.03673,0.13944c0.24312,0.34859 0.36518,0.64713 0.55603,0.88207c-0.18553,0.39531 -0.36413,0.79212 -0.53376,1.18727c-0.44116,-0.34403 -0.62422,-0.73216 -1.05551,-1.34654l-0.17602,-0.3984c0,0 -0.23191,-0.58629 0.35437,-0.81819z" fill="#246800"/><path d="M245.2753,125.01173c-0.43775,0.45371 -0.89151,0.01594 -0.89151,0.01594l-0.20141,-0.21661c-0.221,-0.13284 -0.44199,-0.26571 -0.66299,-0.39858c0,0 -0.54037,-0.32485 -0.21552,-0.8652c0.32485,-0.54036 0.86521,-0.21554 0.86521,-0.21554c0.221,0.13284 0.44198,0.26572 0.663,0.39858l0.42726,0.38991c0,0 0.45371,0.43775 0.01596,0.8915z" fill="#246800"/><path d="M241.64543,128.81554c0.54018,-0.32515 0.86531,0.21505 0.86531,0.21505l0.24369,0.40667c0.31322,0.59239 0.66998,1.1365 1.04564,1.69105c0,0 0.04066,0.05999 0.07403,0.1531c-0.07127,0.23376 -0.13686,0.46371 -0.19625,0.68901c-0.0146,0.01132 -0.02998,0.02246 -0.04621,0.03347c-0.52201,0.35356 -0.87559,-0.16844 -0.87559,-0.16844c-0.40097,-0.5921 -0.78023,-1.17586 -1.11579,-1.80769l-0.20985,-0.34688c0,0 -0.32515,-0.54018 0.21505,-0.86531z" fill="#693d00"/><path d="M245.12133,124.82079c0.42068,-0.46962 0.89028,-0.04893 0.89028,-0.04893l0.1826,0.17207c0.08622,0.1034 0.17547,0.20449 0.26744,0.30312c-0.20615,0.38746 -0.40861,0.78175 -0.60528,1.17973c-0.22029,-0.21354 -0.43018,-0.438 -0.62785,-0.67204l-0.05822,-0.04366c0,0 -0.46962,-0.42068 -0.04895,-0.89031z" fill="#693d00"/></g><g data-paper-data="{&quot;index&quot;:null}" stroke="none" stroke-width="0.5" stroke-linecap="butt"><path d="M242.05549,119.23998c-0.2838,0.56299 -0.84676,0.27919 -0.84676,0.27919l0.11059,-0.05464c-1.11892,0.11205 -2.26867,0.19829 -3.35448,0.49083c-4.26999,1.13459 -8.37395,2.83984 -12.4967,4.002c0,0 -0.60932,0.16191 -0.77125,-0.44743c-0.16191,-0.60932 0.44743,-0.77125 0.44743,-0.77125c4.04986,-0.98132 8.31152,-2.88992 12.4967,-4.00201c1.15552,-0.30344 2.36408,-0.40782 3.55267,-0.52684l0.58266,0.18334c0,0 0.56299,0.28381 0.27919,0.8468z" fill="#7a6a5e"/><path d="M226.94793,122.82557c-0.50561,0.37663 -0.88224,-0.12899 -0.88224,-0.12899c-0.13233,-0.17764 -0.57006,-0.76528 -0.70238,-0.94292c0,0 -0.11444,-0.15363 -0.13245,-0.35461c-0.61059,-0.75046 -1.34287,-1.64114 -2.22984,-1.72816c0,0 -0.62384,-0.09119 -0.53263,-0.71504c0.09121,-0.62385 0.71504,-0.53263 0.71504,-0.53263c1.49807,0.26195 2.42886,1.51697 3.39225,2.62206l0.24413,0.32465c0,0 0.13567,0.18214 0.13484,0.40922l0.12231,0.16417c0,0 0.37663,0.50562 -0.129,0.88225z" fill="#7a0c00"/><path d="M226.83834,123.22348c0.60997,0.15954 0.45042,0.76952 0.45042,0.76952l-0.08811,0.33564c-0.40849,1.37345 -0.97282,2.15556 -2.11806,3.00984c0,0 -0.50564,0.37664 -0.88227,-0.12899c-0.37664,-0.50562 0.129,-0.88224 0.129,-0.88224c0.93655,-0.69656 1.3322,-1.22921 1.66199,-2.35562l0.07754,-0.29771c0,0 0.15957,-0.60996 0.7695,-0.45043z" fill="#7a0c00"/><path d="M231.39059,121.1736c-0.50561,0.37663 -0.88224,-0.129 -0.88224,-0.129l-0.09162,-0.12299c-0.64624,-0.8676 -1.26946,-1.75662 -2.11406,-2.44167c0,0 -0.48803,-0.39917 -0.08883,-0.88718c0.39917,-0.48803 0.88721,-0.08885 0.88721,-0.08885c0.9234,0.76066 1.61565,1.70964 2.32692,2.66445l0.09161,0.12298c0,0 0.37665,0.50564 -0.12898,0.88227z" fill="#7a0c00"/><path d="M231.4747,121.74598c0.60997,0.15954 0.45041,0.76949 0.45041,0.76949l-0.08284,0.31667c-0.31681,1.21114 -0.51327,2.31806 -0.95507,3.3468c-0.78197,0.36974 -1.54119,0.75043 -2.25954,1.13823c0.03972,-0.05957 0.07388,-0.09429 0.07388,-0.09429c1.34949,-1.36447 1.45674,-2.93555 1.9208,-4.70983l0.08284,-0.31665c0,0 0.15957,-0.60995 0.76952,-0.45041z" fill="#7a0c00"/><path d="M235.76957,119.96795c-0.60389,0.18117 -0.78504,-0.42271 -0.78504,-0.42271l-0.12507,-0.45889c-0.56222,-1.06781 -1.34009,-1.8896 -2.1751,-2.74586c0,0 -0.30109,-0.30878 -0.14984,-0.66458c0.41659,0.03737 0.86717,0.06484 1.3412,0.0826c0.80692,0.84251 1.53804,1.68803 2.09778,2.73711l0.21881,0.68731c0,0 0.18117,0.60389 -0.42271,0.78506z" fill="#7a0c00"/><path d="M235.75655,120.21273c0.62385,0.09121 0.53264,0.71509 0.53264,0.71509l-0.08369,0.57227c-0.14731,0.99945 -0.37256,1.82899 -0.66422,2.68719c-0.51881,0.20246 -1.04275,0.4126 -1.56685,0.62938c0.46124,-1.21422 0.78845,-2.15375 0.98338,-3.499l0.08366,-0.57228c0,0 0.0912,-0.62387 0.71505,-0.53264z" fill="#7a0c00"/><path d="M238.1937,119.42972c-0.62955,-0.03433 -0.59519,-0.66389 -0.59519,-0.66389l0.02086,-0.35708c-0.00841,-0.82226 -0.16567,-1.59588 -0.41649,-2.34094c0.43598,0.10287 0.90421,0.19595 1.39322,0.27787c0.17209,0.6566 0.27522,1.33572 0.28416,2.04866l-0.02265,0.44023c0,0 -0.03434,0.62953 -0.66389,0.59519z" fill="#7a0c00"/><path d="M238.92722,119.41006c0.62961,-0.03288 0.66252,0.59671 0.66252,0.59671l0.00654,0.1464c0.05495,0.48795 0.06732,0.95082 0.05923,1.40673c-0.44724,0.32724 -0.88227,0.66042 -1.29817,0.99601c0.04543,-0.74106 0.07612,-1.4604 -0.0141,-2.26163l-0.0127,-0.22174c0,0 -0.03289,-0.62963 0.59671,-0.66252z" fill="#7a0c00"/><path d="M241.36751,118.69463c-0.62068,0.11074 -0.73142,-0.50994 -0.73142,-0.50994l-0.04017,-0.22506c-0.08808,-0.49396 -0.16778,-0.93656 -0.31433,-1.38456c0.44293,0.04733 0.8917,0.08558 1.3391,0.1139c0.085,0.3379 0.15108,0.68227 0.2166,1.04916l0.04014,0.2251c0,0 0.11075,0.62064 -0.50992,0.73141z" fill="#7a0c00"/><path d="M229.26215,121.73915c-0.50561,0.37663 -0.88227,-0.12898 -0.88227,-0.12898l-0.14955,-0.20388c-0.76696,-1.21596 -1.6457,-1.70361 -2.84492,-2.43685c0,0 -0.5375,-0.32954 -0.2079,-0.86703c0.32959,-0.53749 0.86705,-0.20791 0.86705,-0.20791c1.35689,0.83467 2.37709,1.45583 3.25179,2.83832l0.09476,0.1241c0,0 0.37664,0.50564 -0.12898,0.88226z" fill="#7a6500"/><path d="M229.3929,122.39393c0.63049,0.00207 0.62842,0.63253 0.62842,0.63253l-0.00746,0.34475c-0.20749,1.28036 -1.04952,2.80499 -1.71951,3.93663c0,0 -0.32186,0.54212 -0.86399,0.22025c-0.54213,-0.32187 -0.22026,-0.86401 -0.22026,-0.86401c0.58059,-0.97486 1.42073,-2.37618 1.55603,-3.4753l-0.00579,-0.16644c0,0 0.00204,-0.63048 0.63254,-0.62841z" fill="#7a6500"/><path d="M233.76025,120.32427c-0.59876,0.19738 -0.79617,-0.40137 -0.79617,-0.40137l-0.03369,-0.1082c-0.40055,-1.00305 -1.30299,-1.86312 -1.89984,-2.77776c0,0 -0.34438,-0.52815 0.18374,-0.87249c0.52814,-0.34434 0.8725,0.18378 0.8725,0.18378c0.65277,1.00197 1.53731,1.88868 2.00734,2.98098l0.06753,0.19886c0,0 0.1974,0.59879 -0.40139,0.79619z" fill="#7a6500"/><path d="M233.89583,121.11157c0.62898,0.04308 0.58592,0.6721 0.58592,0.6721l-0.0308,0.4199c0.01187,1.15683 -0.25168,2.01918 -0.60194,3.11171c0,0 -0.19254,0.60036 -0.79291,0.40783c-0.60038,-0.19253 -0.40785,-0.7929 -0.40785,-0.7929c0.31257,-0.97439 0.55484,-1.68712 0.5418,-2.71226l0.03365,-0.52049c0,0 0.04309,-0.62899 0.67211,-0.5859z" fill="#7a6500"/><path d="M236.97348,120.13495c0.62385,0.09121 0.53266,0.71505 0.53266,0.71505l-0.06456,0.11326c0.15985,0.63908 0.34215,1.2692 0.55101,1.89173c-0.35909,0.29929 -0.70147,0.59968 -1.02224,0.89862c-0.29279,-0.81528 -0.54081,-1.6421 -0.75199,-2.48396l0.04004,-0.60208c0,0 0.09118,-0.62386 0.71504,-0.53263z" fill="#7a6500"/><path d="M237.37201,119.24912c-0.57529,0.25799 -0.83324,-0.3173 -0.83324,-0.3173l-0.12319,-0.31138c-0.40955,-0.54981 -0.81064,-1.08964 -1.17737,-1.66928c0,0 -0.33676,-0.53303 0.19628,-0.86977c0.53302,-0.33673 0.86975,0.19629 0.86975,0.19629c0.34867,0.55277 0.73227,1.06556 1.12258,1.58952l0.26253,0.54869c0,0 0.25796,0.5753 -0.31731,0.83325z" fill="#7a6500"/><path d="M240.58527,119.11115c0.62734,-0.06282 0.69016,0.56457 0.69016,0.56457l0.01929,0.22929c0.03236,0.15361 0.06509,0.30395 0.09692,0.45246c-0.37839,0.24845 -0.75452,0.50372 -1.12466,0.76394c-0.06093,-0.31347 -0.1365,-0.62626 -0.2061,-0.95623l-0.04013,-0.36388c0,0 -0.06283,-0.62734 0.56453,-0.69016z" fill="#7a6500"/><path d="M239.87874,118.95384c-0.59876,0.19738 -0.79621,-0.40138 -0.79621,-0.40138l-0.11936,-0.37438c-0.08927,-0.42633 -0.1983,-0.84948 -0.33534,-1.26295c0,0 -0.10131,-0.30723 0.06129,-0.5541c0.36938,0.06047 0.75004,0.11466 1.13714,0.16194c0.14992,0.45719 0.27088,0.92429 0.37073,1.39495l0.08311,0.23971c0,0 0.1974,0.59879 -0.40135,0.7962z" fill="#7a6500"/><path d="M225.97397,122.78219c-0.46564,0.42509 -0.89068,-0.04055 -0.89068,-0.04055l-0.3249,-0.35704c-0.4432,-0.43995 -0.88288,-0.88357 -1.3152,-1.33421c0,0 -0.43645,-0.45498 0.01857,-0.89143c0.45502,-0.43644 0.89145,0.01855 0.89145,0.01855c0.4251,0.44326 0.85758,0.87949 1.2935,1.31216l0.36784,0.40181c0,0 0.42508,0.46562 -0.04057,0.89071z" fill="#246800"/><path d="M226.22543,124.22747c0.42086,0.46944 -0.04857,0.89032 -0.04857,0.89032l-0.46467,0.4131c-0.20498,0.15268 -0.40997,0.30537 -0.61494,0.45805c0,0 -0.50561,0.37663 -0.88224,-0.12899c-0.37664,-0.50562 0.12898,-0.88227 0.12898,-0.88227c0.20498,-0.15268 0.40997,-0.30537 0.61494,-0.45805l0.37618,-0.34074c0,0 0.46944,-0.42086 0.89032,0.04857z" fill="#246800"/><path d="M228.70152,123.20841c0.60038,0.19253 0.40783,0.79288 0.40783,0.79288l-0.16189,0.48977c-0.31883,0.6879 -0.6952,1.25265 -1.17408,1.83947c0,0 -0.39917,0.48803 -0.88718,0.08883c-0.48803,-0.39917 -0.08881,-0.88719 -0.08881,-0.88719c0.41349,-0.5042 0.73365,-0.97426 1.00459,-1.56821l0.10668,-0.34772c0,0 0.19252,-0.60037 0.7929,-0.40783z" fill="#246800"/><path d="M227.93185,122.09264c-0.50561,0.37663 -0.88227,-0.12898 -0.88227,-0.12898l-0.02847,-0.05049c-0.5218,-0.51406 -1.0091,-1.00288 -1.44864,-1.5902c0,0 -0.37665,-0.50564 0.12898,-0.88226c0.50561,-0.37663 0.88227,0.12898 0.88227,0.12898c0.39831,0.53757 0.8462,0.97615 1.32235,1.4452l0.15476,0.1955c0,0 0.37664,0.50564 -0.12898,0.88226z" fill="#246800"/><path d="M230.33681,121.38483c-0.50561,0.37663 -0.88227,-0.12898 -0.88227,-0.12898l-0.13978,-0.19828c-0.36077,-0.66303 -0.7279,-1.32229 -1.09484,-1.9819c0,0 -0.30651,-0.55096 0.24446,-0.85746c0.55096,-0.30651 0.85748,0.24447 0.85748,0.24447c0.36882,0.66304 0.73783,1.32576 1.10049,1.99221l0.04342,0.04771c0,0 0.37664,0.50562 -0.12899,0.88224z" fill="#246800"/><path d="M232.27825,121.63653c0.62068,-0.11074 0.73141,0.50995 0.73141,0.50995l0.04333,0.42701c-0.15233,1.03992 -0.41089,2.05674 -0.56226,3.09606c0,0 -0.09121,0.62385 -0.71506,0.53263c-0.62385,-0.09121 -0.53264,-0.71505 -0.53264,-0.71505c0.1525,-1.03938 0.41051,-2.0561 0.56226,-3.09606l-0.03698,-0.02309c0,0 -0.11073,-0.62067 0.50995,-0.73141z" fill="#246800"/><path d="M232.58826,120.72766c-0.50561,0.37663 -0.88224,-0.12899 -0.88224,-0.12899l-0.21063,-0.28587c-0.38145,-0.60465 -0.70276,-1.19993 -1.1322,-1.77356c0,0 -0.37663,-0.50562 0.129,-0.88224c0.50561,-0.37663 0.88224,0.129 0.88224,0.129c0.44714,0.60291 0.78733,1.22175 1.187,1.85332l0.15582,0.20607c0,0 0.37664,0.50564 -0.12899,0.88226z" fill="#246800"/><path d="M234.71157,120.86364c0.62385,0.09121 0.53266,0.71505 0.53266,0.71505l-0.06447,0.41928c-0.11195,0.44763 -0.21418,0.89785 -0.30475,1.3503c0,0 -0.12388,0.61818 -0.74207,0.49431c-0.6182,-0.12387 -0.49431,-0.74207 -0.49431,-0.74207c0.09465,-0.47181 0.20122,-0.94133 0.31776,-1.40818l0.04014,-0.29605c0,0 0.09118,-0.62386 0.71504,-0.53263z" fill="#246800"/><path d="M235.11624,119.92825c-0.50561,0.37663 -0.88227,-0.12899 -0.88227,-0.12899l-0.08851,-0.12189c-0.36666,-0.58427 -0.76992,-1.02187 -1.2524,-1.51636c0,0 -0.44017,-0.45138 0.01125,-0.89156c0.45138,-0.44017 0.89157,0.01126 0.89157,0.01126c0.54132,0.55551 0.99956,1.06831 1.41567,1.72318l0.0337,0.04211c0,0 0.37663,0.50562 -0.12899,0.88224z" fill="#246800"/><path d="M238.29413,119.59738c0.62385,0.09121 0.53264,0.71505 0.53264,0.71505l-0.04524,0.28293c-0.17784,0.67045 -0.19824,1.09273 -0.129,1.72527c-0.35378,0.27858 -0.69536,0.55939 -1.02078,0.84037c-0.1652,-0.16325 -0.19512,-0.39588 -0.19512,-0.39588c-0.11723,-0.94029 -0.11005,-1.57928 0.12498,-2.48887l0.01751,-0.14626c0,0 0.09118,-0.62386 0.71504,-0.53263z" fill="#246800"/><path d="M239.81898,119.16276c0.62385,0.09121 0.53263,0.71506 0.53263,0.71506l-0.03768,0.13915c0.03696,0.42338 -0.00599,0.74305 0.04231,1.04186c-0.35792,0.2502 -0.71052,0.50516 -1.05454,0.76315c-0.21095,-0.51814 -0.17618,-0.94588 -0.24379,-1.69348l0.04599,-0.4331c0,0 0.09121,-0.62384 0.71506,-0.53263z" fill="#246800"/><path d="M241.26705,119.0574c-0.60567,0.17511 -0.78079,-0.43055 -0.78079,-0.43055l-0.0666,-0.2882c-0.12538,-0.22534 -0.25072,-0.45067 -0.37608,-0.67602c0,0 -0.30651,-0.55097 0.24446,-0.85745c0.55096,-0.30651 0.85749,0.24445 0.85749,0.24445c0.12538,0.22534 0.25072,0.45067 0.37608,0.67602l0.17602,0.551c0,0 0.17511,0.60567 -0.43056,0.78079z" fill="#246800"/><path d="M236.22421,120.5455c0.63036,-0.01258 0.64297,0.61777 0.64297,0.61777l0.00851,0.474c-0.02378,0.66968 0.01428,1.31921 0.0635,1.98721c0,0 0.00533,0.07227 -0.01213,0.16962c-0.17831,0.16713 -0.3498,0.33376 -0.5136,0.49946c-0.01827,0.00251 -0.0372,0.00452 -0.05675,0.00595c-0.62877,0.0463 -0.67508,-0.58247 -0.67508,-0.58247c-0.05248,-0.71316 -0.09021,-1.40829 -0.06617,-2.12328l-0.00902,-0.40531c0,0 -0.0126,-0.63035 0.61774,-0.64296z" fill="#693d00"/><path d="M241.22878,118.8151c0.59876,-0.19738 0.79617,0.40137 0.79617,0.40137l0.07252,0.24019c0.02319,0.13264 0.05014,0.26473 0.08074,0.39609c-0.37184,0.23312 -0.74393,0.47404 -1.11279,0.72098c-0.08453,-0.29493 -0.15459,-0.59415 -0.20929,-0.89557l-0.02872,-0.06688c0,0 -0.1974,-0.59879 0.40139,-0.7962z" fill="#693d00"/></g><g stroke="none" stroke-width="0.5" stroke-linecap="butt"><path d="M238.46846,110.38006c-0.40118,0.48637 -0.88756,0.08518 -0.88756,0.08518l0.11992,-0.02884c-1.11601,-0.13794 -2.25641,-0.30785 -3.38001,-0.26248c-4.41513,0.16312 -8.79445,0.91943 -13.0721,1.14199c0,0 -0.63002,0.02329 -0.65332,-0.60679c-0.02329,-0.63004 0.60675,-0.65333 0.60675,-0.65333c4.16657,-0.06227 8.74464,-0.98211 13.07211,-1.14198c1.19397,-0.04063 2.39577,0.12462 3.58127,0.27114l0.52775,0.30756c0,0 0.48637,0.40118 0.0852,0.88755z" fill="#7a6a5e"/><path d="M222.94207,110.53902c-0.57635,0.25561 -0.83196,-0.32073 -0.83196,-0.32073c-0.08981,-0.2025 -0.38687,-0.87228 -0.47667,-1.07479c0,0 -0.07765,-0.17512 -0.05083,-0.37511c-0.42967,-0.8668 -0.94711,-1.89729 -1.79291,-2.17811c0,0 -0.58827,-0.22679 -0.36147,-0.81508c0.22678,-0.58828 0.81506,-0.36148 0.81506,-0.36148c1.40316,0.58646 2.03365,2.01613 2.72904,3.30676l0.16637,0.37057c0,0 0.09209,0.20765 0.04111,0.42891l0.08298,0.18712c0,0 0.25561,0.57635 -0.32073,0.83196z" fill="#7a0c00"/><path d="M222.74727,110.90289c0.55963,0.29038 0.26928,0.84999 0.26928,0.84999l-0.16009,0.30787c-0.70187,1.24926 -1.42504,1.88733 -2.73074,2.46747c0,0 -0.57634,0.25562 -0.83195,-0.32072c-0.25562,-0.57634 0.32072,-0.83196 0.32072,-0.83196c1.06729,-0.47244 1.57088,-0.90447 2.14138,-1.9302l0.1414,-0.27323c0,0 0.29036,-0.55962 0.85,-0.26925z" fill="#7a0c00"/><path d="M227.63992,109.90948c-0.57635,0.25561 -0.83194,-0.32073 -0.83194,-0.32073l-0.06218,-0.14017c-0.4386,-0.98893 -0.84996,-1.9937 -1.5223,-2.84842c0,0 -0.38776,-0.49714 0.10937,-0.88491c0.49715,-0.38774 0.88489,0.10937 0.88489,0.10937c0.73251,0.94589 1.19802,2.02434 1.68071,3.11273l0.06219,0.1402c0,0 0.2556,0.57633 -0.32074,0.83194z" fill="#7a0c00"/><path d="M227.59548,110.4863c0.55963,0.29038 0.26928,0.84999 0.26928,0.84999l-0.15076,0.29056c-0.57659,1.11121 -1.01272,2.14735 -1.67092,3.05305c-0.84434,0.18783 -1.66888,0.39136 -2.4552,0.61083c0.05188,-0.04934 0.09289,-0.07563 0.09289,-0.07563c1.61763,-1.03256 2.06934,-2.54112 2.91393,-4.16902l0.15077,-0.29055c0,0 0.29038,-0.55963 0.85,-0.26926z" fill="#7a0c00"/><path d="M232.17704,109.70116c-0.62898,0.04325 -0.67226,-0.58571 -0.67226,-0.58571l-0.02056,-0.47521c-0.31239,-1.16565 -0.88948,-2.13898 -1.51466,-3.1586c0,0 -0.22542,-0.36766 0.00069,-0.68126c0.39804,0.12848 0.83141,0.25484 1.2898,0.3769c0.60082,0.99998 1.12707,1.98614 1.44118,3.13295l0.06155,0.71869c0,0 0.04326,0.62898 -0.58574,0.67224z" fill="#7a0c00"/><path d="M232.11028,109.93702c0.58828,0.22678 0.36149,0.81506 0.36149,0.81506l-0.20806,0.53964c-0.36447,0.94224 -0.76746,1.7015 -1.24154,2.47405c-0.55074,0.08282 -1.10813,0.17201 -1.6672,0.26762c0.71812,-1.08232 1.24481,-1.92631 1.73219,-3.19525l0.20806,-0.53964c0,0 0.22679,-0.58828 0.81506,-0.36149z" fill="#7a0c00"/><path d="M234.66019,109.71184c-0.6064,-0.17261 -0.4338,-0.77901 -0.4338,-0.77901l0.09926,-0.34368c0.17347,-0.8038 0.19103,-1.59302 0.11103,-2.37508c0.40249,0.19668 0.83858,0.39087 1.29738,0.57881c0.02276,0.67841 -0.02672,1.36352 -0.17552,2.06082l-0.11937,0.42434c0,0 -0.17259,0.60639 -0.77899,0.43381z" fill="#7a0c00"/><path d="M235.3799,109.85472c0.62131,0.10703 0.51431,0.72836 0.51431,0.72836l-0.02598,0.14424c-0.05423,0.48804 -0.14442,0.94217 -0.25306,1.38505c-0.50849,0.22036 -1.00637,0.44919 -1.48616,0.68459c0.20802,-0.7127 0.39692,-1.40749 0.48595,-2.20885l0.03657,-0.21904c0,0 0.10702,-0.62133 0.72836,-0.51431z" fill="#7a0c00"/><path d="M237.91798,109.69618c-0.6298,-0.02914 -0.60068,-0.65895 -0.60068,-0.65895l0.01057,-0.22836c0.02322,-0.50121 0.04328,-0.95049 -0.00063,-1.41978c0.42154,0.14403 0.85073,0.28047 1.28084,0.40696c0.00826,0.34834 -0.00341,0.6988 -0.02059,1.07109l-0.01055,0.22838c0,0 -0.02913,0.62983 -0.65893,0.60067z" fill="#7a0c00"/><path d="M225.43911,109.99079c-0.57635,0.25561 -0.83194,-0.32074 -0.83194,-0.32074l-0.10081,-0.23185c-0.47934,-1.35534 -1.22864,-2.02514 -2.23618,-3.00518c0,0 -0.45136,-0.44019 -0.01119,-0.89154c0.4402,-0.45137 0.89157,-0.01121 0.89157,-0.01121c1.13894,1.11388 1.99665,1.94507 2.54429,3.48665l0.065,0.14196c0,0 0.25562,0.57634 -0.32072,0.83195z" fill="#7a6500"/><path d="M225.42197,110.65826c0.61443,0.14134 0.47313,0.75578 0.47313,0.75578l-0.08346,0.33457c-0.4853,1.20287 -1.64333,2.50378 -2.54679,3.45941c0,0 -0.43369,0.45762 -0.8913,0.02394c-0.45762,-0.43369 -0.02391,-0.89132 -0.02391,-0.89132c0.78164,-0.8225 1.91065,-2.00357 2.28548,-3.04562l0.03113,-0.16361c0,0 0.14133,-0.61445 0.75576,-0.47313z" fill="#7a6500"/><path d="M230.13869,109.60472c-0.62761,0.06025 -0.68784,-0.56737 -0.68784,-0.56737l-0.00896,-0.11297c-0.16903,-1.06673 -0.85913,-2.10495 -1.23915,-3.12887c0,0 -0.21916,-0.59117 0.372,-0.81032c0.59115,-0.21915 0.81035,0.37202 0.81035,0.37202c0.41526,1.12143 1.08201,2.18165 1.29907,3.3508l0.02192,0.20885c0,0 0.06024,0.62758 -0.56735,0.68783z" fill="#7a6500"/><path d="M230.09694,110.40251c0.60394,0.18101 0.42294,0.78494 0.42294,0.78494l-0.12281,0.40273c-0.24403,1.13087 -0.6916,1.91365 -1.2746,2.9018c0,0 -0.32043,0.54301 -0.86341,0.2226c-0.54298,-0.32042 -0.22258,-0.86342 -0.22258,-0.86342c0.52016,-0.88129 0.91388,-1.52281 1.12767,-2.5255l0.14783,-0.50021c0,0 0.181,-0.60396 0.78493,-0.42295z" fill="#7a6500"/><path d="M233.31432,110.13003c0.58828,0.22678 0.36148,0.81506 0.36148,0.81506l-0.08798,0.09621c0.0147,0.65857 0.05328,1.31344 0.11945,1.96672c-0.41635,0.21259 -0.81664,0.42988 -1.19551,0.65052c-0.10545,-0.85986 -0.16462,-1.72103 -0.18456,-2.58871l0.17207,-0.57835c0,0 0.22678,-0.58828 0.81507,-0.36147z" fill="#7a6500"/><path d="M233.89873,109.35416c-0.61804,0.1245 -0.74258,-0.49357 -0.74258,-0.49357l-0.05134,-0.3309c-0.27796,-0.62673 -0.54984,-1.24186 -0.77946,-1.88818c0,0 -0.21066,-0.59425 0.38358,-0.80492c0.59425,-0.21067 0.8049,0.38362 0.8049,0.38362c0.21793,0.61614 0.47876,1.201 0.74365,1.79825l0.1348,0.59314c0,0 0.12451,0.61807 -0.49357,0.74258z" fill="#7a6500"/><path d="M237.06305,109.92956c0.62571,0.07734 0.54835,0.70306 0.54835,0.70306l-0.03188,0.22791c-0.00237,0.15693 -0.00363,0.31079 -0.0054,0.46267c-0.42391,0.15873 -0.84717,0.32459 -1.26565,0.4966c0.00983,-0.31919 0.00525,-0.64097 0.01028,-0.97815l0.04126,-0.36371c0,0 0.07736,-0.62573 0.70308,-0.54839z" fill="#7a6500"/><path d="M236.40874,109.62004c-0.62761,0.06025 -0.68783,-0.56737 -0.68783,-0.56737l-0.03372,-0.39149c0.00714,-0.43551 -0.00569,-0.87233 -0.04802,-1.30584c0,0 -0.0309,-0.32198 0.18222,-0.52685c0.34689,0.14061 0.70618,0.27753 1.07325,0.40917c0.04517,0.47901 0.05998,0.96131 0.05337,1.4424l0.02809,0.25215c0,0 0.06024,0.62758 -0.56738,0.68783z" fill="#7a6500"/><path d="M222.00174,110.28156c-0.54805,0.31169 -0.85975,-0.23636 -0.85975,-0.23636l-0.23798,-0.42c-0.33505,-0.52699 -0.66583,-1.05678 -0.98788,-1.59181c0,0 -0.32513,-0.54019 0.21507,-0.86532c0.54019,-0.32513 0.86531,0.21507 0.86531,0.21507c0.31667,0.52623 0.64204,1.04723 0.97162,1.56551l0.26999,0.47316c0,0 0.31167,0.54807 -0.23635,0.85975z" fill="#246800"/><path d="M221.92765,111.74667c0.30675,0.55083 -0.2441,0.85757 -0.2441,0.85757l-0.54445,0.30022c-0.23364,0.10363 -0.46731,0.20727 -0.70097,0.31087c0,0 -0.57632,0.2556 -0.83194,-0.32074c-0.25562,-0.57634 0.32072,-0.83195 0.32072,-0.83195c0.23364,-0.10363 0.46733,-0.20725 0.70095,-0.31086l0.44218,-0.2492c0,0 0.55084,-0.30672 0.85758,0.2441z" fill="#246800"/><path d="M224.56772,111.29985c0.54298,0.32042 0.22258,0.86342 0.22258,0.86342l-0.2661,0.44187c-0.46293,0.60043 -0.95479,1.0681 -1.55149,1.53462c0,0 -0.49714,0.38777 -0.88491,-0.10936c-0.38774,-0.49715 0.10937,-0.88491 0.10937,-0.88491c0.51465,-0.4004 0.93081,-0.78811 1.32625,-1.30747l0.18089,-0.31558c0,0 0.32042,-0.54298 0.86341,-0.22256z" fill="#246800"/><path d="M224.06359,110.04163c-0.57635,0.25561 -0.83196,-0.32073 -0.83196,-0.32073l-0.01661,-0.05554c-0.39534,-0.61664 -0.7626,-1.20106 -1.0615,-1.87097c0,0 -0.2556,-0.57633 0.32074,-0.83194c0.57635,-0.25561 0.83194,0.32074 0.83194,0.32074c0.26967,0.6123 0.60962,1.13898 0.97035,1.70164l0.10775,0.22487c0,0 0.25561,0.57635 -0.32073,0.83196z" fill="#246800"/><path d="M226.56553,109.88268c-0.57635,0.25561 -0.83196,-0.32072 -0.83196,-0.32072l-0.09256,-0.22428c-0.20535,-0.72633 -0.41776,-1.45044 -0.62987,-2.17483c0,0 -0.1772,-0.60508 0.42787,-0.78227c0.60507,-0.17721 0.78228,0.42787 0.78228,0.42787c0.21324,0.72815 0.42671,1.45605 0.63317,2.18617l0.03182,0.05612c0,0 0.25561,0.57635 -0.32073,0.83196z" fill="#246800"/><path d="M228.40337,110.5571c0.6298,0.02914 0.60067,0.65893 0.60067,0.65893l-0.0521,0.42604c-0.37831,0.98056 -0.85516,1.91508 -1.23242,2.89529c0,0 -0.22681,0.5883 -0.81509,0.36151c-0.58828,-0.22678 -0.36147,-0.81507 -0.36147,-0.81507c0.37839,-0.97999 0.85465,-1.91457 1.23242,-2.89529l-0.03094,-0.0307c0,0 0.02914,-0.6298 0.65893,-0.60067z" fill="#246800"/><path d="M228.90654,109.73918c-0.57635,0.25561 -0.83195,-0.32072 -0.83195,-0.32072l-0.14226,-0.32533c-0.23842,-0.67399 -0.42028,-1.32556 -0.71236,-1.97989c0,0 -0.25562,-0.57635 0.32073,-0.83197c0.57635,-0.25561 0.83196,0.32073 0.83196,0.32073c0.30287,0.68682 0.49794,1.36552 0.74818,2.06982l0.10644,0.23541c0,0 0.25561,0.57635 -0.32073,0.83196z" fill="#246800"/><path d="M230.94732,110.34096c0.58828,0.22678 0.36149,0.81506 0.36149,0.81506l-0.1555,0.39468c-0.20812,0.41181 -0.40728,0.82832 -0.59554,1.24955c0,0 -0.25741,0.57557 -0.83294,0.31814c-0.57554,-0.25742 -0.31814,-0.83295 -0.31814,-0.83295c0.19658,-0.43923 0.40424,-0.87357 0.62104,-1.30317l0.10451,-0.27987c0,0 0.22682,-0.58829 0.81509,-0.36151z" fill="#246800"/><path d="M231.54865,109.51807c-0.57635,0.25561 -0.83195,-0.32072 -0.83195,-0.32072l-0.05938,-0.13841c-0.22851,-0.65085 -0.52513,-1.16676 -0.88643,-1.7556c0,0 -0.32954,-0.53749 0.20796,-0.86702c0.5375,-0.32952 0.86703,0.20795 0.86703,0.20795c0.40521,0.6614 0.73879,1.26276 0.99993,1.9934l0.02355,0.04852c0,0 0.25561,0.57632 -0.32073,0.83194z" fill="#246800"/><path d="M234.72112,109.89757c0.58828,0.22678 0.36149,0.81506 0.36149,0.81506l-0.10667,0.26593c-0.3216,0.6146 -0.43476,1.02196 -0.507,1.65413c-0.40658,0.19351 -0.80176,0.39194 -1.18126,0.5941c-0.12507,-0.19573 -0.10282,-0.42923 -0.10282,-0.42923c0.09341,-0.94297 0.24163,-1.56453 0.6718,-2.3997l0.04936,-0.13877c0,0 0.22681,-0.58828 0.81509,-0.36151z" fill="#246800"/><path d="M236.30428,109.81058c0.58828,0.22678 0.36149,0.81506 0.36149,0.81506l-0.06749,0.1274c-0.0575,0.4211 -0.17001,0.72337 -0.18891,1.02545c-0.40432,0.16496 -0.80457,0.33569 -1.19713,0.5113c-0.09126,-0.55194 0.03715,-0.96141 0.1364,-1.70549l0.14056,-0.41226c0,0 0.22678,-0.58827 0.81506,-0.36149z" fill="#246800"/><path d="M237.73984,110.02778c-0.62941,0.03696 -0.66636,-0.59245 -0.66636,-0.59245l-0.00126,-0.29577c-0.07247,-0.24748 -0.14494,-0.49495 -0.21743,-0.7424c0,0 -0.1772,-0.60508 0.42787,-0.78228c0.60507,-0.17721 0.78227,0.42787 0.78227,0.42787c0.07247,0.24748 0.14493,0.49493 0.21741,0.74242l0.04994,0.57625c0,0 0.03696,0.62941 -0.59245,0.66636z" fill="#246800"/><path d="M232.49285,110.3649c0.61756,0.12699 0.49057,0.74454 0.49057,0.74454l-0.0964,0.4642c-0.17112,0.64788 -0.27755,1.28977 -0.37713,1.95211c0,0 -0.01079,0.07165 -0.04932,0.16273c-0.21084,0.1236 -0.41488,0.24823 -0.61126,0.37365c-0.01838,-0.00158 -0.03727,-0.0038 -0.05668,-0.00671c-0.62347,-0.09377 -0.52967,-0.71726 -0.52967,-0.71726c0.10641,-0.70712 0.22313,-1.3934 0.40461,-2.08544l0.08074,-0.39728c0,0 0.12698,-0.61755 0.74455,-0.49056z" fill="#693d00"/><path d="M237.75606,109.783c0.62761,-0.06025 0.68784,0.56737 0.68784,0.56737l0.01765,0.25028c-0.00666,0.13447 -0.00958,0.26928 -0.00879,0.40413c-0.41414,0.14521 -0.83027,0.29795 -1.2446,0.45729c-0.01727,-0.30633 -0.01949,-0.61362 -0.00624,-0.91967l-0.01323,-0.07155c0,0 -0.06023,-0.62758 0.56737,-0.68784z" fill="#693d00"/></g><path d="M238.19752,105.30119c0.31896,-0.24762 0.70018,-0.28931 0.70018,-0.28931l0.77712,-0.08452c2.26761,-0.17494 3.98334,0.21073 5.98228,1.28975c7.89992,0.82902 5.31685,10.90073 7.04263,16.31586c0.54548,1.71164 2.98054,3.48933 2.53231,5.40017c-0.92881,3.95956 -4.44502,1.87794 -6.55837,0.56878c-5.89608,-5.57589 -12.9483,-12.90269 -11.52882,-22.13796c0,0 0.15464,-0.97473 1.05263,-1.06274zM246.32762,114.49315c0.94923,-0.43612 1.36519,-1.55915 0.92906,-2.50838c-0.43612,-0.94923 -1.55915,-1.36519 -2.50839,-0.92906c-0.94923,0.43612 -1.36518,1.55914 -0.92905,2.50839c0.43612,0.94923 1.55914,1.36518 2.50838,0.92905z" fill="#553f22" stroke="none" stroke-width="0.5" stroke-linecap="butt"/><path d="M245.49993,111.28772c-0.33067,0.53681 -0.86746,0.20612 -0.86746,0.20612l-0.20181,-0.13116c-0.09685,1.05865 -0.40219,1.99618 0.13276,3.16051c0,0 0.00847,0.01844 0.01905,0.05017c0.03442,-0.00682 0.06871,-0.01331 0.10287,-0.01949c3.39434,-1.56491 2.28117,-2.63503 0.88077,-3.39799c-0.01639,0.04241 -0.03818,0.08639 -0.06621,0.13185zM248.27825,112.7756l0.04059,0.50919c-0.07274,0.62483 -0.16884,1.23238 -0.27206,1.84435l0.07602,0.69491c0.03556,0.26719 -0.10424,0.53749 -0.36196,0.6559c-0.21234,0.09756 -0.45077,0.0672 -0.62859,-0.05895l-0.5595,-0.38252c-0.41011,-0.32302 -0.9453,-0.3656 -1.47071,-0.28836l-0.01506,0.00692c0,0 -0.1482,0.06809 -0.32849,0.05964c-0.08401,0.01994 -0.16697,0.0421 -0.24829,0.06584c0,0 -0.60839,0.16545 -0.77385,-0.44293c-0.00666,-0.02448 -0.01205,-0.04822 -0.0163,-0.07128c-0.20509,-0.10684 -0.30243,-0.3187 -0.30243,-0.3187c-0.8649,-1.88248 0.21671,-3.06474 -0.28024,-4.85731c-0.06175,-0.1344 -0.28003,-0.60948 -0.28003,-0.60948c-0.14537,-0.3164 -0.00672,-0.69075 0.30968,-0.83613c0.3164,-0.14537 0.69075,-0.00672 0.83613,0.30968l0.18919,0.41178c1.48909,0.95447 3.29242,1.85712 3.87215,2.8828c0.18557,0.16683 0.21378,0.42462 0.21378,0.42462z" fill="#b9b9b9" stroke="none" stroke-width="0.5" stroke-linecap="butt"/><path d="M249.09055,109.84124c-0.09871,-0.21485 -0.49354,-1.07419 -0.59225,-1.28904c0,0 -0.26323,-0.57291 0.30968,-0.83613c0.5729,-0.26322 0.83613,0.30969 0.83613,0.30969c0.09343,0.20335 0.18687,0.40673 0.2803,0.61009c0.29118,0.06745 0.42807,0.36539 0.42807,0.36539c1.75555,3.82097 1.36307,8.71084 2.44493,12.77642c-0.38894,3.01657 3.80284,4.02331 2.08791,7.46639l-0.49709,0.53329c0,0 -0.43417,0.45717 -0.89134,0.023c-0.45718,-0.43417 -0.023,-0.89131 -0.023,-0.89131l0.37967,-0.38993c1.21379,-2.38342 -2.55068,-4.11916 -2.31327,-6.6433c-1.02396,-3.68024 -0.69078,-8.10322 -2.05261,-11.67739c-0.26994,-0.08041 -0.3971,-0.3572 -0.3971,-0.3572z" fill="#b9b9b9" stroke="none" stroke-width="0.5" stroke-linecap="butt"/><path d="M240.20518,103.47356c1.00598,0.17902 1.97353,0.96099 2.03897,1.9133c-0.57945,-0.01747 -1.24515,0.13982 -1.91477,0.4044c-0.48555,-0.12226 -1.00619,-0.15708 -1.51702,-0.07461c-0.2816,-0.16941 -0.60463,-0.26401 -0.9357,-0.27143c-0.00748,-0.2537 0.07455,-0.58352 0.2745,-1.00561c0.27328,-0.57695 0.73677,-0.87855 1.25588,-0.97217c0.01237,-0.00871 0.02486,-0.01745 0.03746,-0.02615c0,0 0.41898,-0.28408 0.76064,0.03228zM239.71768,104.87389c-0.0071,0.00943 -0.01396,0.01879 -0.02056,0.02816c0.01111,0.00226 0.02245,0.00453 0.03408,0.00688l0.00752,-0.03026c-0.00708,-0.0016 -0.01411,-0.00321 -0.02106,-0.00475z" fill="#7a3535" stroke="none" stroke-width="0.5" stroke-linecap="butt"/><path d="M229.33342,115.44082c-1.33909,-0.74541 -1.48952,-2.69106 -1.05448,-3.45487c-0.77837,-1.43493 -0.81896,-2.84474 1.4035,-3.26226c1.59442,-0.29955 6.46053,2.41215 6.29337,4.29688c-0.12485,1.4075 -6.8775,-0.81041 -4.58216,2.05334l0.04253,0.03417c0.07848,0.06035 0.14388,0.14013 0.18809,0.23636c0.00853,0.01856 0.01608,0.03732 0.02266,0.05622c0.07664,0.12671 0.08319,0.18838 0.03495,0.19471c0.00461,0.24301 -0.13232,0.47724 -0.36729,0.5852c-0.3164,0.14537 -0.69075,0.00672 -0.83613,-0.30968c-0.14537,-0.3164 -0.00673,-0.69075 0.30968,-0.83613c0.0121,-0.00556 0.0243,-0.01073 0.03656,-0.01544c-0.18666,-0.16083 -0.39207,-0.34998 -0.60528,-0.56054c-0.0865,0.66298 -0.36359,1.2729 -0.88601,0.98208z" fill="#8c6738" stroke="none" stroke-width="0.5" stroke-linecap="butt"/><path d="M237.409,113.41073c-0.49003,0.39672 -0.88673,-0.09332 -0.88673,-0.09332l-0.13584,-0.17786c-1.39158,-1.2934 -2.81032,-2.43486 -4.42187,-3.44814c-4.44072,-3.70519 -4.1454,4.6643 -1.59812,7.00536c0,0 0.46201,0.429 0.03302,0.89101c-0.429,0.46201 -0.89102,0.03302 -0.89102,0.03302c-3.67332,-3.44029 -2.65154,-13.78173 3.19544,-8.9509c1.65509,1.0352 3.11266,2.22091 4.54058,3.54557l0.25788,0.30848c0,0 0.39671,0.49003 -0.09332,0.88673z" fill="#7c4800" stroke="none" stroke-width="0.5" stroke-linecap="butt"/><path d="M234.95366,114.13384c-0.17709,0.6051 -0.7822,0.42801 -0.7822,0.42801l-0.13603,-0.04236c-0.53976,-0.11414 -1.04076,-0.31161 -1.54655,-0.50879c0.12574,0.21577 0.25764,0.43343 0.39701,0.65465l0.11672,0.34458c0,0 0.14646,0.61324 -0.46678,0.75969c-0.61323,0.14645 -0.75968,-0.46678 -0.75968,-0.46678l0.0426,0.03426c-0.93054,-1.47914 -1.5614,-2.83822 -2.21672,-4.46585c0,0 -0.23536,-0.58489 0.34953,-0.82026c0.5849,-0.23537 0.82026,0.34953 0.82026,0.34953c0.28375,0.70549 0.55883,1.35162 0.85713,1.97852c0.91014,0.25375 1.74762,0.73847 2.6529,0.90384l0.24376,0.06879c0,0 0.6051,0.1771 0.42801,0.7822z" fill="#7c4800" stroke="none" stroke-width="0.5" stroke-linecap="butt"/><path d="M238.92273,118.41235c-2.90786,0.86684 -6.21379,0.49364 -9.20184,0.98855c-3.54463,-0.09414 -9.68714,0.65536 -12.68911,-1.42897c-0.08277,-0.02722 -0.16533,-0.05521 -0.24771,-0.08397c0,0 -0.59447,-0.21001 -0.38449,-0.80447c0.21001,-0.59447 0.80447,-0.38449 0.80447,-0.38449c4.27147,1.52853 9.25816,0.722 13.63787,0.38464c1.96945,-0.33308 6.59979,-0.87403 7.87813,-2.45792l0.15116,-0.29475c0,0 0.19514,-0.35118 0.55423,-0.33709c0.07313,-0.05397 0.16899,-0.09624 0.29449,-0.11749c0.62165,-0.10513 0.72677,0.51652 0.72677,0.51652c0.14188,0.86732 0.07641,1.71899 0.22502,2.59072l0.07009,0.41443c0,0 0.10513,0.62165 -0.5165,0.72678c-0.16103,0.02725 -0.28738,0.0057 -0.38627,-0.04116c-0.23234,0.10514 -0.53443,0.21485 -0.9163,0.32869z" fill="#8c8172" stroke="none" stroke-width="0.5" stroke-linecap="butt"/><path d="M242.69249,124.82663c-2.57197,1.60996 -5.85795,2.13064 -8.60629,3.40344c-3.44171,0.85323 -9.16276,3.21153 -12.61142,2.00198c-0.08703,-0.0042 -0.17408,-0.00919 -0.26112,-0.01496c0,0 -0.62895,-0.04411 -0.58484,-0.67303c0.04409,-0.62895 0.67303,-0.58485 0.67303,-0.58485c4.52428,0.33575 9.11607,-1.76967 13.2478,-3.26123c1.80961,-0.84552 6.12867,-2.60009 6.93903,-4.46724l0.0672,-0.32436c0,0 0.09459,-0.39046 0.44445,-0.47249c0.05608,-0.07147 0.13725,-0.13777 0.25258,-0.19168c0.57121,-0.26691 0.83809,0.3043 0.83809,0.3043c0.36774,0.7982 0.53145,1.63658 0.90681,2.43725l0.17793,0.38079c0,0 0.26691,0.57121 -0.30431,0.83809c-0.14794,0.06912 -0.27548,0.08202 -0.38325,0.06317c-0.19594,0.16322 -0.45793,0.34941 -0.7957,0.56083z" fill="#8c8172" stroke="none" stroke-width="0.5" stroke-linecap="butt"/><path d="M237.19945,109.7047c-2.28387,-0.08148 -4.55327,-1.14378 -6.8048,-1.51001c-2.50691,-0.92062 -7.07089,-1.86462 -8.7114,-4.07481c-0.0525,-0.03936 -0.10472,-0.07919 -0.15656,-0.11956c0,0 -0.37369,-0.29299 -0.0807,-0.66668c0.29299,-0.37369 0.66668,-0.0807 0.66668,-0.0807c2.68028,2.11922 6.43313,2.74426 9.63991,3.55798c1.48567,0.23647 4.92028,0.96524 6.21389,0.14271l0.17886,-0.17396c0,0 0.22382,-0.20363 0.47666,-0.10713c0.06516,-0.02091 0.14379,-0.02799 0.23846,-0.01292c0.46895,0.07465 0.39432,0.54358 0.39432,0.54358c-0.10757,0.65312 -0.35937,1.24515 -0.46319,1.90301l-0.04975,0.31261c0,0 -0.07463,0.46897 -0.54358,0.39432c-0.12146,-0.01936 -0.20646,-0.06512 -0.26573,-0.12236c-0.1911,0.01909 -0.43313,0.02466 -0.73307,0.01395z" fill="#8c8172" stroke="none" stroke-width="0.5" stroke-linecap="butt"/></g><g stroke="none" stroke-width="0.5" stroke-linecap="butt"><path d="M233.90894,188.36749c1.31601,-4.70997 8.65216,-6.32314 12.49236,-7.42297c0,0 1.12907,-0.32259 1.45166,0.80648c0.03009,0.10526 0.04754,0.2035 0.05446,0.29514c0.15597,0.04378 0.31284,0.09347 0.47064,0.14925l0.98971,1.19621c0,0 0.32774,0.4214 0.25714,0.91691c2.09701,1.80579 3.94503,4.13933 5.07516,6.61095c-0.07065,0.54694 -0.10707,1.1046 -0.10707,1.67078c0,1.82045 0.37661,3.55295 1.05613,5.12382c-0.54729,2.3298 -2.17261,4.45584 -5.30454,6.02194c-3.10558,1.42937 -4.03801,2.84758 -5.32694,5.93935c-0.06489,0.15563 -0.85286,1.8614 -1.4738,2.90846c0.0045,-0.00097 0.00904,-0.00194 0.0136,-0.00288c-1.1233,1.75822 -1.83257,3.80652 -1.99041,6.00745c-1.6022,0.42781 -3.52393,0.94765 -4.92756,-0.01033c-0.66028,-0.45063 -1.47866,-2.6391 -1.77131,-3.32834c-0.98107,-5.23723 -1.34613,-11.40364 -0.46443,-17.23285c-0.47386,-3.20511 -1.20526,-7.10681 -0.49483,-9.64938z" fill="#7c5c32"/><path d="M249.15956,193.34129c-0.07708,-0.15416 -0.08629,-0.28569 -0.06081,-0.39459c-0.03927,-0.06287 -0.07853,-0.12577 -0.11777,-0.18864c-2.38868,-3.50877 -7.9225,-3.04659 -10.42924,-0.15543c0,0 -0.38664,0.44185 -0.82849,0.05524c-0.44185,-0.38664 -0.05523,-0.82848 -0.05523,-0.82848c3.11909,-3.537 9.31871,-3.7568 12.28904,0.27593c0.12311,0.19678 0.2462,0.39357 0.3693,0.59035l-0.3791,0.90822c0,0 -0.52515,0.26257 -0.78771,-0.26256z" fill="#ffffff"/><path d="M248.10224,193.91135c0.12612,-0.09525 0.45077,-0.2784 0.77545,0.04628c0.41517,0.41517 0,0.83032 0,0.83032l-0.34466,0.22633c-3.6944,0.92062 -7.1789,1.12341 -10.34405,-1.25018c0,0 -0.4697,-0.35227 -0.11743,-0.82198c0.35227,-0.46971 0.82198,-0.11743 0.82198,-0.11743c2.82099,2.11598 5.9176,1.89628 9.20871,1.08666z" fill="#ffffff"/><path d="M243.95579,195.44265c-2.99293,0.64563 -2.08541,-3.54179 -1.50685,-5.09149c0,0 0.23969,-0.63915 0.86911,-0.49195c0.13732,-0.12423 0.31938,-0.19988 0.51914,-0.19988c0.38281,0 0.70072,0.2779 0.76301,0.64296c1.2001,0.61827 2.00851,4.56807 -0.64438,5.14035z" fill="#ffffff"/><path d="M244.14417,211.36496c0.13744,0.5696 -0.41233,0.712 -0.41233,0.712l-0.16157,0.02743c-3.14304,1.61946 -5.89691,0.6523 -8.99873,-0.62705c0,0 -0.52614,-0.21806 -0.31569,-0.7632c0.21045,-0.54514 0.73662,-0.32708 0.73662,-0.32708c2.78116,1.15876 5.2645,2.12984 8.07095,0.66702l0.39354,-0.11634c0,0 0.54976,-0.14239 0.6872,0.42719z" fill="#ffffff"/></g><g stroke="none" stroke-linecap="butt"><path d="M255.47181,167.6853c0,13.40569 -8.23966,24.27315 -18.40381,24.27315c-10.16414,0 -18.40381,-10.86747 -18.40381,-24.27315c0,-13.40569 8.23966,-24.27312 18.40381,-24.27312c10.16414,0 18.40381,10.86744 18.40381,24.27312z" fill="#946d3b" stroke-width="0"/><path d="M244.85969,156.65015c10.07203,4.43699 15.97054,14.35671 13.17474,22.15624c-2.79581,7.79953 -13.22721,10.52541 -23.29924,6.08839c-10.07203,-4.43699 -15.97051,-14.35671 -13.1747,-22.15624c2.79581,-7.79953 13.22721,-10.52538 23.29921,-6.08839z" fill="#946d3b" stroke-width="0"/><path d="M232.96916,190.82032c0.00199,0.91842 -0.91644,1.37764 -0.91644,1.37764l-1.46764,0.61076c-10.68855,0.93222 -19.01933,-0.34942 -24.46956,-10.50348c-2.16709,-6.01302 0.35573,-16.14962 -6.49714,-20.03119c-3.57274,-2.02365 -7.40429,0.40206 -10.94659,1.77787l0.22195,0.55492l-1.46066,0.58425c-0.19291,0.08238 -0.40526,0.12798 -0.62827,0.12798c-0.88416,0 -1.60094,-0.71677 -1.60094,-1.60094c0,-0.22301 0.04559,-0.43539 0.12798,-0.62827l0.58425,-1.46066l0.01249,0.00499l0.00346,-0.04335c8.24952,-17.78661 23.8498,-19.30155 33.98228,-2.33023c2.76843,6.61138 1.76942,28.84302 11.7168,29.31335c0,0 1.59437,0.14495 1.44942,1.73929c-0.01761,0.19355 -0.05655,0.36146 -0.11143,0.50708z" fill="#8c6738" stroke-width="0.5"/><path d="M191.78764,154.37417c0.23575,0.26893 0.36924,0.51566 0.4254,0.7389l0.00836,0.01258l0.01085,0.03032l0.02353,0.01348l0.04371,0.17492l0.00269,0.00756l0.00925,0.01386l0.03596,0.1007l0.05741,0.0902l0.03003,0.09004l0.0032,0.04191l0.01879,0.03759l0.04595,0.20678l0.02357,0.05888l0.0218,0.04358l0.00781,0.00448l0.00557,0.02232l0.00999,0.01995l0.0399,0.17953l0.01847,0.07393l0.03224,0.06048l0.00839,0.03359l0.03115,0.04675l0.01085,0.03032l0.02353,0.01348l0.04364,0.1745l0.0324,0.05402l0.00913,0.03003l0.02043,0.02382l0.03003,0.06004l0.02318,0.10435l0.04579,0.09663l0.02024,0.10121l0.01425,0.04278l0.00387,0.05046l0.02168,0.04569l0.06004,0.30018l-0.00378,0.07963l0.01934,0.07736v0.16086l0.01447,0.07236l-0.00346,0.07252l0.01194,0.04777l0.03983,0.09964l0.02049,0.15023l0.00887,0.03548l0.004,0.00749l0.02257,0.09026l0.00231,0.00692l0.00458,0.00916l0.00304,0.01374l0.01037,0.03106l0.00183,0.02379l0.02465,0.11094l0.01671,0.06686l0.004,0.00749l0.03874,0.15487l0.05075,0.1015l0.00736,0.03317l0.01988,0.02754l0.06004,0.1501l0.00327,0.02385l0.0129,0.0203l0.00096,0.00295l0.00006,0.00003l0.00019,0.0007l0.01079,0.03237l0.00458,0.00916l0.00307,0.01374l0.01034,0.03106l0.00183,0.02376l0.02465,0.11098l0.01015,0.04063l0.00996,0.01995l0.01127,0.05081l0.02885,0.04326l0.03596,0.10067l0.05741,0.0902l0.03003,0.09007l0.0024,0.03128l0.01479,0.0277l0.02257,0.09023l0.0203,0.06087l0.00986,0.1283l0.03122,0.12484v0.24014l0.03003,0.12007v0.02232l0.0154,0.06942l0.04463,0.17844v0.02232l0.00496,0.02245l-0.00496,0.00746v0.42806l-0.02843,0.11376l-0.00672,0.14133l-0.03657,0.03186l-0.02834,0.11328l-0.29585,0.16906l-0.2476,0.21565l-0.03567,-0.01188l-0.02084,0.01783l-0.10326,0.12045l-0.03986,0.00221l-0.04963,0.04252l-0.09606,0.04803l-0.08405,0.07204l-0.06004,0.03003l-0.05062,0.01124l-0.03506,0.02104l-0.00115,-0.00032l-0.01799,0.01146l-0.18011,0.06004l-0.03131,0.0024l-0.0277,0.01479l-0.03045,0.00762l-0.00359,0.00628l-0.02232,0.00557l-0.01995,0.00999l-0.10806,0.02401l-0.01201,0.00602l-0.17953,0.0399l-0.0868,0.02171l-0.01863,0.01185l-0.09298,0.03099l-0.00003,0.0001l-0.00074,0.00016l-0.03237,0.01079l-0.00916,0.00458l-0.01374,0.00307l-0.03109,0.01034l-0.02376,0.00183l-0.11098,0.02465l-0.06686,0.01671l-0.00749,0.004l-0.06737,0.01684l-0.09967,0.03986l-0.05456,0.00743l-0.04857,0.0259l-0.09026,0.02257l-0.06087,0.0203l-0.03131,0.0024l-0.0277,0.01479l-0.12007,0.03003h-0.01953l-0.01764,0.00836l-0.1314,0.02629l-0.22167,0.05542h-0.04886l-0.01114,0.00247l-0.02501,0.00832l-0.022,0.01588l-0.11917,0.04764l-0.09029,0.04515l-0.08603,0.01915l-0.02991,0.01595l-0.06417,0.05498l-0.03125,0.01563l-0.00871,0.03093l-0.06372,0.03397l-0.04697,0.05482l-0.06228,0.00346l-0.10364,0.0553l-0.04572,0.0762l-0.08315,0.08315l-0.00176,0.00884l-0.0194,0.01233l-0.01575,0.01579l-0.08238,0.04944l-0.0025,0.01252l-0.08677,0.05523l-0.06695,0.07809l-0.01764,0.00096l-0.0439,0.0439l-0.04076,0.02446l-0.01777,0.02068l-0.00477,0.00029l-0.02677,0.0446l-0.04502,0.04505l-0.04502,0.07505l-0.0683,0.0683l-0.03324,0.05222l-0.00339,0.06112l-0.07809,0.06692l-0.05523,0.08677l-0.06,0.01201l-0.11991,0.10275l-0.12007,0.06004l-0.05081,0.0113l-0.04323,0.02882l-0.04764,0.017l-0.03842,0.03292l-0.06004,0.03l-0.08607,0.01915l-0.07777,0.0415l-0.12007,0.03003h-0.03263l-0.02991,0.013l-0.18011,0.03003l-0.05504,-0.00439l-0.04476,0.00996l-0.07777,0.0415l-0.12007,0.03003h-0.0553l-0.14175,0.05671l-0.02385,0.00323l-0.0203,0.01294l-0.09004,0.03003l-0.1283,0.00986l-0.12484,0.03122h-0.09004l-0.12007,0.03003h-0.02232l-0.02245,0.00496l-0.00141,-0.00093l-0.1039,0.026h-0.02232l-0.02245,0.00496l-0.00029,-0.00019l-0.00026,0.00019l-0.02245,-0.00496h-0.02232l-0.17844,-0.04463l-0.06708,-0.01489l-0.02677,0.0073l-0.03506,-0.02104l-0.05062,-0.01124l-0.01995,-0.00999l-0.02232,-0.00557l-0.00445,-0.00781l-0.01332,-0.00666l-0.08405,-0.07204l-0.03602,-0.01803l-0.02766,-0.02373l-0.03234,-0.0194l-0.02949,-0.00163l-0.07656,-0.0893l-0.01351,-0.00077l-0.0617,-0.07198l-0.07201,-0.0617l-0.00077,-0.01351l-0.0893,-0.07656l-0.00221,-0.03986l-0.04255,-0.04963l-0.0967,-0.19342l-0.00778,-0.00445l-0.00557,-0.02232l-0.00999,-0.01998l-0.02549,-0.11479l-0.00451,-0.00525l-0.05469,-0.10938l-0.04982,-0.02846l-0.02494,-0.0998l-0.05293,-0.08818l0.01611,-0.05907l-0.03829,-0.15318v-0.03785l-0.00499,-0.00746l0.00499,-0.02245v-0.02229l0.02597,-0.10393l-0.00093,-0.00141l0.00499,-0.02245v-0.02229l0.0446,-0.17844l0.02465,-0.11098l0.00183,-0.02376l0.01037,-0.03106l0.00304,-0.01374l0.00458,-0.00916l0.01082,-0.0324l0.00019,-0.0007l0.00006,-0.00006l0.00096,-0.00295l0.03093,-0.0486l0.01249,-0.05622l0.03999,-0.07998l0.00557,-0.02232l0.00781,-0.00448l0.01662,-0.03327l0.00557,-0.02232l0.00778,-0.00448l0.00666,-0.01332l0.06,-0.06999l0.01556,-0.06231l0.04403,-0.02513l0.02539,-0.04233l0.01066,-0.04262v-0.06004l0.00784,-0.03144l0.0032,-0.04159l0.01896,-0.05687v-0.02802l-0.00499,-0.00746l0.00499,-0.02245v-0.02229l0.0446,-0.17844l0.00932,-0.04188v-0.03384l0.03003,-0.12007l0.06445,-0.12087l0.01092,-0.03058l0.0447,-0.17876l0.0415,-0.07781l0.01912,-0.08603l0.02075,-0.0415l0.00871,-0.0348l0.06862,-0.12868l0.05216,-0.13621l0.17629,-0.25189l0.00365,-0.00727l0.00797,-0.00925l0.00768,-0.01098l0.00528,-0.01889l0.06529,-0.11427l0.00323,-0.01294l0.06445,-0.12087l0.01092,-0.03058l0.01466,-0.05869l0.01902,-0.03567l0.00144,-0.00407l0.00359,-0.00538l0.01742,-0.03266l0.01912,-0.08603l0.06602,-0.13208l0.02401,-0.10806l0.00996,-0.01995l0.00557,-0.02232l0.00781,-0.00448l0.03666,-0.07335l0.03292,-0.03839l0.01703,-0.04764l0.04082,-0.06128l0.02024,-0.07195l0.0925,-0.16189l0.03942,-0.09849l0.01988,-0.02754l0.00736,-0.03317l0.10518,-0.21036l0.04768,-0.11917l0.04902,-0.06788l0.02818,-0.07886l0.05542,-0.08312l0.03464,-0.09695l0.06004,-0.09007l0.04236,-0.03852l0.02776,-0.05555l0.08376,-0.09769l0.02209,-0.03685l0.0041,-0.01153l0.02802,-0.04204l0.01197,-0.01995l0.00397,-0.00397l0.07611,-0.11415l0.01681,-0.0153l0.00884,-0.02094l0.09004,-0.12007l0.04473,-0.03634l0.02962,-0.0494l0.02962,-0.02959l0.00054,-0.0025l0.06004,-0.12007l0.03292,-0.03839l0.017,-0.04764l0.04947,-0.07422l0.06445,-0.10739l0.01627,-0.03256l0.02043,-0.02382l0.00913,-0.03003l0.09007,-0.15007l0.03861,-0.03861l0.02273,-0.0496l0.04598,-0.05747l0.01598,-0.03996l0.00586,-0.00813l0.0016,-0.00989l0.09007,-0.21014l0.05811,-0.07646l0.03727,-0.0885l0.04675,-0.06234l0.02773,-0.05552l0.04255,-0.0496l0.00221,-0.0399l0.05129,-0.04396l0.0106,-0.03186l0.05741,-0.0902l0.03596,-0.10067l0.05418,-0.08126l0.00067,-0.01223l0.07207,-0.0618l0.00118,-0.00186l0.00131,-0.00026l0.01553,-0.01332l0.04054,-0.06369l0.09462,-0.15772l0.01579,-0.01579l0.01233,-0.0194l0.00884,-0.00176l0.06814,-0.06814l0.04502,-0.07505l0.02962,-0.02959l0.00054,-0.0025l0.06004,-0.12007l0.07204,-0.08405l0.07806,-0.15609l0.06926,-0.08078l0.00832,-0.01306l0.01249,-0.05622l0.06004,-0.12007l0.03292,-0.03842l0.017,-0.04761l0.0324,-0.04857l0.0123,-0.02462l0.01204,-0.03609l0.01146,-0.01799l-0.00032,-0.00115l0.02104,-0.03506l0.01124,-0.05062l0.03,-0.06004l0.07204,-0.08405l0.01803,-0.03602l0.02373,-0.02763l0.03618,-0.06032l0.04502,-0.04502l0.04502,-0.07505l0.12007,-0.12007l0.11034,-0.06621l0.09772,-0.08373l0.05069,-0.02533c0.14834,-0.60394 0.54108,-0.82781 1.50011,0.26624zM191.89557,161.22002v-0.01707l-0.02136,0.02846z" fill="#ededed" stroke-width="0.5"/><path d="M206.46351,147.71063c0.80047,0 0.80047,0.75942 0.80047,0.75942v0.75945c0,4.99261 -1.67413,10.2732 -5.67189,13.73122c0,0 -0.59827,0.50455 -1.13007,-0.06308c-0.5318,-0.56763 0.06647,-1.07215 0.06647,-1.07215c3.72675,-3.03182 5.13455,-8.12747 5.13455,-12.596v-0.75945c0,0 0,-0.75942 0.80047,-0.75942z" fill="#ededed" stroke-width="0.5"/><path d="M222.0277,169.39757c0.55946,0.56599 0,1.13202 0,1.13202l-0.34756,0.3483c-2.64567,2.29126 -10.70177,5.71636 -14.85306,4.1024c-0.10262,0.02257 -0.20524,0.04515 -0.30786,0.06772v0.008h-0.90907c-0.43696,0 -0.79118,-0.35839 -0.79118,-0.80047c0,-0.44208 0.35422,-0.80047 0.79118,-0.80047h0.74245c0.26768,-0.06176 0.53535,-0.12356 0.80303,-0.18532c0,0 0.0066,-0.0015 0.01867,-0.00355c3.86629,-1.72795 9.71957,-0.34228 13.47603,-3.6038l0.25849,-0.26483c0,0 0.55946,-0.56599 1.11893,0z" fill="#1c1b11" stroke-width="0.5"/><path d="M250.72126,151.54362c0.44208,0 0.80047,0.35839 0.80047,0.80047c0,0.44208 -0.35839,0.80047 -0.80047,0.80047c-0.24309,0 -0.46085,-0.10835 -0.60765,-0.27936c-0.14261,0.13144 -0.33309,0.21171 -0.54233,0.21171c-0.29582,0 -0.55415,-0.16045 -0.69272,-0.39908c-0.14053,0.12215 -0.32409,0.19615 -0.52491,0.19615c-0.27085,0 -0.51025,-0.13451 -0.6551,-0.34036c-0.13726,0.24353 -0.39831,0.40798 -0.69782,0.40798c-0.19256,0 -0.36927,-0.06798 -0.50737,-0.18126c-0.1381,0.11328 -0.31478,0.18126 -0.50734,0.18126c-0.18497,0 -0.35528,-0.06272 -0.49085,-0.1681c-0.11504,0.06401 -0.24754,0.10044 -0.38855,0.10044c-0.1982,0 -0.37958,-0.07204 -0.51938,-0.19134c-0.12372,0.07835 -0.2704,0.12369 -0.42767,0.12369c-0.22013,0 -0.41948,-0.08885 -0.5642,-0.23262c-0.11373,0.06205 -0.24417,0.09734 -0.38285,0.09734c-0.22368,0 -0.42598,-0.09177 -0.57121,-0.23972c-0.07592,0.02389 -0.15673,0.03676 -0.24052,0.03676c-0.23278,0 -0.44234,-0.09935 -0.5886,-0.25797c-0.12337,0.07771 -0.26947,0.1227 -0.42607,0.1227c-0.30021,0 -0.56183,-0.16525 -0.69881,-0.40978c-0.12846,0.0878 -0.28381,0.13919 -0.45118,0.13919c-0.22714,0 -0.43222,-0.09462 -0.57791,-0.24658c-0.13765,0.11187 -0.31324,0.17892 -0.50445,0.17892c-0.28164,0 -0.52933,-0.14546 -0.67201,-0.36537c-0.06615,0.01771 -0.13566,0.02715 -0.20739,0.02715c-0.27581,0 -0.51906,-0.13951 -0.66301,-0.35179c-0.10614,0.052 -0.22551,0.0812 -0.35169,0.0812c-0.30171,0 -0.56449,-0.16691 -0.70089,-0.41349c-0.03625,0.00503 -0.07323,0.00762 -0.11088,0.00762c-0.2614,0 -0.4935,-0.12529 -0.63961,-0.3191c-0.13854,0.11479 -0.31638,0.18379 -0.51038,0.18379c-0.29797,0 -0.55793,-0.16282 -0.69573,-0.4043c-0.09775,0.04249 -0.20559,0.06609 -0.31897,0.06609c-0.4352,0 -0.78926,-0.34724 -0.80021,-0.77978c-0.01169,0.00051 -0.02341,0.00077 -0.03519,0.00077c-0.40004,0 -0.73156,-0.29348 -0.79099,-0.67688c-0.08248,0.02869 -0.17104,0.04431 -0.26329,0.04431c-0.38752,0 -0.71072,-0.27536 -0.78462,-0.64108c-0.09077,0.03573 -0.18961,0.05536 -0.2931,0.05536c-0.31983,0 -0.59584,-0.18757 -0.72404,-0.4587c-0.04063,0.0235 -0.08347,0.04358 -0.1282,0.05975c-0.293,0.29848 -0.47324,0.22698 -0.56491,-0.00765c-0.27709,-0.10886 -0.47878,-0.36777 -0.505,-0.67668c-0.10601,0.05184 -0.22519,0.08091 -0.35115,0.08091c-0.28695,0 -0.53859,-0.15097 -0.67989,-0.37782c-0.12587,0.08248 -0.27642,0.13048 -0.43814,0.13048c-0.44208,0 -0.80047,-0.35839 -0.80047,-0.80047c0,-0.44208 0.35839,-0.80047 0.80047,-0.80047c0.28695,0 0.53859,0.15097 0.67989,0.37782c0.12587,-0.08248 0.27642,-0.13048 0.43814,-0.13048c0.41896,0 0.76275,0.32188 0.79755,0.73185c0.06253,-0.03058 0.12961,-0.05325 0.20002,-0.06669c0.13871,-0.24251 0.33428,-0.29412 0.55741,0.09638c0.13774,0.0813 0.24901,0.20268 0.31775,0.34808c0.1178,-0.06823 0.25461,-0.10726 0.40052,-0.10726c0.38752,0 0.71069,0.27536 0.78459,0.64108c0.09077,-0.03573 0.18965,-0.05536 0.2931,-0.05536c0.40004,0 0.73156,0.29348 0.79099,0.67688c0.08248,-0.02869 0.17104,-0.04431 0.26329,-0.04431c0.4352,0 0.78926,0.34724 0.80021,0.77978c0.01169,-0.00051 0.02341,-0.00077 0.03519,-0.00077c0.29797,0 0.55793,0.16282 0.69573,0.4043c0.09775,-0.04249 0.20559,-0.06605 0.31897,-0.06605c0.2614,0 0.4935,0.12529 0.63957,0.3191c0.13854,-0.11479 0.31641,-0.18379 0.51038,-0.18379c0.30171,0 0.56446,0.16691 0.70089,0.41349c0.03625,-0.00503 0.07326,-0.00762 0.11088,-0.00762c0.27581,0 0.51906,0.13951 0.66301,0.35179c0.10614,-0.052 0.22551,-0.0812 0.35169,-0.0812c0.28164,0 0.52933,0.14543 0.67201,0.36533c0.06615,-0.01771 0.13566,-0.02712 0.20739,-0.02712c0.22714,0 0.43219,0.09462 0.57787,0.24658c0.13765,-0.11187 0.31324,-0.17892 0.50445,-0.17892c0.30021,0 0.5618,0.16525 0.69878,0.40974c0.12846,-0.0878 0.28385,-0.13915 0.45121,-0.13915c0.23278,0 0.44234,0.09935 0.5886,0.25797c0.12337,-0.07771 0.26947,-0.1227 0.42607,-0.1227c0.22368,0 0.42598,0.09177 0.57121,0.23972c0.07592,-0.02389 0.15673,-0.03676 0.24052,-0.03676c0.22013,0 0.41948,0.08882 0.5642,0.23262c0.11373,-0.06205 0.24417,-0.0973 0.38285,-0.0973c0.1982,0 0.37958,0.07204 0.51938,0.19134c0.12372,-0.07835 0.2704,-0.12369 0.42767,-0.12369c0.18497,0 0.35528,0.06276 0.49085,0.1681c0.11504,-0.06401 0.24754,-0.10047 0.38855,-0.10047c0.19256,0 0.36924,0.06801 0.50734,0.18129c0.1381,-0.11328 0.31481,-0.18129 0.50737,-0.18129c0.27085,0 0.51025,0.13451 0.6551,0.34039c0.13726,-0.24353 0.39831,-0.40801 0.69782,-0.40801c0.29582,0 0.55412,0.16045 0.69269,0.39905c0.14053,-0.12215 0.32409,-0.19611 0.52495,-0.19611c0.24309,0 0.46081,0.10835 0.60762,0.27936c0.14261,-0.13144 0.33312,-0.21171 0.54236,-0.21171z" fill="#6a7e00" stroke-width="0.5"/><path d="M255.3349,161.40772c-3.16425,1.1301 -6.13232,-1.59312 -5.94821,-4.70073c-0.40164,-0.54806 -0.19439,-1.59777 1.15837,-3.33468c0.1558,-0.43629 0.375,-0.7996 0.67268,-0.96969c0.08911,-0.15094 0.22631,-0.27011 0.39053,-0.33636c0.14604,-0.19448 0.37856,-0.32028 0.6405,-0.32028c0.17037,0 0.32832,0.05325 0.45812,0.14396c0.59747,0.19989 1.08226,0.41339 1.46819,0.6357c0.3695,0.01402 0.68296,0.31426 0.92432,0.74821c0.18881,0.23716 0.29271,0.47801 0.32582,0.71767c1.78046,1.77665 3.12743,6.26702 -0.09032,7.4162z" fill="#7d794a" stroke-width="0.5"/><path d="M253.02878,153.50303c0,-0.44208 0.35839,-0.80047 0.80047,-0.80047c0.02145,0 0.04268,0.00083 0.06369,0.0025c2.84861,-1.58128 1.38673,11.59388 -0.6673,1.32372c-0.1226,-0.14066 -0.19688,-0.32451 -0.19688,-0.52575z" fill="#7d794a" stroke-width="0.5"/><path d="M252.99488,159.55784l0.12042,-0.20069l0.03471,-0.03471l0.01982,-0.04489l0.14681,-0.18875l0.00442,-0.00349l0.00237,-0.00512l0.08389,-0.10486l0.11949,-0.09103l0.10845,-0.1039l0.14681,-0.08389l0.0341,-0.00957l0.0276,-0.02219l0.27267,-0.12583l0.04428,-0.00839l0.03804,-0.02421l0.18875,-0.06292l0.02267,-0.00173l0.01985,-0.01114l0.23069,-0.06292l0.10688,-0.00227l0.10371,-0.02594h0.09698l0.10211,-0.01278l0.23559,-0.03929l0.06669,0.00535l0.0649,-0.01623h0.02549c0.14597,-0.15494 0.35304,-0.25167 0.58274,-0.25167c0.34532,0 0.63957,0.21866 0.75183,0.52507l0.0015,0.00022l0.11495,0.15916l0.12382,0.15238l-0.00202,0.01623l0.00483,0.00666l0.04194,0.10486l0.02046,0.15023l0.03679,0.14706v0.33556l-0.02392,0.09561v0.09855l-0.02693,0.10774l-0.01537,0.16909l-0.03064,0.08789l-0.00714,0.09279l-0.01595,0.04787l-0.03234,0.27491l-0.02927,0.07723l-0.00631,0.08235l-0.04146,0.12439l-0.03163,0.20559l-0.0146,0.03474v0.03769l-0.04194,0.16778l-0.01476,0.0277l-0.0024,0.03128l-0.08389,0.2517l-0.02113,0.0332l-0.00679,0.03874l-0.08392,0.18875l-0.02232,0.02859l-0.00941,0.03503l-0.10489,0.18875l-0.05834,0.06237l-0.039,0.07601l-0.14681,0.16778l-0.04444,0.03087l-0.03087,0.04444l-0.1477,0.12926l-0.08603,0.08603l-0.02062,0.01236l-0.01358,0.01988l-0.18875,0.16778l-0.09359,0.04892l-0.08021,0.06874l-0.08389,0.04194l-0.0829,0.01841l-0.02497,0.01306l-0.00083,-0.00029l-0.0551,0.02939l-0.08389,0.02097h-0.02798l-0.0041,0.00247l-0.02456,0.02104l-0.00509,0.01377l-0.02229,0.00967l-0.04579,0.03925l-0.08389,0.04194l-0.04431,0.00983l-0.01755,0.01053l-0.01338,-0.00365l-0.04153,0.00922l-0.10963,0.04768l-0.25167,0.04194l-0.06669,-0.00535l-0.0649,0.01623h-0.98573l-0.03125,-0.00781l-0.02427,0.01214l-0.1698,-0.06064l-0.04098,-0.01025l-0.0089,0.00243l-0.01329,-0.00797l-0.11175,-0.02795l-0.01348,-0.02353l-0.03032,-0.01082l-0.06292,-0.04194l-0.05363,-0.05901l-0.06836,-0.04102l-0.04194,-0.04194l-0.03538,-0.05898l-0.00656,-0.00394l-0.04194,-0.04194l-0.00327,-0.00544l-0.01287,-0.01169l-0.00887,-0.01329l-0.01732,-0.00576l-0.01466,-0.03096c-0.77725,-0.24286 -1.53389,-1.25866 -2.11131,-3.56836c-0.01953,-0.07816 1.11002,0.38416 2.28646,0.56375l0.10909,-0.1697z" fill="#7d794a" stroke-width="0.5"/><path d="M252.06761,157.03777c0,-0.59299 0.48073,-1.07372 1.07372,-1.07372c0.59299,0 1.07372,0.48073 1.07372,1.07372c0,0.59299 -0.48073,1.07372 -1.07372,1.07372c-0.59299,0 -1.07372,-0.48073 -1.07372,-1.07372z" fill="#1c1b11" stroke-width="0.5"/><path d="M255.63126,156.65556c-0.24049,-0.61841 -0.19307,-1.21396 0.10585,-1.33025c0.29896,-0.11629 0.73627,0.29083 0.97676,0.90924c0.24049,0.61841 0.19314,1.21396 -0.10582,1.33022c-0.29896,0.11629 -0.7363,-0.29083 -0.97679,-0.9092z" fill="#1c1b11" stroke-width="0.5"/><path d="M254.43994,160.91655c-0.13028,-0.03724 -0.09308,-0.16752 -0.09308,-0.16752l0.02126,-0.07127c0.0545,-0.32041 0.07243,-0.6746 0.07207,-1.00026c0,0 -0.00003,-0.1355 0.1355,-0.1355c0.13554,0 0.13554,0.1355 0.13554,0.1355c-0.00032,0.34135 -0.02072,0.70851 -0.07576,1.0448l-0.02802,0.10118c0,0 -0.03724,0.13028 -0.16752,0.09308z" fill="#1c1b11" stroke-width="0.5"/><path d="M255.3576,160.83247l-0.02802,-0.10118c-0.05504,-0.33629 -0.0754,-0.70348 -0.07576,-1.0448c0,0 0,-0.1355 0.1355,-0.1355c0.13554,0 0.1355,0.1355 0.1355,0.1355c-0.00035,0.32566 0.01758,0.67985 0.07207,1.00026l0.02129,0.07127c0,0 0.03721,0.13032 -0.09308,0.16755c-0.13028,0.03724 -0.16752,-0.09308 -0.16752,-0.09308z" data-paper-data="{&quot;index&quot;:null}" fill="#1c1b11" stroke-width="0.5"/><path d="M252.75839,163.16497l-0.02802,-0.06404c-0.05504,-0.21292 -0.07544,-0.44535 -0.07576,-0.66144c0,0 0,-0.08578 0.13554,-0.08578c0.13554,0 0.1355,0.08578 0.1355,0.08578c-0.00035,0.20614 0.01758,0.43036 0.07207,0.63323l0.02126,0.04511c0,0 0.03724,0.08251 -0.09308,0.10608c-0.13028,0.02357 -0.16752,-0.05891 -0.16752,-0.05891z" data-paper-data="{&quot;index&quot;:null}" fill="#1c1b11" stroke-width="0.5"/><path d="M253.20553,163.33057l-0.02802,-0.06404c-0.05504,-0.21292 -0.07544,-0.44535 -0.07576,-0.66144c0,0 0,-0.08578 0.13554,-0.08578c0.13554,0 0.1355,0.08578 0.1355,0.08578c-0.00035,0.20614 0.01758,0.43036 0.07207,0.63323l0.02126,0.04511c0,0 0.03724,0.08248 -0.09308,0.10605c-0.13028,0.02357 -0.16752,-0.05891 -0.16752,-0.05891z" data-paper-data="{&quot;index&quot;:null}" fill="#1c1b11" stroke-width="0.5"/><path d="M253.7355,163.41337l-0.02802,-0.06404c-0.05504,-0.21292 -0.07544,-0.44535 -0.07576,-0.66144c0,0 0,-0.08578 0.13554,-0.08578c0.13554,0 0.1355,0.08578 0.1355,0.08578c-0.00035,0.20614 0.01758,0.43036 0.07207,0.63323l0.02129,0.04511c0,0 0.03721,0.08251 -0.09308,0.10608c-0.13028,0.02357 -0.16752,-0.05891 -0.16752,-0.05891z" data-paper-data="{&quot;index&quot;:null}" fill="#1c1b11" stroke-width="0.5"/><path d="M254.18267,163.44651l-0.02802,-0.06404c-0.05504,-0.21292 -0.07544,-0.44535 -0.07576,-0.66144c0,0 0,-0.08578 0.13554,-0.08578c0.13554,0 0.1355,0.08578 0.1355,0.08578c-0.00035,0.20614 0.01758,0.43036 0.07207,0.63323l0.02126,0.04511c0,0 0.03724,0.08251 -0.09308,0.10608c-0.13028,0.02357 -0.16752,-0.05891 -0.16752,-0.05891z" data-paper-data="{&quot;index&quot;:null}" fill="#1c1b11" stroke-width="0.5"/><path d="M254.59671,163.36371l-0.02802,-0.06404c-0.05504,-0.21292 -0.07544,-0.44535 -0.07576,-0.66144c0,0 0,-0.08578 0.13554,-0.08578c0.13554,0 0.1355,0.08578 0.1355,0.08578c-0.00035,0.20614 0.01758,0.43036 0.07207,0.63323l0.02126,0.04511c0,0 0.03724,0.08248 -0.09308,0.10605c-0.13028,0.02357 -0.16752,-0.05891 -0.16752,-0.05891z" data-paper-data="{&quot;index&quot;:null}" fill="#1c1b11" stroke-width="0.5"/><path d="M255.09354,163.24197l-0.02802,-0.05315c-0.05504,-0.17662 -0.0754,-0.36943 -0.07576,-0.54867c0,0 0,-0.07118 0.13554,-0.07118c0.13554,0 0.1355,0.07118 0.1355,0.07118c-0.00035,0.17101 0.01758,0.35701 0.07207,0.52527l0.02129,0.03743c0,0 0.03721,0.06846 -0.09308,0.08799c-0.13028,0.01953 -0.16752,-0.04886 -0.16752,-0.04886z" data-paper-data="{&quot;index&quot;:null}" fill="#1c1b11" stroke-width="0.5"/><path d="M255.50758,163.03385l-0.02802,-0.04585c-0.05504,-0.15244 -0.0754,-0.31881 -0.07576,-0.47352c0,0 0,-0.06141 0.1355,-0.06141c0.13554,0 0.1355,0.06141 0.1355,0.06141c-0.00035,0.14761 0.01758,0.30812 0.07207,0.45332l0.02129,0.03231c0,0 0.03721,0.05907 -0.09308,0.07595c-0.13028,0.01687 -0.16752,-0.0422 -0.16752,-0.0422z" data-paper-data="{&quot;index&quot;:null}" fill="#1c1b11" stroke-width="0.5"/><path d="M255.8057,162.85067l-0.02802,-0.0301c-0.05504,-0.10003 -0.07544,-0.20918 -0.07576,-0.31068c0,0 0,-0.04031 0.13554,-0.04031c0.13554,0 0.1355,0.04031 0.1355,0.04031c-0.00035,0.09682 0.01758,0.20217 0.07207,0.29742l0.02126,0.0212c0,0 0.03724,0.03874 -0.09308,0.04982c-0.13028,0.01108 -0.16752,-0.02766 -0.16752,-0.02766z" data-paper-data="{&quot;index&quot;:null}" fill="#1c1b11" stroke-width="0.5"/><path d="M251.56009,178.55037c-1.5166,0.03983 -2.97316,-0.30427 -4.3532,-0.94561c0,0 -0.36735,-0.17079 -0.19656,-0.53814c0.17082,-0.36735 0.53814,-0.19656 0.53814,-0.19656c1.22247,0.56868 2.50633,0.88468 3.8458,0.87293c-0.03407,-0.32211 -0.03125,-0.64838 0.01217,-0.96408c-1.57378,-0.08776 -3.01639,-0.40846 -4.42354,-1.17954c0,0 -0.35502,-0.19515 -0.15987,-0.55018c0.19515,-0.35499 0.55018,-0.15987 0.55018,-0.15987c1.34075,0.73912 2.72697,1.03292 4.24417,1.09222c0.13329,-0.32384 0.32294,-0.61751 0.57432,-0.85957c-1.68723,-0.13611 -3.39065,-0.63272 -4.61457,-1.81517c0,0 -0.29115,-0.28167 -0.00945,-0.57285c0.2817,-0.29118 0.57281,-0.00948 0.57281,-0.00948c1.28424,1.24434 3.20571,1.62223 4.95528,1.62754l0.11383,-0.00836c0,0 0.09878,-0.00634 0.20178,0.03605c-0.02036,-0.30594 -0.0373,-0.60906 -0.04239,-0.91378c-0.35109,-0.39681 -0.66625,-1.00878 -0.76669,-1.81636c-0.38032,-0.29867 -0.83431,-0.50433 -1.45419,-0.55729c0,0 -0.40353,-0.03583 -0.36773,-0.43933c0.03583,-0.40353 0.43936,-0.36773 0.43936,-0.36773c0.78106,0.07159 1.35036,0.33162 1.83195,0.70947c0.20239,0.02341 0.28385,0.17178 0.31625,0.27507c0.16634,0.15881 0.32451,0.33165 0.48079,0.51486l0.0926,0.01896l-0.01495,0.07303c0.04124,0.04934 0.08242,0.09942 0.12366,0.15007c0.73614,0.29771 1.2445,0.99677 1.68258,1.79058c0.33953,0.01691 0.68273,0.08437 1.04928,0.19198c0.16314,-0.05011 0.33347,-0.07553 0.50247,-0.06702c0.46238,0.02331 0.88176,0.15455 1.24998,0.36309c-0.04665,0.99725 -0.02766,2.05711 0.05786,3.09534c-0.24642,0.74373 -0.47442,1.55873 -0.66717,2.39564c-0.10877,0.02904 -0.21718,0.06007 -0.32528,0.09234c-2.33323,-0.17719 -5.1188,-0.13899 -6.91159,0.26857c-0.85628,0.00576 -1.69373,-0.04089 -2.5704,-0.09292c0,0 -0.40436,-0.0244 -0.38,-0.42879c0.02437,-0.40436 0.42879,-0.38 0.42879,-0.38c1.08745,0.06653 2.10731,0.12231 3.18637,0.07521c0.04383,-0.20697 0.1282,-0.43888 0.2404,-0.67803c-0.01149,-0.03388 -0.02261,-0.06798 -0.03327,-0.10233z" data-paper-data="{&quot;index&quot;:null}" fill="#ffffff" stroke-width="0.5"/></g><path d="M231.91271,158.27329c-0.5122,-0.8946 -0.41054,-1.97274 0.17254,-2.7472c-0.07135,-0.25836 -0.10699,-0.55599 -0.09374,-0.89887c0.09651,-2.49813 2.59465,-2.40164 2.59465,-2.40164c2.78593,0.11051 6.0719,-0.49428 8.79148,0.12743c6.42426,1.46861 10.1215,6.57514 13.75469,11.55859c1.63938,2.24865 4.71795,5.73836 3.81313,8.87699c-0.48627,1.68681 -1.18043,3.94485 -2.87193,4.41452c-1.71374,0.47585 -3.48748,-1.10531 -4.82536,-2.27724c-0.93397,-0.81813 -1.09066,-2.23117 -1.60931,-3.35929c-1.14991,-2.50114 -1.6931,-4.335 -3.58511,-6.35372c-3.28606,-3.66421 -7.34256,-5.37896 -12.14151,-4.99437c-0.61911,0.25038 -2.16715,0.6514 -3.14293,-1.05289c-0.00191,-0.00334 -0.00381,-0.00667 -0.00571,-0.01001c-0.34171,-0.21169 -0.63714,-0.509 -0.85088,-0.88232z" fill="#7c5c32" stroke="none" stroke-width="0.5" stroke-linecap="butt"/></g></g></svg>