<svg version="1.1" xmlns="http://www.w3.org/2000/svg" xmlns:xlink="http://www.w3.org/1999/xlink" width="45.22906" height="40.00203" viewBox="0,0,45.22906,40.00203"><g transform="translate(-216.93339,-163.89018)"><g data-paper-data="{&quot;isPaintingLayer&quot;:true}" fill-rule="nonzero" stroke="none" stroke-width="0.5" stroke-linecap="butt" stroke-linejoin="miter" stroke-miterlimit="10" stroke-dasharray="" stroke-dashoffset="0" style="mix-blend-mode: normal"><g fill="#9b974b"><path d="M247.96963,176.42446c-6.32947,4.59846 -12.82007,8.9827 -18.78874,14.05401c-3.33323,2.8321 -6.047,6.22384 -9.63005,8.78987c0,0 -1.32764,0.94831 -2.27595,-0.37932c-0.94831,-1.32763 0.37932,-2.27595 0.37932,-2.27595c3.50554,-2.49683 6.15004,-5.84605 9.40689,-8.61535c4.13535,-3.51629 8.52049,-6.70346 12.92953,-9.85983c0.09859,0.00287 0.19754,0.00432 0.29682,0.00432c4.65032,0 8.55925,-3.17425 9.67829,-7.47424c0.29171,-0.23682 0.58595,-0.47077 0.88482,-0.6995c0.76595,0.78819 1.56982,1.55763 2.33213,2.32607c-1.78182,1.3235 -3.38628,2.84898 -5.21307,4.12992z"/><path d="M249.28363,178.01042c-6.32947,4.59846 -12.82007,8.9827 -18.78874,14.05401c-3.33323,2.8321 -6.04701,6.22384 -9.63005,8.78987c0,0 -1.32764,0.94831 -2.27595,-0.37932c-0.94831,-1.32763 0.37932,-2.27595 0.37932,-2.27595c3.50554,-2.49683 6.15004,-5.84605 9.40689,-8.61535c6.03949,-5.13538 12.61178,-9.56879 19.01321,-14.22945c1.73234,-1.21044 3.25396,-2.65146 4.93139,-3.91771c0.80148,0.79064 1.59035,1.57329 2.28108,2.36705c-1.82363,1.34105 -3.45486,2.90101 -5.31715,4.20684z"/></g><path d="M233.95535,184.47432c-0.70711,-0.70711 0,-1.41421 0,-1.41421l0.28211,-0.26789c0.83761,-1.11239 1.8058,-2.17844 2.90555,-3.05592c0.0263,-0.39015 0.31234,-0.67619 0.31234,-0.67619l0.33597,-0.28614c0.56821,-0.32469 1.78697,-1.41946 3.03507,-2.36667c0.15856,-2.41982 0.34084,-4.7514 1.46788,-7.26131l0.08319,-0.06451l-0.02872,-0.02051l0.61725,-0.86415c0.18063,-0.25965 0.48121,-0.42961 0.82148,-0.42961c0.51481,0 0.93876,0.38902 0.99392,0.88913l0.12335,0.98684l-0.40006,0.05001c0.09257,1.32507 -0.28861,2.53287 -0.5365,3.91628l0.09946,0.26522c0.12292,0.06705 0.25182,0.1203 0.38824,0.15508l1.05502,0.11722c0.04605,0.0045 0.09119,0.01212 0.1352,0.02266l0.07763,-0.10868l0.13461,0.09615l0.09702,-0.09702l0.07483,0.07483l0.01454,-0.01697l-0.06546,-0.081c0.01134,-0.00389 0.02267,-0.00778 0.03401,-0.01167l-0.00933,-0.01066l1,-0.875l0.08849,0.10113c0.27627,-0.23523 0.57606,-0.46557 0.90015,-0.72717c0.52334,-0.67753 0.99944,-1.40327 1.48113,-2.07763c0,0 0.31663,-0.44328 0.80966,-0.4418c0.07619,-0.06278 0.13293,-0.0952 0.13293,-0.0952c0.99551,-0.5671 1.51079,-0.92225 2.19614,-1.85676l0.15557,-0.34721c0,0 0.09861,-0.19721 0.29582,-0.36013c0.07748,-0.70198 0.06653,-1.4726 -0.02143,-2.34315c0,0 -0.0995,-0.99504 0.89553,-1.09454c0.99504,-0.0995 1.09454,0.89553 1.09454,0.89553c0.25631,2.58797 -0.10007,4.5668 -1.22514,6.34415c1.74586,-1.01379 2.4296,-2.79655 3.3551,-4.78059v-0.96405c0,-0.55228 0.44772,-1 1,-1c0.52246,0 0.95134,0.40067 0.99614,0.9115l0.1239,1.239l-0.35806,0.03581c0.00515,0.02467 0.01016,0.04931 0.01503,0.07394l0.20121,0.07235c-0.04542,0.10641 -0.09059,0.21204 -0.1356,0.31686c0.28562,2.05045 -0.40123,3.94185 -1.7204,5.59431c0.3575,-0.34267 0.69736,-0.74657 1.01707,-1.15925c0.28252,-0.51597 0.72267,-1.39286 1.07209,-1.45091l0.59214,-0.829c0.18063,-0.25965 0.48121,-0.42961 0.82148,-0.42961c0.55228,0 1,0.44772 1,1c0,0.22097 -0.07167,0.4252 -0.19303,0.59071l-0.61824,0.86553l-0.08058,-0.05756l0.07376,0.06698c-0.46815,0.62181 -0.93742,1.21646 -1.42158,1.75974c-0.57533,0.73714 -1.27042,1.3904 -2.05235,1.98921c0.93295,-0.2485 1.84869,-0.48765 2.31415,-0.7183l0.84147,-0.48084c0.14963,-0.08922 0.32452,-0.14047 0.51139,-0.14047c0.55228,0 1,0.44772 1,1c0,0.36378 -0.19425,0.6822 -0.48468,0.85717l-0.98532,0.61582l-0.0276,-0.04415c-0.32955,0.16423 -0.64843,0.31939 -0.95884,0.4627c-0.37689,0.2897 -0.76902,0.55886 -1.17575,0.81829c-0.13241,0.22151 -0.26114,0.42344 -0.38784,0.60662c-3.92513,1.0418 -7.65061,2.81092 -10.97998,4.80855c-1.27704,0.76622 -2.34143,2.18998 -3.79473,2.79243c-1.66887,0.69182 -3.42594,1.2068 -4.83536,2.11879c-0.49463,0.25038 -0.94201,0.58055 -1.32522,0.9736c-1.35708,0.56318 -2.56331,1.41662 -3.54123,2.48285c-4.95991,2.68933 -7.45528,8.11763 -10.25346,12.63233c-0.00937,0.01512 -0.01872,0.03023 -0.02804,0.04533c-1.60765,-0.57057 -3.64758,-2.04944 -4.11782,-2.98992l-0.22914,-0.93041c0.01217,-0.94273 1.15671,-1.5784 2,-2c0.11172,-0.05585 0.23349,-0.0345 0.35933,0.03219c0.56476,0.10246 1.04691,0.44207 1.33956,0.91195c0.0053,-0.00873 0.01044,-0.01815 0.01541,-0.0283c0.72541,-1.48203 1.63071,-1.48241 2.72542,-2.51741c0.82834,-0.78316 0.85035,-2.3794 1.63323,-3.14146c1.91381,-1.8629 3.76718,-3.85632 5.6925,-5.76145c-0.28679,-0.74898 0.33118,-1.71 1.39491,-2.72258c-0.08011,-0.04711 -0.16129,-0.10965 -0.24247,-0.19083zM249.02127,174.46206c0.01063,0.05844 0.01618,0.11865 0.01618,0.18015c0,0.34027 -0.16995,0.64085 -0.42961,0.82148l-0.86415,0.61725l-0.00725,-0.01015l-0.01811,0.02768c-0.66279,0.41377 -1.34307,0.80144 -2.04047,1.15384c-0.00368,0.17115 -0.011,0.34538 -0.02384,0.51408c1.77571,-1.22574 3.41219,-2.38807 3.52731,-2.5519c0.141,-0.20064 0.30134,-0.48739 0.47621,-0.81716c-0.09336,-0.06017 -0.18627,-0.14331 -0.27596,-0.25543c-0.00106,-0.00133 -0.00212,-0.00265 -0.00317,-0.00397c-0.11703,0.11232 -0.23628,0.22139 -0.35715,0.32413zM239.5336,180.51046c-0.80943,0.45173 -1.55399,1.06582 -2.22644,1.75087c0.95279,-0.63993 1.94085,-1.24902 2.84193,-1.78453c-0.07133,-0.1376 -0.11163,-0.29389 -0.11163,-0.45959c0,-0.15051 0.03325,-0.29325 0.0928,-0.42128c-0.02379,0.01859 -0.04765,0.03713 -0.0716,0.05562c0.01107,0.55254 -0.52506,0.85891 -0.52506,0.85891z" fill="#9b974b"/><path d="M245.16246,178.14221c0,-0.5 0.5,-0.5 0.5,-0.5l-0.09861,0.05279c1.1189,-0.55397 1.59861,-0.99771 1.59861,-2.17779c0,0 0,-0.5 0.5,-0.5c0.5,0 0.5,0.5 0.5,0.5c0,1.58211 -0.73284,2.357 -2.15139,3.07221l-0.34861,0.05279c0,0 -0.5,0 -0.5,-0.5z" fill="#c7c25f"/><path d="M252.03746,173.39221c0,-0.27614 0.22386,-0.5 0.5,-0.5c0.27614,0 0.5,0.22386 0.5,0.5c0,0.27614 -0.22386,0.5 -0.5,0.5c-0.27614,0 -0.5,-0.22386 -0.5,-0.5z" fill="#c7c25f"/><path d="M253.66246,174.64221c0,-0.27614 0.22386,-0.5 0.5,-0.5c0.27614,0 0.5,0.22386 0.5,0.5c0,0.27614 -0.22386,0.5 -0.5,0.5c-0.27614,0 -0.5,-0.22386 -0.5,-0.5z" fill="#c7c25f"/><path d="M255.66246,176.64221c0,-0.27614 0.22386,-0.5 0.5,-0.5c0.27614,0 0.5,0.22386 0.5,0.5c0,0.27614 -0.22386,0.5 -0.5,0.5c-0.27614,0 -0.5,-0.22386 -0.5,-0.5z" fill="#c7c25f"/><path d="M229.31385,192.83943c-0.44721,-0.22361 -0.22361,-0.67082 -0.22361,-0.67082l0.17221,-0.32639c1.90086,-2.53447 4.69924,-3.64566 6.77371,-6.02925c0,0 0.32925,-0.37629 0.70554,-0.04704c0.37629,0.32925 0.04704,0.70554 0.04704,0.70554c-2.08142,2.36725 -4.85321,3.47331 -6.72629,5.97075l-0.07779,0.17361c0,0 -0.22361,0.44721 -0.67082,0.22361z" fill="#c7c25f"/><path d="M223.38511,197.55824c-0.41603,-0.27735 -0.13868,-0.69338 -0.13868,-0.69338l0.31247,-0.4512c1.42872,-1.42148 2.28618,-3.24213 3.625,-4.625c0,0 0.35355,-0.35355 0.70711,0c0.35355,0.35355 0,0.70711 0,0.70711c-1.33466,1.27272 -2.24251,3.23635 -3.625,4.625l-0.18753,0.2988c0,0 -0.27735,0.41603 -0.69338,0.13868z" fill="#c7c25f"/><path d="M236.93885,184.33943c-0.44721,-0.22361 -0.22361,-0.67082 -0.22361,-0.67082l0.16277,-0.31337c0.3279,-0.46445 0.98061,-0.76094 0.90945,-1.33803c0,0 0,-0.5 0.5,-0.5c0.5,0 0.5,0.5 0.5,0.5c-0.0516,0.93722 -0.58032,1.17767 -1.09055,1.91197l-0.08723,0.18663c0,0 -0.22361,0.44721 -0.67082,0.22361z" fill="#c7c25f"/><path d="M242.78746,184.76721c-0.5,0 -0.5,-0.5 -0.5,-0.5l0.05279,-0.34861c0.23743,-0.46792 0.87297,-1.3648 0.82221,-1.77639c0,0 0,-0.5 0.5,-0.5c0.5,0 0.5,0.5 0.5,0.5c-0.04476,0.81313 -0.55645,1.4718 -0.92779,2.22361l0.05279,-0.09861c0,0 0,0.5 -0.5,0.5z" fill="#c7c25f"/><path d="M223.66246,203.39221c0,0.5 -0.5,0.5 -0.5,0.5l-0.37127,-0.01493c-2.05487,-0.51372 -5.16994,-3.48465 -5.7388,-5.6138c0,0 -0.12127,-0.48507 0.3638,-0.60634c0.48507,-0.12127 0.60634,0.3638 0.60634,0.3638c0.39922,1.77506 3.32195,4.46388 5.0112,4.8862l0.12873,-0.01493c0,0 0.5,0 0.5,0.5z" fill="#c7c25f"/></g></g></svg>