<svg version="1.1" xmlns="http://www.w3.org/2000/svg" xmlns:xlink="http://www.w3.org/1999/xlink" width="44.9411" height="38.21459" viewBox="0,0,44.9411,38.21459"><g transform="translate(-216.12776,-161.26584)"><g data-paper-data="{&quot;isPaintingLayer&quot;:true}" fill-rule="nonzero" stroke-linejoin="miter" stroke-miterlimit="10" stroke-dasharray="" stroke-dashoffset="0" style="mix-blend-mode: normal"><path d="M227.78827,183.02697c2.12266,1.40035 6.99227,0.63185 9.36282,0.33232c3.03374,-0.38333 11.07985,-3.43611 13.9756,-5.22024c2.34276,-1.44342 4.4146,-4.53755 7.44794,-3.70079c2.18384,0.60242 2.41874,9.19701 2.10934,10.44879c-0.84355,3.41287 -5.06745,3.13007 -7.96518,3.42268c-2.1362,1.87559 -7.00426,4.3491 -9.27208,3.90841c-5.8479,3.17812 -12.30059,6.66934 -15.88878,3.55848c-0.96757,-0.83886 -9.84219,-8.8363 -10.13009,-9.41871c-0.88517,-1.79064 0.094,-3.61317 0.09406,-5.39082c0.00001,-0.21394 -0.33847,-2.02893 -0.42595,-3.45178c-0.04584,-0.17995 -0.07022,-0.36861 -0.07022,-0.56304c0,-0.20876 0.02811,-0.41088 0.08071,-0.60271c0.26049,-0.94997 1.12163,-1.64729 2.14379,-1.64729c1.03092,0 1.89804,0.70932 2.15035,1.67177c2.13334,2.09464 3.67908,4.86603 6.38769,6.65294z" fill="#83806e" stroke="none" stroke-width="0.5" stroke-linecap="butt"/><path d="M217.51924,174.44298l30.36234,-12.29549l11.5427,11.54271l-27.72759,13.55014z" fill="#83806e" stroke="#535353" stroke-width="1.5" stroke-linecap="round"/><path d="M231.94762,187.49125l-0.87825,10.53899l-1.7565,-1.38011l-12.29549,-10.41352v-11.54271" fill="none" stroke="#535353" stroke-width="1.5" stroke-linecap="round"/><path d="M259.92614,174.31751l0.37639,11.66817l-29.35862,12.17003" fill="none" stroke="#535353" stroke-width="1.5" stroke-linecap="round"/></g></g></svg>