<svg version="1.1" xmlns="http://www.w3.org/2000/svg" xmlns:xlink="http://www.w3.org/1999/xlink" width="41.26654" height="51.48314" viewBox="0,0,41.26654,51.48314"><g transform="translate(-221.72018,-154.50737)"><g data-paper-data="{&quot;isPaintingLayer&quot;:true}" fill-rule="nonzero" stroke="none" stroke-width="0.5" stroke-linecap="butt" stroke-linejoin="miter" stroke-miterlimit="10" stroke-dasharray="" stroke-dashoffset="0" style="mix-blend-mode: normal"><path d="M261.98656,157.85883c0,0.88091 -0.75,0.88091 -0.75,0.88091c-0.66678,0 -1.5836,0 -2.25038,0c-6.48289,0 -13.04328,0.8628 -19.5035,0.88105c-5.32998,0 -11.70192,-1.14658 -16.76541,0.83586c0,0 -0.71151,0.27857 -0.94868,-0.55713c-0.23717,-0.8357 0.47434,-1.11428 0.47434,-1.11428c5.24147,-2.05211 11.72989,-0.92626 17.23975,-0.92626c6.45385,0.02063 13.02437,-0.88106 19.5035,-0.88106c0.66678,0 1.33355,0 2.00034,0h0.25004c0,0 0.75,0 0.75,0.88091z" fill="#6b7124"/><path d="M222.72023,162.26426h0.25004c0.66678,0 1.33355,0 2.00033,0c6.47913,0 13.04965,0.90169 19.5035,0.88106c5.50986,0 11.99829,-1.12585 17.23976,0.92627c0,0 0.71151,0.27857 0.47434,1.11427c-0.23717,0.8357 -0.94868,0.55713 -0.94868,0.55713c-5.06349,-1.98244 -11.43543,-0.83585 -16.76541,-0.83585c-6.46022,-0.01825 -13.02061,-0.88106 -19.5035,-0.88106c-0.66678,0 -1.5836,0 -2.25037,0c0,0 -0.75,0 -0.75,-0.88091c0,-0.88091 0.75,-0.88091 0.75,-0.88091z" data-paper-data="{&quot;index&quot;:null}" fill="#6b7124"/><path d="M262.48664,169.60625c0,0.88091 -0.75,0.88091 -0.75,0.88091c-0.66678,0 -1.5836,0 -2.25038,0c-6.48289,0 -13.04328,0.86281 -19.5035,0.88106c-5.32998,0 -11.70192,-1.14658 -16.76541,0.83586c0,0 -0.71151,0.27856 -0.94868,-0.55714c-0.23717,-0.8357 0.47434,-1.11427 0.47434,-1.11427c5.24147,-2.05211 11.72989,-0.92627 17.23976,-0.92627c6.45385,0.02063 13.02437,-0.88106 19.5035,-0.88106c0.66678,0 1.33355,0 2.00034,0h0.25004c0,0 0.75,0 0.75,0.88091z" fill="#6b7124"/><path d="M221.97023,177.24144c0,-0.88091 0.75,-0.88091 0.75,-0.88091c0.66678,0 1.5836,0 2.25037,0c6.48289,0 13.04328,-0.86281 19.5035,-0.88106c5.32998,0 11.70192,1.14658 16.76541,-0.83586c0,0 0.71151,-0.27857 0.94868,0.55713c0.23717,0.8357 -0.47434,1.11428 -0.47434,1.11428c-5.24147,2.05211 -11.72989,0.92627 -17.23976,0.92627c-6.45385,-0.02063 -13.02437,0.88106 -19.5035,0.88106c-0.66678,0 -1.33355,0 -2.00033,0h-0.25004c0,0 -0.75,0 -0.75,-0.88091z" data-paper-data="{&quot;index&quot;:null}" fill="#6b7124"/><path d="M262.48664,181.94104c0,0.88091 -0.75,0.88091 -0.75,0.88091c-0.66678,0 -1.5836,0 -2.25038,0c-6.48289,0 -13.04328,0.86281 -19.5035,0.88106c-5.32998,0 -11.70192,-1.14658 -16.76541,0.83586c0,0 -0.71151,0.27857 -0.94868,-0.55713c-0.23717,-0.8357 0.47434,-1.11428 0.47434,-1.11428c5.24147,-2.05211 11.72989,-0.92626 17.23976,-0.92626c6.45385,0.02063 13.02437,-0.88106 19.5035,-0.88106c0.66678,0 1.33355,0 2.00034,0h0.25004c0,0 0.75,0 0.75,0.88091z" fill="#6b7124"/><path d="M223.22031,186.34647h0.25004c0.66678,0 1.33356,0 2.00034,0c6.47913,0 13.04965,0.90169 19.5035,0.88106c5.50986,0 11.99829,-1.12585 17.23975,0.92626c0,0 0.71151,0.27858 0.47434,1.11428c-0.23717,0.8357 -0.94868,0.55713 -0.94868,0.55713c-5.06349,-1.98244 -11.43543,-0.83586 -16.76541,-0.83586c-6.46022,-0.01825 -13.02061,-0.88105 -19.5035,-0.88105c-0.66678,0 -1.5836,0 -2.25037,0c0,0 -0.75,0 -0.75,-0.88091c0,-0.88091 0.75,-0.88091 0.75,-0.88091z" data-paper-data="{&quot;index&quot;:null}" fill="#6b7124"/><path d="M262.98672,193.68846c0,0.88091 -0.75,0.88091 -0.75,0.88091c-0.66678,0 -1.58359,0 -2.25037,0c-6.48289,0 -13.04328,0.86281 -19.5035,0.88106c-5.32998,0 -11.70192,-1.14658 -16.76542,0.83585c0,0 -0.71151,0.27857 -0.94868,-0.55713c-0.23717,-0.8357 0.47434,-1.11427 0.47434,-1.11427c5.24147,-2.05211 11.72989,-0.92627 17.23976,-0.92627c6.45385,0.02063 13.02437,-0.88106 19.5035,-0.88106c0.66678,0 1.33355,0 2.00034,0h0.25004c0,0 0.75,0 0.75,0.88091z" fill="#6b7124"/><path d="M222.47031,200.4426c0,-0.88091 0.75,-0.88091 0.75,-0.88091c0.66678,0 1.5836,0 2.25037,0c6.48289,0 13.04328,-0.86281 19.5035,-0.88106c5.32998,0 11.70192,1.14658 16.76541,-0.83586c0,0 0.71151,-0.27857 0.94868,0.55713c0.23717,0.8357 -0.47434,1.11428 -0.47434,1.11428c-5.24147,2.05211 -11.72989,0.92627 -17.23975,0.92627c-6.45385,-0.02063 -13.02437,0.88106 -19.5035,0.88106c-0.66678,0 -1.33356,0 -2.00034,0h-0.25004c0,0 -0.75,0 -0.75,-0.88091z" data-paper-data="{&quot;index&quot;:null}" fill="#6b7124"/><path d="M226.91404,205.99051c-1.0668,0 -1.0668,-1.25301 -1.0668,-1.25301v-1.25323c0,-4.36091 -0.74437,-9.383 -1.57194,-13.49755c-0.62479,-3.10637 -0.03872,-7.26932 -0.02054,-10.46675c1.53086,-7.19224 0.5255,-15.92561 0.5255,-23.3448c0,0 0,-1.25301 1.0668,-1.25301c1.0668,0 1.0668,1.25301 1.0668,1.25301c0,7.51985 1.01002,16.36174 -0.54148,23.65099c0.02071,2.85039 -0.64128,6.85754 -0.02054,9.58479c0.95457,4.194 1.62902,9.60745 1.62902,14.07331v1.25323c0,0 -0.00001,1.25301 -1.06681,1.25301z" fill="#757d28"/><path d="M258.92735,204.26095c-1.05883,0 -1.05883,-1.27553 -1.05883,-1.27553v-0.31894c0.03243,-4.57801 -0.70693,-9.33748 -1.05385,-13.90749c-0.07616,-1.00319 0.2373,-2.04821 0.02317,-3.022c-0.41836,-1.90263 -1.07583,-3.32133 -1.08733,-5.39602c0,-8.21935 -0.26476,-16.33017 -0.26476,-24.55807c0,0 0,-1.27552 1.05883,-1.27552c1.05883,0 1.05883,1.27552 1.05883,1.27552c0,8.22782 0.26475,16.33811 0.26475,24.55807c-0.01331,1.8788 0.68509,3.07174 1.03068,4.80991c1.02697,5.16536 1.05783,12.19204 1.08733,17.51559v0.31894c0,0 0,1.27553 -1.05883,1.27553z" fill="#757d28"/><path d="M227.22091,157.56662c0.15,0.23491 -0.05,0.41109 -0.05,0.41109l-0.2291,0.20033c-0.19855,0.11712 -0.37952,0.2578 -0.55229,0.40974c0.26565,0.25561 0.53386,0.50851 0.8227,0.73438l0.07895,0.06181c0,0 0.20801,0.16288 0.06934,0.40721c-0.13868,0.24433 -0.34669,0.08143 -0.34669,0.08143l-0.07895,-0.06181c-0.33155,-0.25993 -0.63497,-0.55746 -0.93911,-0.85279c-0.33541,0.32792 -0.6673,0.66262 -1.07361,0.90201c0,0 -0.2236,0.13132 -0.33541,-0.13132c-0.11181,-0.26263 0.1118,-0.39396 0.1118,-0.39396c0.34106,-0.19959 0.62746,-0.47039 0.90868,-0.74734c-0.2567,-0.2372 -0.52225,-0.46131 -0.81302,-0.64973c0,0 -0.21854,-0.1426 -0.09713,-0.39928c0.12141,-0.25669 0.33995,-0.11408 0.33995,-0.11408c0.34488,0.2264 0.6555,0.4998 0.95795,0.78508c0.21181,-0.19859 0.43315,-0.38428 0.68397,-0.5309l0.19197,-0.17058c0,0 0.2,-0.17619 0.35,0.05873z" fill="#3b7d28"/><path d="M224.79147,164.15297c-0.17677,-0.20763 0,-0.41527 0,-0.41527l0.05264,-0.06182c0.24435,-0.28699 0.41826,-0.49125 0.54377,-0.85237c-0.26302,-0.1721 -0.5084,-0.37139 -0.69379,-0.64205c0,0 -0.15617,-0.22929 0.03905,-0.41272c0.19521,-0.18344 0.35139,0.04586 0.35139,0.04586c0.38318,0.56619 0.94243,0.79754 1.44268,1.10772c0.11968,-0.30333 0.23459,-0.53579 0.44853,-0.79192c0,0 0.17678,-0.20763 0.35356,0c0.17677,0.20763 0,0.41527 0,0.41527c-0.19183,0.21974 -0.27008,0.41436 -0.37389,0.68847c0.14214,0.12649 0.27099,0.27382 0.3788,0.45559l0.04198,0.19378c0,0 0,0.29364 -0.25,0.29364c-0.16904,0 -0.22378,-0.13425 -0.24151,-0.2212c-0.0796,-0.13354 -0.1791,-0.24876 -0.29223,-0.35219c-0.05967,-0.02257 -0.09797,-0.06084 -0.12231,-0.10359c-0.19206,-0.15141 -0.41263,-0.27913 -0.6372,-0.40875c-0.152,0.40531 -0.35579,0.67145 -0.63527,0.99972l-0.05263,0.06182c0,0 -0.17678,0.20763 -0.35356,0z" fill="#3b7d28"/><path d="M227.19807,171.20113c-0.09848,0.26989 -0.32827,0.15423 -0.32827,0.15423l-0.17858,-0.08999c-0.263,-0.12389 -0.54211,-0.23766 -0.81364,-0.36972c-0.26667,0.16535 -0.50745,0.36364 -0.68302,0.64418l-0.02051,0.08741c0,0 -0.09285,0.27264 -0.32497,0.16359c-0.23212,-0.10906 -0.13927,-0.38169 -0.13927,-0.38169l0.08476,-0.22168c0.15955,-0.24602 0.35229,-0.43115 0.56279,-0.58489c-0.21418,-0.14364 -0.41149,-0.3142 -0.57725,-0.52923c0,0 -0.16463,-0.22098 0.02352,-0.41434c0.18814,-0.19336 0.35277,0.02762 0.35277,0.02762c0.18384,0.25949 0.44602,0.44381 0.73042,0.59315c0.39898,-0.21334 0.81447,-0.40276 1.16483,-0.7243c0,0 0.19734,-0.18028 0.35082,0.05151c0.15348,0.23179 -0.04385,0.41206 -0.04385,0.41206c-0.24789,0.22554 -0.54899,0.38487 -0.85422,0.53957c0.12941,0.05393 0.25529,0.10655 0.37252,0.1615l0.18984,0.09546c0,0 0.22979,0.11567 0.13131,0.38556z" fill="#3b7d28"/><path d="M226.95221,178.31146c-0.03802,0.29022 -0.28511,0.24556 -0.28511,0.24556l-0.40962,-0.08584c-0.19385,-0.18805 -0.38492,-0.38223 -0.57127,-0.58297c-0.32329,0.2508 -0.68445,0.46092 -1.14446,0.62832l-0.12615,0.01299c0,0 -0.25,0 -0.25,-0.29363c0,-0.29363 0.25,-0.29363 0.25,-0.29363l-0.02089,0.01298c0.36429,-0.13082 0.65952,-0.29176 0.92242,-0.48118c-0.288,-0.33727 -0.56047,-0.69231 -0.80939,-1.06702c0,0 -0.15349,-0.23178 0.04385,-0.41205c0.19734,-0.18027 0.35083,0.0515 0.35083,0.0515c0.25538,0.38702 0.54185,0.73773 0.83838,1.07732c0.34092,-0.31689 0.65835,-0.69026 1.06023,-1.1153c0,0 0.18582,-0.19644 0.35306,0.02182c0.16724,0.21826 -0.01858,0.41469 -0.01858,0.41469c-0.3855,0.40731 -0.70345,0.76949 -1.03425,1.08384c0.12262,0.13625 0.24551,0.27231 0.36725,0.40992l0.27461,0.0378c0,0 0.2471,0.04465 0.20908,0.33487z" fill="#3b7d28"/><path d="M226.3107,183.72738c0.07906,0.27856 -0.15812,0.37142 -0.15812,0.37142l-0.23695,0.07689c-0.24592,-0.01083 -0.51013,-0.1408 -0.76608,-0.33342c-0.31248,0.24182 -0.64252,0.45245 -0.96426,0.64242l-0.06707,0.065c0,0 -0.2,0.17619 -0.35,-0.05873c-0.15,-0.23491 0.05,-0.4111 0.05,-0.4111l0.14346,-0.12045c0.24698,-0.14416 0.51111,-0.30612 0.76902,-0.49106c-0.31366,-0.3227 -0.58716,-0.69893 -0.75997,-0.99982c0,0 -0.13868,-0.24432 0.06934,-0.4072c0.20801,-0.16288 0.34669,0.08143 0.34669,0.08143c0.13207,0.2361 0.43866,0.66342 0.767,0.99264c0.44564,-0.3882 0.82679,-0.86289 1.00061,-1.45557c0,0 0.08543,-0.27595 0.32038,-0.17561c0.23495,0.10035 0.14952,0.37631 0.14952,0.37631c-0.20924,0.65034 -0.59283,1.17011 -1.04993,1.6004c0.12317,0.0744 0.23986,0.11578 0.34128,0.10748l0.07885,-0.04676c0,0 0.23717,-0.09285 0.31623,0.18572z" fill="#3b7d28"/><path d="M223.80818,188.36286c-0.19206,-0.18798 -0.03201,-0.41356 -0.03201,-0.41356l0.21183,-0.26011c0.16048,-0.09351 0.33566,-0.20926 0.5146,-0.3399c-0.29561,-0.20147 -0.59023,-0.40887 -0.84274,-0.7044c0,0 -0.17677,-0.20763 0,-0.41526c0.17677,-0.20763 0.35356,0 0.35356,0c0.27852,0.32843 0.60389,0.55092 0.92789,0.775c0.35537,-0.29962 0.69032,-0.63463 0.91776,-0.94619c0,0 0.16463,-0.22098 0.35277,-0.02762c0.18814,0.19336 0.02352,0.41434 0.02352,0.41434c-0.22217,0.29357 -0.51989,0.6022 -0.84148,0.88897c0.22278,0.17819 0.43324,0.38307 0.61382,0.65379l0.06287,0.02121c0,0 0.21437,0.15107 0.08575,0.40287c-0.12862,0.25179 -0.343,0.10072 -0.343,0.10072l-0.2003,-0.16425c-0.1826,-0.27811 -0.40242,-0.4844 -0.63659,-0.66462c-0.26214,0.20622 -0.5255,0.38913 -0.76482,0.53062l-0.05133,0.1108c0,0 -0.16004,0.22558 -0.3521,0.0376z" fill="#3b7d28"/><path d="M225.25772,195.96257c-0.25,0 -0.25,-0.29363 -0.25,-0.29363l0.07323,-0.39309c0.14032,-0.16467 0.29145,-0.31267 0.44748,-0.45279c-0.35826,-0.19245 -0.70457,-0.40091 -1.01466,-0.64075c0,0 -0.20801,-0.16287 -0.06933,-0.4072c0.13868,-0.24433 0.34669,-0.08145 0.34669,-0.08145c0.35461,0.28191 0.77049,0.51979 1.19742,0.73781c0.37986,-0.3161 0.75508,-0.6357 1.04632,-1.07673c0,0 0.15445,-0.23089 0.35103,-0.04948c0.19658,0.18141 0.04212,0.41231 0.04212,0.41231c-0.26418,0.39061 -0.58456,0.6888 -0.91504,0.97237c0.28224,0.13587 0.56038,0.26741 0.82,0.40156l0.09746,0.00959c0,0 0.2466,0.04827 0.2055,0.33791c-0.0411,0.28965 -0.28769,0.24137 -0.28769,0.24137l-0.21833,-0.05222c-0.34512,-0.18173 -0.71527,-0.35628 -1.085,-0.53979c-0.21238,0.18487 -0.41995,0.37884 -0.61041,0.60273l0.07322,-0.02217c0,0 0,0.29363 -0.25,0.29363z" fill="#3b7d28"/><path d="M228.00704,200.99127c0.05049,0.00462 0.23757,0.0389 0.23757,0.29292c0,0.29363 -0.25,0.29364 -0.25,0.29364l-0.09815,-0.01238c-0.30369,-0.10823 -0.60998,-0.25102 -0.90359,-0.42796c-0.38507,0.32181 -0.81588,0.54658 -1.21251,0.59368l-0.04895,0.0012c0,0 -0.25,0 -0.25,-0.29363c0,-0.29363 0.25,-0.29364 0.25,-0.29364l0.00368,0.0012c0.24292,-0.0221 0.51768,-0.14825 0.78191,-0.33596c-0.401,-0.31355 -0.75684,-0.69933 -1.01992,-1.15604c0,0 -0.13868,-0.24432 0.06933,-0.4072c0.20801,-0.16288 0.34669,0.08144 0.34669,0.08144c0.24954,0.44798 0.62027,0.82106 1.03364,1.11274c0.32552,-0.3321 0.58705,-0.73397 0.67733,-1.09803c0,0 0.07352,-0.28065 0.31247,-0.1943c0.23895,0.08635 0.16542,0.36701 0.16542,0.36701c-0.11381,0.41729 -0.36687,0.84459 -0.68963,1.21171c0.1978,0.10547 0.39851,0.19354 0.59469,0.26359z" fill="#3b7d28"/><path d="M255.09694,158.7528c-0.03536,-0.29068 0.21213,-0.33221 0.21213,-0.33221l0.21957,-0.03386c0.13994,0.0002 0.27536,-0.03137 0.40646,-0.08696c-0.31995,-0.34294 -0.58688,-0.74005 -0.74018,-1.13835c0,0 -0.10153,-0.26833 0.12692,-0.38759c0.22845,-0.11926 0.32998,0.14907 0.32998,0.14907c0.13893,0.37525 0.41808,0.76077 0.74603,1.07878c0.40516,-0.3445 0.76454,-0.85185 1.08562,-1.22897c0,0 0.17678,-0.20763 0.35356,0c0.17678,0.20763 0,0.41527 0,0.41527c-0.31929,0.37502 -0.65194,0.81369 -1.02173,1.16243c0.20935,0.14868 0.42282,0.2624 0.62124,0.32486l0.06581,-0.01034c0,0 0.25,0 0.25,0.29363c0,0.29363 -0.25,0.29364 -0.25,0.29364l-0.19736,-0.01035c-0.30637,-0.09959 -0.63117,-0.28969 -0.93586,-0.53662c-0.25885,0.16512 -0.5369,0.26837 -0.8405,0.26877l-0.14886,0.02796c0,0 -0.24749,0.04153 -0.28284,-0.24916z" fill="#3b7d28"/><path d="M255.17678,164.72511c-0.0411,-0.28965 0.2055,-0.33792 0.2055,-0.33792l0.07303,0.0051c0.24526,-0.1679 0.51425,-0.32645 0.78464,-0.49084c-0.2781,-0.22342 -0.54802,-0.46304 -0.80247,-0.74038c0,0 -0.1832,-0.19981 -0.01309,-0.41499c0.17012,-0.21517 0.35331,-0.01537 0.35331,-0.01537c0.30055,0.32801 0.62449,0.60073 0.95813,0.85684c0.32605,-0.21934 0.63321,-0.46194 0.87923,-0.75657c0,0 0.17678,-0.20763 0.35355,0c0.17678,0.20763 0,0.41527 0,0.41527c-0.22622,0.26157 -0.48948,0.4844 -0.769,0.68692c0.20832,0.15274 0.41791,0.3059 0.62563,0.46843l0.17723,0.05848c0,0 0.23717,0.09286 0.15812,0.37142c-0.07905,0.27856 -0.31623,0.18572 -0.31623,0.18572l-0.29647,-0.12698c-0.27868,-0.21837 -0.56017,-0.4209 -0.83775,-0.62747c-0.33919,0.21583 -0.68441,0.41839 -1.0029,0.63679l-0.24277,0.06691c0,0 -0.2466,0.04828 -0.2877,-0.24137z" fill="#3b7d28"/><path d="M255.74888,170.62584c-0.06041,0.04869 -0.18923,0.11792 -0.31806,-0.0334c-0.17677,-0.20763 0,-0.41526 0,-0.41526l0.15407,-0.11121c0.18245,-0.04286 0.39137,-0.10411 0.60357,-0.18751c-0.2576,-0.18499 -0.50042,-0.40642 -0.73132,-0.67694c0,0 -0.17677,-0.20764 0,-0.41527c0.17677,-0.20763 0.35355,0 0.35355,0c0.29562,0.34816 0.61345,0.60166 0.96083,0.79835c0.33468,-0.216 0.61709,-0.50507 0.73558,-0.88523c0,0 0.09284,-0.27264 0.32496,-0.16358c0.23212,0.10906 0.13927,0.38169 0.13927,0.38169c-0.13511,0.37519 -0.36557,0.68116 -0.64608,0.92802c0.12134,0.04756 0.24608,0.09128 0.37448,0.13239l0.15379,0.02352c0,0 0.24748,0.04153 0.21213,0.33221c-0.03535,0.29068 -0.28284,0.24916 -0.28284,0.24916l-0.21464,-0.03831c-0.27927,-0.08949 -0.54309,-0.19165 -0.79351,-0.31548c-0.33427,0.18492 -0.69274,0.31351 -1.02577,0.39686z" fill="#3b7d28"/><path d="M255.59568,177.51295c-0.02488,-0.29218 0.22388,-0.3214 0.22388,-0.3214l0.18098,-0.00408c0.16174,-0.20854 0.35018,-0.37404 0.54365,-0.53044c-0.3311,-0.22018 -0.65225,-0.45789 -0.94019,-0.7419c0,0 -0.19085,-0.18967 -0.02936,-0.41383c0.16148,-0.22415 0.35233,-0.03448 0.35233,-0.03448c0.32041,0.32119 0.69276,0.58027 1.07252,0.8216c0.25669,-0.22262 0.49097,-0.47797 0.64769,-0.8524c0,0 0.11181,-0.26264 0.33541,-0.13132c0.22361,0.13132 0.11181,0.39396 0.11181,0.39396c-0.1599,0.37042 -0.37469,0.64834 -0.61466,0.88844c0.11077,0.06862 0.22055,0.13733 0.32824,0.20722l0.08912,-0.03695c0,0 0.25,0 0.25,0.29363c0,0.29363 -0.25,0.29363 -0.25,0.29363l-0.33194,-0.03696c-0.1712,-0.11224 -0.34618,-0.22121 -0.52162,-0.33106c-0.27943,0.23147 -0.56814,0.45579 -0.82889,0.74155l-0.34534,0.05774c0,0 -0.24876,0.02922 -0.27364,-0.26296z" fill="#3b7d28"/><path d="M256.00485,183.03519c-0.13868,-0.24433 0.06934,-0.40721 0.06934,-0.40721l0.14579,-0.09875c0.1565,-0.05181 0.30217,-0.13022 0.43873,-0.22792c-0.41885,-0.34623 -0.80859,-0.73149 -1.10536,-1.11805c0,0 -0.16724,-0.21827 0.01859,-0.41469c0.18582,-0.19643 0.35306,0.02182 0.35306,0.02182c0.30279,0.39595 0.71201,0.79014 1.14681,1.13574c0.26515,-0.29184 0.49419,-0.64021 0.70609,-0.96379c0,0 0.15243,-0.23274 0.35059,-0.05371c0.19815,0.17903 0.04572,0.41178 0.04572,0.41178c-0.20991,0.32049 -0.42991,0.64063 -0.67524,0.9242c0.2522,0.17612 0.50421,0.33158 0.7411,0.45773c0.01585,0.00033 0.24915,0.00996 0.24915,0.29362c0,0.29363 -0.25,0.29363 -0.25,0.29363l-0.15417,-0.0253c-0.31234,-0.16356 -0.64999,-0.3757 -0.98346,-0.61896c-0.22181,0.19091 -0.46513,0.34605 -0.73793,0.44643l-0.01211,0.02488c0,0 -0.20801,0.16289 -0.34669,-0.08143z" fill="#3b7d28"/><path d="M256.93664,187.48553l-0.03704,-0.09207c-0.05264,-0.09273 -0.10526,-0.18546 -0.15789,-0.27819c0,0 -0.13868,-0.24432 0.06933,-0.4072c0.20801,-0.16288 0.34669,0.08144 0.34669,0.08144c0.03974,0.07002 0.07948,0.14004 0.11923,0.21006c0.05816,0.04065 0.0913,0.09903 0.0913,0.09903c0.24241,0.42788 0.54171,0.72056 0.88208,0.9417c0.30579,-0.25867 0.58845,-0.56502 0.84704,-0.84154c0,0 0.18498,-0.19753 0.35315,0.01975c0.16817,0.21728 -0.01682,0.41479 -0.01682,0.41479c-0.2135,0.22765 -0.43704,0.46292 -0.67243,0.68043c0.20081,0.08953 0.41119,0.16726 0.62873,0.24289l0.10877,0.02423c0,0 0.24515,0.05758 0.19612,0.34552c-0.04903,0.28794 -0.29417,0.23035 -0.29417,0.23035l-0.15438,-0.03759c-0.33958,-0.12101 -0.66218,-0.24825 -0.96218,-0.40884c-0.4153,0.30277 -0.86615,0.51207 -1.36077,0.51395h-0.07895c0,0 -0.25,0 -0.25,-0.29363c0,-0.29363 0.25,-0.29363 0.25,-0.29363h0.07895c0.29845,0.00133 0.58228,-0.0975 0.85098,-0.25411c-0.25383,-0.19644 -0.4849,-0.43624 -0.6886,-0.74167c-0.09942,-0.03888 -0.14914,-0.15566 -0.14914,-0.15566z" fill="#3b7d28"/><path d="M257.17717,194.52043c-0.0411,-0.28965 0.20549,-0.33792 0.20549,-0.33792l0.26002,-0.05088c0.15144,-0.02541 0.30237,-0.05298 0.44869,-0.08832c-0.3201,-0.3115 -0.62116,-0.66053 -0.99521,-1.00306c0,0 -0.19522,-0.18344 -0.03904,-0.41273c0.15618,-0.22929 0.35139,-0.04586 0.35139,-0.04586c0.46343,0.44396 0.8037,0.90288 1.24126,1.2618c0.38265,-0.20154 0.67245,-0.5436 0.75603,-1.18146c0,0 0.04109,-0.28964 0.28769,-0.24137c0.2466,0.04827 0.2055,0.33791 0.2055,0.33791c-0.10248,0.68284 -0.37651,1.1234 -0.75279,1.41585c0.11437,0.05952 0.23678,0.11256 0.36944,0.15797l0.22247,-0.00285c0,0 0.25,0 0.25,0.29363c0,0.29363 -0.25,0.29364 -0.25,0.29364l-0.29182,-0.00284c-0.3293,-0.10899 -0.60161,-0.25801 -0.84454,-0.43383c-0.27303,0.10941 -0.57231,0.1798 -0.88261,0.23186l-0.25428,0.04979c0,0 -0.2466,0.04828 -0.28769,-0.24137z" fill="#3b7d28"/><path d="M258.07035,200.71176c-0.0315,0.07282 -0.09399,0.14507 -0.218,0.14507c-0.25,0 -0.25,-0.29364 -0.25,-0.29364l0.13819,-0.31297c0.19716,-0.11568 0.38314,-0.23915 0.55997,-0.37162c-0.2968,-0.21877 -0.55633,-0.48819 -0.72081,-0.91126c0,0 -0.09848,-0.26989 0.1313,-0.38556c0.22978,-0.11567 0.32827,0.15422 0.32827,0.15422c0.12649,0.38393 0.39788,0.60008 0.69604,0.78228c0.38815,-0.35498 0.73394,-0.7671 1.06473,-1.25275c0,0 0.15617,-0.2293 0.35139,-0.04586c0.19522,0.18344 0.03905,0.41273 0.03905,0.41273c-0.30264,0.44434 -0.61857,0.83239 -0.96435,1.1743c0.08461,0.05349 0.16609,0.11022 0.24156,0.17344l0.1847,-0.0126c0,0 0.25,0 0.25,0.29363c0,0.29363 -0.25,0.29364 -0.25,0.29364l-0.32959,-0.01261c-0.17209,-0.12772 -0.35198,-0.23665 -0.52977,-0.34443c-0.22619,0.18607 -0.46584,0.35664 -0.72268,0.51399z" fill="#3b7d28"/></g></g></svg>