<svg version="1.1" xmlns="http://www.w3.org/2000/svg" xmlns:xlink="http://www.w3.org/1999/xlink" width="9.11715" height="33.99906" viewBox="0,0,9.11715,33.99906"><g transform="translate(-234.76787,-165.5039)"><g data-paper-data="{&quot;isPaintingLayer&quot;:true}" fill-rule="nonzero" stroke="none" stroke-width="0.5" stroke-linecap="butt" stroke-linejoin="miter" stroke-miterlimit="10" stroke-dasharray="" stroke-dashoffset="0" style="mix-blend-mode: normal"><path d="M241.54063,199.49269c-1.24268,0.13508 -1.37776,-1.1076 -1.37776,-1.1076l-0.06235,-0.57359c-0.70193,-6.45751 -0.24107,-12.89607 -0.94776,-19.39729c0,0 -0.13508,-1.24268 1.1076,-1.37776c1.24268,-0.13508 1.37776,1.1076 1.37776,1.1076c0.70653,6.49984 0.24644,12.94552 0.94776,19.39729l0.06235,0.57359c0,0 0.13508,1.24268 -1.1076,1.37776z" fill="#572600"/><path d="M235.74532,176.96613c-0.01305,-0.12007 -0.00865,-0.23803 0.01119,-0.35131c-0.05571,-0.01416 -0.11326,-0.03209 -0.17273,-0.05415c-1.1719,-0.43492 -0.73697,-1.60683 -0.73697,-1.60683l0.19783,-0.46329c0.78417,-1.18874 0.71607,-1.85377 0.43268,-3.23324c0,0 -0.23781,-1.22717 0.98935,-1.46498c1.22717,-0.23781 1.46499,0.98936 1.46499,0.98936c0.00072,0.00391 0.00144,0.0078 0.00216,0.0117c0.11215,0.01252 0.23292,0.04098 0.36275,0.08916c1.1719,0.43492 0.73698,1.60682 0.73698,1.60682l-0.02725,0.00363c-0.13799,0.8662 -0.27598,1.73241 -0.41396,2.59861c0,0 -0.10521,0.6604 -0.64474,0.93818c0.15296,0.18285 0.25538,0.41138 0.28308,0.66616c0.0746,0.68631 -0.42129,1.30316 -1.1076,1.37776c-0.68631,0.0746 -1.30316,-0.42129 -1.37776,-1.1076z" fill="#570c00"/><path d="M240.79869,172.1995c-0.02388,-0.21972 0.01071,-0.43233 0.09129,-0.6223c-0.02218,-0.05423 -0.03213,-0.0878 -0.03213,-0.0878l-0.01877,-0.06347c-0.06323,-0.06953 -0.11887,-0.1464 -0.16542,-0.22941c-0.1969,0.20889 -0.46637,0.35138 -0.77412,0.38483c-0.68631,0.0746 -1.30316,-0.42129 -1.37776,-1.1076c-0.0664,-0.6108 0.31907,-1.16658 0.88848,-1.33407c-0.08325,-0.14514 -0.13856,-0.30946 -0.15779,-0.48645c-0.03895,-0.35836 0.07764,-0.69778 0.29566,-0.95096c-0.06114,-0.1658 -0.12227,-0.33159 -0.18341,-0.49739c0,0 -0.43245,-1.17282 0.74037,-1.60525c1.17282,-0.43245 1.60525,0.74037 1.60525,0.74037c0.38875,1.05433 0.77736,2.10871 1.16564,3.16322l0.3788,1.27578c0,0 0.12848,0.43346 -0.0298,0.85628c0.18346,0.19195 0.30746,0.44362 0.33837,0.72798c0.03658,0.33653 -0.064,0.65634 -0.25693,0.90372c0.30871,0.19688 0.52852,0.52698 0.57117,0.91929c0.0746,0.68631 -0.42129,1.30316 -1.1076,1.37776c-0.68631,0.0746 -1.30316,-0.42129 -1.37776,-1.1076c-0.03658,-0.33653 0.064,-0.65635 0.25694,-0.90373c-0.22339,-0.14247 -0.40023,-0.35468 -0.49708,-0.60976c-0.19171,-0.1938 -0.32166,-0.45139 -0.35341,-0.74346z" fill="#570c00"/><path d="M237.50849,180.37274c-0.00635,-0.05839 -0.00856,-0.11627 -0.00689,-0.17336c-0.01391,-0.0554 -0.02417,-0.11241 -0.03052,-0.17079c-0.02587,-0.23797 0.01686,-0.4676 0.11232,-0.66916c-0.52202,-0.10306 -0.93961,-0.53459 -1.00015,-1.09151c-0.0746,-0.68631 0.42129,-1.30316 1.1076,-1.37776c0.04131,-0.00449 0.08237,-0.00691 0.12309,-0.00735l-0.29063,-0.69255c-0.08396,-0.41648 -0.16792,-0.83295 -0.25189,-1.24943c0,0 -0.1113,-0.55208 0.18609,-0.98981c-0.13507,-0.17569 -0.22512,-0.38952 -0.25082,-0.62594c-0.06243,-0.57429 0.2746,-1.09993 0.7884,-1.29995c-0.02132,-0.32041 0.08096,-0.6228 0.2675,-0.85825c0.02384,-0.60869 0.4903,-1.12441 1.11406,-1.19222c0.49719,-0.05405 0.95791,0.1913 1.20245,0.59155c0.07948,-0.02557 0.16273,-0.04351 0.24898,-0.05289c0.68631,-0.0746 1.30316,0.42129 1.37776,1.1076c0.04877,0.4487 -0.1463,0.8677 -0.47901,1.12491c0.55339,0.08165 0.88096,0.59056 0.88096,0.59056l0.69829,1.08482c0,0 0.51358,0.79787 -0.04934,1.45077c0.08512,0.14657 0.14165,0.31291 0.16115,0.49227c0.04242,0.39026 -0.09963,0.75806 -0.35626,1.01647c0.05293,0.04803 0.1055,0.10275 0.15742,0.16486c0.80171,0.95905 -0.15734,1.76075 -0.15734,1.76075l-0.80638,0.67409c0.0417,0.10379 0.07005,0.21496 0.08273,0.33163c0.0746,0.68631 -0.42129,1.30316 -1.1076,1.37776c-0.443,0.04815 -0.85706,-0.14138 -1.11503,-0.46641c-0.17052,0.00023 -0.33459,-0.03434 -0.48464,-0.09758c-0.19393,0.19231 -0.45194,0.3227 -0.74456,0.35451c-0.68631,0.0746 -1.30316,-0.42129 -1.37776,-1.1076zM239.93622,178.73619c0.06277,-0.09152 0.12616,-0.16338 0.17277,-0.21146c-0.03449,-0.02158 -0.06791,-0.04481 -0.10011,-0.0696c-0.0191,0.00296 -0.03836,0.00551 -0.05778,0.00762c-0.32513,0.03534 -0.63468,-0.05735 -0.87837,-0.23768c-0.01137,0.15606 -0.05183,0.30538 -0.11646,0.44184c0.19019,0.03755 0.36653,0.1187 0.51679,0.23364c0.1382,-0.08286 0.29453,-0.14007 0.46316,-0.16438zM239.86588,173.85134l0.36,-0.69887c0,0 0.09561,-0.11892 0.26155,-0.24027c-0.10304,-0.04251 -0.19957,-0.09849 -0.28717,-0.166c-0.1329,0.15854 -0.30504,0.28445 -0.50357,0.36173c0.0195,0.29306 -0.06441,0.57106 -0.22161,0.79654c0.19102,0.26442 0.24703,0.5423 0.24703,0.5423c0.00747,0.0371 0.01496,0.07421 0.02244,0.11131c0.04045,-0.23558 0.0809,-0.47117 0.12133,-0.70674z" fill="#573100"/><path d="M237.55836,180.83162c-0.04297,-0.39531 0.10332,-0.76757 0.36626,-1.02644c-0.31241,-0.19633 -0.53528,-0.52846 -0.57825,-0.92376c-0.07008,-0.64468 0.36321,-1.22806 0.98488,-1.3583c-0.22058,-0.19845 -0.37172,-0.47572 -0.40631,-0.7939c-0.06149,-0.56569 0.2646,-1.08418 0.76544,-1.29075c-0.41838,-0.16482 -0.73344,-0.55049 -0.7854,-1.02855c-0.02742,-0.25227 0.02224,-0.49515 0.1301,-0.70516c-0.07338,-0.13714 -0.12223,-0.29038 -0.14008,-0.45449c-0.0746,-0.68631 0.42129,-1.30316 1.1076,-1.37776c0.68631,-0.0746 1.30316,0.42129 1.37776,1.1076c0.02742,0.25227 -0.02224,0.49515 -0.1301,0.70516c0.07338,0.13714 0.12223,0.29038 0.14008,0.45449c0.02339,0.21516 -0.00929,0.42348 -0.08633,0.61042c0.01828,-0.00281 0.0367,-0.00522 0.05527,-0.00723c0.68631,-0.0746 1.30316,0.42129 1.37776,1.1076c0.01488,0.13686 0.00707,0.27097 -0.02041,0.39856c0.13314,0.17484 0.22188,0.38703 0.24736,0.62143c0.01059,0.09745 0.00968,0.1935 -0.00164,0.2868c0.55947,0.07227 1.01784,0.51922 1.0815,1.10477c0.0746,0.68631 -0.42129,1.30316 -1.1076,1.37776c-0.13187,0.01434 -0.26118,0.0076 -0.38457,-0.01749c0.01657,0.06168 0.02864,0.12543 0.03576,0.19092c0.0746,0.68631 -0.42129,1.30316 -1.1076,1.37776c-0.17744,0.01929 -0.35024,0.00044 -0.51022,-0.04997c-0.16196,0.4247 -0.55058,0.74564 -1.03349,0.79814c-0.68631,0.0746 -1.30316,-0.42129 -1.37776,-1.1076zM239.53632,177.8503c0.00762,-0.00083 0.01523,-0.00158 0.02284,-0.00227c-0.00073,-0.02223 -0.00085,-0.04437 -0.00041,-0.06639c-0.04336,0.01423 -0.08783,0.02619 -0.13332,0.03572c0.01513,0.01362 0.02995,0.02761 0.04441,0.04196c0.02195,-0.00357 0.04411,-0.00657 0.06647,-0.009z" fill="#897600"/></g></g></svg>