<svg version="1.1" xmlns="http://www.w3.org/2000/svg" xmlns:xlink="http://www.w3.org/1999/xlink" width="53.56614" height="38.41001" viewBox="0,0,53.56614,38.41001"><g transform="translate(-149.66529,-122.02369)"><g data-paper-data="{&quot;isPaintingLayer&quot;:true}" fill-rule="nonzero" stroke="none" stroke-width="0.5" stroke-linecap="butt" stroke-linejoin="miter" stroke-miterlimit="10" stroke-dasharray="" stroke-dashoffset="0" style="mix-blend-mode: normal"><path d="M152.07326,146.15422c-0.12971,-0.17465 -0.38735,-0.61664 -0.10536,-1.08518c-0.08932,-0.22853 -0.08424,-0.43649 -0.08424,-0.43649l0.20152,-0.05998c-0.97821,-1.37286 -3.27704,-3.38872 -1.48102,-5.17871c0.71356,-0.71117 2.0019,-0.23045 2.99938,-0.37176c6.10774,0.15826 12.12178,-1.66377 17.77949,-3.49811c2.27611,-0.73796 4.49374,-0.17685 6.21307,-2.07081c0.09607,-0.25512 0.27077,-0.42149 0.27077,-0.42149l0.58544,-0.54364c1.52723,-1.93098 2.23597,-4.48817 3.70837,-6.34684c2.70947,-3.42027 6.65532,-3.13277 10.26967,-4.01309c0.01673,-0.03726 0.03488,-0.07201 0.05423,-0.10441c0.83195,0.24807 1.71019,0.39106 2.61978,0.41327c0.16981,0.00415 0.33874,0.00404 0.50669,-0.00024c3.88393,2.2566 4.79371,7.56985 2.03888,11.45676c-1.436,2.02612 -4.65778,2.77021 -4.62598,5.6188c-0.3187,1.53594 -1.32182,3.92927 -2.74796,4.87405c-0.9708,0.64313 -2.62039,0.74084 -3.57156,1.45652c-5.08694,3.8275 -10.46731,8.79911 -17.0863,9.74413c-2.46964,0.29148 -5.08231,1.44831 -7.57953,1.15342c-0.35737,-0.0422 -0.70623,-0.09361 -1.04637,-0.15418c0.30696,-0.31841 0.50092,-0.65872 0.50903,-0.99094c0.07265,-2.97494 -2.56393,-1.69008 -4.02152,-0.10419c-0.14608,-0.0701 -0.28942,-0.14281 -0.43001,-0.21812c0.13898,-0.15449 0.22152,-0.2654 0.2292,-0.31113c0.38196,-2.27542 -1.05562,-2.21741 -2.49098,-1.35979c-0.24793,-0.25046 -0.47977,-0.51499 -0.69512,-0.79347c0.18286,-0.20203 0.3518,-0.40171 0.50097,-0.59351c0.36858,-0.25357 0.61909,-0.66806 0.64799,-1.14486c0.00999,-0.04966 0.01469,-0.09601 0.01373,-0.13871c-0.00146,-0.06543 -0.01148,-0.12717 -0.02884,-0.18574c-0.10956,-0.70302 -0.70904,-1.24884 -1.44548,-1.26683c-0.30069,-0.00734 -0.58286,0.07432 -0.8213,0.22096c-0.12131,0.00377 -0.25479,0.02977 -0.3972,0.07523c-0.32228,-1.08677 -0.48863,-2.29456 -0.48943,-3.62091z" fill="#66cfff"/><path d="M197.38554,126.43656c0.78087,-0.6247 1.40556,0.15618 1.40556,0.15618c0.74469,0.9427 4.87231,3.73838 4.4033,5.06537c-0.4638,1.31223 -5.0962,2.23895 -6.21213,1.24637c-1.25077,-1.1125 -0.85576,-2.10272 -0.63692,-3.3204v-1.03688v0c0,-0.46088 0.31179,-0.84894 0.73594,-0.96476c-0.11951,-0.28208 -0.19561,-0.74598 0.30425,-1.14587z" fill="#dbff66"/><path d="M151.10053,157.63157c-0.70711,-0.70711 0,-1.41422 0,-1.41422l0.00026,0.11409c0.07093,-0.17006 0.14559,-0.33137 0.22392,-0.48501c0.98857,-0.26701 2.92797,-2.02205 3.92876,-3.37574c0.03831,-0.02776 0.07526,-0.05728 0.11072,-0.08846c0.18926,0.04184 0.38759,0.15582 0.56786,0.39619c0.19944,0.26593 0.2442,0.50976 0.21506,0.7168c-0.833,0.36317 -1.76143,1.11063 -2.38972,1.89251c-0.42062,0.26572 -0.69997,0.73477 -0.69997,1.26907c0,0.01321 0.00017,0.02638 0.00051,0.0395c-0.01967,0.0885 -0.0368,0.1732 -0.05148,0.25422c-0.01667,0.04052 -0.03291,0.08175 -0.0487,0.12371l-0.44299,0.55734c0,0 -0.70711,0.70711 -1.41422,0z" fill="#dbff66"/><path d="M157.41816,159.98143l-0.47105,0.08241c-0.08558,-0.52264 -0.14907,-0.90653 -0.36044,-1.37538c-0.13674,0.02806 -0.29721,0.02653 -0.48493,-0.0204c-0.82726,-0.20682 -0.77275,-0.94269 -0.73874,-1.15497c0.10832,-0.12779 0.19563,-0.27396 0.25658,-0.43317c1.07182,-0.86702 2.02276,-1.87854 2.0461,-2.04189c0.0279,-0.1953 0.04291,-0.37322 0.04617,-0.53475c0.09384,0.03038 0.19243,0.07775 0.29527,0.14631c0.18535,0.12357 0.30188,0.26089 0.37106,0.39971c-0.22788,0.21153 -0.44063,0.43696 -0.62794,0.66523c-0.43676,0.26221 -0.72902,0.74045 -0.72902,1.28697c0,0.01321 0.00017,0.02638 0.00051,0.0395c-0.10783,0.48523 0.01115,0.79392 0.27274,0.96316c-0.03388,0.09632 -0.11454,0.28447 -0.26921,0.44188c0.22325,0.48746 0.30682,0.9057 0.39639,1.42638c0.02206,0.05498 0.02206,0.10453 0.02206,0.10453l-0.00408,0.00071c0.00023,0.00132 0.00045,0.00265 0.00068,0.00396z" fill="#bfde59"/><path d="M158.53894,159.67993l0.0034,0.08687c0,0 0,0.25 -0.25,0.25c-0.25,0 -0.25,-0.25 -0.25,-0.25l0.0034,-0.00467c-0.101,-0.61678 -0.23233,-0.99273 -0.62736,-1.35328c0.02634,0.01128 0.05367,0.02154 0.08195,0.0308c0.21823,0.20281 0.49696,0.34143 0.80612,0.38575c0.10519,0.24619 0.17633,0.52431 0.2325,0.85453z" fill="#bfde59"/><path d="M155.93309,158.25619c0,0.04835 -0.00935,0.08735 -0.02444,0.11881c0.20755,0.02657 0.20755,0.2474 0.20755,0.2474c-0.00045,0.03954 0.00072,0.07834 0.00324,0.11652l0.16916,0.0022c0.3603,-0.04486 0.67389,-0.17652 0.89615,-0.46187c0,0 0.00403,-0.00484 0.01159,-0.01235c0.08175,0.07665 0.18448,0.13361 0.30397,0.17275c0.03468,0.03223 0.0709,0.06286 0.10853,0.09173c-0.01791,0.04148 -0.03998,0.06796 -0.03998,0.06796c-0.33549,0.38473 -0.7058,0.55796 -1.20955,0.63675l-0.14798,0.00141c0.06394,0.25471 0.12903,0.5058 0.08456,0.79928l-0.11454,0.25381c0,0 -0.11181,0.22361 -0.33541,0.1118c-0.2236,-0.11181 -0.11181,-0.33541 -0.11181,-0.33541l0.06857,-0.1124c0.08656,-0.45945 -0.1823,-0.86153 -0.18651,-1.33219c0,0 0,-0.05987 0.02929,-0.12101c-0.83558,0.26513 -1.00973,0.09991 -0.90945,-0.21025c0.40574,-0.14924 0.72916,-0.46882 0.88354,-0.87205c0.10778,-0.08719 0.21434,-0.17583 0.31886,-0.26493c0.11063,0.14702 -0.01752,0.30079 -0.01752,0.30079c-0.10986,0.13164 -0.30576,0.27784 -0.48006,0.40101c0.05921,0.03388 0.10324,0.09129 0.11934,0.15949l0.12289,-0.00924c0,0 0.25,0 0.25,0.25z" fill="#bfde59"/><path d="M150.77415,156.12768c0.00178,-0.00675 0.00385,-0.01379 0.0063,-0.02099c0.11518,-0.00466 0.25113,-0.04027 0.40286,-0.10188c0.08062,0.07389 0.08062,0.19145 0.08062,0.19145l-0.07323,0.22255c-0.13521,0.13521 -0.3632,0.42162 -0.58244,0.5853c0.18607,0.11775 0.32457,0.29667 0.4102,0.5051c0.01388,-0.03654 0.02958,-0.07312 0.04755,-0.10982l-0.08336,-0.05002l0.13497,-0.22495c0.04318,-0.07489 0.12408,-0.1253 0.21673,-0.1253c0.11246,0 0.20757,0.07426 0.23899,0.17641l0.08525,0.25574c0.07649,-0.26865 0.21914,-0.45382 0.51071,-0.40182c0.02367,-0.012 0.05183,-0.02135 0.08526,-0.02693c0.2466,-0.0411 0.28769,0.2055 0.28769,0.2055c0.02286,0.13736 0.0454,0.27463 0.06548,0.41207c-0.02526,0.32108 0.00202,0.56186 0.07185,0.73459c0.0017,0.05025 0.00258,0.10059 0.00254,0.15102l-0.01114,0.01905l0.00859,0.00144l-0.0451,0.2706c-0.0179,0.12051 -0.12179,0.21295 -0.24728,0.21295c-0.12548,0 -0.22938,-0.09244 -0.24728,-0.21295l-0.0451,-0.2706l0.06668,-0.01112c-0.0178,-0.04755 -0.03508,-0.09651 -0.05126,-0.14612c-0.05101,0.19923 -0.11142,0.38599 -0.16761,0.50486l-0.04057,0.24341c-0.0179,0.12051 -0.12179,0.21295 -0.24728,0.21295c-0.0998,0 -0.18595,-0.05848 -0.22603,-0.14304l-0.13491,-0.26981l0.09317,-0.04658c-0.04364,-0.09819 -0.07417,-0.19604 -0.09652,-0.29613c-0.04806,0.15874 -0.09901,0.29356 -0.13508,0.36807l-0.08562,0.25687c-0.03142,0.10216 -0.12653,0.17641 -0.23899,0.17641c-0.12115,0 -0.22217,-0.08617 -0.24511,-0.20057l-0.09049,-0.40718l0.15226,-0.03384c-0.0697,-0.63697 0.02795,-1.28753 -0.5178,-1.37993l-0.01644,-0.01254l-0.00236,0.00708l-0.26919,-0.08973c-0.10216,-0.03142 -0.17641,-0.12653 -0.17641,-0.23899c0,-0.12548 0.09245,-0.22938 0.21295,-0.24728l0.17636,-0.02939c0.25523,-0.18509 0.48584,-0.38651 0.71955,-0.61588z" fill="#dbff66"/><path d="M156.74228,158.4914c0.17677,-0.17677 0.35355,0 0.35355,0l0.02658,0.04472c0.11366,0.05692 0.22487,0.11759 0.33525,0.17953c-0.34299,-0.29349 -0.64439,-0.58959 -0.82155,-1.11283c0,0 -0.07906,-0.23717 0.15811,-0.31623c0.23717,-0.07906 0.31623,0.15811 0.31623,0.15811c0.23884,0.73037 0.79982,0.94561 1.31289,1.45867l0.07322,0.26833c0,0 0,0.25 -0.25,0.25c-0.00191,0 -0.00381,-0.00001 -0.00569,-0.00005c-0.11194,0.22251 -0.33499,0.11098 -0.33499,0.11098c-0.34311,-0.17181 -0.66385,-0.37796 -1.00708,-0.54931l-0.15652,-0.13838c0,0 -0.17677,-0.17678 0,-0.35355z" fill="#bfde59"/><path d="M152.70637,150.09431c0.48674,-0.52145 1.14593,-1.30378 1.83151,-1.10679c1.36785,0.39301 1.92288,3.03671 3.18902,3.85053c1.17935,0.75803 7.81001,-0.99113 6.71067,3.40623c-0.3454,1.38163 -2.73439,0.9081 -3.68735,0.63059c-2.43567,-0.70927 -7.67902,-3.14814 -7.84306,-6.10084z" fill="#66cfff"/><path d="M177.67615,138.77142c1.09171,0.9502 1.17559,2.63482 -0.05922,4.61603c-1.53142,2.45712 -4.24633,3.24041 -6.8924,3.32c-5.42228,0.16311 -10.32185,-0.16172 -14.02204,-3.76l-0.22992,0.25737l-1.25514,-1.1213c-0.17109,-0.14758 -0.30427,-0.34333 -0.37625,-0.57499c-0.20483,-0.65927 0.16356,-1.35976 0.82283,-1.56459c0.11403,-0.03543 0.22929,-0.05371 0.34302,-0.0563l2.18643,-0.09842l0.00033,0.00746l0.03066,-0.00847c3.27256,0.01624 6.5416,-0.10522 9.76757,-0.50541c2.12324,-0.56674 4.23973,-1.13456 6.43734,-1.31897c0.13824,-0.01027 0.27344,-0.01672 0.40552,-0.01945c0.40379,-0.11188 0.8064,-0.23002 1.20776,-0.35471c0,0 1.19371,-0.37088 1.56459,0.82283c0.0401,0.12907 0.06192,0.24852 0.06892,0.35892z" fill="#59b4de"/><path d="M191.676,128.41791c0,-0.69035 0.55964,-1.25 1.25,-1.25c0.69036,0 1.25,0.55965 1.25,1.25c0,0.69035 -0.55964,1.25 -1.25,1.25c-0.69036,0 -1.25,-0.55965 -1.25,-1.25z" fill="#de5c59"/></g></g></svg>