<svg version="1.1" xmlns="http://www.w3.org/2000/svg" xmlns:xlink="http://www.w3.org/1999/xlink" width="108.02052" height="142.88413" viewBox="0,0,108.02052,142.88413"><g transform="translate(-178.59217,-104.53892)"><g data-paper-data="{&quot;isPaintingLayer&quot;:true}" fill-rule="nonzero" stroke="none" stroke-linecap="butt" stroke-linejoin="miter" stroke-miterlimit="10" stroke-dasharray="" stroke-dashoffset="0" style="mix-blend-mode: normal"><path d="M253.01614,129.91749c0,9.89142 -10.01284,17.91001 -22.36431,17.91001c-12.35147,0 -22.3643,-8.01859 -22.3643,-17.91001c0,-9.89142 10.01283,-17.91 22.3643,-17.91c12.35147,0 22.36431,8.01858 22.36431,17.91z" fill="#61691f" stroke-width="0"/><path d="M178.59217,143.002v0v0z" fill="#61691f" stroke-width="0"/><path d="M255.0577,169.29353c0,20.80786 -14.95695,37.67598 -33.40727,37.67598c-18.45032,0 -33.40726,-16.86811 -33.40726,-37.67598c0,-20.80786 14.95694,-37.67597 33.40726,-37.67597c18.45032,0 33.40727,16.86811 33.40727,37.67597z" fill="#61691f" stroke-width="0"/><path d="M252.33331,195.96172c-7.97826,11.24343 -20.20606,16.27068 -27.31159,11.22865c-7.10552,-5.04202 -6.39802,-18.244 1.58024,-29.48742c7.97826,-11.24343 20.20606,-16.27068 27.31159,-11.22865c7.10552,5.04202 6.39802,18.244 -1.58024,29.48743z" fill="#61691f" stroke-width="0"/><path d="M222.11607,149.07106c0.3253,-0.43398 0.78832,-0.12529 0.78832,-0.12529c3.30906,2.20603 4.44621,7.90418 8.35396,8.82745c5.20508,1.33644 10.9911,1.28163 16.3755,1.28163c6.1196,0 9.43229,1.99795 14.38478,-2.71441c3.72461,-0.81894 3.9037,2.96572 2.61802,3.96954c0.47607,-0.0526 1.00594,-0.10134 1.29939,-0.13716c1.02128,-0.12466 4.23532,-0.37649 4.92476,0.33707c1.45443,1.50533 -0.98729,2.13913 -2.08174,2.5775c1.45069,0.68345 2.6307,2.10725 1.3318,2.89639c0.56779,0.29467 0.96485,0.75485 0.93582,1.39291c-0.06031,1.32566 -1.28889,1.772 -2.7408,1.88407c1.36381,0.68608 2.13264,1.62313 0.79488,2.75983c-1.70343,1.44742 -7.33193,-1.07596 -8.81462,-2.06172c-5.34941,-4.05897 -12.02069,-2.93585 -18.26864,-3.97717c-5.96973,0.01359 -11.08164,-1.24018 -16.87127,-2.26633c-4.04088,-2.80921 -11.04903,-4.03802 -9.22995,-11.17763c1.47268,-2.194 3.25634,-3.17304 5.83444,-3.68205z" fill="#454a16" stroke-width="0.5"/><path d="M235.86409,170.93275c-0.12606,-0.06304 -0.20678,-0.14119 -0.25664,-0.22357c0.01514,0.21471 -0.10513,0.39511 -0.10513,0.39511c-2.99706,4.04226 -6.07594,8.03975 -9.00224,13.03585c-1.78212,3.04264 -3.56424,6.08529 -5.34636,9.12794l-0.48095,0.82113c0,0 -0.29702,0.50711 -0.80412,0.21009c-0.5071,-0.29702 -0.21008,-0.80413 -0.21008,-0.80413c1.78212,-3.04264 4.0452,-6.90643 5.82731,-9.94907c1.94448,-3.31984 4.0028,-6.45311 5.24919,-9.76954c0.64121,-1.70617 3.1626,-2.14266 3.78929,-3.32425c0,0 0.32599,-0.48898 0.81498,-0.16299c0.09282,0.06188 0.15627,0.12962 0.19816,0.19879c-0.01516,-0.18596 0.06378,-0.34383 0.06378,-0.34383l0.71124,-0.69606c1.6219,0.04199 3.46798,-1.06356 5.05414,-1.46723c0,0 0.57014,-0.14253 0.71268,0.42762c0.14254,0.57014 -0.4276,0.71267 -0.4276,0.71267c-1.74787,0.42768 -3.5384,1.47006 -5.33921,1.50232l0.34005,0.04632c0,0 -0.26283,0.52566 -0.78847,0.26283z" fill="#454a16" stroke-width="0.5"/><path d="M227.48113,205.63918c-0.52564,0.26282 -0.78847,-0.26283 -0.78847,-0.26283l-0.23623,-0.51875c-0.36241,-1.83929 -1.11472,-3.78901 -1.12498,-5.68313c0,0 0,-0.58768 0.58769,-0.58768c0.58769,0 0.58769,0.58768 0.58769,0.58768c-0.01174,1.78895 0.74892,3.71559 1.10215,5.45262l0.13497,0.22363c0,0 0.26281,0.52564 -0.26283,0.78847z" fill="#454a16" stroke-width="0.5"/><path d="M252.45935,194.68926c0.32457,0 0.58769,0.26312 0.58769,0.58769c0,0.25871 -0.16717,0.4784 -0.39939,0.55688c0.17744,0.4741 -0.29667,0.71115 -0.29667,0.71115l-0.30802,0.14893c-0.04722,0.02946 -0.0957,0.05776 -0.14537,0.08488c-0.02266,0.06169 -0.05537,0.11852 -0.09616,0.16852c0.08255,0.1012 0.13203,0.23043 0.13203,0.3712c0,0.32457 -0.26312,0.58769 -0.58769,0.58769c-0.03489,0 -0.06905,-0.00305 -0.10226,-0.00888c-0.17338,0.19447 -0.45452,0.19447 -0.45452,0.19447h-0.74239c0,0 -0.13936,0 -0.28236,-0.06787c-0.08191,0.04334 -0.17531,0.06787 -0.27443,0.06787c-0.14077,0 -0.26998,-0.04949 -0.37118,-0.13204c-0.1012,0.08255 -0.23042,0.13204 -0.3712,0.13204c-0.05741,0 -0.1129,-0.00822 -0.16535,-0.02357c-0.23409,0.07882 -0.46866,-0.03848 -0.46866,-0.03848l-0.25091,-0.14109c-0.23268,-0.05817 -0.46534,-0.11634 -0.69802,-0.17451c-0.02853,0.00426 -0.05773,0.00646 -0.08742,0.00646c-0.32457,0 -0.58769,-0.26312 -0.58769,-0.58769c0,-0.01041 0.00027,-0.02075 0.00081,-0.03104c-0.9478,-0.14748 -1.83388,-0.34341 -2.52518,-0.51238c0,0 -0.57015,-0.14254 -0.42762,-0.71268c0.14254,-0.57014 0.71268,-0.42762 0.71268,-0.42762c0.78537,0.20165 2.19179,0.51516 3.58203,0.66126c0.05134,-0.03958 0.10942,-0.07088 0.17221,-0.09186c0.03166,-0.09474 0.08678,-0.17875 0.15849,-0.2451c0.02815,-0.27645 0.24793,-0.49623 0.52438,-0.52438c0.10736,-0.11601 0.26092,-0.18865 0.43144,-0.18865c0.15233,0 0.29112,0.05795 0.39553,0.15301c0.09375,-0.20005 0.29691,-0.33861 0.53244,-0.33861c0.14077,0 0.26999,0.04948 0.3712,0.13203c0.1012,-0.08255 0.23042,-0.13203 0.3712,-0.13203c0.03157,0 0.06257,0.00248 0.09279,0.00727c0.03023,-0.0048 0.06123,-0.00727 0.09279,-0.00727c0.03157,0 0.06257,0.00248 0.0928,0.00727c0.03023,-0.0048 0.06123,-0.00727 0.0928,-0.00727c0.09456,0 0.1839,0.02232 0.26304,0.062c0.1065,-0.14985 0.2815,-0.2476 0.47934,-0.2476c0.10073,0 0.19554,0.02534 0.2784,0.07c0.08286,-0.04466 0.17766,-0.07 0.27839,-0.07z" fill="#454a16" stroke-width="0.5"/><path d="M203.05994,138.1134c0,-0.32457 0.26312,-0.58769 0.58769,-0.58769c0.32457,0 0.58768,0.26312 0.58768,0.58769c0,0.32457 -0.26311,0.58769 -0.58768,0.58769c-0.32457,0 -0.58769,-0.26312 -0.58769,-0.58769z" fill="#454a16" stroke-width="0.5"/><path d="M199.34801,141.08294c0,-0.32457 0.26312,-0.58769 0.58769,-0.58769c0.32457,0 0.58769,0.26312 0.58769,0.58769c0,0.32457 -0.26312,0.58769 -0.58769,0.58769c-0.32457,0 -0.58769,-0.26312 -0.58769,-0.58769z" fill="#454a16" stroke-width="0.5"/><path d="M195.0793,146.65082c0,-0.32457 0.26312,-0.58769 0.58769,-0.58769c0.32457,0 0.58769,0.26312 0.58769,0.58769c0,0.32457 -0.26312,0.58768 -0.58769,0.58768c-0.32457,0 -0.58769,-0.26311 -0.58769,-0.58768z" fill="#454a16" stroke-width="0.5"/><path d="M191.36739,152.96108c0,-0.32457 0.26312,-0.58769 0.58769,-0.58769c0.32457,0 0.58769,0.26312 0.58769,0.58769c0,0.32457 -0.26312,0.58769 -0.58769,0.58769c-0.32457,0 -0.58769,-0.26312 -0.58769,-0.58769z" fill="#454a16" stroke-width="0.5"/><path d="M188.58345,160.01372c0,-0.32457 0.26312,-0.58769 0.58769,-0.58769c0.32457,0 0.58768,0.26312 0.58768,0.58769c0,0.32457 -0.26311,0.58769 -0.58768,0.58769c-0.32457,0 -0.58769,-0.26312 -0.58769,-0.58769z" fill="#454a16" stroke-width="0.5"/><path d="M243.70545,136.13371c0,-0.58769 0.58769,-0.58769 0.58769,-0.58769c0.74238,0 1.85595,0 2.59833,0c0.55183,0 4.38913,1.10379 4.64287,0.39107c0.79922,-2.2449 -3.22902,-5.39228 -4.05492,-6.96439c0,0 -0.26283,-0.52564 0.26281,-0.78847c0.52564,-0.26283 0.78847,0.26282 0.78847,0.26282c0.76344,1.64435 6.58336,7.13532 3.00093,8.80098c-1.31436,0.61112 -3.26845,-0.52664 -4.64015,-0.52664c-0.74238,0 -1.48477,0 -2.22715,0h-0.37118c0,0 -0.58769,0 -0.58769,-0.58769z" fill="#454a16" stroke-width="0.5"/><path d="M238.50874,125.74034c0,-0.32457 0.26312,-0.58769 0.58769,-0.58769c0.32457,0 0.58769,0.26312 0.58769,0.58769c0,0.32457 -0.26312,0.58769 -0.58769,0.58769c-0.32457,0 -0.58769,-0.26312 -0.58769,-0.58769z" fill="#454a16" stroke-width="0.5"/><path d="M250.38689,125.55475c0,-0.32457 0.26312,-0.58769 0.58769,-0.58769c0.32457,0 0.58769,0.26312 0.58769,0.58769c0,0.32457 -0.26312,0.58769 -0.58769,0.58769c-0.32457,0 -0.58769,-0.26312 -0.58769,-0.58769z" fill="#454a16" stroke-width="0.5"/><path d="M231.55481,136.4597c0,0 -0.32599,-0.48898 0.163,-0.81497c0.48899,-0.32599 0.81497,0.16299 0.81497,0.16299c0.61729,0.92917 1.10571,1.82451 2.06415,2.43535l-0.14039,-0.0987c0,0 0.4388,-0.00001 0.55807,0.37914c4.15641,0.67603 9.31584,0.5754 13.36163,0.54883h0.74238c0,0 0.58769,0 0.58769,0.58769c0,0.58769 -0.58769,0.58769 -0.58769,0.58769h-0.74238c-4.52027,-0.02445 -10.14454,0.12249 -14.59174,-0.75379c0,0 -0.57628,-0.11526 -0.46102,-0.69154c0.00428,-0.02141 0.0092,-0.04187 0.0147,-0.06141c-0.72129,-0.6537 -1.20814,-1.42176 -1.78338,-2.28128z" fill="#454a16" stroke-width="0.5"/><path d="M222.94985,134.46409c-0.55753,0.18584 -0.74338,-0.37169 -0.74338,-0.37169l-0.04362,-0.32707c-2.65302,-2.67102 -2.58488,-4.4899 -2.58488,-8.02499c0,0 0,-0.57736 0.57228,-0.58755c-0.00996,-0.04645 -0.01549,-0.09788 -0.01549,-0.15483c0,-0.58769 0.58769,-0.58769 0.58769,-0.58769c4.05413,0 4.61871,1.053 5.58123,4.89946l0.18561,0.74238c0,0 0.14253,0.57014 -0.42762,0.71268c-0.57014,0.14254 -0.71268,-0.42762 -0.71268,-0.42762l-0.18559,-0.74238c-0.85899,-3.43906 -0.88327,-4.00825 -4.43241,-4.00915c0.02236,0.08822 0.02236,0.1547 0.02236,0.1547c0,3.31915 -0.28902,4.68401 2.24061,7.19388l0.32758,0.7865c0,0 0.18584,0.55754 -0.37169,0.74338z" fill="#454a16" stroke-width="0.5"/><path d="M224.65087,128.70988c0,0.46847 -0.37346,0.56351 -0.52496,0.58279c-0.19171,0.19171 -0.38345,0.38345 -0.57516,0.57516c0,0 -0.02636,0.02636 -0.07246,0.05918c0.05937,0.12607 0.12017,0.25145 0.18254,0.37601l0.06205,0.63401c0,0 0,0.58769 -0.58769,0.58769c-0.58769,0 -0.58769,-0.58769 -0.58769,-0.58769l0.06205,-0.10837c-0.27944,-0.55971 -0.52978,-1.1342 -0.7624,-1.71493c0,0 -0.21827,-0.54565 0.32739,-0.76391c0.54566,-0.21827 0.76393,0.32739 0.76393,0.32739c0.01337,0.03348 0.0268,0.06692 0.0403,0.10036c0.16109,-0.16109 0.32217,-0.32216 0.48325,-0.48325l0.60116,-0.17213c0,0 0.58769,0 0.58769,0.58769z" fill="#454a16" stroke-width="0.5"/><path d="M215.77297,208.20936c0.67699,1.01549 -0.55,3.95857 -0.55679,5.33577c-0.02936,5.95773 -0.015,11.91561 0,17.87339c0.013,5.16303 12.14509,3.57181 11.69254,10.13368c-0.49143,7.12584 -21.85921,5.90595 -27.53179,3.53227c-7.15822,-2.99534 4.17428,-18.08107 4.20907,-24.05932c0.0489,-8.40503 -1.67109,-13.20179 -4.4234,-20.55164c-0.59117,-1.5787 -2.10322,-4.97788 -1.12352,-6.44743c0.63798,-0.95696 2.20029,-2.3728 3.06495,-2.66948c6.55063,-2.24758 5.60138,4.24074 7.24515,7.52156c0.94272,0.32822 1.74882,0.94812 2.31023,1.75162c1.69705,0.18711 3.50419,0.80198 4.71146,2.00925c0.98027,0.98027 0.73697,4.0028 0.4021,5.34229z" fill="#61691f" stroke-width="0.5"/><path d="M239.46764,203.17923c2.59658,0 4.70152,2.10494 4.70152,4.70152c0,0.06215 -0.0012,0.12403 -0.00359,0.1856c0.00239,0.06157 0.00359,0.12345 0.00359,0.1856c0,0.09346 -0.00272,0.18628 -0.00811,0.27839c0.00538,0.09211 0.00811,0.18494 0.00811,0.2784c0,0.12151 -0.0046,0.24195 -0.01366,0.36115c0.24762,0.57204 0.38485,1.203 0.38485,1.866c0,0.55339 -0.09561,1.08446 -0.27122,1.57757c0.1756,0.49311 0.27122,1.02417 0.27122,1.57756c0,0.7096 -0.15721,1.38246 -0.43868,1.9857c0.04437,0.25944 0.06749,0.52614 0.06749,0.79823c0,1.05678 -0.34866,2.03214 -0.93723,2.81728c0.99506,5.49901 1.35277,11.30128 5.29859,15.56761c2.55938,2.76728 9.95025,4.38833 7.02043,9.51552c-1.94012,3.39522 -22.91514,3.26583 -24.55831,0.39029c-2.63245,-4.60679 1.0554,-5.87897 0.98955,-10.6371c-0.10018,-7.23943 -2.14959,-15.36548 -1.26091,-22.61883c-0.02525,-0.19732 -0.03826,-0.39847 -0.03826,-0.60265c0,-0.80136 0.20049,-1.55588 0.55404,-2.21616c0.01577,-0.06308 0.03918,-0.13775 0.09563,-0.17002c0.74161,-1.25659 2.05112,-2.13811 3.57544,-2.2915c0.51352,-2.03997 2.36015,-3.55016 4.55951,-3.55016z" fill="#61691f" stroke-width="0.5"/><path d="M226.32123,239.13945c0,0.58769 -0.58768,0.58769 -0.58768,0.58769l-0.41425,-0.01754c-0.53101,0.12979 -1.08067,0.20019 -1.62731,0.20314c0,0 -0.58768,0 -0.58768,-0.58769c0,-0.58769 0.58768,-0.58768 0.58768,-0.58768c0.4509,0.00296 0.9055,-0.05591 1.34223,-0.16805l0.69933,-0.01755c0,0 0.58768,0 0.58768,0.58769z" fill="#454a16" stroke-width="0.5"/><path d="M227.06361,241.3666c0,0.58769 -0.58769,0.58769 -0.58769,0.58769c-0.98985,0 -2.16528,0 -3.15513,0c0,0 -0.58769,0 -0.58769,-0.58769c0,-0.58769 0.58769,-0.58768 0.58769,-0.58768c0.98985,0 1.97969,0 2.96953,0h0.1856c0,0 0.58769,-0.00001 0.58769,0.58768z" fill="#454a16" stroke-width="0.5"/><path d="M225.39324,243.03697c0,0.58769 -0.58769,0.58769 -0.58769,0.58769c-0.74239,0 -1.67037,0 -2.41275,0c0,0 -0.58769,0 -0.58769,-0.58769c0,-0.58769 0.58769,-0.58769 0.58769,-0.58769c0.74239,0 1.48476,0 2.22715,0h0.1856c0,0 0.58769,0 0.58769,0.58769z" fill="#454a16" stroke-width="0.5"/><path d="M224.09407,244.52174c0,0.58769 -0.58769,0.58769 -0.58769,0.58769c-0.74239,0 -1.67036,0 -2.41275,0c0,0 -0.58769,0 -0.58769,-0.58769c0,-0.58769 0.58769,-0.58769 0.58769,-0.58769c0.74239,0 1.48477,0 2.22715,0h0.18559c0,0 0.58769,0 0.58769,0.58769z" fill="#454a16" stroke-width="0.5"/><path d="M252.94954,243.12968c0,0.58769 -0.58768,0.58769 -0.58768,0.58769c-0.74239,0 -1.85596,0 -2.59834,0c0,0 -0.58769,0 -0.58769,-0.58769c0,-0.58769 0.58769,-0.58769 0.58769,-0.58769c0.74239,0 1.48476,0 2.22715,0h0.3712c0,0 0.58768,0 0.58768,0.58769z" fill="#454a16" stroke-width="0.5"/><path d="M254.61991,244.80004c0,0.58769 -0.58769,0.58768 -0.58769,0.58768c-0.98985,0 -2.35088,0 -3.34072,0c0,0 -0.58769,0.00001 -0.58769,-0.58768c0,-0.58769 0.58769,-0.58769 0.58769,-0.58769c0.98985,0 1.97969,0 2.96954,0h0.37119c0,0 0.58769,0 0.58769,0.58769z" fill="#454a16" stroke-width="0.5"/><path d="M255.83098,240.43863c0,0.58769 -0.58769,0.58768 -0.58769,0.58768l-0.51158,-0.0987c-0.56765,-0.42132 -1.00972,-0.27249 -1.71556,-0.27249c0,0 -0.58769,0 -0.58769,-0.58769c0,-0.58769 0.58769,-0.58769 0.58769,-0.58769c0.98013,0 1.51811,-0.06026 2.36755,0.4699l-0.1404,-0.0987c0,0 0.58769,0 0.58769,0.58769z" fill="#454a16" stroke-width="0.5"/><path d="M254.71741,241.5522c0,0.58769 -0.58769,0.58769 -0.58769,0.58769c-0.74239,0 -1.85596,0 -2.59834,0c0,0 -0.58768,0 -0.58768,-0.58769c0,-0.58769 0.58768,-0.58769 0.58768,-0.58769c0.74239,0 1.48477,0 2.22715,0h0.37119c0,0 0.58769,0 0.58769,0.58769z" fill="#454a16" stroke-width="0.5"/><path d="M234.08536,239.17036c-0.58769,0 -0.58769,-0.58769 -0.58769,-0.58769v-0.3712c0,-0.89864 0.10575,-1.36501 -0.30915,-2.14992c0,0 -0.26282,-0.52564 0.26283,-0.78847c0.52564,-0.26282 0.78847,0.26282 0.78847,0.26282c0.47371,0.9873 0.43323,1.59312 0.43323,2.67557v0.3712c0,0 0,0.58769 -0.58769,0.58769z" fill="#454a16" stroke-width="0.5"/><path d="M201.97726,242.69668c-0.58769,0 -0.58769,-0.58769 -0.58769,-0.58769v-0.18559c0,-1.42362 -0.0044,-2.34486 -0.82928,-3.57153c0,0 -0.32599,-0.48899 0.16299,-0.81498c0.48899,-0.32599 0.81498,0.16299 0.81498,0.16299c0.94719,1.43132 1.02669,2.5705 1.02669,4.22351v0.18559c0,0 0,0.58769 -0.58769,0.58769z" fill="#454a16" stroke-width="0.5"/><path d="M206.36122,221.67395c0.57628,0.11525 0.46102,0.69153 0.46102,0.69153l-0.17704,0.87063c0.01091,2.60939 -0.98005,5.24872 -1.49332,7.85237c0,0 -0.11526,0.57628 -0.69154,0.46102c-0.57628,-0.11525 -0.46102,-0.69153 -0.46102,-0.69153c0.5208,-2.57109 1.46703,-5.16705 1.47621,-7.73768l0.19415,-0.98533c0,0 0.11525,-0.57627 0.69153,-0.46102z" fill="#454a16" stroke-width="0.5"/><path d="M235.75571,231.00413c-0.58769,0 -0.58769,-0.58768 -0.58769,-0.58768v-0.74239c0,-1.97996 -0.2158,-3.32154 -1.68383,-4.78113c0,0 -0.41556,-0.41556 0,-0.83112c0.41556,-0.41556 0.83112,0 0.83112,0c1.67535,1.68402 2.02808,3.32143 2.02808,5.61225v0.74239c0,0 0.00001,0.58768 -0.58768,0.58768z" fill="#454a16" stroke-width="0.5"/><path d="M205.50358,215.78527c-0.58769,0 -0.58769,-0.58769 -0.58769,-0.58769v-0.37119c0.02827,-4.30476 -0.68775,-8.37033 -3.05642,-11.92334c0,0 -0.32599,-0.48899 0.16299,-0.81498c0.48899,-0.32599 0.81498,0.16299 0.81498,0.16299c2.51586,3.7738 3.22923,8.02643 3.25383,12.57532v0.37119c0,0 0,0.58769 -0.58769,0.58769z" fill="#454a16" stroke-width="0.5"/><path d="M244.41093,204.10702c0.32599,0.48899 -0.16299,0.81498 -0.16299,0.81498l-0.5878,0.3905c-2.24785,1.12393 -4.90193,2.60725 -7.59343,3.6476c1.39286,3.3585 2.0579,9.41859 -1.05336,11.27947l-0.88278,-0.46989c0,0 -0.48899,-0.326 -0.163,-0.81498c0.32599,-0.48899 0.81498,-0.16299 0.81498,-0.16299l0.2308,0.27249c1.58734,-2.53555 1.21499,-6.92708 -0.03188,-9.71095c-1.49903,0.50448 -2.99434,0.83856 -4.42243,0.86415c0,0 -0.58769,0 -0.58769,-0.58769c0,-0.58769 0.58769,-0.58769 0.58769,-0.58769c1.22859,0.0318 2.55668,-0.24102 3.90842,-0.68481c-0.06086,-0.15874 -0.12917,-0.4926 0.24352,-0.71622c0.50394,-0.30237 0.80631,0.20158 0.80631,0.20158c0.02204,0.03719 0.044,0.07512 0.06588,0.11378c2.67801,-1.03946 5.36714,-2.6005 7.48702,-3.66044l0.52577,-0.35188c0,0 0.48899,-0.32599 0.81498,0.16299z" fill="#454a16" stroke-width="0.5"/><path d="M216.29904,206.28897c0,0.58769 -0.58769,0.58769 -0.58769,0.58769l-0.40385,-0.04203c-4.45873,-1.84553 -10.06636,-3.14248 -12.55671,-8.07787c0,0 -0.26282,-0.52564 0.26282,-0.78847c0.52564,-0.26282 0.78847,0.26282 0.78847,0.26282c2.26117,4.57088 7.82433,5.91058 11.94195,7.51219l-0.03267,-0.04203c0,0 0.58769,0 0.58769,0.58769z" fill="#454a16" stroke-width="0.5"/><path d="M230.00225,115.56347c-0.02346,0 -0.046,-0.00093 -0.06763,-0.00274c-0.37123,0.09463 -0.60696,-0.25896 -0.60696,-0.25896c-0.06971,-0.11082 -0.14377,-0.21129 -0.22169,-0.30271c-0.23071,-0.06858 -0.35637,-0.2885 -0.35637,-0.2885c-0.01637,-0.02864 -0.03285,-0.05837 -0.04949,-0.08911c-0.96911,-0.71246 -2.30373,-0.60292 -3.38993,-1.33538l-0.64717,-0.15291c0,0 -0.57014,-0.14253 -0.42761,-0.71268c0.14254,-0.57014 0.71268,-0.4276 0.71268,-0.4276l0.8376,0.21829c0.72944,0.48109 1.47924,0.66255 2.19539,0.88582c-0.51458,-1.08746 -1.15777,-2.22552 -2.01889,-2.37657l-0.74239,-0.1856c0,0 -0.57014,-0.14253 -0.4276,-0.71268c0.14254,-0.57014 0.71268,-0.42761 0.71268,-0.42761l0.74238,0.1856c1.66708,0.48918 2.3935,2.33171 3.16729,3.8764c0,-0.25864 0,-0.50353 0,-0.70791c0,0 0,-0.1131 0.04961,-0.24007c-0.90043,-3.30742 -1.79001,-4.81695 -5.47822,-6.65813l-0.33834,-0.29568c0,0 -0.41556,-0.41556 0,-0.83112c0.41556,-0.41556 0.83112,0 0.83112,0l0.03286,0.07551c2.20302,1.10337 3.52434,2.14372 4.43639,3.47253c-0.06474,-0.76861 -0.09022,-1.55448 -0.09022,-2.3901v-0.1856c0,0 0,-0.58769 0.58769,-0.58769c0.58769,0 0.58769,0.58769 0.58769,0.58769v0.1856c0,1.37758 0.06741,2.60109 0.27839,3.84578c0.49939,-1.89986 1.65066,-3.36122 4.09286,-4.01203l0.46855,-0.32273c0,0 0.48899,-0.32599 0.81498,0.16299c0.32599,0.48898 -0.16299,0.81498 -0.16299,0.81498l-0.64503,0.41966c-3.03242,0.70061 -3.64382,2.82712 -3.72327,5.43877c1.82863,-1.73776 4.12086,-1.92401 6.82625,-1.92401h0.1856c0,0 0.58769,0 0.58769,0.58769c0,0.58769 -0.58769,0.58769 -0.58769,0.58769h-0.1856c-2.88497,0 -5.18293,0.07798 -6.93485,2.70783c0,0 -0.17386,0.26078 -0.45809,0.2745c0,0.0473 0,0.09459 0,0.1419v0.3712c0,0 0,0.58769 -0.58769,0.58769z" fill="#4a2016" stroke-width="0.5"/><path d="M246.36326,141.35144c-0.75,0 -0.75,-0.75 -0.75,-0.75l0.21967,-0.83417c0.74112,-0.60669 0.40959,-1.13824 0.12266,-1.96707c0,0 -0.23717,-0.71151 0.47434,-0.94868c0.71151,-0.23717 0.94868,0.47434 0.94868,0.47434c0.47797,1.47792 0.58591,2.31888 -0.48502,3.50207l0.21967,-0.22649c0,0 0,0.75 -0.75,0.75z" fill="#580000" stroke-width="0.5"/><path d="M246.29659,145.56673c-0.71151,0.23717 -0.94868,-0.47434 -0.94868,-0.47434l-0.30384,-0.91152c0,0 -0.23717,-0.71151 0.47434,-0.94868c0.71151,-0.23717 0.94868,0.47434 0.94868,0.47434l0.30384,0.91152c0,0 0.23717,0.71151 -0.47434,0.94868z" fill="#580000" stroke-width="0.5"/><path d="M246.97094,148.64364c-0.75,0 -0.75,-0.75 -0.75,-0.75v-0.91152c0,0 0,-0.75 0.75,-0.75c0.75,0 0.75,0.75 0.75,0.75v0.91152c0,0 0,0.75 -0.75,0.75z" fill="#580000" stroke-width="0.5"/><path d="M246.22094,151.23589c0,-0.41421 0.33579,-0.75 0.75,-0.75c0.41421,0 0.75,0.33579 0.75,0.75c0,0.41421 -0.33579,0.75 -0.75,0.75c-0.41421,0 -0.75,-0.33579 -0.75,-0.75z" fill="#580000" stroke-width="0.5"/><path d="M274.38389,188.02397c-0.32711,0.6749 -1.00202,0.34779 -1.00202,0.34779l-0.29978,-0.22875c-0.05173,0 -0.10346,0 -0.15519,0c0.00834,0.04955 0.01287,0.10328 0.01287,0.16152c0,0.75 -0.75,0.75 -0.75,0.75h-0.91152c-2.19046,0 -4.38018,-0.11712 -6.56451,-0.20595c-0.10622,0.29632 -0.40852,0.43848 -0.40852,0.43848l-0.96527,0.37514c-0.5727,0 -1.14946,0.00692 -1.72904,0.01717c0.77287,0.65886 1.63613,1.22293 2.55829,1.70114c3.11042,0.78564 6.35566,1.28027 9.47852,1.33294l0.97769,0.0064c0,0 0.74998,0.00492 0.74507,0.7549c-0.0013,0.19843 -0.05476,0.34401 -0.13268,0.45083c0.07884,0.1077 0.13269,0.25481 0.13269,0.45578c0,0.75 -0.75,0.75 -0.75,0.75h-0.30384c-3.44114,0 -7.28491,-0.68334 -10.55447,-2.31051c-1.24479,-0.31496 -2.46938,-0.67467 -3.65941,-1.07023c0,0 -0.71151,-0.23717 -0.47434,-0.94868c0.09972,-0.29916 0.2833,-0.43061 0.46259,-0.48249c-0.09509,-0.08836 -0.18891,-0.1781 -0.28141,-0.26922c0,0 -0.13105,-0.13105 -0.19771,-0.328c-1.9556,0.04399 -3.92718,0.07912 -5.86881,-0.02929c-1.34537,2.4372 -3.07903,4.67553 -5.10796,6.20048c-3.4428,2.28434 -6.56881,4.44945 -10.55804,5.5852l-0.89576,0.29878c0,0 -0.71151,0.23717 -0.94868,-0.47434c-0.23717,-0.71151 0.47434,-0.94868 0.47434,-0.94868l0.92729,-0.3089c3.828,-1.09169 6.83932,-3.16156 10.1339,-5.37614c1.72377,-1.28979 3.1565,-3.10569 4.31199,-5.10835c-0.53246,-0.05597 -1.06161,-0.12594 -1.58646,-0.21279c0,0 -0.7398,-0.1233 -0.6165,-0.86309c0.1233,-0.7398 0.86309,-0.6165 0.86309,-0.6165c0.69374,0.11651 1.39597,0.20192 2.10405,0.26342c0.09675,-0.19518 0.19108,-0.39132 0.28298,-0.58813c-0.33402,-0.00552 -0.66452,-0.00854 -0.99112,-0.00854c0,0 -0.75,0 -0.75,-0.75c0,-0.75 0.75,-0.75 0.75,-0.75c0.53326,0 1.079,0.009 1.63511,0.02441c0.38386,-0.95353 0.71245,-1.90615 0.98705,-2.82635c0.36631,-1.22753 2.21783,-3.26255 0.79744,-4.42528c0,0 -0.53033,-0.53033 0,-1.06066c0.53033,-0.53033 1.06066,0 1.06066,0c1.90506,2.10475 0.15303,3.79538 -0.41792,5.90532c-0.01899,0.07017 -0.03837,0.14053 -0.05813,0.21105c0.7491,-0.07085 1.50445,-0.21805 2.26194,-0.38617c-0.13177,-0.08156 -0.24973,-0.22226 -0.30925,-0.46035c-0.0528,-0.21121 -0.02897,-0.37643 0.03146,-0.50457c-0.01176,-0.03216 -0.0223,-0.06648 -0.03146,-0.10311c-0.1819,-0.72761 0.54571,-0.90951 0.54571,-0.90951c2.60622,-0.65156 5.22931,-0.9205 7.86875,-1.40385l0.13185,-0.02413c1.8214,-0.51864 3.63073,-1.10507 5.44913,-1.83243l0.12649,-0.0506c0,0 0.654,-0.2616 0.94792,0.35603c1.00231,-0.37314 1.98005,-0.74983 2.91008,-1.14512l0.98866,-0.42017c0,0 0.69025,-0.29335 0.9836,0.3969c0.29335,0.69025 -0.3969,0.9836 -0.3969,0.9836l-0.98866,0.42017c-2.64676,1.12469 -5.74992,2.09025 -8.66954,3.27708c4.3041,-0.48608 8.61398,-0.9501 12.92428,-1.30954c1.51927,-0.12618 3.02079,-0.15087 4.54461,-0.17545l0.39142,-0.00631c0,0 0.7499,-0.0121 0.762,0.7378c0.0121,0.7499 -0.7378,0.762 -0.7378,0.762l-0.39142,0.00631c-1.49036,0.02404 -2.95848,0.04622 -4.44424,0.17047c-5.36156,0.44647 -10.71533,1.06777 -16.06542,1.67298c1.80189,-0.03153 3.5972,-0.14135 5.39272,-0.46353l0.7795,-0.13978c0,0 0.73822,-0.13238 0.87061,0.60584c0.0551,0.30729 -0.04064,0.50961 -0.1712,0.6411c1.02688,-0.18474 2.03578,-0.42306 2.99193,-0.64596l0.99867,-0.00508c0,0 0.75,0 0.75,0.75c0,0.75 -0.75,0.75 -0.75,0.75l-0.17649,-0.00109c0.16214,0.61152 -0.45649,0.85897 -0.45649,0.85897l-0.12649,0.0506c-0.4905,0.19443 -0.99317,0.36701 -1.50638,0.5199l0.46608,0.18513c0,0 0.6749,0.32711 0.34779,1.00202zM263.42555,182.578c0.11925,-0.06607 0.23935,-0.13138 0.36026,-0.19595c-0.3806,0.09601 -0.7622,0.19099 -1.14497,0.28555c0.26154,-0.02983 0.52311,-0.0597 0.78471,-0.0896zM260.03612,185.40844c0,0 -0.75,0 -0.75,-0.75c0,-0.00151 0,-0.00301 0.00001,-0.00452c-0.97083,0.22467 -1.91523,0.50767 -2.89768,0.65506c2.93288,1.09659 6.01849,0.06942 8.80191,1.08969c0.04883,0.0179 0.09677,0.03798 0.14398,0.05982c0.86374,-0.01578 1.72042,-0.05316 2.56374,-0.11985c-1.12102,-0.06165 -2.22333,-0.26699 -3.27904,-0.68001c0,0 -0.18231,-0.07293 -0.32306,-0.23743c-0.89509,0.00724 -1.79206,0.0002 -2.69194,-0.00594c-0.05582,0.00674 -0.11502,0.00746 -0.17593,-0.00119c-0.46316,-0.00307 -0.92711,-0.00564 -1.39199,-0.00564zM259.89381,188.0007c0,-0.06606 0.00582,-0.1263 0.01643,-0.18123c-1.74376,-0.07545 -3.46533,-0.17202 -5.12072,-0.23092c-0.09628,0.21597 -0.19562,0.43155 -0.29799,0.6464c1.79876,0.07273 3.62167,0.02952 5.42697,-0.01515c-0.01582,-0.0648 -0.0247,-0.13751 -0.0247,-0.2191z" fill="#580000" stroke-width="0.5"/></g></g></svg>