<svg version="1.1" xmlns="http://www.w3.org/2000/svg" xmlns:xlink="http://www.w3.org/1999/xlink" width="41.80801" height="38.61343" viewBox="0,0,41.80801,38.61343"><g transform="translate(-219.40522,-159.96241)"><g data-paper-data="{&quot;isPaintingLayer&quot;:true}" fill-rule="nonzero" stroke-linejoin="miter" stroke-miterlimit="10" stroke-dasharray="" stroke-dashoffset="0" style="mix-blend-mode: normal"><path d="M219.40522,169.40274l0.00056,-0.00084l-0.00056,-0.00037v-0.03711l0.03182,-0.02875c0.00319,-0.1357 0.00585,-0.26956 0.00746,-0.40201c0.23979,-0.60027 0.2601,-1.29196 0.15375,-1.97071c0.05577,-0.07237 0.05577,-0.16433 0.05577,-0.16433v-0.07907c0,-1.04656 0.07907,-2.07861 0.07907,-3.12312c0,0 0,-0.05364 -0.02484,-0.11122c0.37877,-0.77208 0.73292,-1.5464 1.21264,-2.25782c0.59352,-0.46108 1.2237,-0.76697 1.95872,-1.11086l34.60575,0c1.20367,0.78908 2.30601,2.13218 3.01189,3.0838c0.23645,0.47626 0.44184,0.95508 0.6231,1.44011l0,30.82555c-0.44121,0.86008 -0.76225,1.74053 -1.18218,2.59039c-0.17442,0.13993 -0.35107,0.27799 -0.52693,0.41604c-0.11774,0.04403 -0.23905,0.07734 -0.36263,0.10341l-26.98768,0c-0.07316,-0.08893 -0.19867,-0.08893 -0.19867,-0.08893c-0.99781,0 -2.22588,0 -3.22368,0c0,0 -0.12551,0 -0.19867,0.08893l-1.74213,0c-1.52913,-0.32675 -3.10981,-0.1497 -4.6695,-0.05714c-0.583,-0.02059 -1.16792,-0.03179 -1.75593,-0.03179c0,0 -0.01825,0 -0.04488,0.00493c-0.33275,-0.49841 -0.53197,-1.1094 -0.82223,-1.65012z" fill="#7c4e00" stroke="none" stroke-width="0" stroke-linecap="butt"/><path d="" fill="#7c4e00" stroke="none" stroke-width="0" stroke-linecap="butt"/><path d="M261.12034,163.34598c-0.00404,-0.00867 -0.00808,-0.01735 -0.01214,-0.02602c0.00398,0.00209 0.00803,0.00408 0.01214,0.00597z" fill="#7c4e00" stroke="none" stroke-width="0" stroke-linecap="butt"/><path d="" fill="#7c4e00" stroke="none" stroke-width="0" stroke-linecap="butt"/><path d="M260.86324,160.16853c-0.01057,-0.01753 -0.02111,-0.03486 -0.03164,-0.052h0.01855c0.00461,0.0176 0.00895,0.03492 0.01308,0.052z" fill="#7c4e00" stroke="none" stroke-width="0" stroke-linecap="butt"/><path d="" fill="#7c4e00" stroke="none" stroke-width="0" stroke-linecap="butt"/><path d="M223.32974,168.39655c-0.25,0 -0.25,-0.25 -0.25,-0.25v-0.30172c0,-0.37127 -0.00022,-0.74226 0.00669,-1.11347c0.51211,-1.02422 1.56293,-5.43715 1.12273,-6.66262c0.15345,0.01709 0.3288,-0.00695 0.49766,-0.03711c0.34961,1.54442 -0.57144,5.68999 -1.13376,6.81461c0.00912,0.33286 0.00668,0.66564 0.00668,0.9986v0.30172c0,0 0,0.25 -0.25,0.25z" fill="#654400" stroke="none" stroke-width="0.5" stroke-linecap="butt"/><path d="M227.70474,168.24569c-0.25,0 -0.25,-0.25 -0.25,-0.25v-0.30173c0,-2.56696 0.75431,-4.87943 0.75431,-7.39224c0,0 0,-0.25 0.25,-0.25c0.25,0 0.25,0.25 0.25,0.25c0,2.52067 -0.75431,4.82402 -0.75431,7.39224v0.30173c0,0 0,0.25 -0.25,0.25z" fill="#654400" stroke="none" stroke-width="0.5" stroke-linecap="butt"/><path d="M232.23061,168.24569c-0.25,0 -0.25,-0.24602 -0.25,-0.24602c0,-0.24743 0,-0.64333 0,-0.89076c0.01089,-0.81742 0.55652,-1.36668 0.761,-2.13497c0.3508,-1.31804 -0.24477,-3.37681 -0.74312,-4.60284c0,0 -0.09285,-0.22842 0.13927,-0.31979c0.23212,-0.09137 0.32497,0.13705 0.32497,0.13705c0.54349,1.33708 1.11841,3.45807 0.7655,4.89862c-0.17396,0.71007 -0.76025,1.28741 -0.74762,2.02192c0,0.24743 0,0.49487 0,0.74231v0.14846c0,0 0,0.24602 -0.25,0.24602z" fill="#654400" stroke="none" stroke-width="0.5" stroke-linecap="butt"/><path d="M237.51078,168.39655c-0.25,0 -0.25,-0.24805 -0.25,-0.24805c0,-0.19958 0,-0.54884 0,-0.74841c0,-2.12504 0.54624,-5.15874 -0.42619,-7.07384c0,0 -0.11181,-0.22186 0.1118,-0.33279c0.2236,-0.11093 0.33541,0.11093 0.33541,0.11093c1.00978,2.01752 0.47898,5.06557 0.47898,7.29569c0,0.19958 0,0.39915 0,0.59873v0.14968c0,0 0,0.24805 -0.25,0.24805z" fill="#654400" stroke="none" stroke-width="0.5" stroke-linecap="butt"/><path d="M242.33836,168.39655c-0.25,0 -0.25,-0.24511 -0.25,-0.24511v-0.14791c0,-0.22776 0.00276,-0.45552 0.00669,-0.68325c-1.06724,-1.99042 0.54894,-5.20608 -1.14036,-6.83494c0,0 -0.17677,-0.17333 0,-0.34665c0.17677,-0.17332 0.35355,0 0.35355,0c1.80185,1.79125 0.22584,4.92946 1.27343,7.06895c0.00355,0.26528 0.00669,0.53058 0.00669,0.79589v0.14791c0,0 0,0.24511 -0.25,0.24511z" fill="#654400" stroke="none" stroke-width="0.5" stroke-linecap="butt"/><path d="M246.5625,168.24569c-0.25,0 -0.25,-0.25 -0.25,-0.25v-0.30173c0,-2.42296 0.21482,-5.10973 -0.87878,-7.28043c0,0 -0.1118,-0.22361 0.11181,-0.33542c0.2236,-0.11181 0.33541,0.11181 0.33541,0.11181c1.12362,2.26265 0.93157,4.98938 0.93157,7.50404v0.30173c0,0 0,0.25 -0.25,0.25z" fill="#654400" stroke="none" stroke-width="0.5" stroke-linecap="butt"/><path d="M251.69181,167.64224c-0.25,0 -0.25,-0.24357 -0.25,-0.24357v-0.29396c0,-2.02646 0.33674,-5.03544 -1.28454,-6.58883c0,0 -0.17677,-0.17223 0,-0.34446c0.17677,-0.17223 0.35356,0 0.35356,0c1.72519,1.7042 1.43098,4.72771 1.43098,6.93328v0.29396c0,0 0,0.24357 -0.25,0.24357z" fill="#654400" stroke="none" stroke-width="0.5" stroke-linecap="butt"/><path d="M255.01078,167.49138c-0.25,0 -0.25,-0.25 -0.25,-0.25v-0.30173c0,-1.29107 -0.30006,-5.81141 -1.67215,-6.41432c0,0 -0.22361,-0.11181 -0.11181,-0.33541c0.11181,-0.2236 0.33541,-0.11181 0.33541,-0.11181c1.62329,0.87514 1.94854,5.22828 1.94854,6.86154v0.30173c0,0 0,0.25 -0.25,0.25z" fill="#654400" stroke="none" stroke-width="0.5" stroke-linecap="butt"/><path d="M258.93319,167.64224c-0.25,0 -0.25,-0.25 -0.25,-0.25l0.07322,0.02592c-1.66902,-1.69226 -0.47566,-4.80864 -1.84159,-6.8269c0,0 -0.13867,-0.20801 0.06934,-0.34669c0.20801,-0.13868 0.34668,0.06933 0.34668,0.06933c1.27067,1.93076 0.23399,5.23116 1.77911,6.7507l0.07323,0.32763c0,0 0,0.25 -0.25,0.25z" fill="#654400" stroke="none" stroke-width="0.5" stroke-linecap="butt"/><path d="M240.4318,172.4746c-2.78904,0.74549 -3.80528,-1.92038 -3.96543,-3.33747c-0.58872,-0.00597 -1.17724,-0.00969 -1.76548,-0.00969c-4.74741,-0.00251 -9.48737,-0.28374 -14.22808,-0.28906c-0.11582,0.07322 -0.25307,0.1156 -0.40022,0.1156c-0.21775,0 -0.41382,-0.0928 -0.55084,-0.241c0.10867,-0.35832 0.14794,-0.74291 0.13566,-1.1337c0.01251,-0.00833 0.02527,-0.01629 0.03829,-0.02387c0.22218,-0.21707 0.55034,-0.21707 0.55034,-0.21707c4.8182,0.00341 9.63006,0.2915 14.45485,0.2891c5.95129,0 11.93196,0.38759 17.84946,-0.40102c2.55372,-0.17074 5.21179,-0.5977 7.75732,-0.63718c0.20404,-0.09784 0.51534,-0.15199 0.82663,0.1593c0.0295,0.0295 0.05571,0.05899 0.07892,0.0884c-0.02414,0.31667 -0.04822,0.63459 -0.05957,0.9512c-0.01204,0.01376 -0.01935,0.02106 -0.01935,0.02106l-0.58815,0.27749c-2.55149,-0.01843 -5.27525,0.46137 -7.84671,0.6323c-3.48469,0.46485 -6.99101,0.52607 -10.50045,0.49655c0.01287,1.17894 -1.0118,3.05715 -1.7672,3.25906z" fill="#ad8a00" stroke="none" stroke-width="0.5" stroke-linecap="butt"/><path d="M239.36882,171.12652c-0.25,0 -0.25,-0.25 -0.25,-0.25v-0.04038c0,-0.35431 0.02129,-0.70356 0.03296,-1.05495c-0.06726,-0.03303 -0.13052,-0.07754 -0.18764,-0.12997c-0.12349,-0.01497 -0.21827,-0.11733 -0.24208,-0.35345c-0.11174,-0.28979 -0.04907,-0.60221 0.34052,-0.68216c0.60535,-0.12422 0.75638,0.07256 0.69297,0.32699c0.29765,0.18953 0.41882,0.52847 -0.06683,0.82165c-0.01232,0.00744 -0.02467,0.01432 -0.03705,0.02066c-0.01169,0.35023 -0.03284,0.69825 -0.03284,1.05123v0.04038c0,0 0,0.25 -0.25,0.25z" fill="#000000" stroke="none" stroke-width="0.5" stroke-linecap="butt"/><path d="M225.54986,192.87894c-0.01113,-2.5837 0.45931,-4.99502 0.45931,-7.57405c0,-2.95589 0.61404,-5.8606 0.61404,-8.78728c0.00402,-2.45591 0.76754,-4.85574 0.76754,-7.25439c0,0 0,-0.25 0.25,-0.25c0.25,0 0.25,0.25 0.25,0.25c0,2.4054 -0.77192,4.79339 -0.76754,7.25439c0,2.92773 -0.61404,5.83127 -0.61404,8.78728c0,2.59467 -0.45221,5.02546 -0.46174,7.62332c-0.30747,1.53734 -0.54627,3.91131 -0.21409,5.51316c-0.17064,-0.01751 -0.34174,-0.03022 -0.51321,-0.03893c-0.29351,-1.66293 -0.08339,-3.9579 0.22973,-5.52349z" fill="#654400" stroke="none" stroke-width="0.5" stroke-linecap="butt"/><path d="M223.189,168.95621l-0.92097,29.34832" fill="none" stroke="#654400" stroke-width="0.5" stroke-linecap="round"/><path d="M232.09251,169.33998l-2.21853,28.94756" fill="none" stroke="#654400" stroke-width="0.5" stroke-linecap="round"/><path d="M236.92803,171.02857l-2.22588,27.23518" fill="none" stroke="#654400" stroke-width="0.5" stroke-linecap="round"/><path d="M242.30084,169.10971l-1.61184,29.16667" fill="none" stroke="#654400" stroke-width="0.5" stroke-linecap="round"/><path d="M246.67584,169.26322l-1.15132,29.01316" fill="none" stroke="#654400" stroke-width="0.5" stroke-linecap="round"/><path d="M251.81839,168.87945l-1.45833,29.32018" fill="none" stroke="#654400" stroke-width="0.5" stroke-linecap="round"/><path d="M255.27233,168.72594l-0.8443,29.01316" fill="none" stroke="#654400" stroke-width="0.5" stroke-linecap="round"/><path d="M258.72628,168.18866l-0.38377,28.16886l-0.38377,0.76754l-0.30702,0.99781" fill="none" stroke="#654400" stroke-width="0.5" stroke-linecap="round"/></g></g></svg>