<svg version="1.1" xmlns="http://www.w3.org/2000/svg" xmlns:xlink="http://www.w3.org/1999/xlink" width="55.19305" height="11.82355" viewBox="0,0,55.19305,11.82355"><g transform="translate(-119.62741,-175.68537)"><g data-paper-data="{&quot;isPaintingLayer&quot;:true}" fill-rule="nonzero" stroke-linecap="butt" stroke-linejoin="miter" stroke-miterlimit="10" stroke-dasharray="" stroke-dashoffset="0" style="mix-blend-mode: normal"><path d="M131.87437,186.81926c-2.09248,0.00185 -6.36078,1.01233 -8.37756,-0.34034c-0.35016,0.28171 -0.79482,0.44134 -1.34733,0.44134c-0.67185,0 -1.27492,-0.52492 -1.75,-1c-0.091,-0.091 -0.16884,-0.18797 -0.23505,-0.2902c3.41289,-1.59172 5.77816,-5.05351 5.77816,-9.06773c0,-0.20536 -0.00619,-0.40928 -0.01839,-0.61157c0.42328,-0.04929 0.84754,-0.1044 1.26753,-0.16564c0.71871,0.0922 1.43255,0.16962 2.12313,0.16658c1.29083,-0.00567 2.58164,-0.01638 3.87245,-0.02882c0.80109,3.35222 1.42805,7.29527 1.48661,10.90166c-0.93077,-0.00418 -1.86381,-0.0061 -2.79954,-0.00527z" fill="#b85000" stroke="none" stroke-width="0.5"/><path d="M174.31962,176.26788l-0.0183,10.74019l-54.17305,-0.0923l0.00175,-1.02723c3.56876,-1.5271 6.06927,-5.07047 6.06927,-9.19787c0,-0.08582 -0.00108,-0.17139 -0.00323,-0.2567c0.00025,-0.00988 0.00048,-0.01978 0.0007,-0.02967c0.02426,-0.0724 0.04771,-0.14517 0.07035,-0.2183z" fill-opacity="0.53333" fill="#00a67e" stroke="#827700" stroke-width="1"/></g></g></svg>