<svg version="1.1" xmlns="http://www.w3.org/2000/svg" xmlns:xlink="http://www.w3.org/1999/xlink" width="34.92532" height="32.52519" viewBox="0,0,34.92532,32.52519"><g transform="translate(-220.20444,-161.90268)"><g data-paper-data="{&quot;isPaintingLayer&quot;:true}" fill-rule="nonzero" stroke-linecap="butt" stroke-linejoin="miter" stroke-miterlimit="10" stroke-dasharray="" stroke-dashoffset="0" style="mix-blend-mode: normal"><path d="M245.11563,186.82055c-8.26048,7.10878 -18.29173,8.99648 -22.40544,4.21631c-4.11371,-4.78017 -0.75208,-14.41807 7.50839,-21.52685c8.26047,-7.10878 18.29174,-8.99648 22.40545,-4.21631c4.11371,4.78017 0.75208,14.41807 -7.50839,21.52685z" fill="#c22121" stroke="#000000" stroke-width="1.5"/><path d="M248.70655,173.85388c-0.04084,-0.20422 -0.03065,-0.37441 0.0111,-0.5159c-1.8485,-0.33158 -3.80626,-4.18088 -4.63853,-5.29057c0,0 -0.6,-0.8 0.2,-1.4c0.8,-0.6 1.4,0.2 1.4,0.2c0.76515,1.02021 1.26397,2.64166 2.11078,3.4989c0.43645,0.44182 1.51826,0.59083 1.96068,0.823c1.38544,0.72703 1.18757,1.10235 1.87237,2.64502l-1.7397,0.82401c0,0 -0.98058,0.19612 -1.17669,-0.78446z" fill="#781414" stroke="none" stroke-width="0.5"/><path d="M244.53029,178.32403l-0.00596,-0.00438c-1.69142,-2.25522 -3.8052,-4.46588 -4.43214,-7.27044c0,0 -0.19611,-0.98058 0.78447,-1.17669c0.98058,-0.19611 1.1767,0.78446 1.1767,0.78446c0.38619,2.37336 2.56477,4.46278 3.98188,6.35227l0.04588,0.45654l-0.07347,0.04412l0.07347,1.95588l-1.49624,-1.10156l-0.0122,0.00733c0,0 -0.01669,-0.0167 -0.04239,-0.04752z" fill="#781414" stroke="none" stroke-width="0.5"/><path d="M235.06276,176.86144c-1,0 -1,-1 -1,-1l0.14251,0.11383c-1.07441,-1.79551 -2.4991,-3.25652 -3.74885,-4.92284c0,0 -0.6,-0.8 0.2,-1.4c0.8,-0.6 1.4,0.2 1.4,0.2c1.29155,1.72206 2.74775,3.23829 3.86384,5.09386l0.1425,0.91516c0,0 0,1 -1,1z" fill="#781414" stroke="none" stroke-width="0.5"/><path d="M237.86743,185.87646c-1,0 -1,-1 -1,-1l0.2,-0.20134c-0.39613,-0.53116 -0.83981,-1.02814 -1.30945,-1.49556c0,0 -0.70711,-0.7071 0,-1.41421c0.70711,-0.70711 1.41422,0 1.41422,0c0.53424,0.53648 1.03954,1.10514 1.49523,1.70977l0.2,1.40134c0,0 0,1 -1,1z" fill="#781414" stroke="none" stroke-width="0.5"/><path d="M231.50329,186.17156c-0.89443,0.44721 -1.34164,-0.44721 -1.34164,-0.44721l-0.21335,-0.54145c-0.53424,-0.53648 -1.03954,-1.10515 -1.49523,-1.70978c0,0 -0.6,-0.8 0.2,-1.4c0.8,-0.6 1.4,0.2 1.4,0.2c0.39613,0.53116 0.8398,1.02814 1.30944,1.49556l0.58799,1.06123c0,0 0.44721,0.89443 -0.44721,1.34164z" fill="#781414" stroke="none" stroke-width="0.5"/><path d="M229.75985,192.39492c-0.70711,0.70711 -1.41422,0 -1.41422,0l-0.81304,-0.91419c-1.20453,-2.8364 -1.5799,-4.09233 -3.79464,-6.29783c0,0 -0.70711,-0.70711 0,-1.41421c0.70711,-0.70711 1.41421,0 1.41421,0c2.31465,2.32564 2.94903,3.99226 4.21872,6.92421l0.38896,0.28781c0,0 0.70711,0.70711 0,1.41422z" fill="#781414" stroke="none" stroke-width="0.5"/></g></g></svg>