<svg version="1.1" xmlns="http://www.w3.org/2000/svg" xmlns:xlink="http://www.w3.org/1999/xlink" width="34.04944" height="18.15881" viewBox="0,0,34.04944,18.15881"><g transform="translate(-213.43136,-168.18341)"><g data-paper-data="{&quot;isPaintingLayer&quot;:true}" fill-rule="nonzero" stroke="none" stroke-linecap="butt" stroke-linejoin="miter" stroke-miterlimit="10" stroke-dasharray="" stroke-dashoffset="0" style="mix-blend-mode: normal"><path d="M229.97207,173.10957l-0.51684,-0.3162c-0.26731,-0.06528 -0.52613,-0.14855 -0.77778,-0.24687c0.0089,0.08233 -0.00579,0.17788 -0.06019,0.28667c-0.05097,0.10194 -0.11356,0.16902 -0.17982,0.21185c0.19397,0.1031 0.38673,0.20254 0.5776,0.29797l0.12428,0.06214c0,0 0.44721,0.22361 0.22361,0.67082c-0.16342,0.32684 -0.44628,0.29538 -0.5867,0.25476c-0.14372,0.21384 -0.43006,0.20794 -0.43006,0.20794l-0.43047,-0.01045c-0.14412,-0.01449 -0.28618,-0.02955 -0.42634,-0.04544c-0.00037,0.02998 -0.00255,0.05813 -0.00633,0.08457c0.14278,0.04952 0.31708,0.17043 0.31708,0.46565c0,0.13244 -0.03508,0.2298 -0.08666,0.30137c0.07532,0.0019 0.15045,0.00413 0.22539,0.00673l0.47977,-0.0003c0,0 0.5,0 0.5,0.5c0,0.5 -0.5,0.5 -0.5,0.5l-0.51445,-0.0003c-1.43135,-0.04968 -2.92311,0.02558 -4.40641,0.03083c-0.05483,0.05532 -0.10368,0.08463 -0.10368,0.08463l-0.27993,0.11607c1.03011,0.00028 2.05375,-0.05059 3.00534,-0.0506h0.62139c0,0 0.5,0 0.5,0.5c0,0.5 -0.5,0.5 -0.5,0.5h-0.62139c-0.31261,0 -0.62993,0.00404 -0.95051,0.00933c0.99877,0.05242 2.01556,-0.02131 2.8838,-0.06214l0.5963,-0.18083c0,0 0.4793,-0.14238 0.62168,0.33692c0.14238,0.4793 -0.33692,0.62168 -0.33692,0.62168l-0.71226,0.20788c-1.0645,0.05694 -2.26361,0.13287 -3.42586,0.03804c-0.09615,0.33403 -0.47825,0.33403 -0.47825,0.33403l-0.17701,-0.00279c-0.82421,-0.0876 -1.62994,-0.17882 -2.41476,-0.3069c0.30942,0.21361 0.63538,0.39828 0.97377,0.55413c0.0458,0.0001 0.10675,0.005 0.17048,0.02371c1.33112,-0.02828 2.66495,-0.14965 3.80878,-0.14965l0.125,-0.08852c0,0 0.40293,-0.16117 0.60818,0.19217c0.46173,-0.10045 0.83589,-0.19202 1.06491,-0.25242l0.37726,-0.22033c0,0 0.43412,-0.24807 0.68219,0.18605c0.24807,0.43412 -0.18605,0.68219 -0.18605,0.68219l-0.49268,0.27678c-0.02109,0.00573 -0.04252,0.01154 -0.06426,0.01741c-0.04841,0.19365 -0.22158,0.3091 -0.22158,0.3091l-0.51197,0.31305c-0.28967,0.08174 -0.58206,0.14869 -0.87582,0.20074c-0.02229,0.30974 -0.35167,0.41599 -0.35167,0.41599l-0.52387,0.15973c-0.07956,0.00989 -0.15925,0.01955 -0.23905,0.02894c-0.00971,0.16255 -0.11164,0.27606 -0.19097,0.34052c0.01219,0.02529 0.02329,0.05292 0.0331,0.08308c0.15465,0.47548 -0.32084,0.63013 -0.32084,0.63013l-0.48339,0.157c-0.08124,0.02366 -0.16278,0.04684 -0.24461,0.06953c1.73087,-0.13439 3.40768,-0.89946 4.94531,-1.69889l0.53979,-0.21385c0,0 0.46506,-0.18363 0.64869,0.28143c0.18363,0.46506 -0.28143,0.64869 -0.28143,0.64869l-0.49214,0.1936c-0.85105,0.44283 -1.73713,0.86338 -2.64926,1.18723c-0.0573,0.03674 -0.10255,0.05319 -0.10255,0.05319l-0.24868,0.09045c-2.22179,0.80583 -4.61954,1.00231 -6.88996,0.40393c-0.57601,0.02139 -1.14091,-0.01475 -1.67534,-0.13031c-0.33035,0.00087 -0.65999,-0.00463 -0.98816,-0.01643c-0.872,0.0546 -1.73771,0.0566 -2.58628,-0.0083c0,0 -0.49853,-0.03835 -0.46018,-0.53688c0.02123,-0.27602 0.18353,-0.38746 0.32418,-0.43195c0.15669,-0.25604 0.48898,-0.21173 0.48898,-0.21173c0.39768,0.05326 0.80175,0.09659 1.21032,0.12973c-0.06285,-0.13127 -0.08998,-0.32013 0.0872,-0.52262c0.32925,-0.37629 0.70554,-0.04704 0.70554,-0.04704c0.27603,0.25435 0.59693,0.44031 0.94972,0.57024c1.58268,-0.15502 3.17733,-0.47596 4.71145,-0.86784c-0.45195,-0.01746 -0.90048,-0.05876 -1.34235,-0.13091c-2.00056,0.0047 -4.00511,0.08872 -5.89013,-0.65726c0,0 -0.46424,-0.1857 -0.27854,-0.64993c0.01032,-0.0258 0.0215,-0.0496 0.03342,-0.07153c-0.6461,-0.13173 -1.27819,-0.32271 -1.88497,-0.59078c0,0 -0.45691,-0.20307 -0.25384,-0.65998c0.20307,-0.45691 0.65998,-0.25384 0.65998,-0.25384c0.31814,0.14235 0.64507,0.26041 0.97843,0.35758c-0.15638,-0.137 -0.30429,-0.28515 -0.44263,-0.44522c0,0 -0.3254,-0.37963 0.05423,-0.70502c0.05013,-0.04297 0.09932,-0.07365 0.14694,-0.09453c-0.1171,-0.08954 -0.30618,-0.296 -0.14448,-0.61939c0.22361,-0.44721 0.67082,-0.22361 0.67082,-0.22361c1.38948,0.6952 2.92972,1.46885 4.50471,1.55495c-1.37046,-0.37765 -2.66469,-0.96561 -3.86777,-1.9664c0,0 -0.38411,-0.32009 -0.06402,-0.7042c0.32009,-0.38411 0.7042,-0.06402 0.7042,-0.06402c0.0279,0.02329 0.05586,0.04634 0.08387,0.06914c0.01522,-0.03242 0.03471,-0.06577 0.05911,-0.09993c0.29062,-0.40687 0.69749,-0.11625 0.69749,-0.11625c0.97685,0.70433 2.13003,1.04489 3.34383,1.20173c0.01536,-0.03141 0.03527,-0.06324 0.06052,-0.09524c-0.13824,-0.04025 -0.27515,-0.08323 -0.41082,-0.12881c-0.41093,-0.05105 -0.81738,-0.11854 -1.21775,-0.207c0,0 -0.4068,-0.0904 -0.39511,-0.47753c-0.98889,-0.50643 -1.92399,-1.14199 -2.84608,-1.85125c0,0 -0.39631,-0.30486 -0.09146,-0.70117c0.30486,-0.39631 0.70117,-0.09146 0.70117,-0.09146c1.28712,0.99014 2.59829,1.84197 4.07023,2.35237c0.20662,0.02507 0.41453,0.04582 0.6235,0.06288c-0.89459,-0.37863 -1.75291,-0.88883 -2.63035,-1.55961c0,0 -0.39718,-0.30373 -0.09345,-0.7009c0.10502,-0.13734 0.22122,-0.19087 0.3283,-0.20214c-0.44908,-0.41146 -0.9027,-0.84797 -1.39078,-1.30347c0,0 -0.36553,-0.34116 -0.02437,-0.70669c0.34116,-0.36553 0.70669,-0.02437 0.70669,-0.02437c0.07203,0.06724 0.14321,0.1341 0.21364,0.20056c-0.02545,-0.11776 -0.00716,-0.2615 0.12527,-0.41284c0.32925,-0.37629 0.70554,-0.04704 0.70554,-0.04704c0.11684,0.10223 0.23364,0.20702 0.35069,0.31344c0.02213,-0.03454 0.05013,-0.06941 0.085,-0.10429c0.35355,-0.35355 0.70711,0 0.70711,0c0.54312,0.54351 1.16356,1.02947 1.83319,1.45224c0.01669,-0.04681 0.04209,-0.09576 0.07835,-0.14653c0.04154,-0.05816 0.08546,-0.10207 0.13023,-0.13461c-0.8481,-0.43114 -1.63401,-0.96999 -2.31391,-1.64463c0,0 -0.35355,-0.35355 0,-0.70711c0.35355,-0.35355 0.70711,0 0.70711,0c0.95143,0.96034 2.16437,1.61278 3.45991,2.0616c-0.58894,-0.43316 -1.14921,-0.88162 -1.66009,-1.33434c0,0 -0.3737,-0.33218 -0.04152,-0.70589c0.33218,-0.3737 0.70589,-0.04152 0.70589,-0.04152c0.16924,0.15095 0.34425,0.30127 0.52419,0.45056c-0.19852,-0.309 -0.39597,-0.61787 -0.59344,-0.92498c0,0 -0.27038,-0.42059 0.15021,-0.69097c0.42059,-0.27038 0.69097,0.15021 0.69097,0.15021c0.14358,0.22339 0.28711,0.44781 0.43105,0.67258c0.01721,-0.03143 0.03873,-0.06351 0.06522,-0.09611c0.3153,-0.38806 0.70335,-0.07276 0.70335,-0.07276c0.24865,0.20203 0.49755,0.41095 0.74895,0.61979c-0.13132,-0.23798 -0.2712,-0.47195 -0.42391,-0.70005c0,0 -0.27735,-0.41603 0.13868,-0.69338c0.41603,-0.27735 0.69338,0.13868 0.69338,0.13868c0.24191,0.36428 0.45259,0.74167 0.64836,1.12568c0.02614,-0.03676 0.05953,-0.07344 0.10155,-0.10946c0.37963,-0.3254 0.70502,0.05423 0.70502,0.05423c0.10666,0.1246 0.20773,0.2437 0.30926,0.35647c0.01804,-0.01786 0.03814,-0.03553 0.0605,-0.05292c0.39468,-0.30697 0.70165,0.08771 0.70165,0.08771c0.05422,0.07021 0.10982,0.1395 0.16677,0.20772c-0.03248,-0.14078 -0.01726,-0.32804 0.19491,-0.48717c0.4,-0.3 0.7,0.1 0.7,0.1c0.23348,0.31134 0.46418,0.62481 0.69039,0.94146l0.19524,0.18562c0,0 0.35355,0.35355 0,0.70711c-0.24852,0.24852 -0.49705,0.14766 -0.62277,0.0658c-0.01921,0.04568 -0.04718,0.09301 -0.08601,0.14155c-0.03506,0.04382 -0.0711,0.07879 -0.10746,0.10634c0.01007,0.02146 0.02006,0.04302 0.02998,0.06466c0.03818,0.0051 0.07655,0.00975 0.11509,0.01393l0.00692,-0.00306c0,0 0.5,0 0.5,0.5c0,0.35417 -0.25088,0.45747 -0.39721,0.4876c-0.14311,0.19882 -0.41348,0.19882 -0.41348,0.19882zM226.07661,173.14954l-0.00435,-0.00447c-0.60932,-0.12733 -1.2168,-0.28459 -1.81037,-0.47954c0.8877,0.41675 1.78944,0.62087 2.79841,0.75747c-0.07649,-0.04432 -0.153,-0.08911 -0.2295,-0.13435c-0.06254,-0.01067 -0.12512,-0.02161 -0.18772,-0.03285c-0.30094,0.15927 -0.56646,-0.10625 -0.56646,-0.10625zM228.75425,171.50331c-0.43547,-0.22329 -0.76689,-0.49097 -1.07919,-0.80664c0.04631,0.09931 0.0927,0.19863 0.13944,0.29785c0.32771,0.20793 0.66617,0.39344 1.0192,0.54457c-0.00392,-0.00649 -0.00784,-0.01298 -0.01178,-0.01946zM225.22369,170.26956c0.32088,0.49168 0.64712,0.97988 0.98351,1.4573c0.32092,0.20937 0.64573,0.41222 0.97127,0.60698c0.06639,0.0106 0.13268,0.02087 0.19882,0.03084c-0.12126,-0.23316 -0.23592,-0.46892 -0.34778,-0.70564c-0.62425,-0.42109 -1.21688,-0.90511 -1.80582,-1.38948zM217.59497,178.87348c-0.00506,-0.06634 0.00522,-0.141 0.03888,-0.22397c-0.66725,-0.22982 -1.31892,-0.52038 -1.953,-0.82575c0.52026,0.50021 1.18347,0.83391 1.91412,1.04971zM218.93106,180.161c-0.01109,-0.0084 -0.02471,-0.01935 -0.0397,-0.03274c-0.1578,-0.01853 -0.31493,-0.04026 -0.47096,-0.06546c-0.15732,0.00009 -0.31475,-0.00174 -0.47214,-0.00572c0.3249,0.04946 0.65292,0.08238 0.98279,0.10392z" fill="#668cff" stroke-width="0.5"/><path d="M229.48373,174.67827c0.23043,0.44373 -0.2133,0.67417 -0.2133,0.67417l-0.45646,0.18658c-1.78983,0.09366 -4.18355,0.34205 -5.71922,-0.72056c0,0 -0.18651,-0.13322 -0.21678,-0.34555c-1.45139,-0.252 -2.80074,-0.72373 -4.27386,-1.55183c0,0 -0.43579,-0.24513 -0.19066,-0.68092c0.24513,-0.43579 0.68092,-0.19066 0.68092,-0.19066c1.05198,0.5921 2.02715,0.98647 3.02828,1.24307c-0.12252,-0.09512 -0.24616,-0.19721 -0.37145,-0.30672c0,0 -0.37629,-0.32925 -0.04704,-0.70554c0.32925,-0.37629 0.70554,-0.04704 0.70554,-0.04704c1.1463,1.00413 2.04853,1.24494 3.42234,1.30471c-1.26508,-0.27366 -2.47808,-0.77152 -3.54121,-1.51303c0,0 -0.40962,-0.28673 -0.12288,-0.69635c0.28673,-0.40962 0.69635,-0.12288 0.69635,-0.12288c0.58612,0.41192 1.22768,0.73992 1.90097,0.98833c-0.4118,-0.37817 -0.81436,-0.76718 -1.22193,-1.14339c0,0 -0.3674,-0.33914 -0.02826,-0.70654c0.33914,-0.3674 0.70654,-0.02826 0.70654,-0.02826c0.83162,0.76766 1.64148,1.60147 2.56235,2.26042l0.25425,0.15073c0.11578,0.0131 0.23172,0.02423 0.34772,0.03342c-1.00882,-0.72507 -1.88836,-1.70395 -2.59855,-2.6471c0,0 -0.3,-0.4 0.1,-0.7c0.4,-0.3 0.7,0.1 0.7,0.1c0.9028,1.20913 2.1821,2.59671 3.62816,3.12519l0.23319,0.04001c0,0 0.49029,0.09806 0.39223,0.58835c-0.09806,0.49029 -0.58835,0.39223 -0.58835,0.39223l-0.3882,-0.08426c-0.0394,-0.01507 -0.07866,-0.03063 -0.11778,-0.04664c-0.12495,0.2649 -0.45232,0.2649 -0.45232,0.2649h-0.06214c-0.22379,-0.00034 -0.44785,-0.00705 -0.67167,-0.02022c-0.01709,0.26827 -0.28536,0.40241 -0.28536,0.40241l-0.73012,0.3501c-0.00384,0.00005 -0.00767,0.0001 -0.0115,0.00015c-0.04224,0.05899 -0.09566,0.10054 -0.14998,0.12982c0.85097,0.00563 1.70691,-0.07955 2.37792,-0.11497l0.04808,-0.07543c0,0 0.44373,-0.23043 0.67417,0.2133z" fill="#66ff67" stroke-width="0.5"/><path d="M231.1556,171.55321c0,0.5 -0.5,0.5 -0.5,0.5l-0.59681,-0.05297c-0.57198,-0.28719 -1.12565,-0.61202 -1.66325,-0.95932c0,0 -0.41979,-0.27163 -0.14816,-0.69141c0.27163,-0.41979 0.69141,-0.14816 0.69141,-0.14816c0.50637,0.32821 1.02821,0.63501 1.56796,0.90484l0.14885,-0.05297c0,0 0.5,0 0.5,0.5z" fill="#66ff67" stroke-width="0.5"/><path d="M228.73219,177.51853c0,0.1689 -0.05705,0.28075 -0.13262,0.35481c-0.06528,0.39374 -0.49166,0.39374 -0.49166,0.39374h-0.31069c-1.14776,0 -2.31179,0.10602 -3.41496,-0.18452c-2.17144,0.41155 -4.59186,0.66034 -6.01085,-0.70759c0,0 -0.35355,-0.35355 0,-0.70711c0.02698,-0.02698 0.05395,-0.04983 0.08077,-0.06905c-0.66326,-0.30184 -1.30472,-0.70962 -1.92219,-1.25306c0,0 -0.37492,-0.33081 -0.04411,-0.70573c0.33081,-0.37492 0.70573,-0.04411 0.70573,-0.04411c1.07073,0.94736 2.23229,1.42619 3.46112,1.64061c-0.04513,-0.07357 -0.07286,-0.17079 -0.06573,-0.2992c0.02774,-0.49923 0.52697,-0.4715 0.52697,-0.4715c1.84594,0.10256 3.6538,0.30992 5.50261,0.30992h0.62139c0,0 0.5,0 0.5,0.5c0,0.16097 -0.05182,0.27012 -0.1221,0.34413c0.0482,0.0359 0.09213,0.08472 0.12534,0.15092c0.11227,0.00906 0.23986,0.05569 0.33396,0.1948c0.03297,0.00708 0.08976,0.02241 0.15075,0.05292h0.00627c0,0 0.5,0 0.5,0.5zM219.44311,176.96983c0.79982,0.5197 2.00526,0.55304 3.25353,0.40601c-1.12721,0.00618 -2.21428,-0.09446 -3.25353,-0.40601z" fill="#66ff67" stroke-width="0.5"/><path d="M225.54094,180.02335c0.35355,0.35355 0,0.70711 0,0.70711l-0.31972,0.24507c-2.45306,0.80772 -5.96971,1.14389 -8.33548,-0.02713c0,0 -0.44721,-0.22361 -0.22361,-0.67082c0.22361,-0.44721 0.67082,-0.22361 0.67082,-0.22361c0.54023,0.27337 1.16192,0.45256 1.82426,0.55538c0.01062,-0.48389 0.49982,-0.48389 0.49982,-0.48389c1.40404,0.02605 3.04656,-0.793 4.54899,-0.91951l0.43296,-0.16715c0,0 0.46816,-0.17556 0.64373,0.2926c0.09991,0.26643 -0.00866,0.4381 -0.12078,0.53657c0.11392,-0.01033 0.24646,0.02283 0.37901,0.15538zM224.905,180.02684l-0.04939,-0.00242l-0.36336,0.13316c0.14157,-0.04198 0.27934,-0.08564 0.41275,-0.13074zM222.3951,180.60113c0.70884,-0.09444 1.39348,-0.2402 2.00965,-0.41796c-0.6666,0.06659 -1.34026,0.23872 -2.00965,0.41796z" fill="#66ff67" stroke-width="0.5"/><path d="M228.85646,181.4954c0,0.5 -0.5,0.5 -0.5,0.5l-0.1516,-0.02599c-2.46096,0.82591 -4.82491,1.88995 -7.37114,0.85827c0,0 -0.46234,-0.19037 -0.27196,-0.65271c0.19037,-0.46234 0.65271,-0.27196 0.65271,-0.27196c2.25397,0.94554 4.49437,-0.15064 6.67221,-0.88162l0.46978,-0.02599c0,0 0.5,0 0.5,0.5z" fill="#66ff67" stroke-width="0.5"/><path d="M230.8449,172.79598c0,0.5 -0.5,0.5 -0.5,0.5l-0.31057,-0.00386c-0.29568,-0.04409 -0.53686,-0.11318 -0.74387,-0.21003c-0.01001,0.18991 -0.09596,0.30184 -0.19379,0.36779c0.09414,0.46972 -0.37922,0.57896 -0.37922,0.57896l-0.21622,0.04835c0.04455,0.11038 0.04455,0.21012 0.04455,0.21012l-0.4178,0.55534c-1.11865,0.18398 -2.28525,0.15445 -3.40574,-0.08213c0.85417,0.50452 1.68259,0.45599 2.82643,0.45599h0.31069c0,0 0.5,0 0.5,0.5c0,0.00185 -0.00001,0.0037 -0.00002,0.00554c0.12151,0.0249 0.24998,0.10223 0.33243,0.29461c0.19696,0.45957 -0.26261,0.65653 -0.26261,0.65653l-0.63193,0.22684c-0.66899,-0.0009 -1.34821,-0.04668 -2.02764,-0.12476c-1.13863,-0.00536 -2.41143,-0.05874 -3.43495,-0.55325c-0.95381,0.29991 -1.78322,0.16258 -2.83066,-0.52446c0,0 -0.41603,-0.27735 -0.13868,-0.69338c0.27735,-0.41603 0.69338,-0.13868 0.69338,-0.13868c0.48441,0.32931 0.88332,0.49317 1.27746,0.5162c-0.03345,-0.12826 -0.02052,-0.29099 0.14221,-0.45373c0.35355,-0.35355 0.70711,0 0.70711,0c0.07055,0.0752 0.1477,0.14375 0.23052,0.20624c0.16898,-0.07734 0.34736,-0.17165 0.53948,-0.28163l0.28909,-0.18141c0,0 0.00095,-0.00059 0.00278,-0.00167c-0.00395,-0.09396 0.02339,-0.19992 0.1106,-0.30999c-0.71919,-0.27478 -1.39963,-0.64257 -2.01243,-1.1014c0,0 -0.4,-0.3 -0.1,-0.7c0.05906,-0.07874 0.12199,-0.13036 0.18498,-0.16248c-0.1353,-0.13987 -0.27251,-0.29127 -0.41317,-0.4549c0,0 -0.3254,-0.37963 0.05423,-0.70502c0.37963,-0.3254 0.70502,0.05423 0.70502,0.05423c0.94006,1.10022 1.57243,1.49825 2.76389,1.60491c-0.11105,-0.08366 -0.22518,-0.17145 -0.34355,-0.26345c0,0 -0.39468,-0.30697 -0.08771,-0.70165c0.30697,-0.39468 0.70165,-0.08771 0.70165,-0.08771c0.82923,0.64534 1.34734,1.06215 2.21945,1.27002c-1.21034,-0.51171 -2.1162,-1.36233 -3.08912,-2.4724c0,0 -0.32925,-0.37629 0.04704,-0.70554c0.37629,-0.32925 0.70554,0.04704 0.70554,0.04704c0.99655,1.14096 1.86533,1.96924 3.18999,2.38165c-0.55878,-0.42127 -1.06026,-0.85863 -1.4876,-1.45109c0,0 -0.29062,-0.40687 0.11625,-0.69749c0.40687,-0.29062 0.69749,0.11625 0.69749,0.11625c0.27341,0.38737 0.58863,0.6929 0.93385,0.97319c0.03348,-0.03845 0.07638,-0.07559 0.13073,-0.11018c0.42183,-0.26844 0.69027,0.15339 0.69027,0.15339c0.35284,0.57138 0.50807,0.89402 1.19365,0.95293l0.18654,-0.00386c0,0 0.5,0 0.5,0.5zM225.43018,173.8764c0.33191,0.04917 0.66664,0.07819 1.00098,0.08679c-0.20555,-0.06691 -0.39901,-0.14542 -0.58697,-0.23597zM224.02117,175.49453c-0.04121,-0.02713 -0.08248,-0.05529 -0.12384,-0.0845c-0.01681,0.01937 -0.0336,0.03631 -0.04913,0.0507c0.05758,0.01142 0.11524,0.02269 0.17298,0.0338z" fill="#1b981b" stroke-width="0.5"/><path d="M233.57889,172.74481c-0.01096,0.49988 -0.51084,0.48892 -0.51084,0.48892l-0.30622,-0.03852c-1.53545,-0.61418 -2.24846,-1.09787 -3.29366,-2.31081c0,0 -0.3254,-0.37963 0.05423,-0.70502c0.37963,-0.3254 0.70502,0.05423 0.70502,0.05423c0.95332,1.11741 1.48072,1.4631 2.9058,2.03313l-0.04325,-0.03276c0,0 0.49988,0.01096 0.48892,0.51084z" fill="#1b981b" stroke-width="0.5"/><path d="M247.48081,177.70494c0,4.77024 -4.89318,8.63728 -10.92922,8.63728c-6.03605,0 -10.92922,-3.86704 -10.92922,-8.63728c0,-4.77024 4.89318,-8.63728 10.92922,-8.63728c6.03605,0 10.92922,3.86704 10.92922,8.63728z" fill="#5a3e05" stroke-width="NaN"/><path d="M229.37948,182.13574c0.41603,0.27735 0.13868,0.69338 0.13868,0.69338l-0.33339,0.36425c-2.05029,0.92705 -5.89234,1.45165 -7.64428,-0.2259c0,0 -0.06709,-0.06709 -0.11359,-0.17204c-0.10981,-0.09185 -0.2081,-0.24798 -0.13951,-0.49949c0.13156,-0.48238 0.61394,-0.35082 0.61394,-0.35082c0.55191,0.15253 1.12234,0.2274 1.70078,0.2471c-0.32966,-0.07017 -0.64477,-0.17138 -0.93744,-0.31173c0,0 -0.44721,-0.22361 -0.22361,-0.67082c0.22361,-0.44721 0.67082,-0.22361 0.67082,-0.22361c0.18532,0.09806 0.38883,0.17279 0.60544,0.22829c-0.01567,-0.04849 -0.02414,-0.10021 -0.02414,-0.15391c0,-0.02192 0.00141,-0.04352 0.00415,-0.06469c-0.30347,-0.04303 -0.60519,-0.10839 -0.90504,-0.20663c0,0 -0.47434,-0.15811 -0.31623,-0.63246c0.15811,-0.47434 0.63246,-0.31623 0.63246,-0.31623c1.00379,0.3416 2.08582,0.2229 3.13524,0.2229h0.62139c0,0 0.5,0 0.5,0.5c0,0.5 -0.5,0.5 -0.5,0.5h-0.62139c-0.52115,0 -1.0382,0.01869 -1.55068,0.00712c-0.00197,0.10049 -0.03359,0.19371 -0.08647,0.27129c1.02918,0.05463 2.17725,-0.14345 3.05245,-0.27837l0.38672,-0.00581c0,0 0.5,0 0.5,0.5c0,0.00337 -0.00002,0.00673 -0.00007,0.01005c0.13878,0.02822 0.29595,0.11771 0.35797,0.36579c0.01305,0.0522 0.01908,0.10019 0.01944,0.14427c0.11749,-0.05177 0.27354,-0.0638 0.45636,0.05809z" fill="#668cff" stroke-width="0.5"/><path d="M228.22149,181.90321c0.4,0.3 0.1,0.7 0.1,0.7l-0.45758,0.43167c-2.07337,0.54987 -4.10023,0.71142 -6.02628,-0.35673c0,0 -0.43708,-0.24282 -0.19426,-0.6799c0.00816,-0.01469 0.01655,-0.02862 0.02513,-0.04181c-0.32865,-0.09319 -0.65569,-0.19216 -0.98139,-0.29493c0,0 -0.47679,-0.15057 -0.32623,-0.62736c0.02525,-0.07996 0.05967,-0.14227 0.09949,-0.19061c-0.01094,-0.07173 -0.00498,-0.15525 0.02724,-0.25191c0.15811,-0.47434 0.63246,-0.31623 0.63246,-0.31623c0.56398,0.19004 1.21508,0.3295 1.87961,0.38589c-0.00405,-0.07808 0.01349,-0.1669 0.06595,-0.26588c-1.27786,-0.29954 -2.24435,-0.60134 -3.12805,-1.1973c-1.44056,-0.11921 -2.81183,-0.55716 -3.91303,-1.56074c0,0 -0.3674,-0.33914 -0.02826,-0.70654c0.33914,-0.3674 0.70654,-0.02826 0.70654,-0.02826c0.53997,0.506 1.17363,0.84057 1.85914,1.04941c-0.03167,-0.03651 -0.06339,-0.07364 -0.09518,-0.11139c0,0 -0.32207,-0.38246 0.06039,-0.70452c0.38246,-0.32207 0.70452,0.06039 0.70452,0.06039c0.36603,0.43466 0.71488,0.77076 1.07279,1.03972c0.722,0.03447 1.46104,-0.01509 2.17852,-0.10656c-0.09855,-0.08802 -0.19263,-0.1819 -0.28173,-0.28184c0,0 -0.32925,-0.37629 0.04704,-0.70554c0.37629,-0.32925 0.70554,0.04704 0.70554,0.04704c0.26217,0.30695 0.59934,0.53785 0.98064,0.70312c0.09569,-0.01851 0.1904,-0.03727 0.284,-0.05617l0.33697,-0.15588c0,0 0.45957,-0.19696 0.65653,0.26261c0.04339,0.10124 0.05492,0.18973 0.04652,0.26618c0.88789,0.07648 1.82222,-0.06907 2.54956,-0.35097l0.07623,-0.04119c0,0 0.44721,-0.22361 0.67082,0.22361c0.22361,0.44721 -0.22361,0.67082 -0.22361,0.67082l-0.17232,0.08309c-0.00954,0.00349 -0.0191,0.00695 -0.02867,0.0104c0.65303,-0.0221 1.29779,-0.04648 1.92103,-0.04648h0.8526c0,0 0.5,0 0.5,0.5c0,0.5 -0.5,0.5 -0.5,0.5h-0.8526c-0.17645,0 -0.35411,0.00164 -0.53277,0.00442c0.14679,0.02472 0.32795,0.11336 0.38409,0.39053c0.09927,0.49005 -0.39078,0.58931 -0.39078,0.58931l-0.3776,0.07034c-0.08943,0.03303 -0.17998,0.06576 -0.27152,0.09803c-0.00743,0.32343 -0.3481,0.43722 -0.3481,0.43722l-0.56281,0.18792c-1.41904,0.52099 -3.21741,1.12009 -4.57012,0.27529c0.03363,0.11385 0.02778,0.25591 -0.08772,0.41113c1.3935,0.43782 2.84252,0.24022 4.31203,-0.15397l-0.08475,-0.06544c0,0 0.3,-0.4 0.7,-0.1zM223.73892,179.65052c0,0 0.27586,0.27586 0.09656,0.58391c0.32555,0.17326 0.6805,0.2781 1.05154,0.33047c0.29669,-0.06353 0.58034,-0.15305 0.84296,-0.27207l0.4157,-0.09552c0,0 0.41644,-0.08329 0.55848,0.28745c0.74298,-0.13999 1.46816,-0.3802 2.08245,-0.60929l0.50684,-0.10858c-1.84963,0.03751 -3.79632,0.17272 -5.61173,-0.15327z" fill="#1b981b" stroke-width="0.5"/><path d="M228.75608,176.94674c0.21473,0.29593 -0.0812,0.51067 -0.0812,0.51067l-0.41287,0.20286c-1.56732,-0.06327 -3.01835,-0.38783 -4.13355,-1.54981c0,0 -0.25298,-0.26398 0.01101,-0.51697c0.00888,-0.00851 0.01774,-0.01643 0.02658,-0.02379c-0.20951,-0.13603 -0.41665,-0.27577 -0.62204,-0.41787c0,0 -0.30064,-0.2081 -0.09254,-0.50874c0.0349,-0.05042 0.0724,-0.08653 0.11065,-0.11171c0.00784,-0.05248 0.03003,-0.10955 0.0734,-0.17013c0.21284,-0.2973 0.51014,-0.08445 0.51014,-0.08445c0.35304,0.25449 0.77786,0.49245 1.23,0.67526c0.01402,-0.05542 0.04545,-0.1137 0.10346,-0.17153c-0.82819,-0.48507 -1.43834,-0.90451 -1.92716,-1.51163c-0.98079,-0.39418 -1.84437,-0.99612 -2.39719,-1.93497c0,0 -0.18351,-0.31625 0.13274,-0.49976c0.31625,-0.18351 0.49976,0.13274 0.49976,0.13274c0.26807,0.47008 0.6386,0.84058 1.07249,1.13445c-0.01425,-0.03235 -0.0284,-0.06513 -0.04246,-0.09837c0,0 -0.14249,-0.33673 0.19424,-0.47922c0.33673,-0.14249 0.47922,0.19424 0.47922,0.19424c0.16194,0.38268 0.33314,0.69281 0.52516,0.95797c0.49702,0.1799 1.02408,0.30477 1.54512,0.3957c-0.04987,-0.08277 -0.09533,-0.16866 -0.13602,-0.25772c0,0 -0.14884,-0.33397 0.18513,-0.48281c0.33397,-0.14884 0.48281,0.18513 0.48281,0.18513c0.11693,0.27105 0.30268,0.50514 0.53342,0.7029c0.07086,0.00772 0.14108,0.01505 0.21056,0.02205l0.26908,-0.03619c0,0 0.36361,-0.03843 0.40204,0.32518c0.00846,0.0801 -0.00257,0.14442 -0.02494,0.19602c0.60386,0.24506 1.28808,0.34501 1.85711,0.30501l0.06215,-0.01233c0,0 0.36072,-0.05972 0.42044,0.30101c0.05972,0.36072 -0.30101,0.42044 -0.30101,0.42044l-0.13833,0.02087c-0.00742,0.00038 -0.01484,0.00074 -0.02228,0.00108c0.46104,0.1255 0.91679,0.2476 1.35224,0.38211l0.59571,0.184c0,0 0.34935,0.10791 0.24144,0.45725c-0.10791,0.34935 -0.45725,0.24144 -0.45725,0.24144l-0.59571,-0.184c-0.12328,-0.03808 -0.24777,-0.07528 -0.3732,-0.11189c0.09723,0.04895 0.20467,0.14999 0.18408,0.35576c-0.0364,0.36382 -0.40022,0.32741 -0.40022,0.32741l-0.27901,-0.03235c-0.06962,0.00378 -0.13994,0.0071 -0.21087,0.00989c-0.07499,0.22438 -0.33757,0.23036 -0.33757,0.23036l-0.43379,0.00984c-1.10392,0.05777 -2.48972,0.08824 -3.25254,-0.79395c-0.00108,0.08681 -0.03582,0.1848 -0.15002,0.26832c0.87914,0.60664 1.93421,0.7813 3.04602,0.82302l-0.04509,-0.06401c0,0 0.29593,-0.21473 0.51067,0.0812zM226.11028,174.4054c0,0 0.13321,0.25228 -0.05855,0.42881c0.19007,0.19131 0.41545,0.34117 0.66339,0.45784c0.22101,0.01964 0.43851,0.01831 0.64769,-0.00817l0.31107,0.02297c0,0 0.30894,0.03168 0.32818,0.32137c0.54933,0.06254 1.10785,0.0512 1.58649,0.02371l0.37756,0.03352c-1.30042,-0.37297 -2.68974,-0.69862 -3.88781,-1.31818z" fill="#1b981b" stroke-width="0.5"/><path d="M229.69065,177.82994c0.1857,0.46424 -0.27854,0.64993 -0.27854,0.64993l-0.68552,0.26931c-1.23264,0.14592 -2.39306,0.32145 -3.60861,-0.00262c0,0 -0.48238,-0.13156 -0.35082,-0.61394c0.03073,-0.11266 0.08059,-0.19183 0.13897,-0.24702c-0.38465,-0.05226 -0.76061,-0.11574 -1.1217,-0.18749c0,0 -0.49029,-0.09806 -0.39223,-0.58835c0.01412,-0.07058 0.03636,-0.12896 0.0641,-0.1772c-0.09304,-0.08822 -0.17566,-0.22794 -0.13057,-0.43267c-0.35236,-0.11328 -0.694,-0.24279 -1.01981,-0.39155c0,0 -0.45398,-0.20953 -0.24445,-0.66351c0.20953,-0.45398 0.66351,-0.24445 0.66351,-0.24445c1.49347,0.6978 3.41215,0.92574 5.05539,1.07453l0.3897,-0.00205c0,0 0.5,0 0.5,0.5c0,0.06538 -0.00855,0.12221 -0.02341,0.1716c0.18183,-0.02753 0.35998,-0.06085 0.53344,-0.10045l0.23274,-0.01191c0,0 0.5,0 0.5,0.5c0,0.24982 -0.12482,0.37482 -0.24973,0.43736c0.00973,0.01881 0.01894,0.03894 0.02755,0.06047z" fill="#66ff67" stroke-width="0.5"/></g></g></svg>