<svg version="1.1" xmlns="http://www.w3.org/2000/svg" xmlns:xlink="http://www.w3.org/1999/xlink" width="33.96016" height="36.23748" viewBox="0,0,33.96016,36.23748"><g transform="translate(-222.8642,-161.85964)"><g data-paper-data="{&quot;isPaintingLayer&quot;:true}" fill-rule="nonzero" stroke-linecap="butt" stroke-linejoin="miter" stroke-miterlimit="10" stroke-dasharray="" stroke-dashoffset="0" style="mix-blend-mode: normal"><g><path d="M225.95193,163.54341c0.00761,-0.16265 0.06684,-0.34378 0.21188,-0.53717c0.26191,-0.34922 0.5638,-0.41862 0.81415,-0.39123c0.2033,-0.03602 0.44586,0.00127 0.71157,0.20055c0.12928,0.09696 0.22021,0.19939 0.28208,0.30266c1.43844,0.72275 3.4526,0.19124 4.98806,0.08289c4.4417,-0.31344 8.8637,-0.39604 13.33582,-0.38199c2.34982,0.38563 8.64541,-0.25645 9.77886,1.92224c1.12092,2.15459 -1.09983,4.46832 -1.68589,6.36631c-0.57781,1.87123 0.22499,4.29162 0.23052,6.22212c0,4.81596 0.19398,9.58197 -0.58529,14.28623c-0.26366,1.59166 0.68032,5.00344 -1.25663,5.73108c-0.65219,0.245 -2.68138,-0.86212 -3.36852,-1.14289c-2.08716,-0.28672 -4.2276,-0.55002 -6.34463,-0.35429c-1.30537,0.12069 -2.47863,0.8628 -3.81987,0.95497c-2.77455,0.19067 -6.22506,-0.72494 -8.89035,-0.20356c-1.96617,0.38462 -2.88034,1.0747 -5.00939,0.67551c-2.89957,-2.80465 -1.61202,-6.39772 -0.06257,-9.42527c0.24806,-0.4847 -0.07257,-2.30767 -0.07257,-2.88205c0,-3.50302 -1.1739,-6.84452 -1.13365,-10.46636c1.15175,-3.45525 -0.52251,-7.69136 1.70631,-10.73296z" fill="#4e4c00" stroke="#250000" stroke-width="1.5"/><path d="M233.79885,170.13807c0,0.5 -0.5,0.5 -0.5,0.5h-0.20033c-1.37087,0 -2.93552,0.21154 -4.2871,-0.00646c-0.6887,-0.11108 -1.70641,-0.86118 -1.92325,-0.79488c0,0 -0.5,0 -0.5,-0.5c0,-0.5 0.5,-0.5 0.5,-0.5c0.42962,0.04539 0.76792,0.41164 1.09369,0.69538c0.7087,0.61727 4.11729,0.10595 5.11666,0.10595h0.20033c0,0 0.5,0 0.5,0.5z" fill="#292800" stroke="none" stroke-width="0.5"/><path d="M241.01078,169.74693c-0.00952,0.49991 -0.50943,0.49039 -0.50943,0.49039l-0.30996,-0.01384c-1.30027,-0.26132 -2.36312,-0.70449 -3.60813,-1.00267c0,0 -0.48507,-0.12127 -0.3638,-0.60634c0.12127,-0.48507 0.60634,-0.3638 0.60634,-0.3638c1.24744,0.32255 2.25583,0.73241 3.56171,0.99223l0.13289,-0.0054c0,0 0.49991,0.00952 0.49039,0.50943z" fill="#292800" stroke="none" stroke-width="0.5"/><path d="M248.81418,169.83546c-0.09806,0.49029 -0.58835,0.39223 -0.58835,0.39223l-0.02109,-0.00422c-0.80375,-0.16289 -1.47351,-0.18641 -2.28486,-0.18641c0,0 -0.5,0 -0.5,-0.5c0,-0.5 0.5,-0.5 0.5,-0.5c0.87637,0 1.61253,0.03423 2.48098,0.20583l0.02109,0.00422c0,0 0.49029,0.09806 0.39223,0.58835z" fill="#292800" stroke="none" stroke-width="0.5"/><path d="M240.0092,176.54876c0,0.5 -0.5,0.5 -0.5,0.5h-0.20033c-1.02986,0 -1.78853,-0.10169 -2.76245,-0.42633c0,0 -0.47434,-0.15811 -0.31623,-0.63246c0.15811,-0.47434 0.63246,-0.31623 0.63246,-0.31623c0.87965,0.29322 1.51545,0.37501 2.44623,0.37501h0.20033c0,0 0.5,0 0.5,0.5z" fill="#292800" stroke="none" stroke-width="0.5"/><path d="M248.02256,176.54876c0,0.5 -0.5,0.5 -0.5,0.5c-0.66778,0 -1.53589,0 -2.20367,0c0,0 -0.5,0 -0.5,-0.5c0,-0.5 0.5,-0.5 0.5,-0.5c0.66778,0 1.33556,0 2.00334,0h0.20033c0,0 0.5,0 0.5,0.5z" fill="#292800" stroke="none" stroke-width="0.5"/><path d="M250.07978,175.0993c-0.35355,0.35355 -0.70711,0 -0.70711,0l-0.29346,-0.31912c-0.91854,-0.24704 -0.91549,-0.74605 -1.71477,-0.96243c0,0 -0.47434,-0.15811 -0.31623,-0.63246c0.15811,-0.47434 0.63246,-0.31623 0.63246,-0.31623c0.91958,0.34167 0.9326,0.82141 1.89124,1.04091l0.50787,0.48221c0,0 0.35355,0.35355 0,0.70711z" fill="#292800" stroke="none" stroke-width="0.5"/><path d="M238.13014,182.60532c-0.44721,0.22361 -0.67082,-0.22361 -0.67082,-0.22361l-0.10667,-0.27072c-0.8179,-0.86781 -2.08711,-1.48611 -3.00501,-2.40401c0,0 -0.35355,-0.35355 0,-0.70711c0.35355,-0.35355 0.70711,0 0.70711,0c0.95732,0.95732 2.08634,1.5207 3.00501,2.40401l0.29399,0.53061c0,0 0.22361,0.44721 -0.22361,0.67082z" fill="#292800" stroke="none" stroke-width="0.5"/><path d="M245.73491,185.6408c-0.27735,0.41603 -0.69338,0.13868 -0.69338,0.13868l-0.54333,-0.36754c-0.37644,-0.12723 -0.78532,-0.15305 -1.18266,-0.14949c0,0 -0.5,0 -0.5,-0.5c0,-0.5 0.5,-0.5 0.5,-0.5c0.5471,0.00401 1.10252,0.07952 1.62201,0.25118l0.65868,0.4338c0,0 0.41603,0.27735 0.13868,0.69338z" fill="#292800" stroke="none" stroke-width="0.5"/><path d="M248.5979,187.72523c-0.15811,0.47434 -0.63246,0.31623 -0.63246,0.31623l-0.66256,-0.22552c-0.21956,-0.1446 -0.43912,-0.2892 -0.65868,-0.4338c0,0 -0.41603,-0.27735 -0.13868,-0.69338c0.27735,-0.41603 0.69338,-0.13868 0.69338,-0.13868c0.18111,0.12251 0.36222,0.24502 0.54333,0.36754l0.53944,0.17515c0,0 0.47434,0.15811 0.31623,0.63246z" fill="#292800" stroke="none" stroke-width="0.5"/><path d="M242.01254,191.77413c0,0.5 -0.5,0.5 -0.5,0.5l-0.52194,-0.01493c-0.657,-0.16455 -1.21014,-0.39407 -1.88207,-0.38574c0,0 -0.5,0 -0.5,-0.5c0,-0.5 0.5,-0.5 0.5,-0.5c0.77054,0.0073 1.37726,0.22912 2.12461,0.4156l0.2794,-0.01493c0,0 0.5,0 0.5,0.5z" fill="#292800" stroke="none" stroke-width="0.5"/><path d="M248.67744,193.53002c-0.35355,0.35355 -0.70711,0 -0.70711,0l0.15322,-0.05389c-0.20033,0 -0.40067,0 -0.601,0c0,0 -0.5,0 -0.5,-0.5c0,-0.5 0.5,-0.5 0.5,-0.5c0.20033,0 0.40067,0 0.601,0l0.55389,0.34678c0,0 0.35355,0.35355 0,0.70711z" fill="#292800" stroke="none" stroke-width="0.5"/><path d="M229.58213,192.07674c0.09806,0.49029 -0.39223,0.58835 -0.39223,0.58835l-0.02109,0.00422c-0.55337,0.10934 -1.11558,0.20372 -1.67964,0.20583c0,0 -0.5,0 -0.5,-0.5c0,-0.5 0.5,-0.5 0.5,-0.5c0.49839,0.0022 0.99506,-0.08741 1.48352,-0.18641l0.02109,-0.00422c0,0 0.49029,-0.09806 0.58835,0.39223z" fill="#292800" stroke="none" stroke-width="0.5"/><path d="M233.58881,186.66773c0.09806,0.49029 -0.39223,0.58835 -0.39223,0.58835l-0.02109,0.00422c-0.86844,0.1716 -1.6046,0.20583 -2.48098,0.20583c0,0 -0.5,0 -0.5,-0.5c0,-0.5 0.5,-0.5 0.5,-0.5c0.81135,0 1.48111,-0.02352 2.28486,-0.18641l0.02109,-0.00422c0,0 0.49029,-0.09806 0.58835,0.39223z" fill="#292800" stroke="none" stroke-width="0.5"/><path d="M231.19451,176.14809c0,0.5 -0.5,0.5 -0.5,0.5c-0.33333,0 -0.66834,0 -1.00167,0c0,0 -0.5,0 -0.5,-0.5c0,-0.5 0.5,-0.5 0.5,-0.5c0.33333,0 0.66667,0 1,0h0.00167c0,0 0.5,0 0.5,0.5z" fill="#292800" stroke="none" stroke-width="0.5"/><path d="M250.02589,182.15811c0,0.5 -0.5,0.5 -0.5,0.5c-0.20033,0 -0.601,0 -0.80134,0c0,0 -0.5,0 -0.5,-0.5c0,-0.5 0.5,-0.5 0.5,-0.5c0.20033,0 0.40067,0 0.601,0h0.20033c0,0 0.5,0 0.5,0.5z" fill="#292800" stroke="none" stroke-width="0.5"/><path d="M231.19451,181.95777c0,0.5 -0.5,0.5 -0.5,0.5c-0.20033,0 -0.601,0 -0.80134,0c0,0 -0.5,0 -0.5,-0.5c0,-0.5 0.5,-0.5 0.5,-0.5c0.20033,0 0.40067,0 0.601,0h0.20033c0,0 0.5,0 0.5,0.5z" fill="#292800" stroke="none" stroke-width="0.5"/></g></g></g></svg>