<svg version="1.1" xmlns="http://www.w3.org/2000/svg" xmlns:xlink="http://www.w3.org/1999/xlink" width="68.47404" height="69.87001" viewBox="0,0,68.47404,69.87001"><g transform="translate(-228.77228,-154.3963)"><g data-paper-data="{&quot;isPaintingLayer&quot;:true}" fill-rule="nonzero" stroke="none" stroke-linecap="butt" stroke-linejoin="miter" stroke-miterlimit="10" stroke-dasharray="" stroke-dashoffset="0" style="mix-blend-mode: normal"><g stroke-width="0.5"><path d="M235.80827,198.1984c-0.85547,1.49706 -6.81972,-2.32977 -6.87535,-3.33114c-0.10161,-0.15652 -0.16063,-0.34325 -0.16063,-0.54377c0,-0.55229 0.44771,-1 1,-1c0.31195,0 0.59053,0.14283 0.77392,0.36666c2.48758,0.25993 5.59985,3.91711 5.26206,4.50825z" fill="#9e6d39"/><path d="M247.96572,210.19562l0.0277,0.0277l0.11204,-0.02801l0.06212,0.24846c0.00575,0.02105 0.00882,0.0432 0.00882,0.06607c0,0.13807 -0.11193,0.25 -0.25,0.25c-0.06904,0 -0.13154,-0.02798 -0.17678,-0.07322l-0.16883,-0.16883c-0.61755,-0.30613 -1.04032,-0.90259 -1.58739,-1.27515c-0.22025,0.01149 -0.38832,-0.15657 -0.38832,-0.15657l-0.16227,-0.16435c-0.24341,-0.21062 -0.47138,-0.43653 -0.68348,-0.67616c-0.02505,-0.0099 -0.04912,-0.02177 -0.072,-0.03541l-0.42767,-0.24438c-1.07496,-0.53778 -1.96488,-1.23287 -2.80742,-2.08384c-2.24938,-1.48843 -4.56576,-3.00488 -6.39746,-4.99807c-0.82307,-0.89564 -1.96894,-0.95623 -1.56125,-2.41956c0,0 0.16435,-0.43827 0.59907,-0.3077c-0.03721,-0.22507 0.12423,-0.41342 0.12423,-0.41342c0.042,-0.04894 0.08718,-0.10331 0.13526,-0.1616c0.07868,-0.12801 0.17909,-0.25033 0.3036,-0.36401c0.51369,-0.59761 1.21565,-1.27691 1.92702,-0.99973c0.32811,0.12785 1.17854,1.47958 1.52727,1.80124c1.64387,1.51632 3.13725,3.12013 4.60554,4.79683c1.46508,1.65344 2.52602,3.36379 3.79111,5.1391l0.00334,0.02719l0.00975,-0.00557l0.24955,0.43671c0.04461,0.07482 0.07023,0.16226 0.07023,0.25569c0,0.02234 -0.00147,0.04434 -0.00431,0.06591c0.45904,0.43892 0.94014,0.91457 1.13053,1.46067z" fill="#9e8a74"/></g><path d="M270.77837,171.84454c0,7.61213 -6.54865,13.78297 -14.62683,13.78297c-8.07817,0 -14.62683,-6.17085 -14.62683,-13.78297c0,-7.61213 6.54865,-13.78297 14.62683,-13.78297c8.07817,0 14.62683,6.17085 14.62683,13.78297z" fill="#ff8800" stroke-width="0"/><path d="M245.28012,162.73107c-0.27348,0.59825 -0.55792,1.18062 -0.83308,1.74472c0,0 -0.1118,0.22361 -0.33541,0.1118c-0.22361,-0.1118 -0.1118,-0.33541 -0.1118,-0.33541c0.22367,-0.43839 0.44907,-0.88859 0.66757,-1.34931c-0.03866,-0.02057 -0.07568,-0.05614 -0.105,-0.1148c-0.1118,-0.22361 0.1118,-0.33541 0.1118,-0.33541l0.25955,-0.12536c0.80315,-1.78287 1.45553,-3.71002 1.48455,-5.71077c0.25567,-0.52883 0.24061,-1.62147 0.62874,-1.99303c0.6109,-0.58481 1.54993,0.09119 2.01533,0.54838c1.30949,1.2864 2.01392,2.68155 3.71143,3.53031c0.45165,0.22583 0.77264,0.38604 1.1334,0.74422l0.36693,0.19341c0.08186,0.04107 0.13805,0.12577 0.13805,0.22359c0,0.11246 -0.07426,0.20758 -0.17641,0.23899l-0.46887,0.15629l-0.02265,-0.06795c-1.22318,0.43823 -2.60215,0.34592 -3.88101,0.65095c-1.65522,0.39479 -2.82425,1.84891 -4.58311,1.88936z" fill="#ff8800" stroke-width="0.5"/><path d="M262.69316,160.90902c-1.27885,-0.30503 -2.65783,-0.21272 -3.88101,-0.65094l-0.02264,0.06794l-0.46888,-0.15629c-0.10216,-0.03142 -0.17641,-0.12654 -0.17641,-0.239c0,-0.09783 0.05618,-0.18252 0.13804,-0.22359l0.36694,-0.19342c0.36076,-0.35818 0.68176,-0.51839 1.13341,-0.74421c1.69751,-0.84876 2.40193,-2.24392 3.71142,-3.53031c0.4654,-0.45719 1.40444,-1.13319 2.01533,-0.54838c0.38813,0.37156 0.37306,1.4642 0.62874,1.99303c0.02902,2.00075 0.6814,3.9279 1.48454,5.71077l0.25955,0.12535c0,0 0.22361,0.11181 0.11181,0.33541c-0.02933,0.05866 -0.06635,0.09422 -0.10501,0.1148c0.21851,0.46072 0.44391,0.91092 0.66757,1.3493c0,0 0.1118,0.22361 -0.1118,0.33541c-0.2236,0.11181 -0.33541,-0.1118 -0.33541,-0.1118c-0.27516,-0.5641 -0.55961,-1.14648 -0.83308,-1.74472c-1.75886,-0.04045 -2.92789,-1.49457 -4.58311,-1.88936z" data-paper-data="{&quot;index&quot;:null}" fill="#ff8800" stroke-width="0.5"/><path d="M275.21637,196.41011c0,12.99758 -7.76603,23.53419 -17.34592,23.53419c-9.57989,0 -17.34592,-10.53662 -17.34592,-23.53419c0,-12.99758 7.76603,-23.53419 17.34592,-23.53419c9.57989,0 17.34592,10.53662 17.34592,23.53419z" fill="#ff8800" stroke-width="0"/><path d="M275.38004,202.75465c0,10.1495 -7.80801,18.3773 -17.43968,18.3773c-9.63167,0 -17.43968,-8.2278 -17.43968,-18.3773c0,-10.1495 7.80801,-18.3773 17.43968,-18.3773c9.63167,0 17.43968,8.2278 17.43968,18.3773z" fill="#ff8800" stroke-width="0"/><path d="M239.38804,189.74406c-5.13174,4.51527 -9.84643,7.54531 -10.53056,6.76778c-0.68413,-0.77753 2.92136,-5.06821 8.05309,-9.58348c5.13174,-4.51527 9.84643,-7.54531 10.53056,-6.76778c0.68413,0.77753 -2.92136,5.06821 -8.05309,9.58348z" fill="#ff8800" stroke-width="0"/><path d="M266.66778,178.60525c0.85782,-0.58029 4.65799,3.53895 8.48792,9.20058c3.82993,5.66163 6.23929,10.72171 5.38147,11.302c-0.85782,0.58029 -4.658,-3.53895 -8.48792,-9.20058c-3.82993,-5.66163 -6.23929,-10.72171 -5.38147,-11.30201z" data-paper-data="{&quot;index&quot;:null}" fill="#ff8800" stroke-width="0"/><path d="M253.44584,212.91669c0,5.28188 -2.98048,9.5637 -6.65708,9.5637c-3.67661,0 -6.65708,-4.28181 -6.65708,-9.5637c0,-5.28188 2.98048,-9.5637 6.65708,-9.5637c3.67661,0 6.65708,4.28181 6.65708,9.5637z" fill="#ff8800" stroke-width="0"/><path d="M274.47461,210.85336c0,5.28189 -2.98048,9.5637 -6.65709,9.5637c-3.6766,0 -6.65708,-4.28181 -6.65708,-9.5637c0,-5.28188 2.98048,-9.56369 6.65708,-9.56369c3.6766,0 6.65709,4.28181 6.65709,9.56369z" fill="#ff8800" stroke-width="0"/><path d="M243.00254,220.51585c3.9873,0 7.21965,0.83957 7.21965,1.87523c0,1.03566 -3.23235,1.87523 -7.21965,1.87523c-3.9873,0 -7.21965,-0.83957 -7.21965,-1.87523c0,-1.03566 3.23235,-1.87523 7.21965,-1.87523z" fill="#ff8800" stroke-width="0"/><path d="M272.70205,218.45252c3.9873,0 7.21965,0.83957 7.21965,1.87523c0,1.03567 -3.23235,1.87524 -7.21965,1.87524c-3.9873,0 -7.21965,-0.83958 -7.21965,-1.87524c0,-1.03566 3.23235,-1.87523 7.21965,-1.87523z" fill="#ff8800" stroke-width="0"/><path d="M295.88329,193.64916c-2.21398,-0.56904 -4.03929,0.6375 -6.16782,1.08439c-0.74116,0.15561 -1.75983,-0.30599 -2.44961,-0.0625c-2.00716,0.70853 -5.52986,2.50328 -6.96179,4.16745c-1.26524,1.03035 -2.65857,1.73403 -4.01958,2.54956c-0.62698,0.58748 -1.26418,1.17205 -1.9082,1.72382c-0.60194,1.03313 -0.98611,2.2739 -2.24478,2.78363c-1.63378,0.66163 -3.34362,-0.25711 -4.99753,-0.00847c0,0 -0.55132,0.07412 -0.76817,-0.38012c-0.94621,-0.24489 -1.90882,-0.56146 -2.8936,-0.80964c0,0 -0.24242,-0.06109 -0.18132,-0.30351c0.0611,-0.24242 0.30351,-0.18133 0.30351,-0.18133c0.90972,0.22926 1.80968,0.52913 2.69704,0.77024c0.08193,-0.50689 0.64269,-0.58228 0.64269,-0.58228c1.47391,-0.18053 3.24376,0.61626 4.64428,0.1008c1.39274,-0.51261 1.75304,-2.89571 2.93568,-3.76957c1.50109,-1.10918 3.26825,-1.78257 4.74541,-2.96962c1.45452,-1.69044 5.49318,-3.90125 7.6087,-4.53728c0.4583,-0.13779 0.95241,-0.04903 1.44076,0.02165c1.4361,-0.49438 2.5319,-0.72544 3.70195,-0.71213c1.4197,-0.4021 2.7955,-0.67264 4.47046,-0.26899c0.25498,0.13449 0.50997,0.26898 0.76495,0.40347l-0.66559,0.95774l-0.04279,0.36444c-0.05085,-0.02779 -0.1017,-0.05557 -0.15255,-0.08336l-0.04022,0.05787c0,0 -0.29502,-0.07435 -0.4619,-0.31623z" fill="#ff8800" stroke-width="0.5"/><path d="M258.43755,207.86062c0,-0.41421 0.33579,-0.75 0.75,-0.75c0.41421,0 0.75,0.33579 0.75,0.75c0,0.41421 -0.33579,0.75 -0.75,0.75c-0.41421,0 -0.75,-0.33579 -0.75,-0.75z" fill="#422300" stroke-width="0.5"/><path d="M257.08356,175.40539c-0.72761,0.1819 -0.90951,-0.54571 -0.90951,-0.54571l-0.18752,-0.75009c-0.09205,-0.37865 -0.14944,-0.76648 -0.18051,-1.15633c-0.25312,0.02085 -0.51137,0.03565 -0.77959,0.03672c0,0 -0.75,0 -0.75,-0.75c0,-0.75 0.75,-0.75 0.75,-0.75c0.99253,0.00457 1.83549,-0.181 2.81285,-0.18752h0.37505c0,0 0.75,0 0.75,0.75c0,0.75 -0.75,0.75 -0.75,0.75h-0.37505c-0.18498,-0.00158 -0.36597,0.0042 -0.5447,0.0146c0.02279,0.31368 0.06873,0.62566 0.14716,0.92873l0.18752,0.75009c0,0 0.1819,0.72761 -0.54571,0.90951z" fill="#422300" stroke-width="0.5"/><path d="M261.02725,165.93755c0,-0.41421 0.33579,-0.75 0.75,-0.75c0.41421,0 0.75,0.33579 0.75,0.75c0,0.41421 -0.33579,0.75 -0.75,0.75c-0.41421,0 -0.75,-0.33579 -0.75,-0.75z" fill="#422300" stroke-width="0.5"/><path d="M250.52595,166.12508c0,-0.41421 0.33579,-0.75 0.75,-0.75c0.41421,0 0.75,0.33579 0.75,0.75c0,0.41421 -0.33579,0.75 -0.75,0.75c-0.41421,0 -0.75,-0.33579 -0.75,-0.75z" fill="#422300" stroke-width="0.5"/><path d="M244.34491,163.68978c-0.84366,-0.53688 -0.30678,-1.38054 -0.30678,-1.38054c1.00581,-1.57583 1.81243,-3.42595 3.49926,-4.4332c4.48383,-2.67742 10.60001,-1.20654 15.36267,-0.18151c2.59307,0.81034 3.79757,2.02696 5.66374,3.89182l0.42699,1.20074c0,0 0.06381,0.28714 -0.03352,0.58455c0.10499,0.19287 0.39646,0.86258 -0.30902,1.3329c-0.83205,0.5547 -1.38675,-0.27735 -1.38675,-0.27735l-0.16951,-0.25468c-0.72747,-1.1836 -1.60871,-1.57456 -2.92318,-1.97716c-4.42593,-2.20836 -13.87246,-1.33825 -18.03957,1.33652c0,0 -0.09806,0.0624 -0.24859,0.11122c-0.16783,0.12741 -0.37714,0.20302 -0.6041,0.20302c-0.04976,0 -0.09866,-0.00364 -0.14646,-0.01065c-0.21417,0.06212 -0.47954,0.0488 -0.78517,-0.14569z" fill="#352e27" stroke-width="0.5"/><path d="M270.05255,170.32539c-0.53247,0.41362 -3.13321,-0.56762 -3.86659,-0.64173c-2.80788,-0.28375 -5.67341,-0.70781 -8.50718,-0.7057c-4.00355,0 -8.14351,0.45319 -12.16123,0.70765c-0.68411,0.04333 -1.27294,0.66579 -1.9575,0.63023c-3.79124,-0.19691 -2.14372,-4.25798 -0.40143,-5.72415c0,0 0.00158,-0.00126 0.00466,-0.00361c0.01661,-0.61977 0.66367,-0.86241 0.66367,-0.86241c1.31035,-0.48491 2.61463,-0.94126 3.91903,-1.34465c1.46397,-0.58158 2.6042,-1.22402 4.2483,-1.24547l0.30931,-0.06535c0,0 0.2761,-0.04602 0.5605,0.05671c3.49779,-0.59521 7.05334,-0.59096 10.78278,0.47142c1.65028,0.81748 3.40012,1.62347 4.84136,2.75651l0.52316,0.69987c0,0 0.22489,0.33733 0.17349,0.72561c1.44812,1.52156 2.25523,3.46722 0.86767,4.54507zM262.41283,164.95282c-0.23464,0.13524 -0.47294,0.15357 -0.47294,0.15357c-1.41374,0.07712 -2.15531,1.27014 -0.34277,1.24039c0.94711,-0.01555 1.42858,-0.91713 0.81571,-1.39396zM250.60869,164.45379c-1.91345,0.42359 -0.60297,2.40282 1.12975,2.22414c2.14348,-0.22104 -0.29968,-2.0405 -0.98567,-2.24442l0.05723,0.04422c0,0 -0.08307,0 -0.20132,-0.02394z" fill="#191512" stroke-width="0.5"/><path d="" fill="#191512" stroke-width="0.5"/><path d="M269.71458,176.64454c-0.02177,0.02163 -0.04383,0.04299 -0.06615,0.06409l-0.0017,0.02718l0.01681,0.0132l-0.01917,0.0244l-0.0176,0.28102c-0.00145,0.0267 -0.00709,0.05229 -0.01628,0.07611c0.03074,0.03403 0.05998,0.06811 0.08778,0.10222c0.09239,-0.29796 0.12189,-0.54254 0.01631,-0.58823zM267.57897,182.23013c0,0.03044 -0.00544,0.05962 -0.01541,0.0866l-0.16028,0.46746l-0.15331,-0.05257c-0.62279,1.18426 -2.23365,2.4691 -3.20257,3.16929l-0.00806,0.02368c-0.01429,0.00434 -0.02858,0.00867 -0.04286,0.01301c-0.0004,0.00029 -0.00081,0.00058 -0.00121,0.00087l-0.00718,0.00514l0.01002,0.01515l-0.41407,0.27402c-0.04011,0.0274 -0.08861,0.04343 -0.14086,0.04343c-0.03929,0 -0.07647,-0.00906 -0.10955,-0.02522c-0.81546,0.69945 -2.156,1.35251 -2.80116,1.82941l-0.033,0.00547l0.00342,0.0086l-0.45937,0.18258c-0.02999,0.01273 -0.06298,0.01978 -0.09762,0.01978c-0.13807,0 -0.25,-0.11193 -0.25,-0.25c0,-0.04817 0.01363,-0.09316 0.03723,-0.13133l0.25337,-0.42621l0.07752,0.04608c0.31467,-0.52946 0.75272,-0.96267 1.2219,-1.37653l0.03523,-0.06845c-0.03293,-0.01955 -0.06593,-0.04027 -0.099,-0.06219c-0.92916,0.44859 -1.84922,0.79395 -2.7103,0.92904l0.00452,0.01064l-0.02147,0.00912l0.01489,0.04848l-0.47239,0.1451c-0.02482,0.00826 -0.05138,0.01273 -0.07897,0.01273c-0.13807,0 -0.25,-0.11193 -0.25,-0.25c0,-0.10541 0.06524,-0.19559 0.15755,-0.23235l0.41516,-0.1764c0.25964,-0.30022 0.55325,-0.57267 0.86788,-0.82829l-0.11574,0.05493c-0.03367,0.01688 -0.07168,0.02639 -0.11191,0.02639c-0.13807,0 -0.25,-0.11193 -0.25,-0.25c0,-0.06813 0.02725,-0.1299 0.07145,-0.17499l0.34955,-0.35723l0.01343,0.01314l0.02734,-0.04681c0.03401,-0.01352 0.06812,-0.02843 0.10234,-0.04463c-0.10358,-0.07458 -0.14199,-0.19815 -0.08455,-0.38596c-0.05772,-0.04579 -0.09473,-0.11655 -0.09473,-0.19595c0,-0.05749 0.0194,-0.11045 0.05202,-0.15268l0.29994,-0.39696l0.01305,0.00986l0.01956,-0.04531c0.01582,-0.00467 0.03164,-0.00934 0.04747,-0.01401l-0.00867,-0.01453l0.42586,-0.254c0.03823,-0.02372 0.08333,-0.03741 0.13162,-0.03741c0.05189,0 0.10008,0.01581 0.14004,0.04287c0.00517,-0.00339 0.01035,-0.00678 0.01556,-0.01016c0.20053,-0.58798 0.59138,-0.97883 0.59138,-0.97883l1.80383,-1.80206c1.27566,-1.11295 2.48161,-2.31232 3.59387,-3.58858c0,0 0.74068,-0.84649 1.77316,-0.81877c0.01818,-0.01472 0.03847,-0.02694 0.06034,-0.03614l0.45124,-0.20178l0.00202,0.00452l0.01177,-0.0102c0.00518,-0.00007 0.01036,-0.00013 0.01555,-0.0002l-0.00144,-0.00465l0.18051,-0.05607c0.07409,-0.05145 0.14645,-0.07235 0.21866,-0.06792l0.07276,-0.0226c0.02504,-0.00842 0.05185,-0.01298 0.07973,-0.01298c0.13807,0 0.25,0.11193 0.25,0.25c0,0.00972 -0.00055,0.01931 -0.00163,0.02874c0.01488,0.01534 0.02986,0.03128 0.04495,0.04777c0.04646,-0.04859 0.10593,-0.06495 0.17092,-0.05319c0.00037,-0.00029 0.00074,-0.00058 0.00111,-0.00087c0.0241,-0.03447 0.04905,-0.06786 0.07432,-0.10001l0.01409,-0.00095l-0.00725,-0.00673l0.00623,-0.00672l-0.01333,-0.01335l0.3538,-0.35329c0,0 0.00001,-0.00001 0.00001,-0.00001c0.04523,-0.04517 0.10768,-0.0731 0.17665,-0.0731c0.13807,0 0.25,0.11193 0.25,0.25c0,0.06592 -0.02551,0.12588 -0.06721,0.17055l-0.33439,0.36036c-0.02721,0.03461 -0.05527,0.06854 -0.08408,0.10182c0.17129,0.29099 0.27464,0.74992 0.1349,1.28039c0.51896,1.20495 -0.44678,2.30866 -0.44678,2.30866c-0.64042,0.72929 -1.30565,1.43834 -1.99428,2.12374c0.00325,0.01608 0.00495,0.03272 0.00495,0.04976zM259.47076,185.44545c-0.00962,0.00422 -0.01927,0.00841 -0.02896,0.01256l0.00323,0.00681c0.00856,-0.00646 0.01714,-0.01292 0.02573,-0.01936zM268.91776,176.46653l-0.08847,0.04655c0.06525,0.03457 0.13105,0.07338 0.19732,0.11674l0.03984,-0.10493c-0.03204,-0.03162 -0.08373,-0.04971 -0.14869,-0.05836zM261.9569,186.38446c0.01736,-0.01232 0.03474,-0.0246 0.05215,-0.03685c-0.00484,-0.00081 -0.00968,-0.00164 -0.01452,-0.0025c-0.01251,0.01311 -0.02506,0.02622 -0.03763,0.03935zM259.79229,185.83725c0.09087,-0.03863 0.1801,-0.07623 0.26608,-0.11291c-0.02038,-0.01135 -0.03902,-0.02547 -0.05539,-0.04184c-0.07084,0.05108 -0.14111,0.10264 -0.21069,0.15475zM259.89697,184.23611c-0.01637,0.01821 -0.03136,0.0355 -0.04502,0.0519l0.01275,0.02295l-0.05487,0.03047c-0.09647,0.13066 -0.0872,0.19171 -0.00455,0.20944c0.09315,-0.07274 0.18678,-0.15083 0.28076,-0.23245c-0.00537,-0.05397 -0.00828,-0.10731 -0.00897,-0.15993c-0.0597,0.02661 -0.11972,0.05253 -0.18009,0.07762z" fill="#b11313" stroke-width="0.5"/><path d="M276.06687,170.06815c-0.24315,-0.05813 -0.18502,-0.30127 -0.18502,-0.30127l0.13006,-0.46111c0.39091,-0.53613 0.78705,-1.06727 1.15508,-1.61944c0,0 0.13868,-0.20801 0.34669,-0.06934c0.20801,0.13868 0.06934,0.34669 0.06934,0.34669c-0.37204,0.55794 -0.77204,1.09486 -1.16709,1.63667l-0.04777,0.28278c0,0 -0.05813,0.24315 -0.30127,0.18502z" fill="#dd1818" stroke-width="0.5"/><path d="M269.11349,181.25003c0.07497,0.23849 -0.16352,0.31347 -0.16352,0.31347l-0.32637,0.1026c-0.20483,0.06352 -0.40634,0.12044 -0.60677,0.17019c-1.48532,1.94005 -4.5409,4.21097 -6.40595,4.91715l-0.14794,0.0556c0,0 -0.23402,0.08794 -0.32197,-0.14608c-0.08794,-0.23402 0.14608,-0.32197 0.14608,-0.32197l0.14794,-0.0556c0.00983,-0.00366 0.01971,-0.00738 0.02963,-0.01115c-0.08962,-0.07308 -0.08962,-0.19924 -0.08962,-0.19924c0,-0.16667 0,-0.83333 0,-1c0,0 0,-0.25 0.25,-0.25c0.25,0 0.25,0.25 0.25,0.25c0,0.16667 0,0.33333 0,0.5v0.5c0,0 0,0.01026 -0.00208,0.02663c1.62372,-0.74872 4.00589,-2.51587 5.38963,-4.11306c-0.36862,0.05645 -0.74318,0.08643 -1.13755,0.08643c0,0 -0.25,0 -0.25,-0.25c0,-0.25 0.25,-0.25 0.25,-0.25c0.56349,0 1.0864,-0.063 1.61187,-0.18295c0.01948,-0.02712 0.03857,-0.05414 0.05728,-0.08105c-0.06552,-0.02251 -0.11873,-0.07148 -0.14689,-0.13414c-0.76225,0.23174 -1.52006,0.38912 -2.27227,0.39814c0,0 -0.17605,0 -0.23268,-0.14774c-0.19778,0.17109 -0.39908,0.33621 -0.60338,0.49384c-0.3493,0.55856 -0.68141,1.12707 -1.0892,1.64565l-0.12835,0.16295c0,0 -0.13634,0.17309 -0.31552,0.06628c-0.05707,0.14267 -0.1094,0.27351 -0.14875,0.37187c0,0 -0.09285,0.23212 -0.32497,0.13927c-0.23212,-0.09285 -0.13927,-0.32497 -0.13927,-0.32497c0.1238,-0.30949 0.24759,-0.61898 0.37139,-0.92848l0.00926,-0.02316l-0.03805,0.01875c0,0 -0.22426,0.11048 -0.33475,-0.11378c-0.01275,-0.02589 -0.02105,-0.05026 -0.02574,-0.07312c0,0.23754 0,0.47509 0,0.71263l-0.32322,0.42678c0,0 -0.17678,0.17678 -0.35355,0c-0.17678,-0.17678 0,-0.35355 0,-0.35355l0.17678,-0.07322c0,-0.66667 0,-1.33333 0,-2c0,0 0,-0.23825 0.23258,-0.24958c-0.01338,-0.00151 -0.02741,-0.004 -0.04211,-0.00761c-0.24281,-0.05952 -0.18329,-0.30233 -0.18329,-0.30233l0.14594,-0.44887c0.13538,-0.13824 0.25001,-0.25981 0.34687,-0.37316c0,-0.13697 0,-0.26479 0,-0.36844c0,0 0,-0.25 0.25,-0.25c0.04989,0 0.08983,0.00996 0.12179,0.0259c0.09863,-0.26408 0.12821,-0.56873 0.12821,-1.0259c0,0 0,-0.25 0.25,-0.25c0.25,0 0.25,0.25 0.25,0.25c0,0.83516 -0.11636,1.28386 -0.5,1.78922c0,0.15359 0,0.30718 0,0.46078v0.25c0,0 0,0.25 -0.25,0.25c-0.25,0 -0.25,-0.25 -0.25,-0.25c0,-0.00973 0,-0.01968 0,-0.02982l-0.00719,0.08934c0,0 -0.04394,0.17926 -0.21033,0.19197c0.21752,0.02066 0.21752,0.24851 0.21752,0.24851c0,0.39865 0,0.7973 0,1.19595c0.02516,-0.11387 0.13952,-0.17021 0.13952,-0.17021l0.1427,-0.0703c0.12498,-0.06093 0.24938,-0.12608 0.37311,-0.19509c0.25453,-0.70805 0.55358,-1.41545 0.8828,-2.11739c-0.05883,-0.09095 -0.03067,-0.20359 -0.03067,-0.20359c0.39728,-1.58911 0.24253,-3.27464 0.24254,-4.90949l0,-0.02988c0,0 0,-0.25 0.25,-0.25c0.25,0 0.25,0.25 0.25,0.25l0,0.02988c0,1.24961 0.08347,2.52287 -0.04238,3.76552c0.35669,-0.68252 0.73369,-1.35675 1.11731,-2.01809c-0.12843,-0.88719 -0.34976,-1.76509 -0.72999,-2.7364l-0.07792,-0.20026c0,0 -0.09065,-0.23299 0.14233,-0.32364c0.23299,-0.09065 0.32364,0.14233 0.32364,0.14233l0.07792,0.20026c0.30671,0.79359 0.51413,1.52727 0.65407,2.25285c0.30236,-0.51013 0.60595,-1.01143 0.90418,-1.50168c0.91991,-1.51219 2.06263,-3.06463 2.58986,-4.76733l0.05231,-0.16784c0,0 0.07439,-0.23868 0.31307,-0.16429c0.23868,0.07439 0.16429,0.31307 0.16429,0.31307l-0.05231,0.16784c-0.54701,1.74459 -1.6962,3.32689 -2.64004,4.87841c-0.397,0.65261 -0.80469,1.32565 -1.20646,2.0135c0.10784,0.81561 0.1448,1.64418 0.1559,2.55905c0.47749,-0.53217 0.91605,-1.07561 1.30423,-1.59319c0,0 0.09108,-0.12144 0.22592,-0.10409c0.0073,-0.16008 0.01659,-0.31811 0.02837,-0.47463c-0.03507,0.01874 -0.07512,0.02936 -0.11766,0.02936c-0.13807,0 -0.25,-0.11193 -0.25,-0.25c0,-0.03418 0.00686,-0.06676 0.01928,-0.09643l0.18016,-0.46029l0.10809,0.04231c0.05067,-0.11559 0.11214,-0.22487 0.18655,-0.32312c0.13321,-0.78333 0.3634,-1.55796 0.76008,-2.39467l0.08336,-0.17564c0,0 0.1072,-0.22585 0.33305,-0.11866c0.11621,0.05516 0.14425,0.14173 0.14408,0.21279c0.55247,-1.09831 0.99873,-2.22425 0.99873,-3.48694c0,0 0,-0.25 0.25,-0.25c0.25,0 0.25,0.25 0.25,0.25c0,2.06773 -1.1141,3.80459 -2.04377,5.60739c0.12922,0.17255 -0.03627,0.32596 -0.03627,0.32596l-0.23696,0.21966c-0.01484,0.03071 -0.02959,0.06145 -0.04425,0.09222c-0.02834,0.19071 -0.05092,0.38229 -0.06892,0.57594c1.11366,-2.14924 2.32947,-4.28371 3.53359,-6.38231l0.17974,-0.31326c0,0 0.12442,-0.21684 0.34126,-0.09242c0.21684,0.12442 0.09242,0.34126 0.09242,0.34126l-0.08923,0.15551c0.0595,-0.03752 0.14626,-0.05904 0.25379,0.0074c0.06884,0.04253 0.10163,0.09358 0.1145,0.14318c0.01534,-0.02305 0.0307,-0.04611 0.04608,-0.06918c0,0 0.07813,-0.1172 0.20507,-0.11701c0.34986,-1.0431 0.50294,-2.12484 0.50294,-3.24432c0,0 0,-0.25 0.25,-0.25c0.25,0 0.25,0.25 0.25,0.25c0,0.97127 -0.11166,1.91484 -0.35761,2.83105c0.33153,-0.83866 0.72864,-1.63214 1.134,-2.44286c0,0 0.1118,-0.22361 0.33541,-0.1118c0.22361,0.1118 0.1118,0.33541 0.1118,0.33541c-0.40655,0.8131 -0.80523,1.60785 -1.13498,2.45068c0.21407,-0.36754 0.43292,-0.73235 0.65751,-1.09388c0.00256,-0.0698 0.00387,-0.14257 0.00387,-0.21861c0,0 0,-0.25 0.25,-0.25c0.0142,0 0.0276,0.00081 0.04024,0.00233c0.1109,-0.17312 0.22323,-0.34542 0.33711,-0.51684c0.90844,-1.36532 1.56713,-2.93579 2.30089,-4.40124l0.09823,-0.19618c0,0 0.11193,-0.22354 0.33547,-0.11161c0.22354,0.11193 0.11161,0.33547 0.11161,0.33547l-0.09823,0.19618c-0.74336,1.48462 -1.41315,3.06957 -2.3315,4.45406c-0.18934,0.28501 -0.37437,0.57249 -0.5556,0.86213c-0.02514,0.37917 -0.08961,0.68277 -0.18472,0.95585l0.07862,-0.05062c0,0 0.22047,-0.11787 0.33834,0.1026c0.11787,0.22047 -0.1026,0.33834 -0.1026,0.33834l-0.1156,0.03843c-0.00674,0.07351 -0.04425,0.12978 -0.04425,0.12978c-0.23971,0.35934 -0.49032,0.71262 -0.74749,1.06209c-0.01284,0.02075 -0.02573,0.04157 -0.03869,0.06246c0.38186,-0.18372 0.76826,-0.36224 1.14973,-0.54618c-0.00209,-0.01302 -0.00318,-0.02637 -0.00318,-0.03998c0,-0.0244 0.0035,-0.04799 0.01001,-0.07028l0.18013,-0.67155c0,0 0.06477,-0.24146 0.30623,-0.1767c0.08247,0.02212 0.12922,0.06485 0.15502,0.11154c0.70412,-0.75959 1.49239,-1.3871 2.0722,-2.25875c0,0 0.13868,-0.20801 0.34669,-0.06934c0.13086,0.08724 0.12451,0.20191 0.10181,0.27498c0.53871,-0.49083 1.03371,-1.05296 1.00952,-1.56697c0,0 0,-0.25 0.25,-0.25c0.25,0 0.25,0.25 0.25,0.25c-0.01485,0.46477 -0.2549,0.90206 -0.58872,1.30671c0.15615,0.11745 0.06232,0.30509 0.06232,0.30509c-0.68149,1.36298 -1.81896,2.18651 -3.088,2.86807c-0.7974,0.80041 -1.79262,1.71675 -2.72194,2.69536c0.11362,-0.04159 0.23337,-0.08286 0.35774,-0.1242c0.68634,-0.51092 1.38037,-1.02936 2.06505,-1.59561c2.19584,-1.81602 4.2647,-3.66475 6.28183,-5.6777l0.20512,-0.20469c0,0 0.17696,-0.17659 0.35355,0.00037c0.17659,0.17696 -0.00037,0.35355 -0.00037,0.35355l-0.20512,0.20469c-2.02794,2.02373 -4.10878,3.88335 -6.31636,5.70908c-0.31067,0.25693 -0.62346,0.5038 -0.9367,0.74449c0.00624,-0.00212 0.01248,-0.00424 0.01871,-0.00637c0.33086,-0.23161 0.66173,-0.46321 0.99259,-0.69482l0.12691,-0.08884c0,0 0.20481,-0.14337 0.34817,0.06144c0.01631,0.0233 0.02812,0.04581 0.03623,0.0674c0.36336,-0.22156 0.64536,-0.47835 0.78536,-0.78584c0,0 0.1118,-0.22361 0.33541,-0.1118c0.22361,0.1118 0.1118,0.33541 0.1118,0.33541c-0.41498,0.77912 -1.37634,1.2289 -2.39645,1.58935c-0.15465,0.10825 -0.30965,0.21675 -0.46493,0.32545c0.32862,0.16975 0.79721,0.27019 1.23991,0.24681c0.36347,-0.16315 0.71775,-0.31591 1.05479,-0.4555c0.02566,-0.03303 0.04922,-0.06805 0.0705,-0.10513l0.06161,-0.09691c0,0 0.13413,-0.21097 0.3451,-0.07685c0.02879,0.0183 0.05115,0.03804 0.06831,0.05847c0.02255,-0.00887 0.045,-0.01767 0.06732,-0.02639l0.13992,-0.05422c0,0 0.23311,-0.09033 0.32344,0.14278c0.09033,0.23311 -0.14278,0.32344 -0.14278,0.32344l-0.13992,0.05422c-0.16876,0.06481 -0.3443,0.1343 -0.52528,0.20799c-0.19618,0.1867 -0.43322,0.3197 -0.69181,0.40521c0.073,0.14924 -0.05827,0.27797 -0.05827,0.27797l-0.29595,0.28722c-0.30384,0.22847 -0.62843,0.51571 -0.96879,0.82182c0.1847,-0.0156 0.36952,-0.02673 0.55449,-0.03265c0.02205,-0.03816 0.0426,-0.07705 0.06159,-0.11669c0,0 0.1118,-0.22361 0.33541,-0.1118c0.22361,0.1118 0.1118,0.33541 0.1118,0.33541c-0.00134,0.0026 -0.00269,0.0052 -0.00405,0.00779c0.01857,0.03332 0.03044,0.07593 0.03044,0.1304c0,0.25 -0.25,0.25 -0.25,0.25c-0.00936,-0.00002 -0.01872,-0.00002 -0.02807,-0.00002c-0.36066,0.4561 -0.88666,0.80777 -1.48106,1.08228c-0.03375,0.08616 -0.11454,0.13347 -0.11454,0.13347l-0.16673,0.09763c-0.08018,0.04695 -0.16044,0.09355 -0.2408,0.13983c0.3772,-0.02211 0.74186,-0.03378 1.1019,-0.03366c0.04116,-0.01862 0.08232,-0.03724 0.12348,-0.05586l0.20305,-0.09157c0,0 0.05392,-0.02431 0.12113,-0.02306c0.08157,-0.04694 0.16128,-0.09455 0.23897,-0.14273l0.00656,-0.18847c0,0 0.08216,-0.23611 0.31827,-0.15395c0.23611,0.08216 0.15395,0.31827 0.15395,0.31827l-0.17677,0.36872c0.7093,0.04548 1.42916,0.14206 2.22116,0.30023l0.01897,0.00383c0,0 0.24506,0.04947 0.19559,0.29453c-0.04947,0.24506 -0.29453,0.19559 -0.29453,0.19559l-0.01897,-0.00383c-1.03142,-0.21026 -1.9315,-0.30831 -2.85029,-0.32272c-0.36513,0.18563 -0.75496,0.35538 -1.16052,0.5026c0.17931,0.02459 0.36006,0.04821 0.54215,0.07194l0.06941,0.00905c0,0 0.2479,0.03231 0.21559,0.28022c-0.03231,0.2479 -0.28022,0.21559 -0.28022,0.21559l-0.06941,-0.00905c-0.53765,-0.07008 -1.0633,-0.14087 -1.5753,-0.23679c-0.67591,0.1626 -1.37159,0.25384 -2.0513,0.24716c-0.01238,0.00159 -0.02558,0.00249 -0.03928,0.0023c-0.80247,0.15154 -1.61062,0.27361 -2.4201,0.35902c-0.35508,0.14099 -0.70943,0.28014 -1.06294,0.41017c-0.0066,0.0528 -0.02574,0.09108 -0.02574,0.09108c-0.00229,0.00448 -0.00459,0.00897 -0.0069,0.01346c0.02118,0.03671 0.03329,0.07931 0.03329,0.12474c0,0.02416 -0.00343,0.04752 -0.00982,0.06962l0.18485,-0.05811c0,0 0.23849,-0.07497 0.31347,0.16352zM264.41699,181.18633c0,0 0.1347,-0.20205 0.33772,-0.07513c0.38828,-0.33233 0.76297,-0.69 1.11996,-1.0597c-0.00218,-0.85344 -0.01658,-1.62229 -0.0797,-2.36332c-0.77684,1.36981 -1.50846,2.78914 -2.06929,4.21552c0.14387,-0.09819 0.28649,-0.20095 0.42768,-0.30768c0.08616,-0.13766 0.17355,-0.27455 0.26362,-0.40968zM263.44111,182.67167c-0.01299,0.03743 -0.02585,0.07486 -0.03857,0.11228c0.03367,-0.0494 0.06693,-0.09908 0.09986,-0.14899c-0.02041,0.01233 -0.04083,0.02456 -0.06128,0.0367zM266.37497,180.24523c0.00002,0.02651 0.00003,0.0531 0.00003,0.07977c0,0 0,0.25 -0.25,0.25c-0.02365,0 -0.04507,-0.00224 -0.06446,-0.00629c-0.17129,0.17211 -0.34625,0.34123 -0.52451,0.50613c0.67992,-0.01142 1.37905,-0.15712 2.08931,-0.3728l-0.00003,-0.12748l0.05043,-0.00001c-0.00018,-0.0021 -0.00036,-0.0042 -0.00054,-0.00631c-0.18354,0.00448 -0.36696,0.00676 -0.55021,0.00676c0,0 -0.25,0 -0.25,-0.25c0,-0.25 0.25,-0.25 0.25,-0.25c0.17633,0 0.35279,-0.00216 0.52936,-0.00641c-0.00018,-0.48713 0.05561,-0.96541 0.13218,-1.46665c-0.42591,0.54549 -0.90024,1.10496 -1.41157,1.64329zM273.06823,174.83153l0.01306,-0.00276c0.71534,-0.81121 1.50381,-1.58801 2.24277,-2.31015c-0.36271,0.1731 -0.72635,0.34652 -1.08422,0.52846l-0.00154,0.00078c0,0 -0.07318,0.0372 -0.15699,0.02704c-0.62648,0.97165 -1.36103,2.02737 -2.17096,2.98834c-0.07609,0.15213 -0.15213,0.3043 -0.22819,0.45646c0.06775,-0.06037 0.13585,-0.12021 0.20429,-0.17955c0.296,-0.43053 0.63026,-0.85532 0.9866,-1.27171c-0.00499,-0.19021 0.19519,-0.23689 0.19519,-0.23689zM268.47123,179.62788l0.04572,-0.03566c0.02087,-0.01619 0.04186,-0.0322 0.06298,-0.04804c0.17493,-0.31182 0.34395,-0.62456 0.50769,-0.93842c-0.11633,0.06884 -0.23329,0.13324 -0.35082,0.19284c0,0 -0.22361,0.1118 -0.33541,-0.1118c-0.01057,-0.02114 -0.01814,-0.04129 -0.02319,-0.06043c-0.00261,0.22654 -0.0032,0.45891 -0.0032,0.69863c0,0 0,0.14835 -0.11427,0.21649c-0.01308,0.17327 -0.02995,0.34445 -0.05424,0.50713c0.0291,-0.0014 0.0582,-0.00285 0.08731,-0.00436c0.02917,-0.04998 0.05818,-0.09999 0.08702,-0.15001c-0.05255,-0.15484 0.09041,-0.26636 0.09041,-0.26636zM275.69822,176.39822c0,0 0.05553,-0.05553 0.13548,-0.07322c-0.25996,0 -0.59687,0 -0.7087,0c0,0 -0.02047,0 -0.0497,-0.00586c-0.43858,0.22965 -0.86804,0.46663 -1.27422,0.70579c0.50594,-0.11141 1.0122,-0.21466 1.51918,-0.29409c0.13233,-0.10276 0.2586,-0.21326 0.37796,-0.33262zM275.65178,177.17962c-0.34005,0.2989 -0.69164,0.59304 -1.05049,0.8481c0.68633,-0.22013 1.34176,-0.51743 1.80314,-0.92671c-0.25098,0.01806 -0.50186,0.04492 -0.75266,0.07861zM271.69816,175.14829l0.22132,-0.21805c0.61278,-1.21569 1.23667,-2.42487 1.90323,-3.60964c-0.20449,-0.03423 -0.19758,-0.25347 -0.19758,-0.25347l0.01562,-0.22909c-0.129,0.40524 -0.28549,0.80503 -0.47147,1.19941l-0.04793,0.33018c0,0 -0.04263,0.24634 -0.28897,0.20371c-0.24634,-0.04263 -0.20371,-0.28897 -0.20371,-0.28897l0.00308,-0.01595c-0.21561,0.32066 -0.4326,0.63758 -0.6557,0.94944c-0.4667,1.25787 -0.95705,2.48292 -1.50364,3.68608c0.34177,-0.33179 0.67438,-0.69319 0.99535,-1.07153c0.06311,-0.12617 0.12627,-0.25231 0.18949,-0.37841c-0.10404,-0.15864 0.04091,-0.30371 0.04091,-0.30371zM278.37945,170.08752c0.18355,-0.17593 0.35571,-0.36459 0.51418,-0.56856c-0.18404,0.1612 -0.36617,0.31463 -0.53358,0.45979c0.0179,0.0382 0.02244,0.07511 0.01941,0.10876zM273.644,172.68483c-0.00746,0.01391 -0.01492,0.02782 -0.02237,0.04174c0.00873,-0.01139 0.01745,-0.02278 0.02617,-0.03418c-0.00133,-0.00251 -0.0026,-0.00504 -0.0038,-0.00756zM270.125,175.325c-0.05286,0 -0.09454,-0.01117 -0.1274,-0.0288c-0.55751,1.02022 -1.10011,2.04543 -1.61545,3.07361c-0.00087,0.04421 -0.00163,0.08863 -0.00231,0.13326c0.03224,-0.10112 0.13336,-0.15168 0.13336,-0.15168c0.34729,-0.17074 0.69043,-0.38876 1.02734,-0.64336c0.501,-1.02677 0.95265,-2.06756 1.37646,-3.12963c-0.18697,0.21802 -0.38119,0.43217 -0.58458,0.6419c-0.03424,0.05505 -0.096,0.1047 -0.20741,0.1047zM271.55367,172.91663c-0.27148,0.33726 -0.53975,0.68571 -0.75169,1.01997c0.25351,-0.31152 0.49419,-0.6304 0.72769,-0.95502c0.00801,-0.02164 0.01601,-0.04329 0.024,-0.06495zM268.9435,180.00181c-0.00945,-0.0108 -0.01849,-0.02305 -0.02695,-0.03692c-0.00774,0.01361 -0.01549,0.02722 -0.02325,0.04082c0.01674,-0.00128 0.03347,-0.00258 0.05021,-0.0039zM269.62116,178.82842c-0.02538,0.00098 -0.05242,-0.00206 -0.07972,-0.01168c-0.03577,0.06868 -0.07179,0.1373 -0.10806,0.20587c0.06799,-0.03405 0.1367,-0.06704 0.20607,-0.09905c-0.01474,-0.03258 -0.01943,-0.06499 -0.01829,-0.09513zM270.56108,177.61458c0.25444,-0.27492 0.51654,-0.53648 0.78495,-0.78792c-0.02566,-0.00435 -0.05327,-0.01327 -0.08284,-0.02805c-0.0016,-0.0008 -0.00318,-0.00161 -0.00475,-0.00242c-0.31681,0.33618 -0.64296,0.65255 -0.97675,0.93977c0.04361,-0.00559 0.08721,-0.01138 0.13081,-0.01738c0.04952,-0.03467 0.09905,-0.06933 0.14857,-0.104zM276.05497,175.825h0.07003c0,0 0.12924,0 0.20187,0.09292c0.20922,-0.18795 0.40727,-0.35895 0.59072,-0.4995c-0.28438,0.12986 -0.57322,0.26586 -0.86262,0.40658zM272.275,178.025c0,0 -0.17196,0.12897 -0.31656,-0.01171c-0.09619,0.0679 -0.19214,0.13563 -0.28776,0.20312c0.44645,-0.12799 0.89431,-0.251 1.32996,-0.3875c0.04499,-0.02 0.08998,-0.03999 0.13498,-0.05999l0.38785,-0.17238c0,0 0.09512,-0.04228 0.18989,-0.01089c0.08361,-0.03145 0.16642,-0.06385 0.24833,-0.09735c-0.45952,0.10013 -0.91885,0.20853 -1.37806,0.31317c-0.10684,0.0749 -0.20987,0.14946 -0.30862,0.22353zM275.5132,175.04861c0,0 -0.12729,-0.06365 -0.14177,-0.19094c-1.17235,0.82065 -2.35835,1.65084 -3.53199,2.47239c-0.02797,0.05033 -0.05523,0.10068 -0.08174,0.15106c0.04153,-0.00862 0.08307,-0.01732 0.1246,-0.0261c0.81113,-0.57256 1.62225,-1.14512 2.43338,-1.71768l0.16516,-0.11658c0,0 0.20424,-0.14417 0.34841,0.06007c0.04846,0.06865 0.05756,0.13052 0.04827,0.1824c0.40203,-0.20937 0.8111,-0.41262 1.21685,-0.6062c-0.20405,-0.05015 -0.40046,-0.12049 -0.58117,-0.20842zM271.96729,179.57913c0.02107,0.00082 0.04215,0.00152 0.06326,0.00213c0.0123,-0.00233 0.0246,-0.00467 0.0369,-0.00702c0.04743,-0.02375 0.09481,-0.04753 0.14214,-0.07134c-0.08079,0.02466 -0.16156,0.0501 -0.24231,0.07623zM271.90335,179.0998c-0.01758,-0.00885 -0.03514,-0.01779 -0.05268,-0.02682c-0.04903,-0.00516 -0.13182,-0.02497 -0.18241,-0.09776c-0.00232,-0.00129 -0.00464,-0.00259 -0.00695,-0.00388c-0.31337,0.13928 -0.62797,0.2791 -0.93754,0.41669c0.07381,0.02111 0.14833,0.04041 0.2235,0.05793c0.31917,-0.12277 0.63809,-0.23998 0.95608,-0.34615zM269.44208,179.95765c0.09856,-0.00969 0.1971,-0.01995 0.29562,-0.03075c0.15561,-0.06254 0.31137,-0.12541 0.46719,-0.18796c-0.04841,-0.01795 -0.0965,-0.03668 -0.14426,-0.0562c-0.21171,0.09409 -0.41863,0.18606 -0.61855,0.27491zM274.20043,179.09899c-0.05268,0.005 -0.1057,0.01017 -0.15909,0.01548c-0.02802,0.01512 -0.05605,0.03022 -0.08409,0.04529c0.08116,-0.02001 0.16222,-0.04027 0.24318,-0.06077zM270.51737,178.4185c0.12881,-0.09093 0.25763,-0.18186 0.38644,-0.27278c-0.0587,0.00992 -0.11739,0.01953 -0.17609,0.02882c-0.0708,0.08013 -0.14093,0.16142 -0.21035,0.24396z" fill="#dd1818" stroke-width="0.5"/><path d="M259.625,184.325c-0.25,0 -0.25,-0.25 -0.25,-0.25c0,-0.16667 0,-0.83333 0,-1c0,0 0,-0.25 0.25,-0.25c0.05448,0 0.09709,0.01187 0.13041,0.03044l0.11814,-0.06593c0.87409,-0.48163 0.88484,-1.26233 1.63964,-1.68812c0,0 0.22361,-0.1118 0.33541,0.1118c0.1118,0.22361 -0.1118,0.33541 -0.1118,0.33541c-0.55972,0.22487 -0.87208,1.25582 -1.61961,1.67753l-0.12037,0.06717c0,0 -0.05325,0.02971 -0.12182,0.03349c0,0.08273 0,0.16546 0,0.2482v0.5c0,0 0,0.25 -0.25,0.25z" fill="#dd1818" stroke-width="0.5"/></g></g></svg>