<svg version="1.1" xmlns="http://www.w3.org/2000/svg" xmlns:xlink="http://www.w3.org/1999/xlink" width="55.19305" height="11.82355" viewBox="0,0,55.19305,11.82355"><g transform="translate(-119.62741,-175.68537)"><g data-paper-data="{&quot;isPaintingLayer&quot;:true}" fill-rule="nonzero" stroke-linecap="butt" stroke-linejoin="miter" stroke-miterlimit="10" stroke-dasharray="" stroke-dashoffset="0" style="mix-blend-mode: normal"><path d="M131.87437,186.81926c-2.09248,0.00185 -6.36078,1.01233 -8.37756,-0.34034c-0.35016,0.28171 -0.79482,0.44134 -1.34733,0.44134c-0.67185,0 -1.27492,-0.52492 -1.75,-1c-0.00413,-0.00413 -0.00823,-0.00827 -0.0123,-0.01242c3.29263,-1.63637 5.5554,-5.03416 5.5554,-8.96046c0,-0.33514 -0.01649,-0.66643 -0.04869,-0.9931c0.43332,-0.05018 0.86781,-0.10645 1.29783,-0.16916c0.71871,0.0922 1.43255,0.16962 2.12313,0.16658c4.6377,-0.02039 9.2752,-0.10576 13.91289,-0.10284c0.10002,0.6086 0.25499,1.1987 0.45964,1.76503c0.66353,2.65413 0.18466,6.07152 -0.16595,9.30352c-3.85551,-0.05685 -7.72769,-0.10161 -11.64706,-0.09815z" fill="#b85000" stroke="none" stroke-width="0.5"/><path d="M174.31962,176.26788l-0.0183,10.74019l-54.17305,-0.0923l0.00151,-0.88457c1.13453,-0.52384 2.15427,-1.25396 3.01109,-2.14228c1.88559,-1.81877 3.05842,-4.37154 3.05842,-7.19825c0,-0.08582 -0.00108,-0.17139 -0.00323,-0.2567c0.00025,-0.00988 0.00048,-0.01978 0.0007,-0.02967c0.02426,-0.0724 0.04771,-0.14517 0.07035,-0.2183z" fill-opacity="0.53333" fill="#00a67e" stroke="#827700" stroke-width="1"/></g></g></svg>