<svg version="1.1" xmlns="http://www.w3.org/2000/svg" xmlns:xlink="http://www.w3.org/1999/xlink" width="55.19305" height="11.82355" viewBox="0,0,55.19305,11.82355"><g transform="translate(-119.62741,-175.68537)"><g data-paper-data="{&quot;isPaintingLayer&quot;:true}" fill-rule="nonzero" stroke-linecap="butt" stroke-linejoin="miter" stroke-miterlimit="10" stroke-dasharray="" stroke-dashoffset="0" style="mix-blend-mode: normal"><path d="M131.87437,186.81926c-2.09248,0.00185 -6.36078,1.01233 -8.37756,-0.34034c-0.35016,0.28171 -0.79482,0.44134 -1.34733,0.44134c-0.67185,0 -1.27492,-0.52492 -1.75,-1c-0.03286,-0.03286 -0.064,-0.06649 -0.0935,-0.10088c3.33657,-1.62058 5.6366,-5.04186 5.6366,-9.00035c0,-0.29179 -0.0125,-0.58066 -0.03699,-0.86611c0.42944,-0.04984 0.85998,-0.10566 1.28612,-0.1678c0.71871,0.0922 1.43255,0.16962 2.12313,0.16658c4.95048,-0.02176 9.90074,-0.11757 14.85124,-0.101c0.22601,0.00075 0.47648,0.09699 0.70301,0.101c1.96352,0.0347 3.92033,0.07601 5.87684,0.11229c0.03208,0.25869 0.07403,0.51432 0.12548,0.7665c0.09894,3.06961 0.07573,6.72299 0.54086,10.20888c-6.47598,-0.09513 -12.94007,-0.22594 -19.53791,-0.22011z" fill="#b85000" stroke="none" stroke-width="0.5"/><path d="M174.31962,176.26788l-0.0183,10.74019l-54.17305,-0.0923l0.00173,-1.01303c0.13729,-0.06339 0.27289,-0.1298 0.40673,-0.19915c3.35059,-1.61541 5.66257,-5.04417 5.66257,-9.01292c0,-0.08582 -0.00108,-0.17139 -0.00323,-0.2567c0.00025,-0.00988 0.00048,-0.01978 0.0007,-0.02967c0.02426,-0.0724 0.04771,-0.14517 0.07035,-0.2183z" fill-opacity="0.53333" fill="#00a67e" stroke="#827700" stroke-width="1"/></g></g></svg>