<svg version="1.1" xmlns="http://www.w3.org/2000/svg" xmlns:xlink="http://www.w3.org/1999/xlink" width="21.10794" height="44.65042" viewBox="0,0,21.10794,44.65042"><g transform="translate(-231.49939,-160.94928)"><g data-paper-data="{&quot;isPaintingLayer&quot;:true}" fill-rule="nonzero" stroke-width="0.5" stroke-linejoin="miter" stroke-miterlimit="10" stroke-dasharray="" stroke-dashoffset="0" style="mix-blend-mode: normal"><g><path d="M238.01298,177.61914l3.02878,-0.60575l0.20192,4.03836l-4.24028,0.40384l-0.20192,-1.81726l-0.20192,-1.41343z" fill="none" stroke="#4d4f00" stroke-linecap="round"/><path d="M236.39764,170.552l4.64412,-1.00959v4.4422l-4.03837,0.80767z" fill="none" stroke="#4d4f00" stroke-linecap="round"/><path d="M243.86862,169.13857l4.64411,-0.80767l-0.20192,3.83645l-4.03836,0.60575z" fill="none" stroke="#4d4f00" stroke-linecap="round"/><path d="M244.07054,176.40763l3.83644,-0.80768l0.20192,3.83645l-4.03836,0.60575z" fill="none" stroke="#4d4f00" stroke-linecap="round"/><path d="M249.91567,179.79565c1.45807,0.44698 2.07018,3.6659 1.52674,5.86703c0.05143,0.1421 0.06626,0.24585 0.06626,0.24585c0.57074,4.01146 0.01217,7.62261 0.01217,11.61937v0.54515c0,0 0.00001,0.2696 -0.12718,0.55443c0.132,0.1192 0.23762,0.26706 0.30707,0.43376c-0.09011,0.38297 -0.12575,0.78206 -0.13976,1.1792c-0.22032,0.30171 -0.57674,0.49771 -0.97894,0.49771c-0.17902,0 -0.34897,-0.03883 -0.50188,-0.10853c-0.08142,0.03371 -0.15726,0.05677 -0.21926,0.07235c-0.24952,0.25111 -0.55804,0.34605 -0.55804,0.34605c-0.39371,0.12114 -0.78744,0.24229 -1.18115,0.36343l-0.44711,0.05357c0,0 -0.1982,0 -0.43425,-0.08017c-4.16423,1.3544 -8.46378,2.3683 -12.65643,3.66091c0,0 -0.3641,0.11203 -0.74676,0.00626c-0.10679,0.0308 -0.21965,0.0473 -0.33635,0.0473c-0.66902,0 -1.21137,-0.54235 -1.21137,-1.21137c0,-0.26753 0.08673,-0.5148 0.2336,-0.71524c0.04634,-0.15291 0.12209,-0.29304 0.22068,-0.41379c-0.00256,-3.86962 -0.3868,-7.73883 -0.36342,-11.59104c0.00359,-0.59126 -0.04915,-1.3897 0.1094,-2.10059c-0.7076,-2.12433 -0.69104,-4.80958 0.40003,-5.43305c0.5268,-0.89261 1.49845,-1.4914 2.60996,-1.4914c0.01153,0 0.02305,0.00007 0.03455,0.00019c4.46135,0.01529 10.0164,-3.6855 14.38145,-2.34737z" fill="#6e7100" stroke="none" stroke-linecap="butt"/><path d="M233.04651,165.48553c0.02336,0 0.0466,0.00044 0.06974,0.00131c0.20379,-0.07908 0.42539,-0.12246 0.65712,-0.12246c0.14994,0 0.29563,0.01816 0.435,0.0524c0.2505,-0.13023 0.53516,-0.20383 0.837,-0.20383c0.03792,0 0.07557,0.00116 0.11291,0.00345c0.23479,-0.17695 0.49808,-0.33788 0.78464,-0.48476c0.82351,-0.06318 1.66949,-0.299 2.34672,-0.55104l0.34611,-0.12979c0,0 0.03583,-0.01343 0.07723,-0.04349c0.88271,-0.15407 1.75854,-0.34441 2.54927,-0.66037c2.30817,-0.33233 4.52712,-0.51155 5.56515,-0.9482c0.75583,-0.31794 1.91653,-0.63073 2.88993,-0.5129c0.15987,-0.19636 0.35995,-0.35869 0.58768,-0.47443c0.12242,-0.04314 0.24401,-0.08967 0.36496,-0.1382c0.14607,-0.03786 0.29928,-0.058 0.4572,-0.058c0.5873,0 1.10952,0.27863 1.44169,0.71091c-0.00316,2.12872 -0.17185,4.2515 -0.17592,6.36244c-0.04564,0.08025 -0.04564,0.16601 -0.04564,0.16601c0,0.80793 -0.03392,1.62425 -0.04134,2.43824c-0.0302,0.14902 -0.06062,0.29483 -0.09098,0.43697c-0.07006,0.32803 -0.1285,0.83163 -0.22695,1.36301c0.02572,0.03729 0.05008,0.07559 0.07301,0.11483c0.04117,0.06057 0.0783,0.12355 0.11091,0.18876c0.12291,0.24582 0.20182,0.71 0.24617,1.3164c-0.36103,1.26719 -0.30616,2.99721 -0.16733,4.23509c-0.09564,0.85034 -0.16377,1.72125 -0.06377,2.51673c-0.16684,1.79679 -0.37404,3.24389 -0.51718,3.50011c-0.92714,1.65964 -2.63343,1.55657 -3.51946,-0.21548c-0.66124,-1.32248 -0.31273,-3.68964 0.07484,-5.95799c-0.29337,-0.82456 -0.46364,-1.82294 -0.49172,-2.74189c-1.11858,0.34999 -2.40438,0.73178 -3.69713,1.09976c-0.01674,0.26011 -0.08821,0.50531 -0.20301,0.72422c0.84057,2.40441 1.02674,5.51724 -1.33768,5.51724c-0.16747,0 -0.34778,-0.10538 -0.53158,-0.29097c-0.31789,1.88221 -6.38858,3.7786 -7.73647,3.74356c-0.61019,-0.01586 -1.15831,-0.47691 -1.58993,-0.90853c-1.04565,-1.04565 -0.05729,-5.49892 -0.47873,-7.18466c-0.07233,-0.19601 -0.11183,-0.40792 -0.11183,-0.62905c0,-0.03761 0.00114,-0.07496 0.0034,-0.112c0.00027,-0.00563 0.00056,-0.01125 0.00086,-0.01684l-0.47497,-0.83119c-0.0064,-0.07573 -0.0141,-0.15096 -0.02335,-0.2258c0.08489,-0.16919 0.15222,-0.35607 0.22149,-0.54099v-0.05011l-0.01132,-0.05094l0.01132,-0.01698v-6.57721l-0.01132,-0.01698l0.01132,-0.05095v-0.05063l0.10126,-0.40505l0.01555,-0.06996c-0.11501,-0.09482 -0.21816,-0.2035 -0.30689,-0.3235c0.07557,-0.69015 0.04795,-1.5323 0.01702,-2.18107c0.33201,-0.43473 0.85574,-0.7152 1.44498,-0.7152zM238.10508,174.17996l0.29123,-0.0224l0.28337,-0.07084h0.45587l0.08344,-0.00642l0.10377,-0.04915l0.21567,-0.04314l0.03974,-0.01987l0.01013,-0.01772l0.05063,-0.01266l0.04529,-0.02264l0.40757,-0.09057l0.03359,-0.00839l0.09039,-0.06027l0.06885,-0.02458l0.03054,-0.05345l0.27262,-0.06816v-0.43164l-0.09086,-0.36343v-0.05063l-0.01132,-0.05094l0.01132,-0.01698v-1.70018l-0.00308,-0.03999l-0.03352,-0.06287l-0.09086,-0.36343v-0.22369l-0.05425,-0.21701v-0.09245l-0.02002,-0.26019l-0.07084,-0.28338v-0.06493c-0.35341,0.19172 -0.73947,0.33508 -1.11151,0.40625l-0.03922,0.01401l-0.03054,0.05346l-0.39708,0.09927l-0.38546,0.13767l-0.05507,-0.02753l-0.07092,0.01773h-0.14149l-0.08214,0.01825l-0.11034,0.07022l-0.29433,0.09811l-0.19452,0.16673l-0.43911,0.21956l-0.01012,0.01772l-0.05064,0.01266l-0.04528,0.02265l-0.23463,0.05214l-0.02435,0.01623l-0.00858,0.00306v2.92413l0.97681,0.55818h0.36385zM243.85848,169.1819l0.02001,0.26019l0.07085,0.28338v0.13974l0.01968,0.07872l0.06879,0.20637l0.0224,0.29123l0.07084,0.28337v1.90801l0.0362,0.14479c1.39693,-0.38875 2.79597,-0.75961 4.20225,-1.07642c-0.08492,-0.96627 -0.07209,-2.05994 0.00518,-3.16104c-1.27607,0.3669 -2.88766,0.55434 -4.5162,0.64042zM237.22587,181.46893c0.00011,0.11844 0.23591,-0.02323 0.35272,-0.04276c1.00151,-0.16741 2.56194,-0.519 3.57489,0.00015c-0.49632,-1.05222 -0.90817,-2.45448 -1.01771,-3.61881c-1.27074,0.32461 -2.33851,0.57154 -2.97628,0.67623c0.15194,1.16861 0.066,2.5657 0.06638,2.98518z" fill="#6e7100" stroke="none" stroke-linecap="butt"/><path d="M252.34918,161.26377l-20.59566,4.64411l0.80767,39.37406l18.7784,-4.64412z" fill="none" stroke="#4d4f00" stroke-linecap="round"/></g></g></g></svg>