<svg version="1.1" xmlns="http://www.w3.org/2000/svg" xmlns:xlink="http://www.w3.org/1999/xlink" width="45.37151" height="43.8883" viewBox="0,0,45.37151,43.8883"><g transform="translate(-218.58666,-154.47978)"><g data-paper-data="{&quot;isPaintingLayer&quot;:true}" fill-rule="nonzero" stroke-linecap="butt" stroke-linejoin="miter" stroke-miterlimit="10" stroke-dasharray="" stroke-dashoffset="0" style="mix-blend-mode: normal"><path d="M236.91775,155.31899c3.82799,-0.37278 6.90856,0.45678 6.88063,1.85287c-0.02793,1.39609 -3.15378,2.83004 -6.98177,3.20282c-3.82799,0.37278 -6.90855,-0.45678 -6.88062,-1.85287c0.02793,-1.39609 3.15377,-2.83004 6.98177,-3.20282z" fill="#504f1a" stroke="#000000" stroke-width="1.5"/><path d="M224.36193,178.15222c0.02114,3.84605 -1.08667,6.83783 -2.47436,6.68234c-1.38769,-0.15549 -2.52976,-3.39938 -2.55091,-7.24542c-0.02114,-3.84605 1.08667,-6.83783 2.47436,-6.68234c1.38769,0.15549 2.52976,3.39938 2.55091,7.24542z" fill="#504f1a" stroke="#000000" stroke-width="1.5"/><path d="M262.47638,179.85459c-0.93581,0.3525 -1.28831,-0.58331 -1.28831,-0.58331l-0.12486,-0.43146c-0.01639,-0.17384 -0.03278,-0.34768 -0.04916,-0.52152c-1.39974,-0.52204 -2.74354,-1.19322 -4.10564,-1.80993c0,0 -0.91097,-0.41246 -0.49851,-1.32344c0.41246,-0.91098 1.32344,-0.4985 1.32344,-0.4985c1.58607,0.71813 3.1498,1.53219 4.81471,2.04512l0.04246,-0.24108c0,0 0.93581,-0.3525 1.2883,0.58331c0.35249,0.93581 -0.58332,1.28831 -0.58332,1.28831l-0.26327,0.05495c0.00739,0.07837 0.01477,0.15673 0.02216,0.2351l0.00532,-0.08584c0,0 0.3525,0.93581 -0.58331,1.28831z" fill="#717034" stroke="none" stroke-width="0.5"/><path d="M247.04635,198.36776c-0.99979,-0.02063 -0.97916,-1.02042 -0.97916,-1.02042l0.04447,-0.44696c0.04941,-0.16747 0.09882,-0.33495 0.14822,-0.50242c-1.10538,-1.00495 -2.10341,-2.12756 -3.13864,-3.20641c0,0 -0.69236,-0.72154 0.02918,-1.41391c0.72154,-0.69237 1.41391,0.02917 1.41391,0.02917c1.20547,1.25626 2.35454,2.59327 3.70947,3.68832l0.12903,-0.20803c0,0 0.99979,0.02063 0.97916,1.02042c-0.02063,0.99979 -1.02042,0.97916 -1.02042,0.97916l-0.26484,-0.04686c-0.02228,0.07549 -0.04454,0.15099 -0.06681,0.22649l0.03684,-0.07771c0,0 -0.02063,0.99979 -1.02042,0.97916z" fill="#717034" stroke="none" stroke-width="0.5"/><path d="M248.33171,163.70737c6.77952,7.06517 7.48636,17.38805 1.57876,23.05681c-5.9076,5.66876 -16.19255,4.53673 -22.97207,-2.52844c-6.77952,-7.06517 -7.48636,-17.38805 -1.57876,-23.05681c5.9076,-5.66876 16.19255,-4.53673 22.97207,2.52844z" fill="#504f1a" stroke="#000000" stroke-width="1.5"/><path d="M256.51388,165.97532c2.91833,4.95827 2.84922,10.41085 -0.15434,12.17868c-3.00357,1.76783 -7.8042,-0.81852 -10.72253,-5.77679c-2.91833,-4.95827 -2.84923,-10.41085 0.15433,-12.17868c3.00357,-1.76783 7.80421,0.81852 10.72254,5.77679z" fill="#504f1a" stroke="#000000" stroke-width="1.5"/><path d="M237.30255,181.94819c5.52536,1.60357 9.21709,5.61687 8.2457,8.96396c-0.97139,3.34709 -6.23804,4.7605 -11.76341,3.15694c-5.52536,-1.60357 -9.21709,-5.61686 -8.2457,-8.96395c0.97139,-3.34709 6.23805,-4.76051 11.76341,-3.15695z" fill="#504f1a" stroke="#000000" stroke-width="1.5"/></g></g></svg>