<svg version="1.1" xmlns="http://www.w3.org/2000/svg" xmlns:xlink="http://www.w3.org/1999/xlink" width="87.65807" height="124.15941" viewBox="0,0,87.65807,124.15941"><g transform="translate(-183.10652,-97.20998)"><g data-paper-data="{&quot;isPaintingLayer&quot;:true}" fill-rule="nonzero" stroke-linejoin="miter" stroke-miterlimit="10" stroke-dasharray="" stroke-dashoffset="0" style="mix-blend-mode: normal"><g><g><path d="M253.07986,140.12559c-5.85097,3.91109 -12.08029,4.8583 -13.9136,2.11567c-1.83331,-2.74264 1.4236,-8.13653 7.27456,-12.04762c5.85097,-3.91109 12.08029,-4.8583 13.91362,-2.11567c1.83331,2.74264 -1.42363,8.13653 -7.27456,12.04762z" fill="#8c6738" stroke="none" stroke-width="0" stroke-linecap="butt"/><path d="M265.35254,116.1181c3.13236,7.58254 -1.00975,16.48946 -9.25162,19.89418c-8.24189,3.40473 -17.46251,0.01794 -20.59484,-7.56458c-3.13235,-7.58254 1.00975,-16.48946 9.25162,-19.89418c8.24189,-3.40472 17.46251,-0.01794 20.59484,7.56458z" fill="#8c6738" stroke="none" stroke-width="0" stroke-linecap="butt"/><path d="M264.45851,116.34553c3.85231,2.57375 6.31878,6.78149 5.50903,9.39827c-0.80974,2.61676 -4.58909,2.65168 -8.4414,0.07792c-3.85231,-2.57375 -6.31877,-6.78149 -5.50903,-9.39827c0.80974,-2.61677 4.58911,-2.65168 8.4414,-0.07793z" fill="#8c6738" stroke="none" stroke-width="0" stroke-linecap="butt"/><path d="M265.05926,130.61048c-4.15035,2.05884 -9.02755,2.10223 -10.89346,0.09687c-1.86592,-2.00538 -0.01402,-5.30009 4.13633,-7.35894c4.15035,-2.05885 9.02752,-2.10223 10.89346,-0.09685c1.86591,2.00538 0.01405,5.3001 -4.13633,7.35894z" data-paper-data="{&quot;index&quot;:null}" fill="#8c6738" stroke="none" stroke-width="0" stroke-linecap="butt"/><path d="M264.69179,132.18073l-0.84285,-2.16852l1.62001,-0.69572l0.71738,1.92894l-1.41974,1.11632" fill="#b39675" stroke="#b39675" stroke-width="0.5" stroke-linecap="round"/><path d="M270.51982,122.99195c0.15287,0.37011 -0.02641,0.60223 -0.17759,0.72237c-0.00563,4.70603 -4.84761,5.4957 -8.53123,7.01743c0,0 -0.58272,0.24071 -0.82344,-0.342c-0.24072,-0.58271 0.342,-0.82343 0.342,-0.82343c2.9511,-1.2191 7.27433,-1.83686 7.71496,-5.28277c-0.06975,0.02883 -0.1268,0.05237 -0.1643,0.06786c0,0 -0.58272,0.24071 -0.82344,-0.34199c-0.24072,-0.58271 0.342,-0.82343 0.342,-0.82343c0.21628,-0.08935 0.43253,-0.17868 0.64879,-0.26803l0.6488,-0.26803c0,0 0.58271,-0.24071 0.82343,0.342z" fill="#864e00" stroke="none" stroke-width="0.5" stroke-linecap="butt"/><path d="M270.7063,122.83051c0.24072,0.58271 -0.34199,0.82344 -0.34199,0.82344c-0.43253,0.17868 -1.2976,0.53603 -1.73012,0.71471c0,0 -0.58272,0.24071 -0.82344,-0.342c-0.24072,-0.58271 0.342,-0.82344 0.342,-0.82344c0.43253,-0.17868 0.86507,-0.35735 1.2976,-0.53603l0.43253,-0.17869c0,0 0.58272,-0.24071 0.82344,0.342z" fill="#871400" stroke="none" stroke-width="0.5" stroke-linecap="butt"/><path d="M258.99054,116.865c0.07432,-0.29552 0.38441,-0.42363 0.38441,-0.42363l0.1693,-0.0548c2.57097,-0.17728 1.50461,2.89382 -0.43521,1.18971c0,0 -0.32218,-0.33971 -0.11853,-0.71129z" fill="#000000" stroke="none" stroke-width="0.5" stroke-linecap="butt"/><path d="M249.47487,113.87175c-0.41354,0.47591 -0.88946,0.06236 -0.88946,0.06236l-0.10592,-0.09528c-0.44282,-0.32906 -0.81562,-0.71766 -1.1929,-1.108c0.02418,0.24856 0.05316,0.50141 0.08744,0.76062l-0.0378,0.36184c0,0 -0.12294,0.61838 -0.74132,0.49544c-0.61837,-0.12294 -0.49543,-0.74132 -0.49543,-0.74132l0.02441,0.04892c-0.22803,-1.73256 -0.23388,-3.23091 -0.14983,-4.98349c0,0 0.03032,-0.62974 0.66006,-0.59943c0.62975,0.03031 0.59943,0.66006 0.59943,0.66006c-0.0367,0.75953 -0.05649,1.4615 -0.04716,2.15569c0.72109,0.61056 1.27972,1.40065 2.03329,1.92887l0.19278,0.16428c0,0 0.47591,0.41355 0.06236,0.88946z" fill="#7c4800" stroke="none" stroke-width="0.5" stroke-linecap="butt"/><path d="M247.90358,107.01102c0.08726,0.04161 0.54575,0.28966 0.32645,0.81773c-0.24183,0.58226 -0.82409,0.34044 -0.82409,0.34044l-0.33017,-0.21873c-0.34094,-0.75592 -1.41195,0.53719 -1.75221,0.9316c0,0 -0.41354,0.47592 -0.88945,0.06237c-0.47591,-0.41354 -0.06236,-0.88945 -0.06236,-0.88945c1.01054,-1.1558 2.26203,-2.17203 3.53185,-1.04393z" fill="#8c6738" stroke="none" stroke-width="0.5" stroke-linecap="butt"/><path d="M252.00788,114.23975c-0.61091,0.15591 -0.76679,-0.455 -0.76679,-0.455l-0.04918,-0.21833c-0.72452,-1.75626 -1.53714,-3.3858 -2.57849,-4.97935c-2.4883,-5.2208 -5.71415,2.50768 -4.37687,5.69843c0,0 0.24071,0.58271 -0.34199,0.82343c-0.58271,0.24071 -0.82344,-0.34199 -0.82344,-0.34199c-1.90158,-4.65971 3.34437,-13.63018 6.64057,-6.79943c1.07176,1.63166 1.9012,3.31761 2.64568,5.11745l0.10554,0.38797c0,0 0.1559,0.61091 -0.455,0.76679z" fill="#7c4800" stroke="none" stroke-width="0.5" stroke-linecap="butt"/><path d="M245.06302,128.47668c0,7.03778 -2.67432,12.74302 -5.9733,12.74302c-3.29895,0 -5.97329,-5.70524 -5.97329,-12.74302c0,-7.03777 2.67432,-12.74301 5.97329,-12.74301c3.29895,0 5.9733,5.70524 5.9733,12.74301z" fill="#8c6738" stroke="none" stroke-width="0" stroke-linecap="butt"/><path d="M254.77398,128.92139c-0.58271,0.24071 -0.82343,-0.34199 -0.82343,-0.34199l-0.07047,-0.17056c-1.62583,-3.93571 -0.97561,-5.57115 1.23413,-8.864c0,0 0.35133,-0.52355 0.87485,-0.17222c0.52353,0.35133 0.17219,0.87485 0.17219,0.87485c-2.00046,2.98101 -2.59881,4.08983 -1.11575,7.67991l0.07046,0.17056c0,0 0.24071,0.58271 -0.34199,0.82343z" fill="#864e00" stroke="none" stroke-width="0.5" stroke-linecap="butt"/><path d="M249.44342,134.35041c0,8.74224 -3.96693,15.82922 -8.86037,15.82922c-4.89346,0 -8.86037,-7.08698 -8.86037,-15.82922c0,-8.74224 3.96693,-15.82922 8.86037,-15.82922c4.89346,0 8.86037,7.08698 8.86037,15.82922z" fill="#8c6738" stroke="none" stroke-width="0" stroke-linecap="butt"/></g><path d="M255.65736,109.63833c-2.04129,-1.02754 -3.65994,-2.94029 -5.55297,-4.21306c-1.89363,-1.88317 -5.64671,-4.64639 -6.21467,-7.33967c-0.0313,-0.05768 -0.06206,-0.11568 -0.09232,-0.17401c0,0 -0.21724,-0.42224 0.205,-0.63948c0.42225,-0.21724 0.63949,0.205 0.63949,0.205c1.55076,3.04469 4.69995,5.17945 7.27416,7.25766c1.25125,0.83513 4.06796,2.93128 5.58689,2.72392l0.23515,-0.08339c0,0 0.28838,-0.09157 0.47785,0.10168c0.06794,0.0082 0.14236,0.03458 0.22208,0.08781c0.39496,0.26362 0.13136,0.65855 0.13136,0.65855c-0.3704,0.54857 -0.84638,0.9814 -1.21538,1.53585l-0.17572,0.26329c0,0 -0.26362,0.39499 -0.65858,0.13137c-0.10229,-0.06827 -0.16042,-0.14536 -0.19038,-0.22213c-0.18162,-0.06244 -0.40386,-0.15843 -0.67192,-0.29338z" fill="#8c8172" stroke="none" stroke-width="0.5" stroke-linecap="butt"/><path d="M250.99052,123.66024c-3.00384,-0.42911 -5.85046,-2.1511 -8.77152,-2.95158c-3.18019,-1.56836 -9.07291,-3.4572 -10.92766,-6.60619c-0.06378,-0.05934 -0.12708,-0.11931 -0.18985,-0.17989c0,0 -0.4521,-0.43941 -0.01269,-0.89155c0.43941,-0.4521 0.89155,-0.01269 0.89155,-0.01269c3.24032,3.17525 8.10707,4.5288 12.22628,6.05456c1.92816,0.52138 6.36016,1.96704 8.18389,1.06316l0.26062,-0.2045c0,0 0.32415,-0.23734 0.64441,-0.07432c0.08898,-0.01843 0.19379,-0.01672 0.31665,0.01649c0.60861,0.16455 0.44405,0.7732 0.44405,0.7732c-0.23396,0.84713 -0.64972,1.59332 -0.87941,2.44728l-0.10973,0.40573c0,0 -0.16458,0.60864 -0.77319,0.44405c-0.15764,-0.04262 -0.2634,-0.11505 -0.33361,-0.19895c-0.25502,-0.00168 -0.57529,-0.02842 -0.96978,-0.08478z" fill="#8c8172" stroke="none" stroke-width="0.5" stroke-linecap="butt"/><path d="M249.11966,118.48031c-2.67899,-1.42481 -4.7706,-4.01205 -7.24549,-5.75798c-2.45752,-2.55617 -7.357,-6.33597 -8.03063,-9.928c-0.03982,-0.0775 -0.07893,-0.1554 -0.11737,-0.23373c0,0 -0.27578,-0.56695 0.2912,-0.84275c0.56698,-0.27577 0.84276,0.29118 0.84276,0.29118c1.96774,4.08778 6.08436,7.01534 9.43943,9.8507c1.63604,1.14586 5.31252,4.01228 7.33488,3.7823l0.31461,-0.1037c0,0 0.38555,-0.11299 0.63129,0.14919c0.08993,0.01291 0.18791,0.05013 0.29217,0.12318c0.51641,0.36169 0.15472,0.87811 0.15472,0.87811c-0.50804,0.71711 -1.15274,1.2775 -1.65909,2.00248l-0.24113,0.34427c0,0 -0.36169,0.51641 -0.87811,0.15472c-0.13377,-0.09369 -0.20862,-0.19776 -0.24609,-0.30053c-0.23923,-0.08829 -0.53135,-0.22234 -0.88318,-0.40946z" fill="#8c8172" stroke="none" stroke-width="0.5" stroke-linecap="butt"/><path d="M253.07986,140.12559c-5.85097,3.91109 -12.08029,4.8583 -13.9136,2.11567c-1.83331,-2.74264 1.4236,-8.13653 7.27456,-12.04762c5.85097,-3.91109 12.08029,-4.8583 13.91362,-2.11567c1.83331,2.74264 -1.42363,8.13653 -7.27456,12.04762z" fill="#8c6738" stroke="none" stroke-width="0" stroke-linecap="butt"/><path d="M265.35254,116.1181c3.13236,7.58254 -1.00975,16.48946 -9.25162,19.89418c-8.24189,3.40473 -17.46251,0.01794 -20.59484,-7.56458c-3.13235,-7.58254 1.00975,-16.48946 9.25162,-19.89418c8.24189,-3.40472 17.46251,-0.01794 20.59484,7.56458z" fill="#8c6738" stroke="none" stroke-width="0" stroke-linecap="butt"/><path d="M264.45851,116.34553c3.85231,2.57375 6.31878,6.78149 5.50903,9.39827c-0.80974,2.61676 -4.58909,2.65168 -8.4414,0.07792c-3.85231,-2.57375 -6.31877,-6.78149 -5.50903,-9.39827c0.80974,-2.61677 4.58911,-2.65168 8.4414,-0.07793z" fill="#8c6738" stroke="none" stroke-width="0" stroke-linecap="butt"/><path d="M265.05926,130.61048c-4.15035,2.05884 -9.02755,2.10223 -10.89346,0.09687c-1.86592,-2.00538 -0.01402,-5.30009 4.13633,-7.35894c4.15035,-2.05885 9.02752,-2.10223 10.89346,-0.09685c1.86591,2.00538 0.01405,5.3001 -4.13633,7.35894z" data-paper-data="{&quot;index&quot;:null}" fill="#8c6738" stroke="none" stroke-width="0" stroke-linecap="butt"/><path d="M264.69179,132.18073l-0.84285,-2.16852l1.62001,-0.69572l0.71738,1.92894l-1.41974,1.11632" fill="#b39675" stroke="#b39675" stroke-width="0.5" stroke-linecap="round"/><path d="M270.51982,122.99195c0.15287,0.37011 -0.02641,0.60223 -0.17759,0.72237c-0.00563,4.70603 -4.84761,5.4957 -8.53123,7.01743c0,0 -0.58272,0.24071 -0.82344,-0.342c-0.24072,-0.58271 0.342,-0.82343 0.342,-0.82343c2.9511,-1.2191 7.27433,-1.83686 7.71496,-5.28277c-0.06975,0.02883 -0.1268,0.05237 -0.1643,0.06786c0,0 -0.58272,0.24071 -0.82344,-0.34199c-0.24072,-0.58271 0.342,-0.82343 0.342,-0.82343c0.21628,-0.08935 0.43253,-0.17868 0.64879,-0.26803l0.6488,-0.26803c0,0 0.58271,-0.24071 0.82343,0.342z" fill="#864e00" stroke="none" stroke-width="0.5" stroke-linecap="butt"/><path d="M270.7063,122.83051c0.24072,0.58271 -0.34199,0.82344 -0.34199,0.82344c-0.43253,0.17868 -1.2976,0.53603 -1.73012,0.71471c0,0 -0.58272,0.24071 -0.82344,-0.342c-0.24072,-0.58271 0.342,-0.82344 0.342,-0.82344c0.43253,-0.17868 0.86507,-0.35735 1.2976,-0.53603l0.43253,-0.17869c0,0 0.58272,-0.24071 0.82344,0.342z" fill="#871400" stroke="none" stroke-width="0.5" stroke-linecap="butt"/><path d="M258.99054,116.865c0.07432,-0.29552 0.38441,-0.42363 0.38441,-0.42363l0.1693,-0.0548c2.57097,-0.17728 1.50461,2.89382 -0.43521,1.18971c0,0 -0.32218,-0.33971 -0.11853,-0.71129z" fill="#000000" stroke="none" stroke-width="0.5" stroke-linecap="butt"/><path d="M247.90358,107.01102c0.08726,0.04161 0.54575,0.28966 0.32645,0.81773c-0.24183,0.58226 -0.82409,0.34044 -0.82409,0.34044l-0.33017,-0.21873c-0.34094,-0.75592 -1.41195,0.53719 -1.75221,0.9316c0,0 -0.41354,0.47592 -0.88945,0.06237c-0.47591,-0.41354 -0.06236,-0.88945 -0.06236,-0.88945c1.01054,-1.1558 2.26203,-2.17203 3.53185,-1.04393z" fill="#8c6738" stroke="none" stroke-width="0.5" stroke-linecap="butt"/><path d="M245.06302,128.47668c0,7.03778 -2.67432,12.74302 -5.9733,12.74302c-3.29895,0 -5.97329,-5.70524 -5.97329,-12.74302c0,-7.03777 2.67432,-12.74301 5.97329,-12.74301c3.29895,0 5.9733,5.70524 5.9733,12.74301z" fill="#8c6738" stroke="none" stroke-width="0" stroke-linecap="butt"/><path d="M254.77398,128.92139c-0.58271,0.24071 -0.82343,-0.34199 -0.82343,-0.34199l-0.07047,-0.17056c-1.62583,-3.93571 -0.97561,-5.57115 1.23413,-8.864c0,0 0.35133,-0.52355 0.87485,-0.17222c0.52353,0.35133 0.17219,0.87485 0.17219,0.87485c-2.00046,2.98101 -2.59881,4.08983 -1.11575,7.67991l0.07046,0.17056c0,0 0.24071,0.58271 -0.34199,0.82343z" fill="#864e00" stroke="none" stroke-width="0.5" stroke-linecap="butt"/><path d="M249.44342,134.35041c0,8.74224 -3.96693,15.82922 -8.86037,15.82922c-4.89346,0 -8.86037,-7.08698 -8.86037,-15.82922c0,-8.74224 3.96693,-15.82922 8.86037,-15.82922c4.89346,0 8.86037,7.08698 8.86037,15.82922z" fill="#8c6738" stroke="none" stroke-width="0" stroke-linecap="butt"/><g data-paper-data="{&quot;index&quot;:null}" stroke="none" stroke-width="0.5" stroke-linecap="butt"><path d="M255.11427,128.17556c-0.23138,0.58648 -0.81786,0.35511 -0.81786,0.35511l0.10516,-0.06448c-1.10405,0.21343 -2.2412,0.40401 -3.29587,0.79418c-4.14897,1.51861 -8.08065,3.59033 -12.08049,5.12301c0,0 -0.59204,0.21671 -0.80877,-0.37537c-0.21673,-0.59207 0.37534,-0.80878 0.37534,-0.80878c3.9437,-1.34595 8.01394,-3.63457 12.08049,-5.12303c1.12309,-0.40737 2.31714,-0.62135 3.48996,-0.84807l0.59696,0.12955c0,0 0.58648,0.23138 0.35511,0.81786z" fill="#7a6a5e"/><path d="M240.39587,133.12153c-0.46922,0.42109 -0.89034,-0.04815 -0.89034,-0.04815c-0.14793,-0.16486 -0.63734,-0.7102 -0.7853,-0.87506c0,0 -0.12797,-0.14257 -0.1642,-0.34107c-0.67639,-0.69174 -1.48669,-1.51207 -2.37789,-1.51797c0,0 -0.62955,-0.03404 -0.59551,-0.6636c0.03404,-0.62957 0.66359,-0.59551 0.66359,-0.59551c1.51567,0.12446 2.55685,1.28956 3.61684,2.30236l0.27267,0.30107c0,0 0.15169,0.16904 0.17155,0.39524l0.13671,0.15238c0,0 0.42111,0.46925 -0.04812,0.89034z" fill="#7a0c00"/><path d="M240.32297,133.52779c0.62195,0.10334 0.5186,0.7253 0.5186,0.7253l-0.0572,0.34227c-0.28178,1.40493 -0.77257,2.23517 -1.83528,3.19016c0,0 -0.46925,0.42109 -0.89034,-0.04815c-0.42109,-0.46922 0.04812,-0.89034 0.04812,-0.89034c0.86926,-0.77892 1.21479,-1.34539 1.44065,-2.49713l0.05011,-0.30352c0,0 0.10337,-0.62195 0.72533,-0.51861z" fill="#7a0c00"/><path d="M244.6697,131.07202c-0.46922,0.42109 -0.89034,-0.04815 -0.89034,-0.04815l-0.10245,-0.11417c-0.72256,-0.80515 -1.42408,-1.63374 -2.32753,-2.23905c0,0 -0.52234,-0.35312 -0.16925,-0.87544c0.35309,-0.52231 0.87544,-0.16923 0.87544,-0.16923c0.98882,0.67343 1.76459,1.55545 2.5598,2.44158l0.10244,0.11414c0,0 0.42111,0.46925 -0.04812,0.89034z" fill="#7a0c00"/><path d="M244.80556,131.63436c0.62195,0.10334 0.51861,0.7253 0.51861,0.7253l-0.05366,0.32291c-0.20523,1.23494 -0.30012,2.35512 -0.64642,3.41983c-0.74505,0.43939 -1.46648,0.88764 -2.14656,1.33919c0.03412,-0.06295 0.06499,-0.10062 0.06499,-0.10062c1.21967,-1.48165 1.18347,-3.05597 1.48408,-4.86512l0.05366,-0.32291c0,0 0.10334,-0.62193 0.7253,-0.51861z" fill="#7a0c00"/><path d="M248.92073,129.47274c-0.58488,0.23538 -0.82028,-0.34951 -0.82028,-0.34951l-0.1663,-0.4456c-0.65712,-1.01219 -1.50656,-1.75975 -2.41605,-2.53647c0,0 -0.32793,-0.28006 -0.20973,-0.64816c0.41826,-0.00073 0.86949,-0.01438 1.34315,-0.03982c0.88025,0.76556 1.68532,1.54099 2.33825,2.53475l0.28047,0.66455c0,0 0.2354,0.5849 -0.34949,0.82028z" fill="#7a0c00"/><path d="M248.93006,129.71767c0.62957,0.03404 0.59556,0.66362 0.59556,0.66362l-0.03122,0.57749c-0.0557,1.00871 -0.20451,1.85532 -0.41685,2.73651c-0.49823,0.24884 -1.00084,0.50582 -1.50304,0.76941c0.34878,-1.25117 0.58909,-2.21659 0.66077,-3.57402l0.0312,-0.57749c0,0 0.03402,-0.62957 0.6636,-0.59553z" fill="#7a0c00"/><path d="M251.28578,128.71606c-0.63005,0.0231 -0.65315,-0.60694 -0.65315,-0.60694l-0.01173,-0.35754c-0.08322,-0.81808 -0.31027,-1.57416 -0.62786,-2.29331c0.44353,0.06277 0.91831,0.11283 1.41271,0.14988c0.23116,0.6382 0.39566,1.30514 0.46947,2.01431l0.01753,0.44048c0,0 0.02311,0.63005 -0.60694,0.65315z" fill="#7a0c00"/><path d="M252.01447,128.62969c0.624,-0.09008 0.71408,0.53394 0.71408,0.53394l0.01982,0.14519c0.09914,0.48093 0.15359,0.94075 0.18705,1.39551c-0.41559,0.36658 -0.81849,0.73799 -1.2021,1.11005c-0.02221,-0.74213 -0.05712,-1.46125 -0.21993,-2.25095l-0.03284,-0.21966c0,0 -0.09008,-0.62402 0.53392,-0.7141z" fill="#7a0c00"/><path d="M254.3795,127.69511c-0.60803,0.1668 -0.77481,-0.44124 -0.77481,-0.44124l-0.06047,-0.22044c-0.13268,-0.48388 -0.25237,-0.91742 -0.43907,-1.35019c0.4454,0.00681 0.89579,0.00403 1.3439,-0.0085c0.11541,0.32876 0.21255,0.66568 0.3112,1.02508l0.06047,0.22049c0,0 0.1668,0.608 -0.44124,0.77481z" fill="#7a0c00"/><path d="M242.60157,131.829c-0.46922,0.42109 -0.89034,-0.04815 -0.89034,-0.04815l-0.16748,-0.1894c-0.87445,-1.14107 -1.79396,-1.54674 -3.05493,-2.16774c0,0 -0.56526,-0.27928 -0.28599,-0.84452c0.2793,-0.56524 0.84454,-0.28599 0.84454,-0.28599c1.42723,0.70771 2.49973,1.2334 3.49667,2.53052l0.10566,0.11496c0,0 0.42109,0.46925 -0.04815,0.89034z" fill="#7a6500"/><path d="M242.79137,132.46913c0.62804,-0.05533 0.68339,0.5727 0.68339,0.5727l0.02397,0.344c-0.09008,1.29392 -0.78982,2.88889 -1.35399,4.07682c0,0 -0.27119,0.56918 -0.84036,0.29801c-0.5692,-0.27119 -0.29801,-0.84036 -0.29801,-0.84036c0.48943,-1.02367 1.19852,-2.49567 1.23322,-3.60254l-0.02093,-0.16523c0,0 -0.05534,-0.62806 0.5727,-0.68339z" fill="#7a6500"/><path d="M246.95219,130.01049c-0.57833,0.2511 -0.82943,-0.32721 -0.82943,-0.32721l-0.04341,-0.10469c-0.49018,-0.96241 -1.46717,-1.73677 -2.14482,-2.59327c0,0 -0.39105,-0.4946 0.10358,-0.8856c0.4946,-0.39101 0.8856,0.1036 0.8856,0.1036c0.74127,0.93838 1.70287,1.74089 2.27036,2.78585l0.08535,0.19189c0,0 0.2511,0.57833 -0.32722,0.82941z" fill="#7a6500"/><path d="M247.15888,130.78217c0.6303,-0.01434 0.64466,0.61598 0.64466,0.61598l0.00757,0.42096c0.11712,1.15095 -0.06685,2.0337 -0.31617,3.15361c0,0 -0.13707,0.61538 -0.75247,0.47831c-0.6154,-0.13707 -0.47833,-0.75246 -0.47833,-0.75246c0.22259,-0.99881 0.39894,-1.73064 0.29264,-2.75033l-0.01387,-0.52138c0,0 -0.01432,-0.63031 0.61598,-0.64466z" fill="#7a6500"/><path d="M250.13483,129.52943c0.62957,0.03404 0.59553,0.6636 0.59553,0.6636l-0.05397,0.11868c0.21737,0.62187 0.45629,1.23277 0.72097,1.8337c-0.33037,0.33075 -0.64398,0.66104 -0.93619,0.98796c-0.3658,-0.78525 -0.68808,-1.58604 -0.97497,-2.40518l-0.01493,-0.60322c0,0 0.03402,-0.62957 0.6636,-0.59553z" fill="#7a6500"/><path d="M250.45108,128.611c-0.54941,0.30929 -0.85868,-0.24014 -0.85868,-0.24014l-0.15104,-0.29887c-0.4579,-0.51023 -0.90648,-1.01135 -1.32444,-1.55517c0,0 -0.38388,-0.50015 0.11629,-0.88401c0.50017,-0.38386 0.88401,0.11629 0.88401,0.11629c0.39753,0.51873 0.82623,0.99447 1.26263,1.48073l0.31138,0.52251c0,0 0.30927,0.54941 -0.24014,0.85869z" fill="#7a6500"/><path d="M253.63843,128.18109c0.619,-0.11967 0.73868,0.49939 0.73868,0.49939l0.04008,0.2266c0.04622,0.15 0.09251,0.29675 0.1377,0.44173c-0.35421,0.28188 -0.70551,0.57031 -1.05043,0.86315c-0.0892,-0.30663 -0.19295,-0.61124 -0.29229,-0.93349l-0.07308,-0.3587c0,0 -0.11967,-0.61903 0.49934,-0.7387z" fill="#7a6500"/><path d="M252.92052,128.08876c-0.57833,0.2511 -0.82941,-0.32722 -0.82941,-0.32722l-0.15295,-0.36196c-0.12774,-0.41643 -0.27482,-0.8279 -0.44893,-1.22716c0,0 -0.12885,-0.29673 0.01059,-0.55738c0.37335,0.02663 0.75738,0.0459 1.14714,0.05775c0.19088,0.44163 0.35393,0.89581 0.49622,1.3554l0.10456,0.23116c0,0 0.2511,0.57833 -0.32721,0.82943z" fill="#7a6500"/><path d="M239.42201,133.16702c-0.42499,0.4657 -0.89069,0.04071 -0.89069,0.04071l-0.35604,-0.32599c-0.48141,-0.39778 -0.95967,-0.79952 -1.43119,-1.20896c0,0 -0.47603,-0.41337 -0.06267,-0.88943c0.4134,-0.47603 0.88946,-0.0627 0.88946,-0.0627c0.4637,0.40273 0.93407,0.79779 1.40756,1.18896l0.40288,0.36666c0,0 0.46569,0.425 0.04067,0.89069z" fill="#246800"/><path d="M239.80398,134.58342c0.46184,0.42921 0.03268,0.89104 0.03268,0.89104l-0.42514,0.45367c-0.19023,0.17071 -0.38045,0.34142 -0.57068,0.51212c0,0 -0.46925,0.42112 -0.89034,-0.04812c-0.42109,-0.46922 0.04815,-0.89034 0.04815,-0.89034c0.19023,-0.17071 0.38045,-0.34145 0.57068,-0.51215l0.34361,-0.37355c0,0 0.42921,-0.46186 0.89104,-0.03268z" fill="#246800"/><path d="M242.17703,133.34316c0.6154,0.13707 0.47833,0.75247 0.47833,0.75247l-0.11664,0.50247c-0.2549,0.71406 -0.57828,1.31074 -1.00173,1.93873c0,0 -0.35309,0.52234 -0.87544,0.16925c-0.52231,-0.35309 -0.16922,-0.87544 -0.16922,-0.87544c0.36586,-0.53974 0.64193,-1.03702 0.85766,-1.65314l0.07458,-0.35602c0,0 0.13707,-0.6154 0.75247,-0.47833z" fill="#246800"/><path d="M241.30896,132.30211c-0.46922,0.42109 -0.89034,-0.04812 -0.89034,-0.04812l-0.03294,-0.04771c-0.56642,-0.46444 -1.0962,-0.90683 -1.5874,-1.4517c0,0 -0.42109,-0.46925 0.04815,-0.89034c0.46922,-0.42109 0.89034,0.04815 0.89034,0.04815c0.44557,0.49907 0.93157,0.89506 1.44841,1.31882l0.17193,0.1806c0,0 0.42109,0.46925 -0.04815,0.89034z" fill="#246800"/><path d="M243.63952,131.37831c-0.46922,0.42109 -0.89034,-0.04812 -0.89034,-0.04812l-0.15726,-0.18473c-0.41959,-0.62742 -0.84525,-1.25054 -1.2707,-1.87401c0,0 -0.35539,-0.52078 0.16539,-0.87617c0.52078,-0.35539 0.87617,0.16538 0.87617,0.16538c0.42769,0.62672 0.85549,1.25307 1.2773,1.88375l0.04758,0.04355c0,0 0.42109,0.46926 -0.04815,0.89035z" fill="#246800"/><path d="M245.5958,131.45222c0.60803,-0.1668 0.77481,0.44121 0.77481,0.44121l0.08201,0.42131c-0.05702,1.04948 -0.22193,2.08559 -0.27807,3.13438c0,0 -0.03404,0.62957 -0.66362,0.59553c-0.62957,-0.03404 -0.59553,-0.6636 -0.59553,-0.6636c0.05728,-1.04894 0.22163,-2.08492 0.27807,-3.13437l-0.03894,-0.01962c0,0 -0.1668,-0.608 0.44124,-0.77481z" fill="#246800"/><path d="M245.82179,130.51889c-0.46922,0.42109 -0.89031,-0.04815 -0.89031,-0.04815l-0.23578,-0.2655c-0.43491,-0.56743 -0.80908,-1.13096 -1.28895,-1.66314c0,0 -0.42109,-0.46925 0.04815,-0.89034c0.46922,-0.42109 0.89034,0.04815 0.89034,0.04815c0.50015,0.55972 0.89531,1.14497 1.35079,1.7376l0.17394,0.19103c0,0 0.42109,0.46925 -0.04815,0.89034z" fill="#246800"/><path d="M247.94865,130.46103c0.62957,0.03404 0.59553,0.66362 0.59553,0.66362l-0.02603,0.42341c-0.07074,0.45594 -0.13157,0.91362 -0.18057,1.37243c0,0 -0.06708,0.62688 -0.69398,0.5598c-0.6269,-0.06708 -0.55982,-0.69396 -0.55982,-0.69396c0.05129,-0.47845 0.1147,-0.95573 0.18826,-1.43126l0.01301,-0.29847c0,0 0.03402,-0.62954 0.6636,-0.5955z" fill="#246800"/><path d="M248.26649,129.49266c-0.46922,0.42109 -0.89034,-0.04815 -0.89034,-0.04815l-0.09922,-0.11333c-0.41834,-0.54847 -0.85977,-0.94753 -1.38524,-1.39604c0,0 -0.47942,-0.40946 -0.06996,-0.88888c0.40946,-0.47941 0.88888,-0.06996 0.88888,-0.06996c0.58964,0.50393 1.09265,0.97288 1.56667,1.58714l0.03737,0.03886c0,0 0.42109,0.46925 -0.04815,0.89034z" fill="#246800"/><path d="M251.40109,128.87389c0.62957,0.03404 0.59553,0.6636 0.59553,0.6636l-0.01929,0.28589c-0.11609,0.68384 -0.09793,1.10625 0.0286,1.72984c-0.32694,0.30962 -0.64155,0.62035 -0.94005,0.92981c-0.17938,-0.14754 -0.23034,-0.37645 -0.23034,-0.37645c-0.20233,-0.92572 -0.25335,-1.56271 -0.10211,-2.4899l0.00411,-0.14725c0,0 0.03402,-0.62957 0.6636,-0.59553z" fill="#246800"/><path d="M252.88002,128.30224c0.62957,0.03404 0.59553,0.6636 0.59553,0.6636l-0.02484,0.14204c0.07538,0.41826 0.06166,0.74049 0.137,1.03366c-0.33363,0.28175 -0.66158,0.56776 -0.9807,0.85601c-0.25724,-0.49679 -0.26154,-0.92591 -0.39695,-1.66424l0.00638,-0.43551c0,0 0.03404,-0.62957 0.6636,-0.59553z" fill="#246800"/><path d="M254.3125,128.06548c-0.5872,0.22952 -0.81675,-0.35771 -0.81675,-0.35771l-0.09258,-0.28092c-0.14536,-0.21298 -0.2907,-0.42597 -0.43604,-0.63897c0,0 -0.3554,-0.52078 0.16538,-0.87617c0.52078,-0.35539 0.87619,0.16536 0.87619,0.16536c0.14536,0.21298 0.29068,0.42598 0.43605,0.63898l0.22546,0.53268c0,0 0.22952,0.5872 -0.35769,0.81675z" fill="#246800"/><path d="M249.42604,130.00648c0.6266,-0.06993 0.69651,0.55667 0.69651,0.55667l0.05165,0.47127c0.0373,0.66906 0.13432,1.31243 0.24415,1.97317c0,0 0.0119,0.07149 0.00335,0.17002c-0.16236,0.18266 -0.31796,0.36422 -0.46599,0.54416c-0.01799,0.00419 -0.03662,0.00789 -0.05596,0.01112c-0.62195,0.10334 -0.72531,-0.51861 -0.72531,-0.51861c-0.11716,-0.70543 -0.21807,-1.39422 -0.2592,-2.10845l-0.04587,-0.40281c0,0 -0.06993,-0.6266 0.55667,-0.69651z" fill="#693d00"/><path d="M254.2523,127.82769c0.57833,-0.2511 0.82941,0.32722 0.82941,0.32722l0.09409,0.23259c0.03518,0.12996 0.07407,0.25907 0.11647,0.38709c-0.34909,0.26601 -0.69767,0.53977 -1.04254,0.8193c-0.11102,-0.28601 -0.20803,-0.5776 -0.28994,-0.87279l-0.03468,-0.06398c0,0 -0.2511,-0.57833 0.32722,-0.82944z" fill="#693d00"/></g><g data-paper-data="{&quot;index&quot;:null}" stroke="none" stroke-width="0.5" stroke-linecap="butt"><path d="M253.79638,121.47656c-0.49293,0.39309 -0.886,-0.09982 -0.886,-0.09982l0.1233,-0.00348c-1.06352,-0.36532 -2.14428,-0.76697 -3.25307,-0.95447c-4.35374,-0.75171 -8.79485,-0.91556 -13.02631,-1.58075c0,0 -0.62127,-0.10726 -0.51402,-0.72856c0.10726,-0.62127 0.72856,-0.51402 0.72856,-0.51402c4.08972,0.79908 8.75903,0.84399 13.02631,1.58074c1.17668,0.20669 2.31845,0.61641 3.44819,1.00448l0.45291,0.40986c0,0 0.39309,0.49294 -0.09984,0.88603z" fill="#7a6a5e"/><path d="M238.57149,118.42741c-0.61668,0.13115 -0.74782,-0.48554 -0.74782,-0.48554c-0.04608,-0.21666 -0.1985,-0.93339 -0.24458,-1.15005c0,0 -0.03985,-0.18738 0.02769,-0.37753c-0.24152,-0.93685 -0.53507,-2.05191 -1.30472,-2.50129c0,0 -0.5288,-0.34331 -0.18547,-0.87211c0.34333,-0.5288 0.87211,-0.18547 0.87211,-0.18547c1.25191,0.86346 1.57373,2.39247 1.98778,3.79885l0.0863,0.39693c0,0 0.04724,0.22215 -0.04832,0.42815l0.0426,0.20024c0,0 0.13114,0.61669 -0.48555,0.74783z" fill="#7a0c00"/><path d="M238.30578,118.74323c0.48766,0.39963 0.08802,0.88729 0.08802,0.88729l-0.22019,0.2682c-0.94459,1.07749 -1.78391,1.55257 -3.18123,1.85071c0,0 -0.61671,0.13114 -0.74785,-0.48555c-0.13115,-0.61669 0.48555,-0.74782 0.48555,-0.74782c1.14183,-0.24195 1.72373,-0.56077 2.49367,-1.44664l0.19475,-0.23815c0,0 0.39965,-0.48764 0.88728,-0.08804z" fill="#7a0c00"/><path d="M243.29813,118.78108c-0.61668,0.13115 -0.74782,-0.48555 -0.74782,-0.48555l-0.0319,-0.15001c-0.22501,-1.05817 -0.42016,-2.1262 -0.90162,-3.1013c0,0 -0.27681,-0.56647 0.28967,-0.84325c0.56647,-0.27681 0.84328,0.28967 0.84328,0.28967c0.5215,1.07671 0.75435,2.22804 1.00204,3.39261l0.0319,0.15c0,0 0.13115,0.61671 -0.48554,0.74785z" fill="#7a0c00"/><path d="M243.13559,119.3363c0.48766,0.39963 0.08802,0.88726 0.08802,0.88726l-0.20748,0.25317c-0.79352,0.96827 -1.43417,1.89209 -2.26512,2.64244c-0.86492,0.00951 -1.71375,0.03846 -2.5284,0.09095c0.06096,-0.03755 0.1065,-0.05483 0.1065,-0.05483c1.79591,-0.67646 2.54928,-2.0593 3.71171,-3.47781l0.20748,-0.25315c0,0 0.39965,-0.48763 0.88729,-0.08801z" fill="#7a0c00"/><path d="M247.78057,119.51372c-0.62438,-0.08749 -0.53687,-0.71186 -0.53687,-0.71186l0.07794,-0.4692c-0.06507,-1.20502 -0.42882,-2.27652 -0.83009,-3.4032c0,0 -0.14468,-0.40629 0.1413,-0.66645c0.36295,0.20788 0.76091,0.42096 1.18424,0.635c0.38149,1.10246 0.69285,2.176 0.76349,3.36297l-0.08812,0.7159c0,0 -0.08749,0.62438 -0.71186,0.53689z" fill="#7a0c00"/><path d="M247.66655,119.73071c0.5288,0.34333 0.18546,0.87216 0.18546,0.87216l-0.31497,0.48507c-0.55112,0.84668 -1.10213,1.50642 -1.72545,2.16449c-0.55596,-0.03263 -1.11978,-0.06042 -1.68653,-0.08224c0.92605,-0.91077 1.61562,-1.6279 2.35439,-2.76892l0.31494,-0.48509c0,0 0.34333,-0.52882 0.87213,-0.18547z" fill="#7a0c00"/><path d="M250.20804,120.0367c-0.55773,-0.29403 -0.26367,-0.85175 -0.26367,-0.85175l0.16803,-0.31576c0.33564,-0.75068 0.51573,-1.51931 0.59887,-2.30105c0.35322,0.2755 0.73983,0.55556 1.14998,0.83415c-0.11775,0.66849 -0.30757,1.32864 -0.59709,1.98021l-0.20437,0.39057c0,0 -0.29403,0.5577 -0.85175,0.26367z" fill="#7a0c00"/><path d="M250.88278,120.32507c0.58584,0.23298 0.3529,0.81882 0.3529,0.81882l-0.05518,0.13576c-0.15378,0.46633 -0.33579,0.8921 -0.53348,1.303c-0.54302,0.11064 -1.07742,0.23177 -1.59545,0.36308c0.35067,-0.65442 0.67888,-1.29526 0.9314,-2.06099l0.08103,-0.20679c0,0 0.23298,-0.58586 0.81882,-0.3529z" fill="#7a0c00"/><path d="M253.39891,120.69378c-0.61023,-0.1585 -0.45173,-0.76874 -0.45173,-0.76874l0.05746,-0.22128c0.12619,-0.48562 0.23855,-0.92108 0.29242,-1.38935c0.38272,0.22793 0.77454,0.45004 1.16926,0.66256c-0.06383,0.34253 -0.14756,0.68304 -0.2412,1.04378l-0.0575,0.2213c0,0 -0.15848,0.6102 -0.76871,0.45173z" fill="#7a0c00"/><path d="M241.12794,118.40637c-0.61668,0.13115 -0.74785,-0.48554 -0.74785,-0.48554l-0.05077,-0.2477c-0.18927,-1.42512 -0.78417,-2.23511 -1.56775,-3.40205c0,0 -0.35083,-0.52385 0.17306,-0.87465c0.52389,-0.3508 0.87467,0.17306 0.87467,0.17306c0.88451,1.32494 1.55222,2.3153 1.76986,3.93672l0.0343,0.15233c0,0 0.13114,0.61671 -0.48554,0.74784z" fill="#7a6500"/><path d="M240.97339,119.05595c0.57205,0.26511 0.30695,0.83713 0.30695,0.83713l-0.15071,0.31015c-0.72308,1.07681 -2.12474,2.11067 -3.206,2.85925c0,0 -0.5188,0.35824 -0.87704,-0.16057c-0.35824,-0.51881 0.16057,-0.87707 0.16057,-0.87707c0.93457,-0.64344 2.28303,-1.56604 2.86485,-2.5083l0.06423,-0.15366c0,0 0.26507,-0.57205 0.83713,-0.30694z" fill="#7a6500"/><path d="M245.80598,118.99862c-0.62649,-0.07062 -0.5559,-0.69711 -0.5559,-0.69711l0.01456,-0.11238c0.0548,-1.07868 -0.40616,-2.23697 -0.56665,-3.31726c0,0 -0.09243,-0.62369 0.53122,-0.7161c0.62367,-0.0924 0.7161,0.53126 0.7161,0.53126c0.17484,1.183 0.60841,2.35802 0.57949,3.54681l-0.02166,0.20889c0,0 -0.07062,0.62652 -0.69714,0.5559z" fill="#7a6500"/><path d="M245.60049,119.77063c0.55356,0.30174 0.25182,0.85534 0.25182,0.85534l-0.20329,0.3687c-0.47218,1.05615 -1.07169,1.72971 -1.84609,2.57624c0,0 -0.4256,0.46515 -0.89077,0.03955c-0.46517,-0.4256 -0.03957,-0.89077 -0.03957,-0.89077c0.69083,-0.75491 1.20853,-1.30141 1.62467,-2.23838l0.24788,-0.45891c0,0 0.30175,-0.55356 0.85534,-0.25179z" fill="#7a6500"/><path d="M248.80482,120.16809c0.5288,0.34333 0.18549,0.87213 0.18549,0.87213l-0.10595,0.07596c-0.12156,0.64745 -0.21898,1.29614 -0.28909,1.94902c-0.45125,0.12204 -0.88777,0.25206 -1.30406,0.38978c0.07432,-0.86307 0.19414,-1.71793 0.35372,-2.57107l0.28775,-0.53038c0,0 0.34331,-0.52882 0.87211,-0.18547z" fill="#7a6500"/><path d="M249.53678,119.52954c-0.63046,-0.00575 -0.62468,-0.6362 -0.62468,-0.6362l0.01806,-0.33438c-0.14261,-0.67059 -0.2817,-1.32857 -0.37294,-2.00838c0,0 -0.08347,-0.62495 0.54148,-0.7084c0.62493,-0.08345 0.70838,0.54148 0.70838,0.54148c0.08605,0.64786 0.22054,1.27397 0.35645,1.91303l0.00948,0.60819c0,0 -0.00578,0.63046 -0.63621,0.62468z" fill="#7a6500"/><path d="M252.51421,120.74568c0.59628,0.20483 0.39143,0.80115 0.39143,0.80115l-0.0782,0.2164c-0.03473,0.15309 -0.06775,0.30337 -0.10083,0.45161c-0.44756,0.06779 -0.89592,0.14271 -1.3409,0.22464c0.0755,-0.31028 0.13742,-0.62606 0.21194,-0.95495l0.11545,-0.3474c0,0 0.20482,-0.59628 0.80111,-0.39145z" fill="#7a6500"/><path d="M251.93788,120.30777c-0.62649,-0.07062 -0.55593,-0.69714 -0.55593,-0.69714l0.04784,-0.39002c0.09687,-0.42467 0.17446,-0.8547 0.22256,-1.28762c0,0 0.03621,-0.32147 0.28702,-0.47791c0.3104,0.20916 0.63368,0.41733 0.96569,0.6219c-0.05464,0.47803 -0.13974,0.95298 -0.24551,1.42234l-0.02456,0.25252c0,0 -0.07062,0.62652 -0.69711,0.55593z" fill="#7a6500"/><path d="M237.70458,117.98137c-0.60059,0.19187 -0.79241,-0.4087 -0.79241,-0.4087l-0.14617,-0.46008c-0.21905,-0.58481 -0.43337,-1.17148 -0.63807,-1.76146c0,0 -0.20664,-0.59565 0.38904,-0.80227c0.59568,-0.20662 0.8023,0.38903 0.8023,0.38903c0.20122,0.58026 0.41208,1.15721 0.62756,1.73236l0.16649,0.51869c0,0 0.19187,0.60057 -0.40873,0.79243z" fill="#246800"/><path d="M237.32968,119.39965c0.18644,0.60228 -0.41584,0.78874 -0.41584,0.78874l-0.5947,0.18138c-0.25,0.05316 -0.50002,0.10632 -0.75002,0.15949c0,0 -0.61668,0.13115 -0.74782,-0.48554c-0.13115,-0.61669 0.48554,-0.74785 0.48554,-0.74785c0.25,-0.05316 0.50002,-0.10632 0.75002,-0.15949l0.48408,-0.15257c0,0 0.60228,-0.18644 0.78874,0.41584z" fill="#246800"/><path d="M240.0051,119.5074c0.46517,0.4256 0.03957,0.89074 0.03957,0.89074l-0.35158,0.37746c-0.57691,0.49197 -1.15469,0.84802 -1.83483,1.18132c0,0 -0.56647,0.27681 -0.84325,-0.28967c-0.27681,-0.56647 0.2897,-0.84325 0.2897,-0.84325c0.58623,-0.28553 1.0734,-0.579 1.56757,-1.00559l0.24211,-0.27143c0,0 0.42559,-0.46517 0.89076,-0.03956z" fill="#246800"/><path d="M239.77155,118.17219c-0.61668,0.13115 -0.74785,-0.48554 -0.74785,-0.48554l-0.00479,-0.05777c-0.25953,-0.68496 -0.49825,-1.33259 -0.65245,-2.04978c0,0 -0.13115,-0.61671 0.48554,-0.74784c0.61668,-0.13115 0.74785,0.48554 0.74785,0.48554c0.1375,0.65477 0.36139,1.24029 0.59823,1.86529l0.05901,0.24226c0,0 0.13114,0.61671 -0.48554,0.74784z" fill="#246800"/><path d="M242.25239,118.53307c-0.61668,0.13115 -0.74785,-0.48554 -0.74785,-0.48554l-0.04423,-0.23853c-0.05102,-0.7531 -0.10938,-1.50543 -0.16743,-2.258c0,0 -0.0485,-0.62861 0.58012,-0.6771c0.62861,-0.0485 0.67711,0.58014 0.67711,0.58014c0.05833,0.75647 0.11696,1.51273 0.16826,2.26973l0.01954,0.06148c0,0 0.13115,0.61669 -0.48554,0.74782z" fill="#246800"/><path d="M243.91146,119.57233c0.61023,0.1585 0.45172,0.76874 0.45172,0.76874l-0.1389,0.40611c-0.57258,0.88136 -1.23204,1.69738 -1.8035,2.57859c0,0 -0.34333,0.5288 -0.87213,0.18546c-0.5288,-0.34333 -0.18547,-0.87213 -0.18547,-0.87213c0.57251,-0.88079 1.23143,-1.69695 1.8035,-2.57859l-0.02396,-0.03642c0,0 0.15851,-0.61022 0.76874,-0.45172z" fill="#246800"/><path d="M244.5726,118.87588c-0.61668,0.13115 -0.74782,-0.48554 -0.74782,-0.48554l-0.07205,-0.3477c-0.09418,-0.70869 -0.13762,-1.38375 -0.28836,-2.08429c0,0 -0.13114,-0.61669 0.48555,-0.74782c0.61668,-0.13115 0.74782,0.48555 0.74782,0.48555c0.1546,0.73453 0.20536,1.43888 0.30485,2.17964l0.05556,0.25231c0,0 0.13114,0.61671 -0.48555,0.74784z" fill="#246800"/><path d="M246.44524,119.88591c0.5288,0.34333 0.18549,0.87213 0.18549,0.87213l-0.23363,0.35408c-0.28861,0.36001 -0.56947,0.72644 -0.84066,1.09976c0,0 -0.37065,0.51001 -0.88068,0.13936c-0.51003,-0.37065 -0.13936,-0.88068 -0.13936,-0.88068c0.28298,-0.38921 0.57584,-0.77136 0.87665,-1.14692l0.16007,-0.25226c0,0 0.34331,-0.52882 0.87211,-0.18547z" fill="#246800"/><path d="M247.20348,119.20489c-0.61668,0.13115 -0.74785,-0.48555 -0.74785,-0.48555l-0.02954,-0.14771c-0.08925,-0.68399 -0.27299,-1.24999 -0.50496,-1.90075c0,0 -0.21152,-0.59393 0.38244,-0.80545c0.59393,-0.21152 0.80545,0.38245 0.80545,0.38245c0.25996,0.73078 0.46227,1.38806 0.56698,2.15685l0.01304,0.05233c0,0 0.13114,0.61669 -0.48554,0.74782z" fill="#246800"/><path d="M250.2293,120.23098c0.5288,0.34333 0.18547,0.87213 0.18547,0.87213l-0.15923,0.2382c-0.44151,0.53498 -0.63634,0.91018 -0.83751,1.51386c-0.43778,0.10544 -0.8654,0.218 -1.27841,0.33746c-0.08196,-0.21731 -0.01202,-0.44119 -0.01202,-0.44119c0.28604,-0.90337 0.55934,-1.481 1.15265,-2.20941l0.07697,-0.12559c0,0 0.34331,-0.52882 0.87211,-0.18547z" fill="#246800"/><path d="M251.79635,120.47266c0.5288,0.34333 0.18546,0.87213 0.18546,0.87213l-0.09233,0.11071c-0.14317,0.40015 -0.31566,0.67269 -0.39652,0.96438c-0.42969,0.07792 -0.85653,0.16239 -1.27685,0.2532c0.02463,-0.55889 0.23481,-0.93306 0.48549,-1.64061l0.22261,-0.37435c0,0 0.34333,-0.52879 0.87213,-0.18546z" fill="#246800"/><path d="M253.15617,120.98148c-0.62347,-0.09374 -0.52974,-0.71721 -0.52974,-0.71721l0.0598,-0.28969c-0.01985,-0.25711 -0.03967,-0.51419 -0.0595,-0.7713c0,0 -0.04849,-0.62862 0.58012,-0.67709c0.62861,-0.0485 0.67713,0.58012 0.67713,0.58012c0.01985,0.25711 0.03967,0.51419 0.0595,0.7713l-0.07009,0.57417c0,0 -0.09374,0.62347 -0.71721,0.52973z" fill="#246800"/><path d="M247.95257,120.22834c0.57805,0.25174 0.32634,0.82979 0.32634,0.82979l-0.19016,0.43427c-0.3012,0.5986 -0.53778,1.2047 -0.77194,1.83225c0,0 -0.02533,0.06789 -0.08184,0.14907c-0.2318,0.07743 -0.4572,0.15724 -0.67522,0.23942c-0.01765,-0.00535 -0.03569,-0.01142 -0.05405,-0.01828c-0.59068,-0.22044 -0.37025,-0.81112 -0.37025,-0.81112c0.25005,-0.66995 0.50598,-1.31735 0.82633,-1.95701l0.16102,-0.37206c0,0 0.25172,-0.57805 0.82976,-0.32634z" fill="#693d00"/><path d="M253.22255,120.74533c0.62649,0.07062 0.5559,0.69711 0.5559,0.69711l-0.03438,0.24853c-0.0343,0.13021 -0.06496,0.26149 -0.092,0.39363c-0.43521,0.05659 -0.8739,0.12017 -1.31218,0.19056c0.04632,-0.30329 0.10758,-0.60443 0.18372,-0.90116l0.00182,-0.07276c0,0 0.07062,-0.62652 0.69714,-0.55591z" fill="#693d00"/></g><g stroke="none" stroke-width="0.5" stroke-linecap="butt"><path d="M254.23588,111.92816c-0.5676,0.27447 -0.84207,-0.29315 -0.84207,-0.29315l0.12101,0.02386c-0.95651,-0.59127 -1.92183,-1.22177 -2.96177,-1.64964c-4.08004,-1.69506 -8.3752,-2.83615 -12.35513,-4.41981c0,0 -0.58221,-0.24187 -0.34033,-0.82414c0.24187,-0.58223 0.8241,-0.34036 0.8241,-0.34036c3.81208,1.68293 8.35611,2.7584 12.35513,4.41982c1.1019,0.46156 2.12496,1.11346 3.14103,1.74154l0.35115,0.4998c0,0 0.27446,0.5676 -0.29313,0.84207z" fill="#7a6a5e"/><path d="M240.06099,105.59045c-0.63043,-0.00835 -0.62208,-0.63878 -0.62208,-0.63878c0.00293,-0.2215 0.01263,-0.95414 0.01558,-1.17565c0,0 0.00255,-0.19155 0.11042,-0.36207c-0.02855,-0.96703 -0.06852,-2.11944 -0.71984,-2.72773c0,0 -0.43987,-0.45168 0.01183,-0.89156c0.45167,-0.43988 0.89155,0.01181 0.89155,0.01181c1.03018,1.11871 1.00622,2.68105 1.09928,4.14414l-0.00353,0.40619c0,0 -0.00301,0.22713 -0.14171,0.40691l-0.00272,0.20468c0,0 -0.00835,0.63043 -0.63878,0.62208z" fill="#7a0c00"/><path d="M239.73206,105.83976c0.38729,0.4975 -0.11018,0.88479 -0.11018,0.88479l-0.274,0.21292c-1.15933,0.84215 -2.08285,1.12004 -3.51152,1.10208c0,0 -0.63043,-0.00834 -0.62208,-0.63877c0.00834,-0.63043 0.63877,-0.62209 0.63877,-0.62209c1.16707,0.01629 1.80504,-0.16604 2.75167,-0.85992l0.24256,-0.18924c0,0 0.49748,-0.38729 0.88479,0.11021z" fill="#7a0c00"/><path d="M244.59266,106.97972c-0.63043,-0.00835 -0.62206,-0.63877 -0.62206,-0.63877l0.00202,-0.15333c0.01432,-1.08173 0.06002,-2.16649 -0.19409,-3.22385c0,0 -0.1448,-0.61363 0.46883,-0.75844c0.61363,-0.14478 0.75842,0.46882 0.75842,0.46882c0.27072,1.16533 0.24347,2.33964 0.22768,3.53016l-0.00202,0.15336c0,0 -0.00835,0.63041 -0.63878,0.62206z" fill="#7a0c00"/><path d="M244.31146,107.48531c0.38729,0.4975 -0.11017,0.88479 -0.11017,0.88479l-0.2583,0.20108c-0.98786,0.76901 -1.81674,1.52845 -2.79296,2.07665c-0.84565,-0.18183 -1.67987,-0.34113 -2.48601,-0.46998c0.06774,-0.02317 0.11598,-0.02994 0.11598,-0.02994c1.901,-0.26292 2.94127,-1.44513 4.38837,-2.57176l0.2583,-0.20107c0,0 0.4975,-0.38729 0.88479,0.1102z" fill="#7a0c00"/><path d="M248.80242,108.68464c-0.5896,-0.22329 -0.36634,-0.81289 -0.36634,-0.81289l0.17972,-0.4404c0.20279,-1.18962 0.08476,-2.315 -0.05765,-3.50252c0,0 -0.05134,-0.4282 0.28505,-0.61876c0.30805,0.28293 0.64909,0.57868 1.01466,0.88096c0.12847,1.1595 0.19495,2.27531 0.00159,3.44853l-0.24412,0.67875c0,0 -0.22328,0.5896 -0.81291,0.36631z" fill="#7a0c00"/><path d="M248.64329,108.87109c0.43988,0.45167 -0.0118,0.89155 -0.0118,0.89155l-0.41436,0.4035c-0.72457,0.70403 -1.40774,1.22571 -2.16106,1.72979c-0.53502,-0.15467 -1.07875,-0.30634 -1.62668,-0.45286c1.1044,-0.68367 1.93535,-1.2307 2.908,-2.18028l0.41436,-0.4035c0,0 0.45168,-0.43988 0.89155,0.0118z" fill="#7a0c00"/><path d="M251.05435,109.73104c-0.47896,-0.41002 -0.06895,-0.88898 -0.06895,-0.88898l0.23368,-0.27085c0.49321,-0.65797 0.83866,-1.36779 1.09247,-2.11183c0.28362,0.34676 0.59881,0.70528 0.93725,1.0676c-0.26255,0.62596 -0.59354,1.22785 -1.01987,1.79935l-0.28563,0.33575c0,0 -0.40999,0.47896 -0.88896,0.06897z" fill="#7a0c00"/><path d="M251.64869,110.16135c0.51989,0.35665 0.16326,0.87657 0.16326,0.87657l-0.08383,0.12022c-0.25303,0.42083 -0.52458,0.79584 -0.8082,1.15292c-0.55405,-0.01205 -1.102,-0.01198 -1.63625,0.00161c0.48657,-0.56077 0.94829,-1.11325 1.36375,-1.80426l0.12468,-0.18377c0,0 0.35665,-0.51991 0.87657,-0.16326z" fill="#7a0c00"/><path d="M254.02118,111.07691c-0.56012,-0.28942 -0.27072,-0.84956 -0.27072,-0.84956l0.10494,-0.20309c0.23035,-0.44575 0.43615,-0.84562 0.59218,-1.29039c0.32291,0.30687 0.65595,0.61003 0.99397,0.90454c-0.13792,0.31998 -0.29484,0.63356 -0.46588,0.96468l-0.10493,0.20312c0,0 -0.28942,0.56015 -0.84953,0.27072z" fill="#7a0c00"/><path d="M242.55888,106.13478c-0.63043,-0.00835 -0.62206,-0.63878 -0.62206,-0.63878l0.00519,-0.25277c0.13028,-1.43169 -0.27096,-2.35315 -0.77733,-3.66434c0,0 -0.22637,-0.58843 0.36204,-0.8148c0.58844,-0.22637 0.81483,0.36204 0.81483,0.36204c0.5699,1.48766 1.00226,2.60103 0.85629,4.23047l-0.0002,0.15613c0,0 -0.00834,0.63043 -0.63877,0.62208z" fill="#7a6500"/><path d="M242.26464,106.73414c0.49931,0.38495 0.11439,0.88429 0.11439,0.88429l-0.21552,0.26917c-0.94317,0.89042 -2.53857,1.58906 -3.7585,2.08023c0,0 -0.58514,0.23477 -0.8199,-0.35036c-0.23477,-0.58514 0.35039,-0.81991 0.35039,-0.81991c1.05365,-0.42106 2.57264,-1.02292 3.34829,-1.81332l0.09659,-0.13567c0,0 0.38495,-0.49934 0.88427,-0.1144z" fill="#7a6500"/><path d="M246.99048,107.74601c-0.59545,-0.20727 -0.38815,-0.80273 -0.38815,-0.80273l0.03902,-0.1064c0.29176,-1.03988 0.09813,-2.27141 0.18029,-3.36048c0,0 0.04766,-0.62868 0.67633,-0.58102c0.62866,0.04766 0.58103,0.67636 0.58103,0.67636c-0.09085,1.19239 0.07238,2.43416 -0.2185,3.58716l-0.06728,0.19893c0,0 -0.20727,0.59542 -0.8027,0.38815z" fill="#7a6500"/><path d="M246.61947,108.45351c0.47322,0.41662 0.05661,0.88983 0.05661,0.88983l-0.27973,0.31468c-0.69388,0.92572 -1.42738,1.45016 -2.36968,2.10467c0,0 -0.51787,0.35965 -0.8775,-0.1582c-0.35962,-0.51785 0.15822,-0.8775 0.15822,-0.8775c0.84059,-0.58365 1.46619,-1.00221 2.07907,-1.82408l0.34316,-0.39281c0,0 0.41662,-0.47324 0.88983,-0.05662z" fill="#7a6500"/><path d="M249.6568,109.54915c0.43988,0.45167 -0.01181,0.89155 -0.01181,0.89155l-0.12011,0.05069c-0.26159,0.60457 -0.49994,1.21574 -0.71255,1.83699c-0.46708,0.01935 -0.92154,0.04968 -1.35793,0.092c0.26316,-0.82536 0.56893,-1.63259 0.91306,-2.42936l0.39781,-0.4537c0,0 0.45167,-0.43988 0.89155,0.01183z" fill="#7a6500"/><path d="M250.51176,109.08812c-0.61358,-0.1449 -0.4687,-0.75852 -0.4687,-0.75852l0.0915,-0.32212c0.00908,-0.68554 0.01884,-1.35801 0.08002,-2.04117c0,0 0.05667,-0.62793 0.6846,-0.57127c0.62794,0.05666 0.57124,0.68463 0.57124,0.68463c-0.05921,0.65086 -0.06637,1.2912 -0.07502,1.9445l-0.12514,0.59525c0,0 -0.1449,0.61361 -0.75852,0.4687z" fill="#7a6500"/><path d="M253.14689,110.93205c0.53628,0.33151 0.20475,0.86779 0.20475,0.86779l-0.12412,0.19379c-0.06767,0.14161 -0.13305,0.28089 -0.19807,0.41816c-0.45147,-0.03275 -0.90532,-0.05874 -1.3574,-0.07715c0.14219,-0.28594 0.27237,-0.58024 0.41771,-0.88454l0.18934,-0.31327c0,0 0.33153,-0.53629 0.86782,-0.20478z" fill="#7a6500"/><path d="M252.68155,110.37763c-0.59545,-0.20727 -0.38815,-0.80272 -0.38815,-0.80272l0.1328,-0.36982c0.18831,-0.39276 0.35902,-0.79505 0.50155,-1.20664c0,0 0.10635,-0.30548 0.38553,-0.40266c0.25651,0.27259 0.52582,0.54701 0.80442,0.81988c-0.15894,0.45412 -0.34684,0.89856 -0.55369,1.33296l-0.07975,0.24085c0,0 -0.20727,0.59542 -0.80273,0.38814z" fill="#7a6500"/><path d="M239.31402,104.96392c-0.62813,0.05442 -0.68256,-0.57372 -0.68256,-0.57372l-0.0409,-0.481c-0.08444,-0.61875 -0.16383,-1.23826 -0.2331,-1.85888c0,0 -0.06991,-0.6266 0.55669,-0.69651c0.6266,-0.06991 0.6965,0.55669 0.6965,0.55669c0.06806,0.61038 0.1462,1.21965 0.2293,1.82819l0.04779,0.54267c0,0 0.05439,0.62814 -0.57371,0.68256z" fill="#246800"/><path d="M238.63502,106.2643c0.04877,0.62859 -0.57984,0.67735 -0.57984,0.67735l-0.62007,0.0455c-0.25557,-0.00338 -0.51117,-0.00676 -0.76674,-0.01017c0,0 -0.6304,-0.00835 -0.62206,-0.63878c0.00834,-0.63043 0.63877,-0.62208 0.63877,-0.62208c0.25557,0.00338 0.51118,0.00678 0.76672,0.01017l0.50584,-0.04184c0,0 0.62859,-0.04874 0.67736,0.57984z" fill="#246800"/><path d="M241.22054,106.9605c0.35962,0.51785 -0.15822,0.8775 -0.15822,0.8775l-0.42628,0.29042c-0.67133,0.35233 -1.31352,0.57194 -2.0505,0.74674c0,0 -0.61363,0.14481 -0.75844,-0.46882c-0.14478,-0.61363 0.46883,-0.75844 0.46883,-0.75844c0.63482,-0.14897 1.17484,-0.32753 1.751,-0.63437l0.29612,-0.21124c0,0 0.51785,-0.35962 0.87748,0.15823z" fill="#246800"/><path d="M241.28775,105.60671c-0.63043,-0.00835 -0.62208,-0.63878 -0.62208,-0.63878l0.00809,-0.0574c-0.10179,-0.72538 -0.19152,-1.40976 -0.18345,-2.14328c0,0 0.00835,-0.63041 0.63878,-0.62206c0.63043,0.00835 0.62206,0.63878 0.62206,0.63878c-0.01059,0.66897 0.07843,1.28948 0.17131,1.95136l0.00403,0.24932c0,0 -0.00835,0.63043 -0.63878,0.62208z" fill="#246800"/><path d="M243.62757,106.50681c-0.63043,-0.00835 -0.62209,-0.63877 -0.62209,-0.63877l0.00953,-0.24244c0.11664,-0.74573 0.22594,-1.4924 0.33562,-2.23919c0,0 0.0916,-0.6238 0.71539,-0.5322c0.6238,0.09159 0.53221,0.71539 0.53221,0.71539c-0.11023,0.75068 -0.22015,1.50123 -0.33736,2.25087l0.00548,0.06428c0,0 -0.00835,0.63043 -0.63878,0.62208z" fill="#246800"/><path d="M245.01601,107.88693c0.56012,0.28942 0.27072,0.84953 0.27072,0.84953l-0.22521,0.36538c-0.75314,0.73307 -1.5766,1.38317 -2.32864,2.11637c0,0 -0.45171,0.43988 -0.89158,-0.0118c-0.43988,-0.45167 0.01183,-0.89155 0.01183,-0.89155c0.75297,-0.73252 1.57592,-1.38292 2.32864,-2.11637l-0.0153,-0.04082c0,0 0.28942,-0.56012 0.84953,-0.27072z" fill="#246800"/><path d="M245.81471,107.35377c-0.63043,-0.00835 -0.62208,-0.63877 -0.62208,-0.63877l0.00655,-0.35501c0.06474,-0.71198 0.17151,-1.37997 0.17928,-2.09649c0,0 0.00835,-0.63044 0.63878,-0.62209c0.63043,0.00835 0.62208,0.63878 0.62208,0.63878c-0.01153,0.75055 -0.11763,1.44871 -0.18428,2.19316l-0.00156,0.25835c0,0 -0.00835,0.63043 -0.63878,0.62208z" fill="#246800"/><path d="M247.41789,108.75261c0.43988,0.45167 -0.0118,0.89155 -0.0118,0.89155l-0.30608,0.29372c-0.36104,0.28732 -0.7159,0.58264 -1.06284,0.88681c0,0 -0.4742,0.41554 -0.8897,-0.05866c-0.41551,-0.4742 0.05866,-0.88971 0.05866,-0.88971c0.362,-0.31705 0.73204,-0.62503 1.10839,-0.92489l0.21181,-0.21068c0,0 0.45171,-0.43987 0.89158,0.0118z" fill="#246800"/><path d="M248.30785,108.25592c-0.63043,-0.00835 -0.62208,-0.63877 -0.62208,-0.63877l0.00383,-0.15056c0.06408,-0.68682 0.00994,-1.27945 -0.07253,-1.96536c0,0 -0.07505,-0.62599 0.55094,-0.70102c0.62599,-0.07503 0.70104,0.55094 0.70104,0.55094c0.09208,0.77017 0.14413,1.45588 0.07639,2.22883l0.00114,0.05392c0,0 -0.00834,0.63041 -0.63877,0.62206z" fill="#246800"/><path d="M251.03218,109.92525c0.43988,0.45167 -0.0118,0.89155 -0.0118,0.89155l-0.20795,0.19711c-0.54882,0.42421 -0.82172,0.74712 -1.15129,1.2914c-0.45024,0.0061 -0.89218,0.02142 -1.32142,0.04668c-0.03193,-0.23007 0.08577,-0.43296 0.08577,-0.43296c0.47856,-0.81786 0.87274,-1.32078 1.61231,-1.90009l0.10279,-0.10549c0,0 0.4517,-0.43987 0.89158,0.0118z" fill="#246800"/><path d="M252.50708,110.50716c0.43988,0.45167 -0.0118,0.89155 -0.0118,0.89155l-0.11452,0.08759c-0.22806,0.35864 -0.45649,0.58633 -0.59978,0.85294c-0.43627,-0.01891 -0.87124,-0.03087 -1.30127,-0.03518c0.14751,-0.53964 0.43514,-0.8581 0.83597,-1.4928l0.29984,-0.31593c0,0 0.45167,-0.43987 0.89155,0.0118z" fill="#246800"/><path d="M253.72087,111.30386c-0.58736,-0.22919 -0.35816,-0.81655 -0.35816,-0.81655l0.12234,-0.26929c0.03747,-0.25514 0.07493,-0.51026 0.11237,-0.76538c0,0 0.0916,-0.6238 0.71539,-0.53221c0.6238,0.09159 0.5322,0.71539 0.5322,0.71539c-0.03747,0.25514 -0.07493,0.51024 -0.1124,0.76539l-0.1952,0.54448c0,0 -0.22919,0.58736 -0.81655,0.35816z" fill="#246800"/><path d="M248.81229,109.41961c0.50815,0.37322 0.13493,0.88136 0.13493,0.88136l-0.2814,0.38156c-0.42598,0.51727 -0.79067,1.05611 -1.15768,1.6164c0,0 -0.03972,0.0606 -0.11276,0.12728c-0.24319,0.02429 -0.48063,0.05235 -0.71143,0.08433c-0.01604,-0.00911 -0.03228,-0.01901 -0.0487,-0.02976c-0.52739,-0.3455 -0.18185,-0.87289 -0.18185,-0.87289c0.39191,-0.59812 0.78449,-1.173 1.23832,-1.72607l0.23923,-0.32729c0,0 0.37321,-0.50814 0.88136,-0.13492z" fill="#693d00"/><path d="M253.8378,111.08821c0.59545,0.20727 0.38815,0.80273 0.38815,0.80273l-0.08845,0.23479c-0.06219,0.11941 -0.12113,0.24069 -0.17671,0.36356c-0.43695,-0.04095 -0.87884,-0.07589 -1.32186,-0.10408c0.1122,-0.28556 0.23847,-0.56572 0.37829,-0.83829l0.01785,-0.07054c0,0 0.20728,-0.59542 0.80273,-0.38815z" fill="#693d00"/></g><path d="M256.11007,107.19998c0.39321,-0.09185 0.75702,0.02943 0.75702,0.02943l0.74144,0.24764c2.13357,0.78775 3.5316,1.8545 4.89752,3.66953c6.83239,4.05147 0.28034,12.12502 -0.41226,17.76615c-0.21893,1.78307 1.25159,4.41504 0.04653,5.96425c-2.49708,3.2102 -4.82313,-0.14932 -6.19692,-2.22123c-3.02976,-7.52827 -6.37908,-17.13024 -1.23357,-24.92953c0,0 0.54746,-0.82116 1.40019,-0.52623zM259.66015,118.94679c1.04462,0 1.89145,-0.84681 1.89145,-1.89144c0,-1.04462 -0.84681,-1.89145 -1.89145,-1.89145c-1.04462,0 -1.89144,0.84681 -1.89144,1.89145c0,1.04462 0.84681,1.89144 1.89144,1.89144z" fill="#553f22" stroke="none" stroke-width="0.5" stroke-linecap="butt"/><path d="M260.24629,115.68852c-0.52459,0.34974 -0.8743,-0.17486 -0.8743,-0.17486l-0.12862,-0.20344c-0.52999,0.92154 -1.19885,1.64598 -1.19885,2.92732c0,0 0,0.02029 -0.00363,0.05354c0.03412,0.00817 0.06799,0.01659 0.10161,0.02524c3.73771,-0.00489 3.17296,-1.44203 2.21898,-2.71997c-0.0326,0.03169 -0.07076,0.06256 -0.11521,0.09217zM262.14972,118.20046l-0.1757,0.47964c-0.32696,0.5374 -0.66793,1.04935 -1.01722,1.56234l-0.22104,0.66319c-0.07924,0.25764 -0.31912,0.44489 -0.60274,0.44489c-0.23368,0 -0.43766,-0.12713 -0.54658,-0.316l-0.34871,-0.58118c-0.2378,-0.46474 -0.70634,-0.72687 -1.21602,-0.87604h-0.01657c0,0 -0.16309,0 -0.32339,-0.08295c-0.08466,-0.01695 -0.1693,-0.03145 -0.2531,-0.04383c0,0 -0.6219,-0.10366 -0.51826,-0.72556c0.00417,-0.02502 0.00918,-0.04885 0.01495,-0.07157c-0.14176,-0.18271 -0.14176,-0.41586 -0.14176,-0.41586c0,-2.07166 1.47643,-2.69439 1.77324,-4.53074c0,-0.14791 0,-0.67073 0,-0.67073c0,-0.3482 0.28228,-0.63048 0.63048,-0.63048c0.3482,0 0.63048,0.28228 0.63048,0.63048v0.45316c0.95462,1.48899 2.21642,3.06209 2.315,4.23614c0.09897,0.22907 0.01698,0.4751 0.01698,0.4751z" fill="#b9b9b9" stroke="none" stroke-width="0.5" stroke-linecap="butt"/><path d="M264.11291,115.8732c0,-0.23644 0,-1.18214 0,-1.41858c0,0 0,-0.63049 0.63048,-0.63049c0.63048,0 0.63048,0.63049 0.63048,0.63049c0,0.22379 0,0.44761 0,0.6714c0.23643,0.18286 0.23643,0.51074 0.23643,0.51074c0,4.20497 -2.39812,8.48444 -3.11241,12.63042c-1.61282,2.57872 1.77586,5.24356 -1.21992,7.65625l-0.67434,0.27706c0,0 -0.58539,0.23416 -0.81955,-0.35123c-0.23417,-0.58539 0.35122,-0.81952 0.35122,-0.81952l0.50779,-0.19581c2.09801,-1.65902 -0.59803,-4.80789 0.67151,-7.00241c0.60602,-3.77166 2.75534,-7.65163 3.01006,-11.46796c-0.21172,-0.18577 -0.21171,-0.49037 -0.21171,-0.49037z" fill="#b9b9b9" stroke="none" stroke-width="0.5" stroke-linecap="butt"/><path d="M258.69741,106.37743c0.83938,0.58266 1.3921,1.69717 1.05398,2.58983c-0.51924,-0.25779 -1.18982,-0.39279 -1.90875,-0.43193c-0.39017,-0.31381 -0.84873,-0.56281 -1.34734,-0.70114c-0.18516,-0.27151 -0.43919,-0.49233 -0.73693,-0.63729c0.09912,-0.23365 0.31136,-0.49911 0.66927,-0.79917c0.4892,-0.41017 1.03628,-0.49072 1.54707,-0.35907c0.01488,-0.00275 0.02988,-0.00548 0.04496,-0.00812c0,0 0.49932,-0.08322 0.6777,0.34689zM257.6698,107.44636c-0.01039,0.0056 -0.02053,0.01125 -0.03044,0.017c0.00915,0.00669 0.01851,0.01349 0.02809,0.02048l0.01947,-0.02436c-0.00577,-0.00441 -0.01148,-0.00881 -0.01715,-0.01311z" fill="#7a3535" stroke="none" stroke-width="0.5" stroke-linecap="butt"/><path d="M243.82221,112.71296c-0.9056,-1.2364 -0.23,-3.06718 0.4842,-3.57961c-0.10822,-1.62886 0.44349,-2.92687 2.6373,-2.3784c1.57388,0.39347 4.8635,4.8891 3.92474,6.53193c-0.70107,1.22684 -5.91111,-3.60771 -5.02097,-0.04719l0.02438,0.0488c0.04612,0.08761 0.07224,0.1874 0.07224,0.2933c0,0.02043 -0.00097,0.04063 -0.00288,0.06055c0.01674,0.14713 -0.00306,0.20591 -0.04953,0.19152c-0.09727,0.22274 -0.31948,0.37842 -0.57807,0.37842c-0.3482,0 -0.63048,-0.28228 -0.63048,-0.63048c0,-0.3482 0.28227,-0.63048 0.63048,-0.63048c0.01332,0 0.02656,0.0004 0.03967,0.00123c-0.10247,-0.22407 -0.21015,-0.48171 -0.31598,-0.76205c-0.35539,0.56632 -0.86181,1.00486 -1.21511,0.52249z" fill="#8c6738" stroke="none" stroke-width="0.5" stroke-linecap="butt"/><path d="M252.00788,114.23975c-0.61091,0.15591 -0.76679,-0.455 -0.76679,-0.455l-0.04918,-0.21833c-0.72452,-1.75626 -1.53714,-3.3858 -2.57849,-4.97935c-2.4883,-5.2208 -5.71415,2.50768 -4.37687,5.69843c0,0 0.24071,0.58271 -0.34199,0.82343c-0.58271,0.24071 -0.82344,-0.34199 -0.82344,-0.34199c-1.90158,-4.65971 3.34437,-13.63018 6.64057,-6.79943c1.07176,1.63166 1.9012,3.31761 2.64568,5.11745l0.10554,0.38797c0,0 0.1559,0.61091 -0.455,0.76679z" fill="#7c4800" stroke="none" stroke-width="0.5" stroke-linecap="butt"/><path d="M249.47487,113.87175c-0.41354,0.47591 -0.88946,0.06236 -0.88946,0.06236l-0.10592,-0.09528c-0.44282,-0.32906 -0.81562,-0.71766 -1.1929,-1.108c0.02418,0.24856 0.05316,0.50141 0.08744,0.76062l-0.0378,0.36184c0,0 -0.12294,0.61838 -0.74132,0.49544c-0.61837,-0.12294 -0.49543,-0.74132 -0.49543,-0.74132l0.02441,0.04892c-0.22803,-1.73256 -0.23388,-3.23091 -0.14983,-4.98349c0,0 0.03032,-0.62974 0.66006,-0.59943c0.62975,0.03031 0.59943,0.66006 0.59943,0.66006c-0.0367,0.75953 -0.05649,1.4615 -0.04716,2.15569c0.72109,0.61056 1.27972,1.40065 2.03329,1.92887l0.19278,0.16428c0,0 0.47591,0.41355 0.06236,0.88946z" fill="#7c4800" stroke="none" stroke-width="0.5" stroke-linecap="butt"/><path d="M251.29524,119.4166c-3.00421,-0.42633 -5.85244,-2.14565 -8.77424,-2.94343c-3.18163,-1.5654 -9.07612,-3.4488 -10.93376,-6.59609c-0.06385,-0.05929 -0.12718,-0.11919 -0.19003,-0.17972c0,0 -0.45251,-0.43902 -0.01352,-0.89153c0.43902,-0.45251 0.89153,-0.01352 0.89153,-0.01352c3.24325,3.17225 8.11128,4.52128 12.23188,6.04323c1.92866,0.51957 6.362,1.96115 8.18487,1.0556l0.26041,-0.20473c0,0 0.32394,-0.23764 0.64435,-0.07492c0.08898,-0.01851 0.19374,-0.0169 0.31665,0.01619c0.60877,0.164 0.44476,0.77277 0.44476,0.77277c-0.23318,0.84735 -0.64823,1.59391 -0.87714,2.44808l-0.10933,0.40585c0,0 -0.164,0.60877 -0.77276,0.44477c-0.1577,-0.04247 -0.26352,-0.1148 -0.33381,-0.19866c-0.25502,-0.00146 -0.57532,-0.02789 -0.96985,-0.08388z" fill="#8c8172" stroke="none" stroke-width="0.5" stroke-linecap="butt"/><path d="M252.04282,126.81898c-3.00925,0.38916 -6.21253,-0.50958 -9.24128,-0.50043c-3.48363,-0.66158 -9.66681,-0.90713 -12.29556,-3.44602c-0.07733,-0.04015 -0.15434,-0.08103 -0.23103,-0.12261c0,0 -0.5531,-0.30266 -0.25045,-0.85574c0.30265,-0.55311 0.85574,-0.25046 0.85574,-0.25046c3.97095,2.19394 9.02242,2.19783 13.39955,2.56745c1.99736,-0.01281 6.65452,0.19603 8.1704,-1.1623l0.19648,-0.26669c0,0 0.24897,-0.31531 0.60112,-0.24379c0.0808,-0.04153 0.18223,-0.06789 0.30954,-0.06872c0.63048,-0.00406 0.63451,0.62641 0.63451,0.62641c0.00091,0.87884 -0.20034,1.70901 -0.19354,2.59327l0.0027,0.4203c0,0 0.00406,0.63048 -0.62642,0.63451c-0.16329,0.00104 -0.28457,-0.04048 -0.37463,-0.1026c-0.24619,0.06651 -0.56199,0.12632 -0.95718,0.17742z" fill="#8c8172" stroke="none" stroke-width="0.5" stroke-linecap="butt"/><path d="M253.36471,110.78467c-2.04129,-1.02754 -3.65994,-2.94029 -5.55297,-4.21307c-1.89363,-1.88317 -5.64671,-4.64639 -6.21467,-7.33965c-0.03127,-0.05768 -0.06209,-0.11568 -0.09235,-0.17401c0,0 -0.21724,-0.42225 0.205,-0.63949c0.42225,-0.21724 0.63949,0.205 0.63949,0.205c1.55076,3.04469 4.69995,5.17944 7.27416,7.25766c1.25127,0.83513 4.06798,2.93128 5.58686,2.72393l0.23515,-0.0834c0,0 0.28839,-0.09159 0.47786,0.10166c0.06794,0.0082 0.14234,0.0346 0.22208,0.08782c0.39496,0.26362 0.13137,0.65857 0.13137,0.65857c-0.37042,0.54857 -0.84639,0.98141 -1.21539,1.53585l-0.17572,0.26329c0,0 -0.26361,0.39499 -0.65857,0.13137c-0.10229,-0.0683 -0.16042,-0.14537 -0.19038,-0.22213c-0.18162,-0.06244 -0.40387,-0.15842 -0.67195,-0.29337z" fill="#8c8172" stroke="none" stroke-width="0.5" stroke-linecap="butt"/></g><g stroke="none" stroke-width="0.5" stroke-linecap="butt"><path d="M231.15894,190.61749c1.31601,-4.70997 8.65216,-6.32314 12.49236,-7.42297c0,0 1.12907,-0.32259 1.45166,0.80648c0.03009,0.10526 0.04754,0.2035 0.05446,0.29514c0.15597,0.04378 0.31284,0.09347 0.47064,0.14925l0.98971,1.19621c0,0 0.32774,0.4214 0.25714,0.91691c2.09701,1.80579 3.94503,4.13933 5.07516,6.61095c-0.07065,0.54694 -0.10707,1.1046 -0.10707,1.67078c0,1.82045 0.37661,3.55295 1.05613,5.12382c-0.54729,2.3298 -2.17261,4.45584 -5.30454,6.02194c-3.10558,1.42937 -4.03801,2.84758 -5.32694,5.93935c-0.06489,0.15563 -0.85286,1.8614 -1.4738,2.90846c0.0045,-0.00097 0.00904,-0.00194 0.0136,-0.00288c-1.1233,1.75822 -1.83257,3.80652 -1.99041,6.00745c-1.6022,0.42781 -3.52393,0.94765 -4.92756,-0.01033c-0.66028,-0.45063 -1.47866,-2.6391 -1.77131,-3.32834c-0.98107,-5.23723 -1.34613,-11.40364 -0.46443,-17.23285c-0.47386,-3.20511 -1.20526,-7.10681 -0.49483,-9.64938z" fill="#7c5c32"/><path d="M246.40956,195.59129c-0.07708,-0.15416 -0.08629,-0.28569 -0.06081,-0.39459c-0.03927,-0.06287 -0.07853,-0.12577 -0.11777,-0.18864c-2.38868,-3.50877 -7.9225,-3.04659 -10.42924,-0.15543c0,0 -0.38664,0.44185 -0.82849,0.05524c-0.44185,-0.38664 -0.05523,-0.82848 -0.05523,-0.82848c3.11909,-3.537 9.31871,-3.7568 12.28904,0.27593c0.12311,0.19678 0.2462,0.39357 0.3693,0.59035l-0.3791,0.90822c0,0 -0.52515,0.26257 -0.78771,-0.26256z" fill="#ffffff"/><path d="M245.35224,196.16135c0.12612,-0.09525 0.45077,-0.2784 0.77545,0.04628c0.41517,0.41517 0,0.83032 0,0.83032l-0.34466,0.22633c-3.6944,0.92062 -7.1789,1.12341 -10.34405,-1.25018c0,0 -0.4697,-0.35227 -0.11743,-0.82198c0.35227,-0.46971 0.82198,-0.11743 0.82198,-0.11743c2.82099,2.11598 5.9176,1.89628 9.20871,1.08666z" fill="#ffffff"/><path d="M241.20579,197.69265c-2.99293,0.64563 -2.08541,-3.54179 -1.50685,-5.09149c0,0 0.23969,-0.63915 0.86911,-0.49195c0.13732,-0.12423 0.31938,-0.19988 0.51914,-0.19988c0.38281,0 0.70072,0.2779 0.76301,0.64296c1.2001,0.61827 2.00851,4.56807 -0.64438,5.14035z" fill="#ffffff"/><path d="M241.39417,213.61496c0.13744,0.5696 -0.41233,0.712 -0.41233,0.712l-0.16157,0.02743c-3.14304,1.61946 -5.89691,0.6523 -8.99873,-0.62705c0,0 -0.52614,-0.21806 -0.31569,-0.7632c0.21045,-0.54514 0.73662,-0.32708 0.73662,-0.32708c2.78116,1.15876 5.2645,2.12984 8.07095,0.66702l0.39354,-0.11634c0,0 0.54976,-0.14239 0.6872,0.42719z" fill="#ffffff"/></g><g stroke="none" stroke-linecap="butt"><path d="M253.47181,167.1853c0,13.40569 -8.23966,24.27315 -18.40381,24.27315c-10.16414,0 -18.40381,-10.86747 -18.40381,-24.27315c0,-13.40569 8.23966,-24.27312 18.40381,-24.27312c10.16414,0 18.40381,10.86744 18.40381,24.27312z" fill="#946d3b" stroke-width="0"/><path d="M242.85969,156.15015c10.07203,4.43699 15.97054,14.35671 13.17474,22.15624c-2.79581,7.79953 -13.22721,10.52541 -23.29924,6.08839c-10.07203,-4.43699 -15.97051,-14.35671 -13.1747,-22.15624c2.79581,-7.79953 13.22721,-10.52538 23.29921,-6.08839z" fill="#946d3b" stroke-width="0"/><path d="M230.96916,190.32032c0.00199,0.91842 -0.91644,1.37764 -0.91644,1.37764l-1.46764,0.61076c-10.68855,0.93222 -19.01933,-0.34942 -24.46956,-10.50348c-2.16709,-6.01302 0.35573,-16.14962 -6.49714,-20.03119c-3.57274,-2.02365 -7.40429,0.40206 -10.94659,1.77787l0.22195,0.55492l-1.46066,0.58425c-0.19291,0.08238 -0.40526,0.12798 -0.62827,0.12798c-0.88416,0 -1.60094,-0.71677 -1.60094,-1.60094c0,-0.22301 0.04559,-0.43539 0.12798,-0.62827l0.58425,-1.46066l0.01249,0.00499l0.00346,-0.04335c8.24952,-17.78661 23.8498,-19.30155 33.98228,-2.33023c2.76843,6.61138 1.76942,28.84302 11.7168,29.31335c0,0 1.59437,0.14495 1.44942,1.73929c-0.01761,0.19355 -0.05655,0.36146 -0.11143,0.50708z" fill="#8c6738" stroke-width="0.5"/><path d="M189.78764,153.87417c0.23575,0.26893 0.36924,0.51566 0.4254,0.7389l0.00836,0.01258l0.01085,0.03032l0.02353,0.01348l0.04371,0.17492l0.00269,0.00756l0.00925,0.01386l0.03596,0.1007l0.05741,0.0902l0.03003,0.09004l0.0032,0.04191l0.01879,0.03759l0.04595,0.20678l0.02357,0.05888l0.0218,0.04358l0.00781,0.00448l0.00557,0.02232l0.00999,0.01995l0.0399,0.17953l0.01847,0.07393l0.03224,0.06048l0.00839,0.03359l0.03115,0.04675l0.01085,0.03032l0.02353,0.01348l0.04364,0.1745l0.0324,0.05402l0.00913,0.03003l0.02043,0.02382l0.03003,0.06004l0.02318,0.10435l0.04579,0.09663l0.02024,0.10121l0.01425,0.04278l0.00387,0.05046l0.02168,0.04569l0.06004,0.30018l-0.00378,0.07963l0.01934,0.07736v0.16086l0.01447,0.07236l-0.00346,0.07252l0.01194,0.04777l0.03983,0.09964l0.02049,0.15023l0.00887,0.03548l0.004,0.00749l0.02257,0.09026l0.00231,0.00692l0.00458,0.00916l0.00304,0.01374l0.01037,0.03106l0.00183,0.02379l0.02465,0.11094l0.01671,0.06686l0.004,0.00749l0.03874,0.15487l0.05075,0.1015l0.00736,0.03317l0.01988,0.02754l0.06004,0.1501l0.00327,0.02385l0.0129,0.0203l0.00096,0.00295l0.00006,0.00003l0.00019,0.0007l0.01079,0.03237l0.00458,0.00916l0.00307,0.01374l0.01034,0.03106l0.00183,0.02376l0.02465,0.11098l0.01015,0.04063l0.00996,0.01995l0.01127,0.05081l0.02885,0.04326l0.03596,0.10067l0.05741,0.0902l0.03003,0.09007l0.0024,0.03128l0.01479,0.0277l0.02257,0.09023l0.0203,0.06087l0.00986,0.1283l0.03122,0.12484v0.24014l0.03003,0.12007v0.02232l0.0154,0.06942l0.04463,0.17844v0.02232l0.00496,0.02245l-0.00496,0.00746v0.42806l-0.02843,0.11376l-0.00672,0.14133l-0.03657,0.03186l-0.02834,0.11328l-0.29585,0.16906l-0.2476,0.21565l-0.03567,-0.01188l-0.02084,0.01783l-0.10326,0.12045l-0.03986,0.00221l-0.04963,0.04252l-0.09606,0.04803l-0.08405,0.07204l-0.06004,0.03003l-0.05062,0.01124l-0.03506,0.02104l-0.00115,-0.00032l-0.01799,0.01146l-0.18011,0.06004l-0.03131,0.0024l-0.0277,0.01479l-0.03045,0.00762l-0.00359,0.00628l-0.02232,0.00557l-0.01995,0.00999l-0.10806,0.02401l-0.01201,0.00602l-0.17953,0.0399l-0.0868,0.02171l-0.01863,0.01185l-0.09298,0.03099l-0.00003,0.0001l-0.00074,0.00016l-0.03237,0.01079l-0.00916,0.00458l-0.01374,0.00307l-0.03109,0.01034l-0.02376,0.00183l-0.11098,0.02465l-0.06686,0.01671l-0.00749,0.004l-0.06737,0.01684l-0.09967,0.03986l-0.05456,0.00743l-0.04857,0.0259l-0.09026,0.02257l-0.06087,0.0203l-0.03131,0.0024l-0.0277,0.01479l-0.12007,0.03003h-0.01953l-0.01764,0.00836l-0.1314,0.02629l-0.22167,0.05542h-0.04886l-0.01114,0.00247l-0.02501,0.00832l-0.022,0.01588l-0.11917,0.04764l-0.09029,0.04515l-0.08603,0.01915l-0.02991,0.01595l-0.06417,0.05498l-0.03125,0.01563l-0.00871,0.03093l-0.06372,0.03397l-0.04697,0.05482l-0.06228,0.00346l-0.10364,0.0553l-0.04572,0.0762l-0.08315,0.08315l-0.00176,0.00884l-0.0194,0.01233l-0.01575,0.01579l-0.08238,0.04944l-0.0025,0.01252l-0.08677,0.05523l-0.06695,0.07809l-0.01764,0.00096l-0.0439,0.0439l-0.04076,0.02446l-0.01777,0.02068l-0.00477,0.00029l-0.02677,0.0446l-0.04502,0.04505l-0.04502,0.07505l-0.0683,0.0683l-0.03324,0.05222l-0.00339,0.06112l-0.07809,0.06692l-0.05523,0.08677l-0.06,0.01201l-0.11991,0.10275l-0.12007,0.06004l-0.05081,0.0113l-0.04323,0.02882l-0.04764,0.017l-0.03842,0.03292l-0.06004,0.03l-0.08607,0.01915l-0.07777,0.0415l-0.12007,0.03003h-0.03263l-0.02991,0.013l-0.18011,0.03003l-0.05504,-0.00439l-0.04476,0.00996l-0.07777,0.0415l-0.12007,0.03003h-0.0553l-0.14175,0.05671l-0.02385,0.00323l-0.0203,0.01294l-0.09004,0.03003l-0.1283,0.00986l-0.12484,0.03122h-0.09004l-0.12007,0.03003h-0.02232l-0.02245,0.00496l-0.00141,-0.00093l-0.1039,0.026h-0.02232l-0.02245,0.00496l-0.00029,-0.00019l-0.00026,0.00019l-0.02245,-0.00496h-0.02232l-0.17844,-0.04463l-0.06708,-0.01489l-0.02677,0.0073l-0.03506,-0.02104l-0.05062,-0.01124l-0.01995,-0.00999l-0.02232,-0.00557l-0.00445,-0.00781l-0.01332,-0.00666l-0.08405,-0.07204l-0.03602,-0.01803l-0.02766,-0.02373l-0.03234,-0.0194l-0.02949,-0.00163l-0.07656,-0.0893l-0.01351,-0.00077l-0.0617,-0.07198l-0.07201,-0.0617l-0.00077,-0.01351l-0.0893,-0.07656l-0.00221,-0.03986l-0.04255,-0.04963l-0.0967,-0.19342l-0.00778,-0.00445l-0.00557,-0.02232l-0.00999,-0.01998l-0.02549,-0.11479l-0.00451,-0.00525l-0.05469,-0.10938l-0.04982,-0.02846l-0.02494,-0.0998l-0.05293,-0.08818l0.01611,-0.05907l-0.03829,-0.15318v-0.03785l-0.00499,-0.00746l0.00499,-0.02245v-0.02229l0.02597,-0.10393l-0.00093,-0.00141l0.00499,-0.02245v-0.02229l0.0446,-0.17844l0.02465,-0.11098l0.00183,-0.02376l0.01037,-0.03106l0.00304,-0.01374l0.00458,-0.00916l0.01082,-0.0324l0.00019,-0.0007l0.00006,-0.00006l0.00096,-0.00295l0.03093,-0.0486l0.01249,-0.05622l0.03999,-0.07998l0.00557,-0.02232l0.00781,-0.00448l0.01662,-0.03327l0.00557,-0.02232l0.00778,-0.00448l0.00666,-0.01332l0.06,-0.06999l0.01556,-0.06231l0.04403,-0.02513l0.02539,-0.04233l0.01066,-0.04262v-0.06004l0.00784,-0.03144l0.0032,-0.04159l0.01896,-0.05687v-0.02802l-0.00499,-0.00746l0.00499,-0.02245v-0.02229l0.0446,-0.17844l0.00932,-0.04188v-0.03384l0.03003,-0.12007l0.06445,-0.12087l0.01092,-0.03058l0.0447,-0.17876l0.0415,-0.07781l0.01912,-0.08603l0.02075,-0.0415l0.00871,-0.0348l0.06862,-0.12868l0.05216,-0.13621l0.17629,-0.25189l0.00365,-0.00727l0.00797,-0.00925l0.00768,-0.01098l0.00528,-0.01889l0.06529,-0.11427l0.00323,-0.01294l0.06445,-0.12087l0.01092,-0.03058l0.01466,-0.05869l0.01902,-0.03567l0.00144,-0.00407l0.00359,-0.00538l0.01742,-0.03266l0.01912,-0.08603l0.06602,-0.13208l0.02401,-0.10806l0.00996,-0.01995l0.00557,-0.02232l0.00781,-0.00448l0.03666,-0.07335l0.03292,-0.03839l0.01703,-0.04764l0.04082,-0.06128l0.02024,-0.07195l0.0925,-0.16189l0.03942,-0.09849l0.01988,-0.02754l0.00736,-0.03317l0.10518,-0.21036l0.04768,-0.11917l0.04902,-0.06788l0.02818,-0.07886l0.05542,-0.08312l0.03464,-0.09695l0.06004,-0.09007l0.04236,-0.03852l0.02776,-0.05555l0.08376,-0.09769l0.02209,-0.03685l0.0041,-0.01153l0.02802,-0.04204l0.01197,-0.01995l0.00397,-0.00397l0.07611,-0.11415l0.01681,-0.0153l0.00884,-0.02094l0.09004,-0.12007l0.04473,-0.03634l0.02962,-0.0494l0.02962,-0.02959l0.00054,-0.0025l0.06004,-0.12007l0.03292,-0.03839l0.017,-0.04764l0.04947,-0.07422l0.06445,-0.10739l0.01627,-0.03256l0.02043,-0.02382l0.00913,-0.03003l0.09007,-0.15007l0.03861,-0.03861l0.02273,-0.0496l0.04598,-0.05747l0.01598,-0.03996l0.00586,-0.00813l0.0016,-0.00989l0.09007,-0.21014l0.05811,-0.07646l0.03727,-0.0885l0.04675,-0.06234l0.02773,-0.05552l0.04255,-0.0496l0.00221,-0.0399l0.05129,-0.04396l0.0106,-0.03186l0.05741,-0.0902l0.03596,-0.10067l0.05418,-0.08126l0.00067,-0.01223l0.07207,-0.0618l0.00118,-0.00186l0.00131,-0.00026l0.01553,-0.01332l0.04054,-0.06369l0.09462,-0.15772l0.01579,-0.01579l0.01233,-0.0194l0.00884,-0.00176l0.06814,-0.06814l0.04502,-0.07505l0.02962,-0.02959l0.00054,-0.0025l0.06004,-0.12007l0.07204,-0.08405l0.07806,-0.15609l0.06926,-0.08078l0.00832,-0.01306l0.01249,-0.05622l0.06004,-0.12007l0.03292,-0.03842l0.017,-0.04761l0.0324,-0.04857l0.0123,-0.02462l0.01204,-0.03609l0.01146,-0.01799l-0.00032,-0.00115l0.02104,-0.03506l0.01124,-0.05062l0.03,-0.06004l0.07204,-0.08405l0.01803,-0.03602l0.02373,-0.02763l0.03618,-0.06032l0.04502,-0.04502l0.04502,-0.07505l0.12007,-0.12007l0.11034,-0.06621l0.09772,-0.08373l0.05069,-0.02533c0.14834,-0.60394 0.54108,-0.82781 1.50011,0.26624zM189.89557,160.72002v-0.01707l-0.02136,0.02846z" fill="#ededed" stroke-width="0.5"/><path d="M204.46351,147.21063c0.80047,0 0.80047,0.75942 0.80047,0.75942v0.75945c0,4.99261 -1.67413,10.2732 -5.67189,13.73122c0,0 -0.59827,0.50455 -1.13007,-0.06308c-0.5318,-0.56763 0.06647,-1.07215 0.06647,-1.07215c3.72675,-3.03182 5.13455,-8.12747 5.13455,-12.596v-0.75945c0,0 0,-0.75942 0.80047,-0.75942z" fill="#ededed" stroke-width="0.5"/><path d="M220.0277,168.89757c0.55946,0.56599 0,1.13202 0,1.13202l-0.34756,0.3483c-2.64567,2.29126 -10.70177,5.71636 -14.85306,4.1024c-0.10262,0.02257 -0.20524,0.04515 -0.30786,0.06772v0.008h-0.90907c-0.43696,0 -0.79118,-0.35839 -0.79118,-0.80047c0,-0.44208 0.35422,-0.80047 0.79118,-0.80047h0.74245c0.26768,-0.06176 0.53535,-0.12356 0.80303,-0.18532c0,0 0.0066,-0.0015 0.01867,-0.00355c3.86629,-1.72795 9.71957,-0.34228 13.47603,-3.6038l0.25849,-0.26483c0,0 0.55946,-0.56599 1.11893,0z" fill="#1c1b11" stroke-width="0.5"/><path d="M248.72126,151.04362c0.44208,0 0.80047,0.35839 0.80047,0.80047c0,0.44208 -0.35839,0.80047 -0.80047,0.80047c-0.24309,0 -0.46085,-0.10835 -0.60765,-0.27936c-0.14261,0.13144 -0.33309,0.21171 -0.54233,0.21171c-0.29582,0 -0.55415,-0.16045 -0.69272,-0.39908c-0.14053,0.12215 -0.32409,0.19615 -0.52491,0.19615c-0.27085,0 -0.51025,-0.13451 -0.6551,-0.34036c-0.13726,0.24353 -0.39831,0.40798 -0.69782,0.40798c-0.19256,0 -0.36927,-0.06798 -0.50737,-0.18126c-0.1381,0.11328 -0.31478,0.18126 -0.50734,0.18126c-0.18497,0 -0.35528,-0.06272 -0.49085,-0.1681c-0.11504,0.06401 -0.24754,0.10044 -0.38855,0.10044c-0.1982,0 -0.37958,-0.07204 -0.51938,-0.19134c-0.12372,0.07835 -0.2704,0.12369 -0.42767,0.12369c-0.22013,0 -0.41948,-0.08885 -0.5642,-0.23262c-0.11373,0.06205 -0.24417,0.09734 -0.38285,0.09734c-0.22368,0 -0.42598,-0.09177 -0.57121,-0.23972c-0.07592,0.02389 -0.15673,0.03676 -0.24052,0.03676c-0.23278,0 -0.44234,-0.09935 -0.5886,-0.25797c-0.12337,0.07771 -0.26947,0.1227 -0.42607,0.1227c-0.30021,0 -0.56183,-0.16525 -0.69881,-0.40978c-0.12846,0.0878 -0.28381,0.13919 -0.45118,0.13919c-0.22714,0 -0.43222,-0.09462 -0.57791,-0.24658c-0.13765,0.11187 -0.31324,0.17892 -0.50445,0.17892c-0.28164,0 -0.52933,-0.14546 -0.67201,-0.36537c-0.06615,0.01771 -0.13566,0.02715 -0.20739,0.02715c-0.27581,0 -0.51906,-0.13951 -0.66301,-0.35179c-0.10614,0.052 -0.22551,0.0812 -0.35169,0.0812c-0.30171,0 -0.56449,-0.16691 -0.70089,-0.41349c-0.03625,0.00503 -0.07323,0.00762 -0.11088,0.00762c-0.2614,0 -0.4935,-0.12529 -0.63961,-0.3191c-0.13854,0.11479 -0.31638,0.18379 -0.51038,0.18379c-0.29797,0 -0.55793,-0.16282 -0.69573,-0.4043c-0.09775,0.04249 -0.20559,0.06609 -0.31897,0.06609c-0.4352,0 -0.78926,-0.34724 -0.80021,-0.77978c-0.01169,0.00051 -0.02341,0.00077 -0.03519,0.00077c-0.40004,0 -0.73156,-0.29348 -0.79099,-0.67688c-0.08248,0.02869 -0.17104,0.04431 -0.26329,0.04431c-0.38752,0 -0.71072,-0.27536 -0.78462,-0.64108c-0.09077,0.03573 -0.18961,0.05536 -0.2931,0.05536c-0.31983,0 -0.59584,-0.18757 -0.72404,-0.4587c-0.04063,0.0235 -0.08347,0.04358 -0.1282,0.05975c-0.293,0.29848 -0.47324,0.22698 -0.56491,-0.00765c-0.27709,-0.10886 -0.47878,-0.36777 -0.505,-0.67668c-0.10601,0.05184 -0.22519,0.08091 -0.35115,0.08091c-0.28695,0 -0.53859,-0.15097 -0.67989,-0.37782c-0.12587,0.08248 -0.27642,0.13048 -0.43814,0.13048c-0.44208,0 -0.80047,-0.35839 -0.80047,-0.80047c0,-0.44208 0.35839,-0.80047 0.80047,-0.80047c0.28695,0 0.53859,0.15097 0.67989,0.37782c0.12587,-0.08248 0.27642,-0.13048 0.43814,-0.13048c0.41896,0 0.76275,0.32188 0.79755,0.73185c0.06253,-0.03058 0.12961,-0.05325 0.20002,-0.06669c0.13871,-0.24251 0.33428,-0.29412 0.55741,0.09638c0.13774,0.0813 0.24901,0.20268 0.31775,0.34808c0.1178,-0.06823 0.25461,-0.10726 0.40052,-0.10726c0.38752,0 0.71069,0.27536 0.78459,0.64108c0.09077,-0.03573 0.18965,-0.05536 0.2931,-0.05536c0.40004,0 0.73156,0.29348 0.79099,0.67688c0.08248,-0.02869 0.17104,-0.04431 0.26329,-0.04431c0.4352,0 0.78926,0.34724 0.80021,0.77978c0.01169,-0.00051 0.02341,-0.00077 0.03519,-0.00077c0.29797,0 0.55793,0.16282 0.69573,0.4043c0.09775,-0.04249 0.20559,-0.06605 0.31897,-0.06605c0.2614,0 0.4935,0.12529 0.63957,0.3191c0.13854,-0.11479 0.31641,-0.18379 0.51038,-0.18379c0.30171,0 0.56446,0.16691 0.70089,0.41349c0.03625,-0.00503 0.07326,-0.00762 0.11088,-0.00762c0.27581,0 0.51906,0.13951 0.66301,0.35179c0.10614,-0.052 0.22551,-0.0812 0.35169,-0.0812c0.28164,0 0.52933,0.14543 0.67201,0.36533c0.06615,-0.01771 0.13566,-0.02712 0.20739,-0.02712c0.22714,0 0.43219,0.09462 0.57787,0.24658c0.13765,-0.11187 0.31324,-0.17892 0.50445,-0.17892c0.30021,0 0.5618,0.16525 0.69878,0.40974c0.12846,-0.0878 0.28385,-0.13915 0.45121,-0.13915c0.23278,0 0.44234,0.09935 0.5886,0.25797c0.12337,-0.07771 0.26947,-0.1227 0.42607,-0.1227c0.22368,0 0.42598,0.09177 0.57121,0.23972c0.07592,-0.02389 0.15673,-0.03676 0.24052,-0.03676c0.22013,0 0.41948,0.08882 0.5642,0.23262c0.11373,-0.06205 0.24417,-0.0973 0.38285,-0.0973c0.1982,0 0.37958,0.07204 0.51938,0.19134c0.12372,-0.07835 0.2704,-0.12369 0.42767,-0.12369c0.18497,0 0.35528,0.06276 0.49085,0.1681c0.11504,-0.06401 0.24754,-0.10047 0.38855,-0.10047c0.19256,0 0.36924,0.06801 0.50734,0.18129c0.1381,-0.11328 0.31481,-0.18129 0.50737,-0.18129c0.27085,0 0.51025,0.13451 0.6551,0.34039c0.13726,-0.24353 0.39831,-0.40801 0.69782,-0.40801c0.29582,0 0.55412,0.16045 0.69269,0.39905c0.14053,-0.12215 0.32409,-0.19611 0.52495,-0.19611c0.24309,0 0.46081,0.10835 0.60762,0.27936c0.14261,-0.13144 0.33312,-0.21171 0.54236,-0.21171z" fill="#6a7e00" stroke-width="0.5"/><path d="M253.3349,160.90772c-3.16425,1.1301 -6.13232,-1.59312 -5.94821,-4.70073c-0.40164,-0.54806 -0.19439,-1.59777 1.15837,-3.33468c0.1558,-0.43629 0.375,-0.7996 0.67268,-0.96969c0.08911,-0.15094 0.22631,-0.27011 0.39053,-0.33636c0.14604,-0.19448 0.37856,-0.32028 0.6405,-0.32028c0.17037,0 0.32832,0.05325 0.45812,0.14396c0.59747,0.19989 1.08226,0.41339 1.46819,0.6357c0.3695,0.01402 0.68296,0.31426 0.92432,0.74821c0.18881,0.23716 0.29271,0.47801 0.32582,0.71767c1.78046,1.77665 3.12743,6.26702 -0.09032,7.4162z" fill="#7d794a" stroke-width="0.5"/><path d="M251.02878,153.00303c0,-0.44208 0.35839,-0.80047 0.80047,-0.80047c0.02145,0 0.04268,0.00083 0.06369,0.0025c2.84861,-1.58128 1.38673,11.59388 -0.6673,1.32372c-0.1226,-0.14066 -0.19688,-0.32451 -0.19688,-0.52575z" fill="#7d794a" stroke-width="0.5"/><path d="M250.99488,159.05784l0.12042,-0.20069l0.03471,-0.03471l0.01982,-0.04489l0.14681,-0.18875l0.00442,-0.00349l0.00237,-0.00512l0.08389,-0.10486l0.11949,-0.09103l0.10845,-0.1039l0.14681,-0.08389l0.0341,-0.00957l0.0276,-0.02219l0.27267,-0.12583l0.04428,-0.00839l0.03804,-0.02421l0.18875,-0.06292l0.02267,-0.00173l0.01985,-0.01114l0.23069,-0.06292l0.10688,-0.00227l0.10371,-0.02594h0.09698l0.10211,-0.01278l0.23559,-0.03929l0.06669,0.00535l0.0649,-0.01623h0.02549c0.14597,-0.15494 0.35304,-0.25167 0.58274,-0.25167c0.34532,0 0.63957,0.21866 0.75183,0.52507l0.0015,0.00022l0.11495,0.15916l0.12382,0.15238l-0.00202,0.01623l0.00483,0.00666l0.04194,0.10486l0.02046,0.15023l0.03679,0.14706v0.33556l-0.02392,0.09561v0.09855l-0.02693,0.10774l-0.01537,0.16909l-0.03064,0.08789l-0.00714,0.09279l-0.01595,0.04787l-0.03234,0.27491l-0.02927,0.07723l-0.00631,0.08235l-0.04146,0.12439l-0.03163,0.20559l-0.0146,0.03474v0.03769l-0.04194,0.16778l-0.01476,0.0277l-0.0024,0.03128l-0.08389,0.2517l-0.02113,0.0332l-0.00679,0.03874l-0.08392,0.18875l-0.02232,0.02859l-0.00941,0.03503l-0.10489,0.18875l-0.05834,0.06237l-0.039,0.07601l-0.14681,0.16778l-0.04444,0.03087l-0.03087,0.04444l-0.1477,0.12926l-0.08603,0.08603l-0.02062,0.01236l-0.01358,0.01988l-0.18875,0.16778l-0.09359,0.04892l-0.08021,0.06874l-0.08389,0.04194l-0.0829,0.01841l-0.02497,0.01306l-0.00083,-0.00029l-0.0551,0.02939l-0.08389,0.02097h-0.02798l-0.0041,0.00247l-0.02456,0.02104l-0.00509,0.01377l-0.02229,0.00967l-0.04579,0.03925l-0.08389,0.04194l-0.04431,0.00983l-0.01755,0.01053l-0.01338,-0.00365l-0.04153,0.00922l-0.10963,0.04768l-0.25167,0.04194l-0.06669,-0.00535l-0.0649,0.01623h-0.98573l-0.03125,-0.00781l-0.02427,0.01214l-0.1698,-0.06064l-0.04098,-0.01025l-0.0089,0.00243l-0.01329,-0.00797l-0.11175,-0.02795l-0.01348,-0.02353l-0.03032,-0.01082l-0.06292,-0.04194l-0.05363,-0.05901l-0.06836,-0.04102l-0.04194,-0.04194l-0.03538,-0.05898l-0.00656,-0.00394l-0.04194,-0.04194l-0.00327,-0.00544l-0.01287,-0.01169l-0.00887,-0.01329l-0.01732,-0.00576l-0.01466,-0.03096c-0.77725,-0.24286 -1.53389,-1.25866 -2.11131,-3.56836c-0.01953,-0.07816 1.11002,0.38416 2.28646,0.56375l0.10909,-0.1697z" fill="#7d794a" stroke-width="0.5"/><path d="M250.06761,156.53777c0,-0.59299 0.48073,-1.07372 1.07372,-1.07372c0.59299,0 1.07372,0.48073 1.07372,1.07372c0,0.59299 -0.48073,1.07372 -1.07372,1.07372c-0.59299,0 -1.07372,-0.48073 -1.07372,-1.07372z" fill="#1c1b11" stroke-width="0.5"/><path d="M253.63126,156.15556c-0.24049,-0.61841 -0.19307,-1.21396 0.10585,-1.33025c0.29896,-0.11629 0.73627,0.29083 0.97676,0.90924c0.24049,0.61841 0.19314,1.21396 -0.10582,1.33022c-0.29896,0.11629 -0.7363,-0.29083 -0.97679,-0.9092z" fill="#1c1b11" stroke-width="0.5"/><path d="M252.43994,160.41655c-0.13028,-0.03724 -0.09308,-0.16752 -0.09308,-0.16752l0.02126,-0.07127c0.0545,-0.32041 0.07243,-0.6746 0.07207,-1.00026c0,0 -0.00003,-0.1355 0.1355,-0.1355c0.13554,0 0.13554,0.1355 0.13554,0.1355c-0.00032,0.34135 -0.02072,0.70851 -0.07576,1.0448l-0.02802,0.10118c0,0 -0.03724,0.13028 -0.16752,0.09308z" fill="#1c1b11" stroke-width="0.5"/><path d="M253.3576,160.33247l-0.02802,-0.10118c-0.05504,-0.33629 -0.0754,-0.70348 -0.07576,-1.0448c0,0 0,-0.1355 0.1355,-0.1355c0.13554,0 0.1355,0.1355 0.1355,0.1355c-0.00035,0.32566 0.01758,0.67985 0.07207,1.00026l0.02129,0.07127c0,0 0.03721,0.13032 -0.09308,0.16755c-0.13028,0.03724 -0.16752,-0.09308 -0.16752,-0.09308z" data-paper-data="{&quot;index&quot;:null}" fill="#1c1b11" stroke-width="0.5"/><path d="M250.75839,162.66497l-0.02802,-0.06404c-0.05504,-0.21292 -0.07544,-0.44535 -0.07576,-0.66144c0,0 0,-0.08578 0.13554,-0.08578c0.13554,0 0.1355,0.08578 0.1355,0.08578c-0.00035,0.20614 0.01758,0.43036 0.07207,0.63323l0.02126,0.04511c0,0 0.03724,0.08251 -0.09308,0.10608c-0.13028,0.02357 -0.16752,-0.05891 -0.16752,-0.05891z" data-paper-data="{&quot;index&quot;:null}" fill="#1c1b11" stroke-width="0.5"/><path d="M251.20553,162.83057l-0.02802,-0.06404c-0.05504,-0.21292 -0.07544,-0.44535 -0.07576,-0.66144c0,0 0,-0.08578 0.13554,-0.08578c0.13554,0 0.1355,0.08578 0.1355,0.08578c-0.00035,0.20614 0.01758,0.43036 0.07207,0.63323l0.02126,0.04511c0,0 0.03724,0.08248 -0.09308,0.10605c-0.13028,0.02357 -0.16752,-0.05891 -0.16752,-0.05891z" data-paper-data="{&quot;index&quot;:null}" fill="#1c1b11" stroke-width="0.5"/><path d="M251.7355,162.91337l-0.02802,-0.06404c-0.05504,-0.21292 -0.07544,-0.44535 -0.07576,-0.66144c0,0 0,-0.08578 0.13554,-0.08578c0.13554,0 0.1355,0.08578 0.1355,0.08578c-0.00035,0.20614 0.01758,0.43036 0.07207,0.63323l0.02129,0.04511c0,0 0.03721,0.08251 -0.09308,0.10608c-0.13028,0.02357 -0.16752,-0.05891 -0.16752,-0.05891z" data-paper-data="{&quot;index&quot;:null}" fill="#1c1b11" stroke-width="0.5"/><path d="M252.18267,162.94651l-0.02802,-0.06404c-0.05504,-0.21292 -0.07544,-0.44535 -0.07576,-0.66144c0,0 0,-0.08578 0.13554,-0.08578c0.13554,0 0.1355,0.08578 0.1355,0.08578c-0.00035,0.20614 0.01758,0.43036 0.07207,0.63323l0.02126,0.04511c0,0 0.03724,0.08251 -0.09308,0.10608c-0.13028,0.02357 -0.16752,-0.05891 -0.16752,-0.05891z" data-paper-data="{&quot;index&quot;:null}" fill="#1c1b11" stroke-width="0.5"/><path d="M252.59671,162.86371l-0.02802,-0.06404c-0.05504,-0.21292 -0.07544,-0.44535 -0.07576,-0.66144c0,0 0,-0.08578 0.13554,-0.08578c0.13554,0 0.1355,0.08578 0.1355,0.08578c-0.00035,0.20614 0.01758,0.43036 0.07207,0.63323l0.02126,0.04511c0,0 0.03724,0.08248 -0.09308,0.10605c-0.13028,0.02357 -0.16752,-0.05891 -0.16752,-0.05891z" data-paper-data="{&quot;index&quot;:null}" fill="#1c1b11" stroke-width="0.5"/><path d="M253.09354,162.74197l-0.02802,-0.05315c-0.05504,-0.17662 -0.0754,-0.36943 -0.07576,-0.54867c0,0 0,-0.07118 0.13554,-0.07118c0.13554,0 0.1355,0.07118 0.1355,0.07118c-0.00035,0.17101 0.01758,0.35701 0.07207,0.52527l0.02129,0.03743c0,0 0.03721,0.06846 -0.09308,0.08799c-0.13028,0.01953 -0.16752,-0.04886 -0.16752,-0.04886z" data-paper-data="{&quot;index&quot;:null}" fill="#1c1b11" stroke-width="0.5"/><path d="M253.50758,162.53385l-0.02802,-0.04585c-0.05504,-0.15244 -0.0754,-0.31881 -0.07576,-0.47352c0,0 0,-0.06141 0.1355,-0.06141c0.13554,0 0.1355,0.06141 0.1355,0.06141c-0.00035,0.14761 0.01758,0.30812 0.07207,0.45332l0.02129,0.03231c0,0 0.03721,0.05907 -0.09308,0.07595c-0.13028,0.01687 -0.16752,-0.0422 -0.16752,-0.0422z" data-paper-data="{&quot;index&quot;:null}" fill="#1c1b11" stroke-width="0.5"/><path d="M253.8057,162.35067l-0.02802,-0.0301c-0.05504,-0.10003 -0.07544,-0.20918 -0.07576,-0.31068c0,0 0,-0.04031 0.13554,-0.04031c0.13554,0 0.1355,0.04031 0.1355,0.04031c-0.00035,0.09682 0.01758,0.20217 0.07207,0.29742l0.02126,0.0212c0,0 0.03724,0.03874 -0.09308,0.04982c-0.13028,0.01108 -0.16752,-0.02766 -0.16752,-0.02766z" data-paper-data="{&quot;index&quot;:null}" fill="#1c1b11" stroke-width="0.5"/><path d="M249.56009,178.05037c-1.5166,0.03983 -2.97316,-0.30427 -4.3532,-0.94561c0,0 -0.36735,-0.17079 -0.19656,-0.53814c0.17082,-0.36735 0.53814,-0.19656 0.53814,-0.19656c1.22247,0.56868 2.50633,0.88468 3.8458,0.87293c-0.03407,-0.32211 -0.03125,-0.64838 0.01217,-0.96408c-1.57378,-0.08776 -3.01639,-0.40846 -4.42354,-1.17954c0,0 -0.35502,-0.19515 -0.15987,-0.55018c0.19515,-0.35499 0.55018,-0.15987 0.55018,-0.15987c1.34075,0.73912 2.72697,1.03292 4.24417,1.09222c0.13329,-0.32384 0.32294,-0.61751 0.57432,-0.85957c-1.68723,-0.13611 -3.39065,-0.63272 -4.61457,-1.81517c0,0 -0.29115,-0.28167 -0.00945,-0.57285c0.2817,-0.29118 0.57281,-0.00948 0.57281,-0.00948c1.28424,1.24434 3.20571,1.62223 4.95528,1.62754l0.11383,-0.00836c0,0 0.09878,-0.00634 0.20178,0.03605c-0.02036,-0.30594 -0.0373,-0.60906 -0.04239,-0.91378c-0.35109,-0.39681 -0.66625,-1.00878 -0.76669,-1.81636c-0.38032,-0.29867 -0.83431,-0.50433 -1.45419,-0.55729c0,0 -0.40353,-0.03583 -0.36773,-0.43933c0.03583,-0.40353 0.43936,-0.36773 0.43936,-0.36773c0.78106,0.07159 1.35036,0.33162 1.83195,0.70947c0.20239,0.02341 0.28385,0.17178 0.31625,0.27507c0.16634,0.15881 0.32451,0.33165 0.48079,0.51486l0.0926,0.01896l-0.01495,0.07303c0.04124,0.04934 0.08242,0.09942 0.12366,0.15007c0.73614,0.29771 1.2445,0.99677 1.68258,1.79058c0.33953,0.01691 0.68273,0.08437 1.04928,0.19198c0.16314,-0.05011 0.33347,-0.07553 0.50247,-0.06702c0.46238,0.02331 0.88176,0.15455 1.24998,0.36309c-0.04665,0.99725 -0.02766,2.05711 0.05786,3.09534c-0.24642,0.74373 -0.47442,1.55873 -0.66717,2.39564c-0.10877,0.02904 -0.21718,0.06007 -0.32528,0.09234c-2.33323,-0.17719 -5.1188,-0.13899 -6.91159,0.26857c-0.85628,0.00576 -1.69373,-0.04089 -2.5704,-0.09292c0,0 -0.40436,-0.0244 -0.38,-0.42879c0.02437,-0.40436 0.42879,-0.38 0.42879,-0.38c1.08745,0.06653 2.10731,0.12231 3.18637,0.07521c0.04383,-0.20697 0.1282,-0.43888 0.2404,-0.67803c-0.01149,-0.03388 -0.02261,-0.06798 -0.03327,-0.10233z" data-paper-data="{&quot;index&quot;:null}" fill="#ffffff" stroke-width="0.5"/></g><path d="M235.53924,152.68141c0.36636,0.22546 0.65417,0.53017 0.85493,0.87841c0.00328,0.002 0.00654,0.004 0.00982,0.00602c1.67252,1.02928 1.22267,2.56384 0.9528,3.17471c-0.53641,4.78436 1.04898,8.89314 4.60727,12.29362c1.95778,1.955 3.77351,2.55601 6.23697,3.78457c1.11112,0.55412 2.5185,0.75549 3.30663,1.71491c1.12896,1.37433 2.65314,3.19727 2.12325,4.89507c-0.52302,1.67577 -2.80191,2.29806 -4.50328,2.73065c-3.16571,0.80495 -6.55616,-2.38262 -8.75175,-4.0924c-4.86587,-3.78922 -9.85272,-7.64636 -11.11709,-14.11392c-0.53525,-2.73791 0.17333,-6.00308 0.15112,-8.79111c0,0 -0.01732,-2.49994 2.48262,-2.51727c0.34313,-0.00238 0.63948,0.04267 0.89545,0.12217c0.79254,-0.55825 1.87336,-0.62571 2.75128,-0.08543z" data-paper-data="{&quot;index&quot;:null}" fill="#7c5c32" stroke="none" stroke-width="0.5" stroke-linecap="butt"/></g></g></svg>