<svg version="1.1" xmlns="http://www.w3.org/2000/svg" xmlns:xlink="http://www.w3.org/1999/xlink" width="43.8234" height="50.98211" viewBox="0,0,43.8234,50.98211"><g transform="translate(-222.92889,-158.90313)"><g data-paper-data="{&quot;isPaintingLayer&quot;:true}" fill-rule="nonzero" stroke="none" stroke-width="0.5" stroke-linecap="butt" stroke-linejoin="miter" stroke-miterlimit="10" stroke-dasharray="" stroke-dashoffset="0" style="mix-blend-mode: normal"><path d="M261.58203,160.12574c0.97042,1.74677 -0.77634,2.71719 -0.77634,2.71719l-1.86443,1.00721c-4.29096,1.56035 -8.91284,3.56984 -13.48024,4.2961c-0.11264,0.05742 -0.18615,0.08415 -0.18615,0.08415c-2.48582,0.90229 -5.96104,1.15916 -8.03844,2.85088c-3.74498,3.0497 -7.41323,6.80612 -9.17353,11.39936c-1.04394,2.724 -0.47064,5.99957 -0.57205,8.82837c-0.07708,2.15002 -0.41116,3.87483 -0.04039,5.99919c0.8004,3.19124 1.77292,6.2184 1.79397,9.51782l0.14802,0.72275c0,0 0.3285,1.97105 -1.64254,2.29955c-1.97104,0.32851 -2.29954,-1.64254 -2.29954,-1.64254l-0.2024,-1.37976c0.02404,-2.98414 -0.99016,-5.81506 -1.71023,-8.70403c-0.39937,-2.48198 -0.12872,-4.48328 -0.0404,-6.96636c0.11965,-3.36374 -0.3674,-6.84938 0.82963,-10.09433c1.91365,-5.18758 6.1335,-9.79604 10.45,-13.13005c2.10626,-1.62685 4.82125,-2.16543 7.38375,-2.89899c0.5432,-0.60061 1.38929,-0.67111 1.38929,-0.67111c4.68099,-0.35434 9.61436,-2.6628 14.0255,-4.26685l1.28935,-0.74489c0,0 1.74676,-0.97043 2.71719,0.77634z" fill="#524800"/><path d="M261.18537,159.94829c0.97042,1.74677 -0.77634,2.71719 -0.77634,2.71719l-1.86443,1.00721c-4.29096,1.56035 -8.91284,3.56984 -13.48024,4.2961c-0.11264,0.05742 -0.18615,0.08415 -0.18615,0.08415c-2.48582,0.90229 -5.96104,1.15916 -8.03844,2.85088c-3.74498,3.0497 -7.41323,6.80612 -9.17353,11.39936c-1.04394,2.724 -0.47064,5.99957 -0.57205,8.82837c-0.07708,2.15002 -0.41116,3.87483 -0.04039,5.99919c0.8004,3.19124 1.77292,6.2184 1.79397,9.51782l0.14802,0.72275c0,0 0.3285,1.97105 -1.64254,2.29955c-1.97104,0.32851 -2.29954,-1.64254 -2.29954,-1.64254l-0.2024,-1.37976c0.02404,-2.98414 -0.99016,-5.81506 -1.71023,-8.70403c-0.39937,-2.48198 -0.12872,-4.48328 -0.0404,-6.96636c0.11965,-3.36374 -0.3674,-6.84938 0.82963,-10.09433c1.91365,-5.18758 6.1335,-9.79604 10.45,-13.13005c2.10626,-1.62685 4.82125,-2.16543 7.38375,-2.89899c0.5432,-0.60061 1.38929,-0.67111 1.38929,-0.67111c4.68099,-0.35434 9.61436,-2.6628 14.0255,-4.26685l1.28935,-0.74489c0,0 1.74676,-0.97043 2.71719,0.77634z" fill="#524800"/><path d="M226.92652,208.3425c-0.00743,-0.24989 0.24246,-0.25732 0.24246,-0.25732l0.22636,-0.00403c1.0636,-0.16156 3.01513,-1.09826 4.03854,-1.64724c3.22101,-1.08201 6.29786,-3.28829 9.48264,-4.14854c3.42775,-0.85183 6.66151,-1.75714 9.99748,-3.01935c3.41488,-0.59234 6.75726,-1.19527 10.26447,-1.66566c0.8197,-0.10994 2.49797,-0.29674 3.04915,-1.0126c0.06411,-0.08326 -0.25436,-1.11775 -0.25527,-1.28192c-0.00998,-1.79348 -0.42954,-3.53195 -0.5847,-5.32184c-0.60265,-0.9169 -0.23818,-2.35528 -0.34571,-3.43526c-0.228,-2.29005 -0.45592,-4.49908 -0.84218,-6.7806c-0.65796,-3.28886 -0.20027,-7.03467 -0.20027,-10.39027c0,-2.92325 0.07866,-5.93844 -0.864,-8.7508c0,0 -0.07906,-0.23717 0.15811,-0.31623c0.23717,-0.07906 0.31623,0.15811 0.31623,0.15811c0.95182,2.87015 0.88966,5.92689 0.88966,8.90891c0,3.3239 -0.45931,7.0422 0.19196,10.29949c0.38865,2.29408 0.61878,4.51928 0.84803,6.82184c0.10214,1.02589 -0.26188,2.45752 0.31861,3.31544c0.21348,1.82979 0.62565,3.65289 0.61425,5.4912c-0.00279,0.44959 0.42713,1.11768 0.18314,1.54063c-0.50876,0.88194 -2.53467,1.13198 -3.41055,1.24945c-3.4821,0.46702 -6.81042,1.08113 -10.19914,1.65242c-3.33383,1.27948 -6.58318,2.15176 -10.00747,3.02197c-3.10607,0.70133 -6.27083,3.08224 -9.40595,4.12252c-1.08185,0.58549 -2.99813,1.45159 -4.14903,1.68052l-0.2995,0.01161c0,0 -0.24989,0.00743 -0.25732,-0.24246z" fill="#525252"/><path d="" fill="#134220"/><g><path d="M264.13644,197.07547c-0.86448,1.22583 -2.09032,0.36135 -2.09032,0.36135l-1.02162,-0.72319c-5.94431,-3.73454 -11.06758,-8.76918 -16.99978,-12.58744c-4.64453,-2.98945 -10.03788,-5.05547 -15.01211,-7.45261c0,0 -1.35128,-0.6512 -0.70008,-2.00247c0.6512,-1.35128 2.00247,-0.70008 2.00247,-0.70008c5.09386,2.45479 10.59355,4.58261 15.35066,7.64373c5.91872,3.80859 11.02003,8.84921 16.95171,12.55667l1.15772,0.81372c0,0 1.22583,0.86448 0.36135,2.09032z" fill="#433b00"/><path d="M237.11291,174.08672c0.24047,0.10713 0.20524,0.48492 0.30159,0.7299c0.15471,0.39338 -1.71326,6.64714 -2.91063,6.96287c-2.50165,0.65966 -3.91452,-3.62706 -5.61999,-4.97197c-0.14141,-0.02234 -0.28198,-0.06547 -0.41759,-0.13082c-0.74629,-0.35965 -1.05973,-1.25618 -0.70008,-2.00247c0.31677,-0.65733 1.05007,-0.97885 1.73035,-0.80041c1.97405,-0.97432 5.78308,-0.60387 7.61635,0.2129z" fill="#424135"/><path d="M260.53754,196.78054c0.00283,0.0081 0.00564,0.0162 0.00843,0.02431c-0.00295,-0.24867 -0.00947,-0.4982 -0.01785,-0.74864c0,0 -0.00836,-0.24986 0.2415,-0.25822c0.24986,-0.00836 0.25822,0.2415 0.25822,0.2415c0.00917,0.27422 0.01592,0.5473 0.01826,0.81934c0.03811,-0.0346 0.0938,-0.05941 0.17518,-0.0569c0.24988,0.00771 0.24217,0.25759 0.24217,0.25759c-0.00643,0.20791 -0.01204,0.41444 -0.01794,0.62004c0.00408,0.04708 0.00834,0.09415 0.0128,0.1412c0.00656,-0.07029 0.01326,-0.14064 0.02005,-0.21107c0,0 0.02398,-0.24885 0.27283,-0.22486c0.24885,0.02398 0.22486,0.27283 0.22486,0.27283c-0.00197,0.02046 -0.00393,0.04091 -0.00588,0.06135c0.03804,-0.03356 0.09315,-0.05737 0.17296,-0.05491c0.18515,0.00571 0.22888,0.14437 0.23911,0.21583c0.00713,-0.00055 0.01449,-0.00089 0.02208,-0.001c0.24997,-0.00364 0.25362,0.24633 0.25362,0.24633c0.01054,0.72323 -0.09049,1.38646 -0.17246,2.10225l-0.06366,0.41774c0,0 -0.03769,0.24714 -0.28483,0.20946c-0.24714,-0.03769 -0.20946,-0.28483 -0.20946,-0.28483l0.06235,-0.40858c0.00549,-0.04766 0.01106,-0.09507 0.01669,-0.14225c-0.01393,0.00008 -0.02866,-0.00081 -0.04425,-0.0028c-0.07615,-0.00975 -0.12592,-0.03989 -0.15834,-0.07698l-0.02817,0.22115c0,0 -0.03174,0.24798 -0.27972,0.21623c-0.14949,-0.01914 -0.19733,-0.11686 -0.21174,-0.19146c-0.01272,0.09871 -0.02655,0.19761 -0.04159,0.29677l-0.00181,0.01193c0,0 -0.0375,0.24717 -0.28467,0.20967c-0.24717,-0.0375 -0.20967,-0.28467 -0.20967,-0.28467l0.00181,-0.01193c0.04493,-0.29608 0.07869,-0.58986 0.10468,-0.88272c-0.06581,0.36083 -0.15183,0.7202 -0.26302,1.07832c-0.00348,0.06052 -0.02569,0.10661 -0.02569,0.10661l-0.00758,-0.00182c-0.00429,0.01321 -0.00861,0.02642 -0.01297,0.03963l-0.12138,-0.07197l-0.35332,-0.08505c0.26962,-0.81299 0.39706,-1.63344 0.44869,-2.46287c-0.01984,-0.0071 -0.03745,-0.01686 -0.053,-0.02807c-0.02694,0.3706 -0.06877,0.74027 -0.13513,1.11056l0.03301,0.06102c0,0 0.05354,0.2442 -0.19066,0.29774c-0.07162,0.0157 -0.12684,0.00579 -0.16912,-0.01605c-0.00022,0.06768 -0.02614,0.12147 -0.02614,0.12147l-0.49153,-0.07097c-0.00308,-0.21995 0.00184,-0.43966 0.00921,-0.65935c-0.22715,-0.00171 -0.24091,-0.23549 -0.24091,-0.23549l-0.00518,-0.09066c-0.00824,0.06557 -0.01652,0.13108 -0.02484,0.19652c0.03365,0.09844 -0.01414,0.1976 -0.01414,0.1976l-0.50588,-0.07245c0.03536,-0.27624 0.0705,-0.55373 0.10425,-0.83199c-0.03935,0.01296 -0.08653,0.01549 -0.14169,-0.00248c-0.006,0.0522 -0.02426,0.09011 -0.02426,0.09011l-0.04016,0.00173c-0.00016,0.00973 -0.00031,0.01946 -0.00045,0.02919l-0.045,-0.02723l-0.44727,0.0193c0.00102,0.02385 0.00219,0.0476 0.00351,0.07125c0.22252,0.10891 0.11464,0.33275 0.11464,0.33275l-0.08163,0.01847c0.00192,0.01413 0.00392,0.0282 0.00599,0.04223l-0.04505,-0.03339l-0.45023,0.1019c-0.04058,-0.30986 -0.05016,-0.63839 -0.04102,-0.97576c-0.04122,0.00251 -0.08364,-0.00518 -0.12348,-0.02439c-0.04139,-0.01994 -0.07479,-0.0498 -0.09872,-0.08533c-0.05988,0.02034 -0.12747,0.01812 -0.18894,-0.0115c-0.10131,-0.04882 -0.15476,-0.15701 -0.13871,-0.26268l0.00427,-0.03334c-0.04411,0.05106 -0.11647,0.09319 -0.23225,0.06922c-0.16097,-0.03332 -0.19419,-0.15057 -0.19807,-0.22698c-0.04133,0.00904 -0.09075,0.00649 -0.14904,-0.01638c-0.12337,-0.04841 -0.15568,-0.13656 -0.1588,-0.20871c-0.04182,0.04271 -0.10626,0.07438 -0.20495,0.06175c-0.01221,-0.00156 -0.02374,-0.00365 -0.03463,-0.00621c-0.01578,0.12037 -0.03148,0.24102 -0.04698,0.36202l-0.02817,0.31116c-0.00208,0.03096 -0.00999,0.06206 -0.02429,0.09173c-0.05994,0.12438 -0.20936,0.17662 -0.33375,0.11668c-0.09363,-0.04512 -0.14638,-0.14095 -0.14117,-0.23863l0.01126,-0.36491c0,0 0.00211,-0.0685 0.03999,-0.13266c0.17209,-1.32713 0.36401,-2.61519 0.42263,-3.95231c0,0 0.01104,-0.24976 0.2608,-0.23871c0.24976,0.01104 0.23871,0.2608 0.23871,0.2608c-0.00338,0.0758 -0.00718,0.15144 -0.01136,0.22694c0.04143,-0.06402 0.1236,-0.13895 0.27145,-0.09816c0.24099,0.06649 0.1745,0.30749 0.1745,0.30749c-0.22598,0.81407 -0.42864,1.80194 -0.47817,2.66971c0.1745,-0.89458 0.39307,-1.77681 0.53019,-2.68055c0,0 0.0375,-0.24717 0.28467,-0.20967c0.09565,0.01451 0.14867,0.06042 0.17773,0.11126c0.15146,0.05321 0.15406,0.23156 0.15406,0.23156c0.0056,0.39663 -0.00975,0.77946 -0.04475,1.15722c0.02946,-0.00884 0.06414,-0.01273 0.10495,-0.00937c0.04832,0.00397 0.08651,0.01654 0.11666,0.03422c0.0189,-0.16948 0.03306,-0.33929 0.04053,-0.50955c0,0 0.01104,-0.24976 0.2608,-0.23871c0.24976,0.01104 0.23871,0.2608 0.23871,0.2608c-0.00611,0.1371 -0.01635,0.27388 -0.02979,0.4104c0.02481,0.02446 0.04116,0.05301 0.05191,0.08079c0.00294,-0.02341 0.00591,-0.04681 0.00891,-0.0702c0,0 0.03174,-0.24798 0.27972,-0.21623c0.24798,0.03174 0.21623,0.27972 0.21623,0.27972c-0.00749,0.05849 -0.01481,0.11704 -0.02198,0.17567c0.02218,-0.01749 0.04996,-0.0329 0.08459,-0.04501c0.12536,-0.04383 0.20741,0.00222 0.25679,0.05502c0.03736,-0.02598 0.08813,-0.04283 0.15711,-0.03978c0.24976,0.01104 0.23871,0.2608 0.23871,0.2608c-0.01506,0.33722 -0.03746,0.67553 -0.06528,1.01413c0.03832,-0.02419 0.08954,-0.03874 0.15795,-0.03291c0.01935,0.00165 0.03708,0.00468 0.0533,0.00886c-0.00141,-0.10106 -0.00508,-0.20192 -0.01217,-0.30247c0,0 -0.0175,-0.24939 0.23188,-0.26689c0.24939,-0.0175 0.26689,0.23188 0.26689,0.23188c0.00909,0.13005 0.01204,0.26107 0.01163,0.3926c0.02113,-0.0047 0.04471,-0.00717 0.07103,-0.00685c0.24998,0.00311 0.24687,0.25309 0.24687,0.25309c-0.00022,0.01741 -0.00044,0.03482 -0.00067,0.05222c0.01596,0.02659 0.02305,0.04686 0.02305,0.04686zM258.1043,198.05439c0.00571,-0.26599 0.01533,-0.53268 0.02868,-0.79955c-0.02066,0.2718 -0.03256,0.54041 -0.02868,0.79955z" fill="#134220"/><path d="M260.97133,190.68245c0.0023,-0.01712 0.00636,-0.03526 0.01244,-0.05445c0.07559,-0.2383 0.31389,-0.16271 0.31389,-0.16271l0.24965,0.07919c0.01251,0.00375 0.0249,0.00853 0.03704,0.01439c0.12438,0.05994 0.17662,0.20936 0.11668,0.33375c-0.03076,0.06384 -0.0851,0.10867 -0.14752,0.12909l-0.40586,0.13343l-0.0014,-0.00426l-0.01371,0.00871c-0.06408,0.01247 -0.12808,0.02432 -0.19205,0.03567c0.00032,0.01746 -0.00119,0.03507 -0.00463,0.05256c0.07475,-0.00423 0.13693,0.02573 0.13693,0.02573l0.00052,0.02249l0.0125,0.0019c0.02599,0.00333 0.05189,0.01083 0.07679,0.02283c0.08067,0.03887 0.13099,0.11538 0.14005,0.19829l0.04584,0.03335c0.19793,0.00379 0.39568,0.00514 0.5932,0.00201l0.21392,0.07379c0,0 0.12531,0.06039 0.14394,0.18454c0.20131,-0.02024 0.40259,-0.04364 0.60414,-0.07146c0.02935,-0.0109 0.05084,-0.01414 0.05084,-0.01414l0.32546,-0.049l0.48397,-0.0953c0.05197,-0.01082 0.10779,-0.00524 0.15931,0.01959c0.12438,0.05994 0.17662,0.20936 0.11668,0.33375c-0.02704,0.05612 -0.0723,0.09755 -0.12526,0.12062c0.10316,-0.01023 0.20633,-0.0204 0.3095,-0.0305l0.0229,0.01042l0.00085,-0.0094l0.31462,0.02849c0.03096,0.00208 0.06206,0.00999 0.09173,0.02429c0.12438,0.05994 0.17662,0.20936 0.11668,0.33375c-0.03381,0.07015 -0.09608,0.11735 -0.16626,0.13443l-0.17049,0.04275c0.12994,0.00823 0.25983,0.01741 0.38969,0.02736l0.24891,0.01909c0.03208,0.00171 0.06436,0.00967 0.0951,0.02449c0.12438,0.05994 0.17662,0.20936 0.11668,0.33375c-0.02669,0.05538 -0.07112,0.09646 -0.12317,0.1197l-0.26327,0.11978l-0.37977,0.18852c0,0 -0.22394,0.11114 -0.33508,-0.1128c-0.04997,-0.10069 -0.0322,-0.17857 0.00249,-0.2338c-0.0453,-0.00247 -0.0906,-0.00481 -0.1359,-0.007l-0.25884,0.12846l-0.00143,-0.00288l-0.00944,0.00795c-0.18183,0.06957 -0.36407,0.13536 -0.54678,0.19841c0.15729,-0.0097 0.31452,-0.02048 0.47168,-0.03284l0.01313,0.00624l0.00017,-0.00623l0.27554,0.0075c0.036,0.00018 0.07254,0.00817 0.10713,0.02484c0.10516,0.05068 0.15875,0.16532 0.13658,0.27471l0.18834,-0.00275c0.03924,-0.0014 0.07938,0.00646 0.11721,0.02469c0.0821,0.03956 0.13276,0.11811 0.14049,0.20271c0.34411,-0.00635 0.68829,-0.01015 1.03287,-0.02729l0.01157,0.0053l0.00022,-0.00505l0.28092,0.01242c0.03467,0.00074 0.06974,0.00875 0.10301,0.02479c0.11738,0.05657 0.17051,0.19282 0.12575,0.31251c0.10959,0.06573 0.15292,0.20541 0.09636,0.32279c-0.01034,0.02145 -0.02334,0.04076 -0.03841,0.05771l0.17939,-0.01643c0.04492,-0.0049 0.09172,0.00231 0.13543,0.02337c0.12438,0.05994 0.17662,0.20936 0.11668,0.33375c-0.02784,0.05778 -0.075,0.09999 -0.12998,0.12262l-0.41743,0.17407l-0.00184,-0.00441c-0.00396,0.00322 -0.00792,0.00644 -0.01188,0.00966l-0.44999,0.12866c0,0 -0.02741,0.00781 -0.06636,0.0089l0.08404,0.23918c-0.4036,0.13921 -0.8181,0.17201 -1.24022,0.23104c0,0 -0.24759,0.03462 -0.28221,-0.21297c-0.00705,-0.05039 -0.0024,-0.09195 0.00946,-0.1262c-0.06522,-0.01386 -0.14012,-0.05442 -0.17256,-0.16262c-0.09083,0.04027 -0.17955,0.08382 -0.26552,0.13142c0,0 -0.21922,0.12018 -0.3394,-0.09904c-0.03783,-0.069 -0.04203,-0.1282 -0.03003,-0.17691c-0.11645,0.01668 -0.23314,0.03196 -0.35025,0.04496c0,0 -0.2485,0.02733 -0.27583,-0.22117c-0.0106,-0.09637 0.02029,-0.15948 0.06208,-0.20063c-0.01945,0.00504 -0.03889,0.01014 -0.05833,0.01531c0,0 -0.24163,0.06416 -0.30579,-0.17746c-0.06416,-0.24163 0.17746,-0.30579 0.17746,-0.30579c0.08886,-0.02357 0.17775,-0.04587 0.26673,-0.06709c-0.09767,0.0105 -0.19543,0.02239 -0.2934,0.03614c0,0 -0.17156,0.02399 -0.24903,-0.11078c-0.15566,0.01047 -0.31131,0.02509 -0.46788,0.05275c0,0 -0.24635,0.04259 -0.28893,-0.20376c-0.00893,-0.05167 -0.00515,-0.09437 0.00639,-0.1296c-0.01249,-0.00691 -0.02478,-0.01516 -0.03643,-0.02502c-0.04246,0.01278 -0.08495,0.02557 -0.12748,0.0384c0,0 -0.23935,0.07218 -0.31153,-0.16718c-0.07218,-0.23935 0.16718,-0.31153 0.16718,-0.31153c0.14416,-0.04347 0.28794,-0.08655 0.43136,-0.12975c-0.0222,0.00302 -0.0444,0.00603 -0.0666,0.00904c0.0462,-0.01021 0.0924,-0.02046 0.13858,-0.03075c0.03514,-0.01061 0.07026,-0.02123 0.10536,-0.03187c-0.45012,0.0495 -0.90201,0.10446 -1.3493,0.11205c0,0 -0.24997,0.00364 -0.25362,-0.24633c-0.00006,-0.00393 -0.00005,-0.0078 0.00001,-0.01161c-0.04597,-0.02977 -0.08624,-0.08098 -0.10082,-0.1682c-0.04121,-0.24658 0.20537,-0.28779 0.20537,-0.28779c0.09434,-0.01577 0.18871,-0.03088 0.2831,-0.04545c-0.02365,-0.02383 -0.044,-0.05456 -0.05464,-0.09391c-0.02019,0.00323 -0.04042,0.00629 -0.0607,0.00917c0,0 -0.04859,0.00679 -0.10572,-0.00716c-0.31556,0.14787 -0.54424,0.13953 -0.90191,0.19023c0,0 -0.24759,0.03462 -0.28221,-0.21297c-0.03462,-0.24759 0.21297,-0.28221 0.21297,-0.28221c0.07086,-0.00979 0.13651,-0.01555 0.19887,-0.02046c-0.04008,-0.0279 -0.07529,-0.07356 -0.09375,-0.14719c-0.0067,-0.02673 -0.00972,-0.05126 -0.00978,-0.07374c-0.01133,-0.00005 -0.02266,-0.00008 -0.034,-0.0001c-0.21591,0.03449 -0.43203,0.06648 -0.64869,0.09035c0,0 -0.2485,0.02733 -0.27583,-0.22117c-0.00894,-0.0813 0.01164,-0.13893 0.04339,-0.17967c-0.07492,0.00932 -0.14957,0.01679 -0.22374,0.02111c0,0 -0.24958,0.0145 -0.26408,-0.23508c-0.00455,-0.0784 0.01695,-0.13361 0.04859,-0.17245c-0.00066,-0.00783 -0.00106,-0.01593 -0.00118,-0.02433c-0.00062,-0.0426 0.00612,-0.07805 0.01774,-0.10754c-0.18818,0.02916 -0.37715,0.05548 -0.5675,0.078c0,0 -0.24827,0.02935 -0.27762,-0.21893c-0.0098,-0.08293 0.01137,-0.14143 0.04392,-0.18258c-0.06498,-0.02312 -0.13295,-0.0767 -0.14989,-0.19788c-0.03462,-0.24759 0.21297,-0.28221 0.21297,-0.28221c0.04358,-0.00608 0.08715,-0.01185 0.13071,-0.01737c-0.04105,-0.03343 -0.07461,-0.08653 -0.08231,-0.1707c-0.02281,-0.24896 0.22615,-0.27176 0.22615,-0.27176c0.95482,-0.08746 1.91952,-0.19677 2.87863,-0.21108l-0.07436,0.40785l0.08165,0.0921c-0.03291,0.00047 -0.06583,0.00105 -0.09876,0.00175l-0.01421,0.07792c0,0 -0.18959,0.09088 -0.30438,-0.06791c-0.08045,0.00332 -0.16093,0.0072 -0.24143,0.01157c0.01336,0.03326 0.01958,0.06932 0.01779,0.10566c0.01039,0.00341 0.02068,0.00755 0.03081,0.01243c0.12438,0.05994 0.17662,0.20936 0.11668,0.33375c-0.03147,0.06531 -0.08762,0.11073 -0.15185,0.13046l-0.08925,0.02769c0.33344,-0.04591 0.66438,-0.09136 0.9963,-0.15423zM259.17688,191.02216c0.1335,-0.00218 0.26699,-0.00463 0.40048,-0.0076c0.01277,-0.03395 0.03272,-0.06046 0.05521,-0.08111c-0.15219,0.03006 -0.30398,0.0598 -0.45569,0.0887zM262.66826,192.98734l-0.30509,0.08859c-0.00002,-0.00001 -0.00003,-0.00001 -0.00005,-0.00002l0.03122,0.07576c0.14584,-0.04577 0.29134,-0.09247 0.43652,-0.14064c-0.03688,-0.02149 -0.07192,-0.0549 -0.09236,-0.10684c-0.03013,0.05215 -0.07024,0.08315 -0.07024,0.08315zM263.70653,194.65747c0.00009,-0.00476 0.00029,-0.00961 0.0006,-0.01456c-0.1111,0.02094 -0.22183,0.04281 -0.33232,0.066c0.11073,-0.01613 0.22124,-0.03359 0.33172,-0.05145zM258.23758,191.97259c0.01601,0.00658 0.03218,0.01091 0.04801,0.01356c-0.02383,0.00895 -0.04762,0.01785 -0.07133,0.02672c0.00774,-0.01345 0.01551,-0.02687 0.02333,-0.04028z" fill="#134220"/></g></g></g></svg>