<svg version="1.1" xmlns="http://www.w3.org/2000/svg" xmlns:xlink="http://www.w3.org/1999/xlink" width="19.20992" height="24.14641" viewBox="0,0,19.20992,24.14641"><g transform="translate(-235.86697,-176.59895)"><g data-paper-data="{&quot;isPaintingLayer&quot;:true}" fill-rule="nonzero" stroke="none" stroke-linecap="butt" stroke-linejoin="miter" stroke-miterlimit="10" stroke-dasharray="" stroke-dashoffset="0" style="mix-blend-mode: normal"><path d="M241.90572,200.7406c-3.4343,-0.12127 -6.13671,-2.53133 -6.03602,-5.38302c0.1007,-2.85169 2.96637,-5.06515 6.40067,-4.94388c3.4343,0.12127 6.13672,2.53133 6.03602,5.38303c-0.1007,2.85169 -2.96637,5.06514 -6.40067,4.94387z" data-paper-data="{&quot;index&quot;:null}" fill="#5a3e05" stroke-width="0"/><path d="M246.19617,193.19789c-0.15231,-0.3752 -0.20833,-0.77951 -0.12127,-1.1386c0.15869,-0.65452 1.18282,-0.66449 1.82546,-0.86597c0.49851,-0.15629 0.98179,-0.23023 1.45561,-0.28351c0.62157,-0.2193 1.33967,-0.3284 1.99588,-0.28348c0.29214,-0.07698 0.58378,-0.18148 0.87642,-0.32944c0.11358,-0.13899 0.25589,-0.23093 0.36528,-0.28686c-0.00283,-0.13857 0.13185,-0.21503 0.13185,-0.21503c0.43963,-0.24332 0.81367,-0.26738 1.31155,-0.27533l0.03437,0.0009c0,0 0.1398,0.00494 0.20656,0.112c0.04542,-0.00432 0.09135,-0.00797 0.13785,-0.01099l0.06829,0.00121c0,0 0.02947,0.00105 0.06781,0.01253l0.22703,-0.03949c0.01834,-0.00357 0.03738,-0.00513 0.05686,-0.00445c0.13798,0.00487 0.24589,0.12068 0.24102,0.25867c-0.00159,0.04501 -0.01498,0.08682 -0.03709,0.12255l-0.13744,0.2321l-0.00091,-0.00054l-0.00094,0.00361c-0.48733,0.76688 -0.99526,1.38609 -1.52902,2.05439c-0.06314,1.83707 -4.78393,2.87907 -5.83547,2.92732c0,0 -0.99914,0.04147 -1.0406,-0.95767c-0.00295,-0.07102 -0.00064,-0.1372 0.0062,-0.19888c-0.14049,-0.17455 -0.21982,-0.34981 -0.29003,-0.61268z" data-paper-data="{&quot;index&quot;:null}" fill="#d9d20d" stroke-width="0.5"/><path d="M250.39333,193.71116c-0.45829,1.1995 -1.34465,1.59753 -2.7796,1.85322c0,0 -0.24615,0.04372 -0.28987,-0.20243c-0.01745,-0.09821 0.01126,-0.16419 0.05206,-0.20804c-0.03004,-0.04293 -0.04689,-0.09561 -0.04489,-0.15201c0.00338,-0.09572 0.06014,-0.17697 0.14066,-0.21614l0.20796,-0.10611c0.5167,-0.46111 1.12523,-0.69344 1.71462,-1.07213c0.15137,-0.32351 0.30139,-0.66605 0.53605,-0.77426c0.10708,-0.04938 0.20001,-0.07627 0.27975,-0.08488c0.03199,-0.014 0.07134,-0.022 0.11973,-0.02029c0.17763,0.00627 0.22451,0.13437 0.23677,0.2079c0.08279,0.19271 0.02792,0.49225 -0.12036,0.7096z" data-paper-data="{&quot;index&quot;:null}" fill="#d90d0d" stroke-width="0.5"/><path d="M244.4166,196.98727c-0.03894,-0.01198 -0.075,-0.0249 -0.10833,-0.03866c-0.06946,-0.0069 -0.13016,-0.04202 -0.17096,-0.09344c-0.61258,-0.44765 0.55242,-1.31711 0.79721,-0.26155l-0.23085,0.20695c-0.05135,0.2289 -0.28707,0.18669 -0.28707,0.18669z" data-paper-data="{&quot;index&quot;:null}" fill="#000000" stroke-width="0.5"/><path d="M237.54388,192.38726c-0.24984,-0.00882 -0.24102,-0.25867 -0.24102,-0.25867c0.07223,-1.81224 -0.45169,-3.79601 -0.3836,-5.72442c0.08177,-2.31563 0.16353,-4.63126 0.2453,-6.94689c0.0222,-0.6287 -0.07773,-2.03514 0.5588,-2.45445c1.40839,-0.92778 4.10241,-0.17665 4.36936,1.43236c-0.0945,2.5133 -0.18011,5.29812 0.52118,7.72551c0.34396,1.17385 0.59895,2.56901 1.16767,3.65496c0.20507,0.39156 1.27379,0.98642 1.22855,1.41362c-0.06688,0.63146 -1.24868,0.49825 -1.69136,0.48007c-1.92595,0.58043 -3.57228,0.68053 -5.58856,0.61126c-0.03832,0.03982 -0.09687,0.06981 -0.18632,0.06665z" data-paper-data="{&quot;index&quot;:null}" fill="#5a3e05" stroke-width="0.5"/><path d="M245.79753,191.72743c-0.01394,0.00158 -0.02249,0.00158 -0.02249,0.00158l-0.22227,-0.00746c-0.95091,-0.23773 -1.54317,-0.79217 -1.98068,-1.66626c-0.63637,-1.90351 -1.92003,-4.17371 -0.78257,-6.15421c2.24494,-2.71323 3.96475,0.10353 3.71919,2.55971c-0.12266,1.21443 0.88586,5.01353 -0.44675,5.35775c0,0 -0.17446,0.04361 -0.26444,-0.0911z" fill="#d90d0d" stroke-width="0.5"/></g></g></svg>