<svg version="1.1" xmlns="http://www.w3.org/2000/svg" xmlns:xlink="http://www.w3.org/1999/xlink" width="30.79526" height="35.70639" viewBox="0,0,30.79526,35.70639"><g transform="translate(-222.88225,-163.27017)"><g data-paper-data="{&quot;isPaintingLayer&quot;:true}" fill-rule="nonzero" stroke-linecap="butt" stroke-linejoin="miter" stroke-miterlimit="10" stroke-dasharray="" stroke-dashoffset="0" style="mix-blend-mode: normal"><path d="M253.67751,183.75591c0,8.40613 -6.89375,15.22064 -15.39763,15.22064c-8.50388,0 -15.39763,-6.81451 -15.39763,-15.22064c0,-8.40613 6.89375,-15.22064 15.39763,-15.22064c8.50388,0 15.39763,6.81451 15.39763,15.22064z" fill="#8f0c0c" stroke="#535353" stroke-width="0"/><path d="M232.26242,174.72971c0,0.87971 -0.71315,1.59286 -1.59286,1.59286c-0.87971,0 -1.59286,-0.71315 -1.59286,-1.59286c0,-0.87971 0.71315,-1.59286 1.59286,-1.59286c0.87971,0 1.59286,0.71315 1.59286,1.59286z" fill="#8f4545" stroke="none" stroke-width="0"/><path d="M241.77976,163.43662c1.55896,0.66813 0.89083,2.22709 0.89083,2.22709l-0.40223,0.73953c-0.05899,0.58995 -0.11799,1.17989 -0.17698,1.76984c0,0 -0.16877,1.68768 -1.85645,1.51891c-1.68768,-0.16877 -1.51891,-1.85645 -1.51891,-1.85645c0.05899,-0.58995 0.11799,-1.17989 0.17698,-1.76984l0.65967,-1.73825c0,0 0.66813,-1.55896 2.22709,-0.89083z" fill="#77340d" stroke="none" stroke-width="0.5"/></g></g></svg>