<svg version="1.1" xmlns="http://www.w3.org/2000/svg" xmlns:xlink="http://www.w3.org/1999/xlink" width="16.50266" height="18.37501" viewBox="0,0,16.50266,18.37501"><g transform="translate(-232.87495,-164.28422)"><g data-paper-data="{&quot;isPaintingLayer&quot;:true}" fill-rule="nonzero" stroke="none" stroke-linecap="butt" stroke-linejoin="miter" stroke-miterlimit="10" stroke-dasharray="" stroke-dashoffset="0" style="mix-blend-mode: normal"><path d="M240.99995,182.65922c-4.48731,0 -8.125,-3.32988 -8.125,-7.4375c0,-4.10762 3.63769,-7.4375 8.125,-7.4375c3.77087,0 6.94176,2.35147 7.85816,5.53991c-0.06733,0.57349 0.03499,1.4351 0.25404,2.31865c-0.23848,3.91173 -3.77925,7.01645 -8.1122,7.01645z" fill="#ffd118" stroke-width="0"/><path d="M242.37495,167.90922c0,2.00203 -1.03534,3.625 -2.3125,3.625c-1.27716,0 -2.3125,-1.62297 -2.3125,-3.625c0,-2.00203 1.03534,-3.625 2.3125,-3.625c1.27716,0 2.3125,1.62297 2.3125,3.625z" fill="#ffd118" stroke-width="0"/><path d="M244.37495,172.78422c0,-0.27614 0.22386,-0.5 0.5,-0.5c0.27614,0 0.5,0.22386 0.5,0.5c0,0.27614 -0.22386,0.5 -0.5,0.5c-0.27614,0 -0.5,-0.22386 -0.5,-0.5z" fill="#000000" stroke-width="0.5"/><path d="M247.99995,178.03422c0,-0.27992 0.15671,-0.40313 0.29466,-0.45736c0.09044,-0.18088 0.18088,-0.36176 0.27132,-0.54264c-0.13424,0 -0.25011,0 -0.31598,0c0,0 -0.5,0 -0.5,-0.5c0,-0.5 0.5,-0.5 0.5,-0.5c0.20833,0 0.41667,0 0.625,0h0.34155c0.04962,0.1739 0.10346,0.34712 0.16111,0.51765c-0.10845,0.25992 -0.22309,0.64135 -0.31896,1.07061c-0.35175,0.16945 -0.61198,0.49876 -0.68647,0.89368c-0.14814,-0.03657 -0.37223,-0.14721 -0.37223,-0.48194z" fill="#000000" stroke-width="0.5"/><path d="M245.99995,171.28422c0,-0.27614 0.22386,-0.5 0.5,-0.5c0.27614,0 0.5,0.22386 0.5,0.5c0,0.27614 -0.22386,0.5 -0.5,0.5c-0.27614,0 -0.5,-0.22386 -0.5,-0.5z" fill="#ffd118" stroke-width="0.5"/><path d="M248.68288,173.85653l0.15378,0.10033c0.00258,0.0031 0.00518,0.00623 0.00779,0.00938c0.03374,0.65993 0.1911,1.48328 0.43343,2.27566h-0.04423c-0.07407,0.07353 -0.18464,0.07353 -0.18464,0.07353c-0.35539,0 -0.78431,0 -1.13971,0c0,0 -0.25,0 -0.25,-0.25c0,-0.25 0.25,-0.25 0.25,-0.25c0.24722,0 0.49443,0 0.74165,0c-0.00775,-0.02165 -0.01108,-0.03495 -0.01108,-0.03495l-0.10887,-0.44779c-0.12636,-0.25797 -0.3036,-0.49474 -0.50961,-0.69492c0,0 -0.35355,-0.35355 0,-0.70711c0.2132,-0.2132 0.4264,-0.16927 0.56208,-0.10079c0.05705,0.00549 0.0994,0.02666 0.0994,0.02666z" fill="#ffd118" stroke-width="0.5"/></g></g></svg>