<svg version="1.1" xmlns="http://www.w3.org/2000/svg" xmlns:xlink="http://www.w3.org/1999/xlink" width="38.59226" height="41.32654" viewBox="0,0,38.59226,41.32654"><g transform="translate(-222.96834,-157.32243)"><g data-paper-data="{&quot;isPaintingLayer&quot;:true}" fill-rule="nonzero" stroke-linecap="butt" stroke-linejoin="miter" stroke-miterlimit="10" stroke-dasharray="" stroke-dashoffset="0" style="mix-blend-mode: normal"><path d="M251.54575,169.90748c-0.49614,0.86824 -1.36438,0.3721 -1.36438,0.3721l-0.91304,-0.52174c0,0 -0.86824,-0.49614 -0.3721,-1.36438c0.49614,-0.86824 1.36438,-0.3721 1.36438,-0.3721l0.91304,0.52174c0,0 0.86824,0.49614 0.3721,1.36438z" fill="#c22110" stroke="none" stroke-width="0.5"/><g><path d="M252.57935,187.04395c-9.00492,10.25415 -20.92298,14.51127 -26.61973,9.50854c-5.69675,-5.00273 -3.01496,-17.37088 5.98996,-27.62504c9.00492,-10.25415 20.92298,-14.51127 26.61973,-9.50854c5.69675,5.00273 3.01496,17.37088 -5.98996,27.62504z" fill="#cf2411" stroke="#535353" stroke-width="0"/><path d="M234.63386,188.59961c-0.96025,0.96025 -1.92051,0 -1.92051,0l-0.94796,-0.9603c-1.36829,-0.8446 -2.75181,-1.60914 -4.19017,-2.32794c0,0 -1.21464,-0.60732 -0.60732,-1.82196c0.60732,-1.21464 1.82196,-0.60732 1.82196,-0.60732c1.61124,0.80602 3.14258,1.6699 4.66639,2.63173l1.17761,1.16528c0,0 0.96025,0.96025 0,1.92051z" fill="#c22110" stroke="none" stroke-width="0.5"/><path d="M242.18506,186.70178c-0.83373,1.07194 -1.90568,0.23821 -1.90568,0.23821l-1.59418,-1.23992c0,0 -0.30292,-0.23561 -0.46146,-0.61735c-0.2947,-0.06469 -0.50195,-0.19792 -0.50195,-0.19792c-0.4888,-0.31423 -1.05802,-0.68015 -1.60442,-1.03141c-0.63577,0.16569 -1.16545,-0.28599 -1.26254,-0.37549c-1.16837,-0.49149 -2.29509,-1.09495 -3.35156,-1.79386c0,0 -1.12993,-0.75329 -0.37664,-1.88321c0.75329,-1.12993 1.88321,-0.37664 1.88321,-0.37664c0.80242,0.53973 1.65678,1.01055 2.54329,1.40093c0.59138,-0.1831 1.15753,0.18085 1.15753,0.18085c0.76155,0.48957 1.5231,0.97914 2.28465,1.4687l0.19519,0.12548c0,0 0.3874,0.24905 0.56597,0.68268c0.34915,0.08121 0.5962,0.27336 0.5962,0.27336l1.59418,1.23992c0,0 1.07194,0.83373 0.23821,1.90568z" fill="#c22110" stroke="none" stroke-width="0.5"/><path d="M250.18907,179.74925c-0.78932,1.10505 -1.89438,0.31573 -1.89438,0.31573l-1.222,-0.87307c-1.58855,-1.06214 -3.14876,-1.88295 -4.66774,-3.05692c0,0 -1.07194,-0.83373 -0.23821,-1.90568c0.83373,-1.07194 1.90568,-0.23821 1.90568,-0.23821c1.46272,1.14592 2.99553,1.93654 4.54308,2.96554l1.25784,0.89824c0,0 1.10505,0.78932 0.31573,1.89438z" fill="#c22110" stroke="none" stroke-width="0.5"/></g></g></g></svg>