<svg version="1.1" xmlns="http://www.w3.org/2000/svg" xmlns:xlink="http://www.w3.org/1999/xlink" width="137.90997" height="85.24196" viewBox="0,0,137.90997,85.24196"><g transform="translate(-187.06503,-155.87898)"><g data-paper-data="{&quot;isPaintingLayer&quot;:true}" fill-rule="nonzero" stroke="none" stroke-linecap="butt" stroke-linejoin="miter" stroke-miterlimit="10" stroke-dasharray="" stroke-dashoffset="0" style="mix-blend-mode: normal"><path d="M320.44645,174.71441c0,5.45928 -2.70283,10.3761 -7.02134,13.81623c-0.52486,-0.47486 -1.2422,-0.91745 -1.9773,-1.30551c-2.7318,-2.66172 -5.63231,-5.20625 -8.92148,-7.00516c-2.15929,-1.18096 -4.5373,-2.02241 -6.67932,-3.24063l-0.93029,-0.77524c-0.21769,-0.18403 -0.49916,-0.29497 -0.80653,-0.29497c-0.69036,0 -1.25,0.55964 -1.25,1.25c0,0.23358 0.06407,0.45219 0.17559,0.63923l0.65585,1.14774l0.02233,-0.01276c0.01157,0.03531 0.02363,0.07049 0.03623,0.10554c0.39017,1.08528 2.12291,2.38872 3.41625,3.34529c0.02467,0.60924 0.5842,0.98227 0.5842,0.98227l0.83425,0.49059c0.26026,0.0768 0.5177,0.16153 0.77272,0.25308c2.58791,2.13953 5.00469,4.2748 7.97443,5.97303c0.49437,0.2827 1.11962,0.72845 1.79669,1.12106c-3.14178,1.49471 -6.75594,2.34564 -10.60138,2.34564c-12.10559,0 -21.9191,-8.4329 -21.9191,-18.83542c0,-10.40252 9.81352,-18.83543 21.91911,-18.83543c12.10559,0 21.91911,8.43291 21.91911,18.83543z" fill-opacity="0.91765" fill="#0f0a19" stroke-width="0"/><path d="M319.27793,177.67409c-0.14387,-0.18834 -0.28772,-0.37668 -0.43159,-0.56502c0,0 -0.45,-0.6 0.15,-1.05c0.18275,-0.13706 0.35158,-0.17672 0.49802,-0.16559c0.00589,-0.0539 0.01324,-0.10889 0.02192,-0.16504c-0.14803,-1.07331 -0.15134,-2.35679 -0.1532,-2.90313v-0.16669c0,0 0,-0.62631 0.57234,-0.73425c-0.86233,-1.07342 -1.82657,-2.04886 -2.92523,-2.82258c0,0 -0.6103,-0.43593 -0.17437,-1.04623c0.43593,-0.6103 1.04623,-0.17437 1.04623,-0.17437c2.48676,1.79774 4.32795,4.41389 5.88005,7.06794c0.44472,0.76047 1.74585,2.52252 0.97248,3.46388c-0.46917,0.5711 -1.13975,0.84977 -1.8829,1.00731c-1.00472,0.4733 -2.7806,0.87435 -4.20935,1.08852c0.02267,0.03819 0.04501,0.07649 0.06703,0.1149c0.59981,0.21676 0.4902,0.78267 0.45613,0.91275c0.6024,1.39336 0.86752,2.91779 1.02721,4.54972c0.11439,1.16896 0.19707,2.59219 -1.0882,3.25016c-0.69566,0.35613 -3.7248,-0.09029 -5.52812,-0.66258c-0.41257,-0.4095 -0.97725,-0.79724 -1.58627,-1.14946c-0.10975,-0.31787 -0.16434,-0.67075 -0.2853,-0.9815c1.56013,-2.10909 3.69293,-3.51701 5.78244,-5.06173c-0.15064,-0.27292 -0.3225,-0.53969 -0.51911,-0.80149l-0.07065,-0.00399c-0.1146,-0.00025 -0.21063,-0.0055 -0.28478,-0.0161l0.12948,-0.26535c-0.15112,-0.18138 -0.31508,-0.36051 -0.49313,-0.5378c0,0 -0.53033,-0.53033 0,-1.06066c0.53033,-0.53033 1.06066,0 1.06066,0c0.1104,0.11082 0.2165,0.2229 0.31851,0.33623c0.56126,-0.40825 1.23124,-0.60058 1.94397,-0.7222zM315.70524,184.94007l0.4199,-0.58786c-1.0168,0.76385 -2.01298,1.55315 -2.93882,2.42532c0.02061,0.03979 0.09184,0.08807 0.20323,0.14219c0.40648,-0.61021 1.41035,-1.36432 2.3157,-1.97965zM316.94606,183.74328c0.17528,0 0.33652,0.06013 0.46422,0.16089c0.04682,-0.0089 0.0925,-0.01722 0.13707,-0.02498c-0.0328,-0.07383 -0.06795,-0.14635 -0.10532,-0.2173c0,0 -0.04757,-0.09513 -0.07105,-0.23166c-0.14204,0.10426 -0.28406,0.20855 -0.42595,0.31305c0.00034,0 0.00069,0 0.00103,0zM317.636,186.3207c-0.00626,0.04549 -0.01305,0.09042 -0.02014,0.13424l0.06922,-0.01153zM318.21891,187.9027c-0.01483,0.0387 -0.03048,0.07582 -0.04693,0.11139c0.02839,0.00001 0.05539,-0.00048 0.08094,-0.00152z" fill-opacity="0.91765" fill="#0f0a19" stroke-width="0.5"/><path d="M302.11939,193.9166l-0.10497,0.27992l-1.31708,-0.4939c-0.29289,-0.10209 -0.50306,-0.3807 -0.50306,-0.70839c0,-0.02247 0.00099,-0.04472 0.00293,-0.0667c-0.57589,-0.17058 -1.14779,-0.35041 -1.69837,-0.57043c-0.442,-0.18605 -0.93178,-0.2721 -1.41342,-0.27973h-1.14168c-0.41422,0 -0.75,-0.33578 -0.75,-0.75c0,-0.41422 0.33578,-0.75 0.75,-0.75h1.33348c0,0 0.08071,0 0.18917,0.02648c0.54333,0.04896 1.08376,0.16583 1.58954,0.36054c0.81381,0.32587 1.6094,0.66839 2.39538,1.01926l0.04788,-0.01915l0.01912,0.04782l0.11759,-0.08793c1.05717,0 3.24282,-0.2414 3.84393,-1.00146c0.0635,-0.09897 0.14963,-0.18205 0.25108,-0.24192c0.18951,-0.12171 0.49345,-0.21727 0.83908,0.05275c0.006,0.00464 0.01193,0.00936 0.01778,0.01418c0.08893,0.07245 0.15293,0.14762 0.19758,0.22292l0.47737,0.60675l-0.01444,0.01136l0.02112,0.01328c0.40679,-0.41098 0.92503,-0.06548 0.92503,-0.06548c0.93303,0.62226 4.59107,2.27787 4.49921,3.67754c-0.10226,1.5582 -3.6244,1.87399 -4.66344,1.48799c-1.47181,-0.54678 -2.77846,-1.69634 -4.21902,-2.47916c-0.57428,-0.04218 -1.12426,-0.13034 -1.69176,-0.30652z" fill-opacity="0.91765" fill="#0f0a19" stroke-width="0.5"/><path d="M245.66891,177.77399c3.67615,-1.84999 6.61736,-3.73782 9.5892,-6.66132c1.74341,-0.78643 3.60555,-3.21354 5.25132,-4.50112c2.18457,-1.70912 4.87588,-3.07776 7.56471,-4.01132c0.01975,-0.19183 0.12004,-0.40452 0.41539,-0.55219c0.41893,-0.20946 0.70705,-0.0265 0.86435,0.14044c0.14095,-0.04178 0.28167,-0.0823 0.42208,-0.12157c1.44464,-1.17968 3.37933,-1.82923 5.35698,-2.59058c3.30133,-0.0417 7.1179,-0.19883 10.38467,-0.67466c2.47048,-0.35984 5.13578,-1.31415 7.59247,-1.3391c0,0 0.75,0 0.75,0.75c0,0.75 -0.75,0.75 -0.75,0.75c-2.35224,-0.03194 -5.02882,0.99365 -7.40919,1.32787c-0.00376,0.00053 -0.00752,0.00105 -0.01128,0.00158c-0.09357,2.00687 -1.70005,3.58479 -1.83319,5.64993c-0.30395,4.7146 -0.24273,9.46472 -0.83232,14.15299c0.00527,2.85745 0.13353,5.7998 1.08503,8.48809c3.11458,0.41745 6.18997,0.90671 9.23813,1.9217l0.43161,0.20738c0,0 0.67082,0.33541 0.33541,1.00623c-0.33541,0.67082 -1.00623,0.33541 -1.00623,0.33541l-0.23513,-0.12599c-2.87666,-0.95985 -5.78232,-1.43964 -8.72323,-1.83607c-0.11099,0.11767 -0.2808,0.20771 -0.54066,0.20771c-0.368,0 -0.55543,-0.18056 -0.6509,-0.36449c-1.21377,-0.1568 -2.43365,-0.30855 -3.66007,-0.48286c-0.02005,-0.00501 -0.0401,-0.00996 -0.06013,-0.01489c0.369,2.05191 0.70894,4.05361 0.13027,6.00569c0.0153,0.00455 0.03054,0.00921 0.04573,0.014c-1.87622,3.71606 -4.62827,7.28185 -7.31341,10.4716c-0.01331,-0.01383 -0.02657,-0.02777 -0.03978,-0.04183c-1.11383,1.11164 -2.3124,2.34074 -3.65269,3.14491c-4.94378,5.00948 -10.11533,9.64106 -16.16483,13.26501c-2.54234,0.73712 -4.95793,2.0157 -7.46035,2.70887c-2.53517,0.70225 -5.54263,0.35343 -8.17337,0.35343c-2.70595,0 -5.5283,0.29645 -7.91916,-1.12772c-2.93361,-2.23284 -6.76723,-2.93819 -10.0627,-4.4415c-1.32591,-0.60485 -2.23604,-1.75448 -3.7501,-1.93426c-0.78394,-0.09309 -1.78109,0.16581 -2.78816,0.38643c1.59098,0.51466 3.03755,1.20491 4.66019,2.28666c1.33422,1.32379 2.8246,2.1799 4.0838,3.58021c1.75424,1.95084 2.8049,4.46158 4.64689,6.31224c1.25981,1.26575 3.04106,1.66672 4.43047,2.76998c0,0 0.58565,0.46853 0.11713,1.05418c-0.02298,0.02873 -0.04624,0.05491 -0.0697,0.07874c0.37301,-0.10451 0.75358,-0.17558 1.1509,-0.18604h0.66674c0,0 0.75,0 0.75,0.75c0,0.75 -0.75,0.75 -0.75,0.75h-0.40458c0.01087,0.12094 -0.01225,0.26055 -0.09139,0.41884c-0.33541,0.67082 -1.00623,0.33541 -1.00623,0.33541l-0.77468,-0.38906c-0.17879,0.06943 -0.35844,0.14392 -0.53732,0.21901c2.26875,0.31279 5.06264,1.03815 2.78441,3.25051c-0.41784,0.40577 -2.53008,0.67418 -3.13898,0.81412c-3.54923,0.8157 -7.37529,0.18505 -10.99964,0.18505c-1.50807,-0.00142 -3.28547,-0.45894 -4.78188,-0.15214c-1.27216,0.26083 -3.14467,1.21658 -4.50597,0.59511c-1.97884,-0.90339 -1.5353,-5.60144 -1.86405,-8.33035c-0.34665,-0.07032 -0.51998,-0.41697 -0.51998,-0.41697l0.024,-0.09261c-0.33144,-0.27622 -0.66289,-0.55244 -0.99433,-0.82865c-2.74859,-2.20343 -5.49763,-4.58026 -8.68591,-6.07282c-1.62457,-0.76053 -3.75243,-0.5643 -5.16815,-1.77759c-1.73851,-1.48993 -2.42702,-3.66381 -3.70597,-5.46714c-0.60395,-4.80991 -0.37492,-9.98269 0.46018,-14.72777c0.311,-1.7671 0.38153,-3.59431 1.24387,-5.22519c0.78854,-1.49133 1.97201,-2.70595 2.89462,-4.09652c2.80714,-3.3371 6.61524,-7.70289 10.85872,-9.26168c2.96141,-1.08784 6.89808,-1.55324 9.48346,-3.16074c9.07279,-1.65045 18.68081,-2.75874 27.89679,-2.91033c1.49786,-0.13632 3.00014,-0.29838 4.50476,-0.46514z" fill-opacity="0.91765" fill="#0f0a19" stroke-width="0.5"/><path d="" fill-opacity="0.91765" fill="#0f0a19" stroke-width="0.5"/><path d="" fill-opacity="0.91765" fill="#0f0a19" stroke-width="0.5"/><path d="M311.09682,172.27811c0,-0.41422 0.33578,-0.75 0.75,-0.75c0.41422,0 0.75,0.33578 0.75,0.75c0,0.41422 -0.33578,0.75 -0.75,0.75c-0.41422,0 -0.75,-0.33578 -0.75,-0.75z" fill="#1a0a0a" stroke-width="0.5"/><path d="M296.71974,183.08773c-0.41602,0.62404 -1.04007,0.20801 -1.04007,0.20801l-0.59479,-0.5429c-0.10715,-0.25002 -0.2143,-0.50003 -0.32145,-0.75005c0,0 -0.03382,-0.07889 -0.05187,-0.19473c-0.36775,-0.04816 -0.65168,-0.36272 -0.65168,-0.74361c0,-0.12525 0.0307,-0.24333 0.08499,-0.34713c-0.24442,-0.09354 -0.38763,-0.30836 -0.38763,-0.30836l-0.40552,-0.61021c-0.17032,-0.20383 -0.34064,-0.40765 -0.51096,-0.61148c0,0 -0.08529,-0.10236 -0.14084,-0.25674c-0.26625,-0.03885 -0.45622,-0.22882 -0.45622,-0.22882l-0.42643,-0.63856c-0.03571,-0.25002 -0.07144,-0.50003 -0.10715,-0.75005c0,0 -0.10606,-0.74247 0.6364,-0.84853c0.74246,-0.10607 0.84852,0.6364 0.84852,0.6364c0.03571,0.25002 0.07144,0.50003 0.10715,0.75005l0.00217,-0.20996c0,0 0.12067,0.12067 0.18933,0.30445c0.2982,0.04004 0.49941,0.28149 0.49941,0.28149c0.18685,0.22477 0.37369,0.44955 0.56054,0.67432l0.45168,0.67559c0,0 0.26928,0.40392 0.04959,0.77847c0.25833,0.08926 0.45267,0.3157 0.49593,0.59223c0.40999,0.04122 0.59131,0.4643 0.59131,0.4643c0.10715,0.25002 0.2143,0.50003 0.32145,0.75006l0.04812,-0.11429c0,0 0.62404,0.41602 0.20801,1.04006z" fill="#1a0a0a" stroke-width="0.5"/><path d="M297.38156,185.56478c0,-0.27832 0.1516,-0.52124 0.37674,-0.65067c-0.13835,-0.13191 -0.28129,-0.25888 -0.42833,-0.38042c0,0 -0.57617,-0.48014 -0.09602,-1.05631c0.48014,-0.57617 1.05631,-0.09603 1.05631,-0.09603c0.46031,0.38625 0.88843,0.81438 1.27468,1.27469l0.03434,-0.14032c0,0 0.31361,0.0784 0.47758,0.33815c0.08663,0.02852 0.14123,0.05972 0.14123,0.05972c0.19859,0.11348 0.39717,0.22696 0.59576,0.34044c0.19888,0.03178 0.59958,0.15836 0.63658,0.66249c0.31124,0.09131 0.5385,0.379 0.5385,0.71976c0,0.41422 -0.33578,0.75 -0.75,0.75c-0.39283,0 -0.71513,-0.30202 -0.74735,-0.68653l-0.26766,-0.05518c-0.25002,-0.14287 -0.50003,-0.28574 -0.75005,-0.42861c0,0 -0.15851,-0.09057 -0.27443,-0.26055l-0.35614,-0.15349c-0.09924,0.29799 -0.3804,0.51286 -0.71174,0.51286c-0.41422,0 -0.75,-0.33578 -0.75,-0.75z" fill="#1a0a0a" stroke-width="0.5"/><path d="M302.41763,189.4222c0,-0.40853 0.32664,-0.74078 0.733,-0.74982c-0.00209,-0.14739 0.04823,-0.31405 0.19761,-0.48834c0.48809,-0.56944 1.05754,-0.08135 1.05754,-0.08135c1.09746,0.94072 2.2506,2.0859 3.60411,2.58068l0.717,0.47208c0,0 0.29175,0.1945 0.34329,0.517c0.40994,0.00496 0.74074,0.33882 0.74074,0.74994c0,0.41422 -0.33578,0.75 -0.75,0.75c-0.37466,0 -0.68515,-0.27472 -0.74104,-0.6337c-0.23777,-0.01031 -0.42504,-0.13517 -0.42504,-0.13517l-0.5688,-0.38511c-1.27976,-0.49085 -2.38533,-1.46164 -3.43973,-2.38101c-0.0925,0.30933 -0.37926,0.53478 -0.71867,0.53478c-0.41422,0 -0.75,-0.33578 -0.75,-0.75z" fill="#1a0a0a" stroke-width="0.5"/><path d="M310.66822,194.56542c0,-0.41422 0.33578,-0.75 0.75,-0.75c0.41422,0 0.75,0.33578 0.75,0.75c0,0.41422 -0.33578,0.75 -0.75,0.75c-0.41422,0 -0.75,-0.33578 -0.75,-0.75z" fill="#1a0a0a" stroke-width="0.5"/><path d="M311.43218,197.37925c-0.67082,0.33541 -1.00623,-0.33541 -1.00623,-0.33541l-0.06037,-0.13369c-0.14286,-0.2143 -0.28574,-0.4286 -0.4286,-0.6429c0,0 -0.41603,-0.62404 0.20801,-1.04006c0.62404,-0.41602 1.04006,0.20801 1.04006,0.20801c0.14286,0.2143 0.28574,0.4286 0.4286,0.6429l0.15393,0.29492c0,0 0.33541,0.67082 -0.33541,1.00623z" fill="#1a0a0a" stroke-width="0.5"/><path d="M304.66779,194.56542c0,-0.41422 0.33578,-0.75 0.75,-0.75c0.41422,0 0.75,0.33578 0.75,0.75c0,0.41422 -0.33578,0.75 -0.75,0.75c-0.41422,0 -0.75,-0.33578 -0.75,-0.75z" fill="#1a0a0a" stroke-width="0.5"/><path d="M300.38177,188.88643c0,-0.41422 0.33578,-0.75 0.75,-0.75c0.41422,0 0.75,0.33578 0.75,0.75c0,0.41422 -0.33578,0.75 -0.75,0.75c-0.41422,0 -0.75,-0.33578 -0.75,-0.75z" fill="#1a0a0a" stroke-width="0.5"/><path d="M296.52435,177.74279c0,-0.41422 0.33578,-0.75 0.75,-0.75c0.41422,0 0.75,0.33578 0.75,0.75c0,0.41422 -0.33578,0.75 -0.75,0.75c-0.41422,0 -0.75,-0.33578 -0.75,-0.75z" fill="#ffdb61" stroke-width="0.5"/><path d="M298.98882,178.49284c0,-0.41422 0.33578,-0.75 0.75,-0.75c0.41422,0 0.75,0.33578 0.75,0.75c0,0.41422 -0.33578,0.75 -0.75,0.75c-0.41422,0 -0.75,-0.33578 -0.75,-0.75z" fill="#ffdb61" stroke-width="0.5"/><path d="M300.81038,179.6715c0,-0.41422 0.33578,-0.75 0.75,-0.75c0.41422,0 0.75,0.33578 0.75,0.75c0,0.41422 -0.33578,0.75 -0.75,0.75c-0.41422,0 -0.75,-0.33578 -0.75,-0.75z" fill="#ffdb61" stroke-width="0.5"/><path d="M302.73908,180.85015c0,-0.41422 0.33578,-0.75 0.75,-0.75c0.41422,0 0.75,0.33578 0.75,0.75c0,0.41422 -0.33578,0.75 -0.75,0.75c-0.41422,0 -0.75,-0.33578 -0.75,-0.75z" fill="#ffdb61" stroke-width="0.5"/><path d="M304.66779,181.92166c0,-0.41422 0.33578,-0.75 0.75,-0.75c0.41422,0 0.75,0.33578 0.75,0.75c0,0.41422 -0.33578,0.75 -0.75,0.75c-0.41422,0 -0.75,-0.33578 -0.75,-0.75z" fill="#ffdb61" stroke-width="0.5"/><path d="M307.0251,183.85037c0,-0.41422 0.33578,-0.75 0.75,-0.75c0.41422,0 0.75,0.33578 0.75,0.75c0,0.41422 -0.33578,0.75 -0.75,0.75c-0.41422,0 -0.75,-0.33578 -0.75,-0.75z" fill="#ffdb61" stroke-width="0.5"/><path d="M308.52521,184.92187c0,-0.41422 0.33578,-0.75 0.75,-0.75c0.41422,0 0.75,0.33578 0.75,0.75c0,0.41422 -0.33578,0.75 -0.75,0.75c-0.41422,0 -0.75,-0.33578 -0.75,-0.75z" fill="#ffdb61" stroke-width="0.5"/><path d="M310.13247,186.63628c0,-0.41422 0.33578,-0.75 0.75,-0.75c0.41422,0 0.75,0.33578 0.75,0.75c0,0.41422 -0.33578,0.75 -0.75,0.75c-0.41422,0 -0.75,-0.33578 -0.75,-0.75z" fill="#ffdb61" stroke-width="0.5"/><path d="M312.38263,187.92209c0,-0.41422 0.33578,-0.75 0.75,-0.75c0.41422,0 0.75,0.33578 0.75,0.75c0,0.41422 -0.33578,0.75 -0.75,0.75c-0.41422,0 -0.75,-0.33578 -0.75,-0.75z" fill="#ffdb61" stroke-width="0.5"/><path d="M314.20419,188.99359c0,-0.41422 0.33578,-0.75 0.75,-0.75c0.41422,0 0.75,0.33578 0.75,0.75c0,0.41422 -0.33578,0.75 -0.75,0.75c-0.41422,0 -0.75,-0.33578 -0.75,-0.75z" fill="#ffdb61" stroke-width="0.5"/><path d="M293.52414,179.56434c0,-0.41422 0.33578,-0.75 0.75,-0.75c0.41422,0 0.75,0.33578 0.75,0.75c0,0.41422 -0.33578,0.75 -0.75,0.75c-0.41422,0 -0.75,-0.33578 -0.75,-0.75z" fill="#ffdb61" stroke-width="0.5"/><path d="M295.23855,180.74299c0,-0.41422 0.33578,-0.75 0.75,-0.75c0.41422,0 0.75,0.33578 0.75,0.75c0,0.41422 -0.33578,0.75 -0.75,0.75c-0.41422,0 -0.75,-0.33578 -0.75,-0.75z" fill="#ffdb61" stroke-width="0.5"/><path d="M296.95295,182.56456c0,-0.41422 0.33578,-0.75 0.75,-0.75c0.41422,0 0.75,0.33578 0.75,0.75c0,0.41422 -0.33578,0.75 -0.75,0.75c-0.41422,0 -0.75,-0.33578 -0.75,-0.75z" fill="#ffdb61" stroke-width="0.5"/><path d="M298.23876,183.85037c0,-0.41422 0.33578,-0.75 0.75,-0.75c0.41422,0 0.75,0.33578 0.75,0.75c0,0.41422 -0.33578,0.75 -0.75,0.75c-0.41422,0 -0.75,-0.33578 -0.75,-0.75z" fill="#ffdb61" stroke-width="0.5"/><path d="M300.06032,185.35048c0,-0.41422 0.33578,-0.75 0.75,-0.75c0.41422,0 0.75,0.33578 0.75,0.75c0,0.41422 -0.33578,0.75 -0.75,0.75c-0.41422,0 -0.75,-0.33578 -0.75,-0.75z" fill="#ffdb61" stroke-width="0.5"/><path d="M302.09618,186.52913c0,-0.41422 0.33578,-0.75 0.75,-0.75c0.41422,0 0.75,0.33578 0.75,0.75c0,0.41422 -0.33578,0.75 -0.75,0.75c-0.41422,0 -0.75,-0.33578 -0.75,-0.75z" fill="#ffdb61" stroke-width="0.5"/><path d="M303.16769,188.24353c0,-0.41422 0.33578,-0.75 0.75,-0.75c0.41422,0 0.75,0.33578 0.75,0.75c0,0.41422 -0.33578,0.75 -0.75,0.75c-0.41422,0 -0.75,-0.33578 -0.75,-0.75z" fill="#ffdb61" stroke-width="0.5"/><path d="M307.1322,189.5294c0.41422,0 0.75,0.33578 0.75,0.75c0,0.41422 -0.33578,0.75 -0.75,0.75c-0.15364,0 -0.29649,-0.04619 -0.41541,-0.12545c-0.34418,0.26279 -0.7772,0.04628 -0.7772,0.04628l-0.62352,-0.35479c-0.17858,-0.17858 -0.35717,-0.35717 -0.53575,-0.53575c0,0 -0.53033,-0.53033 0,-1.06066c0.53033,-0.53033 1.06066,0 1.06066,0c0.17858,0.17858 0.35717,0.35716 0.53575,0.53575l0.23368,0.07381c0,0 0.03784,0.01892 0.09106,0.05677c0.12189,-0.08566 0.27044,-0.13595 0.43074,-0.13595z" fill="#ffdb61" stroke-width="0.5"/><path d="M307.77516,191.24375c0,-0.41422 0.33578,-0.75 0.75,-0.75c0.41422,0 0.75,0.33578 0.75,0.75c0,0.41422 -0.33578,0.75 -0.75,0.75c-0.41422,0 -0.75,-0.33578 -0.75,-0.75z" fill="#ffdb61" stroke-width="0.5"/><path d="M309.81102,192.74386c0,-0.41422 0.33578,-0.75 0.75,-0.75c0.41422,0 0.75,0.33578 0.75,0.75c0,0.41422 -0.33578,0.75 -0.75,0.75c-0.41422,0 -0.75,-0.33578 -0.75,-0.75z" fill="#ffdb61" stroke-width="0.5"/><path d="M311.20398,194.13682c0,-0.41422 0.33578,-0.75 0.75,-0.75c0.41422,0 0.75,0.33578 0.75,0.75c0,0.41422 -0.33578,0.75 -0.75,0.75c-0.41422,0 -0.75,-0.33578 -0.75,-0.75z" fill="#ffdb61" stroke-width="0.5"/><path d="M323.59442,179.10476c0.11181,0.2236 -0.1118,0.33541 -0.1118,0.33541l-0.20907,0.09788c-1.05707,0.26427 -2.66026,0.3827 -3.43668,1.19746c0,0 -0.17678,0.17677 -0.35355,0c-0.17678,-0.17677 0,-0.35356 0,-0.35356c0.91505,-0.88438 2.46987,-1.02921 3.66896,-1.32898l0.10673,-0.06002c0,0 0.22361,-0.1118 0.33541,0.11181z" fill="#000000" stroke-width="0.5"/><path d="M319.14028,177.8085c-0.22361,0.11181 -0.33541,-0.11181 -0.33541,-0.11181l-0.16877,-0.34087c-0.45649,-1.79368 -0.64559,-3.30058 -0.64714,-5.13963c0,0 0,-0.25 0.25,-0.25c0.25,0 0.25,0.25 0.25,0.25c-0.0014,1.78215 0.1902,3.22562 0.61608,4.96616l0.14704,0.29074c0,0 0.1118,0.2236 -0.11181,0.33541z" fill="#000000" stroke-width="0.5"/><path d="M309.93876,171.23415c-0.00186,-0.01382 -0.00285,-0.02858 -0.00285,-0.04433c0,-0.25 0.25,-0.25 0.25,-0.25c0.59362,0 3.60358,0.22996 3.64132,1.15521c0.03597,0.88176 -1.74117,1.00277 -2.29915,1.00277c-0.91451,0 -1.33161,-0.47329 -1.66661,-1.30804l-0.00451,-0.36308c0,0 0,-0.11872 0.0818,-0.19253zM310.35667,171.44372l-0.00423,0.25149c0.25191,0.63309 0.53404,0.9026 1.17564,0.9026c3.1588,0 0.48988,-1.08085 -1.17141,-1.15409z" fill="#000000" stroke-width="0.5"/><path d="M311.13901,174.2506c-0.06063,0.24254 -0.30317,0.1819 -0.30317,0.1819l-0.35084,-0.09052c-1.18802,-0.70525 -1.13207,-1.71303 -1.97594,-2.50169c0,0 -0.17678,-0.17678 0,-0.35356c0.17678,-0.17677 0.35355,0 0.35355,0c0.79514,0.83189 0.6996,1.71597 1.81374,2.3933l0.28077,0.06739c0,0 0.24254,0.06063 0.1819,0.30317z" fill="#000000" stroke-width="0.5"/><path d="M313.24614,175.07732c-0.17678,-0.17677 0,-0.35355 0,-0.35355l0.1579,-0.1579c0.41266,-0.40988 0.55851,-0.48122 0.72591,-1.07618c0,0 0.06868,-0.24038 0.30906,-0.1717c0.24038,0.06868 0.1717,0.30906 0.1717,0.30906c-0.18885,0.6522 -0.40585,0.84158 -0.85312,1.29237l-0.1579,0.1579c0,0 -0.17678,0.17677 -0.35355,0z" fill="#000000" stroke-width="0.5"/><path d="M273.90032,187.08561c0,0.25 -0.25001,0.24999 -0.25001,0.24999h-0.02452c-1.09226,-0.00003 -2.69769,0.32043 -3.52624,-0.43218c-1.68207,-1.38893 -3.89151,-1.34511 -5.9039,-2.03066c-0.89234,-0.30399 -1.21179,-1.2023 -1.82434,-1.81122c0,0 -0.17677,-0.17678 0,-0.35355c0.17678,-0.17677 0.35356,0 0.35356,0c2.28168,2.29389 5.27475,1.83489 7.70677,3.82165c0.61701,0.64042 2.31673,0.30594 3.19416,0.30596h0.02452c0,0 0.25,0.00001 0.25,0.25001z" fill="#000000" stroke-width="0.5"/><path d="M265.75474,210.3318c-0.14158,0.20604 -0.34763,0.06445 -0.34763,0.06445l-0.0294,-0.02021c-0.83882,-0.60872 -2.74271,-0.25756 -3.78216,-0.26577c-3.49739,-0.30249 -6.92312,-0.87091 -10.43404,-0.86146c-3.48542,0.00931 -6.89886,0.8753 -10.42585,0.8961c-3.49195,0.01966 -6.63232,1.78371 -9.82401,2.98868c-2.23941,0.84418 -6.42756,1.79275 -7.76346,3.79661c0,0 -0.13867,0.20801 -0.34669,0.06933c-0.20801,-0.13868 -0.06934,-0.34669 -0.06934,-0.34669c1.41835,-2.12752 5.64612,-3.09607 8.00289,-3.98703c3.24789,-1.22607 6.44387,-2.99904 9.99766,-3.02089c3.52773,-0.02078 6.93986,-0.88664 10.42744,-0.89611c3.51958,-0.00948 6.95351,0.55605 10.45892,0.86201c1.21107,0.00861 3.02581,-0.3168 4.04181,0.35313l0.0294,0.0202c0,0 0.20604,0.14159 0.06445,0.34763z" fill="#000000" stroke-width="0.5"/><path d="M243.47557,223.73572l-0.05259,-0.03006l-0.04465,-0.01785l0.00068,0.00248l-0.01379,0.02299zM245.01515,224.58511l0.06733,0.07026l-0.00897,0.03188l0.01643,0.02875l-0.04828,0.08449l-0.02739,0.09741l-0.04066,0.02168l-0.00867,0.01516l-0.03721,0.0093l-0.02716,0.01449l-0.096,0.024h-0.00269l0.0014,0.0028l-0.01179,0.03302l-0.00179,0.07099l-0.00398,0.00363l-0.00016,0.00279l-0.04279,0.03668l-0.005,0.0075l-0.00021,0.00383l-0.0491,0.04209l-0.00899,0.00817l-0.03475,0.03476l-0.01729,0.01037l-0.01707,0.01551l-0.00267,0.01334l-0.04,0.02545l-0.02681,0.02437l-0.00417,0.00695l-0.04744,0.04744l-0.0176,0.02347l-0.02936,0.04895l-0.02177,0.02176l-0.01583,0.02639l-0.03337,0.03337l-0.04797,0.06716l-0.01591,0.01355l-0.01075,0.01791l-0.036,0.036l-0.01543,0.00926l-0.01135,0.01396l-0.048,0.036l-0.03704,0.01559l-0.03391,0.02158l-0.00424,0.00142l-0.00814,0.00543l-0.03145,0.01123l-0.02817,0.01792l-0.05161,0.0172l-0.00513,0.00308l-0.03052,0.02615l-0.12,0.06l-0.0256,0.00569l-0.15888,0.13792c0,0 -0.11369,0.00316 -0.18983,-0.07147l-0.02881,0.01663l-0.084,0.024l-0.03485,0.00116l-0.03383,0.00846h-0.108l-0.00137,-0.00035l-0.00399,0.00223l-0.0594,-0.01808l-0.06024,-0.01505l-0.00226,-0.00396l-0.00136,-0.00042l-0.06,-0.036l-0.00431,-0.00431l-0.00574,-0.00205l-0.036,-0.024l-0.01675,-0.01843l-0.02135,-0.01281l-0.048,-0.048l-0.02537,-0.04229l-0.0166,-0.00949l-0.00779,-0.03116l-0.01653,-0.02754l0.00503,-0.01845l-0.01196,-0.04785v-0.024l0.00377,-0.01505l-0.00973,-0.00865l-0.10153,-0.07896l-0.00975,-0.01243l-0.01355,-0.00813l-0.07421,-0.07421l-0.04918,-0.03935l-0.00853,-0.01119l-0.01207,-0.00725l-0.01469,-0.01468l-0.00829,-0.00046l-0.03225,-0.03762l-0.03763,-0.03226l-0.00046,-0.00829l-0.00268,-0.00269l-0.00868,-0.01446l-0.00215,-0.00251l-0.00323,-0.00646l-0.00178,-0.00296l-0.02176,-0.02176l-0.02016,-0.03361l-0.02624,-0.02623l-0.02537,-0.0423l-0.0166,-0.00948l-0.00779,-0.03116l-0.01653,-0.02755l0.00503,-0.01845l-0.01197,-0.04785v-0.216l0.00755,-0.03018l-0.04597,-0.05364l-0.00557,-0.00418l-0.03623,-0.04458l-0.03738,-0.04361l-0.00311,-0.00623l-0.00453,-0.00558l0.00035,-0.00278l-0.03341,-0.06682l-0.00244,-0.0014l-0.00174,-0.00696l-0.00312,-0.00623l-0.01246,-0.05607l-0.01393,-0.05573v-0.00696l-0.00156,-0.00701l0.00156,-0.00234v-0.09169l0.00604,-0.02415l-0.00118,-0.02488l0.012,-0.06l0.0143,-0.03017l0.00724,-0.0326l0.03013,-0.06026l0.0314,-0.08372l0.00758,-0.01099l0.0029,-0.01304l0.02071,-0.04143l0.02522,-0.05884l0.00348,-0.01392l0.00968,-0.07743l-0.02548,-0.04459l0.02972,-0.052l-0.00332,-0.0598l0.017,-0.01134l0.0046,-0.05526v-0.2776l0.01197,-0.04784l-0.00503,-0.01845l0.01653,-0.02755l0.00779,-0.03116l0.0166,-0.00948l0.02537,-0.04229l0.01932,-0.01932l0.04185,-0.08371l0.0091,-0.01062l0.00014,-0.0062l0.00999,-0.0056l0.06464,-0.07541l0.07745,-0.0043l0.06766,-0.03796l0.04456,0.01356c0.19955,-0.08043 0.30272,0.10954 0.30954,0.12262l0.00433,0.00162l0.01099,0.00758l0.01304,0.0029l0.096,0.048l0.012,0.01028l0.01487,0.00531l0.04414,0.02943l0.03509,0.0117l0.07878,0.0225l0.01127,0.00651l0.0129,0.00176l0.05318,0.02127l0.13703,0.04568l0.00634,0.00403l0.00745,0.00101l0.12,0.048l0.01426,0.0103l0.01693,0.00476l0.15704,0.08973l0.09646,0.04287l0.02537,0.01982l0.02927,0.01341l0.04945,0.03956l0.12059,0.07675l0.00601,0.00633l0.00807,0.00332l0.228,0.168l0.00867,0.01049l0.01196,0.00649l0.13142,0.12046l0.13526,0.09364l0.05302,0.03181l0.00431,0.00431l0.00574,0.00205l0.036,0.02401l0.0047,0.00517l0.01343,0.00564l0.00607,0.01581l0.00038,0.00043h0.05735c0,0 0.25,0 0.25,0.25c0,0.12309 -0.06061,0.18558 -0.12214,0.2173z" fill="#000000" stroke-width="0.5"/><path d="M255.73678,195.96429c0.01165,-0.02656 0.02504,-0.04869 0.03959,-0.06705c-0.45126,-0.26809 -0.89378,-0.54805 -1.35711,-0.80156c-3.17422,-1.73929 -4.7629,-4.57639 -6.78322,-7.63039c-0.80059,-1.56412 -1.85951,-4.46955 -2.99649,-5.66165c-0.5968,-0.62573 -1.20588,-1.31949 -1.22632,-2.24218c0,0 0,-0.25 0.25,-0.25c0.25,0 0.25,0.25 0.25,0.25c-0.03252,1.0676 1.07853,1.54203 1.38739,2.4374c0.62965,1.82532 1.87445,3.46326 2.76713,5.2142c1.98803,2.99481 3.49271,5.74773 6.59168,7.44408c0.73134,0.4009 1.4104,0.86716 2.15506,1.24747l0.44053,0.225c0.08348,0.04049 0.14105,0.12605 0.14105,0.22507c0,0.1368 -0.10987,0.24793 -0.24617,0.24997l-0.49938,0.00874l-0.00191,-0.10937c-0.19473,-0.00481 -0.38567,-0.03794 -0.56078,-0.11262l-0.2226,-0.09771c0,0 -0.22892,-0.10047 -0.12844,-0.32939z" fill="#000000" stroke-width="0.5"/><path d="M245.81372,197.26525c-0.00025,-0.25 0.24975,-0.25025 0.24975,-0.25025l0.11238,-0.00012c1.08981,-0.0011 3.2346,-0.36059 4.69134,-0.19591c-2.55044,-1.15134 -4.95743,-1.76723 -6.88252,-4.13171c-1.00546,-0.63807 -2.81022,-1.896 -3.5337,-2.82126c-0.8801,-1.12556 -0.88234,-2.64674 -2.06553,-3.8265c0,0 -0.17677,-0.17678 0,-0.35356c0.17677,-0.17677 0.35356,0 0.35356,0c1.16349,1.16662 1.23603,2.79611 2.10379,3.86944c0.73621,0.91063 2.47083,2.11229 3.47339,2.75756c2.12955,2.55123 4.70151,3.01314 7.52035,4.41094l0.44307,0.21972c0.08497,0.03993 0.14381,0.12628 0.14381,0.22639c0,0.1327 -0.10338,0.24124 -0.23399,0.24949l-0.4966,0.03605l-0.00341,-0.04695c-1.75004,0.35413 -3.77136,0.10454 -5.51305,0.10629l-0.11238,0.00012c0,0 -0.25,0.00025 -0.25025,-0.24975z" fill="#000000" stroke-width="0.5"/><path d="M242.51312,198.17081c-0.00563,-0.24993 0.24431,-0.25557 0.24431,-0.25557l0.28901,-0.00651c0.32674,-0.00736 0.70649,-0.08688 1.06293,-0.11588c-0.19817,-0.08587 -0.39856,-0.16674 -0.60093,-0.24195c-2.68371,-1.0014 -5.38296,-3.19086 -6.9546,-5.54831c0,0 -0.13868,-0.20801 0.06933,-0.34669c0.20801,-0.13868 0.34669,0.06934 0.34669,0.06934c1.51977,2.27965 4.11596,4.39363 6.71294,5.35705c0.3091,0.11516 0.61409,0.2423 0.91264,0.38258l0.46234,0.11597c0.11123,0.02534 0.19425,0.12485 0.19425,0.24376c0,0.11289 -0.07482,0.2083 -0.17757,0.23935l-0.46966,0.15398l-0.01765,-0.05382c-0.46717,0.18986 -0.89055,0.23011 -1.52947,0.2445l-0.28902,0.00651c0,0 -0.24994,0.00563 -0.25557,-0.2443z" fill="#000000" stroke-width="0.5"/><path d="M213.04021,215.21797c-0.24943,-0.01691 -0.23252,-0.26634 -0.23252,-0.26634l0.01065,-0.15706c0.0374,-0.54992 0.07713,-0.98064 0.29517,-1.48949c0.01398,-1.09237 0.84744,-1.7832 1.20969,-2.71639c0.74171,-1.91072 -0.30127,-5.32364 -0.33234,-7.34956c-0.73964,-2.44571 -2.07336,-5.73328 -4.37307,-7.26642c0,0 -0.20802,-0.13867 -0.06934,-0.34669c0.13868,-0.20801 0.34669,-0.06934 0.34669,-0.06934c2.40193,1.60128 3.83488,5.02531 4.58977,7.60549c0.05281,2.16758 1.05657,5.5321 0.30672,7.60138c-0.33264,0.91795 -1.18145,1.58219 -1.18857,2.64324c-0.20942,0.50184 -0.24937,0.88186 -0.28585,1.42159l-0.01065,0.15706c0,0 -0.01691,0.24943 -0.26634,0.23252z" fill="#000000" stroke-width="0.5"/><path d="M231.61078,236.57303c-0.00017,0.25 -0.25016,0.24983 -0.25016,0.24983l-0.10065,-0.00007c-0.48243,-0.01096 -0.98158,-0.05109 -1.49153,-0.09859c0.02414,0.03468 0.04069,0.08124 0.04194,0.14373c0.00499,0.24995 -0.24496,0.25493 -0.24496,0.25493l-0.14296,0.00285c-1.15009,0.01726 -2.27165,0.29726 -3.46274,0.29726c0,0 -0.25,0 -0.25,-0.25c0,-0.25 0.25,-0.25 0.25,-0.25c1.04147,0 2.01065,-0.20435 3.0088,-0.27547c-0.69384,-0.06584 -1.40144,-0.12471 -2.10863,-0.12471c0,0 -0.25,0 -0.25,-0.25c0,-0.25 0.25,-0.25 0.25,-0.25c1.45654,0 3.09869,0.33861 4.40042,0.29999l0.10065,0.00007c0,0 0.25,0.00017 0.24983,0.25017z" fill="#000000" stroke-width="0.5"/><path d="M231.91009,235.09189c-0.01933,0.24925 -0.26857,0.22993 -0.26857,0.22993l-0.51611,-0.0419c-1.06584,-0.21765 -2.29392,-0.56964 -3.36535,-0.55748c0,0 -0.25,0 -0.25,-0.25c0,-0.25 0.25,-0.25 0.25,-0.25c1.11991,0.01039 2.35503,0.34408 3.46473,0.56745l0.45538,0.03341c0,0 0.24926,0.01933 0.22993,0.26858z" fill="#000000" stroke-width="0.5"/><path d="M229.98885,238.56189c-0.64648,-0.08585 -1.28001,-0.24093 -1.92873,-0.23872c0,0 -0.25,0 -0.25,-0.25c0,-0.25 0.25,-0.25 0.25,-0.25c0.83793,0.00254 1.63988,0.2492 2.4841,0.28944l-0.19764,0.2681l0.1738,0.23134c-0.10906,-0.00521 -0.21754,-0.01405 -0.32558,-0.02546l-0.02693,0.03654c0,0 -0.10331,0.00303 -0.17902,-0.06123z" fill="#000000" stroke-width="0.5"/><path d="M212.99188,237.22874c0.02324,-0.00488 0.0494,-0.00693 0.07885,-0.00533c0.24963,0.01361 0.23603,0.26323 0.23603,0.26323l-0.03007,0.55163c-0.00626,0.1325 -0.11567,0.23801 -0.24972,0.23801c-0.08972,0 -0.1684,-0.04726 -0.2125,-0.11823l-0.26825,-0.41704l0.02032,-0.01307l-0.04979,-0.05128c-0.02715,-1.28679 -0.57819,-4.1724 -2.16017,-4.15445c0,0 -0.25,0 -0.25,-0.25c0,-0.25 0.25,-0.25 0.25,-0.25c1.72238,0.01597 2.56276,2.59667 2.6353,4.20654z" fill="#000000" stroke-width="0.5"/><path d="M215.246,227.40415c-0.13315,-0.21159 0.07845,-0.34474 0.07845,-0.34474l0.36098,-0.22714c0.70733,-0.25466 -2.21824,-0.78573 -2.69214,-0.96034c-2.0961,-1.01417 -6.20095,-3.42542 -6.78003,-5.74174c0,0 -0.06063,-0.24254 0.1819,-0.30317c0.24254,-0.06063 0.30317,0.1819 0.30317,0.1819c0.53736,2.14945 4.52285,4.44927 6.49044,5.4028c0.81377,0.29871 4.39858,0.55594 2.76295,1.84374l-0.36098,0.22714c0,0 -0.21159,0.13314 -0.34473,-0.07846z" fill="#000000" stroke-width="0.5"/><path d="M211.45059,228.31336c0.15789,0.19384 -0.03594,0.35172 -0.03594,0.35172l-0.20557,0.16745c-0.13421,0.10932 -0.83355,0.70236 -0.9599,0.6863c-1.16228,-0.14774 -0.92091,-2.82324 -1.30686,-3.3042c-0.78537,-0.97873 -2.22457,-1.25062 -2.9946,-2.40566c0,0 -0.13868,-0.20801 0.06934,-0.34668c0.20801,-0.13868 0.34669,0.06933 0.34669,0.06933c0.72976,1.09464 2.28248,1.38735 2.98167,2.38718c0.20893,0.29877 0.35475,3.0768 0.95712,3.10288c0.27496,0.01191 0.37738,-0.403 0.59077,-0.57681l0.20556,-0.16745c0,0 0.19383,-0.15789 0.35172,0.03594z" fill="#000000" stroke-width="0.5"/><path d="M199.25228,214.61842c-0.24999,-0.00207 -0.24792,-0.25207 -0.24792,-0.25207l0.00238,-0.28659c0.00724,-0.86801 0.03377,-1.67045 0.30066,-2.50259c-0.01538,-3.01561 0.59714,-5.93794 0.59714,-8.91109c0,0 0,-0.25 0.25,-0.25c0.25,0 0.25,0.25 0.25,0.25c0,2.99168 -0.58329,5.95614 -0.60299,8.98736c-0.25266,0.81553 -0.28781,1.58091 -0.29483,2.43047l-0.00238,0.28659c0,0 -0.00207,0.24999 -0.25206,0.24792z" fill="#000000" stroke-width="0.5"/><path d="M292.5877,173.50977c-0.24957,0.01468 -0.26424,-0.23489 -0.26424,-0.23489l-0.01269,-0.32149c-0.25399,-0.87619 -0.29044,-1.6188 -0.29373,-2.5279c-0.01419,-2.21031 -1.6276,-6.52219 -3.48347,-7.75943c0,0 -0.20801,-0.13868 -0.06934,-0.34669c0.13867,-0.20801 0.34669,-0.06934 0.34669,-0.06934c2.01323,1.34215 3.65915,5.78535 3.7061,8.17115c0.00315,0.86717 0.03229,1.55921 0.27398,2.393l0.03159,0.43134c0,0 0.01468,0.24957 -0.23489,0.26425z" fill="#000000" stroke-width="0.5"/><path d="M286.521,179.24189c0.0195,0.24924 -0.22973,0.26874 -0.22973,0.26874l-0.22685,-0.01181c-1.18137,0.75484 -1.8931,0.98565 -3.29969,1.15239c-3.23612,0.38087 -5.34113,1.42066 -8.41631,2.44807c0,0 -0.23717,0.07906 -0.31622,-0.15811c-0.07905,-0.23717 0.15812,-0.31623 0.15812,-0.31623c3.09978,-1.03076 5.24583,-2.0797 8.51556,-2.47026c1.36212,-0.16147 1.94991,-0.34915 3.08934,-1.0772l0.45704,-0.06534c0,0 0.24924,-0.01951 0.26875,0.22973z" fill="#000000" stroke-width="0.5"/><g stroke-width="0.5"><path d="M297.92363,227.10726c5.22871,1.48679 11.59942,0.89618 16.99867,0.53147c1.35828,-0.09175 5.31229,-0.38195 5.64147,1.24836c0.46097,0.57187 -1.37718,0.55185 -1.946,0.59928c-2.30226,0.19197 -4.39472,-0.10818 -6.60749,-0.48751c-4.26972,-0.73194 -9.68776,1.0669 -13.63123,-0.91669c-1.2044,-0.60177 -2.39808,-1.23674 -3.58621,-1.87945c1.04773,0.32173 2.16662,0.62886 3.1308,0.90454z" data-paper-data="{&quot;noHover&quot;:false,&quot;origItem&quot;:[&quot;Path&quot;,{&quot;applyMatrix&quot;:true,&quot;segments&quot;:[[[298.44314,222.30834],[1.04773,0.32173],[1.18813,0.64271]],[[302.02975,224.18026],[-1.2044,-0.60177],[3.94347,1.98359]],[[315.56263,225.0854],[-4.26972,-0.73194],[2.21277,0.37933]],[[322.16903,225.57826],[-2.30226,0.19197],[0.56882,-0.04743]],[[324.11464,224.98237],[0.46097,0.57187],[-0.32918,-1.63032]],[[318.47305,223.73957],[1.35828,-0.09175],[-5.39925,0.36471]],[[301.47451,223.20256],[5.22871,1.48679],[-0.96418,-0.27568]]],&quot;closed&quot;:true}]}" fill-opacity="0.91765" fill="#0f0a19"/><path d="M258.24065,198.43317c0.1475,-0.16534 0.37766,-0.29434 0.73683,-0.29434c0.03976,0 0.07794,0.00158 0.11461,0.00462c0.3756,-0.06675 0.7149,0.12714 0.7149,0.12714c2.71793,1.57478 5.60939,4.02381 7.74312,6.36126c0.9182,1.00587 1.95051,2.77789 3.12101,3.49076c2.031,1.23695 4.38461,2.36257 6.14186,4.10597c2.45515,1.96412 4.04794,4.93313 6.59074,6.772c4.0471,2.92673 10.23946,4.81503 15.01951,6.17973c5.47529,1.57256 11.76392,0.45897 17.39391,0.46158c2.67671,0.00124 5.55073,-0.04413 6.63781,2.75917c0.15175,2.94668 -2.34,3.07134 -4.80427,3.07459c-3.73857,0.00493 -7.32166,-0.44626 -11.05652,-0.66827c-3.14671,-0.18705 -6.14721,0.511 -9.05954,-0.93747c-8.07059,-4.03828 -15.67968,-9.21438 -24.13655,-12.42699c-1.77467,-0.27063 -3.12022,-1.34278 -4.84512,-1.83648c-2.66501,-0.76279 -5.55099,-0.86043 -8.20677,-1.67822c-1.74612,-0.53768 -2.82299,-1.71285 -4.35938,-2.5833c-2.67311,-1.51447 -4.95723,-2.33198 -5.01008,-5.87204c0.09894,-3.71193 3.91161,-6.27405 7.26394,-7.0397zM259.19083,200.22436l-0.04895,0.06754c-2.3307,0.38061 -6.2933,2.33775 -6.16518,5.18096c-0.05544,2.62163 2.05858,3.01649 3.99092,4.12907c1.41839,0.81666 2.37528,1.92551 3.97488,2.41725c2.62832,0.80798 5.48687,0.90189 8.12838,1.65548c1.70054,0.48514 3.09066,1.60221 4.82262,1.83059c1.85403,0.68731 3.66646,1.47134 5.451,2.31945c-1.23397,-1.4282 -2.40024,-2.93377 -3.86537,-4.10588c-1.67312,-1.68779 -3.96473,-2.64846 -5.85948,-3.89492c-1.35007,-0.88815 -2.47154,-2.65575 -3.5464,-3.84339c-1.86427,-2.05989 -4.45825,-4.31773 -6.88244,-5.75616zM294.84242,226.20913c1.18813,0.64271 2.38222,1.27016 3.58661,1.87193c3.94347,1.98359 9.26315,0.1732 13.53287,0.90514c2.21277,0.37933 4.30413,0.68484 6.6064,0.49286c0.56882,-0.04743 2.40659,-0.02402 1.94562,-0.59589c-0.32918,-1.63032 -4.28332,-1.33455 -5.6416,-1.2428c-5.39925,0.36471 -11.76984,0.94979 -16.99854,-0.537c-0.96418,-0.27568 -1.98363,-0.5725 -3.03136,-0.89423z" fill-opacity="0.91765" fill="#0f0a19"/><path d="M266.07186,205.93054c1.07485,1.18764 2.24645,3.01647 3.59652,3.90462c1.89474,1.24646 4.18229,2.21837 5.85542,3.90616c1.46513,1.17211 2.62834,2.68294 3.86231,4.11115c-1.78454,-0.84811 -3.60024,-1.62779 -5.45427,-2.31509c-1.73197,-0.22838 -3.13388,-1.33518 -4.83441,-1.82033c-2.64151,-0.75359 -5.56996,-0.86498 -8.19828,-1.67297c-1.5996,-0.49174 -2.56302,-1.62235 -3.98142,-2.43901c-1.93234,-1.11258 -4.04474,-1.52358 -3.9893,-4.14521c-0.12812,-2.84321 3.85144,-4.82632 6.18214,-5.20693l0.04923,-0.06777c2.42419,1.43842 5.04779,3.68549 6.91207,5.74537z" data-paper-data="{&quot;noHover&quot;:false,&quot;origItem&quot;:[&quot;Path&quot;,{&quot;applyMatrix&quot;:true,&quot;segments&quot;:[[[262.79155,196.32357],[2.42419,1.43842],[0,0]],[[262.7426,196.39112],[0,0],[-2.3307,0.38061]],[[256.57743,201.57208],[-0.12812,-2.84321],[-0.05544,2.62163]],[[260.56835,205.70115],[-1.93234,-1.11258],[1.41839,0.81666]],[[264.54322,208.1184],[-1.5996,-0.49174],[2.62832,0.80798]],[[272.67161,209.77388],[-2.64151,-0.75359],[1.70054,0.48514]],[[277.49423,211.60447],[-1.73197,-0.22838],[1.85403,0.68731]],[[282.94523,213.92392],[-1.78454,-0.84811],[-1.23397,-1.4282]],[[279.07986,209.81804],[1.46513,1.17211],[-1.67312,-1.68779]],[[273.22038,205.92312],[1.89474,1.24646],[-1.35007,-0.88815]],[[269.67399,202.07973],[1.07485,1.18764],[-1.86427,-2.05989]]],&quot;closed&quot;:true}]}" fill-opacity="0.91765" fill="#0f0a19"/><path d="M262.4312,207.78191c-0.24825,0.02953 -0.27778,-0.21872 -0.27778,-0.21872l0.01002,-0.2279c-1.47793,-1.89566 -3.61248,-4.39175 -3.61248,-6.70301c0,0 0,-0.25 0.25,-0.25c0.25,0 0.25,0.25 0.25,0.25c0,2.16344 2.09349,4.63193 3.50491,6.39317l0.09407,0.47868c0,0 0.02953,0.24825 -0.21872,0.27778z" fill="#000000"/><path d="M262.94965,209.3662c-0.03218,0.24792 -0.2801,0.21574 -0.2801,0.21574l-0.21157,-0.02746c-2.58175,-0.33647 -5.26423,-0.88546 -7.85788,-0.87064c0,0 -0.25,0 -0.25,-0.25c0,-0.25 0.25,-0.25 0.25,-0.25c2.6236,0.01296 5.31062,0.5373 7.92224,0.8748l0.21157,0.02746c0,0 0.24792,0.03218 0.21574,0.2801z" fill="#000000"/><path d="M321.81329,228.4873h-0.40018c-0.16667,0 -0.33333,0 -0.5,0c0,0 -0.25,0 -0.25,-0.16657c0,-0.16657 0.25,-0.16657 0.25,-0.16657c0.16667,0 0.73351,0 0.90018,0c0,0 0.25,0 0.25,0.16657c0,0.16657 -0.25,0.16657 -0.25,0.16657z" fill="#000000"/><path d="M322.66335,227.32441c-0.00498,0.16654 -0.25493,0.16322 -0.25493,0.16322l-0.14296,-0.0019c-1.15774,-0.0187 -2.25766,-0.19799 -3.45277,-0.19799c0,0 -0.25,0 -0.25,-0.16657c0,-0.16657 0.25,-0.16657 0.25,-0.16657c1.19109,0 2.31264,0.18656 3.46274,0.19806l0.14297,0.0019c0,0 0.24994,0.00332 0.24496,0.16986z" fill="#000000"/><path d="M322.31509,230.07328l-0.15044,-0.04288c-1.04648,-0.29824 -2.41342,-0.45982 -3.22868,-0.99212c0,0 -0.17678,-0.11779 0,-0.23557c0.17677,-0.11778 0.35355,0 0.35355,0c0.7258,0.49586 2.11541,0.64885 3.07176,0.92139l0.15044,0.04288c0,0 0.22986,0.06551 0.13154,0.21866c-0.09832,0.15314 -0.32817,0.08764 -0.32817,0.08764z" fill="#000000"/><path d="M266.56169,203.13927c0,-0.13807 0.11193,-0.25 0.25,-0.25c0.13807,0 0.25,0.11193 0.25,0.25c0,0.13807 -0.11193,0.25 -0.25,0.25c-0.13807,0 -0.25,-0.11193 -0.25,-0.25z" fill-opacity="0.91765" fill="#0f0a19"/></g></g></g></svg>