<svg version="1.1" xmlns="http://www.w3.org/2000/svg" xmlns:xlink="http://www.w3.org/1999/xlink" width="827.64189" height="601.0991" viewBox="0,0,827.64189,601.0991"><defs><radialGradient cx="-174.41441" cy="-55.28528" r="3.003" gradientUnits="userSpaceOnUse" id="color-1"><stop offset="0" stop-color="#000000" stop-opacity="0"/><stop offset="1" stop-color="#000000"/></radialGradient><radialGradient cx="246.57282" cy="175.8371" r="403.9039" gradientUnits="userSpaceOnUse" id="color-2"><stop offset="0" stop-color="#000000" stop-opacity="0.38039"/><stop offset="1" stop-color="#000000"/></radialGradient></defs><g transform="translate(176.16516,124.71245)"><g data-paper-data="{&quot;isPaintingLayer&quot;:true}" fill-rule="nonzero" stroke="#000000" stroke-width="2" stroke-linecap="butt" stroke-linejoin="miter" stroke-miterlimit="10" stroke-dasharray="" stroke-dashoffset="0" style="mix-blend-mode: normal"><path d="M-173.66366,-55.28528c0,1.65851 -0.33612,3.003 -0.75075,3.003c-0.41463,0 -0.75075,-1.34449 -0.75075,-3.003c0,-1.65851 0.33612,-3.003 0.75075,-3.003c0.41463,0 0.75075,1.34449 0.75075,3.003z" fill="url(#color-1)"/><path d="M650.47673,175.8371c0,165.43665 -180.83394,299.54955 -403.9039,299.54955c-223.06997,0 -403.9039,-134.1129 -403.9039,-299.54955c0,-165.43665 180.83394,-299.54955 403.9039,-299.54955c223.06997,0 403.9039,134.1129 403.9039,299.54955z" fill="url(#color-2)"/></g></g></svg>