<svg version="1.1" xmlns="http://www.w3.org/2000/svg" xmlns:xlink="http://www.w3.org/1999/xlink" width="35.69565" height="38.26088" viewBox="0,0,35.69565,38.26088"><g transform="translate(-222.15217,-160.86956)"><g data-paper-data="{&quot;isPaintingLayer&quot;:true}" fill-rule="nonzero" stroke-linecap="butt" stroke-linejoin="miter" stroke-miterlimit="10" stroke-dasharray="" stroke-dashoffset="0" style="mix-blend-mode: normal"><g><path d="M236.43478,196.36956c0,1.04454 -1.83953,1.8913 -4.1087,1.8913c-2.26917,0 -4.1087,-0.84676 -4.1087,-1.8913c0,-1.04454 1.83953,-1.89131 4.1087,-1.89131c2.26917,0 4.1087,0.84677 4.1087,1.89131z" fill="#8b1a0b" stroke="#535353" stroke-width="0"/><path d="M228.30435,196.7826v-33.65217h8.08696v33.65218z" fill="#8b1a0b" stroke="#535353" stroke-width="0"/><path d="M236.39131,163.06521c0,1.04454 -1.81033,1.8913 -4.04348,1.8913c-2.23315,0 -4.04348,-0.84676 -4.04348,-1.8913c0,-1.04454 1.81033,-1.89131 4.04348,-1.89131c2.23315,0 4.04348,0.84677 4.04348,1.89131z" fill="#9c2718" stroke="#535353" stroke-width="0"/><path d="M230.91305,196.06522c0,1.04454 -1.83953,1.8913 -4.1087,1.8913c-2.26917,0 -4.1087,-0.84676 -4.1087,-1.8913c0,-1.04454 1.83953,-1.8913 4.1087,-1.8913c2.26917,0 4.1087,0.84676 4.1087,1.8913z" fill="#9c1c0c" stroke="#535353" stroke-width="0"/><path d="M222.78261,196.47826v-33.65217h8.08695v33.65218z" fill="#9c1c0c" stroke="#535353" stroke-width="0"/><path d="M230.86956,162.76087c0,1.04454 -1.81033,1.8913 -4.04348,1.8913c-2.23315,0 -4.04348,-0.84676 -4.04348,-1.8913c0,-1.04454 1.81033,-1.8913 4.04348,-1.8913c2.23315,0 4.04348,0.84676 4.04348,1.8913z" fill="#9c2718" stroke="#535353" stroke-width="0"/><path d="M247.30436,197.19565c0,1.04454 -1.83953,1.8913 -4.1087,1.8913c-2.26917,0 -4.1087,-0.84676 -4.1087,-1.8913c0,-1.04454 1.83953,-1.89131 4.1087,-1.89131c2.26917,0 4.1087,0.84677 4.1087,1.89131z" fill="#8b1a0b" stroke="#535353" stroke-width="0"/><path d="M239.17391,197.60869v-33.65217h8.08696v33.65218z" fill="#8b1a0b" stroke="#535353" stroke-width="0"/><path d="M247.26087,163.8913c0,1.04454 -1.81033,1.8913 -4.04348,1.8913c-2.23315,0 -4.04348,-0.84676 -4.04348,-1.8913c0,-1.04454 1.81033,-1.89131 4.04348,-1.89131c2.23315,0 4.04348,0.84677 4.04348,1.89131z" fill="#9c2718" stroke="#535353" stroke-width="0"/><path d="M241.78262,196.8913c0,1.04454 -1.83953,1.8913 -4.1087,1.8913c-2.26917,0 -4.10869,-0.84676 -4.10869,-1.8913c0,-1.04454 1.83952,-1.89131 4.10869,-1.89131c2.26917,0 4.1087,0.84677 4.1087,1.89131z" fill="#9c1c0c" stroke="#535353" stroke-width="0"/><path d="M233.65217,197.30434v-33.65217h8.08696v33.65218z" fill="#9c1c0c" stroke="#535353" stroke-width="0"/><path d="M241.73913,163.58695c0,1.04454 -1.81033,1.8913 -4.04348,1.8913c-2.23315,0 -4.04348,-0.84676 -4.04348,-1.8913c0,-1.04454 1.81033,-1.89131 4.04348,-1.89131c2.23315,0 4.04348,0.84677 4.04348,1.89131z" fill="#9c2718" stroke="#535353" stroke-width="0"/><path d="M256.47827,197.23913c0,1.04454 -1.83953,1.89131 -4.1087,1.89131c-2.26917,0 -4.10869,-0.84677 -4.10869,-1.89131c0,-1.04454 1.83952,-1.8913 4.10869,-1.8913c2.26917,0 4.1087,0.84676 4.1087,1.8913z" fill="#8b1a0b" stroke="#535353" stroke-width="0"/><path d="M248.34782,197.65217v-33.65217h8.08696v33.65218z" fill="#8b1a0b" stroke="#535353" stroke-width="0"/><path d="M256.43479,163.93478c0,1.04454 -1.81033,1.89131 -4.04348,1.89131c-2.23315,0 -4.04348,-0.84677 -4.04348,-1.89131c0,-1.04454 1.81033,-1.8913 4.04348,-1.8913c2.23315,0 4.04348,0.84676 4.04348,1.8913z" fill="#9c2718" stroke="#535353" stroke-width="0"/><path d="M250.95652,196.93478c0,1.04454 -1.83953,1.89131 -4.1087,1.89131c-2.26917,0 -4.10869,-0.84677 -4.10869,-1.89131c0,-1.04454 1.83952,-1.8913 4.10869,-1.8913c2.26917,0 4.1087,0.84676 4.1087,1.8913z" fill="#9c1c0c" stroke="#535353" stroke-width="0"/><path d="M242.82608,197.34782v-33.65217h8.08696v33.65218z" fill="#9c1c0c" stroke="#535353" stroke-width="0"/><path d="M250.91305,163.63043c0,1.04454 -1.81033,1.89131 -4.04348,1.89131c-2.23315,0 -4.04348,-0.84677 -4.04348,-1.89131c0,-1.04454 1.81033,-1.8913 4.04348,-1.8913c2.23315,0 4.04348,0.84676 4.04348,1.8913z" fill="#9c2718" stroke="#535353" stroke-width="0"/><path d="M256.82145,182.76078l0,0.00007c-1.23152,-0.02663 -2.51061,-0.21655 -3.70862,-0.52546c-4.4548,0.03623 -8.81381,-1.50211 -13.08038,-2.35291c-0.75299,-0.098 -1.51494,-0.1714 -2.28168,-0.23257c-4.20335,0.13225 -8.19265,0.89357 -12.48988,0.89357c-0.89759,0 -1.61817,0.07824 -2.441,-0.31366l-0.1677,0.05279c0,0 -0.5,0 -0.5,-0.5c0,-0.5 0.5,-0.5 0.5,-0.5l0.61491,0.05279c0.61945,0.33215 1.29444,0.20809 1.99379,0.20809c2.09316,0 4.11084,-0.18041 6.11583,-0.38083c-0.73161,-0.08444 -1.45701,-0.18911 -2.17253,-0.32496c-2.19177,-0.41615 -4.21293,-1.51575 -6.29805,-2.09606c0,0 -0.48077,-0.13736 -0.34341,-0.61812c0.13736,-0.48076 0.61813,-0.3434 0.61813,-0.3434c2.06044,0.60171 4.05321,1.66814 6.22368,2.07785c2.70783,0.51116 5.55705,0.57543 8.34716,0.79187c0.39942,-0.01254 0.80088,-0.0194 1.20483,-0.0194c3.00939,0.02447 6.90954,-0.1856 10.21368,-0.86929c-3.79055,-0.7101 -7.57036,-2.41928 -11.47178,-2.44254c-4.88938,-0.63941 -9.79717,-1.16643 -14.78538,-1.16643c0,0 -0.5,0 -0.5,-0.5c0,-0.5 0.5,-0.5 0.5,-0.5c5.01848,0 9.92634,0.58865 14.85135,1.1686c2.71448,0.02528 6.33626,0.49499 8.91118,1.33391c1.65162,0.53811 3.70224,1.41541 5.45486,1.41053c1.08696,0 2.17392,0 3.26087,0h0.52174c0,0 0.5,0 0.5,0.5c0,0.5 -0.5,0.5 -0.5,0.5c-1.08695,0 -2.69566,0 -3.78261,0c-0.05856,-0.00015 -0.11711,-0.00069 -0.17565,-0.00163c-2.61436,0.85556 -5.91331,1.26373 -9.0079,1.44328c3.37419,0.80235 6.77553,1.71343 10.28812,1.73601c1.16835,0.28447 2.39641,0.49969 3.59431,0.51799h0.51851v0c0.27614,0 0.5,0.22386 0.5,0.5c0,0.27614 -0.22386,0.5 -0.5,0.5h-0.52174c0,0 -0.00161,0 -0.00464,-0.00009z" fill="#8c703c" stroke="none" stroke-width="0.5"/><path d="M244.73891,180.53909c-0.51686,1.38336 -4.1087,1.31933 -8.02259,-0.143c-3.91389,-1.46233 -6.66773,-3.76922 -6.15087,-5.15258c0.51686,-1.38336 4.10869,-1.31934 8.02258,0.143c3.91389,1.46233 6.66774,3.76922 6.15088,5.15258z" fill="#8c703c" stroke="#535353" stroke-width="0"/><path d="M235.83383,176.52631c-0.25725,0.42874 -0.686,0.1715 -0.686,0.1715l-0.07114,-0.04437c-0.17201,0.16902 -0.33878,0.35071 -0.48494,0.57261l-0.39312,0.39656c0,0 -0.35355,0.35356 -0.70711,0c-0.35356,-0.35356 0,-0.70711 0,-0.70711l0.32688,-0.32344c0.14056,-0.20852 0.31343,-0.38116 0.49163,-0.54409c-0.09381,-0.08167 -0.18697,-0.16409 -0.27944,-0.24726c0,0 -0.37165,-0.33449 -0.03716,-0.70613c0.33448,-0.37165 0.70613,-0.03716 0.70613,-0.03716c0.10628,0.09571 0.21355,0.19033 0.32172,0.28392c0.06764,-0.09119 0.12753,-0.18882 0.17658,-0.29588c0,0 0.2236,-0.44721 0.67082,-0.2236c0.44721,0.2236 0.22361,0.67082 0.22361,0.67082c-0.09017,0.17095 -0.19433,0.3185 -0.30682,0.45281c0.10268,0.11326 0.20858,0.31378 0.04835,0.58083z" fill="#44371d" stroke="none" stroke-width="0.5"/><path d="M239.16508,177.52906c0.3,0.4 -0.1,0.7 -0.1,0.7l-0.06956,0.03234c-1.32335,1.63604 -1.71605,0.95673 -1.94849,-0.24296c-0.16017,0.19512 -0.33003,0.3848 -0.5103,0.5851l-0.14121,0.17786c0,0 -0.31235,0.39043 -0.70279,0.07808c-0.39043,-0.31235 -0.07809,-0.70278 -0.07809,-0.70278l0.17879,-0.22214c0.35744,-0.39715 0.67248,-0.73376 0.93976,-1.19745c0,0 0.25194,-0.43189 0.68383,-0.17995c0.02969,0.01731 0.05613,0.03548 0.07966,0.0543c0.34881,0.04492 0.40338,0.42688 0.40338,0.42688c0.08918,0.64536 -0.07723,1.10229 -0.1388,1.23842c0.04643,-0.08212 0.17493,-0.28716 0.45339,-0.64005l0.25043,-0.20765c0,0 0.4,-0.3 0.7,0.1z" fill="#44371d" stroke="none" stroke-width="0.5"/><path d="M242.03863,179.06261c-0.21874,0.21874 -0.43747,0.16682 -0.57248,0.09542c-0.15848,0.24981 -0.34257,0.48323 -0.55063,0.74338l-0.10322,0.23126c0,0 -0.22361,0.44721 -0.67082,0.2236c-0.44721,-0.2236 -0.2236,-0.67082 -0.2236,-0.67082l0.21678,-0.40874c0.2098,-0.26219 0.39822,-0.48084 0.54786,-0.73712c-0.0833,-0.06278 -0.16714,-0.12485 -0.25151,-0.18617c0,0 -0.40437,-0.29408 -0.11028,-0.69845c0.29408,-0.40437 0.69845,-0.11028 0.69845,-0.11028c0.0831,0.06048 0.16572,0.12164 0.24786,0.18345c0.07268,-0.01183 0.15759,-0.00628 0.25616,0.02657c0.2756,0.09187 0.33769,0.29048 0.34135,0.44079c0.01908,0.01549 0.03814,0.03101 0.05716,0.04657l0.11693,0.11343c0,0 0.35356,0.35355 0,0.70711z" fill="#44371d" stroke="none" stroke-width="0.5"/></g></g></g></svg>