<svg version="1.1" xmlns="http://www.w3.org/2000/svg" xmlns:xlink="http://www.w3.org/1999/xlink" width="55.19305" height="11.82355" viewBox="0,0,55.19305,11.82355"><g transform="translate(-119.62742,-175.68537)"><g data-paper-data="{&quot;isPaintingLayer&quot;:true}" fill-rule="nonzero" stroke-linecap="butt" stroke-linejoin="miter" stroke-miterlimit="10" stroke-dasharray="" stroke-dashoffset="0" style="mix-blend-mode: normal"><path d="M168.09337,187.24191c-0.64983,-0.13272 -1.3226,-0.20241 -2.01165,-0.20241c-0.67455,0 -1.33351,0.06679 -1.97061,0.19411c-0.08406,-0.0188 -0.16781,-0.0386 -0.25125,-0.05946h-2.92882c-0.05743,0.01436 -0.11741,0.02848 -0.17978,0.04244c-0.68921,-0.05341 -1.3715,-0.0898 -2.04208,-0.09435c-8.94445,-0.06069 -17.76321,-0.311 -26.83481,-0.30298c-2.09248,0.00185 -6.36078,1.01233 -8.37756,-0.34034c-0.35016,0.28171 -0.79482,0.44134 -1.34733,0.44134c-0.67185,0 -1.27492,-0.52492 -1.75,-1c-0.16321,-0.16321 -0.28408,-0.34562 -0.3715,-0.54313c3.41725,-1.59002 5.78625,-5.05411 5.78625,-9.0715c0,-0.1143 -0.00192,-0.22816 -0.00572,-0.34154c0.4616,-0.05263 0.92495,-0.11215 1.38321,-0.17897c0.71871,0.0922 1.43255,0.16962 2.12313,0.16658c4.95048,-0.02176 9.90074,-0.11757 14.85124,-0.101c0.22601,0.00075 0.47648,0.09699 0.70301,0.101c4.95665,0.08759 9.87057,0.21733 14.84484,0.20199c2.55548,-0.00788 5.05378,0.05207 7.58987,0.08476c0.43067,3.73111 1.24752,7.35756 1.76305,11.05922c-0.32023,-0.03394 -0.64497,-0.05277 -0.9735,-0.05575z" fill="#b85000" stroke="none" stroke-width="0.5"/><path d="M174.31962,176.26788l-0.0183,10.74019l-54.17305,-0.0923l0.00175,-1.02723c3.56876,-1.5271 6.06927,-5.07047 6.06927,-9.19787c0,-0.08582 -0.00108,-0.17139 -0.00323,-0.2567c0.00025,-0.00988 0.00048,-0.01978 0.0007,-0.02967c0.02426,-0.0724 0.04771,-0.14517 0.07035,-0.2183z" fill-opacity="0.53333" fill="#00a67e" stroke="#827700" stroke-width="1"/></g></g></svg>