<svg version="1.1" xmlns="http://www.w3.org/2000/svg" xmlns:xlink="http://www.w3.org/1999/xlink" width="715.88589" height="543.62018" viewBox="0,0,715.88589,543.62018"><g transform="translate(112.94293,86.81009)"><g data-paper-data="{&quot;isPaintingLayer&quot;:true}" fill-rule="nonzero" stroke-linejoin="miter" stroke-miterlimit="10" stroke-dasharray="" stroke-dashoffset="0" style="mix-blend-mode: normal"><path d="M-112.94293,456.81009v-543.62018h715.88589v543.62018z" fill-opacity="0.90196" fill="#000000" stroke="none" stroke-width="0" stroke-linecap="butt"/><path d="M78.5,303.3v-196h347v196z" fill="#918039" stroke="#000000" stroke-width="0" stroke-linecap="butt"/><path d="" fill="#000000" stroke="none" stroke-width="0" stroke-linecap="butt"/><path d="" fill="#435b00" stroke="none" stroke-width="0.5" stroke-linecap="butt"/><g stroke="none" stroke-linecap="butt"><path d="M94.03961,42.65928c1.04556,-1.44468 2.85158,-2.80598 4.40532,-3.18688c0.29211,-0.26203 0.60133,-0.49375 0.92576,-0.6884l0.10976,-0.10976c0.12429,-0.07458 0.2445,-0.14544 0.36097,-0.21211c0.38108,-0.35338 0.87252,-0.58943 1.41686,-0.65067c1.46186,-1.1072 3.31821,-1.6704 5.54719,-1.32608c1.45162,0.22424 3.19729,0.32259 4.17052,1.42273c1.48588,1.67963 2.04193,8.90563 1.22906,11.18245c-0.43724,1.22468 -1.56598,2.08144 -2.24508,3.19042c-0.54963,0.89756 -0.81887,1.95857 -1.43185,2.81412c-0.663,0.92535 -2.83804,1.54231 -2.28548,2.53756c0.26363,0.47484 0.94764,0.54435 1.35848,0.89956c1.92903,1.66788 3.1561,2.97563 5.87103,3.2865c1.66509,0.19066 3.3519,-0.01873 5.02787,-0.01873c0.45078,0.12446 0.98548,0.66339 1.35234,0.37337c0.50368,-0.39818 0.20834,-1.2936 0.52103,-1.85437c0.54113,-0.97044 1.40937,-1.72554 2,-2.66667c0.63453,-1.01108 2.30544,-5.07725 2.95898,-5.71763c3.46805,-3.39823 7.68781,-3.45683 12.13977,-3.44931l2.96755,0.72258c0,0 2.42536,0.60634 1.81902,3.0317l-0.00002,0.00001c-0.60634,2.42535 -3.0317,1.81902 -3.0317,1.81902l-2.36578,-0.61076c-2.56956,0.00607 -5.8623,-0.18636 -7.86024,1.88402c-1.63787,1.69725 -2.99221,5.56678 -4.37434,7.6157c-0.76193,1.12951 -0.99223,2.75372 -2.14563,3.47896c-1.1283,0.70946 -2.65399,0.24892 -3.98099,0.37338c-5.71085,0 -10.30074,-0.25326 -14.43443,-4.73224c-2.87395,-3.114 -3.78808,-3.10197 -1.74107,-7.66618c1.03365,-2.30471 4.14285,-4.43555 5.13712,-6.89216c0.5375,-1.32801 -0.12417,-2.86378 -0.11612,-4.29642c0.00347,-0.61816 0.34949,-1.33666 0.01184,-1.85447c-0.21233,-0.32563 -0.77426,0.10183 -1.1628,0.08939c-2.56963,-0.08226 -4.03643,2.28965 -3.8612,4.85207c0,0 0,1.43821 -1.09085,2.13294c-0.29448,0.39087 -0.6618,0.71632 -1.08576,0.9283c-0.77397,0.38699 -1.57666,0.4395 -2.29566,0.2417c-0.35479,-1.28279 0.17449,-2.75115 0.00458,-4.01817h0.08284v-0.30303c0,-0.13807 -0.11193,-0.25 -0.25,-0.25c-0.11246,0 -0.20758,0.07426 -0.23899,0.17641l-0.08799,0.26396c-0.42499,1.13294 -1.07357,2.29327 -2.32061,2.66108c0,0 -0.09921,0.02976 -0.15075,0.11483c-1.04129,-0.41059 -1.9142,-1.7995 -2.22512,-2.5377c-0.21858,-0.51896 0.07189,-1.04723 0.53607,-1.5176c0.08448,-0.60861 0.38805,-1.14716 0.8285,-1.53342z" fill="#435b00" stroke-width="0.5"/><path d="M97.33637,49.40758c-0.006,-0.00285 -0.01199,-0.00572 -0.01798,-0.00861l0.00663,-0.07962c0.00374,0.03021 0.00752,0.05963 0.01134,0.08823z" fill="#435b00" stroke-width="0.5"/><path d="M359.2497,51.20798l2.96755,-0.72258c4.45195,-0.00752 8.67172,0.05108 12.13977,3.44931c0.65354,0.64039 2.32446,4.70656 2.95898,5.71763c0.59063,0.94113 1.45887,1.69623 2,2.66667c0.3127,0.56077 0.01736,1.45619 0.52103,1.85437c0.36685,0.29002 0.90156,-0.24891 1.35234,-0.37337c1.67597,0 3.36278,0.20939 5.02787,0.01873c2.71492,-0.31088 3.94199,-1.61863 5.87102,-3.2865c0.41084,-0.35521 1.09486,-0.42473 1.35848,-0.89956c0.55256,-0.99525 -1.62248,-1.61221 -2.28549,-2.53756c-0.61299,-0.85555 -0.88223,-1.91655 -1.43185,-2.81412c-0.6791,-1.10898 -1.80784,-1.96574 -2.24508,-3.19042c-0.81288,-2.27681 -0.25683,-9.50281 1.22905,-11.18245c0.97323,-1.10014 2.7189,-1.19849 4.17052,-1.42273c5.98368,-0.92433 9.28201,4.69139 9.47213,9.81461c0,0 0,2.5 -2.5,2.5c-2.5,0 -2.5,-2.5 -2.5,-2.5c0.17523,-2.56241 -1.29158,-4.93432 -3.8612,-4.85207c-0.38855,0.01244 -0.95047,-0.41502 -1.1628,-0.08939c-0.33765,0.51781 0.00838,1.23631 0.01184,1.85447c0.00805,1.43264 -0.65362,2.9684 -0.11613,4.29642c0.99427,2.4566 4.10348,4.58744 5.13713,6.89216c2.04701,4.56421 1.13288,4.55218 -1.74106,7.66618c-4.13369,4.47897 -8.72358,4.73224 -14.43444,4.73224c-1.327,-0.12446 -2.85269,0.33609 -3.981,-0.37338c-1.15341,-0.72525 -1.3837,-2.34945 -2.14563,-3.47896c-1.38214,-2.04892 -2.73648,-5.91846 -4.37435,-7.6157c-1.99795,-2.07038 -5.29068,-1.87796 -7.86024,-1.88402l-2.36578,0.61076c0,0 -2.42536,0.60634 -3.0317,-1.81902c-0.60634,-2.42535 1.81902,-3.0317 1.81902,-3.0317z" data-paper-data="{&quot;index&quot;:null}" fill="#435b00" stroke-width="0.5"/><text transform="translate(142.33333,55.3) scale(0.5,0.5)" font-size="40" xml:space="preserve" fill="#ff0000" fill-rule="nonzero" stroke="none" stroke-width="1" stroke-linecap="butt" stroke-linejoin="miter" stroke-miterlimit="10" stroke-dasharray="" stroke-dashoffset="0" font-family="Pixel" font-weight="normal" text-anchor="start" style="mix-blend-mode: normal"><tspan x="0" dy="0">Turkey and Squirrel</tspan></text><text transform="translate(182.33333,77.12281) scale(0.45758,0.45758)" font-size="40" xml:space="preserve" fill="#ff0000" fill-rule="nonzero" stroke="none" stroke-width="1" stroke-linecap="butt" stroke-linejoin="miter" stroke-miterlimit="10" stroke-dasharray="" stroke-dashoffset="0" font-family="Pixel" font-weight="normal" text-anchor="start" style="mix-blend-mode: normal"><tspan x="0" dy="0">Animal Dystopia</tspan></text><path d="M98.03184,44.78173c0.27614,0 0.5,0.22386 0.5,0.5c0,0.03617 -0.00384,0.07144 -0.01114,0.10543c0.04554,0.07537 0.07174,0.16373 0.07174,0.2582c0,0.01808 -0.00096,0.03593 -0.00283,0.05351c0.0412,0.30173 0.01068,0.62677 -0.06074,0.91928c0.21171,1.2463 -0.23693,2.52195 -0.76662,2.98641c-0.07752,0.17572 -0.25328,0.29838 -0.45768,0.29838c-0.27614,0 -0.5,-0.22386 -0.5,-0.5c0,-0.15656 0.07196,-0.29632 0.18461,-0.388c0.16953,-0.8104 0.56142,-2.3615 0.54266,-2.64556c-0.0312,-0.47261 -0.47921,0.81846 -0.75251,1.2053c-0.24431,0.34582 -1.55356,2.7222 -1.7778,2.7222c-1.35141,0 1.16991,-5.34154 2.30387,-5.40453c0.07826,-0.05081 0.17163,-0.08031 0.27189,-0.08031c0.07023,0 0.13707,0.01448 0.19771,0.04061c0.07507,-0.04503 0.16293,-0.07092 0.25683,-0.07092z" fill="#000000" stroke-width="0.5"/><path d="M96.63286,48.33729c-0.17678,0.17678 -0.35355,0 -0.35355,0l-0.00353,-0.00708c-0.30877,-0.23179 -0.59349,-0.48009 -0.92189,-0.68497c0,0 -0.212,-0.1325 -0.0795,-0.3445c0.1325,-0.212 0.3445,-0.0795 0.3445,-0.0795c0.34036,0.21308 0.63656,0.46895 0.95689,0.70897l0.05708,0.05353c0,0 0.17678,0.17678 0,0.35355z" fill="#93a749" stroke-width="0.5"/><path d="M96.25545,48.84808c-0.1118,0.22361 -0.33541,0.1118 -0.33541,0.1118l-0.11094,-0.05576c-0.44127,-0.19853 -0.77198,-0.20225 -1.11691,-0.57898c0,0 -0.16463,-0.18814 0.02352,-0.35277c0.18814,-0.16463 0.35277,0.02352 0.35277,0.02352c0.24695,0.30239 0.59047,0.29596 0.94369,0.45132l0.13148,0.06545c0,0 0.22361,0.1118 0.1118,0.33541z" fill="#93a749" stroke-width="0.5"/><path d="M97.66821,47.12264c0.25,0 0.25,0.25 0.25,0.25l-0.01592,0.12434c0.11988,0.32494 0.30281,0.63146 0.51137,0.90748c0,0 0.15,0.2 -0.05,0.35c-0.2,0.15 -0.35,-0.05 -0.35,-0.05c-0.23676,-0.31772 -0.43866,-0.6612 -0.57954,-1.03192l-0.01592,-0.2999c0,0 0,-0.25 0.25,-0.25z" fill="#93a749" stroke-width="0.5"/><path d="M97.19277,48.30055c0.22361,-0.1118 0.33541,0.1118 0.33541,0.1118l0.07074,0.14831c0.15113,0.21282 0.21055,0.40522 0.42672,0.54794c0,0 0.20343,0.14531 0.05812,0.34874c-0.14531,0.20343 -0.34874,0.05812 -0.34874,0.05812c-0.26987,-0.20228 -0.35117,-0.39746 -0.54297,-0.66418l-0.11108,-0.21532c0,0 -0.1118,-0.22361 0.1118,-0.33541z" fill="#93a749" stroke-width="0.5"/><path d="M94.81215,43.9787c0,-0.13807 0.11193,-0.25 0.25,-0.25c0.13807,0 0.25,0.11193 0.25,0.25c0,0.13807 -0.11193,0.25 -0.25,0.25c-0.13807,0 -0.25,-0.11193 -0.25,-0.25z" fill="#760000" stroke-width="0.5"/></g><text transform="translate(89.5,131.84255) scale(0.46187,0.48514)" font-size="40" xml:space="preserve" fill="#ff0000" fill-rule="nonzero" stroke="none" stroke-width="1" stroke-linecap="butt" stroke-linejoin="miter" stroke-miterlimit="10" stroke-dasharray="" stroke-dashoffset="0" font-family="Marker" font-weight="normal" text-anchor="start" style="mix-blend-mode: normal"><tspan x="0" dy="0">You have been killed, Your adventure</tspan><tspan x="0" dy="46.150000000000006px">Touch is end; </tspan><tspan x="0" dy="46.150000000000006px"> </tspan><tspan x="0" dy="46.150000000000006px">Hope you will survive next time.</tspan></text><g data-paper-data="{&quot;index&quot;:null}"><path d="M77.06318,102.71331l-0.6021,-1.41367c-0.9146,-2.3453 0.49413,-6.81316 4.3099,-8.33096c2.23699,-0.88981 5.75555,-0.59283 8.27971,-0.58361c2.99878,0.01096 4.14186,-0.25421 6.67266,0.99066c2.02804,0.99758 2.3185,2.91277 3.45769,4.24099c0,0 0.89226,1.0529 -0.87905,1.58328c-1.77132,0.53038 -2.66359,-0.52252 -2.66359,-0.52252c-0.68901,-0.82146 -1.3096,-2.92666 -2.53137,-3.52946c-1.37734,-0.67955 -2.30204,-0.41939 -4.04452,-0.40508c-1.38475,0.01136 -4.73751,-0.35648 -5.99686,0.14905c-1.04095,0.41787 -1.1966,1.31486 -1.70323,1.99809c-1.13068,1.52478 -1.80623,2.26805 -1.05596,3.83087l0.6021,1.41367c0,0 0.48677,1.14288 -1.43593,1.43223c-1.9227,0.28934 -2.40946,-0.85354 -2.40946,-0.85354z" fill="#927500" stroke="none" stroke-width="0.5" stroke-linecap="butt"/><path d="M80.09534,306.83664c1.92556,0.28253 1.45027,1.42711 1.45027,1.42711l-0.58791,1.41578c-0.73459,1.56545 -0.05158,2.3063 1.09438,3.82706c0.51348,0.68142 0.6781,1.57784 1.72324,1.99201c1.26439,0.50106 4.6134,0.12134 5.99825,0.1278c1.74259,0.00813 2.66989,0.26501 4.04038,-0.41941c1.2157,-0.60712 1.81516,-2.71448 2.49593,-3.53836c0,0 0.88169,-1.05605 2.6583,-0.53195c1.77661,0.52409 0.89491,1.58014 0.89491,1.58014c-1.12584,1.33223 -1.3971,3.24843 -3.4151,4.25318c-2.51826,1.25382 -3.66398,0.9927 -6.6626,1.01429c-2.52402,0.01817 -6.03954,0.32761 -8.28541,-0.55426c-3.83093,-1.50426 -5.28444,-5.96704 -4.39338,-8.31554l0.58791,-1.41578c0,0 0.47529,-1.14459 2.40086,-0.86206z" data-paper-data="{&quot;index&quot;:null}" fill="#927500" stroke="none" stroke-width="0.5" stroke-linecap="butt"/><path d="M80.61316,308.26554l-1.62906,-206.19524" fill="none" stroke="#927500" stroke-width="4" stroke-linecap="round"/></g><g><path d="M81.22141,106.76508c-0.48204,1.94029 -2.41022,1.45522 -2.41022,1.45522l-2.38502,-0.6c-2.63691,-0.74866 -3.88791,-0.06368 -6.45508,1.0842c-1.15029,0.51434 -2.66201,0.67581 -3.36336,1.72762c-0.84848,1.27246 -0.21834,4.65148 -0.23336,6.04791c-0.01891,1.75716 -0.45474,2.69094 0.69499,4.07639c1.01986,1.22897 4.57074,1.84411 5.95765,2.53475c0,0 1.77769,0.89442 0.88885,2.68328c-0.88884,1.78885 -2.66653,0.89443 -2.66653,0.89443c-2.24257,-1.14203 -5.47215,-1.42524 -7.15996,-3.46525c-2.10621,-2.54572 -1.66259,-3.69973 -1.69003,-6.7236c-0.02309,-2.54528 -0.53424,-6.09185 0.95915,-8.3521c2.54737,-3.85546 10.07524,-5.29858 14.03177,-4.38818l2.38502,0.6c0,0 1.92818,0.48507 1.44614,2.42535z" fill="#927500" stroke="none" stroke-width="0.5" stroke-linecap="butt"/><path d="M425.34949,103.93972l2.38502,-0.6c3.95653,-0.9104 11.4844,0.53273 14.03177,4.38819c1.49339,2.26025 0.98224,5.80682 0.95915,8.3521c-0.02744,3.02388 0.41619,4.17789 -1.69004,6.72361c-1.68782,2.04001 -4.9174,2.32322 -7.15996,3.46525c0,0 -1.7777,0.89442 -2.66653,-0.89443c-0.88885,-1.78885 0.88885,-2.68328 0.88885,-2.68328c1.38691,-0.69064 4.93779,-1.30578 5.95765,-2.53475c1.14973,-1.38545 0.71391,-2.31924 0.695,-4.0764c-0.01503,-1.39642 0.61512,-4.77544 -0.23336,-6.0479c-0.70135,-1.05181 -2.21307,-1.21328 -3.36336,-1.72761c-2.56717,-1.14787 -3.81816,-1.83285 -6.45508,-1.08419l-2.38502,0.6c0,0 -1.92817,0.48507 -2.41021,-1.45521c-0.48204,-1.94029 1.44614,-2.42536 1.44614,-2.42536z" data-paper-data="{&quot;index&quot;:null}" fill="#927500" stroke="none" stroke-width="0.5" stroke-linecap="butt"/><path d="M78.69697,106.28001l347.61679,0.6" fill="none" stroke="#927500" stroke-width="4" stroke-linecap="round"/></g><g data-paper-data="{&quot;index&quot;:null}"><path d="M426.80118,108.56686c-1.92673,-0.28934 -1.43894,-1.43223 -1.43894,-1.43223l0.60336,-1.41367c0.75185,-1.56283 0.07487,-2.30609 -1.05818,-3.83087c-0.50769,-0.68322 -0.66365,-1.58022 -1.7068,-1.99809c-1.26199,-0.50553 -4.62178,-0.13769 -6.00944,-0.14905c-1.74612,-0.0143 -2.67277,-0.27447 -4.053,0.40508c-1.22433,0.6028 -1.84622,2.708 -2.53668,3.52946c0,0 -0.89414,1.0529 -2.66918,0.52252c-1.77503,-0.53038 -0.88089,-1.58328 -0.88089,-1.58328c1.14158,-1.32822 1.43264,-3.24341 3.46495,-4.24099c2.5361,-1.24487 3.68158,-0.9797 6.68664,-0.99066c2.52945,-0.00923 6.05539,-0.3062 8.29707,0.58361c3.82378,1.5178 5.23546,5.98566 4.31895,8.33096l-0.60336,1.41367c0,0 -0.48779,1.14289 -2.41452,0.85354z" fill="#927500" stroke="none" stroke-width="0.5" stroke-linecap="butt"/><path d="M428.58306,312.69872l0.58915,1.41578c0.89292,2.3485 -0.56363,6.81128 -4.4026,8.31554c-2.25059,0.88187 -5.77348,0.57243 -8.30279,0.55426c-3.00491,-0.02159 -4.15303,0.23953 -6.67657,-1.01429c-2.02224,-1.00475 -2.29406,-2.92095 -3.42227,-4.25318c0,0 -0.88354,-1.05604 0.89679,-1.58014c1.78034,-0.52409 2.66387,0.53195 2.66387,0.53195c0.68219,0.82389 1.2829,2.93125 2.50115,3.53836c1.37337,0.68442 2.30263,0.42754 4.04887,0.41941c1.38774,-0.00646 4.74378,0.37326 6.01083,-0.1278c1.04732,-0.41417 1.2123,-1.31059 1.72684,-1.99201c1.14836,-1.52076 1.83279,-2.2616 1.09667,-3.82706l-0.58915,-1.41578c0,0 -0.47629,-1.14459 1.45331,-1.42711c1.9296,-0.28253 2.40589,0.86206 2.40589,0.86206z" data-paper-data="{&quot;index&quot;:null}" fill="#927500" stroke="none" stroke-width="0.5" stroke-linecap="butt"/><path d="M425.65826,313.26554l1.63248,-206.19524" fill="none" stroke="#927500" stroke-width="4" stroke-linecap="round"/></g><g data-paper-data="{&quot;index&quot;:null}"><path d="M424.1021,305.20342c0.48204,-1.94029 2.41022,-1.45522 2.41022,-1.45522l2.38502,0.6c2.63692,0.74866 3.88791,0.06368 6.45508,-1.0842c1.15029,-0.51434 2.66201,-0.67581 3.36336,-1.72762c0.84848,-1.27247 0.21834,-4.65148 0.23336,-6.0479c0.01891,-1.75716 0.45474,-2.69094 -0.695,-4.0764c-1.01986,-1.22897 -4.57074,-1.84411 -5.95765,-2.53475c0,0 -1.7777,-0.89443 -0.88885,-2.68328c0.88885,-1.78886 2.66653,-0.89443 2.66653,-0.89443c2.24257,1.14202 5.47214,1.42524 7.15996,3.46525c2.10621,2.54572 1.6626,3.69973 1.69004,6.72361c0.02309,2.54528 0.53424,6.09185 -0.95915,8.3521c-2.54737,3.85546 -10.07525,5.29859 -14.03177,4.38819l-2.38502,-0.6c0,0 -1.92818,-0.48507 -1.44614,-2.42535z" fill="#927500" stroke="none" stroke-width="0.5" stroke-linecap="butt"/><path d="M79.97403,308.02877l-2.38502,0.6c-3.95652,0.9104 -11.4844,-0.53273 -14.03177,-4.38818c-1.49339,-2.26025 -0.98224,-5.80682 -0.95915,-8.3521c0.02744,-3.02387 -0.41619,-4.17789 1.69004,-6.72361c1.68781,-2.04001 4.9174,-2.32322 7.15996,-3.46525c0,0 1.7777,-0.89443 2.66653,0.89443c0.88884,1.78886 -0.88885,2.68328 -0.88885,2.68328c-1.3869,0.69064 -4.93778,1.30579 -5.95765,2.53475c-1.14973,1.38545 -0.71391,2.31923 -0.695,4.07639c0.01503,1.39642 -0.61512,4.77544 0.23336,6.04791c0.70135,1.05181 2.21307,1.21328 3.36336,1.72761c2.56717,1.14787 3.81817,1.83285 6.45508,1.0842l2.38502,-0.6c0,0 1.92818,-0.48507 2.41021,1.45522c0.48204,1.94029 -1.44613,2.42536 -1.44613,2.42536z" data-paper-data="{&quot;index&quot;:null}" fill="#927500" stroke="none" stroke-width="0.5" stroke-linecap="butt"/><path d="M426.62654,305.68849l-347.61679,-0.6" fill="none" stroke="#927500" stroke-width="4" stroke-linecap="round"/></g></g></g></svg>