<svg version="1.1" xmlns="http://www.w3.org/2000/svg" xmlns:xlink="http://www.w3.org/1999/xlink" width="69.44882" height="58.70078" viewBox="0,0,69.44882,58.70078"><defs><radialGradient cx="233.92152" cy="181.09735" r="34.72441" gradientUnits="userSpaceOnUse" id="color-1"><stop offset="0" stop-color="#66d6ff"/><stop offset="1" stop-color="#66d6ff" stop-opacity="0"/></radialGradient><radialGradient cx="238.9172" cy="182.49704" r="2.48457" gradientUnits="userSpaceOnUse" id="color-2"><stop offset="0" stop-color="#ff0000"/><stop offset="1" stop-color="#ff0000" stop-opacity="0"/></radialGradient></defs><g transform="translate(-199.19711,-151.74696)"><g data-paper-data="{&quot;isPaintingLayer&quot;:true}" fill-rule="nonzero" stroke="none" stroke-linecap="butt" stroke-linejoin="miter" stroke-miterlimit="10" stroke-dasharray="" stroke-dashoffset="0" style="mix-blend-mode: normal"><path d="M268.64593,181.09735c0,16.20977 -15.54665,29.35039 -34.72441,29.35039c-19.17776,0 -34.72441,-13.14062 -34.72441,-29.35039c0,-16.20977 15.54665,-29.35039 34.72441,-29.35039c19.17776,0 34.72441,13.14062 34.72441,29.35039z" fill="url(#color-1)" stroke-width="0"/><g data-paper-data="{&quot;index&quot;:null}" fill="#5e5600" stroke-width="0.5"><path d="M216.24876,183.16841c-0.69338,-1.04006 0.34668,-1.73344 0.34668,-1.73344l0.93702,-0.58819c1.85892,-0.7149 3.65298,-1.33775 5.37629,-2.3469c2.47109,-1.2978 5.32757,-1.54101 8.1119,-1.54441c6.46668,-0.00789 14.01351,0.25483 18.88527,5.09725c0,0 0.88388,0.88388 0,1.76776c-0.88388,0.88388 -1.76776,0 -1.76776,0c-4.3166,-4.34696 -11.39896,-4.35755 -17.1175,-4.36501c-2.28904,-0.00298 -4.88232,0.10829 -6.88926,1.22503c-1.8316,1.06462 -3.73082,1.74161 -5.70148,2.49963l-0.44771,0.33495c0,0 -1.04006,0.69338 -1.73343,-0.34668z"/><path d="M220.73958,180.10039c-0.95278,0.95995 -1.82629,1.89083 -2.76398,2.78614l0.10648,0.07454l-0.79773,1.1396c-0.22494,0.33048 -0.60416,0.5475 -1.03407,0.5475c-0.62152,0 -1.13711,-0.45361 -1.23374,-1.04783l-0.22689,-1.24788l0.03797,-0.0069l-0.05308,-0.10445c-0.00585,-1.73604 -0.40144,-4.51157 0.68423,-6.02429c0.70746,-0.98574 1.88062,-1.25844 2.87127,-1.77567c4.92872,-2.57333 9.93868,-2.51772 15.34779,-3.48109c4.65154,-0.01701 9.05915,0.86275 13.4476,2.37241c1.81828,0.6255 3.31825,0.83841 4.02439,2.92382c0.72105,2.12943 -0.35232,4.89824 -0.53674,7.02426c0,0 -0.11317,1.24487 -1.35803,1.1317c-1.24487,-0.11317 -1.1317,-1.35804 -1.1317,-1.35804c0.03128,-0.33129 0.17737,-0.97259 0.33758,-1.73352c-1.28935,-0.48243 -3.21133,-1.95858 -4.11616,-2.27977c-4.33913,-1.54026 -10.27808,-0.624 -14.82424,-0.624c-1.57704,0 -3.15408,0 -4.73113,0h-1.26933c-0.0379,0 -0.07541,-0.00169 -0.11245,-0.00499l-0.54406,0.30603l-0.0342,-0.0608c-0.65148,0.56349 -1.35658,1.08194 -2.08979,1.44322z"/></g><path d="M238.59313,182.49704c0,-1.37219 0.14509,-2.48457 0.32407,-2.48457c0.17898,0 0.32407,1.11238 0.32407,2.48457c0,1.37219 -0.14509,2.48457 -0.32407,2.48457c-0.17898,0 -0.32407,-1.11238 -0.32407,-2.48457z" fill="url(#color-2)" stroke-width="0"/><g fill="#736a00" stroke-width="0.5"><path d="M249.80881,177.59422c0.69338,1.04006 -0.34668,1.73344 -0.34668,1.73344l-0.93702,0.58819c-1.85892,0.7149 -3.65298,1.33775 -5.37629,2.3469c-2.47109,1.2978 -5.32757,1.54101 -8.1119,1.54441c-6.46668,0.00789 -14.01351,-0.25483 -18.88527,-5.09725c0,0 -0.88388,-0.88388 0,-1.76776c0.88388,-0.88388 1.76776,0 1.76776,0c4.3166,4.34696 11.39896,4.35755 17.1175,4.36501c2.28904,0.00298 4.88232,-0.10829 6.88926,-1.22504c1.8316,-1.06462 3.73082,-1.7416 5.70148,-2.49963l0.44771,-0.33496c0,0 1.04006,-0.69338 1.73344,0.34669z"/><path d="M245.31799,180.66223c0.95278,-0.95995 1.82629,-1.89084 2.76398,-2.78615l-0.10648,-0.07453l0.79773,-1.1396c0.22494,-0.33048 0.60416,-0.5475 1.03407,-0.5475c0.62153,0 1.13711,0.45361 1.23374,1.04783l0.22689,1.24789l-0.03796,0.0069l0.05308,0.10445c0.00585,1.73604 0.40144,4.51156 -0.68423,6.02428c-0.70746,0.98574 -1.88062,1.25844 -2.87127,1.77567c-4.92872,2.57333 -9.93868,2.51772 -15.34779,3.48109c-4.65154,0.01701 -9.05915,-0.86275 -13.4476,-2.37241c-1.81827,-0.6255 -3.31825,-0.83841 -4.02439,-2.92382c-0.72105,-2.12943 0.35233,-4.89824 0.53674,-7.02427c0,0 0.11317,-1.24487 1.35804,-1.1317c1.24487,0.11317 1.1317,1.35804 1.1317,1.35804c-0.03128,0.33129 -0.17737,0.97259 -0.33758,1.73352c1.28935,0.48243 3.21133,1.95858 4.11616,2.27977c4.33913,1.54026 10.27808,0.624 14.82424,0.624c1.57704,0 3.15408,0 4.73113,0h1.26933c0.0379,0 0.07541,0.00169 0.11245,0.00499l0.54406,-0.30603l0.0342,0.0608c0.65148,-0.56349 1.35658,-1.08194 2.08979,-1.44322z"/></g><path d="M216.03962,182.72657c-1.3213,-0.33032 -1.20336,-6.7438 -1.0897,-8.35587c0,-0.0371 0.00162,-0.07382 0.00478,-0.1101c0.05575,-0.63879 0.59196,-1.1399 1.24522,-1.1399c0.69036,0 1.25,0.55964 1.25,1.25c0,0.23197 -0.06319,0.44917 -0.17328,0.63535c0.8961,2.98528 0.86006,8.24479 -1.23702,7.72052z" fill="#736a00" stroke-width="0.5"/><path d="M227.30754,177.01368c0.00788,0.53969 0.57897,8.04793 -2.41518,5.05378c-1.18062,-1.18062 0.02555,-3.34317 -0.1025,-5.00791c-0.0802,-0.16494 -0.12518,-0.35017 -0.12518,-0.5459v0c0,-0.01752 0.00036,-0.03496 0.00107,-0.0523c0.03147,-1.11172 0.60037,-1.37505 1.20219,-1.19685c0.01551,-0.00057 0.03109,-0.00086 0.04674,-0.00086c0.65882,0 1.19859,0.50967 1.24653,1.15624c0.08992,0.19277 0.14342,0.39451 0.14633,0.59378z" fill="#736a00" stroke-width="0.5"/><path d="M232.6013,182.01236c-0.40483,2.05812 -2.62164,0.8165 -2.65066,-0.7842c-0.02305,-1.27166 -0.02668,-1.98608 -0.08494,-3.03474c-0.12702,-0.19565 -0.20078,-0.42908 -0.20078,-0.67972c0,-0.69036 0.55964,-1.25 1.25,-1.25c0.56797,0 1.04747,0.37882 1.19963,0.89757c0.6896,1.12114 0.74273,3.54973 0.48675,4.85109z" fill="#736a00" stroke-width="0.5"/><path d="M237.9587,183.01241c-1.5691,2.7971 -2.76348,-0.20239 -2.9908,-1.86447c-0.11041,-0.80731 -0.07979,-1.52811 -0.28084,-2.33232c-0.31605,-0.22684 -0.52192,-0.59747 -0.52192,-1.01619c0,-0.69036 0.55964,-1.25 1.25,-1.25c0.08821,0 0.1743,0.00914 0.25734,0.02652c1.71037,0.14658 2.88574,5.36775 2.28622,6.43646z" fill="#736a00" stroke-width="0.5"/><path d="M242.0411,176.28917c1.09865,0.99937 0.56187,4.90016 0.55289,5.15329c-0.05661,1.59449 -2.44097,1.59369 -2.5,0c-0.04679,-1.26318 0.33024,-2.59233 -0.06949,-3.79152c-0.04749,-0.1321 -0.07337,-0.27451 -0.07337,-0.42297c0,-0.69036 0.55964,-1.25 1.25,-1.25c0.09616,0 0.18977,0.01085 0.2797,0.03141c0.19593,0.03388 0.38797,0.12304 0.56028,0.27979z" fill="#736a00" stroke-width="0.5"/><path d="M219.34294,175.90642c-2.04296,0 -2.01253,-4.99302 -1.07727,-5.52744c0.21744,-0.36843 0.61849,-0.61559 1.07727,-0.61559c0.69036,0 1.25,0.55964 1.25,1.25c0,0.08766 -0.00903,0.17321 -0.02619,0.25577c0.85065,1.88223 0.72862,4.63726 -1.22381,4.63726z" fill="#5e5600" stroke-width="0.5"/><path d="M224.36182,170.45073c0.17076,1.46527 0.23482,6.32077 -2.25531,3.83065c-0.65474,-0.65474 -0.10047,-2.75842 -0.27823,-3.82501c-0.01371,-0.07415 -0.02088,-0.1506 -0.02088,-0.22872c0,-0.69036 0.55964,-1.25 1.25,-1.25c0.66942,0 1.21595,0.52623 1.24847,1.18758c0.02534,0.09013 0.04428,0.18536 0.05595,0.28551z" fill="#5e5600" stroke-width="0.5"/><path d="M228.3306,168.90709c0.60704,0.81559 0.4547,3.15664 0.40559,3.8921c-0.10646,1.59383 -2.3888,1.59121 -2.5,0c-0.0229,-0.32772 0.16005,-2.17065 -0.14252,-2.77579c-0.09145,-0.17371 -0.14321,-0.37157 -0.14321,-0.58151c0,-0.01788 0.00037,-0.03566 0.00112,-0.05336c0.03408,-1.16839 0.68245,-1.37543 1.31555,-1.19489c0.42473,0.12112 0.84259,0.41669 1.06348,0.71345z" fill="#5e5600" stroke-width="0.5"/><path d="M232.7566,168.25087c0.0782,0.05313 0.15023,0.11937 0.21651,0.19682c0.10221,0.10984 0.18489,0.23809 0.2425,0.37924c0.59869,1.22322 0.49683,3.62017 0.38573,4.185c-0.12348,0.62777 -0.73857,1.02481 -1.29073,1.01527c-1.90014,-0.03285 -1.35992,-2.90817 -1.35992,-4.14733c-0.09124,-0.17354 -0.14287,-0.37116 -0.14287,-0.58084c0,-0.69036 0.55964,-1.25 1.25,-1.25c0.11112,0 0.21885,0.0145 0.32141,0.04171c0.13329,0.02868 0.2613,0.08128 0.37736,0.16013z" fill="#5e5600" stroke-width="0.5"/><path d="M237.0564,169.49588c0.20815,1.28098 0.11835,6.42452 -2.37786,3.92831c-0.55826,-0.55826 0.05186,-2.92457 -0.08559,-3.47436c-0.09076,-0.17319 -0.14209,-0.37029 -0.14209,-0.57937c0,-0.01745 0.00035,-0.03481 0.00106,-0.05209c0.03343,-1.1881 0.67645,-1.41605 1.31663,-1.19611c0.57235,0.03054 1.04248,0.4461 1.1561,0.99236c0.06529,0.12535 0.11107,0.25399 0.13175,0.38127z" fill="#5e5600" stroke-width="0.5"/><path d="M243.29865,169.78687c0.79911,4.15588 -1.31997,5.1333 -2.58909,0.05682c-0.02876,-0.10523 -0.04412,-0.216 -0.04412,-0.33037c0,-0.25629 0.07712,-0.49456 0.20944,-0.69287c0.14176,-0.24926 0.33767,-0.39678 0.55755,-0.46039c0.1486,-0.06231 0.31179,-0.09673 0.48301,-0.09673c0.63649,0 1.16187,0.47572 1.23998,1.091c0.06486,0.13558 0.11401,0.28059 0.14323,0.43255z" fill="#5e5600" stroke-width="0.5"/><path d="M247.29511,170.10267c0.62602,1.25205 0.20936,2.79776 0.15625,4.1966c-0.0525,1.38277 -1.49921,1.46954 -2.34375,0.625c-0.92514,-0.92514 -0.15625,-2.61359 -0.15625,-3.92194c-0.04626,-0.13057 -0.07143,-0.2711 -0.07143,-0.41752c0,-0.02358 0.00065,-0.04702 0.00194,-0.07029c0.04071,-0.95268 0.65329,-1.26056 1.26413,-1.17961c0.4657,0.00587 0.87005,0.2664 1.08016,0.64876c0.02546,0.03845 0.04853,0.07817 0.06895,0.11901z" fill="#5e5600" stroke-width="0.5"/><path d="M238.9153,173.33487c-1.24094,0 -2.03974,-4.19171 -1.07727,-4.74169c0.21744,-0.36843 0.61849,-0.61559 1.07727,-0.61559c0.69036,0 1.25,0.55964 1.25,1.25c0,0.16465 -0.03184,0.32186 -0.08968,0.46582c0.5653,1.59056 0.51825,3.64146 -1.16032,3.64146z" fill="#5e5600" stroke-width="0.5"/><path d="M251.38791,172.29761c0,4.26366 -2.50779,5.21876 -2.50779,0.20479c-0.04626,-0.13057 -0.07143,-0.27111 -0.07143,-0.41753c0,-0.02071 0.00051,-0.0413 0.0015,-0.06177c0.03596,-1.00162 0.62526,-1.30038 1.23128,-1.18812c0.00573,-0.00008 0.01147,-0.00011 0.01722,-0.00011c0.58644,0 1.07856,0.40385 1.21342,0.94862c0.0736,0.16069 0.1158,0.33401 0.1158,0.51412z" fill="#5e5600" stroke-width="0.5"/><path d="M251.1285,174.63898c0.11604,0.54752 0.06737,1.1373 0.15591,1.70096c0.92423,5.88419 -5.12503,-1.87886 -2.73158,-3.24655c0.21744,-0.36843 0.61848,-0.61559 1.07726,-0.61559c0.69036,0 1.25,0.55964 1.25,1.25c0,0.05185 -0.00315,0.10298 -0.00929,0.15317c0.11613,0.2458 0.20353,0.5024 0.2577,0.758z" fill="#736a00" stroke-width="0.5"/><path d="M246.86652,175.24577c0.50243,1.00487 0.23202,4.30632 0.22768,4.41089c-0.05726,1.38087 -1.49648,1.47227 -2.34375,0.625c-0.82134,-0.82134 -0.29264,-2.96645 -0.20399,-4.07462c-0.06129,-0.14756 -0.09512,-0.3094 -0.09512,-0.47914c0,-0.02358 0.00065,-0.04702 0.00194,-0.07028c0.04071,-0.95268 0.65329,-1.26056 1.26413,-1.17961c0.4657,0.00587 0.87004,0.26641 1.08015,0.64876c0.02546,0.03845 0.04853,0.07816 0.06895,0.119z" fill="#736a00" stroke-width="0.5"/><path d="M222.43678,181.13885c-3.05593,3.05593 -2.55603,-5.17412 -2.51845,-5.31189c-0.02585,-0.10013 -0.03959,-0.20514 -0.03959,-0.31335c0,-0.69036 0.55964,-1.25 1.25,-1.25c0.47749,0 0.89243,0.26773 1.10294,0.66125c1.17867,1.22683 0.9538,5.46531 0.20511,6.214z" fill="#736a00" stroke-width="0.5"/></g></g></svg>