<svg version="1.1" xmlns="http://www.w3.org/2000/svg" xmlns:xlink="http://www.w3.org/1999/xlink" width="22.45737" height="21.45729" viewBox="0,0,22.45737,21.45729"><g transform="translate(-240.14386,-178.40622)"><g data-paper-data="{&quot;isPaintingLayer&quot;:true}" fill-rule="nonzero" stroke="none" stroke-linecap="butt" stroke-linejoin="miter" stroke-miterlimit="10" stroke-dasharray="" stroke-dashoffset="0" style="mix-blend-mode: normal"><path d="" data-paper-data="{&quot;index&quot;:null}" fill="#864e00" stroke-width="0.5"/><path d="" data-paper-data="{&quot;index&quot;:null}" fill="#7c4800" stroke-width="0.5"/><path d="" data-paper-data="{&quot;index&quot;:null}" fill="#7c4800" stroke-width="0.5"/><path d="M248.61248,182.45058c2.32003,1.55084 3.61148,3.68964 2.88453,4.77716c-0.72696,1.08752 -3.19703,0.71193 -5.51707,-0.83891c-2.32004,-1.55084 -3.61148,-3.68964 -2.88453,-4.77716c0.72695,-1.08752 3.19702,-0.71193 5.51706,0.83891z" data-paper-data="{&quot;index&quot;:null}" fill="#464442" stroke-width="0"/><path d="M245.31254,194.91194c-3.26809,-1.35005 -4.91053,-4.88185 -3.66848,-7.8885c1.24204,-3.00664 4.89823,-4.34958 8.16633,-2.99953c3.26809,1.35005 4.91053,4.88185 3.66848,7.8885c-1.24204,3.00664 -4.89823,4.34958 -8.16633,2.99953z" data-paper-data="{&quot;index&quot;:null}" fill="#464442" stroke-width="0"/><path d="M249.77716,191.79133c-0.32108,-1.03761 0.65693,-2.70608 2.18446,-3.72663c1.52753,-1.02055 3.02613,-1.00671 3.34721,0.0309c0.32108,1.03761 -0.65693,2.70608 -2.18446,3.72663c-1.52752,1.02055 -3.02613,1.00671 -3.34721,-0.0309z" data-paper-data="{&quot;index&quot;:null}" fill="#464442" stroke-width="0"/><path d="M253.36258,186.16584c1.64572,0.81638 2.38003,2.12281 1.64015,2.91799c-0.73989,0.79518 -2.6738,0.77798 -4.31951,-0.0384c-1.64571,-0.81638 -2.38003,-2.12281 -1.64015,-2.91799c0.73988,-0.79517 2.6738,-0.77797 4.31951,0.03841z" data-paper-data="{&quot;index&quot;:null}" fill="#464442" stroke-width="0"/><path d="M255.5855,189.18678c-0.09545,0.23106 -0.32651,0.13561 -0.32651,0.13561l-0.25726,-0.10628c-0.08575,-0.03543 -0.1715,-0.07085 -0.25726,-0.10628c0,0 -0.23106,-0.09545 -0.13561,-0.32651c0.09545,-0.23106 0.32651,-0.13561 0.32651,-0.13561c0.01487,0.00614 0.03749,0.01548 0.06515,0.02691c-0.17472,-1.36638 -1.88898,-1.61134 -3.05916,-2.09474c0,0 -0.23106,-0.09545 -0.13561,-0.32651c0.09545,-0.23106 0.32651,-0.13561 0.32651,-0.13561c1.46064,0.6034 3.3806,0.91652 3.38283,2.78257c0.05995,0.04764 0.13104,0.13968 0.07042,0.28644z" data-paper-data="{&quot;index&quot;:null}" fill="#2b2927" stroke-width="0.5"/><path d="M250.95618,191.61625c-0.08075,-0.14734 0.047,-0.28204 0.047,-0.28204c0.76918,-0.67572 1.19202,0.54205 0.17257,0.47175l-0.06713,-0.02173c0,0 -0.12296,-0.0508 -0.15243,-0.16798z" data-paper-data="{&quot;index&quot;:null}" fill="#000000" stroke-width="0.5"/><path d="M243.06506,192.06485c-1.30812,0 -2.36855,-2.26226 -2.36855,-5.0529c0,-2.79064 1.06044,-5.0529 2.36855,-5.0529c1.30812,0 2.36855,2.26226 2.36855,5.0529c0,2.79064 -1.06044,5.0529 -2.36855,5.0529z" data-paper-data="{&quot;index&quot;:null}" fill="#464442" stroke-width="0"/><path d="M249.28423,186.83562c0.23106,0.09545 0.13561,0.32651 0.13561,0.32651l-0.02794,0.06763c-0.58807,1.42355 -0.35081,1.86322 0.44242,3.04526c0,0 0.13931,0.20759 -0.06828,0.3469c-0.20759,0.13931 -0.3469,-0.06829 -0.3469,-0.06829c-0.87621,-1.30569 -1.13404,-1.95418 -0.48936,-3.51478l0.02794,-0.06763c0,0 0.09545,-0.23106 0.32651,-0.13561z" data-paper-data="{&quot;index&quot;:null}" fill="#2a251d" stroke-width="0.5"/><path d="M243.6572,190.95953c-1.94036,0 -3.51334,-2.81015 -3.51334,-6.27665c0,-3.4665 1.57297,-6.27665 3.51334,-6.27665c1.94036,0 3.51334,2.81015 3.51334,6.27665c0,3.4665 -1.57297,6.27665 -3.51334,6.27665z" data-paper-data="{&quot;index&quot;:null}" fill="#464442" stroke-width="0"/><path d="M256.53585,195.82264c0,0 -0.02201,-0.01761 -0.04534,-0.0484c-0.02225,-0.01568 -0.04183,-0.0349 -0.05792,-0.05684l-0.17133,-0.22844c-0.08155,-0.10874 -0.16449,-0.21573 -0.24893,-0.32079c-0.47719,-0.46094 -0.93959,-0.94817 -1.41871,-1.40659c-0.21818,-0.00923 -0.40018,-0.15828 -0.45873,-0.35984c-0.47467,-0.31795 -0.99172,-0.57856 -1.56038,-0.76792c0,0 -0.23718,-0.07906 -0.15812,-0.31623c0.07905,-0.23717 0.31623,-0.15811 0.31623,-0.15811c0.02475,0.00826 0.04941,0.01664 0.07398,0.02515c0.0058,-0.02791 0.01734,-0.05785 0.03644,-0.08968c0.02877,-0.04795 0.06183,-0.07875 0.09583,-0.09765c0.02622,-0.02972 0.05212,-0.05623 0.07771,-0.07972c-0.14248,-0.31112 -0.13338,-0.60174 0.30684,-0.69299c0.5093,-0.10557 1.98044,1.92724 2.82563,3.32677c0.09911,0.1148 0.19621,0.23213 0.29144,0.35177c0.59933,0.56426 1.22658,1.07765 1.94067,1.4347c1.35208,1.0072 2.68978,1.98723 4.05703,3.01266l0.08447,0.08092c0,0 0.17678,0.17678 0,0.35355c-0.17677,0.17677 -0.35355,0 -0.35355,0l-0.03091,-0.03447c-1.3556,-1.0167 -2.68693,-1.97968 -4.0199,-2.98734c-0.05218,-0.0261 -0.10389,-0.05301 -0.15515,-0.08073c-0.08946,0.01724 -0.17138,-0.02372 -0.17138,-0.02372l-0.2504,-0.12633c-0.33136,-0.24853 -0.67857,-0.44824 -1.00551,-0.70975z" data-paper-data="{&quot;index&quot;:null}" fill="#878484" stroke-width="0.5"/></g></g></svg>