<svg version="1.1" xmlns="http://www.w3.org/2000/svg" xmlns:xlink="http://www.w3.org/1999/xlink" width="16.35667" height="18.42603" viewBox="0,0,16.35667,18.42603"><g transform="translate(-232.08595,-178.73515)"><g data-paper-data="{&quot;isPaintingLayer&quot;:true}" fill-rule="nonzero" stroke="none" stroke-linecap="butt" stroke-linejoin="miter" stroke-miterlimit="10" stroke-dasharray="" stroke-dashoffset="0" style="mix-blend-mode: normal"><path d="M239.58056,178.76713c4.31757,-0.36477 8.10714,2.43086 8.67408,6.30863c-0.14389,0.89885 -0.17331,1.76602 -0.05794,2.33181c-0.64473,3.25427 -3.60641,5.86433 -7.36389,6.18178c-4.47138,0.37776 -8.37648,-2.63406 -8.72228,-6.7271c-0.3458,-4.09304 2.99866,-7.71733 7.47004,-8.09509z" data-paper-data="{&quot;index&quot;:null}" fill="#ffd118" stroke-width="0"/><path d="M240.19327,197.15584c-1.27263,0.10752 -2.44092,-1.42253 -2.60946,-3.41746c-0.16854,-1.99492 0.7265,-3.69929 1.99912,-3.80681c1.27263,-0.10752 2.44092,1.42253 2.60946,3.41746c0.16854,1.99492 -0.7265,3.69929 -1.99912,3.80681z" data-paper-data="{&quot;index&quot;:null}" fill="#ffd118" stroke-width="0"/><path d="M244.23103,187.78265c0.27516,-0.02325 0.51707,0.18097 0.54032,0.45613c0.02325,0.27516 -0.18097,0.51707 -0.45613,0.54032c-0.27516,0.02325 -0.51707,-0.18097 -0.54032,-0.45613c-0.02325,-0.27516 0.18097,-0.51707 0.45613,-0.54032z" data-paper-data="{&quot;index&quot;:null}" fill="#000000" stroke-width="0.5"/><path d="M247.2754,182.27487c0.10747,0.38725 0.3945,0.69348 0.75927,0.83272c0.13167,0.41967 0.27801,0.79009 0.40796,1.03996c-0.04309,0.17478 -0.08216,0.35192 -0.11696,0.52938l-0.34034,0.02875c-0.20759,0.01754 -0.41519,0.03508 -0.62278,0.05261c0,0 -0.49823,0.04209 -0.54032,-0.45613c-0.04209,-0.49823 0.45613,-0.54032 0.45613,-0.54032c0.06564,-0.00555 0.18109,-0.0153 0.31486,-0.0266c-0.10535,-0.17262 -0.21069,-0.34525 -0.31604,-0.51787c-0.14203,-0.04242 -0.30855,-0.152 -0.33212,-0.43093c-0.02818,-0.33354 0.1858,-0.46265 0.33034,-0.51157z" data-paper-data="{&quot;index&quot;:null}" fill="#000000" stroke-width="0.5"/><path d="M245.97654,189.14053c0.27516,-0.02325 0.51707,0.18097 0.54032,0.45613c0.02325,0.27516 -0.18097,0.51707 -0.45613,0.54032c-0.27516,0.02325 -0.51707,-0.18097 -0.54032,-0.45613c-0.02325,-0.27516 0.18097,-0.51707 0.45613,-0.54032z" data-paper-data="{&quot;index&quot;:null}" fill="#ffd118" stroke-width="0.5"/><path d="M247.97726,186.8918c0,0 -0.04042,0.02466 -0.0968,0.03493c-0.12943,0.07966 -0.33818,0.14138 -0.56857,-0.05311c-0.38206,-0.32254 -0.05953,-0.7046 -0.05953,-0.7046c0.18843,-0.21681 0.34511,-0.46766 0.4493,-0.73535l0.07079,-0.45537c0,0 0.0022,-0.01353 0.0081,-0.03576c-0.24634,0.02081 -0.49267,0.04162 -0.73902,0.06244c0,0 -0.24911,0.02105 -0.27016,-0.22807c-0.02105,-0.24911 0.22807,-0.27016 0.22807,-0.27016c0.35414,-0.02992 0.78154,-0.06603 1.13566,-0.09595c0,0 0.11018,-0.00931 0.19017,0.05773l0.04407,-0.00372c-0.17476,0.80997 -0.26225,1.64364 -0.24032,2.30407c-0.00234,0.00336 -0.00466,0.0067 -0.00697,0.01z" data-paper-data="{&quot;index&quot;:null}" fill="#ffd118" stroke-width="0.5"/></g></g></svg>