<svg version="1.1" xmlns="http://www.w3.org/2000/svg" xmlns:xlink="http://www.w3.org/1999/xlink" width="34.93812" height="51.92901" viewBox="0,0,34.93812,51.92901"><g transform="translate(-224.15569,-149.54392)"><g data-paper-data="{&quot;isPaintingLayer&quot;:true}" fill-rule="nonzero" stroke="none" stroke-width="0.5" stroke-linecap="butt" stroke-linejoin="miter" stroke-miterlimit="10" stroke-dasharray="" stroke-dashoffset="0" style="mix-blend-mode: normal"><path d="M256.4251,162.97393c1.9937,1.0429 0.9508,3.03661 0.9508,3.03661l-0.36441,0.67254c-3.49087,5.30735 -7.2371,10.15827 -11.39958,14.97472c-1.6492,1.90831 -3.69741,3.09786 -5.49136,4.83096c-4.03302,3.89622 -8.12897,8.74544 -10.71286,13.73146c0,0 -1.0429,1.9937 -3.03661,0.9508c-1.9937,-1.0429 -0.9508,-3.03661 -0.9508,-3.03661c3.7099,-7.03623 9.39376,-12.81822 15.35429,-17.9283c4.98297,-4.27199 8.90569,-10.56175 12.47685,-15.99525l0.13707,-0.28613c0,0 1.04291,-1.99371 3.03661,-0.9508z" fill="#3d3b14"/><path d="M251.88893,188.17071c-1.0429,1.9937 -3.03661,0.9508 -3.03661,0.9508l-0.99951,-0.62602c-1.74477,-1.69395 -3.28703,-2.86535 -5.51302,-3.85342c0,0 -2.0515,-0.92403 -1.12748,-2.97553c0.92403,-2.0515 2.97553,-1.12748 2.97553,-1.12748c2.67873,1.22099 4.67188,2.68214 6.79113,4.71959l-0.04084,-0.12455c0,0 1.9937,1.0429 0.9508,3.03661z" fill="#3d3b14"/><path d="M259.00318,165.17478c0.91325,4.45704 -5.29779,7.36982 -8.60929,5.8277c-1.59686,-0.74364 -2.30779,-2.17381 -2.90087,-3.63284c-4.40925,-4.04484 -10.0506,-7.44497 -15.37792,-10.05014c-0.42899,-0.20978 -4.39783,-1.67176 -4.75916,-2.03414c-0.05776,-0.05792 -0.11451,-0.11669 -0.17033,-0.17624l-0.0316,0.04257l-2.06878,-1.53566c-0.3788,-0.27428 -0.67565,-0.66857 -0.82614,-1.14919c-0.37131,-1.18587 0.28902,-2.44821 1.47489,-2.81952c0.33763,-0.10572 0.68146,-0.12781 1.00916,-0.07795l2.66817,0.34602l-0.00342,0.02641l0.07793,-0.01547c3.80978,0.77531 7.28597,2.36721 10.80119,3.99792c5.81192,2.69616 11.70628,5.25194 16.82672,9.14158c0,0 0.27699,0.21175 0.52954,0.57757c0.64999,0.39462 1.21778,0.83767 1.35992,1.5314z" fill="#919186"/></g></g></svg>