<svg version="1.1" xmlns="http://www.w3.org/2000/svg" xmlns:xlink="http://www.w3.org/1999/xlink" width="65.83048" height="73.2124" viewBox="0,0,65.83048,73.2124"><g transform="translate(-232.6394,-144.30115)"><g data-paper-data="{&quot;isPaintingLayer&quot;:true}" fill-rule="nonzero" stroke="none" stroke-linecap="butt" stroke-linejoin="miter" stroke-miterlimit="10" stroke-dasharray="" stroke-dashoffset="0" style="mix-blend-mode: normal"><g stroke-width="0.5"><path d="M239.67538,191.84319c-0.85547,1.49706 -6.81972,-2.32977 -6.87535,-3.33114c-0.10161,-0.15652 -0.16063,-0.34325 -0.16063,-0.54377c0,-0.55229 0.44771,-1 1,-1c0.31195,0 0.59053,0.14283 0.77392,0.36666c2.48758,0.25993 5.59985,3.91711 5.26206,4.50825z" fill="#9e6d39"/><path d="M251.83283,203.84041l0.0277,0.0277l0.11204,-0.02801l0.06212,0.24846c0.00575,0.02105 0.00882,0.0432 0.00882,0.06607c0,0.13807 -0.11193,0.25 -0.25,0.25c-0.06904,0 -0.13154,-0.02798 -0.17678,-0.07322l-0.16883,-0.16883c-0.61755,-0.30613 -1.04032,-0.90259 -1.58739,-1.27515c-0.22025,0.01149 -0.38832,-0.15657 -0.38832,-0.15657l-0.16227,-0.16435c-0.24341,-0.21062 -0.47138,-0.43653 -0.68348,-0.67616c-0.02505,-0.0099 -0.04912,-0.02177 -0.072,-0.03541l-0.42767,-0.24438c-1.07496,-0.53778 -1.96488,-1.23287 -2.80742,-2.08384c-2.24938,-1.48843 -4.56576,-3.00488 -6.39746,-4.99807c-0.82307,-0.89564 -1.96894,-0.95623 -1.56125,-2.41956c0,0 0.16435,-0.43827 0.59907,-0.3077c-0.03721,-0.22507 0.12423,-0.41342 0.12423,-0.41342c0.042,-0.04894 0.08718,-0.10331 0.13526,-0.1616c0.07868,-0.12801 0.17909,-0.25033 0.3036,-0.36401c0.51369,-0.59761 1.21565,-1.27691 1.92702,-0.99973c0.32811,0.12785 1.17854,1.47958 1.52727,1.80124c1.64387,1.51632 3.13725,3.12013 4.60554,4.79683c1.46508,1.65344 2.52602,3.36379 3.79111,5.1391l0.00334,0.02719l0.00975,-0.00557l0.24955,0.43671c0.04461,0.07482 0.07023,0.16226 0.07023,0.25569c0,0.02234 -0.00147,0.04434 -0.00431,0.06591c0.45904,0.43892 0.94014,0.91457 1.13053,1.46067z" fill="#9e8a74"/></g><g><path d="M273.99326,163.66306c0,7.61213 -6.54865,13.78297 -14.62683,13.78297c-8.07817,0 -14.62683,-6.17085 -14.62683,-13.78297c0,-7.61213 6.54865,-13.78297 14.62683,-13.78297c8.07817,0 14.62683,6.17085 14.62683,13.78297z" fill="#ff8800" stroke-width="0"/><path d="M248.2341,154.8105c-0.27348,0.59825 -0.55792,1.18062 -0.83308,1.74472c0,0 -0.1118,0.22361 -0.33541,0.1118c-0.22361,-0.1118 -0.1118,-0.33541 -0.1118,-0.33541c0.22367,-0.43839 0.44907,-0.88859 0.66757,-1.34931c-0.03866,-0.02057 -0.07568,-0.05614 -0.105,-0.1148c-0.1118,-0.22361 0.1118,-0.33541 0.1118,-0.33541l0.25955,-0.12536c0.80315,-1.78287 1.45553,-3.71002 1.48455,-5.71077c0.25567,-0.52883 0.24061,-1.62147 0.62874,-1.99303c0.6109,-0.58481 1.54993,0.09119 2.01533,0.54838c1.30949,1.2864 2.01392,2.68155 3.71143,3.53031c0.45165,0.22583 0.77264,0.38604 1.1334,0.74422l0.36693,0.19341c0.08186,0.04107 0.13805,0.12577 0.13805,0.22359c0,0.11246 -0.07426,0.20758 -0.17641,0.23899l-0.46887,0.15629l-0.02265,-0.06795c-1.22318,0.43823 -2.60215,0.34592 -3.88101,0.65095c-1.65522,0.39479 -2.82425,1.84891 -4.58311,1.88936z" fill="#ff8800" stroke-width="0.5"/><path d="M266.03848,152.85799c-1.27885,-0.30503 -2.65783,-0.21272 -3.88101,-0.65094l-0.02264,0.06794l-0.46888,-0.15629c-0.10216,-0.03142 -0.17641,-0.12654 -0.17641,-0.239c0,-0.09783 0.05618,-0.18252 0.13804,-0.22359l0.36694,-0.19342c0.36076,-0.35818 0.68176,-0.51839 1.13341,-0.74421c1.69751,-0.84876 2.40193,-2.24392 3.71142,-3.53031c0.4654,-0.45719 1.40444,-1.13319 2.01533,-0.54838c0.38813,0.37156 0.37306,1.4642 0.62874,1.99303c0.02902,2.00075 0.6814,3.9279 1.48454,5.71077l0.25955,0.12535c0,0 0.22361,0.11181 0.11181,0.33541c-0.02933,0.05866 -0.06635,0.09422 -0.10501,0.1148c0.21851,0.46072 0.44391,0.91092 0.66757,1.3493c0,0 0.1118,0.22361 -0.1118,0.33541c-0.2236,0.11181 -0.33541,-0.1118 -0.33541,-0.1118c-0.27516,-0.5641 -0.55961,-1.14648 -0.83308,-1.74472c-1.75886,-0.04045 -2.92789,-1.49457 -4.58311,-1.88936z" data-paper-data="{&quot;index&quot;:null}" fill="#ff8800" stroke-width="0.5"/><path d="M276.43106,188.22865c0,12.99758 -7.76603,23.53419 -17.34592,23.53419c-9.57989,0 -17.34592,-10.53662 -17.34592,-23.53419c0,-12.99758 7.76603,-23.53419 17.34592,-23.53419c9.57989,0 17.34592,10.53662 17.34592,23.53419z" fill="#ff8800" stroke-width="0"/><path d="M273.45157,194.57319c0,10.1495 -7.80801,18.3773 -17.43968,18.3773c-9.63167,0 -17.43968,-8.2278 -17.43968,-18.3773c0,-10.1495 7.80801,-18.3773 17.43968,-18.3773c9.63167,0 17.43968,8.2278 17.43968,18.3773z" fill="#ff8800" stroke-width="0"/><path d="M242.91741,181.20546c-3.82993,5.66163 -7.6301,9.78087 -8.48792,9.20058c-0.85782,-0.58029 1.55154,-5.64037 5.38147,-11.302c3.82993,-5.66163 7.6301,-9.78087 8.48792,-9.20058c0.85782,0.58029 -1.55154,5.64037 -5.38147,11.302z" fill="#ff8800" stroke-width="0"/><path d="M269.45408,174.42417c0.85782,-0.58029 4.65799,3.53895 8.48792,9.20058c3.82993,5.66163 6.23929,10.72171 5.38147,11.302c-0.85782,0.58029 -4.658,-3.53895 -8.48792,-9.20058c-3.82993,-5.66163 -6.23929,-10.72171 -5.38147,-11.30201z" data-paper-data="{&quot;index&quot;:null}" fill="#ff8800" stroke-width="0"/><path d="M255.80349,206.44968c0,5.28188 -2.98048,9.5637 -6.65708,9.5637c-3.67661,0 -6.65708,-4.28181 -6.65708,-9.5637c0,-5.28188 2.98048,-9.5637 6.65708,-9.5637c3.67661,0 6.65708,4.28181 6.65708,9.5637z" fill="#ff8800" stroke-width="0"/><path d="M277.11803,206.38654c0,5.28189 -2.98048,9.5637 -6.65709,9.5637c-3.6766,0 -6.65708,-4.28181 -6.65708,-9.5637c0,-5.28188 2.98048,-9.56369 6.65708,-9.56369c3.6766,0 6.65709,4.28181 6.65709,9.56369z" fill="#ff8800" stroke-width="0"/><path d="M244.64584,213.7631c3.9873,0 7.21965,0.83957 7.21965,1.87523c0,1.03566 -3.23235,1.87523 -7.21965,1.87523c-3.9873,0 -7.21965,-0.83957 -7.21965,-1.87523c0,-1.03566 3.23235,-1.87523 7.21965,-1.87523z" fill="#ff8800" stroke-width="0"/><path d="M274.77398,213.69996c3.9873,0 7.21965,0.83957 7.21965,1.87523c0,1.03567 -3.23235,1.87524 -7.21965,1.87524c-3.9873,0 -7.21965,-0.83958 -7.21965,-1.87524c0,-1.03566 3.23235,-1.87523 7.21965,-1.87523z" fill="#ff8800" stroke-width="0"/><path d="M297.38777,181.79441c-2.28591,-0.01074 -3.76103,1.60527 -5.71582,2.55878c-0.68066,0.33201 -1.78125,0.13334 -2.39061,0.53802c-1.77315,1.17755 -4.75046,3.77875 -5.73229,5.7424c-0.97508,1.30831 -2.1542,2.33115 -3.27465,3.45455c-0.46441,0.72289 -0.93943,1.44545 -1.42909,2.13787c-0.33122,1.1489 -0.40053,2.44594 -1.49646,3.2478c-1.42255,1.04083 -3.30508,0.56779 -4.84808,1.21307c0,0 -0.51649,0.2066 -0.83777,-0.18088c-0.97736,-0.00623 -1.98815,-0.07796 -3.00372,-0.07796c0,0 -0.25,0 -0.25,-0.25c0,-0.25 0.25,-0.25 0.25,-0.25c0.93817,0 1.88411,0.07084 2.80349,0.08779c-0.04443,-0.51154 0.48091,-0.72168 0.48091,-0.72168c1.3851,-0.53525 3.29601,-0.19512 4.5281,-1.03721c1.22525,-0.83742 0.99225,-3.23631 1.92548,-4.37269c1.18452,-1.44238 2.73354,-2.52721 3.87582,-4.03925c0.99732,-1.99464 4.37326,-5.12537 6.26921,-6.2591c0.41073,-0.24561 0.91155,-0.28029 1.40236,-0.3311c1.27175,-0.83034 2.27785,-1.32218 3.41568,-1.5952c1.27839,-0.73685 2.54637,-1.33541 4.26919,-1.35332c0.28012,0.0681 0.56024,0.1362 0.84036,0.2043l-0.41136,1.09136l0.04756,0.36385c-0.0561,-0.01452 -0.11219,-0.02903 -0.16829,-0.04355l-0.02486,0.06594c0,0 -0.30424,0 -0.52517,-0.19377z" fill="#ff8800" stroke-width="0.5"/><path d="M258.24138,199.76135c0,-0.41421 0.33579,-0.75 0.75,-0.75c0.41421,0 0.75,0.33579 0.75,0.75c0,0.41421 -0.33579,0.75 -0.75,0.75c-0.41421,0 -0.75,-0.33579 -0.75,-0.75z" fill="#422300" stroke-width="0.5"/><path d="M260.29843,167.48482c-0.72761,0.1819 -0.90951,-0.54571 -0.90951,-0.54571l-0.18752,-0.75009c-0.09205,-0.37865 -0.14944,-0.76648 -0.18051,-1.15633c-0.25312,0.02085 -0.51137,0.03565 -0.77959,0.03672c0,0 -0.75,0 -0.75,-0.75c0,-0.75 0.75,-0.75 0.75,-0.75c0.99253,0.00457 1.83549,-0.181 2.81285,-0.18752h0.37505c0,0 0.75,0 0.75,0.75c0,0.75 -0.75,0.75 -0.75,0.75h-0.37505c-0.18498,-0.00158 -0.36597,0.0042 -0.5447,0.0146c0.02279,0.31368 0.06873,0.62566 0.14716,0.92873l0.18752,0.75009c0,0 0.1819,0.72761 -0.54571,0.90951z" fill="#422300" stroke-width="0.5"/><path d="M264.24213,157.75609c0,-0.41421 0.33579,-0.75 0.75,-0.75c0.41421,0 0.75,0.33579 0.75,0.75c0,0.41421 -0.33579,0.75 -0.75,0.75c-0.41421,0 -0.75,-0.33579 -0.75,-0.75z" fill="#422300" stroke-width="0.5"/><path d="M253.74082,157.94362c0,-0.41421 0.33579,-0.75 0.75,-0.75c0.41421,0 0.75,0.33579 0.75,0.75c0,0.41421 -0.33579,0.75 -0.75,0.75c-0.41421,0 -0.75,-0.33579 -0.75,-0.75z" fill="#422300" stroke-width="0.5"/></g><path d="M247.16845,155.24741c-0.84366,-0.53688 -0.30678,-1.38054 -0.30678,-1.38054c1.00581,-1.57583 1.81243,-3.42595 3.49926,-4.4332c4.48383,-2.67742 10.60001,-1.20654 15.36267,-0.18151c2.59307,0.81034 3.79757,2.02696 5.66374,3.89182l0.42699,1.20074c0,0 0.06381,0.28714 -0.03352,0.58455c0.10499,0.19287 0.39646,0.86258 -0.30902,1.3329c-0.83205,0.5547 -1.38675,-0.27735 -1.38675,-0.27735l-0.16951,-0.25468c-0.72747,-1.1836 -1.60871,-1.57456 -2.92318,-1.97716c-4.42593,-2.20836 -13.87246,-1.33825 -18.03957,1.33652c0,0 -0.09806,0.0624 -0.24859,0.11122c-0.16783,0.12741 -0.37714,0.20302 -0.6041,0.20302c-0.04976,0 -0.09866,-0.00364 -0.14646,-0.01065c-0.21417,0.06212 -0.47954,0.0488 -0.78517,-0.14569z" fill="#352e27" stroke-width="0.5"/><path d="M273.65876,161.88304c-0.53247,0.41362 -3.13321,-0.56762 -3.86659,-0.64173c-2.80788,-0.28375 -5.67341,-0.70781 -8.50718,-0.7057c-4.00355,0 -8.14351,0.45319 -12.16123,0.70765c-0.68411,0.04333 -1.27294,0.66579 -1.9575,0.63023c-3.79124,-0.19691 -2.14372,-4.25798 -0.40143,-5.72415c0,0 0.00158,-0.00126 0.00466,-0.00361c0.01661,-0.61977 0.66367,-0.86241 0.66367,-0.86241c1.31035,-0.48491 2.61463,-0.94126 3.91903,-1.34465c1.46397,-0.58158 2.6042,-1.22402 4.2483,-1.24547l0.30931,-0.06535c0,0 0.2761,-0.04602 0.5605,0.05671c3.49779,-0.59521 7.05334,-0.59096 10.78278,0.47142c1.65028,0.81748 3.40012,1.62347 4.84136,2.75651l0.52316,0.69987c0,0 0.22489,0.33733 0.17349,0.72561c1.44812,1.52156 2.25523,3.46722 0.86767,4.54507zM266.01906,156.51048c-0.23464,0.13524 -0.47294,0.15357 -0.47294,0.15357c-1.41374,0.07712 -2.15531,1.27014 -0.34277,1.24039c0.94711,-0.01555 1.42858,-0.91713 0.81571,-1.39396zM254.2149,156.01144c-1.91345,0.42359 -0.60297,2.40282 1.12975,2.22414c2.14348,-0.22104 -0.29968,-2.0405 -0.98567,-2.24442l0.05723,0.04422c0,0 -0.08307,0 -0.20132,-0.02394z" fill="#191512" stroke-width="0.5"/><path d="M294.21627,145.30116c0,-0.55229 0.44772,-1 1,-1c0.55228,0 1,0.44771 1,1c0,0.55229 -0.44772,1 -1,1c-0.55228,0 -1,-0.44771 -1,-1z" fill="#191512" stroke-width="0.5"/></g></g></svg>