<svg version="1.1" xmlns="http://www.w3.org/2000/svg" xmlns:xlink="http://www.w3.org/1999/xlink" width="23.48717" height="43.19684" viewBox="0,0,23.48717,43.19684"><g transform="translate(-236.00097,-163.30863)"><g data-paper-data="{&quot;isPaintingLayer&quot;:true}" fill-rule="nonzero" stroke="none" stroke-linecap="butt" stroke-linejoin="miter" stroke-miterlimit="10" stroke-dasharray="" stroke-dashoffset="0" style="mix-blend-mode: normal"><path d="M256.26563,170.71064c0,4.08802 -3.53943,7.402 -7.90554,7.402c-4.36611,0 -7.90554,-3.31399 -7.90554,-7.402c0,-4.08802 3.53943,-7.40201 7.90554,-7.40201c4.36611,0 7.90554,3.31399 7.90554,7.40201z" fill="#2f2f2f" stroke-width="0"/><path d="M247.86011,184.38957c-1.91375,8.73535 -5.89307,15.28485 -8.88805,14.6287c-2.99498,-0.65614 -3.87148,-8.26946 -1.95773,-17.00481c1.91375,-8.73535 5.89306,-15.28485 8.88804,-14.6287c2.99498,0.65614 3.87149,8.26946 1.95774,17.00481z" fill="#2f2f2f" stroke-width="0"/><path d="M259.09173,187.6295c0,7.30002 -2.87015,13.21786 -6.41066,13.21786c-3.54051,0 -6.41066,-5.91784 -6.41066,-13.21786c0,-7.30002 2.87015,-13.21787 6.41066,-13.21787c3.54051,0 6.41066,5.91785 6.41066,13.21787z" fill="#2f2f2f" stroke-width="0"/><path d="M256.44816,195.89067c0,5.21952 -4.29043,9.45077 -9.58295,9.45077c-5.29252,0 -9.58295,-4.23126 -9.58295,-9.45077c0,-5.21952 4.29043,-9.45077 9.58295,-9.45077c5.29252,0 9.58295,4.23126 9.58295,9.45077z" fill="#2f2f2f" stroke-width="0"/><path d="M259.48814,204.65497c0,1.022 -2.82145,1.8505 -6.30189,1.8505c-3.48044,0 -6.30189,-0.8285 -6.30189,-1.8505c0,-1.022 2.82145,-1.8505 6.30189,-1.8505c3.48044,0 6.30189,0.8285 6.30189,1.8505z" fill="#48620d" stroke-width="0"/><path d="M253.78096,173.05263c-0.30957,0 -0.30957,-0.30957 -0.30957,-0.30957l0.00311,-0.06804c-0.11089,-0.7892 0.01484,-2.73082 0.65436,-3.64412c-0.00773,-0.03195 -0.011,-0.06855 -0.00821,-0.11043c0.02059,-0.30889 0.32949,-0.28829 0.32949,-0.28829c0.03131,0.00238 0.06229,0.00526 0.09294,0.00864c0.15021,-0.08084 0.31845,-0.1159 0.5063,-0.09277c0,0 0.11099,0.0222 0.18532,0.10686c0.47493,0.09112 0.84139,0.42396 1.10818,0.83383c0.08162,0.08684 0.16647,0.18023 0.2527,0.27854c0.26667,0.18573 0.48678,0.44288 0.6131,0.76133c0.03108,0.04236 0.06172,0.08485 0.09184,0.12739c0.17954,0.17336 0.35434,0.35444 0.50365,0.5315c0.01942,0.01591 0.03024,0.02781 0.03024,0.02781c0.27937,0.30748 0.49782,0.53226 0.69444,0.90468l-0.01695,0.0663l0.02844,-0.00203l0.02213,0.30992c0.00067,0.00833 0.00102,0.01674 0.00102,0.02524c0,0.17097 -0.1386,0.30957 -0.30957,0.30957c-0.00149,0 -0.00298,-0.00001 -0.00447,-0.00003c-0.74346,0.53409 -3.45315,0.29324 -4.17392,0.1986l-0.10059,-0.0341c-0.04493,0.03493 -0.10732,0.05918 -0.19397,0.05918z" fill="#82af17" stroke-width="0.5"/><path d="M258.97393,187.80504c0,6.24559 -1.73197,11.30864 -3.86847,11.30864c-2.1365,0 -3.86848,-5.06305 -3.86848,-11.30864c0,-6.24559 1.73198,-11.30865 3.86848,-11.30865c2.1365,0 3.86847,5.06306 3.86847,11.30865z" fill="#7a7a7a" stroke-width="0"/><path d="M252.46289,186.10335c1.54235,3.26464 1.90269,6.33161 0.80484,6.85028c-1.09784,0.51867 -3.23814,-1.70738 -4.78049,-4.97202c-1.54235,-3.26464 -1.90269,-6.33161 -0.80484,-6.85028c1.09784,-0.51867 3.23814,1.70738 4.78049,4.97202z" fill="#262626" stroke-width="0"/><path d="M251.7508,168.21472c0,0.25562 -0.28493,0.46284 -0.63641,0.46284c-0.35148,0 -0.6364,-0.20722 -0.6364,-0.46284c0,-0.25562 0.28493,-0.46284 0.6364,-0.46284c0.35148,0 0.63641,0.20722 0.63641,0.46284z" fill="#000000" stroke-width="0"/></g></g></svg>