<svg version="1.1" xmlns="http://www.w3.org/2000/svg" xmlns:xlink="http://www.w3.org/1999/xlink" width="53.25911" height="54.00679" viewBox="0,0,53.25911,54.00679"><g transform="translate(-203.72926,-152.78626)"><g data-paper-data="{&quot;isPaintingLayer&quot;:true}" fill-rule="nonzero" stroke="none" stroke-width="0.5" stroke-linecap="butt" stroke-linejoin="miter" stroke-miterlimit="10" stroke-dasharray="" stroke-dashoffset="0" style="mix-blend-mode: normal"><path d="" fill="#654400"/><path d="" fill="#654400"/><path d="" fill="#654400"/><path d="" fill="#654400"/><path d="" fill="#654400"/><path d="" fill="#654400"/><path d="" fill="#654400"/><path d="" fill="#654400"/><path d="" fill="#654400"/><path d="M221.16258,186.87009c2.05576,-2.41167 3.52128,-5.31951 5.58556,-7.67468c2.45504,-2.801 6.52828,-5.04099 9.40842,-7.50203c3.04573,-2.60252 10.2638,-8.25061 13.22745,-3.80515c2.45248,3.67872 -3.69856,6.48573 -5.87275,7.93587c-2.09374,1.39648 -3.51122,3.54412 -5.55922,4.80983c-1.72781,1.06782 -3.80409,1.88408 -5.35185,3.2521c-3.61137,3.19196 -5.78309,7.49015 -8.4849,11.3847c-0.6317,0.27623 -1.18231,0.59804 -1.41504,0.79277c-1.51244,1.26551 -5.77449,3.80392 -9.03653,6.15681c-1.66311,0.28439 -3.37207,2.14685 -4.24756,3.9759c-0.57634,0.44764 -1.25156,0.79396 -1.90058,0.46949c-1.5978,0 -2.9622,-0.99928 -3.50234,-2.40697c-0.24003,-0.37902 -0.3467,-0.79287 -0.24639,-1.24427c-0.00085,-0.03281 -0.00128,-0.06573 -0.00128,-0.09875c0,-1.3548 0.71845,-2.5418 1.79513,-3.20079c0.03887,-0.03636 0.07819,-0.0723 0.11796,-0.10784c1.83895,-0.13111 4.23628,-1.47261 5.94427,-2.7779c0.01248,0.00023 0.02499,0.00034 0.03752,0.00034c0.8746,0 1.61807,-0.56138 1.88975,-1.34347c2.87292,-2.1294 6.68717,-4.48726 7.38208,-8.35426c0.07861,-0.08664 0.15542,-0.17385 0.23031,-0.2617z" fill="#654400"/><path d="M221.81765,192.67736c-0.73233,-0.80391 -1.50234,-1.56327 -2.35643,-2.28333c0.31705,-0.42559 0.59816,-0.87282 0.83218,-1.34519c0.8251,0.63796 1.56137,1.39957 2.25414,2.20797c0.70539,0.7463 1.37233,1.53059 2.03294,2.35805l0.6075,0.60587c0,0 0.04266,0.04266 0.09168,0.11587c-0.24547,0.2375 -0.49097,0.4917 -0.72681,0.75597c-0.06606,0.02485 -0.13184,0.05056 -0.1971,0.07694c-0.16602,0.03127 -0.32479,0.08305 -0.4736,0.15261c-0.67799,-0.84017 -1.3481,-1.76411 -2.06452,-2.64476z" fill="#583a00"/><path d="M206.50804,199.86106c0,0 -0.12086,-0.14284 -0.17051,-0.34619c0.46851,-0.09472 0.96088,-0.25089 1.45985,-0.45127c1.23195,1.46689 2.40638,2.93815 3.50629,4.50809c-0.36474,0.35004 -0.70685,0.74704 -1.0137,1.1678c-1.17472,-1.71465 -2.43963,-3.2974 -3.78195,-4.87843z" fill="#583a00"/><path d="M223.62189,195.37825l-0.1056,-0.11246c-0.21424,-0.32136 -0.44398,-0.58363 -0.69525,-0.87687c-0.83584,-1.16848 -2.20792,-2.78883 -3.48377,-3.83192c0.09911,-0.12767 0.19503,-0.2573 0.28745,-0.38899c1.31341,1.08812 2.70906,2.67743 3.58996,3.9126c0.25827,0.30121 0.49692,0.57675 0.71764,0.90783l0.04313,0.03626c0,0 0.10198,0.10198 0.07357,0.22848c-0.12644,0.04565 -0.24697,0.10368 -0.36011,0.17262c-0.04143,-0.02197 -0.06701,-0.04755 -0.06701,-0.04755z" fill="#9b6700"/><path d="M221.88489,194.75188c-0.90035,-1.26811 -2.18036,-2.23716 -3.207,-3.42012c0.11326,-0.12232 0.22388,-0.24646 0.33153,-0.37253c1.0335,1.22422 2.35267,2.20738 3.28232,3.50204c0.30322,0.4246 0.55219,0.87631 0.84271,1.30817c-0.17578,0.10443 -0.31869,0.20053 -0.41507,0.27834c-0.28697,-0.42824 -0.53428,-0.87567 -0.8345,-1.29588z" fill="#9b6700"/><path d="M221.64818,196.73839c-0.94575,-1.68741 -2.61774,-2.99318 -3.86781,-4.5182c0.12231,-0.11193 0.24288,-0.22536 0.36139,-0.3404c1.25674,1.56891 2.94391,2.893 3.94054,4.61053l0.02591,0.03367c-0.12612,0.09303 -0.26092,0.19018 -0.40354,0.29114z" fill="#9b6700"/><path d="M220.80757,197.43024c-1.15577,-1.60027 -2.64818,-2.936 -3.87187,-4.47938c0.12827,-0.10546 0.2555,-0.2122 0.38139,-0.32032c1.22439,1.55673 2.72944,2.90002 3.89546,4.50646l0.01067,0.01331c-0.13334,0.09152 -0.27159,0.18548 -0.41425,0.28169z" fill="#9b6700"/><path d="M215.75641,193.87235c0.13173,-0.09874 0.26338,-0.19845 0.39463,-0.29925c1.25651,1.50149 3.04983,2.5765 4.29128,4.10475c-0.13514,0.09015 -0.27354,0.18199 -0.4148,0.27539c-1.23024,-1.52278 -3.00992,-2.59065 -4.27111,-4.08088z" fill="#9b6700"/><path d="M218.80312,198.53623c-1.18669,-1.44223 -2.77335,-2.54073 -4.09337,-3.89527c0.13643,-0.09891 0.27369,-0.19861 0.41141,-0.29921c1.37793,1.37487 3.13283,2.49147 4.22368,4.06068c-0.172,0.11276 -0.34705,0.22728 -0.52456,0.34334c-0.03253,-0.05096 -0.05372,-0.12228 -0.01714,-0.20955z" fill="#9b6700"/><path d="M213.77883,195.31748c0.13285,-0.09748 0.26743,-0.1955 0.40335,-0.29419c1.03954,1.46461 2.35556,3.1545 3.67281,4.35373c-0.14075,0.09219 -0.28236,0.18504 -0.42456,0.27846c-1.31113,-1.23325 -2.60842,-2.8747 -3.6516,-4.33801z" fill="#9b6700"/><path d="M217.17889,199.82094c-0.13743,0.09051 -0.27528,0.1815 -0.41332,0.27287c-1.06747,-1.42603 -2.54468,-2.48727 -3.73509,-3.80723c0.12176,-0.11453 0.22917,-0.24416 0.31923,-0.38589c1.20546,1.37355 2.72437,2.45591 3.82918,3.92025z" fill="#9b6700"/><path d="M216.18156,200.48211c-0.07983,0.05334 -0.15961,0.10676 -0.23932,0.16025c-1.02939,-1.14939 -2.90521,-2.45127 -4.11794,-3.81946c0.17375,-0.01409 0.34123,-0.05039 0.49958,-0.10605c1.11998,1.42681 2.58053,2.8055 3.85767,3.76526z" fill="#9b6700"/><path d="M214.57875,201.57273c-0.14122,0.09825 -0.28132,0.1964 -0.42002,0.29437c-1.02181,-1.57584 -2.49537,-2.81012 -3.4717,-4.3677c0.13896,-0.09328 0.27541,-0.18751 0.40885,-0.28219c0.9642,1.56341 2.46328,2.77581 3.48287,4.35553z" fill="#9b6700"/><path d="M209.63795,198.15481c0.14445,-0.08361 0.28762,-0.16922 0.42907,-0.25639c0.90946,1.54117 1.68854,3.13357 2.57095,4.68434c-0.14423,0.07595 -0.28743,0.16149 -0.42899,0.25552c-0.88182,-1.55095 -1.6612,-3.14289 -2.57103,-4.68347z" fill="#9b6700"/><path d="M208.37057,198.81585c0.1496,-0.06909 0.2992,-0.14153 0.44835,-0.21685c0.80564,1.66263 1.96445,3.03902 3.04551,4.4871c-0.12733,0.0986 -0.25288,0.20363 -0.37617,0.31425c-1.09506,-1.48735 -2.28674,-2.8876 -3.11769,-4.5845z" fill="#9b6700"/><path d="M237.82587,161.0062c0.34053,0.66868 0.58738,1.41684 0.78628,2.20268c1.49528,3.45491 2.6364,7.43461 4.85478,9.88495c0.83345,0.9206 3.35386,4.23833 4.96181,7.1683c2.51182,1.76781 6.02372,4.91618 7.40295,7.67566c1.67331,3.34785 2.23833,11.52593 -3.29489,9.85908c-2.8915,-0.87105 -1.65299,-4.17331 -2.78192,-6.46147c-1.9051,-3.86134 -7.2277,-4.81556 -9.73036,-7.68848c-2.63201,-3.0214 -4.66353,-7.91294 -6.39895,-11.70487c-0.36775,-0.80355 -1.30861,-4.12164 -1.78204,-6.90913c-0.06146,-0.08941 -0.12383,-0.17798 -0.18717,-0.26566c-2.00916,-2.78153 -5.58165,-3.19554 -8.29609,-4.34936c-0.7814,-0.33214 -2.41436,-0.77485 -2.46652,-1.81174c-0.34497,-0.58697 -0.54533,-1.28722 -0.54533,-2.03915c0,-1.84164 1.20189,-3.37321 2.78654,-3.68994c0.13158,-0.04696 0.27073,-0.07577 0.41869,-0.08343c3.85886,-0.19957 10.93876,3.68414 13.27234,7.03367c0.2798,0.22069 0.52799,0.48713 0.73563,0.78942c0.10119,0.11545 0.19027,0.24417 0.26426,0.38946z" fill="#505050"/><path d="M236.81802,182.18843c-0.11832,0.03276 -0.19868,-0.00069 -0.25131,-0.04749c-0.2483,-0.07027 -0.18438,-0.31802 -0.18438,-0.31802l0.02134,-0.08098l-0.00688,-0.02404c-0.14944,-0.23672 -0.26222,-0.46558 -0.44296,-0.68254c-1.28094,-1.86484 -3.07038,-3.86432 -4.83055,-5.31944c0,0 -0.20801,-0.17278 -0.02972,-0.37435c0.1783,-0.20157 0.38631,-0.0288 0.38631,-0.0288c1.77071,1.47696 3.56779,3.46617 4.87396,5.34801c-0.03417,-0.23158 -0.07021,-0.46408 -0.14808,-0.68921c-0.92929,-1.8079 -2.63722,-3.45011 -4.1043,-4.86553c0,0 -0.19373,-0.18773 0,-0.37545c0.19373,-0.18773 0.38745,0 0.38745,0c1.52257,1.48116 3.24997,3.15731 4.22308,5.03779c0.05219,0.15234 0.08288,0.31685 0.10756,0.48506c0.44664,-1.22702 1.075,-2.42225 1.26434,-3.6958c0.19226,-0.62101 0.31645,-1.27661 0.41719,-1.94545c-1.41776,-0.49564 -2.83537,-0.97611 -4.29925,-1.41163c0,0 -0.26185,-0.07807 -0.18128,-0.33183c0.08057,-0.25374 0.34243,-0.17567 0.34243,-0.17567c1.43366,0.42844 2.82443,0.89833 4.21437,1.38296c0.03843,-0.28348 0.07482,-0.56829 0.11247,-0.85287c-1.30493,-0.29217 -2.62143,-0.51741 -3.98158,-0.51519c0,0 -0.27397,0 -0.27397,-0.26549c0,-0.26549 0.27397,-0.26549 0.27397,-0.26549c1.38617,0.00204 2.72516,0.22935 4.053,0.5236c0.19199,-1.34626 0.45833,-2.66518 1.15326,-3.78752c0,0 0.00731,-0.01181 0.02138,-0.02843c-0.01828,-0.71475 -0.0774,-1.4263 -0.19864,-2.12962l-0.03699,-0.09724c0,0 -0.08664,-0.25186 0.17327,-0.33582c0.25991,-0.08396 0.34656,0.1679 0.34656,0.1679l0.05764,0.17785c0.36075,2.1019 0.19046,4.27444 0.00628,6.39153c0.48424,0.11783 0.96883,0.23652 1.45554,0.34831c1.19068,0.27488 2.44776,0.46094 3.65954,0.65284l0.0969,-0.00361c0,0 0.27397,0 0.27397,0.26549c0,0.26549 -0.27397,0.26549 -0.27397,0.26549l-0.18698,-0.00361c-1.2254,-0.20122 -2.49099,-0.38213 -3.69637,-0.66005c-0.47615,-0.11031 -0.95065,-0.2277 -1.42505,-0.34438c-0.05724,0.33997 -0.09234,0.6807 -0.11355,1.02203c0.66281,0.23369 1.32884,0.46854 2.00261,0.70169c1.57185,0.46835 3.05149,1.12668 4.63017,1.56035l0.15332,0.04925c0,0 0.25991,0.08396 0.17327,0.33582c-0.08664,0.25186 -0.34656,0.1679 -0.34656,0.1679l-0.13058,-0.04244c-1.58439,-0.44172 -3.07388,-1.0963 -4.65238,-1.567c-0.62344,-0.21579 -1.24001,-0.43315 -1.85341,-0.64971c-0.04011,1.60413 0.12742,3.21981 -0.34733,4.83114c0,0 -0.07527,0.25527 -0.3387,0.18234c-0.26343,-0.07293 -0.18817,-0.3282 -0.18817,-0.3282c0.47921,-1.62414 0.29795,-3.2528 0.34332,-4.87268c-0.16685,-0.05887 -0.33355,-0.11763 -0.50016,-0.17623c-0.09608,0.6473 -0.21544,1.28042 -0.4004,1.87781c-0.23384,1.60015 -1.18224,3.07385 -1.56412,4.64446c0.01945,0.03898 0.04092,0.07688 0.06473,0.11354l0.08104,0.31377c0,0 0.05284,0.25602 -0.2083,0.31105c-0.02568,0.0548 -0.07679,0.10682 -0.17435,0.13383zM239.54532,174.41542c0.02167,-0.32232 0.05635,-0.64424 0.11107,-0.96564c-0.14825,-0.03595 -0.29654,-0.07153 -0.44493,-0.10653c-0.03935,0.30488 -0.07699,0.61015 -0.11714,0.91362c0.15027,0.05273 0.30058,0.10559 0.45101,0.15855zM239.74637,172.92914c0.0796,-0.94012 0.15798,-1.89132 0.18552,-2.84185c-0.34304,0.85117 -0.51684,1.78364 -0.6502,2.73182c0.15496,0.03613 0.30983,0.07289 0.46467,0.11004z" fill="#012800"/><path d="M233.9969,173.16353c-0.20801,-0.13868 -0.06934,-0.34669 -0.06934,-0.34669l0.13368,-0.19964c0.12371,-0.21672 0.34306,-0.39744 0.58127,-0.47178c0,0 0.24254,-0.06063 0.30317,0.1819c0.06063,0.24254 -0.1819,0.30317 -0.1819,0.30317c-0.119,0.01483 -0.22717,0.12569 -0.27008,0.23768l-0.15011,0.22603c0,0 -0.13868,0.20801 -0.34669,0.06934z" fill="#012800"/><path d="M246.37544,174.30349c0,0.25 -0.25,0.25 -0.25,0.25h-0.07095c-0.21102,-0.00126 -0.42318,-0.02842 -0.6282,-0.07841c0,0 -0.24254,-0.06063 -0.1819,-0.30317c0.06063,-0.24254 0.30317,-0.1819 0.30317,-0.1819c0.16491,0.04248 0.33664,0.06474 0.50693,0.06348h0.07095c0,0 0.25,0 0.25,0.25z" fill="#012800"/><path d="M231.82814,174.80012c0,-0.13807 0.11193,-0.25 0.25,-0.25c0.13807,0 0.25,0.11193 0.25,0.25c0,0.13807 -0.11193,0.25 -0.25,0.25c-0.13807,0 -0.25,-0.11193 -0.25,-0.25z" fill="#012800"/><path d="M237.89571,180.72241c0.02506,0 0.04926,0.00369 0.07209,0.01055c0.0395,-0.01055 0.06981,-0.01055 0.06981,-0.01055l0.02192,0.00485c0.4933,-0.09521 1.18341,-0.45084 1.147,-1.03188c0,0 0,-0.25 0.25,-0.25c0.25,0 0.25,0.25 0.25,0.25c-0.02993,0.8464 -0.77839,1.36357 -1.54894,1.52217l-0.03476,0.00141c-0.03961,0.0858 -0.1264,0.14534 -0.2271,0.14534c-0.10667,0 -0.19774,-0.06681 -0.23364,-0.16086c-0.04586,0.05495 -0.11486,0.08992 -0.19203,0.08992c-0.13807,0 -0.25,-0.11193 -0.25,-0.25c0,-0.13807 0.11193,-0.25 0.25,-0.25c0.07717,0 0.14617,0.03497 0.19203,0.08992c0.0359,-0.09406 0.12697,-0.16086 0.23364,-0.16086z" fill="#012800"/><path d="M239.95314,166.98593c-0.25,0 -0.25,-0.25 -0.25,-0.25c0,-0.09459 0,-0.47297 0,-0.56757c0,0 0,-0.25 0.25,-0.25c0.25,0 0.25,0.25 0.25,0.25c0,0.09459 0,0.18919 0,0.28378v0.28378c0,0 0,0.25 -0.25,0.25z" fill="#012800"/></g></g></svg>