<svg version="1.1" xmlns="http://www.w3.org/2000/svg" xmlns:xlink="http://www.w3.org/1999/xlink" width="77.22696" height="42.73006" viewBox="0,0,77.22696,42.73006"><g transform="translate(-199.20402,-152.75537)"><g data-paper-data="{&quot;isPaintingLayer&quot;:true}" fill="#6d542c" fill-rule="nonzero" stroke="none" stroke-linecap="butt" stroke-linejoin="miter" stroke-miterlimit="10" stroke-dasharray="" stroke-dashoffset="0" style="mix-blend-mode: normal"><path d="M256.79908,174.01304c0,11.74029 -11.45382,21.25767 -25.58282,21.25767c-14.129,0 -25.58282,-9.51738 -25.58282,-21.25767c0,-11.74029 11.45382,-21.25767 25.58282,-21.25767c14.129,0 25.58282,9.51738 25.58282,21.25767z" stroke-width="0"/><path d="M276.43098,174.22776c0,11.74029 -11.45381,21.25767 -25.58282,21.25767c-14.12901,0 -25.58282,-9.51738 -25.58282,-21.25767c0,-11.74028 11.45382,-21.25767 25.58282,-21.25767c14.12901,0 25.58282,9.51738 25.58282,21.25767z" stroke-width="0"/><path d="M229.74387,195.36273v-42.33129h23.65031v42.33129z" stroke-width="0"/><path d="M206.1928,170.74645c0.97868,0.36998 3.14957,2.79411 3.76795,3.67612c2.07248,2.63629 4.25722,4.8815 5.79539,7.95783c1.09443,2.19173 2.28154,4.92458 2.42826,7.37932c0.0483,0.80811 0.26928,1.87042 -0.34628,2.44141c-2.90123,-0.68784 -5.61981,-1.13559 -8.47108,-2.14721c-0.67114,-0.75014 -2.57152,-0.62324 -3.51907,-0.79858c-1.23962,-0.22938 -2.08947,-0.99971 -3.0851,-1.67417c-1.88362,-0.65773 -4.0991,-3.69025 -3.44022,-5.73308c0.76306,-2.28917 3.10265,-4.08714 4.17546,-6.23277c1.57139,-1.49469 1.46539,-4.58933 2.93493,-6.05888c0.46629,-1.30366 2.53929,-3.48565 3.90661,-3.97077c0,0 0.23717,-0.07906 0.31623,0.15811c0.07906,0.23717 -0.15811,0.31623 -0.15811,0.31623c-1.19554,0.36084 -3.29693,2.63691 -3.6394,3.75929c-0.26464,0.26464 -0.48058,0.57949 -0.66557,0.92714z" stroke-width="0.5"/></g></g></svg>