<svg version="1.1" xmlns="http://www.w3.org/2000/svg" xmlns:xlink="http://www.w3.org/1999/xlink" width="42.86074" height="53.59286" viewBox="0,0,42.86074,53.59286"><g transform="translate(-218.89707,-147.94873)"><g data-paper-data="{&quot;isPaintingLayer&quot;:true}" fill-rule="nonzero" stroke="none" stroke-width="0.5" stroke-linecap="butt" stroke-linejoin="miter" stroke-miterlimit="10" stroke-dasharray="" stroke-dashoffset="0" style="mix-blend-mode: normal"><path d="M258.37346,162.65267c2.99852,3.05899 3.1006,6.6122 3.26366,10.68826c0.30178,7.54353 0.26838,14.25862 -2.92263,21.17642c-1.36918,1.62491 -2.88194,3.39223 -4.63547,4.75151c-0.2045,0.05851 -0.38659,0.1212 -0.54082,0.18745c-3.20923,1.37838 -9.70196,0.89538 -14.41736,2.01909c-0.25473,0.00777 -0.50974,0.0143 -0.76477,0.01925c-3.55687,-0.36341 -7.03247,-1.31589 -10.57157,-1.77226c-4.08495,-1.68858 -7.72426,-6.15263 -8.58631,-10.30053c-0.6688,-3.21805 -0.03735,-7.37898 0.11959,-10.64019c0.11808,-2.45374 -0.02352,-4.76537 0.41976,-7.20342c0.22678,-2.28535 0.50154,-5.33379 2.06701,-7.19164c0.08815,-0.10461 0.17774,-0.20753 0.26873,-0.30877c0.53509,-0.52501 1.01941,-0.96355 1.42149,-1.16873c1.57649,-0.8045 3.23676,-1.47819 4.91457,-2.12426c0.64639,-0.04372 1.25909,-0.21028 1.81493,-0.47654c3.06577,-0.33612 6.9284,-0.86533 7.32262,-0.87568c7.34103,-0.19276 13.74403,1.27067 20.31673,2.8062c0.17348,0.13439 0.34351,0.27237 0.50983,0.41384z" fill="#ea5a00"/><path d="M232.31255,160.19224c-0.00275,0.12893 -0.01963,0.21333 -0.01963,0.21333c-0.73295,3.64667 -2.41208,7.03352 -3.43387,10.60147c-1.22311,4.27093 -1.60552,9.96758 -1.58777,14.38295c-0.01053,1.88593 0.63562,3.25485 1.05648,5.0269c0.66998,2.82101 0.56113,5.39992 2.16292,7.9482l0.09664,0.05137c0,0 0.40377,0.40377 0.39261,0.93842c0.23589,0.22737 0.38263,0.5466 0.38263,0.9001c0,0.01981 -0.00046,0.03951 -0.00137,0.0591c-0.95562,-0.18169 -1.91231,-0.35384 -2.87298,-0.49461l-0.11752,-0.12938c-1.7564,-2.8243 -1.73218,-5.58355 -2.47387,-8.68967c-0.46436,-1.94468 -1.11587,-3.54565 -1.12554,-5.61043c0.01612,-4.66288 0.40054,-10.56861 1.68526,-15.07427c0.94151,-3.302 2.48646,-6.44904 3.25532,-9.79621c0.17546,-0.0611 0.34648,-0.13171 0.51242,-0.2112c0.69174,-0.07584 1.42405,-0.16151 2.14793,-0.24883c-0.01735,0.04559 -0.0373,0.08991 -0.05965,0.13276z" fill="#bb4800"/><path d="M237.86338,200.66411c0,-0.20706 0.05034,-0.40236 0.13946,-0.57432c-0.00001,-0.0681 0.00456,-0.10922 0.00456,-0.10922l0.13386,-1.20251c0.33702,-3.6712 -0.34397,-7.24744 0.27188,-10.90001c-0.01224,-4.01545 -0.68688,-7.89698 -0.68614,-11.89799c0.00103,-5.53018 0.62384,-11.02451 0.67811,-16.56254c0.84493,-0.00761 1.67777,0.00632 2.50027,0.03929c-0.04298,4.96071 -0.47161,9.85331 -0.67967,14.807c-0.19479,4.63768 0.69125,9.17472 0.67891,13.82044c-0.60198,3.65199 0.05773,7.24168 -0.27363,10.92015l-0.13889,1.25225c0,0 -0.0222,0.19982 -0.12893,0.43028c-0.00361,0.20177 -0.05503,0.39187 -0.14341,0.55945c-0.4697,0.08534 -0.92687,0.18276 -1.36721,0.29521c-0.04938,-0.00437 -0.09882,-0.00881 -0.14831,-0.01331c-0.18119,-0.01647 -0.36215,-0.03456 -0.54291,-0.05412c-0.18582,-0.21817 -0.29796,-0.50102 -0.29796,-0.81005z" fill="#bb4800"/><path d="M248.63508,200.28653c0.00564,-0.28137 0.09141,-0.49579 0.09141,-0.49579l0.24749,-0.61293c0.76238,-2.27898 1.71768,-4.10353 1.70874,-6.55989c0.00531,-2.16813 0.60071,-4.17107 0.6828,-6.32127c0.18299,-4.79327 -0.54995,-9.26021 -1.21736,-13.97011c-0.56047,-3.95521 -0.28278,-7.94592 -0.89945,-11.9278c0.86844,0.15309 1.7315,0.31927 2.59165,0.49499c0.45738,3.70767 0.25637,7.42808 0.78592,11.10275c0.69749,4.84004 1.44245,9.47039 1.23741,14.39611c-0.08844,2.12456 -0.68688,4.0939 -0.68096,6.22533c-0.00862,2.75324 -0.99181,4.8048 -1.83703,7.35046l-0.04434,0.11172c-0.85702,0.15531 -1.8047,0.2639 -2.80311,0.35312c0.04165,-0.05249 0.08743,-0.10155 0.13684,-0.1467z" fill="#bb4800"/><path d="M253.56924,198.8686c0.13364,0 0.26238,0.02097 0.38312,0.05981c0.10843,-0.48273 0.52685,-0.7816 0.52685,-0.7816l0.74046,-0.48784c2.02519,-2.31445 3.38796,-4.37909 3.37416,-7.55245c0.73496,-8.08457 0.68402,-19.84901 -3.51316,-26.99786c0,0 -0.15416,-0.26428 -0.1792,-0.60761c-0.66484,-0.01646 -1.20085,-0.55203 -1.21804,-1.21668c1.23887,0.27106 2.47538,0.55675 3.71704,0.84635c4.26829,7.64123 4.46516,19.57099 3.69079,28.08909c-0.01372,3.50768 -1.40482,6.02002 -3.55436,8.57762c-1.57619,0.05552 -3.1799,0.30722 -3.99869,0.65889c-0.35833,0.1539 -0.75759,0.2846 -1.19074,0.39692c0.12169,-0.56288 0.62248,-0.98462 1.22177,-0.98462z" fill="#bb4800"/><path d="M243.55667,149.46876c-0.1149,0.38725 -0.88601,0.63363 -1.18604,0.85302c-0.29163,0.21324 -0.92633,0.97457 -1.17993,1.17737c0.1601,0.6489 0.36979,1.27352 0.64397,1.95546l0.16761,1.26779c0,0 0.0046,0.05055 0.00175,0.13221c0.8755,1.08662 1.75022,2.10113 2.86122,2.92962c0.90578,0.20641 1.6556,0.46748 2.05658,0.76109c0.05187,0.03798 0.10254,0.07728 0.15213,0.11776l0.02202,-0.04128l1.22723,0.65452c0.40625,0.20639 0.6846,0.62825 0.6846,1.11512c0,0.69036 -0.55964,1.25 -1.25,1.25c-0.10812,0 -0.21302,-0.01373 -0.31308,-0.03953l-1.38996,-0.32705l0.01118,-0.0475l-0.12016,0.01659c-0.31305,-0.13711 -0.61127,-0.28221 -0.89654,-0.43477c-0.83718,0.01758 -1.86228,-0.29552 -2.86407,-0.57942c-0.22243,0.20387 -0.51887,0.32829 -0.84438,0.32829c-0.01046,0 -0.02089,-0.00013 -0.03129,-0.00038c0.16416,0.44838 0.35641,0.90898 0.58066,1.38862l0.07401,0.08525c0,0 0.69338,1.04006 -0.34669,1.73344c-1.04006,0.69338 -1.73344,-0.34669 -1.73344,-0.34669l-0.25934,-0.41478c-0.11954,-0.25659 -0.23131,-0.50932 -0.33573,-0.75887c-0.05256,-0.03514 -0.08182,-0.05953 -0.08182,-0.05953l-0.54445,-0.45552c-0.49183,-0.45084 -0.98365,-0.90168 -1.47548,-1.35252c-0.28773,-0.00516 -0.55937,-0.07518 -0.79637,-0.25168c-0.215,0.08092 -0.43764,0.16699 -0.6695,0.25993l-1.26656,0.30741c0,0 -0.28963,0.06684 -0.61902,-0.00591c-0.38971,0.32239 -0.7864,0.65159 -1.18809,0.99222l-0.59025,0.59635c0,0 -0.88388,0.88388 -1.76777,0c-0.88388,-0.88388 0,-1.76777 0,-1.76777l0.74316,-0.73705c3.28132,-2.77095 6.36325,-4.55749 7.49032,-8.85542c-0.03208,-0.19013 -0.06141,-0.38359 -0.08815,-0.58129c0,0 -0.1652,-1.23903 1.07383,-1.40424c0.11754,-0.01567 0.22542,-0.01871 0.32442,-0.01136c1.57577,-1.19316 4.35371,-1.57359 3.72345,0.55051z" fill="#065a00"/><path d="M240.49312,155.37603c0.24515,0.04903 0.19612,0.29417 0.19612,0.29417l-0.03879,0.19057c-0.20646,1.63173 0.16011,3.06665 0.89334,4.52962c0,0 0.1118,0.22361 -0.1118,0.33541c-0.22361,0.1118 -0.33541,-0.1118 -0.33541,-0.1118c-0.77399,-1.55142 -1.1562,-3.08443 -0.94226,-4.81524l0.04464,-0.22661c0,0 0.04903,-0.24515 0.29417,-0.19612z" fill="#044100"/><path d="M243.01586,159.19901c-0.24038,0.06868 -0.30906,-0.1717 -0.30906,-0.1717l-0.06074,-0.23777c-0.5477,-0.56455 -0.9482,-1.15919 -1.33436,-1.8345c0,0 -0.12403,-0.21706 0.09303,-0.3411c0.21706,-0.12403 0.3411,0.09303 0.3411,0.09303c0.38739,0.67837 0.80738,1.25163 1.3356,1.83669l0.10614,0.34629c0,0 0.06868,0.24038 -0.1717,0.30906z" fill="#044100"/><path d="M234.53699,159.40894c-0.2,-0.15 -0.05,-0.35 -0.05,-0.35l0.16898,-0.21209c0.50691,-0.40025 1.10866,-0.81467 1.56469,-1.27482c0,0 0.17678,-0.17678 0.35355,0c0.17678,0.17678 0,0.35355 0,0.35355c-0.478,0.47437 -1.08364,0.88944 -1.60589,1.3117l-0.08133,0.12166c0,0 -0.15,0.2 -0.35,0.05z" fill="#044100"/><path d="M238.1496,159.41722c-0.25,0 -0.25,-0.25 -0.25,-0.25v-0.20859c0.00163,-0.33523 -0.07519,-0.63518 -0.12264,-0.96588c0,0 -0.03536,-0.24749 0.21213,-0.28284c0.24749,-0.03536 0.28284,0.21213 0.28284,0.21213c0.05051,0.35523 0.12617,0.67573 0.12767,1.03659v0.20859c0,0 0,0.25 -0.25,0.25z" fill="#044100"/><path d="M238.19243,154.18342c-0.21706,-0.12403 -0.09303,-0.3411 -0.09303,-0.3411l0.17717,-0.30852c0.22117,-0.27753 1.14695,-1.14802 1.0181,-1.55926c-0.07034,-0.2245 -0.62931,-0.42009 -0.75648,-0.76596c0,0 -0.07906,-0.23717 0.15811,-0.31623c0.23717,-0.07906 0.31623,0.15811 0.31623,0.15811c0.10684,0.38789 0.62079,0.36884 0.74538,0.7359c0.23792,0.70096 -0.68704,1.5545 -1.06781,2.0285l-0.15658,0.27553c0,0 -0.12403,0.21706 -0.3411,0.09303z" fill="#044100"/><path d="M236.89805,156.26055c-0.25,0 -0.25,-0.25 -0.25,-0.25l0.01283,-0.0461c-0.08846,-0.26538 -0.17118,-0.51261 -0.21802,-0.78888c0,0 -0.0411,-0.2466 0.2055,-0.2877c0.2466,-0.0411 0.2877,0.2055 0.2877,0.2055c0.04091,0.2505 0.11896,0.47235 0.19916,0.71297l0.01283,0.20421c0,0 0,0.25 -0.25,0.25z" fill="#044100"/><path d="M231.16915,161.09957c-0.20801,-0.13868 -0.06934,-0.34669 -0.06934,-0.34669l0.06166,-0.08496c0.35221,-0.82182 0.57349,-1.54504 1.27957,-2.13776c0,0 0.19206,-0.16005 0.3521,0.03201c0.16005,0.19206 -0.03201,0.3521 -0.03201,0.3521c-0.64344,0.53163 -0.82052,1.20495 -1.14009,1.95061l-0.10521,0.16535c0,0 -0.13868,0.20801 -0.34669,0.06934z" fill="#044100"/><path d="M240.6483,150.86608c-0.23717,0.07906 -0.31623,-0.15811 -0.31623,-0.15811l-0.05455,-0.20421c0.00733,-0.47757 -0.15522,-0.96746 -0.53195,-1.26492c0,0 -0.19522,-0.15617 -0.03904,-0.35139c0.15617,-0.19522 0.35139,-0.03904 0.35139,-0.03904c0.50041,0.4046 0.71252,1.01838 0.7196,1.65535l0.02889,0.0461c0,0 0.07906,0.23717 -0.15811,0.31623z" fill="#044100"/><path d="M242.78,149.04361c0,0.23308 -0.21731,0.24885 -0.24672,0.24992c-0.38038,0.13935 -0.69392,0.21692 -1.01134,0.48447c0,0 -0.19206,0.16005 -0.3521,-0.03201c-0.16005,-0.19206 0.03201,-0.3521 0.03201,-0.3521c0.37947,-0.31322 0.74598,-0.41431 1.19865,-0.58436l0.1295,-0.01592c0,0 0.25,0 0.25,0.25z" fill="#044100"/><path d="M241.19502,154.88385c-0.17815,0 -0.22935,-0.12694 -0.24406,-0.19991c-0.42592,-0.58742 -0.17096,-0.99211 -0.17281,-1.67709c0,0 0,-0.25 0.25,-0.25c0.25,0 0.25,0.25 0.25,0.25c-0.00135,0.57548 -0.27389,0.95232 0.11209,1.42911l0.05478,0.19789c0,0 0,0.25 -0.25,0.25z" fill="#044100"/><path d="M247.0908,160.43209c-0.20801,0.13868 -0.34669,-0.06934 -0.34669,-0.06934l-0.09903,-0.15203c-0.27693,-0.55946 -0.6203,-0.90898 -1.10067,-1.29328c0,0 -0.19522,-0.15617 -0.03904,-0.35139c0.15617,-0.19522 0.35139,-0.03904 0.35139,-0.03904c0.53608,0.42886 0.92278,0.84 1.23554,1.46011l0.06784,0.09828c0,0 0.13868,0.20801 -0.06934,0.34669z" fill="#044100"/><path d="M257.61369,169.30494c0.17373,-0.08678 0.329,-0.12336 0.45748,-0.09235c2.18747,0.52795 1.46931,6.61661 0.36586,7.77103c-1.03116,1.07879 -6.81394,1.54907 -8.11258,0.9276c-0.81172,-0.38845 -1.88584,-0.91262 -2.00826,-1.80413c-0.11291,-0.8223 0.9158,-1.39491 1.48619,-1.99787c1.66369,-1.75868 4.52794,-3.17925 6.48572,-4.66241c0,0 0.66877,-0.50665 1.32558,-0.14186z" fill="#afb900"/><path d="M226.34596,169.79579c0.0077,-0.22449 0.0902,-0.47508 0.30218,-0.74005c0.78087,-0.97609 1.75695,-0.19522 1.75695,-0.19522c1.78848,1.43514 3.76295,2.60632 5.56024,4.04381l1.00193,0.80155c0.29115,0.22886 0.47815,0.58424 0.47815,0.9833c0,0.66183 -0.51435,1.20353 -1.16512,1.24716l-1.30325,0.10025l-0.01389,-0.18061c-2.17541,0.5748 -4.88018,0.92183 -6.32107,-0.11721c-1.06819,-0.77028 -1.99432,-4.98418 -0.48378,-5.85343c0.06151,-0.0354 0.12411,-0.06513 0.18766,-0.08955z" fill="#afb900"/><path d="M225.6498,186.53216c0,0 -0.65512,-1.06457 0.40945,-1.71969c1.06457,-0.65512 1.71969,0.40945 1.71969,0.40945c0.05326,0.08666 0.14363,0.26915 0.23814,0.48586l0.16078,-0.38587c0.1817,-0.46588 0.6348,-0.79597 1.16499,-0.79597c0.50988,0 0.94846,0.30528 1.14292,0.74304l0.55251,1.17407c0.57648,-0.19156 1.19629,-1.67322 1.94388,-1.5765c0.54381,0.07035 0.43959,1.00671 0.708,1.48487c0.05709,0.1017 -0.14395,-0.25554 -0.06721,-0.34335c0.45936,-0.5256 0.88396,-1.48484 1.57423,-1.38099c0.69448,0.10448 1.72527,1.15783 1.98636,1.87925c0.55366,-0.53818 1.1163,-1.36437 1.86113,-1.26888c0.55582,0.07126 0.90704,0.56123 1.25231,1.06338c0.57044,-1.11583 2.94416,-1.03569 3.99342,-0.37808c0.34012,0.21317 0.04594,0.81451 0.19025,1.18908c0.06251,0.16224 -0.04202,-0.38297 0.06866,-0.51705c0.48206,-0.58396 0.90091,-1.68362 1.64847,-1.56303c0.71778,0.11578 1.16205,0.77525 1.61766,1.41216c0.39082,-0.59099 0.87916,-1.14354 1.50753,-1.10864c0.67428,0.03744 1.64317,1.06109 2.02459,1.83573c0.44887,-0.49626 1.16676,-1.03875 1.62736,-1.1223c0.49837,-0.09041 0.84084,0.73985 1.34614,0.70487c0.57709,-0.03996 0.93359,-1.08087 1.48331,-0.90079c4.1358,1.35485 1.09618,7.04989 0.32595,9.53795l-0.29004,1.25684c-0.11835,0.56727 -0.62123,0.99341 -1.22364,0.99341c-0.51134,0 -0.95097,-0.30704 -1.14459,-0.74681l-0.57671,-1.23581c-0.57837,0.42794 -1.43745,-0.09203 -1.91022,-0.68834c-0.55417,0.94276 -2.14918,2.51673 -2.5209,2.46575c-0.51588,-0.07076 -1.16061,-0.80232 -1.52396,-1.47698c-0.26452,0.42062 -0.65098,0.81301 -0.97847,0.89311c-0.86683,0.21203 -1.84397,-0.12634 -2.61426,-0.57691c-0.31283,-0.18299 0.00647,-0.7705 -0.19931,-1.06884c-0.13335,-0.19333 0.07553,0.5062 -0.05333,0.70256c-0.42393,0.64598 -0.77052,1.74844 -1.54295,1.72984c-0.7001,-0.01686 -1.63444,-0.80097 -1.90711,-1.53113c-0.2439,0.58854 -0.64109,1.24838 -1.03027,1.30091c-1.62918,0.21988 -2.15352,-1.31432 -2.62715,-2.31259c-0.13906,-0.82521 0.16482,0.66279 -0.72371,0.83931c-0.89939,0.17868 -1.87827,-0.03564 -2.72265,-0.39321c-0.26099,-0.11052 0.10202,-0.90429 -0.17221,-0.83266c-0.46085,0.12039 -0.42171,1.13725 -0.89736,1.11205c-0.55917,-0.02962 -0.59613,-1.17276 -1.15403,-1.22071c-0.52298,-0.04495 -0.67633,1.02562 -1.20119,1.01829c-0.61788,-0.00863 -0.93461,-0.86883 -1.52341,-1.05635c-0.53103,-0.16912 -1.23996,0.39156 -1.67146,0.03887c-1.343,-1.09771 -0.8615,-3.84809 -0.85443,-5.31764l0.06096,-0.12161l-0.04017,-0.00861l0.29823,-1.39175c0.06358,-0.32935 0.25644,-0.61265 0.52368,-0.79498c-0.10096,-0.16975 -0.18852,-0.31881 -0.25985,-0.43458zM255.17705,190.33552c-0.04073,-0.00709 -0.06389,-0.01307 -0.06389,-0.01307l0.07704,-0.02811c0.00156,-0.0049 0.00311,-0.0098 0.00467,-0.0147c-0.03952,0.01251 -0.07899,0.02534 -0.11839,0.03846c0.02183,0.04592 0.0426,0.09128 0.06233,0.13607c0.01279,-0.03954 0.02557,-0.07908 0.03825,-0.11866z" fill="#afb900"/><path d="M236.99593,180.78933c0.09494,-0.38427 0.35941,-0.64874 0.35941,-0.64874l-0.02594,0.04757c0.53625,-0.73536 1.89438,-2.8151 2.83063,-2.73888c1.98455,0.16157 3.09295,3.16645 1.92376,4.63136c-0.21933,0.2748 -3.29078,0.61434 -3.89172,0.68965c0,0 -1.24035,0.15504 -1.39539,-1.0853c-0.05025,-0.402 0.04608,-0.69 0.19924,-0.89566z" fill="#afb900"/></g></g></svg>