<svg version="1.1" xmlns="http://www.w3.org/2000/svg" xmlns:xlink="http://www.w3.org/1999/xlink" width="41.63153" height="27.7139" viewBox="0,0,41.63153,27.7139"><g transform="translate(-214.84799,-165.20983)"><g data-paper-data="{&quot;isPaintingLayer&quot;:true}" fill-rule="nonzero" stroke-linecap="butt" stroke-linejoin="miter" stroke-miterlimit="10" stroke-dasharray="" stroke-dashoffset="0" style="mix-blend-mode: normal"><g><path d="M255.30944,168.22778c2.24483,4.06875 -4.73105,12.21992 -15.58106,18.20613c-10.85001,5.98621 -21.46548,7.54062 -23.71031,3.47186c-2.24483,-4.06875 4.73105,-12.21992 15.58106,-18.20613c10.85001,-5.98621 21.46548,-7.54062 23.71031,-3.47187z" fill="#887313" stroke="#000000" stroke-width="1.5"/><path d="M225.00541,183.80133c-0.87558,0.48308 -1.35866,-0.3925 -1.35866,-0.3925l-0.09677,-0.1754c-0.69478,-1.2593 -1.58549,-2.08859 -2.28635,-3.31461c0,0 -0.48308,-0.87558 0.3925,-1.35866c0.87558,-0.48308 1.35866,0.3925 1.35866,0.3925c0.62177,1.1886 1.60603,2.08152 2.28635,3.31461l0.09677,0.1754c0,0 0.48308,0.87558 -0.3925,1.35866z" fill="#000000" stroke="none" stroke-width="0.5"/><path d="M229.91683,181.09158c-0.87558,0.48308 -1.35866,-0.3925 -1.35866,-0.3925l-0.29033,-0.52622c-0.49835,-0.95268 -1.25536,-1.43291 -2.05237,-2.16733c0,0 -0.73517,-0.67788 -0.05729,-1.41305c0.67788,-0.73517 1.41306,-0.05729 1.41306,-0.05729c0.97543,0.90005 1.78491,1.512 2.44775,2.67151l0.29033,0.52622c0,0 0.48308,0.87558 -0.3925,1.35866z" fill="#000000" stroke="none" stroke-width="0.5"/><path d="M235.06414,177.56528c-0.87558,0.48308 -1.35866,-0.3925 -1.35866,-0.3925l-0.27536,-0.5393c-0.36371,-0.46337 -0.9126,-0.78126 -1.4629,-0.99142c0,0 -0.92419,-0.38193 -0.54226,-1.30612c0.38194,-0.92419 1.30613,-0.54225 1.30613,-0.54225c0.82903,0.36086 1.62774,0.87167 2.22671,1.54898l0.49885,0.86396c0,0 0.48308,0.87558 -0.3925,1.35866z" fill="#000000" stroke="none" stroke-width="0.5"/><path d="M241.76593,174.78295c-0.87558,0.48308 -1.35866,-0.3925 -1.35866,-0.3925l-0.19355,-0.35081c-0.95795,-1.73629 -1.68144,-2.25249 -3.53313,-3.08548c0,0 -0.91181,-0.41062 -0.50119,-1.32242c0.41062,-0.91181 1.32242,-0.50119 1.32242,-0.50119c2.20183,0.99254 3.30692,1.84744 4.46305,3.94294l0.19355,0.35081c0,0 0.48308,0.87558 -0.3925,1.35866z" fill="#000000" stroke="none" stroke-width="0.5"/><path d="M246.60311,171.85126c-0.73227,0.68101 -1.41328,-0.05126 -1.41328,-0.05126l-0.24086,-0.37406c-1.29393,-0.5946 -2.06814,-1.32498 -3.07485,-2.33586c0,0 -0.70503,-0.70918 0.00415,-1.41421c0.70918,-0.70503 1.41421,0.00415 1.41421,0.00415c0.84318,0.84971 1.39661,1.44829 2.47772,1.92231l0.88417,0.83565c0,0 0.68101,0.73227 -0.05126,1.41329z" fill="#000000" stroke="none" stroke-width="0.5"/><path d="M248.45108,170.53128c-0.60142,-0.17374 -0.71757,-0.61521 -0.72034,-0.92112c-0.38577,-0.3582 -0.85592,-0.63503 -1.32563,-0.86975c0,0 -0.88763,-0.46056 -0.42707,-1.34819c0.46056,-0.88763 1.34819,-0.42707 1.34819,-0.42707c0.82593,0.44078 1.62952,0.98226 2.24486,1.68782l0.11825,1.19514c0,0 -0.27754,0.96071 -1.23826,0.68318z" fill="#000000" stroke="none" stroke-width="0.5"/></g></g></g></svg>