<svg version="1.1" xmlns="http://www.w3.org/2000/svg" xmlns:xlink="http://www.w3.org/1999/xlink" width="23.95283" height="34.49306" viewBox="0,0,23.95283,34.49306"><g transform="translate(-230.56079,-168.52257)"><g data-paper-data="{&quot;isPaintingLayer&quot;:true}" fill-opacity="0.30196" fill="#a60000" fill-rule="nonzero" stroke="none" stroke-width="0.5" stroke-linecap="butt" stroke-linejoin="miter" stroke-miterlimit="10" stroke-dasharray="" stroke-dashoffset="0" style="mix-blend-mode: normal"><path d="M233.35404,196.43834c-1.36545,-2.42743 1.06157,-7.03736 2.83571,-8.78742c0.82609,-0.81488 2.34512,-0.6449 3.27889,-1.222c1.53143,-0.94647 2.83014,-2.59808 4.89333,-2.08228c3.63808,0.90952 4.47035,2.97748 6.55156,5.54384c0.61386,0.75696 1.72234,1.63975 1.99811,2.58113c0.67498,2.30408 -1.50644,4.77574 -3.94155,3.81645c-1.83642,-0.72344 -3.3588,-3.62217 -5.57834,-3.40239c-1.28918,0.12765 -3.01019,3.08599 -4.95801,3.61172c-0.11057,0.13715 -0.23343,0.26397 -0.36692,0.37878c-0.52912,0.61517 -1.31319,1.00475 -2.18826,1.00475c-0.93892,0 -1.77308,-0.4485 -2.29994,-1.14294c-0.08599,-0.08882 -0.1617,-0.18786 -0.22457,-0.29964z"/><path d="M234.93214,200.85176c0,-1.19507 0.9688,-2.16387 2.16387,-2.16387c1.19507,0 2.16387,0.9688 2.16387,2.16387c0,1.19507 -0.9688,2.16387 -2.16387,2.16387c-1.19507,0 -2.16387,-0.9688 -2.16387,-2.16387z"/><path d="M245.182,199.00454c0,-1.19507 0.9688,-2.16387 2.16387,-2.16387c1.19507,0 2.16387,0.9688 2.16387,2.16387c0,1.19507 -0.9688,2.16387 -2.16387,2.16387c-1.19507,0 -2.16387,-0.9688 -2.16387,-2.16387z"/><path d="M237.89886,182.48879c-0.49533,1.486 -3.0185,1.20704 -3.08885,-0.05924c-0.05806,-0.08944 -0.10541,-0.18647 -0.14023,-0.28928c-0.41153,-0.26894 -0.79178,-0.63011 -1.07183,-1.05792c-0.0182,-0.00597 -0.03649,-0.01202 -0.05487,-0.01815c-0.17913,-0.05971 -0.45591,-0.39787 -0.72383,-0.85437c-0.09452,-0.03724 -0.1893,-0.08212 -0.28404,-0.13509c-0.78013,-0.43617 -2.11692,-3.06695 -1.04003,-3.68232c0.37641,-0.63778 1.07067,-1.06563 1.86486,-1.06563c0.80865,0 1.5137,0.44357 1.8851,1.10068c0.2469,0.23277 0.43648,0.51365 0.52662,0.87422c0.04925,0.197 0.07078,0.3965 0.06766,0.59425c0.00771,0.06908 0.01167,0.13929 0.01167,0.21042c0,0.00865 -0.00006,0.01729 -0.00018,0.02592c0.31534,0.46549 0.57778,0.95599 0.73741,1.41306c0.27569,0.2825 0.48133,0.57636 0.5651,0.82939c0.09783,0.29553 0.15851,0.55917 0.18703,0.79278c0.41923,0.39564 0.70299,0.88749 0.55839,1.32129z"/><path d="M238.95323,178.33321c-0.06449,-0.06662 -0.12127,-0.1409 -0.16843,-0.22473c-0.75699,-1.34573 -0.76755,-4.11773 0.90127,-4.674c2.44651,-0.8155 3.44919,2.8978 3.11613,4.25155c0.03864,0.14999 0.0592,0.30724 0.0592,0.46929c0,0.24769 -0.04802,0.48416 -0.13525,0.70061c0.01784,0.23067 0.03751,0.44732 0.07762,0.60774v0.61569c0,0.3945 -0.14396,0.75537 -0.38221,1.03296c-0.00249,0.00448 -0.00499,0.00894 -0.00749,0.01338c-0.00451,0.62713 -0.13088,1.15994 -0.38608,1.30577l-1.11892,0.63938c-0.57918,-0.33096 -0.92555,-0.38636 -1.115,-0.6328c-0.06645,-0.08644 -0.1136,-0.19639 -0.14471,-0.34998c-0.02522,-0.10102 -0.03861,-0.20672 -0.03861,-0.31555c-0.01695,-0.263 -0.03559,-0.86298 0.03262,-1.48686c-0.00877,-0.06752 -0.01329,-0.13638 -0.01329,-0.2063c0,-0.07879 0.00574,-0.15625 0.01683,-0.23197c-0.06303,-0.17116 -0.11626,-0.34589 -0.1579,-0.52079c-0.1914,-0.21974 -0.33949,-0.51328 -0.42097,-0.88872c-0.04045,-0.03273 -0.07884,-0.06751 -0.11482,-0.10468z"/><path d="M246.52013,173.01558c1.2489,0 3.52221,3.16163 1.86486,4.10869c-0.0884,0.14978 -0.19433,0.28798 -0.31496,0.41179c-0.03061,0.17503 -0.0843,0.34699 -0.15689,0.51323c-0.02634,0.1767 -0.07732,0.34536 -0.14935,0.50235c-0.00619,0.09947 -0.01991,0.1986 -0.04163,0.29632c-0.04535,0.20406 -0.14274,0.53923 -0.28771,0.88414c-0.05643,0.20487 -0.1529,0.39314 -0.28048,0.55587c-0.00162,0.00264 -0.00324,0.00527 -0.00486,0.0079c-0.1689,1.01516 -0.46071,1.8982 -0.74145,2.05863c-0.22585,0.38267 -0.6424,0.63938 -1.11892,0.63938c-0.71704,0 -1.29832,-0.58128 -1.29832,-1.29832c0,-0.25166 0.0716,-0.48659 0.19554,-0.68554c-0.01674,-0.42189 0.04194,-0.8653 0.1541,-1.29937c-0.03972,-0.11295 -0.05005,-0.23255 -0.02192,-0.35912c-0.00036,-0.01389 -0.00054,-0.02782 -0.00054,-0.04179c0,-0.10194 0.00961,-0.20163 0.02798,-0.29822c-0.06853,-0.21446 -0.10658,-0.47432 -0.10658,-0.78435c-0.03657,-0.14618 -0.05599,-0.29916 -0.05599,-0.45667c0,-0.13638 0.01456,-0.26936 0.0422,-0.39747c0.0296,-0.30429 0.06697,-0.69155 0.12044,-1.0294c-0.30753,-1.45932 0.40369,-3.32805 2.17449,-3.32805z"/><path d="M231.28208,169.94541c0.72129,0 0.72129,0.72129 0.72129,0.72129l-0.03701,0.00279c0.17678,0.53448 0.30838,1.08463 0.41019,1.6383c0,0 0.12903,0.70966 -0.58063,0.83869c-0.70966,0.12903 -0.83869,-0.58063 -0.83869,-0.58063c-0.08742,-0.487 -0.20171,-0.9712 -0.35943,-1.44017l-0.03701,-0.45898c0,0 0,-0.72129 0.72129,-0.72129z"/><path d="M239.36984,169.22476c0.72129,0 0.72129,0.72129 0.72129,0.72129c0,0.28219 0,0.71831 0,1.0005c0,0 0,0.72129 -0.72129,0.72129c-0.72129,0 -0.72129,-0.72129 -0.72129,-0.72129c0,-0.28219 0,-0.56439 0,-0.84658v-0.15392c0,0 0,-0.72129 0.72129,-0.72129z"/><path d="M247.20999,168.56912c0.68428,0.22809 0.45618,0.91237 0.45618,0.91237l-0.17908,0.52662c-0.10262,0.23089 -0.20523,0.46177 -0.30785,0.69266c0,0 -0.29294,0.65912 -0.95207,0.36618c-0.65912,-0.29294 -0.36618,-0.95207 -0.36618,-0.95207c0.10262,-0.23089 0.20523,-0.46177 0.30785,-0.69266l0.12877,-0.39692c0,0 0.22809,-0.68428 0.91237,-0.45618z"/><path d="M252.97151,170.81918c0.64514,0.32257 0.32257,0.96771 0.32257,0.96771l-0.00081,-0.16865c0,0.30785 0,0.61569 0,0.92354c0,0 0,0.72129 -0.72129,0.72129c-0.72129,0 -0.72129,-0.72129 -0.72129,-0.72129c0,-0.30785 0,-0.61569 0,-0.92354l0.15311,-0.47649c0,0 0.32257,-0.64514 0.96771,-0.32257z"/><path d="M252.74328,174.61238c1.21923,0.27062 2.75344,3.84974 0.93025,4.41517c-0.11875,0.12707 -0.25211,0.23903 -0.39671,0.33375c-0.06781,0.16424 -0.15749,0.32048 -0.26438,0.46704c-0.064,0.1668 -0.15032,0.3204 -0.25465,0.45805c-0.0276,0.09576 -0.06247,0.18957 -0.10485,0.28026c-0.08849,0.18939 -0.25619,0.49548 -0.47246,0.80079c-0.09948,0.18778 -0.23446,0.35067 -0.39426,0.48188c-0.00215,0.00222 -0.0043,0.00444 -0.00645,0.00666c-0.38486,0.95444 -0.86108,1.75327 -1.16992,1.84905c-0.3034,0.32464 -0.76569,0.48499 -1.23088,0.38174c-0.70001,-0.15537 -1.14152,-0.8488 -0.98615,-1.54881c0.05453,-0.24568 0.17534,-0.45952 0.33944,-0.62688c0.07508,-0.4155 0.22844,-0.83566 0.432,-1.23511c-0.0143,-0.11888 0.00153,-0.23786 0.05641,-0.35534c0.00266,-0.01363 0.0055,-0.02727 0.00853,-0.04091c0.02209,-0.09951 0.05307,-0.19476 0.09193,-0.28507c-0.02043,-0.22422 -0.00127,-0.48614 0.06591,-0.78881c-0.00403,-0.15063 0.01016,-0.30418 0.04429,-0.45795c0.02955,-0.13314 0.07258,-0.2598 0.12732,-0.37888c0.09483,-0.29065 0.21523,-0.66061 0.34063,-0.97885c0.01599,-1.49129 1.11524,-3.16151 2.84397,-2.7778z"/></g></g></svg>