<svg version="1.1" xmlns="http://www.w3.org/2000/svg" xmlns:xlink="http://www.w3.org/1999/xlink" width="55.19305" height="11.82355" viewBox="0,0,55.19305,11.82355"><g transform="translate(-119.62741,-175.68537)"><g data-paper-data="{&quot;isPaintingLayer&quot;:true}" fill-rule="nonzero" stroke-linecap="butt" stroke-linejoin="miter" stroke-miterlimit="10" stroke-dasharray="" stroke-dashoffset="0" style="mix-blend-mode: normal"><path d="M123.49681,186.47892c-0.35016,0.28171 -0.79482,0.44134 -1.34733,0.44134c-0.61896,0 -1.17955,-0.44553 -1.63546,-0.88716c3.15378,-1.6823 5.30021,-5.005 5.30021,-8.82901c0,-0.41717 -0.02554,-0.82837 -0.07516,-1.23213c0.48455,-0.05455 0.9714,-0.11666 1.45264,-0.18683c0.71871,0.0922 1.43255,0.16962 2.12313,0.16658c4.95048,-0.02176 9.90074,-0.11757 14.85124,-0.101c0.22601,0.00075 0.47648,0.09699 0.70301,0.101c0.90393,0.01598 1.80643,0.03335 2.70814,0.05099c-0.16831,3.27773 0.10389,7.51775 0.45386,10.98468c-5.34904,-0.08452 -10.70726,-0.17293 -16.15673,-0.16811l-0.00001,0c-2.09248,0.00185 -6.36077,1.01233 -8.37755,-0.34034z" fill="#b85000" stroke="none" stroke-width="0.5"/><path d="M174.31962,176.26788l-0.0183,10.74019l-54.17305,-0.0923l0.00117,-0.68809c1.55896,-0.74686 2.89429,-1.88582 3.87827,-3.28914c1.37136,-1.71167 2.19158,-3.88398 2.19158,-6.24787c0,-0.08582 -0.00108,-0.17139 -0.00323,-0.2567c0.00025,-0.00988 0.00048,-0.01978 0.0007,-0.02967c0.02426,-0.0724 0.04771,-0.14517 0.07035,-0.2183z" fill-opacity="0.53333" fill="#00a67e" stroke="#827700" stroke-width="1"/></g></g></svg>