<svg version="1.1" xmlns="http://www.w3.org/2000/svg" xmlns:xlink="http://www.w3.org/1999/xlink" width="46.71656" height="88.42853" viewBox="0,0,46.71656,88.42853"><g transform="translate(-213.56535,-130.68127)"><g data-paper-data="{&quot;isPaintingLayer&quot;:true}" fill-rule="nonzero" stroke="none" stroke-width="0.5" stroke-linecap="butt" stroke-linejoin="miter" stroke-miterlimit="10" stroke-dasharray="" stroke-dashoffset="0" style="mix-blend-mode: normal"><path d="M214.09348,178.21231c3.01777,-4.6566 10.61455,-5.61063 15.53927,-4.45696c0.92437,0.12025 1.67356,0.3046 2.56792,0.50798c0.16045,-0.06705 0.32259,-0.13163 0.48716,-0.1926l0.16857,-0.06246c0,0 0.56186,-0.20817 0.77003,0.35368c0.02549,0.06879 0.03943,0.13228 0.04428,0.19074c0.05575,0.07925 0.08063,0.14639 0.08063,0.14639l0.06245,0.16856c1.73753,4.68961 2.62106,9.67423 4.29963,14.20471c0.61307,5.50632 -2.76463,12.06043 -5.62932,16.50737c-1.06275,1.75202 -7.43891,5.20001 -7.67302,6.33542c-0.37315,1.80972 4.78844,1.02904 3.02566,4.64619c-2.03998,1.21492 -12.03256,-0.71819 -13.43031,-2.71709c0,0 -0.21595,-0.31581 -0.05039,-0.61528c-0.0224,-0.14267 0.00568,-0.26098 0.00568,-0.26098l0.14976,-0.63061c0.09699,-0.40833 0.1943,-0.81655 0.29205,-1.2247c0.59722,-5.54389 2.44969,-11.27754 0.41115,-16.77958c-0.60098,-5.27276 0.81091,-10.16353 -1.0995,-15.37218c-0.02172,-0.04172 -0.03762,-0.08218 -0.0486,-0.12122c-0.18549,-0.29777 0.02693,-0.62739 0.02693,-0.62739z" fill="#888b44"/><g><path d="M255.29304,137.51782c-0.02782,-0.01945 -0.05416,-0.04849 -0.0764,-0.09075c-0.10835,-0.20601 0.09766,-0.31437 0.09766,-0.31437l0.31461,-0.08844c0.53924,0.17882 0.86965,0.41302 0.89786,0.84174l0.10915,0.01137l-0.02845,0.27318c-0.00139,0.01654 -0.00459,0.0332 -0.00972,0.04972c-0.03814,0.12277 -0.16858,0.19137 -0.29136,0.15323c-0.03734,-0.0116 -0.06967,-0.03174 -0.0955,-0.0576l-0.15644,-0.15014c-0.2557,-0.13649 -0.4724,-0.25255 -0.68472,-0.45331c0,0 -0.07745,-0.07433 -0.07669,-0.17463z" fill="#e2e3a2"/><path d="M247.29598,148.49408c-1.5726,-0.03986 -5.81718,-0.87488 -6.73523,-2.13253c-1.11005,-1.52068 0.86745,-6.39331 1.42048,-7.93856c0.17024,-0.47569 0.34921,-1.9552 0.86893,-2.0703l0.46975,-0.10404c0.20983,-0.38439 0.45257,-0.72878 0.72414,-1.016c0.54803,-0.57962 1.31847,-0.92426 1.84662,-1.52206c1.18985,-1.34673 2.62794,-2.68251 4.52801,-2.9783c1.87945,-0.29258 4.06014,0.7329 5.68827,1.54651c0,0 0.07644,0.03847 0.17743,0.11529l0.1444,0.06185c3.16295,2.71898 5.02035,7.93839 3.03035,11.81043c-0.20808,0.40489 -0.47025,0.81989 -0.77781,1.21237c-0.20394,-0.03172 -0.39965,-0.10499 -0.60219,-0.17329c-0.48646,-0.548 -0.9754,-1.11243 -1.3956,-1.67485c-0.01118,-0.02403 -0.02176,-0.03864 -0.02176,-0.03864c-0.10507,-0.14526 -0.19702,-0.28364 -0.30006,-0.413c-0.00567,-0.00839 -0.0113,-0.01677 -0.01693,-0.02515c0,0 -0.01467,-0.02169 -0.04145,-0.04559c-0.07876,-0.09189 -0.1658,-0.17877 -0.2705,-0.25982c-0.11111,-0.17867 -0.25291,-0.33795 -0.41537,-0.47359c-0.00832,-0.03998 -0.0227,-0.06732 -0.0227,-0.06732l-0.13079,-0.16467c-0.45156,-0.24366 -0.89764,-0.4923 -1.34805,-0.72988c-0.02268,-0.05346 -0.05844,-0.08778 -0.05844,-0.08778l-0.10292,-0.09766c-0.17728,-0.14377 -0.57118,-0.53994 -0.95279,-0.74583c-0.06152,-0.05912 -0.12129,-0.11622 -0.18125,-0.17118c-0.00777,-0.04554 -0.02466,-0.07767 -0.02466,-0.07767l-0.09542,-0.14099c-0.37574,-0.303 -0.73546,-0.55527 -1.1098,-0.86127c0,0 -0.18075,-0.14668 -0.32743,0.03408c-0.10907,0.1344 -0.03708,0.24996 0.00699,0.30039c-0.00525,0.04177 -0.00005,0.07347 -0.00005,0.07347c0.04363,0.21534 0.15497,0.43754 0.29728,0.65025c0.02657,0.26048 0.07026,0.502 0.13366,0.76259l0.05911,0.06011c0.05739,1.04608 0.54646,2.10482 1.29807,2.83628l0.03907,0.17037c0.0168,0.07993 0.07527,0.14863 0.15882,0.17458c0.0262,0.00814 0.05276,0.01142 0.07869,0.01035c0.14646,0.6717 0.44093,1.54578 0.83588,2.30581c0.00517,0.06718 0.01011,0.129 0.01454,0.18466c0.0159,0.19394 0.03624,0.38742 0.06108,0.58027c-0.00908,0.06397 -0.02046,0.12756 -0.03367,0.19096c-0.72554,-0.0359 -1.47952,-0.16683 -2.23468,-0.34932c-1.09327,0.87556 -3.81103,1.3007 -4.68206,1.27862z" fill="#888b44"/><path d="M253.81908,141.80484c-0.00089,0.00079 -0.00176,0.0016 -0.00263,0.00241c-0.00327,-0.00314 -0.00654,-0.00627 -0.00981,-0.00941c0.00414,0.00233 0.00829,0.00467 0.01243,0.007z" fill="#888b44"/><path d="M252.36757,140.27215c0.03814,-0.12277 0.16859,-0.19138 0.29136,-0.15324c0.12277,0.03814 0.19137,0.16858 0.15323,0.29136c-0.03814,0.12277 -0.16858,0.19139 -0.29135,0.15325c-0.12277,-0.03814 -0.19138,-0.16859 -0.15324,-0.29136z" fill="#c0c649"/><path d="M253.43773,140.89156c0.03814,-0.12277 0.16859,-0.19138 0.29136,-0.15324c0.12277,0.03814 0.19137,0.16858 0.15323,0.29136c-0.03814,0.12277 -0.16858,0.19139 -0.29135,0.15325c-0.12277,-0.03814 -0.19138,-0.16859 -0.15324,-0.29136z" fill="#c0c649"/><path d="M253.9286,141.15882c0.03814,-0.12277 0.16859,-0.19138 0.29136,-0.15324c0.10277,0.03192 0.16758,0.12852 0.16361,0.23116c0.05124,-0.02475 0.11162,-0.03087 0.17025,-0.01266c0.12277,0.03814 0.19138,0.16857 0.15324,0.29135c-0.03814,0.12277 -0.16858,0.19139 -0.29135,0.15325c-0.10277,-0.03192 -0.16758,-0.12852 -0.16361,-0.23115c-0.05124,0.02475 -0.11162,0.03087 -0.17025,0.01266c-0.12277,-0.03814 -0.19138,-0.16859 -0.15325,-0.29135z" fill="#c0c649"/><path d="M254.61613,141.71673c0.03814,-0.12277 0.16858,-0.19137 0.29135,-0.15324c0.10787,0.03351 0.17393,0.13828 0.1625,0.24648c0.03339,-0.00492 0.06837,-0.0026 0.10276,0.00808c0.12277,0.03814 0.19137,0.16858 0.15323,0.29136c-0.03814,0.12277 -0.16858,0.19137 -0.29135,0.15324c-0.10787,-0.03351 -0.17393,-0.13828 -0.1625,-0.24648c-0.03339,0.00492 -0.06838,0.00259 -0.10276,-0.00809c-0.12277,-0.03814 -0.19137,-0.16858 -0.15324,-0.29135z" fill="#c0c649"/><path d="M255.58517,142.47689c0.03814,-0.12277 0.16859,-0.19138 0.29136,-0.15324c0.12277,0.03814 0.19137,0.16858 0.15323,0.29136c-0.03814,0.12277 -0.16858,0.19137 -0.29135,0.15324c-0.12277,-0.03814 -0.19139,-0.16858 -0.15325,-0.29135z" fill="#c0c649"/><path d="M256.11569,142.98603c0.03814,-0.12277 0.16858,-0.19137 0.29135,-0.15324c0.12277,0.03814 0.19138,0.16859 0.15325,0.29135c-0.03814,0.12277 -0.16859,0.19138 -0.29136,0.15324c-0.12277,-0.03814 -0.19137,-0.16858 -0.15323,-0.29136z" fill="#c0c649"/><path d="M256.42415,143.65575c0.03814,-0.12277 0.16858,-0.19137 0.29135,-0.15324c0.12277,0.03814 0.19139,0.16858 0.15325,0.29135c-0.03814,0.12277 -0.16859,0.19138 -0.29136,0.15324c-0.12277,-0.03814 -0.19137,-0.16858 -0.15323,-0.29136z" fill="#c0c649"/><path d="M257.02682,144.30209c0.03814,-0.12277 0.16859,-0.19138 0.29136,-0.15324c0.12277,0.03814 0.19138,0.16859 0.15324,0.29136c-0.03814,0.12277 -0.16858,0.19137 -0.29136,0.15323c-0.12277,-0.03814 -0.19138,-0.16859 -0.15325,-0.29135z" fill="#c0c649"/><path d="M257.46891,144.72637c0.03814,-0.12277 0.16858,-0.19137 0.29136,-0.15323c0.12277,0.03814 0.19138,0.16857 0.15324,0.29135c-0.03814,0.12277 -0.16858,0.19139 -0.29135,0.15325c-0.12277,-0.03814 -0.19138,-0.16859 -0.15324,-0.29136z" fill="#c0c649"/><path d="M257.87849,145.25534c0.03814,-0.12277 0.16858,-0.19139 0.29135,-0.15325c0.12277,0.03814 0.19138,0.16859 0.15324,0.29136c-0.03814,0.12277 -0.16858,0.19137 -0.29136,0.15323c-0.12277,-0.03814 -0.19137,-0.16858 -0.15324,-0.29135z" fill="#c0c649"/><path d="M252.1267,141.72094c-0.18863,0.1364 -0.32502,-0.05222 -0.32502,-0.05222l-0.16057,-0.22205c0,0 -0.1364,-0.18862 0.05221,-0.32502c0.18863,-0.1364 0.32502,0.05221 0.32502,0.05221l0.16057,0.22205c0,0 0.1364,0.18862 -0.05221,0.32502z" fill="#c0c649"/><path d="M251.77869,141.98309c0.03814,-0.12277 0.16858,-0.19137 0.29136,-0.15323c0.12277,0.03814 0.19137,0.16858 0.15324,0.29135c-0.03814,0.12277 -0.16859,0.19138 -0.29135,0.15325c-0.12277,-0.03814 -0.19138,-0.16859 -0.15324,-0.29136z" fill="#c0c649"/><path d="M252.15574,142.61673c0.03814,-0.12277 0.16859,-0.19138 0.29135,-0.15325c0.12277,0.03814 0.19137,0.16858 0.15323,0.29136c-0.03814,0.12277 -0.16858,0.19137 -0.29135,0.15324c-0.12277,-0.03814 -0.19137,-0.16858 -0.15324,-0.29135z" fill="#c0c649"/><path d="M252.55263,143.3713c0.03194,-0.1028 0.1286,-0.16764 0.23129,-0.1636c0.02215,-0.03509 0.05298,-0.063 0.08866,-0.08172c0.05268,-0.02764 0.11589,-0.0352 0.17719,-0.01616c0.12277,0.03814 0.19139,0.16858 0.15325,0.29135c-0.03194,0.1028 -0.1286,0.16764 -0.23129,0.1636c-0.05486,0.0869 -0.16305,0.12981 -0.26586,0.09787c-0.12277,-0.03814 -0.19138,-0.16857 -0.15324,-0.29135z" fill="#c0c649"/><path d="M252.99827,143.96886c0.03814,-0.12277 0.16858,-0.19137 0.29136,-0.15323c0.12277,0.03814 0.19138,0.16859 0.15325,0.29135c-0.03814,0.12277 -0.16859,0.19138 -0.29136,0.15324c-0.12277,-0.03814 -0.19138,-0.16859 -0.15324,-0.29136z" fill="#c0c649"/><path d="M253.35907,144.65484c0.03814,-0.12277 0.16859,-0.19138 0.29136,-0.15324c0.12277,0.03814 0.19137,0.16858 0.15323,0.29136c-0.03814,0.12277 -0.16857,0.19138 -0.29135,0.15324c-0.12277,-0.03814 -0.19139,-0.16858 -0.15325,-0.29135z" fill="#c0c649"/><path d="M253.57912,145.2397c0.03814,-0.12277 0.16857,-0.19138 0.29135,-0.15324c0.12277,0.03814 0.19138,0.16859 0.15325,0.29135c-0.03814,0.12277 -0.16858,0.19137 -0.29136,0.15323c-0.12277,-0.03814 -0.19137,-0.16858 -0.15324,-0.29135z" fill="#c0c649"/><path d="M253.86775,145.78849c0.03814,-0.12277 0.16859,-0.19138 0.29136,-0.15324c0.12277,0.03814 0.19137,0.16858 0.15323,0.29136c-0.03814,0.12277 -0.16858,0.19137 -0.29135,0.15324c-0.12277,-0.03814 -0.19139,-0.16858 -0.15325,-0.29135z" fill="#c0c649"/><path d="M254.0878,146.37335c0.03814,-0.12277 0.16859,-0.19138 0.29136,-0.15324c0.12277,0.03814 0.19138,0.16859 0.15324,0.29136c-0.03814,0.12277 -0.16858,0.19137 -0.29136,0.15323c-0.12277,-0.03814 -0.19139,-0.16858 -0.15325,-0.29135z" fill="#c0c649"/><path d="M254.1869,146.97803c0.03814,-0.12277 0.16859,-0.19138 0.29136,-0.15324c0.12277,0.03814 0.19137,0.16858 0.15323,0.29136c-0.03814,0.12277 -0.16859,0.19138 -0.29135,0.15325c-0.12277,-0.03814 -0.19138,-0.16859 -0.15324,-0.29136z" fill="#c0c649"/><path d="M252.78985,140.57551c0.03814,-0.12277 0.16859,-0.19138 0.29135,-0.15325c0.12277,0.03814 0.19137,0.16858 0.15323,0.29136c-0.03814,0.12277 -0.16859,0.19138 -0.29135,0.15325c-0.12277,-0.03814 -0.19137,-0.16858 -0.15323,-0.29136z" fill="#c0c649"/><path d="M250.12459,138.25542c0.03814,-0.12277 0.16859,-0.19138 0.29136,-0.15324c0.01456,0.00452 0.02838,0.01035 0.04133,0.01731c0.13174,-0.00121 0.2003,0.12915 0.2003,0.12915l0.02733,0.07761c0.19517,0.18864 0.29109,0.36502 0.53298,0.48891c0,0 0.02476,0.01348 0.05235,0.03967c0.06205,-0.00886 0.11476,0.00751 0.11476,0.00751c0.44912,0.14893 0.72434,0.49123 1.06117,0.8145l0.01255,-0.02183c0,0 0.2223,0.06906 0.15324,0.29136c-0.06906,0.2223 -0.29136,0.15323 -0.29136,0.15323l-0.1968,-0.08686c-0.26097,-0.25045 -0.50596,-0.58882 -0.8516,-0.69825c0.08702,0.27535 0.20781,0.53815 0.31858,0.81281c0.11457,0.04572 0.13681,0.1814 0.13681,0.1814l0.05871,0.35819c0.00667,0.03594 0.00494,0.074 -0.00666,0.11133c-0.03814,0.12277 -0.16859,0.19138 -0.29136,0.15324c-0.07365,-0.02288 -0.12781,-0.07898 -0.15113,-0.14672l-0.09107,-0.25558c-0.18414,-0.51676 -0.43179,-0.9679 -0.52326,-1.50286c-0.12047,-0.10964 -0.21834,-0.22905 -0.36028,-0.36415l-0.06557,-0.11029c-0.0064,-0.00141 -0.01279,-0.0031 -0.01915,-0.00508c-0.12277,-0.03814 -0.19138,-0.16859 -0.15324,-0.29136z" fill="#9a0000"/><path d="M252.57337,140.16392c0.03814,-0.12277 0.16857,-0.19138 0.29135,-0.15324c0.12277,0.03814 0.19138,0.16859 0.15325,0.29135c-0.03814,0.12277 -0.16858,0.19137 -0.29136,0.15323c-0.12277,-0.03814 -0.19137,-0.16858 -0.15324,-0.29135z" fill="#9a0000"/><path d="M253.22125,140.47997c0.03814,-0.12277 0.16858,-0.19139 0.29135,-0.15325c0.12277,0.03814 0.19138,0.16859 0.15324,0.29136c-0.03814,0.12277 -0.16858,0.19137 -0.29136,0.15323c-0.12277,-0.03814 -0.19138,-0.16857 -0.15324,-0.29135z" fill="#9a0000"/><path d="M254.39609,141.13188c0.03814,-0.12277 0.16858,-0.19137 0.29136,-0.15323c0.12277,0.03814 0.19137,0.16858 0.15324,0.29135c-0.03814,0.12277 -0.16858,0.19137 -0.29135,0.15324c-0.12277,-0.03814 -0.19138,-0.16859 -0.15325,-0.29135z" fill="#9a0000"/><path d="M254.82193,141.6085c0.03814,-0.12277 0.16858,-0.19137 0.29135,-0.15324c0.12277,0.03814 0.19137,0.16858 0.15324,0.29135c-0.03814,0.12277 -0.16859,0.19138 -0.29135,0.15325c-0.12277,-0.03814 -0.19137,-0.16858 -0.15323,-0.29136z" fill="#9a0000"/><path d="M251.98959,142.96684c0.03814,-0.12277 0.16859,-0.19138 0.29135,-0.15325c0.12277,0.03814 0.19137,0.16858 0.15323,0.29136c-0.03814,0.12277 -0.16859,0.19138 -0.29135,0.15325c-0.12277,-0.03814 -0.19137,-0.16858 -0.15323,-0.29136z" fill="#9a0000"/><path d="M252.31075,143.41094c0.03814,-0.12277 0.16857,-0.19138 0.29135,-0.15324c0.12277,0.03814 0.19138,0.16859 0.15325,0.29135c-0.03814,0.12277 -0.16859,0.19138 -0.29136,0.15324c-0.12277,-0.03814 -0.19137,-0.16858 -0.15323,-0.29136z" fill="#9a0000"/><path d="M252.73658,143.88756c0.03814,-0.12277 0.16857,-0.19138 0.29135,-0.15324c0.12277,0.03814 0.19138,0.16859 0.15325,0.29135c-0.03814,0.12277 -0.16859,0.19138 -0.29136,0.15324c-0.12277,-0.03814 -0.19137,-0.16858 -0.15323,-0.29136z" fill="#9a0000"/><path d="M254.91324,146.38053l-0.02401,0.01509l-0.09218,-0.1467c-0.01581,-0.02485 -0.02217,-0.05553 -0.01586,-0.08599c-0.14038,-0.1616 -0.28432,-0.29118 -0.3698,-0.47494c-0.02924,0.03478 -0.07753,0.05058 -0.12366,0.03625c-0.04895,-0.01521 -0.08068,-0.05977 -0.08185,-0.10832l-0.00065,-0.01369c-0.06671,-0.00622 -0.13651,-0.00324 -0.20917,0.01045l-0.00699,0.00274l0.00396,0.02416l-0.0144,0.00236c0.0937,0.05263 0.14126,0.16518 0.10809,0.27194c-0.03814,0.12277 -0.16859,0.19138 -0.29136,0.15324c-0.12277,-0.03814 -0.19137,-0.16858 -0.15323,-0.29136c0.02086,-0.06714 0.06932,-0.11809 0.12904,-0.14423c-0.03255,-0.02946 -0.04694,-0.07619 -0.03306,-0.12087c0.01102,-0.03549 0.03746,-0.06191 0.06968,-0.07422l0.10514,-0.0412c-0.05311,-0.10393 -0.13141,-0.19776 -0.22857,-0.2556l-0.07631,0.02991c-0.02396,0.00962 -0.05127,0.01138 -0.07786,0.00312c-0.06139,-0.01907 -0.09569,-0.08429 -0.07662,-0.14568c0.01102,-0.03549 0.03746,-0.06191 0.06968,-0.07422l0.07193,-0.0282c0.01537,-0.12041 0.00066,-0.23641 -0.08646,-0.29219l-0.00287,-0.00089l-0.00767,0.01615l-0.05893,-0.02796c0.02901,0.0533 0.03728,0.11783 0.01786,0.18037c-0.03814,0.12277 -0.16858,0.19139 -0.29135,0.15325c-0.12277,-0.03814 -0.19138,-0.16859 -0.15324,-0.29136c0.03118,-0.10036 0.12403,-0.16451 0.22395,-0.16377c-0.03397,-0.02934 -0.04926,-0.07706 -0.03509,-0.12266c0.00042,-0.00137 0.00087,-0.0027 0.00134,-0.00404c-0.02873,-0.02059 -0.06058,-0.05971 -0.03983,-0.1265c0.03453,-0.11115 0.14567,-0.07662 0.14567,-0.07662c1.17842,0.36608 1.86064,0.56652 2.60452,1.55313c0.35517,0.85303 0.13757,1.80377 0.51171,2.65392c0.057,0.09415 0.11108,0.1909 0.161,0.29155l0.00666,-0.00695l0.08953,0.08592c0.03205,0.0295 0.04617,0.07588 0.03238,0.12025c-0.01907,0.06139 -0.08429,0.09569 -0.14568,0.07662c-0.0132,-0.0041 -0.02515,-0.01034 -0.03558,-0.01821l-0.09474,-0.06806l0.00601,-0.00836l-0.02156,-0.00503c-0.02224,-0.03198 -0.04333,-0.06411 -0.06333,-0.09638c-0.15942,-0.08569 -0.35945,-0.33576 -0.4369,-0.44512c-0.4103,-0.57936 -0.61361,-0.99501 -0.8108,-1.60943c-0.07647,-0.0949 -0.14364,-0.19506 -0.19854,-0.3117zM255.24763,146.32357c-0.00504,-0.01224 -0.0101,-0.02432 -0.01518,-0.03624l-0.00078,0.00755c0.00233,0.00662 0.00462,0.01325 0.00687,0.01988c0.00302,0.00291 0.00606,0.00584 0.0091,0.0088z" fill="#9a0000"/><path d="M253.37642,147.18537c0.03814,-0.12277 0.16858,-0.19139 0.29135,-0.15325c0.01496,0.00465 0.02911,0.01066 0.04236,0.01787c0.00157,-0.015 0.00463,-0.03008 0.00928,-0.04503c0.02045,-0.06584 0.06743,-0.11608 0.12555,-0.14267c-0.00445,-0.03033 -0.00296,-0.06197 0.00535,-0.09328c-0.01356,-0.00168 -0.02717,-0.00459 -0.04069,-0.00879c-0.00885,-0.00275 -0.01743,-0.00598 -0.02569,-0.00965c-0.00889,-0.00165 -0.0178,-0.00386 -0.02665,-0.00661c-0.12277,-0.03814 -0.19137,-0.16858 -0.15323,-0.29136c0.01176,-0.03785 0.03229,-0.07054 0.05866,-0.09656c-0.00698,-0.03638 -0.00538,-0.07495 0.00638,-0.1128c0.03814,-0.12277 0.16858,-0.19139 0.29135,-0.15325c0.12277,0.03814 0.19138,0.16859 0.15324,0.29136c-0.00619,0.01992 -0.0148,0.03841 -0.02542,0.05524c0.02345,0.04851 0.03024,0.10522 0.01546,0.16089c0.01357,0.00168 0.02717,0.00459 0.04069,0.00879c0.12277,0.03814 0.19138,0.16859 0.15324,0.29136c-0.01244,0.04003 -0.0347,0.07431 -0.06331,0.10101c0.0597,0.05143 0.09065,0.1312 0.07827,0.21162c0.05212,0.05892 0.0731,0.14285 0.04806,0.22347c-0.03814,0.12277 -0.16858,0.19137 -0.29136,0.15323c-0.02335,-0.00725 -0.04473,-0.01783 -0.0638,-0.03108c-0.05915,0.05677 -0.14657,0.08051 -0.23042,0.05446c-0.06584,-0.02045 -0.11608,-0.06744 -0.14266,-0.12556c-0.0334,0.00491 -0.06838,0.0026 -0.10277,-0.00808c-0.12277,-0.03814 -0.19137,-0.16858 -0.15324,-0.29135z" fill="#9a0000"/><path d="M258.14288,144.6346c0.12277,0.03814 0.19138,0.16859 0.15324,0.29136c-0.03814,0.12277 -0.16859,0.19138 -0.29136,0.15324c-0.09649,-0.02997 -0.15951,-0.11696 -0.16357,-0.21242c-0.05744,0.07636 -0.15865,0.11232 -0.25514,0.08235c-0.12277,-0.03814 -0.19138,-0.16859 -0.15324,-0.29136c0.03814,-0.12277 0.16859,-0.19138 0.29136,-0.15324c0.09649,0.02997 0.15951,0.11696 0.16357,0.21242c0.05744,-0.07636 0.15864,-0.11232 0.25514,-0.08235z" fill="#9a0000"/><path d="M258.60124,145.00656c0.12277,0.03814 0.19137,0.16858 0.15323,0.29136c-0.03351,0.10788 -0.1383,0.17394 -0.24652,0.1625c-0.05026,0.02298 -0.10884,0.02824 -0.16576,0.01056c-0.12277,-0.03814 -0.19137,-0.16858 -0.15323,-0.29136c0.00275,-0.00885 0.00598,-0.01743 0.00966,-0.02569c0.00165,-0.00889 0.00385,-0.0178 0.0066,-0.02664c0.03814,-0.12277 0.16859,-0.19138 0.29135,-0.15325c0.01803,0.0056 0.03489,0.01319 0.05041,0.02246c0.01805,0.00117 0.03624,0.00446 0.05427,0.01006z" fill="#9a0000"/><path d="M255.80723,137.5281c-0.22991,-0.06868 -0.47437,-0.16569 -0.56187,-0.19287l-0.26169,-0.08129v0c-0.12277,-0.03814 -0.19137,-0.16858 -0.15323,-0.29136c0.02757,-0.08875 0.10336,-0.14918 0.18962,-0.16147l0.08323,-0.01363c0.05011,-0.03304 0.10132,-0.04145 0.10132,-0.04145c0.15607,-0.02491 0.57486,-0.01053 0.91157,0.07475c0.07589,-0.02327 0.14993,-0.00028 0.14993,-0.00028l0.12996,0.05781c0.34773,0.30615 0.39369,0.51432 0.28527,0.62204c0.00294,0.03 0.00006,0.06108 -0.00945,0.09169c-0.02757,0.08875 -0.10336,0.14917 -0.18962,0.16147l-0.23689,0.03883l-0.0252,-0.15374c-0.14211,-0.0152 -0.28372,-0.05458 -0.41296,-0.11049z" fill="#99926f"/><path d="M256.60571,137.38665c-0.28874,-0.68187 -1.198,-0.47247 -1.83162,-0.3708c0.24271,0.11748 0.48491,0.23654 0.7249,0.36314c0.41774,0.19842 0.83047,0.24634 1.25022,0.29842c-0.05371,-0.06639 -0.08046,-0.15389 -0.1435,-0.29076zM254.59122,136.80771c0.75553,-0.09971 1.85579,-0.39029 2.22955,0.48984c0.05076,0.13609 0.15733,0.27665 0.29604,0.31974l0.05781,0.01796c0,0 0.0914,0.02839 0.08268,0.11658c0.22639,0.04247 0.45611,0.10347 0.69093,0.206l0.07177,0.03135c0,0 0.10666,0.04659 0.06006,0.15324c-0.0466,0.10666 -0.15325,0.06006 -0.15325,0.06006l-0.07177,-0.03135c-0.85967,-0.37573 -1.63947,-0.19483 -2.4604,-0.58408c-0.6652,-0.35288 -1.34575,-0.64421 -2.01014,-1.00557c0,0 -0.10222,-0.05566 -0.04656,-0.15788c0.05566,-0.10222 0.15787,-0.04656 0.15787,-0.04656c0.32999,0.17987 0.66462,0.34274 0.99949,0.50427c0.02134,-0.06379 0.0959,-0.07363 0.0959,-0.07363z" fill="#9a0000"/></g><g><path d="M257.0005,153.33146c0.16467,0.088 0.22682,0.29282 0.13882,0.45749c-0.03665,0.06857 -0.09355,0.11936 -0.15938,0.14894c0.04593,0.15708 0.09336,0.31626 0.14247,0.47765c1.2953,4.26877 0.49777,8.80943 1.75454,12.97635c0.23677,4.44974 0.02692,8.53075 -0.76173,12.89636c-0.74171,2.95984 -2.26644,5.72304 -3.50614,8.50754c-0.46275,1.03939 -1.39162,2.83494 -0.86838,3.92688c-0.91473,1.62693 1.39208,4.39912 1.4803,6.2049c0.1192,2.44008 -2.03692,3.68262 -3.56158,5.03124c-4.19102,-0.03295 -7.17488,1.58141 -11.07089,-1.53726c-2.59794,-1.5795 -8.32922,-4.06563 -9.33907,-7.01006c-2.49685,-3.65211 -5.46241,-5.35592 -9.27608,-7.39396c-4.49912,-2.4248 -7.21282,-4.53102 -8.22965,-9.80033c-0.04447,-0.89277 0.00057,-1.88874 0.11652,-2.93348c-0.00108,-0.00056 -0.00216,-0.00113 -0.00323,-0.0017c-0.16467,-0.088 -0.22682,-0.29282 -0.13882,-0.45749c0.04743,-0.08874 0.12877,-0.14772 0.21949,-0.16945c0.00312,-0.02312 0.00628,-0.04627 0.00947,-0.06942c-0.06753,0.00886 -0.13837,-0.00255 -0.20302,-0.0371c-0.16467,-0.088 -0.22682,-0.29282 -0.13882,-0.45749c0.0845,-0.15813 0.27674,-0.22171 0.43769,-0.1486c0.02667,-0.16652 0.05486,-0.33364 0.08447,-0.50118c-0.03708,-0.0056 -0.07386,-0.01752 -0.10883,-0.03621c-0.16467,-0.088 -0.22682,-0.29282 -0.13882,-0.45749c0.07327,-0.1371 0.22752,-0.20314 0.37215,-0.17061c0.02318,-0.11712 0.047,-0.23431 0.07146,-0.3515c-0.06985,0.01082 -0.14368,-0.0001 -0.21082,-0.03598c-0.16467,-0.088 -0.22682,-0.29282 -0.13882,-0.45749c0.088,-0.16467 0.29282,-0.22682 0.45749,-0.13882c0.00919,0.00491 0.01806,0.01019 0.0266,0.01579c0.03636,-0.15991 0.07382,-0.3196 0.11232,-0.47891c-0.08671,0.03104 -0.18572,0.02672 -0.27335,-0.02011c-0.16467,-0.088 -0.22682,-0.29282 -0.13882,-0.45749c0.088,-0.16467 0.29282,-0.22682 0.45749,-0.13882c0.03516,0.01879 0.06565,0.04291 0.091,0.07083c0.02046,-0.0793 0.04116,-0.15845 0.06211,-0.23743c-0.01766,-0.00593 -0.03506,-0.01341 -0.05205,-0.02248c-0.16467,-0.088 -0.22682,-0.29282 -0.13882,-0.45749c0.07289,-0.1364 0.22597,-0.20247 0.36996,-0.1711c0.0582,-0.20419 0.11792,-0.40682 0.17897,-0.60747c-0.06026,-0.09885 -0.06813,-0.2261 -0.00962,-0.33559c0.03698,-0.0692 0.09459,-0.12029 0.16118,-0.14975c0.02439,-0.07615 0.04899,-0.15196 0.07375,-0.2274c-0.0637,0.00594 -0.12981,-0.00609 -0.19045,-0.0385c-0.16467,-0.088 -0.22681,-0.29282 -0.13881,-0.45749c0.088,-0.16467 0.29282,-0.22682 0.45749,-0.13882c0.02593,0.01386 0.04932,0.03061 0.06997,0.04964c0.06055,-0.17325 0.12197,-0.34412 0.18418,-0.51234c-0.03425,-0.00606 -0.06812,-0.01755 -0.10046,-0.03483c-0.16467,-0.088 -0.22682,-0.29282 -0.13882,-0.45749c0.088,-0.16467 0.29282,-0.22682 0.45749,-0.13882c0.00663,0.00355 0.0131,0.00728 0.0194,0.0112c0.02062,-0.05188 0.0413,-0.10346 0.06205,-0.1547c-0.00125,-0.00064 -0.00248,-0.00129 -0.00372,-0.00195c-0.16467,-0.088 -0.22682,-0.29282 -0.13882,-0.45749c0.07872,-0.1473 0.25092,-0.21258 0.40423,-0.16172c0.05697,-0.12985 0.11431,-0.25707 0.17194,-0.38144c-0.0039,-0.0019 -0.00777,-0.00387 -0.01163,-0.00593c-0.16467,-0.088 -0.22682,-0.29282 -0.13882,-0.45749c0.06313,-0.11813 0.18639,-0.1835 0.31181,-0.17853c0.01743,-0.07043 0.03584,-0.14137 0.0552,-0.21282c-0.04546,-0.09399 -0.0469,-0.20767 0.00608,-0.30679c0.00959,-0.01794 0.02056,-0.03467 0.03272,-0.05012c-0.14128,-0.09587 -0.19025,-0.28491 -0.10798,-0.43886c0.07388,-0.13826 0.23014,-0.20425 0.37582,-0.16977c0.03705,-0.1029 0.07563,-0.20651 0.11566,-0.31075c-0.03824,-0.00538 -0.0762,-0.01745 -0.11223,-0.0367c-0.16467,-0.088 -0.22682,-0.29282 -0.13882,-0.45749c0.07559,-0.14145 0.23739,-0.20726 0.38589,-0.16721c-0.08608,-0.10264 -0.10612,-0.25132 -0.03912,-0.3767c0.06544,-0.12244 0.19545,-0.1882 0.32553,-0.1777c-0.05328,-0.09683 -0.05806,-0.21784 -0.00208,-0.32259c0.0671,-0.12556 0.20213,-0.19152 0.33549,-0.17675c0.1011,-0.20651 0.20594,-0.41395 0.31399,-0.62183c-0.10626,-0.10227 -0.13647,-0.26635 -0.06353,-0.40284c0.07279,-0.1362 0.2255,-0.20227 0.3693,-0.17124c0.0612,-0.11229 0.1232,-0.22457 0.18591,-0.33678c-0.00459,-0.06173 0.0077,-0.12547 0.03904,-0.18411c0.03404,-0.0637 0.08557,-0.11206 0.14549,-0.14232c0.11644,-0.20371 0.23498,-0.40693 0.35513,-0.60922c-0.16243,-0.08887 -0.22331,-0.29221 -0.13584,-0.45588c0.088,-0.16467 0.29282,-0.22682 0.45749,-0.13882c0.00953,0.0051 0.01873,0.01058 0.02757,0.01644c0.05563,-0.09066 0.1115,-0.18105 0.16755,-0.27111c-0.13432,-0.09768 -0.17948,-0.28191 -0.09898,-0.43255c0.088,-0.16467 0.29282,-0.22682 0.45749,-0.13882c0.00055,0.00029 0.00109,0.00059 0.00164,0.00088c0.09267,-0.14479 0.18558,-0.28846 0.27853,-0.43086c-0.16135,-0.08928 -0.2216,-0.2919 -0.1344,-0.45508c0.088,-0.16467 0.29282,-0.22682 0.45749,-0.13882c0.01733,0.00926 0.03353,0.01982 0.04853,0.03148c0.04609,-0.06894 0.09213,-0.13749 0.13808,-0.20564c-0.03739,-0.09028 -0.03554,-0.19598 0.01411,-0.28888c0.06184,-0.11572 0.18138,-0.18081 0.30412,-0.17874c0.20537,-0.29904 0.40794,-0.58884 0.60542,-0.86734c-0.02217,-0.00645 -0.04402,-0.01528 -0.06519,-0.0266c-0.16467,-0.088 -0.22682,-0.29282 -0.13882,-0.45749c0.088,-0.16467 0.29282,-0.22682 0.45749,-0.13882c0.04854,0.02595 0.08818,0.06204 0.11768,0.10426c0.11169,-0.15467 0.22114,-0.30497 0.32788,-0.4505c-0.09165,-0.10281 -0.11445,-0.25583 -0.04576,-0.38438c0.08468,-0.15845 0.27751,-0.22197 0.43867,-0.14815c0.0819,-0.11188 0.16359,-0.22501 0.24515,-0.33926c-0.01081,-0.00441 -0.02148,-0.00941 -0.032,-0.01503c-0.16467,-0.088 -0.22682,-0.29282 -0.13882,-0.45749c0.088,-0.16467 0.29282,-0.22682 0.45749,-0.13882c0.02015,0.01077 0.03878,0.02329 0.05578,0.03727c-0.08309,-0.10247 -0.10168,-0.24877 -0.0356,-0.37242c0.08647,-0.1618 0.28573,-0.22462 0.44886,-0.14327c0.17969,-0.26495 0.35965,-0.53337 0.54057,-0.80376c-0.06409,0.00623 -0.13066,-0.00576 -0.19171,-0.03839c-0.16467,-0.088 -0.22681,-0.29282 -0.13881,-0.45749c0.088,-0.16467 0.29282,-0.22681 0.45749,-0.13881c0.00814,0.00435 0.01602,0.00898 0.02365,0.01388c-0.03454,-0.08875 -0.03156,-0.19149 0.01685,-0.28207c0.088,-0.16467 0.29282,-0.22682 0.45749,-0.13882c0.01832,0.00978 0.03535,0.02101 0.05106,0.03347c0.08956,-0.13271 0.17956,-0.26546 0.27006,-0.3981c-0.10968,-0.10196 -0.14167,-0.26856 -0.06777,-0.40685c0.08622,-0.16133 0.28457,-0.22426 0.44744,-0.14398c0.03172,-0.04549 0.06351,-0.09095 0.09538,-0.13636c-0.00254,-0.00128 -0.00508,-0.0026 -0.0076,-0.00395c-0.16467,-0.088 -0.22682,-0.29282 -0.13882,-0.45749c0.088,-0.16467 0.29282,-0.22682 0.45749,-0.13882c0.0288,0.01539 0.05445,0.03435 0.07672,0.05604c0.06819,-0.09414 0.13676,-0.18795 0.20575,-0.28136c-0.04307,-0.09297 -0.04351,-0.20433 0.00851,-0.30166c0.06955,-0.13013 0.21205,-0.19625 0.35003,-0.17482c0.14874,-0.19382 0.29955,-0.3854 0.45274,-0.57417c-0.02931,-0.08564 -0.02437,-0.18277 0.02166,-0.2689c0.06918,-0.12944 0.21053,-0.19553 0.34783,-0.17514c0.10726,-0.12557 0.21572,-0.24962 0.32546,-0.37193c-0.16329,-0.08854 -0.22465,-0.29244 -0.13698,-0.45649c0.088,-0.16467 0.29282,-0.22682 0.45749,-0.13882c0.05291,0.02828 0.09524,0.06861 0.12539,0.1158c0.05143,-0.05328 0.10316,-0.10616 0.15517,-0.1586c-0.09017,-0.10279 -0.11225,-0.25465 -0.04399,-0.38237c0.088,-0.16467 0.29282,-0.22682 0.45749,-0.13882c0.02704,0.01445 0.05131,0.03205 0.07261,0.0521c0.00907,-0.00836 0.01816,-0.01672 0.02725,-0.02505c-0.02205,-0.08047 -0.01453,-0.16921 0.0279,-0.24861c0.08305,-0.15541 0.27017,-0.21951 0.42937,-0.15224c0.04663,-0.03901 0.0935,-0.07763 0.14061,-0.11589c-0.01174,-0.00467 -0.02335,-0.01005 -0.03475,-0.01614c-0.16467,-0.088 -0.22682,-0.29282 -0.13882,-0.45749c0.088,-0.16467 0.29282,-0.22682 0.45749,-0.13882c0.10083,0.05389 0.16322,0.15157 0.17624,0.25701c0.16634,-0.12196 0.33571,-0.23915 0.50833,-0.35116c-0.02846,-0.08508 -0.02319,-0.18125 0.02243,-0.26663c0.088,-0.16467 0.29282,-0.22682 0.45749,-0.13882c0.03245,0.01734 0.06092,0.03922 0.08505,0.06444c0.15733,-0.08794 0.31729,-0.17159 0.48002,-0.25067c0.05555,-0.03678 0.11147,-0.07348 0.16773,-0.11008c-0.02686,-0.084 -0.02102,-0.17837 0.02384,-0.2623c0.088,-0.16467 0.29282,-0.22682 0.45749,-0.13882c0.02632,0.01406 0.05002,0.0311 0.0709,0.0505c0.0428,-0.02657 0.08575,-0.05311 0.12885,-0.07963c-0.00573,-0.06339 0.00637,-0.1291 0.0386,-0.18942c0.088,-0.16467 0.29282,-0.22681 0.45749,-0.13881c0.00795,0.00425 0.01566,0.00877 0.02312,0.01354c0.11318,-0.06768 0.22714,-0.13531 0.34177,-0.20297c-0.0144,-0.07368 -0.00446,-0.1526 0.03368,-0.22397c0.088,-0.16467 0.29282,-0.22682 0.45749,-0.13882c0.02155,0.01152 0.04133,0.02502 0.05926,0.04019c0.24954,-0.14549 0.50125,-0.29154 0.75396,-0.43881c-0.01439,-0.07368 -0.00445,-0.15258 0.03369,-0.22395c0.088,-0.16467 0.29282,-0.22682 0.45749,-0.13882c0.02163,0.01156 0.04148,0.02513 0.05946,0.04036c0.203,-0.11961 0.40609,-0.24027 0.60864,-0.36235c-0.06874,-0.1007 -0.08049,-0.23525 -0.01905,-0.35022c0.088,-0.16467 0.29282,-0.22681 0.45749,-0.13881c0.06052,0.03234 0.10719,0.08046 0.13765,0.13655c0.13234,-0.08234 0.26419,-0.16541 0.39539,-0.24932c-0.03142,-0.08695 -0.02726,-0.18637 0.01975,-0.27433c0.088,-0.16467 0.29282,-0.22681 0.45749,-0.13881c0.02739,0.01463 0.05193,0.03249 0.07343,0.05286c0.13155,-0.08817 0.26216,-0.17736 0.39165,-0.26765c-0.02695,-0.08408 -0.02114,-0.17855 0.02376,-0.26257c0.088,-0.16467 0.29282,-0.22682 0.45749,-0.13882c0.01456,0.00778 0.02832,0.01647 0.04124,0.02597c0.22322,-0.16551 0.44212,-0.33492 0.65569,-0.50878c-0.02909,-0.00654 -0.05778,-0.01707 -0.08535,-0.0318c-0.16467,-0.088 -0.22682,-0.29282 -0.13882,-0.45749c0.088,-0.16467 0.29282,-0.22682 0.45749,-0.13882c0.10853,0.058 0.17253,0.16676 0.17835,0.28132c0.23689,-0.20674 0.46586,-0.41984 0.68533,-0.64012c-0.03174,-0.00635 -0.06309,-0.0174 -0.09311,-0.03345c-0.16467,-0.088 -0.22682,-0.29282 -0.13882,-0.45749c0.088,-0.16467 0.29282,-0.22682 0.45749,-0.13882c0.08724,0.04662 0.14571,0.12604 0.16832,0.21489c0.22846,-0.25298 0.44422,-0.51533 0.64519,-0.78817c-0.10048,0.06764 -0.2341,0.07889 -0.34838,0.01782c-0.16467,-0.088 -0.22682,-0.29282 -0.13882,-0.45749c0.088,-0.16467 0.29282,-0.22682 0.45749,-0.13882c0.14193,0.07585 0.20771,0.2385 0.1668,0.38741c0.08718,-0.1248 0.17127,-0.25176 0.25208,-0.38101c0.33205,-0.01952 0.66565,-0.07192 0.98304,-0.17147l0.24956,-0.07573c0,0 0.3235,-0.09815 0.42166,0.22534c0.00509,0.01676 0.00904,0.03292 0.01196,0.04849c0.14921,-0.07462 0.31181,0.01228 0.31181,0.01228c3.16447,1.6911 5.68284,4.42184 8.62883,6.27493c3.32862,3.54995 3.56669,6.24056 4.72351,10.39554c0.06784,-0.00912 0.13908,0.00223 0.20406,0.03696zM224.7289,151.24953c-0.006,-0.00336 -0.01185,-0.00688 -0.01757,-0.01055c0.00311,0.00797 0.00591,0.01606 0.0084,0.02425c0.00305,-0.00457 0.00612,-0.00913 0.00917,-0.0137z" fill="#888b44"/><path d="M231.82201,195.64425c-0.24544,0.23247 -0.47791,-0.01297 -0.47791,-0.01297l-0.26257,-0.29454c-0.85444,-1.59422 -1.93366,-3.00331 -2.70147,-4.64915c-0.7918,-2.59113 -1.7535,-5.4826 -2.25994,-8.15763c0,0 -0.06183,-0.33236 0.27053,-0.39419c0.33236,-0.06184 0.39419,0.27052 0.39419,0.27052c0.47998,2.63188 1.45925,5.49032 2.22667,8.03963c0.75319,1.61449 1.82563,3.00357 2.66595,4.57144l0.15753,0.14899c0,0 0.23246,0.24544 -0.01298,0.47791z" fill="#6f7238"/><path d="M251.86364,203.36757c-0.10558,-0.05642 -0.15381,-0.13026 -0.17203,-0.2021c-0.89168,-0.48223 -1.67203,-0.94819 -2.43954,-1.64306c0,0 -0.25061,-0.2269 -0.02372,-0.4775c0.22689,-0.25061 0.4775,-0.02372 0.4775,-0.02372c0.78916,0.71447 1.58417,1.16371 2.52198,1.66488l0.0933,0.54268c0,0 -0.15933,0.29815 -0.45749,0.13882z" fill="#6f7238"/><path d="M254.05713,189.42592c-0.27456,-0.14673 -0.16117,-0.41118 -0.14151,-0.45211c-0.0643,-0.65939 -0.1286,-1.31879 -0.19291,-1.97818c-0.26677,-2.78666 -3.0383,-5.54322 -5.2685,-7.14792c-1.9519,-2.28061 -3.69829,-3.935 -6.3508,-5.35252c0,0 -0.29816,-0.15933 -0.13882,-0.45749c0.15933,-0.29816 0.45749,-0.13882 0.45749,-0.13882c2.69168,1.43845 4.5282,3.12582 6.49274,5.45387c2.37387,1.77041 5.18105,4.56564 5.48082,7.57726c0.06761,0.69325 0.1352,1.3865 0.20281,2.07976l-0.08383,0.27733c0,0 -0.15933,0.29816 -0.45749,0.13882z" fill="#6f7238"/><path d="M257.85528,157.72261c0.07693,-0.05133 0.18853,-0.08106 0.33251,-0.00412c0.29816,0.15933 0.13882,0.45749 0.13882,0.45749l-0.42595,0.25375c-3.06304,-0.81607 -5.30509,-1.93852 -8.22891,-3.51282c-2.15519,-1.95122 -4.93675,-2.45126 -6.69101,-4.92756c0,0 -0.19543,-0.27585 0.08043,-0.47127c0.27586,-0.19542 0.47128,0.08043 0.47128,0.08043c1.69351,2.39054 4.43752,2.87245 6.52845,4.7655c2.79418,1.48117 4.8932,2.6342 7.79439,3.35861z" fill="#6f7238"/><path d="M257.15442,160.38282c0.19542,0.27586 -0.08043,0.47127 -0.08043,0.47127l-0.38084,0.18694c-2.52348,-0.07253 -4.8767,-1.90854 -7.07308,-3.08229c-2.47619,-1.32338 -6.41806,-2.96139 -8.09618,-5.24327c0,0 -0.19543,-0.27586 0.08043,-0.47128c0.27586,-0.19542 0.47127,0.08043 0.47127,0.08043c1.45251,2.16543 5.59441,3.8253 7.86316,5.03781c2.0834,1.11337 4.38233,2.94127 6.77274,3.00272l-0.02835,-0.06277c0,0 0.27585,-0.19543 0.47127,0.08043z" fill="#6f7238"/><path d="M254.31654,164.51845c0.07674,-0.06238 0.19779,-0.11094 0.35985,-0.02433c0.29816,0.15933 0.13882,0.45749 0.13882,0.45749l-0.38088,0.26186c-2.75782,-0.30539 -4.50313,-1.50539 -6.96087,-2.81634c-2.87658,-1.54906 -5.34681,-3.73352 -8.2401,-5.27971c0,0 -0.29815,-0.15933 -0.13882,-0.45749c0.15933,-0.29816 0.45749,-0.13882 0.45749,-0.13882c2.89144,1.5452 5.35678,3.75238 8.2401,5.2797c2.32614,1.24533 3.97654,2.38933 6.52441,2.71763z" fill="#6f7238"/><path d="M252.15728,168.53939c0.07494,-0.06958 0.20282,-0.13564 0.37936,-0.04129c0.29816,0.15933 0.13882,0.45749 0.13882,0.45749l-0.35285,0.26379c-2.36998,-0.07456 -4.44139,-0.14652 -6.59812,-1.29518c-2.56579,-1.37121 -7.70192,-3.41403 -8.29861,-6.55004c0,0 -0.06184,-0.33236 0.27052,-0.39419c0.33236,-0.06184 0.39419,0.27052 0.39419,0.27052c0.51281,2.82972 5.64122,4.84218 7.95258,6.07741c1.99081,1.06781 3.93052,1.16137 6.11411,1.2115z" fill="#6f7238"/><path d="M249.21185,176.35911c-0.29816,-0.15933 -0.13882,-0.45749 -0.13882,-0.45749l0.09307,-0.15275c1.22664,-1.34985 2.90179,-2.61903 4.7072,-3.04476c0.75759,-0.17864 2.31465,-0.14897 2.65786,-0.92136c0,0 0.15933,-0.29816 0.45749,-0.13882c0.29816,0.15933 0.13882,0.45749 0.13882,0.45749c-1.05007,1.78077 -5.67265,2.11865 -7.46016,4.10123l0.00202,0.01764c0,0 -0.15933,0.29816 -0.45749,0.13882z" fill="#6f7238"/><path d="M228.4514,161.10284c-0.29816,-0.15933 -0.13882,-0.45749 -0.13882,-0.45749l0.04552,-0.08519c1.15312,-2.08919 2.85625,-4.70972 4.40732,-6.55304c1.85341,-0.93318 3.34186,-5.48828 4.30895,-7.29793c0,0 0.15933,-0.29816 0.45749,-0.13882c0.29816,0.15933 0.13882,0.45749 0.13882,0.45749c-1.063,1.98912 -2.48625,6.38028 -4.4763,7.50187c-1.42857,1.79194 -3.21703,4.34462 -4.23998,6.34911l-0.04552,0.08519c0,0 -0.15933,0.29815 -0.45749,0.13882z" fill="#6f7238"/><path d="M218.54088,179.62595c-0.23247,-0.24544 0.01298,-0.47791 0.01298,-0.47791l0.20363,-0.19149c2.47963,-2.73748 3.67393,-5.66658 5.38047,-8.85993c1.4174,-2.6523 2.10421,-5.57701 3.50691,-8.2018c0,0 0.15933,-0.29815 0.45749,-0.13882c0.29816,0.15933 0.13882,0.45749 0.13882,0.45749c-1.40118,2.62196 -2.08981,5.55004 -3.50692,8.2018c-1.72994,3.23715 -2.96278,6.21829 -5.47555,8.99504l-0.23991,0.2286c0,0 -0.24544,0.23247 -0.47791,-0.01297z" fill="#6f7238"/><path d="M242.99185,144.76601c-0.23247,-0.24544 0.01297,-0.47791 0.01297,-0.47791l0.30563,-0.27307c1.30523,-0.69955 4.37096,-1.08495 5.18485,-2.05441c0,0 0.22689,-0.25061 0.4775,-0.02372c0.25061,0.22689 0.02372,0.4775 0.02372,0.4775c-1.08059,1.13717 -3.8557,1.38673 -5.36667,2.19655l-0.16009,0.16804c0,0 -0.24544,0.23247 -0.47791,-0.01297z" fill="#6f7238"/></g><g fill="#979b4c"><g><path d="M254.45848,166.04308c-0.03794,-0.0072 -0.0743,-0.02226 -0.10646,-0.04451l0.09412,0.10493c0.00187,-0.02054 0.00601,-0.04082 0.01233,-0.06043zM254.27147,165.91204c-0.07347,-0.1238 -0.03959,-0.28153 0.07401,-0.36504c-0.05272,-0.02226 -0.09904,-0.06097 -0.13049,-0.11396c-0.07822,-0.1318 -0.03477,-0.30205 0.09703,-0.38026l0.33691,-0.19994l0.08674,0.14615c0.09349,-0.0348 0.18434,-0.05542 0.27028,-0.06391c-0.00996,-0.04021 -0.01054,-0.08813 0.00397,-0.14502c0.06861,-0.26888 0.33749,-0.20028 0.33749,-0.20028c0.02226,0.0057 0.04429,0.01123 0.06611,0.01657c-0.06241,-0.73265 -0.55889,-1.25645 -0.62281,-2.05099c0,0 -0.0059,-0.08183 0.03322,-0.15971c0.10939,-2.34714 -1.21239,-4.25859 -2.37893,-6.22434c-1.32509,-2.23294 -2.93159,-4.12438 -4.26686,-6.37446c0,0 -0.14162,-0.23864 0.09703,-0.38026c0.23864,-0.14162 0.38026,0.09702 0.38026,0.09702c1.33534,2.25019 2.94064,4.13962 4.26688,6.37446c1.26653,2.13425 2.55275,4.11435 2.44853,6.66441l0.01304,0.1512c0,0 0.00246,0.03417 -0.00635,0.07938c0.12991,0.69588 0.55698,1.19551 0.5921,1.92281c0.72665,0.0691 1.18687,-0.18651 1.76536,-0.89621l0.10618,-0.12282c0,0 0.18162,-0.20982 0.39143,-0.02821c0.20981,0.18161 0.0282,0.39143 0.0282,0.39143l-0.09653,0.11136c-0.2121,0.25729 -0.41697,0.46661 -0.62479,0.6312c0.55635,0.47228 1.07356,0.96289 1.6408,1.42738l0.15844,0.09972c0,0 0.23339,0.15011 0.08328,0.38351c-0.15011,0.23339 -0.38351,0.08328 -0.38351,0.08328l-0.20997,-0.13722c-0.28837,-0.23642 -0.56434,-0.47997 -0.83921,-0.72436c-0.05828,0.1634 -0.12063,0.31786 -0.18667,0.4631c0.48691,0.26402 0.88633,0.70602 1.16968,1.17608c0,0 0.14162,0.23864 -0.09702,0.38027c-0.23864,0.14162 -0.38027,-0.09702 -0.38027,-0.09702c-0.21545,-0.37037 -0.55215,-0.76242 -0.9474,-0.97358c-0.0867,0.14274 -0.1778,0.27246 -0.27265,0.3887c0.35232,0.36928 0.67314,0.78458 0.92866,1.21337l0.12825,0.26631c0,0 0.11944,0.25049 -0.13106,0.36993c-0.25049,0.11944 -0.36992,-0.13105 -0.36992,-0.13105l-0.10456,-0.22194c-0.2304,-0.39005 -0.5241,-0.77081 -0.84567,-1.10766c-0.10807,0.08309 -0.21937,0.15089 -0.33321,0.20288c0.29007,0.51916 0.54289,1.04544 0.75951,1.60736l0.13909,0.23252c0,0 0.14162,0.23864 -0.09702,0.38027c-0.23864,0.14162 -0.38026,-0.09703 -0.38026,-0.09703l-0.16082,-0.27285c-0.23636,-0.60451 -0.50768,-1.16636 -0.8271,-1.7243c-0.38642,-0.00085 -0.78778,-0.17363 -1.18146,-0.53571c-0.03243,0.03364 -0.06245,0.05145 -0.06245,0.05145c-0.81037,0.4809 -1.63233,1.00892 -2.60724,0.98428l-0.00232,0.00029c-0.17994,0.19714 -0.38433,0.02023 -0.38433,0.02023l-0.16756,-0.14873c-2.82311,-1.85971 -4.00423,-3.30248 -5.57379,-6.47992c-1.04043,-2.10827 -4.31513,-5.50813 -4.26558,-7.85051c0,0 0.01454,-0.27712 0.29166,-0.26258c0.27712,0.01454 0.26258,0.29165 0.26258,0.29165c-0.20722,1.93736 3.32774,5.79332 4.20895,7.57563c1.52229,3.08177 2.6018,4.50788 5.37641,6.25894l0.0852,0.0724c0.0547,-0.02414 0.10287,-0.02761 0.10287,-0.02761l0.08319,-0.00452c0.83921,0.03228 1.58087,-0.47403 2.27641,-0.88879c-0.13916,-0.17481 -0.27637,-0.3749 -0.41059,-0.60108l-0.11817,-0.11612c0,0 -0.19002,-0.20223 0.01222,-0.39225c0.1592,-0.14959 0.31084,-0.05608 0.36816,-0.00953c-0.0012,-0.0019 -0.00237,-0.00382 -0.00352,-0.00576zM255.53727,165.71563c-0.02428,0.00058 -0.04887,0.0013 -0.07378,0.00217c-0.00289,0.00265 -0.00583,0.00529 -0.00878,0.00795c0.028,-0.00328 0.05551,-0.00666 0.08257,-0.01012z"/><path d="M248.91334,149.94296c0,0 0.22012,0.16898 0.05114,0.3891c-0.16898,0.22012 -0.3891,0.05113 -0.3891,0.05113c-0.22472,-0.18171 -0.32067,-0.18945 -0.57502,-0.16926c-1.70259,1.23072 -3.5393,2.32281 -5.32294,3.3881c-0.10804,0.06412 -0.2161,0.12824 -0.32414,0.19236c0.0026,0.11173 0.03584,0.22366 0.11335,0.33611l0.07967,0.13425c0,0 0.14162,0.23864 -0.09703,0.38026c-0.23864,0.14162 -0.38027,-0.09702 -0.38027,-0.09702l-0.07966,-0.13424c-0.0631,-0.11686 -0.10744,-0.22715 -0.13588,-0.33288c-0.22137,-0.08396 -0.15992,-0.32481 -0.15992,-0.32481l0.16366,-0.31265c0.00197,-0.00117 0.00393,-0.00234 0.00591,-0.00351c0.01517,-0.05362 0.03343,-0.10714 0.05426,-0.16096c-0.18203,-0.74405 0.14518,-1.58968 0.40819,-2.28686c0.59238,-1.32302 2.47549,-2.38334 3.93053,-2.4908c0.76397,-0.05642 1.24469,0.76688 1.99869,0.69561c0,0 0.24266,-0.01749 0.28994,0.20749c0.01057,0.01077 0.02099,0.02288 0.03122,0.03643c0.09736,0.12908 0.06279,0.23967 0.01698,0.30952c0.10062,0.04368 0.20346,0.10595 0.32042,0.19263z"/></g><path d="M248.08965,149.60374c3.33536,1.92222 10.6305,15.13038 5.71084,18.04987c-4.41239,2.61846 -11.1335,-10.40836 -12.06807,-13.44225c-0.46003,-1.4934 0.57731,-4.0874 2.52429,-3.47377c0.23068,-0.43674 0.58084,-0.81738 1.03671,-1.08791c0.77662,-0.46087 1.68674,-0.49934 2.4634,-0.18356c0.11473,0.03126 0.22596,0.07602 0.33284,0.13761z"/><path d="M247.34572,151.94725c-0.15011,0.23339 -0.38351,0.08328 -0.38351,0.08328l-0.28425,-0.21766c-0.51304,-0.86454 -1.11113,-2.05365 -1.11334,-3.07514c0,0 0.00134,-0.2775 0.27884,-0.27616c0.27749,0.00135 0.27615,0.27884 0.27615,0.27884c-0.01255,0.91242 0.57829,2.01854 1.03564,2.78921l0.10718,0.03411c0,0 0.23339,0.15011 0.08328,0.38351z"/><path d="M249.42916,152.55609c0.01199,0.08075 -0.0042,0.18803 -0.13549,0.26594c-0.23864,0.14162 -0.38027,-0.09702 -0.38027,-0.09702l-0.03213,-0.31814c0.22369,-0.4124 0.37668,-0.85074 0.37532,-1.32215c0,0 0.00134,-0.27751 0.27884,-0.27615c0.27749,0.00135 0.27616,0.27884 0.27616,0.27884c-0.00577,0.52391 -0.14958,1.00548 -0.38244,1.46869z"/><path d="M249.23277,156.18597c-0.23864,0.14162 -0.38026,-0.09703 -0.38026,-0.09703l-0.09385,-0.16146c-0.25403,-0.5628 -0.58202,-1.07942 -0.89703,-1.61023c0,0 -0.14162,-0.23864 0.09702,-0.38027c0.23864,-0.14162 0.38026,0.09703 0.38026,0.09703c0.3257,0.54884 0.66164,1.08314 0.9254,1.66466l0.06548,0.10702c0,0 0.14162,0.23864 -0.09702,0.38027z"/><path d="M252.56879,162.01145c-0.23864,0.14162 -0.38027,-0.09702 -0.38027,-0.09702l-0.13277,-0.22374c-0.77861,-1.31205 -1.60118,-2.59621 -2.38154,-3.9112c0,0 -0.14162,-0.23864 0.09703,-0.38026c0.23864,-0.14162 0.38027,0.09702 0.38027,0.09702c0.78038,1.31501 1.60288,2.59909 2.38153,3.91119l0.13278,0.22374c0,0 0.14162,0.23864 -0.09703,0.38026z"/><path d="M255.28423,166.99511c-0.23864,0.14162 -0.38026,-0.09703 -0.38026,-0.09703l-0.02655,-0.04475c-0.57532,-0.97303 -1.22772,-2.06794 -1.55608,-3.14818c0,0 -0.07952,-0.26587 0.18635,-0.34538c0.26587,-0.07951 0.34538,0.18636 0.34538,0.18636c0.30253,1.0313 0.9506,2.09913 1.50164,3.02397l0.02656,0.04474c0,0 0.14162,0.23864 -0.09703,0.38026z"/><path d="M248.17337,160.92901c-0.23941,0.14033 -0.37974,-0.09907 -0.37974,-0.09907l-0.17358,-0.29662c-0.19209,-0.40278 -0.35527,-0.72413 -0.42572,-1.16c0,0 -0.04286,-0.27417 0.23131,-0.31703c0.27417,-0.04286 0.31704,0.23131 0.31704,0.23131c0.05589,0.37319 0.20229,0.63868 0.36771,0.98571l0.16205,0.27596c0,0 0.14034,0.2394 -0.09907,0.37973z"/><path d="M250.68308,166.27678c-0.23864,0.14162 -0.38026,-0.09702 -0.38026,-0.09702l-0.13594,-0.25c-0.09669,-0.36775 -0.17384,-0.68258 -0.17388,-1.06328c0,0 0.00134,-0.27751 0.27884,-0.27616c0.27749,0.00135 0.27616,0.27884 0.27616,0.27884c-0.00362,0.33176 0.07096,0.59781 0.15562,0.91937l0.07649,0.10798c0,0 0.14162,0.23864 -0.09703,0.38026z"/><path d="M243.40098,154.86057c0.15011,-0.23339 0.38351,-0.08328 0.38351,-0.08328l0.13563,0.09212c0.30505,0.28065 0.60429,0.56652 0.91771,0.8377c0,0 0.20982,0.18162 0.02821,0.39144c-0.18161,0.20981 -0.39143,0.0282 -0.39143,0.0282c-0.31757,-0.27499 -0.62106,-0.56444 -0.93025,-0.8489l-0.06009,-0.03377c0,0 -0.23339,-0.15011 -0.08328,-0.38351z"/></g><path d="M235.25225,179.6756c3.32264,-4.44419 10.96625,-4.88765 15.80271,-3.40698c0.91424,0.18185 1.64942,0.41592 2.52816,0.6787c0.16458,-0.05616 0.33068,-0.10975 0.49896,-0.15957l0.17237,-0.05104c0,0 0.57452,-0.17009 0.74462,0.40443c0.02082,0.07034 0.0305,0.13462 0.03141,0.19327c0.05032,0.0828 0.07065,0.15145 0.07065,0.15145l0.05104,0.17236c1.41978,4.79539 1.96772,9.82795 3.33932,14.46062c0.24318,5.535 -3.56559,11.84836 -6.72148,16.09362c-1.17763,1.67697 -7.77025,4.69049 -8.07982,5.80769c-0.49343,1.78069 4.70883,1.3472 2.70791,4.83827c-2.11673,1.07566 -11.95752,-1.52188 -13.21836,-3.60985c0,0 -0.19432,-0.32954 -0.0091,-0.61726c-0.01281,-0.14386 0.02313,-0.26001 0.02313,-0.26001l0.19163,-0.61917c0.12409,-0.40092 0.24851,-0.80172 0.37336,-1.20241c0.96691,-5.4915 3.19897,-11.08829 1.53322,-16.71444c-0.24675,-5.30116 1.4893,-10.08647 -0.06823,-15.4113c-0.01888,-0.04309 -0.03204,-0.08451 -0.04038,-0.1242c-0.16515,-0.30952 0.06885,-0.62418 0.06885,-0.62418z" fill="#888b44"/></g></g></svg>