<svg version="1.1" xmlns="http://www.w3.org/2000/svg" xmlns:xlink="http://www.w3.org/1999/xlink" width="52.60297" height="53.68112" viewBox="0,0,52.60297,53.68112"><g transform="translate(-216.11062,-155.03861)"><g data-paper-data="{&quot;isPaintingLayer&quot;:true}" fill="#706e68" fill-rule="nonzero" stroke="none" stroke-width="0.5" stroke-linecap="butt" stroke-linejoin="miter" stroke-miterlimit="10" stroke-dasharray="" stroke-dashoffset="0" style="mix-blend-mode: normal"><path d="M220.55085,165.71711c0.85186,-0.42593 1.2778,0.42593 1.2778,0.42593l0.37892,0.98267c-0.00435,1.38634 0.35298,2.63965 0.71361,3.89866c0.91784,0.36431 1.84081,0.71358 2.7674,1.05212c0.28575,-0.1639 0.5801,-0.30913 0.86365,-0.44032c0.36959,-0.171 0.31455,-1.0661 0.18153,-1.87166c-3.69522,-3.1067 -7.22197,-6.42564 -10.39782,-10.39485c0,0 -0.59497,-0.74371 0.14874,-1.33868c0.74371,-0.59497 1.33868,0.14874 1.33868,0.14874c0.69264,0.86594 1.4023,1.70027 2.12702,2.50771c0.02279,-0.02694 0.0476,-0.05391 0.07458,-0.08089c0.67346,-0.67346 1.34692,0 1.34692,0c1.96327,2.0108 9.51709,1.89008 11.98387,0.6567c0.88072,-0.44036 3.02865,-0.41323 3.47622,-1.53251c0.3066,-0.76675 0.25218,-1.63446 0.45118,-2.43595c0,-0.30591 0,-1.30375 0,-1.30375c0,-0.526 0.42641,-0.95241 0.95241,-0.95241c0.526,0 0.95241,0.42641 0.95241,0.95241l0,1.39184l-0.17047,0c0.00157,0.00769 0.00312,0.01538 0.00467,0.02308l0.15867,0.09329c-0.02923,0.11956 -0.05582,0.23749 -0.08052,0.35382c0.05696,0.38415 0.08765,0.77071 0.08765,1.15627c0,0.92591 -1.03498,2.31868 -0.2257,2.76853c3.81132,2.11861 8.51313,-3.98576 11.88592,-2.21287c0.38186,0.20072 0.66892,0.39348 0.8868,0.58316c0.45508,-0.65606 0.87211,-1.34443 1.23727,-2.07775c0,0 0.42593,-0.85186 1.2778,-0.42593c0.85186,0.42593 0.42593,1.2778 0.42593,1.2778c-0.59674,1.189 -1.31481,2.26375 -2.10542,3.27442c0.06669,0.33481 0.17483,0.69974 0.4071,1.11058c0.28701,0.50767 0.42276,1.10062 0.45323,1.70152c0.34058,-0.53736 0.65402,-1.0864 0.93319,-1.64941l0.98267,-0.7043c0,0 0.85186,-0.42593 1.2778,0.42593c0.42593,0.85186 -0.42593,1.2778 -0.42593,1.2778l-0.1308,-0.14757c-0.67078,1.33192 -1.51246,2.58583 -2.44542,3.792c0.47334,0.32403 1.30355,0.27152 2.10456,0.45026c0.25828,-0.10782 0.62792,-0.14394 0.99755,0.22569c0.13763,0.13763 0.21901,0.27526 0.26138,0.40714c0.1745,0.17131 0.33092,0.38464 0.46162,0.65201c0.69324,1.41811 -0.28798,3.48156 0.08722,4.96283c0.5362,2.11691 3.19289,2.83455 3.80992,4.50166c0.00646,0.01744 0.01279,0.03492 0.01901,0.05242c0.45365,0.00126 0.90958,0.00181 1.36821,0.0013c0,0 0.95241,0 0.95241,0.95241c0,0.95241 -0.95241,0.95241 -0.95241,0.95241c-0.36046,-0.00038 -0.71911,-0.00134 -1.07616,-0.00272c0.00985,2.23909 -0.80778,4.69085 0.22971,6.64492c0.28225,0.53165 0.41952,0.98985 0.44499,1.39331c2.13819,1.74784 4.06418,3.7258 5.64779,6.07234l0.19021,-0.04519c0,0 0.85186,0.42593 0.42593,1.2778c-0.42593,0.85186 -1.2778,0.42593 -1.2778,0.42593l-0.92326,-0.60193c-1.34856,-2.04335 -3.00175,-3.79232 -4.84457,-5.34733c-0.94922,0.92469 -2.51556,1.60141 -3.29851,2.81903c-1.83928,2.86039 1.62464,4.90141 -0.37431,7.14779c0.52715,1.18524 0.96016,2.40128 1.27309,3.65302c0.5299,0.78449 1.10045,1.55014 1.76151,2.22779l0.26848,0.94118c0,0 0,0.95241 -0.95241,0.95241c-0.7551,0 -0.91153,-0.59866 -0.94394,-0.84671c-0.69875,-0.77313 -1.30156,-1.63422 -1.87562,-2.50407c-0.27877,-1.11508 -0.65473,-2.20057 -1.1088,-3.26025c-3.59412,1.80453 -9.08371,0.45804 -11.82437,2.84598l0.00311,1.14243c0,0 0,0.95241 -0.95241,0.95241c-0.95241,0 -0.95241,-0.95241 -0.95241,-0.95241l0.00325,-1.03491c-0.01352,-0.08011 -0.02705,-0.16021 -0.04058,-0.2403c-0.1611,-0.05075 -0.31394,-0.12072 -0.45441,-0.21951c-1.22447,-0.86113 -0.9834,-3.97268 -2.95016,-4.25915c-2.19652,-0.31994 -4.78718,0.02548 -7.01873,0.02548c-0.44199,0 -2.50702,0.03258 -2.72765,-0.14224c-0.38939,-0.30854 -0.63112,-0.7846 -0.81685,-1.3134c-0.32527,1.2281 -0.51369,2.50345 -0.51369,3.84364v1.11347c0,0 0,0.95241 -0.95241,0.95241c-0.95241,0 -0.95241,-0.95241 -0.95241,-0.95241v-1.11347c0,-2.3782 0.53963,-4.54648 1.37362,-6.60338c-0.05629,-0.06268 -0.11676,-0.11949 -0.18206,-0.16961c-0.49083,-0.37681 -1.69305,-0.60749 -2.84917,-0.85277c-0.17767,0.22402 -0.35278,0.45106 -0.52519,0.68129c0,0 -0.57145,0.76193 -1.33338,0.19048c-0.76193,-0.57145 -0.19048,-1.33338 -0.19048,-1.33338c0.02,-0.02663 0.04004,-0.05321 0.06011,-0.07976c-0.29108,-0.12468 -0.50629,-0.26614 -0.60561,-0.43287c-0.44821,-0.75242 -0.12859,-1.74688 -0.19289,-2.62031c0.35038,-1.26053 0.56804,-2.5856 0.68847,-3.9459c-0.10943,0.25463 -0.34618,0.53005 -0.85835,0.53005c-0.95241,0 -0.95241,-0.95241 -0.95241,-0.95241l0.15996,-0.80667c0.47797,-0.69337 1.08243,-1.26102 1.77297,-1.73937c-0.00127,-2.46153 -0.22583,-4.96724 -0.479,-7.35625c-1.09664,-0.00056 -2.19187,-0.00161 -3.28519,-0.00161c0,0 -0.95241,0 -0.95241,-0.95241c0,-0.95241 0.95241,-0.95241 0.95241,-0.95241c1.02431,0 2.05043,0.0011 3.07791,0.00199c-0.04389,-0.39926 -0.08708,-0.79376 -0.12855,-1.18267c-0.06304,-0.59116 -0.17694,-1.16113 -0.31349,-1.72137c-0.44836,-0.1823 -0.89536,-0.3685 -1.34084,-0.55911c0,0 -0.87541,-0.37517 -0.50023,-1.25058c0.32851,-0.76652 1.04054,-0.57422 1.21259,-0.51452c-0.25105,-0.96346 -0.45161,-1.94598 -0.4545,-3.00745l-0.17782,-0.1308c0,0 -0.42593,-0.85186 0.42593,-1.2778zM223.59476,173.99104c0.05169,0.44917 0.10506,0.9068 0.15869,1.37146c0.04886,0.00001 0.09773,0.00001 0.14659,0.00001c-0.0158,-0.69692 -0.00583,-1.33182 0.07281,-1.54236c0.03924,-0.10507 0.0861,-0.20618 0.13969,-0.30354c-0.20826,-0.07752 -0.41631,-0.15565 -0.62414,-0.23443c0.04267,0.23328 0.07879,0.46931 0.10636,0.70887zM223.59057,191.79512c-0.07831,0.48288 0.0577,0.80976 0.33335,1.04512c0.63242,-0.72614 1.29096,-1.42081 1.97044,-2.09018c-0.069,-0.77707 0.051,-1.57648 -0.01715,-2.35208c-0.10057,-1.14459 -0.38671,-2.16235 -0.64466,-3.20638c-0.27941,0.12477 -0.54908,0.25693 -0.80629,0.39794c-0.05294,2.16091 -0.29155,4.26879 -0.83569,6.20559zM230.38524,198.60613c0.40296,0.41348 1.14887,-0.14224 1.72622,-0.14224c2.2947,0 5.23087,-0.44323 7.45637,0.02548c1.11858,0.23559 1.76298,1.13421 2.27365,2.08882c-0.15384,-1.02372 -0.29264,-2.04854 -0.40473,-3.07629c-1.11824,-0.75505 -2.42216,-1.28115 -3.68003,-1.60839c-2.07911,-0.34884 -4.87033,-1.51975 -7.01428,-0.86264c-0.35222,0.10795 -0.67355,0.43838 -0.99755,0.65802c-0.0956,0.20857 -0.18827,0.41816 -0.2777,0.62887c0.22305,0.84973 0.37548,1.73163 0.91805,2.28839zM254.8725,200.7549c0.18686,-0.07347 0.42491,-0.15318 0.67591,-0.24129c-0.8111,-1.58762 -1.78338,-3.11901 -2.84791,-4.60791c-0.28802,-0.00855 -0.54511,-0.01267 -0.73113,0.0045c-1.69892,0.15686 -3.84071,1.09281 -5.60912,1.61568c-1.18931,0.35164 -0.65001,2.72353 -2.30166,2.56419c-0.14154,-0.01365 -0.26387,-0.06367 -0.37285,-0.13935c0.14283,0.99133 0.2999,1.98177 0.46173,2.97372c2.31742,-1.80934 7.95203,-1.07921 10.72503,-2.16954zM257.05183,199.23178c-0.03483,-0.05611 -0.06926,-0.11318 -0.10325,-0.17116c0.05594,0.10394 0.11123,0.20811 0.16585,0.31251c-0.012,-0.04588 -0.03258,-0.09299 -0.0626,-0.14136zM256.63556,192.78691c0.38646,-0.61764 2.62065,-1.92272 3.46181,-2.96674c-1.03146,-0.78051 -2.10857,-1.51308 -3.21382,-2.213c-0.80023,1.09334 -1.38799,2.19243 -1.55744,3.57448c-0.13668,1.11478 0.45352,3.64276 -0.27182,4.45423c-0.03652,0.04086 -0.08364,0.07626 -0.13975,0.10689c0.64921,0.95062 1.25773,1.91861 1.80896,2.9071c-0.85832,-1.67927 -1.28581,-3.94849 -0.08794,-5.86296zM251.50306,165.80329c0.10699,-0.39076 0.01954,-1.2458 -0.18846,-2.10789c-0.58527,0.65861 -1.19307,1.29901 -1.80755,1.93748c0.66065,0.85989 0.74526,1.82845 1.58771,2.5068c0.03404,-0.04038 0.06799,-0.0808 0.10186,-0.12128c-0.08868,-0.6447 0.10399,-1.38581 0.30645,-2.21512zM250.11922,161.32481c-0.72357,-0.31318 -2.08875,0.63966 -2.6455,0.84844c-2.04897,0.76837 -6.18784,2.4615 -8.82215,1.51519c0.00909,0.47675 0.02123,0.95369 0.0364,1.43074c2.89754,-0.10741 5.62091,1.03185 8.48485,0.20853c1.1539,-1.18491 2.3154,-2.35204 3.36366,-3.61205c-0.13285,-0.19072 -0.27314,-0.32848 -0.41726,-0.39086zM225.02148,165.71711c3.10609,1.55853 6.10797,2.32506 9.59766,1.61052c0.95193,-0.19491 1.02102,-1.59408 2.17167,-1.93332c-0.03527,-1.05261 -0.05609,-2.10463 -0.06238,-3.1553c-3.20884,1.89642 -10.16274,2.44187 -14.29607,1.05988c0.82105,0.81816 1.65729,1.6108 2.5062,2.38399c0.05239,0.01897 0.08292,0.03424 0.08292,0.03424zM252.71525,172.52201c0.01443,0.04304 0.06183,0.08565 0.1345,0.12853c0.21159,-0.04127 0.42461,-0.05814 0.63814,-0.03008c0.38701,-0.85783 0.74068,-1.89659 1.07465,-2.68294c-0.53647,-0.05314 -1.1536,-0.03525 -1.65134,-0.16317c0.02009,0.94496 -0.4754,1.91429 -0.19595,2.74765zM255.05057,173.49263c0.18955,0.10648 0.33614,0.22336 0.40843,0.35349c0.05312,0.09563 0.09811,0.19381 0.13618,0.29416c0.03011,-0.85873 0.25522,-1.78164 0.26874,-2.61313c-0.2643,0.62368 -0.52329,1.31494 -0.81335,1.96548zM255.87769,177.27273c0.10557,0.59171 0.58269,1.30597 1.03542,1.95996c0.74547,0.0033 1.49332,0.00799 2.24561,0.01235c-0.92714,-1.08725 -2.75256,-2.21061 -3.35657,-3.73018c0.00939,0.58836 -0.02534,1.19243 0.07554,1.75787zM257.81876,181.13526c0.00281,0.97613 -0.28725,2.94403 -0.54861,4.49243c0.84838,0.52809 1.6821,1.07233 2.49526,1.639c-0.35168,-2.02848 0.30296,-4.09944 0.09577,-6.11778c-0.6848,-0.00448 -1.36505,-0.00945 -2.04242,-0.01364zM227.90006,193.12079c-0.13127,-0.40001 -0.70145,-0.41613 -1.12381,-0.58311c-0.3066,0.31561 -0.6083,0.63701 -0.90457,0.96483c0.78502,0.15778 1.6295,0.32856 2.28668,0.72529c-0.09722,-0.42758 -0.17111,-0.84132 -0.25829,-1.10701zM224.86437,183.3937c-0.06668,-0.46717 -0.10776,-0.95374 -0.10776,-1.47079c0,-1.73943 0.46507,-3.18384 -0.7626,-4.41151c-0.00329,-0.06706 -0.00767,-0.1499 -0.01276,-0.24537c-0.00474,0 -0.00948,0 -0.01422,0.00001c0.2201,2.04717 0.40989,4.18755 0.45875,6.31218c0.14461,-0.06331 0.29088,-0.12475 0.43859,-0.18452zM226.6543,184.82484c0.14082,1.21829 0.97598,2.0919 1.11347,3.34041c0.03132,0.28443 -0.00776,0.58884 -0.06057,0.8954c1.03494,-0.91596 2.10464,-1.78972 3.19317,-2.64023c-0.16587,-0.88337 -0.08507,-2.0823 -0.03508,-3.03261c-1.34744,0.40498 -2.84393,0.77769 -4.22905,1.25609c0.00516,0.061 0.01116,0.12132 0.01805,0.18094zM238.15763,194.03134c0.60342,0.16221 1.86493,0.54597 3.07391,1.10441c-0.03764,-0.60441 -0.06308,-1.2103 -0.07398,-1.81803c-0.47205,-1.65083 -0.90725,-3.31821 -1.30518,-4.9988c-1.19752,-1.3604 -3.02277,-1.69924 -4.88588,-1.60287c-1.22382,2.1201 -2.62125,4.18326 -3.83794,6.31024c2.10229,-0.41682 5.65035,0.77685 7.02908,1.00505zM243.97812,197.26213c0.02409,-0.28018 0.08266,-0.54173 0.19532,-0.66872c0.38684,-0.43603 0.98943,-0.62619 1.52595,-0.85404c1.49874,-0.63648 2.98646,-0.76666 4.39556,-1.36805c0.28799,-0.12291 0.74672,-0.23072 1.2346,-0.30205c-1.15192,-1.48505 -2.36998,-2.93182 -3.58103,-4.35489c-0.49321,-0.10068 -0.99453,-0.21666 -1.44033,-0.20199c-1.14432,0.03764 -2.61768,1.3212 -3.85504,1.38145c0.18914,0.71578 0.38509,1.4288 0.58778,2.1388c0.02908,1.117 0.10257,2.22609 0.20757,3.33052c0.32289,0.28045 0.57815,0.5809 0.72962,0.89896zM253.43556,190.94891c0.19867,-1.56573 0.8041,-2.93555 1.74602,-4.16952c0.01316,-0.06591 0.02425,-0.13073 0.0335,-0.19457c-0.88392,-0.52553 -1.77976,-1.0357 -2.67913,-1.53783c-0.81402,1.28403 -1.71599,3.23133 -2.61497,4.29093c1.30534,1.54579 2.60463,3.1222 3.8099,4.74583c-0.00582,-0.68168 -0.34476,-2.74507 -0.29531,-3.13484zM255.10576,183.433c0.09083,-0.75433 0.95081,-1.35088 0.87083,-2.10644c-0.00269,-0.02545 -0.03669,-0.09561 -0.09399,-0.20008c-0.98357,-0.00226 -1.96441,-0.00029 -2.94773,0.00984c0.17872,0.56823 0.37034,1.13232 0.54758,1.65893l0.39085,-0.15634l0.5087,1.27176c0.23605,0.13502 0.47151,0.27071 0.70626,0.40719c-0.01938,-0.27738 -0.02063,-0.56815 0.01751,-0.88486zM253.99746,177.57785c-0.10693,-0.57892 0.05292,-1.50348 -0.03062,-2.22521c-0.63095,0.61826 -1.38996,1.15365 -1.52995,1.40859c-0.29883,0.5442 -0.23997,1.45117 -0.01876,2.48243c0.78641,-0.00977 1.57088,-0.01414 2.35583,-0.01512c-0.37896,-0.66966 -0.71568,-1.32143 -0.7765,-1.65068zM248.53513,166.68628c-0.13218,0.1524 -0.27807,0.28809 -0.43603,0.40853c-0.55402,0.58056 -1.10369,1.1696 -1.63746,1.77898c-0.23905,0.27292 -0.47437,0.54476 -0.70612,0.81579c0.48515,0.44823 1.02855,0.90485 1.32009,0.96117c0.55907,0.108 1.22254,-0.0281 1.82213,-0.04142c0.46651,-0.50706 0.93213,-1.01759 1.3886,-1.53427c-0.64192,-0.58871 -1.2982,-1.16423 -1.75121,-2.38879zM235.17113,169.15072c-1.98157,0.65525 -4.06809,0.57606 -6.08096,0.11032c1.43533,1.18089 2.89354,2.33585 4.36386,3.49082c1.44807,-0.81419 2.22701,-2.56434 3.54451,-3.29231c-0.03317,-0.48306 -0.06332,-0.9662 -0.09045,-1.44934c-0.55588,0.43512 -1.10513,0.93158 -1.73697,1.14051zM241.81167,187.75331c1.02748,1.97933 1.24518,0.6269 3.15206,0.16106c0.4534,-0.11076 0.80809,-0.16111 1.11366,-0.16371c-0.57156,-0.6751 -1.13367,-1.34628 -1.67819,-2.01516c-1.11346,-1.36774 -2.05761,-2.92623 -3.25341,-4.23348c-0.2174,0.00138 -0.43444,0.00322 -0.65118,0.00596c-0.0304,0.02377 -0.06081,0.04753 -0.09125,0.07126c0.34894,1.9706 0.74833,3.92937 1.19722,5.87125c0.07009,0.09689 0.14042,0.19777 0.2111,0.30282zM249.65995,185.57663c0.35786,-0.61928 0.73783,-1.08178 1.17411,-1.47094c-0.37621,-0.20677 -0.75211,-0.41295 -1.12709,-0.61906c-1.31812,-0.75318 -2.6596,-1.44109 -4.01907,-2.07888c-0.71362,0.04501 -1.41875,0.06654 -2.11763,0.07761c0.77805,1.00616 1.5026,2.06015 2.30625,3.0477c0.87104,1.07036 1.78623,2.14742 2.71358,3.23721c0.38117,-0.78923 0.96598,-2.01388 1.06985,-2.19364zM246.65424,172.5084c-0.62241,-0.1501 -1.4017,-0.75364 -2.09446,-1.38804c-1.05415,1.29192 -2.03194,2.57684 -2.94999,3.88578c1.18313,-0.0644 2.36437,-0.1403 3.54305,-0.2297c0.14587,-0.15788 0.29048,-0.31723 0.43379,-0.47811c0.52366,-0.62848 1.07706,-1.25225 1.64436,-1.87644c-0.20787,0.08028 -0.4083,0.12713 -0.57675,0.0865zM240.09704,172.24964c-0.36278,-0.02841 -0.69914,-0.35559 -1.0195,-0.66616c0.09638,1.08742 0.20821,2.17384 0.33534,3.25843c0.6236,-0.92488 1.27353,-1.83489 1.95493,-2.73941c-0.41506,0.11814 -0.84717,0.18031 -1.27078,0.14714zM229.88977,172.4598c0.02489,-0.01945 0.0499,-0.03703 0.07499,-0.05285c-0.55126,-0.44087 -1.10005,-0.88357 -1.64581,-1.32946c-0.18747,0.61253 -0.48543,1.13498 -0.81386,1.64864c0.2963,0.10391 0.59287,0.20701 0.88967,0.30944c0.04736,-0.27085 0.21278,-0.58746 0.70203,-0.70977c0.36084,-0.09021 0.616,-0.00427 0.79298,0.134zM238.92866,169.73484c0.49802,0.2741 0.99081,0.56922 1.34253,0.61795c0.88761,0.12297 1.71555,-0.61313 2.38029,-1.43489l0.2226,-0.89039c0.01566,-0.06901 0.03882,-0.13518 0.06856,-0.19759c-1.54299,-0.17202 -3.06239,-0.48599 -4.16713,-0.58502c0.04197,0.83006 0.09304,1.66016 0.15314,2.48995zM244.71817,167.97495c0.00858,-0.00989 0.01717,-0.01978 0.02576,-0.02968c-0.01163,-0.00005 -0.02326,-0.00011 -0.0349,-0.00019c0.00321,0.00989 0.00625,0.01984 0.00914,0.02987zM250.24143,171.93473c-0.06261,0.4466 -0.14647,0.89157 0.18625,1.06162c0.17344,0.08864 0.3514,0.12619 0.53313,0.12954c-0.05289,-0.52299 0.09556,-1.45306 0.17652,-2.17966c-0.29721,0.33113 -0.59648,0.66038 -0.8959,0.9885zM232.14821,187.79106c-1.39838,1.09729 -2.76273,2.23537 -4.05829,3.45492c0.45513,0.32905 1.08708,0.4903 1.42453,0.90489c0.83896,-1.46506 1.75144,-2.90444 2.63376,-4.35981zM230.79556,181.46407c-0.21271,-1.45773 -0.66682,-2.84765 -1.15086,-4.22076c-1.16744,0.01037 -2.33457,0.01624 -3.5008,0.01944c0.93588,1.42879 0.64613,3.55934 0.51484,5.49062c1.39273,-0.44723 2.82738,-0.82673 4.13682,-1.2893zM228.97616,175.34778c-0.01511,-0.04432 -0.03015,-0.08865 -0.04512,-0.13299c-0.81787,-0.27647 -1.63463,-0.55636 -2.44925,-0.84259c-0.16064,0.30494 -0.30703,0.63045 -0.42762,0.98826c0.97343,-0.00205 1.94755,-0.00591 2.92199,-0.01268zM222.34256,187.39216c-0.00556,0.00862 -0.01109,0.01726 -0.01659,0.02592zM236.35565,179.88035c0.30878,-0.56744 0.62309,-1.12493 0.94385,-1.67415c-0.12309,-0.09876 -0.24618,-0.19732 -0.36927,-0.29569c-0.7229,-0.25312 -1.44757,-0.50145 -2.17328,-0.74704c-1.05414,0.02474 -2.10873,0.04364 -3.16333,0.05804c0.39661,1.14249 0.76992,2.29798 0.99886,3.49591c1.27204,-0.42469 2.5209,-0.68063 3.76318,-0.83706zM236.59324,175.21576c0.31342,-0.0095 0.62678,-0.01961 0.94006,-0.03036c-0.10332,-0.8742 -0.19682,-1.74961 -0.28043,-2.62577c-0.58248,0.61652 -1.31775,1.12333 -2.11648,1.51155c0.48488,0.38016 0.97063,0.76138 1.45685,1.14458zM247.88396,174.54373c0.44198,-0.04197 0.88352,-0.08607 1.32459,-0.13242c-0.20467,-0.25382 -0.29778,-0.59024 -0.35966,-0.94938c-0.32596,0.36028 -0.64846,0.72055 -0.96493,1.08179zM250.29639,176.20746c-1.41558,0.15689 -2.83596,0.29066 -4.26006,0.40468c-0.65751,0.68077 -1.33831,1.33455 -2.03718,1.96746c0.68389,0.28809 1.36424,0.58608 2.04042,0.89581c1.53814,-0.10008 3.04634,-0.16162 4.54091,-0.19825c-0.19612,-1.17802 -0.19436,-2.33845 0.06071,-3.12134c-0.11668,0.0121 -0.23184,0.0287 -0.3448,0.05163zM249.53003,181.20949c0.37113,0.20034 0.74059,0.4054 1.10826,0.61551c0.32862,0.18062 0.65728,0.36128 0.98566,0.5423c-0.20904,-0.35609 -0.39471,-0.76418 -0.55345,-1.20108c-0.51171,0.01139 -1.02496,0.02563 -1.54048,0.04327zM238.70283,182.87909c-0.91536,0.68793 -1.83874,1.36688 -2.76084,2.04771c-0.02984,0.05867 -0.05989,0.11726 -0.09013,0.1758c1.37707,0.00322 2.43895,0.03657 3.3664,0.37757c-0.18158,-0.86422 -0.35341,-1.7314 -0.51543,-2.60108zM234.38328,183.78886c0.06571,-0.13409 0.13045,-0.2686 0.19416,-0.40356c0.22831,-0.48223 0.45891,-0.95626 0.69224,-1.42289c-0.64975,0.13125 -1.302,0.30031 -1.95864,0.5183c-0.15281,0.07607 -0.3128,0.14937 -0.47912,0.22035c0.04069,0.62313 0.07615,1.58236 -0.02777,2.26391c0.52477,-0.39414 1.05172,-0.7855 1.57914,-1.17611zM240.28753,176.97262c-0.02447,0.03801 -0.0489,0.07604 -0.07329,0.11412c0.61507,0.22841 1.22829,0.46196 1.83921,0.70192c0.36002,-0.318 0.71574,-0.64101 1.06648,-0.96984c-0.94295,0.05854 -1.88718,0.10948 -2.8324,0.1538z"/></g></g></svg>