<svg version="1.1" xmlns="http://www.w3.org/2000/svg" xmlns:xlink="http://www.w3.org/1999/xlink" width="42.3557" height="40.44353" viewBox="0,0,42.3557,40.44353"><g transform="translate(-218.19771,-158.97402)"><g data-paper-data="{&quot;isPaintingLayer&quot;:true}" fill-rule="nonzero" stroke="#000000" stroke-linejoin="miter" stroke-miterlimit="10" stroke-dasharray="" stroke-dashoffset="0" style="mix-blend-mode: normal"><path d="M218.28899,199.39845v-40.31754h42.19278v40.31754z" fill="#352400" stroke-width="0" stroke-linecap="butt"/><path d="M218.44858,165.66558l41.73775,-0.17648" fill="none" stroke-width="0.5" stroke-linecap="round"/><path d="M218.50712,173.13631l41.73775,-0.17648" fill="none" stroke-width="0.5" stroke-linecap="round"/><path d="M218.56565,180.69528l41.73775,-0.17648" fill="none" stroke-width="0.5" stroke-linecap="round"/><path d="M218.44771,189.57787l41.73775,-0.17648" fill="none" stroke-width="0.5" stroke-linecap="round"/><path d="M230.36105,159.31226v6.00035" fill="none" stroke-width="0.5" stroke-linecap="round"/><path d="M247.65619,159.22402v6.08859" fill="none" stroke-width="0.5" stroke-linecap="round"/><path d="M239.97926,165.84206v7.05924" fill="none" stroke-width="0.5" stroke-linecap="round"/><path d="M223.39005,165.75382v6.971" fill="none" stroke-width="0.5" stroke-linecap="round"/><path d="M254.09774,165.84206l0.08824,6.88276" fill="none" stroke-width="0.5" stroke-linecap="round"/><path d="M230.71401,173.22484l-0.17648,7.14748" fill="none" stroke-width="0.5" stroke-linecap="round"/><path d="M247.21498,173.22484v6.971" fill="none" stroke-width="0.5" stroke-linecap="round"/><path d="M223.56653,180.90177l-0.17648,8.47109" fill="none" stroke-width="0.5" stroke-linecap="round"/><path d="M240.33223,180.90177l-0.70592,8.38285" fill="none" stroke-width="0.5" stroke-linecap="round"/><path d="M254.80367,180.90177l0.61768,8.20637" fill="none" stroke-width="0.5" stroke-linecap="round"/><path d="M231.59642,189.72581v9.35349" fill="none" stroke-width="0.5" stroke-linecap="round"/><path d="M249.8622,189.81406v9.35349" fill="none" stroke-width="0.5" stroke-linecap="round"/></g></g></svg>