<svg version="1.1" xmlns="http://www.w3.org/2000/svg" xmlns:xlink="http://www.w3.org/1999/xlink" width="34.11017" height="13.64106" viewBox="0,0,34.11017,13.64106"><g transform="translate(-223.51617,-190.89047)"><g data-paper-data="{&quot;isPaintingLayer&quot;:true}" fill-rule="nonzero" stroke="none" stroke-width="0.5" stroke-linecap="butt" stroke-linejoin="miter" stroke-miterlimit="10" stroke-dasharray="" stroke-dashoffset="0" style="mix-blend-mode: normal"><path d="" fill-opacity="0.30196" fill="#a60000"/><path d="" fill-opacity="0.30196" fill="#a60000"/><path d="" fill-opacity="0.30196" fill="#a60000"/><path d="" fill-opacity="0.30196" fill="#a60000"/><path d="M254.1622,193.38993c0,0.75 -0.75,0.75 -0.75,0.75l-0.16459,-0.07918c-0.77673,0.38659 -1.63267,1.2318 -2.16223,2.21262c0.77028,-0.29456 1.54879,-0.58133 2.33965,-0.84495c2.66928,-0.88976 4.98478,-0.0234 3.94868,3.19868l0.03849,-0.11217c0,0 0,0.75 -0.75,0.75c-0.75,0 -0.75,-0.75 -0.75,-0.75l0.03849,-0.36217c0.71504,-2.04612 -0.56866,-1.79554 -2.05132,-1.30132c-1.13728,0.37909 -2.2417,0.79208 -3.32691,1.20346c-0.00428,0.31183 0.04299,0.6189 0.15309,0.91223c0.30866,0.82241 1.50197,0.5653 1.88713,1.52977c0.45303,1.13443 -0.6261,2.3519 -1.29443,3.02361c-6.09116,2.35659 -12.55891,-0.14743 -18.78104,-0.13058c-1.63109,-0.00383 -4.55346,-0.95779 -4.96061,-2.88514c-0.32626,-1.54441 1.15151,-2.24134 1.48067,-3.53718c0.06602,-0.25991 0.09775,-0.58178 0.09523,-0.93402c-0.18017,-0.13008 -0.36911,-0.24655 -0.5698,-0.34493c-2.38594,-1.16962 -4.36422,-0.96961 -3.33397,2.08909c0,0 0.23717,0.71151 -0.47434,0.94868c-0.71151,0.23717 -0.94868,-0.47434 -0.94868,-0.47434c-0.75626,-2.2894 -0.26243,-5.53146 3.00883,-4.84211c0.76336,0.16086 1.4304,0.4564 2.04285,0.82814c-0.27638,-0.90941 -0.76072,-1.69626 -1.45233,-1.88669c0,0 -0.71151,-0.23717 -0.47434,-0.94868c0.23717,-0.71151 0.94868,-0.47434 0.94868,-0.47434c1.64988,0.60667 2.62086,2.70189 2.75072,4.64424c1.23599,1.06043 2.41304,2.20164 4.02008,2.73803c5.31519,2.19277 9.83971,0.53055 14.5532,-1.31274c0.47622,-1.83166 1.96326,-3.58092 3.35342,-4.27884l0.83541,-0.07918c0,0 0.75,0 0.75,0.75zM228.99781,200.02507c0.50313,1.29904 2.249,1.86836 3.53939,1.86486c5.86436,0.01378 12.20513,2.42552 17.96896,0.36942c1.60356,-1.58588 -0.5329,-1.26139 -1.1573,-2.69662c-0.1329,-0.30548 -0.21562,-0.62331 -0.25468,-0.94777c-4.82628,1.81461 -9.38912,3.26674 -14.93994,1.10421c-0.15691,-0.05223 -1.52411,-0.5038 -1.60045,-0.54542c-0.80353,-0.43812 -1.41894,-1.14956 -2.04249,-1.8407c-0.1491,0.47979 -1.63557,2.37681 -1.51349,2.69202z" fill="#797004"/></g></g></svg>