<svg version="1.1" xmlns="http://www.w3.org/2000/svg" xmlns:xlink="http://www.w3.org/1999/xlink" width="19.71539" height="15.78026" viewBox="0,0,19.71539,15.78026"><g transform="translate(-237.91287,-174.5202)"><g data-paper-data="{&quot;isPaintingLayer&quot;:true}" fill-rule="nonzero" stroke="none" stroke-width="0.5" stroke-linecap="butt" stroke-linejoin="miter" stroke-miterlimit="10" stroke-dasharray="" stroke-dashoffset="0" style="mix-blend-mode: normal"><path d="M247.0092,186.11139c-0.41294,-0.21184 -0.90133,-0.31651 -1.41501,-0.33248c-1.02329,-0.59093 -2.15487,-0.99589 -3.20697,-1.00062c-1.94642,-1.92054 -4.38246,-4.38406 -4.47434,-6.78608c0.75782,-0.54715 1.23345,-1.47727 1.37016,-2.46387c0.23606,-0.10467 0.48521,-0.1876 0.74626,-0.24561c0.10953,-0.09315 0.22924,-0.17471 0.35721,-0.24277c0.00973,-0.01701 0.02016,-0.0336 0.03131,-0.04977c0.9726,-0.24753 2.11107,-0.32665 3.19449,-0.47c0.30369,0.03301 0.60548,0.07391 0.89416,0.11797c0.24173,0.10379 0.50803,0.16131 0.78775,0.1614c1.75125,0.60715 3.23621,1.78658 4.94466,2.32201c0.77549,0.84999 1.7432,1.6684 2.59103,2.21441c0.42058,0.72631 0.91187,1.3826 1.06311,1.65592c1.24877,2.2569 2.48435,4.47831 3.7176,6.74319c0.00574,0.02104 0.01164,0.04206 0.01767,0.06303c-0.0444,0.07994 -0.09171,0.15956 -0.142,0.23882c-0.37012,-0.42471 -0.74687,-0.82591 -1.15535,-1.2344c0,0 -0.17678,-0.17677 -0.35356,0c-0.17678,0.17677 0,0.35356 0,0.35356c0.24134,0.24134 0.47025,0.47944 0.69349,0.72131c-0.07141,0.10778 -0.01302,0.23916 -0.01302,0.23916c0.0936,0.21016 0.19995,0.41146 0.30114,0.61533c-0.03107,0.03492 -0.0628,0.06975 -0.09518,0.10449c-0.1925,-0.07876 -0.38617,-0.15439 -0.57327,-0.25575c0,0 -0.02091,-0.01126 -0.05332,-0.0204c-0.27231,-0.43988 -0.54461,-0.87977 -0.81692,-1.31965c0,0 -0.13159,-0.21256 -0.34416,-0.08097c-0.21257,0.13159 -0.08098,0.34416 -0.08098,0.34416c0.39008,0.63014 0.8054,1.30103 1.20855,1.95227c-0.07948,0.06613 -0.15868,0.12948 -0.23765,0.19011c-0.40185,-0.62815 -0.97773,-1.21789 -1.24283,-1.87245c0,0 -0.09849,-0.22978 -0.32827,-0.1313c-0.22978,0.09848 -0.1313,0.32826 -0.1313,0.32826c0.3096,0.69511 0.89044,1.29499 1.29713,1.96466c-0.04347,0.02866 -0.08688,0.05653 -0.1302,0.0836c-0.4365,-0.69455 -1.02766,-1.21335 -1.75953,-1.63165c0,0 -0.21707,-0.12404 -0.3411,0.09302c-0.12403,0.21706 0.09303,0.3411 0.09303,0.3411c0.65213,0.37257 1.18405,0.82584 1.57461,1.44333c-0.02375,0.01214 -0.04747,0.02404 -0.07118,0.03572c-0.16184,-0.06381 -0.30227,-0.10482 -0.4677,-0.11232c-1.46186,-1.87566 -4.60847,-3.63438 -7.44949,-4.07674z" fill="#8f5029"/><path d="M242.27032,174.78727c0.02887,-0.06967 0.08483,-0.10519 0.13438,-0.12329c0.05408,-0.0063 0.10824,-0.01257 0.16242,-0.0188c0.18973,0.00014 0.38708,0.00089 0.59034,0.00316c0.11388,-0.07844 0.28094,-0.12615 0.49772,-0.01054c0.01236,0.0066 0.0242,0.01335 0.03553,0.02025c0.32012,0.00833 0.65028,0.02186 0.98449,0.04365c0.19491,0.06346 0.40296,0.09779 0.61902,0.09786c0.55334,0.19184 1.0801,0.44081 1.59572,0.70855c-0.04225,-0.01023 -0.08471,-0.02017 -0.12734,-0.02983c-0.08035,0.25315 -0.17105,0.50425 -0.27143,0.75276c0.05752,0.01586 0.11481,0.031 0.17187,0.04538c0.36523,0.16135 0.73255,0.32657 1.09572,0.50163c0.13338,-0.19457 0.26591,-0.39064 0.39787,-0.58803c0.29734,0.15957 0.59523,0.3147 0.89681,0.45765c-0.13253,0.19861 -0.26561,0.39591 -0.39951,0.59172c0.69639,0.38703 1.35603,0.83197 1.93034,1.38088c0.07244,-0.17303 0.14088,-0.35305 0.20509,-0.54061c-0.39133,-0.41121 -0.78959,-0.83321 -1.22,-1.20244c0.22,0.0909 0.44279,0.1733 0.66952,0.24436c0.45775,0.50172 0.98248,0.99245 1.51,1.42265c-0.01203,0.03062 -0.03234,0.06225 -0.06397,0.09388c-0.01599,0.01599 -0.03197,0.02909 -0.04783,0.03968c-1.37122,3.65064 -4.20321,4.46333 -6.86259,6.68037c-0.35259,-0.15839 -0.71166,-0.29036 -1.07042,-0.38819c0.272,-0.23898 0.54752,-0.4609 0.82445,-0.67065c-0.07406,-0.04745 -0.09762,-0.12923 -0.10512,-0.17646c-0.2566,-0.43518 -0.57449,-0.79765 -0.92866,-1.13769c-0.47509,0.35857 -0.97507,0.69401 -1.50442,1.00324c0.2007,0.16308 0.40496,0.32108 0.61372,0.4726c0.09285,0.12794 0.18626,0.23997 0.28494,0.34838c-0.16872,-0.01972 -0.33621,-0.03037 -0.50174,-0.03111c-0.88619,-0.8744 -1.87387,-1.86136 -2.69561,-2.90383c0.05889,0.05714 0.11776,0.11433 0.17664,0.17152c0.51281,-0.27163 1.01656,-0.58856 1.50203,-0.944c-0.50284,-0.39169 -1.00824,-0.74262 -1.52577,-1.08342c-0.35623,0.15174 -0.74547,0.2711 -1.17459,0.35374c-0.17429,-0.311 -0.32448,-0.62438 -0.44422,-0.93877c0.18886,-0.02776 0.36895,-0.06366 0.54099,-0.10719c-0.23684,-0.15007 -0.47727,-0.30223 -0.72214,-0.45907c-0.07497,-0.29188 -0.12055,-0.58391 -0.13168,-0.87506c0.21513,-0.15533 0.40751,-0.34152 0.57586,-0.5511c0.04224,-0.02208 0.08405,-0.04435 0.12542,-0.06685c-0.0174,-0.00925 -0.03477,-0.01855 -0.05212,-0.02788c0.09902,-0.1329 0.18888,-0.2742 0.26932,-0.42219c0.09467,0.05108 0.19009,0.10088 0.28617,0.14957c0.0832,-0.05487 0.1643,-0.11136 0.24329,-0.16974c-0.13636,-0.0811 -0.26835,-0.16508 -0.39532,-0.25223c0.1726,-0.38847 0.28501,-0.81223 0.33255,-1.2442c0.72111,-0.38991 1.65509,-0.56082 2.63685,-0.68655c0.11143,0.019 0.22327,0.04121 0.33543,0.06621zM248.81591,181.15774l0.01352,0.01886c0.59044,-0.56888 1.11369,-1.23225 1.53354,-2.07303l-0.02428,-0.02427c-0.5771,-0.5783 -1.25365,-1.03402 -1.9697,-1.42747c-0.21227,0.30399 -0.42703,0.604 -0.6453,0.8993c0.54193,0.48236 1.05489,1.00593 1.62829,1.48286l0.10032,0.15378c0,0 0.1118,0.2236 -0.11181,0.33541c-0.2236,0.11181 -0.33541,-0.1118 -0.33541,-0.1118l0.0268,0.00672c-0.56422,-0.47101 -1.06931,-0.99277 -1.60518,-1.47112c-0.178,0.23365 -0.35856,0.46406 -0.54223,0.69088c0.64486,0.49771 1.24343,1.06336 1.93142,1.51988zM244.81692,177.35854c-0.55138,-0.2498 -1.1238,-0.47584 -1.70879,-0.66655c-0.20664,0.35942 -0.41754,0.7038 -0.64029,1.02836c0.58137,0.20036 1.16612,0.38882 1.72107,0.579c0.22489,-0.30502 0.43497,-0.61917 0.62801,-0.94081zM244.88694,183.92554l0.01949,0.09514c0.44116,-0.31714 0.88343,-0.6091 1.3183,-0.89538c-0.56666,-0.26954 -1.09025,-0.67024 -1.63314,-1.04547c-0.22708,0.20408 -0.45988,0.4026 -0.69903,0.59514c0.3811,0.37217 0.72042,0.77132 0.99437,1.25057zM247.58098,182.01162c0.04477,0.01361 0.09837,0.04093 0.1332,0.09575c0.25472,-0.18825 0.50257,-0.3833 0.74147,-0.58996c-0.66187,-0.45637 -1.24814,-1.01675 -1.88383,-1.50065c-0.1648,0.1959 -0.33223,0.38885 -0.50266,0.57861c0.53089,0.4408 1.02166,0.92693 1.51182,1.41624zM246.52774,182.71463l0.20334,0.0762c0.18533,-0.12339 0.36865,-0.24714 0.54926,-0.37285c-0.50232,-0.50304 -1.00407,-1.00333 -1.55005,-1.45386c-0.25184,0.26767 -0.5104,0.52835 -0.77679,0.7813c0.52097,0.3687 1.03198,0.74366 1.57424,0.96921zM243.28785,179.38915c-0.51875,-0.25233 -1.05471,-0.47513 -1.59465,-0.6905c-0.21919,0.23519 -0.45292,0.45223 -0.70588,0.64819c0.45539,0.32773 0.9136,0.64903 1.38988,0.93887c0.31664,-0.28331 0.62123,-0.58292 0.91065,-0.89656zM242.74642,182.29812c-0.19566,-0.19 -0.3904,-0.36973 -0.58477,-0.54097c-0.49553,0.37724 -1.01119,0.71781 -1.53899,1.0156c0.1861,0.17649 0.37352,0.35119 0.56314,0.52279c0.5519,-0.30389 1.07031,-0.63762 1.56062,-0.99742zM241.50665,177.37268c0.21903,-0.30047 0.42266,-0.62351 0.62017,-0.96288c-0.44451,-0.11036 -0.89342,-0.19753 -1.34321,-0.25671c-0.17073,0.24319 -0.35728,0.46236 -0.55985,0.66259c0.40331,0.20213 0.83633,0.38558 1.28289,0.557zM245.34021,176.37816c-0.55556,-0.20639 -1.12574,-0.44485 -1.69671,-0.65674c-0.0956,0.17821 -0.1907,0.35405 -0.28605,0.52704c0.58474,0.19385 1.15678,0.4216 1.70836,0.67361c0.09697,-0.17937 0.18856,-0.36076 0.27439,-0.54391zM243.6116,180.92908c0.16591,0.07358 0.32802,0.15881 0.48738,0.25176c0.28525,-0.26322 0.56091,-0.53582 0.82845,-0.81676c-0.23753,-0.17618 -0.48337,-0.33826 -0.73576,-0.48919c-0.28266,0.31815 -0.5798,0.62374 -0.88898,0.91488c0.10181,0.04843 0.20473,0.09493 0.30891,0.13931zM245.41061,178.75117c0.22753,0.09228 0.44293,0.20105 0.64957,0.32187c0.20104,-0.24707 0.3981,-0.49869 0.59199,-0.7543c-0.28748,-0.20575 -0.59255,-0.39038 -0.92594,-0.54264c-0.17548,0.29807 -0.3642,0.59022 -0.56479,0.87541c0.0845,0.03292 0.1676,0.06612 0.24916,0.09966zM247.47041,177.19415c-0.32221,-0.1538 -0.64726,-0.30044 -0.97016,-0.44496c-0.06912,-0.01714 -0.13864,-0.03556 -0.20857,-0.05511c-0.09948,0.21728 -0.20624,0.43228 -0.3198,0.64464c0.35267,0.16422 0.67441,0.36222 0.97749,0.58195c0.17583,-0.23917 0.3493,-0.48149 0.52103,-0.72651zM242.38055,175.96052c0.10099,-0.18347 0.2014,-0.37064 0.30255,-0.56062c-0.45594,-0.1314 -0.90737,-0.22439 -1.34713,-0.24855c-0.08204,0.19137 -0.17007,0.37116 -0.26413,0.54057c0.43868,0.06641 0.87591,0.15717 1.30872,0.2686zM240.1331,178.73098c0.19698,-0.12975 0.38049,-0.27369 0.5531,-0.4301c-0.52134,-0.20731 -1.03875,-0.42048 -1.54031,-0.65938c-0.11524,0.06969 -0.23385,0.13715 -0.35584,0.20282c0.46266,0.2726 0.90592,0.57542 1.34305,0.88666zM243.87439,175.28543c0.56113,0.20862 1.12008,0.43751 1.66626,0.63616c0.08367,-0.20434 0.16003,-0.41054 0.2286,-0.61823c-0.62171,-0.0823 -1.25525,-0.12189 -1.85706,-0.14087c-0.01068,0.05303 -0.02658,0.09635 -0.0378,0.12294zM245.22147,179.21402c-0.11926,-0.04916 -0.24124,-0.09758 -0.36556,-0.14542c-0.10898,0.14296 -0.22092,0.28394 -0.33564,0.4228c0.25205,0.15232 0.49767,0.31594 0.73517,0.4938c0.00489,0.00325 0.00976,0.00651 0.01464,0.00977c0.15836,-0.17487 0.31394,-0.35264 0.4671,-0.53311c-0.16564,-0.09195 -0.33698,-0.17536 -0.51571,-0.24784zM242.03129,178.30843c0.54078,0.21695 1.07721,0.4421 1.59644,0.69772c0.08255,-0.09677 0.16364,-0.19471 0.24319,-0.29375c-0.55286,-0.19089 -1.12888,-0.38013 -1.70055,-0.58088c-0.04576,0.05981 -0.09211,0.1188 -0.13908,0.17691zM243.41201,181.38752c-0.17191,-0.07408 -0.34034,-0.15371 -0.50589,-0.23799c-0.11397,0.09958 -0.22934,0.19722 -0.34601,0.29283c0.1959,0.17415 0.39194,0.35687 0.58859,0.54992c0.19051,-0.14997 0.37674,-0.30394 0.55904,-0.4617c-0.09703,-0.05095 -0.1955,-0.09887 -0.29573,-0.14305zM239.37591,179.12805c0.09882,-0.03996 0.19467,-0.08286 0.28773,-0.12856c-0.4554,-0.31668 -0.92041,-0.61993 -1.41009,-0.88642c-0.08832,0.04139 -0.17819,0.08229 -0.26959,0.12284c0.47796,0.31273 0.94036,0.6041 1.39194,0.89215zM240.35732,179.76588c0.4808,0.3214 0.95274,0.6548 1.42207,1.02401c0.06938,-0.0551 0.13831,-0.11099 0.20676,-0.16764c-0.48569,-0.30669 -0.95397,-0.64203 -1.42181,-0.97965c-0.06767,0.04248 -0.13665,0.08359 -0.20703,0.12328zM240.53739,175.62337c0.10983,-0.18103 0.21152,-0.37629 0.30514,-0.58803c-0.44229,0.01122 -0.81816,0.21983 -1.15496,0.5322c0.28285,0.00719 0.56638,0.02614 0.84982,0.05584zM239.19019,176.19908c0.17976,0.13045 0.37245,0.25371 0.57557,0.37082c0.15815,-0.14617 0.30614,-0.30407 0.44411,-0.47673c-0.25393,-0.01949 -0.50766,-0.0294 -0.76058,-0.0289c0,0 -0.09334,0 -0.16595,-0.05703c-0.04467,0.05536 -0.08876,0.11207 -0.13236,0.16984c0.02444,0.01144 0.03922,0.022 0.03922,0.022zM241.06126,177.92409c0.0451,-0.04994 0.08946,-0.10079 0.13315,-0.15252c-0.47443,-0.18575 -0.93426,-0.3853 -1.36257,-0.60674c-0.06617,0.05324 -0.13376,0.10509 -0.20279,0.15566c0.46869,0.21578 0.94914,0.4117 1.43221,0.6036z" fill="#703e20"/></g></g></svg>