<svg version="1.1" xmlns="http://www.w3.org/2000/svg" xmlns:xlink="http://www.w3.org/1999/xlink" width="25.88971" height="44.56379" viewBox="0,0,25.88971,44.56379"><g transform="translate(-229.2324,-158.83757)"><g data-paper-data="{&quot;isPaintingLayer&quot;:true}" fill="#b4c28d" fill-rule="nonzero" stroke="none" stroke-width="0.5" stroke-linecap="butt" stroke-linejoin="miter" stroke-miterlimit="10" stroke-dasharray="" stroke-dashoffset="0" style="mix-blend-mode: normal"><path d="M239.56414,200.18886c-0.91941,-0.45971 -0.45971,-1.37911 -0.45971,-1.37911l0.31724,-0.6305c0.9476,-2.20358 2.51738,-4.48824 2.48671,-6.96191c0.00914,-2.91008 -1.79153,-4.50917 -3.62171,-6.28531c-2.50234,1.46717 -5.0512,2.95727 -6.03595,5.78483c-0.88733,2.27698 -0.98849,4.84698 -0.45645,7.24119l0.00614,1.14009c0,0 0,1.02793 -1.02793,1.02793c-1.02793,0 -1.02793,-1.02793 -1.02793,-1.02793l0.00614,-0.91577c-0.60588,-2.72646 -0.37454,-5.57587 0.57148,-8.17774c1.20899,-3.21446 3.81613,-4.88155 6.53335,-6.55313c-0.19648,-0.22558 -0.38717,-0.45864 -0.56943,-0.70137c-2.79025,-3.71606 -5.64426,-8.70137 -7.01215,-13.16656c0,0 -0.29538,-0.98457 0.6892,-1.27995c0.98458,-0.29538 1.27995,0.6892 1.27995,0.6892c1.23866,4.23469 4.0569,9.01195 6.69357,12.53167c0.21781,0.29076 0.44228,0.56801 0.67068,0.83488c0.2835,-0.18287 0.56517,-0.36947 0.84354,-0.56154c0.3379,-0.23316 0.6741,-0.48089 1.00723,-0.74193c-0.3578,-1.2963 -0.68049,-2.61385 -1.11948,-3.88777c-0.38235,-0.58038 -0.7098,-1.19282 -0.95561,-1.84738c-0.11603,-0.30897 -0.21711,-0.62168 -0.30363,-0.93721c-2.99193,-5.03607 -6.4338,-8.42082 -6.45031,-14.51803c0,0 0,-1.02793 1.02793,-1.02793c1.02793,0 1.02793,1.02793 1.02793,1.02793c-0.00996,4.23976 1.93125,7.07636 4.06734,10.22369c0.49094,-4.55248 3.52018,-8.85708 7.94275,-10.34227c0,0 0.97517,-0.32506 1.30023,0.65012c0.32506,0.97518 -0.65011,1.30024 -0.65011,1.30024c-4.69825,1.55274 -7.51716,7.13456 -6.35179,11.88963c0.47615,0.84608 0.85263,1.72834 1.17394,2.63028c0.57211,0.84148 1.2823,1.60684 2.00991,2.33481c2.46706,-2.64256 4.47223,-5.9239 5.27206,-9.17049c0,0 0.24931,-0.99724 1.24655,-0.74793c0.99724,0.24931 0.74793,1.24654 0.74793,1.24654c-0.91136,3.59968 -3.08704,7.21022 -5.79966,10.11355c0.00747,0.00746 0.01494,0.01494 0.0224,0.0224c4.69814,4.10823 7.95549,6.57726 10.19687,12.55353l-0.0643,-0.1946c0,0 0.72686,0.72686 0,1.45371c-0.72686,0.72686 -1.45371,0 -1.45371,0l-0.40695,-0.53725c-2.12473,-5.66668 -5.19096,-7.84689 -9.67643,-11.77411c-0.02578,-0.02577 -0.05162,-0.05154 -0.07752,-0.07733c-0.13551,0.12413 -0.27192,0.24642 -0.40918,0.36678c0.98884,6.62207 3.07662,12.71937 4.88811,19.14585l0.47537,0.94087c0,0 0.45971,0.91941 -0.4597,1.37912c-0.91941,0.45971 -1.37912,-0.45971 -1.37912,-0.45971l-0.55256,-1.11498c-0.74756,-2.58551 -1.53419,-5.12604 -2.27175,-7.67093c-0.54886,1.70386 -1.45528,3.30145 -2.16432,4.96206l-0.36805,0.74007c0,0 -0.4597,0.91941 -1.37911,0.4597zM240.92423,183.27579c-0.10886,0.07762 -0.21802,0.15393 -0.32743,0.22891c-0.18735,0.1284 -0.37837,0.25422 -0.57217,0.37815c0.42212,0.43018 0.83907,0.84723 1.23475,1.26974c-0.12059,-0.62194 -0.2327,-1.24732 -0.33515,-1.8768z"/></g></g></svg>